ply
format ascii 1.0
comment VCGLIB generated
obj_info Generated by SPFormer!
element vertex 66
property float x
property float y
property float z
property float nx
property float ny
property float nz
end_header
1.181858 0.472803 1.725733 0.000000 0.000000 0.000000
1.186861 0.473139 1.724979 0.000000 0.000000 0.000000
1.192847 0.468662 1.725447 0.000000 0.000000 0.000000
1.175327 0.477660 1.740292 0.000000 0.000000 0.000000
1.180995 0.474510 1.731597 0.000000 0.000000 0.000000
1.176616 0.476855 1.732837 0.000000 0.000000 0.000000
1.163814 0.472078 1.730924 0.000000 0.000000 0.000000
1.180660 0.477570 1.732580 0.000000 0.000000 0.000000
1.198596 0.467287 1.722564 0.000000 0.000000 0.000000
1.175084 0.475035 1.728467 0.000000 0.000000 0.000000
1.184248 0.472906 1.730088 0.000000 0.000000 0.000000
1.192850 0.471950 1.729318 0.000000 0.000000 0.000000
1.180188 0.474641 1.730821 0.000000 0.000000 0.000000
1.197810 0.471020 1.729075 0.000000 0.000000 0.000000
1.175519 0.476711 1.732705 0.000000 0.000000 0.000000
1.186274 0.472937 1.736467 0.000000 0.000000 0.000000
1.172879 0.476817 1.733048 0.000000 0.000000 0.000000
1.174919 0.479995 1.733503 0.000000 0.000000 0.000000
1.183474 0.476670 1.732800 0.000000 0.000000 0.000000
1.193303 0.473174 1.729847 0.000000 0.000000 0.000000
1.191912 0.470570 1.725526 0.000000 0.000000 0.000000
1.186016 0.472897 1.729735 0.000000 0.000000 0.000000
1.194544 0.469798 1.725887 0.000000 0.000000 0.000000
1.199742 0.468830 1.723610 0.000000 0.000000 0.000000
1.192565 0.471186 1.729954 0.000000 0.000000 0.000000
1.163992 0.479731 1.734443 0.000000 0.000000 0.000000
1.170072 0.479538 1.735775 0.000000 0.000000 0.000000
1.168443 0.479006 1.735987 0.000000 0.000000 0.000000
1.167702 0.479832 1.734220 0.000000 0.000000 0.000000
1.194453 0.470557 1.727537 0.000000 0.000000 0.000000
1.185228 0.473386 1.729084 0.000000 0.000000 0.000000
1.193853 0.473951 1.731014 0.000000 0.000000 0.000000
1.189784 0.471874 1.728918 0.000000 0.000000 0.000000
1.188821 0.469171 1.729068 0.000000 0.000000 0.000000
1.168140 0.478415 1.730625 0.000000 0.000000 0.000000
1.187923 0.472198 1.729582 0.000000 0.000000 0.000000
1.174587 0.477067 1.733236 0.000000 0.000000 0.000000
1.174714 0.477808 1.734396 0.000000 0.000000 0.000000
1.186440 0.470879 1.728505 0.000000 0.000000 0.000000
1.180194 0.476281 1.731778 0.000000 0.000000 0.000000
1.186488 0.473710 1.730712 0.000000 0.000000 0.000000
1.188501 0.472526 1.729593 0.000000 0.000000 0.000000
1.190068 0.471707 1.729203 0.000000 0.000000 0.000000
1.170519 0.477977 1.732550 0.000000 0.000000 0.000000
1.184878 0.473593 1.731559 0.000000 0.000000 0.000000
1.180105 0.474150 1.732173 0.000000 0.000000 0.000000
1.170321 0.478387 1.732808 0.000000 0.000000 0.000000
1.186177 0.475492 1.732019 0.000000 0.000000 0.000000
0.302726 0.319984 0.673206 0.000000 0.000000 0.000000
0.306644 0.099645 0.772773 0.000000 0.000000 0.000000
1.169282 0.454256 1.749660 0.000000 0.000000 0.000000
1.172527 0.454840 1.749185 0.000000 0.000000 0.000000
1.183417 0.457380 1.744517 0.000000 0.000000 0.000000
1.173931 0.459773 1.749632 0.000000 0.000000 0.000000
1.162951 0.455249 1.750149 0.000000 0.000000 0.000000
1.182406 0.458742 1.756726 0.000000 0.000000 0.000000
1.177148 0.456333 1.755704 0.000000 0.000000 0.000000
1.161022 0.458070 1.741025 0.000000 0.000000 0.000000
1.164588 0.448918 1.757681 0.000000 0.000000 0.000000
1.171712 0.458790 1.741122 0.000000 0.000000 0.000000
1.175421 0.460080 1.745896 0.000000 0.000000 0.000000
1.161778 0.463116 1.743295 0.000000 0.000000 0.000000
1.162589 0.461359 1.745162 0.000000 0.000000 0.000000
1.192602 0.454179 1.754301 0.000000 0.000000 0.000000
1.190252 0.456869 1.749648 0.000000 0.000000 0.000000
1.184447 0.453809 1.752151 0.000000 0.000000 0.000000
