ply
format ascii 1.0
comment VCGLIB generated
obj_info Generated by SPFormer!
element vertex 118
property float x
property float y
property float z
property float nx
property float ny
property float nz
end_header
0.094171 0.356696 1.914994 0.000000 0.000000 0.000000
0.100672 0.341067 1.914045 0.000000 0.000000 0.000000
0.116329 0.334352 1.919588 0.000000 0.000000 0.000000
0.114391 0.338963 1.916903 0.000000 0.000000 0.000000
-0.716840 0.801201 2.616500 0.000000 0.000000 0.000000
-0.702657 0.802196 2.622722 0.000000 0.000000 0.000000
0.119145 0.341499 1.918369 0.000000 0.000000 0.000000
0.116866 0.336472 1.919023 0.000000 0.000000 0.000000
-0.707455 0.804249 2.615953 0.000000 0.000000 0.000000
0.107459 0.343515 1.916483 0.000000 0.000000 0.000000
-0.706164 0.807982 2.601777 0.000000 0.000000 0.000000
0.089574 0.349486 1.917699 0.000000 0.000000 0.000000
0.111226 0.339343 1.916619 0.000000 0.000000 0.000000
0.106384 0.341122 1.918780 0.000000 0.000000 0.000000
-0.682127 0.800284 2.602804 0.000000 0.000000 0.000000
-0.120728 0.932604 2.736370 0.000000 0.000000 0.000000
0.112867 0.336185 1.917305 0.000000 0.000000 0.000000
-0.139564 1.050216 2.745534 0.000000 0.000000 0.000000
0.099292 0.359228 1.914028 0.000000 0.000000 0.000000
-0.132111 0.935826 2.743778 0.000000 0.000000 0.000000
-0.134980 0.920942 2.735617 0.000000 0.000000 0.000000
0.107812 0.334793 1.919267 0.000000 0.000000 0.000000
-0.706201 0.801415 2.605422 0.000000 0.000000 0.000000
-0.182195 0.839880 2.762904 0.000000 0.000000 0.000000
-0.719571 0.801128 2.608731 0.000000 0.000000 0.000000
-0.697792 0.800020 2.603276 0.000000 0.000000 0.000000
-0.704733 0.800837 2.608778 0.000000 0.000000 0.000000
-0.688465 0.801950 2.618941 0.000000 0.000000 0.000000
-0.698335 0.802597 2.617527 0.000000 0.000000 0.000000
-0.710929 0.807770 2.603813 0.000000 0.000000 0.000000
-0.706588 0.808927 2.609484 0.000000 0.000000 0.000000
-0.709056 0.811477 2.600741 0.000000 0.000000 0.000000
-0.711614 0.803635 2.605374 0.000000 0.000000 0.000000
0.105321 0.334871 1.918817 0.000000 0.000000 0.000000
0.112228 0.336580 1.913797 0.000000 0.000000 0.000000
-0.706084 0.807804 2.604571 0.000000 0.000000 0.000000
-0.163637 0.840727 2.719503 0.000000 0.000000 0.000000
-0.165486 0.840185 2.694214 0.000000 0.000000 0.000000
-0.168464 0.841779 2.695099 0.000000 0.000000 0.000000
-0.183268 0.873830 2.689342 0.000000 0.000000 0.000000
-0.179702 0.879636 2.690382 0.000000 0.000000 0.000000
-0.163631 0.879970 2.691243 0.000000 0.000000 0.000000
-0.165026 0.873459 2.690942 0.000000 0.000000 0.000000
-0.198887 0.879008 2.684047 0.000000 0.000000 0.000000
-0.164449 0.876550 2.691802 0.000000 0.000000 0.000000
-0.185991 0.878126 2.684245 0.000000 0.000000 0.000000
-0.162682 0.879601 2.685179 0.000000 0.000000 0.000000
-0.179500 0.875680 2.685926 0.000000 0.000000 0.000000
-0.170701 0.879758 2.686980 0.000000 0.000000 0.000000
-0.635837 0.133219 1.738625 0.000000 0.000000 0.000000
-0.703825 0.830971 2.600226 0.000000 0.000000 0.000000
-0.727912 0.864350 2.646295 0.000000 0.000000 0.000000
-0.742818 0.883604 2.612166 0.000000 0.000000 0.000000
-0.716071 0.822885 2.623764 0.000000 0.000000 0.000000
-0.682507 0.830771 2.602084 0.000000 0.000000 0.000000
-0.746593 0.885540 2.632558 0.000000 0.000000 0.000000
-0.710954 0.838401 2.603643 0.000000 0.000000 0.000000
-0.757328 0.879089 2.607972 0.000000 0.000000 0.000000
-0.213972 0.838828 3.274625 0.000000 0.000000 0.000000
-0.147955 1.043470 3.233129 0.000000 0.000000 0.000000
-0.157953 1.055459 3.237552 0.000000 0.000000 0.000000
-0.211788 0.836566 3.266955 0.000000 0.000000 0.000000
-0.132534 1.048427 3.239502 0.000000 0.000000 0.000000
-0.135222 1.049298 3.234736 0.000000 0.000000 0.000000
-0.145928 1.054747 3.232682 0.000000 0.000000 0.000000
-0.141899 1.054988 3.237770 0.000000 0.000000 0.000000
-0.151595 1.050170 3.224197 0.000000 0.000000 0.000000
-0.142698 1.055991 3.234138 0.000000 0.000000 0.000000
-0.140598 1.058768 3.226491 0.000000 0.000000 0.000000
-0.153344 1.057205 3.232570 0.000000 0.000000 0.000000
-0.145839 1.057226 3.227649 0.000000 0.000000 0.000000
-0.148575 1.043087 3.232898 0.000000 0.000000 0.000000
-0.144047 1.050704 3.227636 0.000000 0.000000 0.000000
-0.148058 1.048832 3.224059 0.000000 0.000000 0.000000
-0.144520 1.051567 3.239499 0.000000 0.000000 0.000000
-0.155759 1.051183 3.235668 0.000000 0.000000 0.000000
-0.154573 1.056134 3.228921 0.000000 0.000000 0.000000
-0.159250 1.056595 3.227781 0.000000 0.000000 0.000000
-0.159735 1.061423 3.232389 0.000000 0.000000 0.000000
-0.159033 1.048918 3.228027 0.000000 0.000000 0.000000
-0.155693 1.058926 3.224787 0.000000 0.000000 0.000000
-0.158084 1.042776 3.218867 0.000000 0.000000 0.000000
-0.149293 1.045935 3.220273 0.000000 0.000000 0.000000
-0.158723 1.071822 3.229071 0.000000 0.000000 0.000000
-0.139922 1.062778 3.232080 0.000000 0.000000 0.000000
-0.139567 1.056731 3.226822 0.000000 0.000000 0.000000
-0.144826 1.045354 3.230794 0.000000 0.000000 0.000000
-0.147137 1.050402 3.221967 0.000000 0.000000 0.000000
-0.146453 1.053224 3.225602 0.000000 0.000000 0.000000
-0.135385 1.067380 3.233562 0.000000 0.000000 0.000000
-0.149744 1.042535 3.223464 0.000000 0.000000 0.000000
-0.146747 1.052382 3.225971 0.000000 0.000000 0.000000
-0.137067 1.064388 3.232028 0.000000 0.000000 0.000000
-0.133069 1.068108 3.233533 0.000000 0.000000 0.000000
-0.133421 1.061212 3.234814 0.000000 0.000000 0.000000
-0.146538 1.059647 3.233251 0.000000 0.000000 0.000000
-0.134499 1.060644 3.235857 0.000000 0.000000 0.000000
-0.137633 1.058131 3.231392 0.000000 0.000000 0.000000
-0.140032 1.059497 3.229387 0.000000 0.000000 0.000000
-0.143320 1.053389 3.223894 0.000000 0.000000 0.000000
-0.142297 1.059672 3.230613 0.000000 0.000000 0.000000
-0.130963 1.058470 3.239294 0.000000 0.000000 0.000000
-0.141501 1.055562 3.232385 0.000000 0.000000 0.000000
-0.135356 1.064893 3.237177 0.000000 0.000000 0.000000
-0.132792 1.072495 3.237841 0.000000 0.000000 0.000000
-0.172656 1.069499 3.367955 0.000000 0.000000 0.000000
-0.054967 -0.084932 0.677568 0.000000 0.000000 0.000000
-0.067481 -0.105760 0.666657 0.000000 0.000000 0.000000
-0.078184 -0.105781 0.674928 0.000000 0.000000 0.000000
-0.067085 -0.109711 0.677923 0.000000 0.000000 0.000000
-0.073041 -0.097206 0.676519 0.000000 0.000000 0.000000
-0.077626 -0.098041 0.664156 0.000000 0.000000 0.000000
-0.067363 -0.086390 0.647075 0.000000 0.000000 0.000000
-0.070260 -0.101929 0.669317 0.000000 0.000000 0.000000
-0.069328 -0.083252 0.674081 0.000000 0.000000 0.000000
-0.078133 -0.086356 0.674363 0.000000 0.000000 0.000000
-0.073774 -0.101243 0.679467 0.000000 0.000000 0.000000
-0.073019 -0.102110 0.667960 0.000000 0.000000 0.000000
