ply
format ascii 1.0
comment VCGLIB generated
obj_info Generated by SPFormer!
element vertex 52
property float x
property float y
property float z
property float nx
property float ny
property float nz
end_header
-0.483434 1.009112 3.082131 0.000000 0.000000 0.000000
-0.495075 0.990739 3.067968 0.000000 0.000000 0.000000
-0.479093 0.977966 3.041488 0.000000 0.000000 0.000000
-0.490921 0.996730 3.061622 0.000000 0.000000 0.000000
-0.489626 0.989547 3.042529 0.000000 0.000000 0.000000
-0.486802 1.004132 3.081867 0.000000 0.000000 0.000000
-0.487579 0.995730 3.063984 0.000000 0.000000 0.000000
-0.495462 0.999852 3.076453 0.000000 0.000000 0.000000
-0.499365 1.000997 3.080067 0.000000 0.000000 0.000000
-0.494700 0.993934 3.072921 0.000000 0.000000 0.000000
-0.481535 0.986013 3.051962 0.000000 0.000000 0.000000
-0.497041 0.991310 3.070229 0.000000 0.000000 0.000000
-0.484267 0.988952 3.055841 0.000000 0.000000 0.000000
-0.489676 0.999226 3.071428 0.000000 0.000000 0.000000
-0.487976 1.003872 3.089579 0.000000 0.000000 0.000000
-0.485123 1.006812 3.077084 0.000000 0.000000 0.000000
-0.500304 0.995252 3.075877 0.000000 0.000000 0.000000
-0.496045 0.991122 3.069904 0.000000 0.000000 0.000000
-0.486412 1.000122 3.067165 0.000000 0.000000 0.000000
-0.480889 0.987265 3.054435 0.000000 0.000000 0.000000
-0.491285 1.003428 3.074396 0.000000 0.000000 0.000000
-0.498598 1.004778 3.086407 0.000000 0.000000 0.000000
-0.487035 1.005703 3.074233 0.000000 0.000000 0.000000
-0.495693 0.994403 3.071730 0.000000 0.000000 0.000000
-0.485663 0.990864 3.060758 0.000000 0.000000 0.000000
-0.490626 0.999545 3.071694 0.000000 0.000000 0.000000
-0.495754 1.007314 3.080861 0.000000 0.000000 0.000000
-0.495894 0.989706 3.067900 0.000000 0.000000 0.000000
-0.493957 1.005525 3.081785 0.000000 0.000000 0.000000
-0.486883 1.005713 3.076372 0.000000 0.000000 0.000000
-0.486327 1.001364 3.074705 0.000000 0.000000 0.000000
-0.497395 0.991191 3.069388 0.000000 0.000000 0.000000
-0.495994 0.989835 3.066578 0.000000 0.000000 0.000000
-0.482835 0.990789 3.067976 0.000000 0.000000 0.000000
-0.479972 0.985135 3.048304 0.000000 0.000000 0.000000
-0.484402 0.984536 3.045650 0.000000 0.000000 0.000000
-0.475558 0.973813 3.046142 0.000000 0.000000 0.000000
-0.492111 1.002749 3.079094 0.000000 0.000000 0.000000
-0.491090 1.008668 3.083365 0.000000 0.000000 0.000000
-0.489141 1.008559 3.072269 0.000000 0.000000 0.000000
-0.494180 0.991533 3.071172 0.000000 0.000000 0.000000
-0.483855 0.995421 3.071708 0.000000 0.000000 0.000000
-0.482456 0.992944 3.058791 0.000000 0.000000 0.000000
-0.496070 0.985113 3.062424 0.000000 0.000000 0.000000
-0.497290 0.981505 3.065863 0.000000 0.000000 0.000000
-0.496089 0.988527 3.067073 0.000000 0.000000 0.000000
-0.490218 0.992783 3.066338 0.000000 0.000000 0.000000
-0.495155 0.984864 3.062590 0.000000 0.000000 0.000000
-0.485367 1.001019 3.068507 0.000000 0.000000 0.000000
-0.491445 0.993822 3.072786 0.000000 0.000000 0.000000
-0.491643 1.001914 3.075610 0.000000 0.000000 0.000000
-0.478386 0.981615 3.047400 0.000000 0.000000 0.000000
