ply
format ascii 1.0
comment VCGLIB generated
obj_info Generated by SPFormer!
element vertex 527
property float x
property float y
property float z
property float nx
property float ny
property float nz
end_header
0.530795 0.871444 1.481684 0.000000 0.000000 0.000000
0.515106 0.856893 1.473386 0.000000 0.000000 0.000000
0.532344 0.863641 1.465506 0.000000 0.000000 0.000000
0.531865 0.867900 1.468012 0.000000 0.000000 0.000000
0.532699 0.858669 1.476647 0.000000 0.000000 0.000000
0.523483 0.877150 1.503821 0.000000 0.000000 0.000000
0.526239 0.870704 1.477047 0.000000 0.000000 0.000000
0.526968 0.858836 1.463779 0.000000 0.000000 0.000000
0.529495 0.863339 1.473391 0.000000 0.000000 0.000000
0.520128 0.879598 1.502862 0.000000 0.000000 0.000000
0.527115 0.874213 1.461545 0.000000 0.000000 0.000000
0.521614 0.866064 1.484554 0.000000 0.000000 0.000000
0.533860 0.858947 1.466276 0.000000 0.000000 0.000000
0.521469 0.880558 1.511228 0.000000 0.000000 0.000000
0.520334 0.866853 1.495421 0.000000 0.000000 0.000000
0.527322 0.861097 1.466578 0.000000 0.000000 0.000000
0.516442 0.849073 1.477054 0.000000 0.000000 0.000000
0.534741 0.864732 1.470013 0.000000 0.000000 0.000000
0.524075 0.851850 1.464409 0.000000 0.000000 0.000000
0.517534 0.860090 1.465503 0.000000 0.000000 0.000000
0.530635 0.853969 1.454090 0.000000 0.000000 0.000000
0.521269 0.877223 1.483101 0.000000 0.000000 0.000000
0.534039 0.865823 1.466824 0.000000 0.000000 0.000000
0.528504 0.855859 1.461197 0.000000 0.000000 0.000000
0.532123 0.867273 1.468330 0.000000 0.000000 0.000000
0.520073 0.877678 1.508156 0.000000 0.000000 0.000000
0.528501 0.860544 1.483045 0.000000 0.000000 0.000000
0.530472 0.853743 1.470888 0.000000 0.000000 0.000000
0.522824 0.870339 1.493911 0.000000 0.000000 0.000000
0.521826 0.877349 1.492575 0.000000 0.000000 0.000000
0.522120 0.859779 1.486159 0.000000 0.000000 0.000000
0.532882 0.865457 1.471463 0.000000 0.000000 0.000000
0.515101 0.864226 1.471648 0.000000 0.000000 0.000000
0.522891 0.880604 1.497656 0.000000 0.000000 0.000000
0.523419 0.855534 1.464370 0.000000 0.000000 0.000000
0.523108 0.881467 1.503314 0.000000 0.000000 0.000000
0.514753 0.870563 1.470977 0.000000 0.000000 0.000000
0.514954 0.858026 1.473270 0.000000 0.000000 0.000000
0.532577 0.860196 1.462549 0.000000 0.000000 0.000000
0.515145 0.857097 1.479531 0.000000 0.000000 0.000000
0.521849 0.860055 1.464455 0.000000 0.000000 0.000000
0.529893 0.863111 1.483708 0.000000 0.000000 0.000000
0.526481 0.852511 1.456417 0.000000 0.000000 0.000000
0.534224 0.861789 1.474662 0.000000 0.000000 0.000000
0.520561 0.861300 1.497113 0.000000 0.000000 0.000000
0.525391 0.860173 1.489027 0.000000 0.000000 0.000000
0.507913 0.858351 1.474205 0.000000 0.000000 0.000000
0.525495 0.862555 1.466438 0.000000 0.000000 0.000000
0.520456 0.864330 1.483591 0.000000 0.000000 0.000000
0.527792 0.857037 1.460653 0.000000 0.000000 0.000000
0.529591 0.852374 1.455260 0.000000 0.000000 0.000000
0.520534 0.879521 1.484382 0.000000 0.000000 0.000000
0.525298 0.880469 1.493198 0.000000 0.000000 0.000000
0.524495 0.859696 1.465451 0.000000 0.000000 0.000000
0.525892 0.855177 1.481383 0.000000 0.000000 0.000000
0.527593 0.855078 1.461648 0.000000 0.000000 0.000000
0.530528 0.855684 1.452658 0.000000 0.000000 0.000000
0.526264 0.854909 1.468194 0.000000 0.000000 0.000000
0.528167 0.855428 1.462682 0.000000 0.000000 0.000000
0.515280 0.861712 1.468945 0.000000 0.000000 0.000000
0.519976 0.858089 1.471612 0.000000 0.000000 0.000000
0.529915 0.869948 1.484413 0.000000 0.000000 0.000000
0.532399 0.854018 1.449189 0.000000 0.000000 0.000000
0.527804 0.864956 1.478351 0.000000 0.000000 0.000000
0.519763 0.855912 1.465958 0.000000 0.000000 0.000000
0.516660 0.855641 1.475096 0.000000 0.000000 0.000000
0.515461 0.855400 1.477457 0.000000 0.000000 0.000000
0.525865 0.854632 1.479504 0.000000 0.000000 0.000000
0.514825 0.856748 1.477588 0.000000 0.000000 0.000000
0.528018 0.854361 1.461342 0.000000 0.000000 0.000000
0.522111 0.854482 1.479303 0.000000 0.000000 0.000000
0.527854 0.853061 1.471942 0.000000 0.000000 0.000000
0.522497 0.877677 1.499692 0.000000 0.000000 0.000000
0.522232 0.879101 1.503183 0.000000 0.000000 0.000000
0.521302 0.857627 1.464320 0.000000 0.000000 0.000000
0.534470 0.861853 1.464770 0.000000 0.000000 0.000000
0.521719 0.857160 1.476001 0.000000 0.000000 0.000000
0.532835 0.869535 1.470561 0.000000 0.000000 0.000000
0.530508 0.856037 1.462082 0.000000 0.000000 0.000000
0.533282 0.858288 1.466281 0.000000 0.000000 0.000000
0.522190 0.882730 1.480829 0.000000 0.000000 0.000000
0.527796 0.864885 1.480744 0.000000 0.000000 0.000000
0.524121 0.883255 1.480775 0.000000 0.000000 0.000000
0.527277 0.854884 1.463580 0.000000 0.000000 0.000000
0.529310 0.875417 1.480776 0.000000 0.000000 0.000000
0.524156 0.855755 1.464683 0.000000 0.000000 0.000000
0.497530 0.874927 1.466179 0.000000 0.000000 0.000000
0.526694 0.879206 1.490741 0.000000 0.000000 0.000000
0.523704 0.872900 1.495861 0.000000 0.000000 0.000000
0.520073 0.860526 1.482520 0.000000 0.000000 0.000000
0.531570 0.856605 1.461096 0.000000 0.000000 0.000000
0.510651 0.860310 1.467780 0.000000 0.000000 0.000000
0.513380 0.854799 1.471573 0.000000 0.000000 0.000000
0.511021 0.865535 1.479923 0.000000 0.000000 0.000000
0.535703 0.852933 1.450056 0.000000 0.000000 0.000000
0.517661 0.859998 1.466625 0.000000 0.000000 0.000000
0.532424 0.861478 1.478812 0.000000 0.000000 0.000000
0.526605 0.860891 1.466801 0.000000 0.000000 0.000000
0.534183 0.856490 1.473244 0.000000 0.000000 0.000000
0.537202 0.860471 1.466715 0.000000 0.000000 0.000000
0.517482 0.854917 1.478706 0.000000 0.000000 0.000000
0.519871 0.867370 1.466885 0.000000 0.000000 0.000000
0.531714 0.855909 1.453560 0.000000 0.000000 0.000000
0.536580 0.860257 1.468599 0.000000 0.000000 0.000000
0.512245 0.862317 1.478203 0.000000 0.000000 0.000000
0.517531 0.864404 1.476474 0.000000 0.000000 0.000000
0.526711 0.856460 1.462028 0.000000 0.000000 0.000000
0.533556 0.849890 1.454006 0.000000 0.000000 0.000000
0.522681 0.850967 1.471100 0.000000 0.000000 0.000000
0.522603 0.855266 1.484822 0.000000 0.000000 0.000000
0.523787 0.880058 1.480197 0.000000 0.000000 0.000000
0.520839 0.854771 1.466897 0.000000 0.000000 0.000000
0.526011 0.857112 1.484345 0.000000 0.000000 0.000000
0.532779 0.871648 1.474739 0.000000 0.000000 0.000000
0.532650 0.871705 1.473018 0.000000 0.000000 0.000000
0.521945 0.877213 1.502573 0.000000 0.000000 0.000000
0.524295 0.868070 1.487538 0.000000 0.000000 0.000000
0.520628 0.858591 1.488611 0.000000 0.000000 0.000000
0.528630 0.861508 1.462695 0.000000 0.000000 0.000000
0.520902 0.857823 1.486178 0.000000 0.000000 0.000000
0.517857 0.862697 1.464965 0.000000 0.000000 0.000000
0.521960 0.870339 1.489965 0.000000 0.000000 0.000000
0.530315 0.858996 1.463183 0.000000 0.000000 0.000000
0.513933 0.858690 1.472770 0.000000 0.000000 0.000000
0.526425 0.858852 1.475746 0.000000 0.000000 0.000000
0.532088 0.854916 1.465917 0.000000 0.000000 0.000000
0.513854 0.863819 1.472335 0.000000 0.000000 0.000000
0.534036 0.860972 1.460098 0.000000 0.000000 0.000000
0.525592 0.853094 1.469765 0.000000 0.000000 0.000000
0.523983 0.868051 1.475176 0.000000 0.000000 0.000000
0.516980 0.865705 1.477077 0.000000 0.000000 0.000000
0.522150 0.862719 1.474712 0.000000 0.000000 0.000000
0.521246 0.878332 1.507641 0.000000 0.000000 0.000000
0.515868 0.863334 1.467165 0.000000 0.000000 0.000000
0.525387 0.883818 1.492122 0.000000 0.000000 0.000000
0.520704 0.869602 1.482072 0.000000 0.000000 0.000000
0.526792 0.852933 1.468218 0.000000 0.000000 0.000000
0.522407 0.882455 1.495016 0.000000 0.000000 0.000000
0.521167 0.854776 1.496011 0.000000 0.000000 0.000000
0.521384 0.866333 1.494949 0.000000 0.000000 0.000000
0.523271 0.858758 1.489435 0.000000 0.000000 0.000000
0.523311 0.881468 1.497962 0.000000 0.000000 0.000000
0.521036 0.861975 1.465645 0.000000 0.000000 0.000000
0.514736 0.858586 1.478985 0.000000 0.000000 0.000000
0.533012 0.855058 1.467528 0.000000 0.000000 0.000000
0.533915 0.857796 1.466062 0.000000 0.000000 0.000000
0.534973 0.857879 1.463229 0.000000 0.000000 0.000000
0.516881 0.865384 1.467252 0.000000 0.000000 0.000000
0.528028 0.851519 1.467855 0.000000 0.000000 0.000000
0.526255 0.852015 1.471601 0.000000 0.000000 0.000000
0.529765 0.848257 1.454329 0.000000 0.000000 0.000000
0.534526 0.858632 1.455203 0.000000 0.000000 0.000000
0.518090 0.859093 1.459134 0.000000 0.000000 0.000000
0.525861 0.860096 1.463197 0.000000 0.000000 0.000000
0.524629 0.853856 1.465396 0.000000 0.000000 0.000000
0.518074 0.856150 1.461109 0.000000 0.000000 0.000000
0.520191 0.871857 1.500296 0.000000 0.000000 0.000000
0.525991 0.853495 1.462016 0.000000 0.000000 0.000000
0.530919 0.853638 1.458536 0.000000 0.000000 0.000000
0.526436 0.852930 1.462504 0.000000 0.000000 0.000000
0.527838 0.859422 1.460272 0.000000 0.000000 0.000000
0.527906 0.855607 1.464068 0.000000 0.000000 0.000000
0.531174 0.851239 1.448328 0.000000 0.000000 0.000000
0.520397 0.879911 1.516079 0.000000 0.000000 0.000000
0.525848 0.881922 1.492877 0.000000 0.000000 0.000000
0.512286 0.859462 1.468455 0.000000 0.000000 0.000000
0.522893 0.855993 1.461356 0.000000 0.000000 0.000000
0.524969 0.862011 1.468924 0.000000 0.000000 0.000000
0.529691 0.863578 1.469914 0.000000 0.000000 0.000000
0.537125 0.861349 1.463208 0.000000 0.000000 0.000000
0.525882 0.855191 1.462174 0.000000 0.000000 0.000000
0.521879 0.862231 1.467889 0.000000 0.000000 0.000000
0.523073 0.866571 1.465178 0.000000 0.000000 0.000000
0.526537 0.857089 1.471337 0.000000 0.000000 0.000000
0.518149 0.862695 1.466936 0.000000 0.000000 0.000000
0.526364 0.858072 1.460514 0.000000 0.000000 0.000000
0.528247 0.851183 1.460877 0.000000 0.000000 0.000000
0.516352 0.860787 1.458952 0.000000 0.000000 0.000000
0.521708 0.886763 1.496096 0.000000 0.000000 0.000000
0.530481 0.857977 1.457570 0.000000 0.000000 0.000000
0.516986 0.852945 1.461718 0.000000 0.000000 0.000000
0.533607 0.860655 1.465772 0.000000 0.000000 0.000000
0.517361 0.857111 1.479753 0.000000 0.000000 0.000000
0.529390 0.854807 1.476787 0.000000 0.000000 0.000000
0.520245 0.860984 1.470330 0.000000 0.000000 0.000000
0.523577 0.850756 1.469524 0.000000 0.000000 0.000000
0.523278 0.851365 1.469393 0.000000 0.000000 0.000000
0.514705 0.863198 1.470574 0.000000 0.000000 0.000000
0.526738 0.884195 1.495750 0.000000 0.000000 0.000000
0.515814 0.865817 1.474183 0.000000 0.000000 0.000000
0.535854 0.861672 1.461100 0.000000 0.000000 0.000000
0.538034 0.862797 1.461831 0.000000 0.000000 0.000000
0.526605 0.880778 1.492380 0.000000 0.000000 0.000000
0.527744 0.883132 1.487858 0.000000 0.000000 0.000000
0.524639 0.887682 1.480669 0.000000 0.000000 0.000000
0.525208 0.853510 1.476214 0.000000 0.000000 0.000000
0.523988 0.853393 1.469375 0.000000 0.000000 0.000000
0.517940 0.864987 1.465631 0.000000 0.000000 0.000000
0.528168 0.867624 1.496779 0.000000 0.000000 0.000000
0.505187 0.861668 1.477462 0.000000 0.000000 0.000000
0.524874 0.889180 1.492960 0.000000 0.000000 0.000000
0.527149 0.875860 1.490207 0.000000 0.000000 0.000000
0.557683 0.889007 1.484002 0.000000 0.000000 0.000000
0.524702 0.875256 1.484105 0.000000 0.000000 0.000000
0.517499 0.867386 1.475331 0.000000 0.000000 0.000000
0.513047 0.854868 1.464775 0.000000 0.000000 0.000000
0.520587 0.858921 1.497795 0.000000 0.000000 0.000000
0.526136 0.870272 1.486777 0.000000 0.000000 0.000000
0.523179 0.867098 1.492787 0.000000 0.000000 0.000000
0.531332 0.855539 1.461804 0.000000 0.000000 0.000000
0.515299 0.866592 1.469960 0.000000 0.000000 0.000000
0.527979 0.848613 1.458339 0.000000 0.000000 0.000000
0.520028 0.848747 1.465226 0.000000 0.000000 0.000000
0.493049 0.875976 1.457300 0.000000 0.000000 0.000000
0.505185 0.879644 1.467218 0.000000 0.000000 0.000000
0.483217 0.879904 1.447538 0.000000 0.000000 0.000000
0.483035 0.879801 1.445619 0.000000 0.000000 0.000000
0.482021 0.877840 1.446321 0.000000 0.000000 0.000000
0.503132 0.877231 1.465098 0.000000 0.000000 0.000000
0.493263 0.878943 1.450018 0.000000 0.000000 0.000000
0.488408 0.878308 1.451733 0.000000 0.000000 0.000000
0.496998 0.877583 1.458863 0.000000 0.000000 0.000000
0.481057 0.879815 1.447175 0.000000 0.000000 0.000000
0.485822 0.877164 1.444306 0.000000 0.000000 0.000000
0.480746 0.876351 1.447936 0.000000 0.000000 0.000000
0.490795 0.874980 1.452223 0.000000 0.000000 0.000000
0.604687 0.862011 1.464237 0.000000 0.000000 0.000000
0.562997 0.869070 1.473241 0.000000 0.000000 0.000000
0.576682 0.869859 1.474217 0.000000 0.000000 0.000000
0.568275 0.877537 1.469052 0.000000 0.000000 0.000000
0.566374 0.879976 1.468120 0.000000 0.000000 0.000000
0.566357 0.867056 1.467715 0.000000 0.000000 0.000000
0.538393 0.880330 1.482719 0.000000 0.000000 0.000000
0.557894 0.864369 1.467820 0.000000 0.000000 0.000000
0.599140 0.860814 1.459596 0.000000 0.000000 0.000000
0.564291 0.875526 1.458998 0.000000 0.000000 0.000000
0.560806 0.879801 1.463314 0.000000 0.000000 0.000000
0.571575 0.877782 1.458004 0.000000 0.000000 0.000000
0.588290 0.865782 1.468678 0.000000 0.000000 0.000000
0.565596 0.870917 1.459419 0.000000 0.000000 0.000000
0.568799 0.871143 1.464910 0.000000 0.000000 0.000000
0.586489 0.860439 1.465362 0.000000 0.000000 0.000000
0.533687 0.872255 1.476940 0.000000 0.000000 0.000000
0.537676 0.863864 1.466263 0.000000 0.000000 0.000000
0.558797 0.860975 1.453808 0.000000 0.000000 0.000000
0.561723 0.867535 1.469626 0.000000 0.000000 0.000000
0.599152 0.863383 1.464663 0.000000 0.000000 0.000000
0.589880 0.859231 1.462693 0.000000 0.000000 0.000000
0.546524 0.873397 1.467200 0.000000 0.000000 0.000000
0.583548 0.856161 1.456739 0.000000 0.000000 0.000000
0.559699 0.867134 1.475765 0.000000 0.000000 0.000000
0.577646 0.866201 1.457536 0.000000 0.000000 0.000000
0.596409 0.856694 1.464425 0.000000 0.000000 0.000000
0.556449 0.878677 1.469836 0.000000 0.000000 0.000000
0.565559 0.865444 1.466136 0.000000 0.000000 0.000000
0.582682 0.857569 1.461841 0.000000 0.000000 0.000000
0.589307 0.860852 1.456321 0.000000 0.000000 0.000000
0.562824 0.864510 1.466441 0.000000 0.000000 0.000000
0.577414 0.858499 1.460877 0.000000 0.000000 0.000000
0.580114 0.864636 1.452786 0.000000 0.000000 0.000000
0.572321 0.874481 1.467662 0.000000 0.000000 0.000000
0.599198 0.861137 1.463545 0.000000 0.000000 0.000000
0.586624 0.860987 1.458488 0.000000 0.000000 0.000000
0.564856 0.861616 1.461948 0.000000 0.000000 0.000000
0.561125 0.870554 1.474220 0.000000 0.000000 0.000000
0.597649 0.858907 1.462573 0.000000 0.000000 0.000000
0.554651 0.863467 1.470718 0.000000 0.000000 0.000000
0.546035 0.868127 1.461081 0.000000 0.000000 0.000000
0.582768 0.869640 1.465370 0.000000 0.000000 0.000000
0.591060 0.857680 1.463357 0.000000 0.000000 0.000000
0.573524 0.855840 1.457713 0.000000 0.000000 0.000000
0.550641 0.864923 1.468559 0.000000 0.000000 0.000000
0.564799 0.865268 1.467747 0.000000 0.000000 0.000000
0.535178 0.874727 1.476268 0.000000 0.000000 0.000000
0.592642 0.861174 1.467416 0.000000 0.000000 0.000000
0.588254 0.852928 1.452033 0.000000 0.000000 0.000000
0.554634 0.869658 1.470300 0.000000 0.000000 0.000000
0.562118 0.869166 1.457053 0.000000 0.000000 0.000000
0.599947 0.862405 1.467519 0.000000 0.000000 0.000000
0.573081 0.870829 1.474437 0.000000 0.000000 0.000000
0.544968 0.874113 1.464393 0.000000 0.000000 0.000000
0.553898 0.873473 1.475278 0.000000 0.000000 0.000000
0.556247 0.863209 1.465212 0.000000 0.000000 0.000000
0.568568 0.869462 1.475132 0.000000 0.000000 0.000000
0.555918 0.862578 1.467026 0.000000 0.000000 0.000000
0.543465 0.868815 1.465156 0.000000 0.000000 0.000000
0.584184 0.862652 1.461224 0.000000 0.000000 0.000000
0.571563 0.871099 1.461641 0.000000 0.000000 0.000000
0.598612 0.860952 1.467469 0.000000 0.000000 0.000000
0.532409 0.874789 1.482873 0.000000 0.000000 0.000000
0.534185 0.872733 1.479743 0.000000 0.000000 0.000000
0.575882 0.865002 1.470967 0.000000 0.000000 0.000000
0.557585 0.861962 1.455856 0.000000 0.000000 0.000000
0.548540 0.871914 1.471776 0.000000 0.000000 0.000000
0.541674 0.868859 1.465270 0.000000 0.000000 0.000000
0.597940 0.860311 1.466039 0.000000 0.000000 0.000000
0.557423 0.864498 1.472402 0.000000 0.000000 0.000000
0.568552 0.863310 1.455964 0.000000 0.000000 0.000000
0.536665 0.866985 1.471212 0.000000 0.000000 0.000000
0.581784 0.853794 1.453454 0.000000 0.000000 0.000000
0.539820 0.875224 1.473056 0.000000 0.000000 0.000000
0.543228 0.865876 1.473014 0.000000 0.000000 0.000000
0.572103 0.860358 1.462332 0.000000 0.000000 0.000000
0.605363 0.860473 1.458889 0.000000 0.000000 0.000000
0.553844 0.860795 1.454630 0.000000 0.000000 0.000000
0.576218 0.855178 1.454255 0.000000 0.000000 0.000000
0.564365 0.862577 1.467250 0.000000 0.000000 0.000000
0.554637 0.873643 1.472761 0.000000 0.000000 0.000000
0.537217 0.873429 1.475279 0.000000 0.000000 0.000000
0.590072 0.860011 1.466248 0.000000 0.000000 0.000000
0.597492 0.858799 1.463171 0.000000 0.000000 0.000000
0.604706 0.863832 1.462164 0.000000 0.000000 0.000000
0.589425 0.852623 1.453534 0.000000 0.000000 0.000000
0.539476 0.860935 1.459591 0.000000 0.000000 0.000000
0.564661 0.862967 1.461708 0.000000 0.000000 0.000000
0.601901 0.860385 1.463623 0.000000 0.000000 0.000000
0.593821 0.860510 1.457804 0.000000 0.000000 0.000000
0.583002 0.855814 1.455968 0.000000 0.000000 0.000000
0.578282 0.864245 1.456414 0.000000 0.000000 0.000000
0.598684 0.860097 1.462475 0.000000 0.000000 0.000000
0.597331 0.860898 1.463055 0.000000 0.000000 0.000000
0.590305 0.861792 1.468681 0.000000 0.000000 0.000000
0.583771 0.866474 1.470769 0.000000 0.000000 0.000000
0.582172 0.854619 1.452168 0.000000 0.000000 0.000000
0.589206 0.865395 1.471181 0.000000 0.000000 0.000000
0.587244 0.857748 1.454754 0.000000 0.000000 0.000000
0.597579 0.863717 1.469341 0.000000 0.000000 0.000000
0.585261 0.863487 1.469338 0.000000 0.000000 0.000000
0.582074 0.868965 1.458074 0.000000 0.000000 0.000000
0.558114 0.872918 1.480160 0.000000 0.000000 0.000000
0.578488 0.861796 1.458565 0.000000 0.000000 0.000000
0.567578 0.857075 1.452155 0.000000 0.000000 0.000000
0.567179 0.865580 1.463627 0.000000 0.000000 0.000000
0.573837 0.870404 1.457412 0.000000 0.000000 0.000000
0.564606 0.861885 1.463205 0.000000 0.000000 0.000000
0.574203 0.856879 1.461305 0.000000 0.000000 0.000000
0.579340 0.870522 1.469109 0.000000 0.000000 0.000000
0.581849 0.875005 1.456006 0.000000 0.000000 0.000000
0.591221 0.859181 1.461804 0.000000 0.000000 0.000000
0.554939 0.882917 1.481759 0.000000 0.000000 0.000000
0.576958 0.862851 1.469034 0.000000 0.000000 0.000000
0.594751 0.861762 1.465580 0.000000 0.000000 0.000000
0.581634 0.854944 1.456435 0.000000 0.000000 0.000000
0.563591 0.856798 1.448108 0.000000 0.000000 0.000000
0.545129 0.873086 1.474902 0.000000 0.000000 0.000000
0.540232 0.873109 1.471400 0.000000 0.000000 0.000000
0.577186 0.853813 1.448414 0.000000 0.000000 0.000000
0.561181 0.858023 1.452613 0.000000 0.000000 0.000000
0.566618 0.865079 1.456209 0.000000 0.000000 0.000000
0.592312 0.856194 1.457724 0.000000 0.000000 0.000000
0.565651 0.863356 1.454602 0.000000 0.000000 0.000000
0.582022 0.863001 1.466061 0.000000 0.000000 0.000000
0.565803 0.865958 1.467001 0.000000 0.000000 0.000000
0.568827 0.860422 1.464668 0.000000 0.000000 0.000000
0.549040 0.871261 1.467174 0.000000 0.000000 0.000000
0.564718 0.864501 1.467231 0.000000 0.000000 0.000000
0.571168 0.868320 1.457790 0.000000 0.000000 0.000000
0.557229 0.867469 1.472564 0.000000 0.000000 0.000000
0.577559 0.857848 1.456367 0.000000 0.000000 0.000000
0.570854 0.856707 1.454293 0.000000 0.000000 0.000000
0.597246 0.856573 1.459108 0.000000 0.000000 0.000000
0.579630 0.863580 1.468684 0.000000 0.000000 0.000000
0.587809 0.857961 1.463500 0.000000 0.000000 0.000000
0.545914 0.871491 1.479281 0.000000 0.000000 0.000000
0.535392 0.880706 1.482033 0.000000 0.000000 0.000000
0.548408 0.863555 1.464457 0.000000 0.000000 0.000000
0.598302 0.860313 1.464039 0.000000 0.000000 0.000000
0.577698 0.870869 1.463917 0.000000 0.000000 0.000000
0.567038 0.861577 1.451128 0.000000 0.000000 0.000000
0.585309 0.859401 1.456512 0.000000 0.000000 0.000000
0.591476 0.859527 1.463500 0.000000 0.000000 0.000000
0.538286 0.879658 1.485833 0.000000 0.000000 0.000000
0.531959 0.877713 1.482040 0.000000 0.000000 0.000000
0.543407 0.882250 1.480738 0.000000 0.000000 0.000000
0.594420 0.862504 1.468140 0.000000 0.000000 0.000000
0.574403 0.872690 1.461416 0.000000 0.000000 0.000000
0.571643 0.874522 1.462603 0.000000 0.000000 0.000000
0.562439 0.874617 1.475094 0.000000 0.000000 0.000000
0.581950 0.867674 1.465468 0.000000 0.000000 0.000000
0.566290 0.858612 1.452247 0.000000 0.000000 0.000000
0.568415 0.856552 1.455877 0.000000 0.000000 0.000000
0.551546 0.864696 1.460586 0.000000 0.000000 0.000000
0.585846 0.857670 1.462686 0.000000 0.000000 0.000000
0.563800 0.859991 1.455162 0.000000 0.000000 0.000000
0.564743 0.857680 1.452008 0.000000 0.000000 0.000000
0.577115 0.857615 1.460074 0.000000 0.000000 0.000000
0.554904 0.872253 1.471511 0.000000 0.000000 0.000000
0.575538 0.857946 1.459930 0.000000 0.000000 0.000000
0.566074 0.855843 1.457946 0.000000 0.000000 0.000000
0.584429 0.858956 1.461444 0.000000 0.000000 0.000000
0.588700 0.855419 1.458869 0.000000 0.000000 0.000000
0.580623 0.853679 1.452357 0.000000 0.000000 0.000000
0.586432 0.854149 1.452450 0.000000 0.000000 0.000000
0.569328 0.860480 1.457885 0.000000 0.000000 0.000000
0.603350 0.863737 1.464546 0.000000 0.000000 0.000000
0.594339 0.859571 1.457992 0.000000 0.000000 0.000000
0.574181 0.854429 1.451180 0.000000 0.000000 0.000000
0.577448 0.852550 1.449520 0.000000 0.000000 0.000000
0.580395 0.853743 1.452322 0.000000 0.000000 0.000000
0.593756 0.864318 1.470191 0.000000 0.000000 0.000000
0.577677 0.857498 1.446256 0.000000 0.000000 0.000000
0.576312 0.874307 1.455990 0.000000 0.000000 0.000000
0.532733 0.876467 1.485763 0.000000 0.000000 0.000000
0.562364 0.872659 1.477253 0.000000 0.000000 0.000000
0.581154 0.870040 1.456723 0.000000 0.000000 0.000000
0.553811 0.863672 1.460392 0.000000 0.000000 0.000000
0.531244 0.883027 1.481497 0.000000 0.000000 0.000000
0.592559 0.861901 1.457969 0.000000 0.000000 0.000000
0.579492 0.857655 1.455979 0.000000 0.000000 0.000000
0.557101 0.871399 1.477319 0.000000 0.000000 0.000000
0.558557 0.860888 1.455345 0.000000 0.000000 0.000000
0.557668 0.873676 1.456826 0.000000 0.000000 0.000000
0.591318 0.862491 1.467737 0.000000 0.000000 0.000000
0.572603 0.875532 1.473725 0.000000 0.000000 0.000000
0.559243 0.869054 1.458730 0.000000 0.000000 0.000000
0.595625 0.857136 1.462214 0.000000 0.000000 0.000000
0.589729 0.860302 1.462690 0.000000 0.000000 0.000000
0.590393 0.855562 1.454384 0.000000 0.000000 0.000000
0.578934 0.856218 1.454080 0.000000 0.000000 0.000000
0.585165 0.857221 1.453991 0.000000 0.000000 0.000000
0.562903 0.860225 1.452285 0.000000 0.000000 0.000000
0.582126 0.854041 1.453971 0.000000 0.000000 0.000000
0.585341 0.854220 1.455099 0.000000 0.000000 0.000000
0.585550 0.855052 1.458069 0.000000 0.000000 0.000000
0.558348 0.864975 1.455688 0.000000 0.000000 0.000000
0.576104 0.856135 1.451885 0.000000 0.000000 0.000000
0.593917 0.852381 1.452349 0.000000 0.000000 0.000000
0.547571 0.868119 1.462842 0.000000 0.000000 0.000000
0.541922 0.872818 1.471364 0.000000 0.000000 0.000000
0.579029 0.857067 1.459562 0.000000 0.000000 0.000000
0.558463 0.866445 1.455649 0.000000 0.000000 0.000000
0.598621 0.852946 1.456533 0.000000 0.000000 0.000000
0.547471 0.870307 1.469443 0.000000 0.000000 0.000000
0.547348 0.867433 1.466238 0.000000 0.000000 0.000000
0.553076 0.866539 1.458046 0.000000 0.000000 0.000000
0.584453 0.853503 1.456004 0.000000 0.000000 0.000000
0.588862 0.864559 1.465209 0.000000 0.000000 0.000000
0.589320 0.863445 1.474590 0.000000 0.000000 0.000000
0.592081 0.860911 1.465379 0.000000 0.000000 0.000000
0.598630 0.860855 1.465320 0.000000 0.000000 0.000000
0.589321 0.864395 1.463404 0.000000 0.000000 0.000000
0.601348 0.862879 1.470564 0.000000 0.000000 0.000000
0.553919 0.864222 1.454725 0.000000 0.000000 0.000000
0.580590 0.861754 1.465610 0.000000 0.000000 0.000000
0.565816 0.859831 1.456352 0.000000 0.000000 0.000000
0.572745 0.853069 1.464517 0.000000 0.000000 0.000000
0.556621 0.859829 1.460509 0.000000 0.000000 0.000000
0.582276 0.870287 1.454948 0.000000 0.000000 0.000000
0.597244 0.858977 1.462437 0.000000 0.000000 0.000000
0.551835 0.867367 1.457794 0.000000 0.000000 0.000000
0.591515 0.857479 1.462517 0.000000 0.000000 0.000000
0.586538 0.860401 1.459761 0.000000 0.000000 0.000000
0.596985 0.859088 1.459332 0.000000 0.000000 0.000000
0.596706 0.856757 1.458905 0.000000 0.000000 0.000000
0.592877 0.854646 1.456033 0.000000 0.000000 0.000000
0.558025 0.859057 1.450477 0.000000 0.000000 0.000000
0.549894 0.873197 1.484473 0.000000 0.000000 0.000000
0.590723 0.862032 1.456966 0.000000 0.000000 0.000000
0.586038 0.855727 1.456780 0.000000 0.000000 0.000000
0.603108 0.856445 1.458107 0.000000 0.000000 0.000000
0.600631 0.857974 1.462897 0.000000 0.000000 0.000000
0.593755 0.857638 1.456991 0.000000 0.000000 0.000000
0.597804 0.856974 1.458109 0.000000 0.000000 0.000000
0.570591 0.870228 1.472104 0.000000 0.000000 0.000000
0.607517 0.865601 1.465172 0.000000 0.000000 0.000000
0.541627 0.864653 1.468500 0.000000 0.000000 0.000000
0.540337 0.864951 1.466225 0.000000 0.000000 0.000000
0.541449 0.866787 1.465549 0.000000 0.000000 0.000000
0.563348 0.859919 1.462568 0.000000 0.000000 0.000000
0.560810 0.859360 1.462317 0.000000 0.000000 0.000000
0.579036 0.865154 1.458951 0.000000 0.000000 0.000000
0.562133 0.858913 1.449345 0.000000 0.000000 0.000000
0.562940 0.858881 1.450924 0.000000 0.000000 0.000000
0.550431 0.882215 1.481400 0.000000 0.000000 0.000000
0.546984 0.881004 1.482057 0.000000 0.000000 0.000000
0.541857 0.886983 1.485301 0.000000 0.000000 0.000000
0.530649 0.883728 1.480380 0.000000 0.000000 0.000000
0.532577 0.886576 1.486351 0.000000 0.000000 0.000000
0.541689 0.884094 1.484696 0.000000 0.000000 0.000000
0.600806 0.859861 1.464161 0.000000 0.000000 0.000000
0.577670 0.863613 1.457716 0.000000 0.000000 0.000000
0.569590 0.857340 1.451391 0.000000 0.000000 0.000000
0.570549 0.853785 1.447748 0.000000 0.000000 0.000000
0.572383 0.856522 1.447325 0.000000 0.000000 0.000000
0.564053 0.857674 1.451667 0.000000 0.000000 0.000000
0.579692 0.860430 1.457783 0.000000 0.000000 0.000000
0.572112 0.854668 1.453952 0.000000 0.000000 0.000000
0.551863 0.873458 1.480993 0.000000 0.000000 0.000000
0.579232 0.865775 1.472436 0.000000 0.000000 0.000000
0.550914 0.880552 1.480223 0.000000 0.000000 0.000000
0.558149 0.860957 1.454809 0.000000 0.000000 0.000000
0.593790 0.854692 1.454887 0.000000 0.000000 0.000000
0.580709 0.851778 1.449672 0.000000 0.000000 0.000000
0.579036 0.854286 1.452240 0.000000 0.000000 0.000000
0.577367 0.853811 1.450842 0.000000 0.000000 0.000000
0.574507 0.854318 1.451671 0.000000 0.000000 0.000000
0.578470 0.855521 1.452504 0.000000 0.000000 0.000000
0.582757 0.852483 1.447246 0.000000 0.000000 0.000000
0.584372 0.854698 1.457702 0.000000 0.000000 0.000000
0.595170 0.853991 1.460356 0.000000 0.000000 0.000000
0.576386 0.853748 1.451822 0.000000 0.000000 0.000000
0.592318 0.852226 1.450301 0.000000 0.000000 0.000000
0.575978 0.861243 1.455751 0.000000 0.000000 0.000000
0.571871 0.854364 1.451024 0.000000 0.000000 0.000000
0.587051 0.863193 1.464744 0.000000 0.000000 0.000000
0.558389 0.871231 1.483139 0.000000 0.000000 0.000000
0.565652 0.866939 1.468368 0.000000 0.000000 0.000000
0.546099 0.879631 1.478207 0.000000 0.000000 0.000000
0.566009 0.873707 1.479736 0.000000 0.000000 0.000000
0.571274 0.873630 1.478830 0.000000 0.000000 0.000000
0.528749 0.884960 1.490589 0.000000 0.000000 0.000000
0.553689 0.870393 1.477519 0.000000 0.000000 0.000000
0.562596 0.876153 1.480336 0.000000 0.000000 0.000000
0.560987 0.884988 1.481462 0.000000 0.000000 0.000000
0.531379 0.880263 1.491135 0.000000 0.000000 0.000000
0.572659 0.871172 1.477470 0.000000 0.000000 0.000000
0.537818 0.879245 1.473593 0.000000 0.000000 0.000000
0.555331 0.871257 1.474676 0.000000 0.000000 0.000000
0.562821 0.875330 1.480597 0.000000 0.000000 0.000000
0.536895 0.883126 1.488716 0.000000 0.000000 0.000000
0.533625 0.887091 1.487921 0.000000 0.000000 0.000000
0.577126 0.868732 1.477433 0.000000 0.000000 0.000000
0.597227 0.856278 1.458891 0.000000 0.000000 0.000000
0.557882 0.865704 1.475355 0.000000 0.000000 0.000000
0.582682 0.867702 1.474228 0.000000 0.000000 0.000000
0.545461 0.869158 1.476982 0.000000 0.000000 0.000000
0.584133 0.868121 1.474875 0.000000 0.000000 0.000000
