ply
format ascii 1.0
comment VCGLIB generated
obj_info Generated by SPFormer!
element vertex 642
property float x
property float y
property float z
property float nx
property float ny
property float nz
end_header
0.518025 0.883988 1.477493 0.000000 0.000000 0.000000
0.515995 0.887754 1.478214 0.000000 0.000000 0.000000
0.516875 0.884499 1.476046 0.000000 0.000000 0.000000
0.515229 0.886103 1.477922 0.000000 0.000000 0.000000
0.449286 0.881943 1.478864 0.000000 0.000000 0.000000
0.491456 0.896745 1.446381 0.000000 0.000000 0.000000
0.483004 0.910706 1.449270 0.000000 0.000000 0.000000
0.436866 0.942220 1.431474 0.000000 0.000000 0.000000
0.469757 0.916403 1.458708 0.000000 0.000000 0.000000
0.466241 0.918496 1.444154 0.000000 0.000000 0.000000
0.487121 0.897550 1.447701 0.000000 0.000000 0.000000
0.432231 0.945241 1.437234 0.000000 0.000000 0.000000
0.491485 0.890345 1.449810 0.000000 0.000000 0.000000
0.437453 0.928872 1.436463 0.000000 0.000000 0.000000
0.480789 0.895905 1.452614 0.000000 0.000000 0.000000
0.465680 0.928428 1.434968 0.000000 0.000000 0.000000
0.469554 0.925526 1.426360 0.000000 0.000000 0.000000
0.464810 0.932567 1.425626 0.000000 0.000000 0.000000
0.482534 0.910840 1.450221 0.000000 0.000000 0.000000
0.454575 0.913959 1.442194 0.000000 0.000000 0.000000
0.487610 0.909556 1.447616 0.000000 0.000000 0.000000
0.466895 0.923797 1.434964 0.000000 0.000000 0.000000
0.494352 0.890438 1.463944 0.000000 0.000000 0.000000
0.497175 0.900065 1.446716 0.000000 0.000000 0.000000
0.458503 0.902777 1.440016 0.000000 0.000000 0.000000
0.485256 0.909934 1.441762 0.000000 0.000000 0.000000
0.443986 0.937044 1.427985 0.000000 0.000000 0.000000
0.463114 0.910156 1.445392 0.000000 0.000000 0.000000
0.471600 0.917845 1.445677 0.000000 0.000000 0.000000
0.443235 0.930425 1.432128 0.000000 0.000000 0.000000
0.466214 0.901249 1.445658 0.000000 0.000000 0.000000
0.470485 0.923594 1.433618 0.000000 0.000000 0.000000
0.455908 0.916922 1.439406 0.000000 0.000000 0.000000
0.472083 0.913325 1.447610 0.000000 0.000000 0.000000
0.465887 0.922233 1.430956 0.000000 0.000000 0.000000
0.474127 0.888066 1.444577 0.000000 0.000000 0.000000
0.461126 0.912447 1.445563 0.000000 0.000000 0.000000
0.477622 0.923155 1.433885 0.000000 0.000000 0.000000
0.475321 0.929433 1.427419 0.000000 0.000000 0.000000
0.486262 0.922153 1.427369 0.000000 0.000000 0.000000
0.447974 0.907728 1.433765 0.000000 0.000000 0.000000
0.446559 0.925354 1.437274 0.000000 0.000000 0.000000
0.484051 0.913136 1.445682 0.000000 0.000000 0.000000
0.451369 0.915626 1.438776 0.000000 0.000000 0.000000
0.451462 0.923055 1.440614 0.000000 0.000000 0.000000
0.479700 0.932211 1.421696 0.000000 0.000000 0.000000
0.488693 0.891388 1.453790 0.000000 0.000000 0.000000
0.481829 0.892110 1.453362 0.000000 0.000000 0.000000
0.460672 0.905967 1.442598 0.000000 0.000000 0.000000
0.466287 0.909547 1.447295 0.000000 0.000000 0.000000
0.438059 0.928830 1.430137 0.000000 0.000000 0.000000
0.481601 0.908163 1.449762 0.000000 0.000000 0.000000
0.453459 0.921343 1.440050 0.000000 0.000000 0.000000
0.485261 0.923704 1.433982 0.000000 0.000000 0.000000
0.449634 0.921040 1.439124 0.000000 0.000000 0.000000
0.435900 0.936657 1.436498 0.000000 0.000000 0.000000
0.445094 0.933240 1.439194 0.000000 0.000000 0.000000
0.456669 0.905069 1.437648 0.000000 0.000000 0.000000
0.475259 0.921325 1.438392 0.000000 0.000000 0.000000
0.449304 0.928845 1.433629 0.000000 0.000000 0.000000
0.458561 0.909376 1.443421 0.000000 0.000000 0.000000
0.480640 0.913345 1.457179 0.000000 0.000000 0.000000
0.470772 0.926821 1.432246 0.000000 0.000000 0.000000
0.443687 0.937592 1.434508 0.000000 0.000000 0.000000
0.455012 0.937377 1.426701 0.000000 0.000000 0.000000
0.446692 0.939872 1.425564 0.000000 0.000000 0.000000
0.432937 0.929281 1.435521 0.000000 0.000000 0.000000
0.439455 0.931850 1.437748 0.000000 0.000000 0.000000
0.449416 0.903082 1.432937 0.000000 0.000000 0.000000
0.489036 0.889164 1.451370 0.000000 0.000000 0.000000
0.475106 0.927983 1.426979 0.000000 0.000000 0.000000
0.443494 0.917012 1.434042 0.000000 0.000000 0.000000
0.486277 0.883653 1.446582 0.000000 0.000000 0.000000
0.451877 0.936429 1.428320 0.000000 0.000000 0.000000
0.449836 0.909545 1.436021 0.000000 0.000000 0.000000
0.444388 0.932009 1.432021 0.000000 0.000000 0.000000
0.463746 0.907549 1.445632 0.000000 0.000000 0.000000
0.482902 0.927246 1.424242 0.000000 0.000000 0.000000
0.451255 0.909402 1.436805 0.000000 0.000000 0.000000
0.456977 0.909867 1.441944 0.000000 0.000000 0.000000
0.460605 0.923766 1.432231 0.000000 0.000000 0.000000
0.472004 0.933569 1.428653 0.000000 0.000000 0.000000
0.467249 0.921375 1.440959 0.000000 0.000000 0.000000
0.458947 0.933080 1.428533 0.000000 0.000000 0.000000
0.472713 0.926134 1.434013 0.000000 0.000000 0.000000
0.431866 0.929350 1.431805 0.000000 0.000000 0.000000
0.461055 0.938280 1.424876 0.000000 0.000000 0.000000
0.445641 0.927522 1.431482 0.000000 0.000000 0.000000
0.492770 0.907593 1.447468 0.000000 0.000000 0.000000
0.487273 0.889500 1.454666 0.000000 0.000000 0.000000
0.462341 0.897243 1.440906 0.000000 0.000000 0.000000
0.506078 0.888032 1.464003 0.000000 0.000000 0.000000
0.481072 0.901335 1.446157 0.000000 0.000000 0.000000
0.439739 0.928971 1.436852 0.000000 0.000000 0.000000
0.466866 0.930460 1.429247 0.000000 0.000000 0.000000
0.428936 0.943415 1.436964 0.000000 0.000000 0.000000
0.498410 0.905309 1.447532 0.000000 0.000000 0.000000
0.452528 0.938626 1.427097 0.000000 0.000000 0.000000
0.482340 0.927059 1.429534 0.000000 0.000000 0.000000
0.474982 0.904154 1.440766 0.000000 0.000000 0.000000
0.450544 0.902991 1.433808 0.000000 0.000000 0.000000
0.455371 0.929128 1.435439 0.000000 0.000000 0.000000
0.453178 0.935335 1.429751 0.000000 0.000000 0.000000
0.483170 0.912597 1.456352 0.000000 0.000000 0.000000
0.489355 0.918922 1.438438 0.000000 0.000000 0.000000
0.497695 0.894248 1.446555 0.000000 0.000000 0.000000
0.480454 0.896842 1.454938 0.000000 0.000000 0.000000
0.445752 0.933913 1.443375 0.000000 0.000000 0.000000
0.452493 0.925646 1.432388 0.000000 0.000000 0.000000
0.463587 0.934096 1.425496 0.000000 0.000000 0.000000
0.440070 0.927628 1.437114 0.000000 0.000000 0.000000
0.455123 0.924767 1.440975 0.000000 0.000000 0.000000
0.470734 0.931829 1.424954 0.000000 0.000000 0.000000
0.484648 0.887846 1.449871 0.000000 0.000000 0.000000
0.506036 0.894718 1.462574 0.000000 0.000000 0.000000
0.468233 0.920767 1.447183 0.000000 0.000000 0.000000
0.453468 0.917893 1.437753 0.000000 0.000000 0.000000
0.470229 0.905300 1.448571 0.000000 0.000000 0.000000
0.460953 0.895450 1.437368 0.000000 0.000000 0.000000
0.438468 0.938697 1.429814 0.000000 0.000000 0.000000
0.488131 0.888899 1.451251 0.000000 0.000000 0.000000
0.477060 0.897106 1.448499 0.000000 0.000000 0.000000
0.488001 0.897271 1.460961 0.000000 0.000000 0.000000
0.471613 0.896225 1.448584 0.000000 0.000000 0.000000
0.480865 0.891632 1.448855 0.000000 0.000000 0.000000
0.465282 0.896263 1.441205 0.000000 0.000000 0.000000
0.439899 0.940944 1.430585 0.000000 0.000000 0.000000
0.483035 0.916695 1.441559 0.000000 0.000000 0.000000
0.469915 0.933471 1.422537 0.000000 0.000000 0.000000
0.444931 0.919576 1.435989 0.000000 0.000000 0.000000
0.483819 0.897240 1.448963 0.000000 0.000000 0.000000
0.456534 0.920912 1.439364 0.000000 0.000000 0.000000
0.485126 0.918488 1.436906 0.000000 0.000000 0.000000
0.445920 0.927651 1.438119 0.000000 0.000000 0.000000
0.434910 0.940907 1.432653 0.000000 0.000000 0.000000
0.478364 0.905821 1.455713 0.000000 0.000000 0.000000
0.492576 0.901236 1.466849 0.000000 0.000000 0.000000
0.494350 0.896397 1.466833 0.000000 0.000000 0.000000
0.475193 0.892219 1.447458 0.000000 0.000000 0.000000
0.462633 0.893553 1.439731 0.000000 0.000000 0.000000
0.456104 0.944790 1.424004 0.000000 0.000000 0.000000
0.470939 0.930112 1.428881 0.000000 0.000000 0.000000
0.484097 0.891073 1.446999 0.000000 0.000000 0.000000
0.438695 0.938664 1.430342 0.000000 0.000000 0.000000
0.451785 0.911703 1.438308 0.000000 0.000000 0.000000
0.475232 0.906499 1.449454 0.000000 0.000000 0.000000
0.459589 0.918823 1.442589 0.000000 0.000000 0.000000
0.461431 0.908121 1.446418 0.000000 0.000000 0.000000
0.451178 0.903812 1.433978 0.000000 0.000000 0.000000
0.475440 0.923346 1.435840 0.000000 0.000000 0.000000
0.440559 0.925438 1.434143 0.000000 0.000000 0.000000
0.441587 0.943065 1.426810 0.000000 0.000000 0.000000
0.446484 0.937311 1.431899 0.000000 0.000000 0.000000
0.443737 0.914575 1.433039 0.000000 0.000000 0.000000
0.443928 0.940197 1.428002 0.000000 0.000000 0.000000
0.440041 0.935052 1.433929 0.000000 0.000000 0.000000
0.439475 0.925192 1.433401 0.000000 0.000000 0.000000
0.451056 0.913980 1.439010 0.000000 0.000000 0.000000
0.446367 0.913858 1.434661 0.000000 0.000000 0.000000
0.446099 0.913317 1.434797 0.000000 0.000000 0.000000
0.449556 0.904360 1.433418 0.000000 0.000000 0.000000
0.448238 0.941124 1.426835 0.000000 0.000000 0.000000
0.481169 0.928731 1.425025 0.000000 0.000000 0.000000
0.442942 0.923655 1.436844 0.000000 0.000000 0.000000
0.436794 0.937767 1.436957 0.000000 0.000000 0.000000
0.453651 0.906874 1.437528 0.000000 0.000000 0.000000
0.474463 0.914400 1.434242 0.000000 0.000000 0.000000
0.466126 0.887071 1.438733 0.000000 0.000000 0.000000
0.458860 0.929021 1.435624 0.000000 0.000000 0.000000
0.481037 0.910822 1.453974 0.000000 0.000000 0.000000
0.463059 0.892605 1.437851 0.000000 0.000000 0.000000
0.440155 0.937155 1.430733 0.000000 0.000000 0.000000
0.470486 0.898875 1.446212 0.000000 0.000000 0.000000
0.469380 0.932858 1.430415 0.000000 0.000000 0.000000
0.455124 0.910962 1.441456 0.000000 0.000000 0.000000
0.450239 0.894213 1.432217 0.000000 0.000000 0.000000
0.477050 0.928777 1.426440 0.000000 0.000000 0.000000
0.487433 0.886847 1.461205 0.000000 0.000000 0.000000
0.493818 0.902973 1.463703 0.000000 0.000000 0.000000
0.490302 0.900976 1.462714 0.000000 0.000000 0.000000
0.489026 0.904261 1.462598 0.000000 0.000000 0.000000
0.492508 0.908902 1.449467 0.000000 0.000000 0.000000
0.498099 0.905984 1.443519 0.000000 0.000000 0.000000
0.485145 0.907484 1.455219 0.000000 0.000000 0.000000
0.484460 0.913526 1.449682 0.000000 0.000000 0.000000
0.500620 0.888151 1.460275 0.000000 0.000000 0.000000
0.482763 0.903721 1.448852 0.000000 0.000000 0.000000
0.449631 0.927150 1.438970 0.000000 0.000000 0.000000
0.456611 0.932238 1.429922 0.000000 0.000000 0.000000
0.471694 0.901685 1.449079 0.000000 0.000000 0.000000
0.471232 0.899140 1.445377 0.000000 0.000000 0.000000
0.459424 0.935279 1.427300 0.000000 0.000000 0.000000
0.440183 0.936046 1.439863 0.000000 0.000000 0.000000
0.461210 0.933449 1.429439 0.000000 0.000000 0.000000
0.472436 0.883874 1.440807 0.000000 0.000000 0.000000
0.453391 0.940167 1.423832 0.000000 0.000000 0.000000
0.495095 0.896867 1.457227 0.000000 0.000000 0.000000
0.507568 0.890102 1.463098 0.000000 0.000000 0.000000
0.489606 0.910561 1.446309 0.000000 0.000000 0.000000
0.471946 0.930434 1.423179 0.000000 0.000000 0.000000
0.507259 0.889758 1.458466 0.000000 0.000000 0.000000
0.487463 0.909736 1.458558 0.000000 0.000000 0.000000
0.498343 0.881644 1.457893 0.000000 0.000000 0.000000
0.492863 0.883801 1.460054 0.000000 0.000000 0.000000
0.487837 0.886013 1.450863 0.000000 0.000000 0.000000
0.500842 0.904492 1.443675 0.000000 0.000000 0.000000
0.443862 0.933944 1.435385 0.000000 0.000000 0.000000
0.432388 0.938711 1.434993 0.000000 0.000000 0.000000
0.433329 0.937553 1.435825 0.000000 0.000000 0.000000
0.444660 0.940538 1.426687 0.000000 0.000000 0.000000
0.446158 0.903171 1.432081 0.000000 0.000000 0.000000
0.496987 0.884616 1.445283 0.000000 0.000000 0.000000
0.461212 0.932146 1.431348 0.000000 0.000000 0.000000
0.490606 0.909013 1.453891 0.000000 0.000000 0.000000
0.442520 0.919260 1.433906 0.000000 0.000000 0.000000
0.443626 0.918800 1.434813 0.000000 0.000000 0.000000
0.486169 0.901430 1.438565 0.000000 0.000000 0.000000
0.502915 0.895792 1.451685 0.000000 0.000000 0.000000
0.488273 0.902860 1.448917 0.000000 0.000000 0.000000
0.492551 0.917332 1.430007 0.000000 0.000000 0.000000
0.483597 0.884379 1.447612 0.000000 0.000000 0.000000
0.480973 0.918817 1.436520 0.000000 0.000000 0.000000
0.475031 0.926981 1.423468 0.000000 0.000000 0.000000
0.479193 0.926887 1.428429 0.000000 0.000000 0.000000
0.481179 0.928416 1.423814 0.000000 0.000000 0.000000
0.451686 0.926195 1.443733 0.000000 0.000000 0.000000
0.446641 0.908924 1.432987 0.000000 0.000000 0.000000
0.473391 0.928103 1.428172 0.000000 0.000000 0.000000
0.472600 0.921917 1.440693 0.000000 0.000000 0.000000
0.444745 0.933338 1.443379 0.000000 0.000000 0.000000
0.487271 0.929888 1.429857 0.000000 0.000000 0.000000
0.442543 0.912516 1.431727 0.000000 0.000000 0.000000
0.438597 0.939607 1.430210 0.000000 0.000000 0.000000
0.458138 0.937505 1.424325 0.000000 0.000000 0.000000
0.435618 0.931899 1.432154 0.000000 0.000000 0.000000
0.456002 0.930521 1.446794 0.000000 0.000000 0.000000
0.472887 0.895428 1.447568 0.000000 0.000000 0.000000
0.470813 0.933635 1.426135 0.000000 0.000000 0.000000
0.477461 0.887770 1.445256 0.000000 0.000000 0.000000
0.480211 0.926226 1.422473 0.000000 0.000000 0.000000
0.484269 0.884253 1.448217 0.000000 0.000000 0.000000
0.513665 0.887425 1.467131 0.000000 0.000000 0.000000
0.440570 0.935805 1.430688 0.000000 0.000000 0.000000
0.490123 0.926918 1.437505 0.000000 0.000000 0.000000
0.453422 0.927588 1.439018 0.000000 0.000000 0.000000
0.439888 0.935665 1.429597 0.000000 0.000000 0.000000
0.474728 0.927967 1.430988 0.000000 0.000000 0.000000
0.444873 0.915599 1.435574 0.000000 0.000000 0.000000
0.441186 0.935908 1.431951 0.000000 0.000000 0.000000
0.437938 0.935581 1.440861 0.000000 0.000000 0.000000
0.440227 0.925093 1.434419 0.000000 0.000000 0.000000
0.441210 0.936091 1.440436 0.000000 0.000000 0.000000
0.463315 0.914980 1.444772 0.000000 0.000000 0.000000
0.433708 0.935480 1.437517 0.000000 0.000000 0.000000
0.441706 0.929636 1.439537 0.000000 0.000000 0.000000
0.485338 0.927991 1.423643 0.000000 0.000000 0.000000
0.502691 0.888827 1.455843 0.000000 0.000000 0.000000
0.444983 0.937336 1.428075 0.000000 0.000000 0.000000
0.469384 0.931894 1.426849 0.000000 0.000000 0.000000
0.450542 0.916670 1.440199 0.000000 0.000000 0.000000
0.502080 0.888351 1.454054 0.000000 0.000000 0.000000
0.451168 0.904418 1.434706 0.000000 0.000000 0.000000
0.487935 0.888518 1.446073 0.000000 0.000000 0.000000
0.452175 0.918486 1.441477 0.000000 0.000000 0.000000
0.483026 0.913427 1.448044 0.000000 0.000000 0.000000
0.484775 0.903104 1.465993 0.000000 0.000000 0.000000
0.439205 0.926309 1.433790 0.000000 0.000000 0.000000
0.443048 0.908919 1.431328 0.000000 0.000000 0.000000
0.444473 0.907194 1.432497 0.000000 0.000000 0.000000
0.466716 0.938900 1.419403 0.000000 0.000000 0.000000
0.443692 0.910100 1.432469 0.000000 0.000000 0.000000
0.439736 0.919795 1.432913 0.000000 0.000000 0.000000
0.447463 0.905177 1.431711 0.000000 0.000000 0.000000
0.495672 0.910350 1.455771 0.000000 0.000000 0.000000
0.444725 0.929961 1.436874 0.000000 0.000000 0.000000
0.491195 0.917074 1.430459 0.000000 0.000000 0.000000
0.437860 0.912757 1.431938 0.000000 0.000000 0.000000
0.495110 0.913661 1.446142 0.000000 0.000000 0.000000
0.513243 0.892100 1.470461 0.000000 0.000000 0.000000
0.464098 0.936725 1.427394 0.000000 0.000000 0.000000
0.505982 0.911150 1.442358 0.000000 0.000000 0.000000
0.430528 0.937726 1.438544 0.000000 0.000000 0.000000
0.484790 0.885999 1.451275 0.000000 0.000000 0.000000
0.476098 0.890199 1.446804 0.000000 0.000000 0.000000
0.484311 0.882196 1.451605 0.000000 0.000000 0.000000
0.493978 0.881132 1.446073 0.000000 0.000000 0.000000
0.483725 0.888044 1.453126 0.000000 0.000000 0.000000
0.440701 0.943131 1.427351 0.000000 0.000000 0.000000
0.437951 0.914411 1.430116 0.000000 0.000000 0.000000
0.473465 0.929490 1.431253 0.000000 0.000000 0.000000
0.495010 0.887319 1.456637 0.000000 0.000000 0.000000
0.447958 0.916659 1.435866 0.000000 0.000000 0.000000
0.449840 0.935251 1.433577 0.000000 0.000000 0.000000
0.434761 0.942095 1.431402 0.000000 0.000000 0.000000
0.440681 0.939940 1.429412 0.000000 0.000000 0.000000
0.483035 0.882408 1.447039 0.000000 0.000000 0.000000
0.507566 0.897884 1.452147 0.000000 0.000000 0.000000
0.474039 0.886397 1.443715 0.000000 0.000000 0.000000
0.471675 0.886735 1.440596 0.000000 0.000000 0.000000
0.441347 0.919370 1.433770 0.000000 0.000000 0.000000
0.472366 0.889260 1.444508 0.000000 0.000000 0.000000
0.487172 0.883549 1.450276 0.000000 0.000000 0.000000
0.478860 0.885541 1.446566 0.000000 0.000000 0.000000
0.480468 0.888979 1.447512 0.000000 0.000000 0.000000
0.445095 0.938626 1.427485 0.000000 0.000000 0.000000
0.457308 0.896245 1.435127 0.000000 0.000000 0.000000
0.506985 0.890126 1.451580 0.000000 0.000000 0.000000
0.496366 0.886773 1.446146 0.000000 0.000000 0.000000
0.501292 0.881640 1.458458 0.000000 0.000000 0.000000
0.469272 0.887726 1.439982 0.000000 0.000000 0.000000
0.436717 0.922056 1.431635 0.000000 0.000000 0.000000
0.491401 0.915409 1.437886 0.000000 0.000000 0.000000
0.434802 0.938879 1.428892 0.000000 0.000000 0.000000
0.454144 0.902429 1.435570 0.000000 0.000000 0.000000
0.489782 0.909878 1.447315 0.000000 0.000000 0.000000
0.477482 0.885797 1.445030 0.000000 0.000000 0.000000
0.473201 0.884809 1.440872 0.000000 0.000000 0.000000
0.501001 0.904716 1.442617 0.000000 0.000000 0.000000
0.447385 0.912977 1.435762 0.000000 0.000000 0.000000
0.442526 0.910901 1.432385 0.000000 0.000000 0.000000
0.481097 0.889786 1.449312 0.000000 0.000000 0.000000
0.447470 0.926104 1.436414 0.000000 0.000000 0.000000
0.451343 0.906456 1.435514 0.000000 0.000000 0.000000
0.476172 0.882333 1.440295 0.000000 0.000000 0.000000
0.501937 0.881507 1.463553 0.000000 0.000000 0.000000
0.463515 0.902472 1.442552 0.000000 0.000000 0.000000
0.431534 0.941118 1.428239 0.000000 0.000000 0.000000
0.484966 0.881293 1.449789 0.000000 0.000000 0.000000
0.465532 0.936276 1.426242 0.000000 0.000000 0.000000
0.432528 0.925743 1.431790 0.000000 0.000000 0.000000
0.453970 0.897950 1.433655 0.000000 0.000000 0.000000
0.491024 0.905055 1.449259 0.000000 0.000000 0.000000
0.466117 0.894744 1.442574 0.000000 0.000000 0.000000
0.451948 0.935426 1.427930 0.000000 0.000000 0.000000
0.446324 0.899518 1.432360 0.000000 0.000000 0.000000
0.434304 0.919999 1.431346 0.000000 0.000000 0.000000
0.496523 0.904396 1.447307 0.000000 0.000000 0.000000
0.511388 0.892097 1.464261 0.000000 0.000000 0.000000
0.486787 0.900983 1.465149 0.000000 0.000000 0.000000
0.449397 0.930128 1.438996 0.000000 0.000000 0.000000
0.439609 0.932446 1.437925 0.000000 0.000000 0.000000
0.438208 0.925102 1.432026 0.000000 0.000000 0.000000
0.457401 0.899068 1.437278 0.000000 0.000000 0.000000
0.438117 0.929930 1.443979 0.000000 0.000000 0.000000
0.500955 0.884992 1.461161 0.000000 0.000000 0.000000
0.438017 0.921353 1.432215 0.000000 0.000000 0.000000
0.437501 0.927571 1.433330 0.000000 0.000000 0.000000
0.464609 0.888882 1.438983 0.000000 0.000000 0.000000
0.470825 0.913334 1.451420 0.000000 0.000000 0.000000
0.492022 0.921690 1.437224 0.000000 0.000000 0.000000
0.472387 0.918825 1.450306 0.000000 0.000000 0.000000
0.448104 0.921765 1.440608 0.000000 0.000000 0.000000
0.496224 0.908488 1.446334 0.000000 0.000000 0.000000
0.507979 0.889591 1.473101 0.000000 0.000000 0.000000
0.501810 0.893858 1.462471 0.000000 0.000000 0.000000
0.491115 0.903116 1.461767 0.000000 0.000000 0.000000
0.450455 0.902391 1.433565 0.000000 0.000000 0.000000
0.457957 0.923830 1.439654 0.000000 0.000000 0.000000
0.438107 0.942714 1.427661 0.000000 0.000000 0.000000
0.446121 0.913847 1.434828 0.000000 0.000000 0.000000
0.450622 0.930799 1.428205 0.000000 0.000000 0.000000
0.442041 0.939249 1.428862 0.000000 0.000000 0.000000
0.439424 0.938858 1.429427 0.000000 0.000000 0.000000
0.454661 0.895339 1.433460 0.000000 0.000000 0.000000
0.470642 0.937120 1.420824 0.000000 0.000000 0.000000
0.436062 0.941291 1.432438 0.000000 0.000000 0.000000
0.470334 0.930189 1.422372 0.000000 0.000000 0.000000
0.456589 0.938867 1.423809 0.000000 0.000000 0.000000
0.439650 0.924493 1.434507 0.000000 0.000000 0.000000
0.438436 0.936871 1.444146 0.000000 0.000000 0.000000
0.503056 0.887096 1.470398 0.000000 0.000000 0.000000
0.452347 0.941670 1.422891 0.000000 0.000000 0.000000
0.469287 0.934026 1.423984 0.000000 0.000000 0.000000
0.441325 0.936716 1.430774 0.000000 0.000000 0.000000
0.432864 0.938544 1.440777 0.000000 0.000000 0.000000
0.502847 0.889967 1.475135 0.000000 0.000000 0.000000
0.453216 0.941637 1.424193 0.000000 0.000000 0.000000
0.473756 0.886383 1.442356 0.000000 0.000000 0.000000
0.465739 0.892206 1.440554 0.000000 0.000000 0.000000
0.485513 0.920068 1.427485 0.000000 0.000000 0.000000
0.503070 0.902318 1.456784 0.000000 0.000000 0.000000
0.489216 0.905091 1.432724 0.000000 0.000000 0.000000
0.498562 0.906872 1.438554 0.000000 0.000000 0.000000
0.505502 0.897471 1.447881 0.000000 0.000000 0.000000
0.482764 0.901669 1.459007 0.000000 0.000000 0.000000
0.499831 0.908399 1.440452 0.000000 0.000000 0.000000
0.464140 0.926554 1.435300 0.000000 0.000000 0.000000
0.484818 0.904781 1.459068 0.000000 0.000000 0.000000
0.441980 0.934816 1.440347 0.000000 0.000000 0.000000
0.487638 0.897951 1.451853 0.000000 0.000000 0.000000
0.432838 0.939094 1.439117 0.000000 0.000000 0.000000
0.499615 0.905300 1.443160 0.000000 0.000000 0.000000
0.460791 0.942878 1.425894 0.000000 0.000000 0.000000
0.462440 0.938989 1.424383 0.000000 0.000000 0.000000
0.439002 0.936881 1.441745 0.000000 0.000000 0.000000
0.451706 0.935642 1.421555 0.000000 0.000000 0.000000
0.448869 0.906208 1.433054 0.000000 0.000000 0.000000
0.457743 0.896368 1.435014 0.000000 0.000000 0.000000
0.441762 0.905793 1.431372 0.000000 0.000000 0.000000
0.473668 0.900724 1.451982 0.000000 0.000000 0.000000
0.470539 0.917499 1.452284 0.000000 0.000000 0.000000
0.480376 0.896375 1.453277 0.000000 0.000000 0.000000
0.493696 0.915288 1.432960 0.000000 0.000000 0.000000
0.443703 0.906923 1.430539 0.000000 0.000000 0.000000
0.446656 0.901814 1.430921 0.000000 0.000000 0.000000
0.446805 0.944575 1.420501 0.000000 0.000000 0.000000
0.504640 0.895692 1.468467 0.000000 0.000000 0.000000
0.499967 0.904562 1.442588 0.000000 0.000000 0.000000
0.506812 0.901865 1.454806 0.000000 0.000000 0.000000
0.506451 0.897687 1.466463 0.000000 0.000000 0.000000
0.450660 0.901759 1.432174 0.000000 0.000000 0.000000
0.513460 0.901110 1.454247 0.000000 0.000000 0.000000
0.488576 0.922698 1.430652 0.000000 0.000000 0.000000
0.477817 0.885881 1.446314 0.000000 0.000000 0.000000
0.488351 0.896104 1.471757 0.000000 0.000000 0.000000
0.494772 0.886155 1.462012 0.000000 0.000000 0.000000
0.490551 0.897062 1.464363 0.000000 0.000000 0.000000
0.491144 0.881872 1.455965 0.000000 0.000000 0.000000
0.486282 0.911263 1.454662 0.000000 0.000000 0.000000
0.438204 0.938045 1.438830 0.000000 0.000000 0.000000
0.496362 0.881364 1.453577 0.000000 0.000000 0.000000
0.433469 0.927119 1.434037 0.000000 0.000000 0.000000
0.440903 0.941842 1.428281 0.000000 0.000000 0.000000
0.451538 0.906825 1.434907 0.000000 0.000000 0.000000
0.434419 0.935755 1.435402 0.000000 0.000000 0.000000
0.440286 0.932577 1.433533 0.000000 0.000000 0.000000
0.433849 0.935886 1.436707 0.000000 0.000000 0.000000
0.445310 0.928214 1.439874 0.000000 0.000000 0.000000
0.437145 0.942580 1.429675 0.000000 0.000000 0.000000
0.429869 0.936431 1.435460 0.000000 0.000000 0.000000
0.428977 0.943286 1.435031 0.000000 0.000000 0.000000
0.438475 0.942939 1.429376 0.000000 0.000000 0.000000
0.438893 0.941288 1.426334 0.000000 0.000000 0.000000
0.445408 0.939420 1.426302 0.000000 0.000000 0.000000
0.441870 0.943257 1.426137 0.000000 0.000000 0.000000
0.444798 0.942479 1.425194 0.000000 0.000000 0.000000
0.429762 0.941645 1.432449 0.000000 0.000000 0.000000
0.487790 0.915251 1.440095 0.000000 0.000000 0.000000
0.492163 0.915391 1.440750 0.000000 0.000000 0.000000
0.454331 0.896452 1.433676 0.000000 0.000000 0.000000
0.461563 0.930400 1.428243 0.000000 0.000000 0.000000
0.476361 0.925936 1.432284 0.000000 0.000000 0.000000
0.458038 0.937057 1.422597 0.000000 0.000000 0.000000
0.461132 0.935934 1.425849 0.000000 0.000000 0.000000
0.453686 0.940973 1.422897 0.000000 0.000000 0.000000
0.467930 0.933582 1.424463 0.000000 0.000000 0.000000
0.455328 0.901307 1.436576 0.000000 0.000000 0.000000
0.446178 0.903181 1.431933 0.000000 0.000000 0.000000
0.472141 0.931134 1.423753 0.000000 0.000000 0.000000
0.464291 0.934360 1.423765 0.000000 0.000000 0.000000
0.464201 0.940519 1.420738 0.000000 0.000000 0.000000
0.488466 0.914697 1.427511 0.000000 0.000000 0.000000
0.464579 0.935261 1.425377 0.000000 0.000000 0.000000
0.460269 0.937921 1.423063 0.000000 0.000000 0.000000
0.451672 0.942985 1.422033 0.000000 0.000000 0.000000
0.458845 0.937808 1.423283 0.000000 0.000000 0.000000
0.461124 0.936181 1.422773 0.000000 0.000000 0.000000
0.471063 0.935046 1.422672 0.000000 0.000000 0.000000
0.458730 0.923962 1.443253 0.000000 0.000000 0.000000
0.469583 0.931211 1.427006 0.000000 0.000000 0.000000
0.483668 0.926489 1.431121 0.000000 0.000000 0.000000
0.441566 0.942630 1.427327 0.000000 0.000000 0.000000
0.441418 0.942016 1.427192 0.000000 0.000000 0.000000
0.461876 0.927848 1.427017 0.000000 0.000000 0.000000
0.511683 0.882055 1.475096 0.000000 0.000000 0.000000
0.460515 0.934678 1.424004 0.000000 0.000000 0.000000
0.470708 0.931513 1.420857 0.000000 0.000000 0.000000
0.478010 0.922982 1.425452 0.000000 0.000000 0.000000
0.459711 0.899779 1.439727 0.000000 0.000000 0.000000
0.465017 0.935627 1.423458 0.000000 0.000000 0.000000
0.474208 0.919349 1.434145 0.000000 0.000000 0.000000
0.485257 0.919974 1.435987 0.000000 0.000000 0.000000
0.450804 0.939965 1.424717 0.000000 0.000000 0.000000
0.446137 0.939621 1.426527 0.000000 0.000000 0.000000
0.450260 0.940761 1.424718 0.000000 0.000000 0.000000
0.461476 0.937064 1.424484 0.000000 0.000000 0.000000
0.453024 0.936621 1.426443 0.000000 0.000000 0.000000
0.466271 0.935161 1.425538 0.000000 0.000000 0.000000
0.469432 0.933835 1.423488 0.000000 0.000000 0.000000
0.479595 0.926910 1.425152 0.000000 0.000000 0.000000
0.435622 0.919654 1.430037 0.000000 0.000000 0.000000
0.488381 0.920677 1.432078 0.000000 0.000000 0.000000
0.487603 0.922235 1.425075 0.000000 0.000000 0.000000
0.485866 0.919921 1.428102 0.000000 0.000000 0.000000
0.499595 0.907525 1.441431 0.000000 0.000000 0.000000
0.492018 0.912988 1.433949 0.000000 0.000000 0.000000
0.492138 0.924371 1.425877 0.000000 0.000000 0.000000
0.499291 0.908424 1.439331 0.000000 0.000000 0.000000
0.439000 0.916913 1.432218 0.000000 0.000000 0.000000
0.443869 0.932984 1.440331 0.000000 0.000000 0.000000
0.499303 0.895106 1.469717 0.000000 0.000000 0.000000
0.446303 0.929881 1.441202 0.000000 0.000000 0.000000
0.503471 0.892935 1.472003 0.000000 0.000000 0.000000
0.478231 0.881047 1.445530 0.000000 0.000000 0.000000
0.439924 0.944523 1.425354 0.000000 0.000000 0.000000
0.458371 0.886082 1.434803 0.000000 0.000000 0.000000
0.500257 0.908045 1.433319 0.000000 0.000000 0.000000
0.477399 0.878181 1.439366 0.000000 0.000000 0.000000
0.454884 0.890763 1.434129 0.000000 0.000000 0.000000
0.431993 0.924344 1.431164 0.000000 0.000000 0.000000
0.443432 0.911705 1.432623 0.000000 0.000000 0.000000
0.491281 0.904792 1.466318 0.000000 0.000000 0.000000
0.443644 0.911632 1.433079 0.000000 0.000000 0.000000
0.499343 0.901548 1.472420 0.000000 0.000000 0.000000
0.475218 0.933984 1.421864 0.000000 0.000000 0.000000
0.475655 0.937123 1.420445 0.000000 0.000000 0.000000
0.466769 0.941359 1.426740 0.000000 0.000000 0.000000
0.459409 0.890512 1.435346 0.000000 0.000000 0.000000
0.477370 0.880581 1.444540 0.000000 0.000000 0.000000
0.474603 0.934599 1.421409 0.000000 0.000000 0.000000
0.474896 0.933447 1.421993 0.000000 0.000000 0.000000
0.467254 0.885708 1.436457 0.000000 0.000000 0.000000
0.464478 0.889016 1.437246 0.000000 0.000000 0.000000
0.487163 0.880183 1.452213 0.000000 0.000000 0.000000
0.464581 0.934562 1.422173 0.000000 0.000000 0.000000
0.472142 0.883125 1.441781 0.000000 0.000000 0.000000
0.473020 0.881971 1.441341 0.000000 0.000000 0.000000
0.476422 0.931567 1.424143 0.000000 0.000000 0.000000
0.475536 0.932536 1.423175 0.000000 0.000000 0.000000
0.476783 0.884877 1.443647 0.000000 0.000000 0.000000
0.489858 0.888900 1.449113 0.000000 0.000000 0.000000
0.477998 0.929763 1.427320 0.000000 0.000000 0.000000
0.473001 0.887549 1.443907 0.000000 0.000000 0.000000
0.473426 0.881551 1.442298 0.000000 0.000000 0.000000
0.450793 0.928799 1.445409 0.000000 0.000000 0.000000
0.456237 0.925094 1.443103 0.000000 0.000000 0.000000
0.447767 0.930882 1.443279 0.000000 0.000000 0.000000
0.448009 0.921667 1.438992 0.000000 0.000000 0.000000
0.457881 0.920799 1.444768 0.000000 0.000000 0.000000
0.445488 0.941046 1.436565 0.000000 0.000000 0.000000
0.452079 0.899078 1.433764 0.000000 0.000000 0.000000
0.446745 0.934557 1.431617 0.000000 0.000000 0.000000
0.439881 0.913395 1.431843 0.000000 0.000000 0.000000
0.480187 0.921647 1.436934 0.000000 0.000000 0.000000
0.441725 0.943237 1.425365 0.000000 0.000000 0.000000
0.459720 0.897893 1.437803 0.000000 0.000000 0.000000
0.446827 0.928841 1.442248 0.000000 0.000000 0.000000
0.466440 0.923048 1.442219 0.000000 0.000000 0.000000
0.466271 0.918504 1.450646 0.000000 0.000000 0.000000
0.452151 0.927315 1.444514 0.000000 0.000000 0.000000
0.468546 0.914084 1.446964 0.000000 0.000000 0.000000
0.458544 0.924036 1.447331 0.000000 0.000000 0.000000
0.449223 0.928859 1.440162 0.000000 0.000000 0.000000
0.501024 0.902166 1.461965 0.000000 0.000000 0.000000
0.498302 0.904008 1.449374 0.000000 0.000000 0.000000
0.500144 0.903963 1.451651 0.000000 0.000000 0.000000
0.508953 0.888876 1.471440 0.000000 0.000000 0.000000
0.507669 0.893336 1.464377 0.000000 0.000000 0.000000
0.474091 0.936592 1.423499 0.000000 0.000000 0.000000
0.499522 0.912972 1.438906 0.000000 0.000000 0.000000
0.464795 0.920177 1.447558 0.000000 0.000000 0.000000
0.445564 0.943476 1.423735 0.000000 0.000000 0.000000
0.456291 0.924353 1.452917 0.000000 0.000000 0.000000
0.459679 0.922241 1.446169 0.000000 0.000000 0.000000
0.448050 0.929449 1.449527 0.000000 0.000000 0.000000
0.438271 0.922104 1.432958 0.000000 0.000000 0.000000
0.458044 0.891682 1.435914 0.000000 0.000000 0.000000
0.454716 0.922185 1.441236 0.000000 0.000000 0.000000
0.463626 0.890304 1.438894 0.000000 0.000000 0.000000
0.437866 0.943819 1.429004 0.000000 0.000000 0.000000
0.498358 0.916730 1.430848 0.000000 0.000000 0.000000
0.486694 0.933292 1.424696 0.000000 0.000000 0.000000
0.441136 0.945082 1.424647 0.000000 0.000000 0.000000
0.444223 0.939413 1.427674 0.000000 0.000000 0.000000
0.451051 0.938263 1.425736 0.000000 0.000000 0.000000
0.432340 0.941683 1.433542 0.000000 0.000000 0.000000
0.504470 0.904609 1.441729 0.000000 0.000000 0.000000
0.469010 0.888380 1.441392 0.000000 0.000000 0.000000
0.469847 0.889235 1.442490 0.000000 0.000000 0.000000
0.472101 0.882149 1.440390 0.000000 0.000000 0.000000
0.476317 0.883304 1.443429 0.000000 0.000000 0.000000
0.439409 0.940846 1.432434 0.000000 0.000000 0.000000
0.453335 0.938857 1.424216 0.000000 0.000000 0.000000
0.436834 0.944431 1.430218 0.000000 0.000000 0.000000
0.432405 0.944339 1.429290 0.000000 0.000000 0.000000
0.469041 0.879503 1.438499 0.000000 0.000000 0.000000
0.460793 0.888488 1.436336 0.000000 0.000000 0.000000
0.461209 0.891389 1.436284 0.000000 0.000000 0.000000
0.465925 0.885168 1.437860 0.000000 0.000000 0.000000
0.463421 0.886388 1.437179 0.000000 0.000000 0.000000
0.468138 0.886493 1.438778 0.000000 0.000000 0.000000
0.481771 0.881024 1.445469 0.000000 0.000000 0.000000
0.497746 0.902464 1.440484 0.000000 0.000000 0.000000
0.465025 0.887384 1.437598 0.000000 0.000000 0.000000
0.464328 0.889976 1.437584 0.000000 0.000000 0.000000
0.465867 0.886210 1.435113 0.000000 0.000000 0.000000
0.503924 0.901610 1.445174 0.000000 0.000000 0.000000
0.473096 0.887641 1.441975 0.000000 0.000000 0.000000
0.482964 0.886240 1.446315 0.000000 0.000000 0.000000
0.468100 0.885916 1.437484 0.000000 0.000000 0.000000
0.461435 0.890272 1.434927 0.000000 0.000000 0.000000
0.498819 0.889124 1.447484 0.000000 0.000000 0.000000
0.461384 0.884452 1.439483 0.000000 0.000000 0.000000
0.506114 0.899355 1.447307 0.000000 0.000000 0.000000
0.432858 0.941994 1.434565 0.000000 0.000000 0.000000
0.445294 0.944869 1.424082 0.000000 0.000000 0.000000
0.455942 0.893688 1.433128 0.000000 0.000000 0.000000
0.446205 0.902512 1.432440 0.000000 0.000000 0.000000
0.433835 0.920592 1.431142 0.000000 0.000000 0.000000
0.452535 0.938200 1.423923 0.000000 0.000000 0.000000
0.441321 0.936804 1.428330 0.000000 0.000000 0.000000
0.488834 0.929582 1.425050 0.000000 0.000000 0.000000
0.454881 0.937366 1.427964 0.000000 0.000000 0.000000
0.449892 0.901272 1.430691 0.000000 0.000000 0.000000
0.451396 0.942936 1.421785 0.000000 0.000000 0.000000
0.434047 0.938410 1.435600 0.000000 0.000000 0.000000
0.456526 0.896074 1.432950 0.000000 0.000000 0.000000
0.457569 0.938158 1.422291 0.000000 0.000000 0.000000
0.453119 0.896324 1.432781 0.000000 0.000000 0.000000
0.501583 0.897243 1.447951 0.000000 0.000000 0.000000
0.510047 0.904257 1.448671 0.000000 0.000000 0.000000
0.500264 0.913153 1.448612 0.000000 0.000000 0.000000
0.506243 0.896003 1.452293 0.000000 0.000000 0.000000
0.513047 0.887557 1.460255 0.000000 0.000000 0.000000
0.510023 0.892856 1.458625 0.000000 0.000000 0.000000
0.504020 0.903462 1.449048 0.000000 0.000000 0.000000
0.501330 0.892500 1.440632 0.000000 0.000000 0.000000
0.506743 0.897468 1.448908 0.000000 0.000000 0.000000
0.507981 0.891503 1.455295 0.000000 0.000000 0.000000
0.510365 0.897196 1.454413 0.000000 0.000000 0.000000
0.504772 0.900821 1.451310 0.000000 0.000000 0.000000
0.454657 0.904048 1.436862 0.000000 0.000000 0.000000
0.448276 0.901135 1.431611 0.000000 0.000000 0.000000
0.457618 0.892658 1.433146 0.000000 0.000000 0.000000
0.438215 0.917452 1.432065 0.000000 0.000000 0.000000
0.451848 0.900882 1.432328 0.000000 0.000000 0.000000
0.500808 0.906924 1.444063 0.000000 0.000000 0.000000
0.457592 0.892484 1.434230 0.000000 0.000000 0.000000
0.505715 0.898207 1.448984 0.000000 0.000000 0.000000
0.500470 0.907450 1.448455 0.000000 0.000000 0.000000
0.451935 0.897188 1.433133 0.000000 0.000000 0.000000
0.488925 0.914788 1.441509 0.000000 0.000000 0.000000
0.505291 0.906550 1.455081 0.000000 0.000000 0.000000
0.442993 0.909396 1.429848 0.000000 0.000000 0.000000
0.457841 0.942188 1.420243 0.000000 0.000000 0.000000
0.493034 0.915201 1.432342 0.000000 0.000000 0.000000
0.507755 0.897425 1.450987 0.000000 0.000000 0.000000
0.495003 0.911467 1.437270 0.000000 0.000000 0.000000
0.496053 0.913933 1.439397 0.000000 0.000000 0.000000
0.505730 0.886014 1.453997 0.000000 0.000000 0.000000
0.499335 0.907798 1.441879 0.000000 0.000000 0.000000
0.501922 0.893583 1.445878 0.000000 0.000000 0.000000
