ply
format ascii 1.0
comment VCGLIB generated
obj_info Generated by SPFormer!
element vertex 578
property float x
property float y
property float z
property float nx
property float ny
property float nz
end_header
0.560519 1.116438 2.050415 0.000000 0.000000 0.000000
0.564671 1.103590 2.030094 0.000000 0.000000 0.000000
0.560757 1.112903 2.042491 0.000000 0.000000 0.000000
0.561766 1.113490 2.041078 0.000000 0.000000 0.000000
0.560389 1.118060 2.034398 0.000000 0.000000 0.000000
0.560608 1.117172 2.020617 0.000000 0.000000 0.000000
0.561613 1.113229 2.039023 0.000000 0.000000 0.000000
0.561715 1.105450 2.033271 0.000000 0.000000 0.000000
0.555419 1.116284 2.049709 0.000000 0.000000 0.000000
0.561022 1.115085 2.034264 0.000000 0.000000 0.000000
0.557538 1.117880 2.053694 0.000000 0.000000 0.000000
0.558669 1.113623 2.043360 0.000000 0.000000 0.000000
0.558121 1.119683 2.047074 0.000000 0.000000 0.000000
0.562956 1.113391 2.037923 0.000000 0.000000 0.000000
0.560418 1.117961 2.024525 0.000000 0.000000 0.000000
0.562438 1.103819 2.029686 0.000000 0.000000 0.000000
0.565291 1.119214 2.053756 0.000000 0.000000 0.000000
0.559576 1.118759 2.048094 0.000000 0.000000 0.000000
0.561760 1.113802 2.019058 0.000000 0.000000 0.000000
0.561320 1.117685 2.037114 0.000000 0.000000 0.000000
0.562047 1.113118 2.031670 0.000000 0.000000 0.000000
0.559945 1.114125 2.046058 0.000000 0.000000 0.000000
0.559122 1.118541 2.040072 0.000000 0.000000 0.000000
0.560592 1.118387 2.029245 0.000000 0.000000 0.000000
0.556827 1.117438 2.040124 0.000000 0.000000 0.000000
0.561449 1.119375 2.038725 0.000000 0.000000 0.000000
0.562162 1.119143 2.051808 0.000000 0.000000 0.000000
0.563134 1.110380 2.033300 0.000000 0.000000 0.000000
0.562158 1.107146 2.029227 0.000000 0.000000 0.000000
0.564275 1.109552 2.032651 0.000000 0.000000 0.000000
0.560065 1.119686 2.030029 0.000000 0.000000 0.000000
0.560526 1.105651 2.026260 0.000000 0.000000 0.000000
0.561330 1.111472 2.037496 0.000000 0.000000 0.000000
0.562570 1.116878 2.033188 0.000000 0.000000 0.000000
0.561216 1.108341 2.030369 0.000000 0.000000 0.000000
0.561129 1.119264 2.033891 0.000000 0.000000 0.000000
0.560010 1.116050 2.048254 0.000000 0.000000 0.000000
0.561258 1.117492 2.044468 0.000000 0.000000 0.000000
0.558685 1.114738 2.049069 0.000000 0.000000 0.000000
0.563092 1.108170 2.031582 0.000000 0.000000 0.000000
0.530935 1.078543 2.057429 0.000000 0.000000 0.000000
0.562371 1.058756 2.067297 0.000000 0.000000 0.000000
0.570462 1.077428 2.046451 0.000000 0.000000 0.000000
0.560412 1.080254 2.051044 0.000000 0.000000 0.000000
0.575704 1.044973 2.072638 0.000000 0.000000 0.000000
0.578274 1.050808 2.070241 0.000000 0.000000 0.000000
0.575755 1.040893 2.077260 0.000000 0.000000 0.000000
0.564887 1.045579 2.069428 0.000000 0.000000 0.000000
0.547463 1.073064 2.056886 0.000000 0.000000 0.000000
0.569822 1.047295 2.067885 0.000000 0.000000 0.000000
0.535253 1.071721 2.060857 0.000000 0.000000 0.000000
0.582179 1.044025 2.074118 0.000000 0.000000 0.000000
0.554246 1.076316 2.052204 0.000000 0.000000 0.000000
0.595375 1.039550 2.080132 0.000000 0.000000 0.000000
0.574686 1.037777 2.082136 0.000000 0.000000 0.000000
0.559635 1.075309 2.050342 0.000000 0.000000 0.000000
0.564946 1.095209 2.040988 0.000000 0.000000 0.000000
0.570229 1.039311 2.075907 0.000000 0.000000 0.000000
0.541589 1.081792 2.053573 0.000000 0.000000 0.000000
0.587905 1.061611 2.050643 0.000000 0.000000 0.000000
0.576879 1.062938 2.046705 0.000000 0.000000 0.000000
0.568547 1.093421 2.039300 0.000000 0.000000 0.000000
0.587783 1.068416 2.045151 0.000000 0.000000 0.000000
0.572715 1.051002 2.068745 0.000000 0.000000 0.000000
0.565351 1.066282 2.054548 0.000000 0.000000 0.000000
0.561968 1.035637 2.079258 0.000000 0.000000 0.000000
0.539544 1.042646 2.081050 0.000000 0.000000 0.000000
0.581367 1.055958 2.065585 0.000000 0.000000 0.000000
0.586441 1.041009 2.073136 0.000000 0.000000 0.000000
0.570978 1.033608 2.080709 0.000000 0.000000 0.000000
0.573726 1.047528 2.067036 0.000000 0.000000 0.000000
0.574301 1.039671 2.074637 0.000000 0.000000 0.000000
0.565489 1.089022 2.039228 0.000000 0.000000 0.000000
0.583060 1.059084 2.058547 0.000000 0.000000 0.000000
0.576524 1.047482 2.069118 0.000000 0.000000 0.000000
0.599056 1.052848 2.057865 0.000000 0.000000 0.000000
0.586061 1.046563 2.065096 0.000000 0.000000 0.000000
0.573027 1.091790 2.040303 0.000000 0.000000 0.000000
0.558689 1.059391 2.059471 0.000000 0.000000 0.000000
0.570271 1.055684 2.051867 0.000000 0.000000 0.000000
0.532671 1.059982 2.066136 0.000000 0.000000 0.000000
0.570020 1.098353 2.040179 0.000000 0.000000 0.000000
0.564418 1.078704 2.052424 0.000000 0.000000 0.000000
0.556277 1.032487 2.080563 0.000000 0.000000 0.000000
0.567960 1.037676 2.083087 0.000000 0.000000 0.000000
0.569569 1.085418 2.043809 0.000000 0.000000 0.000000
0.578487 1.060052 2.062415 0.000000 0.000000 0.000000
0.563300 1.105379 2.035771 0.000000 0.000000 0.000000
0.572680 1.093561 2.039375 0.000000 0.000000 0.000000
0.577782 1.063969 2.048466 0.000000 0.000000 0.000000
0.573189 1.069721 2.047261 0.000000 0.000000 0.000000
0.550610 1.090443 2.046038 0.000000 0.000000 0.000000
0.558112 1.108633 2.044933 0.000000 0.000000 0.000000
0.566349 1.076365 2.051490 0.000000 0.000000 0.000000
0.574670 1.098011 2.037168 0.000000 0.000000 0.000000
0.562360 1.033205 2.070538 0.000000 0.000000 0.000000
0.576448 1.081512 2.039753 0.000000 0.000000 0.000000
0.561097 1.038058 2.083351 0.000000 0.000000 0.000000
0.598764 1.040654 2.079851 0.000000 0.000000 0.000000
0.559902 1.031317 2.092660 0.000000 0.000000 0.000000
0.571625 1.043627 2.078837 0.000000 0.000000 0.000000
0.567555 1.027612 2.095363 0.000000 0.000000 0.000000
0.588674 1.047711 2.060757 0.000000 0.000000 0.000000
0.555412 1.106184 2.044590 0.000000 0.000000 0.000000
0.567127 1.040437 2.061514 0.000000 0.000000 0.000000
0.576974 1.023242 2.096161 0.000000 0.000000 0.000000
0.604297 1.038009 2.083254 0.000000 0.000000 0.000000
0.576115 1.030167 2.087225 0.000000 0.000000 0.000000
0.595559 1.036028 2.076030 0.000000 0.000000 0.000000
0.596856 1.041041 2.074256 0.000000 0.000000 0.000000
0.578141 1.043588 2.059605 0.000000 0.000000 0.000000
0.592199 1.065452 2.046067 0.000000 0.000000 0.000000
0.543575 1.039267 2.080319 0.000000 0.000000 0.000000
0.562723 1.050098 2.074021 0.000000 0.000000 0.000000
0.540577 1.045232 2.074613 0.000000 0.000000 0.000000
0.581365 1.071924 2.040958 0.000000 0.000000 0.000000
0.565797 1.087911 2.041971 0.000000 0.000000 0.000000
0.570503 1.049547 2.064528 0.000000 0.000000 0.000000
0.591867 1.033132 2.088406 0.000000 0.000000 0.000000
0.561035 1.105873 2.043984 0.000000 0.000000 0.000000
0.565445 1.087481 2.041201 0.000000 0.000000 0.000000
0.577291 1.084512 2.038299 0.000000 0.000000 0.000000
0.584995 1.074153 2.043441 0.000000 0.000000 0.000000
0.541548 1.049911 2.069855 0.000000 0.000000 0.000000
0.574120 1.078293 2.046050 0.000000 0.000000 0.000000
0.563057 1.039747 2.073884 0.000000 0.000000 0.000000
0.554281 1.085670 2.050384 0.000000 0.000000 0.000000
0.552658 1.111959 2.040310 0.000000 0.000000 0.000000
0.562286 1.092938 2.046008 0.000000 0.000000 0.000000
0.552718 1.093595 2.042197 0.000000 0.000000 0.000000
0.559969 1.079657 2.049309 0.000000 0.000000 0.000000
0.584091 1.058391 2.058100 0.000000 0.000000 0.000000
0.555115 1.095670 2.043592 0.000000 0.000000 0.000000
0.568147 1.030466 2.084183 0.000000 0.000000 0.000000
0.577718 1.068207 2.048449 0.000000 0.000000 0.000000
0.568386 1.074378 2.048750 0.000000 0.000000 0.000000
0.595419 1.062918 2.049758 0.000000 0.000000 0.000000
0.569571 1.022110 2.097586 0.000000 0.000000 0.000000
0.558189 1.110445 2.045876 0.000000 0.000000 0.000000
0.579601 1.025809 2.090574 0.000000 0.000000 0.000000
0.563678 1.083440 2.049165 0.000000 0.000000 0.000000
0.534448 1.065170 2.061938 0.000000 0.000000 0.000000
0.590325 1.057636 2.057315 0.000000 0.000000 0.000000
0.569103 1.070231 2.049403 0.000000 0.000000 0.000000
0.552756 1.048030 2.077422 0.000000 0.000000 0.000000
0.548117 1.040111 2.076504 0.000000 0.000000 0.000000
0.554086 1.057001 2.051274 0.000000 0.000000 0.000000
0.539870 1.046034 2.075603 0.000000 0.000000 0.000000
0.563240 1.033862 2.087622 0.000000 0.000000 0.000000
0.609501 1.040026 2.080146 0.000000 0.000000 0.000000
0.581469 1.072056 2.043203 0.000000 0.000000 0.000000
0.541444 1.101950 2.041986 0.000000 0.000000 0.000000
0.580635 1.055716 2.054343 0.000000 0.000000 0.000000
0.528322 1.082934 2.057172 0.000000 0.000000 0.000000
0.586939 1.060809 2.051621 0.000000 0.000000 0.000000
0.586504 1.044536 2.072788 0.000000 0.000000 0.000000
0.549299 1.110317 2.041278 0.000000 0.000000 0.000000
0.569317 1.048382 2.071850 0.000000 0.000000 0.000000
0.552988 1.036698 2.083100 0.000000 0.000000 0.000000
0.595290 1.054089 2.064278 0.000000 0.000000 0.000000
0.532414 1.069580 2.060738 0.000000 0.000000 0.000000
0.564985 1.065381 2.058339 0.000000 0.000000 0.000000
0.541322 1.098324 2.043588 0.000000 0.000000 0.000000
0.550733 1.103663 2.045033 0.000000 0.000000 0.000000
0.561861 1.025656 2.094248 0.000000 0.000000 0.000000
0.604797 1.034628 2.080672 0.000000 0.000000 0.000000
0.551891 1.084505 2.048039 0.000000 0.000000 0.000000
0.603370 1.043328 2.072752 0.000000 0.000000 0.000000
0.544223 1.085000 2.049186 0.000000 0.000000 0.000000
0.541268 1.057115 2.065636 0.000000 0.000000 0.000000
0.541051 1.059317 2.064535 0.000000 0.000000 0.000000
0.551268 1.039519 2.075041 0.000000 0.000000 0.000000
0.541795 1.057460 2.064897 0.000000 0.000000 0.000000
0.564888 1.061105 2.055777 0.000000 0.000000 0.000000
0.580210 1.079903 2.037502 0.000000 0.000000 0.000000
0.557375 1.038430 2.074565 0.000000 0.000000 0.000000
0.542663 1.101180 2.041081 0.000000 0.000000 0.000000
0.607910 1.050081 2.066628 0.000000 0.000000 0.000000
0.539048 1.051625 2.070411 0.000000 0.000000 0.000000
0.536846 1.091968 2.047920 0.000000 0.000000 0.000000
0.547192 1.076436 2.045590 0.000000 0.000000 0.000000
0.558237 1.112345 2.046429 0.000000 0.000000 0.000000
0.537019 1.079048 2.056492 0.000000 0.000000 0.000000
0.543066 1.045515 2.068762 0.000000 0.000000 0.000000
0.541158 1.033443 2.084797 0.000000 0.000000 0.000000
0.574531 1.045466 2.070368 0.000000 0.000000 0.000000
0.565074 1.037872 2.079308 0.000000 0.000000 0.000000
0.574098 1.027801 2.082929 0.000000 0.000000 0.000000
0.563695 1.038176 2.079320 0.000000 0.000000 0.000000
0.598618 1.033269 2.088086 0.000000 0.000000 0.000000
0.587455 1.056223 2.064852 0.000000 0.000000 0.000000
0.579483 1.045923 2.073000 0.000000 0.000000 0.000000
0.579403 1.041756 2.071284 0.000000 0.000000 0.000000
0.589125 1.032433 2.086745 0.000000 0.000000 0.000000
0.565915 1.040182 2.078114 0.000000 0.000000 0.000000
0.588811 1.034613 2.086347 0.000000 0.000000 0.000000
0.582730 1.030845 2.080567 0.000000 0.000000 0.000000
0.564171 1.036295 2.081462 0.000000 0.000000 0.000000
0.579709 1.039596 2.075841 0.000000 0.000000 0.000000
0.563326 1.028415 2.094648 0.000000 0.000000 0.000000
0.546934 1.103084 2.042482 0.000000 0.000000 0.000000
0.562238 1.030622 2.084363 0.000000 0.000000 0.000000
0.550603 1.089490 2.047154 0.000000 0.000000 0.000000
0.562235 1.026747 2.085640 0.000000 0.000000 0.000000
0.598648 1.038726 2.081413 0.000000 0.000000 0.000000
0.579705 1.027920 2.091434 0.000000 0.000000 0.000000
0.579998 1.080007 2.038228 0.000000 0.000000 0.000000
0.560056 1.050312 2.058874 0.000000 0.000000 0.000000
0.542900 1.069899 2.058702 0.000000 0.000000 0.000000
0.590567 1.060883 2.050774 0.000000 0.000000 0.000000
0.547535 1.040295 2.076413 0.000000 0.000000 0.000000
0.539147 1.046854 2.072661 0.000000 0.000000 0.000000
0.544098 1.069834 2.055930 0.000000 0.000000 0.000000
0.561336 1.056003 2.063752 0.000000 0.000000 0.000000
0.585613 1.066360 2.046136 0.000000 0.000000 0.000000
0.533745 1.055515 2.069426 0.000000 0.000000 0.000000
0.538337 1.047036 2.073553 0.000000 0.000000 0.000000
0.548423 1.034885 2.085692 0.000000 0.000000 0.000000
0.552476 1.108083 2.042381 0.000000 0.000000 0.000000
0.587719 1.063214 2.053192 0.000000 0.000000 0.000000
0.600770 1.034471 2.079656 0.000000 0.000000 0.000000
0.594709 1.051401 2.064981 0.000000 0.000000 0.000000
0.552530 1.035876 2.073684 0.000000 0.000000 0.000000
0.546684 1.058870 2.062572 0.000000 0.000000 0.000000
0.558641 1.074742 2.058784 0.000000 0.000000 0.000000
0.537558 1.051392 2.070415 0.000000 0.000000 0.000000
0.533487 1.075365 2.060480 0.000000 0.000000 0.000000
0.593552 1.043600 2.079937 0.000000 0.000000 0.000000
0.533966 1.058845 2.066467 0.000000 0.000000 0.000000
0.604200 1.042149 2.081083 0.000000 0.000000 0.000000
0.542123 1.043997 2.074517 0.000000 0.000000 0.000000
0.532549 1.058955 2.067155 0.000000 0.000000 0.000000
0.547512 1.055530 2.065077 0.000000 0.000000 0.000000
0.532907 1.061769 2.065683 0.000000 0.000000 0.000000
0.540184 1.101609 2.041290 0.000000 0.000000 0.000000
0.541853 1.068622 2.058467 0.000000 0.000000 0.000000
0.538604 1.047818 2.072548 0.000000 0.000000 0.000000
0.538783 1.046308 2.075228 0.000000 0.000000 0.000000
0.559463 1.107710 2.044751 0.000000 0.000000 0.000000
0.576626 1.083651 2.037287 0.000000 0.000000 0.000000
0.538822 1.047633 2.072573 0.000000 0.000000 0.000000
0.570537 1.023891 2.093049 0.000000 0.000000 0.000000
0.555577 1.030298 2.084827 0.000000 0.000000 0.000000
0.575380 1.026037 2.088093 0.000000 0.000000 0.000000
0.562605 1.028453 2.090401 0.000000 0.000000 0.000000
0.553071 1.031857 2.085607 0.000000 0.000000 0.000000
0.596837 1.060475 2.053242 0.000000 0.000000 0.000000
0.536328 1.062220 2.063328 0.000000 0.000000 0.000000
0.575738 1.087744 2.035007 0.000000 0.000000 0.000000
0.535138 1.068028 2.060716 0.000000 0.000000 0.000000
0.539392 1.056266 2.066163 0.000000 0.000000 0.000000
0.563464 1.059311 2.056286 0.000000 0.000000 0.000000
0.596356 1.062246 2.047903 0.000000 0.000000 0.000000
0.592838 1.071798 2.042404 0.000000 0.000000 0.000000
0.535488 1.070467 2.060297 0.000000 0.000000 0.000000
0.552485 1.090334 2.047826 0.000000 0.000000 0.000000
0.533952 1.055449 2.068092 0.000000 0.000000 0.000000
0.593470 1.062699 2.050994 0.000000 0.000000 0.000000
0.594573 1.051712 2.066606 0.000000 0.000000 0.000000
0.592301 1.057919 2.059104 0.000000 0.000000 0.000000
0.582498 1.058943 2.060774 0.000000 0.000000 0.000000
0.598415 1.051597 2.064127 0.000000 0.000000 0.000000
0.593465 1.059305 2.057390 0.000000 0.000000 0.000000
0.575604 1.025544 2.097209 0.000000 0.000000 0.000000
0.602918 1.045857 2.073843 0.000000 0.000000 0.000000
0.577485 1.068560 2.052039 0.000000 0.000000 0.000000
0.585969 1.070022 2.045596 0.000000 0.000000 0.000000
0.568818 1.083653 2.044773 0.000000 0.000000 0.000000
0.552814 1.038689 2.077746 0.000000 0.000000 0.000000
0.576443 1.085815 2.038131 0.000000 0.000000 0.000000
0.552433 1.024995 2.093567 0.000000 0.000000 0.000000
0.584371 1.071684 2.042165 0.000000 0.000000 0.000000
0.602514 1.041254 2.080031 0.000000 0.000000 0.000000
0.598213 1.053844 2.063160 0.000000 0.000000 0.000000
0.585207 1.034491 2.076316 0.000000 0.000000 0.000000
0.562614 1.025535 2.094044 0.000000 0.000000 0.000000
0.562344 1.029375 2.077485 0.000000 0.000000 0.000000
0.598623 1.038297 2.087756 0.000000 0.000000 0.000000
0.602894 1.044425 2.071658 0.000000 0.000000 0.000000
0.558010 1.029733 2.087046 0.000000 0.000000 0.000000
0.552006 1.030601 2.087295 0.000000 0.000000 0.000000
0.599592 1.047615 2.071264 0.000000 0.000000 0.000000
0.590681 1.035933 2.083564 0.000000 0.000000 0.000000
0.597613 1.047770 2.058504 0.000000 0.000000 0.000000
0.594363 1.064583 2.048602 0.000000 0.000000 0.000000
0.532677 1.084356 2.053614 0.000000 0.000000 0.000000
0.595841 1.038571 2.079414 0.000000 0.000000 0.000000
0.578784 1.081247 2.038015 0.000000 0.000000 0.000000
0.559487 1.107264 2.042247 0.000000 0.000000 0.000000
0.565361 1.101779 2.039970 0.000000 0.000000 0.000000
0.590257 1.066088 2.047175 0.000000 0.000000 0.000000
0.587343 1.038775 2.089966 0.000000 0.000000 0.000000
0.573224 1.035723 2.084310 0.000000 0.000000 0.000000
0.590015 1.040466 2.081999 0.000000 0.000000 0.000000
0.589798 1.031675 2.085819 0.000000 0.000000 0.000000
0.601621 1.035909 2.086943 0.000000 0.000000 0.000000
0.548459 1.080131 2.055869 0.000000 0.000000 0.000000
0.579336 1.028503 2.098227 0.000000 0.000000 0.000000
0.596943 1.031402 2.088016 0.000000 0.000000 0.000000
0.588356 1.034150 2.084356 0.000000 0.000000 0.000000
0.593225 1.034898 2.083370 0.000000 0.000000 0.000000
0.596000 1.033093 2.086033 0.000000 0.000000 0.000000
0.592738 1.031150 2.090217 0.000000 0.000000 0.000000
0.586486 1.024267 2.098181 0.000000 0.000000 0.000000
0.585426 1.024497 2.100621 0.000000 0.000000 0.000000
0.582392 1.029259 2.090784 0.000000 0.000000 0.000000
0.557845 1.084312 2.048960 0.000000 0.000000 0.000000
0.589220 1.038549 2.078240 0.000000 0.000000 0.000000
0.599442 1.042292 2.078546 0.000000 0.000000 0.000000
0.574152 1.027194 2.086773 0.000000 0.000000 0.000000
0.550608 1.043626 2.068546 0.000000 0.000000 0.000000
0.579257 1.029596 2.093825 0.000000 0.000000 0.000000
0.585601 1.058029 2.065182 0.000000 0.000000 0.000000
0.586672 1.035867 2.080423 0.000000 0.000000 0.000000
0.543106 1.051150 2.065269 0.000000 0.000000 0.000000
0.574204 1.028733 2.074552 0.000000 0.000000 0.000000
0.555501 1.052758 2.059595 0.000000 0.000000 0.000000
0.578673 1.021569 2.100025 0.000000 0.000000 0.000000
0.565464 1.101400 2.039586 0.000000 0.000000 0.000000
0.536770 1.043315 2.080758 0.000000 0.000000 0.000000
0.592763 1.042690 2.071596 0.000000 0.000000 0.000000
0.603555 1.042698 2.083495 0.000000 0.000000 0.000000
0.600080 1.046818 2.070853 0.000000 0.000000 0.000000
0.603655 1.035858 2.083291 0.000000 0.000000 0.000000
0.559473 1.096524 2.044705 0.000000 0.000000 0.000000
0.572136 1.097407 2.042367 0.000000 0.000000 0.000000
0.590789 1.029574 2.088676 0.000000 0.000000 0.000000
0.552041 1.099181 2.044423 0.000000 0.000000 0.000000
0.566589 1.093004 2.044695 0.000000 0.000000 0.000000
0.597430 1.057250 2.056105 0.000000 0.000000 0.000000
0.553781 1.096142 2.047199 0.000000 0.000000 0.000000
0.557176 1.108979 2.047874 0.000000 0.000000 0.000000
0.562509 1.098274 2.043629 0.000000 0.000000 0.000000
0.554139 1.100152 2.046420 0.000000 0.000000 0.000000
0.543166 1.097461 2.043198 0.000000 0.000000 0.000000
0.543813 1.093885 2.045779 0.000000 0.000000 0.000000
0.533825 1.058642 2.064488 0.000000 0.000000 0.000000
0.538572 1.053196 2.072141 0.000000 0.000000 0.000000
0.535691 1.055267 2.066951 0.000000 0.000000 0.000000
0.537450 1.044334 2.076725 0.000000 0.000000 0.000000
0.582929 1.031102 2.085258 0.000000 0.000000 0.000000
0.574377 1.026378 2.093956 0.000000 0.000000 0.000000
0.595570 1.028142 2.094178 0.000000 0.000000 0.000000
0.599788 1.030755 2.091278 0.000000 0.000000 0.000000
0.573162 1.030431 2.090851 0.000000 0.000000 0.000000
0.590905 1.027546 2.095159 0.000000 0.000000 0.000000
0.588432 1.025365 2.096946 0.000000 0.000000 0.000000
0.579541 1.023332 2.096869 0.000000 0.000000 0.000000
0.586035 1.025928 2.094500 0.000000 0.000000 0.000000
0.575264 1.017428 2.099981 0.000000 0.000000 0.000000
0.602119 1.028719 2.094324 0.000000 0.000000 0.000000
0.583090 1.029191 2.090890 0.000000 0.000000 0.000000
0.596762 1.032006 2.090671 0.000000 0.000000 0.000000
0.588429 1.029587 2.092602 0.000000 0.000000 0.000000
0.585428 1.063402 2.056392 0.000000 0.000000 0.000000
0.580789 1.028744 2.094129 0.000000 0.000000 0.000000
0.546182 1.101836 2.042084 0.000000 0.000000 0.000000
0.551562 1.107888 2.042202 0.000000 0.000000 0.000000
0.577329 1.026765 2.096673 0.000000 0.000000 0.000000
0.599995 1.037065 2.084657 0.000000 0.000000 0.000000
0.553103 1.038768 2.074214 0.000000 0.000000 0.000000
0.565676 1.036749 2.079260 0.000000 0.000000 0.000000
0.555562 1.031825 2.073652 0.000000 0.000000 0.000000
0.555472 1.046562 2.067476 0.000000 0.000000 0.000000
0.570203 1.039816 2.073964 0.000000 0.000000 0.000000
0.553051 1.039322 2.074297 0.000000 0.000000 0.000000
0.536116 1.047677 2.075602 0.000000 0.000000 0.000000
0.541082 1.085484 2.049470 0.000000 0.000000 0.000000
0.539885 1.092434 2.047270 0.000000 0.000000 0.000000
0.553944 1.085763 2.049407 0.000000 0.000000 0.000000
0.571835 1.030940 2.090538 0.000000 0.000000 0.000000
0.566373 1.051104 2.057286 0.000000 0.000000 0.000000
0.587188 1.060343 2.051620 0.000000 0.000000 0.000000
0.548275 1.072269 2.055212 0.000000 0.000000 0.000000
0.556291 1.085891 2.048617 0.000000 0.000000 0.000000
0.538587 1.092653 2.047797 0.000000 0.000000 0.000000
0.534058 1.062501 2.065316 0.000000 0.000000 0.000000
0.571842 1.071404 2.042097 0.000000 0.000000 0.000000
0.535488 1.086125 2.052082 0.000000 0.000000 0.000000
0.591777 1.056204 2.054866 0.000000 0.000000 0.000000
0.542529 1.085368 2.048442 0.000000 0.000000 0.000000
0.557469 1.074691 2.045910 0.000000 0.000000 0.000000
0.531554 1.076819 2.058697 0.000000 0.000000 0.000000
0.535565 1.066345 2.061223 0.000000 0.000000 0.000000
0.574579 1.075447 2.038655 0.000000 0.000000 0.000000
0.543287 1.074426 2.054254 0.000000 0.000000 0.000000
0.589453 1.023522 2.099558 0.000000 0.000000 0.000000
0.540336 1.097842 2.044506 0.000000 0.000000 0.000000
0.584640 1.066372 2.045980 0.000000 0.000000 0.000000
0.577346 1.068170 2.040892 0.000000 0.000000 0.000000
0.536611 1.042085 2.077263 0.000000 0.000000 0.000000
0.577823 1.055762 2.050914 0.000000 0.000000 0.000000
0.577213 1.059071 2.049818 0.000000 0.000000 0.000000
0.563556 1.064242 2.049516 0.000000 0.000000 0.000000
0.586315 1.064168 2.047408 0.000000 0.000000 0.000000
0.565303 1.073552 2.045833 0.000000 0.000000 0.000000
0.558975 1.034994 2.078176 0.000000 0.000000 0.000000
0.555284 1.039042 2.067252 0.000000 0.000000 0.000000
0.542228 1.058271 2.063293 0.000000 0.000000 0.000000
0.564787 1.046672 2.058665 0.000000 0.000000 0.000000
0.532712 1.056931 2.067028 0.000000 0.000000 0.000000
0.570175 1.084448 2.042001 0.000000 0.000000 0.000000
0.566791 1.093488 2.040693 0.000000 0.000000 0.000000
0.532790 1.053815 2.070890 0.000000 0.000000 0.000000
0.579386 1.059117 2.051702 0.000000 0.000000 0.000000
0.561269 1.046715 2.058791 0.000000 0.000000 0.000000
0.568431 1.046105 2.059636 0.000000 0.000000 0.000000
0.559614 1.039605 2.079705 0.000000 0.000000 0.000000
0.565213 1.037397 2.067771 0.000000 0.000000 0.000000
0.569906 1.045624 2.067562 0.000000 0.000000 0.000000
0.600010 1.049967 2.062388 0.000000 0.000000 0.000000
0.572728 1.025393 2.092769 0.000000 0.000000 0.000000
0.581144 1.054993 2.055537 0.000000 0.000000 0.000000
0.561508 1.053774 2.057132 0.000000 0.000000 0.000000
0.572688 1.039464 2.067461 0.000000 0.000000 0.000000
0.555703 1.038674 2.074486 0.000000 0.000000 0.000000
0.560218 1.039958 2.072604 0.000000 0.000000 0.000000
0.573878 1.039931 2.063822 0.000000 0.000000 0.000000
0.598710 1.048059 2.072110 0.000000 0.000000 0.000000
0.572284 1.050144 2.062317 0.000000 0.000000 0.000000
0.589755 1.066400 2.048419 0.000000 0.000000 0.000000
0.598732 1.065513 2.046559 0.000000 0.000000 0.000000
0.602507 1.032407 2.088792 0.000000 0.000000 0.000000
0.598243 1.037614 2.081812 0.000000 0.000000 0.000000
0.538165 1.085077 2.049314 0.000000 0.000000 0.000000
0.583358 1.058784 2.057624 0.000000 0.000000 0.000000
0.603917 1.048188 2.068396 0.000000 0.000000 0.000000
0.597108 1.044723 2.071238 0.000000 0.000000 0.000000
0.532723 1.096815 2.045548 0.000000 0.000000 0.000000
0.601999 1.052461 2.060374 0.000000 0.000000 0.000000
0.607790 1.038142 2.078583 0.000000 0.000000 0.000000
0.600590 1.055142 2.056181 0.000000 0.000000 0.000000
0.602367 1.043270 2.068282 0.000000 0.000000 0.000000
0.602225 1.051317 2.061726 0.000000 0.000000 0.000000
0.546832 1.041548 2.076011 0.000000 0.000000 0.000000
0.539823 1.047813 2.067627 0.000000 0.000000 0.000000
0.536987 1.050364 2.068951 0.000000 0.000000 0.000000
0.540082 1.046953 2.072784 0.000000 0.000000 0.000000
0.547872 1.088087 2.047976 0.000000 0.000000 0.000000
0.564669 1.049755 2.051810 0.000000 0.000000 0.000000
0.562434 1.054255 2.053849 0.000000 0.000000 0.000000
0.598507 1.058466 2.049605 0.000000 0.000000 0.000000
0.534395 1.077257 2.056764 0.000000 0.000000 0.000000
0.560652 1.049995 2.060059 0.000000 0.000000 0.000000
0.532844 1.048018 2.072331 0.000000 0.000000 0.000000
0.556017 1.061742 2.058927 0.000000 0.000000 0.000000
0.596557 1.057440 2.057776 0.000000 0.000000 0.000000
0.556619 1.056096 2.054607 0.000000 0.000000 0.000000
0.534457 1.080827 2.054612 0.000000 0.000000 0.000000
0.560372 1.054866 2.061771 0.000000 0.000000 0.000000
0.546477 1.038614 2.073588 0.000000 0.000000 0.000000
0.536933 1.067959 2.061392 0.000000 0.000000 0.000000
0.550528 1.067700 2.049973 0.000000 0.000000 0.000000
0.571874 1.089196 2.037544 0.000000 0.000000 0.000000
0.588724 1.073808 2.037147 0.000000 0.000000 0.000000
0.583859 1.075768 2.035505 0.000000 0.000000 0.000000
0.588610 1.068235 2.048181 0.000000 0.000000 0.000000
0.574662 1.080967 2.042160 0.000000 0.000000 0.000000
0.578690 1.074495 2.043014 0.000000 0.000000 0.000000
0.538452 1.101037 2.044583 0.000000 0.000000 0.000000
0.583979 1.067850 2.045116 0.000000 0.000000 0.000000
0.579708 1.078579 2.040338 0.000000 0.000000 0.000000
0.584044 1.075779 2.041182 0.000000 0.000000 0.000000
0.544528 1.096045 2.046082 0.000000 0.000000 0.000000
0.527781 1.077641 2.058482 0.000000 0.000000 0.000000
0.595589 1.050096 2.061021 0.000000 0.000000 0.000000
0.594240 1.056083 2.054386 0.000000 0.000000 0.000000
0.594342 1.071060 2.042824 0.000000 0.000000 0.000000
0.588062 1.065785 2.046210 0.000000 0.000000 0.000000
0.596907 1.059437 2.052464 0.000000 0.000000 0.000000
0.589583 1.057521 2.054724 0.000000 0.000000 0.000000
0.539581 1.097111 2.044105 0.000000 0.000000 0.000000
0.585866 1.026376 2.098195 0.000000 0.000000 0.000000
0.590884 1.065168 2.047570 0.000000 0.000000 0.000000
0.589191 1.058835 2.046516 0.000000 0.000000 0.000000
0.586901 1.060233 2.047956 0.000000 0.000000 0.000000
0.541715 1.098006 2.043118 0.000000 0.000000 0.000000
0.604520 1.054108 2.057092 0.000000 0.000000 0.000000
0.594784 1.060727 2.049109 0.000000 0.000000 0.000000
0.591561 1.065428 2.048807 0.000000 0.000000 0.000000
0.590779 1.031231 2.094902 0.000000 0.000000 0.000000
0.565226 1.074945 2.043825 0.000000 0.000000 0.000000
0.528410 1.080330 2.057137 0.000000 0.000000 0.000000
0.567717 1.081828 2.039816 0.000000 0.000000 0.000000
0.569992 1.092685 2.041554 0.000000 0.000000 0.000000
0.529436 1.076845 2.058169 0.000000 0.000000 0.000000
0.542205 1.044389 2.073493 0.000000 0.000000 0.000000
0.540645 1.046480 2.071265 0.000000 0.000000 0.000000
0.550461 1.043877 2.071027 0.000000 0.000000 0.000000
0.529790 1.073168 2.060961 0.000000 0.000000 0.000000
0.536018 1.095901 2.047352 0.000000 0.000000 0.000000
0.537339 1.095881 2.047305 0.000000 0.000000 0.000000
0.535304 1.098174 2.045617 0.000000 0.000000 0.000000
0.548209 1.101838 2.040614 0.000000 0.000000 0.000000
0.540584 1.098091 2.043384 0.000000 0.000000 0.000000
0.537477 1.099140 2.044723 0.000000 0.000000 0.000000
0.564076 1.020103 2.097039 0.000000 0.000000 0.000000
0.558714 1.025515 2.091515 0.000000 0.000000 0.000000
0.526809 1.063691 2.066401 0.000000 0.000000 0.000000
0.526389 1.060287 2.070181 0.000000 0.000000 0.000000
0.561305 1.107003 2.045985 0.000000 0.000000 0.000000
0.570007 1.094769 2.038538 0.000000 0.000000 0.000000
0.529881 1.090549 2.051940 0.000000 0.000000 0.000000
0.561421 1.108202 2.041675 0.000000 0.000000 0.000000
0.590956 1.020561 2.102804 0.000000 0.000000 0.000000
0.565934 1.100241 2.043629 0.000000 0.000000 0.000000
0.583637 1.018404 2.102249 0.000000 0.000000 0.000000
0.533807 1.095367 2.046068 0.000000 0.000000 0.000000
0.538086 1.086618 2.048981 0.000000 0.000000 0.000000
0.536024 1.092203 2.048950 0.000000 0.000000 0.000000
0.544039 1.038564 2.081971 0.000000 0.000000 0.000000
0.581912 1.071522 2.043867 0.000000 0.000000 0.000000
0.567732 1.097419 2.040161 0.000000 0.000000 0.000000
0.562621 1.105100 2.040363 0.000000 0.000000 0.000000
0.542197 1.100110 2.041219 0.000000 0.000000 0.000000
0.551343 1.101864 2.040406 0.000000 0.000000 0.000000
0.559924 1.107693 2.045340 0.000000 0.000000 0.000000
0.561089 1.104988 2.037596 0.000000 0.000000 0.000000
0.560134 1.107585 2.040916 0.000000 0.000000 0.000000
0.565252 1.055599 2.053006 0.000000 0.000000 0.000000
0.538772 1.095489 2.046203 0.000000 0.000000 0.000000
0.547985 1.101168 2.041663 0.000000 0.000000 0.000000
0.539955 1.095385 2.048115 0.000000 0.000000 0.000000
0.548094 1.058297 2.058236 0.000000 0.000000 0.000000
0.589196 1.071079 2.040607 0.000000 0.000000 0.000000
0.578513 1.075177 2.039378 0.000000 0.000000 0.000000
0.529526 1.055711 2.069104 0.000000 0.000000 0.000000
0.534338 1.055349 2.070066 0.000000 0.000000 0.000000
0.555415 1.083442 2.053523 0.000000 0.000000 0.000000
0.528754 1.077954 2.056012 0.000000 0.000000 0.000000
0.534831 1.083161 2.055617 0.000000 0.000000 0.000000
0.526759 1.072077 2.064026 0.000000 0.000000 0.000000
0.532200 1.093174 2.049429 0.000000 0.000000 0.000000
0.529227 1.078801 2.058662 0.000000 0.000000 0.000000
0.608923 1.045980 2.068195 0.000000 0.000000 0.000000
0.605159 1.046251 2.066453 0.000000 0.000000 0.000000
0.603979 1.043083 2.080900 0.000000 0.000000 0.000000
0.534611 1.079695 2.056285 0.000000 0.000000 0.000000
0.537598 1.079009 2.053643 0.000000 0.000000 0.000000
0.533572 1.082458 2.053632 0.000000 0.000000 0.000000
0.532752 1.086721 2.052356 0.000000 0.000000 0.000000
0.581452 1.034207 2.091548 0.000000 0.000000 0.000000
0.568299 1.050866 2.060560 0.000000 0.000000 0.000000
0.604447 1.043088 2.076123 0.000000 0.000000 0.000000
0.546286 1.086356 2.052340 0.000000 0.000000 0.000000
0.547571 1.085213 2.057374 0.000000 0.000000 0.000000
0.588096 1.039687 2.087725 0.000000 0.000000 0.000000
0.559574 1.043220 2.065146 0.000000 0.000000 0.000000
0.605989 1.035613 2.087304 0.000000 0.000000 0.000000
0.549441 1.074405 2.058360 0.000000 0.000000 0.000000
0.560325 1.099088 2.050185 0.000000 0.000000 0.000000
0.553685 1.029909 2.087879 0.000000 0.000000 0.000000
0.532581 1.065876 2.063487 0.000000 0.000000 0.000000
0.564164 1.026783 2.089292 0.000000 0.000000 0.000000
0.533780 1.046740 2.072301 0.000000 0.000000 0.000000
0.594077 1.024439 2.098220 0.000000 0.000000 0.000000
0.592753 1.029477 2.094885 0.000000 0.000000 0.000000
0.575398 1.077683 2.039111 0.000000 0.000000 0.000000
0.572794 1.086031 2.037345 0.000000 0.000000 0.000000
0.570369 1.092759 2.038360 0.000000 0.000000 0.000000
0.560703 1.077104 2.047158 0.000000 0.000000 0.000000
0.561796 1.074599 2.043679 0.000000 0.000000 0.000000
0.585609 1.072674 2.042109 0.000000 0.000000 0.000000
0.563482 1.081603 2.041502 0.000000 0.000000 0.000000
0.560041 1.105949 2.045806 0.000000 0.000000 0.000000
0.530185 1.063798 2.064786 0.000000 0.000000 0.000000
0.582256 1.027056 2.094862 0.000000 0.000000 0.000000
0.589855 1.025096 2.098598 0.000000 0.000000 0.000000
0.531108 1.076851 2.058421 0.000000 0.000000 0.000000
0.543663 1.088431 2.051692 0.000000 0.000000 0.000000
0.535396 1.057113 2.066549 0.000000 0.000000 0.000000
0.541042 1.075868 2.059123 0.000000 0.000000 0.000000
0.528783 1.065832 2.062937 0.000000 0.000000 0.000000
0.529337 1.055630 2.067211 0.000000 0.000000 0.000000
0.534732 1.052590 2.069070 0.000000 0.000000 0.000000
0.586465 1.070335 2.044927 0.000000 0.000000 0.000000
0.588491 1.067749 2.046624 0.000000 0.000000 0.000000
0.560200 1.110833 2.045175 0.000000 0.000000 0.000000
