ply
format ascii 1.0
comment VCGLIB generated
obj_info Generated by SPFormer!
element vertex 208
property float x
property float y
property float z
property float nx
property float ny
property float nz
end_header
1.000630 0.183854 1.696770 0.000000 0.000000 0.000000
1.001199 0.181827 1.683577 0.000000 0.000000 0.000000
1.002928 0.175237 1.692184 0.000000 0.000000 0.000000
1.001432 0.183064 1.693937 0.000000 0.000000 0.000000
1.008637 0.176395 1.686727 0.000000 0.000000 0.000000
1.003513 0.173358 1.685917 0.000000 0.000000 0.000000
1.009900 0.176070 1.694268 0.000000 0.000000 0.000000
1.006165 0.181670 1.699585 0.000000 0.000000 0.000000
1.011104 0.188560 1.680238 0.000000 0.000000 0.000000
1.004246 0.175800 1.688313 0.000000 0.000000 0.000000
1.002863 0.178726 1.692688 0.000000 0.000000 0.000000
1.009631 0.179294 1.687874 0.000000 0.000000 0.000000
1.079668 0.199092 1.522646 0.000000 0.000000 0.000000
1.078786 0.197545 1.525613 0.000000 0.000000 0.000000
1.075436 0.196911 1.546655 0.000000 0.000000 0.000000
1.077776 0.198533 1.530273 0.000000 0.000000 0.000000
1.068850 0.199641 1.540163 0.000000 0.000000 0.000000
1.078030 0.197618 1.528648 0.000000 0.000000 0.000000
1.077586 0.196765 1.542556 0.000000 0.000000 0.000000
1.499619 -0.452690 0.871435 0.000000 0.000000 0.000000
1.068732 0.482415 2.244129 0.000000 0.000000 0.000000
1.012546 0.160186 1.691412 0.000000 0.000000 0.000000
1.056662 0.167868 1.550065 0.000000 0.000000 0.000000
0.996606 0.162083 1.628021 0.000000 0.000000 0.000000
1.066898 0.167796 1.553727 0.000000 0.000000 0.000000
1.050828 0.168869 1.558910 0.000000 0.000000 0.000000
1.068127 0.167908 1.547701 0.000000 0.000000 0.000000
1.072065 0.174410 1.558111 0.000000 0.000000 0.000000
1.072681 0.165697 1.541855 0.000000 0.000000 0.000000
1.055126 0.161968 1.540254 0.000000 0.000000 0.000000
1.065571 0.174461 1.552713 0.000000 0.000000 0.000000
1.068096 0.173882 1.555994 0.000000 0.000000 0.000000
1.007912 0.164791 1.692589 0.000000 0.000000 0.000000
1.070803 0.165777 1.549971 0.000000 0.000000 0.000000
1.061637 0.165863 1.557954 0.000000 0.000000 0.000000
1.068887 0.172293 1.546240 0.000000 0.000000 0.000000
1.063257 0.172337 1.557691 0.000000 0.000000 0.000000
1.075014 0.170493 1.542609 0.000000 0.000000 0.000000
1.064735 0.165029 1.544013 0.000000 0.000000 0.000000
1.079624 0.164696 1.540743 0.000000 0.000000 0.000000
1.067868 0.170937 1.552345 0.000000 0.000000 0.000000
1.065470 0.172426 1.549036 0.000000 0.000000 0.000000
1.073916 0.169700 1.533432 0.000000 0.000000 0.000000
1.046218 0.169379 1.549602 0.000000 0.000000 0.000000
1.072628 0.169850 1.543431 0.000000 0.000000 0.000000
1.078575 0.165621 1.531998 0.000000 0.000000 0.000000
1.079988 0.164993 1.527652 0.000000 0.000000 0.000000
1.068925 0.174396 1.551958 0.000000 0.000000 0.000000
1.079884 0.166843 1.523070 0.000000 0.000000 0.000000
1.069327 0.161436 1.523101 0.000000 0.000000 0.000000
1.065503 0.167792 1.534084 0.000000 0.000000 0.000000
1.067212 0.172252 1.544290 0.000000 0.000000 0.000000
1.056342 0.177730 1.545382 0.000000 0.000000 0.000000
1.075499 0.170773 1.547872 0.000000 0.000000 0.000000
1.076092 0.163225 1.530761 0.000000 0.000000 0.000000
1.066155 0.169150 1.535871 0.000000 0.000000 0.000000
1.071648 0.163529 1.525917 0.000000 0.000000 0.000000
1.061769 0.162174 1.549073 0.000000 0.000000 0.000000
1.071574 0.176240 1.552138 0.000000 0.000000 0.000000
1.077546 0.169876 1.537486 0.000000 0.000000 0.000000
1.061283 0.171147 1.543011 0.000000 0.000000 0.000000
1.062222 0.177100 1.549722 0.000000 0.000000 0.000000
1.070903 0.170039 1.546013 0.000000 0.000000 0.000000
1.078669 0.167956 1.535067 0.000000 0.000000 0.000000
1.002188 0.167003 1.699944 0.000000 0.000000 0.000000
1.006815 0.172953 1.683640 0.000000 0.000000 0.000000
1.064501 0.162905 1.540479 0.000000 0.000000 0.000000
1.070144 0.170375 1.546158 0.000000 0.000000 0.000000
1.068049 0.162380 1.531136 0.000000 0.000000 0.000000
1.065881 0.164525 1.528300 0.000000 0.000000 0.000000
1.060674 0.165748 1.538794 0.000000 0.000000 0.000000
1.066250 0.163429 1.531420 0.000000 0.000000 0.000000
1.063000 0.162403 1.532504 0.000000 0.000000 0.000000
1.009859 0.169477 1.684801 0.000000 0.000000 0.000000
1.000228 0.167460 1.680579 0.000000 0.000000 0.000000
1.065300 0.176382 1.559088 0.000000 0.000000 0.000000
1.068115 0.170033 1.553698 0.000000 0.000000 0.000000
1.066177 0.175665 1.554512 0.000000 0.000000 0.000000
1.073168 0.161901 1.521614 0.000000 0.000000 0.000000
1.059885 0.173556 1.550645 0.000000 0.000000 0.000000
1.064673 0.176801 1.552838 0.000000 0.000000 0.000000
1.047997 0.166229 1.557742 0.000000 0.000000 0.000000
1.072829 0.168659 1.542393 0.000000 0.000000 0.000000
1.061284 0.163334 1.543818 0.000000 0.000000 0.000000
1.066517 0.175717 1.548369 0.000000 0.000000 0.000000
1.079837 0.167130 1.534080 0.000000 0.000000 0.000000
1.074286 0.164614 1.536769 0.000000 0.000000 0.000000
1.078849 0.166971 1.538063 0.000000 0.000000 0.000000
1.059821 0.166138 1.548949 0.000000 0.000000 0.000000
1.079548 0.169617 1.544001 0.000000 0.000000 0.000000
1.076838 0.170343 1.536896 0.000000 0.000000 0.000000
1.066234 0.172037 1.533734 0.000000 0.000000 0.000000
1.076687 0.170908 1.541919 0.000000 0.000000 0.000000
1.073308 0.171822 1.546974 0.000000 0.000000 0.000000
1.061243 0.163148 1.538644 0.000000 0.000000 0.000000
1.078853 0.168339 1.536019 0.000000 0.000000 0.000000
1.066996 0.174420 1.537057 0.000000 0.000000 0.000000
1.071889 0.165734 1.531036 0.000000 0.000000 0.000000
1.061770 0.169786 1.559264 0.000000 0.000000 0.000000
1.061256 0.177333 1.559310 0.000000 0.000000 0.000000
1.074318 0.167566 1.536284 0.000000 0.000000 0.000000
1.070449 0.164822 1.524950 0.000000 0.000000 0.000000
1.058392 0.170892 1.551161 0.000000 0.000000 0.000000
1.056704 0.171700 1.552587 0.000000 0.000000 0.000000
0.940109 0.229379 1.719049 0.000000 0.000000 0.000000
0.884319 0.257300 1.834483 0.000000 0.000000 0.000000
1.029088 0.207678 1.664200 0.000000 0.000000 0.000000
0.956377 0.219516 1.694636 0.000000 0.000000 0.000000
0.955106 0.234693 1.688405 0.000000 0.000000 0.000000
0.899890 0.241224 1.801202 0.000000 0.000000 0.000000
0.952643 0.227675 1.705134 0.000000 0.000000 0.000000
0.951948 0.228498 1.706872 0.000000 0.000000 0.000000
1.018273 0.215740 1.673379 0.000000 0.000000 0.000000
0.888306 0.267798 1.804980 0.000000 0.000000 0.000000
0.955722 0.204076 1.717389 0.000000 0.000000 0.000000
1.005591 0.209456 1.678587 0.000000 0.000000 0.000000
1.031938 0.210571 1.644069 0.000000 0.000000 0.000000
0.954806 0.211039 1.718688 0.000000 0.000000 0.000000
1.033293 0.212941 1.647018 0.000000 0.000000 0.000000
1.037941 0.225055 1.641433 0.000000 0.000000 0.000000
0.887842 0.247403 1.820073 0.000000 0.000000 0.000000
0.914049 0.243262 1.807946 0.000000 0.000000 0.000000
1.001918 0.226434 1.646491 0.000000 0.000000 0.000000
0.891172 0.273009 1.821593 0.000000 0.000000 0.000000
0.905901 0.242528 1.805123 0.000000 0.000000 0.000000
1.010251 0.228141 1.663279 0.000000 0.000000 0.000000
0.946918 0.213959 1.717002 0.000000 0.000000 0.000000
1.014518 0.201851 1.668272 0.000000 0.000000 0.000000
1.007621 0.207147 1.676512 0.000000 0.000000 0.000000
0.954648 0.221521 1.718275 0.000000 0.000000 0.000000
0.941382 0.238938 1.716853 0.000000 0.000000 0.000000
1.038989 0.214548 1.646372 0.000000 0.000000 0.000000
1.034072 0.204206 1.645116 0.000000 0.000000 0.000000
1.022547 0.230149 1.660620 0.000000 0.000000 0.000000
0.918163 0.263355 1.809371 0.000000 0.000000 0.000000
1.008891 0.237992 1.650293 0.000000 0.000000 0.000000
1.003565 0.215230 1.671425 0.000000 0.000000 0.000000
1.007007 0.228320 1.643351 0.000000 0.000000 0.000000
1.007569 0.210470 1.668639 0.000000 0.000000 0.000000
1.001418 0.223300 1.644117 0.000000 0.000000 0.000000
1.002343 0.219241 1.652646 0.000000 0.000000 0.000000
1.000195 0.227023 1.657077 0.000000 0.000000 0.000000
1.004041 0.236600 1.646049 0.000000 0.000000 0.000000
0.899026 0.242302 1.812480 0.000000 0.000000 0.000000
1.005342 0.221305 1.666298 0.000000 0.000000 0.000000
1.035761 0.208641 1.642377 0.000000 0.000000 0.000000
0.881836 0.244071 1.826957 0.000000 0.000000 0.000000
0.885455 0.250494 1.826813 0.000000 0.000000 0.000000
0.885863 0.249874 1.804519 0.000000 0.000000 0.000000
0.953346 0.209115 1.719362 0.000000 0.000000 0.000000
1.011310 0.222605 1.641192 0.000000 0.000000 0.000000
0.881675 0.248427 1.813997 0.000000 0.000000 0.000000
0.886573 0.257791 1.812039 0.000000 0.000000 0.000000
0.882134 0.251405 1.816567 0.000000 0.000000 0.000000
0.957853 0.206601 1.707862 0.000000 0.000000 0.000000
0.957683 0.207082 1.712983 0.000000 0.000000 0.000000
1.035423 0.223279 1.641330 0.000000 0.000000 0.000000
1.013032 0.208417 1.665490 0.000000 0.000000 0.000000
1.010624 0.211308 1.665995 0.000000 0.000000 0.000000
1.019896 0.210993 1.667799 0.000000 0.000000 0.000000
1.034693 0.221183 1.652596 0.000000 0.000000 0.000000
1.013657 0.210656 1.668471 0.000000 0.000000 0.000000
1.024476 0.204782 1.663296 0.000000 0.000000 0.000000
1.033401 0.228277 1.640067 0.000000 0.000000 0.000000
0.886031 0.243077 1.825766 0.000000 0.000000 0.000000
0.885395 0.246302 1.828318 0.000000 0.000000 0.000000
0.950493 0.207822 1.717731 0.000000 0.000000 0.000000
1.030197 0.201948 1.652508 0.000000 0.000000 0.000000
1.024770 0.207455 1.655051 0.000000 0.000000 0.000000
1.024953 0.212443 1.660514 0.000000 0.000000 0.000000
1.026525 0.215517 1.658093 0.000000 0.000000 0.000000
1.035694 0.214351 1.648878 0.000000 0.000000 0.000000
1.031301 0.201667 1.645689 0.000000 0.000000 0.000000
1.008883 0.215405 1.679457 0.000000 0.000000 0.000000
1.024117 0.210308 1.658002 0.000000 0.000000 0.000000
0.955800 0.209555 1.718339 0.000000 0.000000 0.000000
0.891925 0.249245 1.816280 0.000000 0.000000 0.000000
0.887159 0.245688 1.824467 0.000000 0.000000 0.000000
0.885876 0.244556 1.821965 0.000000 0.000000 0.000000
0.883368 0.251334 1.822064 0.000000 0.000000 0.000000
0.887913 0.243140 1.822386 0.000000 0.000000 0.000000
0.890561 0.244189 1.819967 0.000000 0.000000 0.000000
1.007198 0.205621 1.675851 0.000000 0.000000 0.000000
1.007735 0.209890 1.676221 0.000000 0.000000 0.000000
0.891287 0.244966 1.825352 0.000000 0.000000 0.000000
0.887077 0.241515 1.812462 0.000000 0.000000 0.000000
0.891353 0.240691 1.817621 0.000000 0.000000 0.000000
1.009896 0.222030 1.678959 0.000000 0.000000 0.000000
0.882441 0.251267 1.824466 0.000000 0.000000 0.000000
0.891356 0.242693 1.823923 0.000000 0.000000 0.000000
0.889307 0.243468 1.825325 0.000000 0.000000 0.000000
1.031775 0.218553 1.647152 0.000000 0.000000 0.000000
0.894947 0.241419 1.812502 0.000000 0.000000 0.000000
0.881424 0.248535 1.829088 0.000000 0.000000 0.000000
0.883036 0.250730 1.830979 0.000000 0.000000 0.000000
1.028403 0.219350 1.661896 0.000000 0.000000 0.000000
1.021709 0.209512 1.669524 0.000000 0.000000 0.000000
1.014531 0.221392 1.664835 0.000000 0.000000 0.000000
1.027604 0.213295 1.656479 0.000000 0.000000 0.000000
1.019361 0.216725 1.668008 0.000000 0.000000 0.000000
1.031398 0.216531 1.656623 0.000000 0.000000 0.000000
1.022741 0.227734 1.658724 0.000000 0.000000 0.000000
1.023214 0.212180 1.661267 0.000000 0.000000 0.000000
1.037154 0.202519 1.640345 0.000000 0.000000 0.000000
1.036222 0.201581 1.640318 0.000000 0.000000 0.000000
0.957721 0.203762 1.710610 0.000000 0.000000 0.000000
1.169528 -0.527973 1.007541 0.000000 0.000000 0.000000
1.309303 -0.559618 0.635041 0.000000 0.000000 0.000000
