ply
format ascii 1.0
comment VCGLIB generated
obj_info Generated by SPFormer!
element vertex 722
property float x
property float y
property float z
property float nx
property float ny
property float nz
end_header
0.750568 0.249478 2.041550 0.000000 0.000000 0.000000
0.712942 0.204749 2.024719 0.000000 0.000000 0.000000
0.716556 0.210241 2.028184 0.000000 0.000000 0.000000
0.716331 0.217618 2.031515 0.000000 0.000000 0.000000
0.721810 0.219645 2.030226 0.000000 0.000000 0.000000
0.724297 0.222787 2.026052 0.000000 0.000000 0.000000
0.713479 0.222785 2.019913 0.000000 0.000000 0.000000
0.737422 0.243808 2.042967 0.000000 0.000000 0.000000
0.736765 0.238325 2.037707 0.000000 0.000000 0.000000
0.712069 0.205802 2.023424 0.000000 0.000000 0.000000
0.728435 0.233629 2.037566 0.000000 0.000000 0.000000
0.710647 0.209859 2.026600 0.000000 0.000000 0.000000
0.722743 0.222452 2.033854 0.000000 0.000000 0.000000
0.759756 0.247760 2.036820 0.000000 0.000000 0.000000
0.736971 0.240974 2.032854 0.000000 0.000000 0.000000
0.714378 0.214417 2.024402 0.000000 0.000000 0.000000
0.738590 0.238663 2.039004 0.000000 0.000000 0.000000
0.723924 0.216531 2.024482 0.000000 0.000000 0.000000
0.714655 0.224473 2.017444 0.000000 0.000000 0.000000
0.737373 0.228043 2.027165 0.000000 0.000000 0.000000
0.756672 0.226851 2.032253 0.000000 0.000000 0.000000
0.710705 0.219919 2.022136 0.000000 0.000000 0.000000
0.756374 0.246153 2.030356 0.000000 0.000000 0.000000
0.731118 0.231024 2.025672 0.000000 0.000000 0.000000
0.716227 0.209733 2.025747 0.000000 0.000000 0.000000
0.738366 0.225282 2.024454 0.000000 0.000000 0.000000
0.755063 0.248913 2.031266 0.000000 0.000000 0.000000
0.734340 0.229639 2.030627 0.000000 0.000000 0.000000
0.716449 0.217911 2.026821 0.000000 0.000000 0.000000
0.709163 0.210344 2.014906 0.000000 0.000000 0.000000
0.749597 0.240395 2.051964 0.000000 0.000000 0.000000
0.715852 0.220140 2.032483 0.000000 0.000000 0.000000
0.712615 0.210922 2.025096 0.000000 0.000000 0.000000
0.738394 0.224585 2.032627 0.000000 0.000000 0.000000
0.732522 0.224082 2.024236 0.000000 0.000000 0.000000
0.719365 0.228120 2.021941 0.000000 0.000000 0.000000
0.713379 0.200940 2.019454 0.000000 0.000000 0.000000
0.714758 0.225322 2.017428 0.000000 0.000000 0.000000
0.714730 0.219016 2.014255 0.000000 0.000000 0.000000
0.722376 0.213375 2.028838 0.000000 0.000000 0.000000
0.712390 0.211241 2.019017 0.000000 0.000000 0.000000
0.748596 0.243244 2.051418 0.000000 0.000000 0.000000
0.712173 0.209803 2.028438 0.000000 0.000000 0.000000
0.757014 0.249212 2.044744 0.000000 0.000000 0.000000
0.730168 0.234897 2.023146 0.000000 0.000000 0.000000
0.716670 0.201875 2.022739 0.000000 0.000000 0.000000
0.746427 0.247281 2.052011 0.000000 0.000000 0.000000
0.744029 0.240075 2.036532 0.000000 0.000000 0.000000
0.723525 0.220618 2.020924 0.000000 0.000000 0.000000
0.753945 0.241423 2.027914 0.000000 0.000000 0.000000
0.754414 0.246314 2.031049 0.000000 0.000000 0.000000
0.714663 0.225136 2.024514 0.000000 0.000000 0.000000
0.715657 0.223709 2.014690 0.000000 0.000000 0.000000
0.711312 0.228192 2.023442 0.000000 0.000000 0.000000
0.751340 0.247680 2.036221 0.000000 0.000000 0.000000
0.757903 0.211560 2.023511 0.000000 0.000000 0.000000
0.741034 0.225072 2.031153 0.000000 0.000000 0.000000
0.735177 0.235013 2.034635 0.000000 0.000000 0.000000
0.749480 0.230264 2.032581 0.000000 0.000000 0.000000
0.759495 0.229507 2.029077 0.000000 0.000000 0.000000
0.732601 0.227039 2.031927 0.000000 0.000000 0.000000
0.756774 0.204036 2.039155 0.000000 0.000000 0.000000
0.709091 0.207836 2.021585 0.000000 0.000000 0.000000
0.713447 0.200104 2.021066 0.000000 0.000000 0.000000
0.734648 0.238911 2.029589 0.000000 0.000000 0.000000
0.751315 0.230124 2.033484 0.000000 0.000000 0.000000
0.742422 0.242381 2.032102 0.000000 0.000000 0.000000
0.720298 0.223627 2.015819 0.000000 0.000000 0.000000
0.751972 0.242180 2.049609 0.000000 0.000000 0.000000
0.756315 0.240813 2.051049 0.000000 0.000000 0.000000
0.751452 0.237574 2.035612 0.000000 0.000000 0.000000
0.729391 0.235003 2.037188 0.000000 0.000000 0.000000
0.711452 0.226864 2.012431 0.000000 0.000000 0.000000
0.754243 0.211903 2.039131 0.000000 0.000000 0.000000
0.744162 0.225821 2.029887 0.000000 0.000000 0.000000
0.709098 0.212443 2.015481 0.000000 0.000000 0.000000
0.748497 0.241168 2.047045 0.000000 0.000000 0.000000
0.715771 0.212867 2.024135 0.000000 0.000000 0.000000
0.757228 0.212495 2.012229 0.000000 0.000000 0.000000
0.708506 0.213027 2.015404 0.000000 0.000000 0.000000
0.738359 0.246291 2.021959 0.000000 0.000000 0.000000
0.747617 0.235492 2.024432 0.000000 0.000000 0.000000
0.752773 0.244626 2.031767 0.000000 0.000000 0.000000
0.748351 0.247325 2.029046 0.000000 0.000000 0.000000
0.745569 0.248530 2.025361 0.000000 0.000000 0.000000
0.712383 0.208436 2.020855 0.000000 0.000000 0.000000
0.743091 0.226972 2.032834 0.000000 0.000000 0.000000
0.717429 0.209165 2.023989 0.000000 0.000000 0.000000
0.753805 0.243079 2.050461 0.000000 0.000000 0.000000
0.734145 0.242529 2.044705 0.000000 0.000000 0.000000
0.711735 0.208379 2.026524 0.000000 0.000000 0.000000
0.744240 0.240338 2.047987 0.000000 0.000000 0.000000
0.742450 0.243996 2.050538 0.000000 0.000000 0.000000
0.747763 0.235839 2.039724 0.000000 0.000000 0.000000
0.720017 0.205064 2.027866 0.000000 0.000000 0.000000
0.710233 0.217714 2.021735 0.000000 0.000000 0.000000
0.719496 0.224997 2.014317 0.000000 0.000000 0.000000
0.716245 0.234743 2.021561 0.000000 0.000000 0.000000
0.710934 0.203008 2.021542 0.000000 0.000000 0.000000
0.707317 0.215904 2.019200 0.000000 0.000000 0.000000
0.723794 0.229361 2.024220 0.000000 0.000000 0.000000
0.717262 0.227119 2.015997 0.000000 0.000000 0.000000
0.745495 0.252216 2.036473 0.000000 0.000000 0.000000
0.739973 0.238492 2.031545 0.000000 0.000000 0.000000
0.746344 0.249267 2.055793 0.000000 0.000000 0.000000
0.729670 0.221904 2.026198 0.000000 0.000000 0.000000
0.711456 0.213135 2.018966 0.000000 0.000000 0.000000
0.704039 0.211585 2.011139 0.000000 0.000000 0.000000
0.710139 0.202525 2.019917 0.000000 0.000000 0.000000
0.712696 0.213264 2.023135 0.000000 0.000000 0.000000
0.704409 0.217110 2.013316 0.000000 0.000000 0.000000
0.714482 0.203474 2.020730 0.000000 0.000000 0.000000
0.723747 0.228977 2.016816 0.000000 0.000000 0.000000
0.714767 0.225937 2.018111 0.000000 0.000000 0.000000
0.708950 0.216022 2.019758 0.000000 0.000000 0.000000
0.733412 0.242065 2.022007 0.000000 0.000000 0.000000
0.738935 0.225718 2.030547 0.000000 0.000000 0.000000
0.727409 0.235465 2.020248 0.000000 0.000000 0.000000
0.740383 0.220934 2.034825 0.000000 0.000000 0.000000
0.709840 0.206702 2.018969 0.000000 0.000000 0.000000
0.723884 0.220903 2.012681 0.000000 0.000000 0.000000
0.706768 0.216899 2.020732 0.000000 0.000000 0.000000
0.742523 0.241768 2.052683 0.000000 0.000000 0.000000
0.737781 0.241934 2.041802 0.000000 0.000000 0.000000
0.714555 0.224904 2.020953 0.000000 0.000000 0.000000
0.710606 0.216462 2.015762 0.000000 0.000000 0.000000
0.716319 0.206400 2.023447 0.000000 0.000000 0.000000
0.738907 0.240435 2.028829 0.000000 0.000000 0.000000
0.724914 0.246023 2.021645 0.000000 0.000000 0.000000
0.708396 0.217634 2.011224 0.000000 0.000000 0.000000
0.707203 0.203970 2.017520 0.000000 0.000000 0.000000
0.707065 0.204988 2.016282 0.000000 0.000000 0.000000
0.715196 0.230495 2.020514 0.000000 0.000000 0.000000
0.737889 0.228216 2.022521 0.000000 0.000000 0.000000
0.745418 0.249255 2.022570 0.000000 0.000000 0.000000
0.722076 0.221363 2.025919 0.000000 0.000000 0.000000
0.745287 0.247323 2.029341 0.000000 0.000000 0.000000
0.734345 0.227853 2.024242 0.000000 0.000000 0.000000
0.739305 0.235431 2.029481 0.000000 0.000000 0.000000
0.750695 0.248118 2.024631 0.000000 0.000000 0.000000
0.757259 0.246144 2.027767 0.000000 0.000000 0.000000
0.754914 0.220151 2.034042 0.000000 0.000000 0.000000
0.734674 0.216589 2.020291 0.000000 0.000000 0.000000
0.734943 0.221345 2.027157 0.000000 0.000000 0.000000
0.711893 0.212801 2.023571 0.000000 0.000000 0.000000
0.757777 0.213579 2.018760 0.000000 0.000000 0.000000
0.700062 0.217183 2.017357 0.000000 0.000000 0.000000
0.706819 0.213340 2.023821 0.000000 0.000000 0.000000
0.735948 0.218929 2.028489 0.000000 0.000000 0.000000
0.734082 0.247397 2.050021 0.000000 0.000000 0.000000
0.749966 0.232320 2.037936 0.000000 0.000000 0.000000
0.710426 0.217371 2.014094 0.000000 0.000000 0.000000
0.720108 0.229443 2.016970 0.000000 0.000000 0.000000
0.710090 0.215951 2.016717 0.000000 0.000000 0.000000
0.734724 0.236330 2.021374 0.000000 0.000000 0.000000
0.736052 0.241971 2.049160 0.000000 0.000000 0.000000
0.740709 0.244424 2.052718 0.000000 0.000000 0.000000
0.751748 0.240363 2.053742 0.000000 0.000000 0.000000
0.745826 0.246813 2.059130 0.000000 0.000000 0.000000
0.743972 0.246302 2.049167 0.000000 0.000000 0.000000
0.716585 0.202524 2.026298 0.000000 0.000000 0.000000
0.759560 0.241191 2.025821 0.000000 0.000000 0.000000
0.755802 0.228656 2.028447 0.000000 0.000000 0.000000
0.721896 0.212158 2.029644 0.000000 0.000000 0.000000
0.753610 0.221142 2.028775 0.000000 0.000000 0.000000
0.742542 0.224110 2.031399 0.000000 0.000000 0.000000
0.749910 0.245265 2.024520 0.000000 0.000000 0.000000
0.737298 0.244643 2.026825 0.000000 0.000000 0.000000
0.726276 0.241220 2.021293 0.000000 0.000000 0.000000
0.736034 0.248856 2.051984 0.000000 0.000000 0.000000
0.737433 0.242614 2.054488 0.000000 0.000000 0.000000
0.757257 0.240993 2.050934 0.000000 0.000000 0.000000
0.751272 0.243929 2.051661 0.000000 0.000000 0.000000
0.707534 0.208011 2.016482 0.000000 0.000000 0.000000
0.700840 0.208456 2.012881 0.000000 0.000000 0.000000
0.742334 0.245542 2.054596 0.000000 0.000000 0.000000
0.733245 0.243178 2.055002 0.000000 0.000000 0.000000
0.749409 0.243525 2.054741 0.000000 0.000000 0.000000
0.721379 0.236277 2.016091 0.000000 0.000000 0.000000
0.745063 0.240688 2.042106 0.000000 0.000000 0.000000
0.712774 0.200860 2.022219 0.000000 0.000000 0.000000
0.707623 0.209391 2.016757 0.000000 0.000000 0.000000
0.747645 0.240802 2.052778 0.000000 0.000000 0.000000
0.741789 0.244729 2.043166 0.000000 0.000000 0.000000
0.750085 0.249890 2.051388 0.000000 0.000000 0.000000
0.741956 0.244417 2.058308 0.000000 0.000000 0.000000
0.707084 0.203499 2.015459 0.000000 0.000000 0.000000
0.705956 0.201292 2.015674 0.000000 0.000000 0.000000
0.709684 0.220067 2.018390 0.000000 0.000000 0.000000
0.759107 0.227417 2.005375 0.000000 0.000000 0.000000
0.709774 0.226845 2.019428 0.000000 0.000000 0.000000
0.710217 0.221890 2.024758 0.000000 0.000000 0.000000
0.709123 0.213494 2.025435 0.000000 0.000000 0.000000
0.711718 0.221228 2.014379 0.000000 0.000000 0.000000
0.710416 0.214268 2.012345 0.000000 0.000000 0.000000
0.705941 0.218270 2.023515 0.000000 0.000000 0.000000
0.707079 0.210149 2.017766 0.000000 0.000000 0.000000
0.706811 0.213585 2.016152 0.000000 0.000000 0.000000
0.714396 0.231518 2.020357 0.000000 0.000000 0.000000
0.710181 0.235163 2.019911 0.000000 0.000000 0.000000
0.710667 0.214597 2.017606 0.000000 0.000000 0.000000
0.710243 0.207464 2.019204 0.000000 0.000000 0.000000
0.728983 0.225814 2.019208 0.000000 0.000000 0.000000
0.708650 0.209587 2.024730 0.000000 0.000000 0.000000
0.731128 0.230989 2.020700 0.000000 0.000000 0.000000
0.716356 0.228736 2.021434 0.000000 0.000000 0.000000
0.711123 0.228525 2.016467 0.000000 0.000000 0.000000
0.722658 0.238955 2.023424 0.000000 0.000000 0.000000
0.720945 0.236040 2.021266 0.000000 0.000000 0.000000
0.730710 0.239014 2.026177 0.000000 0.000000 0.000000
0.715407 0.228462 2.021279 0.000000 0.000000 0.000000
0.718263 0.232810 2.020030 0.000000 0.000000 0.000000
0.731784 0.246270 2.022292 0.000000 0.000000 0.000000
0.729125 0.224408 2.015461 0.000000 0.000000 0.000000
0.731986 0.244205 2.025306 0.000000 0.000000 0.000000
0.742277 0.246607 2.028291 0.000000 0.000000 0.000000
0.713396 0.216617 2.012874 0.000000 0.000000 0.000000
0.718594 0.205430 2.026603 0.000000 0.000000 0.000000
0.693849 0.296285 2.079557 0.000000 0.000000 0.000000
0.718150 0.263014 2.056927 0.000000 0.000000 0.000000
0.730367 0.261103 2.051208 0.000000 0.000000 0.000000
0.719871 0.250431 2.051378 0.000000 0.000000 0.000000
0.723314 0.266653 2.056417 0.000000 0.000000 0.000000
0.708249 0.235377 2.039026 0.000000 0.000000 0.000000
0.717936 0.237622 2.041908 0.000000 0.000000 0.000000
0.722732 0.242532 2.044427 0.000000 0.000000 0.000000
0.685213 0.290130 2.075711 0.000000 0.000000 0.000000
0.719495 0.263483 2.057406 0.000000 0.000000 0.000000
0.712478 0.233689 2.037950 0.000000 0.000000 0.000000
0.717901 0.244723 2.044521 0.000000 0.000000 0.000000
0.715258 0.265938 2.057724 0.000000 0.000000 0.000000
0.719774 0.268176 2.057915 0.000000 0.000000 0.000000
0.691326 0.286281 2.076720 0.000000 0.000000 0.000000
0.729037 0.276254 2.059088 0.000000 0.000000 0.000000
0.713474 0.257847 2.054955 0.000000 0.000000 0.000000
0.712166 0.254020 2.059154 0.000000 0.000000 0.000000
0.710546 0.286289 2.073118 0.000000 0.000000 0.000000
0.725019 0.257390 2.052209 0.000000 0.000000 0.000000
0.707458 0.254284 2.055280 0.000000 0.000000 0.000000
0.707201 0.279202 2.071427 0.000000 0.000000 0.000000
0.722616 0.256156 2.051331 0.000000 0.000000 0.000000
0.732888 0.269677 2.052437 0.000000 0.000000 0.000000
0.708758 0.291378 2.075055 0.000000 0.000000 0.000000
0.690895 0.304194 2.086308 0.000000 0.000000 0.000000
0.719540 0.260596 2.052125 0.000000 0.000000 0.000000
0.717468 0.274252 2.065859 0.000000 0.000000 0.000000
0.698967 0.290601 2.078634 0.000000 0.000000 0.000000
0.694999 0.278649 2.074748 0.000000 0.000000 0.000000
0.719145 0.233843 2.034273 0.000000 0.000000 0.000000
0.704363 0.297487 2.083452 0.000000 0.000000 0.000000
0.705652 0.231123 2.037277 0.000000 0.000000 0.000000
0.732551 0.254050 2.046129 0.000000 0.000000 0.000000
0.717609 0.270215 2.061596 0.000000 0.000000 0.000000
0.722269 0.248536 2.048478 0.000000 0.000000 0.000000
0.700713 0.269048 2.064240 0.000000 0.000000 0.000000
0.714539 0.245153 2.048807 0.000000 0.000000 0.000000
0.714759 0.290478 2.073619 0.000000 0.000000 0.000000
0.691417 0.294145 2.081818 0.000000 0.000000 0.000000
0.698822 0.301371 2.080976 0.000000 0.000000 0.000000
0.685613 0.236411 2.040190 0.000000 0.000000 0.000000
0.729448 0.272480 2.051608 0.000000 0.000000 0.000000
0.683292 0.264044 2.056244 0.000000 0.000000 0.000000
0.721975 0.271039 2.058350 0.000000 0.000000 0.000000
0.692782 0.285348 2.078802 0.000000 0.000000 0.000000
0.687850 0.255482 2.051129 0.000000 0.000000 0.000000
0.715353 0.246230 2.050458 0.000000 0.000000 0.000000
0.683456 0.283736 2.070679 0.000000 0.000000 0.000000
0.716337 0.226836 2.026902 0.000000 0.000000 0.000000
0.715219 0.288943 2.070216 0.000000 0.000000 0.000000
0.712611 0.228962 2.026421 0.000000 0.000000 0.000000
0.707047 0.296128 2.082579 0.000000 0.000000 0.000000
0.731898 0.241026 2.037071 0.000000 0.000000 0.000000
0.714936 0.254825 2.055788 0.000000 0.000000 0.000000
0.728819 0.247831 2.044096 0.000000 0.000000 0.000000
0.726258 0.280912 2.059453 0.000000 0.000000 0.000000
0.712302 0.227017 2.032526 0.000000 0.000000 0.000000
0.693266 0.227312 2.026508 0.000000 0.000000 0.000000
0.691952 0.230554 2.032888 0.000000 0.000000 0.000000
0.724514 0.241101 2.040132 0.000000 0.000000 0.000000
0.715921 0.255566 2.053687 0.000000 0.000000 0.000000
0.703952 0.293602 2.079222 0.000000 0.000000 0.000000
0.734025 0.252825 2.042767 0.000000 0.000000 0.000000
0.730210 0.238012 2.032121 0.000000 0.000000 0.000000
0.691305 0.238778 2.043439 0.000000 0.000000 0.000000
0.724302 0.265902 2.055671 0.000000 0.000000 0.000000
0.717052 0.225476 2.036122 0.000000 0.000000 0.000000
0.702722 0.247295 2.051493 0.000000 0.000000 0.000000
0.733823 0.254132 2.047646 0.000000 0.000000 0.000000
0.685203 0.266932 2.060420 0.000000 0.000000 0.000000
0.701755 0.295291 2.080732 0.000000 0.000000 0.000000
0.696259 0.249134 2.052116 0.000000 0.000000 0.000000
0.704228 0.217764 2.031169 0.000000 0.000000 0.000000
0.679111 0.248004 2.050456 0.000000 0.000000 0.000000
0.705962 0.288256 2.081039 0.000000 0.000000 0.000000
0.696488 0.234905 2.039705 0.000000 0.000000 0.000000
0.695918 0.240887 2.046215 0.000000 0.000000 0.000000
0.700301 0.285549 2.076733 0.000000 0.000000 0.000000
0.709408 0.248017 2.051443 0.000000 0.000000 0.000000
0.715367 0.239782 2.047035 0.000000 0.000000 0.000000
0.700957 0.291579 2.078772 0.000000 0.000000 0.000000
0.726244 0.254055 2.052970 0.000000 0.000000 0.000000
0.722423 0.230707 2.034881 0.000000 0.000000 0.000000
0.704284 0.243089 2.048745 0.000000 0.000000 0.000000
0.687826 0.225588 2.031543 0.000000 0.000000 0.000000
0.724533 0.247810 2.045778 0.000000 0.000000 0.000000
0.707235 0.271452 2.066808 0.000000 0.000000 0.000000
0.688254 0.258669 2.058305 0.000000 0.000000 0.000000
0.697439 0.239083 2.044003 0.000000 0.000000 0.000000
0.711001 0.230080 2.039458 0.000000 0.000000 0.000000
0.716314 0.236434 2.025594 0.000000 0.000000 0.000000
0.689824 0.291683 2.078220 0.000000 0.000000 0.000000
0.683025 0.262225 2.056470 0.000000 0.000000 0.000000
0.725452 0.267856 2.056170 0.000000 0.000000 0.000000
0.683903 0.281680 2.069216 0.000000 0.000000 0.000000
0.698669 0.246610 2.050456 0.000000 0.000000 0.000000
0.707720 0.296254 2.079741 0.000000 0.000000 0.000000
0.697597 0.296658 2.079449 0.000000 0.000000 0.000000
0.700862 0.276937 2.083169 0.000000 0.000000 0.000000
0.699382 0.286214 2.074585 0.000000 0.000000 0.000000
0.715821 0.243501 2.045741 0.000000 0.000000 0.000000
0.709169 0.297236 2.077039 0.000000 0.000000 0.000000
0.682099 0.264634 2.066745 0.000000 0.000000 0.000000
0.697296 0.226866 2.034934 0.000000 0.000000 0.000000
0.694515 0.291668 2.079325 0.000000 0.000000 0.000000
0.695673 0.264326 2.060115 0.000000 0.000000 0.000000
0.702244 0.234097 2.039920 0.000000 0.000000 0.000000
0.688868 0.247971 2.049963 0.000000 0.000000 0.000000
0.719292 0.273635 2.056478 0.000000 0.000000 0.000000
0.723489 0.237962 2.036008 0.000000 0.000000 0.000000
0.708767 0.278535 2.070171 0.000000 0.000000 0.000000
0.703675 0.225060 2.029348 0.000000 0.000000 0.000000
0.685928 0.236996 2.041325 0.000000 0.000000 0.000000
0.710925 0.251440 2.052522 0.000000 0.000000 0.000000
0.680089 0.267694 2.056900 0.000000 0.000000 0.000000
0.688641 0.270147 2.063527 0.000000 0.000000 0.000000
0.708236 0.289513 2.074601 0.000000 0.000000 0.000000
0.680172 0.273604 2.061533 0.000000 0.000000 0.000000
0.720384 0.293824 2.075522 0.000000 0.000000 0.000000
0.730441 0.248353 2.030913 0.000000 0.000000 0.000000
0.687275 0.247848 2.047648 0.000000 0.000000 0.000000
0.692395 0.238163 2.046715 0.000000 0.000000 0.000000
0.718487 0.283481 2.068389 0.000000 0.000000 0.000000
0.684315 0.282233 2.070050 0.000000 0.000000 0.000000
0.697680 0.292549 2.083469 0.000000 0.000000 0.000000
0.720498 0.277870 2.064017 0.000000 0.000000 0.000000
0.706971 0.227703 2.037122 0.000000 0.000000 0.000000
0.704675 0.291858 2.077685 0.000000 0.000000 0.000000
0.699332 0.267510 2.067644 0.000000 0.000000 0.000000
0.709942 0.214320 2.029685 0.000000 0.000000 0.000000
0.699927 0.234415 2.039905 0.000000 0.000000 0.000000
0.701556 0.219880 2.030087 0.000000 0.000000 0.000000
0.679106 0.247544 2.046845 0.000000 0.000000 0.000000
0.739834 0.267214 2.046045 0.000000 0.000000 0.000000
0.705807 0.219722 2.035824 0.000000 0.000000 0.000000
0.701513 0.299818 2.082482 0.000000 0.000000 0.000000
0.681946 0.243014 2.045807 0.000000 0.000000 0.000000
0.712199 0.228688 2.037527 0.000000 0.000000 0.000000
0.680465 0.254729 2.051051 0.000000 0.000000 0.000000
0.708107 0.285621 2.074195 0.000000 0.000000 0.000000
0.695566 0.284161 2.073013 0.000000 0.000000 0.000000
0.685169 0.241218 2.042947 0.000000 0.000000 0.000000
0.680871 0.277555 2.064823 0.000000 0.000000 0.000000
0.702834 0.276885 2.070717 0.000000 0.000000 0.000000
0.708776 0.234809 2.044886 0.000000 0.000000 0.000000
0.706035 0.223529 2.033833 0.000000 0.000000 0.000000
0.711139 0.220210 2.033229 0.000000 0.000000 0.000000
0.704407 0.299981 2.083786 0.000000 0.000000 0.000000
0.724533 0.281858 2.063648 0.000000 0.000000 0.000000
0.693911 0.301597 2.083856 0.000000 0.000000 0.000000
0.709166 0.291762 2.074653 0.000000 0.000000 0.000000
0.699225 0.299810 2.087558 0.000000 0.000000 0.000000
0.712517 0.302419 2.074280 0.000000 0.000000 0.000000
0.703045 0.279957 2.070474 0.000000 0.000000 0.000000
0.689486 0.273153 2.065111 0.000000 0.000000 0.000000
0.684987 0.260296 2.057014 0.000000 0.000000 0.000000
0.711195 0.219439 2.029234 0.000000 0.000000 0.000000
0.698553 0.279085 2.073360 0.000000 0.000000 0.000000
0.682513 0.286584 2.070453 0.000000 0.000000 0.000000
0.697219 0.251160 2.051688 0.000000 0.000000 0.000000
0.702688 0.297505 2.085545 0.000000 0.000000 0.000000
0.696186 0.299007 2.079246 0.000000 0.000000 0.000000
0.698383 0.222731 2.030931 0.000000 0.000000 0.000000
0.710431 0.277503 2.068685 0.000000 0.000000 0.000000
0.725334 0.235341 2.037004 0.000000 0.000000 0.000000
0.710988 0.286433 2.072642 0.000000 0.000000 0.000000
0.693795 0.256660 2.055539 0.000000 0.000000 0.000000
0.695107 0.271404 2.066391 0.000000 0.000000 0.000000
0.705967 0.266216 2.062972 0.000000 0.000000 0.000000
0.693897 0.298689 2.085994 0.000000 0.000000 0.000000
0.686059 0.259765 2.053600 0.000000 0.000000 0.000000
0.720405 0.288835 2.071505 0.000000 0.000000 0.000000
0.686342 0.279129 2.066045 0.000000 0.000000 0.000000
0.694437 0.283307 2.071126 0.000000 0.000000 0.000000
0.734512 0.259343 2.048275 0.000000 0.000000 0.000000
0.701269 0.271469 2.067807 0.000000 0.000000 0.000000
0.706168 0.261849 2.069343 0.000000 0.000000 0.000000
0.716709 0.283027 2.068767 0.000000 0.000000 0.000000
0.699745 0.264060 2.062113 0.000000 0.000000 0.000000
0.696971 0.299287 2.080827 0.000000 0.000000 0.000000
0.693510 0.288374 2.082397 0.000000 0.000000 0.000000
0.694130 0.284073 2.073044 0.000000 0.000000 0.000000
0.728000 0.272178 2.057950 0.000000 0.000000 0.000000
0.678900 0.274417 2.059476 0.000000 0.000000 0.000000
0.709226 0.266947 2.060700 0.000000 0.000000 0.000000
0.709201 0.260552 2.057244 0.000000 0.000000 0.000000
0.686560 0.233266 2.034061 0.000000 0.000000 0.000000
0.689550 0.254923 2.053310 0.000000 0.000000 0.000000
0.677833 0.261956 2.055326 0.000000 0.000000 0.000000
0.684875 0.234262 2.038248 0.000000 0.000000 0.000000
0.711911 0.236001 2.044765 0.000000 0.000000 0.000000
0.728078 0.284862 2.063889 0.000000 0.000000 0.000000
0.694508 0.277833 2.070140 0.000000 0.000000 0.000000
0.681705 0.282567 2.069494 0.000000 0.000000 0.000000
0.713804 0.300378 2.080570 0.000000 0.000000 0.000000
0.693105 0.261952 2.060591 0.000000 0.000000 0.000000
0.681619 0.252246 2.056171 0.000000 0.000000 0.000000
0.712761 0.296960 2.077891 0.000000 0.000000 0.000000
0.725517 0.269904 2.057737 0.000000 0.000000 0.000000
0.715653 0.289890 2.072531 0.000000 0.000000 0.000000
0.692672 0.281568 2.072319 0.000000 0.000000 0.000000
0.676541 0.246193 2.045896 0.000000 0.000000 0.000000
0.679482 0.263032 2.053797 0.000000 0.000000 0.000000
0.686259 0.285232 2.076255 0.000000 0.000000 0.000000
0.684635 0.258384 2.060782 0.000000 0.000000 0.000000
0.732330 0.262987 2.050746 0.000000 0.000000 0.000000
0.716748 0.277538 2.069913 0.000000 0.000000 0.000000
0.723680 0.292315 2.066133 0.000000 0.000000 0.000000
0.727592 0.264864 2.056112 0.000000 0.000000 0.000000
0.702709 0.260995 2.061456 0.000000 0.000000 0.000000
0.710969 0.298983 2.076428 0.000000 0.000000 0.000000
0.728408 0.242993 2.047121 0.000000 0.000000 0.000000
0.705206 0.273133 2.070184 0.000000 0.000000 0.000000
0.690839 0.261339 2.058575 0.000000 0.000000 0.000000
0.696065 0.286153 2.075221 0.000000 0.000000 0.000000
0.711275 0.282950 2.071714 0.000000 0.000000 0.000000
0.688360 0.279813 2.068679 0.000000 0.000000 0.000000
0.681059 0.280803 2.068789 0.000000 0.000000 0.000000
0.679952 0.247706 2.047898 0.000000 0.000000 0.000000
0.690097 0.290399 2.076984 0.000000 0.000000 0.000000
0.693418 0.283481 2.072805 0.000000 0.000000 0.000000
0.687706 0.296124 2.077290 0.000000 0.000000 0.000000
0.693216 0.292907 2.081379 0.000000 0.000000 0.000000
0.695206 0.247621 2.050755 0.000000 0.000000 0.000000
0.699515 0.252847 2.053038 0.000000 0.000000 0.000000
0.690415 0.242389 2.045109 0.000000 0.000000 0.000000
0.695980 0.272517 2.067260 0.000000 0.000000 0.000000
0.717850 0.291596 2.072128 0.000000 0.000000 0.000000
0.689163 0.237620 2.039310 0.000000 0.000000 0.000000
0.694719 0.248245 2.051466 0.000000 0.000000 0.000000
0.694900 0.246630 2.049010 0.000000 0.000000 0.000000
0.689856 0.264685 2.060248 0.000000 0.000000 0.000000
0.685504 0.258875 2.054813 0.000000 0.000000 0.000000
0.710578 0.245083 2.049076 0.000000 0.000000 0.000000
0.679752 0.250535 2.048291 0.000000 0.000000 0.000000
0.695526 0.266254 2.063067 0.000000 0.000000 0.000000
0.683593 0.280892 2.068560 0.000000 0.000000 0.000000
0.695734 0.269132 2.064976 0.000000 0.000000 0.000000
0.693420 0.234788 2.039906 0.000000 0.000000 0.000000
0.687570 0.290792 2.072433 0.000000 0.000000 0.000000
0.718579 0.236581 2.027440 0.000000 0.000000 0.000000
0.712850 0.285709 2.072211 0.000000 0.000000 0.000000
0.699167 0.259001 2.060168 0.000000 0.000000 0.000000
0.684538 0.262470 2.056954 0.000000 0.000000 0.000000
0.691051 0.266824 2.061724 0.000000 0.000000 0.000000
0.722742 0.239360 2.037225 0.000000 0.000000 0.000000
0.707757 0.260822 2.061124 0.000000 0.000000 0.000000
0.698582 0.266296 2.063328 0.000000 0.000000 0.000000
0.688509 0.267930 2.061754 0.000000 0.000000 0.000000
0.701071 0.238630 2.044399 0.000000 0.000000 0.000000
0.687433 0.244132 2.046770 0.000000 0.000000 0.000000
0.683080 0.256079 2.051045 0.000000 0.000000 0.000000
0.684874 0.236834 2.040530 0.000000 0.000000 0.000000
0.690952 0.251537 2.051360 0.000000 0.000000 0.000000
0.689007 0.232149 2.032413 0.000000 0.000000 0.000000
0.695867 0.232354 2.045283 0.000000 0.000000 0.000000
0.702551 0.231851 2.038921 0.000000 0.000000 0.000000
0.676276 0.270627 2.057715 0.000000 0.000000 0.000000
0.692645 0.228690 2.034149 0.000000 0.000000 0.000000
0.700060 0.221309 2.030574 0.000000 0.000000 0.000000
0.691892 0.298094 2.081756 0.000000 0.000000 0.000000
0.694282 0.232969 2.038996 0.000000 0.000000 0.000000
0.703233 0.247845 2.044080 0.000000 0.000000 0.000000
0.690196 0.237199 2.040834 0.000000 0.000000 0.000000
0.692276 0.227348 2.032902 0.000000 0.000000 0.000000
0.690401 0.227568 2.035364 0.000000 0.000000 0.000000
0.695289 0.238941 2.042080 0.000000 0.000000 0.000000
0.686882 0.235114 2.037583 0.000000 0.000000 0.000000
0.690040 0.236270 2.040221 0.000000 0.000000 0.000000
0.694656 0.236217 2.040760 0.000000 0.000000 0.000000
0.693231 0.228990 2.030808 0.000000 0.000000 0.000000
0.677939 0.248296 2.047900 0.000000 0.000000 0.000000
0.743795 0.266797 2.041429 0.000000 0.000000 0.000000
0.681464 0.253632 2.049341 0.000000 0.000000 0.000000
0.737340 0.269612 2.051246 0.000000 0.000000 0.000000
0.740220 0.253503 2.040809 0.000000 0.000000 0.000000
0.681387 0.250961 2.049459 0.000000 0.000000 0.000000
0.705617 0.243362 2.046822 0.000000 0.000000 0.000000
0.683131 0.239427 2.040949 0.000000 0.000000 0.000000
0.738509 0.261643 2.045268 0.000000 0.000000 0.000000
0.732755 0.260510 2.048003 0.000000 0.000000 0.000000
0.689925 0.233178 2.038412 0.000000 0.000000 0.000000
0.678216 0.254907 2.050427 0.000000 0.000000 0.000000
0.708782 0.301550 2.085196 0.000000 0.000000 0.000000
0.685672 0.280963 2.068894 0.000000 0.000000 0.000000
0.728724 0.283675 2.066095 0.000000 0.000000 0.000000
0.709046 0.300555 2.084016 0.000000 0.000000 0.000000
0.688038 0.292830 2.083541 0.000000 0.000000 0.000000
0.697154 0.300679 2.087341 0.000000 0.000000 0.000000
0.690872 0.302028 2.086445 0.000000 0.000000 0.000000
0.717693 0.292735 2.071972 0.000000 0.000000 0.000000
0.696407 0.238376 2.041859 0.000000 0.000000 0.000000
0.706278 0.298837 2.086062 0.000000 0.000000 0.000000
0.693240 0.271996 2.069000 0.000000 0.000000 0.000000
0.687074 0.294891 2.081944 0.000000 0.000000 0.000000
0.685530 0.293213 2.080156 0.000000 0.000000 0.000000
0.680541 0.243256 2.044254 0.000000 0.000000 0.000000
0.694003 0.299675 2.080947 0.000000 0.000000 0.000000
0.694768 0.297024 2.082021 0.000000 0.000000 0.000000
0.691422 0.288709 2.073496 0.000000 0.000000 0.000000
0.698519 0.295653 2.081725 0.000000 0.000000 0.000000
0.705400 0.298996 2.086643 0.000000 0.000000 0.000000
0.694736 0.300281 2.084457 0.000000 0.000000 0.000000
0.689274 0.298379 2.080782 0.000000 0.000000 0.000000
0.679141 0.269707 2.057819 0.000000 0.000000 0.000000
0.688439 0.293517 2.078597 0.000000 0.000000 0.000000
0.690100 0.295556 2.079982 0.000000 0.000000 0.000000
0.693293 0.284144 2.069903 0.000000 0.000000 0.000000
0.692835 0.300929 2.086273 0.000000 0.000000 0.000000
0.679932 0.285565 2.072066 0.000000 0.000000 0.000000
0.686147 0.290978 2.080656 0.000000 0.000000 0.000000
0.682836 0.287742 2.072870 0.000000 0.000000 0.000000
0.688175 0.296091 2.080602 0.000000 0.000000 0.000000
0.675509 0.250944 2.047673 0.000000 0.000000 0.000000
0.718770 0.296585 2.077766 0.000000 0.000000 0.000000
0.733783 0.268749 2.051878 0.000000 0.000000 0.000000
0.734096 0.267509 2.051325 0.000000 0.000000 0.000000
0.699033 0.301724 2.086542 0.000000 0.000000 0.000000
0.691755 0.273865 2.065930 0.000000 0.000000 0.000000
0.739098 0.273027 2.054101 0.000000 0.000000 0.000000
0.683465 0.240114 2.042829 0.000000 0.000000 0.000000
0.683203 0.239950 2.043106 0.000000 0.000000 0.000000
0.676302 0.258091 2.050194 0.000000 0.000000 0.000000
0.677710 0.253906 2.048117 0.000000 0.000000 0.000000
0.680530 0.257812 2.053857 0.000000 0.000000 0.000000
0.739462 0.273677 2.051217 0.000000 0.000000 0.000000
0.684586 0.288390 2.073871 0.000000 0.000000 0.000000
0.694516 0.286619 2.074753 0.000000 0.000000 0.000000
0.685073 0.293844 2.076495 0.000000 0.000000 0.000000
0.691838 0.296259 2.083021 0.000000 0.000000 0.000000
0.679085 0.267857 2.058074 0.000000 0.000000 0.000000
0.699547 0.297944 2.076448 0.000000 0.000000 0.000000
0.704895 0.251872 2.055694 0.000000 0.000000 0.000000
0.698532 0.225687 2.033321 0.000000 0.000000 0.000000
0.712664 0.297489 2.078298 0.000000 0.000000 0.000000
0.717207 0.292648 2.074955 0.000000 0.000000 0.000000
0.695183 0.301023 2.087135 0.000000 0.000000 0.000000
0.694419 0.304280 2.088918 0.000000 0.000000 0.000000
0.677200 0.267390 2.047419 0.000000 0.000000 0.000000
0.719537 0.242910 2.025140 0.000000 0.000000 0.000000
0.676192 0.283829 2.064344 0.000000 0.000000 0.000000
0.711917 0.298166 2.079117 0.000000 0.000000 0.000000
0.720968 0.280561 2.064760 0.000000 0.000000 0.000000
0.726341 0.283502 2.063439 0.000000 0.000000 0.000000
0.713573 0.262845 2.059130 0.000000 0.000000 0.000000
0.724248 0.289667 2.072586 0.000000 0.000000 0.000000
0.704274 0.286006 2.075782 0.000000 0.000000 0.000000
0.724241 0.291835 2.071491 0.000000 0.000000 0.000000
0.714703 0.271287 2.063608 0.000000 0.000000 0.000000
0.679798 0.291327 2.068469 0.000000 0.000000 0.000000
0.702925 0.220971 2.030822 0.000000 0.000000 0.000000
0.701835 0.225661 2.034955 0.000000 0.000000 0.000000
0.707748 0.218221 2.032261 0.000000 0.000000 0.000000
0.680082 0.235392 2.035385 0.000000 0.000000 0.000000
0.719426 0.234348 2.039188 0.000000 0.000000 0.000000
0.702010 0.219945 2.033287 0.000000 0.000000 0.000000
0.696246 0.293515 2.080372 0.000000 0.000000 0.000000
0.693801 0.301222 2.087212 0.000000 0.000000 0.000000
0.715543 0.296571 2.080214 0.000000 0.000000 0.000000
0.730016 0.284196 2.059511 0.000000 0.000000 0.000000
0.681751 0.281949 2.069172 0.000000 0.000000 0.000000
0.689879 0.292905 2.079383 0.000000 0.000000 0.000000
0.689023 0.277376 2.067152 0.000000 0.000000 0.000000
0.728382 0.274431 2.056054 0.000000 0.000000 0.000000
0.685678 0.294394 2.075848 0.000000 0.000000 0.000000
0.725184 0.246077 2.048048 0.000000 0.000000 0.000000
0.694938 0.301070 2.085977 0.000000 0.000000 0.000000
0.691064 0.300033 2.083744 0.000000 0.000000 0.000000
0.727150 0.238551 2.028271 0.000000 0.000000 0.000000
0.729011 0.272713 2.047050 0.000000 0.000000 0.000000
0.738206 0.271339 2.051700 0.000000 0.000000 0.000000
0.738445 0.270738 2.054229 0.000000 0.000000 0.000000
0.729766 0.279866 2.058737 0.000000 0.000000 0.000000
0.736082 0.268688 2.050359 0.000000 0.000000 0.000000
0.734540 0.275108 2.057600 0.000000 0.000000 0.000000
0.739772 0.266400 2.051727 0.000000 0.000000 0.000000
0.722800 0.275434 2.059598 0.000000 0.000000 0.000000
0.740081 0.267046 2.048326 0.000000 0.000000 0.000000
0.732593 0.282242 2.064076 0.000000 0.000000 0.000000
0.687377 0.275479 2.068313 0.000000 0.000000 0.000000
0.674292 0.269844 2.055476 0.000000 0.000000 0.000000
0.721388 0.270418 2.059108 0.000000 0.000000 0.000000
0.685110 0.238443 2.039986 0.000000 0.000000 0.000000
0.684721 0.300462 2.086002 0.000000 0.000000 0.000000
0.722468 0.294557 2.074904 0.000000 0.000000 0.000000
0.714212 0.300204 2.081189 0.000000 0.000000 0.000000
0.687998 0.288868 2.076736 0.000000 0.000000 0.000000
0.689317 0.297147 2.082174 0.000000 0.000000 0.000000
0.680425 0.290080 2.078864 0.000000 0.000000 0.000000
0.695057 0.295728 2.075724 0.000000 0.000000 0.000000
0.687857 0.295508 2.080365 0.000000 0.000000 0.000000
0.687970 0.281090 2.065473 0.000000 0.000000 0.000000
0.679539 0.276327 2.062521 0.000000 0.000000 0.000000
0.684383 0.276305 2.065854 0.000000 0.000000 0.000000
0.697468 0.301645 2.088977 0.000000 0.000000 0.000000
0.697349 0.294902 2.083898 0.000000 0.000000 0.000000
0.697042 0.302840 2.087937 0.000000 0.000000 0.000000
0.694180 0.293059 2.087111 0.000000 0.000000 0.000000
0.719749 0.229649 2.026386 0.000000 0.000000 0.000000
0.740155 0.262257 2.042285 0.000000 0.000000 0.000000
0.680708 0.238287 2.042360 0.000000 0.000000 0.000000
0.688817 0.228771 2.031623 0.000000 0.000000 0.000000
0.731119 0.285654 2.063509 0.000000 0.000000 0.000000
0.728976 0.287349 2.065196 0.000000 0.000000 0.000000
0.732028 0.282626 2.059165 0.000000 0.000000 0.000000
0.691454 0.295189 2.080356 0.000000 0.000000 0.000000
0.684062 0.292809 2.077031 0.000000 0.000000 0.000000
0.696097 0.302153 2.085823 0.000000 0.000000 0.000000
0.687871 0.296284 2.081312 0.000000 0.000000 0.000000
0.684525 0.297486 2.079260 0.000000 0.000000 0.000000
0.676975 0.257182 2.050118 0.000000 0.000000 0.000000
0.681740 0.264571 2.056827 0.000000 0.000000 0.000000
0.678423 0.256318 2.051236 0.000000 0.000000 0.000000
0.742188 0.260454 2.044513 0.000000 0.000000 0.000000
0.684392 0.252767 2.052057 0.000000 0.000000 0.000000
0.681470 0.254330 2.049916 0.000000 0.000000 0.000000
0.679434 0.267776 2.056971 0.000000 0.000000 0.000000
0.717518 0.288572 2.071225 0.000000 0.000000 0.000000
0.710648 0.294325 2.074172 0.000000 0.000000 0.000000
0.678426 0.281174 2.066346 0.000000 0.000000 0.000000
0.725430 0.288453 2.067254 0.000000 0.000000 0.000000
0.733952 0.276046 2.054327 0.000000 0.000000 0.000000
0.722237 0.286701 2.065481 0.000000 0.000000 0.000000
0.731559 0.280496 2.055583 0.000000 0.000000 0.000000
0.713165 0.227554 2.031848 0.000000 0.000000 0.000000
0.711115 0.231192 2.031320 0.000000 0.000000 0.000000
0.704239 0.214975 2.029504 0.000000 0.000000 0.000000
0.677898 0.275240 2.063106 0.000000 0.000000 0.000000
0.691175 0.269217 2.062269 0.000000 0.000000 0.000000
0.693056 0.224235 2.030355 0.000000 0.000000 0.000000
0.705680 0.216562 2.024911 0.000000 0.000000 0.000000
0.728172 0.284781 2.064208 0.000000 0.000000 0.000000
0.684689 0.293572 2.078598 0.000000 0.000000 0.000000
0.677704 0.271743 2.059545 0.000000 0.000000 0.000000
0.695355 0.230284 2.036454 0.000000 0.000000 0.000000
0.706479 0.223892 2.025991 0.000000 0.000000 0.000000
0.682539 0.285875 2.071662 0.000000 0.000000 0.000000
0.680578 0.280340 2.066790 0.000000 0.000000 0.000000
0.680017 0.288990 2.071925 0.000000 0.000000 0.000000
0.681487 0.290919 2.071949 0.000000 0.000000 0.000000
0.680343 0.265031 2.055795 0.000000 0.000000 0.000000
0.706505 0.233637 2.041441 0.000000 0.000000 0.000000
0.698513 0.239328 2.042019 0.000000 0.000000 0.000000
0.681048 0.271842 2.060493 0.000000 0.000000 0.000000
0.678763 0.268829 2.058831 0.000000 0.000000 0.000000
0.676882 0.276082 2.060748 0.000000 0.000000 0.000000
0.678654 0.264833 2.054024 0.000000 0.000000 0.000000
0.690292 0.277684 2.068398 0.000000 0.000000 0.000000
0.678641 0.261789 2.053585 0.000000 0.000000 0.000000
0.681597 0.278497 2.067847 0.000000 0.000000 0.000000
0.682976 0.272658 2.062555 0.000000 0.000000 0.000000
0.707200 0.215164 2.026395 0.000000 0.000000 0.000000
0.683808 0.264155 2.057478 0.000000 0.000000 0.000000
0.705270 0.218045 2.025276 0.000000 0.000000 0.000000
0.689667 0.229864 2.034225 0.000000 0.000000 0.000000
0.701638 0.217632 2.027300 0.000000 0.000000 0.000000
0.695823 0.221038 2.031936 0.000000 0.000000 0.000000
0.711179 0.298957 2.079294 0.000000 0.000000 0.000000
0.704037 0.216575 2.029851 0.000000 0.000000 0.000000
0.695797 0.226227 2.034548 0.000000 0.000000 0.000000
0.680892 0.245642 2.042674 0.000000 0.000000 0.000000
0.696778 0.221288 2.032238 0.000000 0.000000 0.000000
0.722129 0.232842 2.030228 0.000000 0.000000 0.000000
0.683126 0.242562 2.040550 0.000000 0.000000 0.000000
0.680845 0.243452 2.038354 0.000000 0.000000 0.000000
0.678018 0.251558 2.048447 0.000000 0.000000 0.000000
0.708505 0.300323 2.084117 0.000000 0.000000 0.000000
0.701605 0.300869 2.087349 0.000000 0.000000 0.000000
0.696094 0.297077 2.084532 0.000000 0.000000 0.000000
0.725448 0.287777 2.065963 0.000000 0.000000 0.000000
0.685105 0.230503 2.036555 0.000000 0.000000 0.000000
0.703324 0.305005 2.090543 0.000000 0.000000 0.000000
0.698063 0.219518 2.030402 0.000000 0.000000 0.000000
0.687424 0.288265 2.073593 0.000000 0.000000 0.000000
0.690252 0.299450 2.082592 0.000000 0.000000 0.000000
0.727223 0.287987 2.066976 0.000000 0.000000 0.000000
0.694816 0.300419 2.087113 0.000000 0.000000 0.000000
0.688927 0.300074 2.081839 0.000000 0.000000 0.000000
0.711774 0.297556 2.076635 0.000000 0.000000 0.000000
0.702770 0.301037 2.085781 0.000000 0.000000 0.000000
0.708507 0.299372 2.079569 0.000000 0.000000 0.000000
0.710500 0.298561 2.079928 0.000000 0.000000 0.000000
0.687803 0.263307 2.056017 0.000000 0.000000 0.000000
0.710412 0.300177 2.081205 0.000000 0.000000 0.000000
0.676115 0.262866 2.053411 0.000000 0.000000 0.000000
0.676341 0.250518 2.045223 0.000000 0.000000 0.000000
0.690041 0.300570 2.084588 0.000000 0.000000 0.000000
0.687999 0.286044 2.072652 0.000000 0.000000 0.000000
0.686887 0.291573 2.077671 0.000000 0.000000 0.000000
0.723711 0.289087 2.066684 0.000000 0.000000 0.000000
0.688192 0.298198 2.081136 0.000000 0.000000 0.000000
0.684024 0.263525 2.056748 0.000000 0.000000 0.000000
0.689586 0.283716 2.073247 0.000000 0.000000 0.000000
0.679788 0.280269 2.069452 0.000000 0.000000 0.000000
0.682399 0.276836 2.064435 0.000000 0.000000 0.000000
0.695242 0.301612 2.088255 0.000000 0.000000 0.000000
0.687543 0.291833 2.077869 0.000000 0.000000 0.000000
0.689976 0.286956 2.076198 0.000000 0.000000 0.000000
0.677110 0.285169 2.067631 0.000000 0.000000 0.000000
0.679213 0.282454 2.068387 0.000000 0.000000 0.000000
0.688152 0.294607 2.078990 0.000000 0.000000 0.000000
0.679856 0.281693 2.074721 0.000000 0.000000 0.000000
0.721554 0.291140 2.070252 0.000000 0.000000 0.000000
