ply
format ascii 1.0
comment VCGLIB generated
obj_info Generated by SPFormer!
element vertex 409
property float x
property float y
property float z
property float nx
property float ny
property float nz
end_header
1.186917 0.025571 0.374683 0.000000 0.000000 0.000000
1.200270 -0.000743 0.427336 0.000000 0.000000 0.000000
1.194922 0.015376 0.387314 0.000000 0.000000 0.000000
1.194128 0.028502 0.369760 0.000000 0.000000 0.000000
1.194173 0.027543 0.368882 0.000000 0.000000 0.000000
1.185332 0.030542 0.378555 0.000000 0.000000 0.000000
1.195201 0.024427 0.369678 0.000000 0.000000 0.000000
1.189825 0.023978 0.382317 0.000000 0.000000 0.000000
1.190873 0.022293 0.373850 0.000000 0.000000 0.000000
1.196869 0.022015 0.377131 0.000000 0.000000 0.000000
1.188544 0.021640 0.384000 0.000000 0.000000 0.000000
1.192024 0.019392 0.385718 0.000000 0.000000 0.000000
1.206588 -0.003047 0.426504 0.000000 0.000000 0.000000
1.185395 0.031119 0.379221 0.000000 0.000000 0.000000
1.193848 0.026071 0.372001 0.000000 0.000000 0.000000
1.190117 0.016564 0.375932 0.000000 0.000000 0.000000
1.195114 0.018938 0.385792 0.000000 0.000000 0.000000
1.196276 0.034227 0.368707 0.000000 0.000000 0.000000
1.193426 0.016581 0.380669 0.000000 0.000000 0.000000
1.187810 0.029759 0.371411 0.000000 0.000000 0.000000
1.191165 0.023820 0.381932 0.000000 0.000000 0.000000
1.189479 0.026604 0.370334 0.000000 0.000000 0.000000
1.203256 0.010745 0.385122 0.000000 0.000000 0.000000
1.190523 0.032468 0.366616 0.000000 0.000000 0.000000
1.192012 0.018096 0.388882 0.000000 0.000000 0.000000
1.202384 -0.002318 0.430986 0.000000 0.000000 0.000000
1.187117 0.025898 0.382262 0.000000 0.000000 0.000000
1.192660 0.019629 0.385251 0.000000 0.000000 0.000000
1.201556 0.010053 0.384805 0.000000 0.000000 0.000000
1.190701 0.013525 0.394541 0.000000 0.000000 0.000000
1.209300 -0.004798 0.411670 0.000000 0.000000 0.000000
1.187845 0.017904 0.385101 0.000000 0.000000 0.000000
1.208025 -0.007079 0.412073 0.000000 0.000000 0.000000
1.195078 0.010449 0.398548 0.000000 0.000000 0.000000
1.209524 -0.001327 0.414401 0.000000 0.000000 0.000000
1.206647 -0.000723 0.416763 0.000000 0.000000 0.000000
1.195325 0.026153 0.376105 0.000000 0.000000 0.000000
1.192035 0.016706 0.382048 0.000000 0.000000 0.000000
1.207033 -0.002889 0.418422 0.000000 0.000000 0.000000
1.186973 0.021196 0.384966 0.000000 0.000000 0.000000
1.201301 0.000967 0.407442 0.000000 0.000000 0.000000
1.190143 0.028642 0.368507 0.000000 0.000000 0.000000
1.191940 0.010717 0.396302 0.000000 0.000000 0.000000
1.192354 0.018502 0.379276 0.000000 0.000000 0.000000
1.197797 0.032876 0.372182 0.000000 0.000000 0.000000
1.194392 0.015090 0.389435 0.000000 0.000000 0.000000
1.199895 0.007155 0.397655 0.000000 0.000000 0.000000
1.190764 0.018338 0.389779 0.000000 0.000000 0.000000
1.189211 0.023831 0.373450 0.000000 0.000000 0.000000
1.192787 0.024095 0.371552 0.000000 0.000000 0.000000
1.185267 0.028564 0.375251 0.000000 0.000000 0.000000
1.189104 0.020194 0.384231 0.000000 0.000000 0.000000
1.185025 0.024871 0.381479 0.000000 0.000000 0.000000
1.194041 0.012125 0.392173 0.000000 0.000000 0.000000
1.202070 -0.000869 0.433330 0.000000 0.000000 0.000000
1.204995 0.000038 0.416476 0.000000 0.000000 0.000000
1.187564 0.022843 0.368218 0.000000 0.000000 0.000000
1.192580 0.026903 0.372024 0.000000 0.000000 0.000000
1.189458 0.025847 0.369352 0.000000 0.000000 0.000000
1.192588 0.026007 0.368163 0.000000 0.000000 0.000000
1.193079 0.030366 0.369703 0.000000 0.000000 0.000000
1.200842 -0.001891 0.405243 0.000000 0.000000 0.000000
1.190667 0.022424 0.373584 0.000000 0.000000 0.000000
1.191518 0.019443 0.388954 0.000000 0.000000 0.000000
1.196830 0.015858 0.386047 0.000000 0.000000 0.000000
1.188842 0.021774 0.373009 0.000000 0.000000 0.000000
1.203307 -0.002913 0.420039 0.000000 0.000000 0.000000
1.210467 -0.006545 0.428514 0.000000 0.000000 0.000000
1.206163 -0.000800 0.421320 0.000000 0.000000 0.000000
1.198374 0.011214 0.395547 0.000000 0.000000 0.000000
1.202442 0.002384 0.422089 0.000000 0.000000 0.000000
1.198626 0.010101 0.390938 0.000000 0.000000 0.000000
1.194972 0.015218 0.388646 0.000000 0.000000 0.000000
1.207112 -0.006458 0.420810 0.000000 0.000000 0.000000
1.183311 0.030137 0.384684 0.000000 0.000000 0.000000
1.198547 0.010501 0.394880 0.000000 0.000000 0.000000
1.205833 0.008822 0.417102 0.000000 0.000000 0.000000
1.205852 -0.000189 0.420005 0.000000 0.000000 0.000000
1.200293 0.008434 0.393397 0.000000 0.000000 0.000000
1.189146 0.028459 0.369257 0.000000 0.000000 0.000000
1.188639 0.016603 0.384044 0.000000 0.000000 0.000000
1.199285 0.010184 0.394903 0.000000 0.000000 0.000000
1.192800 0.011192 0.391401 0.000000 0.000000 0.000000
1.209560 -0.002948 0.431090 0.000000 0.000000 0.000000
1.189604 0.018235 0.376100 0.000000 0.000000 0.000000
1.204561 -0.004997 0.437914 0.000000 0.000000 0.000000
1.193514 0.010481 0.395818 0.000000 0.000000 0.000000
1.205559 -0.002727 0.432226 0.000000 0.000000 0.000000
1.205290 0.001727 0.423163 0.000000 0.000000 0.000000
1.208286 -0.002670 0.418456 0.000000 0.000000 0.000000
1.201688 -0.006707 0.434585 0.000000 0.000000 0.000000
1.185806 0.027707 0.371161 0.000000 0.000000 0.000000
1.193724 0.035587 0.363329 0.000000 0.000000 0.000000
1.203685 0.000622 0.406749 0.000000 0.000000 0.000000
1.206285 -0.005673 0.437498 0.000000 0.000000 0.000000
1.190190 0.010378 0.392038 0.000000 0.000000 0.000000
1.196425 0.012217 0.399355 0.000000 0.000000 0.000000
1.200540 0.009454 0.400060 0.000000 0.000000 0.000000
1.191240 0.032230 0.368804 0.000000 0.000000 0.000000
1.189916 0.021302 0.381306 0.000000 0.000000 0.000000
1.188100 0.024737 0.370464 0.000000 0.000000 0.000000
1.188895 0.016766 0.387224 0.000000 0.000000 0.000000
1.188046 0.025388 0.372449 0.000000 0.000000 0.000000
1.200296 0.007428 0.398499 0.000000 0.000000 0.000000
1.188936 0.017776 0.372727 0.000000 0.000000 0.000000
1.189248 0.021332 0.375551 0.000000 0.000000 0.000000
1.197376 0.014467 0.385651 0.000000 0.000000 0.000000
1.189934 0.027703 0.367051 0.000000 0.000000 0.000000
1.194155 0.013198 0.387433 0.000000 0.000000 0.000000
1.192794 0.019708 0.386630 0.000000 0.000000 0.000000
1.190773 0.020980 0.374157 0.000000 0.000000 0.000000
1.192224 0.012315 0.390847 0.000000 0.000000 0.000000
1.201231 0.004373 0.408650 0.000000 0.000000 0.000000
1.187550 0.022759 0.375932 0.000000 0.000000 0.000000
1.201319 0.003332 0.429108 0.000000 0.000000 0.000000
1.208202 -0.000630 0.416030 0.000000 0.000000 0.000000
1.193104 0.027930 0.373175 0.000000 0.000000 0.000000
1.189655 0.024375 0.380586 0.000000 0.000000 0.000000
1.187989 0.018068 0.376724 0.000000 0.000000 0.000000
1.195985 0.013850 0.392953 0.000000 0.000000 0.000000
1.195869 0.014365 0.392109 0.000000 0.000000 0.000000
1.197802 0.014048 0.385894 0.000000 0.000000 0.000000
1.196724 0.014036 0.384832 0.000000 0.000000 0.000000
1.196862 0.008594 0.385570 0.000000 0.000000 0.000000
1.195134 0.019642 0.385133 0.000000 0.000000 0.000000
1.200508 -0.002072 0.420623 0.000000 0.000000 0.000000
1.206501 -0.004818 0.436395 0.000000 0.000000 0.000000
1.200768 -0.008641 0.433144 0.000000 0.000000 0.000000
1.206790 -0.002526 0.428836 0.000000 0.000000 0.000000
1.195279 0.014813 0.392906 0.000000 0.000000 0.000000
1.207574 -0.006026 0.431795 0.000000 0.000000 0.000000
1.204200 -0.005175 0.430205 0.000000 0.000000 0.000000
1.206611 -0.005566 0.423783 0.000000 0.000000 0.000000
1.197756 0.010224 0.398636 0.000000 0.000000 0.000000
1.201278 -0.005171 0.429677 0.000000 0.000000 0.000000
1.204647 0.001218 0.417547 0.000000 0.000000 0.000000
1.189373 0.033679 0.364781 0.000000 0.000000 0.000000
1.190288 0.034594 0.368642 0.000000 0.000000 0.000000
1.188590 0.035903 0.367225 0.000000 0.000000 0.000000
1.199327 0.008941 0.382846 0.000000 0.000000 0.000000
1.185587 0.026902 0.377811 0.000000 0.000000 0.000000
1.201444 0.011025 0.382952 0.000000 0.000000 0.000000
1.200426 0.004635 0.404777 0.000000 0.000000 0.000000
1.206711 -0.008623 0.409590 0.000000 0.000000 0.000000
1.188375 0.027417 0.368468 0.000000 0.000000 0.000000
1.195770 0.025284 0.374104 0.000000 0.000000 0.000000
1.194532 0.017001 0.379603 0.000000 0.000000 0.000000
1.193102 0.023362 0.372002 0.000000 0.000000 0.000000
1.187800 0.015373 0.379337 0.000000 0.000000 0.000000
1.191617 0.016661 0.387370 0.000000 0.000000 0.000000
1.208523 -0.002209 0.426046 0.000000 0.000000 0.000000
1.206556 -0.007113 0.411349 0.000000 0.000000 0.000000
1.203512 0.001247 0.411628 0.000000 0.000000 0.000000
1.196406 0.019058 0.375624 0.000000 0.000000 0.000000
1.197388 0.020569 0.378406 0.000000 0.000000 0.000000
1.207596 -0.004649 0.418766 0.000000 0.000000 0.000000
1.198268 0.018281 0.399835 0.000000 0.000000 0.000000
1.201446 0.010459 0.393523 0.000000 0.000000 0.000000
1.196081 0.011972 0.399519 0.000000 0.000000 0.000000
1.195300 0.007208 0.397214 0.000000 0.000000 0.000000
1.200516 0.007323 0.408430 0.000000 0.000000 0.000000
1.201933 -0.001256 0.402642 0.000000 0.000000 0.000000
1.197198 0.007519 0.397914 0.000000 0.000000 0.000000
1.191783 0.001295 0.397953 0.000000 0.000000 0.000000
1.186992 0.030910 0.370720 0.000000 0.000000 0.000000
1.190375 0.031547 0.367504 0.000000 0.000000 0.000000
1.191683 0.009051 0.395326 0.000000 0.000000 0.000000
1.191896 0.033137 0.371538 0.000000 0.000000 0.000000
1.186766 0.022065 0.368937 0.000000 0.000000 0.000000
1.190178 0.031852 0.364762 0.000000 0.000000 0.000000
1.209392 -0.004816 0.415089 0.000000 0.000000 0.000000
1.205343 -0.007564 0.416890 0.000000 0.000000 0.000000
1.196157 0.028951 0.370988 0.000000 0.000000 0.000000
1.203814 0.002967 0.416136 0.000000 0.000000 0.000000
1.192514 0.022230 0.378740 0.000000 0.000000 0.000000
1.211301 -0.000926 0.410327 0.000000 0.000000 0.000000
1.202940 -0.006428 0.411585 0.000000 0.000000 0.000000
1.200961 -0.009743 0.419841 0.000000 0.000000 0.000000
1.190990 0.024975 0.371392 0.000000 0.000000 0.000000
1.193267 0.025108 0.371592 0.000000 0.000000 0.000000
1.198119 0.018450 0.378087 0.000000 0.000000 0.000000
1.200953 0.003635 0.421364 0.000000 0.000000 0.000000
1.189976 0.017040 0.388587 0.000000 0.000000 0.000000
1.188565 0.031097 0.367272 0.000000 0.000000 0.000000
1.192494 0.032427 0.367042 0.000000 0.000000 0.000000
1.187816 0.032801 0.374131 0.000000 0.000000 0.000000
1.190945 0.004852 0.390789 0.000000 0.000000 0.000000
1.192842 0.026203 0.372793 0.000000 0.000000 0.000000
1.195580 0.014428 0.387357 0.000000 0.000000 0.000000
1.203446 -0.000305 0.416797 0.000000 0.000000 0.000000
1.200337 0.002254 0.398964 0.000000 0.000000 0.000000
1.188262 0.016258 0.375107 0.000000 0.000000 0.000000
1.192959 0.009900 0.394293 0.000000 0.000000 0.000000
1.193316 0.006862 0.387926 0.000000 0.000000 0.000000
1.193742 0.018342 0.378142 0.000000 0.000000 0.000000
1.205428 0.003341 0.412888 0.000000 0.000000 0.000000
1.185892 0.027171 0.376061 0.000000 0.000000 0.000000
1.198848 0.008717 0.396065 0.000000 0.000000 0.000000
1.207250 -0.004427 0.434159 0.000000 0.000000 0.000000
1.193544 0.037780 0.363370 0.000000 0.000000 0.000000
1.194153 0.020587 0.373111 0.000000 0.000000 0.000000
1.195392 0.016572 0.383949 0.000000 0.000000 0.000000
1.187781 0.032018 0.372428 0.000000 0.000000 0.000000
1.194833 0.037563 0.366758 0.000000 0.000000 0.000000
1.207230 -0.002819 0.419468 0.000000 0.000000 0.000000
1.196399 0.012970 0.398374 0.000000 0.000000 0.000000
1.191890 0.013824 0.386467 0.000000 0.000000 0.000000
1.185437 0.026594 0.364113 0.000000 0.000000 0.000000
1.192537 0.018117 0.384968 0.000000 0.000000 0.000000
1.197832 0.015048 0.379734 0.000000 0.000000 0.000000
1.195978 0.020951 0.375503 0.000000 0.000000 0.000000
1.185520 0.029509 0.366604 0.000000 0.000000 0.000000
1.196060 0.015276 0.384985 0.000000 0.000000 0.000000
1.202599 0.000904 0.414542 0.000000 0.000000 0.000000
1.191056 0.018257 0.392176 0.000000 0.000000 0.000000
1.199040 0.010672 0.392338 0.000000 0.000000 0.000000
1.204784 -0.007947 0.431154 0.000000 0.000000 0.000000
1.193225 0.032559 0.368526 0.000000 0.000000 0.000000
1.203033 -0.003237 0.422533 0.000000 0.000000 0.000000
1.193090 0.015531 0.395508 0.000000 0.000000 0.000000
1.207925 0.000727 0.410100 0.000000 0.000000 0.000000
1.197169 0.012606 0.394855 0.000000 0.000000 0.000000
1.199747 0.009283 0.397414 0.000000 0.000000 0.000000
1.200923 0.000839 0.424731 0.000000 0.000000 0.000000
1.193878 0.007306 0.384139 0.000000 0.000000 0.000000
1.193679 0.028240 0.370616 0.000000 0.000000 0.000000
1.187811 0.022972 0.373105 0.000000 0.000000 0.000000
1.188012 0.020393 0.368864 0.000000 0.000000 0.000000
1.202670 0.000490 0.412715 0.000000 0.000000 0.000000
1.199799 0.007719 0.392601 0.000000 0.000000 0.000000
1.188036 0.033571 0.363972 0.000000 0.000000 0.000000
1.203797 -0.003515 0.406749 0.000000 0.000000 0.000000
1.209164 -0.003876 0.425223 0.000000 0.000000 0.000000
1.195307 0.030775 0.369218 0.000000 0.000000 0.000000
1.187442 0.031744 0.366907 0.000000 0.000000 0.000000
1.207050 -0.003853 0.436850 0.000000 0.000000 0.000000
1.209911 -0.003794 0.409784 0.000000 0.000000 0.000000
1.186732 0.019718 0.386325 0.000000 0.000000 0.000000
1.183862 0.024822 0.379621 0.000000 0.000000 0.000000
1.208100 -0.009007 0.411192 0.000000 0.000000 0.000000
1.206774 -0.005051 0.413658 0.000000 0.000000 0.000000
1.191425 0.012490 0.396413 0.000000 0.000000 0.000000
1.190535 0.015589 0.393046 0.000000 0.000000 0.000000
1.211869 -0.001884 0.411257 0.000000 0.000000 0.000000
1.205044 -0.002309 0.406945 0.000000 0.000000 0.000000
1.189966 0.026927 0.378790 0.000000 0.000000 0.000000
1.209731 -0.005187 0.411201 0.000000 0.000000 0.000000
1.183122 0.025927 0.394287 0.000000 0.000000 0.000000
1.188365 0.019523 0.377001 0.000000 0.000000 0.000000
1.209076 -0.007793 0.410273 0.000000 0.000000 0.000000
1.186098 0.022067 0.390611 0.000000 0.000000 0.000000
1.209999 0.003879 0.405751 0.000000 0.000000 0.000000
1.206597 -0.004396 0.427023 0.000000 0.000000 0.000000
1.201422 0.001283 0.404834 0.000000 0.000000 0.000000
1.200188 0.004099 0.407885 0.000000 0.000000 0.000000
1.197561 0.007942 0.399235 0.000000 0.000000 0.000000
1.204531 -0.001073 0.407848 0.000000 0.000000 0.000000
1.209705 -0.002352 0.413853 0.000000 0.000000 0.000000
1.205497 -0.005947 0.412191 0.000000 0.000000 0.000000
1.190856 0.017412 0.391295 0.000000 0.000000 0.000000
1.193015 0.015615 0.394762 0.000000 0.000000 0.000000
1.191177 0.012184 0.391100 0.000000 0.000000 0.000000
1.190452 0.025211 0.386719 0.000000 0.000000 0.000000
1.189542 0.013353 0.387420 0.000000 0.000000 0.000000
1.188222 0.020534 0.381719 0.000000 0.000000 0.000000
1.205422 0.004935 0.410582 0.000000 0.000000 0.000000
1.187519 0.021483 0.385593 0.000000 0.000000 0.000000
1.190315 0.015689 0.399869 0.000000 0.000000 0.000000
1.208234 -0.003861 0.418252 0.000000 0.000000 0.000000
1.189590 0.015959 0.388015 0.000000 0.000000 0.000000
1.206576 -0.008131 0.409577 0.000000 0.000000 0.000000
1.209873 -0.000913 0.410933 0.000000 0.000000 0.000000
1.203021 0.000748 0.423518 0.000000 0.000000 0.000000
1.205514 -0.011293 0.408749 0.000000 0.000000 0.000000
1.201939 -0.001964 0.431196 0.000000 0.000000 0.000000
1.203263 -0.003506 0.406650 0.000000 0.000000 0.000000
1.193510 0.019355 0.394992 0.000000 0.000000 0.000000
1.187711 0.025839 0.370478 0.000000 0.000000 0.000000
1.196982 0.024058 0.371973 0.000000 0.000000 0.000000
1.196719 0.015773 0.381891 0.000000 0.000000 0.000000
1.202780 0.012536 0.385063 0.000000 0.000000 0.000000
1.204704 -0.012985 0.410276 0.000000 0.000000 0.000000
1.202620 0.002686 0.399615 0.000000 0.000000 0.000000
1.198515 0.015152 0.379755 0.000000 0.000000 0.000000
1.202162 0.009171 0.390106 0.000000 0.000000 0.000000
1.192861 0.033890 0.369586 0.000000 0.000000 0.000000
1.187504 0.028309 0.372499 0.000000 0.000000 0.000000
1.192400 0.022861 0.390935 0.000000 0.000000 0.000000
1.193229 0.018581 0.394306 0.000000 0.000000 0.000000
1.202712 0.004800 0.391983 0.000000 0.000000 0.000000
1.199299 0.010403 0.390057 0.000000 0.000000 0.000000
1.194641 0.024060 0.371900 0.000000 0.000000 0.000000
1.208810 -0.002334 0.408533 0.000000 0.000000 0.000000
1.191417 0.005920 0.394018 0.000000 0.000000 0.000000
1.189481 0.012791 0.390678 0.000000 0.000000 0.000000
1.193691 0.029919 0.368041 0.000000 0.000000 0.000000
1.184658 0.030704 0.375179 0.000000 0.000000 0.000000
1.193016 0.024759 0.371820 0.000000 0.000000 0.000000
1.192799 0.030534 0.370128 0.000000 0.000000 0.000000
1.191518 0.025443 0.370599 0.000000 0.000000 0.000000
1.185013 0.034180 0.362204 0.000000 0.000000 0.000000
1.207099 -0.003674 0.430978 0.000000 0.000000 0.000000
1.200048 -0.005741 0.433961 0.000000 0.000000 0.000000
1.200357 0.004724 0.401595 0.000000 0.000000 0.000000
1.200021 -0.002157 0.431934 0.000000 0.000000 0.000000
1.207603 -0.002408 0.423131 0.000000 0.000000 0.000000
1.201013 0.001342 0.430449 0.000000 0.000000 0.000000
1.202578 0.003901 0.413638 0.000000 0.000000 0.000000
1.204137 -0.000367 0.417136 0.000000 0.000000 0.000000
1.200415 0.007824 0.408963 0.000000 0.000000 0.000000
1.205147 -0.002968 0.409736 0.000000 0.000000 0.000000
1.200640 0.001394 0.404256 0.000000 0.000000 0.000000
1.198234 0.013418 0.391693 0.000000 0.000000 0.000000
1.201496 0.003001 0.426325 0.000000 0.000000 0.000000
1.197445 0.012140 0.387950 0.000000 0.000000 0.000000
1.202047 0.009968 0.394389 0.000000 0.000000 0.000000
1.200750 0.005138 0.420854 0.000000 0.000000 0.000000
1.189361 0.019265 0.393788 0.000000 0.000000 0.000000
1.200539 0.010311 0.396766 0.000000 0.000000 0.000000
1.200738 0.007860 0.389408 0.000000 0.000000 0.000000
1.199417 0.016545 0.379724 0.000000 0.000000 0.000000
1.190081 0.014236 0.384296 0.000000 0.000000 0.000000
1.202636 -0.006324 0.438210 0.000000 0.000000 0.000000
1.207911 -0.005377 0.425382 0.000000 0.000000 0.000000
1.190513 0.030785 0.366067 0.000000 0.000000 0.000000
1.186912 0.030906 0.366101 0.000000 0.000000 0.000000
1.190177 0.032629 0.371863 0.000000 0.000000 0.000000
1.208402 -0.006292 0.417131 0.000000 0.000000 0.000000
1.185235 0.031349 0.367654 0.000000 0.000000 0.000000
1.185347 0.031653 0.367700 0.000000 0.000000 0.000000
1.186239 0.027702 0.374526 0.000000 0.000000 0.000000
1.184947 0.032938 0.363875 0.000000 0.000000 0.000000
1.204881 -0.001376 0.429749 0.000000 0.000000 0.000000
1.203418 -0.006969 0.429474 0.000000 0.000000 0.000000
1.207545 -0.009496 0.418946 0.000000 0.000000 0.000000
1.205512 -0.006693 0.437745 0.000000 0.000000 0.000000
1.209190 -0.004896 0.414686 0.000000 0.000000 0.000000
1.196334 0.020461 0.390186 0.000000 0.000000 0.000000
1.187812 0.020598 0.384757 0.000000 0.000000 0.000000
1.190227 0.026727 0.371723 0.000000 0.000000 0.000000
1.204520 -0.006004 0.435300 0.000000 0.000000 0.000000
1.185555 0.025506 0.383249 0.000000 0.000000 0.000000
1.202440 0.011635 0.389194 0.000000 0.000000 0.000000
1.197691 0.015830 0.383752 0.000000 0.000000 0.000000
1.195859 0.024882 0.370734 0.000000 0.000000 0.000000
1.190045 0.016784 0.380799 0.000000 0.000000 0.000000
1.187489 0.032581 0.365023 0.000000 0.000000 0.000000
1.194077 0.033107 0.368904 0.000000 0.000000 0.000000
1.186771 0.031989 0.366040 0.000000 0.000000 0.000000
1.191515 0.029828 0.367281 0.000000 0.000000 0.000000
1.190806 0.037581 0.362406 0.000000 0.000000 0.000000
1.205956 -0.004983 0.409496 0.000000 0.000000 0.000000
1.188298 0.019584 0.375268 0.000000 0.000000 0.000000
1.209529 -0.006523 0.413081 0.000000 0.000000 0.000000
1.188568 0.016433 0.379736 0.000000 0.000000 0.000000
1.188590 0.012815 0.381922 0.000000 0.000000 0.000000
1.191240 0.010097 0.391163 0.000000 0.000000 0.000000
1.200848 -0.002821 0.435413 0.000000 0.000000 0.000000
1.205471 -0.009098 0.415002 0.000000 0.000000 0.000000
1.204968 -0.010874 0.410652 0.000000 0.000000 0.000000
1.197686 0.010117 0.394538 0.000000 0.000000 0.000000
1.204516 -0.010793 0.406666 0.000000 0.000000 0.000000
1.207073 -0.008752 0.414417 0.000000 0.000000 0.000000
1.200484 0.003240 0.397657 0.000000 0.000000 0.000000
1.206690 -0.002771 0.423435 0.000000 0.000000 0.000000
1.204122 -0.002928 0.405313 0.000000 0.000000 0.000000
1.192392 0.019259 0.396322 0.000000 0.000000 0.000000
1.191132 0.007967 0.394249 0.000000 0.000000 0.000000
1.190819 0.007148 0.395262 0.000000 0.000000 0.000000
1.207817 -0.002123 0.419281 0.000000 0.000000 0.000000
1.201800 -0.007160 0.403375 0.000000 0.000000 0.000000
1.206193 -0.009166 0.412603 0.000000 0.000000 0.000000
1.209433 -0.011895 0.414984 0.000000 0.000000 0.000000
1.202224 -0.000405 0.402850 0.000000 0.000000 0.000000
1.207966 -0.008515 0.411545 0.000000 0.000000 0.000000
1.204973 -0.013101 0.406854 0.000000 0.000000 0.000000
1.187552 0.027437 0.369394 0.000000 0.000000 0.000000
1.209055 -0.004879 0.407346 0.000000 0.000000 0.000000
1.206725 -0.002564 0.407140 0.000000 0.000000 0.000000
1.184787 0.032840 0.369792 0.000000 0.000000 0.000000
1.200956 0.005882 0.414686 0.000000 0.000000 0.000000
1.187357 0.034204 0.364557 0.000000 0.000000 0.000000
1.196566 0.006081 0.394574 0.000000 0.000000 0.000000
1.191441 0.035817 0.367498 0.000000 0.000000 0.000000
1.201025 0.002533 0.403300 0.000000 0.000000 0.000000
1.186352 0.037927 0.361804 0.000000 0.000000 0.000000
1.191826 0.017533 0.379588 0.000000 0.000000 0.000000
1.208344 -0.000111 0.406565 0.000000 0.000000 0.000000
1.206302 0.002872 0.407784 0.000000 0.000000 0.000000
1.207335 -0.007112 0.407414 0.000000 0.000000 0.000000
1.193298 0.020747 0.390661 0.000000 0.000000 0.000000
1.186960 0.018817 0.371361 0.000000 0.000000 0.000000
1.194184 0.022348 0.380433 0.000000 0.000000 0.000000
1.206811 -0.003878 0.437124 0.000000 0.000000 0.000000
1.194526 0.018430 0.383406 0.000000 0.000000 0.000000
1.193267 0.026512 0.382008 0.000000 0.000000 0.000000
1.196202 0.023515 0.372338 0.000000 0.000000 0.000000
1.198226 0.019998 0.379773 0.000000 0.000000 0.000000
1.197180 0.032656 0.371178 0.000000 0.000000 0.000000
1.197099 0.025820 0.372707 0.000000 0.000000 0.000000
1.198781 0.021103 0.375820 0.000000 0.000000 0.000000
1.188793 0.036617 0.363445 0.000000 0.000000 0.000000
1.190106 0.034574 0.374461 0.000000 0.000000 0.000000
1.193556 0.032680 0.374728 0.000000 0.000000 0.000000
1.204419 -0.008021 0.434648 0.000000 0.000000 0.000000
1.210018 -0.003237 0.434923 0.000000 0.000000 0.000000
1.205359 -0.006846 0.429683 0.000000 0.000000 0.000000
1.206945 -0.003686 0.421252 0.000000 0.000000 0.000000
1.201599 0.009778 0.386268 0.000000 0.000000 0.000000
