ply
format ascii 1.0
comment VCGLIB generated
obj_info Generated by SPFormer!
element vertex 621
property float x
property float y
property float z
property float nx
property float ny
property float nz
end_header
-0.082945 0.837013 3.800389 0.000000 0.000000 0.000000
-0.041108 0.811372 3.849951 0.000000 0.000000 0.000000
-0.015551 0.791085 3.860621 0.000000 0.000000 0.000000
-0.031065 0.791879 3.858596 0.000000 0.000000 0.000000
-0.028470 0.787907 3.852791 0.000000 0.000000 0.000000
-0.072516 0.821739 3.809788 0.000000 0.000000 0.000000
-0.035683 0.802142 3.832901 0.000000 0.000000 0.000000
-0.074561 0.820807 3.805008 0.000000 0.000000 0.000000
-0.077253 0.799683 3.796256 0.000000 0.000000 0.000000
-0.045514 0.813377 3.835724 0.000000 0.000000 0.000000
-0.052359 0.802084 3.813247 0.000000 0.000000 0.000000
-0.089291 0.812494 3.792252 0.000000 0.000000 0.000000
-0.007108 0.790494 3.857342 0.000000 0.000000 0.000000
-0.085210 0.824248 3.810050 0.000000 0.000000 0.000000
-0.038121 0.790813 3.866747 0.000000 0.000000 0.000000
-0.081094 0.809016 3.827025 0.000000 0.000000 0.000000
-0.035118 0.801409 3.840016 0.000000 0.000000 0.000000
-0.081648 0.822331 3.780447 0.000000 0.000000 0.000000
-0.051509 0.796944 3.845571 0.000000 0.000000 0.000000
-0.093101 0.813068 3.809998 0.000000 0.000000 0.000000
-0.040894 0.811456 3.829422 0.000000 0.000000 0.000000
-0.043091 0.813130 3.829195 0.000000 0.000000 0.000000
-0.034892 0.791994 3.830873 0.000000 0.000000 0.000000
-0.048984 0.796409 3.819534 0.000000 0.000000 0.000000
-0.053882 0.778004 3.850807 0.000000 0.000000 0.000000
-0.025397 0.800261 3.838016 0.000000 0.000000 0.000000
-0.059036 0.814046 3.836884 0.000000 0.000000 0.000000
-0.074121 0.820014 3.799131 0.000000 0.000000 0.000000
-0.014090 0.795059 3.847802 0.000000 0.000000 0.000000
-0.090441 0.833123 3.785512 0.000000 0.000000 0.000000
-0.014583 0.796944 3.844805 0.000000 0.000000 0.000000
-0.056942 0.789874 3.852192 0.000000 0.000000 0.000000
-0.070102 0.804568 3.800971 0.000000 0.000000 0.000000
-0.055647 0.805341 3.844581 0.000000 0.000000 0.000000
-0.059287 0.821439 3.813296 0.000000 0.000000 0.000000
-0.032011 0.800542 3.839636 0.000000 0.000000 0.000000
-0.089613 0.805321 3.769788 0.000000 0.000000 0.000000
-0.014031 0.797362 3.867916 0.000000 0.000000 0.000000
-0.039180 0.789779 3.851548 0.000000 0.000000 0.000000
-0.063070 0.806233 3.823494 0.000000 0.000000 0.000000
-0.097475 0.801696 3.793364 0.000000 0.000000 0.000000
-0.081420 0.804612 3.786394 0.000000 0.000000 0.000000
-0.026379 0.800445 3.840926 0.000000 0.000000 0.000000
-0.034072 0.821929 3.836273 0.000000 0.000000 0.000000
-0.042243 0.811369 3.819041 0.000000 0.000000 0.000000
-0.064264 0.787101 3.851852 0.000000 0.000000 0.000000
-0.022216 0.797454 3.860689 0.000000 0.000000 0.000000
-0.052758 0.796356 3.834360 0.000000 0.000000 0.000000
-0.099735 0.815699 3.796204 0.000000 0.000000 0.000000
0.001517 0.793475 3.863964 0.000000 0.000000 0.000000
-0.024203 0.799759 3.833990 0.000000 0.000000 0.000000
-0.054111 0.808550 3.796127 0.000000 0.000000 0.000000
-0.063649 0.818664 3.780153 0.000000 0.000000 0.000000
-0.040609 0.799493 3.847114 0.000000 0.000000 0.000000
-0.041467 0.788016 3.856913 0.000000 0.000000 0.000000
-0.024802 0.786331 3.866918 0.000000 0.000000 0.000000
-0.016479 0.798387 3.843939 0.000000 0.000000 0.000000
-0.040607 0.808616 3.816269 0.000000 0.000000 0.000000
-0.064475 0.818853 3.823077 0.000000 0.000000 0.000000
-0.025705 0.786097 3.866851 0.000000 0.000000 0.000000
-0.094753 0.834985 3.794475 0.000000 0.000000 0.000000
-0.075845 0.824972 3.811162 0.000000 0.000000 0.000000
-0.094165 0.827475 3.792239 0.000000 0.000000 0.000000
-0.079773 0.828587 3.821147 0.000000 0.000000 0.000000
-0.035747 0.801283 3.847193 0.000000 0.000000 0.000000
-0.042545 0.777579 3.867231 0.000000 0.000000 0.000000
-0.074281 0.819407 3.819354 0.000000 0.000000 0.000000
-0.025446 0.799877 3.836001 0.000000 0.000000 0.000000
-0.068767 0.798139 3.841989 0.000000 0.000000 0.000000
-0.030961 0.814039 3.833794 0.000000 0.000000 0.000000
-0.078380 0.808280 3.824365 0.000000 0.000000 0.000000
-0.025901 0.798245 3.840505 0.000000 0.000000 0.000000
-0.028923 0.786770 3.857520 0.000000 0.000000 0.000000
-0.060784 0.823851 3.811678 0.000000 0.000000 0.000000
-0.037973 0.805869 3.838592 0.000000 0.000000 0.000000
-0.073322 0.807348 3.821604 0.000000 0.000000 0.000000
-0.021257 0.785430 3.854467 0.000000 0.000000 0.000000
-0.042806 0.793852 3.840900 0.000000 0.000000 0.000000
-0.079528 0.808175 3.823313 0.000000 0.000000 0.000000
-0.064271 0.808049 3.830970 0.000000 0.000000 0.000000
-0.082354 0.810437 3.810591 0.000000 0.000000 0.000000
-0.046456 0.794519 3.846093 0.000000 0.000000 0.000000
-0.057992 0.788787 3.855540 0.000000 0.000000 0.000000
-0.031082 0.791380 3.867237 0.000000 0.000000 0.000000
-0.066387 0.818859 3.803823 0.000000 0.000000 0.000000
-0.043965 0.788779 3.831547 0.000000 0.000000 0.000000
-0.049401 0.787724 3.861227 0.000000 0.000000 0.000000
-0.052241 0.796346 3.827734 0.000000 0.000000 0.000000
-0.087490 0.814773 3.822165 0.000000 0.000000 0.000000
-0.078354 0.809589 3.809251 0.000000 0.000000 0.000000
-0.060058 0.814203 3.818316 0.000000 0.000000 0.000000
-0.083427 0.822728 3.781338 0.000000 0.000000 0.000000
-0.022557 0.801591 3.866937 0.000000 0.000000 0.000000
-0.070952 0.822345 3.789255 0.000000 0.000000 0.000000
-0.013214 0.784891 3.870722 0.000000 0.000000 0.000000
-0.011793 0.799551 3.868254 0.000000 0.000000 0.000000
-0.085874 0.822264 3.810632 0.000000 0.000000 0.000000
-0.080360 0.835487 3.788259 0.000000 0.000000 0.000000
-0.095902 0.824487 3.760268 0.000000 0.000000 0.000000
-0.105302 0.827428 3.773570 0.000000 0.000000 0.000000
-0.018107 0.788803 3.863285 0.000000 0.000000 0.000000
-0.096591 0.828123 3.796111 0.000000 0.000000 0.000000
-0.038461 0.811013 3.810041 0.000000 0.000000 0.000000
-0.062472 0.790040 3.842135 0.000000 0.000000 0.000000
-0.107359 0.818183 3.768680 0.000000 0.000000 0.000000
-0.102221 0.825745 3.763509 0.000000 0.000000 0.000000
-0.094622 0.824356 3.782904 0.000000 0.000000 0.000000
-0.034564 0.785069 3.860488 0.000000 0.000000 0.000000
-0.042300 0.791429 3.845873 0.000000 0.000000 0.000000
-0.033795 0.794468 3.869686 0.000000 0.000000 0.000000
-0.086690 0.821846 3.778056 0.000000 0.000000 0.000000
-0.087723 0.839092 3.779663 0.000000 0.000000 0.000000
-0.059750 0.821397 3.805045 0.000000 0.000000 0.000000
-0.069490 0.828536 3.794699 0.000000 0.000000 0.000000
-0.094823 0.834368 3.761322 0.000000 0.000000 0.000000
-0.078660 0.826456 3.775418 0.000000 0.000000 0.000000
-0.046967 0.809034 3.838403 0.000000 0.000000 0.000000
-0.094138 0.822343 3.778011 0.000000 0.000000 0.000000
-0.102214 0.810524 3.773526 0.000000 0.000000 0.000000
-0.093334 0.812835 3.763669 0.000000 0.000000 0.000000
-0.086920 0.822489 3.784476 0.000000 0.000000 0.000000
-0.054286 0.824247 3.804935 0.000000 0.000000 0.000000
-0.086230 0.832967 3.774360 0.000000 0.000000 0.000000
-0.052186 0.815219 3.823406 0.000000 0.000000 0.000000
-0.112474 0.823717 3.763929 0.000000 0.000000 0.000000
-0.086091 0.811076 3.798651 0.000000 0.000000 0.000000
-0.010571 0.799189 3.835535 0.000000 0.000000 0.000000
-0.103669 0.830653 3.774449 0.000000 0.000000 0.000000
-0.098727 0.822930 3.788051 0.000000 0.000000 0.000000
-0.057298 0.805399 3.834522 0.000000 0.000000 0.000000
-0.079781 0.830987 3.799492 0.000000 0.000000 0.000000
-0.010313 0.793196 3.847893 0.000000 0.000000 0.000000
-0.082988 0.821142 3.793887 0.000000 0.000000 0.000000
-0.075503 0.799461 3.836681 0.000000 0.000000 0.000000
-0.080970 0.804939 3.832131 0.000000 0.000000 0.000000
-0.071725 0.803253 3.844857 0.000000 0.000000 0.000000
-0.023490 0.805973 3.823743 0.000000 0.000000 0.000000
-0.078316 0.811199 3.841840 0.000000 0.000000 0.000000
-0.065490 0.805617 3.843624 0.000000 0.000000 0.000000
-0.039473 0.800782 3.834055 0.000000 0.000000 0.000000
-0.037408 0.790949 3.837098 0.000000 0.000000 0.000000
-0.049684 0.797347 3.846383 0.000000 0.000000 0.000000
-0.068641 0.806445 3.816031 0.000000 0.000000 0.000000
-0.069420 0.804963 3.831496 0.000000 0.000000 0.000000
-0.025036 0.810285 3.832821 0.000000 0.000000 0.000000
-0.030018 0.777024 3.856676 0.000000 0.000000 0.000000
-0.091865 0.815149 3.771245 0.000000 0.000000 0.000000
-0.068354 0.817846 3.797971 0.000000 0.000000 0.000000
-0.058967 0.799134 3.842669 0.000000 0.000000 0.000000
-0.018041 0.810176 3.839450 0.000000 0.000000 0.000000
-0.039194 0.812014 3.846606 0.000000 0.000000 0.000000
-0.034579 0.808667 3.817381 0.000000 0.000000 0.000000
-0.032557 0.811642 3.844966 0.000000 0.000000 0.000000
-0.032523 0.815808 3.857584 0.000000 0.000000 0.000000
-0.088641 0.834759 3.764154 0.000000 0.000000 0.000000
0.001710 0.793895 3.872425 0.000000 0.000000 0.000000
-0.002501 0.796163 3.863582 0.000000 0.000000 0.000000
-0.075085 0.819818 3.806017 0.000000 0.000000 0.000000
-0.014442 0.805034 3.848418 0.000000 0.000000 0.000000
-0.071226 0.805367 3.839535 0.000000 0.000000 0.000000
-0.099819 0.824544 3.771593 0.000000 0.000000 0.000000
-0.018204 0.784517 3.863317 0.000000 0.000000 0.000000
-0.011145 0.803044 3.839871 0.000000 0.000000 0.000000
-0.007344 0.787214 3.862808 0.000000 0.000000 0.000000
-0.019504 0.794400 3.834103 0.000000 0.000000 0.000000
-0.026808 0.785921 3.870306 0.000000 0.000000 0.000000
-0.012536 0.792947 3.855314 0.000000 0.000000 0.000000
-0.007156 0.788596 3.866910 0.000000 0.000000 0.000000
-0.007122 0.792804 3.854575 0.000000 0.000000 0.000000
-0.008860 0.793367 3.847489 0.000000 0.000000 0.000000
-0.072836 0.835636 3.783634 0.000000 0.000000 0.000000
-0.074534 0.832947 3.778159 0.000000 0.000000 0.000000
-0.080540 0.833884 3.769629 0.000000 0.000000 0.000000
-0.004118 0.783884 3.871359 0.000000 0.000000 0.000000
0.003132 0.794864 3.845394 0.000000 0.000000 0.000000
-0.000978 0.791431 3.860052 0.000000 0.000000 0.000000
0.004104 0.788336 3.859107 0.000000 0.000000 0.000000
-0.022486 0.796575 3.845524 0.000000 0.000000 0.000000
-0.011846 0.796251 3.842101 0.000000 0.000000 0.000000
-0.026311 0.788288 3.859153 0.000000 0.000000 0.000000
-0.008142 0.801782 3.854344 0.000000 0.000000 0.000000
0.002717 0.784185 3.860900 0.000000 0.000000 0.000000
-0.029997 0.790621 3.865072 0.000000 0.000000 0.000000
-0.008204 0.789929 3.864427 0.000000 0.000000 0.000000
-0.035854 0.802004 3.834328 0.000000 0.000000 0.000000
-0.041592 0.778346 3.854249 0.000000 0.000000 0.000000
-0.023784 0.785593 3.866957 0.000000 0.000000 0.000000
-0.005544 0.793675 3.865151 0.000000 0.000000 0.000000
-0.024776 0.811065 3.824760 0.000000 0.000000 0.000000
-0.015165 0.789829 3.864824 0.000000 0.000000 0.000000
-0.094226 0.820976 3.791911 0.000000 0.000000 0.000000
-0.095900 0.818627 3.805210 0.000000 0.000000 0.000000
-0.044448 0.796885 3.842651 0.000000 0.000000 0.000000
-0.002136 0.792716 3.863913 0.000000 0.000000 0.000000
-0.025221 0.799057 3.827735 0.000000 0.000000 0.000000
-0.027729 0.800854 3.826714 0.000000 0.000000 0.000000
-0.043420 0.791729 3.861774 0.000000 0.000000 0.000000
-0.042904 0.801053 3.856235 0.000000 0.000000 0.000000
-0.015381 0.790944 3.837443 0.000000 0.000000 0.000000
-0.000465 0.786540 3.854115 0.000000 0.000000 0.000000
-0.000997 0.793115 3.850802 0.000000 0.000000 0.000000
-0.020318 0.797680 3.839961 0.000000 0.000000 0.000000
-0.019035 0.789363 3.858577 0.000000 0.000000 0.000000
-0.052985 0.788755 3.860637 0.000000 0.000000 0.000000
-0.057311 0.788420 3.860772 0.000000 0.000000 0.000000
-0.023043 0.813245 3.835086 0.000000 0.000000 0.000000
-0.035142 0.812107 3.827449 0.000000 0.000000 0.000000
-0.023680 0.790297 3.835314 0.000000 0.000000 0.000000
-0.077471 0.825848 3.805750 0.000000 0.000000 0.000000
-0.035701 0.819719 3.824164 0.000000 0.000000 0.000000
-0.031265 0.807829 3.828541 0.000000 0.000000 0.000000
-0.073485 0.827242 3.765463 0.000000 0.000000 0.000000
-0.041646 0.779286 3.861348 0.000000 0.000000 0.000000
-0.046527 0.788674 3.860562 0.000000 0.000000 0.000000
-0.051026 0.795845 3.843567 0.000000 0.000000 0.000000
-0.050950 0.800280 3.855931 0.000000 0.000000 0.000000
-0.087964 0.825424 3.788530 0.000000 0.000000 0.000000
-0.058420 0.797113 3.851763 0.000000 0.000000 0.000000
-0.050451 0.796504 3.857479 0.000000 0.000000 0.000000
-0.058083 0.793425 3.849509 0.000000 0.000000 0.000000
-0.001542 0.791678 3.853432 0.000000 0.000000 0.000000
-0.000957 0.791834 3.850673 0.000000 0.000000 0.000000
-0.061761 0.821832 3.791297 0.000000 0.000000 0.000000
-0.075023 0.821176 3.784839 0.000000 0.000000 0.000000
-0.100489 0.819229 3.762942 0.000000 0.000000 0.000000
-0.087791 0.810766 3.812559 0.000000 0.000000 0.000000
-0.092282 0.823661 3.774554 0.000000 0.000000 0.000000
-0.062572 0.816395 3.816420 0.000000 0.000000 0.000000
-0.083765 0.796483 3.813926 0.000000 0.000000 0.000000
-0.091223 0.823953 3.784280 0.000000 0.000000 0.000000
-0.096019 0.814356 3.784830 0.000000 0.000000 0.000000
-0.089506 0.823541 3.784891 0.000000 0.000000 0.000000
-0.107061 0.821544 3.766026 0.000000 0.000000 0.000000
-0.092267 0.824425 3.801410 0.000000 0.000000 0.000000
-0.089258 0.822738 3.797423 0.000000 0.000000 0.000000
-0.009240 0.799201 3.833556 0.000000 0.000000 0.000000
-0.106903 0.814671 3.799807 0.000000 0.000000 0.000000
-0.098521 0.813024 3.804312 0.000000 0.000000 0.000000
-0.046181 0.821862 3.810324 0.000000 0.000000 0.000000
-0.031227 0.800046 3.836082 0.000000 0.000000 0.000000
-0.067511 0.827105 3.792425 0.000000 0.000000 0.000000
-0.111882 0.819686 3.786412 0.000000 0.000000 0.000000
-0.079346 0.835740 3.782712 0.000000 0.000000 0.000000
-0.065411 0.825320 3.780619 0.000000 0.000000 0.000000
-0.026672 0.802128 3.828477 0.000000 0.000000 0.000000
-0.064943 0.830220 3.790944 0.000000 0.000000 0.000000
-0.069309 0.796292 3.851891 0.000000 0.000000 0.000000
-0.057774 0.821439 3.791488 0.000000 0.000000 0.000000
-0.033463 0.790053 3.875641 0.000000 0.000000 0.000000
-0.024279 0.793508 3.874932 0.000000 0.000000 0.000000
-0.024932 0.786450 3.869512 0.000000 0.000000 0.000000
-0.023109 0.800837 3.871042 0.000000 0.000000 0.000000
-0.000758 0.801882 3.866598 0.000000 0.000000 0.000000
-0.016005 0.784059 3.867920 0.000000 0.000000 0.000000
-0.038236 0.795185 3.865770 0.000000 0.000000 0.000000
-0.035924 0.788987 3.872755 0.000000 0.000000 0.000000
-0.000129 0.795401 3.843419 0.000000 0.000000 0.000000
-0.073473 0.816093 3.790634 0.000000 0.000000 0.000000
-0.070115 0.820310 3.771736 0.000000 0.000000 0.000000
-0.051545 0.824008 3.803942 0.000000 0.000000 0.000000
-0.070558 0.820540 3.791574 0.000000 0.000000 0.000000
-0.069114 0.819943 3.764808 0.000000 0.000000 0.000000
-0.054874 0.812066 3.795386 0.000000 0.000000 0.000000
-0.105851 0.821779 3.773551 0.000000 0.000000 0.000000
-0.103094 0.824988 3.783553 0.000000 0.000000 0.000000
-0.059934 0.790633 3.852218 0.000000 0.000000 0.000000
-0.049691 0.783612 3.860830 0.000000 0.000000 0.000000
-0.061365 0.796720 3.849872 0.000000 0.000000 0.000000
-0.078589 0.809003 3.830439 0.000000 0.000000 0.000000
-0.102695 0.812090 3.810089 0.000000 0.000000 0.000000
-0.079789 0.826031 3.758943 0.000000 0.000000 0.000000
-0.019522 0.792739 3.874907 0.000000 0.000000 0.000000
-0.026527 0.789222 3.874206 0.000000 0.000000 0.000000
-0.013388 0.795563 3.869196 0.000000 0.000000 0.000000
-0.039539 0.791985 3.873474 0.000000 0.000000 0.000000
-0.048753 0.826997 3.809060 0.000000 0.000000 0.000000
-0.035077 0.794844 3.876530 0.000000 0.000000 0.000000
-0.040647 0.791720 3.873197 0.000000 0.000000 0.000000
-0.062376 0.794823 3.854800 0.000000 0.000000 0.000000
0.001808 0.789434 3.867260 0.000000 0.000000 0.000000
-0.040919 0.792819 3.869147 0.000000 0.000000 0.000000
-0.042091 0.796225 3.864741 0.000000 0.000000 0.000000
-0.058589 0.816550 3.823811 0.000000 0.000000 0.000000
-0.077116 0.816769 3.764074 0.000000 0.000000 0.000000
-0.002401 0.793652 3.856637 0.000000 0.000000 0.000000
-0.026198 0.811032 3.830199 0.000000 0.000000 0.000000
0.004893 0.789660 3.862380 0.000000 0.000000 0.000000
-0.035646 0.812146 3.828927 0.000000 0.000000 0.000000
0.004795 0.792845 3.859027 0.000000 0.000000 0.000000
-0.000667 0.799082 3.851083 0.000000 0.000000 0.000000
-0.021190 0.813284 3.832288 0.000000 0.000000 0.000000
0.006108 0.792246 3.845814 0.000000 0.000000 0.000000
-0.013455 0.806169 3.828749 0.000000 0.000000 0.000000
-0.060876 0.810968 3.817727 0.000000 0.000000 0.000000
-0.053618 0.820113 3.800455 0.000000 0.000000 0.000000
-0.048411 0.811630 3.802388 0.000000 0.000000 0.000000
-0.063090 0.824649 3.792324 0.000000 0.000000 0.000000
-0.022493 0.807405 3.857975 0.000000 0.000000 0.000000
-0.087955 0.817487 3.829523 0.000000 0.000000 0.000000
-0.011423 0.801913 3.862696 0.000000 0.000000 0.000000
-0.094788 0.808567 3.823112 0.000000 0.000000 0.000000
-0.002004 0.791129 3.845763 0.000000 0.000000 0.000000
0.004891 0.784448 3.855694 0.000000 0.000000 0.000000
-0.035057 0.800754 3.824308 0.000000 0.000000 0.000000
-0.022799 0.808032 3.828337 0.000000 0.000000 0.000000
-0.036777 0.806233 3.819768 0.000000 0.000000 0.000000
-0.004208 0.798750 3.843916 0.000000 0.000000 0.000000
-0.084083 0.812986 3.829163 0.000000 0.000000 0.000000
-0.072714 0.808569 3.834500 0.000000 0.000000 0.000000
-0.005917 0.793550 3.867755 0.000000 0.000000 0.000000
-0.019655 0.792979 3.878378 0.000000 0.000000 0.000000
-0.069084 0.794183 3.817601 0.000000 0.000000 0.000000
-0.067578 0.786173 3.829350 0.000000 0.000000 0.000000
-0.077033 0.823662 3.760211 0.000000 0.000000 0.000000
-0.080433 0.826880 3.764738 0.000000 0.000000 0.000000
-0.012998 0.787663 3.871140 0.000000 0.000000 0.000000
-0.012358 0.791432 3.870988 0.000000 0.000000 0.000000
-0.075046 0.832736 3.763884 0.000000 0.000000 0.000000
-0.099830 0.833695 3.763046 0.000000 0.000000 0.000000
-0.066473 0.827182 3.798231 0.000000 0.000000 0.000000
-0.074222 0.826782 3.770465 0.000000 0.000000 0.000000
-0.076619 0.828913 3.769359 0.000000 0.000000 0.000000
-0.071055 0.827319 3.773790 0.000000 0.000000 0.000000
-0.021660 0.803717 3.829972 0.000000 0.000000 0.000000
-0.024816 0.813938 3.827307 0.000000 0.000000 0.000000
-0.059895 0.822719 3.769215 0.000000 0.000000 0.000000
-0.034110 0.796037 3.873506 0.000000 0.000000 0.000000
-0.005466 0.800325 3.847314 0.000000 0.000000 0.000000
-0.011608 0.807792 3.840570 0.000000 0.000000 0.000000
-0.100924 0.816985 3.790695 0.000000 0.000000 0.000000
-0.043236 0.814313 3.821601 0.000000 0.000000 0.000000
-0.045887 0.813299 3.827567 0.000000 0.000000 0.000000
-0.094744 0.812950 3.800688 0.000000 0.000000 0.000000
-0.103715 0.819050 3.780462 0.000000 0.000000 0.000000
-0.014752 0.793840 3.880843 0.000000 0.000000 0.000000
-0.009722 0.790917 3.871213 0.000000 0.000000 0.000000
-0.065520 0.798203 3.848754 0.000000 0.000000 0.000000
0.005240 0.783744 3.850326 0.000000 0.000000 0.000000
-0.069088 0.803864 3.846901 0.000000 0.000000 0.000000
0.008879 0.789447 3.854907 0.000000 0.000000 0.000000
-0.046831 0.782980 3.865890 0.000000 0.000000 0.000000
-0.043465 0.791886 3.874518 0.000000 0.000000 0.000000
-0.046060 0.791787 3.867396 0.000000 0.000000 0.000000
-0.063308 0.825326 3.788327 0.000000 0.000000 0.000000
-0.064340 0.830059 3.798903 0.000000 0.000000 0.000000
-0.078856 0.834812 3.790852 0.000000 0.000000 0.000000
-0.058395 0.822438 3.795609 0.000000 0.000000 0.000000
-0.064805 0.824197 3.769942 0.000000 0.000000 0.000000
-0.061273 0.826423 3.804407 0.000000 0.000000 0.000000
-0.078034 0.837065 3.793185 0.000000 0.000000 0.000000
-0.067373 0.828884 3.780387 0.000000 0.000000 0.000000
-0.052981 0.821218 3.790646 0.000000 0.000000 0.000000
0.492307 0.669271 3.056114 0.000000 0.000000 0.000000
0.494526 0.650467 3.093379 0.000000 0.000000 0.000000
0.493417 0.645817 3.089677 0.000000 0.000000 0.000000
0.487965 0.672982 3.100729 0.000000 0.000000 0.000000
0.472153 0.672528 3.042849 0.000000 0.000000 0.000000
0.494684 0.648226 3.099762 0.000000 0.000000 0.000000
0.484162 0.695918 3.067018 0.000000 0.000000 0.000000
0.483128 0.670414 3.027364 0.000000 0.000000 0.000000
0.470133 0.670914 3.040453 0.000000 0.000000 0.000000
0.495754 0.670328 3.083333 0.000000 0.000000 0.000000
0.483829 0.689340 3.078692 0.000000 0.000000 0.000000
0.486206 0.692521 3.090426 0.000000 0.000000 0.000000
0.497337 0.668689 3.095446 0.000000 0.000000 0.000000
0.491214 0.648038 3.067856 0.000000 0.000000 0.000000
0.501546 0.667919 3.096383 0.000000 0.000000 0.000000
0.490003 0.668207 3.060379 0.000000 0.000000 0.000000
0.491043 0.652272 3.076755 0.000000 0.000000 0.000000
0.474269 0.674140 3.061207 0.000000 0.000000 0.000000
0.498709 0.666123 3.067138 0.000000 0.000000 0.000000
0.480937 0.674390 3.088877 0.000000 0.000000 0.000000
0.492091 0.642992 3.097428 0.000000 0.000000 0.000000
0.506363 0.675730 3.115262 0.000000 0.000000 0.000000
0.486350 0.693449 3.066955 0.000000 0.000000 0.000000
0.474630 0.664061 3.067869 0.000000 0.000000 0.000000
0.517879 0.648966 3.112112 0.000000 0.000000 0.000000
0.481635 0.679327 3.086330 0.000000 0.000000 0.000000
0.482916 0.667664 3.049371 0.000000 0.000000 0.000000
0.491631 0.645648 3.109130 0.000000 0.000000 0.000000
0.502291 0.643077 3.115628 0.000000 0.000000 0.000000
0.495667 0.680184 3.084549 0.000000 0.000000 0.000000
0.496633 0.674541 3.075063 0.000000 0.000000 0.000000
0.485575 0.668697 3.083777 0.000000 0.000000 0.000000
0.488786 0.685160 3.102270 0.000000 0.000000 0.000000
0.482586 0.670802 3.081504 0.000000 0.000000 0.000000
0.494122 0.664214 3.118044 0.000000 0.000000 0.000000
0.486263 0.662105 3.042217 0.000000 0.000000 0.000000
0.494596 0.649960 3.063992 0.000000 0.000000 0.000000
0.489570 0.648906 3.041014 0.000000 0.000000 0.000000
0.494744 0.654565 3.102064 0.000000 0.000000 0.000000
0.494658 0.653494 3.038721 0.000000 0.000000 0.000000
0.488252 0.656166 3.041229 0.000000 0.000000 0.000000
0.490900 0.680367 3.102473 0.000000 0.000000 0.000000
0.513022 0.643922 3.115262 0.000000 0.000000 0.000000
0.494347 0.665863 3.093171 0.000000 0.000000 0.000000
0.495765 0.640079 3.089291 0.000000 0.000000 0.000000
0.486159 0.658364 3.096698 0.000000 0.000000 0.000000
0.490446 0.661411 3.103321 0.000000 0.000000 0.000000
0.480463 0.698412 3.080577 0.000000 0.000000 0.000000
0.489704 0.647301 3.046137 0.000000 0.000000 0.000000
0.483245 0.660331 3.030977 0.000000 0.000000 0.000000
0.510932 0.659313 3.113932 0.000000 0.000000 0.000000
0.490151 0.646808 3.066219 0.000000 0.000000 0.000000
0.483190 0.677936 3.034045 0.000000 0.000000 0.000000
0.484536 0.661247 3.033774 0.000000 0.000000 0.000000
0.483603 0.645583 3.072781 0.000000 0.000000 0.000000
0.479526 0.654979 3.065557 0.000000 0.000000 0.000000
0.489272 0.648451 3.047893 0.000000 0.000000 0.000000
0.490602 0.689766 3.085663 0.000000 0.000000 0.000000
0.477775 0.655384 3.081287 0.000000 0.000000 0.000000
0.473470 0.645002 3.067735 0.000000 0.000000 0.000000
0.488911 0.641821 3.077273 0.000000 0.000000 0.000000
0.484801 0.636887 3.050382 0.000000 0.000000 0.000000
0.483081 0.666621 3.027725 0.000000 0.000000 0.000000
0.489612 0.678155 3.063524 0.000000 0.000000 0.000000
0.470593 0.653925 3.050142 0.000000 0.000000 0.000000
0.491629 0.673415 3.111588 0.000000 0.000000 0.000000
0.489268 0.653691 3.042769 0.000000 0.000000 0.000000
0.490717 0.644915 3.047244 0.000000 0.000000 0.000000
0.489731 0.647626 3.060811 0.000000 0.000000 0.000000
0.495555 0.679521 3.116090 0.000000 0.000000 0.000000
0.495307 0.660175 3.087101 0.000000 0.000000 0.000000
0.495151 0.689072 3.105768 0.000000 0.000000 0.000000
0.498812 0.661760 3.078369 0.000000 0.000000 0.000000
0.488254 0.694618 3.073541 0.000000 0.000000 0.000000
0.499922 0.660500 3.084277 0.000000 0.000000 0.000000
0.486258 0.647076 3.084224 0.000000 0.000000 0.000000
0.484854 0.657874 3.042979 0.000000 0.000000 0.000000
0.480552 0.696492 3.062584 0.000000 0.000000 0.000000
0.485422 0.678970 3.057011 0.000000 0.000000 0.000000
0.493217 0.685703 3.117183 0.000000 0.000000 0.000000
0.488187 0.682814 3.091045 0.000000 0.000000 0.000000
0.470289 0.666250 3.052347 0.000000 0.000000 0.000000
0.481923 0.658072 3.027171 0.000000 0.000000 0.000000
0.486870 0.679220 3.047564 0.000000 0.000000 0.000000
0.500247 0.657396 3.078980 0.000000 0.000000 0.000000
0.496669 0.675858 3.083968 0.000000 0.000000 0.000000
0.469283 0.675026 3.047640 0.000000 0.000000 0.000000
0.494994 0.659996 3.117978 0.000000 0.000000 0.000000
0.484164 0.692349 3.059628 0.000000 0.000000 0.000000
0.497661 0.657887 3.063985 0.000000 0.000000 0.000000
0.501464 0.660281 3.050696 0.000000 0.000000 0.000000
0.483234 0.685662 3.048124 0.000000 0.000000 0.000000
0.483741 0.692151 3.063349 0.000000 0.000000 0.000000
0.496207 0.653822 3.086272 0.000000 0.000000 0.000000
0.476197 0.654410 3.071344 0.000000 0.000000 0.000000
0.485103 0.644715 3.063240 0.000000 0.000000 0.000000
0.475420 0.643849 3.079518 0.000000 0.000000 0.000000
0.492121 0.676666 3.111854 0.000000 0.000000 0.000000
0.476369 0.646856 3.093204 0.000000 0.000000 0.000000
0.486777 0.680519 3.099783 0.000000 0.000000 0.000000
0.479271 0.646372 3.061975 0.000000 0.000000 0.000000
0.479466 0.653121 3.079574 0.000000 0.000000 0.000000
0.489410 0.685850 3.066071 0.000000 0.000000 0.000000
0.495487 0.684308 3.092259 0.000000 0.000000 0.000000
0.484754 0.685595 3.091262 0.000000 0.000000 0.000000
0.504684 0.680206 3.125077 0.000000 0.000000 0.000000
0.480215 0.640484 3.076295 0.000000 0.000000 0.000000
0.505613 0.665831 3.105542 0.000000 0.000000 0.000000
0.507183 0.671290 3.108998 0.000000 0.000000 0.000000
0.513314 0.677976 3.092119 0.000000 0.000000 0.000000
0.492526 0.689205 3.089237 0.000000 0.000000 0.000000
0.489465 0.642960 3.064215 0.000000 0.000000 0.000000
0.498812 0.665644 3.098215 0.000000 0.000000 0.000000
0.501592 0.679950 3.096468 0.000000 0.000000 0.000000
0.478855 0.651200 3.062440 0.000000 0.000000 0.000000
0.512018 0.667326 3.119191 0.000000 0.000000 0.000000
0.512994 0.664156 3.113703 0.000000 0.000000 0.000000
0.504745 0.677495 3.111278 0.000000 0.000000 0.000000
0.502952 0.681805 3.115091 0.000000 0.000000 0.000000
0.492589 0.672122 3.116976 0.000000 0.000000 0.000000
0.485789 0.692189 3.081390 0.000000 0.000000 0.000000
0.496884 0.680930 3.111487 0.000000 0.000000 0.000000
0.479913 0.644304 3.081523 0.000000 0.000000 0.000000
0.489141 0.647683 3.069894 0.000000 0.000000 0.000000
0.483381 0.692375 3.079628 0.000000 0.000000 0.000000
0.488956 0.672004 3.061971 0.000000 0.000000 0.000000
0.498417 0.646737 3.093626 0.000000 0.000000 0.000000
0.479750 0.653276 3.040286 0.000000 0.000000 0.000000
0.480655 0.689061 3.050516 0.000000 0.000000 0.000000
0.483622 0.688429 3.086065 0.000000 0.000000 0.000000
0.482659 0.647436 3.091409 0.000000 0.000000 0.000000
0.480759 0.660298 3.025231 0.000000 0.000000 0.000000
0.470540 0.667924 3.051195 0.000000 0.000000 0.000000
0.488808 0.683461 3.101004 0.000000 0.000000 0.000000
0.486871 0.644176 3.050136 0.000000 0.000000 0.000000
0.486810 0.695117 3.080209 0.000000 0.000000 0.000000
0.474359 0.660828 3.046348 0.000000 0.000000 0.000000
0.469055 0.645705 3.072416 0.000000 0.000000 0.000000
0.476059 0.648418 3.042961 0.000000 0.000000 0.000000
0.486441 0.693647 3.083349 0.000000 0.000000 0.000000
0.498470 0.682196 3.111692 0.000000 0.000000 0.000000
0.493710 0.676806 3.106535 0.000000 0.000000 0.000000
0.504187 0.647689 3.091424 0.000000 0.000000 0.000000
0.488791 0.643801 3.092123 0.000000 0.000000 0.000000
0.501924 0.663725 3.104025 0.000000 0.000000 0.000000
0.500400 0.671015 3.099818 0.000000 0.000000 0.000000
0.494835 0.680209 3.120424 0.000000 0.000000 0.000000
0.490950 0.691384 3.091524 0.000000 0.000000 0.000000
0.463283 0.654354 3.058190 0.000000 0.000000 0.000000
0.478990 0.646512 3.047924 0.000000 0.000000 0.000000
0.469459 0.655273 3.043236 0.000000 0.000000 0.000000
0.500329 0.658903 3.088649 0.000000 0.000000 0.000000
0.501446 0.670605 3.106765 0.000000 0.000000 0.000000
0.490915 0.662265 3.093282 0.000000 0.000000 0.000000
0.498084 0.667507 3.098268 0.000000 0.000000 0.000000
0.505069 0.645318 3.086521 0.000000 0.000000 0.000000
0.484826 0.639186 3.057389 0.000000 0.000000 0.000000
0.510491 0.652591 3.105520 0.000000 0.000000 0.000000
0.501315 0.678236 3.104557 0.000000 0.000000 0.000000
0.494046 0.685145 3.107476 0.000000 0.000000 0.000000
0.471159 0.658474 3.055072 0.000000 0.000000 0.000000
0.481703 0.645653 3.058563 0.000000 0.000000 0.000000
0.458998 0.651222 3.047455 0.000000 0.000000 0.000000
0.502964 0.642435 3.088294 0.000000 0.000000 0.000000
0.496095 0.683759 3.103758 0.000000 0.000000 0.000000
0.482626 0.649390 3.017999 0.000000 0.000000 0.000000
0.481098 0.644788 3.013982 0.000000 0.000000 0.000000
0.494261 0.647369 3.076100 0.000000 0.000000 0.000000
0.498373 0.682134 3.110810 0.000000 0.000000 0.000000
0.483743 0.641024 3.031850 0.000000 0.000000 0.000000
0.488159 0.646931 3.036638 0.000000 0.000000 0.000000
0.502858 0.658345 3.096655 0.000000 0.000000 0.000000
0.514417 0.650839 3.109427 0.000000 0.000000 0.000000
0.474319 0.647551 3.044901 0.000000 0.000000 0.000000
0.490458 0.642993 3.054468 0.000000 0.000000 0.000000
0.493962 0.641236 3.064857 0.000000 0.000000 0.000000
0.519443 0.643781 3.109917 0.000000 0.000000 0.000000
0.501642 0.683807 3.107879 0.000000 0.000000 0.000000
0.493104 0.655209 3.047489 0.000000 0.000000 0.000000
0.492219 0.661131 3.055011 0.000000 0.000000 0.000000
0.499000 0.642240 3.059749 0.000000 0.000000 0.000000
0.472452 0.652955 3.049085 0.000000 0.000000 0.000000
0.483380 0.640403 3.026010 0.000000 0.000000 0.000000
0.486537 0.650873 3.031055 0.000000 0.000000 0.000000
0.484185 0.656233 3.023650 0.000000 0.000000 0.000000
0.494137 0.653146 3.061376 0.000000 0.000000 0.000000
0.492744 0.652165 3.057352 0.000000 0.000000 0.000000
0.492583 0.654268 3.055676 0.000000 0.000000 0.000000
0.488876 0.643707 3.075854 0.000000 0.000000 0.000000
0.470198 0.656008 3.049190 0.000000 0.000000 0.000000
0.474854 0.654110 3.053404 0.000000 0.000000 0.000000
0.489405 0.641403 3.031805 0.000000 0.000000 0.000000
0.485626 0.657904 3.036336 0.000000 0.000000 0.000000
0.486210 0.647272 3.032037 0.000000 0.000000 0.000000
0.480950 0.650470 3.077215 0.000000 0.000000 0.000000
0.479516 0.669964 3.084730 0.000000 0.000000 0.000000
0.472764 0.653984 3.054106 0.000000 0.000000 0.000000
0.478743 0.646928 3.040118 0.000000 0.000000 0.000000
0.474569 0.647283 3.059902 0.000000 0.000000 0.000000
0.476056 0.661759 3.077724 0.000000 0.000000 0.000000
0.471807 0.648066 3.056785 0.000000 0.000000 0.000000
0.477082 0.678424 3.072492 0.000000 0.000000 0.000000
0.469582 0.661753 3.055579 0.000000 0.000000 0.000000
0.483965 0.648279 3.025219 0.000000 0.000000 0.000000
0.475854 0.654641 3.073880 0.000000 0.000000 0.000000
0.479488 0.644678 3.046819 0.000000 0.000000 0.000000
0.496819 0.691775 3.121414 0.000000 0.000000 0.000000
0.509600 0.649021 3.101362 0.000000 0.000000 0.000000
0.480736 0.645222 3.050049 0.000000 0.000000 0.000000
0.493717 0.654105 3.046130 0.000000 0.000000 0.000000
0.486520 0.664562 3.102406 0.000000 0.000000 0.000000
0.493714 0.644782 3.063399 0.000000 0.000000 0.000000
0.495663 0.651644 3.062845 0.000000 0.000000 0.000000
0.486365 0.654292 3.102576 0.000000 0.000000 0.000000
0.492385 0.698349 3.103028 0.000000 0.000000 0.000000
0.489156 0.646177 3.043535 0.000000 0.000000 0.000000
0.485794 0.665295 3.100448 0.000000 0.000000 0.000000
0.490823 0.678925 3.099604 0.000000 0.000000 0.000000
0.505557 0.682153 3.131635 0.000000 0.000000 0.000000
0.508444 0.664142 3.104066 0.000000 0.000000 0.000000
0.496634 0.644212 3.118131 0.000000 0.000000 0.000000
0.491520 0.645756 3.104145 0.000000 0.000000 0.000000
0.480954 0.705911 3.056607 0.000000 0.000000 0.000000
0.497151 0.653309 3.117536 0.000000 0.000000 0.000000
0.498841 0.667312 3.073570 0.000000 0.000000 0.000000
0.492125 0.680944 3.075999 0.000000 0.000000 0.000000
0.483986 0.648761 3.065504 0.000000 0.000000 0.000000
0.481561 0.650399 3.026434 0.000000 0.000000 0.000000
0.485498 0.639426 3.049881 0.000000 0.000000 0.000000
0.481072 0.651388 3.014048 0.000000 0.000000 0.000000
0.481335 0.644055 3.019849 0.000000 0.000000 0.000000
0.481464 0.647706 3.026479 0.000000 0.000000 0.000000
0.498178 0.670830 3.077735 0.000000 0.000000 0.000000
0.483398 0.663928 3.023750 0.000000 0.000000 0.000000
0.482654 0.651651 3.011225 0.000000 0.000000 0.000000
0.501092 0.660623 3.069493 0.000000 0.000000 0.000000
0.480453 0.643550 3.060065 0.000000 0.000000 0.000000
0.493469 0.640735 3.071785 0.000000 0.000000 0.000000
0.491082 0.636645 3.063838 0.000000 0.000000 0.000000
0.491025 0.638299 3.078093 0.000000 0.000000 0.000000
0.482468 0.642167 3.085455 0.000000 0.000000 0.000000
0.496332 0.639257 3.079338 0.000000 0.000000 0.000000
0.491647 0.640054 3.065050 0.000000 0.000000 0.000000
0.493081 0.635056 3.068663 0.000000 0.000000 0.000000
0.472122 0.654185 3.040554 0.000000 0.000000 0.000000
0.478077 0.648103 3.042214 0.000000 0.000000 0.000000
0.459832 0.658034 3.047465 0.000000 0.000000 0.000000
0.468926 0.670543 3.050382 0.000000 0.000000 0.000000
0.500459 0.641063 3.094882 0.000000 0.000000 0.000000
0.494237 0.639252 3.074203 0.000000 0.000000 0.000000
0.493033 0.640486 3.088727 0.000000 0.000000 0.000000
0.492789 0.640444 3.077260 0.000000 0.000000 0.000000
0.489814 0.665876 3.107830 0.000000 0.000000 0.000000
0.486521 0.660868 3.102249 0.000000 0.000000 0.000000
0.487797 0.694809 3.094521 0.000000 0.000000 0.000000
0.501551 0.651640 3.090996 0.000000 0.000000 0.000000
0.465513 0.669778 3.062167 0.000000 0.000000 0.000000
0.488405 0.652488 3.097334 0.000000 0.000000 0.000000
0.484976 0.656473 3.088432 0.000000 0.000000 0.000000
0.490655 0.684364 3.107559 0.000000 0.000000 0.000000
0.467716 0.660104 3.075832 0.000000 0.000000 0.000000
0.478502 0.665475 3.084968 0.000000 0.000000 0.000000
0.489120 0.655132 3.105653 0.000000 0.000000 0.000000
0.478272 0.645256 3.047726 0.000000 0.000000 0.000000
0.495814 0.681806 3.117614 0.000000 0.000000 0.000000
0.463050 0.678264 3.044039 0.000000 0.000000 0.000000
0.480452 0.657825 3.066515 0.000000 0.000000 0.000000
0.497137 0.682552 3.120043 0.000000 0.000000 0.000000
0.476937 0.649893 3.041047 0.000000 0.000000 0.000000
