ply
format ascii 1.0
comment VCGLIB generated
obj_info Generated by SPFormer!
element vertex 566
property float x
property float y
property float z
property float nx
property float ny
property float nz
end_header
1.431352 0.518354 0.670266 0.000000 0.000000 0.000000
-0.096276 0.157604 0.135860 0.000000 0.000000 0.000000
-0.471283 0.500776 0.586788 0.000000 0.000000 0.000000
1.448391 0.529988 0.687141 0.000000 0.000000 0.000000
-0.400431 1.087971 1.554931 0.000000 0.000000 0.000000
-0.409611 1.097857 1.558771 0.000000 0.000000 0.000000
-0.002840 0.637232 0.539479 0.000000 0.000000 0.000000
1.439927 0.519987 0.669222 0.000000 0.000000 0.000000
-0.124347 0.136241 0.148205 0.000000 0.000000 0.000000
-0.135478 0.151906 0.120487 0.000000 0.000000 0.000000
-0.117337 0.150508 0.141929 0.000000 0.000000 0.000000
-0.120650 0.126107 0.122438 0.000000 0.000000 0.000000
-0.169208 0.170096 0.092491 0.000000 0.000000 0.000000
1.435963 0.518031 0.675815 0.000000 0.000000 0.000000
-0.147983 0.152487 0.126013 0.000000 0.000000 0.000000
-0.114212 0.132129 0.158996 0.000000 0.000000 0.000000
1.439816 0.502014 0.665777 0.000000 0.000000 0.000000
-0.165424 0.224700 0.114333 0.000000 0.000000 0.000000
-0.127316 0.153706 0.139984 0.000000 0.000000 0.000000
1.435278 0.488551 0.674728 0.000000 0.000000 0.000000
-0.123783 0.122354 0.156777 0.000000 0.000000 0.000000
-0.117175 0.115433 0.148643 0.000000 0.000000 0.000000
-0.134046 0.138924 0.152336 0.000000 0.000000 0.000000
-0.129825 0.136263 0.156885 0.000000 0.000000 0.000000
-0.133014 0.135079 0.143784 0.000000 0.000000 0.000000
-0.124458 0.145838 0.157676 0.000000 0.000000 0.000000
-0.128708 0.123097 0.153978 0.000000 0.000000 0.000000
-0.129766 0.159666 0.140774 0.000000 0.000000 0.000000
-0.125706 0.139648 0.145175 0.000000 0.000000 0.000000
-0.402296 1.090288 1.557068 0.000000 0.000000 0.000000
-0.142165 0.127223 0.123141 0.000000 0.000000 0.000000
1.433279 0.501477 0.675650 0.000000 0.000000 0.000000
1.446594 0.526263 0.681045 0.000000 0.000000 0.000000
1.439635 0.518060 0.673924 0.000000 0.000000 0.000000
1.434941 0.517899 0.668911 0.000000 0.000000 0.000000
1.432271 0.518594 0.678461 0.000000 0.000000 0.000000
1.439433 0.513527 0.662952 0.000000 0.000000 0.000000
1.437723 0.517276 0.669439 0.000000 0.000000 0.000000
1.445510 0.520334 0.680292 0.000000 0.000000 0.000000
-0.123780 0.144546 0.167631 0.000000 0.000000 0.000000
-0.116418 0.152217 0.126302 0.000000 0.000000 0.000000
1.424753 0.498149 0.668803 0.000000 0.000000 0.000000
-0.405552 1.094191 1.558609 0.000000 0.000000 0.000000
-0.132561 0.130655 0.156077 0.000000 0.000000 0.000000
-0.402839 1.092690 1.557842 0.000000 0.000000 0.000000
-0.116857 0.150335 0.143608 0.000000 0.000000 0.000000
-0.130428 0.122493 0.127544 0.000000 0.000000 0.000000
-0.170439 0.182586 0.097242 0.000000 0.000000 0.000000
-0.414487 1.100423 1.557973 0.000000 0.000000 0.000000
-0.415681 1.106310 1.559339 0.000000 0.000000 0.000000
-0.158761 0.153016 0.124835 0.000000 0.000000 0.000000
-0.166736 0.161342 0.098663 0.000000 0.000000 0.000000
0.017126 0.642403 0.545216 0.000000 0.000000 0.000000
-0.122148 0.134349 0.161888 0.000000 0.000000 0.000000
-0.110494 0.147082 0.138687 0.000000 0.000000 0.000000
-0.183746 0.181535 0.092262 0.000000 0.000000 0.000000
-0.195221 0.197492 0.081973 0.000000 0.000000 0.000000
-0.160589 0.166636 0.097573 0.000000 0.000000 0.000000
-0.161253 0.174426 0.105841 0.000000 0.000000 0.000000
0.014625 0.632444 0.550331 0.000000 0.000000 0.000000
-0.112374 0.150826 0.134613 0.000000 0.000000 0.000000
-0.113886 0.157260 0.129470 0.000000 0.000000 0.000000
-0.112153 0.151534 0.133621 0.000000 0.000000 0.000000
-0.124856 0.127985 0.156642 0.000000 0.000000 0.000000
-0.119253 0.130923 0.157536 0.000000 0.000000 0.000000
-0.120734 0.133579 0.152317 0.000000 0.000000 0.000000
-0.118230 0.144880 0.154395 0.000000 0.000000 0.000000
-0.130134 0.149422 0.164147 0.000000 0.000000 0.000000
-0.126808 0.140034 0.164934 0.000000 0.000000 0.000000
-0.134905 0.130088 0.150422 0.000000 0.000000 0.000000
1.422719 0.502131 0.679502 0.000000 0.000000 0.000000
1.425817 0.504511 0.679496 0.000000 0.000000 0.000000
-0.163169 0.232735 0.113726 0.000000 0.000000 0.000000
-0.167319 0.168003 0.111750 0.000000 0.000000 0.000000
-0.154847 0.146622 0.126831 0.000000 0.000000 0.000000
-0.120511 0.140253 0.156807 0.000000 0.000000 0.000000
-0.122286 0.154157 0.137374 0.000000 0.000000 0.000000
-0.171425 0.229494 0.105063 0.000000 0.000000 0.000000
0.011985 0.634268 0.534374 0.000000 0.000000 0.000000
-0.132958 0.154776 0.128091 0.000000 0.000000 0.000000
0.017305 0.633792 0.541814 0.000000 0.000000 0.000000
1.444498 0.522449 0.689167 0.000000 0.000000 0.000000
-0.124631 0.151596 0.148245 0.000000 0.000000 0.000000
-0.125084 0.139433 0.162860 0.000000 0.000000 0.000000
-0.110192 0.147240 0.155884 0.000000 0.000000 0.000000
-0.107144 0.158230 0.127154 0.000000 0.000000 0.000000
-0.103335 0.154653 0.137414 0.000000 0.000000 0.000000
-0.430967 1.094566 1.526440 0.000000 0.000000 0.000000
-0.124622 0.124492 0.154880 0.000000 0.000000 0.000000
-0.120704 0.128955 0.152056 0.000000 0.000000 0.000000
-0.406059 1.096535 1.559964 0.000000 0.000000 0.000000
-0.001977 0.638528 0.548757 0.000000 0.000000 0.000000
1.423845 0.506695 0.676961 0.000000 0.000000 0.000000
-0.420500 1.109673 1.559619 0.000000 0.000000 0.000000
-0.174445 0.184877 0.086556 0.000000 0.000000 0.000000
-0.185101 0.182889 0.086340 0.000000 0.000000 0.000000
1.425263 0.488632 0.679888 0.000000 0.000000 0.000000
-0.143271 0.146866 0.128941 0.000000 0.000000 0.000000
-0.140573 0.144210 0.138068 0.000000 0.000000 0.000000
-0.150169 0.141904 0.127912 0.000000 0.000000 0.000000
-0.163378 0.190539 0.080942 0.000000 0.000000 0.000000
-0.162910 0.189867 0.080650 0.000000 0.000000 0.000000
-0.178044 0.185962 0.087444 0.000000 0.000000 0.000000
-0.112551 0.135741 0.159821 0.000000 0.000000 0.000000
0.005003 0.638411 0.545617 0.000000 0.000000 0.000000
-0.004042 0.641228 0.538925 0.000000 0.000000 0.000000
-0.009403 0.644441 0.538069 0.000000 0.000000 0.000000
0.002198 0.638245 0.551268 0.000000 0.000000 0.000000
-0.113471 0.150051 0.156460 0.000000 0.000000 0.000000
-0.138426 0.153551 0.131998 0.000000 0.000000 0.000000
1.428773 0.516306 0.665540 0.000000 0.000000 0.000000
-0.148791 0.146883 0.136511 0.000000 0.000000 0.000000
0.005021 0.641409 0.538528 0.000000 0.000000 0.000000
0.004318 0.635651 0.538567 0.000000 0.000000 0.000000
-0.163392 0.177913 0.098872 0.000000 0.000000 0.000000
0.014163 0.637839 0.546601 0.000000 0.000000 0.000000
-0.125089 0.132087 0.154777 0.000000 0.000000 0.000000
-0.144024 0.152379 0.131966 0.000000 0.000000 0.000000
-0.123710 0.127416 0.161831 0.000000 0.000000 0.000000
-0.132755 0.135833 0.147471 0.000000 0.000000 0.000000
-0.408969 1.092568 1.557431 0.000000 0.000000 0.000000
-0.143331 0.150794 0.121026 0.000000 0.000000 0.000000
1.442680 0.523625 0.690218 0.000000 0.000000 0.000000
-0.113191 0.113749 0.150121 0.000000 0.000000 0.000000
0.003674 0.640962 0.538703 0.000000 0.000000 0.000000
-0.168859 0.180167 0.098199 0.000000 0.000000 0.000000
-0.167387 0.177581 0.099738 0.000000 0.000000 0.000000
-0.174440 0.175333 0.099035 0.000000 0.000000 0.000000
-0.165785 0.186921 0.098001 0.000000 0.000000 0.000000
-0.167850 0.178331 0.107791 0.000000 0.000000 0.000000
-0.170768 0.178459 0.100582 0.000000 0.000000 0.000000
-0.170104 0.185796 0.094409 0.000000 0.000000 0.000000
-0.165109 0.172024 0.112830 0.000000 0.000000 0.000000
-0.124576 0.143559 0.120156 0.000000 0.000000 0.000000
-0.127542 0.152710 0.124235 0.000000 0.000000 0.000000
-0.130268 0.152086 0.120589 0.000000 0.000000 0.000000
-0.177822 0.194072 0.084836 0.000000 0.000000 0.000000
-0.125634 0.141266 0.127093 0.000000 0.000000 0.000000
-0.131216 0.140542 0.120986 0.000000 0.000000 0.000000
-0.181859 0.192446 0.084824 0.000000 0.000000 0.000000
-0.177533 0.193910 0.086665 0.000000 0.000000 0.000000
-0.116940 0.159081 0.130477 0.000000 0.000000 0.000000
-0.008521 0.651546 0.548505 0.000000 0.000000 0.000000
-0.404038 1.100332 1.558387 0.000000 0.000000 0.000000
-0.000110 0.642717 0.550628 0.000000 0.000000 0.000000
1.498761 0.496633 0.834240 0.000000 0.000000 0.000000
1.451148 0.524049 0.685101 0.000000 0.000000 0.000000
1.450944 0.527892 0.701213 0.000000 0.000000 0.000000
1.460468 0.524968 0.691468 0.000000 0.000000 0.000000
1.457924 0.529651 0.682605 0.000000 0.000000 0.000000
1.476034 0.531321 0.709662 0.000000 0.000000 0.000000
1.467839 0.535662 0.681307 0.000000 0.000000 0.000000
1.444017 0.526085 0.697322 0.000000 0.000000 0.000000
1.456151 0.528327 0.682410 0.000000 0.000000 0.000000
1.452537 0.527450 0.685018 0.000000 0.000000 0.000000
1.462688 0.529533 0.680347 0.000000 0.000000 0.000000
1.406473 0.584340 0.772313 0.000000 0.000000 0.000000
1.423370 0.516859 0.679446 0.000000 0.000000 0.000000
0.855057 -0.007899 -0.079016 0.000000 0.000000 0.000000
0.859666 -0.005558 -0.074833 0.000000 0.000000 0.000000
0.868051 -0.003834 -0.075938 0.000000 0.000000 0.000000
0.859018 -0.002645 -0.079876 0.000000 0.000000 0.000000
0.862408 -0.002875 -0.071160 0.000000 0.000000 0.000000
0.861227 -0.007917 -0.077654 0.000000 0.000000 0.000000
0.856443 -0.002058 -0.079770 0.000000 0.000000 0.000000
0.845767 -0.007941 -0.070277 0.000000 0.000000 0.000000
0.848450 -0.005588 -0.066513 0.000000 0.000000 0.000000
0.857364 -0.000352 -0.066582 0.000000 0.000000 0.000000
0.860448 -0.001726 -0.074484 0.000000 0.000000 0.000000
0.844100 -0.011325 -0.071017 0.000000 0.000000 0.000000
0.859062 -0.003512 -0.067474 0.000000 0.000000 0.000000
0.853437 -0.006608 -0.060962 0.000000 0.000000 0.000000
0.845008 -0.017416 -0.068138 0.000000 0.000000 0.000000
0.851267 -0.001953 -0.067796 0.000000 0.000000 0.000000
0.847522 -0.008632 -0.061667 0.000000 0.000000 0.000000
0.864955 -0.010471 -0.075531 0.000000 0.000000 0.000000
0.712097 -0.113447 0.011370 0.000000 0.000000 0.000000
0.869929 -0.004184 -0.046170 0.000000 0.000000 0.000000
0.876561 -0.006880 -0.045339 0.000000 0.000000 0.000000
0.874467 -0.029016 -0.040270 0.000000 0.000000 0.000000
0.754893 -0.024176 -0.034207 0.000000 0.000000 0.000000
0.863169 -0.004366 -0.057071 0.000000 0.000000 0.000000
0.861370 -0.007422 -0.046444 0.000000 0.000000 0.000000
0.873849 -0.016191 -0.042368 0.000000 0.000000 0.000000
0.750366 -0.000264 -0.024776 0.000000 0.000000 0.000000
0.865664 -0.001463 -0.058166 0.000000 0.000000 0.000000
0.871259 -0.005381 -0.054014 0.000000 0.000000 0.000000
0.862620 -0.016203 -0.043562 0.000000 0.000000 0.000000
0.868688 -0.010277 -0.053502 0.000000 0.000000 0.000000
0.742940 -0.025937 -0.025630 0.000000 0.000000 0.000000
0.855188 -0.028090 -0.042229 0.000000 0.000000 0.000000
0.863200 -0.004821 -0.047400 0.000000 0.000000 0.000000
0.875585 -0.010282 -0.042906 0.000000 0.000000 0.000000
0.868236 -0.000356 -0.056922 0.000000 0.000000 0.000000
0.868228 -0.014294 -0.040033 0.000000 0.000000 0.000000
0.874583 -0.004315 -0.048309 0.000000 0.000000 0.000000
0.738276 -0.029581 -0.025676 0.000000 0.000000 0.000000
0.747423 -0.033203 -0.036310 0.000000 0.000000 0.000000
0.748945 -0.036083 -0.033575 0.000000 0.000000 0.000000
0.751391 -0.027883 -0.028265 0.000000 0.000000 0.000000
0.867455 -0.005153 -0.055652 0.000000 0.000000 0.000000
0.875287 -0.013924 -0.041046 0.000000 0.000000 0.000000
0.876214 -0.010432 -0.048304 0.000000 0.000000 0.000000
0.739605 -0.033458 -0.025902 0.000000 0.000000 0.000000
0.741476 -0.029569 -0.031118 0.000000 0.000000 0.000000
0.864989 -0.002131 -0.054389 0.000000 0.000000 0.000000
0.867040 -0.004352 -0.049468 0.000000 0.000000 0.000000
0.862773 -0.003982 -0.051436 0.000000 0.000000 0.000000
0.735545 -0.036742 -0.026143 0.000000 0.000000 0.000000
0.870429 -0.004164 -0.053061 0.000000 0.000000 0.000000
0.841171 -0.016834 -0.041491 0.000000 0.000000 0.000000
0.870893 -0.015537 -0.055399 0.000000 0.000000 0.000000
0.873950 -0.008522 -0.052064 0.000000 0.000000 0.000000
0.846644 -0.008378 -0.042599 0.000000 0.000000 0.000000
0.873549 -0.000473 -0.054917 0.000000 0.000000 0.000000
0.845208 -0.037503 -0.048181 0.000000 0.000000 0.000000
0.743683 -0.015696 -0.030898 0.000000 0.000000 0.000000
0.739008 -0.022638 -0.035734 0.000000 0.000000 0.000000
0.745298 -0.029551 -0.026796 0.000000 0.000000 0.000000
0.748630 -0.023751 -0.034249 0.000000 0.000000 0.000000
0.742264 -0.028369 -0.023028 0.000000 0.000000 0.000000
0.751602 -0.021428 -0.034098 0.000000 0.000000 0.000000
0.739020 -0.033640 -0.029893 0.000000 0.000000 0.000000
0.741600 -0.038398 -0.028582 0.000000 0.000000 0.000000
0.750542 -0.037135 -0.033722 0.000000 0.000000 0.000000
0.751328 -0.017639 -0.037055 0.000000 0.000000 0.000000
0.742298 -0.017818 -0.028056 0.000000 0.000000 0.000000
0.748339 -0.026947 -0.029876 0.000000 0.000000 0.000000
0.738669 -0.033989 -0.025630 0.000000 0.000000 0.000000
0.743792 -0.026568 -0.031623 0.000000 0.000000 0.000000
0.757922 -0.027150 -0.034685 0.000000 0.000000 0.000000
0.740360 -0.034755 -0.023370 0.000000 0.000000 0.000000
0.739387 -0.035436 -0.030275 0.000000 0.000000 0.000000
0.738332 -0.030388 -0.027239 0.000000 0.000000 0.000000
0.861228 -0.008114 -0.042792 0.000000 0.000000 0.000000
0.739596 -0.034023 -0.028851 0.000000 0.000000 0.000000
0.855809 -0.032339 -0.041186 0.000000 0.000000 0.000000
0.845353 -0.003654 -0.049523 0.000000 0.000000 0.000000
0.741169 -0.030323 -0.035837 0.000000 0.000000 0.000000
0.744013 -0.027518 -0.031461 0.000000 0.000000 0.000000
0.744203 -0.024010 -0.033364 0.000000 0.000000 0.000000
0.740420 -0.034967 -0.034324 0.000000 0.000000 0.000000
0.755837 -0.029435 -0.036114 0.000000 0.000000 0.000000
0.862205 -0.014097 -0.042677 0.000000 0.000000 0.000000
0.853937 -0.003908 -0.047566 0.000000 0.000000 0.000000
0.861569 -0.002306 -0.045432 0.000000 0.000000 0.000000
0.840448 -0.006955 -0.052626 0.000000 0.000000 0.000000
0.866605 -0.011794 -0.046738 0.000000 0.000000 0.000000
0.852841 -0.004877 -0.051725 0.000000 0.000000 0.000000
0.859238 -0.000367 -0.049972 0.000000 0.000000 0.000000
0.757819 -0.021133 -0.036915 0.000000 0.000000 0.000000
0.851993 -0.010810 -0.056769 0.000000 0.000000 0.000000
0.872711 -0.029225 -0.043138 0.000000 0.000000 0.000000
0.871214 -0.008473 -0.045567 0.000000 0.000000 0.000000
0.867512 -0.025508 -0.048958 0.000000 0.000000 0.000000
0.866785 -0.039350 -0.043132 0.000000 0.000000 0.000000
0.863219 -0.029737 -0.050635 0.000000 0.000000 0.000000
0.849702 -0.006693 -0.053061 0.000000 0.000000 0.000000
0.745351 -0.025104 -0.030790 0.000000 0.000000 0.000000
0.751309 -0.028023 -0.026523 0.000000 0.000000 0.000000
0.869796 -0.028509 -0.045142 0.000000 0.000000 0.000000
0.735635 -0.036409 -0.032044 0.000000 0.000000 0.000000
0.733810 -0.038551 -0.017792 0.000000 0.000000 0.000000
0.727921 -0.037720 -0.013593 0.000000 0.000000 0.000000
0.730632 -0.018826 -0.009979 0.000000 0.000000 0.000000
0.726252 -0.012391 -0.027334 0.000000 0.000000 0.000000
0.728046 -0.035841 -0.028354 0.000000 0.000000 0.000000
0.733719 -0.032352 -0.020025 0.000000 0.000000 0.000000
0.736765 -0.023723 -0.025521 0.000000 0.000000 0.000000
0.720696 -0.038003 -0.025294 0.000000 0.000000 0.000000
0.734039 -0.005648 -0.011268 0.000000 0.000000 0.000000
0.724127 -0.029368 -0.015939 0.000000 0.000000 0.000000
0.726952 -0.037934 -0.023119 0.000000 0.000000 0.000000
0.727032 -0.024456 -0.021836 0.000000 0.000000 0.000000
0.730407 -0.038029 -0.018450 0.000000 0.000000 0.000000
0.720747 -0.010352 -0.022959 0.000000 0.000000 0.000000
0.720386 -0.029153 -0.019747 0.000000 0.000000 0.000000
0.729749 -0.008677 -0.013984 0.000000 0.000000 0.000000
0.721080 -0.010780 -0.015649 0.000000 0.000000 0.000000
0.733227 -0.030088 -0.027687 0.000000 0.000000 0.000000
0.720795 -0.027624 -0.003970 0.000000 0.000000 0.000000
0.732680 -0.026915 -0.022547 0.000000 0.000000 0.000000
0.723148 -0.014015 -0.028518 0.000000 0.000000 0.000000
0.731090 -0.002721 -0.025641 0.000000 0.000000 0.000000
0.723157 -0.009802 -0.009352 0.000000 0.000000 0.000000
0.723590 -0.036526 -0.006971 0.000000 0.000000 0.000000
0.734997 -0.016799 -0.039960 0.000000 0.000000 0.000000
0.731590 -0.038260 -0.031964 0.000000 0.000000 0.000000
0.729735 -0.009454 -0.032380 0.000000 0.000000 0.000000
0.737269 -0.026220 -0.025785 0.000000 0.000000 0.000000
0.735567 -0.021854 -0.022242 0.000000 0.000000 0.000000
0.726903 -0.008394 -0.024876 0.000000 0.000000 0.000000
0.720250 -0.007211 -0.029505 0.000000 0.000000 0.000000
0.733602 -0.007397 -0.028665 0.000000 0.000000 0.000000
0.728030 -0.037046 -0.024918 0.000000 0.000000 0.000000
0.730830 -0.039675 -0.021852 0.000000 0.000000 0.000000
0.726794 -0.015030 -0.022834 0.000000 0.000000 0.000000
0.735390 -0.009742 -0.035264 0.000000 0.000000 0.000000
0.738089 -0.009321 -0.006970 0.000000 0.000000 0.000000
0.730955 -0.039674 -0.015319 0.000000 0.000000 0.000000
0.730912 -0.039399 -0.006886 0.000000 0.000000 0.000000
0.731639 -0.000107 -0.014967 0.000000 0.000000 0.000000
0.722068 -0.014408 -0.013484 0.000000 0.000000 0.000000
0.721073 -0.036353 -0.024967 0.000000 0.000000 0.000000
0.729820 -0.032112 -0.019313 0.000000 0.000000 0.000000
0.736396 -0.027179 -0.026699 0.000000 0.000000 0.000000
0.730416 -0.004838 -0.006901 0.000000 0.000000 0.000000
0.732952 -0.003462 -0.018485 0.000000 0.000000 0.000000
0.737670 -0.019145 -0.033704 0.000000 0.000000 0.000000
0.727881 -0.012045 -0.036080 0.000000 0.000000 0.000000
0.731984 -0.015299 -0.035823 0.000000 0.000000 0.000000
0.742001 -0.003374 -0.036171 0.000000 0.000000 0.000000
0.738900 -0.009789 -0.031615 0.000000 0.000000 0.000000
-0.114022 0.456366 -0.139958 0.000000 0.000000 0.000000
-0.310808 0.220200 0.169128 0.000000 0.000000 0.000000
-0.298202 0.155972 0.294770 0.000000 0.000000 0.000000
-0.298315 0.230182 0.161474 0.000000 0.000000 0.000000
-0.314076 0.208240 0.192465 0.000000 0.000000 0.000000
-0.307608 0.213943 0.170019 0.000000 0.000000 0.000000
-0.315995 0.222014 0.163263 0.000000 0.000000 0.000000
-0.349107 0.295934 0.194585 0.000000 0.000000 0.000000
-0.342263 0.280118 0.183175 0.000000 0.000000 0.000000
-0.314905 0.246082 0.170118 0.000000 0.000000 0.000000
-0.294154 0.212991 0.187251 0.000000 0.000000 0.000000
-0.300029 0.202611 0.193934 0.000000 0.000000 0.000000
-0.313968 0.202591 0.195871 0.000000 0.000000 0.000000
-0.308878 0.236261 0.166134 0.000000 0.000000 0.000000
-0.312291 0.239942 0.174370 0.000000 0.000000 0.000000
-0.232563 0.172263 0.094533 0.000000 0.000000 0.000000
-0.159655 0.129235 0.139686 0.000000 0.000000 0.000000
-0.235928 0.178172 0.086176 0.000000 0.000000 0.000000
-0.235364 0.168275 0.087401 0.000000 0.000000 0.000000
-0.142052 0.113781 0.163789 0.000000 0.000000 0.000000
-0.191486 0.181477 0.090575 0.000000 0.000000 0.000000
-0.226047 0.162248 0.100010 0.000000 0.000000 0.000000
-0.256026 0.155618 0.259366 0.000000 0.000000 0.000000
-0.224972 0.176103 0.095564 0.000000 0.000000 0.000000
-0.234132 0.160957 0.099812 0.000000 0.000000 0.000000
-0.156322 0.136692 0.121043 0.000000 0.000000 0.000000
-0.156048 0.128320 0.122161 0.000000 0.000000 0.000000
-0.158460 0.120602 0.123128 0.000000 0.000000 0.000000
-0.149273 0.111657 0.164242 0.000000 0.000000 0.000000
-0.132406 0.131908 0.165023 0.000000 0.000000 0.000000
-0.125540 0.112253 0.185002 0.000000 0.000000 0.000000
-0.142224 0.119659 0.163117 0.000000 0.000000 0.000000
-0.135064 0.115833 0.172636 0.000000 0.000000 0.000000
-0.138353 0.124040 0.157057 0.000000 0.000000 0.000000
-0.146739 0.123769 0.129514 0.000000 0.000000 0.000000
-0.159578 0.122769 0.152041 0.000000 0.000000 0.000000
-0.137921 0.118316 0.181380 0.000000 0.000000 0.000000
-0.136549 0.113076 0.182132 0.000000 0.000000 0.000000
-0.285998 0.200160 0.183267 0.000000 0.000000 0.000000
-0.190456 0.181864 0.086723 0.000000 0.000000 0.000000
-0.138668 0.117774 0.189348 0.000000 0.000000 0.000000
-0.190039 0.197845 0.114643 0.000000 0.000000 0.000000
-0.221285 0.199238 0.080668 0.000000 0.000000 0.000000
-0.209905 0.187529 0.090768 0.000000 0.000000 0.000000
-0.220062 0.190829 0.090133 0.000000 0.000000 0.000000
-0.188520 -0.049152 0.342059 0.000000 0.000000 0.000000
-0.222629 0.190661 0.086200 0.000000 0.000000 0.000000
-0.225166 0.187420 0.091519 0.000000 0.000000 0.000000
-0.232954 0.179224 0.092861 0.000000 0.000000 0.000000
-0.212992 0.182751 0.092125 0.000000 0.000000 0.000000
-0.158176 0.157712 0.137322 0.000000 0.000000 0.000000
-0.140812 0.136743 0.161016 0.000000 0.000000 0.000000
-0.213811 0.196437 0.087972 0.000000 0.000000 0.000000
-0.214298 0.196391 0.085630 0.000000 0.000000 0.000000
-0.169156 -0.064865 0.321465 0.000000 0.000000 0.000000
-0.315714 0.206723 0.168567 0.000000 0.000000 0.000000
-0.319060 0.213620 0.165961 0.000000 0.000000 0.000000
-0.310253 0.207737 0.170488 0.000000 0.000000 0.000000
-0.136444 0.098888 0.167770 0.000000 0.000000 0.000000
-0.134606 0.116042 0.177249 0.000000 0.000000 0.000000
-0.123901 0.118778 0.174838 0.000000 0.000000 0.000000
-0.154390 0.135607 0.126137 0.000000 0.000000 0.000000
-0.151605 0.135180 0.126409 0.000000 0.000000 0.000000
-0.149813 0.134754 0.156375 0.000000 0.000000 0.000000
-0.158382 0.133183 0.126135 0.000000 0.000000 0.000000
-0.173345 0.166993 0.113338 0.000000 0.000000 0.000000
-0.144979 0.122497 0.189128 0.000000 0.000000 0.000000
-0.150196 0.134508 0.126311 0.000000 0.000000 0.000000
-0.148421 0.127939 0.123955 0.000000 0.000000 0.000000
-0.137975 0.093712 0.171828 0.000000 0.000000 0.000000
-0.303776 0.214860 0.161498 0.000000 0.000000 0.000000
-0.293755 0.200664 0.189784 0.000000 0.000000 0.000000
-0.201448 0.196837 0.080877 0.000000 0.000000 0.000000
-0.314636 0.209535 0.163997 0.000000 0.000000 0.000000
-0.153707 0.137844 0.133160 0.000000 0.000000 0.000000
-0.198035 0.184109 0.089644 0.000000 0.000000 0.000000
-0.233345 0.160680 0.102150 0.000000 0.000000 0.000000
-0.316794 0.203458 0.186128 0.000000 0.000000 0.000000
-0.317533 0.202017 0.184037 0.000000 0.000000 0.000000
-0.171741 0.163562 0.112328 0.000000 0.000000 0.000000
-0.181995 0.174209 0.100842 0.000000 0.000000 0.000000
-0.177285 0.167211 0.112142 0.000000 0.000000 0.000000
-0.157493 0.145507 0.126369 0.000000 0.000000 0.000000
-0.307649 0.200438 0.192885 0.000000 0.000000 0.000000
-0.200061 0.190103 0.087115 0.000000 0.000000 0.000000
-0.155860 0.128135 0.125035 0.000000 0.000000 0.000000
-0.344759 0.376624 0.606598 0.000000 0.000000 0.000000
-0.330792 0.371600 0.617327 0.000000 0.000000 0.000000
-0.326511 0.365394 0.623693 0.000000 0.000000 0.000000
0.489320 0.421171 0.245121 0.000000 0.000000 0.000000
0.555311 0.480145 0.261429 0.000000 0.000000 0.000000
0.488588 0.417082 0.252485 0.000000 0.000000 0.000000
0.491034 0.422188 0.262894 0.000000 0.000000 0.000000
0.498528 0.412941 0.248261 0.000000 0.000000 0.000000
0.486399 0.423380 0.267355 0.000000 0.000000 0.000000
0.501539 0.427579 0.251846 0.000000 0.000000 0.000000
0.484018 0.422601 0.255680 0.000000 0.000000 0.000000
0.486854 0.425136 0.248594 0.000000 0.000000 0.000000
0.483006 0.422256 0.252802 0.000000 0.000000 0.000000
0.486094 0.429383 0.248343 0.000000 0.000000 0.000000
0.485661 0.421036 0.247473 0.000000 0.000000 0.000000
0.485864 0.416317 0.245351 0.000000 0.000000 0.000000
0.483950 0.419308 0.252149 0.000000 0.000000 0.000000
0.486817 0.421300 0.248878 0.000000 0.000000 0.000000
0.493644 0.426178 0.242231 0.000000 0.000000 0.000000
0.480231 0.420353 0.248396 0.000000 0.000000 0.000000
0.494447 0.428195 0.250215 0.000000 0.000000 0.000000
0.485719 0.421348 0.245491 0.000000 0.000000 0.000000
0.481131 0.426041 0.254931 0.000000 0.000000 0.000000
0.489000 0.412818 0.252853 0.000000 0.000000 0.000000
0.486312 0.427636 0.256717 0.000000 0.000000 0.000000
0.490095 0.416143 0.252932 0.000000 0.000000 0.000000
0.482018 0.418520 0.251079 0.000000 0.000000 0.000000
0.483378 0.425589 0.253633 0.000000 0.000000 0.000000
0.491085 0.414669 0.247538 0.000000 0.000000 0.000000
0.491339 0.411589 0.252508 0.000000 0.000000 0.000000
0.486427 0.425970 0.244200 0.000000 0.000000 0.000000
0.496277 0.429099 0.243971 0.000000 0.000000 0.000000
0.494492 0.425638 0.249697 0.000000 0.000000 0.000000
0.480326 0.419961 0.249307 0.000000 0.000000 0.000000
0.480995 0.418203 0.252161 0.000000 0.000000 0.000000
0.496813 0.412281 0.252475 0.000000 0.000000 0.000000
0.491105 0.421653 0.251611 0.000000 0.000000 0.000000
0.492941 0.409031 0.246291 0.000000 0.000000 0.000000
0.037882 0.794943 0.344965 0.000000 0.000000 0.000000
-0.019502 0.657928 0.518696 0.000000 0.000000 0.000000
0.028794 0.668615 0.537344 0.000000 0.000000 0.000000
0.001302 0.630781 0.483393 0.000000 0.000000 0.000000
0.020180 0.674044 0.541896 0.000000 0.000000 0.000000
-0.002184 0.667629 0.499651 0.000000 0.000000 0.000000
0.025565 0.670153 0.263771 0.000000 0.000000 0.000000
0.011160 0.636697 0.521571 0.000000 0.000000 0.000000
-0.006389 0.652598 0.517539 0.000000 0.000000 0.000000
-0.031865 0.644885 0.525486 0.000000 0.000000 0.000000
0.000023 0.632573 0.501672 0.000000 0.000000 0.000000
0.012483 0.638774 0.500938 0.000000 0.000000 0.000000
-0.029647 0.637204 0.500145 0.000000 0.000000 0.000000
-0.005713 0.645754 0.516144 0.000000 0.000000 0.000000
-0.025469 0.649729 0.441740 0.000000 0.000000 0.000000
-0.008888 0.641691 0.447583 0.000000 0.000000 0.000000
0.033623 0.645177 0.541425 0.000000 0.000000 0.000000
-0.015392 0.659755 0.500732 0.000000 0.000000 0.000000
0.001614 0.638823 0.475246 0.000000 0.000000 0.000000
0.013555 0.631578 0.483930 0.000000 0.000000 0.000000
0.012797 0.638352 0.523205 0.000000 0.000000 0.000000
0.016474 0.648901 0.492806 0.000000 0.000000 0.000000
-0.006278 0.654429 0.497162 0.000000 0.000000 0.000000
-0.024342 0.661442 0.449767 0.000000 0.000000 0.000000
0.037984 0.658898 0.550555 0.000000 0.000000 0.000000
0.027943 0.665787 0.547017 0.000000 0.000000 0.000000
-0.030298 0.640159 0.502214 0.000000 0.000000 0.000000
-0.038340 0.657249 0.455986 0.000000 0.000000 0.000000
0.028977 0.647714 0.510126 0.000000 0.000000 0.000000
0.019696 0.641490 0.528790 0.000000 0.000000 0.000000
-0.025292 0.642068 0.457467 0.000000 0.000000 0.000000
-0.016145 0.646228 0.452302 0.000000 0.000000 0.000000
0.022213 0.637361 0.518132 0.000000 0.000000 0.000000
0.013967 0.655047 0.505306 0.000000 0.000000 0.000000
-0.014481 0.647904 0.494082 0.000000 0.000000 0.000000
0.025186 0.643654 0.540862 0.000000 0.000000 0.000000
-0.000710 0.656439 0.502973 0.000000 0.000000 0.000000
0.016671 0.690801 0.511945 0.000000 0.000000 0.000000
0.024437 0.798418 0.346739 0.000000 0.000000 0.000000
-0.015321 0.675862 0.486436 0.000000 0.000000 0.000000
0.016610 0.692823 0.524696 0.000000 0.000000 0.000000
-0.008766 0.640408 0.442232 0.000000 0.000000 0.000000
-0.048022 0.637095 0.464077 0.000000 0.000000 0.000000
0.025349 0.664314 0.518935 0.000000 0.000000 0.000000
0.019124 0.642176 0.521719 0.000000 0.000000 0.000000
0.022250 0.655429 0.533421 0.000000 0.000000 0.000000
0.025997 0.639840 0.531198 0.000000 0.000000 0.000000
0.006856 0.696591 0.541758 0.000000 0.000000 0.000000
0.023978 0.659270 0.270732 0.000000 0.000000 0.000000
0.017555 0.694414 0.536787 0.000000 0.000000 0.000000
0.018350 0.637743 0.521864 0.000000 0.000000 0.000000
-0.038236 0.644946 0.494999 0.000000 0.000000 0.000000
0.005839 0.661718 0.484020 0.000000 0.000000 0.000000
-0.009498 0.659572 0.464503 0.000000 0.000000 0.000000
-0.004072 0.640824 0.527383 0.000000 0.000000 0.000000
0.011829 0.633444 0.524873 0.000000 0.000000 0.000000
-0.010834 0.652019 0.478487 0.000000 0.000000 0.000000
-0.018101 0.654758 0.470474 0.000000 0.000000 0.000000
-0.032786 0.661709 0.475524 0.000000 0.000000 0.000000
0.022873 0.663164 0.266819 0.000000 0.000000 0.000000
0.013616 0.641120 0.506309 0.000000 0.000000 0.000000
0.016271 0.644334 0.537393 0.000000 0.000000 0.000000
0.025219 0.665372 0.266897 0.000000 0.000000 0.000000
0.012796 0.684479 0.549614 0.000000 0.000000 0.000000
-0.024079 0.643522 0.449526 0.000000 0.000000 0.000000
-0.031456 0.651878 0.461792 0.000000 0.000000 0.000000
-0.029374 0.649640 0.462591 0.000000 0.000000 0.000000
-0.038433 0.649301 0.463484 0.000000 0.000000 0.000000
-0.024243 0.649952 0.448943 0.000000 0.000000 0.000000
-0.032531 0.637666 0.503454 0.000000 0.000000 0.000000
-0.028661 0.647905 0.454749 0.000000 0.000000 0.000000
-0.037271 0.654646 0.440495 0.000000 0.000000 0.000000
-0.036488 0.656874 0.451950 0.000000 0.000000 0.000000
-0.017274 0.645357 0.458418 0.000000 0.000000 0.000000
-0.020518 0.644669 0.452448 0.000000 0.000000 0.000000
-0.014006 0.643491 0.446146 0.000000 0.000000 0.000000
0.003930 0.645524 0.479276 0.000000 0.000000 0.000000
-0.024569 0.644980 0.455520 0.000000 0.000000 0.000000
-0.011689 0.642625 0.532726 0.000000 0.000000 0.000000
0.000842 0.649907 0.515349 0.000000 0.000000 0.000000
-0.004096 0.645290 0.537662 0.000000 0.000000 0.000000
-0.005983 0.656724 0.516529 0.000000 0.000000 0.000000
0.007387 0.645977 0.506771 0.000000 0.000000 0.000000
0.002177 0.636970 0.511928 0.000000 0.000000 0.000000
0.021146 0.644180 0.513938 0.000000 0.000000 0.000000
0.007269 0.639244 0.518186 0.000000 0.000000 0.000000
-0.007780 0.642777 0.533781 0.000000 0.000000 0.000000
-0.012146 0.657023 0.528198 0.000000 0.000000 0.000000
-0.007383 0.640457 0.504744 0.000000 0.000000 0.000000
0.017108 0.644661 0.521116 0.000000 0.000000 0.000000
-0.010074 0.643903 0.529879 0.000000 0.000000 0.000000
-0.022968 0.653429 0.529299 0.000000 0.000000 0.000000
0.002069 0.638937 0.525111 0.000000 0.000000 0.000000
0.004493 0.644058 0.525233 0.000000 0.000000 0.000000
-0.005208 0.662953 0.506052 0.000000 0.000000 0.000000
0.016450 0.637056 0.517017 0.000000 0.000000 0.000000
0.035526 0.655683 0.536969 0.000000 0.000000 0.000000
0.019289 0.704388 0.530916 0.000000 0.000000 0.000000
-0.022401 0.640996 0.452456 0.000000 0.000000 0.000000
0.025711 0.695260 0.543577 0.000000 0.000000 0.000000
0.012851 0.694556 0.532320 0.000000 0.000000 0.000000
0.002464 0.641626 0.516424 0.000000 0.000000 0.000000
-0.027683 0.637600 0.500140 0.000000 0.000000 0.000000
-0.028848 0.638639 0.506342 0.000000 0.000000 0.000000
-0.014103 0.640796 0.496353 0.000000 0.000000 0.000000
-0.032677 0.640026 0.500665 0.000000 0.000000 0.000000
-0.028443 0.637795 0.492769 0.000000 0.000000 0.000000
-0.024479 0.633053 0.505412 0.000000 0.000000 0.000000
-0.011738 0.648389 0.499078 0.000000 0.000000 0.000000
-0.036312 0.640641 0.507559 0.000000 0.000000 0.000000
-0.033655 0.637882 0.502292 0.000000 0.000000 0.000000
0.027858 0.679234 0.531990 0.000000 0.000000 0.000000
-0.038306 0.643054 0.515482 0.000000 0.000000 0.000000
0.022980 0.681939 0.528419 0.000000 0.000000 0.000000
-0.038213 0.649840 0.515582 0.000000 0.000000 0.000000
-0.414119 1.089120 1.524137 0.000000 0.000000 0.000000
-0.402902 1.087820 1.522694 0.000000 0.000000 0.000000
-0.425194 1.094323 1.523975 0.000000 0.000000 0.000000
-0.410821 1.091458 1.520541 0.000000 0.000000 0.000000
-0.425650 1.093678 1.522152 0.000000 0.000000 0.000000
-0.411512 1.090065 1.525811 0.000000 0.000000 0.000000
-0.408168 1.086813 1.525436 0.000000 0.000000 0.000000
-0.405250 1.088498 1.526116 0.000000 0.000000 0.000000
-0.410641 1.090959 1.523237 0.000000 0.000000 0.000000
-0.419142 1.093473 1.522382 0.000000 0.000000 0.000000
-0.419377 1.091888 1.524302 0.000000 0.000000 0.000000
-0.429943 1.096276 1.521246 0.000000 0.000000 0.000000
-0.424244 1.096366 1.520268 0.000000 0.000000 0.000000
-0.694757 0.349887 1.999186 0.000000 0.000000 0.000000
