ply
format ascii 1.0
comment VCGLIB generated
obj_info Generated by SPFormer!
element vertex 453
property float x
property float y
property float z
property float nx
property float ny
property float nz
end_header
0.018153 0.064240 0.642069 0.000000 0.000000 0.000000
0.024387 0.066792 0.642890 0.000000 0.000000 0.000000
0.019396 0.064650 0.642250 0.000000 0.000000 0.000000
0.069909 0.039266 0.641500 0.000000 0.000000 0.000000
0.021196 0.042077 0.654219 0.000000 0.000000 0.000000
0.020644 0.046184 0.652118 0.000000 0.000000 0.000000
0.021162 0.041524 0.654913 0.000000 0.000000 0.000000
0.002105 0.029833 0.670199 0.000000 0.000000 0.000000
-0.006327 0.032416 0.670792 0.000000 0.000000 0.000000
0.023849 0.031821 0.660809 0.000000 0.000000 0.000000
0.037884 0.020895 0.664734 0.000000 0.000000 0.000000
0.022236 0.039193 0.657481 0.000000 0.000000 0.000000
0.020080 0.037951 0.664203 0.000000 0.000000 0.000000
-0.007988 0.026049 0.677231 0.000000 0.000000 0.000000
-0.004408 0.019265 0.691525 0.000000 0.000000 0.000000
0.009722 0.026275 0.673098 0.000000 0.000000 0.000000
0.017452 0.045628 0.651062 0.000000 0.000000 0.000000
0.021222 0.030217 0.662347 0.000000 0.000000 0.000000
0.034873 0.025858 0.659796 0.000000 0.000000 0.000000
0.011876 0.035560 0.660931 0.000000 0.000000 0.000000
0.010648 0.033470 0.664111 0.000000 0.000000 0.000000
0.020729 0.017711 0.659753 0.000000 0.000000 0.000000
0.026886 0.022174 0.678618 0.000000 0.000000 0.000000
0.011229 0.027427 0.668837 0.000000 0.000000 0.000000
-0.008453 0.008680 0.670382 0.000000 0.000000 0.000000
0.033348 0.020227 0.664384 0.000000 0.000000 0.000000
0.020942 0.023505 0.670072 0.000000 0.000000 0.000000
-0.012464 0.022145 0.692758 0.000000 0.000000 0.000000
0.018957 0.029345 0.669558 0.000000 0.000000 0.000000
0.012367 0.000424 0.683858 0.000000 0.000000 0.000000
0.016459 0.029447 0.666393 0.000000 0.000000 0.000000
-0.007116 0.022484 0.687622 0.000000 0.000000 0.000000
0.011855 0.033817 0.662139 0.000000 0.000000 0.000000
-0.000383 0.028944 0.675315 0.000000 0.000000 0.000000
0.009900 0.026124 0.677550 0.000000 0.000000 0.000000
0.011995 0.022395 0.670785 0.000000 0.000000 0.000000
0.011850 0.024504 0.674525 0.000000 0.000000 0.000000
0.030549 0.025006 0.670366 0.000000 0.000000 0.000000
0.009974 0.035548 0.661474 0.000000 0.000000 0.000000
0.023460 0.037341 0.654044 0.000000 0.000000 0.000000
0.028934 0.018687 0.677400 0.000000 0.000000 0.000000
0.025288 0.035970 0.654608 0.000000 0.000000 0.000000
0.010171 0.043695 0.649968 0.000000 0.000000 0.000000
0.020255 0.058551 0.644079 0.000000 0.000000 0.000000
0.016375 0.059423 0.641997 0.000000 0.000000 0.000000
0.014303 0.046365 0.650644 0.000000 0.000000 0.000000
0.019436 0.059089 0.644883 0.000000 0.000000 0.000000
0.019417 0.057403 0.642570 0.000000 0.000000 0.000000
0.018424 0.060626 0.644412 0.000000 0.000000 0.000000
-0.007222 0.014300 0.701601 0.000000 0.000000 0.000000
0.037952 -0.013106 0.689923 0.000000 0.000000 0.000000
0.052362 -0.011371 0.688954 0.000000 0.000000 0.000000
0.001227 0.041339 0.654206 0.000000 0.000000 0.000000
0.017026 0.054675 0.646240 0.000000 0.000000 0.000000
-0.003299 0.020562 0.662923 0.000000 0.000000 0.000000
0.006223 0.016472 0.669680 0.000000 0.000000 0.000000
-0.004531 0.004499 0.680578 0.000000 0.000000 0.000000
0.007237 0.024413 0.679224 0.000000 0.000000 0.000000
0.000440 0.031101 0.669330 0.000000 0.000000 0.000000
0.003167 0.030985 0.663906 0.000000 0.000000 0.000000
0.002515 0.023006 0.681599 0.000000 0.000000 0.000000
-0.012090 0.016333 0.702325 0.000000 0.000000 0.000000
0.047474 -0.003666 0.683598 0.000000 0.000000 0.000000
0.051577 -0.005261 0.685050 0.000000 0.000000 0.000000
0.011047 0.028951 0.668286 0.000000 0.000000 0.000000
0.009198 0.023871 0.675029 0.000000 0.000000 0.000000
0.015388 0.027706 0.666669 0.000000 0.000000 0.000000
0.020818 0.031120 0.669491 0.000000 0.000000 0.000000
0.005625 0.030005 0.668798 0.000000 0.000000 0.000000
0.045412 0.003467 0.680309 0.000000 0.000000 0.000000
0.029338 -0.010661 0.704637 0.000000 0.000000 0.000000
0.030658 0.008512 0.674305 0.000000 0.000000 0.000000
0.034561 -0.000870 0.684162 0.000000 0.000000 0.000000
0.019710 0.014043 0.671986 0.000000 0.000000 0.000000
0.037738 -0.007708 0.692652 0.000000 0.000000 0.000000
0.021195 0.037658 0.651090 0.000000 0.000000 0.000000
0.034955 -0.003345 0.676502 0.000000 0.000000 0.000000
0.039752 -0.010627 0.689477 0.000000 0.000000 0.000000
0.008228 0.006445 0.693568 0.000000 0.000000 0.000000
0.042015 -0.013278 0.704683 0.000000 0.000000 0.000000
0.043875 -0.023791 0.710418 0.000000 0.000000 0.000000
0.028914 -0.009035 0.677501 0.000000 0.000000 0.000000
0.032107 -0.001034 0.689834 0.000000 0.000000 0.000000
0.053916 -0.003386 0.693420 0.000000 0.000000 0.000000
0.047182 -0.006950 0.687331 0.000000 0.000000 0.000000
0.020865 -0.009345 0.689300 0.000000 0.000000 0.000000
0.047204 -0.001935 0.685833 0.000000 0.000000 0.000000
0.001381 0.015981 0.664152 0.000000 0.000000 0.000000
0.021731 0.009989 0.711235 0.000000 0.000000 0.000000
0.042291 -0.010127 0.697156 0.000000 0.000000 0.000000
0.048120 0.005254 0.678257 0.000000 0.000000 0.000000
0.034088 -0.031857 0.720549 0.000000 0.000000 0.000000
0.026607 0.028692 0.663143 0.000000 0.000000 0.000000
0.004222 0.032536 0.664269 0.000000 0.000000 0.000000
0.009679 0.043816 0.656119 0.000000 0.000000 0.000000
0.047285 -0.025433 0.697149 0.000000 0.000000 0.000000
0.054099 -0.026832 0.707008 0.000000 0.000000 0.000000
0.018920 0.048328 0.652184 0.000000 0.000000 0.000000
0.024992 0.058675 0.647237 0.000000 0.000000 0.000000
0.033741 -0.020375 0.706634 0.000000 0.000000 0.000000
0.003722 0.004284 0.700210 0.000000 0.000000 0.000000
0.043547 -0.005635 0.699821 0.000000 0.000000 0.000000
0.045738 -0.015194 0.703076 0.000000 0.000000 0.000000
0.018989 -0.009056 0.699913 0.000000 0.000000 0.000000
0.019291 -0.001253 0.700970 0.000000 0.000000 0.000000
0.020041 0.004606 0.690377 0.000000 0.000000 0.000000
0.029940 0.012910 0.680361 0.000000 0.000000 0.000000
0.019889 0.011703 0.684182 0.000000 0.000000 0.000000
0.025716 -0.027157 0.705269 0.000000 0.000000 0.000000
0.036996 -0.017057 0.696918 0.000000 0.000000 0.000000
0.000953 -0.006499 0.688950 0.000000 0.000000 0.000000
0.056472 -0.024437 0.704870 0.000000 0.000000 0.000000
0.017748 0.007898 0.699661 0.000000 0.000000 0.000000
0.009016 -0.000780 0.694500 0.000000 0.000000 0.000000
0.024748 -0.001521 0.696979 0.000000 0.000000 0.000000
0.020990 0.009669 0.683839 0.000000 0.000000 0.000000
0.030429 0.012662 0.677902 0.000000 0.000000 0.000000
0.023573 -0.010180 0.703302 0.000000 0.000000 0.000000
0.047389 -0.038630 0.711459 0.000000 0.000000 0.000000
0.058368 -0.021506 0.704745 0.000000 0.000000 0.000000
0.041692 -0.020545 0.706160 0.000000 0.000000 0.000000
-0.000494 0.025240 0.671043 0.000000 0.000000 0.000000
0.017595 0.007525 0.676924 0.000000 0.000000 0.000000
0.006282 0.023915 0.680360 0.000000 0.000000 0.000000
0.005509 0.034991 0.661476 0.000000 0.000000 0.000000
0.028525 0.007726 0.687612 0.000000 0.000000 0.000000
-0.003914 0.025429 0.673479 0.000000 0.000000 0.000000
0.032788 0.021855 0.665184 0.000000 0.000000 0.000000
0.034991 0.021061 0.673537 0.000000 0.000000 0.000000
0.001515 0.038583 0.661502 0.000000 0.000000 0.000000
0.003513 0.029978 0.670808 0.000000 0.000000 0.000000
0.034013 0.013599 0.673564 0.000000 0.000000 0.000000
0.034368 0.000236 0.708048 0.000000 0.000000 0.000000
0.023456 0.012417 0.676569 0.000000 0.000000 0.000000
0.027292 0.003329 0.695472 0.000000 0.000000 0.000000
0.047285 -0.038915 0.720079 0.000000 0.000000 0.000000
0.027113 -0.003140 0.706130 0.000000 0.000000 0.000000
0.027228 -0.001984 0.692758 0.000000 0.000000 0.000000
-0.005823 0.027608 0.684228 0.000000 0.000000 0.000000
-0.001596 0.031925 0.671406 0.000000 0.000000 0.000000
0.035662 0.019309 0.666792 0.000000 0.000000 0.000000
0.012459 0.014562 0.692812 0.000000 0.000000 0.000000
0.010906 0.033626 0.655613 0.000000 0.000000 0.000000
0.047020 0.017214 0.669903 0.000000 0.000000 0.000000
0.021084 0.036785 0.664896 0.000000 0.000000 0.000000
0.054744 -0.045358 0.717392 0.000000 0.000000 0.000000
0.029764 0.000813 0.682293 0.000000 0.000000 0.000000
0.032572 -0.006529 0.694406 0.000000 0.000000 0.000000
0.018625 0.022521 0.666404 0.000000 0.000000 0.000000
0.050494 -0.050476 0.720910 0.000000 0.000000 0.000000
-0.000961 0.032436 0.698947 0.000000 0.000000 0.000000
0.024194 0.017984 0.674498 0.000000 0.000000 0.000000
0.013298 0.038136 0.656458 0.000000 0.000000 0.000000
0.047207 -0.078816 0.757587 0.000000 0.000000 0.000000
0.048302 0.008067 0.674326 0.000000 0.000000 0.000000
0.059632 -0.041881 0.719108 0.000000 0.000000 0.000000
0.042736 -0.031763 0.712771 0.000000 0.000000 0.000000
0.060008 -0.072744 0.750718 0.000000 0.000000 0.000000
0.042939 0.012643 0.668742 0.000000 0.000000 0.000000
0.054132 0.002919 0.679371 0.000000 0.000000 0.000000
0.048122 -0.052181 0.729194 0.000000 0.000000 0.000000
0.060332 -0.041204 0.724174 0.000000 0.000000 0.000000
0.053331 -0.029053 0.717545 0.000000 0.000000 0.000000
0.043580 -0.032212 0.705427 0.000000 0.000000 0.000000
0.037201 0.022930 0.663137 0.000000 0.000000 0.000000
0.047064 -0.038365 0.725797 0.000000 0.000000 0.000000
0.015401 0.038068 0.658440 0.000000 0.000000 0.000000
0.000957 0.030723 0.670185 0.000000 0.000000 0.000000
0.009792 0.036753 0.661260 0.000000 0.000000 0.000000
0.061925 -0.058791 0.732805 0.000000 0.000000 0.000000
-0.003780 0.014251 0.696295 0.000000 0.000000 0.000000
0.019488 0.039660 0.652782 0.000000 0.000000 0.000000
0.023191 0.033708 0.656179 0.000000 0.000000 0.000000
0.000258 0.019838 0.690074 0.000000 0.000000 0.000000
0.067393 -0.023720 0.702057 0.000000 0.000000 0.000000
0.030350 0.028832 0.657959 0.000000 0.000000 0.000000
0.002912 0.027633 0.671765 0.000000 0.000000 0.000000
0.059633 -0.013724 0.693700 0.000000 0.000000 0.000000
0.002187 0.006220 0.682980 0.000000 0.000000 0.000000
0.016196 0.036080 0.653519 0.000000 0.000000 0.000000
0.021777 0.046503 0.648127 0.000000 0.000000 0.000000
-0.006973 0.022665 0.690245 0.000000 0.000000 0.000000
0.062774 -0.035998 0.712238 0.000000 0.000000 0.000000
0.031434 -0.009364 0.716007 0.000000 0.000000 0.000000
0.034555 0.022839 0.663199 0.000000 0.000000 0.000000
0.000519 0.029137 0.662255 0.000000 0.000000 0.000000
0.056979 -0.021149 0.709304 0.000000 0.000000 0.000000
-0.000037 0.020764 0.688177 0.000000 0.000000 0.000000
0.004500 0.006307 0.677169 0.000000 0.000000 0.000000
0.037365 -0.014946 0.708371 0.000000 0.000000 0.000000
0.047555 -0.015079 0.712039 0.000000 0.000000 0.000000
0.010859 0.003913 0.695302 0.000000 0.000000 0.000000
0.017673 -0.024940 0.747307 0.000000 0.000000 0.000000
0.027619 0.027182 0.660664 0.000000 0.000000 0.000000
0.009704 0.006484 0.668824 0.000000 0.000000 0.000000
0.030863 -0.029370 0.734871 0.000000 0.000000 0.000000
-0.001563 0.003907 0.697633 0.000000 0.000000 0.000000
0.000927 0.007722 0.691628 0.000000 0.000000 0.000000
0.038989 -0.031279 0.720766 0.000000 0.000000 0.000000
0.049384 -0.048145 0.728149 0.000000 0.000000 0.000000
0.040946 -0.054571 0.749338 0.000000 0.000000 0.000000
0.033038 -0.078294 0.778291 0.000000 0.000000 0.000000
0.045445 -0.046471 0.741442 0.000000 0.000000 0.000000
0.049878 -0.067420 0.759849 0.000000 0.000000 0.000000
0.042655 -0.087750 0.787780 0.000000 0.000000 0.000000
0.039343 0.012547 0.669711 0.000000 0.000000 0.000000
0.039241 -0.007996 0.684218 0.000000 0.000000 0.000000
0.030907 0.028067 0.662402 0.000000 0.000000 0.000000
0.016082 0.012694 0.674799 0.000000 0.000000 0.000000
0.013237 -0.018244 0.693656 0.000000 0.000000 0.000000
0.052206 -0.007622 0.680287 0.000000 0.000000 0.000000
0.029926 0.014718 0.664362 0.000000 0.000000 0.000000
0.051021 -0.078234 0.747445 0.000000 0.000000 0.000000
0.013311 -0.014056 0.736142 0.000000 0.000000 0.000000
0.002779 0.017518 0.690351 0.000000 0.000000 0.000000
0.015498 0.010334 0.705486 0.000000 0.000000 0.000000
0.001763 0.010108 0.693964 0.000000 0.000000 0.000000
0.046718 -0.042243 0.745291 0.000000 0.000000 0.000000
0.047248 -0.061870 0.744090 0.000000 0.000000 0.000000
0.040513 0.022185 0.663502 0.000000 0.000000 0.000000
0.021061 0.014891 0.671202 0.000000 0.000000 0.000000
0.015560 -0.024737 0.703109 0.000000 0.000000 0.000000
0.037862 0.005048 0.678965 0.000000 0.000000 0.000000
0.032532 0.004106 0.681194 0.000000 0.000000 0.000000
0.049938 -0.071276 0.741944 0.000000 0.000000 0.000000
0.007368 0.010770 0.690338 0.000000 0.000000 0.000000
0.053366 -0.064985 0.740469 0.000000 0.000000 0.000000
0.047786 -0.061846 0.732635 0.000000 0.000000 0.000000
0.030576 -0.071805 0.779041 0.000000 0.000000 0.000000
0.017815 0.019550 0.675295 0.000000 0.000000 0.000000
0.003975 0.035492 0.662820 0.000000 0.000000 0.000000
0.042517 -0.092744 0.789626 0.000000 0.000000 0.000000
0.030160 -0.088219 0.794462 0.000000 0.000000 0.000000
0.005561 0.011927 0.698801 0.000000 0.000000 0.000000
0.044100 -0.090929 0.783787 0.000000 0.000000 0.000000
0.011332 -0.000576 0.701827 0.000000 0.000000 0.000000
0.012749 0.012006 0.686110 0.000000 0.000000 0.000000
0.033285 -0.020187 0.709230 0.000000 0.000000 0.000000
0.028269 -0.068569 0.778518 0.000000 0.000000 0.000000
0.019776 0.035420 0.660097 0.000000 0.000000 0.000000
0.023847 0.052585 0.651382 0.000000 0.000000 0.000000
0.006121 0.025266 0.665033 0.000000 0.000000 0.000000
0.022365 0.040179 0.658476 0.000000 0.000000 0.000000
0.021702 0.057704 0.644997 0.000000 0.000000 0.000000
0.001782 0.027349 0.679020 0.000000 0.000000 0.000000
0.019801 0.051605 0.649089 0.000000 0.000000 0.000000
0.023505 0.054705 0.647057 0.000000 0.000000 0.000000
0.058985 -0.049969 0.725653 0.000000 0.000000 0.000000
0.026361 0.038000 0.651389 0.000000 0.000000 0.000000
0.041056 -0.033651 0.726153 0.000000 0.000000 0.000000
0.008257 0.009570 0.692065 0.000000 0.000000 0.000000
0.033980 -0.083921 0.786705 0.000000 0.000000 0.000000
0.021829 0.025688 0.663894 0.000000 0.000000 0.000000
0.020621 0.029314 0.663171 0.000000 0.000000 0.000000
0.035764 -0.003293 0.682371 0.000000 0.000000 0.000000
0.043444 -0.021872 0.720713 0.000000 0.000000 0.000000
0.056277 -0.065796 0.728020 0.000000 0.000000 0.000000
0.009967 0.007467 0.688327 0.000000 0.000000 0.000000
0.027662 -0.038447 0.741645 0.000000 0.000000 0.000000
0.043006 -0.022648 0.698852 0.000000 0.000000 0.000000
0.055728 -0.065900 0.744210 0.000000 0.000000 0.000000
0.060021 -0.062010 0.738208 0.000000 0.000000 0.000000
0.028243 0.026320 0.662319 0.000000 0.000000 0.000000
0.054954 -0.085205 0.760391 0.000000 0.000000 0.000000
0.057686 -0.064492 0.757802 0.000000 0.000000 0.000000
0.050706 -0.041036 0.740606 0.000000 0.000000 0.000000
0.034986 -0.065852 0.760004 0.000000 0.000000 0.000000
0.024602 -0.044724 0.737474 0.000000 0.000000 0.000000
0.038960 -0.000979 0.677240 0.000000 0.000000 0.000000
0.037947 -0.060948 0.754167 0.000000 0.000000 0.000000
0.053585 -0.053059 0.731411 0.000000 0.000000 0.000000
0.011072 0.015089 0.704549 0.000000 0.000000 0.000000
0.016452 -0.075139 0.789932 0.000000 0.000000 0.000000
0.026908 0.032330 0.655443 0.000000 0.000000 0.000000
0.016458 0.031271 0.663125 0.000000 0.000000 0.000000
0.020819 0.032721 0.656739 0.000000 0.000000 0.000000
0.026654 -0.018926 0.708601 0.000000 0.000000 0.000000
0.040678 -0.025419 0.723671 0.000000 0.000000 0.000000
0.057342 -0.052135 0.717130 0.000000 0.000000 0.000000
0.017204 0.021502 0.675241 0.000000 0.000000 0.000000
0.033156 -0.011919 0.703911 0.000000 0.000000 0.000000
0.060123 -0.061276 0.731276 0.000000 0.000000 0.000000
0.055602 -0.065236 0.747835 0.000000 0.000000 0.000000
0.026049 0.033021 0.662259 0.000000 0.000000 0.000000
0.056920 -0.079528 0.756256 0.000000 0.000000 0.000000
0.046015 -0.051274 0.735616 0.000000 0.000000 0.000000
0.031338 -0.038242 0.731405 0.000000 0.000000 0.000000
0.048692 -0.079720 0.770553 0.000000 0.000000 0.000000
0.047766 -0.059853 0.746428 0.000000 0.000000 0.000000
0.034012 -0.038682 0.729048 0.000000 0.000000 0.000000
0.041063 0.002891 0.678939 0.000000 0.000000 0.000000
0.051543 -0.066949 0.747238 0.000000 0.000000 0.000000
0.044113 -0.044698 0.729131 0.000000 0.000000 0.000000
-0.003264 0.011576 0.710366 0.000000 0.000000 0.000000
0.022688 -0.077960 0.790043 0.000000 0.000000 0.000000
0.047190 0.012680 0.674101 0.000000 0.000000 0.000000
0.060832 -0.068044 0.743111 0.000000 0.000000 0.000000
0.032867 0.018081 0.668101 0.000000 0.000000 0.000000
0.005882 -0.025087 0.719591 0.000000 0.000000 0.000000
-0.011929 0.006734 0.711503 0.000000 0.000000 0.000000
0.035184 0.025933 0.657717 0.000000 0.000000 0.000000
0.014868 -0.007331 0.722434 0.000000 0.000000 0.000000
0.044026 -0.082398 0.763850 0.000000 0.000000 0.000000
0.027798 0.025485 0.665228 0.000000 0.000000 0.000000
0.004665 0.032634 0.664472 0.000000 0.000000 0.000000
0.041378 -0.080299 0.772194 0.000000 0.000000 0.000000
0.023034 -0.069412 0.780289 0.000000 0.000000 0.000000
0.000423 -0.013733 0.716578 0.000000 0.000000 0.000000
0.047885 -0.028584 0.701290 0.000000 0.000000 0.000000
0.006474 -0.002357 0.724363 0.000000 0.000000 0.000000
0.044732 -0.042408 0.717706 0.000000 0.000000 0.000000
0.019736 0.014360 0.712706 0.000000 0.000000 0.000000
0.027493 -0.003665 0.711681 0.000000 0.000000 0.000000
0.035287 -0.057248 0.754516 0.000000 0.000000 0.000000
0.048196 -0.072697 0.767824 0.000000 0.000000 0.000000
0.034733 -0.084764 0.787866 0.000000 0.000000 0.000000
0.046169 -0.034483 0.712834 0.000000 0.000000 0.000000
0.047949 -0.082314 0.777405 0.000000 0.000000 0.000000
0.001904 -0.000808 0.717506 0.000000 0.000000 0.000000
0.063879 -0.042846 0.729476 0.000000 0.000000 0.000000
0.046510 -0.070624 0.749197 0.000000 0.000000 0.000000
0.015410 0.014686 0.713432 0.000000 0.000000 0.000000
0.043977 -0.041598 0.708741 0.000000 0.000000 0.000000
0.034113 -0.090777 0.796108 0.000000 0.000000 0.000000
0.031794 -0.065690 0.766264 0.000000 0.000000 0.000000
0.038858 -0.056693 0.759534 0.000000 0.000000 0.000000
0.025383 -0.066648 0.768530 0.000000 0.000000 0.000000
0.038286 -0.079630 0.776679 0.000000 0.000000 0.000000
0.033412 -0.030957 0.742712 0.000000 0.000000 0.000000
0.052039 -0.036493 0.710760 0.000000 0.000000 0.000000
0.000591 0.005852 0.720321 0.000000 0.000000 0.000000
0.005113 0.034728 0.664509 0.000000 0.000000 0.000000
0.041814 -0.028851 0.696016 0.000000 0.000000 0.000000
0.016841 0.011925 0.718649 0.000000 0.000000 0.000000
0.031032 -0.075823 0.771841 0.000000 0.000000 0.000000
0.044998 -0.057194 0.751414 0.000000 0.000000 0.000000
0.040694 -0.092269 0.797071 0.000000 0.000000 0.000000
0.041184 -0.073509 0.766621 0.000000 0.000000 0.000000
0.041383 -0.083621 0.780669 0.000000 0.000000 0.000000
0.060852 -0.032870 0.721348 0.000000 0.000000 0.000000
0.039643 -0.071089 0.764341 0.000000 0.000000 0.000000
0.013216 0.003144 0.718249 0.000000 0.000000 0.000000
0.052379 -0.053042 0.712715 0.000000 0.000000 0.000000
0.030021 -0.080315 0.790363 0.000000 0.000000 0.000000
0.034333 -0.064625 0.766891 0.000000 0.000000 0.000000
0.023093 -0.028788 0.744821 0.000000 0.000000 0.000000
0.033310 -0.053152 0.745453 0.000000 0.000000 0.000000
0.009232 -0.011580 0.694308 0.000000 0.000000 0.000000
0.019267 -0.019745 0.743364 0.000000 0.000000 0.000000
0.048908 -0.014986 0.698542 0.000000 0.000000 0.000000
0.023226 0.031708 0.662110 0.000000 0.000000 0.000000
0.020092 0.055279 0.646778 0.000000 0.000000 0.000000
0.049944 -0.086183 0.767945 0.000000 0.000000 0.000000
0.038665 -0.086508 0.788331 0.000000 0.000000 0.000000
0.058387 -0.009728 0.695318 0.000000 0.000000 0.000000
0.044137 -0.069286 0.752819 0.000000 0.000000 0.000000
0.046868 -0.075906 0.757869 0.000000 0.000000 0.000000
0.063768 -0.046423 0.727919 0.000000 0.000000 0.000000
0.043065 -0.084927 0.776142 0.000000 0.000000 0.000000
0.045063 -0.094921 0.781381 0.000000 0.000000 0.000000
0.057982 -0.063069 0.748239 0.000000 0.000000 0.000000
0.030613 -0.040860 0.747385 0.000000 0.000000 0.000000
0.009722 -0.044486 0.758394 0.000000 0.000000 0.000000
0.047413 -0.071515 0.743272 0.000000 0.000000 0.000000
0.041044 -0.066885 0.753673 0.000000 0.000000 0.000000
0.034534 -0.080781 0.774113 0.000000 0.000000 0.000000
0.048338 -0.088700 0.777874 0.000000 0.000000 0.000000
0.056516 -0.066250 0.754353 0.000000 0.000000 0.000000
0.061971 -0.060282 0.754789 0.000000 0.000000 0.000000
0.031667 -0.032915 0.742768 0.000000 0.000000 0.000000
0.011658 -0.054717 0.769878 0.000000 0.000000 0.000000
0.024357 -0.003371 0.717158 0.000000 0.000000 0.000000
0.021669 -0.079229 0.787023 0.000000 0.000000 0.000000
0.033920 -0.015552 0.712666 0.000000 0.000000 0.000000
-0.012695 0.005028 0.719837 0.000000 0.000000 0.000000
0.025269 -0.029001 0.727005 0.000000 0.000000 0.000000
0.026564 -0.013198 0.732630 0.000000 0.000000 0.000000
0.021865 -0.052178 0.764620 0.000000 0.000000 0.000000
0.022460 -0.055105 0.762627 0.000000 0.000000 0.000000
0.027844 -0.059565 0.766134 0.000000 0.000000 0.000000
0.020813 -0.001341 0.704125 0.000000 0.000000 0.000000
0.018109 0.001430 0.701648 0.000000 0.000000 0.000000
-0.001340 -0.007144 0.732496 0.000000 0.000000 0.000000
0.025168 -0.059391 0.772954 0.000000 0.000000 0.000000
0.058384 -0.062340 0.750479 0.000000 0.000000 0.000000
-0.000185 -0.042838 0.763786 0.000000 0.000000 0.000000
0.014521 0.003536 0.701709 0.000000 0.000000 0.000000
-0.010315 0.018240 0.707629 0.000000 0.000000 0.000000
0.024064 -0.028902 0.729696 0.000000 0.000000 0.000000
0.018090 -0.063243 0.777342 0.000000 0.000000 0.000000
0.019413 -0.036359 0.750514 0.000000 0.000000 0.000000
0.025494 -0.068518 0.780610 0.000000 0.000000 0.000000
0.015177 -0.072258 0.783476 0.000000 0.000000 0.000000
0.003154 0.004909 0.708049 0.000000 0.000000 0.000000
0.021475 0.001125 0.692104 0.000000 0.000000 0.000000
0.002249 -0.016200 0.723955 0.000000 0.000000 0.000000
0.025926 -0.062350 0.767443 0.000000 0.000000 0.000000
0.057062 -0.072541 0.766719 0.000000 0.000000 0.000000
0.009982 -0.051011 0.766148 0.000000 0.000000 0.000000
0.009333 0.017113 0.683782 0.000000 0.000000 0.000000
0.037287 0.017160 0.672381 0.000000 0.000000 0.000000
0.004548 0.017179 0.686795 0.000000 0.000000 0.000000
0.011683 0.013530 0.691285 0.000000 0.000000 0.000000
0.011425 0.019732 0.693901 0.000000 0.000000 0.000000
0.012672 0.007296 0.690125 0.000000 0.000000 0.000000
0.037037 -0.084138 0.783645 0.000000 0.000000 0.000000
0.040989 -0.093677 0.796463 0.000000 0.000000 0.000000
0.046545 -0.016154 0.715892 0.000000 0.000000 0.000000
0.033512 -0.048702 0.731566 0.000000 0.000000 0.000000
0.039932 -0.056459 0.743275 0.000000 0.000000 0.000000
-0.001104 0.021395 0.699944 0.000000 0.000000 0.000000
0.050626 -0.024352 0.731374 0.000000 0.000000 0.000000
0.022043 -0.008288 0.719250 0.000000 0.000000 0.000000
0.049697 -0.089733 0.773522 0.000000 0.000000 0.000000
0.058717 -0.057416 0.751274 0.000000 0.000000 0.000000
0.059364 -0.014966 0.700879 0.000000 0.000000 0.000000
0.028634 -0.022958 0.719560 0.000000 0.000000 0.000000
0.008953 0.023286 0.688151 0.000000 0.000000 0.000000
0.046460 -0.025966 0.718046 0.000000 0.000000 0.000000
0.044476 -0.048042 0.733672 0.000000 0.000000 0.000000
0.027905 -0.051950 0.740564 0.000000 0.000000 0.000000
0.000427 0.019164 0.699731 0.000000 0.000000 0.000000
0.007362 -0.000561 0.712935 0.000000 0.000000 0.000000
0.049673 -0.083489 0.765329 0.000000 0.000000 0.000000
0.059709 -0.052615 0.745932 0.000000 0.000000 0.000000
0.056469 -0.012830 0.698064 0.000000 0.000000 0.000000
0.027423 -0.010131 0.710311 0.000000 0.000000 0.000000
0.003475 0.022297 0.690283 0.000000 0.000000 0.000000
0.013759 -0.069303 0.783312 0.000000 0.000000 0.000000
-0.012534 0.009000 0.703619 0.000000 0.000000 0.000000
0.039939 -0.092945 0.793196 0.000000 0.000000 0.000000
0.040062 -0.022194 0.727726 0.000000 0.000000 0.000000
0.017224 -0.027569 0.736310 0.000000 0.000000 0.000000
-0.003783 0.005560 0.673273 0.000000 0.000000 0.000000
0.008878 -0.002487 0.732515 0.000000 0.000000 0.000000
-0.005599 0.000848 0.689402 0.000000 0.000000 0.000000
0.012836 -0.017831 0.731056 0.000000 0.000000 0.000000
-0.001526 -0.013163 0.726489 0.000000 0.000000 0.000000
0.029603 -0.037368 0.748933 0.000000 0.000000 0.000000
0.003261 -0.060610 0.780245 0.000000 0.000000 0.000000
-0.005224 0.005472 0.701795 0.000000 0.000000 0.000000
0.050850 -0.030976 0.741996 0.000000 0.000000 0.000000
0.025599 -0.009452 0.717531 0.000000 0.000000 0.000000
0.022696 -0.021882 0.731778 0.000000 0.000000 0.000000
-0.005111 0.024712 0.676011 0.000000 0.000000 0.000000
0.014808 -0.021003 0.723646 0.000000 0.000000 0.000000
0.002855 0.004047 0.699549 0.000000 0.000000 0.000000
0.015664 -0.025166 0.720828 0.000000 0.000000 0.000000
0.020196 -0.001719 0.710254 0.000000 0.000000 0.000000
0.024389 -0.032144 0.743459 0.000000 0.000000 0.000000
0.000554 -0.048746 0.772095 0.000000 0.000000 0.000000
-0.003554 0.004743 0.707368 0.000000 0.000000 0.000000
0.042144 -0.049738 0.750895 0.000000 0.000000 0.000000
