ply
format ascii 1.0
comment VCGLIB generated
obj_info Generated by SPFormer!
element vertex 498
property float x
property float y
property float z
property float nx
property float ny
property float nz
end_header
0.213633 0.040545 -0.046205 0.000000 0.000000 0.000000
0.215147 0.038237 -0.040035 0.000000 0.000000 0.000000
0.237156 0.032025 -0.052833 0.000000 0.000000 0.000000
0.211907 0.041991 -0.038905 0.000000 0.000000 0.000000
0.198902 0.049415 -0.037008 0.000000 0.000000 0.000000
0.237636 0.007886 -0.077852 0.000000 0.000000 0.000000
0.230010 0.039272 -0.049458 0.000000 0.000000 0.000000
0.223414 0.034355 -0.052968 0.000000 0.000000 0.000000
0.210546 0.042876 -0.041368 0.000000 0.000000 0.000000
0.228390 0.032872 -0.041057 0.000000 0.000000 0.000000
0.228496 0.029539 -0.040218 0.000000 0.000000 0.000000
0.215204 0.040322 -0.029783 0.000000 0.000000 0.000000
0.231343 0.007472 -0.041621 0.000000 0.000000 0.000000
0.208212 0.041293 -0.047319 0.000000 0.000000 0.000000
0.221393 0.042720 -0.038968 0.000000 0.000000 0.000000
0.221731 0.038718 -0.044612 0.000000 0.000000 0.000000
0.213784 0.047184 -0.026291 0.000000 0.000000 0.000000
0.215474 0.056525 -0.045359 0.000000 0.000000 0.000000
0.208906 0.045863 -0.052580 0.000000 0.000000 0.000000
0.238560 0.010322 -0.055438 0.000000 0.000000 0.000000
0.220785 0.039964 -0.049340 0.000000 0.000000 0.000000
0.238081 0.027366 -0.045421 0.000000 0.000000 0.000000
0.196501 0.048131 -0.046593 0.000000 0.000000 0.000000
0.052009 0.009457 0.003645 0.000000 0.000000 0.000000
0.224259 0.045881 -0.044351 0.000000 0.000000 0.000000
0.222830 0.014472 -0.043460 0.000000 0.000000 0.000000
0.214568 0.048605 -0.049522 0.000000 0.000000 0.000000
0.198517 0.046622 -0.050126 0.000000 0.000000 0.000000
0.214663 0.038893 -0.049199 0.000000 0.000000 0.000000
0.225880 0.038541 -0.050794 0.000000 0.000000 0.000000
0.083066 0.021628 -0.002152 0.000000 0.000000 0.000000
0.079765 0.014923 0.022682 0.000000 0.000000 0.000000
0.208386 0.051358 -0.033715 0.000000 0.000000 0.000000
0.210031 0.056068 -0.046375 0.000000 0.000000 0.000000
0.232077 0.035788 -0.050872 0.000000 0.000000 0.000000
0.213362 0.050779 -0.024329 0.000000 0.000000 0.000000
0.054353 0.014111 -0.008752 0.000000 0.000000 0.000000
0.223903 0.042216 -0.047036 0.000000 0.000000 0.000000
0.229483 0.017853 -0.060216 0.000000 0.000000 0.000000
0.201443 0.045426 -0.040693 0.000000 0.000000 0.000000
0.226927 0.036361 -0.054751 0.000000 0.000000 0.000000
0.049933 0.005727 0.002513 0.000000 0.000000 0.000000
0.233838 0.030297 -0.040087 0.000000 0.000000 0.000000
0.206533 0.039212 -0.042001 0.000000 0.000000 0.000000
0.208493 0.047949 -0.028548 0.000000 0.000000 0.000000
0.234468 0.014544 -0.044863 0.000000 0.000000 0.000000
0.062875 0.018542 -0.003144 0.000000 0.000000 0.000000
0.068991 0.006923 0.003093 0.000000 0.000000 0.000000
0.206020 0.040404 -0.036139 0.000000 0.000000 0.000000
0.228328 0.041824 -0.046551 0.000000 0.000000 0.000000
0.231342 0.044228 -0.045731 0.000000 0.000000 0.000000
0.220940 0.047944 -0.034019 0.000000 0.000000 0.000000
0.200612 0.049488 -0.037816 0.000000 0.000000 0.000000
0.203266 0.044920 -0.045995 0.000000 0.000000 0.000000
0.211855 0.036016 -0.053127 0.000000 0.000000 0.000000
0.082138 0.027878 0.018557 0.000000 0.000000 0.000000
0.051416 0.022376 -0.006260 0.000000 0.000000 0.000000
0.206780 0.056834 -0.029996 0.000000 0.000000 0.000000
0.082735 0.029748 -0.001283 0.000000 0.000000 0.000000
0.211673 0.043158 -0.046105 0.000000 0.000000 0.000000
0.061801 0.006424 -0.001793 0.000000 0.000000 0.000000
0.224115 0.047023 -0.040827 0.000000 0.000000 0.000000
0.204447 0.043402 -0.041646 0.000000 0.000000 0.000000
0.047708 0.039389 0.002916 0.000000 0.000000 0.000000
0.236894 0.034559 -0.040145 0.000000 0.000000 0.000000
0.218755 0.049332 -0.027643 0.000000 0.000000 0.000000
0.222332 0.050582 -0.024383 0.000000 0.000000 0.000000
0.230889 0.040722 -0.045777 0.000000 0.000000 0.000000
0.219273 0.053027 -0.037778 0.000000 0.000000 0.000000
0.228859 0.043608 -0.047252 0.000000 0.000000 0.000000
0.045794 0.011685 -0.006185 0.000000 0.000000 0.000000
0.235411 0.031821 -0.040044 0.000000 0.000000 0.000000
0.215594 0.040476 -0.044537 0.000000 0.000000 0.000000
0.222873 0.045504 -0.046535 0.000000 0.000000 0.000000
0.203894 0.044413 -0.046498 0.000000 0.000000 0.000000
0.053116 0.011121 0.000048 0.000000 0.000000 0.000000
0.044148 0.000685 0.006021 0.000000 0.000000 0.000000
0.214209 0.056660 -0.040721 0.000000 0.000000 0.000000
0.196153 0.050909 -0.036021 0.000000 0.000000 0.000000
0.227748 0.047550 -0.045715 0.000000 0.000000 0.000000
0.227999 0.038789 -0.050897 0.000000 0.000000 0.000000
0.077660 0.003683 -0.001355 0.000000 0.000000 0.000000
0.211372 0.041768 -0.049621 0.000000 0.000000 0.000000
0.208869 0.038138 -0.047473 0.000000 0.000000 0.000000
0.213259 0.045293 -0.036514 0.000000 0.000000 0.000000
0.072989 -0.013242 -0.007931 0.000000 0.000000 0.000000
0.079907 0.035562 -0.001417 0.000000 0.000000 0.000000
0.202445 0.047043 -0.041450 0.000000 0.000000 0.000000
0.083700 0.008029 -0.014385 0.000000 0.000000 0.000000
0.223759 0.055595 -0.030664 0.000000 0.000000 0.000000
0.213640 0.041784 -0.046440 0.000000 0.000000 0.000000
0.221071 0.036773 -0.054727 0.000000 0.000000 0.000000
0.200862 0.053689 -0.034804 0.000000 0.000000 0.000000
0.196005 0.043945 -0.038213 0.000000 0.000000 0.000000
0.208766 0.057024 -0.032306 0.000000 0.000000 0.000000
0.218235 0.054097 -0.032831 0.000000 0.000000 0.000000
0.214624 0.045670 -0.039779 0.000000 0.000000 0.000000
0.198626 0.054588 -0.034666 0.000000 0.000000 0.000000
0.222226 0.052365 -0.029554 0.000000 0.000000 0.000000
0.064026 0.008954 0.010747 0.000000 0.000000 0.000000
0.200924 0.048624 -0.037616 0.000000 0.000000 0.000000
0.210668 0.044253 -0.043215 0.000000 0.000000 0.000000
0.212817 0.045193 -0.030324 0.000000 0.000000 0.000000
0.069311 0.016700 -0.001738 0.000000 0.000000 0.000000
0.204334 0.046866 -0.048822 0.000000 0.000000 0.000000
0.049218 0.012306 -0.001515 0.000000 0.000000 0.000000
0.058819 -0.002167 -0.002434 0.000000 0.000000 0.000000
0.226976 0.012497 -0.056006 0.000000 0.000000 0.000000
0.200697 0.049097 -0.048110 0.000000 0.000000 0.000000
0.226393 0.048873 -0.020156 0.000000 0.000000 0.000000
0.216010 0.054066 -0.012455 0.000000 0.000000 0.000000
0.051942 0.005713 0.003885 0.000000 0.000000 0.000000
0.051505 0.020318 0.002749 0.000000 0.000000 0.000000
0.075957 0.017671 0.016255 0.000000 0.000000 0.000000
0.045647 0.031409 0.001656 0.000000 0.000000 0.000000
0.041747 0.010363 0.001131 0.000000 0.000000 0.000000
0.058320 0.023807 -0.007783 0.000000 0.000000 0.000000
0.071876 -0.004045 -0.007548 0.000000 0.000000 0.000000
0.057963 -0.006756 -0.008942 0.000000 0.000000 0.000000
0.036888 0.025185 -0.000273 0.000000 0.000000 0.000000
0.039585 0.009884 0.001697 0.000000 0.000000 0.000000
0.043348 0.001916 -0.006292 0.000000 0.000000 0.000000
0.214237 0.052070 -0.048376 0.000000 0.000000 0.000000
0.200733 0.048193 -0.044924 0.000000 0.000000 0.000000
0.064027 -0.008800 -0.004414 0.000000 0.000000 0.000000
0.047943 0.007265 0.004915 0.000000 0.000000 0.000000
0.224612 0.033480 -0.045359 0.000000 0.000000 0.000000
0.213960 0.038853 -0.049702 0.000000 0.000000 0.000000
0.044180 0.007742 0.002350 0.000000 0.000000 0.000000
0.081349 0.034611 -0.000563 0.000000 0.000000 0.000000
0.201931 0.046891 -0.034983 0.000000 0.000000 0.000000
0.198892 0.044784 -0.067087 0.000000 0.000000 0.000000
0.220058 0.050594 -0.024779 0.000000 0.000000 0.000000
0.233251 0.029999 -0.054251 0.000000 0.000000 0.000000
0.221584 0.052217 -0.033597 0.000000 0.000000 0.000000
0.209261 0.049987 -0.044849 0.000000 0.000000 0.000000
0.220485 0.052963 -0.027651 0.000000 0.000000 0.000000
0.042793 0.003352 -0.004441 0.000000 0.000000 0.000000
0.037410 0.041075 0.000510 0.000000 0.000000 0.000000
0.221873 0.048747 -0.024259 0.000000 0.000000 0.000000
0.206595 0.043598 -0.033573 0.000000 0.000000 0.000000
0.054013 0.047435 0.001320 0.000000 0.000000 0.000000
0.198772 0.044991 -0.047277 0.000000 0.000000 0.000000
0.224134 0.051392 -0.020697 0.000000 0.000000 0.000000
0.056676 0.027420 -0.007737 0.000000 0.000000 0.000000
0.213837 0.044407 -0.052655 0.000000 0.000000 0.000000
0.200145 0.041721 -0.034995 0.000000 0.000000 0.000000
0.215594 0.050949 -0.049181 0.000000 0.000000 0.000000
0.056084 0.028890 0.005871 0.000000 0.000000 0.000000
0.213331 0.056207 -0.047090 0.000000 0.000000 0.000000
0.195865 0.047439 -0.044121 0.000000 0.000000 0.000000
0.194722 0.049758 -0.041277 0.000000 0.000000 0.000000
0.048292 0.044291 0.000201 0.000000 0.000000 0.000000
0.209279 0.052132 -0.047386 0.000000 0.000000 0.000000
0.082339 0.011599 -0.010823 0.000000 0.000000 0.000000
0.217375 0.052401 -0.023780 0.000000 0.000000 0.000000
0.215644 0.057920 -0.049270 0.000000 0.000000 0.000000
0.210642 0.048260 -0.050315 0.000000 0.000000 0.000000
0.042410 0.028573 0.017757 0.000000 0.000000 0.000000
0.036440 0.022203 0.000789 0.000000 0.000000 0.000000
0.206865 0.052270 -0.044901 0.000000 0.000000 0.000000
0.215055 0.044771 -0.049457 0.000000 0.000000 0.000000
0.219511 0.053975 -0.050842 0.000000 0.000000 0.000000
0.071636 0.036247 0.006378 0.000000 0.000000 0.000000
0.224190 0.051835 -0.050215 0.000000 0.000000 0.000000
0.035916 0.023084 0.000644 0.000000 0.000000 0.000000
0.053682 0.003553 0.001096 0.000000 0.000000 0.000000
0.055971 0.002275 0.015999 0.000000 0.000000 0.000000
0.074384 0.033589 0.000108 0.000000 0.000000 0.000000
0.217494 0.049597 -0.051446 0.000000 0.000000 0.000000
0.072610 0.000150 0.005690 0.000000 0.000000 0.000000
0.080600 0.037085 0.001053 0.000000 0.000000 0.000000
0.045359 0.040891 0.001130 0.000000 0.000000 0.000000
0.075282 0.031179 0.007633 0.000000 0.000000 0.000000
0.212554 0.044204 -0.046330 0.000000 0.000000 0.000000
0.222169 0.055382 -0.048650 0.000000 0.000000 0.000000
0.209257 0.040644 -0.052298 0.000000 0.000000 0.000000
0.204320 0.049769 -0.047425 0.000000 0.000000 0.000000
0.216611 0.052032 -0.041122 0.000000 0.000000 0.000000
0.205508 0.056298 -0.034397 0.000000 0.000000 0.000000
0.058632 0.048038 -0.008601 0.000000 0.000000 0.000000
0.076433 0.020590 0.000490 0.000000 0.000000 0.000000
0.069379 0.025182 -0.000908 0.000000 0.000000 0.000000
0.060581 0.014171 -0.006908 0.000000 0.000000 0.000000
0.067715 0.033342 0.006858 0.000000 0.000000 0.000000
0.071783 0.008233 0.005772 0.000000 0.000000 0.000000
0.076004 0.000013 0.019470 0.000000 0.000000 0.000000
0.073218 0.002036 0.022912 0.000000 0.000000 0.000000
0.078690 0.004581 0.016810 0.000000 0.000000 0.000000
0.223123 0.033307 -0.042274 0.000000 0.000000 0.000000
0.036203 0.027497 -0.000748 0.000000 0.000000 0.000000
0.198449 0.047498 -0.042245 0.000000 0.000000 0.000000
0.200072 0.041690 -0.051051 0.000000 0.000000 0.000000
0.059133 0.041248 0.007439 0.000000 0.000000 0.000000
0.073765 0.030359 0.007574 0.000000 0.000000 0.000000
0.196191 0.044450 -0.060347 0.000000 0.000000 0.000000
0.069951 0.050517 0.014474 0.000000 0.000000 0.000000
0.079391 0.030088 -0.001689 0.000000 0.000000 0.000000
0.233594 0.034980 -0.053029 0.000000 0.000000 0.000000
0.219425 0.034226 -0.058745 0.000000 0.000000 0.000000
0.069753 0.054394 0.010504 0.000000 0.000000 0.000000
0.210757 0.045306 -0.034019 0.000000 0.000000 0.000000
0.219720 0.034406 -0.055136 0.000000 0.000000 0.000000
0.231819 0.031083 -0.050265 0.000000 0.000000 0.000000
0.078288 0.043102 -0.005217 0.000000 0.000000 0.000000
0.047168 0.042632 0.001557 0.000000 0.000000 0.000000
0.066953 -0.013586 -0.000768 0.000000 0.000000 0.000000
0.200285 0.047610 -0.052487 0.000000 0.000000 0.000000
0.075979 0.006192 0.011351 0.000000 0.000000 0.000000
0.237254 0.025777 -0.053530 0.000000 0.000000 0.000000
0.071703 0.028298 0.001300 0.000000 0.000000 0.000000
0.067247 0.020325 0.005505 0.000000 0.000000 0.000000
0.072879 0.019457 0.004801 0.000000 0.000000 0.000000
0.076662 0.025192 0.001915 0.000000 0.000000 0.000000
0.043748 0.021320 -0.000462 0.000000 0.000000 0.000000
0.206443 0.045488 -0.048013 0.000000 0.000000 0.000000
0.196556 0.051203 -0.039261 0.000000 0.000000 0.000000
0.198933 0.051519 -0.043636 0.000000 0.000000 0.000000
0.219806 0.053215 -0.022982 0.000000 0.000000 0.000000
0.040957 0.012016 0.001837 0.000000 0.000000 0.000000
0.042411 0.022650 -0.000030 0.000000 0.000000 0.000000
0.219839 0.047603 -0.051689 0.000000 0.000000 0.000000
0.036046 0.022114 0.000047 0.000000 0.000000 0.000000
0.207226 0.050971 -0.039245 0.000000 0.000000 0.000000
0.218364 0.043720 -0.055753 0.000000 0.000000 0.000000
0.203956 0.050624 -0.030569 0.000000 0.000000 0.000000
0.220679 0.050811 -0.053509 0.000000 0.000000 0.000000
0.035489 0.032337 -0.000749 0.000000 0.000000 0.000000
0.203329 0.043434 -0.043020 0.000000 0.000000 0.000000
0.033649 0.014310 0.000904 0.000000 0.000000 0.000000
0.044099 0.005751 0.002040 0.000000 0.000000 0.000000
0.057399 0.027493 -0.007423 0.000000 0.000000 0.000000
0.046128 0.002520 -0.003362 0.000000 0.000000 0.000000
0.223988 0.052519 -0.023034 0.000000 0.000000 0.000000
0.237435 0.025685 -0.046840 0.000000 0.000000 0.000000
0.220381 0.054179 -0.025436 0.000000 0.000000 0.000000
0.035694 0.041097 0.000058 0.000000 0.000000 0.000000
0.077532 0.029966 0.015581 0.000000 0.000000 0.000000
0.229472 0.031202 -0.043799 0.000000 0.000000 0.000000
0.227781 0.034701 -0.053750 0.000000 0.000000 0.000000
0.219400 0.034976 -0.047959 0.000000 0.000000 0.000000
0.077757 0.028541 -0.007057 0.000000 0.000000 0.000000
0.227283 0.032768 -0.053412 0.000000 0.000000 0.000000
0.230743 0.034085 -0.055367 0.000000 0.000000 0.000000
0.233915 0.015001 -0.055754 0.000000 0.000000 0.000000
0.201584 0.050349 -0.036386 0.000000 0.000000 0.000000
0.045814 0.024805 -0.001311 0.000000 0.000000 0.000000
0.033964 0.020376 0.001393 0.000000 0.000000 0.000000
0.230622 0.034429 -0.043634 0.000000 0.000000 0.000000
0.192044 0.043486 -0.044360 0.000000 0.000000 0.000000
0.060116 0.011455 -0.003573 0.000000 0.000000 0.000000
0.042306 0.042252 -0.000215 0.000000 0.000000 0.000000
0.058589 0.002983 -0.002547 0.000000 0.000000 0.000000
0.224360 0.014158 -0.046521 0.000000 0.000000 0.000000
0.204753 0.055044 -0.031991 0.000000 0.000000 0.000000
0.195704 0.045962 -0.041103 0.000000 0.000000 0.000000
0.043714 0.037431 0.000670 0.000000 0.000000 0.000000
0.227058 0.048941 -0.025810 0.000000 0.000000 0.000000
0.226296 0.020052 -0.050993 0.000000 0.000000 0.000000
0.031082 0.019001 -0.001161 0.000000 0.000000 0.000000
0.208625 0.051327 -0.028588 0.000000 0.000000 0.000000
0.207931 0.049217 -0.048381 0.000000 0.000000 0.000000
0.197561 0.047790 -0.041953 0.000000 0.000000 0.000000
0.195416 0.047216 -0.043489 0.000000 0.000000 0.000000
0.212829 0.054026 -0.029646 0.000000 0.000000 0.000000
0.213850 0.050412 -0.020713 0.000000 0.000000 0.000000
0.209923 0.051495 -0.025829 0.000000 0.000000 0.000000
0.038475 0.039052 0.000602 0.000000 0.000000 0.000000
0.053586 0.042823 0.000028 0.000000 0.000000 0.000000
0.028324 0.041987 -0.003674 0.000000 0.000000 0.000000
0.081434 0.031447 0.002625 0.000000 0.000000 0.000000
0.071404 0.038854 0.006579 0.000000 0.000000 0.000000
0.076409 0.031418 0.008746 0.000000 0.000000 0.000000
0.076368 0.041125 -0.004486 0.000000 0.000000 0.000000
0.078780 -0.011245 -0.006888 0.000000 0.000000 0.000000
0.082658 0.027262 0.009686 0.000000 0.000000 0.000000
0.067977 0.029930 0.001738 0.000000 0.000000 0.000000
0.058475 0.032190 0.003893 0.000000 0.000000 0.000000
0.064204 0.032858 0.001721 0.000000 0.000000 0.000000
0.071109 0.035960 -0.003951 0.000000 0.000000 0.000000
0.191289 0.044504 -0.053987 0.000000 0.000000 0.000000
0.056374 0.048702 -0.005203 0.000000 0.000000 0.000000
0.076113 0.006553 -0.013519 0.000000 0.000000 0.000000
0.078383 0.034661 0.010019 0.000000 0.000000 0.000000
0.074329 0.041746 0.011676 0.000000 0.000000 0.000000
0.063475 -0.009716 -0.002287 0.000000 0.000000 0.000000
0.044729 0.035070 0.007935 0.000000 0.000000 0.000000
0.071265 0.017362 0.021028 0.000000 0.000000 0.000000
0.054239 0.023666 -0.000222 0.000000 0.000000 0.000000
0.074725 0.026557 0.017885 0.000000 0.000000 0.000000
0.053463 0.004960 0.004741 0.000000 0.000000 0.000000
0.053152 0.049334 0.001542 0.000000 0.000000 0.000000
0.042472 0.018902 0.001076 0.000000 0.000000 0.000000
0.042461 0.032401 0.001002 0.000000 0.000000 0.000000
0.077870 0.002102 0.005774 0.000000 0.000000 0.000000
0.076060 0.012446 0.004557 0.000000 0.000000 0.000000
0.070042 0.016010 0.016117 0.000000 0.000000 0.000000
0.064612 0.006728 -0.000985 0.000000 0.000000 0.000000
0.070888 0.005684 -0.006054 0.000000 0.000000 0.000000
0.063288 0.022672 0.001151 0.000000 0.000000 0.000000
0.072944 0.001102 0.000891 0.000000 0.000000 0.000000
0.062560 0.015038 0.000460 0.000000 0.000000 0.000000
0.196920 0.046575 -0.037870 0.000000 0.000000 0.000000
0.219410 0.055127 -0.011808 0.000000 0.000000 0.000000
0.194341 0.050051 -0.060148 0.000000 0.000000 0.000000
0.071306 0.035506 0.012137 0.000000 0.000000 0.000000
0.061696 0.001361 0.002284 0.000000 0.000000 0.000000
0.032227 0.038739 -0.001260 0.000000 0.000000 0.000000
0.079068 0.037676 0.012417 0.000000 0.000000 0.000000
0.048083 0.018566 0.002389 0.000000 0.000000 0.000000
0.067543 0.041148 0.005203 0.000000 0.000000 0.000000
0.201054 0.046998 -0.060450 0.000000 0.000000 0.000000
0.074560 0.040740 0.011096 0.000000 0.000000 0.000000
0.187178 0.048175 -0.055064 0.000000 0.000000 0.000000
0.057482 0.033623 -0.007490 0.000000 0.000000 0.000000
0.216280 0.047048 -0.016938 0.000000 0.000000 0.000000
0.228269 0.033556 -0.055307 0.000000 0.000000 0.000000
0.035997 0.022377 0.000602 0.000000 0.000000 0.000000
0.037264 0.023218 -0.000835 0.000000 0.000000 0.000000
0.032695 0.019007 -0.000417 0.000000 0.000000 0.000000
0.232834 0.011924 -0.055063 0.000000 0.000000 0.000000
0.038139 0.007522 0.002808 0.000000 0.000000 0.000000
0.075684 0.012139 -0.002792 0.000000 0.000000 0.000000
0.214203 0.055494 -0.009718 0.000000 0.000000 0.000000
0.053029 0.015117 0.003846 0.000000 0.000000 0.000000
0.045585 0.006353 0.000816 0.000000 0.000000 0.000000
0.051082 0.002102 -0.008208 0.000000 0.000000 0.000000
0.052169 0.004433 0.003885 0.000000 0.000000 0.000000
0.079582 0.009247 0.024789 0.000000 0.000000 0.000000
0.042110 0.021875 0.001461 0.000000 0.000000 0.000000
0.025384 0.037258 -0.003798 0.000000 0.000000 0.000000
0.068652 0.003745 -0.000161 0.000000 0.000000 0.000000
0.047029 0.011862 0.002004 0.000000 0.000000 0.000000
0.065685 0.005740 0.013483 0.000000 0.000000 0.000000
0.064676 0.011938 0.021883 0.000000 0.000000 0.000000
0.217896 0.054934 -0.026459 0.000000 0.000000 0.000000
0.049067 0.038391 -0.001264 0.000000 0.000000 0.000000
0.066725 0.010426 0.026490 0.000000 0.000000 0.000000
0.050780 0.020706 0.008628 0.000000 0.000000 0.000000
0.239608 0.025681 -0.046974 0.000000 0.000000 0.000000
0.054527 0.037224 0.001841 0.000000 0.000000 0.000000
0.066734 0.014464 0.008903 0.000000 0.000000 0.000000
0.060795 0.011020 -0.005006 0.000000 0.000000 0.000000
0.231524 0.028580 -0.049766 0.000000 0.000000 0.000000
0.079406 0.012134 0.027530 0.000000 0.000000 0.000000
0.062077 0.021633 0.004303 0.000000 0.000000 0.000000
0.049242 0.027550 0.005016 0.000000 0.000000 0.000000
0.073014 0.003535 0.006020 0.000000 0.000000 0.000000
0.203574 0.040240 -0.034505 0.000000 0.000000 0.000000
0.193814 0.047596 -0.044487 0.000000 0.000000 0.000000
0.052335 0.004782 -0.000449 0.000000 0.000000 0.000000
0.075510 0.012107 0.027369 0.000000 0.000000 0.000000
0.033723 0.017978 0.000112 0.000000 0.000000 0.000000
0.058123 0.016283 0.012566 0.000000 0.000000 0.000000
0.074549 0.026396 0.023961 0.000000 0.000000 0.000000
0.063013 0.030885 0.011965 0.000000 0.000000 0.000000
0.079757 0.019306 0.000575 0.000000 0.000000 0.000000
0.028956 0.030263 -0.002782 0.000000 0.000000 0.000000
0.066697 0.029131 -0.009809 0.000000 0.000000 0.000000
0.073601 0.022852 0.029168 0.000000 0.000000 0.000000
0.072967 0.033109 0.009416 0.000000 0.000000 0.000000
0.063982 0.039588 0.007658 0.000000 0.000000 0.000000
0.050721 0.034866 0.003345 0.000000 0.000000 0.000000
0.043549 0.001555 -0.002072 0.000000 0.000000 0.000000
0.078586 -0.015953 -0.010979 0.000000 0.000000 0.000000
0.202861 0.043263 -0.056720 0.000000 0.000000 0.000000
0.082253 0.024994 0.029255 0.000000 0.000000 0.000000
0.199906 0.044544 -0.054607 0.000000 0.000000 0.000000
0.214257 0.048053 -0.004796 0.000000 0.000000 0.000000
0.043153 0.043791 -0.000183 0.000000 0.000000 0.000000
0.079534 0.022672 0.016979 0.000000 0.000000 0.000000
0.064114 0.046002 0.008581 0.000000 0.000000 0.000000
0.213921 0.048840 -0.016155 0.000000 0.000000 0.000000
0.052365 0.031937 0.004440 0.000000 0.000000 0.000000
0.072336 0.040382 -0.003181 0.000000 0.000000 0.000000
0.053142 0.042207 -0.009442 0.000000 0.000000 0.000000
0.032947 0.039886 -0.000948 0.000000 0.000000 0.000000
0.069396 0.038507 0.004045 0.000000 0.000000 0.000000
0.054805 0.050535 0.003212 0.000000 0.000000 0.000000
0.074453 0.034184 -0.000166 0.000000 0.000000 0.000000
0.062684 0.026074 0.007385 0.000000 0.000000 0.000000
0.075405 0.046376 0.013216 0.000000 0.000000 0.000000
0.055038 0.045489 0.004539 0.000000 0.000000 0.000000
0.064914 0.038117 0.008018 0.000000 0.000000 0.000000
0.195609 0.046922 -0.036775 0.000000 0.000000 0.000000
0.074749 0.021818 0.012340 0.000000 0.000000 0.000000
0.079444 0.039281 0.015469 0.000000 0.000000 0.000000
0.070553 0.040646 0.009974 0.000000 0.000000 0.000000
0.053359 0.051503 -0.003522 0.000000 0.000000 0.000000
0.069639 0.046654 0.006279 0.000000 0.000000 0.000000
0.202011 0.050388 -0.010562 0.000000 0.000000 0.000000
0.069610 0.041443 -0.002020 0.000000 0.000000 0.000000
0.062673 0.043275 0.007208 0.000000 0.000000 0.000000
0.051282 0.043370 0.003808 0.000000 0.000000 0.000000
0.222207 0.048925 -0.040046 0.000000 0.000000 0.000000
0.074054 0.031777 0.012432 0.000000 0.000000 0.000000
0.073623 0.046291 0.011113 0.000000 0.000000 0.000000
0.075436 0.047321 -0.000226 0.000000 0.000000 0.000000
0.236388 0.018842 -0.057747 0.000000 0.000000 0.000000
0.044171 0.043597 0.000940 0.000000 0.000000 0.000000
0.040552 0.015919 0.000140 0.000000 0.000000 0.000000
0.058390 0.050571 0.002848 0.000000 0.000000 0.000000
0.064618 0.043142 0.008240 0.000000 0.000000 0.000000
0.225258 0.039273 -0.041454 0.000000 0.000000 0.000000
0.039563 0.039555 -0.001780 0.000000 0.000000 0.000000
0.039456 0.043003 0.000352 0.000000 0.000000 0.000000
0.039403 0.033197 -0.000718 0.000000 0.000000 0.000000
0.203126 0.040550 -0.009870 0.000000 0.000000 0.000000
0.035217 0.033937 0.000389 0.000000 0.000000 0.000000
0.030951 0.039437 -0.000321 0.000000 0.000000 0.000000
0.077567 0.011869 0.018702 0.000000 0.000000 0.000000
0.036214 0.043316 0.000278 0.000000 0.000000 0.000000
0.036567 0.033944 -0.001952 0.000000 0.000000 0.000000
0.074412 0.018968 0.016974 0.000000 0.000000 0.000000
0.229498 0.008205 -0.042702 0.000000 0.000000 0.000000
0.201845 0.050250 -0.040411 0.000000 0.000000 0.000000
0.201390 0.055379 -0.032535 0.000000 0.000000 0.000000
0.217137 0.057081 -0.034317 0.000000 0.000000 0.000000
0.198447 0.053069 -0.033876 0.000000 0.000000 0.000000
0.206092 0.047811 -0.038997 0.000000 0.000000 0.000000
0.207892 0.054727 -0.037330 0.000000 0.000000 0.000000
0.068152 0.047440 0.007674 0.000000 0.000000 0.000000
0.081549 0.010695 0.024139 0.000000 0.000000 0.000000
0.079398 0.015816 0.016531 0.000000 0.000000 0.000000
0.065187 0.013045 -0.005251 0.000000 0.000000 0.000000
0.061883 0.016693 -0.003294 0.000000 0.000000 0.000000
0.224672 0.017591 -0.058285 0.000000 0.000000 0.000000
0.223030 0.050878 -0.029811 0.000000 0.000000 0.000000
0.224867 0.049451 -0.052864 0.000000 0.000000 0.000000
0.041505 0.035822 -0.001630 0.000000 0.000000 0.000000
0.056465 0.021687 -0.006094 0.000000 0.000000 0.000000
0.235304 0.025737 -0.044552 0.000000 0.000000 0.000000
0.225327 0.033889 -0.056548 0.000000 0.000000 0.000000
0.192331 0.043579 -0.053044 0.000000 0.000000 0.000000
0.236773 0.031226 -0.042201 0.000000 0.000000 0.000000
0.230270 0.016354 -0.058204 0.000000 0.000000 0.000000
0.034112 0.029982 0.000370 0.000000 0.000000 0.000000
0.079178 0.026950 0.007457 0.000000 0.000000 0.000000
0.077453 0.021755 0.011378 0.000000 0.000000 0.000000
0.225181 0.020343 -0.061639 0.000000 0.000000 0.000000
0.190424 0.042804 -0.048518 0.000000 0.000000 0.000000
0.077633 0.035017 0.009228 0.000000 0.000000 0.000000
0.024810 0.041155 -0.003499 0.000000 0.000000 0.000000
0.027481 0.044942 -0.003538 0.000000 0.000000 0.000000
0.028263 0.051014 -0.005623 0.000000 0.000000 0.000000
0.024159 0.049075 -0.012142 0.000000 0.000000 0.000000
0.025444 0.049935 -0.007639 0.000000 0.000000 0.000000
0.031065 0.049201 -0.002992 0.000000 0.000000 0.000000
0.036077 0.021938 -0.001713 0.000000 0.000000 0.000000
0.214612 0.052053 -0.009646 0.000000 0.000000 0.000000
0.207825 0.048769 -0.010275 0.000000 0.000000 0.000000
0.029263 0.033707 -0.000869 0.000000 0.000000 0.000000
0.056968 0.031706 0.002664 0.000000 0.000000 0.000000
0.028852 0.025935 -0.006225 0.000000 0.000000 0.000000
0.041345 0.037193 -0.001591 0.000000 0.000000 0.000000
0.046091 0.000516 -0.000089 0.000000 0.000000 0.000000
0.196401 0.051739 -0.039098 0.000000 0.000000 0.000000
0.041725 0.031481 -0.001022 0.000000 0.000000 0.000000
0.057515 0.050523 0.004300 0.000000 0.000000 0.000000
0.046151 0.048444 -0.006270 0.000000 0.000000 0.000000
0.060157 0.051858 -0.000597 0.000000 0.000000 0.000000
0.077748 -0.018172 -0.000133 0.000000 0.000000 0.000000
0.199190 0.052213 -0.034999 0.000000 0.000000 0.000000
0.040312 0.009345 0.001050 0.000000 0.000000 0.000000
0.197170 0.052785 -0.039593 0.000000 0.000000 0.000000
0.044970 0.015370 -0.001780 0.000000 0.000000 0.000000
0.039239 0.010023 -0.000806 0.000000 0.000000 0.000000
0.192397 0.043259 -0.048211 0.000000 0.000000 0.000000
0.041122 0.000800 0.006008 0.000000 0.000000 0.000000
0.044425 0.035423 0.001085 0.000000 0.000000 0.000000
0.037233 0.009711 0.000146 0.000000 0.000000 0.000000
0.036398 0.038445 0.000281 0.000000 0.000000 0.000000
0.036845 0.013948 -0.000017 0.000000 0.000000 0.000000
0.041548 0.009362 0.001041 0.000000 0.000000 0.000000
0.044160 0.045011 0.001349 0.000000 0.000000 0.000000
0.037817 0.044196 -0.001036 0.000000 0.000000 0.000000
0.037648 0.008013 0.001257 0.000000 0.000000 0.000000
0.048695 0.043599 0.002314 0.000000 0.000000 0.000000
0.036259 0.015875 -0.000198 0.000000 0.000000 0.000000
0.047777 0.016604 -0.007124 0.000000 0.000000 0.000000
0.040285 0.028740 0.001768 0.000000 0.000000 0.000000
0.039866 0.045079 -0.005814 0.000000 0.000000 0.000000
0.076366 0.013414 0.009437 0.000000 0.000000 0.000000
0.206667 0.049650 -0.051744 0.000000 0.000000 0.000000
0.202291 0.048569 -0.039871 0.000000 0.000000 0.000000
0.194498 0.045807 -0.043440 0.000000 0.000000 0.000000
0.194368 0.048073 -0.041378 0.000000 0.000000 0.000000
0.195060 0.047253 -0.039065 0.000000 0.000000 0.000000
0.045311 0.004922 0.004239 0.000000 0.000000 0.000000
0.204214 0.043399 -0.050581 0.000000 0.000000 0.000000
0.198289 0.047346 -0.044005 0.000000 0.000000 0.000000
0.221342 0.054462 -0.031965 0.000000 0.000000 0.000000
0.214290 0.052010 -0.023903 0.000000 0.000000 0.000000
0.200307 0.047678 -0.044586 0.000000 0.000000 0.000000
0.203731 0.051499 -0.030308 0.000000 0.000000 0.000000
0.190795 0.048085 -0.054226 0.000000 0.000000 0.000000
0.076605 -0.010552 -0.012768 0.000000 0.000000 0.000000
0.001489 0.327014 0.452038 0.000000 0.000000 0.000000
