ply
format ascii 1.0
comment VCGLIB generated
obj_info Generated by SPFormer!
element vertex 499
property float x
property float y
property float z
property float nx
property float ny
property float nz
end_header
1.191698 0.361130 0.056866 0.000000 0.000000 0.000000
1.197154 0.372885 0.013873 0.000000 0.000000 0.000000
1.192474 0.378561 0.043621 0.000000 0.000000 0.000000
1.191515 0.342043 0.053378 0.000000 0.000000 0.000000
1.183162 0.374481 0.007562 0.000000 0.000000 0.000000
1.199958 0.323418 0.010884 0.000000 0.000000 0.000000
1.187147 0.323087 0.001653 0.000000 0.000000 0.000000
1.199053 0.381456 0.002175 0.000000 0.000000 0.000000
1.196590 0.388284 0.061911 0.000000 0.000000 0.000000
1.191217 0.332943 0.005274 0.000000 0.000000 0.000000
1.199072 0.334900 0.016387 0.000000 0.000000 0.000000
1.179435 0.333449 0.001442 0.000000 0.000000 0.000000
1.196121 0.359023 0.034557 0.000000 0.000000 0.000000
1.198916 0.362880 0.020371 0.000000 0.000000 0.000000
1.199600 0.382656 -0.016946 0.000000 0.000000 0.000000
1.186792 0.353868 0.028279 0.000000 0.000000 0.000000
1.190835 0.380857 0.020425 0.000000 0.000000 0.000000
0.253298 -0.057854 0.150205 0.000000 0.000000 0.000000
1.185039 0.375249 0.029335 0.000000 0.000000 0.000000
1.198360 0.371548 0.011625 0.000000 0.000000 0.000000
1.188468 0.360624 0.027865 0.000000 0.000000 0.000000
1.187025 0.331929 0.000575 0.000000 0.000000 0.000000
1.194098 0.382008 0.021554 0.000000 0.000000 0.000000
1.195210 0.369781 0.016930 0.000000 0.000000 0.000000
1.184649 0.338028 0.015554 0.000000 0.000000 0.000000
1.198295 0.334601 0.006835 0.000000 0.000000 0.000000
1.193303 0.363416 0.032980 0.000000 0.000000 0.000000
1.198331 0.368698 0.020612 0.000000 0.000000 0.000000
1.188285 0.347711 0.027479 0.000000 0.000000 0.000000
1.178054 0.330687 0.019460 0.000000 0.000000 0.000000
1.190388 0.368730 0.004242 0.000000 0.000000 0.000000
1.194318 0.367084 0.028918 0.000000 0.000000 0.000000
1.192148 0.365516 0.000817 0.000000 0.000000 0.000000
1.198206 0.335735 0.000426 0.000000 0.000000 0.000000
1.187737 0.357878 0.044284 0.000000 0.000000 0.000000
1.199555 0.386211 0.015695 0.000000 0.000000 0.000000
1.197863 0.333637 0.000240 0.000000 0.000000 0.000000
1.198890 0.327132 0.013056 0.000000 0.000000 0.000000
1.192746 0.361355 0.028962 0.000000 0.000000 0.000000
1.199772 0.325558 0.010591 0.000000 0.000000 0.000000
1.194132 0.391420 0.025651 0.000000 0.000000 0.000000
1.190892 0.356128 0.050931 0.000000 0.000000 0.000000
1.185884 0.338572 0.013004 0.000000 0.000000 0.000000
1.180489 0.340277 0.023454 0.000000 0.000000 0.000000
1.195006 0.370371 0.000174 0.000000 0.000000 0.000000
1.172704 0.322461 0.012339 0.000000 0.000000 0.000000
0.257240 -0.037753 0.153634 0.000000 0.000000 0.000000
1.195352 0.331783 0.019072 0.000000 0.000000 0.000000
1.194332 0.392257 0.057927 0.000000 0.000000 0.000000
1.173142 0.356763 0.024154 0.000000 0.000000 0.000000
1.168056 0.320325 0.008186 0.000000 0.000000 0.000000
1.185705 0.340710 0.022081 0.000000 0.000000 0.000000
1.173551 0.356529 0.013693 0.000000 0.000000 0.000000
1.165591 0.322578 0.007540 0.000000 0.000000 0.000000
1.174516 0.375788 0.021932 0.000000 0.000000 0.000000
1.181370 0.338819 0.020934 0.000000 0.000000 0.000000
1.180444 0.322922 0.024549 0.000000 0.000000 0.000000
1.170840 0.328459 0.004348 0.000000 0.000000 0.000000
1.184914 0.343788 0.006578 0.000000 0.000000 0.000000
1.182216 0.339276 0.010374 0.000000 0.000000 0.000000
1.195126 0.355131 0.027979 0.000000 0.000000 0.000000
1.189460 0.357701 0.020134 0.000000 0.000000 0.000000
1.177936 0.327589 0.011652 0.000000 0.000000 0.000000
1.181798 0.345354 0.009910 0.000000 0.000000 0.000000
1.187331 0.351668 0.027393 0.000000 0.000000 0.000000
1.183198 0.366616 0.009433 0.000000 0.000000 0.000000
1.186095 0.348594 0.033970 0.000000 0.000000 0.000000
1.170748 0.352490 0.024872 0.000000 0.000000 0.000000
1.185691 0.376471 0.020439 0.000000 0.000000 0.000000
1.183776 0.346162 0.018295 0.000000 0.000000 0.000000
1.186401 0.360204 0.045102 0.000000 0.000000 0.000000
1.181105 0.329708 0.004304 0.000000 0.000000 0.000000
1.194031 0.335994 0.028357 0.000000 0.000000 0.000000
1.197869 0.340500 0.021837 0.000000 0.000000 0.000000
1.174862 0.380813 0.008106 0.000000 0.000000 0.000000
1.194954 0.372065 0.038180 0.000000 0.000000 0.000000
1.188057 0.344570 0.012734 0.000000 0.000000 0.000000
1.182737 0.367089 0.022747 0.000000 0.000000 0.000000
1.178652 0.355807 0.019811 0.000000 0.000000 0.000000
1.178616 0.378920 0.016140 0.000000 0.000000 0.000000
1.170732 0.326849 0.003943 0.000000 0.000000 0.000000
1.196446 0.365386 0.025607 0.000000 0.000000 0.000000
1.170303 0.350982 0.027585 0.000000 0.000000 0.000000
1.182112 0.365672 0.015481 0.000000 0.000000 0.000000
1.173068 0.331282 0.012386 0.000000 0.000000 0.000000
1.186559 0.339483 0.016715 0.000000 0.000000 0.000000
1.181139 0.364640 0.040277 0.000000 0.000000 0.000000
1.194041 0.383408 0.001346 0.000000 0.000000 0.000000
1.196933 0.377651 0.018074 0.000000 0.000000 0.000000
1.192494 0.394851 0.043917 0.000000 0.000000 0.000000
1.170858 0.325414 0.022164 0.000000 0.000000 0.000000
1.181752 0.323526 0.018513 0.000000 0.000000 0.000000
1.182094 0.331191 0.012226 0.000000 0.000000 0.000000
1.185575 0.340647 0.021936 0.000000 0.000000 0.000000
1.194815 0.361850 0.037318 0.000000 0.000000 0.000000
1.176414 0.324186 0.000346 0.000000 0.000000 0.000000
1.195463 0.398201 0.056779 0.000000 0.000000 0.000000
1.192312 0.363658 0.068288 0.000000 0.000000 0.000000
1.185969 0.366841 0.023351 0.000000 0.000000 0.000000
1.191855 0.332356 0.016577 0.000000 0.000000 0.000000
1.197128 0.373920 0.060365 0.000000 0.000000 0.000000
1.184148 0.375240 0.022032 0.000000 0.000000 0.000000
1.198214 0.386744 0.029038 0.000000 0.000000 0.000000
1.195720 0.366682 0.048829 0.000000 0.000000 0.000000
1.199937 0.359136 0.032455 0.000000 0.000000 0.000000
1.180328 0.343751 0.022707 0.000000 0.000000 0.000000
1.181927 0.361356 0.020423 0.000000 0.000000 0.000000
1.173983 0.370889 0.023766 0.000000 0.000000 0.000000
1.172390 0.323605 0.003622 0.000000 0.000000 0.000000
1.197035 0.353124 0.021903 0.000000 0.000000 0.000000
1.194345 0.397771 0.052647 0.000000 0.000000 0.000000
1.185643 0.336038 0.019245 0.000000 0.000000 0.000000
1.188894 0.338465 0.002317 0.000000 0.000000 0.000000
1.185454 0.353625 0.046466 0.000000 0.000000 0.000000
1.182389 0.337641 0.017503 0.000000 0.000000 0.000000
1.182405 0.321564 0.001868 0.000000 0.000000 0.000000
1.167240 0.331764 0.004808 0.000000 0.000000 0.000000
1.181389 0.338849 0.000092 0.000000 0.000000 0.000000
1.193421 0.383455 0.017680 0.000000 0.000000 0.000000
1.199242 0.343067 0.029117 0.000000 0.000000 0.000000
1.184390 0.347452 0.007495 0.000000 0.000000 0.000000
1.169106 0.347415 0.026967 0.000000 0.000000 0.000000
1.184637 0.358481 0.029320 0.000000 0.000000 0.000000
1.188754 0.365062 0.040468 0.000000 0.000000 0.000000
0.253882 -0.049503 0.149992 0.000000 0.000000 0.000000
1.195498 0.373139 -0.001892 0.000000 0.000000 0.000000
1.179083 0.329362 0.013199 0.000000 0.000000 0.000000
1.163350 0.323389 0.008756 0.000000 0.000000 0.000000
1.182926 0.365378 0.010519 0.000000 0.000000 0.000000
1.176621 0.358214 0.020085 0.000000 0.000000 0.000000
1.182525 0.368679 0.006092 0.000000 0.000000 0.000000
1.189577 0.391137 0.053624 0.000000 0.000000 0.000000
1.187746 0.351849 0.019066 0.000000 0.000000 0.000000
1.197090 0.374035 0.064373 0.000000 0.000000 0.000000
1.190352 0.390806 0.051281 0.000000 0.000000 0.000000
1.180846 0.340554 0.003310 0.000000 0.000000 0.000000
1.195676 0.343723 0.035592 0.000000 0.000000 0.000000
0.249619 -0.053974 0.143123 0.000000 0.000000 0.000000
1.191046 0.342836 0.002009 0.000000 0.000000 0.000000
1.175957 0.330682 0.027039 0.000000 0.000000 0.000000
1.189608 0.365290 0.004955 0.000000 0.000000 0.000000
1.193723 0.346937 0.012461 0.000000 0.000000 0.000000
1.183207 0.340682 0.013663 0.000000 0.000000 0.000000
1.185842 0.327623 0.023568 0.000000 0.000000 0.000000
1.176758 0.331580 0.022573 0.000000 0.000000 0.000000
1.176919 0.327168 0.024170 0.000000 0.000000 0.000000
1.179673 0.327637 0.021627 0.000000 0.000000 0.000000
1.179561 0.343626 0.019634 0.000000 0.000000 0.000000
1.194485 0.371373 0.064684 0.000000 0.000000 0.000000
1.194139 0.368064 -0.002551 0.000000 0.000000 0.000000
1.192637 0.353064 0.001338 0.000000 0.000000 0.000000
1.185009 0.366314 0.003654 0.000000 0.000000 0.000000
1.194109 0.367734 0.058574 0.000000 0.000000 0.000000
1.198049 0.389231 0.019070 0.000000 0.000000 0.000000
1.199043 0.399325 0.058379 0.000000 0.000000 0.000000
1.194012 0.391270 0.018829 0.000000 0.000000 0.000000
1.195868 0.382437 0.054340 0.000000 0.000000 0.000000
1.195849 0.377614 0.000027 0.000000 0.000000 0.000000
1.193873 0.380937 0.003473 0.000000 0.000000 0.000000
1.174857 0.342535 0.028299 0.000000 0.000000 0.000000
1.178442 0.334962 0.017313 0.000000 0.000000 0.000000
1.196064 0.380349 0.007893 0.000000 0.000000 0.000000
1.195301 0.340554 0.013890 0.000000 0.000000 0.000000
1.169962 0.320843 0.002933 0.000000 0.000000 0.000000
1.171433 0.339231 0.027745 0.000000 0.000000 0.000000
0.253912 -0.053657 0.139548 0.000000 0.000000 0.000000
1.189505 0.394803 0.048673 0.000000 0.000000 0.000000
1.187125 0.369395 0.011625 0.000000 0.000000 0.000000
1.179907 0.375650 0.007183 0.000000 0.000000 0.000000
1.176891 0.334682 0.029870 0.000000 0.000000 0.000000
0.256437 -0.051539 0.153610 0.000000 0.000000 0.000000
1.183919 0.354085 0.023751 0.000000 0.000000 0.000000
1.173123 0.341280 0.020127 0.000000 0.000000 0.000000
1.198245 0.396623 0.006525 0.000000 0.000000 0.000000
1.184637 0.366377 0.006482 0.000000 0.000000 0.000000
1.193286 0.394996 0.050520 0.000000 0.000000 0.000000
1.188054 0.393990 0.049043 0.000000 0.000000 0.000000
1.193076 0.346892 0.040454 0.000000 0.000000 0.000000
1.189702 0.356690 0.041174 0.000000 0.000000 0.000000
1.173698 0.371790 0.017662 0.000000 0.000000 0.000000
1.170986 0.348485 0.025961 0.000000 0.000000 0.000000
1.199500 0.359242 0.049384 0.000000 0.000000 0.000000
1.198383 0.356374 0.047646 0.000000 0.000000 0.000000
1.171068 0.344775 0.025652 0.000000 0.000000 0.000000
1.183869 0.394013 0.053789 0.000000 0.000000 0.000000
1.198091 0.339778 0.034216 0.000000 0.000000 0.000000
1.191724 0.342691 0.011151 0.000000 0.000000 0.000000
1.196458 0.347933 0.033778 0.000000 0.000000 0.000000
1.193096 0.367379 0.062109 0.000000 0.000000 0.000000
1.193828 0.379198 0.050623 0.000000 0.000000 0.000000
1.194724 0.380478 0.057140 0.000000 0.000000 0.000000
1.195765 0.394483 0.048464 0.000000 0.000000 0.000000
1.188646 0.366939 0.018769 0.000000 0.000000 0.000000
1.193901 0.356886 0.068747 0.000000 0.000000 0.000000
1.191345 0.372103 0.051105 0.000000 0.000000 0.000000
1.173285 0.327615 0.025331 0.000000 0.000000 0.000000
1.197718 0.389775 0.048944 0.000000 0.000000 0.000000
1.164809 0.365772 0.024492 0.000000 0.000000 0.000000
1.183886 0.356073 0.022026 0.000000 0.000000 0.000000
1.190991 0.359940 0.012898 0.000000 0.000000 0.000000
1.190518 0.392819 0.032106 0.000000 0.000000 0.000000
1.179327 0.369544 0.014718 0.000000 0.000000 0.000000
1.193766 0.399676 0.040273 0.000000 0.000000 0.000000
1.189782 0.392524 0.054839 0.000000 0.000000 0.000000
1.176037 0.344177 0.015924 0.000000 0.000000 0.000000
1.194253 0.395198 0.021721 0.000000 0.000000 0.000000
1.198162 0.393827 0.016060 0.000000 0.000000 0.000000
1.184548 0.339243 0.008289 0.000000 0.000000 0.000000
1.173785 0.336482 0.008824 0.000000 0.000000 0.000000
1.193813 0.377504 0.043614 0.000000 0.000000 0.000000
1.190228 0.392026 0.049991 0.000000 0.000000 0.000000
1.180276 0.329021 0.004377 0.000000 0.000000 0.000000
0.149684 -0.082445 -0.116513 0.000000 0.000000 0.000000
1.176102 0.367954 0.009236 0.000000 0.000000 0.000000
1.196450 0.394836 0.016492 0.000000 0.000000 0.000000
1.180150 0.368870 0.006068 0.000000 0.000000 0.000000
0.249598 -0.053621 0.150616 0.000000 0.000000 0.000000
1.189603 0.364973 0.001045 0.000000 0.000000 0.000000
1.181105 0.379542 0.009398 0.000000 0.000000 0.000000
1.191445 0.365545 0.001465 0.000000 0.000000 0.000000
1.197706 0.389729 0.061067 0.000000 0.000000 0.000000
1.198690 0.377352 0.063301 0.000000 0.000000 0.000000
1.183373 0.346625 0.033405 0.000000 0.000000 0.000000
1.171617 0.336551 0.018740 0.000000 0.000000 0.000000
1.196027 0.364860 0.067820 0.000000 0.000000 0.000000
1.199129 0.378456 0.048601 0.000000 0.000000 0.000000
1.199096 0.380893 0.063611 0.000000 0.000000 0.000000
1.191670 0.388652 0.049808 0.000000 0.000000 0.000000
1.199619 0.397815 0.049305 0.000000 0.000000 0.000000
1.199460 0.397320 0.036352 0.000000 0.000000 0.000000
1.192577 0.398787 0.013147 0.000000 0.000000 0.000000
1.197133 0.398301 0.056363 0.000000 0.000000 0.000000
1.194519 0.350059 0.018444 0.000000 0.000000 0.000000
1.170869 0.353642 0.017289 0.000000 0.000000 0.000000
1.196298 0.384351 0.057194 0.000000 0.000000 0.000000
1.182027 0.372782 0.021589 0.000000 0.000000 0.000000
1.179175 0.341380 0.026159 0.000000 0.000000 0.000000
1.180345 0.382927 0.024671 0.000000 0.000000 0.000000
1.194153 0.390562 0.056875 0.000000 0.000000 0.000000
1.195828 0.363920 0.005842 0.000000 0.000000 0.000000
1.178707 0.363257 0.023453 0.000000 0.000000 0.000000
1.195745 0.358175 0.045682 0.000000 0.000000 0.000000
1.185682 0.395927 0.012063 0.000000 0.000000 0.000000
1.193176 0.346958 0.017851 0.000000 0.000000 0.000000
1.177035 0.330525 0.009073 0.000000 0.000000 0.000000
1.175376 0.331995 0.002711 0.000000 0.000000 0.000000
0.156227 -0.084310 -0.115998 0.000000 0.000000 0.000000
1.176816 0.377588 0.023519 0.000000 0.000000 0.000000
1.170771 0.322021 0.020765 0.000000 0.000000 0.000000
1.166338 0.326644 0.017337 0.000000 0.000000 0.000000
1.175042 0.355680 0.024221 0.000000 0.000000 0.000000
1.178074 0.348945 0.022246 0.000000 0.000000 0.000000
0.155549 -0.089190 -0.117090 0.000000 0.000000 0.000000
1.188099 0.350543 0.016919 0.000000 0.000000 0.000000
1.197256 0.346876 0.020735 0.000000 0.000000 0.000000
1.190703 0.359027 0.032953 0.000000 0.000000 0.000000
1.197600 0.337207 0.018393 0.000000 0.000000 0.000000
1.190488 0.349011 0.026899 0.000000 0.000000 0.000000
1.170324 0.352934 0.020728 0.000000 0.000000 0.000000
1.171299 0.341738 0.025664 0.000000 0.000000 0.000000
1.192159 0.380417 0.050770 0.000000 0.000000 0.000000
1.189872 0.379135 0.050835 0.000000 0.000000 0.000000
1.188679 0.375882 0.047512 0.000000 0.000000 0.000000
1.174109 0.333445 0.014600 0.000000 0.000000 0.000000
1.191888 0.362117 0.046948 0.000000 0.000000 0.000000
1.193181 0.390304 0.009209 0.000000 0.000000 0.000000
1.171746 0.324767 0.035326 0.000000 0.000000 0.000000
1.177140 0.355235 0.026552 0.000000 0.000000 0.000000
1.193230 0.364038 0.069909 0.000000 0.000000 0.000000
1.170022 0.370143 0.016302 0.000000 0.000000 0.000000
1.195215 0.331434 0.035359 0.000000 0.000000 0.000000
1.199726 0.326237 0.027435 0.000000 0.000000 0.000000
1.193846 0.338975 0.034151 0.000000 0.000000 0.000000
1.190859 0.341163 0.024559 0.000000 0.000000 0.000000
1.199061 0.331363 0.025170 0.000000 0.000000 0.000000
1.197448 0.386783 0.008926 0.000000 0.000000 0.000000
1.199600 0.383148 0.015566 0.000000 0.000000 0.000000
1.173245 0.365902 0.034139 0.000000 0.000000 0.000000
1.194112 0.366972 0.068636 0.000000 0.000000 0.000000
1.197569 0.395240 0.012211 0.000000 0.000000 0.000000
1.174462 0.341223 0.006853 0.000000 0.000000 0.000000
1.185543 0.390533 0.014650 0.000000 0.000000 0.000000
1.196648 0.385183 -0.000856 0.000000 0.000000 0.000000
1.188302 0.374234 0.001174 0.000000 0.000000 0.000000
1.182770 0.353692 0.043257 0.000000 0.000000 0.000000
1.171489 0.338562 0.022216 0.000000 0.000000 0.000000
0.256136 -0.060127 0.138055 0.000000 0.000000 0.000000
1.190016 0.395966 0.053600 0.000000 0.000000 0.000000
1.195000 0.397300 0.045967 0.000000 0.000000 0.000000
1.192269 0.377138 0.047866 0.000000 0.000000 0.000000
1.194054 0.398858 0.048306 0.000000 0.000000 0.000000
1.195224 0.384890 0.055481 0.000000 0.000000 0.000000
1.189016 0.394116 0.044965 0.000000 0.000000 0.000000
1.180657 0.376229 0.036641 0.000000 0.000000 0.000000
1.178812 0.346228 0.027934 0.000000 0.000000 0.000000
1.192841 0.394384 0.055563 0.000000 0.000000 0.000000
1.192457 0.392834 0.049745 0.000000 0.000000 0.000000
1.179304 0.372411 0.027803 0.000000 0.000000 0.000000
1.174029 0.340504 0.010839 0.000000 0.000000 0.000000
1.195664 0.385933 0.057550 0.000000 0.000000 0.000000
1.172841 0.356536 0.025522 0.000000 0.000000 0.000000
1.182232 0.378234 0.012811 0.000000 0.000000 0.000000
1.190909 0.394014 0.053964 0.000000 0.000000 0.000000
1.187016 0.395938 0.049831 0.000000 0.000000 0.000000
1.170260 0.346280 0.019837 0.000000 0.000000 0.000000
1.174980 0.371271 0.021373 0.000000 0.000000 0.000000
1.174425 0.363652 0.024328 0.000000 0.000000 0.000000
1.177256 0.376787 0.021090 0.000000 0.000000 0.000000
1.169854 0.343329 0.013369 0.000000 0.000000 0.000000
1.176392 0.359742 0.030752 0.000000 0.000000 0.000000
1.170855 0.333844 0.021237 0.000000 0.000000 0.000000
1.171630 0.371110 0.020559 0.000000 0.000000 0.000000
1.186607 0.351748 0.039310 0.000000 0.000000 0.000000
1.176145 0.365651 0.020668 0.000000 0.000000 0.000000
1.178820 0.370789 0.012652 0.000000 0.000000 0.000000
1.196736 0.387612 0.009280 0.000000 0.000000 0.000000
1.182763 0.375262 0.019348 0.000000 0.000000 0.000000
1.197681 0.378295 0.012518 0.000000 0.000000 0.000000
1.195768 0.394111 0.009330 0.000000 0.000000 0.000000
1.183493 0.384321 0.021460 0.000000 0.000000 0.000000
1.184599 0.380910 0.016839 0.000000 0.000000 0.000000
1.189441 0.378928 0.020925 0.000000 0.000000 0.000000
1.180222 0.377371 0.022257 0.000000 0.000000 0.000000
1.188041 0.376063 0.019540 0.000000 0.000000 0.000000
1.186258 0.383607 0.021711 0.000000 0.000000 0.000000
1.171363 0.356216 0.026734 0.000000 0.000000 0.000000
1.194176 0.381753 0.052511 0.000000 0.000000 0.000000
1.194189 0.385351 0.050271 0.000000 0.000000 0.000000
1.197057 0.373099 0.003516 0.000000 0.000000 0.000000
1.193205 0.382136 0.057997 0.000000 0.000000 0.000000
1.193612 0.355056 0.044749 0.000000 0.000000 0.000000
1.196988 0.388667 0.051638 0.000000 0.000000 0.000000
1.164992 0.359303 0.019631 0.000000 0.000000 0.000000
1.172243 0.380069 0.022613 0.000000 0.000000 0.000000
0.154662 -0.084213 -0.114764 0.000000 0.000000 0.000000
1.172771 0.356547 0.019685 0.000000 0.000000 0.000000
1.172586 0.376473 0.022335 0.000000 0.000000 0.000000
1.182016 0.372105 0.017179 0.000000 0.000000 0.000000
1.192870 0.366835 0.067804 0.000000 0.000000 0.000000
1.167915 0.344852 0.019102 0.000000 0.000000 0.000000
1.188448 0.397977 0.011674 0.000000 0.000000 0.000000
1.171260 0.348674 0.019258 0.000000 0.000000 0.000000
1.165850 0.349619 0.020352 0.000000 0.000000 0.000000
1.182797 0.341302 0.014354 0.000000 0.000000 0.000000
1.184882 0.370241 0.010254 0.000000 0.000000 0.000000
1.193045 0.390167 0.005838 0.000000 0.000000 0.000000
1.185259 0.341741 0.079110 0.000000 0.000000 0.000000
1.178328 0.367706 0.069354 0.000000 0.000000 0.000000
1.188478 0.366012 -0.000828 0.000000 0.000000 0.000000
1.184425 0.355972 0.075201 0.000000 0.000000 0.000000
1.188762 0.394454 0.011561 0.000000 0.000000 0.000000
1.185169 0.333813 0.080133 0.000000 0.000000 0.000000
1.189539 0.363240 0.069889 0.000000 0.000000 0.000000
1.175075 0.352692 0.011402 0.000000 0.000000 0.000000
1.163355 0.321067 0.009932 0.000000 0.000000 0.000000
1.172232 0.353251 0.025312 0.000000 0.000000 0.000000
1.194453 0.350435 0.038678 0.000000 0.000000 0.000000
1.171711 0.353150 0.019763 0.000000 0.000000 0.000000
1.199185 0.390991 0.061951 0.000000 0.000000 0.000000
1.175436 0.352109 0.025364 0.000000 0.000000 0.000000
1.170551 0.348595 0.027979 0.000000 0.000000 0.000000
1.188754 0.348011 0.082298 0.000000 0.000000 0.000000
1.196401 0.351132 0.036980 0.000000 0.000000 0.000000
1.185682 0.347504 0.081307 0.000000 0.000000 0.000000
1.173445 0.326135 0.020611 0.000000 0.000000 0.000000
1.171019 0.320138 0.006996 0.000000 0.000000 0.000000
1.198066 0.320069 0.025161 0.000000 0.000000 0.000000
1.188277 0.334665 0.082251 0.000000 0.000000 0.000000
1.174902 0.343225 0.019321 0.000000 0.000000 0.000000
1.169533 0.348002 0.029478 0.000000 0.000000 0.000000
1.192255 0.341774 0.035952 0.000000 0.000000 0.000000
1.197842 0.377645 0.064355 0.000000 0.000000 0.000000
1.179959 0.364631 0.000163 0.000000 0.000000 0.000000
1.174012 0.327805 0.032990 0.000000 0.000000 0.000000
1.193755 0.362997 0.023753 0.000000 0.000000 0.000000
1.174599 0.370320 0.039144 0.000000 0.000000 0.000000
1.188332 0.320225 0.022216 0.000000 0.000000 0.000000
1.196774 0.362588 0.002961 0.000000 0.000000 0.000000
1.199901 0.352531 0.021632 0.000000 0.000000 0.000000
1.174174 0.364505 0.038298 0.000000 0.000000 0.000000
1.195926 0.367290 0.012708 0.000000 0.000000 0.000000
1.188483 0.337022 0.001018 0.000000 0.000000 0.000000
1.191735 0.373361 0.056899 0.000000 0.000000 0.000000
1.198517 0.384467 0.047137 0.000000 0.000000 0.000000
1.194520 0.364952 0.070372 0.000000 0.000000 0.000000
1.171854 0.346538 0.019657 0.000000 0.000000 0.000000
1.199209 0.398710 0.024547 0.000000 0.000000 0.000000
1.170517 0.338934 0.022198 0.000000 0.000000 0.000000
1.192395 0.352170 0.071636 0.000000 0.000000 0.000000
1.195195 0.365569 0.042089 0.000000 0.000000 0.000000
1.188465 0.394083 0.053231 0.000000 0.000000 0.000000
1.174284 0.332130 0.018472 0.000000 0.000000 0.000000
1.186650 0.378000 0.051100 0.000000 0.000000 0.000000
0.256848 -0.047337 0.137597 0.000000 0.000000 0.000000
1.178907 0.351151 0.005695 0.000000 0.000000 0.000000
1.167105 0.320735 0.012464 0.000000 0.000000 0.000000
1.175101 0.365460 0.037875 0.000000 0.000000 0.000000
1.192010 0.396885 0.010385 0.000000 0.000000 0.000000
1.175368 0.350190 0.020103 0.000000 0.000000 0.000000
1.178601 0.373725 0.021141 0.000000 0.000000 0.000000
1.187237 0.362515 -0.003390 0.000000 0.000000 0.000000
1.195503 0.321922 0.018866 0.000000 0.000000 0.000000
1.198183 0.397032 0.025451 0.000000 0.000000 0.000000
0.255185 -0.056797 0.155978 0.000000 0.000000 0.000000
1.171869 0.334758 0.021736 0.000000 0.000000 0.000000
1.174280 0.347265 0.022250 0.000000 0.000000 0.000000
1.184357 0.396206 0.012389 0.000000 0.000000 0.000000
1.187273 0.396353 0.013099 0.000000 0.000000 0.000000
1.195536 0.345826 0.050117 0.000000 0.000000 0.000000
1.194171 0.360971 0.077336 0.000000 0.000000 0.000000
1.197498 0.349801 0.050024 0.000000 0.000000 0.000000
1.185882 0.348927 0.075548 0.000000 0.000000 0.000000
1.187261 0.339759 0.011471 0.000000 0.000000 0.000000
1.189578 0.353015 0.073879 0.000000 0.000000 0.000000
1.171491 0.344507 0.020555 0.000000 0.000000 0.000000
1.194701 0.363040 0.068850 0.000000 0.000000 0.000000
1.195987 0.373877 0.062961 0.000000 0.000000 0.000000
1.194716 0.369075 0.066738 0.000000 0.000000 0.000000
1.168258 0.342587 0.024428 0.000000 0.000000 0.000000
1.194622 0.391430 0.063959 0.000000 0.000000 0.000000
1.181318 0.334351 0.022919 0.000000 0.000000 0.000000
1.184431 0.352416 0.020103 0.000000 0.000000 0.000000
1.166770 0.350973 0.027004 0.000000 0.000000 0.000000
1.180463 0.346194 0.019110 0.000000 0.000000 0.000000
1.168505 0.354950 0.019949 0.000000 0.000000 0.000000
1.180835 0.372793 0.022150 0.000000 0.000000 0.000000
1.167045 0.351439 0.028387 0.000000 0.000000 0.000000
1.163628 0.323724 0.008939 0.000000 0.000000 0.000000
1.189431 0.399841 0.053453 0.000000 0.000000 0.000000
1.182095 0.344118 0.077856 0.000000 0.000000 0.000000
1.168762 0.324924 0.009857 0.000000 0.000000 0.000000
1.176413 0.329533 0.005405 0.000000 0.000000 0.000000
0.264587 -0.062274 0.151567 0.000000 0.000000 0.000000
0.274761 -0.065050 0.155373 0.000000 0.000000 0.000000
0.311648 -0.056685 0.163378 0.000000 0.000000 0.000000
0.277635 -0.068128 0.155058 0.000000 0.000000 0.000000
0.274183 -0.072555 0.150238 0.000000 0.000000 0.000000
0.272215 -0.046019 0.160675 0.000000 0.000000 0.000000
0.268542 -0.067938 0.150957 0.000000 0.000000 0.000000
0.274232 -0.062453 0.152058 0.000000 0.000000 0.000000
0.283668 -0.058480 0.156717 0.000000 0.000000 0.000000
0.260224 -0.036319 0.162716 0.000000 0.000000 0.000000
0.281503 -0.067725 0.164594 0.000000 0.000000 0.000000
0.263494 -0.066322 0.140899 0.000000 0.000000 0.000000
0.267126 -0.064383 0.143886 0.000000 0.000000 0.000000
0.286383 -0.060300 0.160233 0.000000 0.000000 0.000000
0.274689 -0.066613 0.153826 0.000000 0.000000 0.000000
0.261193 -0.058461 0.139597 0.000000 0.000000 0.000000
0.283041 -0.054449 0.157029 0.000000 0.000000 0.000000
0.259445 -0.041868 0.155127 0.000000 0.000000 0.000000
0.265139 -0.052511 0.144346 0.000000 0.000000 0.000000
0.285566 -0.057362 0.163216 0.000000 0.000000 0.000000
0.263121 -0.059090 0.162974 0.000000 0.000000 0.000000
0.286078 -0.051836 0.163746 0.000000 0.000000 0.000000
0.293370 -0.052784 0.163847 0.000000 0.000000 0.000000
0.294376 -0.052208 0.180212 0.000000 0.000000 0.000000
0.260515 -0.049764 0.152584 0.000000 0.000000 0.000000
0.284571 -0.063186 0.162076 0.000000 0.000000 0.000000
0.289960 -0.064224 0.167594 0.000000 0.000000 0.000000
0.280301 -0.063275 0.159312 0.000000 0.000000 0.000000
0.286992 -0.066982 0.164588 0.000000 0.000000 0.000000
0.295645 -0.063962 0.177325 0.000000 0.000000 0.000000
0.302972 -0.060966 0.172541 0.000000 0.000000 0.000000
0.287181 -0.054500 0.173147 0.000000 0.000000 0.000000
0.289937 -0.058773 0.160597 0.000000 0.000000 0.000000
0.295717 -0.064951 0.171688 0.000000 0.000000 0.000000
0.298534 -0.062286 0.174578 0.000000 0.000000 0.000000
0.298112 -0.049967 0.174761 0.000000 0.000000 0.000000
0.288046 -0.053088 0.169105 0.000000 0.000000 0.000000
0.296605 -0.059504 0.170413 0.000000 0.000000 0.000000
0.294602 -0.068213 0.171181 0.000000 0.000000 0.000000
0.260535 -0.053434 0.134608 0.000000 0.000000 0.000000
0.264857 -0.046876 0.131530 0.000000 0.000000 0.000000
0.296732 -0.052744 0.161911 0.000000 0.000000 0.000000
0.278472 -0.061078 0.156202 0.000000 0.000000 0.000000
0.293067 -0.060063 0.167025 0.000000 0.000000 0.000000
0.272645 -0.041207 0.165149 0.000000 0.000000 0.000000
0.294686 -0.054385 0.166446 0.000000 0.000000 0.000000
0.271257 -0.043107 0.157297 0.000000 0.000000 0.000000
0.289916 -0.064854 0.164888 0.000000 0.000000 0.000000
0.293404 -0.065430 0.171079 0.000000 0.000000 0.000000
0.275586 -0.050246 0.161501 0.000000 0.000000 0.000000
0.279803 -0.047302 0.174340 0.000000 0.000000 0.000000
0.264860 -0.040901 0.165358 0.000000 0.000000 0.000000
0.279905 -0.047861 0.162560 0.000000 0.000000 0.000000
0.257206 -0.055803 0.153921 0.000000 0.000000 0.000000
0.269353 -0.060147 0.159629 0.000000 0.000000 0.000000
0.258512 -0.054994 0.155536 0.000000 0.000000 0.000000
0.269626 -0.055301 0.158701 0.000000 0.000000 0.000000
0.262487 -0.056376 0.138621 0.000000 0.000000 0.000000
0.264983 -0.049241 0.135291 0.000000 0.000000 0.000000
0.260409 -0.049397 0.158848 0.000000 0.000000 0.000000
0.261481 -0.054629 0.165124 0.000000 0.000000 0.000000
0.266889 -0.045697 0.157344 0.000000 0.000000 0.000000
0.260352 -0.046324 0.152491 0.000000 0.000000 0.000000
0.260818 -0.059267 0.156147 0.000000 0.000000 0.000000
0.262630 -0.057272 0.161379 0.000000 0.000000 0.000000
0.278874 -0.045053 0.166141 0.000000 0.000000 0.000000
0.283237 -0.051023 0.161646 0.000000 0.000000 0.000000
