ply
format ascii 1.0
comment VCGLIB generated
obj_info Generated by SPFormer!
element vertex 684
property float x
property float y
property float z
property float nx
property float ny
property float nz
end_header
0.470029 0.366299 0.219369 0.000000 0.000000 0.000000
0.477049 0.392371 0.173761 0.000000 0.000000 0.000000
0.475522 0.390096 0.171601 0.000000 0.000000 0.000000
0.471283 0.390333 0.182178 0.000000 0.000000 0.000000
0.481048 0.365108 0.179900 0.000000 0.000000 0.000000
0.469247 0.371841 0.171386 0.000000 0.000000 0.000000
0.474429 0.378260 0.183734 0.000000 0.000000 0.000000
1.167674 0.459118 0.006458 0.000000 0.000000 0.000000
1.182021 0.478883 0.001436 0.000000 0.000000 0.000000
1.185209 0.475984 0.012664 0.000000 0.000000 0.000000
0.427527 0.360006 0.229385 0.000000 0.000000 0.000000
0.479336 0.383244 0.186948 0.000000 0.000000 0.000000
0.457585 0.368816 0.216444 0.000000 0.000000 0.000000
0.460231 0.354682 0.186125 0.000000 0.000000 0.000000
0.510199 0.375102 0.167535 0.000000 0.000000 0.000000
0.474046 0.386891 0.186576 0.000000 0.000000 0.000000
1.252796 0.303493 0.206569 0.000000 0.000000 0.000000
0.465844 0.373161 0.206461 0.000000 0.000000 0.000000
1.167264 0.470015 0.008625 0.000000 0.000000 0.000000
1.168975 0.449456 0.000562 0.000000 0.000000 0.000000
1.208009 0.473433 -0.010770 0.000000 0.000000 0.000000
1.161521 0.477477 0.035574 0.000000 0.000000 0.000000
1.191642 0.469254 0.005656 0.000000 0.000000 0.000000
1.177023 0.464311 0.003807 0.000000 0.000000 0.000000
0.491184 0.385033 0.175293 0.000000 0.000000 0.000000
0.452220 0.368370 0.228757 0.000000 0.000000 0.000000
1.177671 0.447707 0.002003 0.000000 0.000000 0.000000
0.468761 0.380696 0.195490 0.000000 0.000000 0.000000
0.471286 0.373136 0.179390 0.000000 0.000000 0.000000
0.460232 0.381867 0.201183 0.000000 0.000000 0.000000
0.454123 0.350618 0.196727 0.000000 0.000000 0.000000
0.471942 0.386121 0.179293 0.000000 0.000000 0.000000
0.464013 0.383914 0.193550 0.000000 0.000000 0.000000
0.490828 0.362072 0.209325 0.000000 0.000000 0.000000
1.171605 0.474245 0.025646 0.000000 0.000000 0.000000
1.186705 0.456615 0.006679 0.000000 0.000000 0.000000
1.188589 0.464335 0.015793 0.000000 0.000000 0.000000
1.200395 0.469605 -0.001005 0.000000 0.000000 0.000000
1.201480 0.458972 0.065294 0.000000 0.000000 0.000000
0.474811 0.387207 0.185851 0.000000 0.000000 0.000000
0.468399 0.380006 0.185132 0.000000 0.000000 0.000000
1.178872 0.470527 0.000487 0.000000 0.000000 0.000000
1.179940 0.474963 0.034903 0.000000 0.000000 0.000000
0.455376 0.370545 0.200886 0.000000 0.000000 0.000000
0.484622 0.376389 0.212475 0.000000 0.000000 0.000000
0.497655 0.380823 0.175435 0.000000 0.000000 0.000000
1.163529 0.463568 0.011865 0.000000 0.000000 0.000000
0.450310 0.372115 0.218787 0.000000 0.000000 0.000000
0.466343 0.389460 0.183360 0.000000 0.000000 0.000000
0.508021 0.385441 0.177607 0.000000 0.000000 0.000000
0.472750 0.363098 0.226798 0.000000 0.000000 0.000000
1.182748 0.457695 0.005836 0.000000 0.000000 0.000000
1.207847 0.461494 0.051026 0.000000 0.000000 0.000000
1.179962 0.461067 0.008383 0.000000 0.000000 0.000000
1.213755 0.476358 0.009712 0.000000 0.000000 0.000000
0.453245 0.365529 0.187768 0.000000 0.000000 0.000000
0.474949 0.376927 0.182362 0.000000 0.000000 0.000000
1.188892 0.468273 0.001074 0.000000 0.000000 0.000000
1.166027 0.462106 0.013939 0.000000 0.000000 0.000000
0.458342 0.327245 0.189126 0.000000 0.000000 0.000000
1.193275 0.472155 0.001239 0.000000 0.000000 0.000000
1.190762 0.477832 0.021784 0.000000 0.000000 0.000000
1.191670 0.483069 0.001227 0.000000 0.000000 0.000000
1.188538 0.471357 0.020613 0.000000 0.000000 0.000000
1.185257 0.456407 0.002097 0.000000 0.000000 0.000000
1.168370 0.455762 0.005282 0.000000 0.000000 0.000000
1.189150 0.467837 0.016196 0.000000 0.000000 0.000000
1.184509 0.465521 0.009167 0.000000 0.000000 0.000000
1.194085 0.473255 0.012576 0.000000 0.000000 0.000000
1.176738 0.457720 0.001055 0.000000 0.000000 0.000000
1.188770 0.463596 0.018491 0.000000 0.000000 0.000000
1.187846 0.478500 0.014327 0.000000 0.000000 0.000000
1.168619 0.471528 0.034049 0.000000 0.000000 0.000000
0.473238 0.369323 0.217355 0.000000 0.000000 0.000000
1.196021 0.469448 0.006660 0.000000 0.000000 0.000000
0.459183 0.359222 0.195234 0.000000 0.000000 0.000000
1.172449 0.475940 0.023111 0.000000 0.000000 0.000000
1.169221 0.455402 0.006700 0.000000 0.000000 0.000000
1.179600 0.475855 0.020806 0.000000 0.000000 0.000000
0.461398 0.359836 0.196189 0.000000 0.000000 0.000000
1.167443 0.470160 0.007690 0.000000 0.000000 0.000000
1.178975 0.471794 0.008301 0.000000 0.000000 0.000000
1.191272 0.474024 0.023328 0.000000 0.000000 0.000000
1.208066 0.471259 0.002856 0.000000 0.000000 0.000000
1.183128 0.468589 0.000763 0.000000 0.000000 0.000000
1.186441 0.457569 0.015963 0.000000 0.000000 0.000000
1.163786 0.472620 0.013514 0.000000 0.000000 0.000000
1.182295 0.457383 0.026807 0.000000 0.000000 0.000000
1.192833 0.467430 0.000236 0.000000 0.000000 0.000000
0.478154 0.392716 0.188128 0.000000 0.000000 0.000000
0.469535 0.366722 0.168632 0.000000 0.000000 0.000000
0.484340 0.375870 0.193781 0.000000 0.000000 0.000000
0.465566 0.327124 0.198533 0.000000 0.000000 0.000000
1.194455 0.470565 0.001664 0.000000 0.000000 0.000000
1.205877 0.469236 -0.003757 0.000000 0.000000 0.000000
0.476256 0.378154 0.184094 0.000000 0.000000 0.000000
0.476016 0.378806 0.188232 0.000000 0.000000 0.000000
1.173663 0.469995 0.015597 0.000000 0.000000 0.000000
1.205023 0.441910 0.040168 0.000000 0.000000 0.000000
1.174290 0.464956 0.025835 0.000000 0.000000 0.000000
0.493441 0.383007 0.169075 0.000000 0.000000 0.000000
1.204139 0.456057 0.056067 0.000000 0.000000 0.000000
0.453914 0.367897 0.193555 0.000000 0.000000 0.000000
0.464676 0.355266 0.198695 0.000000 0.000000 0.000000
0.458076 0.358360 0.191432 0.000000 0.000000 0.000000
1.186473 0.478533 0.019816 0.000000 0.000000 0.000000
0.459227 0.363795 0.239235 0.000000 0.000000 0.000000
1.202325 0.467664 -0.009848 0.000000 0.000000 0.000000
0.490373 0.372888 0.222327 0.000000 0.000000 0.000000
0.447167 0.374195 0.202535 0.000000 0.000000 0.000000
0.456711 0.364164 0.195979 0.000000 0.000000 0.000000
1.185683 0.470088 0.008675 0.000000 0.000000 0.000000
1.192024 0.473465 0.019778 0.000000 0.000000 0.000000
0.450133 0.370892 0.216405 0.000000 0.000000 0.000000
0.460701 0.381010 0.177977 0.000000 0.000000 0.000000
1.201664 0.482340 -0.013894 0.000000 0.000000 0.000000
1.170937 0.480508 0.021749 0.000000 0.000000 0.000000
0.458198 0.384111 0.195689 0.000000 0.000000 0.000000
0.465040 0.379037 0.177163 0.000000 0.000000 0.000000
0.475269 0.389192 0.198156 0.000000 0.000000 0.000000
1.253768 0.287882 0.214126 0.000000 0.000000 0.000000
0.455889 0.376018 0.163917 0.000000 0.000000 0.000000
1.209306 0.465483 -0.012915 0.000000 0.000000 0.000000
1.193280 0.472891 0.023654 0.000000 0.000000 0.000000
1.179397 0.460312 0.016533 0.000000 0.000000 0.000000
1.202166 0.468834 -0.009933 0.000000 0.000000 0.000000
0.478902 0.377211 0.180928 0.000000 0.000000 0.000000
1.201659 0.471537 -0.000029 0.000000 0.000000 0.000000
0.499660 0.383652 0.168775 0.000000 0.000000 0.000000
0.463574 0.323211 0.192413 0.000000 0.000000 0.000000
1.182591 0.478123 0.026704 0.000000 0.000000 0.000000
1.203821 0.468133 -0.009682 0.000000 0.000000 0.000000
0.462576 0.367195 0.201257 0.000000 0.000000 0.000000
0.487962 0.384539 0.170612 0.000000 0.000000 0.000000
1.214085 0.456170 0.061110 0.000000 0.000000 0.000000
0.462017 0.388094 0.186659 0.000000 0.000000 0.000000
0.497485 0.379218 0.168540 0.000000 0.000000 0.000000
0.443370 0.372111 0.223620 0.000000 0.000000 0.000000
1.163443 0.453088 0.000177 0.000000 0.000000 0.000000
1.207195 0.449009 0.041953 0.000000 0.000000 0.000000
0.478170 0.380464 0.181150 0.000000 0.000000 0.000000
0.447216 0.361547 0.185810 0.000000 0.000000 0.000000
0.468047 0.387892 0.196049 0.000000 0.000000 0.000000
1.185501 0.477536 0.018524 0.000000 0.000000 0.000000
0.450336 0.365163 0.186073 0.000000 0.000000 0.000000
1.209059 0.477860 -0.014713 0.000000 0.000000 0.000000
1.172741 0.470905 0.031325 0.000000 0.000000 0.000000
0.495402 0.380382 0.171430 0.000000 0.000000 0.000000
1.178523 0.475279 0.016636 0.000000 0.000000 0.000000
1.169822 0.461906 0.005507 0.000000 0.000000 0.000000
0.498136 0.381416 0.173664 0.000000 0.000000 0.000000
0.427761 0.363629 0.184555 0.000000 0.000000 0.000000
1.202847 0.469875 -0.004911 0.000000 0.000000 0.000000
1.252974 0.284854 0.212740 0.000000 0.000000 0.000000
0.452449 0.373443 0.201989 0.000000 0.000000 0.000000
0.473802 0.369325 0.227577 0.000000 0.000000 0.000000
1.165759 0.474141 0.033029 0.000000 0.000000 0.000000
0.462741 0.374396 0.215798 0.000000 0.000000 0.000000
1.200967 0.452069 0.069459 0.000000 0.000000 0.000000
1.171481 0.470436 0.004893 0.000000 0.000000 0.000000
0.453233 0.375511 0.199870 0.000000 0.000000 0.000000
1.168605 0.458111 0.004326 0.000000 0.000000 0.000000
1.167563 0.458873 0.002692 0.000000 0.000000 0.000000
1.202362 0.468232 -0.001668 0.000000 0.000000 0.000000
0.460114 0.367386 0.204736 0.000000 0.000000 0.000000
0.446707 0.369059 0.184817 0.000000 0.000000 0.000000
1.172665 0.476576 0.022241 0.000000 0.000000 0.000000
1.172083 0.474209 0.017757 0.000000 0.000000 0.000000
1.167103 0.469502 0.035398 0.000000 0.000000 0.000000
1.181022 0.475274 0.030216 0.000000 0.000000 0.000000
1.175887 0.474630 0.028608 0.000000 0.000000 0.000000
0.461110 0.364993 0.234853 0.000000 0.000000 0.000000
1.160148 0.470202 0.033828 0.000000 0.000000 0.000000
1.166909 0.472126 0.002189 0.000000 0.000000 0.000000
0.466423 0.364138 0.226762 0.000000 0.000000 0.000000
1.176511 0.468628 0.019743 0.000000 0.000000 0.000000
1.200524 0.470077 0.002809 0.000000 0.000000 0.000000
0.471505 0.381876 0.199074 0.000000 0.000000 0.000000
0.453377 0.369332 0.199222 0.000000 0.000000 0.000000
0.459958 0.378530 0.206718 0.000000 0.000000 0.000000
0.499173 0.390240 0.187404 0.000000 0.000000 0.000000
1.248787 0.313620 0.209215 0.000000 0.000000 0.000000
0.465918 0.379364 0.200247 0.000000 0.000000 0.000000
0.462117 0.387766 0.190560 0.000000 0.000000 0.000000
0.463777 0.370037 0.213793 0.000000 0.000000 0.000000
0.456285 0.375184 0.204338 0.000000 0.000000 0.000000
0.453811 0.371722 0.219014 0.000000 0.000000 0.000000
0.455501 0.371782 0.210788 0.000000 0.000000 0.000000
1.188877 0.479058 0.023241 0.000000 0.000000 0.000000
1.197362 0.467206 0.022099 0.000000 0.000000 0.000000
0.457742 0.390312 0.194025 0.000000 0.000000 0.000000
0.469123 0.396106 0.184982 0.000000 0.000000 0.000000
0.480106 0.368999 0.205369 0.000000 0.000000 0.000000
0.470217 0.373005 0.208793 0.000000 0.000000 0.000000
0.478174 0.379629 0.199868 0.000000 0.000000 0.000000
0.456610 0.320782 0.190791 0.000000 0.000000 0.000000
1.200771 0.447774 0.067437 0.000000 0.000000 0.000000
1.253630 0.289329 0.212753 0.000000 0.000000 0.000000
1.188190 0.486349 0.001074 0.000000 0.000000 0.000000
1.188007 0.470486 0.001561 0.000000 0.000000 0.000000
1.257281 0.295602 0.216715 0.000000 0.000000 0.000000
1.202601 0.467494 -0.010321 0.000000 0.000000 0.000000
1.188997 0.452560 0.001797 0.000000 0.000000 0.000000
1.211539 0.457192 0.051433 0.000000 0.000000 0.000000
0.475551 0.387064 0.184145 0.000000 0.000000 0.000000
1.250650 0.285759 0.212288 0.000000 0.000000 0.000000
1.182356 0.477469 0.022172 0.000000 0.000000 0.000000
1.169369 0.479136 0.038751 0.000000 0.000000 0.000000
1.203327 0.462202 0.045579 0.000000 0.000000 0.000000
1.175088 0.477544 0.033000 0.000000 0.000000 0.000000
0.461666 0.360128 0.192281 0.000000 0.000000 0.000000
0.460103 0.359234 0.188649 0.000000 0.000000 0.000000
0.467923 0.381700 0.178414 0.000000 0.000000 0.000000
0.471375 0.377144 0.219653 0.000000 0.000000 0.000000
1.164452 0.468998 0.037895 0.000000 0.000000 0.000000
1.172148 0.447350 0.039510 0.000000 0.000000 0.000000
0.450117 0.372411 0.194530 0.000000 0.000000 0.000000
1.254384 0.311131 0.209067 0.000000 0.000000 0.000000
1.164909 0.462465 0.006037 0.000000 0.000000 0.000000
1.165544 0.450788 0.034444 0.000000 0.000000 0.000000
1.162056 0.466705 0.003736 0.000000 0.000000 0.000000
1.192970 0.475355 0.017640 0.000000 0.000000 0.000000
1.171587 0.469782 0.035677 0.000000 0.000000 0.000000
1.178935 0.476528 0.022856 0.000000 0.000000 0.000000
0.494849 0.381765 0.170947 0.000000 0.000000 0.000000
0.493917 0.384631 0.171933 0.000000 0.000000 0.000000
1.184006 0.464420 0.005929 0.000000 0.000000 0.000000
1.184470 0.458807 0.017625 0.000000 0.000000 0.000000
0.457388 0.360304 0.193233 0.000000 0.000000 0.000000
1.166634 0.469939 0.027695 0.000000 0.000000 0.000000
0.480340 0.386635 0.180502 0.000000 0.000000 0.000000
1.210555 0.444156 0.057798 0.000000 0.000000 0.000000
1.181944 0.474448 0.000326 0.000000 0.000000 0.000000
1.206038 0.469416 -0.006356 0.000000 0.000000 0.000000
1.173097 0.485032 0.000729 0.000000 0.000000 0.000000
0.471825 0.348408 0.197514 0.000000 0.000000 0.000000
1.170247 0.463605 0.012192 0.000000 0.000000 0.000000
1.205892 0.459765 0.064192 0.000000 0.000000 0.000000
0.457967 0.375883 0.215460 0.000000 0.000000 0.000000
1.160022 0.448154 0.008188 0.000000 0.000000 0.000000
0.455617 0.377384 0.223113 0.000000 0.000000 0.000000
0.449234 0.372492 0.214250 0.000000 0.000000 0.000000
0.472118 0.376291 0.206760 0.000000 0.000000 0.000000
1.207238 0.469212 0.002583 0.000000 0.000000 0.000000
1.174588 0.479559 0.030231 0.000000 0.000000 0.000000
1.207131 0.466689 0.013902 0.000000 0.000000 0.000000
1.180482 0.459734 0.012995 0.000000 0.000000 0.000000
1.188219 0.463815 0.013437 0.000000 0.000000 0.000000
1.164922 0.468477 0.008288 0.000000 0.000000 0.000000
1.211715 0.475211 -0.023324 0.000000 0.000000 0.000000
1.190956 0.444937 0.000403 0.000000 0.000000 0.000000
1.170030 0.474380 0.021267 0.000000 0.000000 0.000000
1.165275 0.474437 0.002436 0.000000 0.000000 0.000000
0.476123 0.363955 0.173860 0.000000 0.000000 0.000000
0.477890 0.371132 0.203599 0.000000 0.000000 0.000000
0.481996 0.382084 0.203208 0.000000 0.000000 0.000000
0.479286 0.366506 0.181492 0.000000 0.000000 0.000000
0.498559 0.389791 0.185459 0.000000 0.000000 0.000000
1.186225 0.471902 0.009810 0.000000 0.000000 0.000000
1.187274 0.456237 0.011857 0.000000 0.000000 0.000000
1.174216 0.464727 0.017695 0.000000 0.000000 0.000000
1.184882 0.464660 0.019443 0.000000 0.000000 0.000000
0.460385 0.391981 0.176890 0.000000 0.000000 0.000000
0.453793 0.323545 0.185809 0.000000 0.000000 0.000000
0.490415 0.381107 0.188784 0.000000 0.000000 0.000000
0.452507 0.327340 0.185780 0.000000 0.000000 0.000000
0.467333 0.372001 0.175994 0.000000 0.000000 0.000000
1.192184 0.454585 0.015889 0.000000 0.000000 0.000000
0.461682 0.374873 0.174157 0.000000 0.000000 0.000000
1.193267 0.461956 0.020868 0.000000 0.000000 0.000000
0.432053 0.362085 0.193471 0.000000 0.000000 0.000000
1.188377 0.465690 0.007231 0.000000 0.000000 0.000000
0.457074 0.386229 0.171937 0.000000 0.000000 0.000000
0.492071 0.364749 0.228780 0.000000 0.000000 0.000000
1.162180 0.475028 0.034205 0.000000 0.000000 0.000000
0.484384 0.365955 0.233035 0.000000 0.000000 0.000000
0.493113 0.384966 0.174797 0.000000 0.000000 0.000000
0.480255 0.392611 0.170953 0.000000 0.000000 0.000000
0.494030 0.385856 0.185355 0.000000 0.000000 0.000000
0.494504 0.383714 0.175769 0.000000 0.000000 0.000000
0.493619 0.383993 0.171108 0.000000 0.000000 0.000000
0.458764 0.378017 0.204605 0.000000 0.000000 0.000000
0.499769 0.378185 0.176184 0.000000 0.000000 0.000000
0.457186 0.364479 0.194561 0.000000 0.000000 0.000000
1.161472 0.471270 0.009357 0.000000 0.000000 0.000000
0.459057 0.356154 0.191334 0.000000 0.000000 0.000000
1.247484 0.282791 0.205008 0.000000 0.000000 0.000000
0.464125 0.392144 0.191543 0.000000 0.000000 0.000000
0.475330 0.393917 0.171597 0.000000 0.000000 0.000000
0.455591 0.379913 0.201110 0.000000 0.000000 0.000000
1.252578 0.298699 0.204520 0.000000 0.000000 0.000000
0.453487 0.377414 0.200402 0.000000 0.000000 0.000000
0.473760 0.392608 0.186661 0.000000 0.000000 0.000000
0.451127 0.366119 0.199660 0.000000 0.000000 0.000000
0.442048 0.374343 0.197574 0.000000 0.000000 0.000000
1.247264 0.286775 0.204385 0.000000 0.000000 0.000000
1.165884 0.471211 0.006841 0.000000 0.000000 0.000000
0.475588 0.366904 0.180550 0.000000 0.000000 0.000000
0.482953 0.387469 0.201707 0.000000 0.000000 0.000000
0.446457 0.372208 0.199331 0.000000 0.000000 0.000000
0.486375 0.382016 0.201553 0.000000 0.000000 0.000000
0.479364 0.378064 0.178611 0.000000 0.000000 0.000000
0.478212 0.376217 0.194551 0.000000 0.000000 0.000000
0.466466 0.368989 0.186146 0.000000 0.000000 0.000000
0.469598 0.367757 0.172888 0.000000 0.000000 0.000000
0.480975 0.389299 0.200066 0.000000 0.000000 0.000000
0.477773 0.370879 0.185754 0.000000 0.000000 0.000000
1.162652 0.468449 0.011341 0.000000 0.000000 0.000000
1.202987 0.460443 -0.016304 0.000000 0.000000 0.000000
0.454993 0.381501 0.205773 0.000000 0.000000 0.000000
0.461716 0.321492 0.197375 0.000000 0.000000 0.000000
1.207681 0.469262 -0.007147 0.000000 0.000000 0.000000
0.461385 0.366866 0.228012 0.000000 0.000000 0.000000
1.202817 0.469671 0.002450 0.000000 0.000000 0.000000
0.457034 0.367924 0.227372 0.000000 0.000000 0.000000
1.203872 0.476859 0.018178 0.000000 0.000000 0.000000
0.478341 0.368861 0.179656 0.000000 0.000000 0.000000
0.470771 0.365578 0.175496 0.000000 0.000000 0.000000
0.478129 0.391219 0.168960 0.000000 0.000000 0.000000
0.469853 0.381309 0.177902 0.000000 0.000000 0.000000
0.479307 0.368240 0.185517 0.000000 0.000000 0.000000
0.475272 0.363750 0.182086 0.000000 0.000000 0.000000
1.190831 0.482100 0.002065 0.000000 0.000000 0.000000
1.205553 0.455993 0.040308 0.000000 0.000000 0.000000
1.176087 0.473771 0.037680 0.000000 0.000000 0.000000
1.203550 0.467961 0.060577 0.000000 0.000000 0.000000
1.175101 0.473762 0.039964 0.000000 0.000000 0.000000
0.469501 0.375270 0.177324 0.000000 0.000000 0.000000
1.201870 0.472318 0.058795 0.000000 0.000000 0.000000
1.177548 0.475902 0.036465 0.000000 0.000000 0.000000
1.200205 0.465114 0.048509 0.000000 0.000000 0.000000
1.211404 0.472668 -0.011973 0.000000 0.000000 0.000000
1.205088 0.469680 -0.003587 0.000000 0.000000 0.000000
1.207000 0.477654 -0.012062 0.000000 0.000000 0.000000
1.206448 0.475880 -0.005156 0.000000 0.000000 0.000000
1.173887 0.474255 0.018600 0.000000 0.000000 0.000000
0.474791 0.371090 0.180381 0.000000 0.000000 0.000000
0.466276 0.384997 0.199311 0.000000 0.000000 0.000000
1.254394 0.294529 0.214806 0.000000 0.000000 0.000000
1.182733 0.475864 0.001971 0.000000 0.000000 0.000000
0.482074 0.367127 0.189419 0.000000 0.000000 0.000000
0.479866 0.373445 0.181190 0.000000 0.000000 0.000000
1.255990 0.312372 0.210369 0.000000 0.000000 0.000000
0.483286 0.370591 0.182190 0.000000 0.000000 0.000000
1.250842 0.314491 0.210057 0.000000 0.000000 0.000000
1.206766 0.464067 0.044325 0.000000 0.000000 0.000000
1.204031 0.457663 0.062927 0.000000 0.000000 0.000000
0.475080 0.376840 0.193175 0.000000 0.000000 0.000000
1.255405 0.293152 0.212401 0.000000 0.000000 0.000000
1.217457 0.445141 0.049504 0.000000 0.000000 0.000000
0.461939 0.375267 0.209901 0.000000 0.000000 0.000000
0.448078 0.376193 0.206310 0.000000 0.000000 0.000000
0.438590 0.366776 0.211315 0.000000 0.000000 0.000000
1.201247 0.456767 0.066334 0.000000 0.000000 0.000000
1.203138 0.471797 0.007037 0.000000 0.000000 0.000000
1.205483 0.472318 0.006703 0.000000 0.000000 0.000000
0.489463 0.380788 0.184323 0.000000 0.000000 0.000000
1.199451 0.472125 0.007860 0.000000 0.000000 0.000000
1.200227 0.471130 0.000872 0.000000 0.000000 0.000000
1.203638 0.469629 0.007167 0.000000 0.000000 0.000000
1.204114 0.472224 0.004827 0.000000 0.000000 0.000000
1.218855 0.453768 0.053027 0.000000 0.000000 0.000000
1.170123 0.478682 0.026527 0.000000 0.000000 0.000000
1.203074 0.470699 0.000127 0.000000 0.000000 0.000000
1.203851 0.471066 0.018196 0.000000 0.000000 0.000000
1.169251 0.464720 0.003367 0.000000 0.000000 0.000000
1.182993 0.460822 0.004500 0.000000 0.000000 0.000000
0.479574 0.382197 0.196375 0.000000 0.000000 0.000000
1.184058 0.461766 0.020203 0.000000 0.000000 0.000000
0.499692 0.387083 0.185864 0.000000 0.000000 0.000000
1.161142 0.462373 0.004963 0.000000 0.000000 0.000000
1.252376 0.285488 0.202597 0.000000 0.000000 0.000000
1.199924 0.472743 0.009138 0.000000 0.000000 0.000000
1.174108 0.453518 0.011648 0.000000 0.000000 0.000000
0.506449 0.379890 0.164485 0.000000 0.000000 0.000000
1.181766 0.461181 0.005806 0.000000 0.000000 0.000000
1.210243 0.450739 0.061103 0.000000 0.000000 0.000000
1.249033 0.328989 0.207601 0.000000 0.000000 0.000000
0.442068 0.332740 0.187496 0.000000 0.000000 0.000000
1.170955 0.470758 0.004466 0.000000 0.000000 0.000000
1.170045 0.474848 0.013504 0.000000 0.000000 0.000000
1.170484 0.479178 0.014087 0.000000 0.000000 0.000000
1.210357 0.450748 0.039791 0.000000 0.000000 0.000000
0.483686 0.376256 0.196104 0.000000 0.000000 0.000000
1.171794 0.445448 0.037188 0.000000 0.000000 0.000000
1.204305 0.462565 0.049928 0.000000 0.000000 0.000000
1.195411 0.481305 0.008325 0.000000 0.000000 0.000000
1.176439 0.475324 0.003662 0.000000 0.000000 0.000000
1.201364 0.483058 -0.009313 0.000000 0.000000 0.000000
1.189857 0.478781 0.007697 0.000000 0.000000 0.000000
1.205401 0.459133 0.046187 0.000000 0.000000 0.000000
1.185550 0.478040 0.014945 0.000000 0.000000 0.000000
1.250046 0.323273 0.206098 0.000000 0.000000 0.000000
1.187131 0.462673 0.012077 0.000000 0.000000 0.000000
1.183180 0.461528 0.011950 0.000000 0.000000 0.000000
1.219185 0.454703 0.048207 0.000000 0.000000 0.000000
1.175357 0.474322 0.019156 0.000000 0.000000 0.000000
0.446034 0.373627 0.228342 0.000000 0.000000 0.000000
1.256611 0.300876 0.212348 0.000000 0.000000 0.000000
1.203451 0.472809 0.008891 0.000000 0.000000 0.000000
1.202472 0.470792 0.012356 0.000000 0.000000 0.000000
0.444222 0.337323 0.193241 0.000000 0.000000 0.000000
1.177007 0.472232 0.031092 0.000000 0.000000 0.000000
1.181620 0.476420 0.030140 0.000000 0.000000 0.000000
0.442431 0.377816 0.206806 0.000000 0.000000 0.000000
1.210073 0.471004 -0.001092 0.000000 0.000000 0.000000
1.193404 0.471602 0.016596 0.000000 0.000000 0.000000
1.203857 0.481359 -0.013608 0.000000 0.000000 0.000000
1.174701 0.478851 0.019888 0.000000 0.000000 0.000000
1.182635 0.474843 0.020425 0.000000 0.000000 0.000000
1.181026 0.466839 0.022311 0.000000 0.000000 0.000000
1.186357 0.457912 0.020930 0.000000 0.000000 0.000000
1.209524 0.474225 0.013419 0.000000 0.000000 0.000000
1.178851 0.470644 0.013322 0.000000 0.000000 0.000000
1.178752 0.470420 0.027805 0.000000 0.000000 0.000000
1.179663 0.474176 0.018802 0.000000 0.000000 0.000000
1.180871 0.463932 0.017611 0.000000 0.000000 0.000000
1.175882 0.470146 0.032158 0.000000 0.000000 0.000000
0.461143 0.353822 0.182636 0.000000 0.000000 0.000000
1.254038 0.290631 0.211026 0.000000 0.000000 0.000000
1.251266 0.284731 0.209839 0.000000 0.000000 0.000000
1.257725 0.296862 0.213233 0.000000 0.000000 0.000000
1.190170 0.467954 0.021032 0.000000 0.000000 0.000000
1.247694 0.285606 0.206657 0.000000 0.000000 0.000000
1.200595 0.482612 -0.015481 0.000000 0.000000 0.000000
1.205949 0.478486 -0.005493 0.000000 0.000000 0.000000
1.217708 0.468654 -0.014066 0.000000 0.000000 0.000000
1.220566 0.471718 -0.017525 0.000000 0.000000 0.000000
1.253399 0.310589 0.207273 0.000000 0.000000 0.000000
0.456331 0.329112 0.193371 0.000000 0.000000 0.000000
1.173203 0.450851 0.002322 0.000000 0.000000 0.000000
1.166538 0.456473 0.004160 0.000000 0.000000 0.000000
1.257211 0.294850 0.211933 0.000000 0.000000 0.000000
1.252469 0.311634 0.209617 0.000000 0.000000 0.000000
1.254182 0.312658 0.209358 0.000000 0.000000 0.000000
1.208155 0.450132 0.062328 0.000000 0.000000 0.000000
1.169811 0.453458 0.005792 0.000000 0.000000 0.000000
1.257044 0.307598 0.208808 0.000000 0.000000 0.000000
0.464550 0.320164 0.195954 0.000000 0.000000 0.000000
1.178599 0.452000 0.006703 0.000000 0.000000 0.000000
0.480617 0.362581 0.183637 0.000000 0.000000 0.000000
0.494812 0.383170 0.179728 0.000000 0.000000 0.000000
0.443871 0.376500 0.191870 0.000000 0.000000 0.000000
1.216355 0.452846 0.051424 0.000000 0.000000 0.000000
1.166896 0.454024 0.002450 0.000000 0.000000 0.000000
0.457376 0.371722 0.207482 0.000000 0.000000 0.000000
1.166362 0.473633 0.013646 0.000000 0.000000 0.000000
0.501810 0.363876 0.227690 0.000000 0.000000 0.000000
0.489811 0.375797 0.193482 0.000000 0.000000 0.000000
0.455299 0.374733 0.201402 0.000000 0.000000 0.000000
1.164903 0.474807 0.011717 0.000000 0.000000 0.000000
1.198348 0.472551 0.011649 0.000000 0.000000 0.000000
1.198332 0.476654 0.017670 0.000000 0.000000 0.000000
1.208137 0.470049 0.002164 0.000000 0.000000 0.000000
1.193530 0.480056 0.000821 0.000000 0.000000 0.000000
1.188485 0.478995 0.016146 0.000000 0.000000 0.000000
1.192445 0.482128 0.000018 0.000000 0.000000 0.000000
1.176376 0.473104 0.035246 0.000000 0.000000 0.000000
1.198073 0.471996 0.018079 0.000000 0.000000 0.000000
1.168147 0.467359 0.035496 0.000000 0.000000 0.000000
1.168696 0.445689 0.037880 0.000000 0.000000 0.000000
1.202018 0.460271 0.052167 0.000000 0.000000 0.000000
1.220604 0.444871 0.057346 0.000000 0.000000 0.000000
1.216389 0.450133 0.055417 0.000000 0.000000 0.000000
1.212462 0.453684 0.057839 0.000000 0.000000 0.000000
1.205951 0.444629 0.060074 0.000000 0.000000 0.000000
1.207955 0.448932 0.060408 0.000000 0.000000 0.000000
1.168701 0.466488 0.024177 0.000000 0.000000 0.000000
1.210367 0.448945 0.054177 0.000000 0.000000 0.000000
1.224496 0.450110 0.049926 0.000000 0.000000 0.000000
1.221424 0.447785 0.053036 0.000000 0.000000 0.000000
0.492550 0.384337 0.172916 0.000000 0.000000 0.000000
1.191833 0.476130 0.023345 0.000000 0.000000 0.000000
1.202955 0.484265 -0.017650 0.000000 0.000000 0.000000
0.491480 0.384196 0.171563 0.000000 0.000000 0.000000
1.189415 0.472194 0.016988 0.000000 0.000000 0.000000
0.487631 0.385011 0.165888 0.000000 0.000000 0.000000
1.207994 0.470266 0.008624 0.000000 0.000000 0.000000
1.187690 0.460059 0.020760 0.000000 0.000000 0.000000
0.491734 0.383656 0.177275 0.000000 0.000000 0.000000
0.489963 0.382408 0.171067 0.000000 0.000000 0.000000
1.201192 0.445724 0.066556 0.000000 0.000000 0.000000
1.200629 0.473091 0.007690 0.000000 0.000000 0.000000
1.199671 0.473247 0.011986 0.000000 0.000000 0.000000
1.203206 0.470679 0.012496 0.000000 0.000000 0.000000
1.199251 0.472300 0.002497 0.000000 0.000000 0.000000
1.193675 0.474678 0.014629 0.000000 0.000000 0.000000
1.192102 0.475070 0.014075 0.000000 0.000000 0.000000
0.457237 0.356883 0.188139 0.000000 0.000000 0.000000
1.191334 0.477355 0.018735 0.000000 0.000000 0.000000
1.191431 0.480655 0.000148 0.000000 0.000000 0.000000
1.187339 0.456165 0.013406 0.000000 0.000000 0.000000
1.201134 0.479177 0.063819 0.000000 0.000000 0.000000
0.468906 0.362203 0.222453 0.000000 0.000000 0.000000
1.202178 0.480344 -0.008899 0.000000 0.000000 0.000000
1.200484 0.466939 -0.008064 0.000000 0.000000 0.000000
1.192545 0.487287 0.005566 0.000000 0.000000 0.000000
1.250317 0.319800 0.204892 0.000000 0.000000 0.000000
1.203963 0.467185 -0.009962 0.000000 0.000000 0.000000
1.194707 0.475828 0.013211 0.000000 0.000000 0.000000
1.195984 0.479095 0.012337 0.000000 0.000000 0.000000
1.187557 0.477301 0.003464 0.000000 0.000000 0.000000
1.182567 0.486502 0.009494 0.000000 0.000000 0.000000
1.214254 0.467045 -0.010339 0.000000 0.000000 0.000000
0.450672 0.378681 0.202188 0.000000 0.000000 0.000000
0.460790 0.365701 0.213947 0.000000 0.000000 0.000000
0.450550 0.375208 0.215656 0.000000 0.000000 0.000000
1.259776 0.299066 0.213496 0.000000 0.000000 0.000000
0.443294 0.377292 0.206464 0.000000 0.000000 0.000000
0.447215 0.375485 0.203275 0.000000 0.000000 0.000000
1.255100 0.300730 0.210723 0.000000 0.000000 0.000000
0.455091 0.368964 0.200522 0.000000 0.000000 0.000000
1.256540 0.301411 0.210650 0.000000 0.000000 0.000000
1.257420 0.304903 0.213197 0.000000 0.000000 0.000000
1.258054 0.303690 0.213361 0.000000 0.000000 0.000000
1.167382 0.480196 0.038878 0.000000 0.000000 0.000000
1.167246 0.478558 0.033874 0.000000 0.000000 0.000000
1.207696 0.466622 -0.013261 0.000000 0.000000 0.000000
1.210361 0.469662 -0.007688 0.000000 0.000000 0.000000
1.202223 0.465733 0.045185 0.000000 0.000000 0.000000
1.203091 0.478725 -0.005773 0.000000 0.000000 0.000000
1.169247 0.476218 0.029282 0.000000 0.000000 0.000000
0.485410 0.382346 0.170153 0.000000 0.000000 0.000000
0.476144 0.384521 0.200277 0.000000 0.000000 0.000000
1.200961 0.466798 -0.018058 0.000000 0.000000 0.000000
0.495447 0.383570 0.168055 0.000000 0.000000 0.000000
0.470397 0.381852 0.199010 0.000000 0.000000 0.000000
0.461390 0.379047 0.197744 0.000000 0.000000 0.000000
0.458131 0.384030 0.191262 0.000000 0.000000 0.000000
1.209099 0.476641 -0.022540 0.000000 0.000000 0.000000
0.486035 0.382785 0.176257 0.000000 0.000000 0.000000
0.491584 0.382269 0.170510 0.000000 0.000000 0.000000
0.500335 0.379874 0.171230 0.000000 0.000000 0.000000
0.459503 0.382944 0.196703 0.000000 0.000000 0.000000
1.252576 0.295719 0.200258 0.000000 0.000000 0.000000
0.473680 0.392330 0.184852 0.000000 0.000000 0.000000
0.451894 0.377736 0.209951 0.000000 0.000000 0.000000
1.193062 0.474217 0.010429 0.000000 0.000000 0.000000
1.204160 0.472864 0.006194 0.000000 0.000000 0.000000
1.203951 0.474217 0.011512 0.000000 0.000000 0.000000
1.173085 0.448418 0.038432 0.000000 0.000000 0.000000
0.488392 0.383543 0.165281 0.000000 0.000000 0.000000
0.488951 0.381806 0.176060 0.000000 0.000000 0.000000
0.469597 0.373618 0.201947 0.000000 0.000000 0.000000
0.473715 0.372149 0.204173 0.000000 0.000000 0.000000
0.492519 0.392693 0.175628 0.000000 0.000000 0.000000
0.495234 0.379568 0.183803 0.000000 0.000000 0.000000
1.213566 0.467897 -0.005016 0.000000 0.000000 0.000000
0.495638 0.378688 0.195451 0.000000 0.000000 0.000000
0.464378 0.375810 0.204785 0.000000 0.000000 0.000000
0.465429 0.371871 0.203654 0.000000 0.000000 0.000000
0.482660 0.384317 0.175894 0.000000 0.000000 0.000000
0.491916 0.375347 0.183073 0.000000 0.000000 0.000000
1.211417 0.474536 -0.010976 0.000000 0.000000 0.000000
0.467988 0.380686 0.204307 0.000000 0.000000 0.000000
1.166085 0.471396 0.015291 0.000000 0.000000 0.000000
1.196895 0.468944 0.023538 0.000000 0.000000 0.000000
1.174510 0.464832 0.028651 0.000000 0.000000 0.000000
1.256194 0.299434 0.208833 0.000000 0.000000 0.000000
1.192404 0.467993 0.021714 0.000000 0.000000 0.000000
1.256814 0.298193 0.211159 0.000000 0.000000 0.000000
1.257738 0.295783 0.214790 0.000000 0.000000 0.000000
1.256133 0.307149 0.211174 0.000000 0.000000 0.000000
1.256672 0.303204 0.212358 0.000000 0.000000 0.000000
0.474075 0.373261 0.201880 0.000000 0.000000 0.000000
1.163735 0.465371 0.014481 0.000000 0.000000 0.000000
1.168948 0.467565 0.025976 0.000000 0.000000 0.000000
1.174619 0.462727 0.012227 0.000000 0.000000 0.000000
1.172316 0.470650 0.024336 0.000000 0.000000 0.000000
1.166284 0.467221 0.021303 0.000000 0.000000 0.000000
1.181560 0.462506 0.019374 0.000000 0.000000 0.000000
0.480333 0.365768 0.182627 0.000000 0.000000 0.000000
1.163384 0.480424 0.039232 0.000000 0.000000 0.000000
1.257493 0.308534 0.209190 0.000000 0.000000 0.000000
0.477185 0.389555 0.180127 0.000000 0.000000 0.000000
0.465043 0.369605 0.172006 0.000000 0.000000 0.000000
1.256564 0.297965 0.211769 0.000000 0.000000 0.000000
1.163469 0.465273 0.028036 0.000000 0.000000 0.000000
0.466216 0.385889 0.178274 0.000000 0.000000 0.000000
1.201603 0.472709 0.004759 0.000000 0.000000 0.000000
1.199208 0.471691 0.013114 0.000000 0.000000 0.000000
1.207233 0.474087 0.009308 0.000000 0.000000 0.000000
1.220884 0.447798 0.059267 0.000000 0.000000 0.000000
1.205596 0.473203 0.012520 0.000000 0.000000 0.000000
1.256559 0.300997 0.211316 0.000000 0.000000 0.000000
1.202978 0.474862 0.013226 0.000000 0.000000 0.000000
1.259011 0.303524 0.208672 0.000000 0.000000 0.000000
1.255815 0.297722 0.215375 0.000000 0.000000 0.000000
0.473190 0.390269 0.174606 0.000000 0.000000 0.000000
1.206805 0.469366 -0.001699 0.000000 0.000000 0.000000
0.471004 0.389982 0.179624 0.000000 0.000000 0.000000
0.480905 0.385595 0.191586 0.000000 0.000000 0.000000
0.474835 0.380824 0.177514 0.000000 0.000000 0.000000
0.489564 0.379033 0.182599 0.000000 0.000000 0.000000
0.478906 0.394127 0.170414 0.000000 0.000000 0.000000
1.204784 0.469315 -0.000650 0.000000 0.000000 0.000000
0.477554 0.389470 0.183138 0.000000 0.000000 0.000000
0.470834 0.385154 0.176394 0.000000 0.000000 0.000000
0.479895 0.388263 0.187527 0.000000 0.000000 0.000000
0.480934 0.381167 0.174894 0.000000 0.000000 0.000000
0.486861 0.384830 0.168861 0.000000 0.000000 0.000000
1.250808 0.314183 0.208191 0.000000 0.000000 0.000000
1.254083 0.318456 0.206108 0.000000 0.000000 0.000000
0.488512 0.385719 0.183718 0.000000 0.000000 0.000000
1.182335 0.477788 0.023756 0.000000 0.000000 0.000000
1.190858 0.464906 0.018194 0.000000 0.000000 0.000000
1.189649 0.452666 0.009574 0.000000 0.000000 0.000000
1.205189 0.470464 -0.000488 0.000000 0.000000 0.000000
0.482198 0.382392 0.181015 0.000000 0.000000 0.000000
1.176088 0.475446 0.009606 0.000000 0.000000 0.000000
1.193478 0.471433 0.013567 0.000000 0.000000 0.000000
0.485487 0.382193 0.182895 0.000000 0.000000 0.000000
0.487623 0.383415 0.180047 0.000000 0.000000 0.000000
1.192804 0.472046 0.015032 0.000000 0.000000 0.000000
0.490279 0.384088 0.180684 0.000000 0.000000 0.000000
0.487928 0.383606 0.174643 0.000000 0.000000 0.000000
1.178330 0.464251 0.021360 0.000000 0.000000 0.000000
0.485706 0.380923 0.184718 0.000000 0.000000 0.000000
1.180700 0.476772 0.012864 0.000000 0.000000 0.000000
1.173794 0.480164 0.037814 0.000000 0.000000 0.000000
0.479993 0.382211 0.181166 0.000000 0.000000 0.000000
0.494455 0.375973 0.196386 0.000000 0.000000 0.000000
1.177632 0.476095 0.014957 0.000000 0.000000 0.000000
1.188806 0.451984 0.006436 0.000000 0.000000 0.000000
1.171584 0.479865 0.036922 0.000000 0.000000 0.000000
0.487184 0.380106 0.187450 0.000000 0.000000 0.000000
1.258129 0.292284 0.214884 0.000000 0.000000 0.000000
1.168736 0.459084 0.008052 0.000000 0.000000 0.000000
1.252748 0.290777 0.204688 0.000000 0.000000 0.000000
1.255505 0.300606 0.213033 0.000000 0.000000 0.000000
1.255128 0.308890 0.209203 0.000000 0.000000 0.000000
1.204829 0.453596 0.064342 0.000000 0.000000 0.000000
1.259098 0.299647 0.212335 0.000000 0.000000 0.000000
1.255191 0.298124 0.208784 0.000000 0.000000 0.000000
1.260242 0.298143 0.216143 0.000000 0.000000 0.000000
1.256184 0.293379 0.213060 0.000000 0.000000 0.000000
1.256775 0.293225 0.210434 0.000000 0.000000 0.000000
1.255853 0.285773 0.213952 0.000000 0.000000 0.000000
1.213264 0.470660 -0.009468 0.000000 0.000000 0.000000
1.226775 0.446998 0.053800 0.000000 0.000000 0.000000
1.205643 0.457030 0.052072 0.000000 0.000000 0.000000
1.255473 0.297965 0.214499 0.000000 0.000000 0.000000
1.211490 0.468218 -0.013844 0.000000 0.000000 0.000000
0.535629 0.449435 0.358257 0.000000 0.000000 0.000000
0.560790 0.462491 0.344215 0.000000 0.000000 0.000000
0.560334 0.463783 0.340085 0.000000 0.000000 0.000000
0.550484 0.453963 0.348359 0.000000 0.000000 0.000000
0.561362 0.460579 0.356171 0.000000 0.000000 0.000000
0.532271 0.462612 0.358786 0.000000 0.000000 0.000000
0.574072 0.462109 0.351358 0.000000 0.000000 0.000000
0.528584 0.461705 0.341350 0.000000 0.000000 0.000000
0.565930 0.463586 0.339507 0.000000 0.000000 0.000000
0.572367 0.466146 0.347090 0.000000 0.000000 0.000000
0.568397 0.469929 0.349257 0.000000 0.000000 0.000000
0.576298 0.467096 0.342748 0.000000 0.000000 0.000000
0.523931 0.446735 0.357318 0.000000 0.000000 0.000000
0.567946 0.463046 0.347654 0.000000 0.000000 0.000000
0.585165 0.469490 0.338247 0.000000 0.000000 0.000000
0.576698 0.471758 0.343403 0.000000 0.000000 0.000000
0.591778 0.475462 0.336706 0.000000 0.000000 0.000000
0.544078 0.457615 0.343347 0.000000 0.000000 0.000000
0.574474 0.471407 0.338216 0.000000 0.000000 0.000000
0.521453 0.458319 0.358701 0.000000 0.000000 0.000000
0.541531 0.456986 0.352142 0.000000 0.000000 0.000000
0.552264 0.464185 0.347871 0.000000 0.000000 0.000000
0.551251 0.452217 0.357149 0.000000 0.000000 0.000000
0.532247 0.441655 0.347808 0.000000 0.000000 0.000000
0.530468 0.441214 0.343778 0.000000 0.000000 0.000000
0.556492 0.453660 0.353426 0.000000 0.000000 0.000000
0.552777 0.461274 0.353819 0.000000 0.000000 0.000000
0.582021 0.472403 0.339102 0.000000 0.000000 0.000000
0.535102 0.441193 0.342821 0.000000 0.000000 0.000000
0.542977 0.446718 0.339024 0.000000 0.000000 0.000000
0.569141 0.469844 0.339990 0.000000 0.000000 0.000000
0.557519 0.461934 0.355407 0.000000 0.000000 0.000000
0.533846 0.448660 0.353361 0.000000 0.000000 0.000000
0.557278 0.460402 0.339788 0.000000 0.000000 0.000000
0.568871 0.461170 0.339353 0.000000 0.000000 0.000000
0.568113 0.466326 0.340981 0.000000 0.000000 0.000000
0.550889 0.461167 0.348053 0.000000 0.000000 0.000000
0.573615 0.469250 0.341919 0.000000 0.000000 0.000000
0.588801 0.472824 0.349116 0.000000 0.000000 0.000000
0.589410 0.469637 0.344982 0.000000 0.000000 0.000000
0.558085 0.465225 0.344608 0.000000 0.000000 0.000000
