ply
format ascii 1.0
comment VCGLIB generated
obj_info Generated by SPFormer!
element vertex 101
property float x
property float y
property float z
property float nx
property float ny
property float nz
end_header
0.575545 -0.668995 1.021882 0.000000 0.000000 0.000000
0.601189 -0.691398 0.997592 0.000000 0.000000 0.000000
0.731289 -0.535784 0.675841 0.000000 0.000000 0.000000
0.742281 -0.533591 0.675516 0.000000 0.000000 0.000000
0.744106 -0.540646 0.678076 0.000000 0.000000 0.000000
0.602521 -0.692213 0.996039 0.000000 0.000000 0.000000
0.746822 -0.531017 0.677057 0.000000 0.000000 0.000000
0.733759 -0.533156 0.673473 0.000000 0.000000 0.000000
0.724835 -0.532431 0.674917 0.000000 0.000000 0.000000
0.735150 -0.535443 0.679192 0.000000 0.000000 0.000000
0.742639 -0.533467 0.679263 0.000000 0.000000 0.000000
0.745552 -0.537409 0.679254 0.000000 0.000000 0.000000
0.736283 -0.538468 0.676998 0.000000 0.000000 0.000000
0.738069 -0.533970 0.676903 0.000000 0.000000 0.000000
0.739835 -0.532856 0.677858 0.000000 0.000000 0.000000
0.736896 -0.524602 0.679379 0.000000 0.000000 0.000000
0.723406 -0.533971 0.676630 0.000000 0.000000 0.000000
0.735427 -0.534395 0.676070 0.000000 0.000000 0.000000
0.750385 -0.533420 0.679438 0.000000 0.000000 0.000000
0.741355 -0.531422 0.675771 0.000000 0.000000 0.000000
0.734345 -0.533042 0.677477 0.000000 0.000000 0.000000
0.730391 -0.532955 0.672788 0.000000 0.000000 0.000000
0.751142 -0.538680 0.678049 0.000000 0.000000 0.000000
0.748584 -0.531128 0.678896 0.000000 0.000000 0.000000
0.725981 -0.528415 0.675884 0.000000 0.000000 0.000000
0.733127 -0.533611 0.678276 0.000000 0.000000 0.000000
0.720571 -0.533470 0.670286 0.000000 0.000000 0.000000
0.728965 -0.535186 0.674807 0.000000 0.000000 0.000000
0.726560 -0.531966 0.676617 0.000000 0.000000 0.000000
0.749874 -0.531156 0.669037 0.000000 0.000000 0.000000
0.745413 -0.532141 0.678167 0.000000 0.000000 0.000000
0.722179 -0.552082 0.672711 0.000000 0.000000 0.000000
0.731935 -0.531291 0.674874 0.000000 0.000000 0.000000
0.752330 -0.529960 0.679626 0.000000 0.000000 0.000000
0.749239 -0.529966 0.677438 0.000000 0.000000 0.000000
0.730408 -0.534490 0.676529 0.000000 0.000000 0.000000
0.744524 -0.530186 0.676689 0.000000 0.000000 0.000000
0.744631 -0.534820 0.676863 0.000000 0.000000 0.000000
0.744514 -0.532426 0.678635 0.000000 0.000000 0.000000
0.747817 -0.531669 0.676926 0.000000 0.000000 0.000000
0.604333 -0.684789 0.989581 0.000000 0.000000 0.000000
0.600218 -0.682812 0.988525 0.000000 0.000000 0.000000
0.729022 -0.532953 0.674015 0.000000 0.000000 0.000000
0.731932 -0.531039 0.674444 0.000000 0.000000 0.000000
0.745302 -0.530449 0.677027 0.000000 0.000000 0.000000
0.731039 -0.533785 0.673195 0.000000 0.000000 0.000000
0.722847 -0.534643 0.676489 0.000000 0.000000 0.000000
0.745487 -0.532753 0.677672 0.000000 0.000000 0.000000
0.731455 -0.533733 0.675818 0.000000 0.000000 0.000000
0.746526 -0.530999 0.677001 0.000000 0.000000 0.000000
0.723515 -0.538560 0.673777 0.000000 0.000000 0.000000
0.751954 -0.534432 0.679244 0.000000 0.000000 0.000000
0.752930 -0.531848 0.676521 0.000000 0.000000 0.000000
0.723221 -0.530690 0.672509 0.000000 0.000000 0.000000
0.736042 -0.532907 0.678974 0.000000 0.000000 0.000000
0.723295 -0.533147 0.678774 0.000000 0.000000 0.000000
0.723701 -0.534125 0.672809 0.000000 0.000000 0.000000
0.720577 -0.529980 0.674945 0.000000 0.000000 0.000000
0.735116 -0.532997 0.673399 0.000000 0.000000 0.000000
0.722786 -0.534781 0.671521 0.000000 0.000000 0.000000
0.727106 -0.532242 0.672719 0.000000 0.000000 0.000000
0.720656 -0.535848 0.672666 0.000000 0.000000 0.000000
0.724430 -0.531447 0.672227 0.000000 0.000000 0.000000
0.722799 -0.533421 0.670299 0.000000 0.000000 0.000000
0.759340 -0.538106 0.675899 0.000000 0.000000 0.000000
0.723887 -0.534470 0.679357 0.000000 0.000000 0.000000
0.742131 -0.529660 0.676415 0.000000 0.000000 0.000000
0.752623 -0.532886 0.678084 0.000000 0.000000 0.000000
0.734914 -0.533781 0.678382 0.000000 0.000000 0.000000
0.724164 -0.530573 0.678966 0.000000 0.000000 0.000000
0.744208 -0.532855 0.674755 0.000000 0.000000 0.000000
0.737711 -0.535507 0.673763 0.000000 0.000000 0.000000
0.751629 -0.535762 0.675623 0.000000 0.000000 0.000000
0.748594 -0.529563 0.677659 0.000000 0.000000 0.000000
0.749349 -0.530545 0.677429 0.000000 0.000000 0.000000
0.749683 -0.532387 0.677715 0.000000 0.000000 0.000000
0.758479 -0.532007 0.678337 0.000000 0.000000 0.000000
0.750030 -0.529449 0.679999 0.000000 0.000000 0.000000
0.752895 -0.534193 0.678195 0.000000 0.000000 0.000000
0.744731 -0.528398 0.677590 0.000000 0.000000 0.000000
0.741395 -0.531693 0.677390 0.000000 0.000000 0.000000
0.725197 -0.527138 0.677238 0.000000 0.000000 0.000000
0.749535 -0.533373 0.676160 0.000000 0.000000 0.000000
0.733092 -0.533258 0.678994 0.000000 0.000000 0.000000
0.753553 -0.534426 0.678933 0.000000 0.000000 0.000000
0.729426 -0.533290 0.672198 0.000000 0.000000 0.000000
0.736719 -0.532862 0.674225 0.000000 0.000000 0.000000
0.737644 -0.533644 0.679900 0.000000 0.000000 0.000000
0.734487 -0.531418 0.673229 0.000000 0.000000 0.000000
0.601504 -0.687785 0.993852 0.000000 0.000000 0.000000
0.600589 -0.690087 0.994052 0.000000 0.000000 0.000000
0.723993 -0.558143 0.674444 0.000000 0.000000 0.000000
0.722660 -0.554497 0.673580 0.000000 0.000000 0.000000
0.724640 -0.555352 0.677253 0.000000 0.000000 0.000000
0.726708 -0.556291 0.676064 0.000000 0.000000 0.000000
0.723952 -0.559198 0.676211 0.000000 0.000000 0.000000
0.732363 -0.556532 0.678126 0.000000 0.000000 0.000000
0.598958 -0.758600 1.039691 0.000000 0.000000 0.000000
0.637570 -0.680197 0.969865 0.000000 0.000000 0.000000
0.634797 -0.681540 0.960163 0.000000 0.000000 0.000000
0.560692 -0.722261 1.001969 0.000000 0.000000 0.000000
