ply
format ascii 1.0
comment VCGLIB generated
obj_info Generated by SPFormer!
element vertex 321
property float x
property float y
property float z
property float nx
property float ny
property float nz
end_header
-0.280135 0.560929 2.751177 0.000000 0.000000 0.000000
-0.286624 0.576757 2.746161 0.000000 0.000000 0.000000
0.365573 0.029347 1.958379 0.000000 0.000000 0.000000
0.373262 0.030344 1.951994 0.000000 0.000000 0.000000
0.360426 0.028534 1.952680 0.000000 0.000000 0.000000
0.360573 0.037559 1.953140 0.000000 0.000000 0.000000
-0.280797 0.581829 2.756263 0.000000 0.000000 0.000000
0.360989 0.035659 1.949594 0.000000 0.000000 0.000000
-0.226035 0.381639 2.289919 0.000000 0.000000 0.000000
0.363288 0.020907 1.940397 0.000000 0.000000 0.000000
-0.207029 0.379923 2.294341 0.000000 0.000000 0.000000
-0.202474 0.377718 2.292736 0.000000 0.000000 0.000000
-0.223036 0.378921 2.286395 0.000000 0.000000 0.000000
0.368456 1.086500 3.204224 0.000000 0.000000 0.000000
0.366210 0.034646 1.957863 0.000000 0.000000 0.000000
0.494610 -0.399592 1.205912 0.000000 0.000000 0.000000
-0.280640 0.560903 2.731115 0.000000 0.000000 0.000000
0.368552 0.026488 1.955603 0.000000 0.000000 0.000000
-0.213902 0.386900 2.299863 0.000000 0.000000 0.000000
-0.214850 0.377967 2.291060 0.000000 0.000000 0.000000
-0.284021 0.575009 2.740918 0.000000 0.000000 0.000000
0.379302 1.085856 3.201089 0.000000 0.000000 0.000000
0.381589 1.090470 3.204312 0.000000 0.000000 0.000000
0.363491 0.034668 1.955110 0.000000 0.000000 0.000000
-0.303451 0.560429 2.730819 0.000000 0.000000 0.000000
0.370887 0.033310 1.945316 0.000000 0.000000 0.000000
0.366403 0.031911 1.946670 0.000000 0.000000 0.000000
0.364772 0.030870 1.942718 0.000000 0.000000 0.000000
0.360858 0.039508 1.957178 0.000000 0.000000 0.000000
0.360302 0.034192 1.945792 0.000000 0.000000 0.000000
0.382644 1.084576 3.203250 0.000000 0.000000 0.000000
0.366981 0.028754 1.941873 0.000000 0.000000 0.000000
0.364473 0.026392 1.943555 0.000000 0.000000 0.000000
0.367900 0.027092 1.952525 0.000000 0.000000 0.000000
0.491279 -0.399299 1.209010 0.000000 0.000000 0.000000
0.360420 1.081880 3.215942 0.000000 0.000000 0.000000
0.363228 1.082137 3.209673 0.000000 0.000000 0.000000
0.367126 0.024379 1.956825 0.000000 0.000000 0.000000
0.369001 0.026390 1.945285 0.000000 0.000000 0.000000
0.365580 0.024415 1.944676 0.000000 0.000000 0.000000
0.364283 0.025307 1.946274 0.000000 0.000000 0.000000
0.362976 0.029260 1.937751 0.000000 0.000000 0.000000
-0.308993 0.591932 2.744352 0.000000 0.000000 0.000000
-0.299804 0.583555 2.744101 0.000000 0.000000 0.000000
-0.312097 0.589855 2.748004 0.000000 0.000000 0.000000
-0.304597 0.585337 2.736260 0.000000 0.000000 0.000000
-0.316332 0.591665 2.745226 0.000000 0.000000 0.000000
-0.319491 0.591385 2.742441 0.000000 0.000000 0.000000
-0.310180 0.583676 2.742059 0.000000 0.000000 0.000000
-0.302347 0.582034 2.730747 0.000000 0.000000 0.000000
-0.309770 0.589729 2.752045 0.000000 0.000000 0.000000
-0.294892 0.582287 2.748323 0.000000 0.000000 0.000000
0.372451 0.031289 1.954293 0.000000 0.000000 0.000000
-0.301646 0.584448 2.738981 0.000000 0.000000 0.000000
-0.312271 0.586504 2.733109 0.000000 0.000000 0.000000
-0.307039 0.583823 2.736760 0.000000 0.000000 0.000000
-0.319304 0.589981 2.738518 0.000000 0.000000 0.000000
-0.312246 0.589496 2.738193 0.000000 0.000000 0.000000
-0.291043 0.578391 2.734277 0.000000 0.000000 0.000000
-0.310534 0.588548 2.742481 0.000000 0.000000 0.000000
-0.317873 0.591839 2.738619 0.000000 0.000000 0.000000
0.497784 -0.393919 1.208064 0.000000 0.000000 0.000000
-0.221462 0.382173 2.292606 0.000000 0.000000 0.000000
0.389628 1.087705 3.205295 0.000000 0.000000 0.000000
0.364043 0.033406 1.953467 0.000000 0.000000 0.000000
-0.220767 0.376055 2.288118 0.000000 0.000000 0.000000
-0.208538 0.373378 2.291378 0.000000 0.000000 0.000000
0.366028 0.025888 1.953147 0.000000 0.000000 0.000000
0.362245 0.032419 1.953514 0.000000 0.000000 0.000000
0.365739 0.025513 1.945670 0.000000 0.000000 0.000000
0.377444 1.081157 3.200803 0.000000 0.000000 0.000000
0.494002 -0.396063 1.208437 0.000000 0.000000 0.000000
0.367351 0.025672 1.941884 0.000000 0.000000 0.000000
-0.211155 0.379014 2.295983 0.000000 0.000000 0.000000
-0.207740 0.378468 2.298680 0.000000 0.000000 0.000000
0.497916 -0.398978 1.206106 0.000000 0.000000 0.000000
-0.284978 0.594703 2.738519 0.000000 0.000000 0.000000
-0.280142 0.595649 2.727029 0.000000 0.000000 0.000000
0.481831 -0.395267 1.227564 0.000000 0.000000 0.000000
0.369436 0.028338 1.941222 0.000000 0.000000 0.000000
0.365459 0.038483 1.958391 0.000000 0.000000 0.000000
0.367701 0.035464 1.949398 0.000000 0.000000 0.000000
-0.209650 0.376028 2.291354 0.000000 0.000000 0.000000
0.483229 -0.399141 1.221936 0.000000 0.000000 0.000000
-0.301947 0.586810 2.758040 0.000000 0.000000 0.000000
-0.232948 0.397400 2.302454 0.000000 0.000000 0.000000
0.366656 0.022021 1.948745 0.000000 0.000000 0.000000
0.382400 1.084714 3.207368 0.000000 0.000000 0.000000
0.371745 1.084387 3.211872 0.000000 0.000000 0.000000
-0.232732 0.386574 2.295127 0.000000 0.000000 0.000000
0.485440 -0.393598 1.223064 0.000000 0.000000 0.000000
0.366395 0.036763 1.957316 0.000000 0.000000 0.000000
0.494101 -0.390672 1.203887 0.000000 0.000000 0.000000
0.483308 -0.364833 1.201218 0.000000 0.000000 0.000000
0.482447 -0.384980 1.200396 0.000000 0.000000 0.000000
0.482330 -0.371110 1.202224 0.000000 0.000000 0.000000
0.496714 -0.395698 1.204126 0.000000 0.000000 0.000000
0.491948 -0.398158 1.200543 0.000000 0.000000 0.000000
0.492459 -0.396169 1.200332 0.000000 0.000000 0.000000
-0.278254 -0.352127 1.372347 0.000000 0.000000 0.000000
-0.268868 -0.340000 1.361505 0.000000 0.000000 0.000000
-0.250471 -0.344423 1.363365 0.000000 0.000000 0.000000
-0.261882 -0.345401 1.368323 0.000000 0.000000 0.000000
-0.250881 -0.337440 1.366977 0.000000 0.000000 0.000000
-0.262547 -0.343596 1.375533 0.000000 0.000000 0.000000
-0.275497 -0.354415 1.378202 0.000000 0.000000 0.000000
-0.269545 -0.347270 1.367759 0.000000 0.000000 0.000000
-0.262293 -0.343202 1.365077 0.000000 0.000000 0.000000
-0.276965 -0.354034 1.369300 0.000000 0.000000 0.000000
-0.260347 -0.337271 1.365565 0.000000 0.000000 0.000000
-0.264842 -0.343666 1.367820 0.000000 0.000000 0.000000
-0.265205 -0.330548 1.376043 0.000000 0.000000 0.000000
-0.276705 -0.355547 1.381785 0.000000 0.000000 0.000000
-0.251209 -0.341703 1.368425 0.000000 0.000000 0.000000
-0.270778 -0.349600 1.368361 0.000000 0.000000 0.000000
-0.253477 -0.337244 1.368442 0.000000 0.000000 0.000000
-0.266635 -0.338814 1.372151 0.000000 0.000000 0.000000
-0.262348 -0.341724 1.364590 0.000000 0.000000 0.000000
-0.263454 -0.340184 1.372835 0.000000 0.000000 0.000000
-0.261563 -0.337371 1.374580 0.000000 0.000000 0.000000
-0.251037 -0.335486 1.365893 0.000000 0.000000 0.000000
-0.267418 -0.341338 1.375309 0.000000 0.000000 0.000000
-0.258724 -0.337054 1.372910 0.000000 0.000000 0.000000
-0.265579 -0.351915 1.366161 0.000000 0.000000 0.000000
-0.267501 -0.346146 1.364038 0.000000 0.000000 0.000000
-0.270487 -0.347644 1.363935 0.000000 0.000000 0.000000
-0.259750 -0.339291 1.365940 0.000000 0.000000 0.000000
-0.262684 -0.345629 1.368763 0.000000 0.000000 0.000000
-0.256364 -0.328582 1.365761 0.000000 0.000000 0.000000
-0.270594 -0.351349 1.370172 0.000000 0.000000 0.000000
-0.260704 -0.353488 1.370965 0.000000 0.000000 0.000000
-0.270121 -0.346818 1.376303 0.000000 0.000000 0.000000
-0.275231 -0.353521 1.369870 0.000000 0.000000 0.000000
-0.265101 -0.347476 1.365768 0.000000 0.000000 0.000000
-0.270286 -0.347199 1.371178 0.000000 0.000000 0.000000
-0.278095 -0.351920 1.365534 0.000000 0.000000 0.000000
-0.261343 -0.340777 1.367567 0.000000 0.000000 0.000000
-0.273934 -0.346348 1.376477 0.000000 0.000000 0.000000
-0.276154 -0.350554 1.372630 0.000000 0.000000 0.000000
-0.272036 -0.349735 1.370322 0.000000 0.000000 0.000000
-0.266418 -0.349826 1.361418 0.000000 0.000000 0.000000
-0.272642 -0.341447 1.380922 0.000000 0.000000 0.000000
-0.274929 -0.355551 1.376994 0.000000 0.000000 0.000000
-0.277588 -0.357535 1.365067 0.000000 0.000000 0.000000
-0.271893 -0.359646 1.368120 0.000000 0.000000 0.000000
-0.272092 -0.350421 1.362641 0.000000 0.000000 0.000000
-0.265830 -0.357553 1.364008 0.000000 0.000000 0.000000
-0.250797 -0.348368 1.363326 0.000000 0.000000 0.000000
-0.274523 -0.348781 1.360279 0.000000 0.000000 0.000000
-0.257361 -0.344957 1.366206 0.000000 0.000000 0.000000
-0.260366 -0.350053 1.369603 0.000000 0.000000 0.000000
-0.252612 -0.339596 1.365258 0.000000 0.000000 0.000000
-0.258215 -0.333019 1.362236 0.000000 0.000000 0.000000
-0.262120 -0.351009 1.368749 0.000000 0.000000 0.000000
-0.273793 -0.344012 1.378934 0.000000 0.000000 0.000000
-0.267777 -0.354011 1.368419 0.000000 0.000000 0.000000
-0.253760 -0.343482 1.369029 0.000000 0.000000 0.000000
-0.248713 -0.331816 1.377217 0.000000 0.000000 0.000000
-0.247075 -0.322414 1.370067 0.000000 0.000000 0.000000
-0.242863 -0.329102 1.375093 0.000000 0.000000 0.000000
-0.256457 -0.326857 1.369560 0.000000 0.000000 0.000000
-0.244823 -0.335076 1.371519 0.000000 0.000000 0.000000
-0.241326 -0.326331 1.381154 0.000000 0.000000 0.000000
-0.249176 -0.338833 1.372648 0.000000 0.000000 0.000000
-0.241961 -0.330036 1.369096 0.000000 0.000000 0.000000
-0.246138 -0.330491 1.371998 0.000000 0.000000 0.000000
-0.242354 -0.321965 1.377468 0.000000 0.000000 0.000000
-0.252840 -0.327840 1.377625 0.000000 0.000000 0.000000
-0.253839 -0.331315 1.375746 0.000000 0.000000 0.000000
-0.248351 -0.331588 1.373591 0.000000 0.000000 0.000000
-0.240339 -0.334160 1.369347 0.000000 0.000000 0.000000
-0.247491 -0.324647 1.364242 0.000000 0.000000 0.000000
-0.243507 -0.326941 1.365642 0.000000 0.000000 0.000000
-0.241707 -0.331093 1.366172 0.000000 0.000000 0.000000
-0.247026 -0.337060 1.368023 0.000000 0.000000 0.000000
-0.245731 -0.337317 1.369011 0.000000 0.000000 0.000000
-0.244537 -0.336523 1.367340 0.000000 0.000000 0.000000
0.383794 0.020860 1.931919 0.000000 0.000000 0.000000
0.379556 0.019052 1.956549 0.000000 0.000000 0.000000
0.376685 0.000484 1.937993 0.000000 0.000000 0.000000
0.378566 0.002545 1.951276 0.000000 0.000000 0.000000
0.388433 0.020663 1.938011 0.000000 0.000000 0.000000
0.372027 0.025183 1.944331 0.000000 0.000000 0.000000
0.374738 0.024727 1.944832 0.000000 0.000000 0.000000
0.388093 0.021616 1.943071 0.000000 0.000000 0.000000
0.353146 -0.111029 1.984273 0.000000 0.000000 0.000000
0.359475 -0.088594 1.976814 0.000000 0.000000 0.000000
0.373294 0.021839 1.949891 0.000000 0.000000 0.000000
0.352786 -0.112613 1.987530 0.000000 0.000000 0.000000
0.357320 -0.100575 1.982838 0.000000 0.000000 0.000000
0.386163 0.011081 1.953212 0.000000 0.000000 0.000000
0.398243 0.006292 1.948067 0.000000 0.000000 0.000000
0.378055 0.022880 1.951129 0.000000 0.000000 0.000000
0.396398 0.012180 1.942225 0.000000 0.000000 0.000000
0.375120 0.017742 1.956520 0.000000 0.000000 0.000000
0.375045 0.015092 1.945310 0.000000 0.000000 0.000000
0.375475 0.025836 1.953127 0.000000 0.000000 0.000000
0.371260 0.017251 1.939404 0.000000 0.000000 0.000000
0.393183 0.016316 1.944501 0.000000 0.000000 0.000000
0.377106 0.003395 1.959141 0.000000 0.000000 0.000000
0.390687 0.015322 1.948684 0.000000 0.000000 0.000000
0.352662 -0.106230 1.982347 0.000000 0.000000 0.000000
0.387880 0.014649 1.942104 0.000000 0.000000 0.000000
0.385979 0.009663 1.940188 0.000000 0.000000 0.000000
0.374648 0.001672 1.940845 0.000000 0.000000 0.000000
0.385057 0.017964 1.940498 0.000000 0.000000 0.000000
0.398889 0.016597 1.930685 0.000000 0.000000 0.000000
0.391584 0.017458 1.937844 0.000000 0.000000 0.000000
0.375047 0.020365 1.941761 0.000000 0.000000 0.000000
0.375370 0.023003 1.951604 0.000000 0.000000 0.000000
0.373555 0.001828 1.947116 0.000000 0.000000 0.000000
0.387080 0.010370 1.953111 0.000000 0.000000 0.000000
0.390206 0.011375 1.950053 0.000000 0.000000 0.000000
0.375430 0.010735 1.943375 0.000000 0.000000 0.000000
0.381884 0.007289 1.944197 0.000000 0.000000 0.000000
0.389550 0.020185 1.931628 0.000000 0.000000 0.000000
0.379696 0.021714 1.955824 0.000000 0.000000 0.000000
0.371598 0.025491 1.940571 0.000000 0.000000 0.000000
0.384333 0.020340 1.956491 0.000000 0.000000 0.000000
0.380123 0.022903 1.941068 0.000000 0.000000 0.000000
0.396190 0.019563 1.934638 0.000000 0.000000 0.000000
0.378171 0.013556 1.951312 0.000000 0.000000 0.000000
0.391029 0.015667 1.935464 0.000000 0.000000 0.000000
0.376582 0.021882 1.952575 0.000000 0.000000 0.000000
0.369695 0.019766 1.949338 0.000000 0.000000 0.000000
0.358261 -0.100202 1.987064 0.000000 0.000000 0.000000
0.354086 -0.098595 1.983992 0.000000 0.000000 0.000000
0.353356 -0.105485 1.986632 0.000000 0.000000 0.000000
0.383657 0.005989 1.950911 0.000000 0.000000 0.000000
0.388773 0.001223 1.952883 0.000000 0.000000 0.000000
0.370421 0.004336 1.948092 0.000000 0.000000 0.000000
0.371039 0.007964 1.940674 0.000000 0.000000 0.000000
0.376405 0.008684 1.949806 0.000000 0.000000 0.000000
0.352187 -0.094635 1.978866 0.000000 0.000000 0.000000
0.399011 0.025549 1.920442 0.000000 0.000000 0.000000
0.376396 0.023842 1.948056 0.000000 0.000000 0.000000
0.393870 0.000985 1.948990 0.000000 0.000000 0.000000
0.394351 0.022158 1.932028 0.000000 0.000000 0.000000
0.372262 0.014486 1.949723 0.000000 0.000000 0.000000
0.394554 0.020067 1.929626 0.000000 0.000000 0.000000
0.373011 0.006797 1.947831 0.000000 0.000000 0.000000
0.355310 -0.081355 1.972259 0.000000 0.000000 0.000000
0.357034 -0.100422 1.982119 0.000000 0.000000 0.000000
0.353047 -0.094185 1.974663 0.000000 0.000000 0.000000
0.351616 -0.094071 1.981181 0.000000 0.000000 0.000000
0.355034 -0.092412 1.977154 0.000000 0.000000 0.000000
0.357685 -0.099810 1.982801 0.000000 0.000000 0.000000
0.350242 -0.102431 1.979714 0.000000 0.000000 0.000000
0.351775 -0.094390 1.985269 0.000000 0.000000 0.000000
0.397725 0.022447 1.925933 0.000000 0.000000 0.000000
0.386944 0.021404 1.934508 0.000000 0.000000 0.000000
0.327532 -0.087300 1.979455 0.000000 0.000000 0.000000
0.321189 -0.083335 1.979804 0.000000 0.000000 0.000000
0.320335 -0.092328 1.985910 0.000000 0.000000 0.000000
0.329927 -0.087213 1.971292 0.000000 0.000000 0.000000
0.321116 -0.102793 1.987438 0.000000 0.000000 0.000000
0.329170 -0.083222 1.983035 0.000000 0.000000 0.000000
0.321794 -0.090559 1.980925 0.000000 0.000000 0.000000
0.335724 -0.080133 1.971463 0.000000 0.000000 0.000000
0.324521 -0.080223 1.974089 0.000000 0.000000 0.000000
0.331127 -0.085066 1.975942 0.000000 0.000000 0.000000
0.326411 -0.090853 1.977615 0.000000 0.000000 0.000000
0.330552 -0.084737 1.981231 0.000000 0.000000 0.000000
0.325562 -0.098179 1.979239 0.000000 0.000000 0.000000
0.327803 -0.088152 1.967189 0.000000 0.000000 0.000000
0.324130 -0.094714 1.967182 0.000000 0.000000 0.000000
0.323552 -0.087848 1.977704 0.000000 0.000000 0.000000
0.327011 -0.087666 1.976511 0.000000 0.000000 0.000000
0.322423 -0.105812 1.976770 0.000000 0.000000 0.000000
-0.236626 0.383604 2.288949 0.000000 0.000000 0.000000
-0.205819 0.393867 2.288772 0.000000 0.000000 0.000000
-0.200401 0.393197 2.290471 0.000000 0.000000 0.000000
-0.201221 0.397301 2.284600 0.000000 0.000000 0.000000
-0.225757 0.382277 2.285215 0.000000 0.000000 0.000000
-0.232136 0.377385 2.285336 0.000000 0.000000 0.000000
-0.237023 0.384464 2.292912 0.000000 0.000000 0.000000
-0.230099 0.382031 2.297565 0.000000 0.000000 0.000000
-0.237173 0.384513 2.299801 0.000000 0.000000 0.000000
-0.236752 0.381078 2.311192 0.000000 0.000000 0.000000
-0.239188 0.384987 2.309312 0.000000 0.000000 0.000000
-0.236644 0.385470 2.302590 0.000000 0.000000 0.000000
-0.557098 0.728585 2.999350 0.000000 0.000000 0.000000
-0.555550 0.727100 3.007152 0.000000 0.000000 0.000000
-0.463908 0.602038 2.905901 0.000000 0.000000 0.000000
-0.306008 0.561002 2.745361 0.000000 0.000000 0.000000
-0.317861 0.560200 2.741414 0.000000 0.000000 0.000000
-0.316189 0.562295 2.740029 0.000000 0.000000 0.000000
-0.312054 0.561666 2.740702 0.000000 0.000000 0.000000
-0.306029 0.560496 2.737373 0.000000 0.000000 0.000000
-0.317783 0.563698 2.742198 0.000000 0.000000 0.000000
-0.319503 0.565060 2.750487 0.000000 0.000000 0.000000
0.400909 0.258233 2.967858 0.000000 0.000000 0.000000
0.137866 0.406829 2.868276 0.000000 0.000000 0.000000
0.126180 0.404838 2.879719 0.000000 0.000000 0.000000
0.143228 0.400570 2.874183 0.000000 0.000000 0.000000
0.153646 0.402483 2.872451 0.000000 0.000000 0.000000
0.136688 0.405963 2.877508 0.000000 0.000000 0.000000
0.130315 0.405406 2.877385 0.000000 0.000000 0.000000
0.130465 0.407647 2.874358 0.000000 0.000000 0.000000
0.144568 0.405332 2.865865 0.000000 0.000000 0.000000
0.201368 0.510997 2.874369 0.000000 0.000000 0.000000
0.158214 0.423069 2.859410 0.000000 0.000000 0.000000
0.153060 0.433985 2.863549 0.000000 0.000000 0.000000
0.142989 0.431890 2.867686 0.000000 0.000000 0.000000
0.156556 0.430269 2.864344 0.000000 0.000000 0.000000
0.132909 0.436923 2.869268 0.000000 0.000000 0.000000
0.138948 0.433540 2.872961 0.000000 0.000000 0.000000
0.159407 0.420689 2.865928 0.000000 0.000000 0.000000
0.157973 0.437080 2.875051 0.000000 0.000000 0.000000
0.159076 0.422167 2.865971 0.000000 0.000000 0.000000
0.149447 0.425537 2.862473 0.000000 0.000000 0.000000
0.133919 0.436014 2.865250 0.000000 0.000000 0.000000
0.149771 0.432313 2.864568 0.000000 0.000000 0.000000
0.144415 0.428357 2.866506 0.000000 0.000000 0.000000
0.125527 0.435551 2.859290 0.000000 0.000000 0.000000
0.136301 0.436772 2.867846 0.000000 0.000000 0.000000
0.131987 0.439784 2.871439 0.000000 0.000000 0.000000
0.335623 0.772866 3.601988 0.000000 0.000000 0.000000
0.463158 0.717694 3.879489 0.000000 0.000000 0.000000
0.361615 1.093323 3.201860 0.000000 0.000000 0.000000
0.395237 1.086309 3.200857 0.000000 0.000000 0.000000
