ply
format ascii 1.0
comment VCGLIB generated
obj_info Generated by SPFormer!
element vertex 411
property float x
property float y
property float z
property float nx
property float ny
property float nz
end_header
0.465330 -0.367874 1.100921 0.000000 0.000000 0.000000
0.472390 -0.366053 1.086887 0.000000 0.000000 0.000000
0.451920 -0.360635 1.084241 0.000000 0.000000 0.000000
0.504159 -0.399308 1.064190 0.000000 0.000000 0.000000
0.475309 -0.373261 1.080035 0.000000 0.000000 0.000000
0.514074 -0.410385 1.074296 0.000000 0.000000 0.000000
0.479757 -0.385729 1.060310 0.000000 0.000000 0.000000
0.481322 -0.378796 1.075047 0.000000 0.000000 0.000000
0.474392 -0.398520 1.092792 0.000000 0.000000 0.000000
0.464475 -0.364466 1.097309 0.000000 0.000000 0.000000
0.459315 -0.364034 1.100716 0.000000 0.000000 0.000000
0.444891 -0.360169 1.102514 0.000000 0.000000 0.000000
0.485738 -0.401314 1.062266 0.000000 0.000000 0.000000
0.480247 -0.389968 1.076749 0.000000 0.000000 0.000000
0.466127 -0.370355 1.095219 0.000000 0.000000 0.000000
0.504939 -0.400809 1.072780 0.000000 0.000000 0.000000
0.461106 -0.364430 1.076053 0.000000 0.000000 0.000000
0.471430 -0.383417 1.079252 0.000000 0.000000 0.000000
0.479083 -0.402984 1.093270 0.000000 0.000000 0.000000
0.504739 -0.403092 1.070923 0.000000 0.000000 0.000000
0.513131 -0.410270 1.079310 0.000000 0.000000 0.000000
0.498154 -0.398312 1.078933 0.000000 0.000000 0.000000
0.466342 -0.370078 1.073724 0.000000 0.000000 0.000000
0.472560 -0.401790 1.096684 0.000000 0.000000 0.000000
0.488222 -0.391227 1.069507 0.000000 0.000000 0.000000
0.486732 -0.392974 1.059934 0.000000 0.000000 0.000000
0.478693 -0.383997 1.087729 0.000000 0.000000 0.000000
0.474400 -0.377144 1.080576 0.000000 0.000000 0.000000
0.478774 -0.380457 1.083620 0.000000 0.000000 0.000000
0.487365 -0.390688 1.079312 0.000000 0.000000 0.000000
0.495816 -0.393911 1.073261 0.000000 0.000000 0.000000
0.462594 -0.366737 1.075372 0.000000 0.000000 0.000000
0.466716 -0.370803 1.091200 0.000000 0.000000 0.000000
0.508111 -0.404174 1.073324 0.000000 0.000000 0.000000
0.512956 -0.407762 1.075777 0.000000 0.000000 0.000000
0.509721 -0.405035 1.071037 0.000000 0.000000 0.000000
0.519000 -0.414559 1.078932 0.000000 0.000000 0.000000
0.454999 -0.362375 1.080365 0.000000 0.000000 0.000000
0.493166 -0.399378 1.073649 0.000000 0.000000 0.000000
0.471742 -0.368375 1.082307 0.000000 0.000000 0.000000
0.476293 -0.375713 1.086658 0.000000 0.000000 0.000000
0.479797 -0.401509 1.088717 0.000000 0.000000 0.000000
0.472020 -0.394446 1.091593 0.000000 0.000000 0.000000
0.471987 -0.378368 1.096128 0.000000 0.000000 0.000000
0.474260 -0.393868 1.086813 0.000000 0.000000 0.000000
0.476001 -0.375044 1.092691 0.000000 0.000000 0.000000
0.510762 -0.405893 1.077158 0.000000 0.000000 0.000000
0.479064 -0.388575 1.067946 0.000000 0.000000 0.000000
0.503726 -0.402569 1.067932 0.000000 0.000000 0.000000
0.479880 -0.398845 1.071955 0.000000 0.000000 0.000000
0.471022 -0.399943 1.091522 0.000000 0.000000 0.000000
0.486509 -0.389983 1.068373 0.000000 0.000000 0.000000
0.503779 -0.401390 1.071965 0.000000 0.000000 0.000000
0.453926 -0.362419 1.102423 0.000000 0.000000 0.000000
0.501102 -0.398252 1.072227 0.000000 0.000000 0.000000
0.499830 -0.397978 1.077758 0.000000 0.000000 0.000000
0.493894 -0.390628 1.064040 0.000000 0.000000 0.000000
0.482071 -0.391707 1.061938 0.000000 0.000000 0.000000
0.449952 -0.360580 1.083455 0.000000 0.000000 0.000000
0.511298 -0.409211 1.074521 0.000000 0.000000 0.000000
0.513895 -0.410771 1.078147 0.000000 0.000000 0.000000
0.457804 -0.371367 1.086630 0.000000 0.000000 0.000000
0.488057 -0.387244 1.075849 0.000000 0.000000 0.000000
0.505874 -0.400200 1.079813 0.000000 0.000000 0.000000
0.478778 -0.378945 1.089614 0.000000 0.000000 0.000000
0.464011 -0.367504 1.073229 0.000000 0.000000 0.000000
0.457090 -0.369936 1.084521 0.000000 0.000000 0.000000
0.456412 -0.363820 1.079211 0.000000 0.000000 0.000000
0.486151 -0.393725 1.059685 0.000000 0.000000 0.000000
0.496039 -0.395566 1.061552 0.000000 0.000000 0.000000
0.493706 -0.376125 1.075488 0.000000 0.000000 0.000000
0.476363 -0.386228 1.082049 0.000000 0.000000 0.000000
0.485082 -0.385545 1.068655 0.000000 0.000000 0.000000
0.494208 -0.389369 1.074327 0.000000 0.000000 0.000000
0.477892 -0.397412 1.087800 0.000000 0.000000 0.000000
0.461591 -0.375027 1.083062 0.000000 0.000000 0.000000
0.489886 -0.392859 1.066543 0.000000 0.000000 0.000000
0.496822 -0.397887 1.066851 0.000000 0.000000 0.000000
0.482860 -0.396358 1.067684 0.000000 0.000000 0.000000
0.467330 -0.368209 1.096530 0.000000 0.000000 0.000000
0.440651 -0.360368 1.096952 0.000000 0.000000 0.000000
0.488379 -0.393568 1.069345 0.000000 0.000000 0.000000
0.470926 -0.373063 1.100675 0.000000 0.000000 0.000000
0.465008 -0.367007 1.091166 0.000000 0.000000 0.000000
0.500171 -0.398093 1.077424 0.000000 0.000000 0.000000
0.492679 -0.392489 1.072782 0.000000 0.000000 0.000000
0.472242 -0.398190 1.078972 0.000000 0.000000 0.000000
0.486208 -0.392561 1.057521 0.000000 0.000000 0.000000
0.508727 -0.406487 1.073887 0.000000 0.000000 0.000000
0.461229 -0.361770 1.090863 0.000000 0.000000 0.000000
0.503125 -0.400949 1.067717 0.000000 0.000000 0.000000
0.470504 -0.385654 1.089048 0.000000 0.000000 0.000000
0.461282 -0.364153 1.080778 0.000000 0.000000 0.000000
0.457195 -0.369177 1.085070 0.000000 0.000000 0.000000
0.502705 -0.382640 1.077660 0.000000 0.000000 0.000000
0.511506 -0.406557 1.066961 0.000000 0.000000 0.000000
0.503376 -0.400442 1.067497 0.000000 0.000000 0.000000
0.479206 -0.387392 1.085350 0.000000 0.000000 0.000000
0.470040 -0.378523 1.066576 0.000000 0.000000 0.000000
0.501235 -0.396653 1.077579 0.000000 0.000000 0.000000
0.495190 -0.393610 1.067140 0.000000 0.000000 0.000000
0.466810 -0.370227 1.085774 0.000000 0.000000 0.000000
0.469676 -0.360106 1.095410 0.000000 0.000000 0.000000
0.498452 -0.396830 1.059686 0.000000 0.000000 0.000000
0.459845 -0.362804 1.104334 0.000000 0.000000 0.000000
0.483837 -0.390824 1.061281 0.000000 0.000000 0.000000
0.462789 -0.364202 1.084723 0.000000 0.000000 0.000000
0.470197 -0.372534 1.094296 0.000000 0.000000 0.000000
0.469960 -0.371927 1.079984 0.000000 0.000000 0.000000
0.500792 -0.377583 1.079551 0.000000 0.000000 0.000000
0.474101 -0.373979 1.073560 0.000000 0.000000 0.000000
0.462718 -0.367438 1.072325 0.000000 0.000000 0.000000
0.500846 -0.400274 1.066206 0.000000 0.000000 0.000000
0.483347 -0.371562 1.075035 0.000000 0.000000 0.000000
0.459594 -0.360116 1.098001 0.000000 0.000000 0.000000
0.463106 -0.377671 1.085227 0.000000 0.000000 0.000000
0.459352 -0.365588 1.093230 0.000000 0.000000 0.000000
0.494034 -0.394997 1.065900 0.000000 0.000000 0.000000
0.467827 -0.371793 1.069193 0.000000 0.000000 0.000000
0.495750 -0.396905 1.065059 0.000000 0.000000 0.000000
0.473706 -0.391738 1.073534 0.000000 0.000000 0.000000
0.503138 -0.366088 1.077306 0.000000 0.000000 0.000000
0.509155 -0.404858 1.073605 0.000000 0.000000 0.000000
0.470252 -0.378081 1.072271 0.000000 0.000000 0.000000
0.490516 -0.392323 1.067478 0.000000 0.000000 0.000000
0.462403 -0.364395 1.090008 0.000000 0.000000 0.000000
0.479201 -0.381825 1.072110 0.000000 0.000000 0.000000
0.466928 -0.369368 1.094410 0.000000 0.000000 0.000000
0.469743 -0.366831 1.082751 0.000000 0.000000 0.000000
0.465431 -0.365242 1.088075 0.000000 0.000000 0.000000
0.475039 -0.373150 1.073056 0.000000 0.000000 0.000000
0.469189 -0.366729 1.097023 0.000000 0.000000 0.000000
0.470043 -0.372616 1.077635 0.000000 0.000000 0.000000
0.440623 -0.360684 1.093931 0.000000 0.000000 0.000000
0.505085 -0.400595 1.070727 0.000000 0.000000 0.000000
0.507828 -0.402027 1.069334 0.000000 0.000000 0.000000
0.467482 -0.367578 1.097954 0.000000 0.000000 0.000000
0.474775 -0.381597 1.072433 0.000000 0.000000 0.000000
0.500631 -0.398944 1.063667 0.000000 0.000000 0.000000
0.491887 -0.393062 1.072719 0.000000 0.000000 0.000000
0.484779 -0.392109 1.058070 0.000000 0.000000 0.000000
0.465507 -0.371507 1.101853 0.000000 0.000000 0.000000
0.509576 -0.402407 1.068451 0.000000 0.000000 0.000000
0.460143 -0.364988 1.101639 0.000000 0.000000 0.000000
0.485912 -0.393892 1.057962 0.000000 0.000000 0.000000
0.463462 -0.370634 1.073172 0.000000 0.000000 0.000000
0.470166 -0.384227 1.072314 0.000000 0.000000 0.000000
0.494913 -0.399072 1.057541 0.000000 0.000000 0.000000
0.472340 -0.368396 1.070415 0.000000 0.000000 0.000000
0.474734 -0.372860 1.091788 0.000000 0.000000 0.000000
0.451719 -0.360944 1.089244 0.000000 0.000000 0.000000
0.457156 -0.360853 1.094507 0.000000 0.000000 0.000000
0.500295 -0.394211 1.071853 0.000000 0.000000 0.000000
0.495619 -0.396828 1.061229 0.000000 0.000000 0.000000
0.471964 -0.373438 1.073696 0.000000 0.000000 0.000000
0.466403 -0.369360 1.095342 0.000000 0.000000 0.000000
0.472304 -0.363653 1.099585 0.000000 0.000000 0.000000
0.479583 -0.405544 1.083812 0.000000 0.000000 0.000000
0.509974 -0.402328 1.069335 0.000000 0.000000 0.000000
0.464590 -0.365308 1.088118 0.000000 0.000000 0.000000
0.492594 -0.395240 1.062670 0.000000 0.000000 0.000000
0.469137 -0.368270 1.089471 0.000000 0.000000 0.000000
0.477409 -0.378021 1.080742 0.000000 0.000000 0.000000
0.473440 -0.363588 1.081882 0.000000 0.000000 0.000000
0.488052 -0.393212 1.065375 0.000000 0.000000 0.000000
0.517386 -0.414010 1.078886 0.000000 0.000000 0.000000
0.500937 -0.396913 1.065226 0.000000 0.000000 0.000000
0.475296 -0.386815 1.072839 0.000000 0.000000 0.000000
0.459783 -0.364992 1.097621 0.000000 0.000000 0.000000
0.460093 -0.368017 1.100418 0.000000 0.000000 0.000000
0.495528 -0.391223 1.073333 0.000000 0.000000 0.000000
0.470628 -0.386668 1.067745 0.000000 0.000000 0.000000
0.484123 -0.392117 1.066010 0.000000 0.000000 0.000000
0.462520 -0.364579 1.075050 0.000000 0.000000 0.000000
0.479861 -0.401803 1.070318 0.000000 0.000000 0.000000
0.499169 -0.398060 1.062152 0.000000 0.000000 0.000000
0.466156 -0.369477 1.073269 0.000000 0.000000 0.000000
0.503754 -0.399883 1.070090 0.000000 0.000000 0.000000
0.479117 -0.394284 1.093056 0.000000 0.000000 0.000000
0.495421 -0.395958 1.068371 0.000000 0.000000 0.000000
0.486109 -0.387917 1.065862 0.000000 0.000000 0.000000
0.448604 -0.363148 1.103708 0.000000 0.000000 0.000000
0.462517 -0.361540 1.074584 0.000000 0.000000 0.000000
0.495647 -0.395481 1.079900 0.000000 0.000000 0.000000
0.482442 -0.392179 1.057334 0.000000 0.000000 0.000000
0.489706 -0.394367 1.064605 0.000000 0.000000 0.000000
0.492022 -0.394217 1.066478 0.000000 0.000000 0.000000
0.485561 -0.389679 1.065878 0.000000 0.000000 0.000000
0.494900 -0.392309 1.064118 0.000000 0.000000 0.000000
0.449375 -0.364932 1.091096 0.000000 0.000000 0.000000
0.471689 -0.389515 1.070433 0.000000 0.000000 0.000000
0.499653 -0.398310 1.063038 0.000000 0.000000 0.000000
0.472024 -0.378209 1.073840 0.000000 0.000000 0.000000
0.495120 -0.396010 1.064304 0.000000 0.000000 0.000000
0.492681 -0.397443 1.060174 0.000000 0.000000 0.000000
0.467373 -0.368291 1.078561 0.000000 0.000000 0.000000
0.463538 -0.370358 1.068328 0.000000 0.000000 0.000000
0.466168 -0.360567 1.072921 0.000000 0.000000 0.000000
0.469762 -0.358309 1.073034 0.000000 0.000000 0.000000
0.452752 -0.365883 1.102951 0.000000 0.000000 0.000000
0.461915 -0.366248 1.075690 0.000000 0.000000 0.000000
0.471336 -0.383416 1.071670 0.000000 0.000000 0.000000
0.477941 -0.375719 1.074631 0.000000 0.000000 0.000000
0.487120 -0.389290 1.067091 0.000000 0.000000 0.000000
0.484683 -0.401692 1.075044 0.000000 0.000000 0.000000
0.440676 -0.362065 1.100973 0.000000 0.000000 0.000000
0.466661 -0.360244 1.099966 0.000000 0.000000 0.000000
0.508158 -0.403695 1.078156 0.000000 0.000000 0.000000
0.472755 -0.369097 1.097254 0.000000 0.000000 0.000000
0.471842 -0.371023 1.094921 0.000000 0.000000 0.000000
0.464980 -0.366535 1.082388 0.000000 0.000000 0.000000
0.506701 -0.401976 1.061966 0.000000 0.000000 0.000000
0.514465 -0.407574 1.070682 0.000000 0.000000 0.000000
0.491636 -0.396196 1.064518 0.000000 0.000000 0.000000
0.468066 -0.370810 1.102855 0.000000 0.000000 0.000000
0.458856 -0.361981 1.092096 0.000000 0.000000 0.000000
0.454996 -0.360449 1.088227 0.000000 0.000000 0.000000
0.459286 -0.362056 1.086398 0.000000 0.000000 0.000000
0.458998 -0.363441 1.079671 0.000000 0.000000 0.000000
0.477448 -0.379444 1.074864 0.000000 0.000000 0.000000
0.513495 -0.407584 1.071024 0.000000 0.000000 0.000000
0.474717 -0.376552 1.102442 0.000000 0.000000 0.000000
0.466878 -0.366167 1.072847 0.000000 0.000000 0.000000
0.458143 -0.364350 1.073588 0.000000 0.000000 0.000000
0.459322 -0.373579 1.095984 0.000000 0.000000 0.000000
0.451743 -0.363681 1.103900 0.000000 0.000000 0.000000
0.457571 -0.362806 1.082899 0.000000 0.000000 0.000000
0.485322 -0.388921 1.065262 0.000000 0.000000 0.000000
0.466053 -0.371859 1.072347 0.000000 0.000000 0.000000
0.478145 -0.385400 1.071256 0.000000 0.000000 0.000000
0.489034 -0.374737 1.067114 0.000000 0.000000 0.000000
0.464344 -0.369867 1.071096 0.000000 0.000000 0.000000
0.518231 -0.413215 1.077584 0.000000 0.000000 0.000000
0.484284 -0.377993 1.061104 0.000000 0.000000 0.000000
0.471985 -0.386420 1.062150 0.000000 0.000000 0.000000
0.494144 -0.391169 1.060781 0.000000 0.000000 0.000000
0.485482 -0.392557 1.064555 0.000000 0.000000 0.000000
0.490945 -0.394041 1.064005 0.000000 0.000000 0.000000
0.487309 -0.393044 1.061544 0.000000 0.000000 0.000000
0.505660 -0.399906 1.069239 0.000000 0.000000 0.000000
0.476217 -0.377413 1.084498 0.000000 0.000000 0.000000
0.473271 -0.403254 1.091464 0.000000 0.000000 0.000000
0.482033 -0.389683 1.077666 0.000000 0.000000 0.000000
0.481047 -0.399892 1.077883 0.000000 0.000000 0.000000
0.465867 -0.364703 1.104464 0.000000 0.000000 0.000000
0.499133 -0.399552 1.063374 0.000000 0.000000 0.000000
0.475787 -0.378033 1.089394 0.000000 0.000000 0.000000
0.517375 -0.412969 1.077118 0.000000 0.000000 0.000000
0.469907 -0.372563 1.075011 0.000000 0.000000 0.000000
0.475615 -0.371630 1.103785 0.000000 0.000000 0.000000
0.495343 -0.405464 1.054723 0.000000 0.000000 0.000000
0.473358 -0.372094 1.104342 0.000000 0.000000 0.000000
0.470393 -0.373768 1.074887 0.000000 0.000000 0.000000
0.510656 -0.409062 1.076261 0.000000 0.000000 0.000000
0.502497 -0.410955 1.079494 0.000000 0.000000 0.000000
0.489942 -0.396267 1.059555 0.000000 0.000000 0.000000
0.508294 -0.408416 1.070861 0.000000 0.000000 0.000000
0.477350 -0.378482 1.072389 0.000000 0.000000 0.000000
0.501963 -0.397146 1.060897 0.000000 0.000000 0.000000
0.483167 -0.378831 1.064317 0.000000 0.000000 0.000000
0.477550 -0.401182 1.090347 0.000000 0.000000 0.000000
0.501184 -0.401026 1.065435 0.000000 0.000000 0.000000
0.479707 -0.369817 1.101351 0.000000 0.000000 0.000000
0.511617 -0.404498 1.068170 0.000000 0.000000 0.000000
0.512416 -0.408063 1.071829 0.000000 0.000000 0.000000
0.466197 -0.372823 1.067744 0.000000 0.000000 0.000000
0.503773 -0.396547 1.066688 0.000000 0.000000 0.000000
0.500903 -0.395296 1.063434 0.000000 0.000000 0.000000
0.464919 -0.368171 1.069737 0.000000 0.000000 0.000000
0.478579 -0.384462 1.081147 0.000000 0.000000 0.000000
0.471986 -0.386691 1.073080 0.000000 0.000000 0.000000
0.512249 -0.409516 1.068890 0.000000 0.000000 0.000000
0.469978 -0.394919 1.090122 0.000000 0.000000 0.000000
0.473608 -0.399673 1.090075 0.000000 0.000000 0.000000
0.452699 -0.366907 1.097182 0.000000 0.000000 0.000000
0.459126 -0.370816 1.078909 0.000000 0.000000 0.000000
0.454909 -0.365163 1.079770 0.000000 0.000000 0.000000
0.472114 -0.362724 1.073455 0.000000 0.000000 0.000000
0.463416 -0.358220 1.079546 0.000000 0.000000 0.000000
0.452686 -0.366058 1.105570 0.000000 0.000000 0.000000
0.481587 -0.391248 1.054623 0.000000 0.000000 0.000000
0.456087 -0.362232 1.079686 0.000000 0.000000 0.000000
0.471629 -0.367869 1.105439 0.000000 0.000000 0.000000
0.489263 -0.393353 1.067171 0.000000 0.000000 0.000000
0.493994 -0.396498 1.068542 0.000000 0.000000 0.000000
0.495156 -0.394891 1.070351 0.000000 0.000000 0.000000
0.492322 -0.389482 1.069229 0.000000 0.000000 0.000000
0.483985 -0.392229 1.059620 0.000000 0.000000 0.000000
0.493205 -0.396530 1.062839 0.000000 0.000000 0.000000
0.491803 -0.399041 1.056887 0.000000 0.000000 0.000000
0.485920 -0.382322 1.070946 0.000000 0.000000 0.000000
0.497854 -0.396921 1.065247 0.000000 0.000000 0.000000
0.485056 -0.398370 1.062862 0.000000 0.000000 0.000000
0.485278 -0.392240 1.063096 0.000000 0.000000 0.000000
0.486203 -0.392615 1.059721 0.000000 0.000000 0.000000
0.486547 -0.394392 1.059213 0.000000 0.000000 0.000000
0.444444 -0.361001 1.107249 0.000000 0.000000 0.000000
0.491123 -0.390777 1.078679 0.000000 0.000000 0.000000
0.490858 -0.393787 1.054540 0.000000 0.000000 0.000000
0.487169 -0.391726 1.052657 0.000000 0.000000 0.000000
0.466618 -0.381391 1.078238 0.000000 0.000000 0.000000
0.506588 -0.407305 1.065730 0.000000 0.000000 0.000000
0.493003 -0.400930 1.058964 0.000000 0.000000 0.000000
0.491953 -0.406051 1.058546 0.000000 0.000000 0.000000
0.496167 -0.400161 1.054681 0.000000 0.000000 0.000000
0.455701 -0.361913 1.088160 0.000000 0.000000 0.000000
0.465812 -0.383653 1.065394 0.000000 0.000000 0.000000
0.477493 -0.411098 1.087134 0.000000 0.000000 0.000000
0.495670 -0.397371 1.055525 0.000000 0.000000 0.000000
0.459812 -0.363133 1.075374 0.000000 0.000000 0.000000
0.469499 -0.373052 1.091628 0.000000 0.000000 0.000000
0.456688 -0.362067 1.074468 0.000000 0.000000 0.000000
0.455373 -0.363624 1.087856 0.000000 0.000000 0.000000
0.458262 -0.363415 1.082861 0.000000 0.000000 0.000000
0.474023 -0.372152 1.099479 0.000000 0.000000 0.000000
0.460778 -0.363405 1.083262 0.000000 0.000000 0.000000
0.477658 -0.371464 1.106421 0.000000 0.000000 0.000000
0.462283 -0.368060 1.067463 0.000000 0.000000 0.000000
0.463194 -0.367838 1.075970 0.000000 0.000000 0.000000
0.498269 -0.396824 1.062193 0.000000 0.000000 0.000000
0.500673 -0.400551 1.060671 0.000000 0.000000 0.000000
0.482873 -0.390197 1.058458 0.000000 0.000000 0.000000
0.477388 -0.365580 1.068733 0.000000 0.000000 0.000000
0.502325 -0.400291 1.060840 0.000000 0.000000 0.000000
0.484694 -0.388199 1.058295 0.000000 0.000000 0.000000
0.491340 -0.396530 1.059267 0.000000 0.000000 0.000000
0.481116 -0.379523 1.067934 0.000000 0.000000 0.000000
0.459839 -0.364853 1.070438 0.000000 0.000000 0.000000
0.473589 -0.365579 1.066354 0.000000 0.000000 0.000000
0.475491 -0.386459 1.064111 0.000000 0.000000 0.000000
0.483186 -0.388455 1.060474 0.000000 0.000000 0.000000
0.496443 -0.395983 1.066644 0.000000 0.000000 0.000000
0.485162 -0.388750 1.068093 0.000000 0.000000 0.000000
0.465826 -0.361800 1.069883 0.000000 0.000000 0.000000
0.498284 -0.389677 1.067469 0.000000 0.000000 0.000000
0.499439 -0.395456 1.070131 0.000000 0.000000 0.000000
0.475923 -0.367039 1.069978 0.000000 0.000000 0.000000
0.482326 -0.384408 1.069443 0.000000 0.000000 0.000000
0.484046 -0.390631 1.062263 0.000000 0.000000 0.000000
0.477525 -0.364478 1.074846 0.000000 0.000000 0.000000
0.487506 -0.389101 1.067581 0.000000 0.000000 0.000000
0.474017 -0.385609 1.072484 0.000000 0.000000 0.000000
0.488494 -0.396451 1.058267 0.000000 0.000000 0.000000
0.508381 -0.404612 1.078166 0.000000 0.000000 0.000000
0.473729 -0.371304 1.065891 0.000000 0.000000 0.000000
0.484518 -0.386606 1.075400 0.000000 0.000000 0.000000
0.498884 -0.393313 1.072882 0.000000 0.000000 0.000000
0.482073 -0.385015 1.075051 0.000000 0.000000 0.000000
0.506930 -0.404248 1.070498 0.000000 0.000000 0.000000
0.471486 -0.386384 1.074895 0.000000 0.000000 0.000000
0.483209 -0.391845 1.066944 0.000000 0.000000 0.000000
0.478214 -0.388362 1.057696 0.000000 0.000000 0.000000
0.486754 -0.394617 1.058903 0.000000 0.000000 0.000000
0.485166 -0.390925 1.063936 0.000000 0.000000 0.000000
0.465859 -0.373694 1.065161 0.000000 0.000000 0.000000
0.486182 -0.394233 1.057390 0.000000 0.000000 0.000000
0.444313 -0.361011 1.104353 0.000000 0.000000 0.000000
0.464440 -0.366525 1.075199 0.000000 0.000000 0.000000
0.447198 -0.364004 1.109834 0.000000 0.000000 0.000000
0.461912 -0.361608 1.073531 0.000000 0.000000 0.000000
0.448708 -0.363666 1.104275 0.000000 0.000000 0.000000
0.473399 -0.379961 1.099538 0.000000 0.000000 0.000000
0.474754 -0.381758 1.095389 0.000000 0.000000 0.000000
0.499710 -0.396156 1.068418 0.000000 0.000000 0.000000
0.484823 -0.384952 1.066073 0.000000 0.000000 0.000000
0.484045 -0.386532 1.064159 0.000000 0.000000 0.000000
0.481441 -0.367479 1.065750 0.000000 0.000000 0.000000
0.469791 -0.388368 1.067742 0.000000 0.000000 0.000000
0.468005 -0.381954 1.063967 0.000000 0.000000 0.000000
0.475295 -0.382800 1.060183 0.000000 0.000000 0.000000
0.486127 -0.392841 1.058794 0.000000 0.000000 0.000000
0.461905 -0.365941 1.079441 0.000000 0.000000 0.000000
0.488014 -0.383465 1.071837 0.000000 0.000000 0.000000
0.462100 -0.363072 1.076495 0.000000 0.000000 0.000000
0.480088 -0.377426 1.069242 0.000000 0.000000 0.000000
0.479104 -0.407024 1.089817 0.000000 0.000000 0.000000
0.483524 -0.380277 1.069281 0.000000 0.000000 0.000000
0.470340 -0.377328 1.064077 0.000000 0.000000 0.000000
0.484000 -0.381602 1.067299 0.000000 0.000000 0.000000
0.493985 -0.398831 1.050331 0.000000 0.000000 0.000000
0.485420 -0.390144 1.063159 0.000000 0.000000 0.000000
0.484910 -0.381240 1.065574 0.000000 0.000000 0.000000
0.448445 -0.360189 1.081927 0.000000 0.000000 0.000000
0.484606 -0.384925 1.072631 0.000000 0.000000 0.000000
0.476765 -0.376470 1.072823 0.000000 0.000000 0.000000
0.484672 -0.381009 1.071020 0.000000 0.000000 0.000000
0.474568 -0.375168 1.073032 0.000000 0.000000 0.000000
0.501084 -0.404804 1.063901 0.000000 0.000000 0.000000
0.493948 -0.397186 1.054320 0.000000 0.000000 0.000000
0.484233 -0.393955 1.056449 0.000000 0.000000 0.000000
0.479369 -0.394323 1.056998 0.000000 0.000000 0.000000
0.479557 -0.360571 1.098469 0.000000 0.000000 0.000000
0.491650 -0.399948 1.053745 0.000000 0.000000 0.000000
0.490829 -0.401162 1.056553 0.000000 0.000000 0.000000
0.488406 -0.401117 1.054719 0.000000 0.000000 0.000000
0.469341 -0.381173 1.066551 0.000000 0.000000 0.000000
0.475889 -0.376308 1.064002 0.000000 0.000000 0.000000
0.469573 -0.375130 1.065917 0.000000 0.000000 0.000000
0.500937 -0.392234 1.066448 0.000000 0.000000 0.000000
0.503929 -0.400907 1.067675 0.000000 0.000000 0.000000
0.493932 -0.402431 1.052349 0.000000 0.000000 0.000000
0.482325 -0.387110 1.060074 0.000000 0.000000 0.000000
0.480963 -0.383338 1.069067 0.000000 0.000000 0.000000
0.467654 -0.375529 1.067824 0.000000 0.000000 0.000000
0.499783 -0.394164 1.073876 0.000000 0.000000 0.000000
0.501000 -0.392764 1.065820 0.000000 0.000000 0.000000
0.474898 -0.373147 1.101554 0.000000 0.000000 0.000000
0.506818 -0.401139 1.075791 0.000000 0.000000 0.000000
0.502166 -0.397279 1.070607 0.000000 0.000000 0.000000
0.501372 -0.395769 1.064524 0.000000 0.000000 0.000000
0.453734 -0.362626 1.104559 0.000000 0.000000 0.000000
