ply
format ascii 1.0
comment VCGLIB generated
obj_info Generated by SPFormer!
element vertex 405
property float x
property float y
property float z
property float nx
property float ny
property float nz
end_header
0.428976 -0.361693 1.089870 0.000000 0.000000 0.000000
0.435149 -0.358000 1.094909 0.000000 0.000000 0.000000
0.437936 -0.359384 1.096802 0.000000 0.000000 0.000000
0.451601 -0.359915 1.101506 0.000000 0.000000 0.000000
0.440243 -0.357894 1.092329 0.000000 0.000000 0.000000
0.432040 -0.357524 1.100377 0.000000 0.000000 0.000000
0.443455 -0.357127 1.090134 0.000000 0.000000 0.000000
0.424648 -0.355858 1.095089 0.000000 0.000000 0.000000
0.431534 -0.358014 1.091708 0.000000 0.000000 0.000000
0.441537 -0.348345 1.096149 0.000000 0.000000 0.000000
0.426113 -0.345769 1.103103 0.000000 0.000000 0.000000
0.414864 -0.337115 1.109563 0.000000 0.000000 0.000000
0.431228 -0.343550 1.095515 0.000000 0.000000 0.000000
0.455018 -0.356712 1.096952 0.000000 0.000000 0.000000
0.466881 -0.358826 1.092982 0.000000 0.000000 0.000000
0.449698 -0.348086 1.094661 0.000000 0.000000 0.000000
0.449836 -0.357302 1.093724 0.000000 0.000000 0.000000
0.435240 -0.340785 1.095467 0.000000 0.000000 0.000000
0.451088 -0.359697 1.086100 0.000000 0.000000 0.000000
0.518407 -0.345570 1.091410 0.000000 0.000000 0.000000
0.519115 -0.352547 1.087673 0.000000 0.000000 0.000000
0.407134 -0.330570 1.108882 0.000000 0.000000 0.000000
0.424418 -0.355520 1.100776 0.000000 0.000000 0.000000
0.407811 -0.330166 1.105491 0.000000 0.000000 0.000000
0.434042 -0.349314 1.099651 0.000000 0.000000 0.000000
0.440037 -0.356763 1.092334 0.000000 0.000000 0.000000
0.437718 -0.345370 1.094699 0.000000 0.000000 0.000000
0.426826 -0.355984 1.096203 0.000000 0.000000 0.000000
0.405177 -0.330336 1.108832 0.000000 0.000000 0.000000
0.493830 -0.357817 1.098123 0.000000 0.000000 0.000000
0.421055 -0.345159 1.099088 0.000000 0.000000 0.000000
0.456201 -0.352030 1.094356 0.000000 0.000000 0.000000
0.443047 -0.359596 1.098302 0.000000 0.000000 0.000000
0.439067 -0.359267 1.093377 0.000000 0.000000 0.000000
0.416379 -0.342976 1.105740 0.000000 0.000000 0.000000
0.444260 -0.351248 1.093334 0.000000 0.000000 0.000000
0.427647 -0.342948 1.100775 0.000000 0.000000 0.000000
0.450439 -0.346701 1.096264 0.000000 0.000000 0.000000
0.430385 -0.354355 1.095737 0.000000 0.000000 0.000000
0.424217 -0.345297 1.097511 0.000000 0.000000 0.000000
0.442659 -0.344234 1.095729 0.000000 0.000000 0.000000
0.401681 -0.326227 1.113287 0.000000 0.000000 0.000000
0.455674 -0.359804 1.096823 0.000000 0.000000 0.000000
0.412790 -0.332494 1.108135 0.000000 0.000000 0.000000
0.439511 -0.359719 1.101997 0.000000 0.000000 0.000000
0.429126 -0.364559 1.094959 0.000000 0.000000 0.000000
0.414307 -0.335048 1.103392 0.000000 0.000000 0.000000
0.515890 -0.359255 1.097171 0.000000 0.000000 0.000000
0.441392 -0.359918 1.094583 0.000000 0.000000 0.000000
0.422785 -0.342620 1.105155 0.000000 0.000000 0.000000
0.431795 -0.363558 1.088219 0.000000 0.000000 0.000000
0.489993 -0.352094 1.094270 0.000000 0.000000 0.000000
0.435879 -0.348806 1.095394 0.000000 0.000000 0.000000
0.429521 -0.351434 1.097449 0.000000 0.000000 0.000000
0.429904 -0.348272 1.097749 0.000000 0.000000 0.000000
0.488121 -0.355192 1.096095 0.000000 0.000000 0.000000
0.410049 -0.337857 1.104524 0.000000 0.000000 0.000000
0.424646 -0.349239 1.105795 0.000000 0.000000 0.000000
0.425642 -0.359601 1.095422 0.000000 0.000000 0.000000
0.433263 -0.358472 1.099117 0.000000 0.000000 0.000000
0.425044 -0.357097 1.096168 0.000000 0.000000 0.000000
0.446211 -0.358089 1.101065 0.000000 0.000000 0.000000
0.440718 -0.359710 1.094161 0.000000 0.000000 0.000000
0.426440 -0.354883 1.100146 0.000000 0.000000 0.000000
0.436174 -0.369076 1.083162 0.000000 0.000000 0.000000
0.430236 -0.365756 1.082740 0.000000 0.000000 0.000000
0.432218 -0.363647 1.092751 0.000000 0.000000 0.000000
0.418433 -0.347932 1.102064 0.000000 0.000000 0.000000
0.433352 -0.360588 1.088684 0.000000 0.000000 0.000000
0.443870 -0.359877 1.090354 0.000000 0.000000 0.000000
0.444163 -0.350375 1.087690 0.000000 0.000000 0.000000
0.442621 -0.356680 1.089760 0.000000 0.000000 0.000000
0.412749 -0.338501 1.108782 0.000000 0.000000 0.000000
0.456594 -0.359638 1.092143 0.000000 0.000000 0.000000
0.402631 -0.328905 1.111438 0.000000 0.000000 0.000000
0.411970 -0.340686 1.106998 0.000000 0.000000 0.000000
0.447847 -0.354146 1.100235 0.000000 0.000000 0.000000
0.502663 -0.352023 1.095697 0.000000 0.000000 0.000000
0.456587 -0.358336 1.096404 0.000000 0.000000 0.000000
0.470976 -0.353811 1.093332 0.000000 0.000000 0.000000
0.423471 -0.336032 1.098656 0.000000 0.000000 0.000000
0.463752 -0.341056 1.088620 0.000000 0.000000 0.000000
0.442345 -0.347624 1.096444 0.000000 0.000000 0.000000
0.434196 -0.350872 1.104202 0.000000 0.000000 0.000000
0.455987 -0.357428 1.100791 0.000000 0.000000 0.000000
0.501225 -0.353317 1.095470 0.000000 0.000000 0.000000
0.446535 -0.357641 1.093578 0.000000 0.000000 0.000000
0.452516 -0.357775 1.089138 0.000000 0.000000 0.000000
0.489563 -0.353929 1.094268 0.000000 0.000000 0.000000
0.459730 -0.359877 1.097985 0.000000 0.000000 0.000000
0.457211 -0.358479 1.092576 0.000000 0.000000 0.000000
0.406695 -0.342087 1.113405 0.000000 0.000000 0.000000
0.417544 -0.334633 1.103310 0.000000 0.000000 0.000000
0.415641 -0.346157 1.108132 0.000000 0.000000 0.000000
0.427176 -0.351135 1.105614 0.000000 0.000000 0.000000
0.420899 -0.351863 1.096679 0.000000 0.000000 0.000000
0.421974 -0.353739 1.113189 0.000000 0.000000 0.000000
0.425773 -0.333849 1.104514 0.000000 0.000000 0.000000
0.425454 -0.341696 1.101740 0.000000 0.000000 0.000000
0.419959 -0.354023 1.101610 0.000000 0.000000 0.000000
0.498409 -0.346320 1.083889 0.000000 0.000000 0.000000
0.428105 -0.355935 1.103870 0.000000 0.000000 0.000000
0.428577 -0.347617 1.100594 0.000000 0.000000 0.000000
0.432608 -0.359511 1.100275 0.000000 0.000000 0.000000
0.408169 -0.334606 1.103176 0.000000 0.000000 0.000000
0.509160 -0.344850 1.089919 0.000000 0.000000 0.000000
0.415700 -0.349353 1.115162 0.000000 0.000000 0.000000
0.410629 -0.338212 1.107251 0.000000 0.000000 0.000000
0.427379 -0.340541 1.101416 0.000000 0.000000 0.000000
0.415217 -0.344398 1.109292 0.000000 0.000000 0.000000
0.431596 -0.368767 1.091720 0.000000 0.000000 0.000000
0.429922 -0.340757 1.097632 0.000000 0.000000 0.000000
0.419404 -0.353428 1.106201 0.000000 0.000000 0.000000
0.430779 -0.364220 1.089956 0.000000 0.000000 0.000000
0.421541 -0.346762 1.100180 0.000000 0.000000 0.000000
0.417983 -0.351545 1.100443 0.000000 0.000000 0.000000
0.404389 -0.329956 1.115541 0.000000 0.000000 0.000000
0.430853 -0.345775 1.102004 0.000000 0.000000 0.000000
0.452860 -0.358190 1.088883 0.000000 0.000000 0.000000
0.411116 -0.332982 1.104656 0.000000 0.000000 0.000000
0.402631 -0.328907 1.109336 0.000000 0.000000 0.000000
0.418377 -0.340704 1.101079 0.000000 0.000000 0.000000
0.430805 -0.359124 1.107485 0.000000 0.000000 0.000000
0.421813 -0.360141 1.095929 0.000000 0.000000 0.000000
0.406744 -0.335500 1.106328 0.000000 0.000000 0.000000
0.406505 -0.333556 1.105097 0.000000 0.000000 0.000000
0.415472 -0.339795 1.104221 0.000000 0.000000 0.000000
0.419539 -0.346078 1.107224 0.000000 0.000000 0.000000
0.414048 -0.333566 1.105329 0.000000 0.000000 0.000000
0.509515 -0.346025 1.081788 0.000000 0.000000 0.000000
0.408082 -0.340951 1.106281 0.000000 0.000000 0.000000
0.409612 -0.333945 1.106245 0.000000 0.000000 0.000000
0.439205 -0.342673 1.093780 0.000000 0.000000 0.000000
0.421255 -0.361782 1.106131 0.000000 0.000000 0.000000
0.430358 -0.360039 1.093167 0.000000 0.000000 0.000000
0.406324 -0.330412 1.107251 0.000000 0.000000 0.000000
0.445693 -0.358551 1.094385 0.000000 0.000000 0.000000
0.483715 -0.357927 1.097792 0.000000 0.000000 0.000000
0.425170 -0.355981 1.096071 0.000000 0.000000 0.000000
0.494219 -0.351322 1.090081 0.000000 0.000000 0.000000
0.435576 -0.346459 1.098818 0.000000 0.000000 0.000000
0.436896 -0.343199 1.089962 0.000000 0.000000 0.000000
0.456939 -0.350950 1.095667 0.000000 0.000000 0.000000
0.423303 -0.346949 1.099365 0.000000 0.000000 0.000000
0.482165 -0.354787 1.094530 0.000000 0.000000 0.000000
0.405210 -0.329987 1.111930 0.000000 0.000000 0.000000
0.406543 -0.331735 1.107883 0.000000 0.000000 0.000000
0.425244 -0.346443 1.107286 0.000000 0.000000 0.000000
0.452223 -0.351792 1.096231 0.000000 0.000000 0.000000
0.418849 -0.337413 1.100944 0.000000 0.000000 0.000000
0.425513 -0.348326 1.098639 0.000000 0.000000 0.000000
0.432355 -0.350986 1.106640 0.000000 0.000000 0.000000
0.496250 -0.356449 1.098158 0.000000 0.000000 0.000000
0.500327 -0.359735 1.098508 0.000000 0.000000 0.000000
0.456720 -0.348668 1.096915 0.000000 0.000000 0.000000
0.422443 -0.364083 1.097426 0.000000 0.000000 0.000000
0.420102 -0.352455 1.097116 0.000000 0.000000 0.000000
0.425749 -0.359983 1.092790 0.000000 0.000000 0.000000
0.423642 -0.355370 1.095299 0.000000 0.000000 0.000000
0.427273 -0.355302 1.101713 0.000000 0.000000 0.000000
0.425262 -0.358147 1.093012 0.000000 0.000000 0.000000
0.449168 -0.359765 1.094270 0.000000 0.000000 0.000000
0.417329 -0.343525 1.110325 0.000000 0.000000 0.000000
0.408453 -0.346333 1.102038 0.000000 0.000000 0.000000
0.412099 -0.340215 1.104209 0.000000 0.000000 0.000000
0.452051 -0.359788 1.096533 0.000000 0.000000 0.000000
0.426832 -0.357980 1.095306 0.000000 0.000000 0.000000
0.412537 -0.345993 1.102435 0.000000 0.000000 0.000000
0.418148 -0.338396 1.101463 0.000000 0.000000 0.000000
0.433568 -0.364646 1.100261 0.000000 0.000000 0.000000
0.425107 -0.360593 1.091703 0.000000 0.000000 0.000000
0.437154 -0.359568 1.093372 0.000000 0.000000 0.000000
0.494442 -0.345468 1.088055 0.000000 0.000000 0.000000
0.413903 -0.347740 1.103556 0.000000 0.000000 0.000000
0.444191 -0.350594 1.101982 0.000000 0.000000 0.000000
0.435114 -0.347568 1.095520 0.000000 0.000000 0.000000
0.464985 -0.354124 1.081885 0.000000 0.000000 0.000000
0.502282 -0.341714 1.091152 0.000000 0.000000 0.000000
0.503128 -0.357514 1.083045 0.000000 0.000000 0.000000
0.454362 -0.353465 1.089388 0.000000 0.000000 0.000000
0.484742 -0.359111 1.099805 0.000000 0.000000 0.000000
0.459848 -0.359124 1.084950 0.000000 0.000000 0.000000
0.444103 -0.348560 1.097597 0.000000 0.000000 0.000000
0.497519 -0.347381 1.087341 0.000000 0.000000 0.000000
0.504977 -0.348802 1.093206 0.000000 0.000000 0.000000
0.502966 -0.346890 1.084970 0.000000 0.000000 0.000000
0.509066 -0.346134 1.091635 0.000000 0.000000 0.000000
0.427627 -0.348572 1.110872 0.000000 0.000000 0.000000
0.401643 -0.328891 1.117389 0.000000 0.000000 0.000000
0.401920 -0.345027 1.109192 0.000000 0.000000 0.000000
0.412646 -0.338306 1.104833 0.000000 0.000000 0.000000
0.518181 -0.352473 1.088202 0.000000 0.000000 0.000000
0.433458 -0.356757 1.095550 0.000000 0.000000 0.000000
0.426312 -0.352486 1.099593 0.000000 0.000000 0.000000
0.439001 -0.367699 1.084951 0.000000 0.000000 0.000000
0.421861 -0.332540 1.097025 0.000000 0.000000 0.000000
0.515619 -0.348599 1.091681 0.000000 0.000000 0.000000
0.446757 -0.359522 1.090937 0.000000 0.000000 0.000000
0.502858 -0.347236 1.091256 0.000000 0.000000 0.000000
0.511623 -0.355453 1.097564 0.000000 0.000000 0.000000
0.404537 -0.330716 1.110066 0.000000 0.000000 0.000000
0.447456 -0.359672 1.086768 0.000000 0.000000 0.000000
0.412736 -0.341942 1.102469 0.000000 0.000000 0.000000
0.405955 -0.337821 1.106066 0.000000 0.000000 0.000000
0.432509 -0.362733 1.097790 0.000000 0.000000 0.000000
0.412241 -0.350264 1.107276 0.000000 0.000000 0.000000
0.430707 -0.352605 1.097870 0.000000 0.000000 0.000000
0.433722 -0.360078 1.093695 0.000000 0.000000 0.000000
0.426912 -0.359719 1.092184 0.000000 0.000000 0.000000
0.411160 -0.333185 1.104900 0.000000 0.000000 0.000000
0.434319 -0.361620 1.087652 0.000000 0.000000 0.000000
0.404475 -0.333138 1.112438 0.000000 0.000000 0.000000
0.471564 -0.359244 1.093887 0.000000 0.000000 0.000000
0.469762 -0.358309 1.073034 0.000000 0.000000 0.000000
0.446630 -0.351691 1.094490 0.000000 0.000000 0.000000
0.519437 -0.352393 1.093882 0.000000 0.000000 0.000000
0.444936 -0.356670 1.100468 0.000000 0.000000 0.000000
0.426270 -0.358397 1.110603 0.000000 0.000000 0.000000
0.421650 -0.354737 1.091559 0.000000 0.000000 0.000000
0.459244 -0.348658 1.098186 0.000000 0.000000 0.000000
0.417824 -0.342458 1.106669 0.000000 0.000000 0.000000
0.416675 -0.349096 1.092348 0.000000 0.000000 0.000000
0.428060 -0.353251 1.098580 0.000000 0.000000 0.000000
0.434664 -0.352578 1.103957 0.000000 0.000000 0.000000
0.424763 -0.352726 1.104252 0.000000 0.000000 0.000000
0.404797 -0.328993 1.111254 0.000000 0.000000 0.000000
0.516058 -0.348506 1.092791 0.000000 0.000000 0.000000
0.505306 -0.344545 1.090581 0.000000 0.000000 0.000000
0.515090 -0.347444 1.085430 0.000000 0.000000 0.000000
0.402618 -0.337046 1.104996 0.000000 0.000000 0.000000
0.506740 -0.346366 1.091613 0.000000 0.000000 0.000000
0.502927 -0.346161 1.091221 0.000000 0.000000 0.000000
0.509082 -0.352015 1.095926 0.000000 0.000000 0.000000
0.453826 -0.359879 1.086768 0.000000 0.000000 0.000000
0.434088 -0.361018 1.091198 0.000000 0.000000 0.000000
0.429439 -0.359434 1.088068 0.000000 0.000000 0.000000
0.435601 -0.359290 1.092067 0.000000 0.000000 0.000000
0.433826 -0.355639 1.098734 0.000000 0.000000 0.000000
0.456527 -0.358344 1.098468 0.000000 0.000000 0.000000
0.407691 -0.335260 1.105544 0.000000 0.000000 0.000000
0.425396 -0.352363 1.102226 0.000000 0.000000 0.000000
0.411269 -0.340448 1.103232 0.000000 0.000000 0.000000
0.449937 -0.359976 1.084477 0.000000 0.000000 0.000000
0.407069 -0.335289 1.106568 0.000000 0.000000 0.000000
0.425068 -0.356574 1.099061 0.000000 0.000000 0.000000
0.407024 -0.338277 1.102551 0.000000 0.000000 0.000000
0.518671 -0.347229 1.091806 0.000000 0.000000 0.000000
0.407051 -0.335765 1.104642 0.000000 0.000000 0.000000
0.424462 -0.353768 1.100091 0.000000 0.000000 0.000000
0.424260 -0.350441 1.097604 0.000000 0.000000 0.000000
0.424069 -0.343400 1.103545 0.000000 0.000000 0.000000
0.458137 -0.359479 1.091527 0.000000 0.000000 0.000000
0.489272 -0.359333 1.099355 0.000000 0.000000 0.000000
0.478080 -0.355125 1.084111 0.000000 0.000000 0.000000
0.421847 -0.364906 1.104699 0.000000 0.000000 0.000000
0.496727 -0.343255 1.091259 0.000000 0.000000 0.000000
0.444293 -0.342544 1.096088 0.000000 0.000000 0.000000
0.519888 -0.354772 1.084765 0.000000 0.000000 0.000000
0.420820 -0.353802 1.094838 0.000000 0.000000 0.000000
0.519342 -0.353765 1.080030 0.000000 0.000000 0.000000
0.512150 -0.346359 1.091259 0.000000 0.000000 0.000000
0.450237 -0.347307 1.081814 0.000000 0.000000 0.000000
0.516893 -0.347294 1.090540 0.000000 0.000000 0.000000
0.419347 -0.351225 1.095906 0.000000 0.000000 0.000000
0.455290 -0.359713 1.084403 0.000000 0.000000 0.000000
0.452614 -0.357606 1.095110 0.000000 0.000000 0.000000
0.402886 -0.334904 1.105170 0.000000 0.000000 0.000000
0.402909 -0.334579 1.104741 0.000000 0.000000 0.000000
0.501988 -0.346050 1.091276 0.000000 0.000000 0.000000
0.505956 -0.347948 1.090628 0.000000 0.000000 0.000000
0.491574 -0.347911 1.087233 0.000000 0.000000 0.000000
0.474519 -0.358453 1.092941 0.000000 0.000000 0.000000
0.443154 -0.350353 1.097615 0.000000 0.000000 0.000000
0.501317 -0.340647 1.087105 0.000000 0.000000 0.000000
0.416630 -0.349725 1.096634 0.000000 0.000000 0.000000
0.437421 -0.357891 1.093311 0.000000 0.000000 0.000000
0.412670 -0.348572 1.099093 0.000000 0.000000 0.000000
0.418558 -0.345828 1.109017 0.000000 0.000000 0.000000
0.439725 -0.360329 1.095441 0.000000 0.000000 0.000000
0.513958 -0.343277 1.090999 0.000000 0.000000 0.000000
0.493566 -0.351059 1.075134 0.000000 0.000000 0.000000
0.446801 -0.351055 1.095041 0.000000 0.000000 0.000000
0.436938 -0.356408 1.104166 0.000000 0.000000 0.000000
0.443991 -0.350480 1.096677 0.000000 0.000000 0.000000
0.430146 -0.364303 1.091821 0.000000 0.000000 0.000000
0.415312 -0.351185 1.097017 0.000000 0.000000 0.000000
0.428823 -0.339344 1.095055 0.000000 0.000000 0.000000
0.409164 -0.335523 1.115520 0.000000 0.000000 0.000000
0.419995 -0.352251 1.095565 0.000000 0.000000 0.000000
0.414445 -0.333794 1.098871 0.000000 0.000000 0.000000
0.404572 -0.330043 1.112484 0.000000 0.000000 0.000000
0.515669 -0.352759 1.080389 0.000000 0.000000 0.000000
0.415695 -0.347357 1.100969 0.000000 0.000000 0.000000
0.406304 -0.340368 1.109296 0.000000 0.000000 0.000000
0.427199 -0.363021 1.087149 0.000000 0.000000 0.000000
0.431144 -0.358155 1.094804 0.000000 0.000000 0.000000
0.427620 -0.350799 1.108793 0.000000 0.000000 0.000000
0.419757 -0.332391 1.100136 0.000000 0.000000 0.000000
0.457879 -0.349897 1.097353 0.000000 0.000000 0.000000
0.429451 -0.364307 1.087497 0.000000 0.000000 0.000000
0.456763 -0.351261 1.098549 0.000000 0.000000 0.000000
0.515076 -0.357604 1.092761 0.000000 0.000000 0.000000
0.508912 -0.345509 1.091085 0.000000 0.000000 0.000000
0.463416 -0.358220 1.079546 0.000000 0.000000 0.000000
0.498684 -0.347713 1.081346 0.000000 0.000000 0.000000
0.505520 -0.345116 1.090915 0.000000 0.000000 0.000000
0.514572 -0.345253 1.090645 0.000000 0.000000 0.000000
0.505129 -0.351611 1.085524 0.000000 0.000000 0.000000
0.407779 -0.339711 1.098879 0.000000 0.000000 0.000000
0.458421 -0.349903 1.098101 0.000000 0.000000 0.000000
0.511551 -0.352317 1.082981 0.000000 0.000000 0.000000
0.402470 -0.336366 1.105016 0.000000 0.000000 0.000000
0.502723 -0.348574 1.092759 0.000000 0.000000 0.000000
0.441722 -0.347309 1.096943 0.000000 0.000000 0.000000
0.415671 -0.330527 1.102327 0.000000 0.000000 0.000000
0.442520 -0.357241 1.106644 0.000000 0.000000 0.000000
0.432939 -0.356004 1.107024 0.000000 0.000000 0.000000
0.444803 -0.351575 1.097075 0.000000 0.000000 0.000000
0.446062 -0.348786 1.095556 0.000000 0.000000 0.000000
0.507527 -0.342215 1.091087 0.000000 0.000000 0.000000
0.494899 -0.347151 1.083954 0.000000 0.000000 0.000000
0.432067 -0.356076 1.109477 0.000000 0.000000 0.000000
0.449108 -0.354251 1.083356 0.000000 0.000000 0.000000
0.516649 -0.356619 1.097827 0.000000 0.000000 0.000000
0.443850 -0.358468 1.088455 0.000000 0.000000 0.000000
0.409888 -0.335890 1.111036 0.000000 0.000000 0.000000
0.409099 -0.337971 1.114270 0.000000 0.000000 0.000000
0.440230 -0.356133 1.086907 0.000000 0.000000 0.000000
0.444462 -0.357956 1.089425 0.000000 0.000000 0.000000
0.409070 -0.341666 1.117230 0.000000 0.000000 0.000000
0.431068 -0.354110 1.107727 0.000000 0.000000 0.000000
0.443682 -0.347474 1.087275 0.000000 0.000000 0.000000
0.401414 -0.334313 1.111490 0.000000 0.000000 0.000000
0.458308 -0.351455 1.096157 0.000000 0.000000 0.000000
0.449702 -0.343660 1.096400 0.000000 0.000000 0.000000
0.445330 -0.353994 1.095719 0.000000 0.000000 0.000000
0.444729 -0.353178 1.085358 0.000000 0.000000 0.000000
0.447744 -0.348682 1.089455 0.000000 0.000000 0.000000
0.467228 -0.348661 1.091587 0.000000 0.000000 0.000000
0.438898 -0.347154 1.090040 0.000000 0.000000 0.000000
0.489827 -0.347812 1.091701 0.000000 0.000000 0.000000
0.443944 -0.354921 1.094946 0.000000 0.000000 0.000000
0.436634 -0.356512 1.095665 0.000000 0.000000 0.000000
0.452053 -0.358889 1.092326 0.000000 0.000000 0.000000
0.516586 -0.343044 1.091109 0.000000 0.000000 0.000000
0.442327 -0.355184 1.092765 0.000000 0.000000 0.000000
0.438831 -0.352915 1.095212 0.000000 0.000000 0.000000
0.444744 -0.354191 1.086920 0.000000 0.000000 0.000000
0.407048 -0.342720 1.098497 0.000000 0.000000 0.000000
0.400857 -0.337766 1.101651 0.000000 0.000000 0.000000
0.443460 -0.359571 1.101493 0.000000 0.000000 0.000000
0.422668 -0.358319 1.112016 0.000000 0.000000 0.000000
0.416921 -0.354869 1.110812 0.000000 0.000000 0.000000
0.432719 -0.354677 1.106738 0.000000 0.000000 0.000000
0.425067 -0.361251 1.109499 0.000000 0.000000 0.000000
0.420661 -0.348771 1.110582 0.000000 0.000000 0.000000
0.518584 -0.349640 1.091674 0.000000 0.000000 0.000000
0.515362 -0.345228 1.091116 0.000000 0.000000 0.000000
0.506920 -0.339581 1.086896 0.000000 0.000000 0.000000
0.410130 -0.338439 1.104917 0.000000 0.000000 0.000000
0.410876 -0.344565 1.111862 0.000000 0.000000 0.000000
0.401422 -0.331878 1.118201 0.000000 0.000000 0.000000
0.447175 -0.346685 1.096040 0.000000 0.000000 0.000000
0.402152 -0.337858 1.111330 0.000000 0.000000 0.000000
0.452079 -0.345867 1.098155 0.000000 0.000000 0.000000
0.457768 -0.350749 1.101255 0.000000 0.000000 0.000000
0.455455 -0.345982 1.094809 0.000000 0.000000 0.000000
0.423520 -0.355970 1.111026 0.000000 0.000000 0.000000
0.500325 -0.350656 1.081079 0.000000 0.000000 0.000000
0.505690 -0.344399 1.086081 0.000000 0.000000 0.000000
0.416499 -0.334493 1.102343 0.000000 0.000000 0.000000
0.447444 -0.337734 1.088100 0.000000 0.000000 0.000000
0.437803 -0.358999 1.106604 0.000000 0.000000 0.000000
0.438441 -0.330651 1.097105 0.000000 0.000000 0.000000
0.425059 -0.359090 1.089395 0.000000 0.000000 0.000000
0.428275 -0.351267 1.097596 0.000000 0.000000 0.000000
0.419569 -0.356175 1.095478 0.000000 0.000000 0.000000
0.426149 -0.357534 1.093458 0.000000 0.000000 0.000000
0.427207 -0.360983 1.089145 0.000000 0.000000 0.000000
0.421259 -0.351992 1.095404 0.000000 0.000000 0.000000
0.425085 -0.358933 1.089589 0.000000 0.000000 0.000000
0.433070 -0.360812 1.110210 0.000000 0.000000 0.000000
0.506118 -0.356488 1.095798 0.000000 0.000000 0.000000
0.426707 -0.366337 1.090868 0.000000 0.000000 0.000000
0.418631 -0.345643 1.113156 0.000000 0.000000 0.000000
0.421426 -0.346386 1.115140 0.000000 0.000000 0.000000
0.442501 -0.357366 1.085168 0.000000 0.000000 0.000000
0.406113 -0.330268 1.112037 0.000000 0.000000 0.000000
0.492265 -0.357871 1.098816 0.000000 0.000000 0.000000
0.494439 -0.356666 1.098349 0.000000 0.000000 0.000000
0.487633 -0.348057 1.088404 0.000000 0.000000 0.000000
0.482436 -0.352632 1.092718 0.000000 0.000000 0.000000
0.504521 -0.346596 1.088295 0.000000 0.000000 0.000000
0.489491 -0.346684 1.093161 0.000000 0.000000 0.000000
0.476609 -0.350392 1.094238 0.000000 0.000000 0.000000
0.445016 -0.335292 1.093181 0.000000 0.000000 0.000000
0.435638 -0.363587 1.084034 0.000000 0.000000 0.000000
0.494683 -0.345431 1.083244 0.000000 0.000000 0.000000
0.418608 -0.339424 1.101515 0.000000 0.000000 0.000000
0.416521 -0.331274 1.100865 0.000000 0.000000 0.000000
0.432719 -0.335798 1.093206 0.000000 0.000000 0.000000
0.519254 -0.340171 1.090420 0.000000 0.000000 0.000000
0.400407 -0.333386 1.106947 0.000000 0.000000 0.000000
0.425393 -0.337611 1.096227 0.000000 0.000000 0.000000
0.441366 -0.339298 1.088755 0.000000 0.000000 0.000000
