ply
format ascii 1.0
comment VCGLIB generated
obj_info Generated by SPFormer!
element vertex 73
property float x
property float y
property float z
property float nx
property float ny
property float nz
end_header
0.442863 1.582843 1.359211 0.000000 0.000000 0.000000
0.444252 1.592613 1.344663 0.000000 0.000000 0.000000
0.458813 1.589785 1.358226 0.000000 0.000000 0.000000
0.447514 1.589916 1.345372 0.000000 0.000000 0.000000
0.446234 1.588974 1.349307 0.000000 0.000000 0.000000
0.451293 1.582445 1.359788 0.000000 0.000000 0.000000
0.450435 1.585468 1.353773 0.000000 0.000000 0.000000
0.448736 1.587340 1.349608 0.000000 0.000000 0.000000
0.449849 1.586746 1.352395 0.000000 0.000000 0.000000
0.451162 1.585119 1.359117 0.000000 0.000000 0.000000
0.447423 1.585898 1.346835 0.000000 0.000000 0.000000
0.443039 1.585647 1.352025 0.000000 0.000000 0.000000
0.448854 1.587562 1.348332 0.000000 0.000000 0.000000
0.449569 1.587263 1.351071 0.000000 0.000000 0.000000
0.446204 1.590371 1.346289 0.000000 0.000000 0.000000
0.443393 1.587926 1.340093 0.000000 0.000000 0.000000
0.450364 1.587265 1.354283 0.000000 0.000000 0.000000
0.448808 1.588020 1.353829 0.000000 0.000000 0.000000
0.448408 1.589170 1.346083 0.000000 0.000000 0.000000
0.454274 1.581963 1.358556 0.000000 0.000000 0.000000
0.447505 1.586918 1.351294 0.000000 0.000000 0.000000
0.450529 1.583736 1.359456 0.000000 0.000000 0.000000
0.444637 1.595011 1.339257 0.000000 0.000000 0.000000
0.448997 1.589781 1.339386 0.000000 0.000000 0.000000
0.452658 1.582949 1.350308 0.000000 0.000000 0.000000
0.449863 1.588307 1.345455 0.000000 0.000000 0.000000
0.450440 1.585921 1.358234 0.000000 0.000000 0.000000
0.445600 1.588367 1.348288 0.000000 0.000000 0.000000
0.446658 1.590376 1.344752 0.000000 0.000000 0.000000
0.449185 1.586986 1.351263 0.000000 0.000000 0.000000
0.451590 1.587481 1.352325 0.000000 0.000000 0.000000
0.448805 1.587719 1.350214 0.000000 0.000000 0.000000
0.449085 1.590495 1.345803 0.000000 0.000000 0.000000
0.448486 1.587752 1.349047 0.000000 0.000000 0.000000
0.449838 1.587690 1.352809 0.000000 0.000000 0.000000
0.478835 1.591699 1.351440 0.000000 0.000000 0.000000
0.479634 1.589550 1.354533 0.000000 0.000000 0.000000
0.474993 1.594027 1.344839 0.000000 0.000000 0.000000
0.479819 1.593110 1.350161 0.000000 0.000000 0.000000
0.478556 1.572594 1.359635 0.000000 0.000000 0.000000
0.475483 1.586190 1.356988 0.000000 0.000000 0.000000
0.478296 1.595288 1.349059 0.000000 0.000000 0.000000
0.475495 1.582925 1.356978 0.000000 0.000000 0.000000
0.478917 1.599557 1.349691 0.000000 0.000000 0.000000
0.479729 1.585112 1.353776 0.000000 0.000000 0.000000
0.478365 1.589238 1.352581 0.000000 0.000000 0.000000
0.477555 1.591547 1.358443 0.000000 0.000000 0.000000
0.478941 1.598804 1.346156 0.000000 0.000000 0.000000
0.474297 1.586192 1.353756 0.000000 0.000000 0.000000
0.471860 1.584321 1.352018 0.000000 0.000000 0.000000
0.472916 1.584243 1.355263 0.000000 0.000000 0.000000
0.477733 1.591018 1.351413 0.000000 0.000000 0.000000
0.473964 1.587812 1.350499 0.000000 0.000000 0.000000
0.471543 1.584634 1.354208 0.000000 0.000000 0.000000
0.479172 1.596189 1.347184 0.000000 0.000000 0.000000
0.446337 1.594983 1.337870 0.000000 0.000000 0.000000
0.443657 1.597970 1.334701 0.000000 0.000000 0.000000
0.444859 1.599581 1.340078 0.000000 0.000000 0.000000
0.447902 1.594908 1.334328 0.000000 0.000000 0.000000
0.440899 1.599376 1.332924 0.000000 0.000000 0.000000
0.446572 1.598571 1.337705 0.000000 0.000000 0.000000
0.445691 1.595507 1.337967 0.000000 0.000000 0.000000
0.444361 1.598311 1.335473 0.000000 0.000000 0.000000
0.445313 1.598286 1.336286 0.000000 0.000000 0.000000
0.442176 1.596243 1.333737 0.000000 0.000000 0.000000
0.441355 1.599373 1.334147 0.000000 0.000000 0.000000
0.441866 1.598812 1.335601 0.000000 0.000000 0.000000
0.444210 1.598654 1.335559 0.000000 0.000000 0.000000
0.448910 1.597875 1.330526 0.000000 0.000000 0.000000
0.441108 1.599205 1.330088 0.000000 0.000000 0.000000
0.447505 1.596037 1.333957 0.000000 0.000000 0.000000
0.443878 1.599083 1.334113 0.000000 0.000000 0.000000
0.443472 1.599662 1.329187 0.000000 0.000000 0.000000
