ply
format ascii 1.0
comment VCGLIB generated
obj_info Generated by SPFormer!
element vertex 884
property float x
property float y
property float z
property float nx
property float ny
property float nz
end_header
0.567782 1.632005 1.368883 0.000000 0.000000 0.000000
0.504464 1.583065 1.363840 0.000000 0.000000 0.000000
0.514167 1.598647 1.365050 0.000000 0.000000 0.000000
0.592354 1.657717 1.372636 0.000000 0.000000 0.000000
0.582294 1.598420 1.398989 0.000000 0.000000 0.000000
0.590823 1.638534 1.379748 0.000000 0.000000 0.000000
0.586823 1.659174 1.369020 0.000000 0.000000 0.000000
0.553685 1.629696 1.365889 0.000000 0.000000 0.000000
0.596203 1.662936 1.378686 0.000000 0.000000 0.000000
0.526013 1.605681 1.361683 0.000000 0.000000 0.000000
0.580414 1.630654 1.375351 0.000000 0.000000 0.000000
0.597090 1.662774 1.373860 0.000000 0.000000 0.000000
0.562232 1.603146 1.390827 0.000000 0.000000 0.000000
0.503936 1.603791 1.353290 0.000000 0.000000 0.000000
0.511163 1.601352 1.358588 0.000000 0.000000 0.000000
0.582142 1.639438 1.376533 0.000000 0.000000 0.000000
0.573729 1.599900 1.385409 0.000000 0.000000 0.000000
0.591096 1.647842 1.377848 0.000000 0.000000 0.000000
0.516306 1.607583 1.362065 0.000000 0.000000 0.000000
0.549567 1.583924 1.388150 0.000000 0.000000 0.000000
0.543657 1.603526 1.372550 0.000000 0.000000 0.000000
0.522758 1.593891 1.377125 0.000000 0.000000 0.000000
0.503042 1.594543 1.365503 0.000000 0.000000 0.000000
0.587081 1.643449 1.375784 0.000000 0.000000 0.000000
0.569499 1.607370 1.384527 0.000000 0.000000 0.000000
0.555082 1.646657 1.357989 0.000000 0.000000 0.000000
0.523420 1.594973 1.368003 0.000000 0.000000 0.000000
0.569227 1.653934 1.358768 0.000000 0.000000 0.000000
0.586704 1.642625 1.376577 0.000000 0.000000 0.000000
0.502655 1.598353 1.355005 0.000000 0.000000 0.000000
0.539017 1.611233 1.370988 0.000000 0.000000 0.000000
0.523821 1.582906 1.382833 0.000000 0.000000 0.000000
0.493765 1.580452 1.367648 0.000000 0.000000 0.000000
0.582295 1.613484 1.390385 0.000000 0.000000 0.000000
0.543603 1.617207 1.367808 0.000000 0.000000 0.000000
0.523699 1.623883 1.354338 0.000000 0.000000 0.000000
0.600983 1.655989 1.380458 0.000000 0.000000 0.000000
0.576349 1.631787 1.378188 0.000000 0.000000 0.000000
0.515192 1.602749 1.362921 0.000000 0.000000 0.000000
0.576933 1.637749 1.374368 0.000000 0.000000 0.000000
0.535310 1.625340 1.358408 0.000000 0.000000 0.000000
0.554027 1.639891 1.358268 0.000000 0.000000 0.000000
0.560349 1.628170 1.369756 0.000000 0.000000 0.000000
0.549181 1.606425 1.376232 0.000000 0.000000 0.000000
0.543128 1.594576 1.386361 0.000000 0.000000 0.000000
0.508253 1.584036 1.376217 0.000000 0.000000 0.000000
0.567039 1.618772 1.377644 0.000000 0.000000 0.000000
0.487564 1.587330 1.364750 0.000000 0.000000 0.000000
0.614185 1.667707 1.383469 0.000000 0.000000 0.000000
0.548362 1.630784 1.358925 0.000000 0.000000 0.000000
0.577056 1.618709 1.382959 0.000000 0.000000 0.000000
0.587953 1.641629 1.379664 0.000000 0.000000 0.000000
0.569201 1.645360 1.361504 0.000000 0.000000 0.000000
0.599118 1.649881 1.380952 0.000000 0.000000 0.000000
0.591339 1.633753 1.384904 0.000000 0.000000 0.000000
0.530430 1.622820 1.357994 0.000000 0.000000 0.000000
0.581177 1.645001 1.374623 0.000000 0.000000 0.000000
0.561297 1.628387 1.367026 0.000000 0.000000 0.000000
0.553938 1.599771 1.377819 0.000000 0.000000 0.000000
0.614157 1.656630 1.387172 0.000000 0.000000 0.000000
0.507721 1.571314 1.382117 0.000000 0.000000 0.000000
0.512610 1.612443 1.361254 0.000000 0.000000 0.000000
0.594856 1.648826 1.379615 0.000000 0.000000 0.000000
0.614241 1.652499 1.388613 0.000000 0.000000 0.000000
0.551710 1.622395 1.368924 0.000000 0.000000 0.000000
0.522832 1.588158 1.377142 0.000000 0.000000 0.000000
0.592583 1.619898 1.383750 0.000000 0.000000 0.000000
0.602668 1.642334 1.390666 0.000000 0.000000 0.000000
0.600977 1.632045 1.387695 0.000000 0.000000 0.000000
0.595146 1.637677 1.382159 0.000000 0.000000 0.000000
0.568433 1.616892 1.381457 0.000000 0.000000 0.000000
0.522882 1.617477 1.365898 0.000000 0.000000 0.000000
0.571862 1.633568 1.372612 0.000000 0.000000 0.000000
0.550698 1.581221 1.391097 0.000000 0.000000 0.000000
0.565566 1.596292 1.391344 0.000000 0.000000 0.000000
0.592055 1.623509 1.390883 0.000000 0.000000 0.000000
0.539457 1.627296 1.355677 0.000000 0.000000 0.000000
0.571223 1.604129 1.394068 0.000000 0.000000 0.000000
0.593923 1.644050 1.382113 0.000000 0.000000 0.000000
0.559561 1.608230 1.389794 0.000000 0.000000 0.000000
0.605877 1.644026 1.383900 0.000000 0.000000 0.000000
0.487475 1.588607 1.357144 0.000000 0.000000 0.000000
0.582002 1.644883 1.371427 0.000000 0.000000 0.000000
0.537176 1.620935 1.362927 0.000000 0.000000 0.000000
0.588445 1.614944 1.394931 0.000000 0.000000 0.000000
0.502730 1.590220 1.372068 0.000000 0.000000 0.000000
0.535853 1.620019 1.359290 0.000000 0.000000 0.000000
0.510241 1.587893 1.374013 0.000000 0.000000 0.000000
0.572127 1.613365 1.380264 0.000000 0.000000 0.000000
0.570281 1.650049 1.368213 0.000000 0.000000 0.000000
0.580103 1.632544 1.378217 0.000000 0.000000 0.000000
0.532240 1.599550 1.363370 0.000000 0.000000 0.000000
0.605826 1.637411 1.390565 0.000000 0.000000 0.000000
0.542995 1.629154 1.362266 0.000000 0.000000 0.000000
0.531188 1.627508 1.353448 0.000000 0.000000 0.000000
0.589241 1.641682 1.382398 0.000000 0.000000 0.000000
0.549318 1.632087 1.358908 0.000000 0.000000 0.000000
0.592745 1.652196 1.374837 0.000000 0.000000 0.000000
0.586255 1.626631 1.385182 0.000000 0.000000 0.000000
0.590205 1.669266 1.364099 0.000000 0.000000 0.000000
0.588511 1.610938 1.393632 0.000000 0.000000 0.000000
0.604007 1.646227 1.384558 0.000000 0.000000 0.000000
0.596784 1.632064 1.383068 0.000000 0.000000 0.000000
0.565556 1.612209 1.388326 0.000000 0.000000 0.000000
0.534555 1.595151 1.375711 0.000000 0.000000 0.000000
0.584667 1.653329 1.368711 0.000000 0.000000 0.000000
0.608551 1.662038 1.386383 0.000000 0.000000 0.000000
0.576533 1.625481 1.378898 0.000000 0.000000 0.000000
0.585561 1.609224 1.394402 0.000000 0.000000 0.000000
0.522042 1.618405 1.357868 0.000000 0.000000 0.000000
0.502994 1.619922 1.345039 0.000000 0.000000 0.000000
0.612279 1.647290 1.389729 0.000000 0.000000 0.000000
0.547247 1.593870 1.381480 0.000000 0.000000 0.000000
0.570501 1.662091 1.354734 0.000000 0.000000 0.000000
0.571289 1.639726 1.366935 0.000000 0.000000 0.000000
0.607626 1.653285 1.389336 0.000000 0.000000 0.000000
0.579501 1.650895 1.367088 0.000000 0.000000 0.000000
0.533145 1.612138 1.365023 0.000000 0.000000 0.000000
0.541381 1.638972 1.353087 0.000000 0.000000 0.000000
0.605462 1.652256 1.386432 0.000000 0.000000 0.000000
0.606637 1.654319 1.383746 0.000000 0.000000 0.000000
0.569408 1.606032 1.384211 0.000000 0.000000 0.000000
0.573044 1.628223 1.377946 0.000000 0.000000 0.000000
0.553230 1.596164 1.375520 0.000000 0.000000 0.000000
0.597991 1.645864 1.382606 0.000000 0.000000 0.000000
0.552780 1.601027 1.382243 0.000000 0.000000 0.000000
0.538344 1.637056 1.350684 0.000000 0.000000 0.000000
0.568565 1.636505 1.368527 0.000000 0.000000 0.000000
0.610726 1.654760 1.385028 0.000000 0.000000 0.000000
0.605539 1.678947 1.371020 0.000000 0.000000 0.000000
0.566272 1.616914 1.387191 0.000000 0.000000 0.000000
0.578243 1.628594 1.383909 0.000000 0.000000 0.000000
0.605947 1.642808 1.388259 0.000000 0.000000 0.000000
0.595705 1.637479 1.382739 0.000000 0.000000 0.000000
0.523198 1.638675 1.347186 0.000000 0.000000 0.000000
0.579429 1.621479 1.391029 0.000000 0.000000 0.000000
0.520146 1.615441 1.362214 0.000000 0.000000 0.000000
0.513721 1.609501 1.355599 0.000000 0.000000 0.000000
0.496573 1.604314 1.351523 0.000000 0.000000 0.000000
0.543835 1.645447 1.347481 0.000000 0.000000 0.000000
0.562690 1.585920 1.392706 0.000000 0.000000 0.000000
0.583796 1.635974 1.378354 0.000000 0.000000 0.000000
0.574707 1.607467 1.388897 0.000000 0.000000 0.000000
0.594067 1.647477 1.379343 0.000000 0.000000 0.000000
0.531814 1.601665 1.371119 0.000000 0.000000 0.000000
0.589707 1.630361 1.384741 0.000000 0.000000 0.000000
0.563420 1.662543 1.347917 0.000000 0.000000 0.000000
0.599503 1.653283 1.379449 0.000000 0.000000 0.000000
0.566517 1.604925 1.382542 0.000000 0.000000 0.000000
0.600175 1.651340 1.384319 0.000000 0.000000 0.000000
0.519450 1.625529 1.366949 0.000000 0.000000 0.000000
0.604625 1.629008 1.391148 0.000000 0.000000 0.000000
0.559037 1.637462 1.361415 0.000000 0.000000 0.000000
0.610440 1.657091 1.385909 0.000000 0.000000 0.000000
0.567420 1.655239 1.355517 0.000000 0.000000 0.000000
0.601094 1.640185 1.381095 0.000000 0.000000 0.000000
0.607913 1.643229 1.389315 0.000000 0.000000 0.000000
0.572519 1.645175 1.364845 0.000000 0.000000 0.000000
0.543161 1.574366 1.390824 0.000000 0.000000 0.000000
0.614472 1.653524 1.388461 0.000000 0.000000 0.000000
0.523389 1.632938 1.344755 0.000000 0.000000 0.000000
0.520089 1.600872 1.359451 0.000000 0.000000 0.000000
0.526993 1.579551 1.386077 0.000000 0.000000 0.000000
0.568283 1.588279 1.395606 0.000000 0.000000 0.000000
0.608156 1.650258 1.387980 0.000000 0.000000 0.000000
0.538045 1.583409 1.385869 0.000000 0.000000 0.000000
0.605118 1.637735 1.390564 0.000000 0.000000 0.000000
0.543678 1.599326 1.375601 0.000000 0.000000 0.000000
0.560402 1.661942 1.347367 0.000000 0.000000 0.000000
0.569618 1.624527 1.373530 0.000000 0.000000 0.000000
0.520923 1.609359 1.360406 0.000000 0.000000 0.000000
0.558892 1.613156 1.374746 0.000000 0.000000 0.000000
0.613693 1.666793 1.383595 0.000000 0.000000 0.000000
0.605059 1.651939 1.383909 0.000000 0.000000 0.000000
0.535140 1.642703 1.350941 0.000000 0.000000 0.000000
0.604393 1.653865 1.387061 0.000000 0.000000 0.000000
0.601680 1.618256 1.396353 0.000000 0.000000 0.000000
0.543893 1.602713 1.374663 0.000000 0.000000 0.000000
0.536135 1.634445 1.352406 0.000000 0.000000 0.000000
0.580282 1.594870 1.398519 0.000000 0.000000 0.000000
0.567334 1.607206 1.381304 0.000000 0.000000 0.000000
0.567246 1.595991 1.394073 0.000000 0.000000 0.000000
0.621918 1.671229 1.389217 0.000000 0.000000 0.000000
0.528610 1.576491 1.379487 0.000000 0.000000 0.000000
0.491037 1.578760 1.357389 0.000000 0.000000 0.000000
0.556719 1.639021 1.359788 0.000000 0.000000 0.000000
0.542633 1.575740 1.392226 0.000000 0.000000 0.000000
0.608192 1.653099 1.393031 0.000000 0.000000 0.000000
0.537142 1.582473 1.381556 0.000000 0.000000 0.000000
0.548580 1.601213 1.374877 0.000000 0.000000 0.000000
0.585048 1.606279 1.395024 0.000000 0.000000 0.000000
0.607232 1.656551 1.383336 0.000000 0.000000 0.000000
0.561637 1.590187 1.383605 0.000000 0.000000 0.000000
0.535146 1.581408 1.381081 0.000000 0.000000 0.000000
0.557789 1.614787 1.379432 0.000000 0.000000 0.000000
0.575559 1.625409 1.378006 0.000000 0.000000 0.000000
0.570581 1.604988 1.382428 0.000000 0.000000 0.000000
0.567562 1.645231 1.360834 0.000000 0.000000 0.000000
0.541295 1.599531 1.371270 0.000000 0.000000 0.000000
0.601322 1.618849 1.390066 0.000000 0.000000 0.000000
0.574124 1.618100 1.376709 0.000000 0.000000 0.000000
0.587627 1.658753 1.370368 0.000000 0.000000 0.000000
0.556676 1.586949 1.389837 0.000000 0.000000 0.000000
0.546614 1.589298 1.395625 0.000000 0.000000 0.000000
0.595700 1.625476 1.391424 0.000000 0.000000 0.000000
0.593536 1.634769 1.382542 0.000000 0.000000 0.000000
0.591641 1.629210 1.383751 0.000000 0.000000 0.000000
0.580844 1.665781 1.358948 0.000000 0.000000 0.000000
0.579758 1.619372 1.380765 0.000000 0.000000 0.000000
0.578169 1.608129 1.387919 0.000000 0.000000 0.000000
0.544320 1.610831 1.374772 0.000000 0.000000 0.000000
0.566563 1.647065 1.362177 0.000000 0.000000 0.000000
0.527621 1.628516 1.353437 0.000000 0.000000 0.000000
0.483057 1.560858 1.372742 0.000000 0.000000 0.000000
0.598298 1.636693 1.387809 0.000000 0.000000 0.000000
0.579384 1.619356 1.385852 0.000000 0.000000 0.000000
0.546627 1.598834 1.378279 0.000000 0.000000 0.000000
0.572477 1.615219 1.383674 0.000000 0.000000 0.000000
0.544722 1.579945 1.388520 0.000000 0.000000 0.000000
0.554105 1.593733 1.384180 0.000000 0.000000 0.000000
0.577027 1.629104 1.379443 0.000000 0.000000 0.000000
0.591719 1.638411 1.385400 0.000000 0.000000 0.000000
0.548535 1.579774 1.394040 0.000000 0.000000 0.000000
0.580495 1.655299 1.371835 0.000000 0.000000 0.000000
0.592687 1.598626 1.402350 0.000000 0.000000 0.000000
0.544020 1.586266 1.382561 0.000000 0.000000 0.000000
0.547268 1.608720 1.363277 0.000000 0.000000 0.000000
0.617972 1.665309 1.388811 0.000000 0.000000 0.000000
0.557054 1.612086 1.377671 0.000000 0.000000 0.000000
0.605230 1.637890 1.387851 0.000000 0.000000 0.000000
0.604928 1.657114 1.381143 0.000000 0.000000 0.000000
0.593371 1.611278 1.395898 0.000000 0.000000 0.000000
0.577005 1.588775 1.400116 0.000000 0.000000 0.000000
0.600677 1.666878 1.374598 0.000000 0.000000 0.000000
0.574293 1.595307 1.395926 0.000000 0.000000 0.000000
0.586227 1.593574 1.402161 0.000000 0.000000 0.000000
0.586798 1.626115 1.390833 0.000000 0.000000 0.000000
0.523502 1.583891 1.384215 0.000000 0.000000 0.000000
0.592269 1.605063 1.399854 0.000000 0.000000 0.000000
0.605352 1.622777 1.396625 0.000000 0.000000 0.000000
0.578145 1.655116 1.365066 0.000000 0.000000 0.000000
0.553932 1.588165 1.390534 0.000000 0.000000 0.000000
0.583191 1.628788 1.381247 0.000000 0.000000 0.000000
0.504126 1.599347 1.362311 0.000000 0.000000 0.000000
0.491947 1.593066 1.361863 0.000000 0.000000 0.000000
0.549831 1.651674 1.348870 0.000000 0.000000 0.000000
0.603510 1.626845 1.395424 0.000000 0.000000 0.000000
0.602421 1.636819 1.392086 0.000000 0.000000 0.000000
0.614760 1.656452 1.388183 0.000000 0.000000 0.000000
0.594587 1.609418 1.398727 0.000000 0.000000 0.000000
0.542575 1.585419 1.391784 0.000000 0.000000 0.000000
0.568594 1.610989 1.388843 0.000000 0.000000 0.000000
0.512549 1.626270 1.343425 0.000000 0.000000 0.000000
0.580742 1.661417 1.357928 0.000000 0.000000 0.000000
0.594645 1.640625 1.385741 0.000000 0.000000 0.000000
0.592989 1.627651 1.386743 0.000000 0.000000 0.000000
0.541681 1.599541 1.374933 0.000000 0.000000 0.000000
0.536337 1.587536 1.383716 0.000000 0.000000 0.000000
0.531406 1.640339 1.346574 0.000000 0.000000 0.000000
0.590711 1.641226 1.379539 0.000000 0.000000 0.000000
0.551467 1.654427 1.347121 0.000000 0.000000 0.000000
0.508427 1.590911 1.358752 0.000000 0.000000 0.000000
0.589672 1.649718 1.374804 0.000000 0.000000 0.000000
0.607836 1.659543 1.383082 0.000000 0.000000 0.000000
0.576411 1.615759 1.391291 0.000000 0.000000 0.000000
0.486806 1.583888 1.357563 0.000000 0.000000 0.000000
0.544054 1.651109 1.343913 0.000000 0.000000 0.000000
0.563230 1.653385 1.353271 0.000000 0.000000 0.000000
0.594590 1.629316 1.385640 0.000000 0.000000 0.000000
0.579897 1.642340 1.371085 0.000000 0.000000 0.000000
0.571249 1.667849 1.350811 0.000000 0.000000 0.000000
0.598308 1.631834 1.391283 0.000000 0.000000 0.000000
0.595131 1.657609 1.377999 0.000000 0.000000 0.000000
0.499639 1.601320 1.354128 0.000000 0.000000 0.000000
0.528524 1.623653 1.351359 0.000000 0.000000 0.000000
0.596828 1.620299 1.395733 0.000000 0.000000 0.000000
0.582800 1.651561 1.373085 0.000000 0.000000 0.000000
0.609571 1.632982 1.392601 0.000000 0.000000 0.000000
0.591051 1.664335 1.368587 0.000000 0.000000 0.000000
0.584040 1.610048 1.394799 0.000000 0.000000 0.000000
0.587293 1.659284 1.366312 0.000000 0.000000 0.000000
0.612632 1.676428 1.377856 0.000000 0.000000 0.000000
0.610304 1.648942 1.384543 0.000000 0.000000 0.000000
0.608143 1.638472 1.391164 0.000000 0.000000 0.000000
0.588725 1.627976 1.391043 0.000000 0.000000 0.000000
0.604019 1.658877 1.388402 0.000000 0.000000 0.000000
0.587970 1.621695 1.392985 0.000000 0.000000 0.000000
0.590336 1.618023 1.394096 0.000000 0.000000 0.000000
0.534608 1.584983 1.379911 0.000000 0.000000 0.000000
0.600457 1.640126 1.391191 0.000000 0.000000 0.000000
0.604844 1.649034 1.385162 0.000000 0.000000 0.000000
0.492452 1.578206 1.368670 0.000000 0.000000 0.000000
0.616699 1.649299 1.391114 0.000000 0.000000 0.000000
0.605522 1.674680 1.373250 0.000000 0.000000 0.000000
0.600974 1.643171 1.384749 0.000000 0.000000 0.000000
0.499642 1.596763 1.363059 0.000000 0.000000 0.000000
0.498370 1.603827 1.345076 0.000000 0.000000 0.000000
0.614597 1.641049 1.392503 0.000000 0.000000 0.000000
0.606943 1.641634 1.388613 0.000000 0.000000 0.000000
0.600528 1.619395 1.396490 0.000000 0.000000 0.000000
0.592423 1.670493 1.366479 0.000000 0.000000 0.000000
0.588762 1.610697 1.396207 0.000000 0.000000 0.000000
0.573817 1.602742 1.390679 0.000000 0.000000 0.000000
0.606518 1.633160 1.393510 0.000000 0.000000 0.000000
0.587640 1.630761 1.380218 0.000000 0.000000 0.000000
0.585679 1.659285 1.365978 0.000000 0.000000 0.000000
0.535099 1.575237 1.387904 0.000000 0.000000 0.000000
0.555741 1.585695 1.395571 0.000000 0.000000 0.000000
0.572872 1.646125 1.364525 0.000000 0.000000 0.000000
0.533275 1.606427 1.369897 0.000000 0.000000 0.000000
0.550725 1.593632 1.389535 0.000000 0.000000 0.000000
0.491033 1.569569 1.374031 0.000000 0.000000 0.000000
0.607419 1.645583 1.390596 0.000000 0.000000 0.000000
0.574946 1.587716 1.400927 0.000000 0.000000 0.000000
0.549417 1.631908 1.362937 0.000000 0.000000 0.000000
0.597259 1.615508 1.396829 0.000000 0.000000 0.000000
0.600042 1.615012 1.397331 0.000000 0.000000 0.000000
0.556377 1.642591 1.352082 0.000000 0.000000 0.000000
0.487508 1.593632 1.356491 0.000000 0.000000 0.000000
0.567411 1.639822 1.363880 0.000000 0.000000 0.000000
0.563376 1.593091 1.391752 0.000000 0.000000 0.000000
0.534685 1.620434 1.358843 0.000000 0.000000 0.000000
0.532269 1.601944 1.372316 0.000000 0.000000 0.000000
0.617815 1.658493 1.388103 0.000000 0.000000 0.000000
0.528251 1.639187 1.343463 0.000000 0.000000 0.000000
0.554572 1.629551 1.361616 0.000000 0.000000 0.000000
0.590758 1.623611 1.384770 0.000000 0.000000 0.000000
0.538916 1.569729 1.392258 0.000000 0.000000 0.000000
0.521820 1.620003 1.355211 0.000000 0.000000 0.000000
0.546564 1.653983 1.342462 0.000000 0.000000 0.000000
0.500904 1.572603 1.375980 0.000000 0.000000 0.000000
0.589032 1.619897 1.389611 0.000000 0.000000 0.000000
0.605786 1.648811 1.380422 0.000000 0.000000 0.000000
0.591181 1.668077 1.366354 0.000000 0.000000 0.000000
0.604331 1.644349 1.391552 0.000000 0.000000 0.000000
0.514754 1.615528 1.352398 0.000000 0.000000 0.000000
0.600792 1.634931 1.390243 0.000000 0.000000 0.000000
0.509913 1.619027 1.351219 0.000000 0.000000 0.000000
0.508877 1.592937 1.367744 0.000000 0.000000 0.000000
0.583317 1.662731 1.363181 0.000000 0.000000 0.000000
0.516293 1.622904 1.349687 0.000000 0.000000 0.000000
0.513949 1.588435 1.373410 0.000000 0.000000 0.000000
0.603635 1.621265 1.396168 0.000000 0.000000 0.000000
0.557430 1.659859 1.347234 0.000000 0.000000 0.000000
0.529749 1.628292 1.345028 0.000000 0.000000 0.000000
0.498641 1.579161 1.374248 0.000000 0.000000 0.000000
0.510264 1.574872 1.378282 0.000000 0.000000 0.000000
0.590434 1.663160 1.368196 0.000000 0.000000 0.000000
0.543797 1.639362 1.354818 0.000000 0.000000 0.000000
0.483124 1.592029 1.359245 0.000000 0.000000 0.000000
0.509286 1.578575 1.378791 0.000000 0.000000 0.000000
0.501525 1.564480 1.378754 0.000000 0.000000 0.000000
0.567366 1.605209 1.383335 0.000000 0.000000 0.000000
0.587719 1.624207 1.382560 0.000000 0.000000 0.000000
0.536716 1.598385 1.372698 0.000000 0.000000 0.000000
0.540464 1.572007 1.391828 0.000000 0.000000 0.000000
0.560910 1.577194 1.400297 0.000000 0.000000 0.000000
0.582624 1.602013 1.398286 0.000000 0.000000 0.000000
0.524817 1.581989 1.379046 0.000000 0.000000 0.000000
0.575974 1.590750 1.398803 0.000000 0.000000 0.000000
0.495975 1.611466 1.347925 0.000000 0.000000 0.000000
0.539096 1.586967 1.383102 0.000000 0.000000 0.000000
0.546595 1.573717 1.393215 0.000000 0.000000 0.000000
0.539570 1.572521 1.391668 0.000000 0.000000 0.000000
0.574499 1.608650 1.389060 0.000000 0.000000 0.000000
0.500980 1.623230 1.343176 0.000000 0.000000 0.000000
0.612550 1.678838 1.377373 0.000000 0.000000 0.000000
0.562647 1.653964 1.352702 0.000000 0.000000 0.000000
0.528595 1.564154 1.390596 0.000000 0.000000 0.000000
0.499603 1.584631 1.370383 0.000000 0.000000 0.000000
0.505810 1.561084 1.383732 0.000000 0.000000 0.000000
0.573870 1.665491 1.354441 0.000000 0.000000 0.000000
0.539218 1.564704 1.394348 0.000000 0.000000 0.000000
0.611069 1.672347 1.379943 0.000000 0.000000 0.000000
0.608554 1.669842 1.378470 0.000000 0.000000 0.000000
0.553838 1.656609 1.339753 0.000000 0.000000 0.000000
0.595884 1.664916 1.371874 0.000000 0.000000 0.000000
0.507331 1.582302 1.377289 0.000000 0.000000 0.000000
0.606721 1.661270 1.382447 0.000000 0.000000 0.000000
0.597150 1.664345 1.372844 0.000000 0.000000 0.000000
0.593531 1.664852 1.370372 0.000000 0.000000 0.000000
0.515194 1.569359 1.377354 0.000000 0.000000 0.000000
0.578990 1.670431 1.354713 0.000000 0.000000 0.000000
0.543245 1.569378 1.389916 0.000000 0.000000 0.000000
0.596150 1.635281 1.389960 0.000000 0.000000 0.000000
0.612795 1.664292 1.384526 0.000000 0.000000 0.000000
0.609365 1.632191 1.394349 0.000000 0.000000 0.000000
0.617182 1.675029 1.382378 0.000000 0.000000 0.000000
0.616610 1.667040 1.384715 0.000000 0.000000 0.000000
0.560396 1.586309 1.394207 0.000000 0.000000 0.000000
0.543636 1.573617 1.395810 0.000000 0.000000 0.000000
0.607531 1.667103 1.381448 0.000000 0.000000 0.000000
0.557583 1.578164 1.397352 0.000000 0.000000 0.000000
0.553694 1.579820 1.392028 0.000000 0.000000 0.000000
0.541491 1.580835 1.387024 0.000000 0.000000 0.000000
0.585011 1.595744 1.399719 0.000000 0.000000 0.000000
0.488984 1.563907 1.378506 0.000000 0.000000 0.000000
0.612040 1.654098 1.387652 0.000000 0.000000 0.000000
0.519650 1.632111 1.345189 0.000000 0.000000 0.000000
0.516164 1.634224 1.341199 0.000000 0.000000 0.000000
0.492893 1.610749 1.345937 0.000000 0.000000 0.000000
0.597885 1.644860 1.387808 0.000000 0.000000 0.000000
0.546378 1.660081 1.343793 0.000000 0.000000 0.000000
0.549293 1.568695 1.399972 0.000000 0.000000 0.000000
0.552576 1.646271 1.349946 0.000000 0.000000 0.000000
0.487904 1.580808 1.373278 0.000000 0.000000 0.000000
0.571534 1.655344 1.359984 0.000000 0.000000 0.000000
0.609362 1.682000 1.370834 0.000000 0.000000 0.000000
0.486779 1.561294 1.374041 0.000000 0.000000 0.000000
0.508566 1.623177 1.354346 0.000000 0.000000 0.000000
0.489473 1.569986 1.376258 0.000000 0.000000 0.000000
0.491406 1.604613 1.351579 0.000000 0.000000 0.000000
0.592352 1.642105 1.391011 0.000000 0.000000 0.000000
0.608098 1.624350 1.395773 0.000000 0.000000 0.000000
0.605293 1.624620 1.396028 0.000000 0.000000 0.000000
0.601144 1.629106 1.392143 0.000000 0.000000 0.000000
0.584206 1.665350 1.368500 0.000000 0.000000 0.000000
0.596335 1.630357 1.387248 0.000000 0.000000 0.000000
0.608871 1.625177 1.397855 0.000000 0.000000 0.000000
0.608056 1.650138 1.388326 0.000000 0.000000 0.000000
0.593111 1.618738 1.391956 0.000000 0.000000 0.000000
0.525080 1.563039 1.389624 0.000000 0.000000 0.000000
0.584653 1.673283 1.356488 0.000000 0.000000 0.000000
0.580447 1.622042 1.387050 0.000000 0.000000 0.000000
0.606546 1.664578 1.376687 0.000000 0.000000 0.000000
0.494905 1.584423 1.371118 0.000000 0.000000 0.000000
0.543694 1.578500 1.389598 0.000000 0.000000 0.000000
0.494717 1.567006 1.376899 0.000000 0.000000 0.000000
0.511339 1.562857 1.382254 0.000000 0.000000 0.000000
0.482162 1.575326 1.368155 0.000000 0.000000 0.000000
0.611533 1.625913 1.395450 0.000000 0.000000 0.000000
0.535704 1.578035 1.388953 0.000000 0.000000 0.000000
0.523056 1.635026 1.343979 0.000000 0.000000 0.000000
0.568124 1.654425 1.354513 0.000000 0.000000 0.000000
0.520253 1.560292 1.387617 0.000000 0.000000 0.000000
0.523592 1.579563 1.385039 0.000000 0.000000 0.000000
0.525387 1.636068 1.349567 0.000000 0.000000 0.000000
0.484869 1.567105 1.372213 0.000000 0.000000 0.000000
0.515843 1.564106 1.385562 0.000000 0.000000 0.000000
0.514058 1.622875 1.347203 0.000000 0.000000 0.000000
0.514885 1.565954 1.387752 0.000000 0.000000 0.000000
0.618415 1.676357 1.383800 0.000000 0.000000 0.000000
0.619195 1.659352 1.388745 0.000000 0.000000 0.000000
0.616270 1.669256 1.385751 0.000000 0.000000 0.000000
0.612131 1.673763 1.378699 0.000000 0.000000 0.000000
0.603684 1.664373 1.379018 0.000000 0.000000 0.000000
0.573639 1.669487 1.349894 0.000000 0.000000 0.000000
0.501135 1.572117 1.375583 0.000000 0.000000 0.000000
0.525147 1.571308 1.385592 0.000000 0.000000 0.000000
0.573536 1.580592 1.403437 0.000000 0.000000 0.000000
0.612634 1.667509 1.382892 0.000000 0.000000 0.000000
0.541487 1.605901 1.369766 0.000000 0.000000 0.000000
0.495504 1.571848 1.366604 0.000000 0.000000 0.000000
0.512268 1.608143 1.354956 0.000000 0.000000 0.000000
0.606086 1.679592 1.374229 0.000000 0.000000 0.000000
0.579004 1.658877 1.362150 0.000000 0.000000 0.000000
0.586878 1.667319 1.361564 0.000000 0.000000 0.000000
0.543778 1.579298 1.382296 0.000000 0.000000 0.000000
0.526894 1.639017 1.343686 0.000000 0.000000 0.000000
0.489725 1.581867 1.369586 0.000000 0.000000 0.000000
0.596322 1.611966 1.398216 0.000000 0.000000 0.000000
0.500814 1.566541 1.368264 0.000000 0.000000 0.000000
0.602844 1.619455 1.396571 0.000000 0.000000 0.000000
0.616052 1.642278 1.393501 0.000000 0.000000 0.000000
0.544016 1.565486 1.396621 0.000000 0.000000 0.000000
0.561850 1.660825 1.348120 0.000000 0.000000 0.000000
0.570258 1.656705 1.357790 0.000000 0.000000 0.000000
0.618830 1.661294 1.387866 0.000000 0.000000 0.000000
0.508141 1.604230 1.359324 0.000000 0.000000 0.000000
0.541894 1.652610 1.341229 0.000000 0.000000 0.000000
0.507851 1.614709 1.348532 0.000000 0.000000 0.000000
0.502586 1.609857 1.347542 0.000000 0.000000 0.000000
0.512040 1.629266 1.343411 0.000000 0.000000 0.000000
0.482226 1.593103 1.353026 0.000000 0.000000 0.000000
0.496329 1.560588 1.378382 0.000000 0.000000 0.000000
0.534814 1.648166 1.340377 0.000000 0.000000 0.000000
0.557239 1.663353 1.343459 0.000000 0.000000 0.000000
0.528477 1.638694 1.343509 0.000000 0.000000 0.000000
0.516346 1.635540 1.342180 0.000000 0.000000 0.000000
0.508620 1.624222 1.346704 0.000000 0.000000 0.000000
0.516421 1.571023 1.381251 0.000000 0.000000 0.000000
0.540500 1.642541 1.348179 0.000000 0.000000 0.000000
0.619126 1.657933 1.390559 0.000000 0.000000 0.000000
0.489513 1.565298 1.375419 0.000000 0.000000 0.000000
0.547559 1.572991 1.396655 0.000000 0.000000 0.000000
0.570714 1.662662 1.354480 0.000000 0.000000 0.000000
0.561797 1.662272 1.348771 0.000000 0.000000 0.000000
0.547195 1.654966 1.348113 0.000000 0.000000 0.000000
0.567835 1.658092 1.354905 0.000000 0.000000 0.000000
0.551075 1.659066 1.343116 0.000000 0.000000 0.000000
0.490854 1.589072 1.367031 0.000000 0.000000 0.000000
0.571705 1.668942 1.348789 0.000000 0.000000 0.000000
0.559663 1.666686 1.344747 0.000000 0.000000 0.000000
0.481186 1.567526 1.372843 0.000000 0.000000 0.000000
0.609226 1.629468 1.394494 0.000000 0.000000 0.000000
0.612822 1.653211 1.386829 0.000000 0.000000 0.000000
0.558433 1.573563 1.401066 0.000000 0.000000 0.000000
0.592415 1.677204 1.361839 0.000000 0.000000 0.000000
0.581551 1.587856 1.401994 0.000000 0.000000 0.000000
0.619106 1.648177 1.392330 0.000000 0.000000 0.000000
0.497750 1.563118 1.376227 0.000000 0.000000 0.000000
0.506649 1.562331 1.378819 0.000000 0.000000 0.000000
0.549339 1.569903 1.397742 0.000000 0.000000 0.000000
0.480074 1.580458 1.358735 0.000000 0.000000 0.000000
0.552654 1.648210 1.357191 0.000000 0.000000 0.000000
0.546856 1.568012 1.397466 0.000000 0.000000 0.000000
0.480889 1.592600 1.355259 0.000000 0.000000 0.000000
0.551377 1.645762 1.354129 0.000000 0.000000 0.000000
0.489060 1.576741 1.366380 0.000000 0.000000 0.000000
0.486624 1.573113 1.375760 0.000000 0.000000 0.000000
0.582954 1.608764 1.391247 0.000000 0.000000 0.000000
0.586542 1.676799 1.355605 0.000000 0.000000 0.000000
0.499160 1.561113 1.379724 0.000000 0.000000 0.000000
0.591109 1.603173 1.400816 0.000000 0.000000 0.000000
0.590890 1.672367 1.366233 0.000000 0.000000 0.000000
0.500614 1.578165 1.363151 0.000000 0.000000 0.000000
0.598643 1.672500 1.371548 0.000000 0.000000 0.000000
0.560615 1.579304 1.398481 0.000000 0.000000 0.000000
0.562897 1.576853 1.401045 0.000000 0.000000 0.000000
0.538298 1.573216 1.389435 0.000000 0.000000 0.000000
0.593275 1.668735 1.363641 0.000000 0.000000 0.000000
0.486995 1.576215 1.378037 0.000000 0.000000 0.000000
0.492648 1.567155 1.376891 0.000000 0.000000 0.000000
0.562462 1.576930 1.399496 0.000000 0.000000 0.000000
0.604840 1.676856 1.371689 0.000000 0.000000 0.000000
0.496177 1.570686 1.377964 0.000000 0.000000 0.000000
0.502353 1.569636 1.377112 0.000000 0.000000 0.000000
0.535162 1.648121 1.341725 0.000000 0.000000 0.000000
0.553056 1.574313 1.397044 0.000000 0.000000 0.000000
0.595714 1.613428 1.396954 0.000000 0.000000 0.000000
0.600090 1.612997 1.397797 0.000000 0.000000 0.000000
0.508723 1.564619 1.377670 0.000000 0.000000 0.000000
0.595821 1.623381 1.390440 0.000000 0.000000 0.000000
0.609411 1.631155 1.391363 0.000000 0.000000 0.000000
0.592083 1.617215 1.393921 0.000000 0.000000 0.000000
0.597413 1.616063 1.396504 0.000000 0.000000 0.000000
0.606550 1.620970 1.396668 0.000000 0.000000 0.000000
0.597722 1.612532 1.398199 0.000000 0.000000 0.000000
0.612181 1.659982 1.385863 0.000000 0.000000 0.000000
0.616738 1.651780 1.390136 0.000000 0.000000 0.000000
0.604884 1.645486 1.390849 0.000000 0.000000 0.000000
0.621635 1.678928 1.387228 0.000000 0.000000 0.000000
0.499642 1.565776 1.376804 0.000000 0.000000 0.000000
0.589077 1.676270 1.360991 0.000000 0.000000 0.000000
0.529779 1.572152 1.387280 0.000000 0.000000 0.000000
0.555886 1.574563 1.399948 0.000000 0.000000 0.000000
0.546242 1.569406 1.396219 0.000000 0.000000 0.000000
0.581480 1.589749 1.403544 0.000000 0.000000 0.000000
0.562820 1.580664 1.399104 0.000000 0.000000 0.000000
0.581132 1.661705 1.360938 0.000000 0.000000 0.000000
0.540680 1.652419 1.342849 0.000000 0.000000 0.000000
0.566952 1.656603 1.354859 0.000000 0.000000 0.000000
0.594881 1.676795 1.363234 0.000000 0.000000 0.000000
0.558721 1.653062 1.352408 0.000000 0.000000 0.000000
0.562571 1.658233 1.353022 0.000000 0.000000 0.000000
0.551252 1.572769 1.399019 0.000000 0.000000 0.000000
0.550318 1.662202 1.341994 0.000000 0.000000 0.000000
0.542643 1.648716 1.343865 0.000000 0.000000 0.000000
0.522938 1.591470 1.370324 0.000000 0.000000 0.000000
0.503442 1.569893 1.378084 0.000000 0.000000 0.000000
0.586662 1.677087 1.357065 0.000000 0.000000 0.000000
0.598131 1.681299 1.360541 0.000000 0.000000 0.000000
0.582864 1.650057 1.370180 0.000000 0.000000 0.000000
0.481258 1.582014 1.364407 0.000000 0.000000 0.000000
0.504447 1.589967 1.368451 0.000000 0.000000 0.000000
0.516329 1.577978 1.371769 0.000000 0.000000 0.000000
0.527896 1.609532 1.365477 0.000000 0.000000 0.000000
0.544925 1.615567 1.369481 0.000000 0.000000 0.000000
0.579985 1.636936 1.372688 0.000000 0.000000 0.000000
0.489835 1.574799 1.373704 0.000000 0.000000 0.000000
0.520298 1.587502 1.367610 0.000000 0.000000 0.000000
0.492019 1.572153 1.360988 0.000000 0.000000 0.000000
0.507564 1.572232 1.377031 0.000000 0.000000 0.000000
0.541125 1.650524 1.342183 0.000000 0.000000 0.000000
0.559351 1.640867 1.359226 0.000000 0.000000 0.000000
0.530121 1.561620 1.394416 0.000000 0.000000 0.000000
0.575848 1.650319 1.364667 0.000000 0.000000 0.000000
0.531365 1.587734 1.372882 0.000000 0.000000 0.000000
0.509308 1.596861 1.362275 0.000000 0.000000 0.000000
0.503533 1.602408 1.358069 0.000000 0.000000 0.000000
0.512159 1.596442 1.364521 0.000000 0.000000 0.000000
0.558287 1.615415 1.369438 0.000000 0.000000 0.000000
0.570874 1.640440 1.365081 0.000000 0.000000 0.000000
0.504523 1.579092 1.373416 0.000000 0.000000 0.000000
0.488309 1.570630 1.369353 0.000000 0.000000 0.000000
0.552715 1.652411 1.349086 0.000000 0.000000 0.000000
0.593431 1.609963 1.397297 0.000000 0.000000 0.000000
0.604130 1.624788 1.393926 0.000000 0.000000 0.000000
0.603542 1.622537 1.397068 0.000000 0.000000 0.000000
0.498093 1.578144 1.376429 0.000000 0.000000 0.000000
0.529348 1.643634 1.341960 0.000000 0.000000 0.000000
0.510736 1.579365 1.376064 0.000000 0.000000 0.000000
0.582923 1.670472 1.357826 0.000000 0.000000 0.000000
0.573179 1.666015 1.353696 0.000000 0.000000 0.000000
0.616278 1.655715 1.388648 0.000000 0.000000 0.000000
0.493179 1.561438 1.378087 0.000000 0.000000 0.000000
0.605920 1.620383 1.398406 0.000000 0.000000 0.000000
0.534926 1.565706 1.393357 0.000000 0.000000 0.000000
0.528931 1.567394 1.389207 0.000000 0.000000 0.000000
0.497150 1.566517 1.371542 0.000000 0.000000 0.000000
0.502759 1.575988 1.376767 0.000000 0.000000 0.000000
0.488758 1.565744 1.373185 0.000000 0.000000 0.000000
0.526691 1.571385 1.389298 0.000000 0.000000 0.000000
0.599300 1.616198 1.396572 0.000000 0.000000 0.000000
0.535643 1.579476 1.385885 0.000000 0.000000 0.000000
0.515181 1.565436 1.385912 0.000000 0.000000 0.000000
0.563175 1.578478 1.400322 0.000000 0.000000 0.000000
0.527788 1.568660 1.385980 0.000000 0.000000 0.000000
0.525173 1.567583 1.390995 0.000000 0.000000 0.000000
0.543284 1.655648 1.339796 0.000000 0.000000 0.000000
0.492579 1.563260 1.376448 0.000000 0.000000 0.000000
0.519801 1.573025 1.382949 0.000000 0.000000 0.000000
0.532886 1.564722 1.392962 0.000000 0.000000 0.000000
0.535276 1.581814 1.383744 0.000000 0.000000 0.000000
0.501350 1.563251 1.379343 0.000000 0.000000 0.000000
0.486503 1.572145 1.377678 0.000000 0.000000 0.000000
0.510752 1.568216 1.378722 0.000000 0.000000 0.000000
0.530387 1.569600 1.390066 0.000000 0.000000 0.000000
0.486984 1.574404 1.367603 0.000000 0.000000 0.000000
0.502657 1.566705 1.378811 0.000000 0.000000 0.000000
0.528043 1.562341 1.390656 0.000000 0.000000 0.000000
0.498474 1.575893 1.373720 0.000000 0.000000 0.000000
0.595658 1.671566 1.364966 0.000000 0.000000 0.000000
0.596093 1.625795 1.393478 0.000000 0.000000 0.000000
0.490265 1.573329 1.370431 0.000000 0.000000 0.000000
0.482409 1.594998 1.349282 0.000000 0.000000 0.000000
0.549531 1.566112 1.398979 0.000000 0.000000 0.000000
0.601247 1.614408 1.399380 0.000000 0.000000 0.000000
0.589559 1.675671 1.357897 0.000000 0.000000 0.000000
0.500721 1.620889 1.344502 0.000000 0.000000 0.000000
0.501117 1.624422 1.342740 0.000000 0.000000 0.000000
0.548014 1.657007 1.341929 0.000000 0.000000 0.000000
0.555292 1.660513 1.344846 0.000000 0.000000 0.000000
0.484943 1.595385 1.354015 0.000000 0.000000 0.000000
0.483788 1.580136 1.365176 0.000000 0.000000 0.000000
0.549499 1.658110 1.341640 0.000000 0.000000 0.000000
0.567200 1.670147 1.344985 0.000000 0.000000 0.000000
0.600617 1.624945 1.390401 0.000000 0.000000 0.000000
0.611556 1.674773 1.377870 0.000000 0.000000 0.000000
0.544254 1.572452 1.396255 0.000000 0.000000 0.000000
0.614726 1.634896 1.394388 0.000000 0.000000 0.000000
0.607307 1.637504 1.392522 0.000000 0.000000 0.000000
0.616036 1.657042 1.387961 0.000000 0.000000 0.000000
0.615750 1.641043 1.393575 0.000000 0.000000 0.000000
0.614869 1.637265 1.395079 0.000000 0.000000 0.000000
0.617112 1.645770 1.393430 0.000000 0.000000 0.000000
0.556205 1.570255 1.400628 0.000000 0.000000 0.000000
0.612801 1.631099 1.394970 0.000000 0.000000 0.000000
0.610093 1.640715 1.389842 0.000000 0.000000 0.000000
0.602138 1.644375 1.384249 0.000000 0.000000 0.000000
0.615435 1.649687 1.390373 0.000000 0.000000 0.000000
0.547241 1.572260 1.394470 0.000000 0.000000 0.000000
0.528524 1.560154 1.393752 0.000000 0.000000 0.000000
0.530108 1.562317 1.392361 0.000000 0.000000 0.000000
0.513815 1.563859 1.381827 0.000000 0.000000 0.000000
0.535579 1.563691 1.396016 0.000000 0.000000 0.000000
0.538687 1.570680 1.392179 0.000000 0.000000 0.000000
0.607211 1.678555 1.371368 0.000000 0.000000 0.000000
0.594089 1.676718 1.363600 0.000000 0.000000 0.000000
0.594606 1.678432 1.364076 0.000000 0.000000 0.000000
0.596821 1.673870 1.370823 0.000000 0.000000 0.000000
0.482102 1.562436 1.371804 0.000000 0.000000 0.000000
0.481752 1.590510 1.353970 0.000000 0.000000 0.000000
0.601767 1.679179 1.369039 0.000000 0.000000 0.000000
0.524540 1.560025 1.392387 0.000000 0.000000 0.000000
0.538369 1.647475 1.340071 0.000000 0.000000 0.000000
0.620227 1.663633 1.387459 0.000000 0.000000 0.000000
0.494665 1.560698 1.378492 0.000000 0.000000 0.000000
0.525298 1.640993 1.339660 0.000000 0.000000 0.000000
0.522490 1.641912 1.338135 0.000000 0.000000 0.000000
0.524798 1.642790 1.344312 0.000000 0.000000 0.000000
0.533549 1.650652 1.336765 0.000000 0.000000 0.000000
0.483501 1.564784 1.372117 0.000000 0.000000 0.000000
0.573936 1.579928 1.402007 0.000000 0.000000 0.000000
0.564555 1.584861 1.397838 0.000000 0.000000 0.000000
0.559039 1.577096 1.398231 0.000000 0.000000 0.000000
0.575372 1.585112 1.402313 0.000000 0.000000 0.000000
0.579359 1.586408 1.404032 0.000000 0.000000 0.000000
0.571221 1.584618 1.400555 0.000000 0.000000 0.000000
0.573969 1.581853 1.405424 0.000000 0.000000 0.000000
0.574690 1.588769 1.400620 0.000000 0.000000 0.000000
0.571470 1.586239 1.398841 0.000000 0.000000 0.000000
0.576382 1.596360 1.397768 0.000000 0.000000 0.000000
0.581949 1.587600 1.402214 0.000000 0.000000 0.000000
0.564762 1.593192 1.394882 0.000000 0.000000 0.000000
0.564721 1.578659 1.400145 0.000000 0.000000 0.000000
0.563001 1.657030 1.352352 0.000000 0.000000 0.000000
0.586373 1.596703 1.400907 0.000000 0.000000 0.000000
0.580798 1.603002 1.393755 0.000000 0.000000 0.000000
0.560250 1.585476 1.391687 0.000000 0.000000 0.000000
0.533569 1.558227 1.394665 0.000000 0.000000 0.000000
0.484265 1.597798 1.351980 0.000000 0.000000 0.000000
0.498287 1.610238 1.349054 0.000000 0.000000 0.000000
0.482781 1.602902 1.345120 0.000000 0.000000 0.000000
0.532627 1.565546 1.391669 0.000000 0.000000 0.000000
0.529372 1.647130 1.340204 0.000000 0.000000 0.000000
0.550456 1.570973 1.398046 0.000000 0.000000 0.000000
0.532267 1.567642 1.391983 0.000000 0.000000 0.000000
0.543591 1.651071 1.342950 0.000000 0.000000 0.000000
0.605976 1.676222 1.373665 0.000000 0.000000 0.000000
0.532995 1.651445 1.338588 0.000000 0.000000 0.000000
0.544186 1.573537 1.389421 0.000000 0.000000 0.000000
0.574637 1.578262 1.406980 0.000000 0.000000 0.000000
0.562356 1.575608 1.401259 0.000000 0.000000 0.000000
0.547498 1.656963 1.343160 0.000000 0.000000 0.000000
0.567812 1.668058 1.345708 0.000000 0.000000 0.000000
0.486100 1.599783 1.351990 0.000000 0.000000 0.000000
0.492558 1.618313 1.341169 0.000000 0.000000 0.000000
0.559530 1.663583 1.347216 0.000000 0.000000 0.000000
0.566212 1.581770 1.400241 0.000000 0.000000 0.000000
0.608688 1.633381 1.397102 0.000000 0.000000 0.000000
0.490174 1.600322 1.346996 0.000000 0.000000 0.000000
0.617599 1.640712 1.394450 0.000000 0.000000 0.000000
0.485985 1.602377 1.344108 0.000000 0.000000 0.000000
0.481951 1.569247 1.370752 0.000000 0.000000 0.000000
0.481392 1.589307 1.353257 0.000000 0.000000 0.000000
0.566989 1.575859 1.403989 0.000000 0.000000 0.000000
0.551291 1.572896 1.393990 0.000000 0.000000 0.000000
0.487001 1.600745 1.344288 0.000000 0.000000 0.000000
0.488924 1.611126 1.345607 0.000000 0.000000 0.000000
0.612073 1.672951 1.380098 0.000000 0.000000 0.000000
0.556437 1.664107 1.343977 0.000000 0.000000 0.000000
0.554934 1.663889 1.341526 0.000000 0.000000 0.000000
0.482183 1.587234 1.361099 0.000000 0.000000 0.000000
0.612174 1.667660 1.382459 0.000000 0.000000 0.000000
0.616125 1.666281 1.385109 0.000000 0.000000 0.000000
0.594016 1.613029 1.396906 0.000000 0.000000 0.000000
0.598009 1.609261 1.400054 0.000000 0.000000 0.000000
0.482422 1.598410 1.347961 0.000000 0.000000 0.000000
0.489648 1.591955 1.359865 0.000000 0.000000 0.000000
0.489686 1.596975 1.364589 0.000000 0.000000 0.000000
0.588081 1.598827 1.401221 0.000000 0.000000 0.000000
0.491283 1.601600 1.357656 0.000000 0.000000 0.000000
0.482254 1.589775 1.364279 0.000000 0.000000 0.000000
0.609555 1.625852 1.396879 0.000000 0.000000 0.000000
0.545384 1.567588 1.399024 0.000000 0.000000 0.000000
0.494533 1.560675 1.381695 0.000000 0.000000 0.000000
0.619809 1.646206 1.393990 0.000000 0.000000 0.000000
0.551668 1.658825 1.343578 0.000000 0.000000 0.000000
0.612074 1.655987 1.386007 0.000000 0.000000 0.000000
0.557810 1.655767 1.348314 0.000000 0.000000 0.000000
0.557903 1.659003 1.348467 0.000000 0.000000 0.000000
0.551885 1.658603 1.344687 0.000000 0.000000 0.000000
0.620423 1.652481 1.392412 0.000000 0.000000 0.000000
0.564289 1.665174 1.350160 0.000000 0.000000 0.000000
0.552378 1.659464 1.343693 0.000000 0.000000 0.000000
0.543566 1.654640 1.339517 0.000000 0.000000 0.000000
0.537436 1.652823 1.339913 0.000000 0.000000 0.000000
0.496540 1.621002 1.342304 0.000000 0.000000 0.000000
0.484668 1.605104 1.347595 0.000000 0.000000 0.000000
0.502071 1.627387 1.343331 0.000000 0.000000 0.000000
0.488684 1.613471 1.346041 0.000000 0.000000 0.000000
0.484359 1.603483 1.347185 0.000000 0.000000 0.000000
0.525463 1.635035 1.344139 0.000000 0.000000 0.000000
0.596948 1.607363 1.401897 0.000000 0.000000 0.000000
0.559943 1.662582 1.347023 0.000000 0.000000 0.000000
0.525909 1.643416 1.339639 0.000000 0.000000 0.000000
0.517716 1.641189 1.344100 0.000000 0.000000 0.000000
0.516086 1.638512 1.339660 0.000000 0.000000 0.000000
0.489212 1.616371 1.343317 0.000000 0.000000 0.000000
0.483225 1.603695 1.346434 0.000000 0.000000 0.000000
0.502356 1.625046 1.343499 0.000000 0.000000 0.000000
0.523821 1.638487 1.341071 0.000000 0.000000 0.000000
0.490258 1.612219 1.342785 0.000000 0.000000 0.000000
0.522127 1.640484 1.342193 0.000000 0.000000 0.000000
0.532799 1.642642 1.342417 0.000000 0.000000 0.000000
0.517470 1.640670 1.339723 0.000000 0.000000 0.000000
0.496118 1.622357 1.342269 0.000000 0.000000 0.000000
0.599978 1.610916 1.400547 0.000000 0.000000 0.000000
0.564759 1.575032 1.400865 0.000000 0.000000 0.000000
0.569384 1.581539 1.399274 0.000000 0.000000 0.000000
0.560089 1.573862 1.400536 0.000000 0.000000 0.000000
0.540597 1.566831 1.396168 0.000000 0.000000 0.000000
0.543915 1.571181 1.397414 0.000000 0.000000 0.000000
0.549603 1.564939 1.401659 0.000000 0.000000 0.000000
0.624284 1.658065 1.393352 0.000000 0.000000 0.000000
0.535392 1.648809 1.342615 0.000000 0.000000 0.000000
0.483876 1.564877 1.371879 0.000000 0.000000 0.000000
0.484303 1.568440 1.375154 0.000000 0.000000 0.000000
0.486256 1.562025 1.376441 0.000000 0.000000 0.000000
0.590039 1.611335 1.393976 0.000000 0.000000 0.000000
0.540476 1.655492 1.338968 0.000000 0.000000 0.000000
0.603857 1.614748 1.400621 0.000000 0.000000 0.000000
0.513817 1.629723 1.340503 0.000000 0.000000 0.000000
0.493479 1.563513 1.377427 0.000000 0.000000 0.000000
0.525686 1.643578 1.346970 0.000000 0.000000 0.000000
0.594896 1.603182 1.402514 0.000000 0.000000 0.000000
0.488447 1.604329 1.344827 0.000000 0.000000 0.000000
0.500361 1.627467 1.341364 0.000000 0.000000 0.000000
0.517621 1.637654 1.338528 0.000000 0.000000 0.000000
0.491882 1.560654 1.379621 0.000000 0.000000 0.000000
0.513003 1.635743 1.343227 0.000000 0.000000 0.000000
0.489135 1.567163 1.377541 0.000000 0.000000 0.000000
0.530649 1.642844 1.347941 0.000000 0.000000 0.000000
0.593766 1.602571 1.403433 0.000000 0.000000 0.000000
0.482885 1.604970 1.342939 0.000000 0.000000 0.000000
0.511729 1.637647 1.336166 0.000000 0.000000 0.000000
0.554441 1.569120 1.401422 0.000000 0.000000 0.000000
0.490803 1.561841 1.377489 0.000000 0.000000 0.000000
0.528113 1.562984 1.387714 0.000000 0.000000 0.000000
0.605433 1.616225 1.398734 0.000000 0.000000 0.000000
0.480337 1.604021 1.345682 0.000000 0.000000 0.000000
0.595670 1.595398 1.404043 0.000000 0.000000 0.000000
0.591282 1.600652 1.402196 0.000000 0.000000 0.000000
0.483314 1.564421 1.377223 0.000000 0.000000 0.000000
0.483944 1.565574 1.378461 0.000000 0.000000 0.000000
0.588805 1.596382 1.403607 0.000000 0.000000 0.000000
0.616575 1.668946 1.382294 0.000000 0.000000 0.000000
0.564927 1.574323 1.402365 0.000000 0.000000 0.000000
0.506781 1.631082 1.340428 0.000000 0.000000 0.000000
0.619915 1.668361 1.386319 0.000000 0.000000 0.000000
0.557108 1.570516 1.402212 0.000000 0.000000 0.000000
0.510266 1.627491 1.339555 0.000000 0.000000 0.000000
0.503869 1.617305 1.342011 0.000000 0.000000 0.000000
0.616515 1.669445 1.384213 0.000000 0.000000 0.000000
0.493927 1.615933 1.343795 0.000000 0.000000 0.000000
0.501373 1.621330 1.341776 0.000000 0.000000 0.000000
0.606788 1.667501 1.377807 0.000000 0.000000 0.000000
0.591372 1.672696 1.362346 0.000000 0.000000 0.000000
0.483040 1.607652 1.345984 0.000000 0.000000 0.000000
0.586911 1.592024 1.404827 0.000000 0.000000 0.000000
0.612202 1.673902 1.378794 0.000000 0.000000 0.000000
0.575829 1.583036 1.403523 0.000000 0.000000 0.000000
0.613022 1.632086 1.396468 0.000000 0.000000 0.000000
0.569677 1.577666 1.402568 0.000000 0.000000 0.000000
0.572412 1.667727 1.349456 0.000000 0.000000 0.000000
0.566662 1.668939 1.345731 0.000000 0.000000 0.000000
0.566833 1.669258 1.347012 0.000000 0.000000 0.000000
0.565213 1.578659 1.401016 0.000000 0.000000 0.000000
0.612594 1.630308 1.395975 0.000000 0.000000 0.000000
0.602709 1.612760 1.400049 0.000000 0.000000 0.000000
0.561762 1.571652 1.403856 0.000000 0.000000 0.000000
0.573387 1.671802 1.352133 0.000000 0.000000 0.000000
0.612216 1.632395 1.394702 0.000000 0.000000 0.000000
0.563851 1.576934 1.395698 0.000000 0.000000 0.000000
0.562009 1.665554 1.346905 0.000000 0.000000 0.000000
0.575375 1.582814 1.402939 0.000000 0.000000 0.000000
0.491418 1.609926 1.342247 0.000000 0.000000 0.000000
0.491031 1.608047 1.346507 0.000000 0.000000 0.000000
0.491695 1.608829 1.345765 0.000000 0.000000 0.000000
0.497948 1.616252 1.344824 0.000000 0.000000 0.000000
0.590169 1.677584 1.355573 0.000000 0.000000 0.000000
0.484455 1.600523 1.343201 0.000000 0.000000 0.000000
0.480346 1.594858 1.351387 0.000000 0.000000 0.000000
0.498186 1.612594 1.342945 0.000000 0.000000 0.000000
0.486521 1.609513 1.341396 0.000000 0.000000 0.000000
0.616827 1.633840 1.397094 0.000000 0.000000 0.000000
0.588862 1.676641 1.358028 0.000000 0.000000 0.000000
0.613628 1.637172 1.394972 0.000000 0.000000 0.000000
0.562473 1.667119 1.349647 0.000000 0.000000 0.000000
0.586879 1.671222 1.364185 0.000000 0.000000 0.000000
0.611296 1.631766 1.395756 0.000000 0.000000 0.000000
0.588955 1.590487 1.405784 0.000000 0.000000 0.000000
0.556006 1.663924 1.344793 0.000000 0.000000 0.000000
0.562347 1.667548 1.345010 0.000000 0.000000 0.000000
0.555421 1.660941 1.345848 0.000000 0.000000 0.000000
0.528192 1.563149 1.390264 0.000000 0.000000 0.000000
0.520891 1.566410 1.384638 0.000000 0.000000 0.000000
0.599905 1.677645 1.366218 0.000000 0.000000 0.000000
0.548732 1.659729 1.341174 0.000000 0.000000 0.000000
0.604549 1.673240 1.373355 0.000000 0.000000 0.000000
0.597398 1.675722 1.364855 0.000000 0.000000 0.000000
0.536497 1.650453 1.345108 0.000000 0.000000 0.000000
0.595161 1.673485 1.364323 0.000000 0.000000 0.000000
0.582631 1.674813 1.354977 0.000000 0.000000 0.000000
0.613717 1.667813 1.383707 0.000000 0.000000 0.000000
0.598795 1.674445 1.366285 0.000000 0.000000 0.000000
0.541969 1.653175 1.347058 0.000000 0.000000 0.000000
0.590065 1.674177 1.360132 0.000000 0.000000 0.000000
0.595015 1.676658 1.363151 0.000000 0.000000 0.000000
0.520354 1.561638 1.390600 0.000000 0.000000 0.000000
0.599232 1.607021 1.401605 0.000000 0.000000 0.000000
0.597145 1.615263 1.395698 0.000000 0.000000 0.000000
0.599203 1.619053 1.394773 0.000000 0.000000 0.000000
0.598068 1.619697 1.397456 0.000000 0.000000 0.000000
0.571583 1.670820 1.349191 0.000000 0.000000 0.000000
0.605661 1.613287 1.403699 0.000000 0.000000 0.000000
0.609827 1.618066 1.399820 0.000000 0.000000 0.000000
0.606085 1.620240 1.397403 0.000000 0.000000 0.000000
0.599187 1.680274 1.365278 0.000000 0.000000 0.000000
0.576404 1.671369 1.349860 0.000000 0.000000 0.000000
0.580419 1.582903 1.405512 0.000000 0.000000 0.000000
0.574017 1.669443 1.344752 0.000000 0.000000 0.000000
0.572399 1.574194 1.405951 0.000000 0.000000 0.000000
