ply
format ascii 1.0
comment VCGLIB generated
obj_info Generated by SPFormer!
element vertex 515
property float x
property float y
property float z
property float nx
property float ny
property float nz
end_header
0.465601 2.028657 1.840210 0.000000 0.000000 0.000000
0.448436 2.023342 1.841712 0.000000 0.000000 0.000000
0.458496 2.036598 1.846334 0.000000 0.000000 0.000000
0.444262 2.035626 1.845003 0.000000 0.000000 0.000000
0.439437 2.030967 1.841657 0.000000 0.000000 0.000000
0.458862 2.025833 1.840772 0.000000 0.000000 0.000000
0.443158 2.036836 1.843506 0.000000 0.000000 0.000000
0.469818 2.035450 1.840845 0.000000 0.000000 0.000000
0.437969 2.029568 1.846838 0.000000 0.000000 0.000000
0.442766 2.024390 1.843043 0.000000 0.000000 0.000000
0.437916 2.026144 1.842899 0.000000 0.000000 0.000000
0.450998 2.027706 1.846196 0.000000 0.000000 0.000000
0.445082 2.032805 1.847030 0.000000 0.000000 0.000000
0.440634 2.037091 1.840434 0.000000 0.000000 0.000000
0.443327 2.029181 1.840747 0.000000 0.000000 0.000000
0.422815 2.028038 1.854742 0.000000 0.000000 0.000000
0.449762 2.029759 1.842412 0.000000 0.000000 0.000000
0.449447 2.038772 1.844154 0.000000 0.000000 0.000000
0.445661 2.035139 1.856595 0.000000 0.000000 0.000000
0.442868 2.030632 1.854093 0.000000 0.000000 0.000000
0.467163 2.038138 1.847557 0.000000 0.000000 0.000000
0.463577 2.029292 1.840085 0.000000 0.000000 0.000000
0.470822 2.027047 1.841587 0.000000 0.000000 0.000000
0.470443 2.033210 1.847610 0.000000 0.000000 0.000000
0.442309 2.030075 1.850730 0.000000 0.000000 0.000000
0.444334 2.035069 1.848735 0.000000 0.000000 0.000000
0.443899 2.028128 1.845246 0.000000 0.000000 0.000000
0.439302 2.025575 1.848527 0.000000 0.000000 0.000000
0.444864 2.025093 1.844585 0.000000 0.000000 0.000000
0.441223 2.030733 1.850165 0.000000 0.000000 0.000000
0.462747 2.037894 1.850297 0.000000 0.000000 0.000000
0.446709 2.038747 1.850783 0.000000 0.000000 0.000000
0.448967 1.955528 1.902076 0.000000 0.000000 0.000000
0.411852 1.979163 1.912573 0.000000 0.000000 0.000000
0.422238 1.971731 1.896767 0.000000 0.000000 0.000000
0.414847 1.980338 1.896539 0.000000 0.000000 0.000000
0.455979 2.020611 1.848689 0.000000 0.000000 0.000000
0.413847 1.979892 1.897938 0.000000 0.000000 0.000000
0.434683 1.967825 1.889438 0.000000 0.000000 0.000000
0.460488 1.957936 1.898860 0.000000 0.000000 0.000000
0.441004 1.961196 1.928867 0.000000 0.000000 0.000000
0.453096 1.999285 1.865552 0.000000 0.000000 0.000000
0.458579 1.961146 1.893282 0.000000 0.000000 0.000000
0.456554 2.012833 1.849651 0.000000 0.000000 0.000000
0.419052 1.974922 1.917544 0.000000 0.000000 0.000000
0.451159 2.026657 1.848149 0.000000 0.000000 0.000000
0.433432 1.974782 1.903565 0.000000 0.000000 0.000000
0.445496 2.013519 1.842553 0.000000 0.000000 0.000000
0.433701 1.965214 1.932608 0.000000 0.000000 0.000000
0.424797 1.972557 1.927619 0.000000 0.000000 0.000000
0.407246 1.982634 1.923307 0.000000 0.000000 0.000000
0.403875 1.980612 1.908235 0.000000 0.000000 0.000000
0.463450 1.997584 1.854406 0.000000 0.000000 0.000000
0.433659 1.990718 1.866442 0.000000 0.000000 0.000000
0.411105 1.988073 1.891531 0.000000 0.000000 0.000000
0.466530 1.975689 1.874426 0.000000 0.000000 0.000000
0.414035 1.989961 1.881343 0.000000 0.000000 0.000000
0.444708 1.961095 1.896982 0.000000 0.000000 0.000000
0.407515 1.977690 1.903203 0.000000 0.000000 0.000000
0.462205 1.988706 1.859314 0.000000 0.000000 0.000000
0.459538 1.974481 1.872044 0.000000 0.000000 0.000000
0.439998 1.960097 1.922855 0.000000 0.000000 0.000000
0.433334 1.977556 1.915732 0.000000 0.000000 0.000000
0.465365 1.973832 1.872659 0.000000 0.000000 0.000000
0.472924 1.976280 1.876002 0.000000 0.000000 0.000000
0.411743 1.981547 1.928514 0.000000 0.000000 0.000000
0.419696 1.975076 1.927279 0.000000 0.000000 0.000000
0.412242 1.980429 1.920554 0.000000 0.000000 0.000000
0.459712 2.005572 1.853466 0.000000 0.000000 0.000000
0.454087 2.008503 1.859673 0.000000 0.000000 0.000000
0.456568 2.002622 1.863856 0.000000 0.000000 0.000000
0.463886 1.984669 1.867455 0.000000 0.000000 0.000000
0.453136 1.957407 1.902892 0.000000 0.000000 0.000000
0.424406 1.970250 1.903393 0.000000 0.000000 0.000000
0.424996 1.971799 1.920579 0.000000 0.000000 0.000000
0.443075 1.964047 1.893381 0.000000 0.000000 0.000000
0.448056 1.961408 1.912251 0.000000 0.000000 0.000000
0.435029 1.973629 1.911148 0.000000 0.000000 0.000000
0.421405 1.976108 1.916137 0.000000 0.000000 0.000000
0.415410 1.978288 1.928401 0.000000 0.000000 0.000000
0.427151 1.999362 1.871335 0.000000 0.000000 0.000000
0.465313 1.991516 1.858537 0.000000 0.000000 0.000000
0.412831 1.989208 1.885998 0.000000 0.000000 0.000000
0.412909 1.980394 1.920365 0.000000 0.000000 0.000000
0.424080 1.965405 1.894682 0.000000 0.000000 0.000000
0.464235 1.969561 1.882546 0.000000 0.000000 0.000000
0.441857 1.994614 1.866531 0.000000 0.000000 0.000000
0.446718 1.966576 1.898625 0.000000 0.000000 0.000000
0.441040 2.009970 1.862765 0.000000 0.000000 0.000000
0.465722 1.997084 1.865304 0.000000 0.000000 0.000000
0.456696 1.981183 1.875588 0.000000 0.000000 0.000000
0.462111 1.998488 1.868400 0.000000 0.000000 0.000000
0.423493 1.966388 1.898418 0.000000 0.000000 0.000000
0.414166 1.988068 1.881715 0.000000 0.000000 0.000000
0.400011 1.983032 1.910339 0.000000 0.000000 0.000000
0.473531 1.984751 1.859903 0.000000 0.000000 0.000000
0.412047 1.978142 1.926824 0.000000 0.000000 0.000000
0.429967 1.979177 1.907616 0.000000 0.000000 0.000000
0.413944 1.988115 1.883196 0.000000 0.000000 0.000000
0.409700 1.983821 1.906703 0.000000 0.000000 0.000000
0.474361 1.980008 1.865480 0.000000 0.000000 0.000000
0.447856 1.962163 1.889515 0.000000 0.000000 0.000000
0.470082 1.991878 1.854817 0.000000 0.000000 0.000000
0.436101 2.001076 1.871350 0.000000 0.000000 0.000000
0.440992 1.981873 1.886692 0.000000 0.000000 0.000000
0.443546 2.008273 1.858086 0.000000 0.000000 0.000000
0.431139 1.971044 1.927765 0.000000 0.000000 0.000000
0.448479 1.981264 1.879597 0.000000 0.000000 0.000000
0.429198 1.986483 1.890824 0.000000 0.000000 0.000000
0.412048 1.988043 1.888148 0.000000 0.000000 0.000000
0.450214 2.003238 1.856579 0.000000 0.000000 0.000000
0.422425 1.979675 1.879342 0.000000 0.000000 0.000000
0.455211 1.976564 1.875866 0.000000 0.000000 0.000000
0.435684 1.967679 1.923992 0.000000 0.000000 0.000000
0.413401 1.986084 1.886538 0.000000 0.000000 0.000000
0.421984 1.975451 1.900664 0.000000 0.000000 0.000000
0.399236 1.986409 1.896699 0.000000 0.000000 0.000000
0.456816 2.022471 1.842729 0.000000 0.000000 0.000000
0.469075 1.981804 1.865585 0.000000 0.000000 0.000000
0.426935 2.018234 1.858469 0.000000 0.000000 0.000000
0.399943 1.994453 1.889878 0.000000 0.000000 0.000000
0.448714 2.002022 1.853334 0.000000 0.000000 0.000000
0.444682 2.009336 1.851736 0.000000 0.000000 0.000000
0.467877 1.981037 1.870393 0.000000 0.000000 0.000000
0.453397 1.974347 1.881277 0.000000 0.000000 0.000000
0.448256 1.956828 1.915299 0.000000 0.000000 0.000000
0.433630 2.011751 1.854086 0.000000 0.000000 0.000000
0.451292 1.954786 1.918071 0.000000 0.000000 0.000000
0.430555 1.974903 1.883539 0.000000 0.000000 0.000000
0.441785 1.958449 1.916387 0.000000 0.000000 0.000000
0.451838 1.956908 1.905334 0.000000 0.000000 0.000000
0.422356 1.973022 1.887859 0.000000 0.000000 0.000000
0.421761 1.971662 1.932256 0.000000 0.000000 0.000000
0.450774 1.955605 1.908567 0.000000 0.000000 0.000000
0.463664 1.963251 1.890424 0.000000 0.000000 0.000000
0.464049 1.964593 1.887259 0.000000 0.000000 0.000000
0.442558 1.995596 1.871582 0.000000 0.000000 0.000000
0.416308 1.983742 1.901416 0.000000 0.000000 0.000000
0.453239 1.985430 1.874178 0.000000 0.000000 0.000000
0.431688 1.966123 1.911796 0.000000 0.000000 0.000000
0.408204 1.974832 1.907932 0.000000 0.000000 0.000000
0.410514 1.984761 1.924065 0.000000 0.000000 0.000000
0.432487 1.979883 1.912577 0.000000 0.000000 0.000000
0.471552 1.979300 1.865594 0.000000 0.000000 0.000000
0.415002 1.969768 1.905089 0.000000 0.000000 0.000000
0.432944 1.968116 1.931784 0.000000 0.000000 0.000000
0.439408 2.013863 1.851008 0.000000 0.000000 0.000000
0.400415 1.982463 1.908951 0.000000 0.000000 0.000000
0.416630 1.985099 1.933767 0.000000 0.000000 0.000000
0.453367 1.956716 1.907573 0.000000 0.000000 0.000000
0.424951 1.967112 1.929895 0.000000 0.000000 0.000000
0.427213 1.970621 1.934531 0.000000 0.000000 0.000000
0.434037 1.964572 1.907249 0.000000 0.000000 0.000000
0.433259 1.967530 1.926395 0.000000 0.000000 0.000000
0.413356 1.988001 1.884289 0.000000 0.000000 0.000000
0.424775 1.966270 1.914311 0.000000 0.000000 0.000000
0.406281 1.978609 1.917633 0.000000 0.000000 0.000000
0.412676 1.980171 1.926019 0.000000 0.000000 0.000000
0.456380 2.014290 1.850212 0.000000 0.000000 0.000000
0.429126 1.963865 1.926542 0.000000 0.000000 0.000000
0.439650 1.964616 1.928020 0.000000 0.000000 0.000000
0.432425 1.961875 1.920732 0.000000 0.000000 0.000000
0.420521 1.996896 1.874911 0.000000 0.000000 0.000000
0.447019 1.957559 1.920102 0.000000 0.000000 0.000000
0.413830 1.977303 1.916487 0.000000 0.000000 0.000000
0.421241 1.979296 1.936826 0.000000 0.000000 0.000000
0.415980 1.976771 1.921967 0.000000 0.000000 0.000000
0.435330 1.961345 1.910606 0.000000 0.000000 0.000000
0.453650 1.982470 1.868728 0.000000 0.000000 0.000000
0.429312 1.972243 1.938073 0.000000 0.000000 0.000000
0.450335 1.974185 1.891245 0.000000 0.000000 0.000000
0.457937 2.007817 1.855606 0.000000 0.000000 0.000000
0.434962 1.987875 1.866502 0.000000 0.000000 0.000000
0.456378 1.992486 1.856609 0.000000 0.000000 0.000000
0.449540 1.985194 1.880935 0.000000 0.000000 0.000000
0.443572 2.007160 1.856082 0.000000 0.000000 0.000000
0.438195 1.996964 1.861459 0.000000 0.000000 0.000000
0.438804 2.001845 1.856227 0.000000 0.000000 0.000000
0.451697 1.955114 1.906955 0.000000 0.000000 0.000000
0.467653 1.995086 1.857780 0.000000 0.000000 0.000000
0.440262 2.004832 1.860343 0.000000 0.000000 0.000000
0.438195 1.995483 1.859830 0.000000 0.000000 0.000000
0.458675 1.976334 1.882038 0.000000 0.000000 0.000000
0.436527 2.002461 1.860859 0.000000 0.000000 0.000000
0.437999 1.982619 1.876566 0.000000 0.000000 0.000000
0.437510 1.955314 1.906006 0.000000 0.000000 0.000000
0.452392 1.953737 1.908513 0.000000 0.000000 0.000000
0.454972 1.954684 1.912107 0.000000 0.000000 0.000000
0.425358 1.969771 1.934416 0.000000 0.000000 0.000000
0.430621 1.973375 1.935446 0.000000 0.000000 0.000000
0.425223 2.001527 1.873232 0.000000 0.000000 0.000000
0.425536 1.974554 1.934332 0.000000 0.000000 0.000000
0.410554 1.983353 1.921862 0.000000 0.000000 0.000000
0.438588 1.967817 1.889143 0.000000 0.000000 0.000000
0.460866 2.008755 1.860657 0.000000 0.000000 0.000000
0.438288 1.958328 1.915157 0.000000 0.000000 0.000000
0.427111 1.977125 1.880857 0.000000 0.000000 0.000000
0.438718 1.966601 1.890097 0.000000 0.000000 0.000000
0.457508 2.009837 1.851850 0.000000 0.000000 0.000000
0.460390 2.018195 1.852625 0.000000 0.000000 0.000000
0.436025 1.962566 1.926101 0.000000 0.000000 0.000000
0.441649 1.967195 1.893300 0.000000 0.000000 0.000000
0.426602 1.967153 1.910956 0.000000 0.000000 0.000000
0.446654 1.957462 1.905471 0.000000 0.000000 0.000000
0.449307 1.955775 1.911364 0.000000 0.000000 0.000000
0.448984 1.959155 1.915521 0.000000 0.000000 0.000000
0.452043 1.953256 1.907516 0.000000 0.000000 0.000000
0.441930 1.967953 1.913941 0.000000 0.000000 0.000000
0.427297 1.987372 1.882119 0.000000 0.000000 0.000000
0.447079 1.960129 1.900690 0.000000 0.000000 0.000000
0.447456 1.957573 1.899418 0.000000 0.000000 0.000000
0.438275 1.959397 1.915659 0.000000 0.000000 0.000000
0.457283 1.973119 1.888190 0.000000 0.000000 0.000000
0.449083 1.967184 1.900415 0.000000 0.000000 0.000000
0.423057 1.964067 1.903048 0.000000 0.000000 0.000000
0.436414 1.963689 1.896728 0.000000 0.000000 0.000000
0.441721 1.971820 1.903370 0.000000 0.000000 0.000000
0.440739 1.961682 1.908676 0.000000 0.000000 0.000000
0.437715 1.962605 1.911904 0.000000 0.000000 0.000000
0.456985 1.958498 1.903567 0.000000 0.000000 0.000000
0.450427 1.957686 1.912282 0.000000 0.000000 0.000000
0.449030 1.955439 1.907544 0.000000 0.000000 0.000000
0.444314 1.964627 1.918940 0.000000 0.000000 0.000000
0.422539 1.985034 1.890649 0.000000 0.000000 0.000000
0.436834 1.959631 1.905814 0.000000 0.000000 0.000000
0.461422 1.959480 1.892699 0.000000 0.000000 0.000000
0.435757 1.954728 1.908358 0.000000 0.000000 0.000000
0.436406 2.014685 1.858824 0.000000 0.000000 0.000000
0.427682 2.001646 1.859677 0.000000 0.000000 0.000000
0.418844 2.004612 1.869854 0.000000 0.000000 0.000000
0.460256 2.017191 1.845160 0.000000 0.000000 0.000000
0.469609 1.979570 1.868323 0.000000 0.000000 0.000000
0.470162 1.978045 1.868689 0.000000 0.000000 0.000000
0.432043 1.969083 1.936556 0.000000 0.000000 0.000000
0.432080 1.966764 1.935535 0.000000 0.000000 0.000000
0.438666 1.954715 1.911443 0.000000 0.000000 0.000000
0.453006 1.955969 1.904786 0.000000 0.000000 0.000000
0.432549 1.965893 1.929989 0.000000 0.000000 0.000000
0.459192 2.022470 1.845323 0.000000 0.000000 0.000000
0.452567 2.021172 1.847332 0.000000 0.000000 0.000000
0.449892 1.953296 1.906552 0.000000 0.000000 0.000000
0.449387 1.956482 1.910384 0.000000 0.000000 0.000000
0.458606 1.957201 1.901248 0.000000 0.000000 0.000000
0.439455 2.007645 1.852995 0.000000 0.000000 0.000000
0.402799 1.984616 1.916927 0.000000 0.000000 0.000000
0.439008 2.005245 1.851504 0.000000 0.000000 0.000000
0.451039 2.016716 1.849897 0.000000 0.000000 0.000000
0.419291 1.980206 1.935901 0.000000 0.000000 0.000000
0.444373 2.013355 1.850052 0.000000 0.000000 0.000000
0.415647 1.990391 1.875761 0.000000 0.000000 0.000000
0.416013 1.996194 1.880419 0.000000 0.000000 0.000000
0.432211 2.001006 1.864115 0.000000 0.000000 0.000000
0.415593 1.989269 1.877520 0.000000 0.000000 0.000000
0.469847 2.006482 1.857230 0.000000 0.000000 0.000000
0.448605 1.950891 1.913584 0.000000 0.000000 0.000000
0.464570 1.979038 1.859359 0.000000 0.000000 0.000000
0.421405 2.011343 1.863832 0.000000 0.000000 0.000000
0.467793 2.000643 1.851268 0.000000 0.000000 0.000000
0.398842 1.983602 1.904192 0.000000 0.000000 0.000000
0.416702 2.005198 1.866604 0.000000 0.000000 0.000000
0.413424 1.990742 1.886667 0.000000 0.000000 0.000000
0.423648 1.993272 1.867733 0.000000 0.000000 0.000000
0.416990 2.002302 1.866083 0.000000 0.000000 0.000000
0.408648 2.001255 1.877530 0.000000 0.000000 0.000000
0.412809 2.010744 1.864751 0.000000 0.000000 0.000000
0.415734 1.984813 1.878604 0.000000 0.000000 0.000000
0.421524 1.994217 1.871179 0.000000 0.000000 0.000000
0.419487 2.005507 1.863583 0.000000 0.000000 0.000000
0.415951 2.001106 1.871206 0.000000 0.000000 0.000000
0.411630 2.004589 1.868660 0.000000 0.000000 0.000000
0.413191 1.993631 1.882991 0.000000 0.000000 0.000000
0.400644 1.985696 1.913611 0.000000 0.000000 0.000000
0.455023 1.997986 1.859990 0.000000 0.000000 0.000000
0.401957 1.985340 1.908608 0.000000 0.000000 0.000000
0.401680 1.986300 1.911922 0.000000 0.000000 0.000000
0.412231 1.986258 1.928141 0.000000 0.000000 0.000000
0.457148 1.982780 1.871225 0.000000 0.000000 0.000000
0.463271 1.973898 1.876121 0.000000 0.000000 0.000000
0.467230 1.968386 1.874782 0.000000 0.000000 0.000000
0.461333 1.978273 1.869442 0.000000 0.000000 0.000000
0.462790 1.968996 1.881724 0.000000 0.000000 0.000000
0.461260 1.974490 1.874801 0.000000 0.000000 0.000000
0.468226 1.967981 1.877977 0.000000 0.000000 0.000000
0.466278 1.968753 1.883739 0.000000 0.000000 0.000000
0.453931 1.953928 1.909001 0.000000 0.000000 0.000000
0.448097 1.956949 1.918097 0.000000 0.000000 0.000000
0.464052 1.971225 1.878826 0.000000 0.000000 0.000000
0.456633 1.999748 1.855156 0.000000 0.000000 0.000000
0.461119 1.971894 1.883799 0.000000 0.000000 0.000000
0.455546 1.978446 1.871078 0.000000 0.000000 0.000000
0.462541 1.969605 1.880522 0.000000 0.000000 0.000000
0.453966 1.967349 1.882008 0.000000 0.000000 0.000000
0.464085 1.969077 1.881941 0.000000 0.000000 0.000000
0.468240 1.979057 1.874992 0.000000 0.000000 0.000000
0.464843 1.964289 1.888845 0.000000 0.000000 0.000000
0.445162 1.968073 1.883995 0.000000 0.000000 0.000000
0.463598 1.971283 1.877698 0.000000 0.000000 0.000000
0.467315 2.003210 1.852081 0.000000 0.000000 0.000000
0.464060 1.964943 1.887415 0.000000 0.000000 0.000000
0.447114 1.970266 1.881044 0.000000 0.000000 0.000000
0.466659 1.970387 1.884523 0.000000 0.000000 0.000000
0.459481 1.962842 1.896359 0.000000 0.000000 0.000000
0.424347 1.997914 1.875206 0.000000 0.000000 0.000000
0.453282 1.979805 1.873732 0.000000 0.000000 0.000000
0.473793 1.991217 1.857944 0.000000 0.000000 0.000000
0.449271 1.955800 1.919946 0.000000 0.000000 0.000000
0.446905 2.022424 1.846588 0.000000 0.000000 0.000000
0.449703 2.005061 1.857605 0.000000 0.000000 0.000000
0.445234 1.958186 1.927147 0.000000 0.000000 0.000000
0.458100 1.974801 1.875285 0.000000 0.000000 0.000000
0.406158 1.991171 1.895012 0.000000 0.000000 0.000000
0.423438 2.011076 1.872400 0.000000 0.000000 0.000000
0.413226 1.990087 1.887497 0.000000 0.000000 0.000000
0.406992 1.995722 1.888892 0.000000 0.000000 0.000000
0.460778 2.020118 1.850453 0.000000 0.000000 0.000000
0.440082 1.969984 1.919655 0.000000 0.000000 0.000000
0.435233 1.960147 1.926692 0.000000 0.000000 0.000000
0.462276 1.959838 1.899385 0.000000 0.000000 0.000000
0.454789 1.961106 1.903356 0.000000 0.000000 0.000000
0.443830 1.959328 1.929197 0.000000 0.000000 0.000000
0.456793 1.955885 1.912341 0.000000 0.000000 0.000000
0.444940 1.959949 1.905907 0.000000 0.000000 0.000000
0.471105 1.990330 1.857439 0.000000 0.000000 0.000000
0.438792 1.963043 1.932924 0.000000 0.000000 0.000000
0.432341 2.011723 1.864327 0.000000 0.000000 0.000000
0.466542 1.963223 1.892933 0.000000 0.000000 0.000000
0.449715 1.968825 1.887325 0.000000 0.000000 0.000000
0.434734 1.959921 1.928830 0.000000 0.000000 0.000000
0.460215 1.962279 1.911487 0.000000 0.000000 0.000000
0.446419 1.961668 1.921163 0.000000 0.000000 0.000000
0.417608 2.010189 1.861705 0.000000 0.000000 0.000000
0.436449 2.020051 1.858737 0.000000 0.000000 0.000000
0.464131 1.993348 1.864246 0.000000 0.000000 0.000000
0.434245 1.965909 1.931969 0.000000 0.000000 0.000000
0.449424 2.010968 1.854573 0.000000 0.000000 0.000000
0.477009 1.987094 1.856862 0.000000 0.000000 0.000000
0.462074 1.986567 1.865311 0.000000 0.000000 0.000000
0.397575 1.980632 1.900691 0.000000 0.000000 0.000000
0.416632 2.003211 1.871055 0.000000 0.000000 0.000000
0.451973 1.979355 1.865740 0.000000 0.000000 0.000000
0.408603 2.002196 1.876581 0.000000 0.000000 0.000000
0.454638 2.011020 1.845945 0.000000 0.000000 0.000000
0.424437 2.017613 1.859149 0.000000 0.000000 0.000000
0.438569 2.011932 1.861239 0.000000 0.000000 0.000000
0.462569 1.996916 1.861755 0.000000 0.000000 0.000000
0.423659 2.013274 1.864802 0.000000 0.000000 0.000000
0.449054 2.011726 1.872925 0.000000 0.000000 0.000000
0.416990 2.002976 1.867452 0.000000 0.000000 0.000000
0.399333 1.981666 1.904339 0.000000 0.000000 0.000000
0.461197 1.984555 1.868186 0.000000 0.000000 0.000000
0.405249 1.984103 1.913902 0.000000 0.000000 0.000000
0.405709 1.978223 1.910535 0.000000 0.000000 0.000000
0.404283 1.986434 1.915784 0.000000 0.000000 0.000000
0.459544 1.968497 1.882354 0.000000 0.000000 0.000000
0.399950 1.990661 1.895729 0.000000 0.000000 0.000000
0.409475 1.993984 1.885877 0.000000 0.000000 0.000000
0.406681 1.984776 1.898114 0.000000 0.000000 0.000000
0.408148 1.983369 1.915900 0.000000 0.000000 0.000000
0.418075 1.969780 1.916745 0.000000 0.000000 0.000000
0.472876 1.994725 1.858800 0.000000 0.000000 0.000000
0.461151 1.965249 1.886911 0.000000 0.000000 0.000000
0.401034 1.981241 1.898216 0.000000 0.000000 0.000000
0.412735 1.986776 1.891747 0.000000 0.000000 0.000000
0.406224 1.991157 1.891303 0.000000 0.000000 0.000000
0.403543 1.989214 1.899237 0.000000 0.000000 0.000000
0.410457 1.980043 1.898315 0.000000 0.000000 0.000000
0.415478 1.967525 1.924287 0.000000 0.000000 0.000000
0.468356 1.994013 1.864043 0.000000 0.000000 0.000000
0.465372 1.962631 1.891130 0.000000 0.000000 0.000000
0.415510 1.991039 1.884239 0.000000 0.000000 0.000000
0.416263 1.984491 1.931981 0.000000 0.000000 0.000000
0.462717 2.010391 1.853117 0.000000 0.000000 0.000000
0.451590 2.014740 1.845875 0.000000 0.000000 0.000000
0.467874 2.001387 1.849888 0.000000 0.000000 0.000000
0.461612 2.009497 1.846349 0.000000 0.000000 0.000000
0.461528 2.017192 1.843641 0.000000 0.000000 0.000000
0.462549 2.014616 1.849333 0.000000 0.000000 0.000000
0.452473 2.003579 1.849136 0.000000 0.000000 0.000000
0.469057 2.003707 1.849571 0.000000 0.000000 0.000000
0.453944 2.011675 1.848322 0.000000 0.000000 0.000000
0.435757 2.024822 1.849697 0.000000 0.000000 0.000000
0.432853 2.017629 1.853245 0.000000 0.000000 0.000000
0.439841 2.023551 1.851912 0.000000 0.000000 0.000000
0.430678 2.019345 1.851436 0.000000 0.000000 0.000000
0.438127 2.021586 1.849647 0.000000 0.000000 0.000000
0.428157 2.014020 1.857519 0.000000 0.000000 0.000000
0.436164 2.013593 1.858199 0.000000 0.000000 0.000000
0.438446 2.018612 1.859287 0.000000 0.000000 0.000000
0.445343 2.027619 1.851739 0.000000 0.000000 0.000000
0.423746 2.018538 1.855688 0.000000 0.000000 0.000000
0.424671 2.017618 1.855562 0.000000 0.000000 0.000000
0.429041 2.012903 1.857909 0.000000 0.000000 0.000000
0.443158 2.024313 1.856085 0.000000 0.000000 0.000000
0.418687 1.986058 1.935643 0.000000 0.000000 0.000000
0.422472 1.976923 1.936491 0.000000 0.000000 0.000000
0.417061 2.012511 1.864027 0.000000 0.000000 0.000000
0.423878 2.026182 1.854034 0.000000 0.000000 0.000000
0.419650 1.991141 1.891110 0.000000 0.000000 0.000000
0.423350 2.008677 1.879364 0.000000 0.000000 0.000000
0.405710 1.995988 1.887841 0.000000 0.000000 0.000000
0.421070 1.980291 1.936354 0.000000 0.000000 0.000000
0.473150 1.994307 1.855810 0.000000 0.000000 0.000000
0.466881 2.005192 1.848966 0.000000 0.000000 0.000000
0.418878 1.996352 1.881539 0.000000 0.000000 0.000000
0.408375 2.000410 1.881202 0.000000 0.000000 0.000000
0.449360 1.963086 1.892111 0.000000 0.000000 0.000000
0.427231 1.969292 1.886600 0.000000 0.000000 0.000000
0.457239 1.994114 1.857448 0.000000 0.000000 0.000000
0.416262 1.998129 1.878656 0.000000 0.000000 0.000000
0.410354 1.998597 1.881424 0.000000 0.000000 0.000000
0.416185 1.998678 1.878822 0.000000 0.000000 0.000000
0.423790 1.984155 1.939029 0.000000 0.000000 0.000000
0.464681 1.999487 1.859420 0.000000 0.000000 0.000000
0.468169 2.011124 1.848075 0.000000 0.000000 0.000000
0.433098 1.970160 1.938440 0.000000 0.000000 0.000000
0.469392 2.001981 1.853021 0.000000 0.000000 0.000000
0.451685 2.003858 1.850342 0.000000 0.000000 0.000000
0.471973 2.000124 1.852053 0.000000 0.000000 0.000000
0.457414 1.999138 1.851587 0.000000 0.000000 0.000000
0.400852 1.985261 1.900592 0.000000 0.000000 0.000000
0.431968 2.010558 1.864914 0.000000 0.000000 0.000000
0.413317 1.985703 1.888411 0.000000 0.000000 0.000000
0.416074 1.989162 1.879456 0.000000 0.000000 0.000000
0.415408 1.983938 1.881073 0.000000 0.000000 0.000000
0.418809 1.994914 1.875133 0.000000 0.000000 0.000000
0.408273 1.976691 1.892931 0.000000 0.000000 0.000000
0.416521 1.976528 1.886090 0.000000 0.000000 0.000000
0.418319 1.982660 1.879072 0.000000 0.000000 0.000000
0.411794 2.006495 1.871559 0.000000 0.000000 0.000000
0.418714 1.985665 1.886305 0.000000 0.000000 0.000000
0.418098 1.998729 1.880147 0.000000 0.000000 0.000000
0.413272 1.989554 1.884104 0.000000 0.000000 0.000000
0.414319 1.989035 1.880681 0.000000 0.000000 0.000000
0.421093 1.981877 1.885269 0.000000 0.000000 0.000000
0.425044 1.980859 1.884330 0.000000 0.000000 0.000000
0.414440 1.986962 1.881397 0.000000 0.000000 0.000000
0.424213 1.970315 1.891589 0.000000 0.000000 0.000000
0.416508 1.993167 1.874781 0.000000 0.000000 0.000000
0.414791 1.971109 1.893961 0.000000 0.000000 0.000000
0.415320 1.979217 1.883537 0.000000 0.000000 0.000000
0.424281 1.986190 1.874198 0.000000 0.000000 0.000000
0.421095 2.015097 1.859948 0.000000 0.000000 0.000000
0.413881 1.981850 1.887159 0.000000 0.000000 0.000000
0.414105 2.004910 1.875511 0.000000 0.000000 0.000000
0.420227 1.978916 1.907207 0.000000 0.000000 0.000000
0.473917 1.990413 1.855022 0.000000 0.000000 0.000000
0.463956 1.961523 1.893144 0.000000 0.000000 0.000000
0.470510 1.983552 1.864848 0.000000 0.000000 0.000000
0.466702 1.966729 1.889845 0.000000 0.000000 0.000000
0.464970 1.966549 1.886450 0.000000 0.000000 0.000000
0.468042 1.982797 1.872791 0.000000 0.000000 0.000000
0.467215 1.969643 1.882057 0.000000 0.000000 0.000000
0.462355 1.967485 1.882613 0.000000 0.000000 0.000000
0.438221 1.989933 1.882934 0.000000 0.000000 0.000000
0.466551 1.987903 1.871600 0.000000 0.000000 0.000000
0.474434 1.985644 1.864512 0.000000 0.000000 0.000000
0.463545 1.986604 1.875533 0.000000 0.000000 0.000000
0.425065 1.996205 1.881252 0.000000 0.000000 0.000000
0.414818 2.001438 1.878611 0.000000 0.000000 0.000000
0.432348 1.985601 1.890193 0.000000 0.000000 0.000000
0.467965 1.980555 1.872444 0.000000 0.000000 0.000000
0.471745 1.979728 1.871671 0.000000 0.000000 0.000000
0.470786 1.979420 1.872297 0.000000 0.000000 0.000000
0.425145 1.974687 1.892565 0.000000 0.000000 0.000000
0.437582 2.013536 1.863908 0.000000 0.000000 0.000000
0.466911 2.003730 1.856566 0.000000 0.000000 0.000000
0.476025 1.982630 1.861530 0.000000 0.000000 0.000000
0.419025 1.980816 1.935037 0.000000 0.000000 0.000000
0.428902 1.976098 1.942075 0.000000 0.000000 0.000000
0.438259 1.965438 1.936751 0.000000 0.000000 0.000000
0.464121 1.971472 1.875022 0.000000 0.000000 0.000000
0.471228 1.984882 1.861294 0.000000 0.000000 0.000000
0.434995 1.963045 1.896467 0.000000 0.000000 0.000000
0.444471 1.987969 1.860680 0.000000 0.000000 0.000000
0.454883 1.973339 1.873751 0.000000 0.000000 0.000000
0.459847 1.977420 1.873073 0.000000 0.000000 0.000000
0.465848 1.969461 1.881248 0.000000 0.000000 0.000000
0.445763 1.988740 1.864080 0.000000 0.000000 0.000000
0.450357 1.966695 1.884671 0.000000 0.000000 0.000000
0.432703 1.968463 1.935233 0.000000 0.000000 0.000000
0.426540 1.973772 1.938866 0.000000 0.000000 0.000000
0.433307 1.972585 1.876807 0.000000 0.000000 0.000000
0.430176 1.973258 1.881522 0.000000 0.000000 0.000000
0.404014 1.972739 1.903611 0.000000 0.000000 0.000000
0.451683 1.970322 1.880090 0.000000 0.000000 0.000000
0.441069 1.987920 1.865234 0.000000 0.000000 0.000000
0.417865 1.979081 1.890776 0.000000 0.000000 0.000000
0.460710 1.985374 1.863414 0.000000 0.000000 0.000000
0.428810 1.993376 1.864701 0.000000 0.000000 0.000000
0.450370 1.971337 1.878660 0.000000 0.000000 0.000000
0.435644 1.981281 1.872501 0.000000 0.000000 0.000000
0.446862 1.992618 1.862054 0.000000 0.000000 0.000000
0.447167 1.979833 1.869932 0.000000 0.000000 0.000000
0.441129 1.991993 1.861947 0.000000 0.000000 0.000000
0.469371 1.976336 1.871655 0.000000 0.000000 0.000000
0.421424 1.976600 1.933535 0.000000 0.000000 0.000000
0.428618 1.969726 1.935306 0.000000 0.000000 0.000000
0.421221 1.982256 1.938678 0.000000 0.000000 0.000000
0.416314 1.986329 1.932976 0.000000 0.000000 0.000000
0.421287 1.977076 1.932149 0.000000 0.000000 0.000000
0.425422 1.977021 1.938612 0.000000 0.000000 0.000000
0.417324 1.983229 1.932269 0.000000 0.000000 0.000000
0.417316 1.979648 1.930501 0.000000 0.000000 0.000000
0.412259 1.998915 1.885264 0.000000 0.000000 0.000000
0.414199 1.983222 1.928364 0.000000 0.000000 0.000000
0.413250 1.985204 1.931715 0.000000 0.000000 0.000000
0.426049 1.999303 1.868262 0.000000 0.000000 0.000000
0.461627 2.020600 1.841360 0.000000 0.000000 0.000000
0.446913 2.019084 1.854180 0.000000 0.000000 0.000000
0.436819 2.027863 1.852888 0.000000 0.000000 0.000000
0.440718 2.026986 1.853630 0.000000 0.000000 0.000000
0.444779 2.025283 1.849142 0.000000 0.000000 0.000000
0.440799 2.023368 1.856137 0.000000 0.000000 0.000000
0.446283 2.026602 1.852770 0.000000 0.000000 0.000000
0.437429 2.024521 1.855749 0.000000 0.000000 0.000000
