ply
format ascii 1.0
comment VCGLIB generated
obj_info Generated by SPFormer!
element vertex 123
property float x
property float y
property float z
property float nx
property float ny
property float nz
end_header
0.671678 0.865457 1.606380 0.000000 0.000000 0.000000
0.673735 0.856849 1.615055 0.000000 0.000000 0.000000
0.662762 0.870045 1.631127 0.000000 0.000000 0.000000
0.663202 0.849726 1.619557 0.000000 0.000000 0.000000
0.668862 0.856590 1.626196 0.000000 0.000000 0.000000
0.670842 0.860054 1.613836 0.000000 0.000000 0.000000
0.665159 0.851037 1.622163 0.000000 0.000000 0.000000
0.657207 0.863174 1.612329 0.000000 0.000000 0.000000
0.675266 0.851116 1.625652 0.000000 0.000000 0.000000
0.679167 0.859281 1.605855 0.000000 0.000000 0.000000
0.674657 0.848851 1.632172 0.000000 0.000000 0.000000
0.670774 0.851971 1.626639 0.000000 0.000000 0.000000
0.676750 0.856119 1.623595 0.000000 0.000000 0.000000
0.649351 0.865369 1.606315 0.000000 0.000000 0.000000
0.663045 0.850758 1.615960 0.000000 0.000000 0.000000
0.647189 0.873250 1.603541 0.000000 0.000000 0.000000
0.657287 0.861586 1.610246 0.000000 0.000000 0.000000
0.679426 0.854052 1.632168 0.000000 0.000000 0.000000
0.671265 0.862813 1.608732 0.000000 0.000000 0.000000
0.641196 0.871866 1.600190 0.000000 0.000000 0.000000
0.671619 0.860791 1.612551 0.000000 0.000000 0.000000
0.664373 0.857282 1.617814 0.000000 0.000000 0.000000
0.675204 0.862905 1.607093 0.000000 0.000000 0.000000
0.669587 0.853788 1.620451 0.000000 0.000000 0.000000
0.666069 0.858318 1.612520 0.000000 0.000000 0.000000
0.654801 0.856798 1.606855 0.000000 0.000000 0.000000
0.846366 0.924234 2.079837 0.000000 0.000000 0.000000
0.655998 0.871108 1.608029 0.000000 0.000000 0.000000
0.874235 0.069624 1.317683 0.000000 0.000000 0.000000
0.676885 0.843956 1.630726 0.000000 0.000000 0.000000
0.671752 0.849227 1.625926 0.000000 0.000000 0.000000
0.657842 0.860366 1.612537 0.000000 0.000000 0.000000
0.656445 0.861737 1.611836 0.000000 0.000000 0.000000
0.644887 0.871031 1.601934 0.000000 0.000000 0.000000
0.651044 0.868356 1.605140 0.000000 0.000000 0.000000
0.660024 0.848239 1.614196 0.000000 0.000000 0.000000
0.670302 0.863685 1.612806 0.000000 0.000000 0.000000
0.661970 0.852609 1.619752 0.000000 0.000000 0.000000
0.663119 0.851683 1.629235 0.000000 0.000000 0.000000
0.670157 0.852862 1.614719 0.000000 0.000000 0.000000
0.674486 0.858680 1.619823 0.000000 0.000000 0.000000
0.642331 0.871163 1.600993 0.000000 0.000000 0.000000
0.651158 0.876421 1.603265 0.000000 0.000000 0.000000
0.671104 0.856394 1.614959 0.000000 0.000000 0.000000
0.650072 0.864705 1.609410 0.000000 0.000000 0.000000
0.653663 0.868096 1.606846 0.000000 0.000000 0.000000
0.658781 0.859111 1.616803 0.000000 0.000000 0.000000
0.642962 0.879043 1.600650 0.000000 0.000000 0.000000
0.645800 0.865585 1.603103 0.000000 0.000000 0.000000
0.644862 0.871993 1.602892 0.000000 0.000000 0.000000
0.648872 0.869660 1.604789 0.000000 0.000000 0.000000
0.662039 0.859783 1.614466 0.000000 0.000000 0.000000
0.655068 0.860523 1.612457 0.000000 0.000000 0.000000
0.659021 0.859317 1.614394 0.000000 0.000000 0.000000
0.652954 0.864569 1.610662 0.000000 0.000000 0.000000
0.644398 0.868529 1.604291 0.000000 0.000000 0.000000
0.650070 0.868385 1.606342 0.000000 0.000000 0.000000
0.660506 0.851495 1.619536 0.000000 0.000000 0.000000
0.675128 0.855091 1.615206 0.000000 0.000000 0.000000
0.650055 0.865264 1.606569 0.000000 0.000000 0.000000
0.649153 0.864295 1.606675 0.000000 0.000000 0.000000
0.873897 0.077225 1.312757 0.000000 0.000000 0.000000
0.876427 0.070936 1.318796 0.000000 0.000000 0.000000
0.876054 0.069996 1.319224 0.000000 0.000000 0.000000
0.641250 0.873090 1.601263 0.000000 0.000000 0.000000
0.650278 0.864060 1.603983 0.000000 0.000000 0.000000
0.654726 0.861682 1.607173 0.000000 0.000000 0.000000
0.874928 0.078035 1.316030 0.000000 0.000000 0.000000
0.644169 0.869215 1.601472 0.000000 0.000000 0.000000
0.873042 0.079909 1.315394 0.000000 0.000000 0.000000
0.875464 0.072950 1.318505 0.000000 0.000000 0.000000
0.675971 0.859124 1.611168 0.000000 0.000000 0.000000
0.672270 0.855768 1.617076 0.000000 0.000000 0.000000
0.679734 0.855550 1.610939 0.000000 0.000000 0.000000
0.875040 0.065875 1.319785 0.000000 0.000000 0.000000
0.878051 0.065550 1.317088 0.000000 0.000000 0.000000
0.878506 0.058084 1.319935 0.000000 0.000000 0.000000
0.875485 0.076409 1.316674 0.000000 0.000000 0.000000
0.872924 0.072991 1.314724 0.000000 0.000000 0.000000
0.876577 0.070154 1.315297 0.000000 0.000000 0.000000
0.649355 0.864847 1.605223 0.000000 0.000000 0.000000
0.931295 0.040555 1.352635 0.000000 0.000000 0.000000
0.929694 0.041034 1.349958 0.000000 0.000000 0.000000
0.946590 0.042262 1.359133 0.000000 0.000000 0.000000
0.940329 0.040597 1.359945 0.000000 0.000000 0.000000
0.939038 0.041777 1.356938 0.000000 0.000000 0.000000
0.921208 0.040661 1.347332 0.000000 0.000000 0.000000
0.933700 0.075643 1.357326 0.000000 0.000000 0.000000
0.923077 0.075548 1.351028 0.000000 0.000000 0.000000
0.928534 0.068338 1.357069 0.000000 0.000000 0.000000
0.922636 0.071310 1.357464 0.000000 0.000000 0.000000
0.920151 0.079543 1.346033 0.000000 0.000000 0.000000
0.661021 0.846442 1.632517 0.000000 0.000000 0.000000
0.659310 0.841930 1.617725 0.000000 0.000000 0.000000
0.649955 0.842565 1.631760 0.000000 0.000000 0.000000
0.654927 0.844149 1.614852 0.000000 0.000000 0.000000
0.664711 0.850139 1.632036 0.000000 0.000000 0.000000
0.655921 0.842652 1.620355 0.000000 0.000000 0.000000
0.646763 0.854955 1.639284 0.000000 0.000000 0.000000
0.648149 0.848609 1.623968 0.000000 0.000000 0.000000
0.646621 0.846588 1.626390 0.000000 0.000000 0.000000
0.656418 0.847162 1.622289 0.000000 0.000000 0.000000
0.654421 0.850096 1.633342 0.000000 0.000000 0.000000
0.649236 0.850375 1.631059 0.000000 0.000000 0.000000
0.640997 0.848518 1.624548 0.000000 0.000000 0.000000
0.650381 0.843549 1.620504 0.000000 0.000000 0.000000
0.650515 0.848366 1.623537 0.000000 0.000000 0.000000
0.653404 0.846625 1.636910 0.000000 0.000000 0.000000
0.662276 0.842133 1.631122 0.000000 0.000000 0.000000
0.645219 0.852653 1.632659 0.000000 0.000000 0.000000
0.657958 0.842593 1.621815 0.000000 0.000000 0.000000
0.654046 0.841301 1.623760 0.000000 0.000000 0.000000
0.660872 0.847578 1.618983 0.000000 0.000000 0.000000
0.643475 0.849433 1.625430 0.000000 0.000000 0.000000
0.641837 0.851153 1.625371 0.000000 0.000000 0.000000
0.659720 0.860716 1.635974 0.000000 0.000000 0.000000
0.656006 0.842264 1.625610 0.000000 0.000000 0.000000
0.645486 0.851210 1.623925 0.000000 0.000000 0.000000
0.641521 0.851637 1.621957 0.000000 0.000000 0.000000
0.671108 0.871659 1.602359 0.000000 0.000000 0.000000
0.674111 0.877520 1.601859 0.000000 0.000000 0.000000
0.679482 0.864144 1.605635 0.000000 0.000000 0.000000
0.668915 0.874469 1.604326 0.000000 0.000000 0.000000
