ply
format ascii 1.0
comment VCGLIB generated
obj_info Generated by SPFormer!
element vertex 536
property float x
property float y
property float z
property float nx
property float ny
property float nz
end_header
0.921815 0.063491 0.792266 0.000000 0.000000 0.000000
0.919548 0.061937 0.778068 0.000000 0.000000 0.000000
0.952841 0.034446 0.780064 0.000000 0.000000 0.000000
0.928993 0.042450 0.772187 0.000000 0.000000 0.000000
0.952847 0.036245 0.756090 0.000000 0.000000 0.000000
0.927141 0.057699 0.782991 0.000000 0.000000 0.000000
0.956351 0.042874 0.775599 0.000000 0.000000 0.000000
0.955506 0.043523 0.765565 0.000000 0.000000 0.000000
0.911163 0.049291 0.779958 0.000000 0.000000 0.000000
0.946830 0.037030 0.753944 0.000000 0.000000 0.000000
0.953408 0.043048 0.764695 0.000000 0.000000 0.000000
0.916497 0.066769 0.792117 0.000000 0.000000 0.000000
0.928417 0.068618 0.795893 0.000000 0.000000 0.000000
0.924890 0.054228 0.774338 0.000000 0.000000 0.000000
0.909824 0.062568 0.793693 0.000000 0.000000 0.000000
0.958416 0.031034 0.757252 0.000000 0.000000 0.000000
0.960528 0.038190 0.765735 0.000000 0.000000 0.000000
0.956916 0.040462 0.757895 0.000000 0.000000 0.000000
0.926028 0.055067 0.774935 0.000000 0.000000 0.000000
0.910305 0.043665 0.775547 0.000000 0.000000 0.000000
0.953252 0.036139 0.773164 0.000000 0.000000 0.000000
0.958668 0.026449 0.761173 0.000000 0.000000 0.000000
0.923956 0.065081 0.807822 0.000000 0.000000 0.000000
0.921266 0.065765 0.791708 0.000000 0.000000 0.000000
0.955838 0.034755 0.756374 0.000000 0.000000 0.000000
0.926435 0.049073 0.768456 0.000000 0.000000 0.000000
0.957083 0.034580 0.756505 0.000000 0.000000 0.000000
0.912693 0.060620 0.794590 0.000000 0.000000 0.000000
0.961685 0.033320 0.769565 0.000000 0.000000 0.000000
0.963960 0.034200 0.751468 0.000000 0.000000 0.000000
0.929876 0.053108 0.777787 0.000000 0.000000 0.000000
0.957600 0.037741 0.748210 0.000000 0.000000 0.000000
0.929987 0.060170 0.785898 0.000000 0.000000 0.000000
0.959708 0.028301 0.764167 0.000000 0.000000 0.000000
0.929025 0.059942 0.783774 0.000000 0.000000 0.000000
0.920938 0.057162 0.770671 0.000000 0.000000 0.000000
0.932230 0.037863 0.782555 0.000000 0.000000 0.000000
0.925421 0.062584 0.814737 0.000000 0.000000 0.000000
0.957790 0.031095 0.758527 0.000000 0.000000 0.000000
0.926340 0.056051 0.785536 0.000000 0.000000 0.000000
0.923400 0.049515 0.782681 0.000000 0.000000 0.000000
0.910056 0.054891 0.781269 0.000000 0.000000 0.000000
0.959236 0.026922 0.762237 0.000000 0.000000 0.000000
0.928458 0.043966 0.780256 0.000000 0.000000 0.000000
0.949446 0.030641 0.772341 0.000000 0.000000 0.000000
0.926486 0.060486 0.797077 0.000000 0.000000 0.000000
0.965455 0.038243 0.781882 0.000000 0.000000 0.000000
0.954293 0.034419 0.762795 0.000000 0.000000 0.000000
0.957001 0.029287 0.767337 0.000000 0.000000 0.000000
0.955919 0.046922 0.791519 0.000000 0.000000 0.000000
0.920202 0.072626 0.804788 0.000000 0.000000 0.000000
0.969588 0.043298 0.779541 0.000000 0.000000 0.000000
0.951631 0.031382 0.766882 0.000000 0.000000 0.000000
0.928775 0.064871 0.797819 0.000000 0.000000 0.000000
0.905774 0.060365 0.797492 0.000000 0.000000 0.000000
0.958536 0.072899 0.838522 0.000000 0.000000 0.000000
0.958277 0.038125 0.747598 0.000000 0.000000 0.000000
0.920130 0.062499 0.786706 0.000000 0.000000 0.000000
0.927743 0.064763 0.791899 0.000000 0.000000 0.000000
0.932780 0.069649 0.792340 0.000000 0.000000 0.000000
0.966997 0.049374 0.785494 0.000000 0.000000 0.000000
0.924774 0.057362 0.796666 0.000000 0.000000 0.000000
0.927999 0.062877 0.793547 0.000000 0.000000 0.000000
0.918751 0.058990 0.776008 0.000000 0.000000 0.000000
0.916179 0.045603 0.769903 0.000000 0.000000 0.000000
0.916755 0.050172 0.783394 0.000000 0.000000 0.000000
0.961370 0.042376 0.791507 0.000000 0.000000 0.000000
0.925389 0.069615 0.799225 0.000000 0.000000 0.000000
0.928608 0.040679 0.781070 0.000000 0.000000 0.000000
0.957318 0.035420 0.746128 0.000000 0.000000 0.000000
0.928841 0.056010 0.786882 0.000000 0.000000 0.000000
0.931686 0.040569 0.770292 0.000000 0.000000 0.000000
0.956545 0.029342 0.760423 0.000000 0.000000 0.000000
0.909638 0.062447 0.789551 0.000000 0.000000 0.000000
0.918796 0.052252 0.776856 0.000000 0.000000 0.000000
0.969351 0.046977 0.789996 0.000000 0.000000 0.000000
0.954879 0.046695 0.798651 0.000000 0.000000 0.000000
0.958885 0.042637 0.752393 0.000000 0.000000 0.000000
0.957355 0.031777 0.757046 0.000000 0.000000 0.000000
0.959088 0.062028 0.815335 0.000000 0.000000 0.000000
0.918275 0.051306 0.795162 0.000000 0.000000 0.000000
0.925383 0.055363 0.779942 0.000000 0.000000 0.000000
0.924626 0.062264 0.803096 0.000000 0.000000 0.000000
0.919106 0.037627 0.784389 0.000000 0.000000 0.000000
0.952844 0.033118 0.778814 0.000000 0.000000 0.000000
0.923908 0.059848 0.783822 0.000000 0.000000 0.000000
0.954577 0.047789 0.803128 0.000000 0.000000 0.000000
0.920755 0.064978 0.810202 0.000000 0.000000 0.000000
0.918395 0.055830 0.774680 0.000000 0.000000 0.000000
0.963192 0.035514 0.757519 0.000000 0.000000 0.000000
0.912413 0.067285 0.799981 0.000000 0.000000 0.000000
0.916305 0.051778 0.797354 0.000000 0.000000 0.000000
0.927029 0.062022 0.784283 0.000000 0.000000 0.000000
0.972481 0.072956 0.795710 0.000000 0.000000 0.000000
0.962729 0.030286 0.761325 0.000000 0.000000 0.000000
0.909143 0.058065 0.798327 0.000000 0.000000 0.000000
0.961915 0.035414 0.763029 0.000000 0.000000 0.000000
0.916418 0.063380 0.784884 0.000000 0.000000 0.000000
0.933922 0.046445 0.787278 0.000000 0.000000 0.000000
0.924363 0.052451 0.770028 0.000000 0.000000 0.000000
0.924720 0.057276 0.798610 0.000000 0.000000 0.000000
0.928016 0.040049 0.775147 0.000000 0.000000 0.000000
0.948949 0.029182 0.764968 0.000000 0.000000 0.000000
0.960455 0.031600 0.758975 0.000000 0.000000 0.000000
0.917773 0.053784 0.780186 0.000000 0.000000 0.000000
0.980534 0.074929 0.797715 0.000000 0.000000 0.000000
0.959179 0.045702 0.797337 0.000000 0.000000 0.000000
0.956953 0.040055 0.782727 0.000000 0.000000 0.000000
0.962714 0.034610 0.765707 0.000000 0.000000 0.000000
0.959173 0.047839 0.806016 0.000000 0.000000 0.000000
0.920404 0.058514 0.797132 0.000000 0.000000 0.000000
0.952455 0.052849 0.820483 0.000000 0.000000 0.000000
0.955310 0.045628 0.776545 0.000000 0.000000 0.000000
0.971244 0.078512 0.785923 0.000000 0.000000 0.000000
0.968632 0.043983 0.794574 0.000000 0.000000 0.000000
0.952381 0.040970 0.764623 0.000000 0.000000 0.000000
0.955691 0.045163 0.782682 0.000000 0.000000 0.000000
0.952809 0.035850 0.773622 0.000000 0.000000 0.000000
0.981000 0.060309 0.798257 0.000000 0.000000 0.000000
0.960707 0.041257 0.782281 0.000000 0.000000 0.000000
0.971366 0.078317 0.797442 0.000000 0.000000 0.000000
0.921958 0.056233 0.769559 0.000000 0.000000 0.000000
0.915134 0.058700 0.773634 0.000000 0.000000 0.000000
0.930802 0.042153 0.763051 0.000000 0.000000 0.000000
0.961044 0.039052 0.779703 0.000000 0.000000 0.000000
0.951787 0.077172 0.838607 0.000000 0.000000 0.000000
0.949143 0.033397 0.764904 0.000000 0.000000 0.000000
0.954595 0.029124 0.757806 0.000000 0.000000 0.000000
0.964175 0.032686 0.769633 0.000000 0.000000 0.000000
0.951942 0.028752 0.764462 0.000000 0.000000 0.000000
0.910415 0.046243 0.772043 0.000000 0.000000 0.000000
0.947936 0.048221 0.789274 0.000000 0.000000 0.000000
0.913316 0.053188 0.778610 0.000000 0.000000 0.000000
0.909418 0.055560 0.784447 0.000000 0.000000 0.000000
0.956335 0.026580 0.758772 0.000000 0.000000 0.000000
0.961668 0.028483 0.759154 0.000000 0.000000 0.000000
0.932375 0.057838 0.793988 0.000000 0.000000 0.000000
0.915817 0.051510 0.784503 0.000000 0.000000 0.000000
0.948740 0.033202 0.752780 0.000000 0.000000 0.000000
0.953423 0.041523 0.759986 0.000000 0.000000 0.000000
0.956066 0.039884 0.755466 0.000000 0.000000 0.000000
0.927624 0.046691 0.765754 0.000000 0.000000 0.000000
0.908747 0.060895 0.799147 0.000000 0.000000 0.000000
0.957293 0.038032 0.762003 0.000000 0.000000 0.000000
0.928257 0.058521 0.785780 0.000000 0.000000 0.000000
0.933400 0.048874 0.777163 0.000000 0.000000 0.000000
0.924575 0.048551 0.768384 0.000000 0.000000 0.000000
0.913871 0.059624 0.778808 0.000000 0.000000 0.000000
0.929399 0.044555 0.770043 0.000000 0.000000 0.000000
0.913388 0.059767 0.790439 0.000000 0.000000 0.000000
0.957484 0.041768 0.760119 0.000000 0.000000 0.000000
0.955749 0.039580 0.789575 0.000000 0.000000 0.000000
0.954775 0.028465 0.760562 0.000000 0.000000 0.000000
0.963680 0.053795 0.791967 0.000000 0.000000 0.000000
0.960734 0.040380 0.769923 0.000000 0.000000 0.000000
0.962637 0.032654 0.765996 0.000000 0.000000 0.000000
0.953653 0.030760 0.761682 0.000000 0.000000 0.000000
0.955776 0.042772 0.794898 0.000000 0.000000 0.000000
0.958396 0.040893 0.763128 0.000000 0.000000 0.000000
0.926508 0.049136 0.776809 0.000000 0.000000 0.000000
0.947101 0.028612 0.766390 0.000000 0.000000 0.000000
0.946215 0.025237 0.762477 0.000000 0.000000 0.000000
0.928420 0.059474 0.787688 0.000000 0.000000 0.000000
0.922697 0.076470 0.808921 0.000000 0.000000 0.000000
0.920898 0.063957 0.790552 0.000000 0.000000 0.000000
0.926420 0.047346 0.779390 0.000000 0.000000 0.000000
0.973762 0.057957 0.798134 0.000000 0.000000 0.000000
0.953644 0.032501 0.756611 0.000000 0.000000 0.000000
0.919317 0.059639 0.779922 0.000000 0.000000 0.000000
0.930355 0.037053 0.777559 0.000000 0.000000 0.000000
0.927884 0.047773 0.772840 0.000000 0.000000 0.000000
0.972114 0.046910 0.793623 0.000000 0.000000 0.000000
0.950420 0.038314 0.757531 0.000000 0.000000 0.000000
0.955831 0.051918 0.806351 0.000000 0.000000 0.000000
0.958514 0.054817 0.792475 0.000000 0.000000 0.000000
0.916878 0.043039 0.788533 0.000000 0.000000 0.000000
0.928434 0.039017 0.774467 0.000000 0.000000 0.000000
0.956835 0.046455 0.781727 0.000000 0.000000 0.000000
0.921277 0.052041 0.773792 0.000000 0.000000 0.000000
0.918157 0.064779 0.788800 0.000000 0.000000 0.000000
0.957538 0.057696 0.808632 0.000000 0.000000 0.000000
0.954683 0.058668 0.814070 0.000000 0.000000 0.000000
0.934124 0.050327 0.795357 0.000000 0.000000 0.000000
0.910327 0.053092 0.790554 0.000000 0.000000 0.000000
0.923962 0.063544 0.802375 0.000000 0.000000 0.000000
0.912553 0.047483 0.774600 0.000000 0.000000 0.000000
0.924196 0.041413 0.778869 0.000000 0.000000 0.000000
0.992651 0.077960 0.798328 0.000000 0.000000 0.000000
0.928155 0.041087 0.772902 0.000000 0.000000 0.000000
0.955498 0.032424 0.778761 0.000000 0.000000 0.000000
0.921811 0.043558 0.788937 0.000000 0.000000 0.000000
0.914135 0.054447 0.779279 0.000000 0.000000 0.000000
0.915500 0.066887 0.798988 0.000000 0.000000 0.000000
0.911379 0.062867 0.787978 0.000000 0.000000 0.000000
0.913152 0.052124 0.786460 0.000000 0.000000 0.000000
0.903391 0.050507 0.788979 0.000000 0.000000 0.000000
0.957427 0.049266 0.806493 0.000000 0.000000 0.000000
0.949980 0.032084 0.756285 0.000000 0.000000 0.000000
0.952202 0.037174 0.760143 0.000000 0.000000 0.000000
0.959812 0.035298 0.775931 0.000000 0.000000 0.000000
0.915798 0.072006 0.792055 0.000000 0.000000 0.000000
0.920221 0.053142 0.786488 0.000000 0.000000 0.000000
0.917932 0.058636 0.775588 0.000000 0.000000 0.000000
0.920300 0.063642 0.816660 0.000000 0.000000 0.000000
0.909767 0.067415 0.788385 0.000000 0.000000 0.000000
0.914474 0.067455 0.789854 0.000000 0.000000 0.000000
0.922255 0.046820 0.779660 0.000000 0.000000 0.000000
0.922754 0.057276 0.774215 0.000000 0.000000 0.000000
0.920227 0.049030 0.774882 0.000000 0.000000 0.000000
0.950549 0.029441 0.763350 0.000000 0.000000 0.000000
0.967614 0.048253 0.792570 0.000000 0.000000 0.000000
0.960392 0.039499 0.790300 0.000000 0.000000 0.000000
0.916559 0.060834 0.791374 0.000000 0.000000 0.000000
0.909484 0.053034 0.782602 0.000000 0.000000 0.000000
0.960723 0.029129 0.768097 0.000000 0.000000 0.000000
0.962422 0.034716 0.779451 0.000000 0.000000 0.000000
0.959796 0.020656 0.763202 0.000000 0.000000 0.000000
0.961073 0.039059 0.786627 0.000000 0.000000 0.000000
0.962289 0.031144 0.772445 0.000000 0.000000 0.000000
0.956345 0.067386 0.828910 0.000000 0.000000 0.000000
0.988600 0.079695 0.796306 0.000000 0.000000 0.000000
0.959007 0.059102 0.806966 0.000000 0.000000 0.000000
0.976790 0.071150 0.792883 0.000000 0.000000 0.000000
0.927222 0.032970 0.779160 0.000000 0.000000 0.000000
0.961366 0.046292 0.795048 0.000000 0.000000 0.000000
0.957219 0.053117 0.809773 0.000000 0.000000 0.000000
0.958124 0.057253 0.814947 0.000000 0.000000 0.000000
0.970753 0.071011 0.799327 0.000000 0.000000 0.000000
0.965725 0.039770 0.792108 0.000000 0.000000 0.000000
0.962753 0.050541 0.795370 0.000000 0.000000 0.000000
0.953098 0.037147 0.761659 0.000000 0.000000 0.000000
0.958805 0.031139 0.760034 0.000000 0.000000 0.000000
0.935694 0.058514 0.789254 0.000000 0.000000 0.000000
0.939977 0.061404 0.796135 0.000000 0.000000 0.000000
0.963585 0.040006 0.791892 0.000000 0.000000 0.000000
0.951703 0.029812 0.759117 0.000000 0.000000 0.000000
0.954582 0.030469 0.769041 0.000000 0.000000 0.000000
0.961447 0.050645 0.787357 0.000000 0.000000 0.000000
0.965782 0.037679 0.778530 0.000000 0.000000 0.000000
0.992378 0.079005 0.790996 0.000000 0.000000 0.000000
0.968087 0.042293 0.788011 0.000000 0.000000 0.000000
0.969157 0.044490 0.793960 0.000000 0.000000 0.000000
0.966661 0.043712 0.796692 0.000000 0.000000 0.000000
0.951650 0.050093 0.805944 0.000000 0.000000 0.000000
0.965830 0.050656 0.796123 0.000000 0.000000 0.000000
0.956504 0.054826 0.796668 0.000000 0.000000 0.000000
0.937821 0.040872 0.758722 0.000000 0.000000 0.000000
0.953140 0.030091 0.764191 0.000000 0.000000 0.000000
0.956262 0.027676 0.765030 0.000000 0.000000 0.000000
0.962481 0.042604 0.790888 0.000000 0.000000 0.000000
0.950171 0.062678 0.827544 0.000000 0.000000 0.000000
0.956125 0.031678 0.774373 0.000000 0.000000 0.000000
0.962771 0.028058 0.767408 0.000000 0.000000 0.000000
0.965599 0.028168 0.760974 0.000000 0.000000 0.000000
0.915718 0.065159 0.796443 0.000000 0.000000 0.000000
0.927130 0.043988 0.768758 0.000000 0.000000 0.000000
0.928749 0.043071 0.765044 0.000000 0.000000 0.000000
0.953812 0.047189 0.767753 0.000000 0.000000 0.000000
0.909846 0.054830 0.782840 0.000000 0.000000 0.000000
0.913220 0.049877 0.776743 0.000000 0.000000 0.000000
0.922706 0.046066 0.771957 0.000000 0.000000 0.000000
0.919246 0.047034 0.771583 0.000000 0.000000 0.000000
0.916891 0.051712 0.782333 0.000000 0.000000 0.000000
0.920589 0.047393 0.771422 0.000000 0.000000 0.000000
0.923332 0.042208 0.781832 0.000000 0.000000 0.000000
0.931341 0.067000 0.793730 0.000000 0.000000 0.000000
0.994814 0.079036 0.793617 0.000000 0.000000 0.000000
0.956492 0.034070 0.771627 0.000000 0.000000 0.000000
0.961996 0.027640 0.762858 0.000000 0.000000 0.000000
0.906198 0.051929 0.784268 0.000000 0.000000 0.000000
0.969005 0.076782 0.795315 0.000000 0.000000 0.000000
0.947858 0.076182 0.834942 0.000000 0.000000 0.000000
0.956866 0.030345 0.763848 0.000000 0.000000 0.000000
0.953793 0.031970 0.758673 0.000000 0.000000 0.000000
0.925687 0.055370 0.772312 0.000000 0.000000 0.000000
0.978473 0.054184 0.797457 0.000000 0.000000 0.000000
0.957992 0.025409 0.760653 0.000000 0.000000 0.000000
0.925163 0.057480 0.771126 0.000000 0.000000 0.000000
0.928759 0.045793 0.766189 0.000000 0.000000 0.000000
0.954545 0.038449 0.797665 0.000000 0.000000 0.000000
0.955141 0.027732 0.768294 0.000000 0.000000 0.000000
0.920055 0.063669 0.799744 0.000000 0.000000 0.000000
0.995615 0.078524 0.793093 0.000000 0.000000 0.000000
0.955910 0.023611 0.761556 0.000000 0.000000 0.000000
0.962835 0.030774 0.759074 0.000000 0.000000 0.000000
0.911532 0.060014 0.791672 0.000000 0.000000 0.000000
0.923127 0.071067 0.816887 0.000000 0.000000 0.000000
0.924715 0.066744 0.794433 0.000000 0.000000 0.000000
0.910952 0.057621 0.793609 0.000000 0.000000 0.000000
0.911866 0.061062 0.784565 0.000000 0.000000 0.000000
0.916515 0.057128 0.777768 0.000000 0.000000 0.000000
0.921976 0.060223 0.794420 0.000000 0.000000 0.000000
0.923422 0.060976 0.777692 0.000000 0.000000 0.000000
0.959893 0.067231 0.811128 0.000000 0.000000 0.000000
0.912102 0.066376 0.780070 0.000000 0.000000 0.000000
0.959116 0.074108 0.810313 0.000000 0.000000 0.000000
0.955691 0.078194 0.817720 0.000000 0.000000 0.000000
0.916457 0.067464 0.784815 0.000000 0.000000 0.000000
0.928352 0.056325 0.775358 0.000000 0.000000 0.000000
0.919648 0.043616 0.763269 0.000000 0.000000 0.000000
0.915900 0.061096 0.780213 0.000000 0.000000 0.000000
0.927617 0.042723 0.771465 0.000000 0.000000 0.000000
0.927007 0.042441 0.761549 0.000000 0.000000 0.000000
0.956864 0.024054 0.761884 0.000000 0.000000 0.000000
0.954057 0.024451 0.769721 0.000000 0.000000 0.000000
0.906712 0.045256 0.780824 0.000000 0.000000 0.000000
0.962213 0.028051 0.761131 0.000000 0.000000 0.000000
0.910360 0.056332 0.782398 0.000000 0.000000 0.000000
0.966127 0.051275 0.792731 0.000000 0.000000 0.000000
0.958416 0.060146 0.817421 0.000000 0.000000 0.000000
0.965978 0.041123 0.791557 0.000000 0.000000 0.000000
0.959079 0.038193 0.776546 0.000000 0.000000 0.000000
0.960574 0.035308 0.778643 0.000000 0.000000 0.000000
0.955899 0.046478 0.797659 0.000000 0.000000 0.000000
0.969974 0.046610 0.788820 0.000000 0.000000 0.000000
0.902913 0.047427 0.785544 0.000000 0.000000 0.000000
0.956382 0.044663 0.771016 0.000000 0.000000 0.000000
0.957334 0.046542 0.773744 0.000000 0.000000 0.000000
0.956626 0.065849 0.816510 0.000000 0.000000 0.000000
0.978395 0.066732 0.795276 0.000000 0.000000 0.000000
0.956891 0.074402 0.832529 0.000000 0.000000 0.000000
0.954617 0.063190 0.821881 0.000000 0.000000 0.000000
0.956773 0.048299 0.796964 0.000000 0.000000 0.000000
0.957608 0.049037 0.800973 0.000000 0.000000 0.000000
0.957393 0.068356 0.823673 0.000000 0.000000 0.000000
0.954313 0.066686 0.820172 0.000000 0.000000 0.000000
0.954711 0.057002 0.815218 0.000000 0.000000 0.000000
0.956115 0.073530 0.816862 0.000000 0.000000 0.000000
0.963552 0.038352 0.781659 0.000000 0.000000 0.000000
0.957158 0.075027 0.826203 0.000000 0.000000 0.000000
0.957292 0.057890 0.809992 0.000000 0.000000 0.000000
0.962140 0.048874 0.796675 0.000000 0.000000 0.000000
0.970743 0.075348 0.789513 0.000000 0.000000 0.000000
0.954325 0.075266 0.832734 0.000000 0.000000 0.000000
0.954427 0.068833 0.824976 0.000000 0.000000 0.000000
0.955187 0.052421 0.802564 0.000000 0.000000 0.000000
0.958595 0.057310 0.803154 0.000000 0.000000 0.000000
0.916316 0.045760 0.791692 0.000000 0.000000 0.000000
0.953079 0.035414 0.751036 0.000000 0.000000 0.000000
0.917440 0.051146 0.772867 0.000000 0.000000 0.000000
0.933720 0.050921 0.781783 0.000000 0.000000 0.000000
0.960669 0.023832 0.762716 0.000000 0.000000 0.000000
0.962808 0.048985 0.784461 0.000000 0.000000 0.000000
0.932961 0.057151 0.788753 0.000000 0.000000 0.000000
0.905147 0.056110 0.790746 0.000000 0.000000 0.000000
0.957888 0.054591 0.794728 0.000000 0.000000 0.000000
0.930127 0.047725 0.781979 0.000000 0.000000 0.000000
0.906250 0.054835 0.792160 0.000000 0.000000 0.000000
0.923609 0.051970 0.805350 0.000000 0.000000 0.000000
0.960760 0.033187 0.756610 0.000000 0.000000 0.000000
0.955505 0.060929 0.821404 0.000000 0.000000 0.000000
0.959744 0.025724 0.762481 0.000000 0.000000 0.000000
0.956657 0.044977 0.798420 0.000000 0.000000 0.000000
0.953104 0.037007 0.784938 0.000000 0.000000 0.000000
0.955074 0.042789 0.777951 0.000000 0.000000 0.000000
0.944306 0.071517 0.826441 0.000000 0.000000 0.000000
0.975015 0.066925 0.798936 0.000000 0.000000 0.000000
0.904309 0.057797 0.798418 0.000000 0.000000 0.000000
0.975164 0.062502 0.795011 0.000000 0.000000 0.000000
0.927294 0.052668 0.768560 0.000000 0.000000 0.000000
0.957529 0.055240 0.815068 0.000000 0.000000 0.000000
0.955169 0.054217 0.807094 0.000000 0.000000 0.000000
0.910855 0.052447 0.779442 0.000000 0.000000 0.000000
0.919211 0.047872 0.777926 0.000000 0.000000 0.000000
0.948699 0.079614 0.826246 0.000000 0.000000 0.000000
0.911327 0.052060 0.779027 0.000000 0.000000 0.000000
0.914902 0.050087 0.776962 0.000000 0.000000 0.000000
0.918365 0.049044 0.774412 0.000000 0.000000 0.000000
0.933465 0.058258 0.799887 0.000000 0.000000 0.000000
0.960418 0.033002 0.756255 0.000000 0.000000 0.000000
0.928599 0.068097 0.799591 0.000000 0.000000 0.000000
0.927941 0.042831 0.768112 0.000000 0.000000 0.000000
0.959485 0.072234 0.819221 0.000000 0.000000 0.000000
0.976632 0.066759 0.794598 0.000000 0.000000 0.000000
0.953908 0.042908 0.808098 0.000000 0.000000 0.000000
0.958880 0.042615 0.802731 0.000000 0.000000 0.000000
0.975256 0.060225 0.790735 0.000000 0.000000 0.000000
0.900452 0.059681 0.792062 0.000000 0.000000 0.000000
0.971593 0.042940 0.786521 0.000000 0.000000 0.000000
0.930544 0.064517 0.801172 0.000000 0.000000 0.000000
0.962784 0.033090 0.777161 0.000000 0.000000 0.000000
0.951398 0.032732 0.772328 0.000000 0.000000 0.000000
0.912249 0.058263 0.784844 0.000000 0.000000 0.000000
0.966814 0.034443 0.769578 0.000000 0.000000 0.000000
0.907701 0.056157 0.790914 0.000000 0.000000 0.000000
0.968680 0.034179 0.780350 0.000000 0.000000 0.000000
0.953842 0.043971 0.762479 0.000000 0.000000 0.000000
0.954302 0.041809 0.758702 0.000000 0.000000 0.000000
0.954383 0.038462 0.757294 0.000000 0.000000 0.000000
0.953572 0.042524 0.765233 0.000000 0.000000 0.000000
0.951005 0.068059 0.832022 0.000000 0.000000 0.000000
0.959615 0.040129 0.797661 0.000000 0.000000 0.000000
0.927254 0.057621 0.790946 0.000000 0.000000 0.000000
0.960150 0.036813 0.756769 0.000000 0.000000 0.000000
0.928709 0.064483 0.801006 0.000000 0.000000 0.000000
0.964542 0.031371 0.764148 0.000000 0.000000 0.000000
0.927602 0.063281 0.798263 0.000000 0.000000 0.000000
0.924526 0.044235 0.766281 0.000000 0.000000 0.000000
0.953636 0.039174 0.766422 0.000000 0.000000 0.000000
0.924793 0.044891 0.767063 0.000000 0.000000 0.000000
0.960442 0.040580 0.790917 0.000000 0.000000 0.000000
0.964129 0.042356 0.790340 0.000000 0.000000 0.000000
0.956155 0.035379 0.752491 0.000000 0.000000 0.000000
0.955957 0.036796 0.758266 0.000000 0.000000 0.000000
0.965277 0.037402 0.756938 0.000000 0.000000 0.000000
0.956607 0.030819 0.756171 0.000000 0.000000 0.000000
0.957256 0.043229 0.766320 0.000000 0.000000 0.000000
0.957656 0.041102 0.761753 0.000000 0.000000 0.000000
0.965344 0.039821 0.756670 0.000000 0.000000 0.000000
0.958151 0.035280 0.762336 0.000000 0.000000 0.000000
0.953817 0.044228 0.766404 0.000000 0.000000 0.000000
0.949923 0.038118 0.787178 0.000000 0.000000 0.000000
0.968411 0.031771 0.762244 0.000000 0.000000 0.000000
0.956558 0.040305 0.766941 0.000000 0.000000 0.000000
0.957022 0.027096 0.761267 0.000000 0.000000 0.000000
0.955351 0.024354 0.768316 0.000000 0.000000 0.000000
0.959769 0.036425 0.756683 0.000000 0.000000 0.000000
0.952275 0.033301 0.765565 0.000000 0.000000 0.000000
0.955433 0.046161 0.771773 0.000000 0.000000 0.000000
0.921954 0.038136 0.768184 0.000000 0.000000 0.000000
0.955297 0.046850 0.775701 0.000000 0.000000 0.000000
0.953747 0.040166 0.773101 0.000000 0.000000 0.000000
0.952438 0.037570 0.761868 0.000000 0.000000 0.000000
0.957341 0.050412 0.772603 0.000000 0.000000 0.000000
0.965831 0.043283 0.782702 0.000000 0.000000 0.000000
0.967052 0.045912 0.784484 0.000000 0.000000 0.000000
0.955013 0.047241 0.771805 0.000000 0.000000 0.000000
0.959536 0.038596 0.754472 0.000000 0.000000 0.000000
0.957402 0.049510 0.775711 0.000000 0.000000 0.000000
0.950369 0.036752 0.765920 0.000000 0.000000 0.000000
0.955581 0.043929 0.784779 0.000000 0.000000 0.000000
0.952845 0.030985 0.761384 0.000000 0.000000 0.000000
0.957124 0.050640 0.790770 0.000000 0.000000 0.000000
0.963332 0.044594 0.783293 0.000000 0.000000 0.000000
0.956713 0.033666 0.767979 0.000000 0.000000 0.000000
0.952299 0.038008 0.777174 0.000000 0.000000 0.000000
0.969114 0.038070 0.776846 0.000000 0.000000 0.000000
0.959710 0.042025 0.769436 0.000000 0.000000 0.000000
0.953370 0.038369 0.780203 0.000000 0.000000 0.000000
0.954851 0.044898 0.768499 0.000000 0.000000 0.000000
0.955525 0.048021 0.795502 0.000000 0.000000 0.000000
0.961907 0.048183 0.781774 0.000000 0.000000 0.000000
0.957742 0.047717 0.774400 0.000000 0.000000 0.000000
0.947512 0.034332 0.772886 0.000000 0.000000 0.000000
0.966346 0.039907 0.785532 0.000000 0.000000 0.000000
0.954633 0.037238 0.755777 0.000000 0.000000 0.000000
0.952046 0.038741 0.756437 0.000000 0.000000 0.000000
0.951138 0.039464 0.750158 0.000000 0.000000 0.000000
0.954485 0.039980 0.755755 0.000000 0.000000 0.000000
0.957964 0.034718 0.757192 0.000000 0.000000 0.000000
0.953730 0.030176 0.758974 0.000000 0.000000 0.000000
0.950855 0.035118 0.758923 0.000000 0.000000 0.000000
0.953370 0.036923 0.749079 0.000000 0.000000 0.000000
0.954250 0.037836 0.755170 0.000000 0.000000 0.000000
0.951976 0.037571 0.755713 0.000000 0.000000 0.000000
0.925153 0.057232 0.769233 0.000000 0.000000 0.000000
0.961243 0.040539 0.753059 0.000000 0.000000 0.000000
0.952328 0.035694 0.756891 0.000000 0.000000 0.000000
0.963704 0.043272 0.753530 0.000000 0.000000 0.000000
0.961802 0.038049 0.754977 0.000000 0.000000 0.000000
0.947838 0.030841 0.765438 0.000000 0.000000 0.000000
0.963536 0.043517 0.776852 0.000000 0.000000 0.000000
0.951329 0.036129 0.756054 0.000000 0.000000 0.000000
0.930920 0.057252 0.776616 0.000000 0.000000 0.000000
0.931646 0.051041 0.775348 0.000000 0.000000 0.000000
0.957639 0.027687 0.769818 0.000000 0.000000 0.000000
0.959560 0.025747 0.765426 0.000000 0.000000 0.000000
0.963903 0.037761 0.772452 0.000000 0.000000 0.000000
0.955317 0.068737 0.823237 0.000000 0.000000 0.000000
0.946448 0.078032 0.834509 0.000000 0.000000 0.000000
0.984333 0.056455 0.799181 0.000000 0.000000 0.000000
0.957851 0.032141 0.780029 0.000000 0.000000 0.000000
0.951198 0.069963 0.831435 0.000000 0.000000 0.000000
0.946069 0.079316 0.832751 0.000000 0.000000 0.000000
0.957540 0.036075 0.784374 0.000000 0.000000 0.000000
0.953683 0.042025 0.793140 0.000000 0.000000 0.000000
0.953737 0.043788 0.786150 0.000000 0.000000 0.000000
0.950743 0.033972 0.777023 0.000000 0.000000 0.000000
0.910554 0.053358 0.787411 0.000000 0.000000 0.000000
0.911350 0.055891 0.786912 0.000000 0.000000 0.000000
0.917627 0.043432 0.787083 0.000000 0.000000 0.000000
0.930485 0.064931 0.790038 0.000000 0.000000 0.000000
0.930057 0.041353 0.774667 0.000000 0.000000 0.000000
0.922668 0.041954 0.787213 0.000000 0.000000 0.000000
0.965091 0.045880 0.790458 0.000000 0.000000 0.000000
0.924690 0.045026 0.772519 0.000000 0.000000 0.000000
0.924542 0.041291 0.783431 0.000000 0.000000 0.000000
0.919114 0.058312 0.790577 0.000000 0.000000 0.000000
0.974624 0.052687 0.792898 0.000000 0.000000 0.000000
0.955801 0.021728 0.764566 0.000000 0.000000 0.000000
0.930676 0.061243 0.790996 0.000000 0.000000 0.000000
0.927044 0.044303 0.784269 0.000000 0.000000 0.000000
0.969207 0.056975 0.798295 0.000000 0.000000 0.000000
0.922651 0.043322 0.776357 0.000000 0.000000 0.000000
0.923577 0.042416 0.779335 0.000000 0.000000 0.000000
0.955215 0.034179 0.785935 0.000000 0.000000 0.000000
0.923836 0.046610 0.788092 0.000000 0.000000 0.000000
0.968694 0.049155 0.791839 0.000000 0.000000 0.000000
0.919350 0.043823 0.780259 0.000000 0.000000 0.000000
0.919704 0.042444 0.783727 0.000000 0.000000 0.000000
0.989547 0.079549 0.793179 0.000000 0.000000 0.000000
0.956995 0.047028 0.763778 0.000000 0.000000 0.000000
0.956761 0.044039 0.760843 0.000000 0.000000 0.000000
0.955419 0.044469 0.755585 0.000000 0.000000 0.000000
0.953835 0.029768 0.758767 0.000000 0.000000 0.000000
0.956397 0.025522 0.760236 0.000000 0.000000 0.000000
0.949699 0.031550 0.765799 0.000000 0.000000 0.000000
0.953694 0.029837 0.760489 0.000000 0.000000 0.000000
0.958970 0.023746 0.763493 0.000000 0.000000 0.000000
0.991761 0.075981 0.791891 0.000000 0.000000 0.000000
0.959051 0.023859 0.762164 0.000000 0.000000 0.000000
0.998365 0.078094 0.792590 0.000000 0.000000 0.000000
0.958084 0.026818 0.759748 0.000000 0.000000 0.000000
0.951041 0.021395 0.767066 0.000000 0.000000 0.000000
0.959832 0.022183 0.761462 0.000000 0.000000 0.000000
0.955706 0.045684 0.768394 0.000000 0.000000 0.000000
0.954975 0.042086 0.784515 0.000000 0.000000 0.000000
0.952346 0.041502 0.765657 0.000000 0.000000 0.000000
0.955721 0.045165 0.771727 0.000000 0.000000 0.000000
0.956568 0.037105 0.776797 0.000000 0.000000 0.000000
0.956667 0.047859 0.775461 0.000000 0.000000 0.000000
0.954456 0.044484 0.770606 0.000000 0.000000 0.000000
0.959265 0.051181 0.775893 0.000000 0.000000 0.000000
0.956847 0.050142 0.780810 0.000000 0.000000 0.000000
0.959422 0.049940 0.779459 0.000000 0.000000 0.000000
0.958453 0.045973 0.775423 0.000000 0.000000 0.000000
0.959720 0.050759 0.784023 0.000000 0.000000 0.000000
0.908863 0.048670 0.793055 0.000000 0.000000 0.000000
0.957201 0.050754 0.783117 0.000000 0.000000 0.000000
0.914100 0.046818 0.789483 0.000000 0.000000 0.000000
0.931730 0.040643 0.766536 0.000000 0.000000 0.000000
0.927989 0.040059 0.780039 0.000000 0.000000 0.000000
0.925780 0.046753 0.787453 0.000000 0.000000 0.000000
0.987421 0.057136 0.799431 0.000000 0.000000 0.000000
0.996389 0.059293 0.799102 0.000000 0.000000 0.000000
0.993880 0.062992 0.796447 0.000000 0.000000 0.000000
