ply
format ascii 1.0
comment VCGLIB generated
obj_info Generated by SPFormer!
element vertex 145
property float x
property float y
property float z
property float nx
property float ny
property float nz
end_header
0.435954 0.450138 2.939857 0.000000 0.000000 0.000000
0.424803 0.464036 2.930058 0.000000 0.000000 0.000000
0.436429 0.456396 2.928275 0.000000 0.000000 0.000000
0.424088 0.462403 2.948717 0.000000 0.000000 0.000000
0.404329 0.462394 2.944860 0.000000 0.000000 0.000000
0.425221 0.479770 2.930393 0.000000 0.000000 0.000000
0.402038 0.468367 2.935833 0.000000 0.000000 0.000000
0.414890 0.466258 2.928273 0.000000 0.000000 0.000000
0.411935 0.464727 2.923403 0.000000 0.000000 0.000000
0.412928 0.479379 2.934111 0.000000 0.000000 0.000000
0.411938 0.467531 2.927017 0.000000 0.000000 0.000000
0.413298 0.462918 2.926675 0.000000 0.000000 0.000000
0.411489 0.478983 2.929970 0.000000 0.000000 0.000000
0.424183 0.472414 2.942210 0.000000 0.000000 0.000000
0.412244 0.460097 2.928677 0.000000 0.000000 0.000000
0.438609 0.451104 2.953965 0.000000 0.000000 0.000000
0.420386 0.462564 2.926439 0.000000 0.000000 0.000000
0.420383 0.472186 2.927205 0.000000 0.000000 0.000000
0.430521 0.476973 2.921404 0.000000 0.000000 0.000000
0.428226 0.476177 2.925990 0.000000 0.000000 0.000000
0.431486 0.479601 2.927157 0.000000 0.000000 0.000000
0.408189 0.463661 2.926082 0.000000 0.000000 0.000000
0.406116 0.469795 2.927467 0.000000 0.000000 0.000000
0.433905 0.463025 2.920707 0.000000 0.000000 0.000000
0.414158 0.469664 2.932333 0.000000 0.000000 0.000000
0.418431 0.469485 2.928728 0.000000 0.000000 0.000000
0.433650 0.469538 2.919173 0.000000 0.000000 0.000000
0.421309 0.467400 2.927490 0.000000 0.000000 0.000000
0.410961 0.462107 2.938442 0.000000 0.000000 0.000000
0.436793 0.478155 2.925504 0.000000 0.000000 0.000000
0.430219 0.477846 2.923430 0.000000 0.000000 0.000000
0.428790 0.477978 2.917396 0.000000 0.000000 0.000000
0.434685 0.475629 2.916249 0.000000 0.000000 0.000000
0.420990 0.473945 2.928742 0.000000 0.000000 0.000000
0.410385 0.465526 2.942703 0.000000 0.000000 0.000000
0.414563 0.471557 2.926511 0.000000 0.000000 0.000000
0.408854 0.469922 2.933307 0.000000 0.000000 0.000000
0.418756 0.476919 2.934785 0.000000 0.000000 0.000000
0.404215 0.474912 2.928759 0.000000 0.000000 0.000000
0.415217 0.466150 2.923553 0.000000 0.000000 0.000000
0.428240 0.476767 2.923626 0.000000 0.000000 0.000000
0.408991 0.464272 2.930109 0.000000 0.000000 0.000000
0.411054 0.469795 2.944036 0.000000 0.000000 0.000000
0.424242 0.461531 2.927409 0.000000 0.000000 0.000000
0.420019 0.451395 2.945339 0.000000 0.000000 0.000000
0.427020 0.469603 2.929746 0.000000 0.000000 0.000000
0.428765 0.456722 2.933819 0.000000 0.000000 0.000000
0.431403 0.444638 2.942882 0.000000 0.000000 0.000000
0.439607 0.450191 2.944461 0.000000 0.000000 0.000000
0.433462 0.449189 2.948012 0.000000 0.000000 0.000000
0.428673 0.462863 2.934352 0.000000 0.000000 0.000000
0.415749 0.477343 2.932114 0.000000 0.000000 0.000000
0.415210 0.464461 2.923317 0.000000 0.000000 0.000000
0.413711 0.467938 2.926446 0.000000 0.000000 0.000000
0.426943 0.477109 2.934088 0.000000 0.000000 0.000000
0.426510 0.465292 2.930034 0.000000 0.000000 0.000000
0.433565 0.450375 2.945536 0.000000 0.000000 0.000000
0.413368 0.450623 2.950858 0.000000 0.000000 0.000000
0.430476 0.460411 2.949872 0.000000 0.000000 0.000000
0.423436 0.458798 2.929171 0.000000 0.000000 0.000000
0.413699 0.466095 2.919837 0.000000 0.000000 0.000000
0.409062 0.463739 2.921870 0.000000 0.000000 0.000000
0.408851 0.462932 2.922363 0.000000 0.000000 0.000000
0.434945 0.445858 2.954093 0.000000 0.000000 0.000000
0.405334 0.479908 2.934494 0.000000 0.000000 0.000000
0.423323 0.479136 2.947391 0.000000 0.000000 0.000000
0.439236 0.469539 2.958775 0.000000 0.000000 0.000000
0.400788 0.478247 2.951731 0.000000 0.000000 0.000000
0.423956 0.468993 2.954453 0.000000 0.000000 0.000000
-0.195837 -0.638136 1.552773 0.000000 0.000000 0.000000
-0.189104 -0.636390 1.554800 0.000000 0.000000 0.000000
-0.183707 -0.639788 1.552747 0.000000 0.000000 0.000000
-0.192266 -0.635805 1.550806 0.000000 0.000000 0.000000
-0.193465 -0.635383 1.555038 0.000000 0.000000 0.000000
-0.193159 -0.633766 1.552161 0.000000 0.000000 0.000000
-0.198675 -0.629197 1.549259 0.000000 0.000000 0.000000
-0.199660 -0.632813 1.550167 0.000000 0.000000 0.000000
-0.191814 -0.637782 1.556701 0.000000 0.000000 0.000000
-0.179845 -0.639781 1.557023 0.000000 0.000000 0.000000
-0.185211 -0.636955 1.555869 0.000000 0.000000 0.000000
-0.162128 -0.606233 1.553915 0.000000 0.000000 0.000000
-0.176377 -0.603775 1.542846 0.000000 0.000000 0.000000
-0.171398 -0.608631 1.542248 0.000000 0.000000 0.000000
-0.186640 -0.601973 1.539545 0.000000 0.000000 0.000000
-0.166346 -0.606075 1.543711 0.000000 0.000000 0.000000
-0.163094 -0.622399 1.543340 0.000000 0.000000 0.000000
-0.162104 -0.609421 1.543410 0.000000 0.000000 0.000000
-0.174217 -0.605126 1.541512 0.000000 0.000000 0.000000
-0.163402 -0.616318 1.547363 0.000000 0.000000 0.000000
-0.172615 -0.605435 1.549075 0.000000 0.000000 0.000000
-0.177034 -0.608884 1.545573 0.000000 0.000000 0.000000
-0.171533 -0.614134 1.546911 0.000000 0.000000 0.000000
-0.180389 -0.608359 1.543890 0.000000 0.000000 0.000000
-0.168800 -0.609908 1.548005 0.000000 0.000000 0.000000
-0.188034 -0.600487 1.542702 0.000000 0.000000 0.000000
-0.038213 -0.112557 1.937712 0.000000 0.000000 0.000000
-0.036844 -0.118047 1.947469 0.000000 0.000000 0.000000
-0.029791 -0.111618 1.937289 0.000000 0.000000 0.000000
-0.039477 -0.106965 1.940466 0.000000 0.000000 0.000000
-0.028892 -0.114687 1.940715 0.000000 0.000000 0.000000
-0.031542 -0.118191 1.938840 0.000000 0.000000 0.000000
-0.035820 -0.109133 1.938410 0.000000 0.000000 0.000000
-0.022751 -0.119717 1.938078 0.000000 0.000000 0.000000
-0.026091 -0.115439 1.939359 0.000000 0.000000 0.000000
-0.023984 -0.115361 1.940800 0.000000 0.000000 0.000000
-0.034562 -0.113012 1.942400 0.000000 0.000000 0.000000
-0.037807 -0.103303 1.936025 0.000000 0.000000 0.000000
-0.033374 -0.107339 1.938118 0.000000 0.000000 0.000000
-0.029836 -0.109059 1.940527 0.000000 0.000000 0.000000
-0.004371 -0.098801 1.939035 0.000000 0.000000 0.000000
-0.002788 -0.086571 1.942052 0.000000 0.000000 0.000000
-0.001356 -0.098957 1.931051 0.000000 0.000000 0.000000
-0.010372 -0.086113 1.938148 0.000000 0.000000 0.000000
-0.001653 -0.097629 1.935282 0.000000 0.000000 0.000000
-0.014764 -0.086724 1.944607 0.000000 0.000000 0.000000
-0.019004 -0.086881 1.944306 0.000000 0.000000 0.000000
-0.010705 -0.091276 1.937279 0.000000 0.000000 0.000000
-0.003321 -0.096228 1.932072 0.000000 0.000000 0.000000
-0.002248 -0.092852 1.937759 0.000000 0.000000 0.000000
-0.010344 -0.094480 1.937380 0.000000 0.000000 0.000000
-0.011105 -0.082676 1.934837 0.000000 0.000000 0.000000
-0.018595 -0.084533 1.940124 0.000000 0.000000 0.000000
-0.014632 -0.091953 1.938861 0.000000 0.000000 0.000000
-0.002909 -0.087226 1.937561 0.000000 0.000000 0.000000
-0.011726 -0.093550 1.939803 0.000000 0.000000 0.000000
-0.003089 -0.085784 1.935052 0.000000 0.000000 0.000000
-0.020673 -0.085189 1.942711 0.000000 0.000000 0.000000
-0.011380 -0.089813 1.934901 0.000000 0.000000 0.000000
-0.008328 -0.099702 1.933357 0.000000 0.000000 0.000000
-0.010455 -0.096706 1.933907 0.000000 0.000000 0.000000
0.340296 0.557323 3.015130 0.000000 0.000000 0.000000
0.310535 0.681325 3.222342 0.000000 0.000000 0.000000
0.409741 0.460207 2.913388 0.000000 0.000000 0.000000
0.319050 0.461276 3.069929 0.000000 0.000000 0.000000
0.402644 0.461456 2.923076 0.000000 0.000000 0.000000
0.404682 0.453618 2.930324 0.000000 0.000000 0.000000
0.402974 0.462070 2.922069 0.000000 0.000000 0.000000
0.245270 0.378928 3.168103 0.000000 0.000000 0.000000
0.402300 0.464807 2.922532 0.000000 0.000000 0.000000
0.322481 0.437398 3.058887 0.000000 0.000000 0.000000
0.403496 0.466029 2.923704 0.000000 0.000000 0.000000
0.403308 0.449842 2.912708 0.000000 0.000000 0.000000
0.404718 0.457163 2.917907 0.000000 0.000000 0.000000
0.439471 0.476597 2.935396 0.000000 0.000000 0.000000
0.531790 0.531920 3.168929 0.000000 0.000000 0.000000
