ply
format ascii 1.0
comment VCGLIB generated
obj_info Generated by SPFormer!
element vertex 195
property float x
property float y
property float z
property float nx
property float ny
property float nz
end_header
0.900974 0.600686 3.603266 0.000000 0.000000 0.000000
0.875241 0.606441 3.593647 0.000000 0.000000 0.000000
0.885930 0.614731 3.612143 0.000000 0.000000 0.000000
0.877500 0.619161 3.592041 0.000000 0.000000 0.000000
0.879663 0.598345 3.619629 0.000000 0.000000 0.000000
0.881769 0.612920 3.573860 0.000000 0.000000 0.000000
0.876888 0.618754 3.595931 0.000000 0.000000 0.000000
0.907445 0.620094 3.586075 0.000000 0.000000 0.000000
0.892212 0.611743 3.562401 0.000000 0.000000 0.000000
0.917814 0.612652 3.553768 0.000000 0.000000 0.000000
0.887665 0.601604 3.612106 0.000000 0.000000 0.000000
0.869619 0.610198 3.610976 0.000000 0.000000 0.000000
0.873282 0.615181 3.606657 0.000000 0.000000 0.000000
0.870476 0.613020 3.614215 0.000000 0.000000 0.000000
0.886788 0.608745 3.604996 0.000000 0.000000 0.000000
0.867061 0.604295 3.614388 0.000000 0.000000 0.000000
0.918040 0.614084 3.562420 0.000000 0.000000 0.000000
0.889119 0.620371 3.570201 0.000000 0.000000 0.000000
0.906918 0.612615 3.550942 0.000000 0.000000 0.000000
0.887990 0.614795 3.588093 0.000000 0.000000 0.000000
0.890818 0.601317 3.563329 0.000000 0.000000 0.000000
0.897968 0.612692 3.562865 0.000000 0.000000 0.000000
0.869692 0.612299 3.601007 0.000000 0.000000 0.000000
0.887607 0.606842 3.557734 0.000000 0.000000 0.000000
0.881364 0.616305 3.585000 0.000000 0.000000 0.000000
0.884858 0.609585 3.593130 0.000000 0.000000 0.000000
0.881455 0.611054 3.609175 0.000000 0.000000 0.000000
0.873533 0.617650 3.609677 0.000000 0.000000 0.000000
0.870988 0.611629 3.619759 0.000000 0.000000 0.000000
0.876445 0.614072 3.617826 0.000000 0.000000 0.000000
0.885276 0.617802 3.587236 0.000000 0.000000 0.000000
0.867986 0.609614 3.617766 0.000000 0.000000 0.000000
0.874289 0.615053 3.614309 0.000000 0.000000 0.000000
0.869026 0.603631 3.616869 0.000000 0.000000 0.000000
0.888364 0.613110 3.596321 0.000000 0.000000 0.000000
0.875762 0.607791 3.616472 0.000000 0.000000 0.000000
0.891730 0.604321 3.574494 0.000000 0.000000 0.000000
0.891274 0.607333 3.560167 0.000000 0.000000 0.000000
0.893257 0.612474 3.563903 0.000000 0.000000 0.000000
0.892552 0.611085 3.571383 0.000000 0.000000 0.000000
0.885238 0.605162 3.586420 0.000000 0.000000 0.000000
0.871989 0.602938 3.611256 0.000000 0.000000 0.000000
0.867160 0.606650 3.601969 0.000000 0.000000 0.000000
0.877069 0.622548 3.582277 0.000000 0.000000 0.000000
0.870326 0.603944 3.603931 0.000000 0.000000 0.000000
0.870875 0.607689 3.601327 0.000000 0.000000 0.000000
0.876469 0.625605 3.602793 0.000000 0.000000 0.000000
0.877462 0.604733 3.605374 0.000000 0.000000 0.000000
0.899292 0.615348 3.572762 0.000000 0.000000 0.000000
0.918395 0.618646 3.556727 0.000000 0.000000 0.000000
0.889438 0.617306 3.567924 0.000000 0.000000 0.000000
0.918137 0.615240 3.549287 0.000000 0.000000 0.000000
0.878442 0.611129 3.583932 0.000000 0.000000 0.000000
0.909432 0.614995 3.552666 0.000000 0.000000 0.000000
0.913400 0.613389 3.546872 0.000000 0.000000 0.000000
0.876961 0.613956 3.609503 0.000000 0.000000 0.000000
0.885234 0.620268 3.569355 0.000000 0.000000 0.000000
0.917364 0.618666 3.553696 0.000000 0.000000 0.000000
0.912007 0.613558 3.562282 0.000000 0.000000 0.000000
0.907994 0.617243 3.546002 0.000000 0.000000 0.000000
0.872773 0.609062 3.613262 0.000000 0.000000 0.000000
0.891518 0.615079 3.558048 0.000000 0.000000 0.000000
0.899596 0.619894 3.558034 0.000000 0.000000 0.000000
0.915111 0.618115 3.555686 0.000000 0.000000 0.000000
0.866820 0.610360 3.621878 0.000000 0.000000 0.000000
0.869859 0.610991 3.616717 0.000000 0.000000 0.000000
0.892148 0.609708 3.558601 0.000000 0.000000 0.000000
0.894247 0.617585 3.556466 0.000000 0.000000 0.000000
0.875330 0.609608 3.621816 0.000000 0.000000 0.000000
0.874824 0.607204 3.619519 0.000000 0.000000 0.000000
0.873509 0.605541 3.597046 0.000000 0.000000 0.000000
0.871067 0.613635 3.613826 0.000000 0.000000 0.000000
0.901814 0.616601 3.561957 0.000000 0.000000 0.000000
0.914145 0.614886 3.554116 0.000000 0.000000 0.000000
0.915280 0.616523 3.565560 0.000000 0.000000 0.000000
0.913249 0.615014 3.553402 0.000000 0.000000 0.000000
0.908650 0.614920 3.565312 0.000000 0.000000 0.000000
0.917048 0.604981 3.573260 0.000000 0.000000 0.000000
0.915588 0.605086 3.553530 0.000000 0.000000 0.000000
0.912338 0.611770 3.568003 0.000000 0.000000 0.000000
0.891816 0.607664 3.586616 0.000000 0.000000 0.000000
0.891085 0.614238 3.572995 0.000000 0.000000 0.000000
0.904153 0.615067 3.559771 0.000000 0.000000 0.000000
0.900481 0.611797 3.577608 0.000000 0.000000 0.000000
0.910305 0.617393 3.567702 0.000000 0.000000 0.000000
0.907153 0.617536 3.559499 0.000000 0.000000 0.000000
0.912854 0.618775 3.556562 0.000000 0.000000 0.000000
0.912125 0.615745 3.554709 0.000000 0.000000 0.000000
0.871551 0.610462 3.604642 0.000000 0.000000 0.000000
0.870425 0.604307 3.597508 0.000000 0.000000 0.000000
0.887527 0.608386 3.599693 0.000000 0.000000 0.000000
0.919153 0.629386 3.577276 0.000000 0.000000 0.000000
0.912905 0.603806 3.573288 0.000000 0.000000 0.000000
0.895833 0.616416 3.580322 0.000000 0.000000 0.000000
0.874438 0.610591 3.592476 0.000000 0.000000 0.000000
0.893974 0.616837 3.575385 0.000000 0.000000 0.000000
0.881855 0.615591 3.604082 0.000000 0.000000 0.000000
0.896228 0.609355 3.591914 0.000000 0.000000 0.000000
0.879294 0.622256 3.596947 0.000000 0.000000 0.000000
0.883701 0.606543 3.598459 0.000000 0.000000 0.000000
0.892377 0.606566 3.579185 0.000000 0.000000 0.000000
0.884632 0.608781 3.593297 0.000000 0.000000 0.000000
0.886944 0.618925 3.586912 0.000000 0.000000 0.000000
0.883679 0.617149 3.600534 0.000000 0.000000 0.000000
0.895820 0.610402 3.587735 0.000000 0.000000 0.000000
0.867783 0.606946 3.614149 0.000000 0.000000 0.000000
0.869118 0.604475 3.606967 0.000000 0.000000 0.000000
0.875109 0.618087 3.611270 0.000000 0.000000 0.000000
0.867118 0.604502 3.616835 0.000000 0.000000 0.000000
0.869156 0.602600 3.607639 0.000000 0.000000 0.000000
0.872577 0.612658 3.621218 0.000000 0.000000 0.000000
0.891466 0.624368 3.573784 0.000000 0.000000 0.000000
0.876730 0.612950 3.584075 0.000000 0.000000 0.000000
0.876142 0.608462 3.587200 0.000000 0.000000 0.000000
0.877130 0.614015 3.577703 0.000000 0.000000 0.000000
0.864112 0.602202 3.608412 0.000000 0.000000 0.000000
0.884256 0.613035 3.567142 0.000000 0.000000 0.000000
0.874281 0.613590 3.591893 0.000000 0.000000 0.000000
0.882723 0.609288 3.583133 0.000000 0.000000 0.000000
0.873547 0.604776 3.601588 0.000000 0.000000 0.000000
0.875925 0.612433 3.582117 0.000000 0.000000 0.000000
0.896136 0.611491 3.560607 0.000000 0.000000 0.000000
0.892920 0.608941 3.563764 0.000000 0.000000 0.000000
0.903749 0.619061 3.556234 0.000000 0.000000 0.000000
0.895103 0.624725 3.578473 0.000000 0.000000 0.000000
0.893076 0.612550 3.571911 0.000000 0.000000 0.000000
0.897999 0.620523 3.566387 0.000000 0.000000 0.000000
0.885342 0.610042 3.570815 0.000000 0.000000 0.000000
0.879356 0.613230 3.575356 0.000000 0.000000 0.000000
0.872954 0.611703 3.581966 0.000000 0.000000 0.000000
0.884547 0.613461 3.608998 0.000000 0.000000 0.000000
0.876691 0.618915 3.598036 0.000000 0.000000 0.000000
0.881790 0.610016 3.589481 0.000000 0.000000 0.000000
0.883555 0.614568 3.611144 0.000000 0.000000 0.000000
0.878377 0.618808 3.605662 0.000000 0.000000 0.000000
0.874315 0.617933 3.601385 0.000000 0.000000 0.000000
0.892189 0.610795 3.597670 0.000000 0.000000 0.000000
0.863007 0.606807 3.625122 0.000000 0.000000 0.000000
0.867321 0.604568 3.620811 0.000000 0.000000 0.000000
0.873603 0.606240 3.616516 0.000000 0.000000 0.000000
0.904620 0.605003 3.577282 0.000000 0.000000 0.000000
0.890237 0.602657 3.580339 0.000000 0.000000 0.000000
0.868061 0.607935 3.627467 0.000000 0.000000 0.000000
0.909485 0.606623 3.539655 0.000000 0.000000 0.000000
0.897475 0.611027 3.573566 0.000000 0.000000 0.000000
0.907133 0.614517 3.563014 0.000000 0.000000 0.000000
0.902261 0.613798 3.576065 0.000000 0.000000 0.000000
0.901823 0.616973 3.578070 0.000000 0.000000 0.000000
0.902874 0.612871 3.577714 0.000000 0.000000 0.000000
0.905449 0.614752 3.577574 0.000000 0.000000 0.000000
0.889368 0.620382 3.582897 0.000000 0.000000 0.000000
0.893151 0.610525 3.576447 0.000000 0.000000 0.000000
0.893585 0.615454 3.590823 0.000000 0.000000 0.000000
0.905255 0.610251 3.577131 0.000000 0.000000 0.000000
0.895231 0.613924 3.592299 0.000000 0.000000 0.000000
0.880983 0.612096 3.576131 0.000000 0.000000 0.000000
0.883857 0.604278 3.588872 0.000000 0.000000 0.000000
0.873595 0.603421 3.597529 0.000000 0.000000 0.000000
0.889058 0.600932 3.560916 0.000000 0.000000 0.000000
0.894427 0.611272 3.565296 0.000000 0.000000 0.000000
0.886872 0.621533 3.576877 0.000000 0.000000 0.000000
0.898710 0.614705 3.554374 0.000000 0.000000 0.000000
0.895769 0.614699 3.563440 0.000000 0.000000 0.000000
0.889029 0.614043 3.575109 0.000000 0.000000 0.000000
0.894612 0.614237 3.568072 0.000000 0.000000 0.000000
0.904403 0.611526 3.560432 0.000000 0.000000 0.000000
0.891768 0.617017 3.571257 0.000000 0.000000 0.000000
0.892812 0.610186 3.571726 0.000000 0.000000 0.000000
0.908432 0.615922 3.554164 0.000000 0.000000 0.000000
0.914451 0.612500 3.545143 0.000000 0.000000 0.000000
0.881814 0.618328 3.609010 0.000000 0.000000 0.000000
0.872811 0.616359 3.617175 0.000000 0.000000 0.000000
0.889816 0.610245 3.569196 0.000000 0.000000 0.000000
0.889736 0.616420 3.599724 0.000000 0.000000 0.000000
0.891786 0.615623 3.562774 0.000000 0.000000 0.000000
0.897382 0.611349 3.563119 0.000000 0.000000 0.000000
0.888792 0.612959 3.566596 0.000000 0.000000 0.000000
0.901287 0.615531 3.554565 0.000000 0.000000 0.000000
0.900527 0.612595 3.559889 0.000000 0.000000 0.000000
0.887286 0.613137 3.572393 0.000000 0.000000 0.000000
0.877976 0.607339 3.589408 0.000000 0.000000 0.000000
0.905706 0.613798 3.556704 0.000000 0.000000 0.000000
0.918238 0.611138 3.544815 0.000000 0.000000 0.000000
0.882946 0.621401 3.592413 0.000000 0.000000 0.000000
0.861253 0.608567 3.628496 0.000000 0.000000 0.000000
0.881813 0.617327 3.571825 0.000000 0.000000 0.000000
0.895946 0.614720 3.591482 0.000000 0.000000 0.000000
0.917695 0.616569 3.540554 0.000000 0.000000 0.000000
0.917218 0.612737 3.542386 0.000000 0.000000 0.000000
0.875064 0.617417 3.593443 0.000000 0.000000 0.000000
0.868471 0.608803 3.606718 0.000000 0.000000 0.000000
0.882210 0.620876 3.583449 0.000000 0.000000 0.000000
0.887421 0.622839 3.582170 0.000000 0.000000 0.000000
0.875706 0.616865 3.583694 0.000000 0.000000 0.000000
0.878014 0.620708 3.593939 0.000000 0.000000 0.000000
