ply
format ascii 1.0
comment VCGLIB generated
obj_info Generated by SPFormer!
element vertex 502
property float x
property float y
property float z
property float nx
property float ny
property float nz
end_header
0.631563 1.294713 2.308019 0.000000 0.000000 0.000000
0.633896 1.274207 2.314778 0.000000 0.000000 0.000000
0.639427 1.263794 2.299343 0.000000 0.000000 0.000000
0.635358 1.303776 2.318499 0.000000 0.000000 0.000000
0.635488 1.302646 2.311143 0.000000 0.000000 0.000000
0.637589 1.305541 2.306631 0.000000 0.000000 0.000000
0.631721 1.301758 2.310675 0.000000 0.000000 0.000000
0.631286 1.301564 2.311099 0.000000 0.000000 0.000000
0.637462 1.298798 2.304826 0.000000 0.000000 0.000000
0.635143 1.305688 2.312849 0.000000 0.000000 0.000000
0.636997 1.271603 2.317143 0.000000 0.000000 0.000000
0.635851 1.307915 2.313093 0.000000 0.000000 0.000000
0.639722 1.253173 2.284377 0.000000 0.000000 0.000000
0.633479 1.284360 2.310099 0.000000 0.000000 0.000000
0.639472 1.311252 2.317719 0.000000 0.000000 0.000000
0.638275 1.253212 2.280925 0.000000 0.000000 0.000000
0.638771 1.292121 2.292513 0.000000 0.000000 0.000000
0.631218 1.282465 2.317601 0.000000 0.000000 0.000000
0.637861 1.303676 2.302139 0.000000 0.000000 0.000000
0.630925 1.303546 2.314053 0.000000 0.000000 0.000000
0.630398 1.287122 2.312287 0.000000 0.000000 0.000000
0.638840 1.277078 2.315290 0.000000 0.000000 0.000000
0.635997 1.291068 2.309244 0.000000 0.000000 0.000000
0.629026 1.281254 2.316174 0.000000 0.000000 0.000000
0.628111 1.282944 2.303512 0.000000 0.000000 0.000000
0.631653 1.274166 2.307703 0.000000 0.000000 0.000000
0.634925 1.273082 2.296318 0.000000 0.000000 0.000000
0.639036 1.265203 2.309997 0.000000 0.000000 0.000000
0.637735 1.262176 2.302101 0.000000 0.000000 0.000000
0.636979 1.264650 2.298513 0.000000 0.000000 0.000000
0.637190 1.263765 2.301782 0.000000 0.000000 0.000000
0.635301 1.282171 2.308772 0.000000 0.000000 0.000000
0.635144 1.258093 2.294331 0.000000 0.000000 0.000000
0.638098 1.295931 2.297251 0.000000 0.000000 0.000000
0.638310 1.257584 2.293635 0.000000 0.000000 0.000000
0.639563 1.294833 2.293796 0.000000 0.000000 0.000000
0.638560 1.268749 2.311846 0.000000 0.000000 0.000000
0.639713 1.264813 2.304566 0.000000 0.000000 0.000000
0.638205 1.294075 2.289151 0.000000 0.000000 0.000000
0.637298 1.300451 2.299026 0.000000 0.000000 0.000000
0.638181 1.292401 2.286080 0.000000 0.000000 0.000000
0.635531 1.271108 2.311144 0.000000 0.000000 0.000000
0.631354 1.270359 2.313303 0.000000 0.000000 0.000000
0.631019 1.280193 2.305857 0.000000 0.000000 0.000000
0.633183 1.278823 2.309334 0.000000 0.000000 0.000000
0.632412 1.294391 2.295987 0.000000 0.000000 0.000000
0.630063 1.270903 2.310239 0.000000 0.000000 0.000000
0.639085 1.261962 2.297930 0.000000 0.000000 0.000000
0.638466 1.256318 2.291514 0.000000 0.000000 0.000000
0.630585 1.300779 2.312391 0.000000 0.000000 0.000000
0.630045 1.303553 2.315673 0.000000 0.000000 0.000000
0.638942 1.261871 2.300369 0.000000 0.000000 0.000000
0.635488 1.270042 2.311685 0.000000 0.000000 0.000000
0.635925 1.257774 2.289079 0.000000 0.000000 0.000000
0.631823 1.301960 2.314676 0.000000 0.000000 0.000000
0.638578 1.255001 2.287236 0.000000 0.000000 0.000000
0.629213 1.299963 2.313058 0.000000 0.000000 0.000000
0.636509 1.261517 2.302004 0.000000 0.000000 0.000000
0.636211 1.267047 2.307437 0.000000 0.000000 0.000000
0.637286 1.250375 2.284224 0.000000 0.000000 0.000000
0.639479 1.289667 2.288659 0.000000 0.000000 0.000000
0.635202 1.306857 2.316658 0.000000 0.000000 0.000000
0.638433 1.253964 2.283978 0.000000 0.000000 0.000000
0.638968 1.313350 2.317276 0.000000 0.000000 0.000000
0.631129 1.302155 2.316231 0.000000 0.000000 0.000000
0.631397 1.299370 2.304908 0.000000 0.000000 0.000000
0.629064 1.305426 2.308254 0.000000 0.000000 0.000000
0.633354 1.309013 2.312552 0.000000 0.000000 0.000000
0.639776 1.287904 2.283845 0.000000 0.000000 0.000000
0.639810 1.295795 2.295282 0.000000 0.000000 0.000000
0.634707 1.250417 2.286393 0.000000 0.000000 0.000000
0.636526 1.298107 2.308179 0.000000 0.000000 0.000000
0.638081 1.306410 2.319016 0.000000 0.000000 0.000000
0.638449 1.302140 2.315150 0.000000 0.000000 0.000000
0.638108 1.254411 2.297162 0.000000 0.000000 0.000000
0.639754 1.249680 2.285611 0.000000 0.000000 0.000000
0.628624 1.305624 2.303348 0.000000 0.000000 0.000000
0.637495 1.253184 2.292736 0.000000 0.000000 0.000000
0.638979 1.291638 2.282931 0.000000 0.000000 0.000000
0.638719 1.291156 2.282522 0.000000 0.000000 0.000000
0.628658 1.302588 2.311024 0.000000 0.000000 0.000000
0.634964 1.311009 2.314904 0.000000 0.000000 0.000000
0.635465 1.261134 2.295902 0.000000 0.000000 0.000000
0.571130 1.288480 2.321550 0.000000 0.000000 0.000000
0.577422 1.296732 2.300837 0.000000 0.000000 0.000000
0.627501 1.267394 2.315817 0.000000 0.000000 0.000000
0.589891 1.291887 2.313299 0.000000 0.000000 0.000000
0.573148 1.277509 2.307507 0.000000 0.000000 0.000000
0.586937 1.298040 2.302010 0.000000 0.000000 0.000000
0.545156 1.296569 2.321403 0.000000 0.000000 0.000000
0.547361 1.274606 2.323528 0.000000 0.000000 0.000000
0.549141 1.271367 2.321271 0.000000 0.000000 0.000000
0.559173 1.279357 2.310527 0.000000 0.000000 0.000000
0.584381 1.281859 2.302503 0.000000 0.000000 0.000000
0.569184 1.295841 2.301552 0.000000 0.000000 0.000000
0.585079 1.258399 2.314296 0.000000 0.000000 0.000000
0.547142 1.272489 2.319379 0.000000 0.000000 0.000000
0.546795 1.280756 2.322266 0.000000 0.000000 0.000000
0.609079 1.294441 2.297887 0.000000 0.000000 0.000000
0.571786 1.290520 2.303144 0.000000 0.000000 0.000000
0.559178 1.267733 2.315353 0.000000 0.000000 0.000000
0.572307 1.270813 2.301831 0.000000 0.000000 0.000000
0.557791 1.292696 2.318530 0.000000 0.000000 0.000000
0.588649 1.297834 2.307562 0.000000 0.000000 0.000000
0.623236 1.296767 2.305482 0.000000 0.000000 0.000000
0.617188 1.305601 2.302120 0.000000 0.000000 0.000000
0.573931 1.317447 2.301553 0.000000 0.000000 0.000000
0.584426 1.290329 2.300014 0.000000 0.000000 0.000000
0.547139 1.290728 2.313806 0.000000 0.000000 0.000000
0.624644 1.275317 2.310200 0.000000 0.000000 0.000000
0.546486 1.294045 2.319350 0.000000 0.000000 0.000000
0.597103 1.301311 2.300237 0.000000 0.000000 0.000000
0.548142 1.272773 2.320532 0.000000 0.000000 0.000000
0.554304 1.258226 2.324230 0.000000 0.000000 0.000000
0.546691 1.294737 2.316136 0.000000 0.000000 0.000000
0.545059 1.272105 2.326089 0.000000 0.000000 0.000000
0.618196 1.295116 2.300381 0.000000 0.000000 0.000000
0.570392 1.270127 2.314713 0.000000 0.000000 0.000000
0.566624 1.259797 2.318351 0.000000 0.000000 0.000000
0.553425 1.314686 2.304268 0.000000 0.000000 0.000000
0.603227 1.274406 2.310435 0.000000 0.000000 0.000000
0.563496 1.279667 2.314986 0.000000 0.000000 0.000000
0.553505 1.292369 2.315973 0.000000 0.000000 0.000000
0.563319 1.302452 2.304185 0.000000 0.000000 0.000000
0.583044 1.263641 2.308840 0.000000 0.000000 0.000000
0.596929 1.304388 2.303100 0.000000 0.000000 0.000000
0.541925 1.281234 2.326628 0.000000 0.000000 0.000000
0.625898 1.289675 2.308635 0.000000 0.000000 0.000000
0.592095 1.295983 2.301694 0.000000 0.000000 0.000000
0.576162 1.298942 2.312183 0.000000 0.000000 0.000000
0.564727 1.260123 2.318465 0.000000 0.000000 0.000000
0.581624 1.271065 2.298631 0.000000 0.000000 0.000000
0.570060 1.279311 2.298356 0.000000 0.000000 0.000000
0.543396 1.278860 2.331464 0.000000 0.000000 0.000000
0.544938 1.303948 2.331072 0.000000 0.000000 0.000000
0.622523 1.288588 2.302988 0.000000 0.000000 0.000000
0.591426 1.297690 2.301382 0.000000 0.000000 0.000000
0.585019 1.255567 2.312478 0.000000 0.000000 0.000000
0.584027 1.255425 2.322960 0.000000 0.000000 0.000000
0.580994 1.314039 2.301394 0.000000 0.000000 0.000000
0.579742 1.301468 2.302052 0.000000 0.000000 0.000000
0.615503 1.293544 2.307251 0.000000 0.000000 0.000000
0.613411 1.291923 2.300203 0.000000 0.000000 0.000000
0.548084 1.311303 2.339569 0.000000 0.000000 0.000000
0.627982 1.278129 2.312253 0.000000 0.000000 0.000000
0.552720 1.277060 2.310725 0.000000 0.000000 0.000000
0.609683 1.252533 2.311529 0.000000 0.000000 0.000000
0.540877 1.289582 2.338256 0.000000 0.000000 0.000000
0.571904 1.265609 2.314655 0.000000 0.000000 0.000000
0.551551 1.284329 2.327543 0.000000 0.000000 0.000000
0.602502 1.291238 2.303418 0.000000 0.000000 0.000000
0.568849 1.283531 2.305663 0.000000 0.000000 0.000000
0.578631 1.299281 2.301182 0.000000 0.000000 0.000000
0.552349 1.293916 2.327657 0.000000 0.000000 0.000000
0.604399 1.304165 2.302349 0.000000 0.000000 0.000000
0.562539 1.266695 2.317554 0.000000 0.000000 0.000000
0.613456 1.295846 2.308156 0.000000 0.000000 0.000000
0.594019 1.253352 2.306862 0.000000 0.000000 0.000000
0.589944 1.260965 2.310583 0.000000 0.000000 0.000000
0.550246 1.317416 2.316817 0.000000 0.000000 0.000000
0.623898 1.280204 2.316604 0.000000 0.000000 0.000000
0.619749 1.268878 2.311899 0.000000 0.000000 0.000000
0.592076 1.253917 2.314500 0.000000 0.000000 0.000000
0.553350 1.310876 2.307281 0.000000 0.000000 0.000000
0.613099 1.273767 2.303422 0.000000 0.000000 0.000000
0.586371 1.250795 2.319586 0.000000 0.000000 0.000000
0.559636 1.261181 2.321289 0.000000 0.000000 0.000000
0.579762 1.272172 2.302017 0.000000 0.000000 0.000000
0.605935 1.307765 2.298443 0.000000 0.000000 0.000000
0.615882 1.285529 2.302045 0.000000 0.000000 0.000000
0.548757 1.308396 2.316159 0.000000 0.000000 0.000000
0.549458 1.288703 2.334595 0.000000 0.000000 0.000000
0.543223 1.294604 2.334127 0.000000 0.000000 0.000000
0.555484 1.278125 2.331207 0.000000 0.000000 0.000000
0.628431 1.280587 2.310357 0.000000 0.000000 0.000000
0.590973 1.275681 2.303241 0.000000 0.000000 0.000000
0.553163 1.261435 2.323451 0.000000 0.000000 0.000000
0.573104 1.260641 2.316092 0.000000 0.000000 0.000000
0.595878 1.255340 2.311108 0.000000 0.000000 0.000000
0.547404 1.303642 2.319079 0.000000 0.000000 0.000000
0.615130 1.273468 2.302529 0.000000 0.000000 0.000000
0.557962 1.302385 2.305816 0.000000 0.000000 0.000000
0.626671 1.311777 2.316557 0.000000 0.000000 0.000000
0.617383 1.276313 2.308655 0.000000 0.000000 0.000000
0.600934 1.279118 2.308193 0.000000 0.000000 0.000000
0.620493 1.276318 2.307830 0.000000 0.000000 0.000000
0.549527 1.265545 2.327357 0.000000 0.000000 0.000000
0.625706 1.282447 2.305235 0.000000 0.000000 0.000000
0.628081 1.297236 2.311031 0.000000 0.000000 0.000000
0.576539 1.255526 2.313242 0.000000 0.000000 0.000000
0.563307 1.289919 2.320028 0.000000 0.000000 0.000000
0.594103 1.292194 2.306327 0.000000 0.000000 0.000000
0.621177 1.286423 2.307151 0.000000 0.000000 0.000000
0.612935 1.276776 2.317091 0.000000 0.000000 0.000000
0.544348 1.287148 2.336237 0.000000 0.000000 0.000000
0.541379 1.285043 2.333999 0.000000 0.000000 0.000000
0.604501 1.252121 2.313663 0.000000 0.000000 0.000000
0.541813 1.293285 2.329903 0.000000 0.000000 0.000000
0.554237 1.280441 2.340749 0.000000 0.000000 0.000000
0.612425 1.302827 2.308911 0.000000 0.000000 0.000000
0.624119 1.267777 2.311178 0.000000 0.000000 0.000000
0.542967 1.300368 2.337852 0.000000 0.000000 0.000000
0.611250 1.253500 2.313286 0.000000 0.000000 0.000000
0.549708 1.308403 2.312797 0.000000 0.000000 0.000000
0.548620 1.306530 2.317996 0.000000 0.000000 0.000000
0.556471 1.306662 2.315571 0.000000 0.000000 0.000000
0.545077 1.299753 2.322393 0.000000 0.000000 0.000000
0.554353 1.308401 2.320291 0.000000 0.000000 0.000000
0.623608 1.279627 2.303724 0.000000 0.000000 0.000000
0.578083 1.258551 2.320176 0.000000 0.000000 0.000000
0.623571 1.291034 2.312639 0.000000 0.000000 0.000000
0.545909 1.308722 2.321001 0.000000 0.000000 0.000000
0.549888 1.311319 2.322046 0.000000 0.000000 0.000000
0.568019 1.315102 2.304175 0.000000 0.000000 0.000000
0.543615 1.296221 2.346236 0.000000 0.000000 0.000000
0.542109 1.298970 2.344358 0.000000 0.000000 0.000000
0.549903 1.310764 2.344953 0.000000 0.000000 0.000000
0.605725 1.298175 2.295936 0.000000 0.000000 0.000000
0.608702 1.303188 2.301714 0.000000 0.000000 0.000000
0.621960 1.264427 2.308888 0.000000 0.000000 0.000000
0.583307 1.302315 2.305445 0.000000 0.000000 0.000000
0.575005 1.253291 2.319744 0.000000 0.000000 0.000000
0.563629 1.271140 2.325610 0.000000 0.000000 0.000000
0.612533 1.286266 2.313778 0.000000 0.000000 0.000000
0.589991 1.253603 2.315493 0.000000 0.000000 0.000000
0.544323 1.303152 2.341534 0.000000 0.000000 0.000000
0.547674 1.309119 2.339975 0.000000 0.000000 0.000000
0.622565 1.269934 2.308013 0.000000 0.000000 0.000000
0.544688 1.297186 2.343439 0.000000 0.000000 0.000000
0.556528 1.299243 2.304041 0.000000 0.000000 0.000000
0.577279 1.301536 2.295052 0.000000 0.000000 0.000000
0.572733 1.272789 2.297005 0.000000 0.000000 0.000000
0.549667 1.293944 2.305654 0.000000 0.000000 0.000000
0.583671 1.314018 2.301777 0.000000 0.000000 0.000000
0.602055 1.261902 2.307016 0.000000 0.000000 0.000000
0.565989 1.254648 2.320297 0.000000 0.000000 0.000000
0.551736 1.273208 2.327221 0.000000 0.000000 0.000000
0.597475 1.251152 2.314284 0.000000 0.000000 0.000000
0.569829 1.294950 2.299947 0.000000 0.000000 0.000000
0.559851 1.286730 2.311080 0.000000 0.000000 0.000000
0.557322 1.299816 2.302993 0.000000 0.000000 0.000000
0.568193 1.303041 2.304173 0.000000 0.000000 0.000000
0.569970 1.253035 2.318130 0.000000 0.000000 0.000000
0.549749 1.261895 2.327408 0.000000 0.000000 0.000000
0.602549 1.313423 2.305628 0.000000 0.000000 0.000000
0.603823 1.303766 2.296517 0.000000 0.000000 0.000000
0.576166 1.318181 2.302233 0.000000 0.000000 0.000000
0.599620 1.262054 2.314370 0.000000 0.000000 0.000000
0.607797 1.253866 2.312359 0.000000 0.000000 0.000000
0.601315 1.262185 2.311129 0.000000 0.000000 0.000000
0.612362 1.276810 2.306973 0.000000 0.000000 0.000000
0.615929 1.266790 2.309312 0.000000 0.000000 0.000000
0.600072 1.268223 2.307499 0.000000 0.000000 0.000000
0.611037 1.259229 2.309803 0.000000 0.000000 0.000000
0.614800 1.257209 2.312990 0.000000 0.000000 0.000000
0.606587 1.265479 2.317124 0.000000 0.000000 0.000000
0.623892 1.306912 2.305920 0.000000 0.000000 0.000000
0.557089 1.273247 2.315610 0.000000 0.000000 0.000000
0.547541 1.305587 2.322526 0.000000 0.000000 0.000000
0.600775 1.255519 2.310860 0.000000 0.000000 0.000000
0.591286 1.279908 2.298895 0.000000 0.000000 0.000000
0.620621 1.260904 2.313053 0.000000 0.000000 0.000000
0.597917 1.258979 2.312347 0.000000 0.000000 0.000000
0.551374 1.287586 2.315157 0.000000 0.000000 0.000000
0.548290 1.301905 2.315673 0.000000 0.000000 0.000000
0.607388 1.272587 2.306506 0.000000 0.000000 0.000000
0.551509 1.289759 2.309032 0.000000 0.000000 0.000000
0.601196 1.256089 2.314465 0.000000 0.000000 0.000000
0.617875 1.255953 2.311247 0.000000 0.000000 0.000000
0.591090 1.297772 2.303024 0.000000 0.000000 0.000000
0.598810 1.292248 2.303735 0.000000 0.000000 0.000000
0.579882 1.300500 2.315092 0.000000 0.000000 0.000000
0.575152 1.283295 2.301388 0.000000 0.000000 0.000000
0.581072 1.312544 2.303693 0.000000 0.000000 0.000000
0.605594 1.288809 2.301948 0.000000 0.000000 0.000000
0.543574 1.268112 2.329500 0.000000 0.000000 0.000000
0.628198 1.301382 2.313068 0.000000 0.000000 0.000000
0.616202 1.295518 2.301025 0.000000 0.000000 0.000000
0.602384 1.302624 2.294365 0.000000 0.000000 0.000000
0.623944 1.302973 2.307912 0.000000 0.000000 0.000000
0.585836 1.300216 2.300464 0.000000 0.000000 0.000000
0.573092 1.297748 2.300257 0.000000 0.000000 0.000000
0.589732 1.297038 2.294954 0.000000 0.000000 0.000000
0.618977 1.302539 2.300822 0.000000 0.000000 0.000000
0.610897 1.310042 2.302117 0.000000 0.000000 0.000000
0.617298 1.303941 2.301817 0.000000 0.000000 0.000000
0.622948 1.305916 2.314556 0.000000 0.000000 0.000000
0.592101 1.315385 2.300834 0.000000 0.000000 0.000000
0.613432 1.306692 2.299840 0.000000 0.000000 0.000000
0.605965 1.310907 2.298924 0.000000 0.000000 0.000000
0.595738 1.315990 2.300593 0.000000 0.000000 0.000000
0.554671 1.295670 2.312695 0.000000 0.000000 0.000000
0.603803 1.307976 2.298039 0.000000 0.000000 0.000000
0.616544 1.306735 2.302831 0.000000 0.000000 0.000000
0.597700 1.304229 2.300537 0.000000 0.000000 0.000000
0.551799 1.260415 2.322202 0.000000 0.000000 0.000000
0.584363 1.304343 2.304930 0.000000 0.000000 0.000000
0.550578 1.316142 2.314134 0.000000 0.000000 0.000000
0.566672 1.314226 2.304066 0.000000 0.000000 0.000000
0.550628 1.293934 2.310035 0.000000 0.000000 0.000000
0.579198 1.292541 2.311144 0.000000 0.000000 0.000000
0.559636 1.304870 2.320516 0.000000 0.000000 0.000000
0.591213 1.275293 2.299780 0.000000 0.000000 0.000000
0.561651 1.316311 2.304708 0.000000 0.000000 0.000000
0.550962 1.314844 2.319306 0.000000 0.000000 0.000000
0.556192 1.306916 2.305037 0.000000 0.000000 0.000000
0.572606 1.295256 2.299722 0.000000 0.000000 0.000000
0.620553 1.289150 2.308109 0.000000 0.000000 0.000000
0.589225 1.265170 2.306808 0.000000 0.000000 0.000000
0.583815 1.297556 2.316513 0.000000 0.000000 0.000000
0.558550 1.313764 2.313039 0.000000 0.000000 0.000000
0.608946 1.285933 2.298054 0.000000 0.000000 0.000000
0.587737 1.288351 2.298090 0.000000 0.000000 0.000000
0.595915 1.284862 2.298017 0.000000 0.000000 0.000000
0.554999 1.317263 2.306416 0.000000 0.000000 0.000000
0.550972 1.315589 2.319152 0.000000 0.000000 0.000000
0.552067 1.320225 2.315589 0.000000 0.000000 0.000000
0.548391 1.302533 2.339208 0.000000 0.000000 0.000000
0.544933 1.297361 2.328437 0.000000 0.000000 0.000000
0.546843 1.307954 2.334028 0.000000 0.000000 0.000000
0.616217 1.278046 2.300472 0.000000 0.000000 0.000000
0.546747 1.298074 2.346434 0.000000 0.000000 0.000000
0.626654 1.304847 2.299492 0.000000 0.000000 0.000000
0.608216 1.298871 2.307947 0.000000 0.000000 0.000000
0.549220 1.308538 2.327425 0.000000 0.000000 0.000000
0.608246 1.289461 2.300068 0.000000 0.000000 0.000000
0.546544 1.307893 2.346726 0.000000 0.000000 0.000000
0.625517 1.301674 2.301272 0.000000 0.000000 0.000000
0.621777 1.300270 2.302147 0.000000 0.000000 0.000000
0.580387 1.290485 2.296752 0.000000 0.000000 0.000000
0.598438 1.273134 2.319192 0.000000 0.000000 0.000000
0.545880 1.310457 2.325146 0.000000 0.000000 0.000000
0.549238 1.304846 2.332260 0.000000 0.000000 0.000000
0.549079 1.314681 2.321705 0.000000 0.000000 0.000000
0.600905 1.269187 2.317675 0.000000 0.000000 0.000000
0.548544 1.306842 2.337629 0.000000 0.000000 0.000000
0.605800 1.311415 2.301039 0.000000 0.000000 0.000000
0.590123 1.302605 2.310741 0.000000 0.000000 0.000000
0.547576 1.314516 2.325603 0.000000 0.000000 0.000000
0.548445 1.299033 2.334838 0.000000 0.000000 0.000000
0.549970 1.310401 2.328078 0.000000 0.000000 0.000000
0.549740 1.313349 2.323942 0.000000 0.000000 0.000000
0.595294 1.266028 2.320749 0.000000 0.000000 0.000000
0.621093 1.304149 2.302951 0.000000 0.000000 0.000000
0.598166 1.313624 2.301155 0.000000 0.000000 0.000000
0.571145 1.315945 2.305525 0.000000 0.000000 0.000000
0.625352 1.296209 2.309995 0.000000 0.000000 0.000000
0.615542 1.257349 2.313331 0.000000 0.000000 0.000000
0.595203 1.257041 2.310706 0.000000 0.000000 0.000000
0.603221 1.262593 2.305733 0.000000 0.000000 0.000000
0.587463 1.275874 2.299450 0.000000 0.000000 0.000000
0.599450 1.264031 2.306486 0.000000 0.000000 0.000000
0.539936 1.276200 2.342471 0.000000 0.000000 0.000000
0.617813 1.266902 2.306513 0.000000 0.000000 0.000000
0.565030 1.313522 2.303305 0.000000 0.000000 0.000000
0.576260 1.305040 2.303099 0.000000 0.000000 0.000000
0.554000 1.312319 2.312397 0.000000 0.000000 0.000000
0.584539 1.314324 2.307930 0.000000 0.000000 0.000000
0.579187 1.315573 2.308905 0.000000 0.000000 0.000000
0.556375 1.310297 2.304297 0.000000 0.000000 0.000000
0.580880 1.307222 2.304296 0.000000 0.000000 0.000000
0.581550 1.318232 2.301509 0.000000 0.000000 0.000000
0.564137 1.313523 2.308702 0.000000 0.000000 0.000000
0.541911 1.288505 2.346794 0.000000 0.000000 0.000000
0.564044 1.260155 2.322119 0.000000 0.000000 0.000000
0.554909 1.283417 2.304127 0.000000 0.000000 0.000000
0.561463 1.305642 2.305630 0.000000 0.000000 0.000000
0.567444 1.279341 2.306526 0.000000 0.000000 0.000000
0.581148 1.312774 2.302529 0.000000 0.000000 0.000000
0.561221 1.290217 2.303301 0.000000 0.000000 0.000000
0.566139 1.283789 2.300861 0.000000 0.000000 0.000000
0.559408 1.286738 2.306703 0.000000 0.000000 0.000000
0.556219 1.287589 2.305418 0.000000 0.000000 0.000000
0.556716 1.296368 2.303642 0.000000 0.000000 0.000000
0.565972 1.290374 2.301217 0.000000 0.000000 0.000000
0.567878 1.283657 2.304237 0.000000 0.000000 0.000000
0.552057 1.313555 2.310827 0.000000 0.000000 0.000000
0.557373 1.314200 2.305114 0.000000 0.000000 0.000000
0.557071 1.308103 2.305371 0.000000 0.000000 0.000000
0.546894 1.307927 2.337507 0.000000 0.000000 0.000000
0.558046 1.314744 2.303233 0.000000 0.000000 0.000000
0.573163 1.317463 2.302554 0.000000 0.000000 0.000000
0.540406 1.294813 2.341526 0.000000 0.000000 0.000000
0.543634 1.297311 2.343781 0.000000 0.000000 0.000000
0.548938 1.311616 2.336706 0.000000 0.000000 0.000000
0.545855 1.308304 2.339164 0.000000 0.000000 0.000000
0.545479 1.301215 2.343440 0.000000 0.000000 0.000000
0.540978 1.292624 2.340813 0.000000 0.000000 0.000000
0.567404 1.294339 2.302623 0.000000 0.000000 0.000000
0.560002 1.290896 2.301672 0.000000 0.000000 0.000000
0.554758 1.305923 2.339893 0.000000 0.000000 0.000000
0.542510 1.294494 2.345168 0.000000 0.000000 0.000000
0.544395 1.283165 2.340362 0.000000 0.000000 0.000000
0.541945 1.284094 2.339953 0.000000 0.000000 0.000000
0.538852 1.273444 2.341985 0.000000 0.000000 0.000000
0.546679 1.293340 2.342684 0.000000 0.000000 0.000000
0.541798 1.286999 2.344154 0.000000 0.000000 0.000000
0.543839 1.282858 2.343275 0.000000 0.000000 0.000000
0.579585 1.313959 2.300428 0.000000 0.000000 0.000000
0.561174 1.254790 2.319224 0.000000 0.000000 0.000000
0.554943 1.314796 2.306277 0.000000 0.000000 0.000000
0.564068 1.316365 2.303663 0.000000 0.000000 0.000000
0.573695 1.312621 2.304276 0.000000 0.000000 0.000000
0.552134 1.316823 2.310767 0.000000 0.000000 0.000000
0.589635 1.314060 2.305872 0.000000 0.000000 0.000000
0.561993 1.314823 2.304072 0.000000 0.000000 0.000000
0.587208 1.318536 2.300756 0.000000 0.000000 0.000000
0.566406 1.316573 2.303583 0.000000 0.000000 0.000000
0.566134 1.254315 2.321892 0.000000 0.000000 0.000000
0.557718 1.263998 2.324481 0.000000 0.000000 0.000000
0.571722 1.262624 2.327298 0.000000 0.000000 0.000000
0.583050 1.306147 2.301434 0.000000 0.000000 0.000000
0.582143 1.252743 2.320173 0.000000 0.000000 0.000000
0.581796 1.303946 2.302667 0.000000 0.000000 0.000000
0.567266 1.260775 2.320513 0.000000 0.000000 0.000000
0.587058 1.306767 2.300201 0.000000 0.000000 0.000000
0.571097 1.316405 2.304816 0.000000 0.000000 0.000000
0.592052 1.313904 2.298959 0.000000 0.000000 0.000000
0.601763 1.307643 2.299894 0.000000 0.000000 0.000000
0.550216 1.262194 2.327855 0.000000 0.000000 0.000000
0.584656 1.262632 2.321475 0.000000 0.000000 0.000000
0.583242 1.302711 2.302009 0.000000 0.000000 0.000000
0.567208 1.257718 2.320774 0.000000 0.000000 0.000000
0.568610 1.262163 2.324395 0.000000 0.000000 0.000000
0.582112 1.299772 2.303373 0.000000 0.000000 0.000000
0.549436 1.274543 2.334102 0.000000 0.000000 0.000000
0.559098 1.259630 2.323514 0.000000 0.000000 0.000000
0.572600 1.311087 2.305183 0.000000 0.000000 0.000000
0.588042 1.314102 2.301561 0.000000 0.000000 0.000000
0.587340 1.311550 2.298851 0.000000 0.000000 0.000000
0.591335 1.310111 2.303143 0.000000 0.000000 0.000000
0.617706 1.310162 2.298004 0.000000 0.000000 0.000000
0.577998 1.261649 2.314354 0.000000 0.000000 0.000000
0.569536 1.259656 2.314350 0.000000 0.000000 0.000000
0.568073 1.317152 2.309479 0.000000 0.000000 0.000000
0.583624 1.250799 2.311734 0.000000 0.000000 0.000000
0.579959 1.260122 2.309125 0.000000 0.000000 0.000000
0.597856 1.253826 2.316937 0.000000 0.000000 0.000000
0.556144 1.270846 2.308653 0.000000 0.000000 0.000000
0.542129 1.268217 2.334591 0.000000 0.000000 0.000000
0.545145 1.269491 2.334510 0.000000 0.000000 0.000000
0.579626 1.255280 2.314367 0.000000 0.000000 0.000000
0.602137 1.258606 2.314437 0.000000 0.000000 0.000000
0.611264 1.260472 2.307302 0.000000 0.000000 0.000000
0.580538 1.269410 2.304559 0.000000 0.000000 0.000000
0.567865 1.266235 2.312437 0.000000 0.000000 0.000000
0.588175 1.252034 2.316874 0.000000 0.000000 0.000000
0.588260 1.266917 2.314204 0.000000 0.000000 0.000000
0.546455 1.262097 2.330107 0.000000 0.000000 0.000000
0.552092 1.261393 2.328592 0.000000 0.000000 0.000000
0.591727 1.274766 2.303188 0.000000 0.000000 0.000000
0.592265 1.286539 2.295674 0.000000 0.000000 0.000000
0.594100 1.287829 2.296819 0.000000 0.000000 0.000000
0.585829 1.252193 2.317155 0.000000 0.000000 0.000000
0.575281 1.256085 2.315705 0.000000 0.000000 0.000000
0.585505 1.302191 2.294731 0.000000 0.000000 0.000000
0.575108 1.253459 2.320175 0.000000 0.000000 0.000000
0.579220 1.251592 2.316915 0.000000 0.000000 0.000000
0.604513 1.256106 2.309184 0.000000 0.000000 0.000000
0.541691 1.276146 2.332022 0.000000 0.000000 0.000000
0.550990 1.267878 2.330230 0.000000 0.000000 0.000000
0.540859 1.278780 2.337721 0.000000 0.000000 0.000000
0.576113 1.278572 2.297765 0.000000 0.000000 0.000000
0.603995 1.279374 2.300075 0.000000 0.000000 0.000000
0.542198 1.276373 2.339015 0.000000 0.000000 0.000000
0.579179 1.286735 2.299669 0.000000 0.000000 0.000000
0.598944 1.283709 2.301182 0.000000 0.000000 0.000000
0.596786 1.252219 2.313015 0.000000 0.000000 0.000000
0.540289 1.290029 2.344232 0.000000 0.000000 0.000000
0.542619 1.296011 2.346579 0.000000 0.000000 0.000000
0.541252 1.297762 2.343231 0.000000 0.000000 0.000000
0.542285 1.284947 2.342085 0.000000 0.000000 0.000000
0.592698 1.250660 2.314025 0.000000 0.000000 0.000000
0.583544 1.264272 2.307670 0.000000 0.000000 0.000000
0.545012 1.278487 2.337369 0.000000 0.000000 0.000000
0.596049 1.256393 2.311208 0.000000 0.000000 0.000000
0.586449 1.261323 2.309317 0.000000 0.000000 0.000000
0.589781 1.260582 2.305833 0.000000 0.000000 0.000000
0.583544 1.266613 2.306256 0.000000 0.000000 0.000000
0.542448 1.285385 2.344570 0.000000 0.000000 0.000000
0.591852 1.257260 2.310704 0.000000 0.000000 0.000000
0.582071 1.280539 2.310913 0.000000 0.000000 0.000000
0.606494 1.252908 2.312361 0.000000 0.000000 0.000000
0.611446 1.254686 2.310551 0.000000 0.000000 0.000000
0.613922 1.255337 2.311911 0.000000 0.000000 0.000000
0.601849 1.251096 2.313180 0.000000 0.000000 0.000000
0.596230 1.272196 2.301276 0.000000 0.000000 0.000000
0.614950 1.257729 2.314301 0.000000 0.000000 0.000000
0.573322 1.296263 2.319623 0.000000 0.000000 0.000000
0.559332 1.270324 2.329538 0.000000 0.000000 0.000000
0.575443 1.267145 2.325639 0.000000 0.000000 0.000000
0.566269 1.293421 2.325827 0.000000 0.000000 0.000000
0.567469 1.276261 2.329031 0.000000 0.000000 0.000000
0.571871 1.262512 2.323931 0.000000 0.000000 0.000000
0.566348 1.308321 2.309551 0.000000 0.000000 0.000000
0.576981 1.303141 2.319766 0.000000 0.000000 0.000000
0.585190 1.304348 2.312571 0.000000 0.000000 0.000000
0.588149 1.296632 2.316848 0.000000 0.000000 0.000000
0.571725 1.312836 2.311261 0.000000 0.000000 0.000000
0.589164 1.302940 2.313978 0.000000 0.000000 0.000000
0.578669 1.297046 2.320099 0.000000 0.000000 0.000000
0.562363 1.312824 2.313963 0.000000 0.000000 0.000000
