ply
format ascii 1.0
comment VCGLIB generated
obj_info Generated by SPFormer!
element vertex 601
property float x
property float y
property float z
property float nx
property float ny
property float nz
end_header
0.600654 1.159987 2.053060 0.000000 0.000000 0.000000
0.614667 1.141364 2.046274 0.000000 0.000000 0.000000
0.621436 1.144933 2.046730 0.000000 0.000000 0.000000
0.610517 1.146069 2.046568 0.000000 0.000000 0.000000
0.642001 1.162625 2.027653 0.000000 0.000000 0.000000
0.695014 1.162821 2.042419 0.000000 0.000000 0.000000
0.625246 1.149475 2.040738 0.000000 0.000000 0.000000
0.637420 1.143382 2.030009 0.000000 0.000000 0.000000
0.659153 1.131962 2.049374 0.000000 0.000000 0.000000
0.710743 1.153619 2.046087 0.000000 0.000000 0.000000
0.707246 1.176743 2.034492 0.000000 0.000000 0.000000
0.639391 1.137897 2.047183 0.000000 0.000000 0.000000
0.686376 1.148014 2.036002 0.000000 0.000000 0.000000
0.662405 1.163521 2.028089 0.000000 0.000000 0.000000
0.688554 1.165074 2.031566 0.000000 0.000000 0.000000
0.658863 1.174328 2.027210 0.000000 0.000000 0.000000
0.646246 1.172310 2.016615 0.000000 0.000000 0.000000
0.663717 1.187820 2.015950 0.000000 0.000000 0.000000
0.600150 1.156050 2.038766 0.000000 0.000000 0.000000
0.643050 1.148024 2.041072 0.000000 0.000000 0.000000
0.696567 1.150309 2.044843 0.000000 0.000000 0.000000
0.710060 1.169150 2.043611 0.000000 0.000000 0.000000
0.608814 1.158952 2.041743 0.000000 0.000000 0.000000
0.671166 1.166115 2.023943 0.000000 0.000000 0.000000
0.682898 1.164070 2.030570 0.000000 0.000000 0.000000
0.654767 1.145770 2.036941 0.000000 0.000000 0.000000
0.669375 1.184394 2.022768 0.000000 0.000000 0.000000
0.647271 1.139834 2.045141 0.000000 0.000000 0.000000
0.631891 1.161514 2.025198 0.000000 0.000000 0.000000
0.625355 1.161265 2.034939 0.000000 0.000000 0.000000
0.667301 1.131449 2.047913 0.000000 0.000000 0.000000
0.635305 1.171692 2.020823 0.000000 0.000000 0.000000
0.644393 1.157238 2.029369 0.000000 0.000000 0.000000
0.645740 1.167716 2.019385 0.000000 0.000000 0.000000
0.657325 1.179984 2.020581 0.000000 0.000000 0.000000
0.659759 1.172204 2.021599 0.000000 0.000000 0.000000
0.617457 1.140509 2.048363 0.000000 0.000000 0.000000
0.689361 1.167230 2.034497 0.000000 0.000000 0.000000
0.646294 1.164926 2.031554 0.000000 0.000000 0.000000
0.692740 1.178118 2.032020 0.000000 0.000000 0.000000
0.648696 1.178229 2.016729 0.000000 0.000000 0.000000
0.652317 1.157701 2.037171 0.000000 0.000000 0.000000
0.689792 1.171669 2.030202 0.000000 0.000000 0.000000
0.676237 1.178697 2.024277 0.000000 0.000000 0.000000
0.653503 1.175346 2.019486 0.000000 0.000000 0.000000
0.675997 1.194889 2.020317 0.000000 0.000000 0.000000
0.646991 1.153751 2.029237 0.000000 0.000000 0.000000
0.624644 1.162472 2.032346 0.000000 0.000000 0.000000
0.649035 1.158921 2.029404 0.000000 0.000000 0.000000
0.641495 1.176294 2.025898 0.000000 0.000000 0.000000
0.635497 1.153625 2.035919 0.000000 0.000000 0.000000
0.673501 1.175862 2.023311 0.000000 0.000000 0.000000
0.671581 1.183538 2.021750 0.000000 0.000000 0.000000
0.620080 1.145197 2.044203 0.000000 0.000000 0.000000
0.631988 1.137238 2.048602 0.000000 0.000000 0.000000
0.667045 1.145938 2.031125 0.000000 0.000000 0.000000
0.651664 1.169972 2.023543 0.000000 0.000000 0.000000
0.632526 1.139037 2.039685 0.000000 0.000000 0.000000
0.675535 1.164358 2.036198 0.000000 0.000000 0.000000
0.686052 1.140367 2.047732 0.000000 0.000000 0.000000
0.666516 1.180795 2.020531 0.000000 0.000000 0.000000
0.694195 1.181938 2.031221 0.000000 0.000000 0.000000
0.665443 1.184050 2.019316 0.000000 0.000000 0.000000
0.611333 1.137027 2.048750 0.000000 0.000000 0.000000
0.691126 1.164344 2.034752 0.000000 0.000000 0.000000
0.677134 1.184844 2.024742 0.000000 0.000000 0.000000
0.699651 1.158810 2.039203 0.000000 0.000000 0.000000
0.637976 1.153600 2.036396 0.000000 0.000000 0.000000
0.629714 1.171716 2.020039 0.000000 0.000000 0.000000
0.620872 1.142182 2.049711 0.000000 0.000000 0.000000
0.603910 1.158254 2.047936 0.000000 0.000000 0.000000
0.627824 1.131816 2.050701 0.000000 0.000000 0.000000
0.637011 1.130433 2.054183 0.000000 0.000000 0.000000
0.697303 1.170548 2.038516 0.000000 0.000000 0.000000
0.698939 1.175054 2.033111 0.000000 0.000000 0.000000
0.601117 1.158239 2.049323 0.000000 0.000000 0.000000
0.702499 1.178872 2.037574 0.000000 0.000000 0.000000
0.698380 1.166423 2.044217 0.000000 0.000000 0.000000
0.703459 1.177826 2.038507 0.000000 0.000000 0.000000
0.613630 1.150143 2.044275 0.000000 0.000000 0.000000
0.653478 1.174537 2.024163 0.000000 0.000000 0.000000
0.622894 1.151038 2.041524 0.000000 0.000000 0.000000
0.643768 1.129611 2.051791 0.000000 0.000000 0.000000
0.655308 1.170951 2.022813 0.000000 0.000000 0.000000
0.674229 1.162039 2.031386 0.000000 0.000000 0.000000
0.645322 1.169892 2.020554 0.000000 0.000000 0.000000
0.664603 1.182984 2.019226 0.000000 0.000000 0.000000
0.637123 1.160959 2.030538 0.000000 0.000000 0.000000
0.663885 1.188482 2.018484 0.000000 0.000000 0.000000
0.663584 1.127227 2.050908 0.000000 0.000000 0.000000
0.626382 1.170534 2.033448 0.000000 0.000000 0.000000
0.702281 1.161792 2.040666 0.000000 0.000000 0.000000
0.643860 1.134963 2.043786 0.000000 0.000000 0.000000
0.675999 1.141193 2.039217 0.000000 0.000000 0.000000
0.616074 1.136186 2.047429 0.000000 0.000000 0.000000
0.616268 1.165285 2.030964 0.000000 0.000000 0.000000
0.671014 1.151664 2.035101 0.000000 0.000000 0.000000
0.611750 1.136168 2.050106 0.000000 0.000000 0.000000
0.678432 1.138230 2.049504 0.000000 0.000000 0.000000
0.625599 1.134412 2.047891 0.000000 0.000000 0.000000
0.630509 1.153752 2.031526 0.000000 0.000000 0.000000
0.600840 1.150774 2.048095 0.000000 0.000000 0.000000
0.613310 1.143483 2.049663 0.000000 0.000000 0.000000
0.663041 1.143824 2.040020 0.000000 0.000000 0.000000
0.641305 1.156253 2.031345 0.000000 0.000000 0.000000
0.640717 1.170064 2.021002 0.000000 0.000000 0.000000
0.624898 1.136722 2.050115 0.000000 0.000000 0.000000
0.636715 1.176651 2.014410 0.000000 0.000000 0.000000
0.673054 1.154441 2.035353 0.000000 0.000000 0.000000
0.646151 1.147510 2.040367 0.000000 0.000000 0.000000
0.672599 1.134598 2.044626 0.000000 0.000000 0.000000
0.645096 1.176094 2.016986 0.000000 0.000000 0.000000
0.629359 1.157936 2.030058 0.000000 0.000000 0.000000
0.612511 1.158536 2.039878 0.000000 0.000000 0.000000
0.628105 1.160792 2.028249 0.000000 0.000000 0.000000
0.636810 1.157819 2.031872 0.000000 0.000000 0.000000
0.653311 1.155737 2.024518 0.000000 0.000000 0.000000
0.697534 1.148586 2.047091 0.000000 0.000000 0.000000
0.640219 1.134441 2.052868 0.000000 0.000000 0.000000
0.685506 1.164736 2.038986 0.000000 0.000000 0.000000
0.628403 1.131985 2.050679 0.000000 0.000000 0.000000
0.627671 1.164804 2.027477 0.000000 0.000000 0.000000
0.614323 1.159864 2.042814 0.000000 0.000000 0.000000
0.625219 1.161488 2.034116 0.000000 0.000000 0.000000
0.631802 1.152023 2.039649 0.000000 0.000000 0.000000
0.645031 1.179120 2.017955 0.000000 0.000000 0.000000
0.630371 1.158817 2.026109 0.000000 0.000000 0.000000
0.676401 1.151303 2.037761 0.000000 0.000000 0.000000
0.618393 1.164608 2.031353 0.000000 0.000000 0.000000
0.638913 1.172574 2.019084 0.000000 0.000000 0.000000
0.630796 1.170496 2.020614 0.000000 0.000000 0.000000
0.648711 1.137491 2.050460 0.000000 0.000000 0.000000
0.670517 1.129594 2.047776 0.000000 0.000000 0.000000
0.661512 1.171817 2.020993 0.000000 0.000000 0.000000
0.649084 1.128152 2.047981 0.000000 0.000000 0.000000
0.657815 1.136141 2.046657 0.000000 0.000000 0.000000
0.600145 1.156574 2.039224 0.000000 0.000000 0.000000
0.696320 1.190779 2.032319 0.000000 0.000000 0.000000
0.618656 1.166290 2.028315 0.000000 0.000000 0.000000
0.640492 1.171538 2.018742 0.000000 0.000000 0.000000
0.668516 1.130000 2.045588 0.000000 0.000000 0.000000
0.614583 1.158817 2.037587 0.000000 0.000000 0.000000
0.671512 1.140036 2.047855 0.000000 0.000000 0.000000
0.696124 1.145866 2.049148 0.000000 0.000000 0.000000
0.656164 1.144830 2.045172 0.000000 0.000000 0.000000
0.677637 1.180837 2.025423 0.000000 0.000000 0.000000
0.606915 1.139636 2.047855 0.000000 0.000000 0.000000
0.668114 1.140522 2.037595 0.000000 0.000000 0.000000
0.658480 1.134436 2.053313 0.000000 0.000000 0.000000
0.667291 1.144451 2.039377 0.000000 0.000000 0.000000
0.664961 1.159170 2.034193 0.000000 0.000000 0.000000
0.686278 1.183320 2.028312 0.000000 0.000000 0.000000
0.605600 1.139604 2.050421 0.000000 0.000000 0.000000
0.679901 1.142004 2.045405 0.000000 0.000000 0.000000
0.648852 1.137081 2.043869 0.000000 0.000000 0.000000
0.660695 1.140011 2.043253 0.000000 0.000000 0.000000
0.655291 1.143205 2.048476 0.000000 0.000000 0.000000
0.670301 1.152843 2.037340 0.000000 0.000000 0.000000
0.663112 1.178810 2.020701 0.000000 0.000000 0.000000
0.675637 1.148319 2.044116 0.000000 0.000000 0.000000
0.680653 1.158641 2.037359 0.000000 0.000000 0.000000
0.661087 1.125463 2.053041 0.000000 0.000000 0.000000
0.653473 1.135444 2.043661 0.000000 0.000000 0.000000
0.627328 1.153203 2.033713 0.000000 0.000000 0.000000
0.661361 1.154842 2.038736 0.000000 0.000000 0.000000
0.653963 1.125312 2.054353 0.000000 0.000000 0.000000
0.654001 1.133568 2.045279 0.000000 0.000000 0.000000
0.653804 1.123986 2.054385 0.000000 0.000000 0.000000
0.679095 1.151337 2.044233 0.000000 0.000000 0.000000
0.659649 1.140222 2.049191 0.000000 0.000000 0.000000
0.639479 1.159260 2.033129 0.000000 0.000000 0.000000
0.697932 1.189155 2.031863 0.000000 0.000000 0.000000
0.637736 1.162848 2.028356 0.000000 0.000000 0.000000
0.698427 1.190147 2.033431 0.000000 0.000000 0.000000
0.643388 1.168209 2.024289 0.000000 0.000000 0.000000
0.633342 1.154500 2.041947 0.000000 0.000000 0.000000
0.695486 1.188066 2.031247 0.000000 0.000000 0.000000
0.617844 1.134668 2.052123 0.000000 0.000000 0.000000
0.686818 1.177456 2.030475 0.000000 0.000000 0.000000
0.694887 1.187145 2.030890 0.000000 0.000000 0.000000
0.701743 1.188086 2.034426 0.000000 0.000000 0.000000
0.694915 1.182020 2.033365 0.000000 0.000000 0.000000
0.693148 1.188391 2.029874 0.000000 0.000000 0.000000
0.613784 1.138991 2.048139 0.000000 0.000000 0.000000
0.619347 1.138893 2.047929 0.000000 0.000000 0.000000
0.686872 1.141629 2.044328 0.000000 0.000000 0.000000
0.654895 1.138949 2.033464 0.000000 0.000000 0.000000
0.707942 1.167639 2.044840 0.000000 0.000000 0.000000
0.656713 1.137394 2.039725 0.000000 0.000000 0.000000
0.685701 1.167757 2.027428 0.000000 0.000000 0.000000
0.675131 1.157431 2.035423 0.000000 0.000000 0.000000
0.670019 1.141909 2.040182 0.000000 0.000000 0.000000
0.675342 1.131400 2.051851 0.000000 0.000000 0.000000
0.649507 1.177922 2.018661 0.000000 0.000000 0.000000
0.638604 1.173527 2.018385 0.000000 0.000000 0.000000
0.642329 1.164698 2.019831 0.000000 0.000000 0.000000
0.634007 1.167481 2.020630 0.000000 0.000000 0.000000
0.694274 1.187773 2.032476 0.000000 0.000000 0.000000
0.638178 1.162721 2.021090 0.000000 0.000000 0.000000
0.700401 1.191753 2.031552 0.000000 0.000000 0.000000
0.690619 1.182439 2.033323 0.000000 0.000000 0.000000
0.652884 1.171332 2.020295 0.000000 0.000000 0.000000
0.680496 1.179463 2.029894 0.000000 0.000000 0.000000
0.639346 1.150150 2.041010 0.000000 0.000000 0.000000
0.610139 1.162817 2.037367 0.000000 0.000000 0.000000
0.635233 1.172286 2.017658 0.000000 0.000000 0.000000
0.677012 1.171484 2.024087 0.000000 0.000000 0.000000
0.700452 1.176476 2.037966 0.000000 0.000000 0.000000
0.626842 1.147842 2.035698 0.000000 0.000000 0.000000
0.617339 1.171088 2.031281 0.000000 0.000000 0.000000
0.636899 1.169649 2.017549 0.000000 0.000000 0.000000
0.658374 1.184158 2.017058 0.000000 0.000000 0.000000
0.635963 1.169265 2.023813 0.000000 0.000000 0.000000
0.684656 1.181488 2.027652 0.000000 0.000000 0.000000
0.604430 1.162076 2.039132 0.000000 0.000000 0.000000
0.635406 1.173535 2.021275 0.000000 0.000000 0.000000
0.668950 1.171389 2.023349 0.000000 0.000000 0.000000
0.609733 1.139545 2.048634 0.000000 0.000000 0.000000
0.636495 1.171965 2.019204 0.000000 0.000000 0.000000
0.611975 1.162092 2.039259 0.000000 0.000000 0.000000
0.626884 1.166820 2.022705 0.000000 0.000000 0.000000
0.676366 1.155722 2.027234 0.000000 0.000000 0.000000
0.625774 1.168964 2.023198 0.000000 0.000000 0.000000
0.698268 1.176498 2.028976 0.000000 0.000000 0.000000
0.692286 1.140053 2.049079 0.000000 0.000000 0.000000
0.634793 1.165482 2.023892 0.000000 0.000000 0.000000
0.703679 1.162552 2.039403 0.000000 0.000000 0.000000
0.693693 1.161520 2.033482 0.000000 0.000000 0.000000
0.620635 1.135512 2.040126 0.000000 0.000000 0.000000
0.654862 1.186529 2.014509 0.000000 0.000000 0.000000
0.706584 1.170472 2.042134 0.000000 0.000000 0.000000
0.624101 1.136282 2.050069 0.000000 0.000000 0.000000
0.707686 1.174026 2.042032 0.000000 0.000000 0.000000
0.697898 1.160089 2.043288 0.000000 0.000000 0.000000
0.692589 1.158817 2.045794 0.000000 0.000000 0.000000
0.659319 1.131978 2.052095 0.000000 0.000000 0.000000
0.652812 1.131189 2.040910 0.000000 0.000000 0.000000
0.638606 1.130326 2.053855 0.000000 0.000000 0.000000
0.694104 1.173761 2.034766 0.000000 0.000000 0.000000
0.687171 1.145624 2.045168 0.000000 0.000000 0.000000
0.643282 1.133366 2.049787 0.000000 0.000000 0.000000
0.630778 1.137668 2.046135 0.000000 0.000000 0.000000
0.615592 1.131374 2.053654 0.000000 0.000000 0.000000
0.692608 1.147068 2.047304 0.000000 0.000000 0.000000
0.649763 1.176235 2.019735 0.000000 0.000000 0.000000
0.644049 1.175448 2.017792 0.000000 0.000000 0.000000
0.666173 1.141805 2.050211 0.000000 0.000000 0.000000
0.634082 1.132295 2.051539 0.000000 0.000000 0.000000
0.604898 1.147526 2.044310 0.000000 0.000000 0.000000
0.619315 1.145983 2.047549 0.000000 0.000000 0.000000
0.683625 1.150501 2.040294 0.000000 0.000000 0.000000
0.635770 1.140209 2.054910 0.000000 0.000000 0.000000
0.682109 1.134210 2.050121 0.000000 0.000000 0.000000
0.705352 1.161318 2.045341 0.000000 0.000000 0.000000
0.699961 1.149698 2.048627 0.000000 0.000000 0.000000
0.602901 1.157155 2.042728 0.000000 0.000000 0.000000
0.604952 1.158556 2.055682 0.000000 0.000000 0.000000
0.629343 1.141897 2.049802 0.000000 0.000000 0.000000
0.650340 1.128856 2.052624 0.000000 0.000000 0.000000
0.685815 1.141338 2.039960 0.000000 0.000000 0.000000
0.707199 1.165823 2.043520 0.000000 0.000000 0.000000
0.692214 1.151064 2.045405 0.000000 0.000000 0.000000
0.631986 1.170580 2.019941 0.000000 0.000000 0.000000
0.691271 1.143648 2.047159 0.000000 0.000000 0.000000
0.635793 1.128482 2.053620 0.000000 0.000000 0.000000
0.640818 1.140018 2.038267 0.000000 0.000000 0.000000
0.652528 1.132900 2.038399 0.000000 0.000000 0.000000
0.681900 1.152743 2.035864 0.000000 0.000000 0.000000
0.633818 1.155970 2.028313 0.000000 0.000000 0.000000
0.631106 1.170872 2.021570 0.000000 0.000000 0.000000
0.613491 1.151366 2.049871 0.000000 0.000000 0.000000
0.636442 1.132064 2.053736 0.000000 0.000000 0.000000
0.653316 1.125613 2.051144 0.000000 0.000000 0.000000
0.676295 1.139184 2.044849 0.000000 0.000000 0.000000
0.623948 1.164783 2.024332 0.000000 0.000000 0.000000
0.630400 1.166388 2.026102 0.000000 0.000000 0.000000
0.666294 1.189408 2.017991 0.000000 0.000000 0.000000
0.622946 1.164874 2.025427 0.000000 0.000000 0.000000
0.681607 1.175758 2.026212 0.000000 0.000000 0.000000
0.696023 1.179412 2.037461 0.000000 0.000000 0.000000
0.669866 1.186931 2.021311 0.000000 0.000000 0.000000
0.685739 1.173575 2.028312 0.000000 0.000000 0.000000
0.686370 1.182502 2.027411 0.000000 0.000000 0.000000
0.633784 1.169924 2.018416 0.000000 0.000000 0.000000
0.638446 1.135008 2.053401 0.000000 0.000000 0.000000
0.678487 1.185570 2.023834 0.000000 0.000000 0.000000
0.661950 1.181351 2.021874 0.000000 0.000000 0.000000
0.696345 1.179849 2.033132 0.000000 0.000000 0.000000
0.681429 1.182964 2.026114 0.000000 0.000000 0.000000
0.687231 1.181669 2.027864 0.000000 0.000000 0.000000
0.698902 1.176800 2.035703 0.000000 0.000000 0.000000
0.616522 1.165582 2.032640 0.000000 0.000000 0.000000
0.703819 1.174765 2.037365 0.000000 0.000000 0.000000
0.617229 1.136288 2.050255 0.000000 0.000000 0.000000
0.617244 1.160760 2.030131 0.000000 0.000000 0.000000
0.694138 1.184684 2.030785 0.000000 0.000000 0.000000
0.602585 1.160352 2.035921 0.000000 0.000000 0.000000
0.609203 1.155495 2.041940 0.000000 0.000000 0.000000
0.694357 1.188960 2.030031 0.000000 0.000000 0.000000
0.633459 1.132780 2.052735 0.000000 0.000000 0.000000
0.689587 1.185575 2.029043 0.000000 0.000000 0.000000
0.692348 1.155830 2.042305 0.000000 0.000000 0.000000
0.607265 1.149582 2.037096 0.000000 0.000000 0.000000
0.664309 1.125334 2.051832 0.000000 0.000000 0.000000
0.688590 1.133675 2.051610 0.000000 0.000000 0.000000
0.672707 1.133586 2.047578 0.000000 0.000000 0.000000
0.683178 1.185516 2.024745 0.000000 0.000000 0.000000
0.680463 1.178402 2.035859 0.000000 0.000000 0.000000
0.690675 1.173988 2.031091 0.000000 0.000000 0.000000
0.684123 1.186468 2.026272 0.000000 0.000000 0.000000
0.621792 1.139843 2.056689 0.000000 0.000000 0.000000
0.690921 1.172345 2.029710 0.000000 0.000000 0.000000
0.691177 1.190161 2.027808 0.000000 0.000000 0.000000
0.680264 1.176818 2.024989 0.000000 0.000000 0.000000
0.636944 1.168400 2.016080 0.000000 0.000000 0.000000
0.690100 1.187091 2.029433 0.000000 0.000000 0.000000
0.700405 1.176008 2.035968 0.000000 0.000000 0.000000
0.705777 1.167007 2.042695 0.000000 0.000000 0.000000
0.647308 1.179129 2.016507 0.000000 0.000000 0.000000
0.647129 1.177582 2.017235 0.000000 0.000000 0.000000
0.634169 1.173174 2.018832 0.000000 0.000000 0.000000
0.695497 1.188817 2.031283 0.000000 0.000000 0.000000
0.709721 1.174236 2.044107 0.000000 0.000000 0.000000
0.657212 1.177625 2.018450 0.000000 0.000000 0.000000
0.643962 1.173934 2.018142 0.000000 0.000000 0.000000
0.669964 1.128349 2.056134 0.000000 0.000000 0.000000
0.651453 1.173059 2.019021 0.000000 0.000000 0.000000
0.666178 1.189259 2.016768 0.000000 0.000000 0.000000
0.639592 1.165389 2.019243 0.000000 0.000000 0.000000
0.668375 1.134416 2.052154 0.000000 0.000000 0.000000
0.670092 1.176578 2.021825 0.000000 0.000000 0.000000
0.669297 1.178959 2.023299 0.000000 0.000000 0.000000
0.691156 1.187505 2.029351 0.000000 0.000000 0.000000
0.697440 1.187818 2.032178 0.000000 0.000000 0.000000
0.701665 1.184571 2.034150 0.000000 0.000000 0.000000
0.630185 1.137066 2.051315 0.000000 0.000000 0.000000
0.629478 1.151290 2.035869 0.000000 0.000000 0.000000
0.688029 1.141968 2.054968 0.000000 0.000000 0.000000
0.699981 1.146330 2.049315 0.000000 0.000000 0.000000
0.646396 1.166692 2.025792 0.000000 0.000000 0.000000
0.705835 1.145470 2.049504 0.000000 0.000000 0.000000
0.624648 1.131057 2.052719 0.000000 0.000000 0.000000
0.642676 1.170195 2.018216 0.000000 0.000000 0.000000
0.624484 1.167928 2.024881 0.000000 0.000000 0.000000
0.651128 1.128892 2.048774 0.000000 0.000000 0.000000
0.642940 1.175734 2.018783 0.000000 0.000000 0.000000
0.692196 1.188817 2.029627 0.000000 0.000000 0.000000
0.658464 1.130305 2.054497 0.000000 0.000000 0.000000
0.664271 1.181049 2.020232 0.000000 0.000000 0.000000
0.645473 1.125698 2.053640 0.000000 0.000000 0.000000
0.657443 1.179801 2.018239 0.000000 0.000000 0.000000
0.692663 1.188857 2.031254 0.000000 0.000000 0.000000
0.672073 1.171416 2.026500 0.000000 0.000000 0.000000
0.653672 1.173627 2.019479 0.000000 0.000000 0.000000
0.644620 1.183671 2.013676 0.000000 0.000000 0.000000
0.615519 1.135073 2.049987 0.000000 0.000000 0.000000
0.695539 1.188109 2.030611 0.000000 0.000000 0.000000
0.694945 1.188615 2.030970 0.000000 0.000000 0.000000
0.672383 1.186148 2.021058 0.000000 0.000000 0.000000
0.705218 1.180364 2.038094 0.000000 0.000000 0.000000
0.702692 1.179998 2.041042 0.000000 0.000000 0.000000
0.707291 1.167315 2.043384 0.000000 0.000000 0.000000
0.604321 1.156753 2.032045 0.000000 0.000000 0.000000
0.697452 1.185412 2.035797 0.000000 0.000000 0.000000
0.686356 1.168604 2.029107 0.000000 0.000000 0.000000
0.701504 1.164317 2.041122 0.000000 0.000000 0.000000
0.656516 1.142320 2.031496 0.000000 0.000000 0.000000
0.693244 1.153540 2.040011 0.000000 0.000000 0.000000
0.691622 1.165888 2.025758 0.000000 0.000000 0.000000
0.688392 1.160332 2.032113 0.000000 0.000000 0.000000
0.693007 1.162649 2.039435 0.000000 0.000000 0.000000
0.655108 1.145097 2.030128 0.000000 0.000000 0.000000
0.690681 1.160628 2.034129 0.000000 0.000000 0.000000
0.664871 1.156055 2.023559 0.000000 0.000000 0.000000
0.687920 1.160820 2.030121 0.000000 0.000000 0.000000
0.698570 1.167361 2.031891 0.000000 0.000000 0.000000
0.645254 1.162488 2.028110 0.000000 0.000000 0.000000
0.658269 1.171370 2.028966 0.000000 0.000000 0.000000
0.635372 1.153824 2.030657 0.000000 0.000000 0.000000
0.635671 1.150621 2.034734 0.000000 0.000000 0.000000
0.631657 1.155389 2.028731 0.000000 0.000000 0.000000
0.636538 1.126274 2.052993 0.000000 0.000000 0.000000
0.649129 1.169074 2.019564 0.000000 0.000000 0.000000
0.645109 1.147753 2.029852 0.000000 0.000000 0.000000
0.646517 1.144186 2.030682 0.000000 0.000000 0.000000
0.648006 1.151025 2.026393 0.000000 0.000000 0.000000
0.638372 1.151718 2.030047 0.000000 0.000000 0.000000
0.636504 1.153600 2.026415 0.000000 0.000000 0.000000
0.630715 1.127768 2.052524 0.000000 0.000000 0.000000
0.668872 1.159731 2.024815 0.000000 0.000000 0.000000
0.685430 1.163267 2.031207 0.000000 0.000000 0.000000
0.603441 1.156576 2.047407 0.000000 0.000000 0.000000
0.607397 1.149823 2.049215 0.000000 0.000000 0.000000
0.600736 1.149961 2.044604 0.000000 0.000000 0.000000
0.657624 1.138477 2.039111 0.000000 0.000000 0.000000
0.687756 1.186810 2.028033 0.000000 0.000000 0.000000
0.659402 1.140605 2.035028 0.000000 0.000000 0.000000
0.659614 1.133160 2.045026 0.000000 0.000000 0.000000
0.680121 1.180007 2.026164 0.000000 0.000000 0.000000
0.613409 1.159505 2.039782 0.000000 0.000000 0.000000
0.674498 1.153821 2.035918 0.000000 0.000000 0.000000
0.663113 1.132531 2.043681 0.000000 0.000000 0.000000
0.679379 1.172407 2.024115 0.000000 0.000000 0.000000
0.633769 1.135903 2.044898 0.000000 0.000000 0.000000
0.655328 1.152450 2.029486 0.000000 0.000000 0.000000
0.659979 1.155482 2.031318 0.000000 0.000000 0.000000
0.654933 1.148376 2.028623 0.000000 0.000000 0.000000
0.687896 1.187434 2.029275 0.000000 0.000000 0.000000
0.662522 1.185291 2.020333 0.000000 0.000000 0.000000
0.604073 1.143427 2.047559 0.000000 0.000000 0.000000
0.610035 1.135990 2.053006 0.000000 0.000000 0.000000
0.691794 1.186747 2.029230 0.000000 0.000000 0.000000
0.665013 1.184605 2.019322 0.000000 0.000000 0.000000
0.678510 1.184070 2.023577 0.000000 0.000000 0.000000
0.641936 1.172652 2.020919 0.000000 0.000000 0.000000
0.656691 1.183887 2.016600 0.000000 0.000000 0.000000
0.643648 1.163010 2.026426 0.000000 0.000000 0.000000
0.672375 1.185008 2.021395 0.000000 0.000000 0.000000
0.655204 1.173677 2.018210 0.000000 0.000000 0.000000
0.663636 1.182419 2.019285 0.000000 0.000000 0.000000
0.668909 1.171135 2.021592 0.000000 0.000000 0.000000
0.643776 1.174737 2.018030 0.000000 0.000000 0.000000
0.651653 1.166194 2.019719 0.000000 0.000000 0.000000
0.669859 1.182781 2.020746 0.000000 0.000000 0.000000
0.655673 1.169319 2.020498 0.000000 0.000000 0.000000
0.661907 1.180126 2.019364 0.000000 0.000000 0.000000
0.675453 1.174500 2.022666 0.000000 0.000000 0.000000
0.657245 1.177420 2.019862 0.000000 0.000000 0.000000
0.654697 1.178524 2.017631 0.000000 0.000000 0.000000
0.652924 1.127026 2.053374 0.000000 0.000000 0.000000
0.667772 1.126258 2.049506 0.000000 0.000000 0.000000
0.614278 1.164268 2.032718 0.000000 0.000000 0.000000
0.651924 1.181398 2.016328 0.000000 0.000000 0.000000
0.665908 1.185250 2.019652 0.000000 0.000000 0.000000
0.605387 1.151855 2.033273 0.000000 0.000000 0.000000
0.601392 1.157818 2.034581 0.000000 0.000000 0.000000
0.674531 1.187863 2.021441 0.000000 0.000000 0.000000
0.624009 1.167096 2.027364 0.000000 0.000000 0.000000
0.606598 1.154264 2.042757 0.000000 0.000000 0.000000
0.617176 1.166548 2.035795 0.000000 0.000000 0.000000
0.615814 1.167239 2.032788 0.000000 0.000000 0.000000
0.618993 1.166483 2.032612 0.000000 0.000000 0.000000
0.669625 1.128280 2.048443 0.000000 0.000000 0.000000
0.644528 1.181302 2.014167 0.000000 0.000000 0.000000
0.642710 1.167169 2.019342 0.000000 0.000000 0.000000
0.641110 1.166806 2.017152 0.000000 0.000000 0.000000
0.667175 1.128598 2.053040 0.000000 0.000000 0.000000
0.698732 1.165198 2.029769 0.000000 0.000000 0.000000
0.647235 1.147097 2.033995 0.000000 0.000000 0.000000
0.665358 1.148620 2.031208 0.000000 0.000000 0.000000
0.681951 1.161654 2.022261 0.000000 0.000000 0.000000
0.681217 1.161486 2.029012 0.000000 0.000000 0.000000
0.681841 1.156655 2.026223 0.000000 0.000000 0.000000
0.669191 1.155444 2.029487 0.000000 0.000000 0.000000
0.671952 1.148316 2.030299 0.000000 0.000000 0.000000
0.666782 1.149706 2.032368 0.000000 0.000000 0.000000
0.692503 1.186554 2.031709 0.000000 0.000000 0.000000
0.626581 1.128674 2.052954 0.000000 0.000000 0.000000
0.674121 1.188414 2.021797 0.000000 0.000000 0.000000
0.705881 1.164477 2.048612 0.000000 0.000000 0.000000
0.628031 1.132514 2.051692 0.000000 0.000000 0.000000
0.659994 1.157055 2.024341 0.000000 0.000000 0.000000
0.701937 1.157360 2.049865 0.000000 0.000000 0.000000
0.662745 1.155765 2.025185 0.000000 0.000000 0.000000
0.699376 1.184829 2.035734 0.000000 0.000000 0.000000
0.693130 1.141426 2.045462 0.000000 0.000000 0.000000
0.654817 1.158973 2.022931 0.000000 0.000000 0.000000
0.664953 1.164119 2.023113 0.000000 0.000000 0.000000
0.660181 1.162158 2.021078 0.000000 0.000000 0.000000
0.688928 1.160522 2.034218 0.000000 0.000000 0.000000
0.676954 1.162919 2.025916 0.000000 0.000000 0.000000
0.679231 1.157381 2.030849 0.000000 0.000000 0.000000
0.670222 1.134614 2.040313 0.000000 0.000000 0.000000
0.706208 1.161825 2.045907 0.000000 0.000000 0.000000
0.698771 1.173084 2.040884 0.000000 0.000000 0.000000
0.704723 1.151542 2.047616 0.000000 0.000000 0.000000
0.703997 1.177658 2.038148 0.000000 0.000000 0.000000
0.714477 1.160987 2.047095 0.000000 0.000000 0.000000
0.706813 1.170478 2.041925 0.000000 0.000000 0.000000
0.628148 1.169230 2.017955 0.000000 0.000000 0.000000
0.710820 1.164709 2.044665 0.000000 0.000000 0.000000
0.623336 1.163500 2.022280 0.000000 0.000000 0.000000
0.715006 1.168159 2.042008 0.000000 0.000000 0.000000
0.700259 1.183425 2.036109 0.000000 0.000000 0.000000
0.626973 1.169662 2.023201 0.000000 0.000000 0.000000
0.682948 1.181525 2.027638 0.000000 0.000000 0.000000
0.696010 1.184591 2.032537 0.000000 0.000000 0.000000
0.691506 1.188043 2.030333 0.000000 0.000000 0.000000
0.708803 1.157757 2.046568 0.000000 0.000000 0.000000
0.679779 1.191744 2.022756 0.000000 0.000000 0.000000
0.618530 1.157966 2.025234 0.000000 0.000000 0.000000
0.706480 1.165347 2.046997 0.000000 0.000000 0.000000
0.677868 1.189334 2.022367 0.000000 0.000000 0.000000
0.624258 1.157813 2.022622 0.000000 0.000000 0.000000
0.684365 1.190610 2.024718 0.000000 0.000000 0.000000
0.638263 1.126730 2.053082 0.000000 0.000000 0.000000
0.625905 1.133835 2.048084 0.000000 0.000000 0.000000
0.682585 1.189055 2.026154 0.000000 0.000000 0.000000
0.612590 1.157395 2.042188 0.000000 0.000000 0.000000
0.680538 1.189463 2.024849 0.000000 0.000000 0.000000
0.686180 1.188674 2.026700 0.000000 0.000000 0.000000
0.622564 1.131686 2.050765 0.000000 0.000000 0.000000
0.621825 1.143685 2.042358 0.000000 0.000000 0.000000
0.684593 1.176142 2.032393 0.000000 0.000000 0.000000
0.689920 1.177123 2.035271 0.000000 0.000000 0.000000
0.692735 1.191677 2.029558 0.000000 0.000000 0.000000
0.696716 1.189199 2.032461 0.000000 0.000000 0.000000
0.639080 1.126514 2.055243 0.000000 0.000000 0.000000
0.641971 1.174880 2.016447 0.000000 0.000000 0.000000
0.672393 1.182828 2.019114 0.000000 0.000000 0.000000
0.616565 1.166703 2.023025 0.000000 0.000000 0.000000
0.684767 1.193405 2.025332 0.000000 0.000000 0.000000
0.681546 1.189081 2.023888 0.000000 0.000000 0.000000
0.688192 1.191988 2.027579 0.000000 0.000000 0.000000
0.626006 1.158934 2.027689 0.000000 0.000000 0.000000
0.620793 1.153234 2.034302 0.000000 0.000000 0.000000
0.667939 1.128313 2.050370 0.000000 0.000000 0.000000
0.660379 1.138301 2.040629 0.000000 0.000000 0.000000
0.682384 1.134011 2.049131 0.000000 0.000000 0.000000
0.651295 1.134853 2.042200 0.000000 0.000000 0.000000
0.660913 1.139654 2.038509 0.000000 0.000000 0.000000
0.651050 1.145903 2.027878 0.000000 0.000000 0.000000
0.708477 1.165733 2.042327 0.000000 0.000000 0.000000
0.689841 1.136715 2.050261 0.000000 0.000000 0.000000
0.642093 1.137149 2.032701 0.000000 0.000000 0.000000
0.704040 1.144958 2.047484 0.000000 0.000000 0.000000
0.661125 1.131398 2.043207 0.000000 0.000000 0.000000
0.651478 1.137116 2.032155 0.000000 0.000000 0.000000
0.700309 1.153995 2.044621 0.000000 0.000000 0.000000
0.701086 1.151158 2.047366 0.000000 0.000000 0.000000
0.646420 1.133841 2.038455 0.000000 0.000000 0.000000
0.694654 1.135713 2.050826 0.000000 0.000000 0.000000
0.615866 1.153970 2.035732 0.000000 0.000000 0.000000
0.680173 1.136983 2.047742 0.000000 0.000000 0.000000
0.623963 1.160130 2.030415 0.000000 0.000000 0.000000
0.675084 1.131221 2.049018 0.000000 0.000000 0.000000
0.626768 1.171299 2.017434 0.000000 0.000000 0.000000
0.648335 1.126347 2.050481 0.000000 0.000000 0.000000
0.648904 1.125197 2.051470 0.000000 0.000000 0.000000
0.697044 1.141623 2.050524 0.000000 0.000000 0.000000
0.635000 1.125721 2.056296 0.000000 0.000000 0.000000
0.642623 1.126928 2.054301 0.000000 0.000000 0.000000
0.696835 1.137955 2.053778 0.000000 0.000000 0.000000
0.629105 1.127667 2.054423 0.000000 0.000000 0.000000
0.643468 1.173672 2.019217 0.000000 0.000000 0.000000
0.686450 1.133688 2.051992 0.000000 0.000000 0.000000
0.637894 1.169530 2.022855 0.000000 0.000000 0.000000
0.652770 1.159659 2.024082 0.000000 0.000000 0.000000
0.641128 1.178119 2.014420 0.000000 0.000000 0.000000
0.649286 1.161687 2.022628 0.000000 0.000000 0.000000
0.673463 1.165283 2.025109 0.000000 0.000000 0.000000
0.678640 1.170414 2.035175 0.000000 0.000000 0.000000
0.643761 1.165586 2.020160 0.000000 0.000000 0.000000
0.661012 1.146983 2.037864 0.000000 0.000000 0.000000
0.660431 1.152101 2.030649 0.000000 0.000000 0.000000
0.673670 1.158219 2.021232 0.000000 0.000000 0.000000
0.649838 1.160326 2.021690 0.000000 0.000000 0.000000
0.664926 1.147733 2.027591 0.000000 0.000000 0.000000
0.665695 1.170317 2.021566 0.000000 0.000000 0.000000
0.680079 1.156512 2.030712 0.000000 0.000000 0.000000
0.694206 1.166497 2.038413 0.000000 0.000000 0.000000
0.645517 1.166732 2.019162 0.000000 0.000000 0.000000
0.666534 1.158778 2.030699 0.000000 0.000000 0.000000
0.669136 1.143628 2.034279 0.000000 0.000000 0.000000
0.672246 1.156474 2.025202 0.000000 0.000000 0.000000
0.650273 1.153013 2.024649 0.000000 0.000000 0.000000
0.665360 1.150543 2.027073 0.000000 0.000000 0.000000
0.672044 1.160938 2.027633 0.000000 0.000000 0.000000
0.667532 1.157156 2.025909 0.000000 0.000000 0.000000
0.611223 1.167742 2.036618 0.000000 0.000000 0.000000
0.613698 1.160745 2.028450 0.000000 0.000000 0.000000
0.605224 1.159461 2.049814 0.000000 0.000000 0.000000
0.688550 1.138228 2.049206 0.000000 0.000000 0.000000
0.684452 1.135906 2.053393 0.000000 0.000000 0.000000
0.668974 1.126649 2.051571 0.000000 0.000000 0.000000
0.639271 1.177199 2.013809 0.000000 0.000000 0.000000
0.672119 1.128778 2.049717 0.000000 0.000000 0.000000
0.684854 1.134845 2.050464 0.000000 0.000000 0.000000
0.658835 1.125505 2.052921 0.000000 0.000000 0.000000
0.638592 1.128591 2.051414 0.000000 0.000000 0.000000
0.691335 1.141116 2.048721 0.000000 0.000000 0.000000
0.669707 1.128290 2.050531 0.000000 0.000000 0.000000
0.683948 1.141623 2.049265 0.000000 0.000000 0.000000
0.681414 1.136600 2.049914 0.000000 0.000000 0.000000
0.673328 1.128170 2.052056 0.000000 0.000000 0.000000
0.675841 1.129825 2.049899 0.000000 0.000000 0.000000
0.676248 1.138949 2.045570 0.000000 0.000000 0.000000
0.655116 1.142787 2.045322 0.000000 0.000000 0.000000
0.660455 1.129740 2.047225 0.000000 0.000000 0.000000
0.677005 1.140767 2.043896 0.000000 0.000000 0.000000
0.671180 1.124111 2.048244 0.000000 0.000000 0.000000
0.655877 1.125493 2.052491 0.000000 0.000000 0.000000
0.685907 1.139534 2.049524 0.000000 0.000000 0.000000
0.675219 1.130130 2.051214 0.000000 0.000000 0.000000
0.677288 1.127160 2.052102 0.000000 0.000000 0.000000
0.684871 1.132788 2.050987 0.000000 0.000000 0.000000
0.670221 1.133464 2.046725 0.000000 0.000000 0.000000
0.667653 1.133266 2.042053 0.000000 0.000000 0.000000
0.675335 1.130890 2.049184 0.000000 0.000000 0.000000
0.677657 1.146130 2.042274 0.000000 0.000000 0.000000
0.654034 1.122017 2.052927 0.000000 0.000000 0.000000
