ply
format ascii 1.0
comment VCGLIB generated
obj_info Generated by SPFormer!
element vertex 278
property float x
property float y
property float z
property float nx
property float ny
property float nz
end_header
0.498046 0.713737 1.361790 0.000000 0.000000 0.000000
0.494439 0.719921 1.360437 0.000000 0.000000 0.000000
0.500566 0.719218 1.361326 0.000000 0.000000 0.000000
0.490664 0.714277 1.363231 0.000000 0.000000 0.000000
0.490844 0.719384 1.373997 0.000000 0.000000 0.000000
0.498673 0.718384 1.372473 0.000000 0.000000 0.000000
0.496587 0.717205 1.366786 0.000000 0.000000 0.000000
0.489199 0.719807 1.368943 0.000000 0.000000 0.000000
0.491767 0.712963 1.361091 0.000000 0.000000 0.000000
0.486162 0.717011 1.363854 0.000000 0.000000 0.000000
0.486585 0.716346 1.362938 0.000000 0.000000 0.000000
0.490847 0.713549 1.361160 0.000000 0.000000 0.000000
0.488890 0.716874 1.363834 0.000000 0.000000 0.000000
0.490357 0.716950 1.367543 0.000000 0.000000 0.000000
0.486244 0.718526 1.360587 0.000000 0.000000 0.000000
0.484764 0.718188 1.360392 0.000000 0.000000 0.000000
0.487252 0.717491 1.364318 0.000000 0.000000 0.000000
0.497078 0.719237 1.369396 0.000000 0.000000 0.000000
0.497747 0.719490 1.366574 0.000000 0.000000 0.000000
0.496358 0.715601 1.362076 0.000000 0.000000 0.000000
0.499551 0.718973 1.364348 0.000000 0.000000 0.000000
0.484803 0.716976 1.362384 0.000000 0.000000 0.000000
0.535131 0.728604 1.351232 0.000000 0.000000 0.000000
0.532388 0.732507 1.356130 0.000000 0.000000 0.000000
0.533831 0.738502 1.356401 0.000000 0.000000 0.000000
0.529559 0.758000 1.347052 0.000000 0.000000 0.000000
0.531180 0.745713 1.349435 0.000000 0.000000 0.000000
0.540118 0.716428 1.344684 0.000000 0.000000 0.000000
0.544335 0.726595 1.348685 0.000000 0.000000 0.000000
0.540504 0.732046 1.348136 0.000000 0.000000 0.000000
0.539676 0.738966 1.351089 0.000000 0.000000 0.000000
0.533382 0.703777 1.351432 0.000000 0.000000 0.000000
0.533131 0.715735 1.346721 0.000000 0.000000 0.000000
0.530231 0.718360 1.358704 0.000000 0.000000 0.000000
0.524715 0.732187 1.355487 0.000000 0.000000 0.000000
0.528578 0.710975 1.359921 0.000000 0.000000 0.000000
0.532348 0.744595 1.349335 0.000000 0.000000 0.000000
0.517574 0.695000 1.361260 0.000000 0.000000 0.000000
0.543366 0.754348 1.348550 0.000000 0.000000 0.000000
0.525973 0.709811 1.355843 0.000000 0.000000 0.000000
0.544263 0.737500 1.348220 0.000000 0.000000 0.000000
0.541093 0.708732 1.346322 0.000000 0.000000 0.000000
0.520124 0.757667 1.347285 0.000000 0.000000 0.000000
0.535561 0.758004 1.342849 0.000000 0.000000 0.000000
0.533955 0.722840 1.356135 0.000000 0.000000 0.000000
0.525139 0.717245 1.350707 0.000000 0.000000 0.000000
0.547089 0.756006 1.348407 0.000000 0.000000 0.000000
0.539209 0.729217 1.352011 0.000000 0.000000 0.000000
0.530910 0.722320 1.355504 0.000000 0.000000 0.000000
0.527597 0.734668 1.358221 0.000000 0.000000 0.000000
0.522752 0.748349 1.348113 0.000000 0.000000 0.000000
0.557281 0.757873 1.342400 0.000000 0.000000 0.000000
0.547326 0.737248 1.364087 0.000000 0.000000 0.000000
0.536111 0.720705 1.363612 0.000000 0.000000 0.000000
0.532016 0.747434 1.352955 0.000000 0.000000 0.000000
0.522269 0.739983 1.349838 0.000000 0.000000 0.000000
0.527358 0.740120 1.349600 0.000000 0.000000 0.000000
0.535255 0.754008 1.349059 0.000000 0.000000 0.000000
0.532584 0.733169 1.358395 0.000000 0.000000 0.000000
0.532520 0.745493 1.358109 0.000000 0.000000 0.000000
0.537739 0.752532 1.358530 0.000000 0.000000 0.000000
0.534429 0.700303 1.348293 0.000000 0.000000 0.000000
0.537112 0.749225 1.351253 0.000000 0.000000 0.000000
0.546988 0.734780 1.345011 0.000000 0.000000 0.000000
0.550128 0.724688 1.343557 0.000000 0.000000 0.000000
0.539288 0.725454 1.352836 0.000000 0.000000 0.000000
0.543763 0.715518 1.343682 0.000000 0.000000 0.000000
0.556971 0.754388 1.342120 0.000000 0.000000 0.000000
0.556963 0.750101 1.341196 0.000000 0.000000 0.000000
0.523194 0.725693 1.351010 0.000000 0.000000 0.000000
0.547090 0.717095 1.344186 0.000000 0.000000 0.000000
0.546540 0.710122 1.343146 0.000000 0.000000 0.000000
0.535871 0.709181 1.344537 0.000000 0.000000 0.000000
0.541693 0.757850 1.348515 0.000000 0.000000 0.000000
0.535338 0.746713 1.349774 0.000000 0.000000 0.000000
0.543760 0.758295 1.350021 0.000000 0.000000 0.000000
0.556232 0.741536 1.340848 0.000000 0.000000 0.000000
0.530157 0.708893 1.350802 0.000000 0.000000 0.000000
0.524060 0.755375 1.348933 0.000000 0.000000 0.000000
0.540988 0.712300 1.345511 0.000000 0.000000 0.000000
0.521938 0.692495 1.354583 0.000000 0.000000 0.000000
0.525781 0.715192 1.350514 0.000000 0.000000 0.000000
0.556041 0.735853 1.341175 0.000000 0.000000 0.000000
0.550164 0.733654 1.344192 0.000000 0.000000 0.000000
0.540828 0.716282 1.346810 0.000000 0.000000 0.000000
0.549612 0.726804 1.343006 0.000000 0.000000 0.000000
0.541056 0.717423 1.345554 0.000000 0.000000 0.000000
0.530374 0.731706 1.357097 0.000000 0.000000 0.000000
0.532929 0.708884 1.351569 0.000000 0.000000 0.000000
0.524177 0.699422 1.361439 0.000000 0.000000 0.000000
0.540961 0.745283 1.352838 0.000000 0.000000 0.000000
0.550632 0.746733 1.343645 0.000000 0.000000 0.000000
0.550409 0.730105 1.342247 0.000000 0.000000 0.000000
0.544687 0.737202 1.347711 0.000000 0.000000 0.000000
0.554730 0.743175 1.342082 0.000000 0.000000 0.000000
0.544863 0.740715 1.342684 0.000000 0.000000 0.000000
0.535232 0.747237 1.346515 0.000000 0.000000 0.000000
0.526383 0.702351 1.352115 0.000000 0.000000 0.000000
0.552565 0.730279 1.341674 0.000000 0.000000 0.000000
0.536284 0.707446 1.350168 0.000000 0.000000 0.000000
0.534110 0.715084 1.351532 0.000000 0.000000 0.000000
0.542278 0.727792 1.352310 0.000000 0.000000 0.000000
0.539453 0.716319 1.348083 0.000000 0.000000 0.000000
0.550659 0.723175 1.338972 0.000000 0.000000 0.000000
0.523289 0.697764 1.351061 0.000000 0.000000 0.000000
0.539872 0.756291 1.349906 0.000000 0.000000 0.000000
0.550875 0.743686 1.346227 0.000000 0.000000 0.000000
0.552970 0.738006 1.343981 0.000000 0.000000 0.000000
0.526859 0.698218 1.349297 0.000000 0.000000 0.000000
0.535132 0.756655 1.353219 0.000000 0.000000 0.000000
0.548634 0.728948 1.340258 0.000000 0.000000 0.000000
0.551060 0.735811 1.339072 0.000000 0.000000 0.000000
0.529420 0.713586 1.354034 0.000000 0.000000 0.000000
0.549137 0.726759 1.343660 0.000000 0.000000 0.000000
0.541155 0.737091 1.339417 0.000000 0.000000 0.000000
0.526851 0.725264 1.356372 0.000000 0.000000 0.000000
0.549902 0.752298 1.342449 0.000000 0.000000 0.000000
0.548113 0.737038 1.340744 0.000000 0.000000 0.000000
0.542780 0.719094 1.349027 0.000000 0.000000 0.000000
0.549134 0.720005 1.341700 0.000000 0.000000 0.000000
0.525992 0.692486 1.353520 0.000000 0.000000 0.000000
0.545319 0.712748 1.343608 0.000000 0.000000 0.000000
0.530150 0.696121 1.351336 0.000000 0.000000 0.000000
0.521928 0.707371 1.359015 0.000000 0.000000 0.000000
0.532544 0.698138 1.350409 0.000000 0.000000 0.000000
0.529137 0.693516 1.351207 0.000000 0.000000 0.000000
0.549494 0.723938 1.341211 0.000000 0.000000 0.000000
0.531274 0.699848 1.351582 0.000000 0.000000 0.000000
0.524670 0.697302 1.351851 0.000000 0.000000 0.000000
0.535260 0.712099 1.351850 0.000000 0.000000 0.000000
0.550572 0.757394 1.347620 0.000000 0.000000 0.000000
0.548476 0.728087 1.338908 0.000000 0.000000 0.000000
0.544826 0.720322 1.341380 0.000000 0.000000 0.000000
0.527934 0.718042 1.363858 0.000000 0.000000 0.000000
0.526597 0.726912 1.371514 0.000000 0.000000 0.000000
0.534081 0.713998 1.352745 0.000000 0.000000 0.000000
0.529395 0.693648 1.354210 0.000000 0.000000 0.000000
0.528755 0.708653 1.358372 0.000000 0.000000 0.000000
0.522286 0.697611 1.355983 0.000000 0.000000 0.000000
0.530987 0.705358 1.349161 0.000000 0.000000 0.000000
0.534314 0.711759 1.347970 0.000000 0.000000 0.000000
0.533679 0.698917 1.349097 0.000000 0.000000 0.000000
0.528555 0.709731 1.349501 0.000000 0.000000 0.000000
0.545142 0.717860 1.345183 0.000000 0.000000 0.000000
0.543045 0.712346 1.344051 0.000000 0.000000 0.000000
0.534977 0.711570 1.349196 0.000000 0.000000 0.000000
0.528124 0.719687 1.348865 0.000000 0.000000 0.000000
0.537202 0.738782 1.356725 0.000000 0.000000 0.000000
0.536330 0.708513 1.350924 0.000000 0.000000 0.000000
0.551277 0.724938 1.341413 0.000000 0.000000 0.000000
0.530078 0.712321 1.357464 0.000000 0.000000 0.000000
0.555472 0.756389 1.340923 0.000000 0.000000 0.000000
0.547819 0.739653 1.337453 0.000000 0.000000 0.000000
0.551793 0.759486 1.344051 0.000000 0.000000 0.000000
0.527148 0.690849 1.352516 0.000000 0.000000 0.000000
0.522101 0.702410 1.352747 0.000000 0.000000 0.000000
0.523561 0.692749 1.354455 0.000000 0.000000 0.000000
0.524671 0.706592 1.351851 0.000000 0.000000 0.000000
0.526307 0.708577 1.353915 0.000000 0.000000 0.000000
0.528713 0.710326 1.356164 0.000000 0.000000 0.000000
0.515574 0.699148 1.360332 0.000000 0.000000 0.000000
0.534209 0.703484 1.352440 0.000000 0.000000 0.000000
0.544390 0.753102 1.365551 0.000000 0.000000 0.000000
0.520386 0.701344 1.356311 0.000000 0.000000 0.000000
0.538837 0.707193 1.348073 0.000000 0.000000 0.000000
0.555758 0.747315 1.341524 0.000000 0.000000 0.000000
0.552123 0.740779 1.341794 0.000000 0.000000 0.000000
0.535823 0.721833 1.349262 0.000000 0.000000 0.000000
0.529260 0.745040 1.350493 0.000000 0.000000 0.000000
0.550126 0.759580 1.346992 0.000000 0.000000 0.000000
0.545203 0.745452 1.355028 0.000000 0.000000 0.000000
0.529998 0.758532 1.363420 0.000000 0.000000 0.000000
0.530127 0.736579 1.360592 0.000000 0.000000 0.000000
0.531485 0.743163 1.359650 0.000000 0.000000 0.000000
0.528334 0.735398 1.351004 0.000000 0.000000 0.000000
0.544517 0.752698 1.353746 0.000000 0.000000 0.000000
0.543156 0.730104 1.354789 0.000000 0.000000 0.000000
0.533680 0.755809 1.359072 0.000000 0.000000 0.000000
0.531452 0.743149 1.368623 0.000000 0.000000 0.000000
0.553513 0.753988 1.345988 0.000000 0.000000 0.000000
0.528538 0.694913 1.351645 0.000000 0.000000 0.000000
0.540159 0.721433 1.348359 0.000000 0.000000 0.000000
0.543464 0.724758 1.348079 0.000000 0.000000 0.000000
0.550764 0.757874 1.346427 0.000000 0.000000 0.000000
0.528562 0.699820 1.350192 0.000000 0.000000 0.000000
0.537589 0.754939 1.363431 0.000000 0.000000 0.000000
0.545690 0.745491 1.349645 0.000000 0.000000 0.000000
0.534088 0.717630 1.350476 0.000000 0.000000 0.000000
0.530212 0.739433 1.362138 0.000000 0.000000 0.000000
0.522985 0.695142 1.351383 0.000000 0.000000 0.000000
0.533345 0.705230 1.348653 0.000000 0.000000 0.000000
0.541773 0.709436 1.344783 0.000000 0.000000 0.000000
0.555173 0.747306 1.340064 0.000000 0.000000 0.000000
0.556665 0.753661 1.340488 0.000000 0.000000 0.000000
0.514993 0.688468 1.361000 0.000000 0.000000 0.000000
0.556419 0.750657 1.340641 0.000000 0.000000 0.000000
0.545980 0.759605 1.355627 0.000000 0.000000 0.000000
0.555790 0.743005 1.340267 0.000000 0.000000 0.000000
0.536366 0.742041 1.356645 0.000000 0.000000 0.000000
0.529341 0.710557 1.357900 0.000000 0.000000 0.000000
0.527102 0.706259 1.358141 0.000000 0.000000 0.000000
0.528450 0.711182 1.361020 0.000000 0.000000 0.000000
0.531627 0.705287 1.354854 0.000000 0.000000 0.000000
0.531554 0.712572 1.354185 0.000000 0.000000 0.000000
0.523501 0.724606 1.357465 0.000000 0.000000 0.000000
0.540068 0.730554 1.357418 0.000000 0.000000 0.000000
0.529776 0.724349 1.355859 0.000000 0.000000 0.000000
0.543139 0.719692 1.342989 0.000000 0.000000 0.000000
0.524358 0.711977 1.361132 0.000000 0.000000 0.000000
0.528092 0.728536 1.359383 0.000000 0.000000 0.000000
0.524080 0.707444 1.365033 0.000000 0.000000 0.000000
0.529393 0.713662 1.358755 0.000000 0.000000 0.000000
0.553317 0.752842 1.343124 0.000000 0.000000 0.000000
0.553554 0.740678 1.344601 0.000000 0.000000 0.000000
0.538178 0.696923 1.349950 0.000000 0.000000 0.000000
0.530954 0.703783 1.355260 0.000000 0.000000 0.000000
0.531690 0.733500 1.364117 0.000000 0.000000 0.000000
0.527900 0.694236 1.352222 0.000000 0.000000 0.000000
0.531823 0.695656 1.351023 0.000000 0.000000 0.000000
0.535546 0.700915 1.348640 0.000000 0.000000 0.000000
0.535226 0.702067 1.348670 0.000000 0.000000 0.000000
0.530304 0.697414 1.350775 0.000000 0.000000 0.000000
0.541556 0.725166 1.345953 0.000000 0.000000 0.000000
0.534410 0.699412 1.349455 0.000000 0.000000 0.000000
0.522252 0.697852 1.355990 0.000000 0.000000 0.000000
0.538488 0.706245 1.346488 0.000000 0.000000 0.000000
0.527420 0.709602 1.353216 0.000000 0.000000 0.000000
0.533622 0.728892 1.347943 0.000000 0.000000 0.000000
0.528891 0.713052 1.349828 0.000000 0.000000 0.000000
0.541489 0.714251 1.344855 0.000000 0.000000 0.000000
0.556965 0.745052 1.338992 0.000000 0.000000 0.000000
0.528163 0.703584 1.356953 0.000000 0.000000 0.000000
0.530461 0.740454 1.360355 0.000000 0.000000 0.000000
0.540068 0.704077 1.345463 0.000000 0.000000 0.000000
0.522769 0.730345 1.359999 0.000000 0.000000 0.000000
0.535969 0.700786 1.348848 0.000000 0.000000 0.000000
0.555497 0.738821 1.339994 0.000000 0.000000 0.000000
0.556352 0.734953 1.340328 0.000000 0.000000 0.000000
0.553076 0.749687 1.336498 0.000000 0.000000 0.000000
0.559284 0.752635 1.338059 0.000000 0.000000 0.000000
0.555752 0.742593 1.341042 0.000000 0.000000 0.000000
0.548321 0.738532 1.344508 0.000000 0.000000 0.000000
0.548165 0.756319 1.337608 0.000000 0.000000 0.000000
0.523539 0.690226 1.356253 0.000000 0.000000 0.000000
0.555960 0.740040 1.341624 0.000000 0.000000 0.000000
0.513359 0.691475 1.360677 0.000000 0.000000 0.000000
0.525087 0.692094 1.356325 0.000000 0.000000 0.000000
0.523311 0.691510 1.352532 0.000000 0.000000 0.000000
0.553901 0.750900 1.344385 0.000000 0.000000 0.000000
0.538232 0.698674 1.347096 0.000000 0.000000 0.000000
0.527459 0.694919 1.352369 0.000000 0.000000 0.000000
0.520917 0.692625 1.357374 0.000000 0.000000 0.000000
0.534945 0.700843 1.349668 0.000000 0.000000 0.000000
0.523516 0.699446 1.351927 0.000000 0.000000 0.000000
0.532170 0.703414 1.348442 0.000000 0.000000 0.000000
0.529970 0.738816 1.363385 0.000000 0.000000 0.000000
0.554119 0.734932 1.339515 0.000000 0.000000 0.000000
0.532800 0.747179 1.361550 0.000000 0.000000 0.000000
0.555322 0.734795 1.335989 0.000000 0.000000 0.000000
0.528213 0.742859 1.363906 0.000000 0.000000 0.000000
0.550424 0.727326 1.340532 0.000000 0.000000 0.000000
0.531270 0.749857 1.362709 0.000000 0.000000 0.000000
0.530484 0.743307 1.364185 0.000000 0.000000 0.000000
0.521584 0.698138 1.358517 0.000000 0.000000 0.000000
0.520530 0.703324 1.361097 0.000000 0.000000 0.000000
0.523612 0.695908 1.359847 0.000000 0.000000 0.000000
0.530045 0.692462 1.352429 0.000000 0.000000 0.000000
0.527258 0.697504 1.356185 0.000000 0.000000 0.000000
0.527118 0.695548 1.352264 0.000000 0.000000 0.000000
0.525259 0.691850 1.355963 0.000000 0.000000 0.000000
0.520423 0.695337 1.354356 0.000000 0.000000 0.000000
0.536463 0.699157 1.347442 0.000000 0.000000 0.000000
0.520964 0.695189 1.356637 0.000000 0.000000 0.000000
0.520991 0.699202 1.359889 0.000000 0.000000 0.000000
0.530985 0.696364 1.352195 0.000000 0.000000 0.000000
0.518064 0.692818 1.361050 0.000000 0.000000 0.000000
0.515461 0.689245 1.363244 0.000000 0.000000 0.000000
0.523353 0.690904 1.354885 0.000000 0.000000 0.000000
