ply
format ascii 1.0
comment VCGLIB generated
obj_info Generated by SPFormer!
element vertex 749
property float x
property float y
property float z
property float nx
property float ny
property float nz
end_header
0.646191 0.852748 1.286106 0.000000 0.000000 0.000000
0.615526 0.809454 1.309829 0.000000 0.000000 0.000000
0.588056 0.844594 1.304783 0.000000 0.000000 0.000000
0.646648 0.836332 1.296667 0.000000 0.000000 0.000000
0.616331 0.844622 1.306696 0.000000 0.000000 0.000000
0.599714 0.824316 1.316638 0.000000 0.000000 0.000000
0.617656 0.854247 1.290347 0.000000 0.000000 0.000000
0.606216 0.833441 1.305270 0.000000 0.000000 0.000000
0.659894 0.841285 1.289808 0.000000 0.000000 0.000000
0.589846 0.846381 1.313968 0.000000 0.000000 0.000000
0.620666 0.829025 1.313132 0.000000 0.000000 0.000000
0.622225 0.850324 1.291883 0.000000 0.000000 0.000000
0.658802 0.838630 1.290769 0.000000 0.000000 0.000000
0.644168 0.850011 1.284686 0.000000 0.000000 0.000000
0.612924 0.812959 1.317080 0.000000 0.000000 0.000000
0.586769 0.842012 1.316301 0.000000 0.000000 0.000000
0.636825 0.833707 1.303146 0.000000 0.000000 0.000000
0.629417 0.843556 1.301812 0.000000 0.000000 0.000000
0.598242 0.835515 1.310506 0.000000 0.000000 0.000000
0.614274 0.820850 1.315847 0.000000 0.000000 0.000000
0.570909 0.837609 1.318660 0.000000 0.000000 0.000000
0.626859 0.850040 1.301551 0.000000 0.000000 0.000000
0.620799 0.826836 1.315921 0.000000 0.000000 0.000000
0.651304 0.838416 1.297570 0.000000 0.000000 0.000000
0.653942 0.836420 1.294257 0.000000 0.000000 0.000000
0.590568 0.818188 1.330234 0.000000 0.000000 0.000000
0.628936 0.825860 1.314731 0.000000 0.000000 0.000000
0.598566 0.819851 1.328452 0.000000 0.000000 0.000000
0.584483 0.844042 1.305920 0.000000 0.000000 0.000000
0.588984 0.835884 1.309549 0.000000 0.000000 0.000000
0.641714 0.848392 1.285407 0.000000 0.000000 0.000000
0.631289 0.821853 1.309650 0.000000 0.000000 0.000000
0.615045 0.841516 1.303828 0.000000 0.000000 0.000000
0.626487 0.825042 1.310163 0.000000 0.000000 0.000000
0.617461 0.818204 1.315919 0.000000 0.000000 0.000000
0.618123 0.824560 1.315319 0.000000 0.000000 0.000000
0.622484 0.842598 1.305309 0.000000 0.000000 0.000000
0.632759 0.830948 1.306414 0.000000 0.000000 0.000000
0.601253 0.813116 1.322441 0.000000 0.000000 0.000000
0.638458 0.828318 1.302046 0.000000 0.000000 0.000000
0.608807 0.817427 1.324205 0.000000 0.000000 0.000000
0.603402 0.839840 1.309692 0.000000 0.000000 0.000000
0.612105 0.814758 1.323424 0.000000 0.000000 0.000000
0.630177 0.828082 1.311629 0.000000 0.000000 0.000000
0.574540 0.823774 1.334274 0.000000 0.000000 0.000000
0.613395 0.802555 1.314583 0.000000 0.000000 0.000000
0.624865 0.819497 1.311344 0.000000 0.000000 0.000000
0.603983 0.840873 1.305297 0.000000 0.000000 0.000000
0.658214 0.839649 1.292072 0.000000 0.000000 0.000000
0.615009 0.815087 1.315730 0.000000 0.000000 0.000000
0.627041 0.810540 1.318298 0.000000 0.000000 0.000000
0.620413 0.826595 1.312034 0.000000 0.000000 0.000000
0.585382 0.828726 1.306040 0.000000 0.000000 0.000000
0.614386 0.846095 1.301435 0.000000 0.000000 0.000000
0.610409 0.846857 1.301812 0.000000 0.000000 0.000000
0.635422 0.844591 1.292889 0.000000 0.000000 0.000000
0.605200 0.837349 1.310736 0.000000 0.000000 0.000000
0.604935 0.813098 1.318328 0.000000 0.000000 0.000000
0.566033 0.821828 1.329632 0.000000 0.000000 0.000000
0.624669 0.821514 1.316633 0.000000 0.000000 0.000000
0.583488 0.837612 1.310453 0.000000 0.000000 0.000000
0.615768 0.846124 1.296907 0.000000 0.000000 0.000000
0.616501 0.853016 1.291379 0.000000 0.000000 0.000000
0.584507 0.849540 1.303337 0.000000 0.000000 0.000000
0.626159 0.829650 1.313000 0.000000 0.000000 0.000000
0.592381 0.849715 1.299204 0.000000 0.000000 0.000000
0.616990 0.826041 1.321830 0.000000 0.000000 0.000000
0.581690 0.835682 1.314972 0.000000 0.000000 0.000000
0.607673 0.850973 1.294736 0.000000 0.000000 0.000000
0.658741 0.848566 1.287373 0.000000 0.000000 0.000000
0.597839 0.815259 1.327856 0.000000 0.000000 0.000000
0.647127 0.850682 1.291718 0.000000 0.000000 0.000000
0.577165 0.831735 1.321733 0.000000 0.000000 0.000000
0.637586 0.816219 1.304236 0.000000 0.000000 0.000000
0.634100 0.819796 1.302311 0.000000 0.000000 0.000000
0.578858 0.837381 1.311751 0.000000 0.000000 0.000000
0.648628 0.833303 1.298988 0.000000 0.000000 0.000000
0.636955 0.847807 1.290011 0.000000 0.000000 0.000000
0.651802 0.834543 1.295744 0.000000 0.000000 0.000000
0.654026 0.829694 1.289712 0.000000 0.000000 0.000000
0.578128 0.849299 1.302005 0.000000 0.000000 0.000000
0.639050 0.839813 1.300666 0.000000 0.000000 0.000000
0.598252 0.843353 1.313265 0.000000 0.000000 0.000000
0.604878 0.843308 1.301111 0.000000 0.000000 0.000000
0.581126 0.832239 1.319472 0.000000 0.000000 0.000000
0.569543 0.823030 1.330008 0.000000 0.000000 0.000000
0.585959 0.827158 1.329519 0.000000 0.000000 0.000000
0.611031 0.829323 1.323944 0.000000 0.000000 0.000000
0.632324 0.841279 1.299111 0.000000 0.000000 0.000000
0.595590 0.847578 1.298507 0.000000 0.000000 0.000000
0.583945 0.811605 1.331603 0.000000 0.000000 0.000000
0.569860 0.817258 1.333552 0.000000 0.000000 0.000000
0.599482 0.842592 1.302437 0.000000 0.000000 0.000000
0.621769 0.842710 1.308015 0.000000 0.000000 0.000000
0.570196 0.833261 1.323698 0.000000 0.000000 0.000000
0.644847 0.830049 1.300817 0.000000 0.000000 0.000000
0.631143 0.842162 1.303353 0.000000 0.000000 0.000000
0.612525 0.805153 1.324169 0.000000 0.000000 0.000000
0.590810 0.849929 1.301341 0.000000 0.000000 0.000000
0.587672 0.824942 1.326623 0.000000 0.000000 0.000000
0.665954 0.838131 1.290776 0.000000 0.000000 0.000000
0.597331 0.840476 1.310711 0.000000 0.000000 0.000000
0.609211 0.854388 1.289868 0.000000 0.000000 0.000000
0.629122 0.812581 1.309683 0.000000 0.000000 0.000000
0.610014 0.841494 1.299875 0.000000 0.000000 0.000000
0.593040 0.835564 1.315293 0.000000 0.000000 0.000000
0.650838 0.847664 1.289219 0.000000 0.000000 0.000000
0.614498 0.852828 1.290926 0.000000 0.000000 0.000000
0.593671 0.849236 1.300169 0.000000 0.000000 0.000000
0.651560 0.849489 1.287141 0.000000 0.000000 0.000000
0.648237 0.834111 1.299869 0.000000 0.000000 0.000000
0.625067 0.836294 1.297795 0.000000 0.000000 0.000000
0.647424 0.825119 1.294613 0.000000 0.000000 0.000000
0.616413 0.849627 1.302712 0.000000 0.000000 0.000000
0.589211 0.840006 1.313012 0.000000 0.000000 0.000000
0.597390 0.835275 1.308222 0.000000 0.000000 0.000000
0.584042 0.846454 1.303534 0.000000 0.000000 0.000000
0.654696 0.830197 1.291622 0.000000 0.000000 0.000000
0.653655 0.843590 1.290354 0.000000 0.000000 0.000000
0.652865 0.844491 1.294612 0.000000 0.000000 0.000000
0.605227 0.841020 1.304793 0.000000 0.000000 0.000000
0.585752 0.816928 1.332715 0.000000 0.000000 0.000000
0.638749 0.810225 1.302058 0.000000 0.000000 0.000000
0.610808 0.807985 1.318310 0.000000 0.000000 0.000000
0.612414 0.841183 1.304724 0.000000 0.000000 0.000000
0.572584 0.807731 1.338217 0.000000 0.000000 0.000000
0.619589 0.841107 1.304188 0.000000 0.000000 0.000000
0.613496 0.808902 1.314813 0.000000 0.000000 0.000000
0.643863 0.838657 1.291093 0.000000 0.000000 0.000000
0.618781 0.813107 1.316777 0.000000 0.000000 0.000000
0.648010 0.819947 1.296602 0.000000 0.000000 0.000000
0.647607 0.830924 1.297328 0.000000 0.000000 0.000000
0.619913 0.852327 1.289826 0.000000 0.000000 0.000000
0.655864 0.829207 1.291168 0.000000 0.000000 0.000000
0.617904 0.837970 1.310855 0.000000 0.000000 0.000000
0.621624 0.851177 1.290952 0.000000 0.000000 0.000000
0.635525 0.848729 1.292217 0.000000 0.000000 0.000000
0.640139 0.845551 1.299672 0.000000 0.000000 0.000000
0.637633 0.844773 1.297856 0.000000 0.000000 0.000000
0.626555 0.819635 1.315824 0.000000 0.000000 0.000000
0.642669 0.837161 1.300150 0.000000 0.000000 0.000000
0.594964 0.836167 1.309276 0.000000 0.000000 0.000000
0.618140 0.843480 1.296462 0.000000 0.000000 0.000000
0.650806 0.841993 1.293931 0.000000 0.000000 0.000000
0.633199 0.847583 1.290137 0.000000 0.000000 0.000000
0.647292 0.832829 1.298512 0.000000 0.000000 0.000000
0.647428 0.842709 1.295748 0.000000 0.000000 0.000000
0.586289 0.815229 1.332921 0.000000 0.000000 0.000000
0.578764 0.815868 1.332612 0.000000 0.000000 0.000000
0.623755 0.830274 1.319060 0.000000 0.000000 0.000000
0.635828 0.838754 1.299922 0.000000 0.000000 0.000000
0.567516 0.812193 1.337643 0.000000 0.000000 0.000000
0.656833 0.832040 1.291007 0.000000 0.000000 0.000000
0.566134 0.828890 1.324683 0.000000 0.000000 0.000000
0.571155 0.835750 1.320247 0.000000 0.000000 0.000000
0.574504 0.835975 1.319293 0.000000 0.000000 0.000000
0.599489 0.827100 1.322341 0.000000 0.000000 0.000000
0.597181 0.814119 1.328109 0.000000 0.000000 0.000000
0.584688 0.806516 1.330939 0.000000 0.000000 0.000000
0.652321 0.833436 1.293487 0.000000 0.000000 0.000000
0.654113 0.846665 1.289057 0.000000 0.000000 0.000000
0.626527 0.836482 1.309520 0.000000 0.000000 0.000000
0.578799 0.811368 1.351516 0.000000 0.000000 0.000000
0.569628 0.829333 1.326412 0.000000 0.000000 0.000000
0.583095 0.839784 1.308567 0.000000 0.000000 0.000000
0.584998 0.815357 1.332542 0.000000 0.000000 0.000000
0.590590 0.829140 1.331070 0.000000 0.000000 0.000000
0.583476 0.831872 1.336501 0.000000 0.000000 0.000000
0.596549 0.850926 1.294098 0.000000 0.000000 0.000000
0.629418 0.810347 1.324862 0.000000 0.000000 0.000000
0.621901 0.854272 1.289265 0.000000 0.000000 0.000000
0.613395 0.822262 1.318073 0.000000 0.000000 0.000000
0.621052 0.821091 1.319641 0.000000 0.000000 0.000000
0.584474 0.850646 1.307243 0.000000 0.000000 0.000000
0.650007 0.835873 1.296271 0.000000 0.000000 0.000000
0.635151 0.817590 1.302435 0.000000 0.000000 0.000000
0.644137 0.846863 1.289701 0.000000 0.000000 0.000000
0.648603 0.850170 1.287224 0.000000 0.000000 0.000000
0.583340 0.830533 1.323794 0.000000 0.000000 0.000000
0.630510 0.853576 1.285724 0.000000 0.000000 0.000000
0.621068 0.844437 1.298724 0.000000 0.000000 0.000000
0.641356 0.823747 1.301974 0.000000 0.000000 0.000000
0.605445 0.824949 1.328259 0.000000 0.000000 0.000000
0.600617 0.834070 1.319284 0.000000 0.000000 0.000000
0.635543 0.826930 1.308393 0.000000 0.000000 0.000000
0.638797 0.852372 1.286028 0.000000 0.000000 0.000000
0.585771 0.842992 1.302012 0.000000 0.000000 0.000000
0.611449 0.840751 1.303717 0.000000 0.000000 0.000000
0.568138 0.811399 1.337922 0.000000 0.000000 0.000000
0.589082 0.847103 1.306675 0.000000 0.000000 0.000000
0.634995 0.851642 1.286841 0.000000 0.000000 0.000000
0.617726 0.854574 1.288962 0.000000 0.000000 0.000000
0.635457 0.808985 1.303295 0.000000 0.000000 0.000000
0.605777 0.836740 1.316313 0.000000 0.000000 0.000000
0.618845 0.847888 1.300932 0.000000 0.000000 0.000000
0.606021 0.845394 1.300722 0.000000 0.000000 0.000000
0.658786 0.845719 1.289059 0.000000 0.000000 0.000000
0.587337 0.837811 1.309542 0.000000 0.000000 0.000000
0.571713 0.824833 1.326898 0.000000 0.000000 0.000000
0.642288 0.853332 1.285545 0.000000 0.000000 0.000000
0.642912 0.851004 1.285589 0.000000 0.000000 0.000000
0.607829 0.808594 1.325089 0.000000 0.000000 0.000000
0.643994 0.851815 1.285129 0.000000 0.000000 0.000000
0.622912 0.845065 1.300467 0.000000 0.000000 0.000000
0.587554 0.830174 1.316668 0.000000 0.000000 0.000000
0.596058 0.855959 1.298224 0.000000 0.000000 0.000000
0.594569 0.810505 1.326834 0.000000 0.000000 0.000000
0.623240 0.855900 1.290588 0.000000 0.000000 0.000000
0.639016 0.844970 1.293625 0.000000 0.000000 0.000000
0.603360 0.849970 1.295179 0.000000 0.000000 0.000000
0.584244 0.813164 1.331689 0.000000 0.000000 0.000000
0.607050 0.830329 1.313685 0.000000 0.000000 0.000000
0.615502 0.802520 1.314943 0.000000 0.000000 0.000000
0.620474 0.853330 1.289421 0.000000 0.000000 0.000000
0.619260 0.812332 1.318192 0.000000 0.000000 0.000000
0.575895 0.818770 1.333653 0.000000 0.000000 0.000000
0.581124 0.807566 1.332741 0.000000 0.000000 0.000000
0.562735 0.814489 1.337909 0.000000 0.000000 0.000000
0.596246 0.814116 1.325840 0.000000 0.000000 0.000000
0.578321 0.841581 1.312442 0.000000 0.000000 0.000000
0.602724 0.802919 1.321938 0.000000 0.000000 0.000000
0.574360 0.847540 1.305063 0.000000 0.000000 0.000000
0.610758 0.854053 1.293105 0.000000 0.000000 0.000000
0.571586 0.805394 1.339345 0.000000 0.000000 0.000000
0.583635 0.832100 1.315121 0.000000 0.000000 0.000000
0.597273 0.842905 1.300932 0.000000 0.000000 0.000000
0.563510 0.818755 1.347313 0.000000 0.000000 0.000000
0.639197 0.853702 1.284480 0.000000 0.000000 0.000000
0.633712 0.807539 1.304751 0.000000 0.000000 0.000000
0.623889 0.853455 1.287839 0.000000 0.000000 0.000000
0.585141 0.838097 1.311774 0.000000 0.000000 0.000000
0.646334 0.837069 1.295840 0.000000 0.000000 0.000000
0.633717 0.810896 1.303002 0.000000 0.000000 0.000000
0.601018 0.819521 1.323561 0.000000 0.000000 0.000000
0.610344 0.846710 1.314729 0.000000 0.000000 0.000000
0.571441 0.825011 1.341502 0.000000 0.000000 0.000000
0.599156 0.828865 1.313510 0.000000 0.000000 0.000000
0.588641 0.839019 1.318630 0.000000 0.000000 0.000000
0.637971 0.824636 1.300803 0.000000 0.000000 0.000000
0.617154 0.836393 1.309748 0.000000 0.000000 0.000000
0.590863 0.846639 1.298768 0.000000 0.000000 0.000000
0.623199 0.850130 1.292009 0.000000 0.000000 0.000000
0.585764 0.808120 1.330697 0.000000 0.000000 0.000000
0.615642 0.852991 1.292094 0.000000 0.000000 0.000000
0.626492 0.826366 1.305194 0.000000 0.000000 0.000000
0.637838 0.843905 1.295615 0.000000 0.000000 0.000000
0.611285 0.824927 1.322667 0.000000 0.000000 0.000000
0.567244 0.825047 1.331984 0.000000 0.000000 0.000000
0.615860 0.813009 1.315708 0.000000 0.000000 0.000000
0.658268 0.827320 1.289115 0.000000 0.000000 0.000000
0.568833 0.801000 1.338097 0.000000 0.000000 0.000000
0.582991 0.807276 1.332511 0.000000 0.000000 0.000000
0.618613 0.850411 1.296677 0.000000 0.000000 0.000000
0.576178 0.819836 1.325113 0.000000 0.000000 0.000000
0.578446 0.830390 1.324571 0.000000 0.000000 0.000000
0.581913 0.806110 1.338399 0.000000 0.000000 0.000000
0.591654 0.804581 1.325663 0.000000 0.000000 0.000000
0.574333 0.831851 1.326705 0.000000 0.000000 0.000000
0.584555 0.837697 1.314830 0.000000 0.000000 0.000000
0.611005 0.826409 1.318129 0.000000 0.000000 0.000000
0.606080 0.808239 1.318372 0.000000 0.000000 0.000000
0.579128 0.804983 1.337641 0.000000 0.000000 0.000000
0.640916 0.827741 1.304102 0.000000 0.000000 0.000000
0.576105 0.835398 1.317935 0.000000 0.000000 0.000000
0.577886 0.839004 1.313751 0.000000 0.000000 0.000000
0.613482 0.832096 1.311262 0.000000 0.000000 0.000000
0.614100 0.820795 1.317218 0.000000 0.000000 0.000000
0.637751 0.855410 1.287237 0.000000 0.000000 0.000000
0.577123 0.805420 1.334365 0.000000 0.000000 0.000000
0.637713 0.818927 1.303791 0.000000 0.000000 0.000000
0.657458 0.845169 1.292629 0.000000 0.000000 0.000000
0.570438 0.822893 1.337264 0.000000 0.000000 0.000000
0.577755 0.845264 1.308986 0.000000 0.000000 0.000000
0.591032 0.847293 1.299182 0.000000 0.000000 0.000000
0.637738 0.851452 1.286047 0.000000 0.000000 0.000000
0.593867 0.832457 1.318510 0.000000 0.000000 0.000000
0.588973 0.838135 1.300120 0.000000 0.000000 0.000000
0.600948 0.850715 1.294423 0.000000 0.000000 0.000000
0.622694 0.847771 1.293821 0.000000 0.000000 0.000000
0.587356 0.830150 1.330524 0.000000 0.000000 0.000000
0.618889 0.802386 1.313707 0.000000 0.000000 0.000000
0.594476 0.837337 1.319238 0.000000 0.000000 0.000000
0.569355 0.823799 1.337019 0.000000 0.000000 0.000000
0.591162 0.821058 1.326293 0.000000 0.000000 0.000000
0.572415 0.829812 1.321811 0.000000 0.000000 0.000000
0.661793 0.845212 1.290539 0.000000 0.000000 0.000000
0.565850 0.821044 1.338784 0.000000 0.000000 0.000000
0.567173 0.814279 1.341511 0.000000 0.000000 0.000000
0.601722 0.831679 1.318450 0.000000 0.000000 0.000000
0.616794 0.850181 1.291008 0.000000 0.000000 0.000000
0.598623 0.807944 1.327765 0.000000 0.000000 0.000000
0.566092 0.811962 1.340933 0.000000 0.000000 0.000000
0.600180 0.843712 1.299181 0.000000 0.000000 0.000000
0.571990 0.837085 1.320582 0.000000 0.000000 0.000000
0.653317 0.847027 1.288505 0.000000 0.000000 0.000000
0.563924 0.817142 1.343843 0.000000 0.000000 0.000000
0.618507 0.833446 1.315275 0.000000 0.000000 0.000000
0.573402 0.830899 1.325865 0.000000 0.000000 0.000000
0.644492 0.847120 1.290326 0.000000 0.000000 0.000000
0.613676 0.826837 1.315216 0.000000 0.000000 0.000000
0.582031 0.808004 1.332828 0.000000 0.000000 0.000000
0.579902 0.809331 1.334482 0.000000 0.000000 0.000000
0.610507 0.847651 1.295944 0.000000 0.000000 0.000000
0.599716 0.845845 1.297334 0.000000 0.000000 0.000000
0.626806 0.846817 1.292252 0.000000 0.000000 0.000000
0.566262 0.827536 1.327783 0.000000 0.000000 0.000000
0.605650 0.849389 1.293440 0.000000 0.000000 0.000000
0.568338 0.831020 1.332345 0.000000 0.000000 0.000000
0.610084 0.852979 1.294843 0.000000 0.000000 0.000000
0.653503 0.846808 1.286499 0.000000 0.000000 0.000000
0.644817 0.848800 1.292042 0.000000 0.000000 0.000000
0.611199 0.804452 1.314042 0.000000 0.000000 0.000000
0.574424 0.803039 1.334222 0.000000 0.000000 0.000000
0.574483 0.841028 1.313065 0.000000 0.000000 0.000000
0.576999 0.831709 1.318116 0.000000 0.000000 0.000000
0.656700 0.841413 1.292264 0.000000 0.000000 0.000000
0.634426 0.850449 1.289444 0.000000 0.000000 0.000000
0.632579 0.836141 1.309197 0.000000 0.000000 0.000000
0.642343 0.843946 1.298390 0.000000 0.000000 0.000000
0.592625 0.810594 1.331422 0.000000 0.000000 0.000000
0.633382 0.846904 1.291782 0.000000 0.000000 0.000000
0.633905 0.854076 1.287168 0.000000 0.000000 0.000000
0.605044 0.803579 1.322284 0.000000 0.000000 0.000000
0.662193 0.844867 1.294976 0.000000 0.000000 0.000000
0.572891 0.834847 1.320243 0.000000 0.000000 0.000000
0.639253 0.850966 1.288024 0.000000 0.000000 0.000000
0.579058 0.838372 1.315889 0.000000 0.000000 0.000000
0.578920 0.826635 1.323444 0.000000 0.000000 0.000000
0.607703 0.808121 1.325722 0.000000 0.000000 0.000000
0.572351 0.838440 1.315286 0.000000 0.000000 0.000000
0.592548 0.812036 1.327970 0.000000 0.000000 0.000000
0.574545 0.810165 1.333562 0.000000 0.000000 0.000000
0.628540 0.851744 1.293819 0.000000 0.000000 0.000000
0.616178 0.849393 1.293603 0.000000 0.000000 0.000000
0.599612 0.846402 1.296106 0.000000 0.000000 0.000000
0.578074 0.840740 1.313987 0.000000 0.000000 0.000000
0.571849 0.830844 1.328211 0.000000 0.000000 0.000000
0.624826 0.809414 1.311286 0.000000 0.000000 0.000000
0.575421 0.829664 1.320831 0.000000 0.000000 0.000000
0.599472 0.848419 1.298873 0.000000 0.000000 0.000000
0.611670 0.803843 1.315366 0.000000 0.000000 0.000000
0.602117 0.849203 1.294130 0.000000 0.000000 0.000000
0.582134 0.846557 1.303064 0.000000 0.000000 0.000000
0.581107 0.833014 1.319226 0.000000 0.000000 0.000000
0.573195 0.847521 1.306712 0.000000 0.000000 0.000000
0.573498 0.840241 1.315033 0.000000 0.000000 0.000000
0.627323 0.803430 1.315112 0.000000 0.000000 0.000000
0.575541 0.843040 1.310076 0.000000 0.000000 0.000000
0.570648 0.835143 1.319773 0.000000 0.000000 0.000000
0.578122 0.845128 1.315082 0.000000 0.000000 0.000000
0.592390 0.815844 1.331153 0.000000 0.000000 0.000000
0.591177 0.846166 1.300954 0.000000 0.000000 0.000000
0.566233 0.819245 1.335951 0.000000 0.000000 0.000000
0.627240 0.804510 1.309671 0.000000 0.000000 0.000000
0.587561 0.821097 1.323019 0.000000 0.000000 0.000000
0.573635 0.838508 1.319795 0.000000 0.000000 0.000000
0.573500 0.840494 1.318878 0.000000 0.000000 0.000000
0.588468 0.826591 1.331794 0.000000 0.000000 0.000000
0.571401 0.819629 1.343118 0.000000 0.000000 0.000000
0.640698 0.848276 1.291571 0.000000 0.000000 0.000000
0.621298 0.857081 1.287447 0.000000 0.000000 0.000000
0.621497 0.854730 1.289883 0.000000 0.000000 0.000000
0.575854 0.845625 1.309417 0.000000 0.000000 0.000000
0.629132 0.811869 1.308055 0.000000 0.000000 0.000000
0.634887 0.851785 1.289692 0.000000 0.000000 0.000000
0.641519 0.854212 1.281123 0.000000 0.000000 0.000000
0.603744 0.801086 1.321025 0.000000 0.000000 0.000000
0.586813 0.803501 1.330963 0.000000 0.000000 0.000000
0.607472 0.833854 1.317410 0.000000 0.000000 0.000000
0.575345 0.824006 1.335152 0.000000 0.000000 0.000000
0.654804 0.828898 1.293200 0.000000 0.000000 0.000000
0.577911 0.825253 1.334273 0.000000 0.000000 0.000000
0.621186 0.818749 1.316335 0.000000 0.000000 0.000000
0.616707 0.805505 1.317016 0.000000 0.000000 0.000000
0.586226 0.827156 1.334321 0.000000 0.000000 0.000000
0.575196 0.844864 1.308436 0.000000 0.000000 0.000000
0.572855 0.842077 1.313885 0.000000 0.000000 0.000000
0.624876 0.842745 1.293592 0.000000 0.000000 0.000000
0.610667 0.800625 1.317695 0.000000 0.000000 0.000000
0.624050 0.801374 1.311840 0.000000 0.000000 0.000000
0.568257 0.834711 1.322918 0.000000 0.000000 0.000000
0.618469 0.854826 1.289232 0.000000 0.000000 0.000000
0.569410 0.822484 1.344286 0.000000 0.000000 0.000000
0.588131 0.822109 1.330292 0.000000 0.000000 0.000000
0.569925 0.820443 1.342486 0.000000 0.000000 0.000000
0.608590 0.853027 1.291674 0.000000 0.000000 0.000000
0.565565 0.815824 1.339478 0.000000 0.000000 0.000000
0.565784 0.814926 1.347012 0.000000 0.000000 0.000000
0.577565 0.820744 1.335581 0.000000 0.000000 0.000000
0.570737 0.816371 1.335165 0.000000 0.000000 0.000000
0.636221 0.849300 1.291900 0.000000 0.000000 0.000000
0.609577 0.853178 1.289813 0.000000 0.000000 0.000000
0.635170 0.811870 1.302912 0.000000 0.000000 0.000000
0.560322 0.820856 1.340298 0.000000 0.000000 0.000000
0.616896 0.856051 1.284609 0.000000 0.000000 0.000000
0.623675 0.807481 1.310524 0.000000 0.000000 0.000000
0.571480 0.805925 1.338768 0.000000 0.000000 0.000000
0.628796 0.813327 1.310572 0.000000 0.000000 0.000000
0.591503 0.806426 1.329133 0.000000 0.000000 0.000000
0.602827 0.800701 1.324425 0.000000 0.000000 0.000000
0.586187 0.823331 1.321753 0.000000 0.000000 0.000000
0.602790 0.801724 1.321338 0.000000 0.000000 0.000000
0.615267 0.804356 1.316315 0.000000 0.000000 0.000000
0.603476 0.798369 1.318699 0.000000 0.000000 0.000000
0.613549 0.798057 1.318705 0.000000 0.000000 0.000000
0.587318 0.851634 1.299413 0.000000 0.000000 0.000000
0.585691 0.852566 1.299358 0.000000 0.000000 0.000000
0.576521 0.842322 1.314202 0.000000 0.000000 0.000000
0.603715 0.808951 1.323993 0.000000 0.000000 0.000000
0.583307 0.800391 1.335129 0.000000 0.000000 0.000000
0.596815 0.845791 1.297133 0.000000 0.000000 0.000000
0.622211 0.815015 1.317187 0.000000 0.000000 0.000000
0.613279 0.855224 1.289997 0.000000 0.000000 0.000000
0.654982 0.828776 1.291417 0.000000 0.000000 0.000000
0.654725 0.826957 1.295150 0.000000 0.000000 0.000000
0.588499 0.800549 1.329795 0.000000 0.000000 0.000000
0.587423 0.810223 1.334307 0.000000 0.000000 0.000000
0.571189 0.838645 1.317138 0.000000 0.000000 0.000000
0.565454 0.827223 1.329155 0.000000 0.000000 0.000000
0.594051 0.851533 1.292790 0.000000 0.000000 0.000000
0.597410 0.850641 1.293945 0.000000 0.000000 0.000000
0.591947 0.800597 1.329175 0.000000 0.000000 0.000000
0.602035 0.800786 1.319604 0.000000 0.000000 0.000000
0.633588 0.856063 1.284100 0.000000 0.000000 0.000000
0.575038 0.819764 1.340821 0.000000 0.000000 0.000000
0.572907 0.811111 1.339744 0.000000 0.000000 0.000000
0.619847 0.809729 1.312983 0.000000 0.000000 0.000000
0.578177 0.844914 1.305144 0.000000 0.000000 0.000000
0.568190 0.823301 1.341803 0.000000 0.000000 0.000000
0.572645 0.804853 1.337032 0.000000 0.000000 0.000000
0.591538 0.848876 1.297698 0.000000 0.000000 0.000000
0.603467 0.804063 1.319031 0.000000 0.000000 0.000000
0.585223 0.845816 1.306929 0.000000 0.000000 0.000000
0.585955 0.848272 1.305651 0.000000 0.000000 0.000000
0.657761 0.832823 1.290486 0.000000 0.000000 0.000000
0.649953 0.832057 1.291658 0.000000 0.000000 0.000000
0.657007 0.836785 1.290442 0.000000 0.000000 0.000000
0.655535 0.836486 1.293461 0.000000 0.000000 0.000000
0.629502 0.856724 1.286854 0.000000 0.000000 0.000000
0.617380 0.847246 1.293590 0.000000 0.000000 0.000000
0.657980 0.832814 1.289991 0.000000 0.000000 0.000000
0.632208 0.816244 1.307266 0.000000 0.000000 0.000000
0.626327 0.807591 1.312578 0.000000 0.000000 0.000000
0.585677 0.802582 1.332357 0.000000 0.000000 0.000000
0.605087 0.850186 1.294093 0.000000 0.000000 0.000000
0.632905 0.812949 1.305433 0.000000 0.000000 0.000000
0.644847 0.831598 1.299310 0.000000 0.000000 0.000000
0.620715 0.805007 1.315933 0.000000 0.000000 0.000000
0.633974 0.854060 1.285867 0.000000 0.000000 0.000000
0.640968 0.827105 1.303413 0.000000 0.000000 0.000000
0.632754 0.806706 1.306420 0.000000 0.000000 0.000000
0.654608 0.828614 1.291242 0.000000 0.000000 0.000000
0.648312 0.836648 1.294576 0.000000 0.000000 0.000000
0.568271 0.827236 1.332586 0.000000 0.000000 0.000000
0.618632 0.855443 1.288697 0.000000 0.000000 0.000000
0.608149 0.853659 1.290124 0.000000 0.000000 0.000000
0.619581 0.853556 1.291366 0.000000 0.000000 0.000000
0.661454 0.844953 1.289343 0.000000 0.000000 0.000000
0.610543 0.849880 1.289694 0.000000 0.000000 0.000000
0.652276 0.818378 1.291997 0.000000 0.000000 0.000000
0.666099 0.846249 1.290216 0.000000 0.000000 0.000000
0.623905 0.856413 1.286697 0.000000 0.000000 0.000000
0.578789 0.844250 1.307802 0.000000 0.000000 0.000000
0.664299 0.843378 1.289096 0.000000 0.000000 0.000000
0.623717 0.855900 1.285561 0.000000 0.000000 0.000000
0.607850 0.826490 1.328698 0.000000 0.000000 0.000000
0.570993 0.826111 1.321986 0.000000 0.000000 0.000000
0.569542 0.826416 1.332896 0.000000 0.000000 0.000000
0.591965 0.816256 1.327737 0.000000 0.000000 0.000000
0.584879 0.853030 1.296390 0.000000 0.000000 0.000000
0.578762 0.823031 1.337076 0.000000 0.000000 0.000000
0.565309 0.837091 1.312663 0.000000 0.000000 0.000000
0.567768 0.835059 1.326981 0.000000 0.000000 0.000000
0.647701 0.831450 1.298949 0.000000 0.000000 0.000000
0.646599 0.821606 1.296010 0.000000 0.000000 0.000000
0.644662 0.826922 1.295900 0.000000 0.000000 0.000000
0.641429 0.825553 1.298183 0.000000 0.000000 0.000000
0.632078 0.808163 1.305853 0.000000 0.000000 0.000000
0.569635 0.829592 1.327520 0.000000 0.000000 0.000000
0.566762 0.834256 1.321482 0.000000 0.000000 0.000000
0.637180 0.820034 1.304038 0.000000 0.000000 0.000000
0.572975 0.836130 1.316694 0.000000 0.000000 0.000000
0.617355 0.857327 1.286728 0.000000 0.000000 0.000000
0.651803 0.853204 1.284110 0.000000 0.000000 0.000000
0.569675 0.835941 1.319708 0.000000 0.000000 0.000000
0.593162 0.836267 1.322309 0.000000 0.000000 0.000000
0.563643 0.829737 1.323174 0.000000 0.000000 0.000000
0.586721 0.800622 1.337167 0.000000 0.000000 0.000000
0.624131 0.804806 1.305551 0.000000 0.000000 0.000000
0.580304 0.830247 1.330968 0.000000 0.000000 0.000000
0.653423 0.849742 1.288657 0.000000 0.000000 0.000000
0.660631 0.841637 1.291746 0.000000 0.000000 0.000000
0.586553 0.811290 1.330030 0.000000 0.000000 0.000000
0.605762 0.853316 1.293176 0.000000 0.000000 0.000000
0.620980 0.855202 1.286908 0.000000 0.000000 0.000000
0.601237 0.802830 1.320359 0.000000 0.000000 0.000000
0.606832 0.848496 1.295897 0.000000 0.000000 0.000000
0.571166 0.813232 1.336407 0.000000 0.000000 0.000000
0.617443 0.805817 1.314982 0.000000 0.000000 0.000000
0.620058 0.855251 1.288867 0.000000 0.000000 0.000000
0.595824 0.804540 1.324793 0.000000 0.000000 0.000000
0.619773 0.853663 1.291187 0.000000 0.000000 0.000000
0.657160 0.849397 1.285311 0.000000 0.000000 0.000000
0.634104 0.812796 1.302451 0.000000 0.000000 0.000000
0.591359 0.800194 1.329772 0.000000 0.000000 0.000000
0.584681 0.802342 1.332766 0.000000 0.000000 0.000000
0.631141 0.807999 1.305703 0.000000 0.000000 0.000000
0.636410 0.813921 1.303557 0.000000 0.000000 0.000000
0.567738 0.831766 1.323046 0.000000 0.000000 0.000000
0.567764 0.815773 1.349232 0.000000 0.000000 0.000000
0.633962 0.808873 1.304019 0.000000 0.000000 0.000000
0.633533 0.807175 1.307218 0.000000 0.000000 0.000000
0.589175 0.851677 1.298508 0.000000 0.000000 0.000000
0.649176 0.821661 1.294407 0.000000 0.000000 0.000000
0.660152 0.846668 1.288334 0.000000 0.000000 0.000000
0.653514 0.835036 1.289908 0.000000 0.000000 0.000000
0.654374 0.822439 1.292327 0.000000 0.000000 0.000000
0.609027 0.800841 1.315740 0.000000 0.000000 0.000000
0.580473 0.812288 1.334182 0.000000 0.000000 0.000000
0.656787 0.828334 1.291021 0.000000 0.000000 0.000000
0.617474 0.801534 1.313024 0.000000 0.000000 0.000000
0.646653 0.823322 1.294282 0.000000 0.000000 0.000000
0.566203 0.815382 1.347476 0.000000 0.000000 0.000000
0.599130 0.801024 1.321977 0.000000 0.000000 0.000000
0.623656 0.806933 1.311956 0.000000 0.000000 0.000000
0.650141 0.830861 1.292707 0.000000 0.000000 0.000000
0.640054 0.852217 1.287633 0.000000 0.000000 0.000000
0.609793 0.800794 1.320077 0.000000 0.000000 0.000000
0.587611 0.801544 1.330713 0.000000 0.000000 0.000000
0.578013 0.801082 1.336663 0.000000 0.000000 0.000000
0.573268 0.805983 1.334775 0.000000 0.000000 0.000000
0.582931 0.802205 1.329468 0.000000 0.000000 0.000000
0.662381 0.840472 1.289142 0.000000 0.000000 0.000000
0.639465 0.807952 1.301052 0.000000 0.000000 0.000000
0.589793 0.851922 1.298919 0.000000 0.000000 0.000000
0.653438 0.824622 1.293874 0.000000 0.000000 0.000000
0.647663 0.813814 1.295999 0.000000 0.000000 0.000000
0.632566 0.856063 1.282673 0.000000 0.000000 0.000000
0.659113 0.832721 1.290612 0.000000 0.000000 0.000000
0.653611 0.819916 1.291915 0.000000 0.000000 0.000000
0.631313 0.855312 1.280196 0.000000 0.000000 0.000000
0.609305 0.854382 1.289776 0.000000 0.000000 0.000000
0.583192 0.800181 1.333488 0.000000 0.000000 0.000000
0.578084 0.804835 1.335115 0.000000 0.000000 0.000000
0.633845 0.812900 1.303024 0.000000 0.000000 0.000000
0.630639 0.807876 1.308048 0.000000 0.000000 0.000000
0.637177 0.815354 1.303420 0.000000 0.000000 0.000000
0.640226 0.812016 1.296729 0.000000 0.000000 0.000000
0.623151 0.826003 1.323077 0.000000 0.000000 0.000000
0.604655 0.835219 1.319551 0.000000 0.000000 0.000000
0.650304 0.823588 1.294438 0.000000 0.000000 0.000000
0.591679 0.851795 1.299540 0.000000 0.000000 0.000000
0.567766 0.832769 1.327229 0.000000 0.000000 0.000000
0.568127 0.833924 1.324902 0.000000 0.000000 0.000000
0.642990 0.817149 1.300913 0.000000 0.000000 0.000000
0.635163 0.806909 1.305576 0.000000 0.000000 0.000000
0.566723 0.810730 1.339072 0.000000 0.000000 0.000000
0.606665 0.803356 1.316413 0.000000 0.000000 0.000000
0.565074 0.814023 1.343598 0.000000 0.000000 0.000000
0.643469 0.810215 1.297772 0.000000 0.000000 0.000000
0.612771 0.799536 1.316011 0.000000 0.000000 0.000000
0.593862 0.854082 1.292132 0.000000 0.000000 0.000000
0.613672 0.800424 1.315664 0.000000 0.000000 0.000000
0.602009 0.855525 1.289609 0.000000 0.000000 0.000000
0.652628 0.825669 1.291849 0.000000 0.000000 0.000000
0.568945 0.842557 1.314444 0.000000 0.000000 0.000000
0.646277 0.827991 1.294441 0.000000 0.000000 0.000000
0.582495 0.800283 1.331757 0.000000 0.000000 0.000000
0.655966 0.834078 1.291733 0.000000 0.000000 0.000000
0.634215 0.809666 1.301483 0.000000 0.000000 0.000000
0.662248 0.831972 1.288503 0.000000 0.000000 0.000000
0.661894 0.826857 1.290716 0.000000 0.000000 0.000000
0.635845 0.809776 1.305674 0.000000 0.000000 0.000000
0.634868 0.811652 1.303449 0.000000 0.000000 0.000000
0.642085 0.817435 1.297797 0.000000 0.000000 0.000000
0.626629 0.857241 1.287288 0.000000 0.000000 0.000000
0.630694 0.818773 1.309099 0.000000 0.000000 0.000000
0.620768 0.804941 1.311704 0.000000 0.000000 0.000000
0.634035 0.814498 1.305363 0.000000 0.000000 0.000000
0.626924 0.805803 1.309005 0.000000 0.000000 0.000000
0.647519 0.821292 1.297259 0.000000 0.000000 0.000000
0.633203 0.813598 1.305735 0.000000 0.000000 0.000000
0.632475 0.806662 1.306477 0.000000 0.000000 0.000000
0.620385 0.816080 1.311490 0.000000 0.000000 0.000000
0.636408 0.820092 1.305561 0.000000 0.000000 0.000000
0.606407 0.805901 1.320029 0.000000 0.000000 0.000000
0.643093 0.824704 1.301194 0.000000 0.000000 0.000000
0.616897 0.812822 1.314800 0.000000 0.000000 0.000000
0.634824 0.818356 1.304471 0.000000 0.000000 0.000000
0.629133 0.818912 1.307752 0.000000 0.000000 0.000000
0.638891 0.816187 1.308541 0.000000 0.000000 0.000000
0.631011 0.813706 1.306510 0.000000 0.000000 0.000000
0.619270 0.809191 1.315404 0.000000 0.000000 0.000000
0.622278 0.811447 1.311368 0.000000 0.000000 0.000000
0.615934 0.804181 1.315959 0.000000 0.000000 0.000000
0.623626 0.817290 1.310572 0.000000 0.000000 0.000000
0.641563 0.812835 1.300571 0.000000 0.000000 0.000000
0.612564 0.818050 1.318102 0.000000 0.000000 0.000000
0.627023 0.825767 1.313327 0.000000 0.000000 0.000000
0.639487 0.815708 1.301060 0.000000 0.000000 0.000000
0.650300 0.825171 1.295319 0.000000 0.000000 0.000000
0.656313 0.831090 1.290832 0.000000 0.000000 0.000000
0.637599 0.822752 1.304304 0.000000 0.000000 0.000000
0.633538 0.802871 1.304823 0.000000 0.000000 0.000000
0.635665 0.812550 1.306170 0.000000 0.000000 0.000000
0.630236 0.813772 1.307422 0.000000 0.000000 0.000000
0.630199 0.828478 1.311781 0.000000 0.000000 0.000000
0.587895 0.813026 1.329293 0.000000 0.000000 0.000000
0.647067 0.822848 1.298036 0.000000 0.000000 0.000000
0.618668 0.822604 1.315724 0.000000 0.000000 0.000000
0.608091 0.806436 1.324304 0.000000 0.000000 0.000000
0.632618 0.821851 1.308226 0.000000 0.000000 0.000000
0.639346 0.810651 1.302665 0.000000 0.000000 0.000000
0.627084 0.809787 1.308491 0.000000 0.000000 0.000000
0.622855 0.805674 1.312477 0.000000 0.000000 0.000000
0.629899 0.810642 1.308713 0.000000 0.000000 0.000000
0.628869 0.805876 1.309189 0.000000 0.000000 0.000000
0.639179 0.810591 1.302427 0.000000 0.000000 0.000000
0.632918 0.823202 1.304088 0.000000 0.000000 0.000000
0.614756 0.810371 1.318410 0.000000 0.000000 0.000000
0.628857 0.814884 1.309566 0.000000 0.000000 0.000000
0.631183 0.820354 1.310490 0.000000 0.000000 0.000000
0.618150 0.805973 1.315944 0.000000 0.000000 0.000000
0.638382 0.811385 1.301175 0.000000 0.000000 0.000000
0.621966 0.806953 1.312160 0.000000 0.000000 0.000000
0.652894 0.839827 1.291249 0.000000 0.000000 0.000000
0.639977 0.819575 1.302411 0.000000 0.000000 0.000000
0.624030 0.798483 1.309693 0.000000 0.000000 0.000000
0.639140 0.806632 1.300837 0.000000 0.000000 0.000000
0.645028 0.816252 1.297893 0.000000 0.000000 0.000000
0.656839 0.839990 1.292419 0.000000 0.000000 0.000000
0.657274 0.840037 1.290577 0.000000 0.000000 0.000000
0.603934 0.811933 1.326011 0.000000 0.000000 0.000000
0.593858 0.809057 1.331761 0.000000 0.000000 0.000000
0.607527 0.815460 1.320671 0.000000 0.000000 0.000000
0.601743 0.813315 1.328161 0.000000 0.000000 0.000000
0.600778 0.805367 1.326209 0.000000 0.000000 0.000000
0.601119 0.828127 1.328218 0.000000 0.000000 0.000000
0.616880 0.830004 1.325295 0.000000 0.000000 0.000000
0.618919 0.809732 1.316680 0.000000 0.000000 0.000000
0.640553 0.832485 1.303621 0.000000 0.000000 0.000000
0.616824 0.814676 1.321139 0.000000 0.000000 0.000000
0.613848 0.831519 1.321962 0.000000 0.000000 0.000000
0.615180 0.821008 1.323412 0.000000 0.000000 0.000000
0.619326 0.828173 1.322697 0.000000 0.000000 0.000000
0.608793 0.829518 1.321214 0.000000 0.000000 0.000000
0.625517 0.856146 1.283970 0.000000 0.000000 0.000000
0.662163 0.835558 1.287269 0.000000 0.000000 0.000000
0.570584 0.806981 1.339578 0.000000 0.000000 0.000000
0.609609 0.852177 1.293749 0.000000 0.000000 0.000000
0.579863 0.806068 1.331772 0.000000 0.000000 0.000000
0.664327 0.838930 1.287703 0.000000 0.000000 0.000000
0.621542 0.856307 1.287007 0.000000 0.000000 0.000000
0.625775 0.855073 1.286949 0.000000 0.000000 0.000000
0.626311 0.852646 1.290164 0.000000 0.000000 0.000000
0.654223 0.849476 1.284945 0.000000 0.000000 0.000000
0.632446 0.848632 1.295438 0.000000 0.000000 0.000000
0.640411 0.850018 1.290878 0.000000 0.000000 0.000000
0.607732 0.851180 1.296457 0.000000 0.000000 0.000000
0.619326 0.854734 1.289287 0.000000 0.000000 0.000000
0.620959 0.853977 1.290926 0.000000 0.000000 0.000000
0.597305 0.849041 1.301570 0.000000 0.000000 0.000000
0.612644 0.849872 1.296355 0.000000 0.000000 0.000000
0.616730 0.851735 1.295016 0.000000 0.000000 0.000000
0.613253 0.853408 1.292174 0.000000 0.000000 0.000000
0.629270 0.854540 1.286533 0.000000 0.000000 0.000000
0.610681 0.852382 1.291827 0.000000 0.000000 0.000000
0.620155 0.852588 1.295618 0.000000 0.000000 0.000000
0.626054 0.855480 1.288191 0.000000 0.000000 0.000000
0.661946 0.840859 1.289193 0.000000 0.000000 0.000000
0.612113 0.853257 1.291008 0.000000 0.000000 0.000000
0.619653 0.852225 1.291780 0.000000 0.000000 0.000000
0.584306 0.846572 1.303337 0.000000 0.000000 0.000000
0.574594 0.842392 1.310654 0.000000 0.000000 0.000000
0.623273 0.853795 1.287539 0.000000 0.000000 0.000000
0.575161 0.832063 1.312945 0.000000 0.000000 0.000000
0.576363 0.842122 1.310475 0.000000 0.000000 0.000000
0.616693 0.851665 1.290284 0.000000 0.000000 0.000000
0.658215 0.833696 1.290109 0.000000 0.000000 0.000000
0.566305 0.838686 1.319762 0.000000 0.000000 0.000000
0.636507 0.806093 1.310672 0.000000 0.000000 0.000000
0.647984 0.836913 1.303812 0.000000 0.000000 0.000000
0.635744 0.833439 1.308242 0.000000 0.000000 0.000000
0.571632 0.841790 1.305702 0.000000 0.000000 0.000000
0.576161 0.840091 1.307392 0.000000 0.000000 0.000000
0.598622 0.803324 1.321933 0.000000 0.000000 0.000000
0.626704 0.853860 1.290027 0.000000 0.000000 0.000000
0.616841 0.848786 1.297026 0.000000 0.000000 0.000000
0.658840 0.849958 1.285352 0.000000 0.000000 0.000000
0.570797 0.843916 1.309560 0.000000 0.000000 0.000000
0.630705 0.829177 1.318368 0.000000 0.000000 0.000000
0.644544 0.838078 1.298277 0.000000 0.000000 0.000000
0.589120 0.853316 1.299367 0.000000 0.000000 0.000000
0.647951 0.815414 1.294377 0.000000 0.000000 0.000000
0.650287 0.823977 1.294134 0.000000 0.000000 0.000000
0.648184 0.820171 1.297524 0.000000 0.000000 0.000000
0.647257 0.820013 1.296761 0.000000 0.000000 0.000000
0.645950 0.813291 1.295235 0.000000 0.000000 0.000000
0.600853 0.806947 1.320581 0.000000 0.000000 0.000000
0.640633 0.829163 1.298358 0.000000 0.000000 0.000000
0.645163 0.815690 1.297218 0.000000 0.000000 0.000000
0.640693 0.823664 1.298864 0.000000 0.000000 0.000000
0.591976 0.802197 1.331756 0.000000 0.000000 0.000000
0.613900 0.799496 1.317259 0.000000 0.000000 0.000000
0.597983 0.803832 1.327204 0.000000 0.000000 0.000000
0.603010 0.801556 1.323615 0.000000 0.000000 0.000000
0.651089 0.825022 1.293149 0.000000 0.000000 0.000000
0.608365 0.801773 1.321393 0.000000 0.000000 0.000000
0.614499 0.800579 1.315392 0.000000 0.000000 0.000000
0.591622 0.801383 1.327794 0.000000 0.000000 0.000000
0.581864 0.850385 1.301656 0.000000 0.000000 0.000000
0.639287 0.814729 1.300128 0.000000 0.000000 0.000000
0.650786 0.853437 1.283071 0.000000 0.000000 0.000000
0.597151 0.854166 1.289091 0.000000 0.000000 0.000000
0.653305 0.851769 1.282215 0.000000 0.000000 0.000000
0.662153 0.840548 1.286938 0.000000 0.000000 0.000000
0.660480 0.841898 1.290912 0.000000 0.000000 0.000000
0.591194 0.853574 1.295229 0.000000 0.000000 0.000000
0.651048 0.851087 1.286106 0.000000 0.000000 0.000000
0.656593 0.830753 1.292317 0.000000 0.000000 0.000000
0.661297 0.835485 1.287334 0.000000 0.000000 0.000000
0.602356 0.853845 1.292636 0.000000 0.000000 0.000000
0.616414 0.853904 1.291596 0.000000 0.000000 0.000000
0.610573 0.856435 1.287496 0.000000 0.000000 0.000000
0.604996 0.855216 1.286461 0.000000 0.000000 0.000000
0.566207 0.827970 1.329749 0.000000 0.000000 0.000000
0.594013 0.850283 1.295495 0.000000 0.000000 0.000000
0.621037 0.802279 1.312190 0.000000 0.000000 0.000000
0.593804 0.851256 1.295196 0.000000 0.000000 0.000000
0.581979 0.850299 1.301201 0.000000 0.000000 0.000000
0.565845 0.833966 1.314038 0.000000 0.000000 0.000000
0.644853 0.816809 1.298993 0.000000 0.000000 0.000000
0.597099 0.851736 1.294491 0.000000 0.000000 0.000000
0.594381 0.851888 1.294977 0.000000 0.000000 0.000000
0.648237 0.837789 1.307905 0.000000 0.000000 0.000000
0.602078 0.851041 1.294533 0.000000 0.000000 0.000000
0.639981 0.831756 1.312303 0.000000 0.000000 0.000000
0.562440 0.806318 1.351313 0.000000 0.000000 0.000000
0.561309 0.816267 1.349795 0.000000 0.000000 0.000000
0.562025 0.815167 1.344432 0.000000 0.000000 0.000000
0.563882 0.808695 1.353623 0.000000 0.000000 0.000000
0.561376 0.814863 1.341782 0.000000 0.000000 0.000000
0.560232 0.816186 1.351069 0.000000 0.000000 0.000000
0.562105 0.811632 1.356753 0.000000 0.000000 0.000000
0.563822 0.814569 1.353077 0.000000 0.000000 0.000000
0.564665 0.800149 1.348634 0.000000 0.000000 0.000000
0.561318 0.803975 1.348986 0.000000 0.000000 0.000000
0.562061 0.812679 1.347107 0.000000 0.000000 0.000000
0.560722 0.817160 1.358027 0.000000 0.000000 0.000000
