ply
format ascii 1.0
comment VCGLIB generated
obj_info Generated by SPFormer!
element vertex 233
property float x
property float y
property float z
property float nx
property float ny
property float nz
end_header
0.489212 0.739456 1.344649 0.000000 0.000000 0.000000
0.488886 0.720154 1.349525 0.000000 0.000000 0.000000
0.500128 0.721924 1.352958 0.000000 0.000000 0.000000
0.489668 0.726146 1.355131 0.000000 0.000000 0.000000
0.489252 0.722085 1.354779 0.000000 0.000000 0.000000
0.489048 0.724515 1.358844 0.000000 0.000000 0.000000
0.493836 0.724338 1.351572 0.000000 0.000000 0.000000
0.488614 0.720428 1.358706 0.000000 0.000000 0.000000
0.490242 0.723230 1.354568 0.000000 0.000000 0.000000
0.495731 0.721377 1.354918 0.000000 0.000000 0.000000
0.488255 0.720760 1.354988 0.000000 0.000000 0.000000
0.480796 0.725151 1.352558 0.000000 0.000000 0.000000
0.485709 0.720092 1.357938 0.000000 0.000000 0.000000
0.485808 0.724050 1.352031 0.000000 0.000000 0.000000
0.517778 0.751883 1.345135 0.000000 0.000000 0.000000
0.508548 0.726951 1.349339 0.000000 0.000000 0.000000
0.543627 0.770737 1.346703 0.000000 0.000000 0.000000
0.501528 0.733277 1.343414 0.000000 0.000000 0.000000
0.503331 0.727901 1.347146 0.000000 0.000000 0.000000
0.548191 0.775397 1.344199 0.000000 0.000000 0.000000
0.518557 0.732376 1.359104 0.000000 0.000000 0.000000
0.515263 0.729233 1.350901 0.000000 0.000000 0.000000
0.548647 0.786996 1.353632 0.000000 0.000000 0.000000
0.506850 0.739601 1.345734 0.000000 0.000000 0.000000
0.525419 0.777265 1.346455 0.000000 0.000000 0.000000
0.517530 0.752796 1.345324 0.000000 0.000000 0.000000
0.513349 0.730832 1.358324 0.000000 0.000000 0.000000
0.510012 0.723344 1.348998 0.000000 0.000000 0.000000
0.514019 0.736361 1.346930 0.000000 0.000000 0.000000
0.518695 0.770454 1.342887 0.000000 0.000000 0.000000
0.544589 0.768054 1.347930 0.000000 0.000000 0.000000
0.546558 0.767725 1.347790 0.000000 0.000000 0.000000
0.541375 0.769618 1.356652 0.000000 0.000000 0.000000
0.514138 0.769575 1.341155 0.000000 0.000000 0.000000
0.504865 0.754593 1.341644 0.000000 0.000000 0.000000
0.515837 0.750509 1.344456 0.000000 0.000000 0.000000
0.533066 0.780640 1.344602 0.000000 0.000000 0.000000
0.527924 0.789638 1.345672 0.000000 0.000000 0.000000
0.514114 0.744792 1.344235 0.000000 0.000000 0.000000
0.548808 0.797287 1.351662 0.000000 0.000000 0.000000
0.506889 0.723041 1.349524 0.000000 0.000000 0.000000
0.515453 0.721528 1.354675 0.000000 0.000000 0.000000
0.552125 0.773358 1.341861 0.000000 0.000000 0.000000
0.517835 0.768815 1.343228 0.000000 0.000000 0.000000
0.538170 0.784066 1.356335 0.000000 0.000000 0.000000
0.542369 0.786835 1.346677 0.000000 0.000000 0.000000
0.520140 0.772159 1.342602 0.000000 0.000000 0.000000
0.540915 0.772592 1.345669 0.000000 0.000000 0.000000
0.555055 0.769864 1.344463 0.000000 0.000000 0.000000
0.502481 0.725910 1.345048 0.000000 0.000000 0.000000
0.537756 0.775916 1.353843 0.000000 0.000000 0.000000
0.558097 0.786115 1.352643 0.000000 0.000000 0.000000
0.547335 0.791370 1.347585 0.000000 0.000000 0.000000
0.531941 0.774587 1.345344 0.000000 0.000000 0.000000
0.508784 0.752436 1.341277 0.000000 0.000000 0.000000
0.557847 0.772994 1.345335 0.000000 0.000000 0.000000
0.536752 0.779421 1.350541 0.000000 0.000000 0.000000
0.550822 0.773671 1.356193 0.000000 0.000000 0.000000
0.529246 0.775725 1.340650 0.000000 0.000000 0.000000
0.512414 0.777081 1.339891 0.000000 0.000000 0.000000
0.508858 0.722324 1.346891 0.000000 0.000000 0.000000
0.515822 0.756416 1.343009 0.000000 0.000000 0.000000
0.515557 0.756254 1.343158 0.000000 0.000000 0.000000
0.535335 0.785128 1.345041 0.000000 0.000000 0.000000
0.548372 0.770931 1.359033 0.000000 0.000000 0.000000
0.534900 0.786555 1.342530 0.000000 0.000000 0.000000
0.555401 0.793898 1.351754 0.000000 0.000000 0.000000
0.547499 0.795198 1.348864 0.000000 0.000000 0.000000
0.513611 0.758977 1.336803 0.000000 0.000000 0.000000
0.526882 0.764634 1.346645 0.000000 0.000000 0.000000
0.513699 0.740213 1.344961 0.000000 0.000000 0.000000
0.523872 0.770976 1.344339 0.000000 0.000000 0.000000
0.529612 0.772233 1.344621 0.000000 0.000000 0.000000
0.559385 0.792728 1.341700 0.000000 0.000000 0.000000
0.503254 0.730367 1.345224 0.000000 0.000000 0.000000
0.512890 0.737809 1.346352 0.000000 0.000000 0.000000
0.536205 0.797026 1.350820 0.000000 0.000000 0.000000
0.519814 0.780623 1.342132 0.000000 0.000000 0.000000
0.514412 0.752120 1.349003 0.000000 0.000000 0.000000
0.544561 0.782192 1.346553 0.000000 0.000000 0.000000
0.507993 0.760856 1.342089 0.000000 0.000000 0.000000
0.540099 0.791011 1.356209 0.000000 0.000000 0.000000
0.519124 0.763364 1.344127 0.000000 0.000000 0.000000
0.511430 0.767798 1.341100 0.000000 0.000000 0.000000
0.559468 0.766221 1.345262 0.000000 0.000000 0.000000
0.503976 0.749918 1.339944 0.000000 0.000000 0.000000
0.554581 0.770544 1.343773 0.000000 0.000000 0.000000
0.506397 0.739240 1.344593 0.000000 0.000000 0.000000
0.505145 0.753112 1.337652 0.000000 0.000000 0.000000
0.535744 0.784751 1.348354 0.000000 0.000000 0.000000
0.503770 0.734182 1.344486 0.000000 0.000000 0.000000
0.549574 0.784018 1.345980 0.000000 0.000000 0.000000
0.522477 0.786807 1.345647 0.000000 0.000000 0.000000
0.527112 0.791732 1.347790 0.000000 0.000000 0.000000
0.559422 0.765806 1.342431 0.000000 0.000000 0.000000
0.506426 0.742586 1.343615 0.000000 0.000000 0.000000
0.509993 0.750659 1.344458 0.000000 0.000000 0.000000
0.513502 0.764966 1.341944 0.000000 0.000000 0.000000
0.542211 0.794818 1.350241 0.000000 0.000000 0.000000
0.512564 0.759175 1.343674 0.000000 0.000000 0.000000
0.509531 0.726831 1.349592 0.000000 0.000000 0.000000
0.511853 0.748914 1.342959 0.000000 0.000000 0.000000
0.509682 0.744490 1.343381 0.000000 0.000000 0.000000
0.540041 0.793755 1.350670 0.000000 0.000000 0.000000
0.518449 0.740896 1.347430 0.000000 0.000000 0.000000
0.515459 0.778252 1.341739 0.000000 0.000000 0.000000
0.529378 0.787646 1.343589 0.000000 0.000000 0.000000
0.520059 0.782191 1.343857 0.000000 0.000000 0.000000
0.553267 0.794040 1.348905 0.000000 0.000000 0.000000
0.535970 0.780375 1.352135 0.000000 0.000000 0.000000
0.552707 0.788624 1.349898 0.000000 0.000000 0.000000
0.559623 0.786690 1.349939 0.000000 0.000000 0.000000
0.554613 0.770151 1.348174 0.000000 0.000000 0.000000
0.510414 0.771826 1.339231 0.000000 0.000000 0.000000
0.518791 0.780460 1.342766 0.000000 0.000000 0.000000
0.502920 0.750319 1.341134 0.000000 0.000000 0.000000
0.539530 0.781489 1.355759 0.000000 0.000000 0.000000
0.533194 0.765527 1.355380 0.000000 0.000000 0.000000
0.551670 0.774029 1.355697 0.000000 0.000000 0.000000
0.547768 0.762234 1.353905 0.000000 0.000000 0.000000
0.516493 0.780904 1.340869 0.000000 0.000000 0.000000
0.543168 0.789001 1.355065 0.000000 0.000000 0.000000
0.531894 0.762863 1.346470 0.000000 0.000000 0.000000
0.502624 0.744287 1.342068 0.000000 0.000000 0.000000
0.507621 0.729403 1.344194 0.000000 0.000000 0.000000
0.545094 0.791375 1.350416 0.000000 0.000000 0.000000
0.512864 0.769402 1.343383 0.000000 0.000000 0.000000
0.556382 0.798760 1.353062 0.000000 0.000000 0.000000
0.506140 0.764012 1.339971 0.000000 0.000000 0.000000
0.539068 0.793980 1.346101 0.000000 0.000000 0.000000
0.529363 0.790431 1.344664 0.000000 0.000000 0.000000
0.514203 0.777505 1.336450 0.000000 0.000000 0.000000
0.512598 0.772466 1.342200 0.000000 0.000000 0.000000
0.510646 0.768630 1.341179 0.000000 0.000000 0.000000
0.525064 0.785455 1.341426 0.000000 0.000000 0.000000
0.556153 0.789655 1.350518 0.000000 0.000000 0.000000
0.541776 0.768202 1.356590 0.000000 0.000000 0.000000
0.534366 0.760414 1.358730 0.000000 0.000000 0.000000
0.540225 0.765121 1.359910 0.000000 0.000000 0.000000
0.529001 0.791255 1.345890 0.000000 0.000000 0.000000
0.507795 0.730751 1.347373 0.000000 0.000000 0.000000
0.542382 0.775118 1.359256 0.000000 0.000000 0.000000
0.544660 0.778798 1.345887 0.000000 0.000000 0.000000
0.550704 0.774732 1.351699 0.000000 0.000000 0.000000
0.519138 0.781883 1.342595 0.000000 0.000000 0.000000
0.523487 0.777961 1.341488 0.000000 0.000000 0.000000
0.553104 0.776574 1.353298 0.000000 0.000000 0.000000
0.547569 0.775403 1.345553 0.000000 0.000000 0.000000
0.546063 0.769514 1.345242 0.000000 0.000000 0.000000
0.556370 0.785897 1.350691 0.000000 0.000000 0.000000
0.558533 0.766432 1.347932 0.000000 0.000000 0.000000
0.557697 0.768495 1.351203 0.000000 0.000000 0.000000
0.557052 0.779377 1.344915 0.000000 0.000000 0.000000
0.532757 0.780003 1.355726 0.000000 0.000000 0.000000
0.515236 0.725482 1.355844 0.000000 0.000000 0.000000
0.536502 0.775578 1.359974 0.000000 0.000000 0.000000
0.501680 0.736956 1.341381 0.000000 0.000000 0.000000
0.555301 0.760345 1.341472 0.000000 0.000000 0.000000
0.517897 0.771797 1.339065 0.000000 0.000000 0.000000
0.508006 0.755631 1.343130 0.000000 0.000000 0.000000
0.503987 0.760668 1.339391 0.000000 0.000000 0.000000
0.522626 0.786995 1.341284 0.000000 0.000000 0.000000
0.501164 0.751220 1.337615 0.000000 0.000000 0.000000
0.551481 0.799213 1.355062 0.000000 0.000000 0.000000
0.542121 0.796868 1.359030 0.000000 0.000000 0.000000
0.540451 0.795309 1.355733 0.000000 0.000000 0.000000
0.497799 0.727657 1.342404 0.000000 0.000000 0.000000
0.519496 0.757370 1.344891 0.000000 0.000000 0.000000
0.523152 0.784198 1.342961 0.000000 0.000000 0.000000
0.544083 0.772837 1.358844 0.000000 0.000000 0.000000
0.545359 0.773155 1.347372 0.000000 0.000000 0.000000
0.551745 0.788692 1.352696 0.000000 0.000000 0.000000
0.556354 0.793819 1.352096 0.000000 0.000000 0.000000
0.499606 0.737715 1.341557 0.000000 0.000000 0.000000
0.556224 0.794697 1.352424 0.000000 0.000000 0.000000
0.500410 0.725839 1.345586 0.000000 0.000000 0.000000
0.538231 0.786355 1.356755 0.000000 0.000000 0.000000
0.549373 0.795793 1.353536 0.000000 0.000000 0.000000
0.552847 0.796537 1.353410 0.000000 0.000000 0.000000
0.497369 0.742120 1.337499 0.000000 0.000000 0.000000
0.533106 0.793437 1.348051 0.000000 0.000000 0.000000
0.540236 0.791464 1.349456 0.000000 0.000000 0.000000
0.498325 0.732430 1.342087 0.000000 0.000000 0.000000
0.514438 0.781822 1.342559 0.000000 0.000000 0.000000
0.505957 0.773039 1.343744 0.000000 0.000000 0.000000
0.505081 0.747420 1.342274 0.000000 0.000000 0.000000
0.507509 0.739120 1.343658 0.000000 0.000000 0.000000
0.521939 0.783959 1.343867 0.000000 0.000000 0.000000
0.520626 0.782279 1.342130 0.000000 0.000000 0.000000
0.520539 0.783063 1.342851 0.000000 0.000000 0.000000
0.550562 0.760534 1.342406 0.000000 0.000000 0.000000
0.554695 0.762147 1.347335 0.000000 0.000000 0.000000
0.513685 0.773440 1.341543 0.000000 0.000000 0.000000
0.514426 0.775997 1.340788 0.000000 0.000000 0.000000
0.527106 0.788728 1.346222 0.000000 0.000000 0.000000
0.544134 0.799970 1.354194 0.000000 0.000000 0.000000
0.506715 0.764578 1.339769 0.000000 0.000000 0.000000
0.507711 0.760435 1.340564 0.000000 0.000000 0.000000
0.506013 0.772162 1.342489 0.000000 0.000000 0.000000
0.502590 0.760490 1.338624 0.000000 0.000000 0.000000
0.547578 0.797213 1.348862 0.000000 0.000000 0.000000
0.499749 0.747902 1.338991 0.000000 0.000000 0.000000
0.500975 0.760906 1.339416 0.000000 0.000000 0.000000
0.497913 0.754969 1.338615 0.000000 0.000000 0.000000
0.503631 0.755504 1.340069 0.000000 0.000000 0.000000
0.505783 0.758257 1.340675 0.000000 0.000000 0.000000
0.500211 0.753913 1.339471 0.000000 0.000000 0.000000
0.512512 0.765883 1.340856 0.000000 0.000000 0.000000
0.507198 0.759699 1.340386 0.000000 0.000000 0.000000
0.515933 0.763360 1.343011 0.000000 0.000000 0.000000
0.505355 0.759075 1.340013 0.000000 0.000000 0.000000
0.501714 0.756410 1.339069 0.000000 0.000000 0.000000
0.543980 0.798031 1.353030 0.000000 0.000000 0.000000
0.505704 0.760659 1.339802 0.000000 0.000000 0.000000
0.547068 0.774158 1.343770 0.000000 0.000000 0.000000
0.523441 0.786754 1.343005 0.000000 0.000000 0.000000
0.507254 0.767848 1.340809 0.000000 0.000000 0.000000
0.512304 0.775614 1.339624 0.000000 0.000000 0.000000
0.506100 0.767079 1.339085 0.000000 0.000000 0.000000
0.504725 0.768306 1.339294 0.000000 0.000000 0.000000
0.510504 0.772794 1.340535 0.000000 0.000000 0.000000
0.502188 0.765180 1.335970 0.000000 0.000000 0.000000
0.516729 0.767097 1.343663 0.000000 0.000000 0.000000
0.523331 0.780989 1.344154 0.000000 0.000000 0.000000
0.514223 0.767437 1.341777 0.000000 0.000000 0.000000
0.506093 0.764397 1.339177 0.000000 0.000000 0.000000
0.511950 0.773559 1.340486 0.000000 0.000000 0.000000
0.525515 0.780165 1.343374 0.000000 0.000000 0.000000
0.506132 0.763345 1.339265 0.000000 0.000000 0.000000
0.509575 0.766655 1.340103 0.000000 0.000000 0.000000
0.520544 0.760288 1.344367 0.000000 0.000000 0.000000
0.510812 0.771819 1.340083 0.000000 0.000000 0.000000
0.536618 0.799726 1.349571 0.000000 0.000000 0.000000
