ply
format ascii 1.0
comment VCGLIB generated
obj_info Generated by SPFormer!
element vertex 346
property float x
property float y
property float z
property float nx
property float ny
property float nz
end_header
-0.445707 2.707925 0.728002 0.000000 0.000000 0.000000
-0.438132 2.710600 0.721779 0.000000 0.000000 0.000000
-0.453962 2.683160 0.798008 0.000000 0.000000 0.000000
-0.440672 2.683768 0.778700 0.000000 0.000000 0.000000
-0.420903 2.661109 0.792529 0.000000 0.000000 0.000000
-0.423365 2.673560 0.760699 0.000000 0.000000 0.000000
-0.414463 2.662881 0.799075 0.000000 0.000000 0.000000
-0.444298 2.703773 0.732358 0.000000 0.000000 0.000000
-0.413661 2.700759 0.726195 0.000000 0.000000 0.000000
-0.437556 2.674279 0.815342 0.000000 0.000000 0.000000
-0.446138 2.681924 0.812381 0.000000 0.000000 0.000000
-0.438831 2.676848 0.789824 0.000000 0.000000 0.000000
-0.431449 2.673347 0.777181 0.000000 0.000000 0.000000
-0.435182 2.680725 0.793736 0.000000 0.000000 0.000000
-0.429922 2.690436 0.744845 0.000000 0.000000 0.000000
-0.416788 2.678355 0.747110 0.000000 0.000000 0.000000
-0.422469 2.666194 0.795795 0.000000 0.000000 0.000000
-0.419762 2.662914 0.800309 0.000000 0.000000 0.000000
-0.413720 2.663146 0.788306 0.000000 0.000000 0.000000
-0.417650 2.662744 0.799507 0.000000 0.000000 0.000000
-0.455663 2.689409 0.802905 0.000000 0.000000 0.000000
-0.415191 2.662963 0.797770 0.000000 0.000000 0.000000
-0.451716 2.682935 0.777963 0.000000 0.000000 0.000000
-0.429082 2.682672 0.752879 0.000000 0.000000 0.000000
-0.450012 2.681148 0.782064 0.000000 0.000000 0.000000
-0.432619 2.687100 0.749536 0.000000 0.000000 0.000000
-0.442493 2.677094 0.778412 0.000000 0.000000 0.000000
-0.459964 2.689059 0.786588 0.000000 0.000000 0.000000
-0.441407 2.686226 0.754840 0.000000 0.000000 0.000000
-0.425820 2.687612 0.745158 0.000000 0.000000 0.000000
-0.453345 2.683640 0.819722 0.000000 0.000000 0.000000
-0.435355 2.676134 0.801026 0.000000 0.000000 0.000000
-0.406019 2.668274 0.768846 0.000000 0.000000 0.000000
-0.449655 2.684353 0.769729 0.000000 0.000000 0.000000
-0.433540 2.708341 0.723311 0.000000 0.000000 0.000000
-0.453490 2.702232 0.743303 0.000000 0.000000 0.000000
-0.423764 2.665176 0.782961 0.000000 0.000000 0.000000
-0.441171 2.687398 0.820001 0.000000 0.000000 0.000000
-0.415708 2.668537 0.766963 0.000000 0.000000 0.000000
-0.428248 2.703294 0.724715 0.000000 0.000000 0.000000
-0.452842 2.694202 0.811478 0.000000 0.000000 0.000000
-0.442690 2.689831 0.762709 0.000000 0.000000 0.000000
-0.430261 2.716946 0.722628 0.000000 0.000000 0.000000
-0.420513 2.663623 0.797229 0.000000 0.000000 0.000000
-0.442961 2.687236 0.748631 0.000000 0.000000 0.000000
-0.406847 2.673818 0.751876 0.000000 0.000000 0.000000
-0.407261 2.691303 0.729022 0.000000 0.000000 0.000000
-0.432189 2.686469 0.762291 0.000000 0.000000 0.000000
-0.427570 2.695522 0.732864 0.000000 0.000000 0.000000
-0.397162 2.673889 0.743412 0.000000 0.000000 0.000000
-0.409101 2.678820 0.742889 0.000000 0.000000 0.000000
-0.425081 2.671330 0.798529 0.000000 0.000000 0.000000
-0.438116 2.696343 0.748171 0.000000 0.000000 0.000000
-0.464697 2.689507 0.772450 0.000000 0.000000 0.000000
-0.409599 2.663547 0.774550 0.000000 0.000000 0.000000
-0.444693 2.678680 0.815913 0.000000 0.000000 0.000000
-0.470233 2.692275 0.793879 0.000000 0.000000 0.000000
-0.435018 2.685184 0.752912 0.000000 0.000000 0.000000
-0.439403 2.688576 0.745496 0.000000 0.000000 0.000000
-0.448696 2.700388 0.741314 0.000000 0.000000 0.000000
-0.445468 2.690808 0.749703 0.000000 0.000000 0.000000
-0.452006 2.698546 0.742122 0.000000 0.000000 0.000000
-0.416597 2.683415 0.762848 0.000000 0.000000 0.000000
-0.469798 2.694938 0.771260 0.000000 0.000000 0.000000
-0.457076 2.696517 0.753332 0.000000 0.000000 0.000000
-0.433230 2.701796 0.733756 0.000000 0.000000 0.000000
-0.455005 2.694811 0.752270 0.000000 0.000000 0.000000
-0.448641 2.698131 0.747447 0.000000 0.000000 0.000000
-0.417177 2.712003 0.726882 0.000000 0.000000 0.000000
-0.431033 2.700137 0.729298 0.000000 0.000000 0.000000
-0.424606 2.699024 0.729054 0.000000 0.000000 0.000000
-0.453974 2.676156 0.801969 0.000000 0.000000 0.000000
-0.462732 2.697241 0.758508 0.000000 0.000000 0.000000
-0.407933 2.664516 0.793256 0.000000 0.000000 0.000000
-0.451820 2.679555 0.781085 0.000000 0.000000 0.000000
-0.462086 2.698398 0.800264 0.000000 0.000000 0.000000
-0.452347 2.684930 0.803368 0.000000 0.000000 0.000000
-0.456436 2.692839 0.805823 0.000000 0.000000 0.000000
-0.414565 2.662311 0.800084 0.000000 0.000000 0.000000
-0.454865 2.692796 0.767046 0.000000 0.000000 0.000000
-0.447494 2.692628 0.817983 0.000000 0.000000 0.000000
-0.414720 2.666040 0.793142 0.000000 0.000000 0.000000
-0.459573 2.692962 0.770154 0.000000 0.000000 0.000000
-0.415421 2.678484 0.747777 0.000000 0.000000 0.000000
-0.423171 2.672570 0.763724 0.000000 0.000000 0.000000
-0.443935 2.674872 0.807384 0.000000 0.000000 0.000000
-0.439602 2.684656 0.812438 0.000000 0.000000 0.000000
-0.466379 2.682762 0.789353 0.000000 0.000000 0.000000
-0.426043 2.666306 0.788156 0.000000 0.000000 0.000000
-0.417229 2.667302 0.791410 0.000000 0.000000 0.000000
-0.445748 2.695839 0.750597 0.000000 0.000000 0.000000
-0.408225 2.675444 0.762109 0.000000 0.000000 0.000000
-0.447074 2.677068 0.785997 0.000000 0.000000 0.000000
-0.461123 2.686058 0.780663 0.000000 0.000000 0.000000
-0.463935 2.686987 0.774578 0.000000 0.000000 0.000000
-0.405174 2.667283 0.756134 0.000000 0.000000 0.000000
-0.461310 2.681942 0.797110 0.000000 0.000000 0.000000
-0.477989 2.689982 0.785569 0.000000 0.000000 0.000000
-0.456595 2.690370 0.801318 0.000000 0.000000 0.000000
-0.423546 2.675496 0.786970 0.000000 0.000000 0.000000
-0.467797 2.690131 0.777838 0.000000 0.000000 0.000000
-0.431806 2.670526 0.810292 0.000000 0.000000 0.000000
-0.455708 2.690525 0.766671 0.000000 0.000000 0.000000
-0.454226 2.685341 0.779577 0.000000 0.000000 0.000000
-0.462115 2.692852 0.768584 0.000000 0.000000 0.000000
-0.445313 2.678587 0.770409 0.000000 0.000000 0.000000
-0.457746 2.693965 0.770656 0.000000 0.000000 0.000000
-0.423895 2.672581 0.765415 0.000000 0.000000 0.000000
-0.418825 2.701274 0.727161 0.000000 0.000000 0.000000
-0.417871 2.662471 0.798412 0.000000 0.000000 0.000000
-0.407965 2.666692 0.781405 0.000000 0.000000 0.000000
-0.412874 2.672715 0.759888 0.000000 0.000000 0.000000
-0.430768 2.672795 0.816060 0.000000 0.000000 0.000000
-0.420616 2.670936 0.813784 0.000000 0.000000 0.000000
-0.410145 2.665458 0.786114 0.000000 0.000000 0.000000
-0.426375 2.668567 0.784871 0.000000 0.000000 0.000000
-0.415602 2.663575 0.800155 0.000000 0.000000 0.000000
-0.414283 2.662069 0.802417 0.000000 0.000000 0.000000
-0.417553 2.665457 0.782832 0.000000 0.000000 0.000000
-0.463630 2.691328 0.772361 0.000000 0.000000 0.000000
-0.435800 2.665704 0.775664 0.000000 0.000000 0.000000
-0.443557 2.695443 0.743206 0.000000 0.000000 0.000000
-0.401141 2.672578 0.757329 0.000000 0.000000 0.000000
-0.452784 2.686077 0.791674 0.000000 0.000000 0.000000
-0.457427 2.685923 0.786368 0.000000 0.000000 0.000000
-0.444683 2.686017 0.795884 0.000000 0.000000 0.000000
-0.456807 2.697500 0.810401 0.000000 0.000000 0.000000
-0.459865 2.699604 0.811399 0.000000 0.000000 0.000000
-0.448891 2.689445 0.809894 0.000000 0.000000 0.000000
-0.450659 2.697054 0.817054 0.000000 0.000000 0.000000
-0.397456 2.672740 0.754145 0.000000 0.000000 0.000000
-0.393682 2.670338 0.755849 0.000000 0.000000 0.000000
-0.410772 2.697930 0.735324 0.000000 0.000000 0.000000
-0.397543 2.670672 0.758616 0.000000 0.000000 0.000000
-0.451696 2.699206 0.818649 0.000000 0.000000 0.000000
-0.407913 2.697318 0.740538 0.000000 0.000000 0.000000
-0.404228 2.665482 0.776143 0.000000 0.000000 0.000000
-0.400086 2.684834 0.741270 0.000000 0.000000 0.000000
-0.436801 2.684596 0.813765 0.000000 0.000000 0.000000
-0.397434 2.673726 0.752147 0.000000 0.000000 0.000000
-0.407504 2.704875 0.720274 0.000000 0.000000 0.000000
-0.465935 2.691215 0.787074 0.000000 0.000000 0.000000
-0.398987 2.687904 0.744080 0.000000 0.000000 0.000000
-0.448414 2.684324 0.808254 0.000000 0.000000 0.000000
-0.412489 2.682329 0.739543 0.000000 0.000000 0.000000
-0.413823 2.664482 0.770490 0.000000 0.000000 0.000000
-0.404788 2.678748 0.759791 0.000000 0.000000 0.000000
-0.393392 2.671441 0.747960 0.000000 0.000000 0.000000
-0.436558 2.675879 0.821604 0.000000 0.000000 0.000000
-0.433631 2.680129 0.824715 0.000000 0.000000 0.000000
-0.472392 2.689172 0.777516 0.000000 0.000000 0.000000
-0.449292 2.681878 0.789789 0.000000 0.000000 0.000000
-0.474454 2.692239 0.784588 0.000000 0.000000 0.000000
-0.462630 2.687903 0.771497 0.000000 0.000000 0.000000
-0.439258 2.683929 0.818551 0.000000 0.000000 0.000000
-0.409626 2.663326 0.783200 0.000000 0.000000 0.000000
-0.441184 2.690474 0.825359 0.000000 0.000000 0.000000
-0.465413 2.689233 0.789506 0.000000 0.000000 0.000000
-0.458219 2.690451 0.766044 0.000000 0.000000 0.000000
-0.444621 2.686104 0.808286 0.000000 0.000000 0.000000
-0.410941 2.662989 0.795244 0.000000 0.000000 0.000000
-0.441506 2.692901 0.823044 0.000000 0.000000 0.000000
-0.432381 2.662173 0.788999 0.000000 0.000000 0.000000
-0.458241 2.691345 0.786748 0.000000 0.000000 0.000000
-0.441346 2.667719 0.783284 0.000000 0.000000 0.000000
-0.444633 2.667115 0.794321 0.000000 0.000000 0.000000
-0.457170 2.677004 0.789380 0.000000 0.000000 0.000000
-0.405035 2.664399 0.783338 0.000000 0.000000 0.000000
-0.431014 2.672186 0.786819 0.000000 0.000000 0.000000
-0.470889 2.686210 0.783733 0.000000 0.000000 0.000000
-0.472960 2.694145 0.796731 0.000000 0.000000 0.000000
-0.467697 2.703316 0.800463 0.000000 0.000000 0.000000
-0.454656 2.704418 0.736554 0.000000 0.000000 0.000000
-0.444575 2.690600 0.818599 0.000000 0.000000 0.000000
-0.466703 2.682303 0.773641 0.000000 0.000000 0.000000
-0.400679 2.662381 0.768997 0.000000 0.000000 0.000000
-0.471636 2.695482 0.774970 0.000000 0.000000 0.000000
-0.432706 2.681174 0.797939 0.000000 0.000000 0.000000
-0.403575 2.683468 0.736679 0.000000 0.000000 0.000000
-0.425219 2.683783 0.747651 0.000000 0.000000 0.000000
-0.414516 2.691162 0.734835 0.000000 0.000000 0.000000
-0.430627 2.686224 0.749765 0.000000 0.000000 0.000000
-0.418213 2.709903 0.720725 0.000000 0.000000 0.000000
-0.420902 2.713199 0.723965 0.000000 0.000000 0.000000
-0.408779 2.667017 0.779522 0.000000 0.000000 0.000000
-0.397341 2.699142 0.735074 0.000000 0.000000 0.000000
-0.394715 2.670327 0.760078 0.000000 0.000000 0.000000
-0.399854 2.675308 0.750197 0.000000 0.000000 0.000000
-0.412961 2.664399 0.785270 0.000000 0.000000 0.000000
-0.415572 2.669632 0.781280 0.000000 0.000000 0.000000
-0.408045 2.662528 0.793113 0.000000 0.000000 0.000000
-0.444467 2.685336 0.819306 0.000000 0.000000 0.000000
-0.441367 2.689749 0.828497 0.000000 0.000000 0.000000
-0.437089 2.688635 0.826871 0.000000 0.000000 0.000000
-0.456399 2.692938 0.765850 0.000000 0.000000 0.000000
-0.450088 2.707985 0.732495 0.000000 0.000000 0.000000
-0.468795 2.698029 0.764260 0.000000 0.000000 0.000000
-0.404122 2.662956 0.787095 0.000000 0.000000 0.000000
-0.459017 2.685867 0.801879 0.000000 0.000000 0.000000
-0.452133 2.667014 0.781782 0.000000 0.000000 0.000000
-0.448679 2.692041 0.808406 0.000000 0.000000 0.000000
-0.457462 2.687978 0.813378 0.000000 0.000000 0.000000
-0.456730 2.700336 0.809413 0.000000 0.000000 0.000000
-0.468605 2.693909 0.795681 0.000000 0.000000 0.000000
-0.402273 2.664595 0.777884 0.000000 0.000000 0.000000
-0.409963 2.662441 0.798846 0.000000 0.000000 0.000000
-0.407477 2.663462 0.785013 0.000000 0.000000 0.000000
-0.419786 2.666606 0.786399 0.000000 0.000000 0.000000
-0.426719 2.671470 0.787933 0.000000 0.000000 0.000000
-0.419758 2.667604 0.813769 0.000000 0.000000 0.000000
-0.419953 2.670148 0.805279 0.000000 0.000000 0.000000
-0.426913 2.669654 0.775059 0.000000 0.000000 0.000000
-0.418255 2.666920 0.801758 0.000000 0.000000 0.000000
-0.430477 2.665405 0.802383 0.000000 0.000000 0.000000
-0.417703 2.667039 0.787927 0.000000 0.000000 0.000000
-0.415133 2.663702 0.810183 0.000000 0.000000 0.000000
-0.420143 2.671181 0.799440 0.000000 0.000000 0.000000
-0.418376 2.662476 0.781961 0.000000 0.000000 0.000000
-0.414489 2.671219 0.776891 0.000000 0.000000 0.000000
-0.446517 2.675446 0.777872 0.000000 0.000000 0.000000
-0.445526 2.675855 0.784155 0.000000 0.000000 0.000000
-0.436130 2.674350 0.776386 0.000000 0.000000 0.000000
-0.443239 2.675184 0.803050 0.000000 0.000000 0.000000
-0.439913 2.673015 0.774979 0.000000 0.000000 0.000000
-0.396635 2.679542 0.742678 0.000000 0.000000 0.000000
-0.399179 2.684052 0.736963 0.000000 0.000000 0.000000
-0.467359 2.687022 0.793341 0.000000 0.000000 0.000000
-0.469964 2.690557 0.780340 0.000000 0.000000 0.000000
-0.442079 2.706033 0.733543 0.000000 0.000000 0.000000
-0.427899 2.700519 0.741056 0.000000 0.000000 0.000000
-0.422326 2.714903 0.720310 0.000000 0.000000 0.000000
-0.428416 2.708309 0.729208 0.000000 0.000000 0.000000
-0.408552 2.692562 0.743126 0.000000 0.000000 0.000000
-0.436883 2.711093 0.724748 0.000000 0.000000 0.000000
-0.405336 2.710237 0.723852 0.000000 0.000000 0.000000
-0.401806 2.665288 0.764760 0.000000 0.000000 0.000000
-0.394245 2.670173 0.752440 0.000000 0.000000 0.000000
-0.401053 2.662874 0.780561 0.000000 0.000000 0.000000
-0.405893 2.670784 0.760411 0.000000 0.000000 0.000000
-0.397669 2.668669 0.763170 0.000000 0.000000 0.000000
-0.395034 2.678925 0.745115 0.000000 0.000000 0.000000
-0.400157 2.679459 0.741502 0.000000 0.000000 0.000000
-0.397154 2.672138 0.759516 0.000000 0.000000 0.000000
-0.413792 2.662422 0.794056 0.000000 0.000000 0.000000
-0.401131 2.666857 0.771889 0.000000 0.000000 0.000000
-0.392418 2.685426 0.739148 0.000000 0.000000 0.000000
-0.395251 2.673146 0.747111 0.000000 0.000000 0.000000
-0.398457 2.670203 0.764528 0.000000 0.000000 0.000000
-0.401918 2.667545 0.774918 0.000000 0.000000 0.000000
-0.464178 2.691128 0.795678 0.000000 0.000000 0.000000
-0.469069 2.679127 0.786430 0.000000 0.000000 0.000000
-0.474582 2.688913 0.785441 0.000000 0.000000 0.000000
-0.455029 2.703238 0.815894 0.000000 0.000000 0.000000
-0.465859 2.694375 0.764159 0.000000 0.000000 0.000000
-0.464538 2.686203 0.799875 0.000000 0.000000 0.000000
-0.469338 2.697006 0.799282 0.000000 0.000000 0.000000
-0.471691 2.689634 0.789568 0.000000 0.000000 0.000000
-0.465514 2.693643 0.781930 0.000000 0.000000 0.000000
-0.464062 2.697308 0.807831 0.000000 0.000000 0.000000
-0.468082 2.698992 0.797262 0.000000 0.000000 0.000000
-0.456069 2.695246 0.820848 0.000000 0.000000 0.000000
-0.453065 2.698963 0.816990 0.000000 0.000000 0.000000
-0.457198 2.706194 0.741321 0.000000 0.000000 0.000000
-0.448503 2.705186 0.820297 0.000000 0.000000 0.000000
-0.455919 2.671457 0.772005 0.000000 0.000000 0.000000
-0.462842 2.696052 0.795368 0.000000 0.000000 0.000000
-0.464197 2.692686 0.797800 0.000000 0.000000 0.000000
-0.462172 2.695939 0.804002 0.000000 0.000000 0.000000
-0.459486 2.689757 0.803930 0.000000 0.000000 0.000000
-0.466530 2.692413 0.794992 0.000000 0.000000 0.000000
-0.464260 2.693680 0.799420 0.000000 0.000000 0.000000
-0.465858 2.698652 0.756317 0.000000 0.000000 0.000000
-0.463112 2.703288 0.749806 0.000000 0.000000 0.000000
-0.460247 2.701424 0.748124 0.000000 0.000000 0.000000
-0.466765 2.701244 0.760342 0.000000 0.000000 0.000000
-0.470525 2.697844 0.766660 0.000000 0.000000 0.000000
-0.458114 2.696979 0.759583 0.000000 0.000000 0.000000
-0.442846 2.690089 0.779515 0.000000 0.000000 0.000000
-0.470894 2.697701 0.773888 0.000000 0.000000 0.000000
-0.468059 2.696843 0.764853 0.000000 0.000000 0.000000
-0.466294 2.695665 0.768007 0.000000 0.000000 0.000000
-0.440781 2.692825 0.769378 0.000000 0.000000 0.000000
-0.470525 2.696186 0.770313 0.000000 0.000000 0.000000
-0.464069 2.696110 0.766102 0.000000 0.000000 0.000000
-0.403656 2.677574 0.745896 0.000000 0.000000 0.000000
-0.445105 2.683761 0.767253 0.000000 0.000000 0.000000
-0.448635 2.686740 0.756132 0.000000 0.000000 0.000000
-0.447431 2.681235 0.767010 0.000000 0.000000 0.000000
-0.455894 2.674083 0.776741 0.000000 0.000000 0.000000
-0.448775 2.678640 0.778271 0.000000 0.000000 0.000000
-0.401103 2.664371 0.781477 0.000000 0.000000 0.000000
-0.431694 2.675635 0.753916 0.000000 0.000000 0.000000
-0.442488 2.674147 0.777455 0.000000 0.000000 0.000000
-0.425853 2.679132 0.747002 0.000000 0.000000 0.000000
-0.425265 2.674719 0.758250 0.000000 0.000000 0.000000
-0.446420 2.679234 0.787862 0.000000 0.000000 0.000000
-0.454549 2.687647 0.763395 0.000000 0.000000 0.000000
-0.453834 2.681473 0.777945 0.000000 0.000000 0.000000
-0.441425 2.675348 0.764953 0.000000 0.000000 0.000000
-0.419403 2.667443 0.796351 0.000000 0.000000 0.000000
-0.438970 2.676230 0.754726 0.000000 0.000000 0.000000
-0.444348 2.677397 0.772994 0.000000 0.000000 0.000000
-0.403204 2.669883 0.769872 0.000000 0.000000 0.000000
-0.415987 2.717513 0.723822 0.000000 0.000000 0.000000
-0.406545 2.672755 0.762442 0.000000 0.000000 0.000000
-0.440040 2.686798 0.823848 0.000000 0.000000 0.000000
-0.450466 2.702971 0.820234 0.000000 0.000000 0.000000
-0.460830 2.697767 0.805787 0.000000 0.000000 0.000000
-0.463458 2.690919 0.794519 0.000000 0.000000 0.000000
-0.446367 2.695023 0.819821 0.000000 0.000000 0.000000
-0.446869 2.702113 0.823384 0.000000 0.000000 0.000000
-0.448630 2.700642 0.820980 0.000000 0.000000 0.000000
-0.457820 2.693685 0.812503 0.000000 0.000000 0.000000
-0.450397 2.697398 0.818224 0.000000 0.000000 0.000000
-0.401528 2.700539 0.722726 0.000000 0.000000 0.000000
-0.424974 2.677251 0.818737 0.000000 0.000000 0.000000
-0.396593 2.667284 0.765427 0.000000 0.000000 0.000000
-0.400813 2.668024 0.766966 0.000000 0.000000 0.000000
-0.421484 2.668859 0.805693 0.000000 0.000000 0.000000
-0.425504 2.677249 0.824850 0.000000 0.000000 0.000000
-0.427367 2.677109 0.815500 0.000000 0.000000 0.000000
-0.428702 2.677989 0.818522 0.000000 0.000000 0.000000
-0.419401 2.667394 0.810025 0.000000 0.000000 0.000000
-0.398496 2.668906 0.761893 0.000000 0.000000 0.000000
-0.424224 2.669159 0.814110 0.000000 0.000000 0.000000
-0.430262 2.679100 0.811795 0.000000 0.000000 0.000000
-0.432898 2.671433 0.819827 0.000000 0.000000 0.000000
-0.424665 2.672784 0.819994 0.000000 0.000000 0.000000
-0.402826 2.668033 0.766569 0.000000 0.000000 0.000000
-0.458180 2.693378 0.765576 0.000000 0.000000 0.000000
-0.454300 2.679761 0.777593 0.000000 0.000000 0.000000
-0.420081 2.693876 0.742692 0.000000 0.000000 0.000000
-0.414638 2.704211 0.736593 0.000000 0.000000 0.000000
-0.405357 2.697866 0.727694 0.000000 0.000000 0.000000
-0.395599 2.685697 0.733214 0.000000 0.000000 0.000000
-0.400274 2.700475 0.729029 0.000000 0.000000 0.000000
-0.437774 2.674313 0.779293 0.000000 0.000000 0.000000
-0.446299 2.677165 0.763871 0.000000 0.000000 0.000000
-0.396164 2.697461 0.723221 0.000000 0.000000 0.000000
-0.411160 2.687495 0.749583 0.000000 0.000000 0.000000
-0.402767 2.694579 0.735622 0.000000 0.000000 0.000000
-0.404411 2.696104 0.732184 0.000000 0.000000 0.000000
-0.395402 2.687556 0.734409 0.000000 0.000000 0.000000
-0.437760 2.688105 0.769042 0.000000 0.000000 0.000000
-0.452875 2.688289 0.762075 0.000000 0.000000 0.000000
-0.397784 2.694263 0.727198 0.000000 0.000000 0.000000
