ply
format ascii 1.0
comment VCGLIB generated
obj_info Generated by SPFormer!
element vertex 505
property float x
property float y
property float z
property float nx
property float ny
property float nz
end_header
0.827403 0.985582 2.445080 0.000000 0.000000 0.000000
0.857536 1.025163 2.391529 0.000000 0.000000 0.000000
0.855115 1.035811 2.388492 0.000000 0.000000 0.000000
1.710679 -0.481525 1.283606 0.000000 0.000000 0.000000
0.840372 1.047551 2.374217 0.000000 0.000000 0.000000
1.715200 -0.507009 1.283607 0.000000 0.000000 0.000000
0.917778 0.112800 1.436091 0.000000 0.000000 0.000000
0.878885 1.035447 2.382005 0.000000 0.000000 0.000000
1.718937 -0.496679 1.289857 0.000000 0.000000 0.000000
0.826449 0.987576 2.418687 0.000000 0.000000 0.000000
1.715572 -0.503935 1.284268 0.000000 0.000000 0.000000
1.717309 -0.499143 1.294968 0.000000 0.000000 0.000000
0.813471 0.074258 1.468816 0.000000 0.000000 0.000000
1.688579 -0.510286 1.285092 0.000000 0.000000 0.000000
0.850233 1.047348 2.373832 0.000000 0.000000 0.000000
1.713013 -0.506142 1.283905 0.000000 0.000000 0.000000
0.850820 1.045872 2.384225 0.000000 0.000000 0.000000
1.681257 -0.497468 1.301748 0.000000 0.000000 0.000000
1.710751 -0.511695 1.311569 0.000000 0.000000 0.000000
0.835224 0.974252 2.440511 0.000000 0.000000 0.000000
0.816211 0.081170 1.481208 0.000000 0.000000 0.000000
1.516758 0.175724 2.013351 0.000000 0.000000 0.000000
0.865170 1.040485 2.378151 0.000000 0.000000 0.000000
0.873375 1.037592 2.380702 0.000000 0.000000 0.000000
1.712331 -0.493847 1.282059 0.000000 0.000000 0.000000
0.822142 0.077015 1.465420 0.000000 0.000000 0.000000
1.717582 -0.506010 1.284440 0.000000 0.000000 0.000000
0.849555 1.008551 2.389954 0.000000 0.000000 0.000000
0.860665 0.106869 1.453941 0.000000 0.000000 0.000000
0.882782 0.119515 1.425567 0.000000 0.000000 0.000000
1.586742 -0.280822 1.526822 0.000000 0.000000 0.000000
0.876941 1.039903 2.378985 0.000000 0.000000 0.000000
0.863260 1.036100 2.376839 0.000000 0.000000 0.000000
0.855568 1.042880 2.374777 0.000000 0.000000 0.000000
0.821203 0.079924 1.478554 0.000000 0.000000 0.000000
0.821078 0.078005 1.466895 0.000000 0.000000 0.000000
1.444700 0.241259 1.977502 0.000000 0.000000 0.000000
0.824403 0.075643 1.472078 0.000000 0.000000 0.000000
0.827216 0.971395 2.421771 0.000000 0.000000 0.000000
0.824290 0.076900 1.469445 0.000000 0.000000 0.000000
0.825434 0.978192 2.422863 0.000000 0.000000 0.000000
0.851531 1.029771 2.394294 0.000000 0.000000 0.000000
0.852050 0.097059 1.457583 0.000000 0.000000 0.000000
0.846791 0.092456 1.459500 0.000000 0.000000 0.000000
0.826819 0.078624 1.471133 0.000000 0.000000 0.000000
1.714114 -0.507981 1.293400 0.000000 0.000000 0.000000
1.710254 -0.515741 1.293935 0.000000 0.000000 0.000000
0.918205 0.116904 1.439674 0.000000 0.000000 0.000000
1.709136 -0.484575 1.281104 0.000000 0.000000 0.000000
1.692314 -0.496995 1.314842 0.000000 0.000000 0.000000
0.835748 0.996771 2.439253 0.000000 0.000000 0.000000
1.719703 -0.507092 1.289541 0.000000 0.000000 0.000000
1.713007 -0.484116 1.281412 0.000000 0.000000 0.000000
2.237974 -0.223210 1.205263 0.000000 0.000000 0.000000
0.868361 0.111278 1.460298 0.000000 0.000000 0.000000
2.231356 -0.222856 1.203219 0.000000 0.000000 0.000000
0.823449 0.078903 1.473146 0.000000 0.000000 0.000000
0.824430 0.996778 2.423373 0.000000 0.000000 0.000000
0.878596 1.020528 2.380361 0.000000 0.000000 0.000000
0.867153 1.012773 2.394714 0.000000 0.000000 0.000000
1.711620 -0.503176 1.282221 0.000000 0.000000 0.000000
1.711870 -0.518257 1.298384 0.000000 0.000000 0.000000
1.713194 -0.502180 1.298051 0.000000 0.000000 0.000000
0.879980 1.012755 2.385708 0.000000 0.000000 0.000000
0.867790 1.028385 2.394264 0.000000 0.000000 0.000000
0.901911 0.114780 1.431814 0.000000 0.000000 0.000000
0.816583 0.069146 1.466865 0.000000 0.000000 0.000000
1.714033 -0.503798 1.301054 0.000000 0.000000 0.000000
0.851038 1.046679 2.371688 0.000000 0.000000 0.000000
0.847722 1.040424 2.372829 0.000000 0.000000 0.000000
0.854954 0.103129 1.455393 0.000000 0.000000 0.000000
0.874962 0.109620 1.445122 0.000000 0.000000 0.000000
0.847572 0.092302 1.459494 0.000000 0.000000 0.000000
1.710026 -0.512127 1.304627 0.000000 0.000000 0.000000
1.687114 -0.510240 1.293121 0.000000 0.000000 0.000000
0.849110 0.091683 1.462207 0.000000 0.000000 0.000000
0.840678 1.047000 2.383771 0.000000 0.000000 0.000000
0.854516 1.016496 2.392407 0.000000 0.000000 0.000000
0.843944 1.040384 2.388180 0.000000 0.000000 0.000000
1.709202 -0.511071 1.303362 0.000000 0.000000 0.000000
1.717742 -0.484007 1.283801 0.000000 0.000000 0.000000
1.711892 -0.504911 1.298667 0.000000 0.000000 0.000000
1.712567 -0.509935 1.283518 0.000000 0.000000 0.000000
1.714554 -0.501295 1.281461 0.000000 0.000000 0.000000
1.719092 -0.496208 1.282526 0.000000 0.000000 0.000000
1.709784 -0.512021 1.295127 0.000000 0.000000 0.000000
0.818702 0.079276 1.470025 0.000000 0.000000 0.000000
1.717950 -0.503063 1.286941 0.000000 0.000000 0.000000
1.719465 -0.506635 1.286739 0.000000 0.000000 0.000000
0.841485 0.088211 1.461498 0.000000 0.000000 0.000000
0.873868 1.027471 2.399271 0.000000 0.000000 0.000000
0.824071 0.078679 1.471235 0.000000 0.000000 0.000000
0.857984 0.095200 1.462755 0.000000 0.000000 0.000000
0.876978 0.107262 1.457350 0.000000 0.000000 0.000000
1.716438 -0.506400 1.288175 0.000000 0.000000 0.000000
1.718975 -0.512669 1.292690 0.000000 0.000000 0.000000
0.849126 1.048058 2.377883 0.000000 0.000000 0.000000
1.712555 -0.508932 1.290319 0.000000 0.000000 0.000000
1.716030 -0.500851 1.286347 0.000000 0.000000 0.000000
0.830301 0.968335 2.437757 0.000000 0.000000 0.000000
0.830860 0.077458 1.467955 0.000000 0.000000 0.000000
0.856352 0.103712 1.453376 0.000000 0.000000 0.000000
1.713231 -0.516444 1.299160 0.000000 0.000000 0.000000
0.869329 0.103704 1.454719 0.000000 0.000000 0.000000
0.919232 0.108548 1.437389 0.000000 0.000000 0.000000
0.845387 1.044695 2.376621 0.000000 0.000000 0.000000
0.842970 0.110737 1.466434 0.000000 0.000000 0.000000
0.845677 1.046919 2.381424 0.000000 0.000000 0.000000
1.514668 0.196077 2.012487 0.000000 0.000000 0.000000
0.846491 0.091884 1.470829 0.000000 0.000000 0.000000
0.852829 1.041344 2.382495 0.000000 0.000000 0.000000
1.712512 -0.506723 1.282376 0.000000 0.000000 0.000000
0.825818 0.994206 2.431845 0.000000 0.000000 0.000000
1.702356 -0.517774 1.309399 0.000000 0.000000 0.000000
0.917319 0.116843 1.433468 0.000000 0.000000 0.000000
0.819095 0.079068 1.468234 0.000000 0.000000 0.000000
1.710448 -0.510334 1.301868 0.000000 0.000000 0.000000
1.715761 -0.505467 1.288348 0.000000 0.000000 0.000000
1.713138 -0.516879 1.296284 0.000000 0.000000 0.000000
1.709674 -0.514885 1.311711 0.000000 0.000000 0.000000
1.710870 -0.514893 1.296764 0.000000 0.000000 0.000000
1.713080 -0.516402 1.306431 0.000000 0.000000 0.000000
0.813572 0.071739 1.473779 0.000000 0.000000 0.000000
1.562224 0.941635 2.277379 0.000000 0.000000 0.000000
1.711123 -0.517363 1.308337 0.000000 0.000000 0.000000
0.815812 0.070834 1.477381 0.000000 0.000000 0.000000
1.712797 -0.518066 1.309474 0.000000 0.000000 0.000000
0.849142 1.023782 2.392606 0.000000 0.000000 0.000000
0.832834 0.992312 2.428128 0.000000 0.000000 0.000000
0.827068 0.975540 2.427193 0.000000 0.000000 0.000000
0.825312 0.997406 2.425117 0.000000 0.000000 0.000000
0.875378 0.106143 1.452852 0.000000 0.000000 0.000000
0.835038 0.985026 2.433813 0.000000 0.000000 0.000000
0.836068 0.978710 2.456194 0.000000 0.000000 0.000000
1.519473 0.193166 2.014250 0.000000 0.000000 0.000000
1.707117 -0.514523 1.317033 0.000000 0.000000 0.000000
1.711726 -0.510342 1.304293 0.000000 0.000000 0.000000
0.848650 1.011635 2.382084 0.000000 0.000000 0.000000
1.708901 -0.519235 1.310519 0.000000 0.000000 0.000000
0.830727 0.972216 2.425409 0.000000 0.000000 0.000000
1.519487 0.195126 2.012796 0.000000 0.000000 0.000000
0.829634 0.975388 2.427996 0.000000 0.000000 0.000000
1.507904 0.199976 2.010737 0.000000 0.000000 0.000000
1.516401 0.187366 2.012800 0.000000 0.000000 0.000000
0.826537 0.985881 2.426061 0.000000 0.000000 0.000000
1.510420 0.199914 2.007768 0.000000 0.000000 0.000000
0.860330 0.098836 1.456038 0.000000 0.000000 0.000000
0.879084 0.106549 1.452139 0.000000 0.000000 0.000000
0.830279 0.964633 2.426026 0.000000 0.000000 0.000000
0.860396 1.032604 2.397136 0.000000 0.000000 0.000000
0.856084 1.025770 2.397166 0.000000 0.000000 0.000000
1.718904 -0.508113 1.293071 0.000000 0.000000 0.000000
0.878900 0.114340 1.449484 0.000000 0.000000 0.000000
0.878006 0.112713 1.451215 0.000000 0.000000 0.000000
0.848575 0.096987 1.459788 0.000000 0.000000 0.000000
0.869729 1.006977 2.398489 0.000000 0.000000 0.000000
0.672297 1.000142 1.959530 0.000000 0.000000 0.000000
0.859102 1.017640 2.382512 0.000000 0.000000 0.000000
1.715950 -0.503275 1.292950 0.000000 0.000000 0.000000
0.854701 1.006908 2.392207 0.000000 0.000000 0.000000
0.858303 1.009333 2.393790 0.000000 0.000000 0.000000
0.860098 1.003371 2.396996 0.000000 0.000000 0.000000
1.717723 -0.500177 1.286965 0.000000 0.000000 0.000000
0.866424 1.012526 2.383432 0.000000 0.000000 0.000000
2.235002 -0.231698 1.203120 0.000000 0.000000 0.000000
1.703479 -0.510066 1.280669 0.000000 0.000000 0.000000
0.862309 0.112363 1.464916 0.000000 0.000000 0.000000
1.712968 -0.506247 1.286331 0.000000 0.000000 0.000000
0.841690 0.092732 1.453627 0.000000 0.000000 0.000000
1.710911 -0.508302 1.286739 0.000000 0.000000 0.000000
0.827371 0.996984 2.415532 0.000000 0.000000 0.000000
1.712585 -0.515929 1.295531 0.000000 0.000000 0.000000
1.710411 -0.516655 1.309730 0.000000 0.000000 0.000000
0.828997 0.995971 2.422305 0.000000 0.000000 0.000000
0.843916 1.006248 2.390685 0.000000 0.000000 0.000000
0.832028 0.987724 2.449360 0.000000 0.000000 0.000000
0.876222 0.101473 1.460166 0.000000 0.000000 0.000000
0.843193 1.031893 2.389606 0.000000 0.000000 0.000000
0.859173 0.115293 1.447646 0.000000 0.000000 0.000000
1.714145 -0.519653 1.304759 0.000000 0.000000 0.000000
0.840976 0.975905 2.451664 0.000000 0.000000 0.000000
0.844642 1.023830 2.390707 0.000000 0.000000 0.000000
0.870435 0.108545 1.452495 0.000000 0.000000 0.000000
1.717643 -0.517341 1.299193 0.000000 0.000000 0.000000
1.715377 -0.491064 1.284322 0.000000 0.000000 0.000000
0.815717 0.073663 1.478807 0.000000 0.000000 0.000000
0.847175 1.045655 2.369728 0.000000 0.000000 0.000000
1.707478 -0.519627 1.281181 0.000000 0.000000 0.000000
1.717457 -0.507240 1.288120 0.000000 0.000000 0.000000
1.715661 -0.515800 1.294311 0.000000 0.000000 0.000000
1.711549 -0.518108 1.302634 0.000000 0.000000 0.000000
1.715155 -0.499373 1.291430 0.000000 0.000000 0.000000
1.711359 -0.512226 1.289051 0.000000 0.000000 0.000000
0.818149 0.069741 1.477223 0.000000 0.000000 0.000000
1.699680 -0.498071 1.291574 0.000000 0.000000 0.000000
1.710426 -0.513239 1.304113 0.000000 0.000000 0.000000
0.853537 0.103637 1.461267 0.000000 0.000000 0.000000
0.819375 0.071495 1.470467 0.000000 0.000000 0.000000
1.710494 -0.519741 1.315685 0.000000 0.000000 0.000000
0.825649 0.075100 1.466914 0.000000 0.000000 0.000000
1.709732 -0.500442 1.296769 0.000000 0.000000 0.000000
1.709356 -0.489395 1.281154 0.000000 0.000000 0.000000
0.848178 0.095929 1.460245 0.000000 0.000000 0.000000
0.850227 0.093025 1.459408 0.000000 0.000000 0.000000
0.840919 0.085373 1.467507 0.000000 0.000000 0.000000
0.855315 0.105567 1.464964 0.000000 0.000000 0.000000
0.849328 0.090294 1.460931 0.000000 0.000000 0.000000
0.841712 0.088983 1.460899 0.000000 0.000000 0.000000
2.230864 -0.218415 1.205079 0.000000 0.000000 0.000000
1.719269 -0.497565 1.288066 0.000000 0.000000 0.000000
0.879661 0.110617 1.446231 0.000000 0.000000 0.000000
0.877633 1.021507 2.377112 0.000000 0.000000 0.000000
0.831494 0.985609 2.420122 0.000000 0.000000 0.000000
0.828633 0.971466 2.422561 0.000000 0.000000 0.000000
0.844420 1.024152 2.381331 0.000000 0.000000 0.000000
0.846941 0.098363 1.457309 0.000000 0.000000 0.000000
0.850559 1.037629 2.390275 0.000000 0.000000 0.000000
0.871738 1.026323 2.376986 0.000000 0.000000 0.000000
0.827479 0.980184 2.422159 0.000000 0.000000 0.000000
0.826803 0.996002 2.418545 0.000000 0.000000 0.000000
0.875685 0.111348 1.449867 0.000000 0.000000 0.000000
0.825787 0.989502 2.420081 0.000000 0.000000 0.000000
0.871931 1.043385 2.395031 0.000000 0.000000 0.000000
0.848449 1.013591 2.391567 0.000000 0.000000 0.000000
0.852424 1.019344 2.396370 0.000000 0.000000 0.000000
2.233670 -0.229125 1.200360 0.000000 0.000000 0.000000
0.811182 0.077397 1.468242 0.000000 0.000000 0.000000
0.854378 0.105387 1.451241 0.000000 0.000000 0.000000
0.816482 0.075648 1.469876 0.000000 0.000000 0.000000
0.816005 0.076563 1.468964 0.000000 0.000000 0.000000
0.818612 0.076344 1.469490 0.000000 0.000000 0.000000
1.511907 0.197854 2.005093 0.000000 0.000000 0.000000
0.818785 0.076890 1.470686 0.000000 0.000000 0.000000
0.862202 0.101781 1.454698 0.000000 0.000000 0.000000
0.849414 0.092322 1.461241 0.000000 0.000000 0.000000
1.716898 -0.506645 1.296931 0.000000 0.000000 0.000000
1.711695 -0.518273 1.311769 0.000000 0.000000 0.000000
0.814359 0.078317 1.469405 0.000000 0.000000 0.000000
0.868798 0.104072 1.450757 0.000000 0.000000 0.000000
0.850651 0.092050 1.461682 0.000000 0.000000 0.000000
1.710624 -0.511290 1.296484 0.000000 0.000000 0.000000
0.856794 0.096562 1.456251 0.000000 0.000000 0.000000
0.863365 0.101080 1.452560 0.000000 0.000000 0.000000
0.869402 0.114035 1.464052 0.000000 0.000000 0.000000
0.859601 0.097138 1.456655 0.000000 0.000000 0.000000
0.858030 0.099228 1.457203 0.000000 0.000000 0.000000
0.863871 0.107347 1.458157 0.000000 0.000000 0.000000
0.857895 0.098784 1.454289 0.000000 0.000000 0.000000
0.854215 0.096243 1.457077 0.000000 0.000000 0.000000
0.861026 0.099771 1.455295 0.000000 0.000000 0.000000
0.871865 0.119994 1.464893 0.000000 0.000000 0.000000
0.872968 0.108356 1.448737 0.000000 0.000000 0.000000
0.841583 0.093076 1.457133 0.000000 0.000000 0.000000
0.868006 0.105767 1.450894 0.000000 0.000000 0.000000
0.868787 0.114302 1.470581 0.000000 0.000000 0.000000
0.881705 0.118338 1.425281 0.000000 0.000000 0.000000
0.840452 0.089257 1.459965 0.000000 0.000000 0.000000
0.878050 0.108335 1.454996 0.000000 0.000000 0.000000
0.878010 0.110445 1.446229 0.000000 0.000000 0.000000
0.844595 0.090267 1.460361 0.000000 0.000000 0.000000
2.234571 -0.224989 1.201463 0.000000 0.000000 0.000000
0.858523 1.033130 2.390718 0.000000 0.000000 0.000000
0.868831 1.029088 2.387978 0.000000 0.000000 0.000000
0.853695 1.039848 2.391520 0.000000 0.000000 0.000000
0.850388 1.045187 2.379648 0.000000 0.000000 0.000000
1.712436 -0.508083 1.288587 0.000000 0.000000 0.000000
1.709898 -0.507212 1.282375 0.000000 0.000000 0.000000
0.846116 0.092981 1.464272 0.000000 0.000000 0.000000
1.719384 -0.505829 1.295199 0.000000 0.000000 0.000000
0.857716 1.053671 2.375324 0.000000 0.000000 0.000000
0.851483 0.089089 1.463116 0.000000 0.000000 0.000000
0.841390 0.085826 1.462933 0.000000 0.000000 0.000000
1.716254 -0.510123 1.289558 0.000000 0.000000 0.000000
0.836240 0.975349 2.461310 0.000000 0.000000 0.000000
0.838179 0.981420 2.458070 0.000000 0.000000 0.000000
0.881446 0.119156 1.424627 0.000000 0.000000 0.000000
0.840166 0.979706 2.462181 0.000000 0.000000 0.000000
0.834746 0.985847 2.460173 0.000000 0.000000 0.000000
1.717909 -0.502730 1.283604 0.000000 0.000000 0.000000
0.874738 0.106016 1.456264 0.000000 0.000000 0.000000
0.847930 0.107280 1.451865 0.000000 0.000000 0.000000
1.715211 -0.518299 1.303904 0.000000 0.000000 0.000000
1.714429 -0.512005 1.291884 0.000000 0.000000 0.000000
1.716388 -0.510235 1.299462 0.000000 0.000000 0.000000
0.850854 1.045473 2.389643 0.000000 0.000000 0.000000
0.861088 1.046014 2.377742 0.000000 0.000000 0.000000
0.851043 0.092852 1.459489 0.000000 0.000000 0.000000
0.850896 0.093575 1.458407 0.000000 0.000000 0.000000
0.852424 0.095982 1.457767 0.000000 0.000000 0.000000
0.859218 0.100842 1.456855 0.000000 0.000000 0.000000
0.857303 0.101180 1.452399 0.000000 0.000000 0.000000
0.856717 0.095658 1.457614 0.000000 0.000000 0.000000
0.862175 0.101136 1.458275 0.000000 0.000000 0.000000
0.854325 0.097001 1.455757 0.000000 0.000000 0.000000
0.852371 0.092353 1.460827 0.000000 0.000000 0.000000
0.245589 1.682536 2.446254 0.000000 0.000000 0.000000
0.835462 0.983904 2.451978 0.000000 0.000000 0.000000
0.840539 0.978738 2.462345 0.000000 0.000000 0.000000
0.842863 1.006244 2.389613 0.000000 0.000000 0.000000
0.839460 0.972691 2.477075 0.000000 0.000000 0.000000
1.518077 0.191902 2.015711 0.000000 0.000000 0.000000
0.847859 0.093552 1.457090 0.000000 0.000000 0.000000
0.842707 0.085036 1.466836 0.000000 0.000000 0.000000
2.237590 -0.225371 1.206877 0.000000 0.000000 0.000000
0.857992 1.046596 2.387456 0.000000 0.000000 0.000000
0.871613 0.109414 1.452638 0.000000 0.000000 0.000000
1.584745 -0.285049 1.532485 0.000000 0.000000 0.000000
0.909306 0.110383 1.428735 0.000000 0.000000 0.000000
1.508172 0.193737 2.005241 0.000000 0.000000 0.000000
0.843466 1.047863 2.377959 0.000000 0.000000 0.000000
0.915915 0.114705 1.428512 0.000000 0.000000 0.000000
0.841113 0.956415 2.435454 0.000000 0.000000 0.000000
2.238090 -0.227352 1.201171 0.000000 0.000000 0.000000
0.840582 0.094670 1.458980 0.000000 0.000000 0.000000
0.844618 0.094991 1.457850 0.000000 0.000000 0.000000
0.842666 0.092470 1.459548 0.000000 0.000000 0.000000
0.842433 1.042108 2.381972 0.000000 0.000000 0.000000
0.817622 0.067963 1.475263 0.000000 0.000000 0.000000
0.819425 0.070539 1.473048 0.000000 0.000000 0.000000
1.715013 -0.506505 1.318664 0.000000 0.000000 0.000000
0.878985 0.107497 1.458673 0.000000 0.000000 0.000000
0.868289 0.107009 1.451361 0.000000 0.000000 0.000000
0.842641 1.048102 2.374784 0.000000 0.000000 0.000000
0.878032 0.110560 1.449648 0.000000 0.000000 0.000000
0.874356 0.108164 1.448039 0.000000 0.000000 0.000000
0.871270 0.105335 1.452176 0.000000 0.000000 0.000000
0.869001 0.104288 1.452901 0.000000 0.000000 0.000000
0.872674 0.107301 1.452565 0.000000 0.000000 0.000000
0.868272 0.103575 1.456255 0.000000 0.000000 0.000000
0.875607 0.108680 1.451796 0.000000 0.000000 0.000000
0.875949 0.108859 1.449097 0.000000 0.000000 0.000000
0.872118 0.105775 1.455847 0.000000 0.000000 0.000000
0.871367 0.104632 1.453967 0.000000 0.000000 0.000000
0.862007 0.098116 1.455096 0.000000 0.000000 0.000000
0.869217 0.102730 1.455079 0.000000 0.000000 0.000000
1.712921 -0.519151 1.298400 0.000000 0.000000 0.000000
1.719318 -0.515154 1.295645 0.000000 0.000000 0.000000
1.717554 -0.514348 1.295190 0.000000 0.000000 0.000000
1.717357 -0.503732 1.302551 0.000000 0.000000 0.000000
1.911751 -0.447898 1.506414 0.000000 0.000000 0.000000
1.685326 -0.515707 1.284614 0.000000 0.000000 0.000000
1.681582 -0.515414 1.284382 0.000000 0.000000 0.000000
1.680839 -0.518613 1.281378 0.000000 0.000000 0.000000
1.683173 -0.519218 1.287040 0.000000 0.000000 0.000000
1.688480 -0.517100 1.282219 0.000000 0.000000 0.000000
1.685150 -0.519838 1.285948 0.000000 0.000000 0.000000
1.684788 -0.518933 1.290676 0.000000 0.000000 0.000000
1.681395 -0.516850 1.286048 0.000000 0.000000 0.000000
2.644401 -0.174864 1.513209 0.000000 0.000000 0.000000
2.682100 -0.142850 1.393564 0.000000 0.000000 0.000000
2.194094 -0.227137 1.257757 0.000000 0.000000 0.000000
1.562739 -0.319516 1.526531 0.000000 0.000000 0.000000
1.566811 -0.315144 1.524521 0.000000 0.000000 0.000000
1.563820 -0.311384 1.524752 0.000000 0.000000 0.000000
1.561973 -0.316841 1.522151 0.000000 0.000000 0.000000
1.569552 -0.306850 1.533110 0.000000 0.000000 0.000000
1.571090 -0.296981 1.534800 0.000000 0.000000 0.000000
1.776956 -0.423174 1.802522 0.000000 0.000000 0.000000
1.594903 -0.284352 1.525831 0.000000 0.000000 0.000000
1.591866 -0.297399 1.531837 0.000000 0.000000 0.000000
1.589145 -0.289228 1.535681 0.000000 0.000000 0.000000
1.590839 -0.298168 1.535608 0.000000 0.000000 0.000000
1.592065 -0.308650 1.532403 0.000000 0.000000 0.000000
1.595526 -0.319286 1.555738 0.000000 0.000000 0.000000
1.599689 -0.302766 1.530079 0.000000 0.000000 0.000000
1.596171 -0.297130 1.532314 0.000000 0.000000 0.000000
1.592714 -0.302531 1.539408 0.000000 0.000000 0.000000
1.591221 -0.284968 1.525200 0.000000 0.000000 0.000000
1.593837 -0.285698 1.523236 0.000000 0.000000 0.000000
1.596109 -0.292555 1.523056 0.000000 0.000000 0.000000
1.589374 -0.292567 1.526706 0.000000 0.000000 0.000000
1.594943 -0.306574 1.537642 0.000000 0.000000 0.000000
1.591345 -0.295228 1.528638 0.000000 0.000000 0.000000
1.598910 -0.280073 1.528671 0.000000 0.000000 0.000000
1.595167 -0.314832 1.551164 0.000000 0.000000 0.000000
1.596405 -0.317514 1.540775 0.000000 0.000000 0.000000
1.595534 -0.308025 1.544411 0.000000 0.000000 0.000000
1.592401 -0.312370 1.545647 0.000000 0.000000 0.000000
0.808842 0.066984 1.472730 0.000000 0.000000 0.000000
0.810375 0.061953 1.476394 0.000000 0.000000 0.000000
0.808184 0.063762 1.471420 0.000000 0.000000 0.000000
0.805797 0.064371 1.471619 0.000000 0.000000 0.000000
0.805331 0.065040 1.476628 0.000000 0.000000 0.000000
0.810969 0.063559 1.476983 0.000000 0.000000 0.000000
0.800659 0.067863 1.476820 0.000000 0.000000 0.000000
0.808604 0.070219 1.473071 0.000000 0.000000 0.000000
0.809894 0.074363 1.469937 0.000000 0.000000 0.000000
0.810962 0.067492 1.477484 0.000000 0.000000 0.000000
0.800758 0.064810 1.471378 0.000000 0.000000 0.000000
0.811246 0.068392 1.468906 0.000000 0.000000 0.000000
0.812240 0.068259 1.474413 0.000000 0.000000 0.000000
0.800033 0.063308 1.467469 0.000000 0.000000 0.000000
0.800243 0.060522 1.464028 0.000000 0.000000 0.000000
0.803941 0.070486 1.469763 0.000000 0.000000 0.000000
0.812576 0.072016 1.467027 0.000000 0.000000 0.000000
0.810931 0.071466 1.470452 0.000000 0.000000 0.000000
0.814508 0.067541 1.473640 0.000000 0.000000 0.000000
0.808286 0.071277 1.472330 0.000000 0.000000 0.000000
0.807067 0.073785 1.470698 0.000000 0.000000 0.000000
0.815671 0.056509 1.479541 0.000000 0.000000 0.000000
0.812102 0.062069 1.473638 0.000000 0.000000 0.000000
0.813803 0.056027 1.474677 0.000000 0.000000 0.000000
0.813803 0.054696 1.477684 0.000000 0.000000 0.000000
0.813659 0.056710 1.479518 0.000000 0.000000 0.000000
0.817262 0.047580 1.479501 0.000000 0.000000 0.000000
0.876056 0.094423 1.473047 0.000000 0.000000 0.000000
0.878483 0.083085 1.464096 0.000000 0.000000 0.000000
0.874613 0.080072 1.468526 0.000000 0.000000 0.000000
0.858038 0.081781 1.478542 0.000000 0.000000 0.000000
0.873053 0.088711 1.476872 0.000000 0.000000 0.000000
0.874949 0.080638 1.469615 0.000000 0.000000 0.000000
0.874204 0.080815 1.469080 0.000000 0.000000 0.000000
0.840157 0.104484 1.441007 0.000000 0.000000 0.000000
0.841694 0.117423 1.441747 0.000000 0.000000 0.000000
0.843853 0.119242 1.440425 0.000000 0.000000 0.000000
0.854654 0.117578 1.441322 0.000000 0.000000 0.000000
0.841423 0.104918 1.445037 0.000000 0.000000 0.000000
0.846839 0.119897 1.449872 0.000000 0.000000 0.000000
0.854131 0.110371 1.440892 0.000000 0.000000 0.000000
0.841510 0.107301 1.455111 0.000000 0.000000 0.000000
1.492277 0.167121 2.145875 0.000000 0.000000 0.000000
1.507347 0.179840 2.128323 0.000000 0.000000 0.000000
1.491408 0.172802 2.145752 0.000000 0.000000 0.000000
1.497820 0.171115 2.149968 0.000000 0.000000 0.000000
1.501211 0.166832 2.129043 0.000000 0.000000 0.000000
1.495942 0.162905 2.142831 0.000000 0.000000 0.000000
1.485566 0.167247 2.136854 0.000000 0.000000 0.000000
1.510183 0.161675 2.146846 0.000000 0.000000 0.000000
1.490040 0.170378 2.134951 0.000000 0.000000 0.000000
1.503121 0.162105 2.138069 0.000000 0.000000 0.000000
1.508486 0.165588 2.125797 0.000000 0.000000 0.000000
1.491812 0.169010 2.139952 0.000000 0.000000 0.000000
1.496176 0.167893 2.124572 0.000000 0.000000 0.000000
1.489374 0.167422 2.121295 0.000000 0.000000 0.000000
1.490862 0.170301 2.148552 0.000000 0.000000 0.000000
1.502333 0.162353 2.145945 0.000000 0.000000 0.000000
1.514450 0.175457 2.039978 0.000000 0.000000 0.000000
1.487980 0.162484 2.142826 0.000000 0.000000 0.000000
1.519891 0.177901 2.039357 0.000000 0.000000 0.000000
1.515036 0.164666 2.137421 0.000000 0.000000 0.000000
1.489795 0.174189 2.156064 0.000000 0.000000 0.000000
1.475585 0.153695 2.157702 0.000000 0.000000 0.000000
1.481552 0.176097 2.154491 0.000000 0.000000 0.000000
1.480831 0.170294 2.134035 0.000000 0.000000 0.000000
1.484862 0.174213 2.156013 0.000000 0.000000 0.000000
1.481460 0.174227 2.140566 0.000000 0.000000 0.000000
1.561779 0.921571 2.261218 0.000000 0.000000 0.000000
1.587335 0.920903 2.256291 0.000000 0.000000 0.000000
1.583212 0.926047 2.258307 0.000000 0.000000 0.000000
1.574971 0.920070 2.258606 0.000000 0.000000 0.000000
1.571321 0.957803 2.275978 0.000000 0.000000 0.000000
1.565936 0.959184 2.241227 0.000000 0.000000 0.000000
1.576732 0.956227 2.276032 0.000000 0.000000 0.000000
1.561609 0.957076 2.247267 0.000000 0.000000 0.000000
1.574408 0.952060 2.264939 0.000000 0.000000 0.000000
1.576052 0.956111 2.270173 0.000000 0.000000 0.000000
1.574620 0.958491 2.271739 0.000000 0.000000 0.000000
1.562394 0.957247 2.248336 0.000000 0.000000 0.000000
1.579509 0.956680 2.266182 0.000000 0.000000 0.000000
1.573811 0.956929 2.263203 0.000000 0.000000 0.000000
1.572679 0.954118 2.263239 0.000000 0.000000 0.000000
1.567609 0.954728 2.255035 0.000000 0.000000 0.000000
1.563603 0.952596 2.250180 0.000000 0.000000 0.000000
1.574134 0.953196 2.272240 0.000000 0.000000 0.000000
1.577915 0.942223 2.278914 0.000000 0.000000 0.000000
1.560181 0.953090 2.263139 0.000000 0.000000 0.000000
1.563415 0.959077 2.256994 0.000000 0.000000 0.000000
1.565795 0.954357 2.271064 0.000000 0.000000 0.000000
1.569962 0.950929 2.279241 0.000000 0.000000 0.000000
1.574099 0.954937 2.263954 0.000000 0.000000 0.000000
1.570866 0.951498 2.262732 0.000000 0.000000 0.000000
1.572184 0.952172 2.278264 0.000000 0.000000 0.000000
1.571864 0.949489 2.270662 0.000000 0.000000 0.000000
1.571083 0.950280 2.275785 0.000000 0.000000 0.000000
1.564651 0.952733 2.265281 0.000000 0.000000 0.000000
1.565822 0.957735 2.263786 0.000000 0.000000 0.000000
0.846226 0.950643 2.439240 0.000000 0.000000 0.000000
0.864666 0.943879 2.438986 0.000000 0.000000 0.000000
0.859551 0.949131 2.438513 0.000000 0.000000 0.000000
0.853106 0.952015 2.437827 0.000000 0.000000 0.000000
0.817152 0.979915 2.446964 0.000000 0.000000 0.000000
0.822121 0.973955 2.426264 0.000000 0.000000 0.000000
0.820270 0.999067 2.423367 0.000000 0.000000 0.000000
0.824317 0.969657 2.432326 0.000000 0.000000 0.000000
0.823355 0.984193 2.426147 0.000000 0.000000 0.000000
0.826671 0.967923 2.430221 0.000000 0.000000 0.000000
0.866528 0.959579 2.436164 0.000000 0.000000 0.000000
0.857013 0.962703 2.442944 0.000000 0.000000 0.000000
0.873836 0.962504 2.443873 0.000000 0.000000 0.000000
0.856027 0.952272 2.435951 0.000000 0.000000 0.000000
0.870983 0.960100 2.446564 0.000000 0.000000 0.000000
0.879004 0.989985 2.449278 0.000000 0.000000 0.000000
0.875420 1.048252 2.362347 0.000000 0.000000 0.000000
0.863744 1.045857 2.368568 0.000000 0.000000 0.000000
0.858022 1.046847 2.360453 0.000000 0.000000 0.000000
0.842009 1.033413 2.361218 0.000000 0.000000 0.000000
0.857389 1.046517 2.362286 0.000000 0.000000 0.000000
0.851972 1.046509 2.365109 0.000000 0.000000 0.000000
0.850066 1.045148 2.360238 0.000000 0.000000 0.000000
0.861417 1.045821 2.363325 0.000000 0.000000 0.000000
0.847466 1.046458 2.368442 0.000000 0.000000 0.000000
0.847346 1.045230 2.368807 0.000000 0.000000 0.000000
0.243256 1.684557 2.440944 0.000000 0.000000 0.000000
0.236288 1.673242 2.443923 0.000000 0.000000 0.000000
0.241195 1.680667 2.451334 0.000000 0.000000 0.000000
