ply
format ascii 1.0
comment VCGLIB generated
obj_info Generated by SPFormer!
element vertex 306
property float x
property float y
property float z
property float nx
property float ny
property float nz
end_header
0.858764 1.192166 1.369355 0.000000 0.000000 0.000000
0.851218 1.188172 1.381655 0.000000 0.000000 0.000000
0.850387 1.196638 1.375221 0.000000 0.000000 0.000000
0.802338 1.236835 1.373223 0.000000 0.000000 0.000000
0.860359 1.181411 1.367500 0.000000 0.000000 0.000000
0.861131 1.182722 1.371970 0.000000 0.000000 0.000000
0.857079 1.182532 1.372165 0.000000 0.000000 0.000000
0.845609 1.193906 1.370215 0.000000 0.000000 0.000000
0.863935 1.181656 1.372793 0.000000 0.000000 0.000000
0.828429 1.198882 1.381030 0.000000 0.000000 0.000000
0.839488 1.215524 1.382753 0.000000 0.000000 0.000000
0.802946 1.222043 1.388942 0.000000 0.000000 0.000000
0.817134 1.221927 1.392478 0.000000 0.000000 0.000000
0.838102 1.209585 1.382842 0.000000 0.000000 0.000000
0.853707 1.186238 1.371602 0.000000 0.000000 0.000000
0.829356 1.216650 1.387786 0.000000 0.000000 0.000000
0.817953 1.232648 1.377142 0.000000 0.000000 0.000000
0.838188 1.218278 1.370882 0.000000 0.000000 0.000000
0.806870 1.226768 1.384857 0.000000 0.000000 0.000000
0.865070 1.182406 1.373204 0.000000 0.000000 0.000000
0.823608 1.225167 1.384825 0.000000 0.000000 0.000000
0.808801 1.233237 1.390271 0.000000 0.000000 0.000000
0.819037 1.239969 1.380228 0.000000 0.000000 0.000000
0.831839 1.185574 1.373580 0.000000 0.000000 0.000000
0.831607 1.213664 1.390707 0.000000 0.000000 0.000000
0.859760 1.188410 1.375823 0.000000 0.000000 0.000000
0.854040 1.186215 1.366858 0.000000 0.000000 0.000000
0.856241 1.180842 1.365884 0.000000 0.000000 0.000000
0.860167 1.181358 1.369158 0.000000 0.000000 0.000000
0.804581 1.215500 1.391808 0.000000 0.000000 0.000000
0.862253 1.178773 1.364700 0.000000 0.000000 0.000000
0.855775 1.187787 1.370621 0.000000 0.000000 0.000000
0.861820 1.180113 1.366878 0.000000 0.000000 0.000000
0.833084 1.177797 1.368915 0.000000 0.000000 0.000000
0.804743 1.212585 1.382509 0.000000 0.000000 0.000000
0.828713 1.188613 1.376310 0.000000 0.000000 0.000000
0.808548 1.216858 1.377266 0.000000 0.000000 0.000000
0.854809 1.181279 1.368613 0.000000 0.000000 0.000000
0.832796 1.188761 1.373920 0.000000 0.000000 0.000000
0.810943 1.233980 1.394960 0.000000 0.000000 0.000000
0.860155 1.183741 1.366941 0.000000 0.000000 0.000000
0.851178 1.188859 1.375214 0.000000 0.000000 0.000000
0.864778 1.183018 1.360215 0.000000 0.000000 0.000000
0.805129 1.232005 1.390344 0.000000 0.000000 0.000000
0.843988 1.197699 1.373640 0.000000 0.000000 0.000000
0.862319 1.178645 1.364496 0.000000 0.000000 0.000000
0.855017 1.188223 1.371445 0.000000 0.000000 0.000000
0.813765 1.218876 1.383634 0.000000 0.000000 0.000000
0.831436 1.219234 1.390872 0.000000 0.000000 0.000000
0.825997 1.223116 1.395670 0.000000 0.000000 0.000000
0.827843 1.199916 1.374624 0.000000 0.000000 0.000000
0.835347 1.219930 1.387513 0.000000 0.000000 0.000000
0.853279 1.189642 1.380172 0.000000 0.000000 0.000000
0.811637 1.232779 1.375951 0.000000 0.000000 0.000000
0.809794 1.227559 1.378744 0.000000 0.000000 0.000000
0.835765 1.239781 1.384452 0.000000 0.000000 0.000000
0.859097 1.181951 1.370866 0.000000 0.000000 0.000000
0.864797 1.185416 1.375768 0.000000 0.000000 0.000000
0.834151 1.193676 1.373538 0.000000 0.000000 0.000000
0.801902 1.231673 1.381305 0.000000 0.000000 0.000000
0.814283 1.228601 1.378773 0.000000 0.000000 0.000000
0.851082 1.194007 1.373237 0.000000 0.000000 0.000000
0.859304 1.180108 1.363233 0.000000 0.000000 0.000000
0.864442 1.184902 1.367448 0.000000 0.000000 0.000000
0.858237 1.185162 1.368317 0.000000 0.000000 0.000000
0.862802 1.183809 1.375650 0.000000 0.000000 0.000000
0.864799 1.182690 1.365205 0.000000 0.000000 0.000000
0.856571 1.183720 1.377692 0.000000 0.000000 0.000000
0.812101 1.217428 1.389028 0.000000 0.000000 0.000000
0.801802 1.206465 1.386592 0.000000 0.000000 0.000000
0.859681 1.181281 1.368135 0.000000 0.000000 0.000000
0.834887 1.187299 1.375003 0.000000 0.000000 0.000000
0.807486 1.230994 1.379473 0.000000 0.000000 0.000000
0.805966 1.209091 1.381698 0.000000 0.000000 0.000000
0.810415 1.214978 1.392746 0.000000 0.000000 0.000000
0.848993 1.183672 1.376832 0.000000 0.000000 0.000000
0.830062 1.223833 1.379044 0.000000 0.000000 0.000000
0.800215 1.231020 1.368976 0.000000 0.000000 0.000000
0.867496 1.191223 1.368254 0.000000 0.000000 0.000000
0.806817 1.212415 1.387586 0.000000 0.000000 0.000000
0.848370 1.188626 1.370163 0.000000 0.000000 0.000000
0.800836 1.226836 1.395041 0.000000 0.000000 0.000000
0.801679 1.239701 1.366332 0.000000 0.000000 0.000000
0.864536 1.186436 1.369986 0.000000 0.000000 0.000000
0.854660 1.178560 1.367767 0.000000 0.000000 0.000000
0.855232 1.182681 1.375191 0.000000 0.000000 0.000000
0.823635 1.202691 1.382516 0.000000 0.000000 0.000000
0.820856 1.214806 1.381421 0.000000 0.000000 0.000000
0.842040 1.197995 1.377334 0.000000 0.000000 0.000000
0.815230 1.212552 1.378312 0.000000 0.000000 0.000000
0.833023 1.189542 1.370656 0.000000 0.000000 0.000000
0.819354 1.230206 1.386284 0.000000 0.000000 0.000000
0.826124 1.234438 1.380126 0.000000 0.000000 0.000000
0.855738 1.186298 1.374671 0.000000 0.000000 0.000000
0.835117 1.183958 1.371906 0.000000 0.000000 0.000000
0.835389 1.182551 1.369858 0.000000 0.000000 0.000000
0.858310 1.183142 1.374688 0.000000 0.000000 0.000000
0.831416 1.192480 1.379858 0.000000 0.000000 0.000000
0.809122 1.221763 1.381834 0.000000 0.000000 0.000000
0.830944 1.221964 1.382823 0.000000 0.000000 0.000000
0.824830 1.215070 1.394779 0.000000 0.000000 0.000000
0.830096 1.213508 1.390621 0.000000 0.000000 0.000000
0.802602 1.239134 1.379754 0.000000 0.000000 0.000000
0.828244 1.213353 1.390408 0.000000 0.000000 0.000000
0.800800 1.235157 1.367367 0.000000 0.000000 0.000000
0.805727 1.233454 1.370951 0.000000 0.000000 0.000000
0.813569 1.238585 1.390702 0.000000 0.000000 0.000000
0.800494 1.238980 1.378453 0.000000 0.000000 0.000000
0.839794 1.186331 1.370923 0.000000 0.000000 0.000000
0.828295 1.191580 1.372103 0.000000 0.000000 0.000000
0.854954 1.194543 1.374637 0.000000 0.000000 0.000000
0.809590 1.212029 1.382599 0.000000 0.000000 0.000000
0.856608 1.190629 1.378876 0.000000 0.000000 0.000000
0.849056 1.191943 1.370133 0.000000 0.000000 0.000000
0.827967 1.221980 1.376430 0.000000 0.000000 0.000000
0.833121 1.200087 1.382902 0.000000 0.000000 0.000000
0.802240 1.211503 1.385596 0.000000 0.000000 0.000000
0.834950 1.181293 1.375787 0.000000 0.000000 0.000000
0.834245 1.183059 1.368977 0.000000 0.000000 0.000000
0.830557 1.199331 1.380378 0.000000 0.000000 0.000000
0.830010 1.207544 1.375332 0.000000 0.000000 0.000000
0.836202 1.199443 1.374284 0.000000 0.000000 0.000000
0.835555 1.208834 1.379174 0.000000 0.000000 0.000000
0.826451 1.205620 1.378963 0.000000 0.000000 0.000000
0.836351 1.186488 1.370448 0.000000 0.000000 0.000000
0.806693 1.211089 1.386288 0.000000 0.000000 0.000000
0.833869 1.227885 1.384826 0.000000 0.000000 0.000000
0.846164 1.191561 1.372232 0.000000 0.000000 0.000000
0.865168 1.177386 1.364599 0.000000 0.000000 0.000000
0.862525 1.179795 1.366617 0.000000 0.000000 0.000000
0.864719 1.179429 1.366317 0.000000 0.000000 0.000000
0.802513 1.229779 1.376282 0.000000 0.000000 0.000000
0.819309 1.239681 1.381248 0.000000 0.000000 0.000000
0.823817 1.209179 1.381875 0.000000 0.000000 0.000000
0.828943 1.204826 1.382639 0.000000 0.000000 0.000000
0.806304 1.210142 1.376863 0.000000 0.000000 0.000000
0.810162 1.209410 1.388523 0.000000 0.000000 0.000000
0.803811 1.213807 1.389275 0.000000 0.000000 0.000000
0.806999 1.201677 1.384794 0.000000 0.000000 0.000000
0.835565 1.214852 1.387794 0.000000 0.000000 0.000000
0.830365 1.233305 1.387806 0.000000 0.000000 0.000000
0.821531 1.209618 1.386665 0.000000 0.000000 0.000000
0.812271 1.239899 1.375320 0.000000 0.000000 0.000000
0.816238 1.236517 1.380219 0.000000 0.000000 0.000000
0.819888 1.217120 1.387856 0.000000 0.000000 0.000000
0.830545 1.189315 1.370042 0.000000 0.000000 0.000000
0.809303 1.208792 1.384586 0.000000 0.000000 0.000000
0.838904 1.193845 1.375714 0.000000 0.000000 0.000000
0.829913 1.194157 1.373148 0.000000 0.000000 0.000000
0.835445 1.226970 1.389437 0.000000 0.000000 0.000000
0.865465 1.181666 1.368564 0.000000 0.000000 0.000000
0.835619 1.215652 1.373744 0.000000 0.000000 0.000000
0.846411 1.195089 1.375606 0.000000 0.000000 0.000000
0.829495 1.198616 1.377063 0.000000 0.000000 0.000000
0.833605 1.212770 1.385648 0.000000 0.000000 0.000000
0.832939 1.188189 1.373865 0.000000 0.000000 0.000000
0.865555 1.185581 1.367529 0.000000 0.000000 0.000000
0.818624 1.219263 1.397705 0.000000 0.000000 0.000000
0.831541 1.216713 1.378349 0.000000 0.000000 0.000000
0.859842 1.190725 1.369337 0.000000 0.000000 0.000000
0.832807 1.190908 1.379490 0.000000 0.000000 0.000000
0.861248 1.178728 1.362786 0.000000 0.000000 0.000000
0.804844 1.239014 1.394294 0.000000 0.000000 0.000000
0.804612 1.239076 1.370869 0.000000 0.000000 0.000000
0.866922 1.179448 1.363884 0.000000 0.000000 0.000000
0.837650 1.236283 1.382544 0.000000 0.000000 0.000000
0.827776 1.214787 1.385323 0.000000 0.000000 0.000000
0.825779 1.202970 1.375873 0.000000 0.000000 0.000000
0.833161 1.224133 1.397504 0.000000 0.000000 0.000000
0.857534 1.185737 1.375217 0.000000 0.000000 0.000000
0.813111 1.212599 1.393925 0.000000 0.000000 0.000000
0.852714 1.186485 1.366925 0.000000 0.000000 0.000000
0.804160 1.216598 1.391922 0.000000 0.000000 0.000000
0.806249 1.205429 1.386402 0.000000 0.000000 0.000000
0.807653 1.209529 1.383263 0.000000 0.000000 0.000000
0.805763 1.212608 1.388086 0.000000 0.000000 0.000000
0.864406 1.182698 1.370428 0.000000 0.000000 0.000000
0.827144 1.236517 1.387842 0.000000 0.000000 0.000000
0.853747 1.183042 1.365333 0.000000 0.000000 0.000000
0.863453 1.179574 1.364775 0.000000 0.000000 0.000000
0.863559 1.191182 1.367710 0.000000 0.000000 0.000000
0.808412 1.210172 1.387776 0.000000 0.000000 0.000000
0.809839 1.206729 1.387213 0.000000 0.000000 0.000000
0.830996 1.182931 1.369469 0.000000 0.000000 0.000000
0.839769 1.190145 1.372370 0.000000 0.000000 0.000000
0.832442 1.194475 1.369536 0.000000 0.000000 0.000000
0.836403 1.182894 1.367774 0.000000 0.000000 0.000000
0.858114 1.190129 1.378037 0.000000 0.000000 0.000000
0.841598 1.191394 1.372499 0.000000 0.000000 0.000000
0.858516 1.182326 1.371103 0.000000 0.000000 0.000000
0.862001 1.180159 1.363358 0.000000 0.000000 0.000000
0.864374 1.183123 1.366238 0.000000 0.000000 0.000000
0.860203 1.179852 1.362103 0.000000 0.000000 0.000000
0.863518 1.182858 1.372115 0.000000 0.000000 0.000000
0.837206 1.186245 1.371351 0.000000 0.000000 0.000000
0.861618 1.182268 1.374495 0.000000 0.000000 0.000000
0.860146 1.175003 1.359923 0.000000 0.000000 0.000000
0.857197 1.185790 1.365735 0.000000 0.000000 0.000000
0.832447 1.182113 1.369284 0.000000 0.000000 0.000000
0.833861 1.174128 1.366798 0.000000 0.000000 0.000000
0.807758 1.227654 1.372474 0.000000 0.000000 0.000000
0.814584 1.239989 1.367290 0.000000 0.000000 0.000000
0.837061 1.190580 1.377802 0.000000 0.000000 0.000000
0.831879 1.181422 1.370378 0.000000 0.000000 0.000000
0.861795 1.188462 1.374754 0.000000 0.000000 0.000000
0.861956 1.186319 1.367778 0.000000 0.000000 0.000000
0.856869 1.190771 1.368719 0.000000 0.000000 0.000000
0.864675 1.188960 1.370339 0.000000 0.000000 0.000000
0.861951 1.190170 1.368536 0.000000 0.000000 0.000000
0.857665 1.196745 1.371919 0.000000 0.000000 0.000000
0.851919 1.195045 1.370908 0.000000 0.000000 0.000000
0.857475 1.194479 1.373255 0.000000 0.000000 0.000000
0.834750 1.219428 1.375112 0.000000 0.000000 0.000000
0.854237 1.198037 1.373487 0.000000 0.000000 0.000000
0.854328 1.188288 1.383693 0.000000 0.000000 0.000000
0.836236 1.229129 1.382044 0.000000 0.000000 0.000000
0.858006 1.189676 1.377493 0.000000 0.000000 0.000000
0.843250 1.192936 1.372496 0.000000 0.000000 0.000000
0.859863 1.178921 1.362882 0.000000 0.000000 0.000000
0.853512 1.191700 1.370173 0.000000 0.000000 0.000000
0.845416 1.188354 1.381344 0.000000 0.000000 0.000000
0.836806 1.200366 1.383179 0.000000 0.000000 0.000000
0.847762 1.191650 1.381638 0.000000 0.000000 0.000000
0.852282 1.193694 1.369981 0.000000 0.000000 0.000000
0.839265 1.201528 1.385563 0.000000 0.000000 0.000000
0.851449 1.192082 1.382156 0.000000 0.000000 0.000000
0.847304 1.189698 1.370368 0.000000 0.000000 0.000000
0.836638 1.232470 1.396737 0.000000 0.000000 0.000000
0.838520 1.187025 1.371611 0.000000 0.000000 0.000000
0.843601 1.192570 1.375970 0.000000 0.000000 0.000000
0.844447 1.198313 1.376943 0.000000 0.000000 0.000000
0.831510 1.186361 1.378828 0.000000 0.000000 0.000000
0.835212 1.196275 1.381240 0.000000 0.000000 0.000000
0.839879 1.189975 1.371342 0.000000 0.000000 0.000000
0.837416 1.187337 1.371061 0.000000 0.000000 0.000000
0.803558 1.227157 1.397120 0.000000 0.000000 0.000000
0.839394 1.193386 1.374843 0.000000 0.000000 0.000000
0.859517 1.187061 1.368304 0.000000 0.000000 0.000000
0.859477 1.177974 1.363593 0.000000 0.000000 0.000000
0.858416 1.181299 1.371453 0.000000 0.000000 0.000000
0.859011 1.175121 1.369028 0.000000 0.000000 0.000000
0.863848 1.184174 1.367658 0.000000 0.000000 0.000000
0.863041 1.185583 1.368358 0.000000 0.000000 0.000000
0.860848 1.187577 1.366043 0.000000 0.000000 0.000000
0.866041 1.185480 1.371129 0.000000 0.000000 0.000000
0.861459 1.191932 1.368626 0.000000 0.000000 0.000000
0.828546 1.189206 1.379656 0.000000 0.000000 0.000000
0.828172 1.195186 1.378664 0.000000 0.000000 0.000000
0.847385 1.189894 1.384032 0.000000 0.000000 0.000000
0.863911 1.182397 1.370142 0.000000 0.000000 0.000000
0.866870 1.182123 1.365460 0.000000 0.000000 0.000000
0.857362 1.187131 1.383073 0.000000 0.000000 0.000000
0.843602 1.189857 1.369680 0.000000 0.000000 0.000000
0.842477 1.188560 1.371612 0.000000 0.000000 0.000000
0.854922 1.183209 1.367225 0.000000 0.000000 0.000000
0.831663 1.183437 1.368605 0.000000 0.000000 0.000000
0.838834 1.198796 1.379111 0.000000 0.000000 0.000000
0.865178 1.184610 1.371115 0.000000 0.000000 0.000000
0.810994 1.217305 1.397115 0.000000 0.000000 0.000000
0.802085 1.226348 1.398609 0.000000 0.000000 0.000000
0.802458 1.237728 1.395277 0.000000 0.000000 0.000000
0.800256 1.231860 1.397512 0.000000 0.000000 0.000000
0.800545 1.225648 1.396987 0.000000 0.000000 0.000000
0.804450 1.224288 1.396855 0.000000 0.000000 0.000000
0.833313 1.239486 1.384990 0.000000 0.000000 0.000000
0.812376 1.234267 1.370846 0.000000 0.000000 0.000000
0.832075 1.184332 1.376647 0.000000 0.000000 0.000000
0.817904 1.222999 1.378376 0.000000 0.000000 0.000000
0.814177 1.224724 1.384635 0.000000 0.000000 0.000000
0.860887 1.180334 1.364157 0.000000 0.000000 0.000000
0.828247 1.184313 1.371999 0.000000 0.000000 0.000000
0.830593 1.187365 1.369744 0.000000 0.000000 0.000000
0.839455 1.209318 1.379237 0.000000 0.000000 0.000000
0.838368 1.210479 1.376869 0.000000 0.000000 0.000000
0.832806 1.205975 1.382555 0.000000 0.000000 0.000000
0.832800 1.215735 1.381004 0.000000 0.000000 0.000000
0.836858 1.204742 1.383243 0.000000 0.000000 0.000000
0.838822 1.223264 1.381798 0.000000 0.000000 0.000000
0.832630 1.231451 1.381691 0.000000 0.000000 0.000000
0.820443 1.234481 1.394320 0.000000 0.000000 0.000000
0.828384 1.228801 1.399892 0.000000 0.000000 0.000000
0.809428 1.211354 1.384172 0.000000 0.000000 0.000000
0.807805 1.218751 1.384592 0.000000 0.000000 0.000000
0.807078 1.204685 1.384856 0.000000 0.000000 0.000000
0.802521 1.211309 1.388288 0.000000 0.000000 0.000000
0.857139 1.184943 1.381202 0.000000 0.000000 0.000000
0.860682 1.180058 1.365039 0.000000 0.000000 0.000000
0.804075 1.229744 1.368228 0.000000 0.000000 0.000000
0.834482 1.183110 1.370712 0.000000 0.000000 0.000000
0.835042 1.183497 1.372430 0.000000 0.000000 0.000000
0.829443 1.188776 1.372207 0.000000 0.000000 0.000000
0.831425 1.181542 1.368159 0.000000 0.000000 0.000000
0.826533 1.183909 1.368195 0.000000 0.000000 0.000000
0.825808 1.199018 1.377537 0.000000 0.000000 0.000000
0.826502 1.192090 1.374782 0.000000 0.000000 0.000000
0.865202 1.189221 1.367759 0.000000 0.000000 0.000000
0.834439 1.187363 1.369381 0.000000 0.000000 0.000000
0.865778 1.190721 1.368083 0.000000 0.000000 0.000000
0.800126 1.230062 1.375793 0.000000 0.000000 0.000000
0.839842 1.234905 1.396873 0.000000 0.000000 0.000000
0.832683 1.226660 1.396202 0.000000 0.000000 0.000000
0.859916 1.181562 1.368582 0.000000 0.000000 0.000000
0.859734 1.180580 1.365064 0.000000 0.000000 0.000000
0.858371 1.181514 1.368965 0.000000 0.000000 0.000000
0.852988 1.179034 1.363281 0.000000 0.000000 0.000000
0.838859 1.238605 1.393670 0.000000 0.000000 0.000000
