ply
format ascii 1.0
comment VCGLIB generated
obj_info Generated by SPFormer!
element vertex 342
property float x
property float y
property float z
property float nx
property float ny
property float nz
end_header
0.241297 1.477967 2.667298 0.000000 0.000000 0.000000
0.252947 1.482278 2.682734 0.000000 0.000000 0.000000
0.258203 1.482802 2.682783 0.000000 0.000000 0.000000
0.210956 1.452778 2.706728 0.000000 0.000000 0.000000
0.253187 1.450751 2.657411 0.000000 0.000000 0.000000
0.251349 1.476316 2.677912 0.000000 0.000000 0.000000
0.239716 1.467300 2.672671 0.000000 0.000000 0.000000
0.243873 1.469898 2.678125 0.000000 0.000000 0.000000
0.242397 1.464481 2.659818 0.000000 0.000000 0.000000
0.250997 1.459894 2.680953 0.000000 0.000000 0.000000
0.247961 1.473540 2.670761 0.000000 0.000000 0.000000
0.258301 1.450656 2.657962 0.000000 0.000000 0.000000
0.241477 1.459249 2.692114 0.000000 0.000000 0.000000
0.253963 1.451780 2.656743 0.000000 0.000000 0.000000
0.234075 1.482108 2.653294 0.000000 0.000000 0.000000
0.227633 1.453766 2.674344 0.000000 0.000000 0.000000
0.220646 1.449390 2.700094 0.000000 0.000000 0.000000
0.236378 1.483594 2.664277 0.000000 0.000000 0.000000
0.247646 1.443331 2.679172 0.000000 0.000000 0.000000
0.227263 1.447564 2.702652 0.000000 0.000000 0.000000
0.233728 1.445499 2.694752 0.000000 0.000000 0.000000
0.236469 1.443542 2.713562 0.000000 0.000000 0.000000
0.260827 1.478248 2.682031 0.000000 0.000000 0.000000
0.243782 1.450055 2.683157 0.000000 0.000000 0.000000
0.219602 1.440368 2.679649 0.000000 0.000000 0.000000
0.250480 1.470828 2.682304 0.000000 0.000000 0.000000
0.246830 1.472025 2.671030 0.000000 0.000000 0.000000
0.250870 1.465770 2.682225 0.000000 0.000000 0.000000
0.249080 1.441753 2.707022 0.000000 0.000000 0.000000
0.208164 1.446274 2.717938 0.000000 0.000000 0.000000
0.210177 1.449799 2.695450 0.000000 0.000000 0.000000
0.215275 1.450980 2.698453 0.000000 0.000000 0.000000
0.221026 1.452877 2.684715 0.000000 0.000000 0.000000
0.243941 1.447754 2.662896 0.000000 0.000000 0.000000
0.239678 1.456593 2.671486 0.000000 0.000000 0.000000
0.241337 1.455838 2.684440 0.000000 0.000000 0.000000
0.231835 1.446479 2.682251 0.000000 0.000000 0.000000
0.232959 1.450771 2.689180 0.000000 0.000000 0.000000
0.252945 1.447031 2.662593 0.000000 0.000000 0.000000
0.209064 1.443680 2.694897 0.000000 0.000000 0.000000
0.240812 1.454592 2.676830 0.000000 0.000000 0.000000
0.242853 1.468287 2.664138 0.000000 0.000000 0.000000
0.254269 1.489778 2.678124 0.000000 0.000000 0.000000
0.210886 1.455058 2.709385 0.000000 0.000000 0.000000
0.249653 1.457170 2.663483 0.000000 0.000000 0.000000
0.206817 1.442254 2.692486 0.000000 0.000000 0.000000
0.224110 1.443688 2.682020 0.000000 0.000000 0.000000
0.246643 1.492495 2.666485 0.000000 0.000000 0.000000
0.207211 1.445469 2.694457 0.000000 0.000000 0.000000
0.221987 1.448714 2.684646 0.000000 0.000000 0.000000
0.222590 1.451719 2.712223 0.000000 0.000000 0.000000
0.258674 1.483392 2.680268 0.000000 0.000000 0.000000
0.250848 1.472917 2.681832 0.000000 0.000000 0.000000
0.251129 1.467724 2.685898 0.000000 0.000000 0.000000
0.241191 1.465325 2.667743 0.000000 0.000000 0.000000
0.222173 1.452605 2.693064 0.000000 0.000000 0.000000
0.253600 1.454354 2.660703 0.000000 0.000000 0.000000
0.223912 1.450592 2.679379 0.000000 0.000000 0.000000
0.223351 1.441475 2.675393 0.000000 0.000000 0.000000
0.238340 1.474672 2.659241 0.000000 0.000000 0.000000
0.232534 1.446534 2.715629 0.000000 0.000000 0.000000
0.215175 1.443355 2.710678 0.000000 0.000000 0.000000
0.245982 1.463075 2.679431 0.000000 0.000000 0.000000
0.256939 1.452808 2.661059 0.000000 0.000000 0.000000
0.267841 1.480027 2.683582 0.000000 0.000000 0.000000
0.212464 1.441154 2.679359 0.000000 0.000000 0.000000
0.234367 1.485548 2.661749 0.000000 0.000000 0.000000
0.234087 1.486613 2.657302 0.000000 0.000000 0.000000
0.257787 1.481844 2.679282 0.000000 0.000000 0.000000
0.204397 1.447044 2.705150 0.000000 0.000000 0.000000
0.249537 1.471940 2.685073 0.000000 0.000000 0.000000
0.253325 1.480079 2.681127 0.000000 0.000000 0.000000
0.229949 1.449296 2.699545 0.000000 0.000000 0.000000
0.244064 1.441486 2.684535 0.000000 0.000000 0.000000
0.256791 1.446819 2.646398 0.000000 0.000000 0.000000
0.260091 1.443248 2.651694 0.000000 0.000000 0.000000
0.235553 1.484601 2.659157 0.000000 0.000000 0.000000
0.210222 1.451319 2.718714 0.000000 0.000000 0.000000
0.245557 1.460064 2.693863 0.000000 0.000000 0.000000
0.239288 1.469845 2.680808 0.000000 0.000000 0.000000
0.239840 1.465405 2.686917 0.000000 0.000000 0.000000
0.233765 1.489065 2.660543 0.000000 0.000000 0.000000
0.244643 1.453945 2.698882 0.000000 0.000000 0.000000
0.214807 1.441746 2.682413 0.000000 0.000000 0.000000
0.253618 1.471914 2.681672 0.000000 0.000000 0.000000
0.204162 1.440194 2.684583 0.000000 0.000000 0.000000
0.254024 1.473099 2.681868 0.000000 0.000000 0.000000
0.260160 1.467886 2.688156 0.000000 0.000000 0.000000
0.255954 1.447686 2.657375 0.000000 0.000000 0.000000
0.241364 1.468795 2.665867 0.000000 0.000000 0.000000
0.246707 1.449432 2.660964 0.000000 0.000000 0.000000
0.253204 1.458329 2.683293 0.000000 0.000000 0.000000
0.244898 1.471338 2.661800 0.000000 0.000000 0.000000
0.242489 1.474231 2.660006 0.000000 0.000000 0.000000
0.251362 1.444623 2.666912 0.000000 0.000000 0.000000
0.251162 1.448315 2.668155 0.000000 0.000000 0.000000
0.255895 1.453433 2.668049 0.000000 0.000000 0.000000
0.260984 1.440778 2.659970 0.000000 0.000000 0.000000
0.251328 1.458854 2.666321 0.000000 0.000000 0.000000
0.201920 1.441357 2.709600 0.000000 0.000000 0.000000
0.247817 1.446982 2.672292 0.000000 0.000000 0.000000
0.265771 1.489338 2.675569 0.000000 0.000000 0.000000
0.254843 1.482981 2.677176 0.000000 0.000000 0.000000
0.255695 1.458205 2.669846 0.000000 0.000000 0.000000
0.246112 1.472322 2.664585 0.000000 0.000000 0.000000
0.251317 1.475493 2.674041 0.000000 0.000000 0.000000
0.250225 1.465112 2.682273 0.000000 0.000000 0.000000
0.268847 1.449453 2.652998 0.000000 0.000000 0.000000
0.265221 1.448298 2.653594 0.000000 0.000000 0.000000
0.247677 1.463484 2.655922 0.000000 0.000000 0.000000
0.264484 1.481255 2.678705 0.000000 0.000000 0.000000
0.227896 1.452650 2.669439 0.000000 0.000000 0.000000
0.243978 1.442501 2.675376 0.000000 0.000000 0.000000
0.255296 1.450926 2.661650 0.000000 0.000000 0.000000
0.239601 1.459378 2.687701 0.000000 0.000000 0.000000
0.249430 1.468298 2.684532 0.000000 0.000000 0.000000
0.249652 1.464734 2.675346 0.000000 0.000000 0.000000
0.259226 1.481082 2.677692 0.000000 0.000000 0.000000
0.253679 1.461192 2.673161 0.000000 0.000000 0.000000
0.245472 1.451637 2.673027 0.000000 0.000000 0.000000
0.257799 1.448109 2.657702 0.000000 0.000000 0.000000
0.267469 1.447075 2.655747 0.000000 0.000000 0.000000
0.253891 1.442655 2.652522 0.000000 0.000000 0.000000
0.263046 1.448901 2.649425 0.000000 0.000000 0.000000
0.258360 1.444722 2.654442 0.000000 0.000000 0.000000
0.261680 1.485434 2.681349 0.000000 0.000000 0.000000
0.255849 1.446195 2.656575 0.000000 0.000000 0.000000
0.262519 1.488801 2.678063 0.000000 0.000000 0.000000
0.235678 1.444449 2.663992 0.000000 0.000000 0.000000
0.247923 1.460611 2.668718 0.000000 0.000000 0.000000
0.243933 1.463225 2.662905 0.000000 0.000000 0.000000
0.249482 1.452207 2.658676 0.000000 0.000000 0.000000
0.265905 1.448877 2.654503 0.000000 0.000000 0.000000
0.246100 1.457381 2.671101 0.000000 0.000000 0.000000
0.262535 1.449294 2.657329 0.000000 0.000000 0.000000
0.240892 1.461219 2.673977 0.000000 0.000000 0.000000
0.231177 1.443833 2.716249 0.000000 0.000000 0.000000
0.240212 1.471419 2.659061 0.000000 0.000000 0.000000
0.240205 1.474244 2.657788 0.000000 0.000000 0.000000
0.270006 1.450376 2.659392 0.000000 0.000000 0.000000
0.255876 1.447600 2.656749 0.000000 0.000000 0.000000
0.237301 1.481556 2.661155 0.000000 0.000000 0.000000
0.254058 1.450947 2.683706 0.000000 0.000000 0.000000
0.253513 1.460167 2.665108 0.000000 0.000000 0.000000
0.233066 1.449877 2.688983 0.000000 0.000000 0.000000
0.257746 1.461006 2.664737 0.000000 0.000000 0.000000
0.241600 1.479894 2.661988 0.000000 0.000000 0.000000
0.240855 1.478568 2.666575 0.000000 0.000000 0.000000
0.254635 1.476222 2.680532 0.000000 0.000000 0.000000
0.252889 1.466403 2.677083 0.000000 0.000000 0.000000
0.239996 1.472218 2.660569 0.000000 0.000000 0.000000
0.250936 1.469261 2.674336 0.000000 0.000000 0.000000
0.236067 1.458914 2.681087 0.000000 0.000000 0.000000
0.261902 1.482902 2.676497 0.000000 0.000000 0.000000
0.242760 1.451698 2.683973 0.000000 0.000000 0.000000
0.254887 1.491207 2.668929 0.000000 0.000000 0.000000
0.240844 1.464727 2.683373 0.000000 0.000000 0.000000
0.260843 1.482260 2.680301 0.000000 0.000000 0.000000
0.237604 1.489616 2.663177 0.000000 0.000000 0.000000
0.239252 1.483827 2.666308 0.000000 0.000000 0.000000
0.246811 1.471214 2.666118 0.000000 0.000000 0.000000
0.252968 1.464242 2.671844 0.000000 0.000000 0.000000
0.257944 1.472498 2.680151 0.000000 0.000000 0.000000
0.250069 1.473385 2.678153 0.000000 0.000000 0.000000
0.240285 1.461365 2.692610 0.000000 0.000000 0.000000
0.250867 1.473440 2.683241 0.000000 0.000000 0.000000
0.244621 1.458925 2.695327 0.000000 0.000000 0.000000
0.243293 1.454109 2.682222 0.000000 0.000000 0.000000
0.250626 1.445410 2.651178 0.000000 0.000000 0.000000
0.243390 1.474468 2.666979 0.000000 0.000000 0.000000
0.250166 1.469507 2.678918 0.000000 0.000000 0.000000
0.236327 1.458780 2.687599 0.000000 0.000000 0.000000
0.251345 1.470584 2.681339 0.000000 0.000000 0.000000
0.241192 1.471884 2.660084 0.000000 0.000000 0.000000
0.252383 1.466164 2.680984 0.000000 0.000000 0.000000
0.237350 1.481338 2.658502 0.000000 0.000000 0.000000
0.244181 1.466598 2.679933 0.000000 0.000000 0.000000
0.260980 1.479349 2.679107 0.000000 0.000000 0.000000
0.265675 1.477701 2.683693 0.000000 0.000000 0.000000
0.254005 1.447737 2.658228 0.000000 0.000000 0.000000
0.239579 1.475778 2.663224 0.000000 0.000000 0.000000
0.241229 1.483094 2.664026 0.000000 0.000000 0.000000
0.236005 1.485386 2.667193 0.000000 0.000000 0.000000
0.257366 1.449226 2.656266 0.000000 0.000000 0.000000
0.249474 1.454752 2.666298 0.000000 0.000000 0.000000
0.245622 1.455805 2.674322 0.000000 0.000000 0.000000
0.245661 1.477801 2.683934 0.000000 0.000000 0.000000
0.256571 1.449424 2.664757 0.000000 0.000000 0.000000
0.251624 1.482101 2.680547 0.000000 0.000000 0.000000
0.247651 1.463299 2.683883 0.000000 0.000000 0.000000
0.234957 1.489053 2.659353 0.000000 0.000000 0.000000
0.260262 1.484589 2.678006 0.000000 0.000000 0.000000
0.249973 1.450713 2.653498 0.000000 0.000000 0.000000
0.234761 1.454710 2.673744 0.000000 0.000000 0.000000
0.264911 1.445615 2.649155 0.000000 0.000000 0.000000
0.265775 1.450907 2.658881 0.000000 0.000000 0.000000
0.262365 1.446659 2.650773 0.000000 0.000000 0.000000
0.266990 1.445461 2.647705 0.000000 0.000000 0.000000
0.235286 1.480208 2.656075 0.000000 0.000000 0.000000
0.253669 1.465848 2.668692 0.000000 0.000000 0.000000
0.236838 1.446293 2.718322 0.000000 0.000000 0.000000
0.251979 1.456113 2.673725 0.000000 0.000000 0.000000
0.255243 1.481278 2.678115 0.000000 0.000000 0.000000
0.255045 1.471585 2.690376 0.000000 0.000000 0.000000
0.252850 1.479565 2.676928 0.000000 0.000000 0.000000
0.252728 1.467720 2.674735 0.000000 0.000000 0.000000
0.231206 1.491153 2.666184 0.000000 0.000000 0.000000
0.202457 1.459461 2.708770 0.000000 0.000000 0.000000
0.203348 1.456091 2.704801 0.000000 0.000000 0.000000
0.266538 1.481343 2.683825 0.000000 0.000000 0.000000
0.239289 1.479682 2.659476 0.000000 0.000000 0.000000
0.239543 1.472516 2.657655 0.000000 0.000000 0.000000
0.259902 1.473985 2.687873 0.000000 0.000000 0.000000
0.260423 1.480337 2.677865 0.000000 0.000000 0.000000
0.264360 1.449247 2.654548 0.000000 0.000000 0.000000
0.258702 1.474295 2.685669 0.000000 0.000000 0.000000
0.243129 1.477608 2.670844 0.000000 0.000000 0.000000
0.266531 1.482145 2.672801 0.000000 0.000000 0.000000
0.250714 1.474751 2.669056 0.000000 0.000000 0.000000
0.233133 1.484390 2.669605 0.000000 0.000000 0.000000
0.208443 1.453750 2.675366 0.000000 0.000000 0.000000
0.213556 1.443870 2.686966 0.000000 0.000000 0.000000
0.251811 1.452224 2.663454 0.000000 0.000000 0.000000
0.254103 1.453313 2.658667 0.000000 0.000000 0.000000
0.249437 1.447144 2.657557 0.000000 0.000000 0.000000
0.235585 1.486021 2.658491 0.000000 0.000000 0.000000
0.225488 1.450846 2.706519 0.000000 0.000000 0.000000
0.232719 1.444557 2.711883 0.000000 0.000000 0.000000
0.209616 1.452824 2.711624 0.000000 0.000000 0.000000
0.226981 1.447915 2.706897 0.000000 0.000000 0.000000
0.239232 1.489267 2.666500 0.000000 0.000000 0.000000
0.254473 1.474847 2.694568 0.000000 0.000000 0.000000
0.251868 1.461058 2.677499 0.000000 0.000000 0.000000
0.205439 1.454415 2.712639 0.000000 0.000000 0.000000
0.206548 1.453569 2.698941 0.000000 0.000000 0.000000
0.251193 1.479412 2.672680 0.000000 0.000000 0.000000
0.247310 1.461296 2.677646 0.000000 0.000000 0.000000
0.218060 1.452405 2.708745 0.000000 0.000000 0.000000
0.202051 1.446556 2.707797 0.000000 0.000000 0.000000
0.245380 1.486974 2.669912 0.000000 0.000000 0.000000
0.251878 1.462005 2.686088 0.000000 0.000000 0.000000
0.258675 1.484040 2.680282 0.000000 0.000000 0.000000
0.257959 1.482631 2.682614 0.000000 0.000000 0.000000
0.231994 1.485027 2.663164 0.000000 0.000000 0.000000
0.259945 1.484293 2.676833 0.000000 0.000000 0.000000
0.260578 1.477740 2.683922 0.000000 0.000000 0.000000
0.251188 1.480504 2.680342 0.000000 0.000000 0.000000
0.250612 1.474035 2.676696 0.000000 0.000000 0.000000
0.250845 1.470491 2.673103 0.000000 0.000000 0.000000
0.258501 1.479504 2.684463 0.000000 0.000000 0.000000
0.242056 1.443702 2.706074 0.000000 0.000000 0.000000
0.262841 1.448600 2.647897 0.000000 0.000000 0.000000
0.264578 1.453942 2.651602 0.000000 0.000000 0.000000
0.267741 1.448378 2.653489 0.000000 0.000000 0.000000
0.237223 1.476171 2.656377 0.000000 0.000000 0.000000
0.269505 1.447308 2.655075 0.000000 0.000000 0.000000
0.268640 1.447614 2.650580 0.000000 0.000000 0.000000
0.267053 1.448081 2.651199 0.000000 0.000000 0.000000
0.245216 1.459283 2.659139 0.000000 0.000000 0.000000
0.244739 1.465401 2.657075 0.000000 0.000000 0.000000
0.250666 1.446555 2.657437 0.000000 0.000000 0.000000
0.250813 1.442528 2.674019 0.000000 0.000000 0.000000
0.240137 1.441193 2.663288 0.000000 0.000000 0.000000
0.239343 1.441400 2.673207 0.000000 0.000000 0.000000
0.244590 1.449598 2.670577 0.000000 0.000000 0.000000
0.250177 1.446342 2.666496 0.000000 0.000000 0.000000
0.232740 1.440882 2.676103 0.000000 0.000000 0.000000
0.224270 1.444268 2.712657 0.000000 0.000000 0.000000
0.245323 1.443773 2.662467 0.000000 0.000000 0.000000
0.248729 1.451094 2.675014 0.000000 0.000000 0.000000
0.217375 1.446397 2.717387 0.000000 0.000000 0.000000
0.249313 1.469732 2.688523 0.000000 0.000000 0.000000
0.247125 1.459953 2.682530 0.000000 0.000000 0.000000
0.246605 1.477125 2.673846 0.000000 0.000000 0.000000
0.246818 1.469147 2.689081 0.000000 0.000000 0.000000
0.261299 1.470856 2.682605 0.000000 0.000000 0.000000
0.238405 1.487190 2.666155 0.000000 0.000000 0.000000
0.244474 1.478398 2.668039 0.000000 0.000000 0.000000
0.248921 1.489902 2.669000 0.000000 0.000000 0.000000
0.247479 1.486199 2.673896 0.000000 0.000000 0.000000
0.267249 1.446503 2.650965 0.000000 0.000000 0.000000
0.200876 1.454701 2.715424 0.000000 0.000000 0.000000
0.242143 1.463992 2.690517 0.000000 0.000000 0.000000
0.273471 1.450994 2.649087 0.000000 0.000000 0.000000
0.269445 1.446019 2.654187 0.000000 0.000000 0.000000
0.269693 1.447231 2.648421 0.000000 0.000000 0.000000
0.232862 1.487419 2.661432 0.000000 0.000000 0.000000
0.252496 1.444530 2.662256 0.000000 0.000000 0.000000
0.247861 1.442829 2.668767 0.000000 0.000000 0.000000
0.228599 1.450698 2.674068 0.000000 0.000000 0.000000
0.248598 1.489732 2.668234 0.000000 0.000000 0.000000
0.263008 1.482140 2.676846 0.000000 0.000000 0.000000
0.241186 1.453779 2.671044 0.000000 0.000000 0.000000
0.218747 1.441831 2.701724 0.000000 0.000000 0.000000
0.244029 1.454344 2.662427 0.000000 0.000000 0.000000
0.245492 1.447082 2.667408 0.000000 0.000000 0.000000
0.234013 1.444914 2.683666 0.000000 0.000000 0.000000
0.247100 1.446101 2.658773 0.000000 0.000000 0.000000
0.244270 1.458631 2.675541 0.000000 0.000000 0.000000
0.253645 1.491442 2.663918 0.000000 0.000000 0.000000
0.238733 1.445088 2.661039 0.000000 0.000000 0.000000
0.257015 1.492845 2.667401 0.000000 0.000000 0.000000
0.245035 1.481719 2.673251 0.000000 0.000000 0.000000
0.245229 1.470823 2.668013 0.000000 0.000000 0.000000
0.246332 1.480809 2.668946 0.000000 0.000000 0.000000
0.246542 1.455971 2.689089 0.000000 0.000000 0.000000
0.244373 1.454169 2.681395 0.000000 0.000000 0.000000
0.243936 1.449227 2.676862 0.000000 0.000000 0.000000
0.238456 1.452773 2.689318 0.000000 0.000000 0.000000
0.243885 1.450155 2.664664 0.000000 0.000000 0.000000
0.267484 1.477530 2.687478 0.000000 0.000000 0.000000
0.245309 1.460355 2.687837 0.000000 0.000000 0.000000
0.245539 1.467101 2.685709 0.000000 0.000000 0.000000
0.230496 1.460612 2.689923 0.000000 0.000000 0.000000
0.239580 1.454034 2.695085 0.000000 0.000000 0.000000
0.269802 1.481761 2.680577 0.000000 0.000000 0.000000
0.259397 1.483259 2.678200 0.000000 0.000000 0.000000
0.259042 1.482199 2.678144 0.000000 0.000000 0.000000
0.235374 1.452559 2.679783 0.000000 0.000000 0.000000
0.241606 1.468108 2.690528 0.000000 0.000000 0.000000
0.238333 1.455964 2.687911 0.000000 0.000000 0.000000
0.245456 1.455939 2.684380 0.000000 0.000000 0.000000
0.245564 1.466483 2.687939 0.000000 0.000000 0.000000
0.243539 1.465232 2.684132 0.000000 0.000000 0.000000
0.260084 1.480343 2.681912 0.000000 0.000000 0.000000
0.265522 1.477166 2.680327 0.000000 0.000000 0.000000
0.258927 1.480098 2.684336 0.000000 0.000000 0.000000
0.267022 1.482253 2.688157 0.000000 0.000000 0.000000
0.245951 1.470716 2.691487 0.000000 0.000000 0.000000
0.239126 1.463107 2.690598 0.000000 0.000000 0.000000
0.240018 1.455871 2.694839 0.000000 0.000000 0.000000
0.244491 1.463908 2.686107 0.000000 0.000000 0.000000
0.244601 1.458557 2.692883 0.000000 0.000000 0.000000
0.251069 1.470465 2.682676 0.000000 0.000000 0.000000
0.261108 1.453058 2.695358 0.000000 0.000000 0.000000
0.240500 1.451970 2.691158 0.000000 0.000000 0.000000
0.252033 1.447489 2.709456 0.000000 0.000000 0.000000
0.253515 1.443354 2.716804 0.000000 0.000000 0.000000
0.251202 1.453126 2.716144 0.000000 0.000000 0.000000
0.252091 1.445465 2.715376 0.000000 0.000000 0.000000
0.241224 1.443402 2.719193 0.000000 0.000000 0.000000
0.253871 1.449191 2.712156 0.000000 0.000000 0.000000
