ply
format ascii 1.0
comment VCGLIB generated
obj_info Generated by SPFormer!
element vertex 252
property float x
property float y
property float z
property float nx
property float ny
property float nz
end_header
0.642937 1.248728 2.141399 0.000000 0.000000 0.000000
0.671731 1.249122 2.137345 0.000000 0.000000 0.000000
0.660068 1.246887 2.124601 0.000000 0.000000 0.000000
0.650425 1.254172 2.130723 0.000000 0.000000 0.000000
0.682843 1.218914 2.131347 0.000000 0.000000 0.000000
0.679879 1.218741 2.137270 0.000000 0.000000 0.000000
0.668955 1.266075 2.124230 0.000000 0.000000 0.000000
0.691299 1.220766 2.132956 0.000000 0.000000 0.000000
0.644495 1.247861 2.148777 0.000000 0.000000 0.000000
0.644349 1.266610 2.140022 0.000000 0.000000 0.000000
0.650784 1.259944 2.139292 0.000000 0.000000 0.000000
0.657978 1.271075 2.120148 0.000000 0.000000 0.000000
0.679911 1.234080 2.132521 0.000000 0.000000 0.000000
0.666835 1.240526 2.154758 0.000000 0.000000 0.000000
0.644072 1.263669 2.121470 0.000000 0.000000 0.000000
0.677681 1.249935 2.155833 0.000000 0.000000 0.000000
0.678323 1.235437 2.167174 0.000000 0.000000 0.000000
0.657341 1.268789 2.124902 0.000000 0.000000 0.000000
0.658935 1.231251 2.128999 0.000000 0.000000 0.000000
0.680426 1.222237 2.134112 0.000000 0.000000 0.000000
0.642756 1.277682 2.141814 0.000000 0.000000 0.000000
0.653731 1.246361 2.126862 0.000000 0.000000 0.000000
0.683007 1.213014 2.140444 0.000000 0.000000 0.000000
0.640788 1.238055 2.133916 0.000000 0.000000 0.000000
0.652513 1.266833 2.129884 0.000000 0.000000 0.000000
0.658761 1.272140 2.127252 0.000000 0.000000 0.000000
0.643698 1.244811 2.155329 0.000000 0.000000 0.000000
0.690845 1.217236 2.141394 0.000000 0.000000 0.000000
0.688230 1.218264 2.131315 0.000000 0.000000 0.000000
0.648402 1.241871 2.130554 0.000000 0.000000 0.000000
0.653289 1.244826 2.121451 0.000000 0.000000 0.000000
0.640978 1.243219 2.152252 0.000000 0.000000 0.000000
0.650741 1.234781 2.128104 0.000000 0.000000 0.000000
0.655676 1.248275 2.144133 0.000000 0.000000 0.000000
0.690892 1.217610 2.134651 0.000000 0.000000 0.000000
0.676924 1.238742 2.159053 0.000000 0.000000 0.000000
0.651164 1.276658 2.131162 0.000000 0.000000 0.000000
0.641520 1.242787 2.148840 0.000000 0.000000 0.000000
0.656977 1.270065 2.127714 0.000000 0.000000 0.000000
0.687391 1.235315 2.160191 0.000000 0.000000 0.000000
0.684754 1.223766 2.134323 0.000000 0.000000 0.000000
0.670003 1.236141 2.161555 0.000000 0.000000 0.000000
0.672542 1.239473 2.125555 0.000000 0.000000 0.000000
0.656145 1.252077 2.127800 0.000000 0.000000 0.000000
0.683020 1.217014 2.135343 0.000000 0.000000 0.000000
0.662178 1.270935 2.125468 0.000000 0.000000 0.000000
0.659661 1.236494 2.122975 0.000000 0.000000 0.000000
0.640617 1.269595 2.129216 0.000000 0.000000 0.000000
0.659283 1.234466 2.128203 0.000000 0.000000 0.000000
0.645728 1.279477 2.139675 0.000000 0.000000 0.000000
0.669211 1.243525 2.144672 0.000000 0.000000 0.000000
0.644649 1.243301 2.140867 0.000000 0.000000 0.000000
0.675089 1.241680 2.153563 0.000000 0.000000 0.000000
0.674607 1.233107 2.157403 0.000000 0.000000 0.000000
0.675112 1.234672 2.161496 0.000000 0.000000 0.000000
0.678202 1.233448 2.158691 0.000000 0.000000 0.000000
0.680393 1.239321 2.160107 0.000000 0.000000 0.000000
0.675152 1.232339 2.129823 0.000000 0.000000 0.000000
0.669794 1.243138 2.145416 0.000000 0.000000 0.000000
0.675640 1.238803 2.159424 0.000000 0.000000 0.000000
0.672260 1.242166 2.161801 0.000000 0.000000 0.000000
0.690177 1.212749 2.136992 0.000000 0.000000 0.000000
0.684055 1.218577 2.135611 0.000000 0.000000 0.000000
0.662273 1.246191 2.137695 0.000000 0.000000 0.000000
0.648709 1.238684 2.138256 0.000000 0.000000 0.000000
0.660131 1.249270 2.141594 0.000000 0.000000 0.000000
0.661736 1.274151 2.131611 0.000000 0.000000 0.000000
0.673752 1.235793 2.129332 0.000000 0.000000 0.000000
0.679591 1.221427 2.135543 0.000000 0.000000 0.000000
0.641882 1.241444 2.149979 0.000000 0.000000 0.000000
0.680799 1.222836 2.133932 0.000000 0.000000 0.000000
0.670488 1.237033 2.147801 0.000000 0.000000 0.000000
0.683362 1.211308 2.136240 0.000000 0.000000 0.000000
0.669734 1.272891 2.135082 0.000000 0.000000 0.000000
0.641704 1.247001 2.127228 0.000000 0.000000 0.000000
0.667335 1.279724 2.131070 0.000000 0.000000 0.000000
0.668258 1.236658 2.159591 0.000000 0.000000 0.000000
0.643886 1.241235 2.143718 0.000000 0.000000 0.000000
0.660467 1.272652 2.142241 0.000000 0.000000 0.000000
0.686483 1.213242 2.133570 0.000000 0.000000 0.000000
0.681388 1.220491 2.133547 0.000000 0.000000 0.000000
0.681448 1.223335 2.132880 0.000000 0.000000 0.000000
0.644693 1.238996 2.157509 0.000000 0.000000 0.000000
0.681114 1.216362 2.129900 0.000000 0.000000 0.000000
0.678003 1.233073 2.170971 0.000000 0.000000 0.000000
0.684514 1.216677 2.133317 0.000000 0.000000 0.000000
0.669853 1.241454 2.126633 0.000000 0.000000 0.000000
0.676894 1.233336 2.129634 0.000000 0.000000 0.000000
0.668140 1.273754 2.128539 0.000000 0.000000 0.000000
0.674350 1.234734 2.166774 0.000000 0.000000 0.000000
0.688125 1.222138 2.139688 0.000000 0.000000 0.000000
0.675126 1.232430 2.129612 0.000000 0.000000 0.000000
0.686166 1.218637 2.137913 0.000000 0.000000 0.000000
0.686870 1.219552 2.127068 0.000000 0.000000 0.000000
0.682907 1.224430 2.130668 0.000000 0.000000 0.000000
0.677752 1.230603 2.128081 0.000000 0.000000 0.000000
0.654250 1.240129 2.127164 0.000000 0.000000 0.000000
0.640786 1.245659 2.160805 0.000000 0.000000 0.000000
0.644286 1.242548 2.136892 0.000000 0.000000 0.000000
0.666943 1.258310 2.122045 0.000000 0.000000 0.000000
0.642107 1.243568 2.139502 0.000000 0.000000 0.000000
0.663042 1.247194 2.126840 0.000000 0.000000 0.000000
0.676491 1.229938 2.129238 0.000000 0.000000 0.000000
0.677354 1.236306 2.162850 0.000000 0.000000 0.000000
0.686985 1.218957 2.130540 0.000000 0.000000 0.000000
0.683046 1.216261 2.134384 0.000000 0.000000 0.000000
0.686022 1.217318 2.131896 0.000000 0.000000 0.000000
0.685065 1.227301 2.128310 0.000000 0.000000 0.000000
0.683508 1.218398 2.137191 0.000000 0.000000 0.000000
0.688586 1.203962 2.137355 0.000000 0.000000 0.000000
0.692056 1.201843 2.139745 0.000000 0.000000 0.000000
0.687249 1.211814 2.137445 0.000000 0.000000 0.000000
0.679078 1.228861 2.130713 0.000000 0.000000 0.000000
0.681016 1.217209 2.134743 0.000000 0.000000 0.000000
0.680905 1.227726 2.131243 0.000000 0.000000 0.000000
0.659502 1.250634 2.137267 0.000000 0.000000 0.000000
0.686255 1.222512 2.129769 0.000000 0.000000 0.000000
0.678277 1.224266 2.133579 0.000000 0.000000 0.000000
0.673593 1.233286 2.128430 0.000000 0.000000 0.000000
0.676704 1.240127 2.152603 0.000000 0.000000 0.000000
0.685056 1.215273 2.137125 0.000000 0.000000 0.000000
0.652383 1.278622 2.131563 0.000000 0.000000 0.000000
0.652725 1.234055 2.132524 0.000000 0.000000 0.000000
0.665602 1.275316 2.122713 0.000000 0.000000 0.000000
0.651280 1.241191 2.135931 0.000000 0.000000 0.000000
0.679067 1.225546 2.132037 0.000000 0.000000 0.000000
0.682521 1.229102 2.135575 0.000000 0.000000 0.000000
0.660378 1.272556 2.122579 0.000000 0.000000 0.000000
0.684669 1.221305 2.130432 0.000000 0.000000 0.000000
0.683890 1.240006 2.165925 0.000000 0.000000 0.000000
0.674373 1.235247 2.129120 0.000000 0.000000 0.000000
0.644987 1.247508 2.136075 0.000000 0.000000 0.000000
0.673865 1.239240 2.150191 0.000000 0.000000 0.000000
0.669225 1.243392 2.147443 0.000000 0.000000 0.000000
0.675829 1.241106 2.158906 0.000000 0.000000 0.000000
0.672591 1.237396 2.160722 0.000000 0.000000 0.000000
0.677558 1.238903 2.154682 0.000000 0.000000 0.000000
0.671466 1.236946 2.127295 0.000000 0.000000 0.000000
0.674660 1.237316 2.158820 0.000000 0.000000 0.000000
0.673789 1.239332 2.154848 0.000000 0.000000 0.000000
0.673974 1.240366 2.152939 0.000000 0.000000 0.000000
0.680983 1.236830 2.160228 0.000000 0.000000 0.000000
0.684609 1.214903 2.129747 0.000000 0.000000 0.000000
0.681621 1.221656 2.127395 0.000000 0.000000 0.000000
0.685581 1.218333 2.131559 0.000000 0.000000 0.000000
0.682516 1.227568 2.130367 0.000000 0.000000 0.000000
0.680032 1.237355 2.161102 0.000000 0.000000 0.000000
0.683664 1.240136 2.159305 0.000000 0.000000 0.000000
0.674647 1.229543 2.126013 0.000000 0.000000 0.000000
0.674790 1.227136 2.128840 0.000000 0.000000 0.000000
0.688355 1.215177 2.136718 0.000000 0.000000 0.000000
0.690494 1.213494 2.142843 0.000000 0.000000 0.000000
0.669793 1.233065 2.163710 0.000000 0.000000 0.000000
0.685797 1.216299 2.132270 0.000000 0.000000 0.000000
0.679443 1.220449 2.128202 0.000000 0.000000 0.000000
0.686464 1.211875 2.132005 0.000000 0.000000 0.000000
0.687176 1.217458 2.133587 0.000000 0.000000 0.000000
0.672243 1.234746 2.126942 0.000000 0.000000 0.000000
0.640077 1.238839 2.136946 0.000000 0.000000 0.000000
0.676792 1.229164 2.130289 0.000000 0.000000 0.000000
0.668558 1.239352 2.148761 0.000000 0.000000 0.000000
0.676627 1.229596 2.131791 0.000000 0.000000 0.000000
0.665460 1.241094 2.147337 0.000000 0.000000 0.000000
0.681256 1.228545 2.132639 0.000000 0.000000 0.000000
0.682067 1.220780 2.133780 0.000000 0.000000 0.000000
0.674102 1.236532 2.128799 0.000000 0.000000 0.000000
0.642505 1.276094 2.134762 0.000000 0.000000 0.000000
0.640199 1.274787 2.144367 0.000000 0.000000 0.000000
0.676325 1.221206 2.130569 0.000000 0.000000 0.000000
0.686056 1.216619 2.132280 0.000000 0.000000 0.000000
0.640472 1.239916 2.145342 0.000000 0.000000 0.000000
0.657358 1.232481 2.122983 0.000000 0.000000 0.000000
0.658979 1.231795 2.125029 0.000000 0.000000 0.000000
0.678714 1.230297 2.130495 0.000000 0.000000 0.000000
0.679053 1.228409 2.131973 0.000000 0.000000 0.000000
0.643083 1.278413 2.124829 0.000000 0.000000 0.000000
0.655745 1.278917 2.130726 0.000000 0.000000 0.000000
0.649393 1.235993 2.140480 0.000000 0.000000 0.000000
0.641006 1.274980 2.129025 0.000000 0.000000 0.000000
0.648836 1.234383 2.147606 0.000000 0.000000 0.000000
0.688226 1.210004 2.134911 0.000000 0.000000 0.000000
0.681623 1.240588 2.149036 0.000000 0.000000 0.000000
0.643790 1.234810 2.157608 0.000000 0.000000 0.000000
0.665138 1.276732 2.135038 0.000000 0.000000 0.000000
0.685272 1.213824 2.135311 0.000000 0.000000 0.000000
0.643548 1.234769 2.152992 0.000000 0.000000 0.000000
0.641201 1.240682 2.140309 0.000000 0.000000 0.000000
0.687915 1.241051 2.161050 0.000000 0.000000 0.000000
0.652058 1.230713 2.124885 0.000000 0.000000 0.000000
0.659782 1.270620 2.145417 0.000000 0.000000 0.000000
0.652722 1.231043 2.134984 0.000000 0.000000 0.000000
0.654003 1.268233 2.143295 0.000000 0.000000 0.000000
0.687037 1.211740 2.134701 0.000000 0.000000 0.000000
0.648466 1.236539 2.142662 0.000000 0.000000 0.000000
0.671090 1.244188 2.144492 0.000000 0.000000 0.000000
0.641228 1.245371 2.121089 0.000000 0.000000 0.000000
0.687731 1.213962 2.133282 0.000000 0.000000 0.000000
0.685651 1.216045 2.134595 0.000000 0.000000 0.000000
0.684564 1.213268 2.135826 0.000000 0.000000 0.000000
0.684151 1.213225 2.134362 0.000000 0.000000 0.000000
0.687386 1.219181 2.131179 0.000000 0.000000 0.000000
0.692189 1.213307 2.141683 0.000000 0.000000 0.000000
0.653707 1.265304 2.131979 0.000000 0.000000 0.000000
0.659639 1.272363 2.132832 0.000000 0.000000 0.000000
0.658888 1.270555 2.137933 0.000000 0.000000 0.000000
0.687102 1.213954 2.134001 0.000000 0.000000 0.000000
0.647359 1.243749 2.140124 0.000000 0.000000 0.000000
0.642351 1.235807 2.162093 0.000000 0.000000 0.000000
0.642510 1.242264 2.157387 0.000000 0.000000 0.000000
0.647596 1.238007 2.143858 0.000000 0.000000 0.000000
0.641599 1.235579 2.157010 0.000000 0.000000 0.000000
0.648127 1.235588 2.144051 0.000000 0.000000 0.000000
0.686591 1.214115 2.135943 0.000000 0.000000 0.000000
0.643876 1.235788 2.154781 0.000000 0.000000 0.000000
0.649699 1.236864 2.148580 0.000000 0.000000 0.000000
0.650572 1.236483 2.143090 0.000000 0.000000 0.000000
0.677008 1.240937 2.156397 0.000000 0.000000 0.000000
0.663314 1.248474 2.148926 0.000000 0.000000 0.000000
0.668919 1.241637 2.150632 0.000000 0.000000 0.000000
0.670532 1.237815 2.157195 0.000000 0.000000 0.000000
0.671903 1.238425 2.155199 0.000000 0.000000 0.000000
0.673798 1.234796 2.158737 0.000000 0.000000 0.000000
0.672032 1.239355 2.155150 0.000000 0.000000 0.000000
0.672715 1.237126 2.157625 0.000000 0.000000 0.000000
0.676394 1.238701 2.156247 0.000000 0.000000 0.000000
0.686311 1.240244 2.159632 0.000000 0.000000 0.000000
0.686404 1.211470 2.132101 0.000000 0.000000 0.000000
0.666958 1.241144 2.152221 0.000000 0.000000 0.000000
0.685541 1.219703 2.130749 0.000000 0.000000 0.000000
0.684688 1.215108 2.135345 0.000000 0.000000 0.000000
0.664566 1.245099 2.142916 0.000000 0.000000 0.000000
0.645235 1.230579 2.142293 0.000000 0.000000 0.000000
0.651974 1.234889 2.136984 0.000000 0.000000 0.000000
0.652793 1.230049 2.125775 0.000000 0.000000 0.000000
0.691152 1.215387 2.134135 0.000000 0.000000 0.000000
0.680759 1.235673 2.162611 0.000000 0.000000 0.000000
0.681470 1.239900 2.162300 0.000000 0.000000 0.000000
0.672620 1.240887 2.152750 0.000000 0.000000 0.000000
0.685458 1.244812 2.161924 0.000000 0.000000 0.000000
0.673581 1.237420 2.156881 0.000000 0.000000 0.000000
0.685313 1.219971 2.130501 0.000000 0.000000 0.000000
0.687891 1.212150 2.131443 0.000000 0.000000 0.000000
0.644040 1.275875 2.148040 0.000000 0.000000 0.000000
0.662961 1.243789 2.125084 0.000000 0.000000 0.000000
0.674252 1.239793 2.131161 0.000000 0.000000 0.000000
0.680689 1.240533 2.158382 0.000000 0.000000 0.000000
0.647889 1.240642 2.130759 0.000000 0.000000 0.000000
0.643769 1.236429 2.154022 0.000000 0.000000 0.000000
0.671607 1.243827 2.145539 0.000000 0.000000 0.000000
0.682797 1.219042 2.131678 0.000000 0.000000 0.000000
0.685477 1.221557 2.129536 0.000000 0.000000 0.000000
0.674880 1.242654 2.152258 0.000000 0.000000 0.000000
