ply
format ascii 1.0
comment VCGLIB generated
obj_info Generated by SPFormer!
element vertex 386
property float x
property float y
property float z
property float nx
property float ny
property float nz
end_header
0.092609 1.430485 3.042439 0.000000 0.000000 0.000000
0.058119 1.439247 3.040940 0.000000 0.000000 0.000000
0.088454 1.438792 3.040581 0.000000 0.000000 0.000000
-0.316472 1.390773 3.485857 0.000000 0.000000 0.000000
-0.310555 1.389659 3.505549 0.000000 0.000000 0.000000
-0.306485 1.394641 3.486818 0.000000 0.000000 0.000000
-0.328891 1.397636 3.558935 0.000000 0.000000 0.000000
-0.316778 1.399908 3.555216 0.000000 0.000000 0.000000
-0.303417 1.395159 3.486802 0.000000 0.000000 0.000000
-0.310598 1.390661 3.480632 0.000000 0.000000 0.000000
-0.324283 1.397510 3.552128 0.000000 0.000000 0.000000
-0.312230 1.398328 3.483456 0.000000 0.000000 0.000000
-0.304984 1.399993 3.489154 0.000000 0.000000 0.000000
-0.331019 1.396276 3.553148 0.000000 0.000000 0.000000
-0.322847 1.396808 3.520079 0.000000 0.000000 0.000000
-0.311875 1.398724 3.493524 0.000000 0.000000 0.000000
0.236683 1.394078 2.715724 0.000000 0.000000 0.000000
0.074631 1.439769 3.042436 0.000000 0.000000 0.000000
-0.323941 1.396833 3.497815 0.000000 0.000000 0.000000
-0.316539 1.391478 3.498769 0.000000 0.000000 0.000000
0.234430 1.394859 2.713282 0.000000 0.000000 0.000000
0.235391 1.394446 2.716196 0.000000 0.000000 0.000000
-0.312197 1.398133 3.484702 0.000000 0.000000 0.000000
0.229606 1.394895 2.718597 0.000000 0.000000 0.000000
0.064334 1.437848 3.049532 0.000000 0.000000 0.000000
0.057594 1.436641 3.040837 0.000000 0.000000 0.000000
0.083756 1.419769 3.045013 0.000000 0.000000 0.000000
-0.321196 1.394950 3.492565 0.000000 0.000000 0.000000
0.234589 1.396313 2.717824 0.000000 0.000000 0.000000
0.237552 1.390564 2.722041 0.000000 0.000000 0.000000
-0.297313 1.398183 3.491438 0.000000 0.000000 0.000000
0.232793 1.398084 2.714335 0.000000 0.000000 0.000000
-0.314329 1.395066 3.487325 0.000000 0.000000 0.000000
-0.316018 1.399667 3.489897 0.000000 0.000000 0.000000
0.235717 1.394501 2.720525 0.000000 0.000000 0.000000
0.060370 1.438693 3.063350 0.000000 0.000000 0.000000
0.113609 1.438252 3.063942 0.000000 0.000000 0.000000
0.114201 1.438768 3.061294 0.000000 0.000000 0.000000
0.232423 1.398653 2.712763 0.000000 0.000000 0.000000
0.235040 1.394420 2.718588 0.000000 0.000000 0.000000
0.243734 1.392180 2.718101 0.000000 0.000000 0.000000
0.046400 1.439332 3.076334 0.000000 0.000000 0.000000
0.081449 1.416737 3.040413 0.000000 0.000000 0.000000
0.081096 1.416181 3.040610 0.000000 0.000000 0.000000
0.074537 1.414750 3.050374 0.000000 0.000000 0.000000
0.081471 1.413816 3.045074 0.000000 0.000000 0.000000
0.092854 1.436761 3.046873 0.000000 0.000000 0.000000
0.237256 1.392301 2.718375 0.000000 0.000000 0.000000
0.232040 1.396166 2.713126 0.000000 0.000000 0.000000
0.238833 1.390068 2.723560 0.000000 0.000000 0.000000
0.100064 1.436126 3.052020 0.000000 0.000000 0.000000
0.237077 1.394029 2.719357 0.000000 0.000000 0.000000
0.235112 1.395218 2.716361 0.000000 0.000000 0.000000
0.235589 1.394196 2.718121 0.000000 0.000000 0.000000
0.073819 1.411054 3.042437 0.000000 0.000000 0.000000
0.035172 1.435811 3.076353 0.000000 0.000000 0.000000
0.111709 1.436033 3.058046 0.000000 0.000000 0.000000
0.078746 1.410993 3.043560 0.000000 0.000000 0.000000
0.103803 1.438486 3.050873 0.000000 0.000000 0.000000
0.235649 1.398227 2.713363 0.000000 0.000000 0.000000
0.237196 1.394087 2.718756 0.000000 0.000000 0.000000
0.107363 1.438096 3.050839 0.000000 0.000000 0.000000
0.230129 1.399787 2.707339 0.000000 0.000000 0.000000
0.097279 1.438559 3.045300 0.000000 0.000000 0.000000
-0.304628 1.392737 3.483019 0.000000 0.000000 0.000000
0.081437 1.416404 3.048131 0.000000 0.000000 0.000000
0.076562 1.411985 3.047855 0.000000 0.000000 0.000000
0.107265 1.438803 3.055903 0.000000 0.000000 0.000000
0.233338 1.399107 2.718118 0.000000 0.000000 0.000000
0.235479 1.397600 2.720013 0.000000 0.000000 0.000000
0.237476 1.388614 2.725805 0.000000 0.000000 0.000000
0.236150 1.389557 2.718114 0.000000 0.000000 0.000000
0.233185 1.395660 2.710684 0.000000 0.000000 0.000000
0.234227 1.392625 2.715307 0.000000 0.000000 0.000000
0.084735 1.424824 3.041604 0.000000 0.000000 0.000000
-0.312055 1.395176 3.480380 0.000000 0.000000 0.000000
0.079582 1.415085 3.041846 0.000000 0.000000 0.000000
0.081297 1.419472 3.042150 0.000000 0.000000 0.000000
0.082250 1.417834 3.044436 0.000000 0.000000 0.000000
0.083362 1.419742 3.040325 0.000000 0.000000 0.000000
-0.311173 1.393019 3.482697 0.000000 0.000000 0.000000
0.054265 1.439078 3.074114 0.000000 0.000000 0.000000
0.065427 1.365055 3.144348 0.000000 0.000000 0.000000
0.075317 1.401496 3.105541 0.000000 0.000000 0.000000
0.072165 1.385388 3.117681 0.000000 0.000000 0.000000
0.078610 1.404244 3.077527 0.000000 0.000000 0.000000
0.071956 1.409112 3.070539 0.000000 0.000000 0.000000
0.075088 1.386155 3.081553 0.000000 0.000000 0.000000
0.071929 1.386307 3.123587 0.000000 0.000000 0.000000
0.071202 1.379384 3.116229 0.000000 0.000000 0.000000
0.067830 1.368667 3.115153 0.000000 0.000000 0.000000
0.069559 1.397972 3.075022 0.000000 0.000000 0.000000
0.073212 1.399821 3.098013 0.000000 0.000000 0.000000
0.072172 1.385849 3.120008 0.000000 0.000000 0.000000
0.076519 1.410182 3.061629 0.000000 0.000000 0.000000
0.072158 1.392141 3.123522 0.000000 0.000000 0.000000
0.066947 1.365372 3.146300 0.000000 0.000000 0.000000
0.063968 1.383378 3.134935 0.000000 0.000000 0.000000
0.073592 1.403776 3.073051 0.000000 0.000000 0.000000
0.072594 1.394614 3.086741 0.000000 0.000000 0.000000
0.062760 1.373243 3.141793 0.000000 0.000000 0.000000
0.071945 1.392656 3.107000 0.000000 0.000000 0.000000
0.073173 1.376207 3.096843 0.000000 0.000000 0.000000
0.070019 1.363753 3.105864 0.000000 0.000000 0.000000
0.069529 1.391003 3.072810 0.000000 0.000000 0.000000
0.073437 1.382500 3.094934 0.000000 0.000000 0.000000
0.077656 1.413870 3.061477 0.000000 0.000000 0.000000
0.071040 1.375391 3.114898 0.000000 0.000000 0.000000
0.073749 1.379167 3.129190 0.000000 0.000000 0.000000
0.064666 1.369084 3.131453 0.000000 0.000000 0.000000
0.073024 1.399763 3.067773 0.000000 0.000000 0.000000
0.065774 1.374007 3.126357 0.000000 0.000000 0.000000
0.076702 1.411503 3.070305 0.000000 0.000000 0.000000
0.073227 1.389749 3.093530 0.000000 0.000000 0.000000
0.064462 1.364474 3.135721 0.000000 0.000000 0.000000
0.073912 1.385724 3.106034 0.000000 0.000000 0.000000
0.074598 1.364441 3.114525 0.000000 0.000000 0.000000
0.074013 1.400636 3.094731 0.000000 0.000000 0.000000
0.075264 1.398945 3.085287 0.000000 0.000000 0.000000
0.062284 1.368934 3.104392 0.000000 0.000000 0.000000
0.072017 1.407169 3.100601 0.000000 0.000000 0.000000
0.070716 1.370611 3.111804 0.000000 0.000000 0.000000
0.071457 1.389376 3.076979 0.000000 0.000000 0.000000
0.066638 1.371511 3.126154 0.000000 0.000000 0.000000
0.071130 1.374549 3.113140 0.000000 0.000000 0.000000
0.071979 1.377198 3.100524 0.000000 0.000000 0.000000
0.073438 1.397314 3.098084 0.000000 0.000000 0.000000
0.072276 1.387018 3.121196 0.000000 0.000000 0.000000
0.074493 1.398873 3.081135 0.000000 0.000000 0.000000
0.075459 1.407509 3.058306 0.000000 0.000000 0.000000
0.066330 1.360784 3.123351 0.000000 0.000000 0.000000
0.075664 1.400890 3.099831 0.000000 0.000000 0.000000
0.071876 1.388425 3.082559 0.000000 0.000000 0.000000
0.066288 1.371141 3.118233 0.000000 0.000000 0.000000
0.077380 1.404964 3.062196 0.000000 0.000000 0.000000
0.074515 1.392492 3.112488 0.000000 0.000000 0.000000
0.072152 1.385915 3.117998 0.000000 0.000000 0.000000
0.066589 1.390690 3.089181 0.000000 0.000000 0.000000
0.070363 1.371484 3.140940 0.000000 0.000000 0.000000
0.073854 1.401958 3.064312 0.000000 0.000000 0.000000
0.063487 1.368757 3.151065 0.000000 0.000000 0.000000
0.073083 1.396990 3.112665 0.000000 0.000000 0.000000
0.070395 1.406944 3.093102 0.000000 0.000000 0.000000
0.073094 1.378067 3.090114 0.000000 0.000000 0.000000
0.065412 1.370977 3.140662 0.000000 0.000000 0.000000
0.069351 1.362835 3.110392 0.000000 0.000000 0.000000
0.073604 1.394511 3.099956 0.000000 0.000000 0.000000
0.070619 1.406531 3.114210 0.000000 0.000000 0.000000
0.072030 1.405754 3.096758 0.000000 0.000000 0.000000
0.073869 1.384525 3.103569 0.000000 0.000000 0.000000
0.072632 1.369048 3.126291 0.000000 0.000000 0.000000
0.076028 1.381366 3.130123 0.000000 0.000000 0.000000
0.070011 1.384915 3.130702 0.000000 0.000000 0.000000
0.069518 1.366406 3.139240 0.000000 0.000000 0.000000
0.075106 1.397409 3.109744 0.000000 0.000000 0.000000
0.073443 1.398922 3.094190 0.000000 0.000000 0.000000
0.066882 1.386410 3.130396 0.000000 0.000000 0.000000
0.071742 1.398139 3.121832 0.000000 0.000000 0.000000
0.072639 1.394194 3.075691 0.000000 0.000000 0.000000
0.073189 1.381191 3.107662 0.000000 0.000000 0.000000
0.073258 1.375289 3.092578 0.000000 0.000000 0.000000
0.070296 1.386605 3.097430 0.000000 0.000000 0.000000
0.074804 1.404166 3.086300 0.000000 0.000000 0.000000
0.073634 1.388192 3.085333 0.000000 0.000000 0.000000
0.070521 1.407077 3.073318 0.000000 0.000000 0.000000
0.073683 1.405265 3.074490 0.000000 0.000000 0.000000
0.075640 1.394717 3.081037 0.000000 0.000000 0.000000
0.074176 1.409354 3.074878 0.000000 0.000000 0.000000
0.075371 1.407830 3.064345 0.000000 0.000000 0.000000
0.064074 1.409362 3.082703 0.000000 0.000000 0.000000
0.075164 1.406111 3.070311 0.000000 0.000000 0.000000
0.071740 1.359716 3.124491 0.000000 0.000000 0.000000
0.063942 1.377827 3.135157 0.000000 0.000000 0.000000
0.072963 1.398532 3.069675 0.000000 0.000000 0.000000
0.071961 1.400842 3.071301 0.000000 0.000000 0.000000
0.064735 1.356990 3.141161 0.000000 0.000000 0.000000
0.075827 1.409396 3.064692 0.000000 0.000000 0.000000
0.071672 1.410671 3.092087 0.000000 0.000000 0.000000
0.065502 1.355026 3.125251 0.000000 0.000000 0.000000
0.071315 1.377014 3.107681 0.000000 0.000000 0.000000
0.067398 1.359065 3.118909 0.000000 0.000000 0.000000
0.072413 1.370794 3.096295 0.000000 0.000000 0.000000
0.068431 1.359627 3.105834 0.000000 0.000000 0.000000
0.062842 1.361707 3.130372 0.000000 0.000000 0.000000
0.063589 1.357970 3.125583 0.000000 0.000000 0.000000
0.076052 1.370820 3.094575 0.000000 0.000000 0.000000
0.064085 1.360799 3.135114 0.000000 0.000000 0.000000
0.063548 1.396800 3.120410 0.000000 0.000000 0.000000
0.070052 1.368434 3.106931 0.000000 0.000000 0.000000
0.066480 1.362659 3.111141 0.000000 0.000000 0.000000
0.065995 1.363478 3.123432 0.000000 0.000000 0.000000
0.074644 1.391439 3.095290 0.000000 0.000000 0.000000
0.068917 1.366163 3.139132 0.000000 0.000000 0.000000
0.073303 1.397478 3.096018 0.000000 0.000000 0.000000
0.078426 1.399634 3.083042 0.000000 0.000000 0.000000
0.079318 1.403050 3.093422 0.000000 0.000000 0.000000
0.071839 1.420131 3.076059 0.000000 0.000000 0.000000
0.072290 1.401126 3.068851 0.000000 0.000000 0.000000
0.067082 1.357796 3.140058 0.000000 0.000000 0.000000
0.073437 1.411435 3.074068 0.000000 0.000000 0.000000
0.070838 1.380176 3.123487 0.000000 0.000000 0.000000
0.067616 1.375135 3.135269 0.000000 0.000000 0.000000
0.068019 1.391257 3.126876 0.000000 0.000000 0.000000
0.066416 1.385327 3.134152 0.000000 0.000000 0.000000
0.067069 1.395790 3.126726 0.000000 0.000000 0.000000
0.070143 1.369076 3.134955 0.000000 0.000000 0.000000
0.074155 1.392199 3.105391 0.000000 0.000000 0.000000
0.072300 1.391522 3.119725 0.000000 0.000000 0.000000
0.067559 1.380236 3.136962 0.000000 0.000000 0.000000
0.070699 1.382096 3.129962 0.000000 0.000000 0.000000
0.064797 1.354704 3.134666 0.000000 0.000000 0.000000
0.061839 1.355667 3.132840 0.000000 0.000000 0.000000
0.063831 1.355070 3.121268 0.000000 0.000000 0.000000
0.067375 1.343454 3.139077 0.000000 0.000000 0.000000
0.068947 1.376704 3.127336 0.000000 0.000000 0.000000
0.072019 1.373299 3.139680 0.000000 0.000000 0.000000
0.068096 1.369444 3.133535 0.000000 0.000000 0.000000
0.061923 1.366225 3.118742 0.000000 0.000000 0.000000
0.077451 1.409466 3.055650 0.000000 0.000000 0.000000
0.073736 1.402668 3.067765 0.000000 0.000000 0.000000
0.073095 1.412244 3.076186 0.000000 0.000000 0.000000
0.073349 1.410810 3.076648 0.000000 0.000000 0.000000
0.065746 1.361981 3.142939 0.000000 0.000000 0.000000
0.061427 1.353959 3.147454 0.000000 0.000000 0.000000
0.064886 1.353646 3.142834 0.000000 0.000000 0.000000
0.070848 1.401916 3.071561 0.000000 0.000000 0.000000
0.066711 1.356851 3.144576 0.000000 0.000000 0.000000
0.063424 1.366094 3.141731 0.000000 0.000000 0.000000
0.062558 1.393092 3.134367 0.000000 0.000000 0.000000
0.077221 1.409611 3.057678 0.000000 0.000000 0.000000
0.071270 1.370513 3.143872 0.000000 0.000000 0.000000
0.074656 1.409541 3.072437 0.000000 0.000000 0.000000
0.071427 1.364147 3.133155 0.000000 0.000000 0.000000
0.076329 1.396589 3.115184 0.000000 0.000000 0.000000
0.066888 1.391273 3.128286 0.000000 0.000000 0.000000
0.068411 1.377435 3.136045 0.000000 0.000000 0.000000
0.073498 1.384809 3.076934 0.000000 0.000000 0.000000
0.069761 1.399704 3.113763 0.000000 0.000000 0.000000
0.071704 1.395773 3.066357 0.000000 0.000000 0.000000
0.074427 1.405856 3.110418 0.000000 0.000000 0.000000
0.071321 1.399024 3.085733 0.000000 0.000000 0.000000
0.075166 1.411896 3.093706 0.000000 0.000000 0.000000
0.073877 1.395101 3.086335 0.000000 0.000000 0.000000
0.071441 1.411449 3.089800 0.000000 0.000000 0.000000
0.064665 1.413918 3.113417 0.000000 0.000000 0.000000
0.062836 1.405624 3.112178 0.000000 0.000000 0.000000
0.066527 1.371459 3.143408 0.000000 0.000000 0.000000
0.066749 1.364353 3.091513 0.000000 0.000000 0.000000
0.064513 1.383076 3.137169 0.000000 0.000000 0.000000
0.064125 1.360373 3.121023 0.000000 0.000000 0.000000
0.061509 1.355185 3.126754 0.000000 0.000000 0.000000
0.067749 1.353665 3.126417 0.000000 0.000000 0.000000
0.064692 1.348253 3.123443 0.000000 0.000000 0.000000
0.063473 1.353233 3.130834 0.000000 0.000000 0.000000
0.074590 1.408010 3.086778 0.000000 0.000000 0.000000
0.070110 1.364720 3.101984 0.000000 0.000000 0.000000
0.066060 1.398925 3.128296 0.000000 0.000000 0.000000
0.071969 1.414213 3.097028 0.000000 0.000000 0.000000
0.071452 1.412357 3.097565 0.000000 0.000000 0.000000
0.063885 1.408383 3.094848 0.000000 0.000000 0.000000
0.065873 1.420200 3.088137 0.000000 0.000000 0.000000
0.065274 1.357639 3.128826 0.000000 0.000000 0.000000
0.061742 1.357962 3.146852 0.000000 0.000000 0.000000
0.076774 1.410832 3.058785 0.000000 0.000000 0.000000
0.064712 1.350448 3.150069 0.000000 0.000000 0.000000
0.059110 1.368836 3.145243 0.000000 0.000000 0.000000
0.063048 1.382721 3.141920 0.000000 0.000000 0.000000
0.072014 1.394883 3.079375 0.000000 0.000000 0.000000
0.072331 1.395780 3.062178 0.000000 0.000000 0.000000
0.065566 1.401525 3.076193 0.000000 0.000000 0.000000
0.073074 1.400949 3.057111 0.000000 0.000000 0.000000
0.073616 1.374981 3.122224 0.000000 0.000000 0.000000
0.071304 1.375610 3.106563 0.000000 0.000000 0.000000
0.074326 1.374816 3.101634 0.000000 0.000000 0.000000
0.068426 1.376110 3.094543 0.000000 0.000000 0.000000
0.071735 1.363621 3.128896 0.000000 0.000000 0.000000
0.070361 1.356333 3.114424 0.000000 0.000000 0.000000
0.063509 1.359751 3.103384 0.000000 0.000000 0.000000
0.064660 1.352865 3.131786 0.000000 0.000000 0.000000
0.066573 1.351070 3.111012 0.000000 0.000000 0.000000
0.076398 1.377030 3.114680 0.000000 0.000000 0.000000
0.062866 1.359384 3.114370 0.000000 0.000000 0.000000
0.067653 1.371206 3.139818 0.000000 0.000000 0.000000
0.063493 1.354198 3.140421 0.000000 0.000000 0.000000
0.067573 1.354506 3.143130 0.000000 0.000000 0.000000
0.070119 1.351887 3.112906 0.000000 0.000000 0.000000
0.066182 1.357597 3.118394 0.000000 0.000000 0.000000
0.070846 1.353939 3.133064 0.000000 0.000000 0.000000
0.069963 1.349208 3.133155 0.000000 0.000000 0.000000
0.056542 1.351492 3.136020 0.000000 0.000000 0.000000
0.073379 1.348075 3.121843 0.000000 0.000000 0.000000
0.066360 1.354793 3.116307 0.000000 0.000000 0.000000
0.066202 1.351445 3.134402 0.000000 0.000000 0.000000
0.071231 1.357953 3.131148 0.000000 0.000000 0.000000
0.067541 1.355064 3.123137 0.000000 0.000000 0.000000
0.061894 1.346887 3.135239 0.000000 0.000000 0.000000
0.069466 1.393156 3.130190 0.000000 0.000000 0.000000
0.071027 1.352953 3.117592 0.000000 0.000000 0.000000
0.067361 1.363829 3.103883 0.000000 0.000000 0.000000
0.071601 1.415421 3.084215 0.000000 0.000000 0.000000
0.065687 1.360958 3.110991 0.000000 0.000000 0.000000
0.075214 1.416239 3.091634 0.000000 0.000000 0.000000
0.073439 1.407588 3.088248 0.000000 0.000000 0.000000
0.071732 1.413190 3.075668 0.000000 0.000000 0.000000
0.063412 1.370779 3.139864 0.000000 0.000000 0.000000
0.071823 1.378328 3.085932 0.000000 0.000000 0.000000
0.074679 1.408887 3.078684 0.000000 0.000000 0.000000
0.078158 1.413465 3.060466 0.000000 0.000000 0.000000
0.071128 1.379981 3.080860 0.000000 0.000000 0.000000
0.073108 1.382248 3.075017 0.000000 0.000000 0.000000
0.073113 1.410851 3.103591 0.000000 0.000000 0.000000
0.073002 1.409973 3.098563 0.000000 0.000000 0.000000
0.079324 1.413422 3.051283 0.000000 0.000000 0.000000
0.074218 1.415662 3.064758 0.000000 0.000000 0.000000
0.074643 1.406220 3.106006 0.000000 0.000000 0.000000
0.075938 1.404315 3.109271 0.000000 0.000000 0.000000
0.076904 1.412717 3.063278 0.000000 0.000000 0.000000
0.077765 1.416337 3.060587 0.000000 0.000000 0.000000
0.071411 1.415660 3.075341 0.000000 0.000000 0.000000
0.072096 1.409943 3.097007 0.000000 0.000000 0.000000
0.076391 1.413435 3.066730 0.000000 0.000000 0.000000
0.073910 1.407401 3.106982 0.000000 0.000000 0.000000
0.070541 1.414775 3.091359 0.000000 0.000000 0.000000
0.070846 1.412250 3.083009 0.000000 0.000000 0.000000
0.072822 1.413860 3.081470 0.000000 0.000000 0.000000
0.078351 1.413142 3.059177 0.000000 0.000000 0.000000
0.073810 1.410952 3.086936 0.000000 0.000000 0.000000
0.072636 1.416000 3.069340 0.000000 0.000000 0.000000
0.073357 1.414178 3.074646 0.000000 0.000000 0.000000
0.075918 1.396905 3.073657 0.000000 0.000000 0.000000
0.067693 1.347973 3.130573 0.000000 0.000000 0.000000
0.070976 1.351455 3.139833 0.000000 0.000000 0.000000
0.070447 1.355504 3.126522 0.000000 0.000000 0.000000
0.061858 1.362536 3.139312 0.000000 0.000000 0.000000
0.074853 1.413964 3.070011 0.000000 0.000000 0.000000
0.071951 1.412426 3.080738 0.000000 0.000000 0.000000
0.064122 1.353418 3.139035 0.000000 0.000000 0.000000
0.063293 1.370836 3.135620 0.000000 0.000000 0.000000
0.067712 1.352769 3.131892 0.000000 0.000000 0.000000
0.072809 1.399434 3.125000 0.000000 0.000000 0.000000
0.079313 1.411252 3.052111 0.000000 0.000000 0.000000
0.056007 1.366454 3.125205 0.000000 0.000000 0.000000
0.064530 1.351646 3.138865 0.000000 0.000000 0.000000
0.070985 1.384571 3.081730 0.000000 0.000000 0.000000
0.068774 1.368663 3.095241 0.000000 0.000000 0.000000
0.070732 1.372908 3.085603 0.000000 0.000000 0.000000
0.067121 1.363617 3.098291 0.000000 0.000000 0.000000
0.070885 1.411628 3.104656 0.000000 0.000000 0.000000
0.070198 1.384749 3.126978 0.000000 0.000000 0.000000
0.074727 1.400391 3.121480 0.000000 0.000000 0.000000
0.072606 1.389904 3.124281 0.000000 0.000000 0.000000
0.069963 1.397383 3.127258 0.000000 0.000000 0.000000
0.075695 1.413380 3.088878 0.000000 0.000000 0.000000
0.073667 1.407994 3.106650 0.000000 0.000000 0.000000
0.071055 1.396951 3.119710 0.000000 0.000000 0.000000
0.073650 1.402016 3.116913 0.000000 0.000000 0.000000
0.072217 1.410000 3.110807 0.000000 0.000000 0.000000
0.076191 1.408488 3.104990 0.000000 0.000000 0.000000
0.081340 1.406154 3.049782 0.000000 0.000000 0.000000
0.067722 1.355533 3.135509 0.000000 0.000000 0.000000
0.062331 1.370818 3.134484 0.000000 0.000000 0.000000
0.073479 1.376405 3.094866 0.000000 0.000000 0.000000
0.060364 1.357815 3.133236 0.000000 0.000000 0.000000
0.072624 1.361482 3.115442 0.000000 0.000000 0.000000
0.074160 1.366534 3.104421 0.000000 0.000000 0.000000
0.075323 1.369242 3.111112 0.000000 0.000000 0.000000
0.061429 1.351351 3.137238 0.000000 0.000000 0.000000
0.067285 1.379737 3.136494 0.000000 0.000000 0.000000
0.065982 1.356928 3.144142 0.000000 0.000000 0.000000
0.063681 1.351457 3.140805 0.000000 0.000000 0.000000
0.069627 1.356000 3.140218 0.000000 0.000000 0.000000
0.061979 1.361744 3.145308 0.000000 0.000000 0.000000
0.072368 1.401464 3.121741 0.000000 0.000000 0.000000
0.071720 1.411213 3.107462 0.000000 0.000000 0.000000
0.075915 1.408719 3.111630 0.000000 0.000000 0.000000
0.074127 1.408518 3.109186 0.000000 0.000000 0.000000
0.079473 1.412321 3.049854 0.000000 0.000000 0.000000
0.069742 1.385456 3.075999 0.000000 0.000000 0.000000
0.073575 1.389435 3.080391 0.000000 0.000000 0.000000
0.071904 1.388281 3.071076 0.000000 0.000000 0.000000
0.074012 1.381943 3.093628 0.000000 0.000000 0.000000
0.073649 1.387878 3.069304 0.000000 0.000000 0.000000
0.072251 1.408488 3.109837 0.000000 0.000000 0.000000
0.071276 1.404223 3.120988 0.000000 0.000000 0.000000
0.078865 1.400571 3.061952 0.000000 0.000000 0.000000
0.075919 1.402813 3.059478 0.000000 0.000000 0.000000
