ply
format ascii 1.0
comment VCGLIB generated
obj_info Generated by SPFormer!
element vertex 238
property float x
property float y
property float z
property float nx
property float ny
property float nz
end_header
0.832919 0.191271 1.545600 0.000000 0.000000 0.000000
0.835241 0.189126 1.534218 0.000000 0.000000 0.000000
0.814630 0.188818 1.537660 0.000000 0.000000 0.000000
0.838124 0.182878 1.539326 0.000000 0.000000 0.000000
0.839916 0.177113 1.536429 0.000000 0.000000 0.000000
0.835245 0.178276 1.538514 0.000000 0.000000 0.000000
0.836001 0.179913 1.539579 0.000000 0.000000 0.000000
0.838201 0.175810 1.543954 0.000000 0.000000 0.000000
0.837184 0.171845 1.538224 0.000000 0.000000 0.000000
0.838208 0.175663 1.536172 0.000000 0.000000 0.000000
0.838250 0.173863 1.541847 0.000000 0.000000 0.000000
0.825951 0.196034 1.521355 0.000000 0.000000 0.000000
0.834244 0.179337 1.541127 0.000000 0.000000 0.000000
0.838813 0.175626 1.535949 0.000000 0.000000 0.000000
0.838735 0.176223 1.541810 0.000000 0.000000 0.000000
0.834171 0.183322 1.537556 0.000000 0.000000 0.000000
0.829141 0.185039 1.532856 0.000000 0.000000 0.000000
0.822815 0.193239 1.520628 0.000000 0.000000 0.000000
0.834262 0.181563 1.537515 0.000000 0.000000 0.000000
0.838014 0.180962 1.540830 0.000000 0.000000 0.000000
0.836551 0.177646 1.539561 0.000000 0.000000 0.000000
0.838112 0.175579 1.536980 0.000000 0.000000 0.000000
0.837460 0.176139 1.535249 0.000000 0.000000 0.000000
0.837951 0.177501 1.547614 0.000000 0.000000 0.000000
0.820481 0.192992 1.522710 0.000000 0.000000 0.000000
0.916137 0.208288 1.121584 0.000000 0.000000 0.000000
0.841370 0.200434 1.547951 0.000000 0.000000 0.000000
0.838835 0.172980 1.534993 0.000000 0.000000 0.000000
0.834889 0.189450 1.538397 0.000000 0.000000 0.000000
0.240619 -0.003588 1.038858 0.000000 0.000000 0.000000
0.836705 0.183065 1.537447 0.000000 0.000000 0.000000
0.825588 0.190522 1.526044 0.000000 0.000000 0.000000
0.925116 0.202810 1.123425 0.000000 0.000000 0.000000
0.835314 0.182534 1.536940 0.000000 0.000000 0.000000
0.829084 0.185763 1.529787 0.000000 0.000000 0.000000
0.915279 0.200803 1.120932 0.000000 0.000000 0.000000
0.827169 0.186902 1.525761 0.000000 0.000000 0.000000
0.829468 0.188931 1.532582 0.000000 0.000000 0.000000
0.828096 0.190867 1.526228 0.000000 0.000000 0.000000
0.839105 0.184415 1.532184 0.000000 0.000000 0.000000
0.827855 0.191251 1.526890 0.000000 0.000000 0.000000
0.821223 0.188568 1.522181 0.000000 0.000000 0.000000
0.834285 0.182847 1.535591 0.000000 0.000000 0.000000
0.830916 0.185276 1.533481 0.000000 0.000000 0.000000
0.834835 0.182707 1.531957 0.000000 0.000000 0.000000
0.823638 0.195596 1.524058 0.000000 0.000000 0.000000
0.827131 0.192228 1.528553 0.000000 0.000000 0.000000
0.838314 0.172804 1.539084 0.000000 0.000000 0.000000
0.838645 0.172556 1.541790 0.000000 0.000000 0.000000
0.832518 0.179805 1.538209 0.000000 0.000000 0.000000
0.838192 0.173505 1.541861 0.000000 0.000000 0.000000
0.834626 0.172882 1.536538 0.000000 0.000000 0.000000
0.825768 0.187333 1.528468 0.000000 0.000000 0.000000
0.834090 0.185530 1.526653 0.000000 0.000000 0.000000
0.839212 0.173611 1.539247 0.000000 0.000000 0.000000
0.904587 0.200923 1.120953 0.000000 0.000000 0.000000
0.834211 0.180784 1.540263 0.000000 0.000000 0.000000
0.825634 0.197386 1.521090 0.000000 0.000000 0.000000
0.825113 0.194691 1.521860 0.000000 0.000000 0.000000
0.824376 0.194590 1.521891 0.000000 0.000000 0.000000
0.827452 0.190500 1.531820 0.000000 0.000000 0.000000
0.829444 0.183147 1.531536 0.000000 0.000000 0.000000
0.832640 0.179917 1.531369 0.000000 0.000000 0.000000
0.825536 0.189548 1.537195 0.000000 0.000000 0.000000
0.829802 0.188101 1.534817 0.000000 0.000000 0.000000
0.828162 0.189954 1.528204 0.000000 0.000000 0.000000
0.831290 0.185757 1.532502 0.000000 0.000000 0.000000
0.837170 0.174032 1.536810 0.000000 0.000000 0.000000
0.885930 0.200541 1.123111 0.000000 0.000000 0.000000
0.494917 -0.466409 0.992321 0.000000 0.000000 0.000000
0.508474 -0.473235 0.982695 0.000000 0.000000 0.000000
0.508979 -0.440587 0.948743 0.000000 0.000000 0.000000
0.508540 -0.473818 0.973244 0.000000 0.000000 0.000000
0.504016 -0.443933 0.954459 0.000000 0.000000 0.000000
0.508575 -0.466918 0.970298 0.000000 0.000000 0.000000
0.503183 -0.478533 0.958018 0.000000 0.000000 0.000000
0.510721 -0.443370 0.950473 0.000000 0.000000 0.000000
0.506507 -0.442481 0.945308 0.000000 0.000000 0.000000
0.498723 -0.461058 0.979140 0.000000 0.000000 0.000000
0.516301 -0.479268 0.979290 0.000000 0.000000 0.000000
0.506967 -0.471404 0.957545 0.000000 0.000000 0.000000
0.508213 -0.463705 0.981173 0.000000 0.000000 0.000000
0.501053 -0.450429 0.981547 0.000000 0.000000 0.000000
0.505165 -0.466344 0.971538 0.000000 0.000000 0.000000
0.502332 -0.453784 0.949648 0.000000 0.000000 0.000000
0.503145 -0.450819 0.941619 0.000000 0.000000 0.000000
0.506551 -0.475259 0.962179 0.000000 0.000000 0.000000
0.505750 -0.476870 0.956519 0.000000 0.000000 0.000000
0.509131 -0.443479 0.951201 0.000000 0.000000 0.000000
0.514909 -0.473734 0.976714 0.000000 0.000000 0.000000
0.507906 -0.475201 0.970523 0.000000 0.000000 0.000000
0.505999 -0.447898 0.959702 0.000000 0.000000 0.000000
0.500299 -0.468401 0.965896 0.000000 0.000000 0.000000
0.508837 -0.443960 0.959458 0.000000 0.000000 0.000000
0.504167 -0.457942 0.968789 0.000000 0.000000 0.000000
0.506444 -0.454691 0.953090 0.000000 0.000000 0.000000
0.510451 -0.445893 0.956968 0.000000 0.000000 0.000000
0.492734 -0.479233 0.978627 0.000000 0.000000 0.000000
0.516193 -0.464021 0.992028 0.000000 0.000000 0.000000
0.512584 -0.472741 0.952174 0.000000 0.000000 0.000000
0.514753 -0.466228 0.985076 0.000000 0.000000 0.000000
0.510220 -0.467913 0.986522 0.000000 0.000000 0.000000
0.496934 -0.461965 0.984209 0.000000 0.000000 0.000000
0.509831 -0.470256 0.984089 0.000000 0.000000 0.000000
0.496563 -0.470184 0.963465 0.000000 0.000000 0.000000
0.506167 -0.472809 0.959102 0.000000 0.000000 0.000000
0.507628 -0.474228 0.969011 0.000000 0.000000 0.000000
0.508586 -0.473213 0.977074 0.000000 0.000000 0.000000
0.504545 -0.467724 0.953827 0.000000 0.000000 0.000000
0.507316 -0.470207 0.957371 0.000000 0.000000 0.000000
0.507767 -0.471869 0.987642 0.000000 0.000000 0.000000
0.512157 -0.478246 0.976129 0.000000 0.000000 0.000000
0.505394 -0.465785 0.969444 0.000000 0.000000 0.000000
0.516675 -0.455434 0.985253 0.000000 0.000000 0.000000
0.508733 -0.473005 0.962299 0.000000 0.000000 0.000000
0.503828 -0.453690 0.945331 0.000000 0.000000 0.000000
0.505880 -0.462740 0.959689 0.000000 0.000000 0.000000
0.506416 -0.472141 0.960292 0.000000 0.000000 0.000000
0.508884 -0.446451 0.952886 0.000000 0.000000 0.000000
0.507141 -0.463418 0.954548 0.000000 0.000000 0.000000
0.504505 -0.459044 0.945846 0.000000 0.000000 0.000000
0.505418 -0.455726 0.951578 0.000000 0.000000 0.000000
0.509604 -0.445033 0.952802 0.000000 0.000000 0.000000
0.511097 -0.443394 0.954785 0.000000 0.000000 0.000000
0.509552 -0.444222 0.953967 0.000000 0.000000 0.000000
0.511139 -0.451133 0.946973 0.000000 0.000000 0.000000
0.494578 -0.467898 0.986016 0.000000 0.000000 0.000000
0.503044 -0.473784 0.971139 0.000000 0.000000 0.000000
0.502617 -0.479955 0.967812 0.000000 0.000000 0.000000
0.505447 -0.475176 0.965685 0.000000 0.000000 0.000000
0.508399 -0.447649 0.955124 0.000000 0.000000 0.000000
0.507152 -0.455399 0.947379 0.000000 0.000000 0.000000
0.504800 -0.465928 0.951646 0.000000 0.000000 0.000000
0.508077 -0.446556 0.959294 0.000000 0.000000 0.000000
0.507096 -0.450409 0.964017 0.000000 0.000000 0.000000
0.511300 -0.470452 0.982395 0.000000 0.000000 0.000000
0.500284 -0.476167 0.966825 0.000000 0.000000 0.000000
0.505879 -0.475860 0.961571 0.000000 0.000000 0.000000
0.506036 -0.450206 0.956003 0.000000 0.000000 0.000000
0.489894 -0.476276 0.989214 0.000000 0.000000 0.000000
0.509461 -0.448079 0.963366 0.000000 0.000000 0.000000
0.505564 -0.462452 0.953598 0.000000 0.000000 0.000000
0.508637 -0.474667 0.962404 0.000000 0.000000 0.000000
0.503290 -0.460490 0.957557 0.000000 0.000000 0.000000
0.486130 -0.474994 0.992772 0.000000 0.000000 0.000000
0.494790 -0.479112 0.981717 0.000000 0.000000 0.000000
0.509188 -0.447249 0.959317 0.000000 0.000000 0.000000
0.503599 -0.473213 0.961866 0.000000 0.000000 0.000000
0.507056 -0.462064 0.961246 0.000000 0.000000 0.000000
0.499020 -0.472782 0.963598 0.000000 0.000000 0.000000
0.492957 -0.475681 0.996346 0.000000 0.000000 0.000000
0.511196 -0.444729 0.950323 0.000000 0.000000 0.000000
0.514063 -0.469507 0.983713 0.000000 0.000000 0.000000
0.507580 -0.441994 0.950817 0.000000 0.000000 0.000000
0.505010 -0.448066 0.948249 0.000000 0.000000 0.000000
0.506723 -0.466530 0.961082 0.000000 0.000000 0.000000
0.503042 -0.442454 0.944006 0.000000 0.000000 0.000000
0.506823 -0.443839 0.948615 0.000000 0.000000 0.000000
0.502673 -0.475651 0.960873 0.000000 0.000000 0.000000
0.505400 -0.474544 0.969721 0.000000 0.000000 0.000000
0.504583 -0.468264 0.959689 0.000000 0.000000 0.000000
0.508502 -0.469573 0.966075 0.000000 0.000000 0.000000
0.502965 -0.468340 0.970407 0.000000 0.000000 0.000000
0.507173 -0.459313 0.963154 0.000000 0.000000 0.000000
0.504893 -0.462091 0.969413 0.000000 0.000000 0.000000
0.499691 -0.458291 0.960950 0.000000 0.000000 0.000000
0.505137 -0.478819 0.959329 0.000000 0.000000 0.000000
0.509227 -0.468098 0.950100 0.000000 0.000000 0.000000
0.510167 -0.450596 0.961897 0.000000 0.000000 0.000000
0.507208 -0.465609 0.960118 0.000000 0.000000 0.000000
0.507334 -0.472178 0.964980 0.000000 0.000000 0.000000
0.507610 -0.463313 0.958393 0.000000 0.000000 0.000000
0.506306 -0.458099 0.967470 0.000000 0.000000 0.000000
0.508872 -0.466789 0.955083 0.000000 0.000000 0.000000
0.507415 -0.467600 0.956972 0.000000 0.000000 0.000000
0.507949 -0.446514 0.959376 0.000000 0.000000 0.000000
0.505037 -0.462357 0.979731 0.000000 0.000000 0.000000
0.509993 -0.468636 0.989128 0.000000 0.000000 0.000000
0.482174 -0.441859 0.930821 0.000000 0.000000 0.000000
0.481952 -0.444689 0.930115 0.000000 0.000000 0.000000
0.483376 -0.449358 0.924123 0.000000 0.000000 0.000000
0.482000 -0.452278 0.925387 0.000000 0.000000 0.000000
0.483108 -0.443788 0.926480 0.000000 0.000000 0.000000
0.487927 -0.445906 0.921614 0.000000 0.000000 0.000000
0.483233 -0.453927 0.925390 0.000000 0.000000 0.000000
0.482986 -0.442263 0.927195 0.000000 0.000000 0.000000
0.485603 -0.446771 0.925395 0.000000 0.000000 0.000000
0.483538 -0.446093 0.926264 0.000000 0.000000 0.000000
0.480308 -0.449605 0.926102 0.000000 0.000000 0.000000
0.482536 -0.442108 0.929353 0.000000 0.000000 0.000000
0.484616 -0.451228 0.921251 0.000000 0.000000 0.000000
0.278483 -0.014419 1.035767 0.000000 0.000000 0.000000
0.967214 0.275623 1.074259 0.000000 0.000000 0.000000
0.970381 0.268421 1.078545 0.000000 0.000000 0.000000
0.960541 0.263446 1.079004 0.000000 0.000000 0.000000
0.962153 0.272681 1.077342 0.000000 0.000000 0.000000
0.966768 0.279621 1.075416 0.000000 0.000000 0.000000
0.908871 0.389643 1.062947 0.000000 0.000000 0.000000
0.878087 0.200088 1.557363 0.000000 0.000000 0.000000
0.879842 0.203126 1.559156 0.000000 0.000000 0.000000
0.874488 0.200745 1.551551 0.000000 0.000000 0.000000
0.802627 0.179309 1.524986 0.000000 0.000000 0.000000
0.800385 0.179076 1.524209 0.000000 0.000000 0.000000
0.804448 0.180769 1.522725 0.000000 0.000000 0.000000
0.802327 0.171198 1.540170 0.000000 0.000000 0.000000
0.802058 0.170859 1.537095 0.000000 0.000000 0.000000
0.804018 0.179608 1.525745 0.000000 0.000000 0.000000
0.805844 0.171045 1.545901 0.000000 0.000000 0.000000
0.800001 0.171784 1.533463 0.000000 0.000000 0.000000
0.802423 0.178476 1.529170 0.000000 0.000000 0.000000
0.804309 0.181088 1.522255 0.000000 0.000000 0.000000
0.800301 0.170353 1.542705 0.000000 0.000000 0.000000
0.805261 0.182869 1.523445 0.000000 0.000000 0.000000
0.803647 0.168118 1.544289 0.000000 0.000000 0.000000
0.804479 0.174796 1.543807 0.000000 0.000000 0.000000
0.806197 0.173096 1.533250 0.000000 0.000000 0.000000
0.807935 0.174670 1.534807 0.000000 0.000000 0.000000
0.801863 0.175881 1.535255 0.000000 0.000000 0.000000
0.870183 0.208213 1.524553 0.000000 0.000000 0.000000
0.874952 0.222787 1.520799 0.000000 0.000000 0.000000
0.856578 0.219061 1.520768 0.000000 0.000000 0.000000
0.858063 0.207661 1.521106 0.000000 0.000000 0.000000
0.861233 0.207788 1.521958 0.000000 0.000000 0.000000
0.850898 0.204901 1.521271 0.000000 0.000000 0.000000
0.858836 0.207908 1.520265 0.000000 0.000000 0.000000
0.869236 0.209899 1.525212 0.000000 0.000000 0.000000
0.876339 0.209662 1.526225 0.000000 0.000000 0.000000
0.863763 0.207897 1.525812 0.000000 0.000000 0.000000
0.868943 0.208969 1.521284 0.000000 0.000000 0.000000
0.867453 0.208491 1.522380 0.000000 0.000000 0.000000
0.855319 0.210517 1.522052 0.000000 0.000000 0.000000
0.865965 0.205794 1.528840 0.000000 0.000000 0.000000
0.871956 0.216790 1.532358 0.000000 0.000000 0.000000
0.870059 0.210465 1.524380 0.000000 0.000000 0.000000
0.872127 0.209736 1.529675 0.000000 0.000000 0.000000
0.878204 0.212270 1.525043 0.000000 0.000000 0.000000
0.876088 0.209366 1.524691 0.000000 0.000000 0.000000
0.871719 0.209991 1.526957 0.000000 0.000000 0.000000
