ply
format ascii 1.0
comment VCGLIB generated
obj_info Generated by SPFormer!
element vertex 891
property float x
property float y
property float z
property float nx
property float ny
property float nz
end_header
0.650646 -0.489086 0.803456 0.000000 0.000000 0.000000
0.656271 -0.509041 0.822116 0.000000 0.000000 0.000000
0.668050 -0.485067 0.843767 0.000000 0.000000 0.000000
0.668308 -0.514906 0.852289 0.000000 0.000000 0.000000
0.665635 -0.519064 0.847940 0.000000 0.000000 0.000000
0.666958 -0.503204 0.851404 0.000000 0.000000 0.000000
0.672647 -0.492302 0.848199 0.000000 0.000000 0.000000
0.677177 -0.503272 0.850921 0.000000 0.000000 0.000000
0.674567 -0.514899 0.859759 0.000000 0.000000 0.000000
0.670183 -0.519155 0.853168 0.000000 0.000000 0.000000
0.674939 -0.489513 0.850299 0.000000 0.000000 0.000000
0.674787 -0.518914 0.858204 0.000000 0.000000 0.000000
0.658477 -0.487821 0.820435 0.000000 0.000000 0.000000
0.672191 -0.507015 0.853856 0.000000 0.000000 0.000000
0.671260 -0.504075 0.859137 0.000000 0.000000 0.000000
0.679389 -0.513532 0.857894 0.000000 0.000000 0.000000
0.659557 -0.503726 0.845019 0.000000 0.000000 0.000000
0.663751 -0.473872 0.841408 0.000000 0.000000 0.000000
0.660112 -0.473920 0.841031 0.000000 0.000000 0.000000
0.676978 -0.513820 0.851766 0.000000 0.000000 0.000000
0.656419 -0.494373 0.852519 0.000000 0.000000 0.000000
0.658870 -0.480956 0.835095 0.000000 0.000000 0.000000
0.670469 -0.499338 0.851378 0.000000 0.000000 0.000000
0.662813 -0.486712 0.844423 0.000000 0.000000 0.000000
0.659983 -0.489248 0.844289 0.000000 0.000000 0.000000
0.657850 -0.494750 0.842956 0.000000 0.000000 0.000000
0.678455 -0.496607 0.850261 0.000000 0.000000 0.000000
0.662728 -0.506781 0.841121 0.000000 0.000000 0.000000
0.661583 -0.510451 0.845747 0.000000 0.000000 0.000000
0.661942 -0.515975 0.844751 0.000000 0.000000 0.000000
0.656991 -0.467471 0.844766 0.000000 0.000000 0.000000
0.656167 -0.489750 0.833599 0.000000 0.000000 0.000000
0.664626 -0.508482 0.848763 0.000000 0.000000 0.000000
0.667448 -0.475604 0.840068 0.000000 0.000000 0.000000
0.657655 -0.500450 0.837991 0.000000 0.000000 0.000000
0.658322 -0.509384 0.841071 0.000000 0.000000 0.000000
0.657639 -0.486909 0.841880 0.000000 0.000000 0.000000
0.624366 -0.484813 0.826827 0.000000 0.000000 0.000000
0.633389 -0.508574 0.839384 0.000000 0.000000 0.000000
0.585617 -0.578871 0.832442 0.000000 0.000000 0.000000
0.601213 -0.552742 0.844618 0.000000 0.000000 0.000000
0.592731 -0.549933 0.840328 0.000000 0.000000 0.000000
0.586964 -0.529745 0.811370 0.000000 0.000000 0.000000
0.583186 -0.567214 0.821318 0.000000 0.000000 0.000000
0.589499 -0.574173 0.840477 0.000000 0.000000 0.000000
0.594144 -0.508421 0.817564 0.000000 0.000000 0.000000
0.586188 -0.553554 0.821519 0.000000 0.000000 0.000000
0.587348 -0.537441 0.807159 0.000000 0.000000 0.000000
0.587386 -0.533331 0.815718 0.000000 0.000000 0.000000
0.591938 -0.522849 0.815439 0.000000 0.000000 0.000000
0.586900 -0.560400 0.826351 0.000000 0.000000 0.000000
0.580715 -0.576667 0.823871 0.000000 0.000000 0.000000
0.591293 -0.554157 0.836473 0.000000 0.000000 0.000000
0.587386 -0.556006 0.825454 0.000000 0.000000 0.000000
0.593150 -0.483173 0.801676 0.000000 0.000000 0.000000
0.590114 -0.550589 0.800398 0.000000 0.000000 0.000000
0.576758 -0.548103 0.799609 0.000000 0.000000 0.000000
0.598553 -0.491027 0.804817 0.000000 0.000000 0.000000
0.584819 -0.565204 0.826896 0.000000 0.000000 0.000000
0.581603 -0.574838 0.824251 0.000000 0.000000 0.000000
0.586721 -0.571052 0.822166 0.000000 0.000000 0.000000
0.583154 -0.522909 0.797189 0.000000 0.000000 0.000000
0.612088 -0.571877 0.851845 0.000000 0.000000 0.000000
0.598817 -0.518609 0.829783 0.000000 0.000000 0.000000
0.595984 -0.570127 0.840568 0.000000 0.000000 0.000000
0.594842 -0.541677 0.837003 0.000000 0.000000 0.000000
0.592312 -0.547955 0.832627 0.000000 0.000000 0.000000
0.589716 -0.553044 0.836612 0.000000 0.000000 0.000000
0.582973 -0.574329 0.825647 0.000000 0.000000 0.000000
0.605512 -0.478849 0.809803 0.000000 0.000000 0.000000
0.595012 -0.508465 0.801779 0.000000 0.000000 0.000000
0.584988 -0.577441 0.828698 0.000000 0.000000 0.000000
0.587361 -0.562593 0.833124 0.000000 0.000000 0.000000
0.589724 -0.556293 0.834430 0.000000 0.000000 0.000000
0.612126 -0.459192 0.816475 0.000000 0.000000 0.000000
0.592608 -0.574961 0.841620 0.000000 0.000000 0.000000
0.606845 -0.485414 0.823030 0.000000 0.000000 0.000000
0.578253 -0.578449 0.819627 0.000000 0.000000 0.000000
0.587976 -0.543913 0.826973 0.000000 0.000000 0.000000
0.605640 -0.484218 0.830677 0.000000 0.000000 0.000000
0.584028 -0.524696 0.798356 0.000000 0.000000 0.000000
0.595358 -0.507038 0.838541 0.000000 0.000000 0.000000
0.585557 -0.587439 0.844458 0.000000 0.000000 0.000000
0.582217 -0.567207 0.824390 0.000000 0.000000 0.000000
0.585587 -0.547807 0.821381 0.000000 0.000000 0.000000
0.577083 -0.550260 0.795340 0.000000 0.000000 0.000000
0.580957 -0.584903 0.832523 0.000000 0.000000 0.000000
0.577596 -0.555213 0.809410 0.000000 0.000000 0.000000
0.589901 -0.552242 0.831309 0.000000 0.000000 0.000000
0.593451 -0.589650 0.846611 0.000000 0.000000 0.000000
0.581948 -0.546350 0.813741 0.000000 0.000000 0.000000
0.606031 -0.464925 0.801003 0.000000 0.000000 0.000000
0.597267 -0.523975 0.828378 0.000000 0.000000 0.000000
0.596298 -0.485599 0.801823 0.000000 0.000000 0.000000
0.598975 -0.496964 0.823829 0.000000 0.000000 0.000000
0.602208 -0.508738 0.832641 0.000000 0.000000 0.000000
0.588975 -0.509982 0.803146 0.000000 0.000000 0.000000
0.590095 -0.521005 0.818516 0.000000 0.000000 0.000000
0.589561 -0.536610 0.822564 0.000000 0.000000 0.000000
0.616632 -0.509848 0.835898 0.000000 0.000000 0.000000
0.586626 -0.579531 0.836813 0.000000 0.000000 0.000000
0.583869 -0.534793 0.833152 0.000000 0.000000 0.000000
0.588310 -0.540224 0.821825 0.000000 0.000000 0.000000
0.635423 -0.485128 0.841202 0.000000 0.000000 0.000000
0.582287 -0.543760 0.798982 0.000000 0.000000 0.000000
0.576510 -0.581973 0.818648 0.000000 0.000000 0.000000
0.579488 -0.563572 0.818929 0.000000 0.000000 0.000000
0.582491 -0.520764 0.789135 0.000000 0.000000 0.000000
0.618527 -0.528819 0.840656 0.000000 0.000000 0.000000
0.620110 -0.545915 0.851231 0.000000 0.000000 0.000000
0.595684 -0.506444 0.808669 0.000000 0.000000 0.000000
0.592773 -0.506930 0.809968 0.000000 0.000000 0.000000
0.597139 -0.495155 0.808274 0.000000 0.000000 0.000000
0.586370 -0.561411 0.832764 0.000000 0.000000 0.000000
0.609940 -0.554351 0.837231 0.000000 0.000000 0.000000
0.579809 -0.584712 0.822794 0.000000 0.000000 0.000000
0.576697 -0.546363 0.800690 0.000000 0.000000 0.000000
0.582467 -0.582084 0.832358 0.000000 0.000000 0.000000
0.604514 -0.518165 0.839538 0.000000 0.000000 0.000000
0.586184 -0.544201 0.818214 0.000000 0.000000 0.000000
0.589925 -0.579757 0.840161 0.000000 0.000000 0.000000
0.582263 -0.578202 0.827746 0.000000 0.000000 0.000000
0.587670 -0.575907 0.839059 0.000000 0.000000 0.000000
0.594662 -0.496399 0.807059 0.000000 0.000000 0.000000
0.607798 -0.530311 0.842828 0.000000 0.000000 0.000000
0.601875 -0.535612 0.840397 0.000000 0.000000 0.000000
0.603018 -0.486200 0.817702 0.000000 0.000000 0.000000
0.596584 -0.503337 0.812297 0.000000 0.000000 0.000000
0.616246 -0.531486 0.843984 0.000000 0.000000 0.000000
0.596614 -0.495767 0.799709 0.000000 0.000000 0.000000
0.591876 -0.498945 0.791025 0.000000 0.000000 0.000000
0.577251 -0.568480 0.808447 0.000000 0.000000 0.000000
0.590190 -0.560130 0.837395 0.000000 0.000000 0.000000
0.578582 -0.571827 0.816122 0.000000 0.000000 0.000000
0.586592 -0.580390 0.831199 0.000000 0.000000 0.000000
0.636639 -0.470525 0.828838 0.000000 0.000000 0.000000
0.587510 -0.490745 0.778323 0.000000 0.000000 0.000000
0.603335 -0.549662 0.844061 0.000000 0.000000 0.000000
0.632617 -0.443964 0.819690 0.000000 0.000000 0.000000
0.580752 -0.522847 0.781149 0.000000 0.000000 0.000000
0.590414 -0.560424 0.835747 0.000000 0.000000 0.000000
0.594904 -0.577628 0.847090 0.000000 0.000000 0.000000
0.617581 -0.545513 0.850938 0.000000 0.000000 0.000000
0.601281 -0.499298 0.829373 0.000000 0.000000 0.000000
0.584993 -0.500377 0.779083 0.000000 0.000000 0.000000
0.587480 -0.586733 0.833651 0.000000 0.000000 0.000000
0.589534 -0.492832 0.785452 0.000000 0.000000 0.000000
0.599901 -0.451223 0.799796 0.000000 0.000000 0.000000
0.588592 -0.492081 0.784821 0.000000 0.000000 0.000000
0.617165 -0.537270 0.843151 0.000000 0.000000 0.000000
0.631728 -0.538797 0.857486 0.000000 0.000000 0.000000
0.608451 -0.503706 0.839385 0.000000 0.000000 0.000000
0.614639 -0.519048 0.841458 0.000000 0.000000 0.000000
0.602288 -0.505410 0.831241 0.000000 0.000000 0.000000
0.576792 -0.539691 0.790043 0.000000 0.000000 0.000000
0.592092 -0.488285 0.790508 0.000000 0.000000 0.000000
0.586458 -0.574867 0.832256 0.000000 0.000000 0.000000
0.580728 -0.527731 0.784192 0.000000 0.000000 0.000000
0.595591 -0.485506 0.791736 0.000000 0.000000 0.000000
0.620440 -0.528181 0.849903 0.000000 0.000000 0.000000
0.642390 -0.504162 0.854066 0.000000 0.000000 0.000000
0.642619 -0.490790 0.844698 0.000000 0.000000 0.000000
0.584880 -0.573901 0.834613 0.000000 0.000000 0.000000
0.599442 -0.487482 0.817682 0.000000 0.000000 0.000000
0.591739 -0.541424 0.828126 0.000000 0.000000 0.000000
0.600069 -0.468962 0.788174 0.000000 0.000000 0.000000
0.601764 -0.513431 0.837130 0.000000 0.000000 0.000000
0.594105 -0.523029 0.815370 0.000000 0.000000 0.000000
0.602080 -0.496230 0.820731 0.000000 0.000000 0.000000
0.581588 -0.515799 0.786203 0.000000 0.000000 0.000000
0.612101 -0.557692 0.854813 0.000000 0.000000 0.000000
0.611862 -0.536935 0.847013 0.000000 0.000000 0.000000
0.629236 -0.461692 0.831447 0.000000 0.000000 0.000000
0.611296 -0.528882 0.842291 0.000000 0.000000 0.000000
0.598207 -0.490040 0.780853 0.000000 0.000000 0.000000
0.590226 -0.498018 0.798163 0.000000 0.000000 0.000000
0.603578 -0.484721 0.831335 0.000000 0.000000 0.000000
0.602787 -0.488397 0.827472 0.000000 0.000000 0.000000
0.590744 -0.489579 0.793014 0.000000 0.000000 0.000000
0.592127 -0.565012 0.839934 0.000000 0.000000 0.000000
0.587003 -0.564907 0.822838 0.000000 0.000000 0.000000
0.633738 -0.466922 0.836119 0.000000 0.000000 0.000000
0.596953 -0.533506 0.823454 0.000000 0.000000 0.000000
0.608386 -0.463501 0.811473 0.000000 0.000000 0.000000
0.631013 -0.475308 0.838882 0.000000 0.000000 0.000000
0.595896 -0.507723 0.820105 0.000000 0.000000 0.000000
0.596882 -0.488924 0.807015 0.000000 0.000000 0.000000
0.588003 -0.512662 0.800991 0.000000 0.000000 0.000000
0.589806 -0.537624 0.820339 0.000000 0.000000 0.000000
0.603313 -0.572439 0.849228 0.000000 0.000000 0.000000
0.617442 -0.558668 0.852776 0.000000 0.000000 0.000000
0.604835 -0.523008 0.839387 0.000000 0.000000 0.000000
0.610688 -0.544572 0.847580 0.000000 0.000000 0.000000
0.583901 -0.502417 0.786526 0.000000 0.000000 0.000000
0.599995 -0.559190 0.833182 0.000000 0.000000 0.000000
0.599710 -0.471947 0.789952 0.000000 0.000000 0.000000
0.601143 -0.472247 0.799503 0.000000 0.000000 0.000000
0.584272 -0.505323 0.782954 0.000000 0.000000 0.000000
0.616307 -0.471959 0.833201 0.000000 0.000000 0.000000
0.576969 -0.542520 0.798074 0.000000 0.000000 0.000000
0.612563 -0.536680 0.839779 0.000000 0.000000 0.000000
0.640839 -0.494351 0.847141 0.000000 0.000000 0.000000
0.578817 -0.532149 0.791419 0.000000 0.000000 0.000000
0.590518 -0.492294 0.787881 0.000000 0.000000 0.000000
0.583448 -0.551680 0.819674 0.000000 0.000000 0.000000
0.580838 -0.570706 0.821953 0.000000 0.000000 0.000000
0.594792 -0.563528 0.840297 0.000000 0.000000 0.000000
0.579713 -0.528795 0.793946 0.000000 0.000000 0.000000
0.616237 -0.509812 0.841086 0.000000 0.000000 0.000000
0.581226 -0.550752 0.813149 0.000000 0.000000 0.000000
0.589525 -0.513743 0.799878 0.000000 0.000000 0.000000
0.586582 -0.500818 0.787538 0.000000 0.000000 0.000000
0.601745 -0.563225 0.847864 0.000000 0.000000 0.000000
0.600973 -0.470762 0.781857 0.000000 0.000000 0.000000
0.616028 -0.454296 0.825043 0.000000 0.000000 0.000000
0.623190 -0.544703 0.853219 0.000000 0.000000 0.000000
0.593394 -0.526810 0.818697 0.000000 0.000000 0.000000
0.586083 -0.572558 0.832481 0.000000 0.000000 0.000000
0.582417 -0.507860 0.778074 0.000000 0.000000 0.000000
0.629440 -0.441458 0.830764 0.000000 0.000000 0.000000
0.586631 -0.498228 0.789128 0.000000 0.000000 0.000000
0.614109 -0.449241 0.813364 0.000000 0.000000 0.000000
0.625821 -0.465913 0.833838 0.000000 0.000000 0.000000
0.586205 -0.554102 0.826299 0.000000 0.000000 0.000000
0.595863 -0.536829 0.834405 0.000000 0.000000 0.000000
0.610233 -0.509818 0.839790 0.000000 0.000000 0.000000
0.580128 -0.535067 0.798788 0.000000 0.000000 0.000000
0.585217 -0.538278 0.804983 0.000000 0.000000 0.000000
0.590157 -0.513046 0.804905 0.000000 0.000000 0.000000
0.596876 -0.541817 0.840508 0.000000 0.000000 0.000000
0.577404 -0.557351 0.808953 0.000000 0.000000 0.000000
0.615062 -0.453535 0.824288 0.000000 0.000000 0.000000
0.580201 -0.516893 0.782761 0.000000 0.000000 0.000000
0.585958 -0.546444 0.819543 0.000000 0.000000 0.000000
0.580471 -0.532942 0.797956 0.000000 0.000000 0.000000
0.592669 -0.526583 0.823166 0.000000 0.000000 0.000000
0.617240 -0.447421 0.823368 0.000000 0.000000 0.000000
0.604994 -0.490886 0.822594 0.000000 0.000000 0.000000
0.624985 -0.448383 0.828558 0.000000 0.000000 0.000000
0.581338 -0.563482 0.832471 0.000000 0.000000 0.000000
0.582820 -0.578187 0.827600 0.000000 0.000000 0.000000
0.596000 -0.587056 0.846434 0.000000 0.000000 0.000000
0.585517 -0.516884 0.791249 0.000000 0.000000 0.000000
0.624468 -0.526918 0.848692 0.000000 0.000000 0.000000
0.578263 -0.563134 0.811883 0.000000 0.000000 0.000000
0.606084 -0.517887 0.815272 0.000000 0.000000 0.000000
0.637653 -0.479032 0.840959 0.000000 0.000000 0.000000
0.585695 -0.524220 0.791786 0.000000 0.000000 0.000000
0.597906 -0.514298 0.786437 0.000000 0.000000 0.000000
0.588992 -0.491844 0.783913 0.000000 0.000000 0.000000
0.586068 -0.533018 0.795109 0.000000 0.000000 0.000000
0.615952 -0.532685 0.843945 0.000000 0.000000 0.000000
0.583596 -0.589824 0.834957 0.000000 0.000000 0.000000
0.626701 -0.481893 0.838672 0.000000 0.000000 0.000000
0.614412 -0.526033 0.843149 0.000000 0.000000 0.000000
0.609800 -0.448908 0.815902 0.000000 0.000000 0.000000
0.587447 -0.520611 0.835567 0.000000 0.000000 0.000000
0.617347 -0.512180 0.846111 0.000000 0.000000 0.000000
0.600453 -0.559221 0.845261 0.000000 0.000000 0.000000
0.639732 -0.497449 0.849768 0.000000 0.000000 0.000000
0.613077 -0.474358 0.831174 0.000000 0.000000 0.000000
0.597489 -0.581200 0.844471 0.000000 0.000000 0.000000
0.583314 -0.560115 0.814698 0.000000 0.000000 0.000000
0.600547 -0.527177 0.839105 0.000000 0.000000 0.000000
0.607376 -0.446802 0.812532 0.000000 0.000000 0.000000
0.590209 -0.564424 0.839738 0.000000 0.000000 0.000000
0.614218 -0.533929 0.843127 0.000000 0.000000 0.000000
0.585140 -0.571251 0.826130 0.000000 0.000000 0.000000
0.628280 -0.448233 0.828977 0.000000 0.000000 0.000000
0.618933 -0.445486 0.821731 0.000000 0.000000 0.000000
0.597193 -0.587582 0.844456 0.000000 0.000000 0.000000
0.615283 -0.482678 0.837824 0.000000 0.000000 0.000000
0.587570 -0.540597 0.814932 0.000000 0.000000 0.000000
0.609714 -0.505888 0.839130 0.000000 0.000000 0.000000
0.602097 -0.474995 0.802734 0.000000 0.000000 0.000000
0.595974 -0.560454 0.844955 0.000000 0.000000 0.000000
0.608663 -0.517656 0.840519 0.000000 0.000000 0.000000
0.605024 -0.461194 0.797391 0.000000 0.000000 0.000000
0.607872 -0.500267 0.837464 0.000000 0.000000 0.000000
0.608229 -0.469508 0.821847 0.000000 0.000000 0.000000
0.596886 -0.574610 0.843638 0.000000 0.000000 0.000000
0.584443 -0.499118 0.775556 0.000000 0.000000 0.000000
0.599349 -0.473108 0.792729 0.000000 0.000000 0.000000
0.583318 -0.582063 0.829198 0.000000 0.000000 0.000000
0.605639 -0.475948 0.815452 0.000000 0.000000 0.000000
0.583430 -0.555357 0.841374 0.000000 0.000000 0.000000
0.609204 -0.472068 0.831802 0.000000 0.000000 0.000000
0.611569 -0.531517 0.842255 0.000000 0.000000 0.000000
0.616230 -0.558194 0.849634 0.000000 0.000000 0.000000
0.577297 -0.547146 0.799829 0.000000 0.000000 0.000000
0.603206 -0.537722 0.841347 0.000000 0.000000 0.000000
0.611948 -0.536509 0.843014 0.000000 0.000000 0.000000
0.590248 -0.585275 0.841264 0.000000 0.000000 0.000000
0.639721 -0.443444 0.832425 0.000000 0.000000 0.000000
0.644439 -0.506091 0.856013 0.000000 0.000000 0.000000
0.614966 -0.442426 0.821701 0.000000 0.000000 0.000000
0.609595 -0.551087 0.845418 0.000000 0.000000 0.000000
0.577836 -0.540590 0.799875 0.000000 0.000000 0.000000
0.579026 -0.572339 0.820964 0.000000 0.000000 0.000000
0.608874 -0.526935 0.841477 0.000000 0.000000 0.000000
0.574710 -0.531998 0.784200 0.000000 0.000000 0.000000
0.579580 -0.522085 0.786032 0.000000 0.000000 0.000000
0.597399 -0.534925 0.840063 0.000000 0.000000 0.000000
0.614188 -0.444924 0.809321 0.000000 0.000000 0.000000
0.585323 -0.497217 0.775938 0.000000 0.000000 0.000000
0.578845 -0.524718 0.783848 0.000000 0.000000 0.000000
0.623748 -0.542047 0.854374 0.000000 0.000000 0.000000
0.580999 -0.511734 0.779855 0.000000 0.000000 0.000000
0.586243 -0.540778 0.812408 0.000000 0.000000 0.000000
0.574877 -0.568356 0.808535 0.000000 0.000000 0.000000
0.581693 -0.557752 0.809888 0.000000 0.000000 0.000000
0.576595 -0.571076 0.812046 0.000000 0.000000 0.000000
0.584315 -0.567169 0.824506 0.000000 0.000000 0.000000
0.576511 -0.567266 0.802355 0.000000 0.000000 0.000000
0.584590 -0.573261 0.828257 0.000000 0.000000 0.000000
0.594893 -0.588482 0.845972 0.000000 0.000000 0.000000
0.598963 -0.583065 0.846040 0.000000 0.000000 0.000000
0.623899 -0.538585 0.851057 0.000000 0.000000 0.000000
0.576116 -0.552061 0.798115 0.000000 0.000000 0.000000
0.597737 -0.559409 0.842387 0.000000 0.000000 0.000000
0.591090 -0.592260 0.846481 0.000000 0.000000 0.000000
0.583882 -0.501429 0.773049 0.000000 0.000000 0.000000
0.598099 -0.581366 0.845135 0.000000 0.000000 0.000000
0.607405 -0.528488 0.838655 0.000000 0.000000 0.000000
0.627474 -0.491405 0.843643 0.000000 0.000000 0.000000
0.625888 -0.537831 0.853703 0.000000 0.000000 0.000000
0.584130 -0.494441 0.775270 0.000000 0.000000 0.000000
0.598292 -0.584909 0.844964 0.000000 0.000000 0.000000
0.607746 -0.509655 0.839004 0.000000 0.000000 0.000000
0.588119 -0.502140 0.790299 0.000000 0.000000 0.000000
0.590568 -0.543407 0.825536 0.000000 0.000000 0.000000
0.579988 -0.526152 0.789948 0.000000 0.000000 0.000000
0.614764 -0.468737 0.826865 0.000000 0.000000 0.000000
0.585037 -0.499348 0.774804 0.000000 0.000000 0.000000
0.585901 -0.578028 0.834432 0.000000 0.000000 0.000000
0.588947 -0.570483 0.836207 0.000000 0.000000 0.000000
0.590736 -0.568645 0.826273 0.000000 0.000000 0.000000
0.588108 -0.525198 0.809727 0.000000 0.000000 0.000000
0.592513 -0.568086 0.838944 0.000000 0.000000 0.000000
0.596087 -0.514190 0.813171 0.000000 0.000000 0.000000
0.595274 -0.478308 0.787621 0.000000 0.000000 0.000000
0.636966 -0.527827 0.857904 0.000000 0.000000 0.000000
0.577178 -0.565159 0.811057 0.000000 0.000000 0.000000
0.582660 -0.569263 0.822813 0.000000 0.000000 0.000000
0.577561 -0.564671 0.812147 0.000000 0.000000 0.000000
0.581405 -0.586892 0.827501 0.000000 0.000000 0.000000
0.578770 -0.527746 0.782603 0.000000 0.000000 0.000000
0.584599 -0.505256 0.786043 0.000000 0.000000 0.000000
0.579301 -0.522252 0.778524 0.000000 0.000000 0.000000
0.636593 -0.522362 0.856176 0.000000 0.000000 0.000000
0.582240 -0.547696 0.813817 0.000000 0.000000 0.000000
0.576779 -0.574788 0.814347 0.000000 0.000000 0.000000
0.600809 -0.573817 0.847601 0.000000 0.000000 0.000000
0.583399 -0.507857 0.785814 0.000000 0.000000 0.000000
0.577316 -0.538399 0.788955 0.000000 0.000000 0.000000
0.584591 -0.502217 0.780655 0.000000 0.000000 0.000000
0.589120 -0.527302 0.810374 0.000000 0.000000 0.000000
0.581401 -0.560248 0.818293 0.000000 0.000000 0.000000
0.622017 -0.549343 0.852306 0.000000 0.000000 0.000000
0.580260 -0.513016 0.782178 0.000000 0.000000 0.000000
0.580698 -0.506633 0.775477 0.000000 0.000000 0.000000
0.630596 -0.530954 0.851150 0.000000 0.000000 0.000000
0.597999 -0.586517 0.846959 0.000000 0.000000 0.000000
0.620782 -0.471812 0.835043 0.000000 0.000000 0.000000
0.626516 -0.500579 0.849559 0.000000 0.000000 0.000000
0.620472 -0.509296 0.846466 0.000000 0.000000 0.000000
0.646767 -0.500608 0.857599 0.000000 0.000000 0.000000
0.584055 -0.513484 0.789578 0.000000 0.000000 0.000000
0.574993 -0.564627 0.797624 0.000000 0.000000 0.000000
0.589410 -0.492899 0.777699 0.000000 0.000000 0.000000
0.646369 -0.503557 0.853337 0.000000 0.000000 0.000000
0.579676 -0.517405 0.783410 0.000000 0.000000 0.000000
0.616028 -0.499051 0.839775 0.000000 0.000000 0.000000
0.616501 -0.464466 0.817388 0.000000 0.000000 0.000000
0.576735 -0.553986 0.792365 0.000000 0.000000 0.000000
0.589715 -0.487618 0.778348 0.000000 0.000000 0.000000
0.580114 -0.517413 0.784578 0.000000 0.000000 0.000000
0.607747 -0.462734 0.822457 0.000000 0.000000 0.000000
0.586715 -0.496860 0.779478 0.000000 0.000000 0.000000
0.595746 -0.476665 0.783316 0.000000 0.000000 0.000000
0.584481 -0.503059 0.776526 0.000000 0.000000 0.000000
0.608938 -0.469217 0.807629 0.000000 0.000000 0.000000
0.647808 -0.467790 0.847378 0.000000 0.000000 0.000000
0.580235 -0.571573 0.821047 0.000000 0.000000 0.000000
0.609348 -0.455538 0.821917 0.000000 0.000000 0.000000
0.610881 -0.456865 0.802238 0.000000 0.000000 0.000000
0.590759 -0.488814 0.782688 0.000000 0.000000 0.000000
0.612580 -0.458297 0.803974 0.000000 0.000000 0.000000
0.614483 -0.455304 0.814348 0.000000 0.000000 0.000000
0.594194 -0.479120 0.790047 0.000000 0.000000 0.000000
0.568591 -0.566080 0.819283 0.000000 0.000000 0.000000
0.640758 -0.514893 0.855284 0.000000 0.000000 0.000000
0.632564 -0.502622 0.850917 0.000000 0.000000 0.000000
0.596231 -0.511509 0.827558 0.000000 0.000000 0.000000
0.646048 -0.490739 0.845870 0.000000 0.000000 0.000000
0.576096 -0.558347 0.798298 0.000000 0.000000 0.000000
0.575311 -0.540279 0.788280 0.000000 0.000000 0.000000
0.577807 -0.528609 0.780910 0.000000 0.000000 0.000000
0.617966 -0.538112 0.847741 0.000000 0.000000 0.000000
0.637149 -0.519103 0.859627 0.000000 0.000000 0.000000
0.593453 -0.528375 0.826387 0.000000 0.000000 0.000000
0.587987 -0.568881 0.832926 0.000000 0.000000 0.000000
0.614674 -0.553187 0.853852 0.000000 0.000000 0.000000
0.595837 -0.554666 0.841350 0.000000 0.000000 0.000000
0.648317 -0.454279 0.840627 0.000000 0.000000 0.000000
0.576975 -0.542117 0.797884 0.000000 0.000000 0.000000
0.582253 -0.591020 0.831094 0.000000 0.000000 0.000000
0.579891 -0.518743 0.776408 0.000000 0.000000 0.000000
0.601259 -0.583629 0.846843 0.000000 0.000000 0.000000
0.595443 -0.590886 0.845336 0.000000 0.000000 0.000000
0.585651 -0.496853 0.769598 0.000000 0.000000 0.000000
0.636826 -0.477260 0.840541 0.000000 0.000000 0.000000
0.581957 -0.526082 0.795771 0.000000 0.000000 0.000000
0.585802 -0.512342 0.796561 0.000000 0.000000 0.000000
0.592026 -0.484500 0.783258 0.000000 0.000000 0.000000
0.587120 -0.521565 0.807507 0.000000 0.000000 0.000000
0.631758 -0.496543 0.846090 0.000000 0.000000 0.000000
0.583247 -0.509056 0.790899 0.000000 0.000000 0.000000
0.641624 -0.487587 0.842154 0.000000 0.000000 0.000000
0.638578 -0.461140 0.834812 0.000000 0.000000 0.000000
0.609111 -0.562391 0.847937 0.000000 0.000000 0.000000
0.618454 -0.450814 0.828466 0.000000 0.000000 0.000000
0.604692 -0.472539 0.824329 0.000000 0.000000 0.000000
0.648265 -0.462296 0.843031 0.000000 0.000000 0.000000
0.586324 -0.517368 0.800176 0.000000 0.000000 0.000000
0.596402 -0.492144 0.804595 0.000000 0.000000 0.000000
0.629827 -0.477347 0.838764 0.000000 0.000000 0.000000
0.622553 -0.457937 0.829888 0.000000 0.000000 0.000000
0.584118 -0.504788 0.781818 0.000000 0.000000 0.000000
0.583450 -0.499530 0.774121 0.000000 0.000000 0.000000
0.597275 -0.486800 0.799660 0.000000 0.000000 0.000000
0.584234 -0.502236 0.782744 0.000000 0.000000 0.000000
0.593206 -0.483949 0.791337 0.000000 0.000000 0.000000
0.614829 -0.454980 0.820097 0.000000 0.000000 0.000000
0.602804 -0.537878 0.841083 0.000000 0.000000 0.000000
0.604578 -0.468596 0.802501 0.000000 0.000000 0.000000
0.597924 -0.475674 0.798651 0.000000 0.000000 0.000000
0.603763 -0.472983 0.805016 0.000000 0.000000 0.000000
0.596275 -0.502945 0.802739 0.000000 0.000000 0.000000
0.645895 -0.495518 0.849732 0.000000 0.000000 0.000000
0.584197 -0.586888 0.821776 0.000000 0.000000 0.000000
0.579862 -0.522465 0.775580 0.000000 0.000000 0.000000
0.576956 -0.575082 0.815335 0.000000 0.000000 0.000000
0.641844 -0.462269 0.840085 0.000000 0.000000 0.000000
0.598775 -0.484836 0.804388 0.000000 0.000000 0.000000
0.647485 -0.491356 0.858954 0.000000 0.000000 0.000000
0.635783 -0.443170 0.833267 0.000000 0.000000 0.000000
0.592392 -0.500839 0.793617 0.000000 0.000000 0.000000
0.627912 -0.521998 0.850327 0.000000 0.000000 0.000000
0.585428 -0.509604 0.793239 0.000000 0.000000 0.000000
0.575752 -0.566550 0.806559 0.000000 0.000000 0.000000
0.597958 -0.488054 0.797999 0.000000 0.000000 0.000000
0.617787 -0.521303 0.846257 0.000000 0.000000 0.000000
0.584457 -0.557831 0.821949 0.000000 0.000000 0.000000
0.638347 -0.531884 0.860348 0.000000 0.000000 0.000000
0.595214 -0.576495 0.841720 0.000000 0.000000 0.000000
0.636716 -0.531581 0.858145 0.000000 0.000000 0.000000
0.632271 -0.532980 0.858593 0.000000 0.000000 0.000000
0.611136 -0.558394 0.847437 0.000000 0.000000 0.000000
0.579203 -0.525789 0.779239 0.000000 0.000000 0.000000
0.620633 -0.503902 0.841725 0.000000 0.000000 0.000000
0.613138 -0.535579 0.843186 0.000000 0.000000 0.000000
0.623956 -0.470230 0.834560 0.000000 0.000000 0.000000
0.608520 -0.502234 0.838450 0.000000 0.000000 0.000000
0.631523 -0.528216 0.854319 0.000000 0.000000 0.000000
0.632202 -0.514859 0.851473 0.000000 0.000000 0.000000
0.584629 -0.590127 0.839514 0.000000 0.000000 0.000000
0.575477 -0.552350 0.795346 0.000000 0.000000 0.000000
0.578030 -0.569050 0.817856 0.000000 0.000000 0.000000
0.613396 -0.567914 0.852903 0.000000 0.000000 0.000000
0.615024 -0.563221 0.851384 0.000000 0.000000 0.000000
0.595520 -0.567258 0.843027 0.000000 0.000000 0.000000
0.632316 -0.531926 0.856803 0.000000 0.000000 0.000000
0.637747 -0.522762 0.855422 0.000000 0.000000 0.000000
0.576431 -0.546310 0.795356 0.000000 0.000000 0.000000
0.635122 -0.526461 0.854974 0.000000 0.000000 0.000000
0.575855 -0.564030 0.806531 0.000000 0.000000 0.000000
0.640857 -0.486928 0.845819 0.000000 0.000000 0.000000
0.617703 -0.443455 0.818889 0.000000 0.000000 0.000000
0.577649 -0.550731 0.794393 0.000000 0.000000 0.000000
0.619605 -0.454356 0.804264 0.000000 0.000000 0.000000
0.613209 -0.457984 0.806869 0.000000 0.000000 0.000000
0.607862 -0.478887 0.814833 0.000000 0.000000 0.000000
0.579489 -0.514086 0.777748 0.000000 0.000000 0.000000
0.581542 -0.583618 0.823885 0.000000 0.000000 0.000000
0.574562 -0.546506 0.791685 0.000000 0.000000 0.000000
0.618128 -0.517944 0.842393 0.000000 0.000000 0.000000
0.624021 -0.544026 0.849969 0.000000 0.000000 0.000000
0.639360 -0.508815 0.853750 0.000000 0.000000 0.000000
0.581900 -0.509836 0.774566 0.000000 0.000000 0.000000
0.638757 -0.518549 0.854939 0.000000 0.000000 0.000000
0.576160 -0.585704 0.824302 0.000000 0.000000 0.000000
0.580314 -0.575040 0.819989 0.000000 0.000000 0.000000
0.612293 -0.455441 0.798443 0.000000 0.000000 0.000000
0.606368 -0.454232 0.802548 0.000000 0.000000 0.000000
0.616169 -0.457969 0.824527 0.000000 0.000000 0.000000
0.609126 -0.457468 0.797792 0.000000 0.000000 0.000000
0.583938 -0.577435 0.832968 0.000000 0.000000 0.000000
0.578301 -0.574737 0.817942 0.000000 0.000000 0.000000
0.582348 -0.583832 0.830679 0.000000 0.000000 0.000000
0.574354 -0.581837 0.827806 0.000000 0.000000 0.000000
0.593182 -0.590504 0.844299 0.000000 0.000000 0.000000
0.607175 -0.574619 0.849317 0.000000 0.000000 0.000000
0.609099 -0.570503 0.849021 0.000000 0.000000 0.000000
0.592462 -0.490165 0.795738 0.000000 0.000000 0.000000
0.612174 -0.566443 0.849221 0.000000 0.000000 0.000000
0.604412 -0.555728 0.842664 0.000000 0.000000 0.000000
0.597615 -0.574842 0.844915 0.000000 0.000000 0.000000
0.590945 -0.484566 0.780932 0.000000 0.000000 0.000000
0.599508 -0.468568 0.786675 0.000000 0.000000 0.000000
0.576892 -0.536932 0.791783 0.000000 0.000000 0.000000
0.591004 -0.483943 0.777195 0.000000 0.000000 0.000000
0.605935 -0.579555 0.848893 0.000000 0.000000 0.000000
0.587983 -0.497634 0.784716 0.000000 0.000000 0.000000
0.577526 -0.531044 0.787655 0.000000 0.000000 0.000000
0.649272 -0.489422 0.850229 0.000000 0.000000 0.000000
0.636585 -0.479884 0.844477 0.000000 0.000000 0.000000
0.583379 -0.504515 0.775865 0.000000 0.000000 0.000000
0.636050 -0.482918 0.843435 0.000000 0.000000 0.000000
0.604366 -0.468820 0.812792 0.000000 0.000000 0.000000
0.609406 -0.457979 0.824916 0.000000 0.000000 0.000000
0.610369 -0.546637 0.846930 0.000000 0.000000 0.000000
0.586519 -0.495891 0.775105 0.000000 0.000000 0.000000
0.651547 -0.494969 0.857778 0.000000 0.000000 0.000000
0.597797 -0.485783 0.829557 0.000000 0.000000 0.000000
0.626413 -0.549058 0.856780 0.000000 0.000000 0.000000
0.584267 -0.520367 0.773208 0.000000 0.000000 0.000000
0.579218 -0.514491 0.778819 0.000000 0.000000 0.000000
0.583344 -0.505915 0.773356 0.000000 0.000000 0.000000
0.591128 -0.478311 0.776758 0.000000 0.000000 0.000000
0.575703 -0.554691 0.803852 0.000000 0.000000 0.000000
0.589416 -0.483864 0.775769 0.000000 0.000000 0.000000
0.637511 -0.531895 0.860614 0.000000 0.000000 0.000000
0.632021 -0.452649 0.833877 0.000000 0.000000 0.000000
0.638292 -0.467109 0.838589 0.000000 0.000000 0.000000
0.652222 -0.461118 0.841705 0.000000 0.000000 0.000000
0.644049 -0.477725 0.845864 0.000000 0.000000 0.000000
0.638393 -0.442953 0.837752 0.000000 0.000000 0.000000
0.646313 -0.469135 0.841630 0.000000 0.000000 0.000000
0.574651 -0.558703 0.805154 0.000000 0.000000 0.000000
0.577107 -0.562240 0.799126 0.000000 0.000000 0.000000
0.577395 -0.547689 0.800681 0.000000 0.000000 0.000000
0.576320 -0.550141 0.798001 0.000000 0.000000 0.000000
0.580834 -0.546315 0.811466 0.000000 0.000000 0.000000
0.578891 -0.536056 0.797274 0.000000 0.000000 0.000000
0.576207 -0.563321 0.809954 0.000000 0.000000 0.000000
0.583241 -0.510584 0.786078 0.000000 0.000000 0.000000
0.583176 -0.582705 0.831935 0.000000 0.000000 0.000000
0.575264 -0.564531 0.805366 0.000000 0.000000 0.000000
0.578845 -0.558994 0.812775 0.000000 0.000000 0.000000
0.577667 -0.543212 0.799557 0.000000 0.000000 0.000000
0.577372 -0.551708 0.805552 0.000000 0.000000 0.000000
0.590997 -0.579049 0.840377 0.000000 0.000000 0.000000
0.586837 -0.584599 0.837930 0.000000 0.000000 0.000000
0.586526 -0.588563 0.840369 0.000000 0.000000 0.000000
0.584503 -0.585648 0.835543 0.000000 0.000000 0.000000
0.582785 -0.590203 0.838997 0.000000 0.000000 0.000000
0.581642 -0.590872 0.834955 0.000000 0.000000 0.000000
0.580069 -0.594265 0.842985 0.000000 0.000000 0.000000
0.585726 -0.580791 0.835329 0.000000 0.000000 0.000000
0.594332 -0.575847 0.831285 0.000000 0.000000 0.000000
0.644748 -0.513180 0.856628 0.000000 0.000000 0.000000
0.575997 -0.563482 0.807636 0.000000 0.000000 0.000000
0.586859 -0.593344 0.845225 0.000000 0.000000 0.000000
0.589790 -0.591647 0.845429 0.000000 0.000000 0.000000
0.595751 -0.591939 0.846668 0.000000 0.000000 0.000000
0.587260 -0.590819 0.839850 0.000000 0.000000 0.000000
0.590392 -0.588659 0.843378 0.000000 0.000000 0.000000
0.647578 -0.497052 0.853463 0.000000 0.000000 0.000000
0.588799 -0.579460 0.838529 0.000000 0.000000 0.000000
0.639055 -0.509674 0.856884 0.000000 0.000000 0.000000
0.580401 -0.515020 0.774800 0.000000 0.000000 0.000000
0.576841 -0.541835 0.786263 0.000000 0.000000 0.000000
0.590507 -0.590383 0.842909 0.000000 0.000000 0.000000
0.588640 -0.589906 0.842291 0.000000 0.000000 0.000000
0.583183 -0.590414 0.833240 0.000000 0.000000 0.000000
0.582070 -0.508345 0.779819 0.000000 0.000000 0.000000
0.582173 -0.587058 0.832511 0.000000 0.000000 0.000000
0.611387 -0.444981 0.803971 0.000000 0.000000 0.000000
0.577553 -0.569642 0.801166 0.000000 0.000000 0.000000
0.585945 -0.591917 0.841194 0.000000 0.000000 0.000000
0.586152 -0.490776 0.771384 0.000000 0.000000 0.000000
0.579361 -0.582359 0.828614 0.000000 0.000000 0.000000
0.577812 -0.524821 0.785508 0.000000 0.000000 0.000000
0.579423 -0.512633 0.779022 0.000000 0.000000 0.000000
0.583347 -0.587771 0.836948 0.000000 0.000000 0.000000
0.583277 -0.591052 0.834589 0.000000 0.000000 0.000000
0.584246 -0.585758 0.838795 0.000000 0.000000 0.000000
0.610582 -0.563470 0.848464 0.000000 0.000000 0.000000
0.576969 -0.572134 0.807278 0.000000 0.000000 0.000000
0.580909 -0.581971 0.817590 0.000000 0.000000 0.000000
0.576429 -0.567417 0.810574 0.000000 0.000000 0.000000
0.605387 -0.562888 0.853112 0.000000 0.000000 0.000000
0.605885 -0.535956 0.841693 0.000000 0.000000 0.000000
0.582808 -0.591080 0.842198 0.000000 0.000000 0.000000
0.589740 -0.584244 0.839233 0.000000 0.000000 0.000000
0.578977 -0.579846 0.824231 0.000000 0.000000 0.000000
0.582526 -0.555472 0.830826 0.000000 0.000000 0.000000
0.603597 -0.562157 0.847994 0.000000 0.000000 0.000000
0.599812 -0.550869 0.842107 0.000000 0.000000 0.000000
0.595486 -0.545533 0.838627 0.000000 0.000000 0.000000
0.616114 -0.566868 0.854586 0.000000 0.000000 0.000000
0.593620 -0.572818 0.841592 0.000000 0.000000 0.000000
0.643522 -0.474967 0.844263 0.000000 0.000000 0.000000
0.604761 -0.555429 0.844420 0.000000 0.000000 0.000000
0.646580 -0.481189 0.849549 0.000000 0.000000 0.000000
0.651321 -0.480121 0.850647 0.000000 0.000000 0.000000
0.650717 -0.492683 0.848096 0.000000 0.000000 0.000000
0.602117 -0.562892 0.848417 0.000000 0.000000 0.000000
0.603380 -0.571601 0.848171 0.000000 0.000000 0.000000
0.597932 -0.555230 0.842286 0.000000 0.000000 0.000000
0.614385 -0.570991 0.855913 0.000000 0.000000 0.000000
0.654200 -0.484491 0.855704 0.000000 0.000000 0.000000
0.601739 -0.548627 0.842435 0.000000 0.000000 0.000000
0.639822 -0.473416 0.841289 0.000000 0.000000 0.000000
0.653245 -0.496299 0.854112 0.000000 0.000000 0.000000
0.643206 -0.467591 0.842347 0.000000 0.000000 0.000000
0.594907 -0.567854 0.836243 0.000000 0.000000 0.000000
0.575722 -0.550177 0.794506 0.000000 0.000000 0.000000
0.647485 -0.471511 0.846753 0.000000 0.000000 0.000000
0.599087 -0.556275 0.844617 0.000000 0.000000 0.000000
0.589174 -0.588362 0.841535 0.000000 0.000000 0.000000
0.583703 -0.592288 0.841681 0.000000 0.000000 0.000000
0.579478 -0.518095 0.777525 0.000000 0.000000 0.000000
0.582000 -0.508802 0.780802 0.000000 0.000000 0.000000
0.613481 -0.447160 0.812265 0.000000 0.000000 0.000000
0.586943 -0.498771 0.771902 0.000000 0.000000 0.000000
0.592171 -0.483831 0.783588 0.000000 0.000000 0.000000
0.594096 -0.481114 0.791011 0.000000 0.000000 0.000000
0.595137 -0.477324 0.781152 0.000000 0.000000 0.000000
0.605415 -0.578856 0.851195 0.000000 0.000000 0.000000
0.587563 -0.494989 0.784677 0.000000 0.000000 0.000000
0.594664 -0.476807 0.778787 0.000000 0.000000 0.000000
0.596907 -0.476374 0.794213 0.000000 0.000000 0.000000
0.592654 -0.484364 0.776970 0.000000 0.000000 0.000000
0.610612 -0.574267 0.853313 0.000000 0.000000 0.000000
0.589585 -0.488580 0.775528 0.000000 0.000000 0.000000
0.603136 -0.473522 0.780576 0.000000 0.000000 0.000000
0.594427 -0.476998 0.779023 0.000000 0.000000 0.000000
0.577107 -0.556364 0.805726 0.000000 0.000000 0.000000
0.620082 -0.546945 0.851701 0.000000 0.000000 0.000000
0.627551 -0.510967 0.849681 0.000000 0.000000 0.000000
0.627113 -0.538554 0.848173 0.000000 0.000000 0.000000
0.577612 -0.579587 0.815911 0.000000 0.000000 0.000000
0.585146 -0.496079 0.775984 0.000000 0.000000 0.000000
0.588100 -0.594093 0.848899 0.000000 0.000000 0.000000
0.622490 -0.537594 0.850247 0.000000 0.000000 0.000000
0.575713 -0.563301 0.803717 0.000000 0.000000 0.000000
0.627710 -0.541963 0.855007 0.000000 0.000000 0.000000
0.577970 -0.582819 0.821807 0.000000 0.000000 0.000000
0.595214 -0.557733 0.840337 0.000000 0.000000 0.000000
0.575450 -0.553697 0.797134 0.000000 0.000000 0.000000
0.590190 -0.586495 0.838169 0.000000 0.000000 0.000000
0.596723 -0.582868 0.848042 0.000000 0.000000 0.000000
0.594478 -0.574585 0.842017 0.000000 0.000000 0.000000
0.606767 -0.568513 0.844871 0.000000 0.000000 0.000000
0.583907 -0.505363 0.770862 0.000000 0.000000 0.000000
0.643635 -0.483045 0.853966 0.000000 0.000000 0.000000
0.579312 -0.533107 0.783859 0.000000 0.000000 0.000000
0.579775 -0.527827 0.779436 0.000000 0.000000 0.000000
0.577642 -0.527046 0.782857 0.000000 0.000000 0.000000
0.577178 -0.551989 0.792752 0.000000 0.000000 0.000000
0.583034 -0.593946 0.843505 0.000000 0.000000 0.000000
0.579638 -0.519938 0.773835 0.000000 0.000000 0.000000
0.579595 -0.511964 0.771327 0.000000 0.000000 0.000000
0.649543 -0.495302 0.834788 0.000000 0.000000 0.000000
0.583025 -0.506367 0.773969 0.000000 0.000000 0.000000
0.581649 -0.510866 0.778779 0.000000 0.000000 0.000000
0.576100 -0.555740 0.795289 0.000000 0.000000 0.000000
0.606663 -0.543022 0.842941 0.000000 0.000000 0.000000
0.601669 -0.544030 0.841756 0.000000 0.000000 0.000000
0.607442 -0.565763 0.847280 0.000000 0.000000 0.000000
0.618551 -0.460832 0.797127 0.000000 0.000000 0.000000
0.602787 -0.547197 0.839808 0.000000 0.000000 0.000000
0.606189 -0.553738 0.847463 0.000000 0.000000 0.000000
0.615368 -0.440248 0.822282 0.000000 0.000000 0.000000
0.604689 -0.546103 0.843774 0.000000 0.000000 0.000000
0.616578 -0.457889 0.800991 0.000000 0.000000 0.000000
0.615978 -0.505624 0.847126 0.000000 0.000000 0.000000
0.599893 -0.492927 0.820522 0.000000 0.000000 0.000000
0.627394 -0.537628 0.855829 0.000000 0.000000 0.000000
0.624299 -0.498067 0.845955 0.000000 0.000000 0.000000
0.621484 -0.485952 0.841899 0.000000 0.000000 0.000000
0.638404 -0.505864 0.855117 0.000000 0.000000 0.000000
0.620529 -0.520036 0.845013 0.000000 0.000000 0.000000
0.619865 -0.499466 0.844881 0.000000 0.000000 0.000000
0.609164 -0.497880 0.837700 0.000000 0.000000 0.000000
0.610837 -0.504445 0.843924 0.000000 0.000000 0.000000
0.639968 -0.490676 0.844499 0.000000 0.000000 0.000000
0.609973 -0.492197 0.837312 0.000000 0.000000 0.000000
0.639657 -0.496890 0.854270 0.000000 0.000000 0.000000
0.595716 -0.576891 0.843529 0.000000 0.000000 0.000000
0.594002 -0.584897 0.843130 0.000000 0.000000 0.000000
0.600496 -0.584376 0.848580 0.000000 0.000000 0.000000
0.593013 -0.588651 0.843190 0.000000 0.000000 0.000000
0.599165 -0.587002 0.848202 0.000000 0.000000 0.000000
0.584061 -0.592782 0.840850 0.000000 0.000000 0.000000
0.582545 -0.589368 0.832649 0.000000 0.000000 0.000000
0.583884 -0.586306 0.836896 0.000000 0.000000 0.000000
0.599534 -0.582584 0.844469 0.000000 0.000000 0.000000
0.585600 -0.585489 0.832954 0.000000 0.000000 0.000000
0.581790 -0.585642 0.821260 0.000000 0.000000 0.000000
0.601277 -0.567278 0.843353 0.000000 0.000000 0.000000
0.575842 -0.544582 0.785663 0.000000 0.000000 0.000000
0.601781 -0.577116 0.843631 0.000000 0.000000 0.000000
0.594237 -0.581327 0.842413 0.000000 0.000000 0.000000
0.594911 -0.560972 0.843140 0.000000 0.000000 0.000000
0.583974 -0.589970 0.837445 0.000000 0.000000 0.000000
0.577937 -0.541355 0.787584 0.000000 0.000000 0.000000
0.588449 -0.590431 0.840787 0.000000 0.000000 0.000000
0.579791 -0.584724 0.820898 0.000000 0.000000 0.000000
0.583047 -0.578759 0.815539 0.000000 0.000000 0.000000
0.576715 -0.569442 0.808878 0.000000 0.000000 0.000000
0.590221 -0.487444 0.772019 0.000000 0.000000 0.000000
0.578855 -0.567938 0.814446 0.000000 0.000000 0.000000
0.583420 -0.502392 0.774515 0.000000 0.000000 0.000000
0.575161 -0.559431 0.804331 0.000000 0.000000 0.000000
0.577919 -0.547041 0.790583 0.000000 0.000000 0.000000
0.584792 -0.525682 0.800441 0.000000 0.000000 0.000000
0.576283 -0.537574 0.786986 0.000000 0.000000 0.000000
0.576436 -0.560136 0.801000 0.000000 0.000000 0.000000
0.581067 -0.535887 0.804286 0.000000 0.000000 0.000000
0.586255 -0.525698 0.806609 0.000000 0.000000 0.000000
0.583077 -0.529700 0.801753 0.000000 0.000000 0.000000
0.579616 -0.550976 0.812565 0.000000 0.000000 0.000000
0.575851 -0.554759 0.800869 0.000000 0.000000 0.000000
0.578341 -0.546963 0.805644 0.000000 0.000000 0.000000
0.580905 -0.541373 0.806738 0.000000 0.000000 0.000000
0.575983 -0.555453 0.798902 0.000000 0.000000 0.000000
0.588920 -0.517096 0.805029 0.000000 0.000000 0.000000
0.578580 -0.539274 0.786257 0.000000 0.000000 0.000000
0.575964 -0.562852 0.800888 0.000000 0.000000 0.000000
0.576320 -0.546589 0.787626 0.000000 0.000000 0.000000
0.575003 -0.559405 0.802401 0.000000 0.000000 0.000000
0.581187 -0.536674 0.805951 0.000000 0.000000 0.000000
0.595845 -0.502073 0.813657 0.000000 0.000000 0.000000
0.586231 -0.534488 0.814320 0.000000 0.000000 0.000000
0.577955 -0.548270 0.802391 0.000000 0.000000 0.000000
0.582010 -0.541372 0.811101 0.000000 0.000000 0.000000
0.580350 -0.527695 0.787400 0.000000 0.000000 0.000000
0.585655 -0.533299 0.808327 0.000000 0.000000 0.000000
0.577783 -0.558108 0.795915 0.000000 0.000000 0.000000
0.577989 -0.521243 0.782124 0.000000 0.000000 0.000000
0.580277 -0.518955 0.784892 0.000000 0.000000 0.000000
0.578470 -0.519154 0.777869 0.000000 0.000000 0.000000
0.579361 -0.520270 0.784648 0.000000 0.000000 0.000000
0.589338 -0.490852 0.774483 0.000000 0.000000 0.000000
0.575322 -0.539747 0.795959 0.000000 0.000000 0.000000
0.580458 -0.536028 0.787468 0.000000 0.000000 0.000000
0.579832 -0.527231 0.787559 0.000000 0.000000 0.000000
0.579768 -0.532861 0.790104 0.000000 0.000000 0.000000
0.649906 -0.472652 0.846907 0.000000 0.000000 0.000000
0.579374 -0.529147 0.784305 0.000000 0.000000 0.000000
0.585722 -0.495597 0.774994 0.000000 0.000000 0.000000
0.645728 -0.476731 0.843943 0.000000 0.000000 0.000000
0.633768 -0.512796 0.857622 0.000000 0.000000 0.000000
0.595578 -0.473069 0.779872 0.000000 0.000000 0.000000
0.582808 -0.593723 0.843806 0.000000 0.000000 0.000000
0.577871 -0.574107 0.814476 0.000000 0.000000 0.000000
0.590103 -0.486165 0.774056 0.000000 0.000000 0.000000
0.579261 -0.531068 0.793845 0.000000 0.000000 0.000000
0.631778 -0.530392 0.855098 0.000000 0.000000 0.000000
0.598155 -0.474735 0.781528 0.000000 0.000000 0.000000
0.628667 -0.514104 0.850274 0.000000 0.000000 0.000000
0.645199 -0.516816 0.859111 0.000000 0.000000 0.000000
0.603270 -0.464543 0.779949 0.000000 0.000000 0.000000
0.607487 -0.451291 0.800482 0.000000 0.000000 0.000000
0.602478 -0.464544 0.787700 0.000000 0.000000 0.000000
0.604389 -0.462697 0.786981 0.000000 0.000000 0.000000
0.602291 -0.463138 0.783688 0.000000 0.000000 0.000000
0.602123 -0.464940 0.784539 0.000000 0.000000 0.000000
0.598698 -0.471921 0.786778 0.000000 0.000000 0.000000
0.609651 -0.453860 0.795231 0.000000 0.000000 0.000000
0.606821 -0.460755 0.803659 0.000000 0.000000 0.000000
0.631519 -0.534778 0.857492 0.000000 0.000000 0.000000
0.619081 -0.523118 0.850692 0.000000 0.000000 0.000000
0.628923 -0.503919 0.847724 0.000000 0.000000 0.000000
0.593499 -0.477497 0.776696 0.000000 0.000000 0.000000
0.597453 -0.468727 0.784444 0.000000 0.000000 0.000000
0.593535 -0.480560 0.782363 0.000000 0.000000 0.000000
0.602820 -0.460994 0.787522 0.000000 0.000000 0.000000
0.597834 -0.470066 0.779157 0.000000 0.000000 0.000000
0.612999 -0.453416 0.798680 0.000000 0.000000 0.000000
0.638096 -0.493113 0.848636 0.000000 0.000000 0.000000
0.629743 -0.509242 0.849211 0.000000 0.000000 0.000000
0.628832 -0.531448 0.854906 0.000000 0.000000 0.000000
0.648399 -0.505953 0.859444 0.000000 0.000000 0.000000
0.635928 -0.518445 0.855592 0.000000 0.000000 0.000000
0.621822 -0.533992 0.848579 0.000000 0.000000 0.000000
0.648870 -0.502420 0.856331 0.000000 0.000000 0.000000
0.623081 -0.513971 0.850030 0.000000 0.000000 0.000000
0.625230 -0.527065 0.853569 0.000000 0.000000 0.000000
0.619173 -0.513409 0.847161 0.000000 0.000000 0.000000
0.627336 -0.531255 0.853280 0.000000 0.000000 0.000000
0.653563 -0.499793 0.856177 0.000000 0.000000 0.000000
0.621713 -0.534137 0.850985 0.000000 0.000000 0.000000
0.592937 -0.480544 0.779656 0.000000 0.000000 0.000000
0.628616 -0.515431 0.855570 0.000000 0.000000 0.000000
0.613890 -0.519678 0.846068 0.000000 0.000000 0.000000
0.625240 -0.531340 0.852733 0.000000 0.000000 0.000000
0.599348 -0.570963 0.843285 0.000000 0.000000 0.000000
0.597884 -0.551946 0.839848 0.000000 0.000000 0.000000
0.584888 -0.592095 0.841039 0.000000 0.000000 0.000000
0.614147 -0.442157 0.809264 0.000000 0.000000 0.000000
0.600569 -0.466310 0.792380 0.000000 0.000000 0.000000
0.614177 -0.447550 0.801425 0.000000 0.000000 0.000000
0.614615 -0.446231 0.804183 0.000000 0.000000 0.000000
0.601835 -0.461254 0.788132 0.000000 0.000000 0.000000
0.609480 -0.546023 0.844179 0.000000 0.000000 0.000000
0.620026 -0.560537 0.854049 0.000000 0.000000 0.000000
0.615924 -0.534455 0.843831 0.000000 0.000000 0.000000
0.612908 -0.548476 0.846158 0.000000 0.000000 0.000000
0.620367 -0.560392 0.855651 0.000000 0.000000 0.000000
0.610549 -0.573379 0.846459 0.000000 0.000000 0.000000
0.619281 -0.559246 0.858252 0.000000 0.000000 0.000000
0.614455 -0.559580 0.849528 0.000000 0.000000 0.000000
0.616395 -0.547295 0.846729 0.000000 0.000000 0.000000
0.608399 -0.529368 0.839168 0.000000 0.000000 0.000000
0.620255 -0.540387 0.843425 0.000000 0.000000 0.000000
0.620970 -0.554949 0.853659 0.000000 0.000000 0.000000
0.610084 -0.561039 0.849134 0.000000 0.000000 0.000000
0.624496 -0.548273 0.859690 0.000000 0.000000 0.000000
0.592042 -0.483117 0.771548 0.000000 0.000000 0.000000
0.586302 -0.591053 0.843569 0.000000 0.000000 0.000000
0.594219 -0.567677 0.843087 0.000000 0.000000 0.000000
0.607128 -0.567026 0.848445 0.000000 0.000000 0.000000
0.594254 -0.565240 0.845986 0.000000 0.000000 0.000000
0.607947 -0.558065 0.846980 0.000000 0.000000 0.000000
0.576044 -0.568981 0.807253 0.000000 0.000000 0.000000
0.578897 -0.581488 0.815995 0.000000 0.000000 0.000000
0.580057 -0.577412 0.817916 0.000000 0.000000 0.000000
0.631635 -0.543791 0.859443 0.000000 0.000000 0.000000
0.576627 -0.551830 0.793290 0.000000 0.000000 0.000000
0.635225 -0.535892 0.860568 0.000000 0.000000 0.000000
0.579665 -0.540545 0.785634 0.000000 0.000000 0.000000
0.579191 -0.566524 0.816519 0.000000 0.000000 0.000000
0.575296 -0.567322 0.805244 0.000000 0.000000 0.000000
0.577742 -0.572538 0.809796 0.000000 0.000000 0.000000
0.576933 -0.571670 0.805505 0.000000 0.000000 0.000000
0.576725 -0.569004 0.805211 0.000000 0.000000 0.000000
0.579217 -0.577719 0.810897 0.000000 0.000000 0.000000
0.577495 -0.574336 0.806615 0.000000 0.000000 0.000000
0.580708 -0.556212 0.816420 0.000000 0.000000 0.000000
0.576984 -0.576317 0.809229 0.000000 0.000000 0.000000
0.577383 -0.564808 0.811867 0.000000 0.000000 0.000000
0.575768 -0.571634 0.806365 0.000000 0.000000 0.000000
0.586877 -0.493255 0.772699 0.000000 0.000000 0.000000
0.577462 -0.575821 0.812206 0.000000 0.000000 0.000000
0.577516 -0.542399 0.789116 0.000000 0.000000 0.000000
0.588734 -0.486356 0.774864 0.000000 0.000000 0.000000
0.577438 -0.579042 0.817059 0.000000 0.000000 0.000000
0.576228 -0.544016 0.792735 0.000000 0.000000 0.000000
0.575343 -0.549942 0.795921 0.000000 0.000000 0.000000
0.577291 -0.560052 0.797097 0.000000 0.000000 0.000000
0.576310 -0.542756 0.792137 0.000000 0.000000 0.000000
0.581451 -0.559876 0.797932 0.000000 0.000000 0.000000
0.577836 -0.563575 0.798188 0.000000 0.000000 0.000000
0.589973 -0.590186 0.846001 0.000000 0.000000 0.000000
0.583163 -0.522513 0.780690 0.000000 0.000000 0.000000
0.595500 -0.587467 0.846501 0.000000 0.000000 0.000000
0.594589 -0.587861 0.843198 0.000000 0.000000 0.000000
0.597371 -0.582753 0.845192 0.000000 0.000000 0.000000
0.599414 -0.591704 0.845281 0.000000 0.000000 0.000000
0.597265 -0.584900 0.845056 0.000000 0.000000 0.000000
0.598158 -0.584149 0.846729 0.000000 0.000000 0.000000
0.578820 -0.524279 0.784213 0.000000 0.000000 0.000000
0.596469 -0.589289 0.847796 0.000000 0.000000 0.000000
0.580106 -0.515977 0.772990 0.000000 0.000000 0.000000
0.596753 -0.586423 0.844441 0.000000 0.000000 0.000000
0.579978 -0.517915 0.785749 0.000000 0.000000 0.000000
0.579069 -0.530728 0.781264 0.000000 0.000000 0.000000
0.590270 -0.591808 0.843039 0.000000 0.000000 0.000000
0.581922 -0.591952 0.839105 0.000000 0.000000 0.000000
0.596467 -0.587483 0.847291 0.000000 0.000000 0.000000
0.586217 -0.589972 0.837177 0.000000 0.000000 0.000000
0.590068 -0.587860 0.841858 0.000000 0.000000 0.000000
0.578909 -0.536545 0.783874 0.000000 0.000000 0.000000
0.577227 -0.517223 0.775408 0.000000 0.000000 0.000000
0.582504 -0.506140 0.770008 0.000000 0.000000 0.000000
0.598943 -0.581930 0.844852 0.000000 0.000000 0.000000
0.602268 -0.580617 0.845489 0.000000 0.000000 0.000000
0.588695 -0.564546 0.814135 0.000000 0.000000 0.000000
0.584949 -0.511991 0.777679 0.000000 0.000000 0.000000
0.580590 -0.591554 0.833050 0.000000 0.000000 0.000000
0.588968 -0.487385 0.773966 0.000000 0.000000 0.000000
0.598922 -0.583445 0.846868 0.000000 0.000000 0.000000
0.589284 -0.577852 0.823391 0.000000 0.000000 0.000000
0.585812 -0.512254 0.781002 0.000000 0.000000 0.000000
0.582195 -0.590768 0.831219 0.000000 0.000000 0.000000
0.589037 -0.486923 0.775478 0.000000 0.000000 0.000000
0.601313 -0.582355 0.840411 0.000000 0.000000 0.000000
