ply
format ascii 1.0
comment VCGLIB generated
obj_info Generated by SPFormer!
element vertex 505
property float x
property float y
property float z
property float nx
property float ny
property float nz
end_header
0.718120 -0.512418 0.858603 0.000000 0.000000 0.000000
0.734494 -0.547918 0.880118 0.000000 0.000000 0.000000
0.722263 -0.538058 0.871396 0.000000 0.000000 0.000000
0.718116 -0.529875 0.869136 0.000000 0.000000 0.000000
0.714725 -0.546158 0.876342 0.000000 0.000000 0.000000
0.753919 -0.535342 0.879504 0.000000 0.000000 0.000000
0.753389 -0.532587 0.889545 0.000000 0.000000 0.000000
0.721497 -0.542528 0.875694 0.000000 0.000000 0.000000
0.713573 -0.524346 0.869602 0.000000 0.000000 0.000000
0.743369 -0.535589 0.877875 0.000000 0.000000 0.000000
0.715193 -0.537231 0.869920 0.000000 0.000000 0.000000
0.729701 -0.506212 0.849245 0.000000 0.000000 0.000000
0.726680 -0.542211 0.864686 0.000000 0.000000 0.000000
0.689999 -0.501334 0.857132 0.000000 0.000000 0.000000
0.717201 -0.552675 0.878544 0.000000 0.000000 0.000000
0.716629 -0.510044 0.856380 0.000000 0.000000 0.000000
0.754102 -0.538671 0.886128 0.000000 0.000000 0.000000
0.712807 -0.544969 0.866413 0.000000 0.000000 0.000000
0.745205 -0.546752 0.884995 0.000000 0.000000 0.000000
0.743359 -0.537070 0.881469 0.000000 0.000000 0.000000
0.739990 -0.546982 0.881784 0.000000 0.000000 0.000000
0.693641 -0.537768 0.865431 0.000000 0.000000 0.000000
0.715002 -0.542271 0.871555 0.000000 0.000000 0.000000
0.726995 -0.529651 0.872244 0.000000 0.000000 0.000000
0.719006 -0.526372 0.870541 0.000000 0.000000 0.000000
0.717109 -0.548759 0.871970 0.000000 0.000000 0.000000
0.707519 -0.545679 0.868674 0.000000 0.000000 0.000000
0.751272 -0.533430 0.864750 0.000000 0.000000 0.000000
0.710585 -0.495832 0.835258 0.000000 0.000000 0.000000
0.713080 -0.552410 0.873514 0.000000 0.000000 0.000000
0.691500 -0.517328 0.855660 0.000000 0.000000 0.000000
0.730503 -0.547766 0.876953 0.000000 0.000000 0.000000
0.707573 -0.541539 0.874788 0.000000 0.000000 0.000000
0.733391 -0.536005 0.873120 0.000000 0.000000 0.000000
0.731109 -0.529064 0.885812 0.000000 0.000000 0.000000
0.711509 -0.540204 0.874069 0.000000 0.000000 0.000000
0.740974 -0.540362 0.884297 0.000000 0.000000 0.000000
0.759441 -0.523444 0.890265 0.000000 0.000000 0.000000
0.737979 -0.541982 0.876093 0.000000 0.000000 0.000000
0.738133 -0.515070 0.862841 0.000000 0.000000 0.000000
0.685318 -0.509654 0.852927 0.000000 0.000000 0.000000
0.713769 -0.526017 0.866565 0.000000 0.000000 0.000000
0.688418 -0.510989 0.860174 0.000000 0.000000 0.000000
0.716840 -0.545177 0.872311 0.000000 0.000000 0.000000
0.752881 -0.532695 0.869710 0.000000 0.000000 0.000000
0.734101 -0.539588 0.872429 0.000000 0.000000 0.000000
0.715399 -0.516334 0.866470 0.000000 0.000000 0.000000
0.698006 -0.543842 0.861808 0.000000 0.000000 0.000000
0.711106 -0.486608 0.811541 0.000000 0.000000 0.000000
0.710154 -0.536856 0.860293 0.000000 0.000000 0.000000
0.735767 -0.531707 0.866584 0.000000 0.000000 0.000000
0.692149 -0.496413 0.847616 0.000000 0.000000 0.000000
0.747900 -0.532644 0.880579 0.000000 0.000000 0.000000
0.688288 -0.538807 0.851023 0.000000 0.000000 0.000000
0.731976 -0.522595 0.862054 0.000000 0.000000 0.000000
0.698047 -0.519392 0.863712 0.000000 0.000000 0.000000
0.750841 -0.532615 0.884220 0.000000 0.000000 0.000000
0.716734 -0.542336 0.876053 0.000000 0.000000 0.000000
0.703898 -0.542606 0.867934 0.000000 0.000000 0.000000
0.720179 -0.533491 0.870786 0.000000 0.000000 0.000000
0.749106 -0.541156 0.882805 0.000000 0.000000 0.000000
0.725156 -0.507719 0.847354 0.000000 0.000000 0.000000
0.730393 -0.510058 0.848753 0.000000 0.000000 0.000000
0.703335 -0.510102 0.858092 0.000000 0.000000 0.000000
0.673341 -0.521013 0.856314 0.000000 0.000000 0.000000
0.697015 -0.525407 0.863891 0.000000 0.000000 0.000000
0.731008 -0.509142 0.836587 0.000000 0.000000 0.000000
0.702718 -0.496929 0.846964 0.000000 0.000000 0.000000
0.710603 -0.516348 0.859791 0.000000 0.000000 0.000000
0.724459 -0.530347 0.870341 0.000000 0.000000 0.000000
0.726690 -0.503929 0.843289 0.000000 0.000000 0.000000
0.704351 -0.533181 0.870680 0.000000 0.000000 0.000000
0.690486 -0.473510 0.839669 0.000000 0.000000 0.000000
0.728385 -0.483791 0.835714 0.000000 0.000000 0.000000
0.668469 -0.466179 0.810408 0.000000 0.000000 0.000000
0.743133 -0.549949 0.883438 0.000000 0.000000 0.000000
0.718211 -0.527435 0.871354 0.000000 0.000000 0.000000
0.751051 -0.521834 0.853075 0.000000 0.000000 0.000000
0.692310 -0.509848 0.858773 0.000000 0.000000 0.000000
0.705694 -0.492984 0.844285 0.000000 0.000000 0.000000
0.688465 -0.473580 0.828804 0.000000 0.000000 0.000000
0.706445 -0.494602 0.837123 0.000000 0.000000 0.000000
0.717914 -0.530383 0.870797 0.000000 0.000000 0.000000
0.743116 -0.524336 0.857107 0.000000 0.000000 0.000000
0.703530 -0.487577 0.832283 0.000000 0.000000 0.000000
0.716747 -0.488773 0.821006 0.000000 0.000000 0.000000
0.734305 -0.538944 0.878993 0.000000 0.000000 0.000000
0.722040 -0.539287 0.873623 0.000000 0.000000 0.000000
0.685219 -0.538690 0.860327 0.000000 0.000000 0.000000
0.692701 -0.538511 0.863309 0.000000 0.000000 0.000000
0.740136 -0.530382 0.889879 0.000000 0.000000 0.000000
0.716492 -0.551294 0.874178 0.000000 0.000000 0.000000
0.692531 -0.525790 0.865167 0.000000 0.000000 0.000000
0.752642 -0.540362 0.884424 0.000000 0.000000 0.000000
0.725594 -0.532540 0.872935 0.000000 0.000000 0.000000
0.699057 -0.499054 0.848389 0.000000 0.000000 0.000000
0.710622 -0.513738 0.869086 0.000000 0.000000 0.000000
0.723189 -0.502961 0.847190 0.000000 0.000000 0.000000
0.733510 -0.507127 0.840207 0.000000 0.000000 0.000000
0.674487 -0.527820 0.858721 0.000000 0.000000 0.000000
0.687365 -0.537622 0.859160 0.000000 0.000000 0.000000
0.699266 -0.506800 0.861052 0.000000 0.000000 0.000000
0.731674 -0.547837 0.876507 0.000000 0.000000 0.000000
0.719720 -0.513766 0.856164 0.000000 0.000000 0.000000
0.712979 -0.533031 0.869624 0.000000 0.000000 0.000000
0.727371 -0.515245 0.855743 0.000000 0.000000 0.000000
0.727561 -0.501031 0.835299 0.000000 0.000000 0.000000
0.741700 -0.511479 0.826426 0.000000 0.000000 0.000000
0.708205 -0.504156 0.851394 0.000000 0.000000 0.000000
0.721893 -0.551335 0.875549 0.000000 0.000000 0.000000
0.693543 -0.510686 0.863290 0.000000 0.000000 0.000000
0.684316 -0.526546 0.861022 0.000000 0.000000 0.000000
0.749174 -0.522425 0.856941 0.000000 0.000000 0.000000
0.714200 -0.518364 0.863522 0.000000 0.000000 0.000000
0.703497 -0.523335 0.861456 0.000000 0.000000 0.000000
0.737194 -0.515775 0.857616 0.000000 0.000000 0.000000
0.711069 -0.531668 0.868273 0.000000 0.000000 0.000000
0.738400 -0.548090 0.880918 0.000000 0.000000 0.000000
0.726260 -0.534558 0.871304 0.000000 0.000000 0.000000
0.683244 -0.500239 0.854637 0.000000 0.000000 0.000000
0.687698 -0.530753 0.862445 0.000000 0.000000 0.000000
0.684093 -0.538155 0.856453 0.000000 0.000000 0.000000
0.698634 -0.538514 0.868666 0.000000 0.000000 0.000000
0.709077 -0.475898 0.828450 0.000000 0.000000 0.000000
0.749784 -0.522401 0.848604 0.000000 0.000000 0.000000
0.703636 -0.546044 0.869502 0.000000 0.000000 0.000000
0.720910 -0.477534 0.831992 0.000000 0.000000 0.000000
0.708158 -0.480791 0.823225 0.000000 0.000000 0.000000
0.751880 -0.529482 0.863430 0.000000 0.000000 0.000000
0.721613 -0.490232 0.816978 0.000000 0.000000 0.000000
0.729790 -0.515398 0.842557 0.000000 0.000000 0.000000
0.692716 -0.488062 0.839915 0.000000 0.000000 0.000000
0.716135 -0.492540 0.843017 0.000000 0.000000 0.000000
0.693570 -0.484812 0.836231 0.000000 0.000000 0.000000
0.741594 -0.509854 0.836924 0.000000 0.000000 0.000000
0.722172 -0.488161 0.827482 0.000000 0.000000 0.000000
0.693659 -0.470058 0.817481 0.000000 0.000000 0.000000
0.703668 -0.478480 0.815673 0.000000 0.000000 0.000000
0.746034 -0.521943 0.853503 0.000000 0.000000 0.000000
0.670443 -0.458766 0.837141 0.000000 0.000000 0.000000
0.735757 -0.511692 0.838735 0.000000 0.000000 0.000000
0.716695 -0.491295 0.828484 0.000000 0.000000 0.000000
0.709989 -0.551358 0.873016 0.000000 0.000000 0.000000
0.673106 -0.533854 0.854151 0.000000 0.000000 0.000000
0.745671 -0.517689 0.834037 0.000000 0.000000 0.000000
0.700995 -0.535556 0.876119 0.000000 0.000000 0.000000
0.725670 -0.552158 0.878978 0.000000 0.000000 0.000000
0.754249 -0.531998 0.883311 0.000000 0.000000 0.000000
0.654355 -0.460304 0.837316 0.000000 0.000000 0.000000
0.728402 -0.495621 0.829978 0.000000 0.000000 0.000000
0.722938 -0.494706 0.837904 0.000000 0.000000 0.000000
0.736018 -0.503609 0.833718 0.000000 0.000000 0.000000
0.753652 -0.531886 0.853147 0.000000 0.000000 0.000000
0.731961 -0.494277 0.834559 0.000000 0.000000 0.000000
0.743588 -0.516454 0.859837 0.000000 0.000000 0.000000
0.741765 -0.527406 0.859314 0.000000 0.000000 0.000000
0.735932 -0.512092 0.851168 0.000000 0.000000 0.000000
0.747017 -0.527207 0.863227 0.000000 0.000000 0.000000
0.739928 -0.515911 0.846476 0.000000 0.000000 0.000000
0.731851 -0.513318 0.863594 0.000000 0.000000 0.000000
0.757141 -0.532915 0.874717 0.000000 0.000000 0.000000
0.743086 -0.522781 0.838135 0.000000 0.000000 0.000000
0.755865 -0.537346 0.885830 0.000000 0.000000 0.000000
0.695817 -0.543261 0.867283 0.000000 0.000000 0.000000
0.736834 -0.511479 0.847774 0.000000 0.000000 0.000000
0.728073 -0.551004 0.879235 0.000000 0.000000 0.000000
0.754158 -0.537006 0.859134 0.000000 0.000000 0.000000
0.706615 -0.547771 0.871739 0.000000 0.000000 0.000000
0.737904 -0.514577 0.840209 0.000000 0.000000 0.000000
0.737124 -0.505414 0.826069 0.000000 0.000000 0.000000
0.737791 -0.527455 0.854906 0.000000 0.000000 0.000000
0.733692 -0.502150 0.826737 0.000000 0.000000 0.000000
0.672683 -0.527816 0.846164 0.000000 0.000000 0.000000
0.715075 -0.499865 0.841454 0.000000 0.000000 0.000000
0.746548 -0.517879 0.853467 0.000000 0.000000 0.000000
0.715658 -0.523116 0.866785 0.000000 0.000000 0.000000
0.707951 -0.534485 0.872445 0.000000 0.000000 0.000000
0.683158 -0.479804 0.846209 0.000000 0.000000 0.000000
0.734017 -0.542948 0.873995 0.000000 0.000000 0.000000
0.742694 -0.539219 0.880029 0.000000 0.000000 0.000000
0.732791 -0.521961 0.865274 0.000000 0.000000 0.000000
0.745163 -0.543225 0.881708 0.000000 0.000000 0.000000
0.724378 -0.547857 0.870376 0.000000 0.000000 0.000000
0.700880 -0.538159 0.862118 0.000000 0.000000 0.000000
0.704070 -0.519913 0.863035 0.000000 0.000000 0.000000
0.737702 -0.535655 0.872569 0.000000 0.000000 0.000000
0.693794 -0.511184 0.859353 0.000000 0.000000 0.000000
0.703705 -0.544219 0.864833 0.000000 0.000000 0.000000
0.713735 -0.533514 0.870015 0.000000 0.000000 0.000000
0.744012 -0.532575 0.871663 0.000000 0.000000 0.000000
0.686662 -0.491648 0.851663 0.000000 0.000000 0.000000
0.681547 -0.522376 0.859767 0.000000 0.000000 0.000000
0.735412 -0.534146 0.872441 0.000000 0.000000 0.000000
0.720973 -0.524639 0.864848 0.000000 0.000000 0.000000
0.711407 -0.550027 0.871719 0.000000 0.000000 0.000000
0.737122 -0.539767 0.877887 0.000000 0.000000 0.000000
0.724489 -0.531327 0.872065 0.000000 0.000000 0.000000
0.658444 -0.453056 0.835842 0.000000 0.000000 0.000000
0.684351 -0.532038 0.862326 0.000000 0.000000 0.000000
0.681591 -0.466568 0.833638 0.000000 0.000000 0.000000
0.693520 -0.474141 0.830333 0.000000 0.000000 0.000000
0.697710 -0.469443 0.830186 0.000000 0.000000 0.000000
0.730919 -0.506549 0.815109 0.000000 0.000000 0.000000
0.671347 -0.458946 0.834391 0.000000 0.000000 0.000000
0.742746 -0.521100 0.855512 0.000000 0.000000 0.000000
0.677907 -0.457475 0.827408 0.000000 0.000000 0.000000
0.717539 -0.492594 0.831871 0.000000 0.000000 0.000000
0.678933 -0.468525 0.829294 0.000000 0.000000 0.000000
0.723748 -0.502073 0.812364 0.000000 0.000000 0.000000
0.653689 -0.452295 0.839148 0.000000 0.000000 0.000000
0.690628 -0.494265 0.845731 0.000000 0.000000 0.000000
0.655849 -0.454404 0.824825 0.000000 0.000000 0.000000
0.742402 -0.524063 0.862748 0.000000 0.000000 0.000000
0.730184 -0.545098 0.881631 0.000000 0.000000 0.000000
0.752261 -0.529410 0.880644 0.000000 0.000000 0.000000
0.719474 -0.550913 0.875986 0.000000 0.000000 0.000000
0.736481 -0.543788 0.878056 0.000000 0.000000 0.000000
0.720343 -0.542679 0.877750 0.000000 0.000000 0.000000
0.736847 -0.519013 0.839750 0.000000 0.000000 0.000000
0.740432 -0.538377 0.877211 0.000000 0.000000 0.000000
0.741840 -0.533469 0.872879 0.000000 0.000000 0.000000
0.746938 -0.529421 0.854979 0.000000 0.000000 0.000000
0.738599 -0.519347 0.837729 0.000000 0.000000 0.000000
0.759846 -0.529577 0.885023 0.000000 0.000000 0.000000
0.727711 -0.543658 0.874343 0.000000 0.000000 0.000000
0.683040 -0.536914 0.859988 0.000000 0.000000 0.000000
0.660950 -0.465990 0.811941 0.000000 0.000000 0.000000
0.746356 -0.516615 0.831995 0.000000 0.000000 0.000000
0.694295 -0.535785 0.865728 0.000000 0.000000 0.000000
0.727408 -0.538227 0.882799 0.000000 0.000000 0.000000
0.735353 -0.549812 0.882077 0.000000 0.000000 0.000000
0.720499 -0.547406 0.876748 0.000000 0.000000 0.000000
0.706928 -0.550696 0.869139 0.000000 0.000000 0.000000
0.743296 -0.519775 0.872175 0.000000 0.000000 0.000000
0.751922 -0.531915 0.873771 0.000000 0.000000 0.000000
0.754017 -0.532418 0.871203 0.000000 0.000000 0.000000
0.748795 -0.525392 0.866799 0.000000 0.000000 0.000000
0.738822 -0.512839 0.836379 0.000000 0.000000 0.000000
0.743272 -0.545116 0.884725 0.000000 0.000000 0.000000
0.746760 -0.534831 0.876126 0.000000 0.000000 0.000000
0.677987 -0.530312 0.850888 0.000000 0.000000 0.000000
0.688482 -0.535395 0.856431 0.000000 0.000000 0.000000
0.743484 -0.521926 0.853554 0.000000 0.000000 0.000000
0.710512 -0.548257 0.873487 0.000000 0.000000 0.000000
0.724026 -0.552043 0.877659 0.000000 0.000000 0.000000
0.670319 -0.526917 0.854047 0.000000 0.000000 0.000000
0.742488 -0.512081 0.835482 0.000000 0.000000 0.000000
0.734341 -0.543243 0.885458 0.000000 0.000000 0.000000
0.739345 -0.546997 0.880078 0.000000 0.000000 0.000000
0.747594 -0.516943 0.844356 0.000000 0.000000 0.000000
0.718252 -0.490262 0.810326 0.000000 0.000000 0.000000
0.680111 -0.533315 0.859565 0.000000 0.000000 0.000000
0.754836 -0.528333 0.885583 0.000000 0.000000 0.000000
0.731469 -0.552155 0.880034 0.000000 0.000000 0.000000
0.746580 -0.519312 0.841028 0.000000 0.000000 0.000000
0.745796 -0.523220 0.853388 0.000000 0.000000 0.000000
0.745915 -0.510038 0.833720 0.000000 0.000000 0.000000
0.732930 -0.548152 0.880719 0.000000 0.000000 0.000000
0.745091 -0.527517 0.865221 0.000000 0.000000 0.000000
0.715898 -0.551264 0.872909 0.000000 0.000000 0.000000
0.726934 -0.489615 0.817792 0.000000 0.000000 0.000000
0.726227 -0.490680 0.813249 0.000000 0.000000 0.000000
0.725803 -0.496246 0.810585 0.000000 0.000000 0.000000
0.671716 -0.530254 0.850179 0.000000 0.000000 0.000000
0.728803 -0.492862 0.818040 0.000000 0.000000 0.000000
0.676751 -0.529211 0.855992 0.000000 0.000000 0.000000
0.679375 -0.532282 0.848162 0.000000 0.000000 0.000000
0.654738 -0.449600 0.835452 0.000000 0.000000 0.000000
0.704893 -0.485736 0.844726 0.000000 0.000000 0.000000
0.724111 -0.491601 0.822760 0.000000 0.000000 0.000000
0.703642 -0.477513 0.842451 0.000000 0.000000 0.000000
0.721921 -0.551651 0.878343 0.000000 0.000000 0.000000
0.726299 -0.492814 0.817309 0.000000 0.000000 0.000000
0.731206 -0.554079 0.880801 0.000000 0.000000 0.000000
0.761001 -0.536323 0.874870 0.000000 0.000000 0.000000
0.744651 -0.510429 0.836952 0.000000 0.000000 0.000000
0.725065 -0.548776 0.877651 0.000000 0.000000 0.000000
0.729252 -0.494876 0.813036 0.000000 0.000000 0.000000
0.707173 -0.527822 0.867799 0.000000 0.000000 0.000000
0.743529 -0.548397 0.883986 0.000000 0.000000 0.000000
0.679300 -0.531803 0.856559 0.000000 0.000000 0.000000
0.699815 -0.539703 0.865832 0.000000 0.000000 0.000000
0.700831 -0.530744 0.867678 0.000000 0.000000 0.000000
0.704429 -0.536449 0.870696 0.000000 0.000000 0.000000
0.704619 -0.529329 0.879452 0.000000 0.000000 0.000000
0.696935 -0.538526 0.870440 0.000000 0.000000 0.000000
0.750787 -0.524093 0.847000 0.000000 0.000000 0.000000
0.672047 -0.478990 0.839585 0.000000 0.000000 0.000000
0.696189 -0.528630 0.864638 0.000000 0.000000 0.000000
0.704348 -0.539718 0.870795 0.000000 0.000000 0.000000
0.690852 -0.524242 0.862764 0.000000 0.000000 0.000000
0.749429 -0.523152 0.841978 0.000000 0.000000 0.000000
0.697899 -0.533683 0.866904 0.000000 0.000000 0.000000
0.725609 -0.548709 0.878966 0.000000 0.000000 0.000000
0.726898 -0.489350 0.818385 0.000000 0.000000 0.000000
0.744332 -0.525689 0.872544 0.000000 0.000000 0.000000
0.753591 -0.528793 0.870539 0.000000 0.000000 0.000000
0.754799 -0.537407 0.871396 0.000000 0.000000 0.000000
0.758092 -0.536077 0.872755 0.000000 0.000000 0.000000
0.696905 -0.540894 0.867235 0.000000 0.000000 0.000000
0.753223 -0.534490 0.886048 0.000000 0.000000 0.000000
0.752227 -0.530112 0.861156 0.000000 0.000000 0.000000
0.749032 -0.524821 0.852325 0.000000 0.000000 0.000000
0.750124 -0.528430 0.858790 0.000000 0.000000 0.000000
0.755789 -0.532303 0.866351 0.000000 0.000000 0.000000
0.750355 -0.518102 0.853287 0.000000 0.000000 0.000000
0.726426 -0.493539 0.830786 0.000000 0.000000 0.000000
0.755535 -0.532090 0.870100 0.000000 0.000000 0.000000
0.756952 -0.534323 0.876482 0.000000 0.000000 0.000000
0.757335 -0.537206 0.868771 0.000000 0.000000 0.000000
0.724056 -0.553935 0.881012 0.000000 0.000000 0.000000
0.680447 -0.477119 0.837371 0.000000 0.000000 0.000000
0.683903 -0.489935 0.846988 0.000000 0.000000 0.000000
0.672144 -0.467578 0.837425 0.000000 0.000000 0.000000
0.667155 -0.465888 0.838429 0.000000 0.000000 0.000000
0.747809 -0.543843 0.883710 0.000000 0.000000 0.000000
0.745874 -0.547771 0.880701 0.000000 0.000000 0.000000
0.711542 -0.525201 0.878776 0.000000 0.000000 0.000000
0.731437 -0.502967 0.826222 0.000000 0.000000 0.000000
0.720969 -0.516198 0.875675 0.000000 0.000000 0.000000
0.722472 -0.525831 0.877586 0.000000 0.000000 0.000000
0.664937 -0.470346 0.837169 0.000000 0.000000 0.000000
0.658185 -0.468886 0.837270 0.000000 0.000000 0.000000
0.673274 -0.526222 0.852436 0.000000 0.000000 0.000000
0.670891 -0.528429 0.847371 0.000000 0.000000 0.000000
0.727731 -0.546845 0.879636 0.000000 0.000000 0.000000
0.745757 -0.526774 0.838324 0.000000 0.000000 0.000000
0.675157 -0.526308 0.845073 0.000000 0.000000 0.000000
0.679183 -0.537194 0.856405 0.000000 0.000000 0.000000
0.667197 -0.452211 0.829000 0.000000 0.000000 0.000000
0.667874 -0.522495 0.850138 0.000000 0.000000 0.000000
0.673867 -0.526036 0.855365 0.000000 0.000000 0.000000
0.674373 -0.461978 0.825531 0.000000 0.000000 0.000000
0.669746 -0.521871 0.844029 0.000000 0.000000 0.000000
0.656443 -0.451610 0.829095 0.000000 0.000000 0.000000
0.740157 -0.535036 0.875318 0.000000 0.000000 0.000000
0.759449 -0.535053 0.877599 0.000000 0.000000 0.000000
0.747672 -0.522396 0.836029 0.000000 0.000000 0.000000
0.724194 -0.512679 0.862312 0.000000 0.000000 0.000000
0.721712 -0.501717 0.852969 0.000000 0.000000 0.000000
0.679430 -0.527066 0.860607 0.000000 0.000000 0.000000
0.677215 -0.533883 0.857336 0.000000 0.000000 0.000000
0.736799 -0.529067 0.885562 0.000000 0.000000 0.000000
0.712638 -0.499363 0.857579 0.000000 0.000000 0.000000
0.742438 -0.540821 0.882635 0.000000 0.000000 0.000000
0.729296 -0.518788 0.864351 0.000000 0.000000 0.000000
0.732048 -0.533991 0.879788 0.000000 0.000000 0.000000
0.705099 -0.496906 0.857825 0.000000 0.000000 0.000000
0.729807 -0.539407 0.881079 0.000000 0.000000 0.000000
0.729526 -0.515104 0.872869 0.000000 0.000000 0.000000
0.715941 -0.501984 0.812842 0.000000 0.000000 0.000000
0.740823 -0.503427 0.827358 0.000000 0.000000 0.000000
0.728793 -0.504608 0.830890 0.000000 0.000000 0.000000
0.727063 -0.493568 0.820638 0.000000 0.000000 0.000000
0.735891 -0.506537 0.837379 0.000000 0.000000 0.000000
0.741612 -0.513499 0.836312 0.000000 0.000000 0.000000
0.715790 -0.524784 0.876472 0.000000 0.000000 0.000000
0.678422 -0.530997 0.859661 0.000000 0.000000 0.000000
0.706994 -0.520852 0.875908 0.000000 0.000000 0.000000
0.684853 -0.536513 0.854125 0.000000 0.000000 0.000000
0.693682 -0.530321 0.866662 0.000000 0.000000 0.000000
0.711623 -0.525021 0.875892 0.000000 0.000000 0.000000
0.751808 -0.533484 0.851242 0.000000 0.000000 0.000000
0.756572 -0.537800 0.863034 0.000000 0.000000 0.000000
0.758626 -0.535768 0.873928 0.000000 0.000000 0.000000
0.720527 -0.529239 0.869137 0.000000 0.000000 0.000000
0.746393 -0.531744 0.845688 0.000000 0.000000 0.000000
0.757250 -0.531713 0.859873 0.000000 0.000000 0.000000
0.741005 -0.512023 0.836442 0.000000 0.000000 0.000000
0.754437 -0.533255 0.861787 0.000000 0.000000 0.000000
0.737327 -0.504479 0.822124 0.000000 0.000000 0.000000
0.759977 -0.534418 0.864831 0.000000 0.000000 0.000000
0.734266 -0.503374 0.827083 0.000000 0.000000 0.000000
0.753448 -0.528676 0.853612 0.000000 0.000000 0.000000
0.752847 -0.529981 0.856525 0.000000 0.000000 0.000000
0.756640 -0.524752 0.848200 0.000000 0.000000 0.000000
0.740772 -0.513207 0.838416 0.000000 0.000000 0.000000
0.721888 -0.488616 0.822626 0.000000 0.000000 0.000000
0.741592 -0.504289 0.825413 0.000000 0.000000 0.000000
0.728573 -0.501375 0.822994 0.000000 0.000000 0.000000
0.726513 -0.494927 0.825857 0.000000 0.000000 0.000000
0.736028 -0.497434 0.820587 0.000000 0.000000 0.000000
0.710975 -0.480945 0.826151 0.000000 0.000000 0.000000
0.730103 -0.497540 0.826949 0.000000 0.000000 0.000000
0.747324 -0.518002 0.848519 0.000000 0.000000 0.000000
0.727484 -0.492634 0.823117 0.000000 0.000000 0.000000
0.739888 -0.510982 0.822510 0.000000 0.000000 0.000000
0.732052 -0.494385 0.817290 0.000000 0.000000 0.000000
0.720405 -0.521592 0.879786 0.000000 0.000000 0.000000
0.732236 -0.531797 0.883293 0.000000 0.000000 0.000000
0.735848 -0.521404 0.879550 0.000000 0.000000 0.000000
0.732058 -0.514741 0.871108 0.000000 0.000000 0.000000
0.753154 -0.529883 0.886834 0.000000 0.000000 0.000000
0.752024 -0.525979 0.883581 0.000000 0.000000 0.000000
0.715919 -0.528327 0.879573 0.000000 0.000000 0.000000
0.754785 -0.542153 0.886236 0.000000 0.000000 0.000000
0.751101 -0.542872 0.886733 0.000000 0.000000 0.000000
0.686747 -0.465256 0.822969 0.000000 0.000000 0.000000
0.754395 -0.526836 0.864139 0.000000 0.000000 0.000000
0.733396 -0.502741 0.816591 0.000000 0.000000 0.000000
0.733300 -0.500785 0.819782 0.000000 0.000000 0.000000
0.746543 -0.515457 0.837043 0.000000 0.000000 0.000000
0.744924 -0.521767 0.831891 0.000000 0.000000 0.000000
0.748521 -0.522277 0.846936 0.000000 0.000000 0.000000
0.741405 -0.516378 0.825793 0.000000 0.000000 0.000000
0.747415 -0.524235 0.855055 0.000000 0.000000 0.000000
0.733884 -0.528644 0.884623 0.000000 0.000000 0.000000
0.716699 -0.531270 0.878822 0.000000 0.000000 0.000000
0.731573 -0.524487 0.882727 0.000000 0.000000 0.000000
0.705149 -0.542747 0.871343 0.000000 0.000000 0.000000
0.749742 -0.532847 0.877014 0.000000 0.000000 0.000000
0.746935 -0.527333 0.884742 0.000000 0.000000 0.000000
0.699130 -0.543394 0.868955 0.000000 0.000000 0.000000
0.735702 -0.524158 0.881363 0.000000 0.000000 0.000000
0.745418 -0.525524 0.881741 0.000000 0.000000 0.000000
0.749071 -0.532103 0.888257 0.000000 0.000000 0.000000
0.763179 -0.524887 0.889248 0.000000 0.000000 0.000000
0.758018 -0.533412 0.887236 0.000000 0.000000 0.000000
0.760978 -0.533039 0.879284 0.000000 0.000000 0.000000
0.760433 -0.531520 0.884897 0.000000 0.000000 0.000000
0.756664 -0.532718 0.879925 0.000000 0.000000 0.000000
0.760024 -0.539239 0.889022 0.000000 0.000000 0.000000
0.745765 -0.537903 0.885735 0.000000 0.000000 0.000000
0.741590 -0.509650 0.837860 0.000000 0.000000 0.000000
0.740925 -0.510664 0.842816 0.000000 0.000000 0.000000
0.735128 -0.503827 0.827572 0.000000 0.000000 0.000000
0.747567 -0.517138 0.843179 0.000000 0.000000 0.000000
0.741629 -0.509513 0.824970 0.000000 0.000000 0.000000
0.749162 -0.543947 0.884429 0.000000 0.000000 0.000000
0.742463 -0.512655 0.842414 0.000000 0.000000 0.000000
0.741467 -0.514807 0.838693 0.000000 0.000000 0.000000
0.746255 -0.504016 0.828356 0.000000 0.000000 0.000000
0.741234 -0.509826 0.835871 0.000000 0.000000 0.000000
0.743675 -0.509933 0.830664 0.000000 0.000000 0.000000
0.678724 -0.440189 0.811444 0.000000 0.000000 0.000000
0.671948 -0.442445 0.822840 0.000000 0.000000 0.000000
0.674633 -0.447008 0.817372 0.000000 0.000000 0.000000
0.665237 -0.450356 0.826248 0.000000 0.000000 0.000000
0.669111 -0.441743 0.815023 0.000000 0.000000 0.000000
0.684683 -0.455020 0.826435 0.000000 0.000000 0.000000
0.664076 -0.442555 0.819786 0.000000 0.000000 0.000000
0.681892 -0.442644 0.801200 0.000000 0.000000 0.000000
0.692954 -0.453390 0.812209 0.000000 0.000000 0.000000
0.707632 -0.462232 0.803993 0.000000 0.000000 0.000000
0.707115 -0.467533 0.804215 0.000000 0.000000 0.000000
0.713408 -0.476738 0.803779 0.000000 0.000000 0.000000
0.685482 -0.448083 0.804446 0.000000 0.000000 0.000000
0.679805 -0.454963 0.825523 0.000000 0.000000 0.000000
0.704934 -0.457027 0.801407 0.000000 0.000000 0.000000
0.718409 -0.487528 0.806526 0.000000 0.000000 0.000000
0.683641 -0.454193 0.817722 0.000000 0.000000 0.000000
0.695915 -0.467011 0.822221 0.000000 0.000000 0.000000
0.709781 -0.477617 0.812528 0.000000 0.000000 0.000000
0.666199 -0.445560 0.822182 0.000000 0.000000 0.000000
0.680855 -0.449718 0.817377 0.000000 0.000000 0.000000
0.728556 -0.482652 0.801481 0.000000 0.000000 0.000000
0.731289 -0.483292 0.801164 0.000000 0.000000 0.000000
0.691505 -0.458911 0.814617 0.000000 0.000000 0.000000
0.691488 -0.465012 0.816602 0.000000 0.000000 0.000000
0.679159 -0.450533 0.819024 0.000000 0.000000 0.000000
0.688095 -0.453809 0.811712 0.000000 0.000000 0.000000
0.699156 -0.465012 0.812976 0.000000 0.000000 0.000000
0.713683 -0.471886 0.833108 0.000000 0.000000 0.000000
0.654875 -0.443400 0.821350 0.000000 0.000000 0.000000
0.657195 -0.445266 0.829907 0.000000 0.000000 0.000000
0.715501 -0.470729 0.808367 0.000000 0.000000 0.000000
0.719839 -0.480364 0.815108 0.000000 0.000000 0.000000
0.723972 -0.484720 0.810790 0.000000 0.000000 0.000000
0.718669 -0.481559 0.808733 0.000000 0.000000 0.000000
0.720562 -0.480054 0.800879 0.000000 0.000000 0.000000
0.729065 -0.484114 0.803300 0.000000 0.000000 0.000000
0.680093 -0.442027 0.801461 0.000000 0.000000 0.000000
0.658992 -0.441314 0.823304 0.000000 0.000000 0.000000
0.726058 -0.485510 0.803213 0.000000 0.000000 0.000000
0.721538 -0.473348 0.804483 0.000000 0.000000 0.000000
0.725566 -0.484404 0.807839 0.000000 0.000000 0.000000
0.696837 -0.444530 0.809410 0.000000 0.000000 0.000000
0.721050 -0.485078 0.812958 0.000000 0.000000 0.000000
0.702960 -0.460981 0.808119 0.000000 0.000000 0.000000
0.724899 -0.484589 0.808294 0.000000 0.000000 0.000000
0.710273 -0.466459 0.811238 0.000000 0.000000 0.000000
0.723859 -0.478398 0.803001 0.000000 0.000000 0.000000
0.690374 -0.440546 0.802032 0.000000 0.000000 0.000000
0.705125 -0.453268 0.802023 0.000000 0.000000 0.000000
0.735637 -0.482187 0.804540 0.000000 0.000000 0.000000
0.700210 -0.471492 0.816098 0.000000 0.000000 0.000000
0.716075 -0.478651 0.810071 0.000000 0.000000 0.000000
0.643483 -0.451893 0.833708 0.000000 0.000000 0.000000
0.648196 -0.445163 0.828590 0.000000 0.000000 0.000000
0.645767 -0.445800 0.805538 0.000000 0.000000 0.000000
0.648404 -0.457089 0.836253 0.000000 0.000000 0.000000
0.647665 -0.458804 0.839946 0.000000 0.000000 0.000000
0.641990 -0.524019 0.860862 0.000000 0.000000 0.000000
0.640999 -0.521724 0.859225 0.000000 0.000000 0.000000
0.645211 -0.465179 0.835331 0.000000 0.000000 0.000000
0.641267 -0.459559 0.836965 0.000000 0.000000 0.000000
0.640912 -0.449143 0.836293 0.000000 0.000000 0.000000
0.654071 -0.441324 0.831424 0.000000 0.000000 0.000000
0.649357 -0.444097 0.830337 0.000000 0.000000 0.000000
0.642175 -0.442015 0.833482 0.000000 0.000000 0.000000
0.651748 -0.445152 0.836847 0.000000 0.000000 0.000000
0.650654 -0.441136 0.836686 0.000000 0.000000 0.000000
0.651619 -0.442526 0.824846 0.000000 0.000000 0.000000
0.649256 -0.441663 0.813942 0.000000 0.000000 0.000000
0.642773 -0.520377 0.860276 0.000000 0.000000 0.000000
