ply
format ascii 1.0
comment VCGLIB generated
obj_info Generated by SPFormer!
element vertex 753
property float x
property float y
property float z
property float nx
property float ny
property float nz
end_header
0.898718 0.007514 0.872657 0.000000 0.000000 0.000000
0.900930 0.012940 0.869759 0.000000 0.000000 0.000000
0.885808 0.012533 0.877222 0.000000 0.000000 0.000000
0.885329 0.001345 0.873327 0.000000 0.000000 0.000000
0.904978 0.002345 0.855662 0.000000 0.000000 0.000000
0.882791 0.006806 0.875619 0.000000 0.000000 0.000000
0.884266 0.042215 0.917597 0.000000 0.000000 0.000000
0.878927 0.003576 0.877254 0.000000 0.000000 0.000000
0.883957 0.040299 0.902397 0.000000 0.000000 0.000000
0.889174 0.011555 0.875552 0.000000 0.000000 0.000000
0.878506 0.009990 0.878286 0.000000 0.000000 0.000000
0.889295 0.013131 0.876581 0.000000 0.000000 0.000000
0.925988 0.155724 0.855398 0.000000 0.000000 0.000000
0.920458 0.081699 0.871175 0.000000 0.000000 0.000000
0.967488 0.074893 0.859439 0.000000 0.000000 0.000000
0.946233 0.166360 0.845151 0.000000 0.000000 0.000000
0.940451 0.093492 0.843088 0.000000 0.000000 0.000000
0.937958 0.083645 0.844952 0.000000 0.000000 0.000000
0.938314 0.042452 0.852333 0.000000 0.000000 0.000000
0.944135 0.021633 0.842652 0.000000 0.000000 0.000000
0.903863 0.076998 0.873774 0.000000 0.000000 0.000000
0.917386 0.071525 0.870242 0.000000 0.000000 0.000000
0.924307 0.014944 0.857728 0.000000 0.000000 0.000000
0.917886 0.078640 0.862182 0.000000 0.000000 0.000000
0.959779 0.176875 0.839676 0.000000 0.000000 0.000000
0.936058 0.146447 0.861498 0.000000 0.000000 0.000000
0.946404 0.169015 0.859636 0.000000 0.000000 0.000000
0.921954 0.102543 0.884504 0.000000 0.000000 0.000000
0.923518 0.058932 0.857929 0.000000 0.000000 0.000000
0.910516 0.043460 0.867724 0.000000 0.000000 0.000000
0.963466 0.147776 0.851473 0.000000 0.000000 0.000000
0.935049 0.082451 0.850195 0.000000 0.000000 0.000000
0.938798 0.006316 0.850826 0.000000 0.000000 0.000000
0.918106 0.215388 0.853385 0.000000 0.000000 0.000000
0.966963 0.209782 0.843609 0.000000 0.000000 0.000000
0.955536 0.157809 0.846128 0.000000 0.000000 0.000000
0.910628 0.113221 0.869948 0.000000 0.000000 0.000000
0.925909 0.073151 0.843316 0.000000 0.000000 0.000000
0.936380 0.019162 0.845469 0.000000 0.000000 0.000000
0.924811 0.059853 0.848857 0.000000 0.000000 0.000000
0.919088 0.196787 0.850896 0.000000 0.000000 0.000000
0.902571 0.192639 0.848628 0.000000 0.000000 0.000000
0.936708 0.053306 0.845510 0.000000 0.000000 0.000000
0.903290 0.063091 0.868572 0.000000 0.000000 0.000000
0.933365 0.077299 0.869807 0.000000 0.000000 0.000000
0.949601 0.150793 0.847539 0.000000 0.000000 0.000000
0.932843 0.074620 0.844049 0.000000 0.000000 0.000000
0.940890 0.077912 0.841895 0.000000 0.000000 0.000000
0.921332 0.017711 0.858935 0.000000 0.000000 0.000000
0.964595 0.218551 0.834073 0.000000 0.000000 0.000000
0.925321 0.076774 0.838324 0.000000 0.000000 0.000000
0.947097 0.184308 0.847804 0.000000 0.000000 0.000000
0.942181 0.143287 0.851187 0.000000 0.000000 0.000000
0.956035 0.139844 0.853663 0.000000 0.000000 0.000000
0.957571 0.144965 0.846860 0.000000 0.000000 0.000000
0.881787 0.159402 0.867502 0.000000 0.000000 0.000000
0.941738 0.200506 0.855883 0.000000 0.000000 0.000000
0.948714 0.189000 0.844249 0.000000 0.000000 0.000000
0.892909 0.177864 0.864244 0.000000 0.000000 0.000000
0.946448 0.156885 0.844613 0.000000 0.000000 0.000000
0.971589 0.197613 0.847208 0.000000 0.000000 0.000000
0.892940 0.150717 0.870596 0.000000 0.000000 0.000000
0.933732 0.201471 0.846607 0.000000 0.000000 0.000000
0.934593 0.022499 0.847133 0.000000 0.000000 0.000000
0.899391 0.087150 0.872732 0.000000 0.000000 0.000000
0.947755 0.150639 0.845296 0.000000 0.000000 0.000000
0.911355 0.069395 0.864147 0.000000 0.000000 0.000000
0.919616 0.111268 0.849583 0.000000 0.000000 0.000000
0.928287 0.156259 0.860669 0.000000 0.000000 0.000000
0.929290 0.117292 0.857233 0.000000 0.000000 0.000000
0.930601 0.090387 0.856799 0.000000 0.000000 0.000000
0.925767 0.019202 0.865636 0.000000 0.000000 0.000000
0.916008 0.105380 0.857551 0.000000 0.000000 0.000000
0.883928 0.100057 0.878250 0.000000 0.000000 0.000000
0.909393 0.111518 0.873170 0.000000 0.000000 0.000000
0.903178 0.196970 0.859665 0.000000 0.000000 0.000000
0.921065 0.163526 0.863298 0.000000 0.000000 0.000000
0.918695 0.149530 0.874693 0.000000 0.000000 0.000000
0.929665 0.021511 0.854355 0.000000 0.000000 0.000000
0.900080 0.098848 0.872881 0.000000 0.000000 0.000000
0.931105 0.069864 0.846635 0.000000 0.000000 0.000000
0.936567 0.188016 0.849730 0.000000 0.000000 0.000000
0.909737 0.051121 0.868119 0.000000 0.000000 0.000000
0.931590 0.075154 0.850504 0.000000 0.000000 0.000000
0.932957 0.195225 0.857887 0.000000 0.000000 0.000000
0.959663 0.184953 0.840741 0.000000 0.000000 0.000000
0.932088 0.103837 0.851920 0.000000 0.000000 0.000000
0.911607 0.107775 0.869631 0.000000 0.000000 0.000000
0.935720 0.032574 0.858934 0.000000 0.000000 0.000000
0.928670 0.237230 0.847982 0.000000 0.000000 0.000000
0.915215 0.147593 0.868684 0.000000 0.000000 0.000000
0.912652 0.172500 0.863476 0.000000 0.000000 0.000000
0.928911 0.068276 0.862804 0.000000 0.000000 0.000000
0.892111 0.098326 0.876199 0.000000 0.000000 0.000000
0.966641 0.159804 0.847758 0.000000 0.000000 0.000000
0.896789 0.164238 0.864125 0.000000 0.000000 0.000000
0.897216 0.176079 0.863434 0.000000 0.000000 0.000000
0.950112 0.171531 0.846037 0.000000 0.000000 0.000000
0.911209 0.119360 0.862516 0.000000 0.000000 0.000000
0.894781 0.163926 0.860969 0.000000 0.000000 0.000000
0.903038 0.099801 0.869609 0.000000 0.000000 0.000000
0.944805 0.048210 0.845175 0.000000 0.000000 0.000000
0.907341 0.157493 0.863974 0.000000 0.000000 0.000000
0.888048 0.171980 0.865475 0.000000 0.000000 0.000000
0.906494 0.122151 0.874274 0.000000 0.000000 0.000000
0.891446 0.098299 0.879014 0.000000 0.000000 0.000000
0.884036 0.094575 0.877686 0.000000 0.000000 0.000000
0.933924 0.092227 0.846206 0.000000 0.000000 0.000000
0.928822 0.107680 0.855856 0.000000 0.000000 0.000000
0.939874 0.173766 0.850948 0.000000 0.000000 0.000000
0.927576 0.106838 0.858222 0.000000 0.000000 0.000000
0.915286 0.102292 0.868452 0.000000 0.000000 0.000000
0.932722 0.094419 0.847758 0.000000 0.000000 0.000000
0.891150 0.101827 0.878924 0.000000 0.000000 0.000000
0.925259 0.038362 0.855329 0.000000 0.000000 0.000000
0.903645 0.075210 0.871409 0.000000 0.000000 0.000000
0.893918 0.074311 0.870995 0.000000 0.000000 0.000000
0.900000 0.137212 0.866769 0.000000 0.000000 0.000000
0.963928 0.188838 0.843138 0.000000 0.000000 0.000000
0.939962 0.155827 0.842044 0.000000 0.000000 0.000000
0.912209 0.119412 0.865304 0.000000 0.000000 0.000000
0.909345 0.114563 0.859892 0.000000 0.000000 0.000000
0.956320 0.156635 0.846916 0.000000 0.000000 0.000000
0.968176 0.208085 0.833863 0.000000 0.000000 0.000000
0.965617 0.223319 0.839944 0.000000 0.000000 0.000000
0.957778 0.206946 0.844963 0.000000 0.000000 0.000000
0.934949 0.066703 0.842688 0.000000 0.000000 0.000000
0.927782 0.128552 0.870613 0.000000 0.000000 0.000000
0.964113 0.208242 0.834754 0.000000 0.000000 0.000000
0.953767 0.217970 0.833977 0.000000 0.000000 0.000000
0.918459 0.003013 0.859455 0.000000 0.000000 0.000000
0.897975 0.170976 0.867131 0.000000 0.000000 0.000000
0.946879 0.144451 0.845388 0.000000 0.000000 0.000000
0.938065 0.090269 0.849667 0.000000 0.000000 0.000000
0.958171 0.189734 0.839778 0.000000 0.000000 0.000000
0.956526 0.178006 0.842090 0.000000 0.000000 0.000000
0.904790 0.178849 0.876856 0.000000 0.000000 0.000000
0.908244 0.112487 0.866674 0.000000 0.000000 0.000000
0.897289 0.192368 0.867688 0.000000 0.000000 0.000000
0.934959 0.021843 0.848898 0.000000 0.000000 0.000000
0.928970 0.084120 0.856088 0.000000 0.000000 0.000000
0.918305 0.200023 0.857654 0.000000 0.000000 0.000000
0.962841 0.156715 0.839651 0.000000 0.000000 0.000000
0.928702 0.226700 0.846622 0.000000 0.000000 0.000000
0.928024 0.038018 0.851739 0.000000 0.000000 0.000000
0.921566 0.015213 0.856887 0.000000 0.000000 0.000000
0.925777 0.227736 0.849003 0.000000 0.000000 0.000000
0.932565 0.089122 0.850662 0.000000 0.000000 0.000000
0.941719 0.020517 0.864900 0.000000 0.000000 0.000000
0.945518 0.008755 0.866186 0.000000 0.000000 0.000000
0.902802 0.153248 0.865150 0.000000 0.000000 0.000000
0.904271 0.141017 0.868471 0.000000 0.000000 0.000000
0.906771 0.117817 0.877669 0.000000 0.000000 0.000000
0.889569 0.116572 0.876476 0.000000 0.000000 0.000000
0.910191 0.163824 0.869167 0.000000 0.000000 0.000000
0.895334 0.129805 0.876896 0.000000 0.000000 0.000000
0.953706 0.152606 0.846397 0.000000 0.000000 0.000000
0.890631 0.106474 0.880368 0.000000 0.000000 0.000000
0.939742 0.003486 0.839353 0.000000 0.000000 0.000000
0.925877 0.000522 0.853451 0.000000 0.000000 0.000000
0.938106 0.010795 0.843087 0.000000 0.000000 0.000000
0.935711 0.010143 0.850729 0.000000 0.000000 0.000000
0.968863 0.234442 0.835259 0.000000 0.000000 0.000000
0.960927 0.233014 0.839232 0.000000 0.000000 0.000000
0.895765 0.129895 0.877078 0.000000 0.000000 0.000000
0.925830 0.071365 0.842724 0.000000 0.000000 0.000000
0.966357 0.229546 0.834403 0.000000 0.000000 0.000000
0.954802 0.187691 0.845176 0.000000 0.000000 0.000000
0.923343 0.194070 0.865789 0.000000 0.000000 0.000000
0.943748 0.223279 0.843818 0.000000 0.000000 0.000000
0.918936 0.067952 0.839478 0.000000 0.000000 0.000000
0.966759 0.192358 0.845767 0.000000 0.000000 0.000000
0.953531 0.227095 0.836918 0.000000 0.000000 0.000000
0.949249 0.199591 0.839895 0.000000 0.000000 0.000000
0.934035 0.097591 0.851946 0.000000 0.000000 0.000000
0.923873 0.080486 0.835896 0.000000 0.000000 0.000000
0.901873 0.190879 0.861954 0.000000 0.000000 0.000000
0.909032 0.204653 0.864119 0.000000 0.000000 0.000000
0.964687 0.198602 0.855986 0.000000 0.000000 0.000000
0.933591 0.043097 0.850742 0.000000 0.000000 0.000000
0.939150 0.155953 0.853733 0.000000 0.000000 0.000000
0.950849 0.167474 0.845765 0.000000 0.000000 0.000000
0.954449 0.154048 0.847712 0.000000 0.000000 0.000000
0.955532 0.174256 0.843182 0.000000 0.000000 0.000000
0.896128 0.185507 0.863421 0.000000 0.000000 0.000000
0.957121 0.202218 0.837124 0.000000 0.000000 0.000000
0.940955 0.210138 0.836538 0.000000 0.000000 0.000000
0.947046 0.145072 0.848979 0.000000 0.000000 0.000000
0.905074 0.188311 0.854128 0.000000 0.000000 0.000000
0.961293 0.181809 0.846427 0.000000 0.000000 0.000000
0.950733 0.192680 0.856511 0.000000 0.000000 0.000000
0.927913 0.193702 0.842361 0.000000 0.000000 0.000000
0.940186 0.202775 0.843340 0.000000 0.000000 0.000000
0.948225 0.188649 0.843182 0.000000 0.000000 0.000000
0.965280 0.230268 0.829479 0.000000 0.000000 0.000000
0.950250 0.138618 0.848367 0.000000 0.000000 0.000000
0.894670 0.169126 0.863345 0.000000 0.000000 0.000000
0.938852 0.179777 0.845413 0.000000 0.000000 0.000000
0.958468 0.183044 0.857817 0.000000 0.000000 0.000000
0.928329 0.066750 0.842486 0.000000 0.000000 0.000000
0.914120 0.127014 0.876364 0.000000 0.000000 0.000000
0.957415 0.169463 0.840570 0.000000 0.000000 0.000000
0.941004 0.069907 0.840061 0.000000 0.000000 0.000000
0.908212 0.140686 0.875410 0.000000 0.000000 0.000000
0.934183 0.220443 0.848693 0.000000 0.000000 0.000000
0.923600 0.207048 0.852917 0.000000 0.000000 0.000000
0.945088 0.006987 0.864145 0.000000 0.000000 0.000000
0.920367 0.230619 0.858727 0.000000 0.000000 0.000000
0.949549 0.016676 0.873159 0.000000 0.000000 0.000000
0.933098 0.036124 0.862738 0.000000 0.000000 0.000000
0.925312 0.200644 0.858749 0.000000 0.000000 0.000000
0.912898 0.217013 0.858099 0.000000 0.000000 0.000000
0.940445 0.061136 0.841488 0.000000 0.000000 0.000000
0.935475 0.141881 0.855833 0.000000 0.000000 0.000000
0.936591 0.120668 0.840094 0.000000 0.000000 0.000000
0.963751 0.149389 0.850065 0.000000 0.000000 0.000000
0.952191 0.215599 0.845278 0.000000 0.000000 0.000000
0.940797 0.007366 0.850540 0.000000 0.000000 0.000000
0.955871 0.203607 0.842950 0.000000 0.000000 0.000000
0.937236 0.216458 0.850526 0.000000 0.000000 0.000000
0.940647 0.003640 0.855104 0.000000 0.000000 0.000000
0.949056 0.205772 0.846866 0.000000 0.000000 0.000000
0.921502 0.076483 0.872110 0.000000 0.000000 0.000000
0.920999 0.084511 0.869834 0.000000 0.000000 0.000000
0.924924 0.166167 0.869251 0.000000 0.000000 0.000000
0.957805 0.235137 0.838431 0.000000 0.000000 0.000000
0.961557 0.236349 0.828847 0.000000 0.000000 0.000000
0.905246 0.150561 0.867025 0.000000 0.000000 0.000000
0.921081 0.151649 0.858973 0.000000 0.000000 0.000000
0.941408 0.041354 0.847321 0.000000 0.000000 0.000000
0.932628 0.085167 0.868555 0.000000 0.000000 0.000000
0.923238 0.068527 0.877341 0.000000 0.000000 0.000000
0.933537 0.138540 0.854150 0.000000 0.000000 0.000000
0.915488 0.140983 0.858290 0.000000 0.000000 0.000000
0.892419 0.150203 0.865451 0.000000 0.000000 0.000000
0.923395 0.085781 0.874841 0.000000 0.000000 0.000000
0.974784 0.233438 0.828901 0.000000 0.000000 0.000000
0.968688 0.227193 0.830571 0.000000 0.000000 0.000000
0.901171 0.169332 0.863418 0.000000 0.000000 0.000000
0.904251 0.161510 0.870685 0.000000 0.000000 0.000000
0.897238 0.160555 0.861697 0.000000 0.000000 0.000000
0.938396 0.171351 0.840059 0.000000 0.000000 0.000000
0.893641 0.165580 0.865747 0.000000 0.000000 0.000000
0.890057 0.101184 0.874107 0.000000 0.000000 0.000000
0.925226 0.207123 0.864000 0.000000 0.000000 0.000000
0.902018 0.128330 0.863533 0.000000 0.000000 0.000000
0.905086 0.136929 0.864310 0.000000 0.000000 0.000000
0.919862 0.104220 0.841454 0.000000 0.000000 0.000000
0.916879 0.202974 0.871769 0.000000 0.000000 0.000000
0.914477 0.212845 0.860956 0.000000 0.000000 0.000000
0.899268 0.194491 0.861211 0.000000 0.000000 0.000000
0.925236 0.086503 0.866131 0.000000 0.000000 0.000000
0.921992 0.094221 0.877051 0.000000 0.000000 0.000000
0.915224 0.201154 0.851645 0.000000 0.000000 0.000000
0.938205 0.036465 0.842704 0.000000 0.000000 0.000000
0.925603 0.030030 0.869329 0.000000 0.000000 0.000000
0.937275 0.150109 0.855402 0.000000 0.000000 0.000000
0.930154 0.116942 0.853147 0.000000 0.000000 0.000000
0.939023 0.073772 0.837754 0.000000 0.000000 0.000000
0.918618 0.148051 0.861662 0.000000 0.000000 0.000000
0.926754 0.125021 0.853823 0.000000 0.000000 0.000000
0.926987 0.046157 0.852146 0.000000 0.000000 0.000000
0.929317 0.030037 0.858231 0.000000 0.000000 0.000000
0.897800 0.084856 0.879204 0.000000 0.000000 0.000000
0.928790 0.134412 0.855658 0.000000 0.000000 0.000000
0.939664 0.019579 0.845620 0.000000 0.000000 0.000000
0.934320 0.061414 0.846417 0.000000 0.000000 0.000000
0.915337 0.188107 0.871375 0.000000 0.000000 0.000000
0.898958 0.085462 0.879718 0.000000 0.000000 0.000000
0.927084 0.219569 0.844323 0.000000 0.000000 0.000000
0.936195 0.006486 0.842133 0.000000 0.000000 0.000000
0.944052 0.086180 0.840164 0.000000 0.000000 0.000000
0.943891 0.224506 0.845035 0.000000 0.000000 0.000000
0.904528 0.097916 0.891861 0.000000 0.000000 0.000000
0.917121 0.172702 0.859476 0.000000 0.000000 0.000000
0.940815 0.097935 0.848691 0.000000 0.000000 0.000000
0.925910 0.052959 0.859318 0.000000 0.000000 0.000000
0.939232 0.105503 0.843334 0.000000 0.000000 0.000000
0.942720 0.069596 0.840940 0.000000 0.000000 0.000000
0.932823 0.093315 0.846606 0.000000 0.000000 0.000000
0.941650 0.143941 0.850058 0.000000 0.000000 0.000000
0.922729 0.187884 0.859817 0.000000 0.000000 0.000000
0.933487 0.102745 0.855422 0.000000 0.000000 0.000000
0.903385 0.193298 0.866397 0.000000 0.000000 0.000000
0.927042 0.123971 0.860998 0.000000 0.000000 0.000000
0.927982 0.210479 0.843003 0.000000 0.000000 0.000000
0.930042 0.067636 0.844375 0.000000 0.000000 0.000000
0.921304 0.138141 0.856204 0.000000 0.000000 0.000000
0.938012 0.115420 0.848594 0.000000 0.000000 0.000000
0.911127 0.211620 0.857543 0.000000 0.000000 0.000000
0.938081 0.065297 0.848793 0.000000 0.000000 0.000000
0.950642 0.127169 0.851505 0.000000 0.000000 0.000000
0.897494 0.196847 0.866191 0.000000 0.000000 0.000000
0.937065 0.126510 0.845805 0.000000 0.000000 0.000000
0.944011 0.138138 0.842809 0.000000 0.000000 0.000000
0.900267 0.193105 0.857104 0.000000 0.000000 0.000000
0.949938 0.152599 0.856484 0.000000 0.000000 0.000000
0.938436 0.037807 0.865462 0.000000 0.000000 0.000000
0.939477 0.090676 0.860060 0.000000 0.000000 0.000000
0.934859 0.232004 0.838620 0.000000 0.000000 0.000000
0.935359 0.204698 0.847492 0.000000 0.000000 0.000000
0.927597 0.058546 0.842355 0.000000 0.000000 0.000000
0.954494 0.151050 0.841519 0.000000 0.000000 0.000000
0.938160 0.054903 0.841562 0.000000 0.000000 0.000000
0.937540 0.040983 0.843869 0.000000 0.000000 0.000000
0.950469 0.148777 0.848454 0.000000 0.000000 0.000000
0.901854 0.162366 0.873743 0.000000 0.000000 0.000000
0.899161 0.165864 0.873857 0.000000 0.000000 0.000000
0.899179 0.167891 0.865699 0.000000 0.000000 0.000000
0.891218 0.082394 0.871669 0.000000 0.000000 0.000000
0.938229 0.046279 0.846882 0.000000 0.000000 0.000000
0.918237 0.201417 0.851344 0.000000 0.000000 0.000000
0.940789 0.149965 0.854653 0.000000 0.000000 0.000000
0.961062 0.216111 0.833926 0.000000 0.000000 0.000000
0.949710 0.137116 0.853449 0.000000 0.000000 0.000000
0.903956 0.159470 0.868584 0.000000 0.000000 0.000000
0.926320 0.087745 0.854970 0.000000 0.000000 0.000000
0.935277 0.125228 0.851465 0.000000 0.000000 0.000000
0.930835 0.043763 0.873639 0.000000 0.000000 0.000000
0.932473 0.083498 0.857866 0.000000 0.000000 0.000000
0.942556 0.227347 0.832713 0.000000 0.000000 0.000000
0.931227 0.199496 0.852712 0.000000 0.000000 0.000000
0.969860 0.205544 0.842762 0.000000 0.000000 0.000000
0.908915 0.195346 0.845285 0.000000 0.000000 0.000000
0.928351 0.103468 0.859724 0.000000 0.000000 0.000000
0.894583 0.164811 0.865492 0.000000 0.000000 0.000000
0.910784 0.203929 0.858010 0.000000 0.000000 0.000000
0.939413 0.017878 0.863008 0.000000 0.000000 0.000000
0.973196 0.220351 0.842165 0.000000 0.000000 0.000000
0.946351 0.135800 0.845722 0.000000 0.000000 0.000000
0.951427 0.143094 0.854648 0.000000 0.000000 0.000000
0.940193 0.015577 0.857561 0.000000 0.000000 0.000000
0.941949 0.074400 0.844131 0.000000 0.000000 0.000000
0.895519 0.178355 0.861996 0.000000 0.000000 0.000000
0.928120 0.221562 0.861713 0.000000 0.000000 0.000000
0.923998 0.008510 0.856145 0.000000 0.000000 0.000000
0.939289 0.071566 0.846065 0.000000 0.000000 0.000000
0.934082 0.214102 0.851019 0.000000 0.000000 0.000000
0.931240 0.012678 0.853221 0.000000 0.000000 0.000000
0.938986 0.071119 0.848516 0.000000 0.000000 0.000000
0.916683 0.218533 0.856782 0.000000 0.000000 0.000000
0.919987 0.106152 0.875783 0.000000 0.000000 0.000000
0.973652 0.206058 0.840807 0.000000 0.000000 0.000000
0.942411 0.084879 0.842286 0.000000 0.000000 0.000000
0.881493 0.151767 0.868901 0.000000 0.000000 0.000000
0.967992 0.229171 0.836687 0.000000 0.000000 0.000000
0.955647 0.225620 0.844784 0.000000 0.000000 0.000000
0.899751 0.151301 0.855974 0.000000 0.000000 0.000000
0.965094 0.235996 0.830270 0.000000 0.000000 0.000000
0.968174 0.233585 0.838133 0.000000 0.000000 0.000000
0.966360 0.194602 0.844389 0.000000 0.000000 0.000000
0.944833 0.099658 0.844559 0.000000 0.000000 0.000000
0.972341 0.243809 0.829953 0.000000 0.000000 0.000000
0.941240 0.126715 0.854776 0.000000 0.000000 0.000000
0.961533 0.206475 0.845170 0.000000 0.000000 0.000000
0.923284 0.128793 0.879615 0.000000 0.000000 0.000000
0.967188 0.240755 0.827376 0.000000 0.000000 0.000000
0.941170 0.078463 0.845261 0.000000 0.000000 0.000000
0.947530 0.009123 0.869964 0.000000 0.000000 0.000000
0.942063 0.148091 0.851256 0.000000 0.000000 0.000000
0.919020 0.194511 0.860293 0.000000 0.000000 0.000000
0.913836 0.068960 0.886327 0.000000 0.000000 0.000000
0.903491 0.074707 0.884669 0.000000 0.000000 0.000000
0.971443 0.189948 0.847165 0.000000 0.000000 0.000000
0.941936 0.074221 0.844694 0.000000 0.000000 0.000000
0.935322 0.111875 0.850491 0.000000 0.000000 0.000000
0.942253 0.025983 0.877981 0.000000 0.000000 0.000000
0.909290 0.094214 0.885725 0.000000 0.000000 0.000000
0.939960 0.040472 0.843796 0.000000 0.000000 0.000000
0.978630 0.204581 0.835085 0.000000 0.000000 0.000000
0.939336 0.095101 0.846303 0.000000 0.000000 0.000000
0.956125 0.145622 0.854173 0.000000 0.000000 0.000000
0.963561 0.180941 0.849697 0.000000 0.000000 0.000000
0.950731 0.142333 0.852192 0.000000 0.000000 0.000000
0.930705 0.020204 0.849970 0.000000 0.000000 0.000000
0.936983 0.072198 0.852507 0.000000 0.000000 0.000000
0.922485 0.083440 0.840570 0.000000 0.000000 0.000000
0.932919 0.230196 0.833949 0.000000 0.000000 0.000000
0.939598 0.001070 0.840276 0.000000 0.000000 0.000000
0.944899 0.135467 0.852699 0.000000 0.000000 0.000000
0.944961 0.164165 0.843001 0.000000 0.000000 0.000000
0.930740 0.002280 0.845111 0.000000 0.000000 0.000000
0.936137 0.049147 0.853319 0.000000 0.000000 0.000000
0.926352 0.069912 0.839864 0.000000 0.000000 0.000000
0.950873 0.211838 0.848152 0.000000 0.000000 0.000000
0.938410 0.229494 0.833609 0.000000 0.000000 0.000000
0.903741 0.150393 0.875402 0.000000 0.000000 0.000000
0.949016 0.100923 0.848202 0.000000 0.000000 0.000000
0.963993 0.167352 0.841915 0.000000 0.000000 0.000000
0.969645 0.189873 0.836956 0.000000 0.000000 0.000000
0.932083 0.225309 0.852428 0.000000 0.000000 0.000000
0.903482 0.160600 0.858259 0.000000 0.000000 0.000000
0.970429 0.231358 0.833915 0.000000 0.000000 0.000000
0.894172 0.154934 0.868230 0.000000 0.000000 0.000000
0.952777 0.161518 0.836854 0.000000 0.000000 0.000000
0.940514 0.214319 0.839636 0.000000 0.000000 0.000000
0.949153 0.144742 0.847256 0.000000 0.000000 0.000000
0.923147 0.042366 0.855600 0.000000 0.000000 0.000000
0.942520 0.066550 0.844490 0.000000 0.000000 0.000000
0.940129 0.228059 0.843616 0.000000 0.000000 0.000000
0.943147 0.136697 0.847350 0.000000 0.000000 0.000000
0.966797 0.177908 0.846030 0.000000 0.000000 0.000000
0.905976 0.056805 0.867785 0.000000 0.000000 0.000000
0.937797 0.117466 0.851672 0.000000 0.000000 0.000000
0.901220 0.150470 0.878158 0.000000 0.000000 0.000000
0.969201 0.217469 0.840415 0.000000 0.000000 0.000000
0.949847 0.230505 0.846109 0.000000 0.000000 0.000000
0.893808 0.164743 0.864155 0.000000 0.000000 0.000000
0.936569 0.001286 0.843310 0.000000 0.000000 0.000000
0.923128 0.224721 0.860835 0.000000 0.000000 0.000000
0.885175 0.105348 0.882142 0.000000 0.000000 0.000000
0.939898 0.004883 0.845093 0.000000 0.000000 0.000000
0.971420 0.201343 0.841726 0.000000 0.000000 0.000000
0.885873 0.098312 0.879881 0.000000 0.000000 0.000000
0.966018 0.181006 0.843243 0.000000 0.000000 0.000000
0.946610 0.017847 0.839006 0.000000 0.000000 0.000000
0.962131 0.168156 0.845820 0.000000 0.000000 0.000000
0.945372 0.020918 0.870352 0.000000 0.000000 0.000000
0.943662 0.027372 0.873493 0.000000 0.000000 0.000000
0.914537 0.203592 0.871090 0.000000 0.000000 0.000000
0.943075 0.024832 0.866079 0.000000 0.000000 0.000000
0.941529 0.042091 0.842451 0.000000 0.000000 0.000000
0.938943 0.014316 0.847186 0.000000 0.000000 0.000000
0.944010 0.062285 0.854609 0.000000 0.000000 0.000000
0.907082 0.170587 0.871438 0.000000 0.000000 0.000000
0.899031 0.178389 0.870674 0.000000 0.000000 0.000000
0.941737 0.013970 0.869529 0.000000 0.000000 0.000000
0.934983 0.033288 0.874028 0.000000 0.000000 0.000000
0.913299 0.212037 0.867563 0.000000 0.000000 0.000000
0.942772 0.025903 0.864771 0.000000 0.000000 0.000000
0.944710 0.009496 0.861067 0.000000 0.000000 0.000000
0.937240 0.044604 0.842409 0.000000 0.000000 0.000000
0.942600 0.054427 0.841075 0.000000 0.000000 0.000000
0.911177 0.176428 0.868760 0.000000 0.000000 0.000000
0.928153 0.238696 0.843702 0.000000 0.000000 0.000000
0.939788 0.021723 0.841216 0.000000 0.000000 0.000000
0.917736 0.006258 0.860864 0.000000 0.000000 0.000000
0.936882 0.011779 0.842272 0.000000 0.000000 0.000000
0.956056 0.214828 0.834836 0.000000 0.000000 0.000000
0.932023 0.006147 0.848563 0.000000 0.000000 0.000000
0.939078 0.017639 0.842445 0.000000 0.000000 0.000000
0.934111 0.080582 0.845089 0.000000 0.000000 0.000000
0.932180 0.095554 0.843711 0.000000 0.000000 0.000000
0.927450 0.099908 0.843122 0.000000 0.000000 0.000000
0.926283 0.093300 0.840919 0.000000 0.000000 0.000000
0.910407 0.209337 0.850111 0.000000 0.000000 0.000000
0.951171 0.150427 0.843112 0.000000 0.000000 0.000000
0.925955 0.080367 0.855974 0.000000 0.000000 0.000000
0.951470 0.181007 0.860460 0.000000 0.000000 0.000000
0.906418 0.095765 0.862870 0.000000 0.000000 0.000000
0.915910 0.082099 0.848677 0.000000 0.000000 0.000000
0.930043 0.092364 0.845214 0.000000 0.000000 0.000000
0.884513 0.164435 0.877448 0.000000 0.000000 0.000000
0.890293 0.078911 0.875449 0.000000 0.000000 0.000000
0.938317 0.101191 0.850258 0.000000 0.000000 0.000000
0.940375 0.070790 0.844526 0.000000 0.000000 0.000000
0.951758 0.171210 0.864124 0.000000 0.000000 0.000000
0.907930 0.090124 0.857381 0.000000 0.000000 0.000000
0.915505 0.093761 0.875903 0.000000 0.000000 0.000000
0.930969 0.078637 0.844943 0.000000 0.000000 0.000000
0.932674 0.069662 0.842247 0.000000 0.000000 0.000000
0.937279 0.107010 0.849674 0.000000 0.000000 0.000000
0.934919 0.051444 0.844092 0.000000 0.000000 0.000000
0.895882 0.163311 0.861596 0.000000 0.000000 0.000000
0.895397 0.169243 0.863304 0.000000 0.000000 0.000000
0.945247 0.064714 0.839101 0.000000 0.000000 0.000000
0.917567 0.203299 0.859436 0.000000 0.000000 0.000000
0.938686 0.103870 0.845367 0.000000 0.000000 0.000000
0.915776 0.207305 0.851845 0.000000 0.000000 0.000000
0.926019 0.046172 0.841143 0.000000 0.000000 0.000000
0.913316 0.121504 0.879132 0.000000 0.000000 0.000000
0.902575 0.181729 0.870647 0.000000 0.000000 0.000000
0.904534 0.190311 0.868204 0.000000 0.000000 0.000000
0.945265 0.055504 0.839756 0.000000 0.000000 0.000000
0.906462 0.189232 0.865973 0.000000 0.000000 0.000000
0.907090 0.196129 0.855032 0.000000 0.000000 0.000000
0.928621 0.036142 0.842259 0.000000 0.000000 0.000000
0.899853 0.190491 0.867698 0.000000 0.000000 0.000000
0.944655 0.132142 0.851481 0.000000 0.000000 0.000000
0.928472 0.105786 0.863885 0.000000 0.000000 0.000000
0.961766 0.158906 0.850493 0.000000 0.000000 0.000000
0.940795 0.137176 0.863824 0.000000 0.000000 0.000000
0.949294 0.134930 0.857660 0.000000 0.000000 0.000000
0.948545 0.150057 0.860861 0.000000 0.000000 0.000000
0.893752 0.134406 0.873480 0.000000 0.000000 0.000000
0.925518 0.235066 0.846400 0.000000 0.000000 0.000000
0.925319 0.228164 0.850610 0.000000 0.000000 0.000000
0.876773 0.110164 0.873518 0.000000 0.000000 0.000000
0.922713 0.223712 0.858240 0.000000 0.000000 0.000000
0.917159 0.116698 0.881404 0.000000 0.000000 0.000000
0.916085 0.116930 0.876911 0.000000 0.000000 0.000000
0.883548 0.147881 0.878051 0.000000 0.000000 0.000000
0.902168 0.147650 0.864351 0.000000 0.000000 0.000000
0.920959 0.068511 0.881577 0.000000 0.000000 0.000000
0.957610 0.139399 0.850729 0.000000 0.000000 0.000000
0.941802 0.044489 0.845121 0.000000 0.000000 0.000000
0.917858 0.146550 0.870651 0.000000 0.000000 0.000000
0.910974 0.131006 0.878112 0.000000 0.000000 0.000000
0.931550 0.045182 0.846286 0.000000 0.000000 0.000000
0.937537 0.108856 0.863490 0.000000 0.000000 0.000000
0.928692 0.102077 0.878430 0.000000 0.000000 0.000000
0.938190 0.106888 0.867647 0.000000 0.000000 0.000000
0.940177 0.035175 0.843740 0.000000 0.000000 0.000000
0.937344 0.022840 0.843057 0.000000 0.000000 0.000000
0.922884 0.204402 0.860870 0.000000 0.000000 0.000000
0.922776 0.100420 0.849817 0.000000 0.000000 0.000000
0.933273 0.130516 0.868344 0.000000 0.000000 0.000000
0.930576 0.117278 0.846020 0.000000 0.000000 0.000000
0.890146 0.152264 0.874053 0.000000 0.000000 0.000000
0.900605 0.148133 0.868514 0.000000 0.000000 0.000000
0.936395 0.094477 0.871800 0.000000 0.000000 0.000000
0.942456 0.052698 0.843700 0.000000 0.000000 0.000000
0.913494 0.127915 0.872843 0.000000 0.000000 0.000000
0.942336 0.043282 0.845740 0.000000 0.000000 0.000000
0.937779 0.092499 0.867015 0.000000 0.000000 0.000000
0.932482 0.093783 0.873842 0.000000 0.000000 0.000000
0.930087 0.093969 0.871470 0.000000 0.000000 0.000000
0.943621 0.037783 0.841271 0.000000 0.000000 0.000000
0.936984 0.030069 0.847200 0.000000 0.000000 0.000000
0.918252 0.212928 0.858972 0.000000 0.000000 0.000000
0.927299 0.089938 0.838534 0.000000 0.000000 0.000000
0.909523 0.183580 0.867968 0.000000 0.000000 0.000000
0.922168 0.225353 0.854143 0.000000 0.000000 0.000000
0.909177 0.083298 0.889963 0.000000 0.000000 0.000000
0.883458 0.106834 0.878513 0.000000 0.000000 0.000000
0.907244 0.148097 0.879516 0.000000 0.000000 0.000000
0.902976 0.149782 0.879716 0.000000 0.000000 0.000000
0.929053 0.053181 0.850157 0.000000 0.000000 0.000000
0.908259 0.093010 0.884314 0.000000 0.000000 0.000000
0.908370 0.159290 0.879559 0.000000 0.000000 0.000000
0.906393 0.164378 0.877097 0.000000 0.000000 0.000000
0.918984 0.042180 0.853723 0.000000 0.000000 0.000000
0.930586 0.085253 0.836793 0.000000 0.000000 0.000000
0.933108 0.091260 0.846193 0.000000 0.000000 0.000000
0.930015 0.061633 0.847786 0.000000 0.000000 0.000000
0.932526 0.060911 0.853037 0.000000 0.000000 0.000000
0.931167 0.089901 0.846846 0.000000 0.000000 0.000000
0.927623 0.096267 0.846267 0.000000 0.000000 0.000000
0.931077 0.095913 0.846606 0.000000 0.000000 0.000000
0.929012 0.060854 0.844776 0.000000 0.000000 0.000000
0.926949 0.082839 0.843120 0.000000 0.000000 0.000000
0.925661 0.084047 0.845509 0.000000 0.000000 0.000000
0.950743 0.187230 0.839821 0.000000 0.000000 0.000000
0.885924 0.161308 0.872856 0.000000 0.000000 0.000000
0.890317 0.171740 0.869245 0.000000 0.000000 0.000000
0.956709 0.184211 0.831803 0.000000 0.000000 0.000000
0.972354 0.242600 0.824847 0.000000 0.000000 0.000000
0.966538 0.194273 0.846186 0.000000 0.000000 0.000000
0.939617 0.111556 0.847485 0.000000 0.000000 0.000000
0.890372 0.134352 0.880511 0.000000 0.000000 0.000000
0.880964 0.086565 0.869947 0.000000 0.000000 0.000000
0.939966 0.113369 0.846214 0.000000 0.000000 0.000000
0.884058 0.088186 0.871521 0.000000 0.000000 0.000000
0.931184 0.078547 0.836211 0.000000 0.000000 0.000000
0.959824 0.193068 0.835310 0.000000 0.000000 0.000000
0.955722 0.173135 0.840151 0.000000 0.000000 0.000000
0.883398 0.167942 0.873804 0.000000 0.000000 0.000000
0.960334 0.201068 0.829417 0.000000 0.000000 0.000000
0.957857 0.181413 0.838385 0.000000 0.000000 0.000000
0.961622 0.165738 0.837274 0.000000 0.000000 0.000000
0.941907 0.162674 0.852596 0.000000 0.000000 0.000000
0.957471 0.160215 0.854112 0.000000 0.000000 0.000000
0.959832 0.199920 0.836877 0.000000 0.000000 0.000000
0.963190 0.168369 0.845642 0.000000 0.000000 0.000000
0.949005 0.157804 0.840829 0.000000 0.000000 0.000000
0.931672 0.200791 0.839226 0.000000 0.000000 0.000000
0.962284 0.201133 0.844509 0.000000 0.000000 0.000000
0.962734 0.152745 0.845566 0.000000 0.000000 0.000000
0.923304 0.090121 0.841876 0.000000 0.000000 0.000000
0.936975 0.127438 0.843411 0.000000 0.000000 0.000000
0.946131 0.136438 0.838921 0.000000 0.000000 0.000000
0.938131 0.121556 0.845989 0.000000 0.000000 0.000000
0.933024 0.105941 0.848106 0.000000 0.000000 0.000000
0.882553 0.117573 0.867265 0.000000 0.000000 0.000000
0.925481 0.106391 0.849099 0.000000 0.000000 0.000000
0.935621 0.107449 0.839749 0.000000 0.000000 0.000000
0.940052 0.133071 0.843110 0.000000 0.000000 0.000000
0.933348 0.102361 0.848224 0.000000 0.000000 0.000000
0.886514 0.117725 0.866389 0.000000 0.000000 0.000000
0.924500 0.101782 0.841786 0.000000 0.000000 0.000000
0.925948 0.080032 0.841588 0.000000 0.000000 0.000000
0.939456 0.033571 0.841249 0.000000 0.000000 0.000000
0.939905 0.050079 0.842024 0.000000 0.000000 0.000000
0.942281 0.031199 0.848877 0.000000 0.000000 0.000000
0.940421 0.044517 0.841108 0.000000 0.000000 0.000000
0.944718 0.049208 0.847717 0.000000 0.000000 0.000000
0.941503 0.070546 0.843106 0.000000 0.000000 0.000000
0.943311 0.083428 0.849648 0.000000 0.000000 0.000000
0.936456 0.047825 0.839738 0.000000 0.000000 0.000000
0.881926 0.120243 0.882358 0.000000 0.000000 0.000000
0.937039 0.023799 0.846396 0.000000 0.000000 0.000000
0.880835 0.116450 0.878144 0.000000 0.000000 0.000000
0.937529 0.008624 0.844512 0.000000 0.000000 0.000000
0.965054 0.152315 0.840565 0.000000 0.000000 0.000000
0.957456 0.149408 0.840032 0.000000 0.000000 0.000000
0.972457 0.182594 0.841735 0.000000 0.000000 0.000000
0.953498 0.142221 0.842831 0.000000 0.000000 0.000000
0.969812 0.168381 0.842225 0.000000 0.000000 0.000000
0.939620 0.004146 0.841336 0.000000 0.000000 0.000000
0.924665 0.227261 0.855787 0.000000 0.000000 0.000000
0.958324 0.233676 0.833124 0.000000 0.000000 0.000000
0.950824 0.230971 0.834157 0.000000 0.000000 0.000000
0.973516 0.237991 0.832408 0.000000 0.000000 0.000000
0.973389 0.237974 0.829162 0.000000 0.000000 0.000000
0.957500 0.231500 0.843501 0.000000 0.000000 0.000000
0.926448 0.216958 0.861350 0.000000 0.000000 0.000000
0.933256 0.226753 0.844562 0.000000 0.000000 0.000000
0.972411 0.211191 0.844343 0.000000 0.000000 0.000000
0.959315 0.226218 0.843873 0.000000 0.000000 0.000000
0.966003 0.224057 0.841757 0.000000 0.000000 0.000000
0.946659 0.223289 0.850036 0.000000 0.000000 0.000000
0.945893 0.232133 0.838642 0.000000 0.000000 0.000000
0.971447 0.205047 0.844345 0.000000 0.000000 0.000000
0.968149 0.211129 0.841684 0.000000 0.000000 0.000000
0.967695 0.220308 0.840591 0.000000 0.000000 0.000000
0.940217 0.218157 0.853970 0.000000 0.000000 0.000000
0.959857 0.189504 0.835514 0.000000 0.000000 0.000000
0.937470 0.026222 0.843567 0.000000 0.000000 0.000000
0.957991 0.182300 0.838702 0.000000 0.000000 0.000000
0.955449 0.172134 0.836114 0.000000 0.000000 0.000000
0.924859 0.193618 0.846421 0.000000 0.000000 0.000000
0.967507 0.189133 0.832571 0.000000 0.000000 0.000000
0.939408 0.027381 0.840070 0.000000 0.000000 0.000000
0.885866 0.152882 0.879031 0.000000 0.000000 0.000000
0.893465 0.136906 0.878753 0.000000 0.000000 0.000000
0.957471 0.197310 0.833440 0.000000 0.000000 0.000000
0.938897 0.186930 0.845863 0.000000 0.000000 0.000000
0.926919 0.198457 0.848854 0.000000 0.000000 0.000000
0.942754 0.183239 0.839540 0.000000 0.000000 0.000000
0.964763 0.180564 0.838468 0.000000 0.000000 0.000000
0.937599 0.030589 0.845971 0.000000 0.000000 0.000000
0.889127 0.154292 0.875663 0.000000 0.000000 0.000000
0.888350 0.150842 0.877154 0.000000 0.000000 0.000000
0.936634 0.179201 0.853562 0.000000 0.000000 0.000000
0.881210 0.090398 0.870970 0.000000 0.000000 0.000000
0.889475 0.091188 0.872716 0.000000 0.000000 0.000000
0.887186 0.086635 0.871732 0.000000 0.000000 0.000000
0.892069 0.085792 0.869309 0.000000 0.000000 0.000000
0.892168 0.059008 0.879368 0.000000 0.000000 0.000000
0.884244 0.086467 0.879853 0.000000 0.000000 0.000000
0.898210 0.054247 0.870540 0.000000 0.000000 0.000000
0.892964 0.051956 0.880600 0.000000 0.000000 0.000000
0.888178 0.058025 0.910253 0.000000 0.000000 0.000000
0.911308 0.009800 0.866415 0.000000 0.000000 0.000000
0.890111 0.047599 0.870920 0.000000 0.000000 0.000000
0.888097 0.042428 0.878933 0.000000 0.000000 0.000000
0.881375 0.051932 0.911744 0.000000 0.000000 0.000000
0.902662 0.040226 0.866929 0.000000 0.000000 0.000000
0.893364 0.055273 0.878308 0.000000 0.000000 0.000000
0.913703 0.004566 0.864999 0.000000 0.000000 0.000000
0.884005 0.063162 0.919318 0.000000 0.000000 0.000000
0.887022 0.056420 0.891307 0.000000 0.000000 0.000000
0.918018 0.056571 0.918037 0.000000 0.000000 0.000000
0.899311 0.043748 0.874098 0.000000 0.000000 0.000000
0.886783 0.049473 0.877771 0.000000 0.000000 0.000000
0.892367 0.054454 0.885674 0.000000 0.000000 0.000000
0.914208 0.005519 0.871914 0.000000 0.000000 0.000000
0.898901 0.034120 0.868138 0.000000 0.000000 0.000000
0.887521 0.084999 0.877568 0.000000 0.000000 0.000000
0.895221 0.048509 0.880456 0.000000 0.000000 0.000000
0.890402 0.061880 0.875818 0.000000 0.000000 0.000000
0.898726 0.070106 0.894323 0.000000 0.000000 0.000000
0.899992 0.034661 0.877529 0.000000 0.000000 0.000000
0.886051 0.060001 0.882943 0.000000 0.000000 0.000000
0.882889 0.104380 0.880331 0.000000 0.000000 0.000000
0.910966 0.004484 0.858379 0.000000 0.000000 0.000000
0.903264 0.026897 0.865189 0.000000 0.000000 0.000000
0.915930 0.009342 0.862988 0.000000 0.000000 0.000000
0.921121 0.000483 0.863209 0.000000 0.000000 0.000000
0.911970 0.002545 0.869984 0.000000 0.000000 0.000000
0.891160 0.080992 0.880872 0.000000 0.000000 0.000000
0.886676 0.074109 0.881668 0.000000 0.000000 0.000000
0.886929 0.074896 0.877160 0.000000 0.000000 0.000000
0.895613 0.081360 0.883661 0.000000 0.000000 0.000000
0.881993 0.070341 0.881177 0.000000 0.000000 0.000000
0.882021 0.073778 0.901452 0.000000 0.000000 0.000000
0.881001 0.080935 0.883333 0.000000 0.000000 0.000000
0.914376 0.013652 0.866535 0.000000 0.000000 0.000000
0.902146 0.053204 0.885213 0.000000 0.000000 0.000000
0.897644 0.055622 0.892803 0.000000 0.000000 0.000000
0.897453 0.055514 0.911656 0.000000 0.000000 0.000000
0.891643 0.030198 0.875973 0.000000 0.000000 0.000000
0.887756 0.095153 0.883980 0.000000 0.000000 0.000000
0.880672 0.069301 0.880074 0.000000 0.000000 0.000000
0.890132 0.063354 0.908276 0.000000 0.000000 0.000000
0.892075 0.049706 0.873993 0.000000 0.000000 0.000000
0.891191 0.073426 0.876678 0.000000 0.000000 0.000000
0.906570 0.038884 0.875894 0.000000 0.000000 0.000000
0.890521 0.063203 0.886545 0.000000 0.000000 0.000000
0.891299 0.044786 0.875567 0.000000 0.000000 0.000000
0.896285 0.065651 0.880754 0.000000 0.000000 0.000000
0.891327 0.077083 0.885508 0.000000 0.000000 0.000000
0.914456 0.009994 0.863117 0.000000 0.000000 0.000000
0.899191 0.077580 0.886650 0.000000 0.000000 0.000000
0.879585 0.083941 0.874359 0.000000 0.000000 0.000000
0.901993 0.050134 0.912958 0.000000 0.000000 0.000000
0.883557 0.097037 0.883825 0.000000 0.000000 0.000000
0.886565 0.054492 0.889171 0.000000 0.000000 0.000000
0.881678 0.061058 0.902331 0.000000 0.000000 0.000000
0.886012 0.036478 0.872299 0.000000 0.000000 0.000000
0.884008 0.058550 0.898770 0.000000 0.000000 0.000000
0.909594 0.004369 0.858720 0.000000 0.000000 0.000000
0.905948 0.008873 0.859082 0.000000 0.000000 0.000000
0.885976 0.062721 0.919178 0.000000 0.000000 0.000000
0.878829 0.068810 0.870456 0.000000 0.000000 0.000000
0.871871 0.109616 0.878080 0.000000 0.000000 0.000000
0.903840 0.012963 0.864256 0.000000 0.000000 0.000000
0.901803 0.020142 0.865820 0.000000 0.000000 0.000000
0.882747 0.064379 0.870726 0.000000 0.000000 0.000000
0.885629 0.076965 0.871777 0.000000 0.000000 0.000000
0.883600 0.082948 0.873983 0.000000 0.000000 0.000000
0.885327 0.063398 0.897902 0.000000 0.000000 0.000000
0.900642 0.073504 0.892116 0.000000 0.000000 0.000000
0.893420 0.071486 0.881626 0.000000 0.000000 0.000000
0.900418 0.075536 0.894179 0.000000 0.000000 0.000000
0.902014 0.063952 0.890489 0.000000 0.000000 0.000000
0.904704 0.043887 0.889376 0.000000 0.000000 0.000000
0.891627 0.050519 0.894983 0.000000 0.000000 0.000000
0.884718 0.052720 0.864068 0.000000 0.000000 0.000000
0.895179 0.038651 0.866163 0.000000 0.000000 0.000000
0.890587 0.040010 0.876538 0.000000 0.000000 0.000000
0.899210 0.096821 0.895348 0.000000 0.000000 0.000000
0.889693 0.037028 0.867353 0.000000 0.000000 0.000000
0.889279 0.063840 0.872284 0.000000 0.000000 0.000000
0.889073 0.030263 0.868651 0.000000 0.000000 0.000000
0.878808 0.057096 0.874209 0.000000 0.000000 0.000000
0.881600 0.061882 0.877693 0.000000 0.000000 0.000000
0.885930 0.034078 0.864619 0.000000 0.000000 0.000000
0.889788 0.074261 0.900815 0.000000 0.000000 0.000000
0.891324 0.082794 0.885334 0.000000 0.000000 0.000000
0.886096 0.088861 0.883372 0.000000 0.000000 0.000000
0.893273 0.071511 0.910896 0.000000 0.000000 0.000000
0.888324 0.072135 0.894842 0.000000 0.000000 0.000000
0.886945 0.063191 0.895491 0.000000 0.000000 0.000000
0.891441 0.081360 0.887151 0.000000 0.000000 0.000000
0.887651 0.068801 0.893909 0.000000 0.000000 0.000000
0.886879 0.061465 0.890015 0.000000 0.000000 0.000000
0.899678 0.086245 0.892722 0.000000 0.000000 0.000000
0.885324 0.052446 0.889721 0.000000 0.000000 0.000000
0.877441 0.055329 0.867522 0.000000 0.000000 0.000000
0.886463 0.041818 0.885107 0.000000 0.000000 0.000000
0.877450 0.057414 0.870832 0.000000 0.000000 0.000000
0.873382 0.099869 0.878802 0.000000 0.000000 0.000000
0.906671 0.005827 0.857333 0.000000 0.000000 0.000000
0.881617 0.098363 0.885650 0.000000 0.000000 0.000000
0.888484 0.052691 0.869521 0.000000 0.000000 0.000000
0.888083 0.075374 0.902160 0.000000 0.000000 0.000000
0.894220 0.063756 0.897252 0.000000 0.000000 0.000000
0.883353 0.079493 0.869656 0.000000 0.000000 0.000000
0.883913 0.052588 0.869587 0.000000 0.000000 0.000000
0.885963 0.058924 0.870850 0.000000 0.000000 0.000000
0.883147 0.060552 0.872768 0.000000 0.000000 0.000000
0.882214 0.056643 0.869214 0.000000 0.000000 0.000000
