ply
format ascii 1.0
comment VCGLIB generated
obj_info Generated by SPFormer!
element vertex 787
property float x
property float y
property float z
property float nx
property float ny
property float nz
end_header
1.267116 -0.363791 0.687340 0.000000 0.000000 0.000000
1.256146 -0.396857 0.677722 0.000000 0.000000 0.000000
1.285565 -0.314853 0.681825 0.000000 0.000000 0.000000
1.276380 -0.277912 0.660957 0.000000 0.000000 0.000000
1.275159 -0.345307 0.684301 0.000000 0.000000 0.000000
1.278551 -0.366171 0.662129 0.000000 0.000000 0.000000
1.284275 -0.329843 0.679730 0.000000 0.000000 0.000000
1.248657 -0.392731 0.686640 0.000000 0.000000 0.000000
1.292357 -0.271792 0.658827 0.000000 0.000000 0.000000
1.281695 -0.267070 0.672336 0.000000 0.000000 0.000000
1.288715 -0.281344 0.691017 0.000000 0.000000 0.000000
1.277653 -0.267718 0.666996 0.000000 0.000000 0.000000
1.288576 -0.257176 0.661765 0.000000 0.000000 0.000000
1.272445 -0.268695 0.668433 0.000000 0.000000 0.000000
1.273072 -0.324003 0.666063 0.000000 0.000000 0.000000
1.280475 -0.281392 0.662179 0.000000 0.000000 0.000000
1.313336 -0.301648 0.667327 0.000000 0.000000 0.000000
1.288865 -0.288037 0.672257 0.000000 0.000000 0.000000
1.264548 -0.375704 0.669083 0.000000 0.000000 0.000000
1.279234 -0.270807 0.663005 0.000000 0.000000 0.000000
1.278109 -0.262108 0.670180 0.000000 0.000000 0.000000
1.277475 -0.376684 0.665434 0.000000 0.000000 0.000000
1.290500 -0.274294 0.660870 0.000000 0.000000 0.000000
1.284667 -0.266625 0.656990 0.000000 0.000000 0.000000
1.283587 -0.392740 0.658070 0.000000 0.000000 0.000000
1.255759 -0.380473 0.689564 0.000000 0.000000 0.000000
1.302614 -0.278549 0.660207 0.000000 0.000000 0.000000
1.295114 -0.292655 0.667529 0.000000 0.000000 0.000000
1.278161 -0.280922 0.667346 0.000000 0.000000 0.000000
1.280917 -0.258946 0.663274 0.000000 0.000000 0.000000
1.301966 -0.310545 0.684065 0.000000 0.000000 0.000000
1.288013 -0.263714 0.647490 0.000000 0.000000 0.000000
1.271784 -0.304335 0.668969 0.000000 0.000000 0.000000
1.291576 -0.294598 0.662336 0.000000 0.000000 0.000000
1.285051 -0.316216 0.661347 0.000000 0.000000 0.000000
1.284032 -0.306452 0.660896 0.000000 0.000000 0.000000
1.289160 -0.356314 0.668706 0.000000 0.000000 0.000000
1.288942 -0.258054 0.663370 0.000000 0.000000 0.000000
1.286842 -0.278656 0.696556 0.000000 0.000000 0.000000
1.273260 -0.269224 0.668295 0.000000 0.000000 0.000000
1.286277 -0.283617 0.681378 0.000000 0.000000 0.000000
1.251581 -0.303813 0.678056 0.000000 0.000000 0.000000
1.279999 -0.263704 0.668091 0.000000 0.000000 0.000000
1.251292 -0.337477 0.683610 0.000000 0.000000 0.000000
1.269836 -0.270460 0.670919 0.000000 0.000000 0.000000
1.267165 -0.296735 0.668240 0.000000 0.000000 0.000000
1.265602 -0.361666 0.702205 0.000000 0.000000 0.000000
1.296615 -0.335683 0.675250 0.000000 0.000000 0.000000
1.279554 -0.287440 0.672532 0.000000 0.000000 0.000000
1.291515 -0.320147 0.662735 0.000000 0.000000 0.000000
1.305687 -0.284253 0.659539 0.000000 0.000000 0.000000
1.279233 -0.263537 0.669726 0.000000 0.000000 0.000000
1.268961 -0.296372 0.666729 0.000000 0.000000 0.000000
1.264949 -0.370906 0.679518 0.000000 0.000000 0.000000
1.263224 -0.383617 0.695217 0.000000 0.000000 0.000000
1.270287 -0.355343 0.676219 0.000000 0.000000 0.000000
1.294972 -0.263919 0.665690 0.000000 0.000000 0.000000
1.248535 -0.322151 0.674240 0.000000 0.000000 0.000000
1.276625 -0.268373 0.671790 0.000000 0.000000 0.000000
1.264711 -0.374345 0.688138 0.000000 0.000000 0.000000
1.292658 -0.251704 0.660904 0.000000 0.000000 0.000000
1.276570 -0.303053 0.663564 0.000000 0.000000 0.000000
1.268592 -0.268330 0.671367 0.000000 0.000000 0.000000
1.287131 -0.282885 0.671462 0.000000 0.000000 0.000000
1.289068 -0.268093 0.666695 0.000000 0.000000 0.000000
1.279812 -0.357275 0.705050 0.000000 0.000000 0.000000
1.293456 -0.302888 0.676048 0.000000 0.000000 0.000000
1.285208 -0.259363 0.652726 0.000000 0.000000 0.000000
1.280307 -0.339541 0.663975 0.000000 0.000000 0.000000
1.290156 -0.279016 0.658399 0.000000 0.000000 0.000000
1.268126 -0.276851 0.662953 0.000000 0.000000 0.000000
1.265453 -0.339821 0.678813 0.000000 0.000000 0.000000
1.291964 -0.268691 0.657060 0.000000 0.000000 0.000000
1.294978 -0.318538 0.667672 0.000000 0.000000 0.000000
1.298619 -0.332566 0.673504 0.000000 0.000000 0.000000
1.251467 -0.318205 0.678009 0.000000 0.000000 0.000000
1.257870 -0.354856 0.681295 0.000000 0.000000 0.000000
1.280818 -0.326578 0.663667 0.000000 0.000000 0.000000
1.296558 -0.317586 0.664777 0.000000 0.000000 0.000000
1.281710 -0.330263 0.653295 0.000000 0.000000 0.000000
1.296921 -0.344873 0.668297 0.000000 0.000000 0.000000
1.249878 -0.378982 0.686161 0.000000 0.000000 0.000000
1.277585 -0.263378 0.663676 0.000000 0.000000 0.000000
1.288015 -0.262212 0.655905 0.000000 0.000000 0.000000
1.262323 -0.304404 0.670941 0.000000 0.000000 0.000000
1.293164 -0.341071 0.665913 0.000000 0.000000 0.000000
1.294563 -0.292216 0.669842 0.000000 0.000000 0.000000
1.284521 -0.288724 0.664681 0.000000 0.000000 0.000000
1.289393 -0.319393 0.670767 0.000000 0.000000 0.000000
1.274671 -0.372629 0.673454 0.000000 0.000000 0.000000
1.296394 -0.294419 0.659151 0.000000 0.000000 0.000000
1.286182 -0.339439 0.659335 0.000000 0.000000 0.000000
1.278971 -0.313475 0.662762 0.000000 0.000000 0.000000
1.257496 -0.308016 0.672294 0.000000 0.000000 0.000000
1.283606 -0.304074 0.686126 0.000000 0.000000 0.000000
1.287940 -0.375907 0.671737 0.000000 0.000000 0.000000
1.273829 -0.297052 0.654628 0.000000 0.000000 0.000000
1.257003 -0.317939 0.676441 0.000000 0.000000 0.000000
1.296480 -0.258365 0.665055 0.000000 0.000000 0.000000
1.269751 -0.275318 0.670057 0.000000 0.000000 0.000000
1.262805 -0.322234 0.670168 0.000000 0.000000 0.000000
1.278493 -0.282048 0.671026 0.000000 0.000000 0.000000
1.274770 -0.303054 0.663205 0.000000 0.000000 0.000000
1.299981 -0.324145 0.669420 0.000000 0.000000 0.000000
1.270612 -0.303677 0.665662 0.000000 0.000000 0.000000
1.287253 -0.273546 0.667693 0.000000 0.000000 0.000000
1.271741 -0.276287 0.671741 0.000000 0.000000 0.000000
1.289869 -0.288636 0.662081 0.000000 0.000000 0.000000
1.289079 -0.355624 0.663681 0.000000 0.000000 0.000000
1.298433 -0.268571 0.661639 0.000000 0.000000 0.000000
1.289876 -0.256084 0.656885 0.000000 0.000000 0.000000
1.298633 -0.292464 0.664852 0.000000 0.000000 0.000000
1.285238 -0.290457 0.659607 0.000000 0.000000 0.000000
1.286040 -0.259353 0.660725 0.000000 0.000000 0.000000
1.288615 -0.385953 0.667836 0.000000 0.000000 0.000000
1.311019 -0.319657 0.665837 0.000000 0.000000 0.000000
1.274723 -0.265994 0.659461 0.000000 0.000000 0.000000
1.287842 -0.292237 0.658009 0.000000 0.000000 0.000000
1.277702 -0.323026 0.659313 0.000000 0.000000 0.000000
1.287818 -0.262843 0.664125 0.000000 0.000000 0.000000
1.294015 -0.323894 0.674560 0.000000 0.000000 0.000000
1.252521 -0.370283 0.687345 0.000000 0.000000 0.000000
1.287287 -0.268388 0.658336 0.000000 0.000000 0.000000
1.249921 -0.331906 0.683650 0.000000 0.000000 0.000000
1.242898 -0.384815 0.689577 0.000000 0.000000 0.000000
1.276581 -0.335327 0.670892 0.000000 0.000000 0.000000
1.263251 -0.301904 0.667520 0.000000 0.000000 0.000000
1.266368 -0.287847 0.668284 0.000000 0.000000 0.000000
1.249235 -0.385974 0.680833 0.000000 0.000000 0.000000
1.281518 -0.396974 0.661367 0.000000 0.000000 0.000000
1.281926 -0.348679 0.684359 0.000000 0.000000 0.000000
1.247431 -0.398253 0.683164 0.000000 0.000000 0.000000
1.281877 -0.294947 0.685413 0.000000 0.000000 0.000000
1.272132 -0.311888 0.665591 0.000000 0.000000 0.000000
1.281641 -0.279853 0.661741 0.000000 0.000000 0.000000
1.289338 -0.292485 0.679189 0.000000 0.000000 0.000000
1.269452 -0.393363 0.666153 0.000000 0.000000 0.000000
1.289522 -0.304743 0.679376 0.000000 0.000000 0.000000
1.306764 -0.294142 0.676298 0.000000 0.000000 0.000000
1.274201 -0.273687 0.665190 0.000000 0.000000 0.000000
1.295613 -0.392054 0.653010 0.000000 0.000000 0.000000
1.297005 -0.266786 0.658269 0.000000 0.000000 0.000000
1.300755 -0.286350 0.658783 0.000000 0.000000 0.000000
1.265319 -0.375948 0.693770 0.000000 0.000000 0.000000
1.276846 -0.291839 0.669345 0.000000 0.000000 0.000000
1.295901 -0.278551 0.664371 0.000000 0.000000 0.000000
1.291752 -0.388725 0.667806 0.000000 0.000000 0.000000
1.267101 -0.341262 0.672201 0.000000 0.000000 0.000000
1.291905 -0.398138 0.671778 0.000000 0.000000 0.000000
1.285034 -0.381905 0.667137 0.000000 0.000000 0.000000
1.254692 -0.396200 0.698347 0.000000 0.000000 0.000000
1.291016 -0.356943 0.695722 0.000000 0.000000 0.000000
1.285622 -0.266019 0.664770 0.000000 0.000000 0.000000
1.282301 -0.282654 0.672611 0.000000 0.000000 0.000000
1.281100 -0.373946 0.667737 0.000000 0.000000 0.000000
1.294700 -0.266735 0.662953 0.000000 0.000000 0.000000
1.250771 -0.311245 0.671891 0.000000 0.000000 0.000000
1.295910 -0.320545 0.659050 0.000000 0.000000 0.000000
1.292511 -0.256945 0.647454 0.000000 0.000000 0.000000
1.300605 -0.316370 0.675089 0.000000 0.000000 0.000000
1.258664 -0.346784 0.675844 0.000000 0.000000 0.000000
1.263600 -0.330377 0.669903 0.000000 0.000000 0.000000
1.255762 -0.328653 0.680003 0.000000 0.000000 0.000000
1.254122 -0.336468 0.676168 0.000000 0.000000 0.000000
1.281652 -0.349196 0.676330 0.000000 0.000000 0.000000
1.274785 -0.387763 0.691468 0.000000 0.000000 0.000000
1.254759 -0.328102 0.677487 0.000000 0.000000 0.000000
1.258963 -0.326994 0.673903 0.000000 0.000000 0.000000
1.285640 -0.312909 0.665898 0.000000 0.000000 0.000000
1.277580 -0.330182 0.664130 0.000000 0.000000 0.000000
1.252972 -0.297388 0.673094 0.000000 0.000000 0.000000
1.265095 -0.287901 0.673462 0.000000 0.000000 0.000000
1.265297 -0.275984 0.670671 0.000000 0.000000 0.000000
1.273392 -0.276886 0.675507 0.000000 0.000000 0.000000
1.263617 -0.283633 0.663549 0.000000 0.000000 0.000000
1.274161 -0.302335 0.665107 0.000000 0.000000 0.000000
1.261072 -0.390412 0.670912 0.000000 0.000000 0.000000
1.256915 -0.292709 0.662512 0.000000 0.000000 0.000000
1.279853 -0.292955 0.660007 0.000000 0.000000 0.000000
1.277852 -0.266743 0.662585 0.000000 0.000000 0.000000
1.272798 -0.274485 0.665059 0.000000 0.000000 0.000000
1.308713 -0.301145 0.661713 0.000000 0.000000 0.000000
1.256702 -0.377890 0.697631 0.000000 0.000000 0.000000
1.258310 -0.304629 0.675912 0.000000 0.000000 0.000000
1.253675 -0.364385 0.679200 0.000000 0.000000 0.000000
1.284736 -0.346333 0.671685 0.000000 0.000000 0.000000
1.273217 -0.332312 0.665494 0.000000 0.000000 0.000000
1.275398 -0.305415 0.663128 0.000000 0.000000 0.000000
1.262375 -0.347704 0.679823 0.000000 0.000000 0.000000
1.251466 -0.353412 0.677710 0.000000 0.000000 0.000000
1.252005 -0.349271 0.678511 0.000000 0.000000 0.000000
1.269494 -0.347097 0.679472 0.000000 0.000000 0.000000
1.289334 -0.347751 0.670661 0.000000 0.000000 0.000000
1.256272 -0.354964 0.677691 0.000000 0.000000 0.000000
1.286644 -0.322006 0.662164 0.000000 0.000000 0.000000
1.257772 -0.335746 0.676603 0.000000 0.000000 0.000000
1.286675 -0.370412 0.702365 0.000000 0.000000 0.000000
1.272781 -0.338678 0.675988 0.000000 0.000000 0.000000
1.270137 -0.329201 0.667856 0.000000 0.000000 0.000000
1.250567 -0.365277 0.680618 0.000000 0.000000 0.000000
1.250550 -0.330416 0.684878 0.000000 0.000000 0.000000
1.244804 -0.383545 0.691943 0.000000 0.000000 0.000000
1.255224 -0.383400 0.678981 0.000000 0.000000 0.000000
1.289888 -0.298089 0.661214 0.000000 0.000000 0.000000
1.254072 -0.321522 0.686730 0.000000 0.000000 0.000000
1.259729 -0.384138 0.683174 0.000000 0.000000 0.000000
1.299977 -0.297424 0.666611 0.000000 0.000000 0.000000
1.267004 -0.324796 0.673539 0.000000 0.000000 0.000000
1.264333 -0.330765 0.673154 0.000000 0.000000 0.000000
1.269597 -0.297411 0.675111 0.000000 0.000000 0.000000
1.246102 -0.310914 0.675828 0.000000 0.000000 0.000000
1.256220 -0.306881 0.671224 0.000000 0.000000 0.000000
1.261989 -0.311667 0.669601 0.000000 0.000000 0.000000
1.261117 -0.300674 0.672903 0.000000 0.000000 0.000000
1.252759 -0.326462 0.676378 0.000000 0.000000 0.000000
1.262585 -0.320965 0.672745 0.000000 0.000000 0.000000
1.261390 -0.344247 0.676451 0.000000 0.000000 0.000000
1.280690 -0.329713 0.661199 0.000000 0.000000 0.000000
1.258081 -0.390432 0.671345 0.000000 0.000000 0.000000
1.301431 -0.334851 0.660087 0.000000 0.000000 0.000000
1.265822 -0.292716 0.666417 0.000000 0.000000 0.000000
1.260873 -0.371087 0.699118 0.000000 0.000000 0.000000
1.278638 -0.284406 0.663746 0.000000 0.000000 0.000000
1.277950 -0.324547 0.671314 0.000000 0.000000 0.000000
1.278865 -0.294717 0.681845 0.000000 0.000000 0.000000
1.276500 -0.361019 0.689978 0.000000 0.000000 0.000000
1.278152 -0.318247 0.662357 0.000000 0.000000 0.000000
1.263341 -0.382867 0.669938 0.000000 0.000000 0.000000
1.287187 -0.350365 0.671131 0.000000 0.000000 0.000000
1.289658 -0.262539 0.658176 0.000000 0.000000 0.000000
1.249368 -0.354705 0.676503 0.000000 0.000000 0.000000
1.282905 -0.264981 0.659732 0.000000 0.000000 0.000000
1.304608 -0.307508 0.658356 0.000000 0.000000 0.000000
1.256781 -0.370643 0.680292 0.000000 0.000000 0.000000
1.258565 -0.359530 0.685450 0.000000 0.000000 0.000000
1.253981 -0.375192 0.672613 0.000000 0.000000 0.000000
1.249417 -0.291157 0.668539 0.000000 0.000000 0.000000
1.255813 -0.298255 0.675221 0.000000 0.000000 0.000000
1.260137 -0.380983 0.695356 0.000000 0.000000 0.000000
1.257614 -0.389152 0.680445 0.000000 0.000000 0.000000
1.295027 -0.354477 0.678593 0.000000 0.000000 0.000000
1.287246 -0.264793 0.651338 0.000000 0.000000 0.000000
1.276013 -0.366501 0.703180 0.000000 0.000000 0.000000
1.301448 -0.344149 0.679662 0.000000 0.000000 0.000000
1.290516 -0.375764 0.683547 0.000000 0.000000 0.000000
1.277421 -0.310172 0.684223 0.000000 0.000000 0.000000
1.279911 -0.344387 0.674480 0.000000 0.000000 0.000000
1.288465 -0.345253 0.680152 0.000000 0.000000 0.000000
1.280783 -0.354328 0.702590 0.000000 0.000000 0.000000
1.253931 -0.380414 0.681375 0.000000 0.000000 0.000000
1.295173 -0.340251 0.677819 0.000000 0.000000 0.000000
1.254529 -0.316599 0.674184 0.000000 0.000000 0.000000
1.265808 -0.313171 0.684867 0.000000 0.000000 0.000000
1.255169 -0.314325 0.679070 0.000000 0.000000 0.000000
1.268344 -0.320531 0.676385 0.000000 0.000000 0.000000
1.264614 -0.308928 0.674719 0.000000 0.000000 0.000000
1.295449 -0.371513 0.676805 0.000000 0.000000 0.000000
1.279708 -0.273497 0.659463 0.000000 0.000000 0.000000
1.298026 -0.263875 0.649567 0.000000 0.000000 0.000000
1.300253 -0.259797 0.648972 0.000000 0.000000 0.000000
1.250082 -0.346540 0.671641 0.000000 0.000000 0.000000
1.287180 -0.345210 0.664709 0.000000 0.000000 0.000000
1.249863 -0.345355 0.677523 0.000000 0.000000 0.000000
1.276268 -0.336074 0.669090 0.000000 0.000000 0.000000
1.291914 -0.376841 0.672839 0.000000 0.000000 0.000000
1.300332 -0.326716 0.666831 0.000000 0.000000 0.000000
1.282292 -0.342241 0.665185 0.000000 0.000000 0.000000
1.252165 -0.368705 0.670301 0.000000 0.000000 0.000000
1.281095 -0.382024 0.666031 0.000000 0.000000 0.000000
1.268478 -0.368594 0.674039 0.000000 0.000000 0.000000
1.278302 -0.258423 0.666481 0.000000 0.000000 0.000000
1.259204 -0.281005 0.672237 0.000000 0.000000 0.000000
1.261722 -0.310847 0.677595 0.000000 0.000000 0.000000
1.256964 -0.301164 0.676409 0.000000 0.000000 0.000000
1.262617 -0.396502 0.664251 0.000000 0.000000 0.000000
1.284794 -0.331798 0.662825 0.000000 0.000000 0.000000
1.278865 -0.285164 0.680464 0.000000 0.000000 0.000000
1.290122 -0.315656 0.662249 0.000000 0.000000 0.000000
1.275018 -0.297024 0.687067 0.000000 0.000000 0.000000
1.259604 -0.303700 0.676850 0.000000 0.000000 0.000000
1.291085 -0.296671 0.659707 0.000000 0.000000 0.000000
1.267288 -0.380125 0.666209 0.000000 0.000000 0.000000
1.271768 -0.389140 0.664161 0.000000 0.000000 0.000000
1.267369 -0.315095 0.664116 0.000000 0.000000 0.000000
1.255902 -0.305364 0.684727 0.000000 0.000000 0.000000
1.258453 -0.294564 0.674608 0.000000 0.000000 0.000000
1.272107 -0.272359 0.668040 0.000000 0.000000 0.000000
1.295683 -0.381068 0.667558 0.000000 0.000000 0.000000
1.297840 -0.387892 0.673508 0.000000 0.000000 0.000000
1.300275 -0.281648 0.659050 0.000000 0.000000 0.000000
1.306601 -0.298951 0.658354 0.000000 0.000000 0.000000
1.285681 -0.269174 0.648389 0.000000 0.000000 0.000000
1.288850 -0.256600 0.651554 0.000000 0.000000 0.000000
1.279999 -0.272757 0.665261 0.000000 0.000000 0.000000
1.250323 -0.362981 0.682043 0.000000 0.000000 0.000000
1.304479 -0.295178 0.652802 0.000000 0.000000 0.000000
1.256614 -0.316946 0.672741 0.000000 0.000000 0.000000
1.248255 -0.368704 0.675841 0.000000 0.000000 0.000000
1.300196 -0.273334 0.657156 0.000000 0.000000 0.000000
1.253410 -0.342149 0.680042 0.000000 0.000000 0.000000
1.247614 -0.359939 0.684278 0.000000 0.000000 0.000000
1.300834 -0.307953 0.667076 0.000000 0.000000 0.000000
1.270457 -0.290566 0.675502 0.000000 0.000000 0.000000
1.276427 -0.287513 0.663135 0.000000 0.000000 0.000000
1.253761 -0.330705 0.684573 0.000000 0.000000 0.000000
1.284068 -0.298483 0.662917 0.000000 0.000000 0.000000
1.274061 -0.272921 0.663361 0.000000 0.000000 0.000000
1.294470 -0.246051 0.659353 0.000000 0.000000 0.000000
1.291196 -0.259874 0.651386 0.000000 0.000000 0.000000
1.291321 -0.348321 0.677377 0.000000 0.000000 0.000000
1.301319 -0.259024 0.654766 0.000000 0.000000 0.000000
1.299206 -0.260288 0.656930 0.000000 0.000000 0.000000
1.292115 -0.255619 0.653485 0.000000 0.000000 0.000000
1.278720 -0.280161 0.659604 0.000000 0.000000 0.000000
1.264546 -0.280596 0.674567 0.000000 0.000000 0.000000
1.277167 -0.379903 0.699975 0.000000 0.000000 0.000000
1.291743 -0.329102 0.661402 0.000000 0.000000 0.000000
1.279564 -0.375218 0.694207 0.000000 0.000000 0.000000
1.297072 -0.336746 0.658450 0.000000 0.000000 0.000000
1.271572 -0.334558 0.663517 0.000000 0.000000 0.000000
1.251113 -0.309454 0.676246 0.000000 0.000000 0.000000
1.272714 -0.377697 0.700816 0.000000 0.000000 0.000000
1.304642 -0.314291 0.674000 0.000000 0.000000 0.000000
1.303754 -0.298566 0.661936 0.000000 0.000000 0.000000
1.302092 -0.309160 0.673317 0.000000 0.000000 0.000000
1.258958 -0.349790 0.684018 0.000000 0.000000 0.000000
1.276122 -0.290319 0.665329 0.000000 0.000000 0.000000
1.278735 -0.293538 0.664164 0.000000 0.000000 0.000000
1.244206 -0.383760 0.684418 0.000000 0.000000 0.000000
1.289651 -0.255891 0.649336 0.000000 0.000000 0.000000
1.291608 -0.358891 0.690656 0.000000 0.000000 0.000000
1.245663 -0.318261 0.674291 0.000000 0.000000 0.000000
1.274154 -0.310242 0.681063 0.000000 0.000000 0.000000
1.251283 -0.309563 0.674723 0.000000 0.000000 0.000000
1.247567 -0.391364 0.681587 0.000000 0.000000 0.000000
1.285189 -0.354197 0.691272 0.000000 0.000000 0.000000
1.246828 -0.355641 0.684286 0.000000 0.000000 0.000000
1.255822 -0.317406 0.672516 0.000000 0.000000 0.000000
1.258112 -0.329601 0.682911 0.000000 0.000000 0.000000
1.287768 -0.380780 0.695240 0.000000 0.000000 0.000000
1.262387 -0.337380 0.683292 0.000000 0.000000 0.000000
1.297244 -0.261105 0.664700 0.000000 0.000000 0.000000
1.300719 -0.267270 0.658866 0.000000 0.000000 0.000000
1.290184 -0.252728 0.661692 0.000000 0.000000 0.000000
1.285028 -0.380519 0.693858 0.000000 0.000000 0.000000
1.268834 -0.345504 0.665530 0.000000 0.000000 0.000000
1.300220 -0.340612 0.674894 0.000000 0.000000 0.000000
1.271263 -0.334865 0.678705 0.000000 0.000000 0.000000
1.295840 -0.252249 0.657588 0.000000 0.000000 0.000000
1.294667 -0.348449 0.661337 0.000000 0.000000 0.000000
1.252364 -0.299055 0.667863 0.000000 0.000000 0.000000
1.250059 -0.323302 0.680303 0.000000 0.000000 0.000000
1.274103 -0.366761 0.701326 0.000000 0.000000 0.000000
1.293018 -0.308530 0.660035 0.000000 0.000000 0.000000
1.292973 -0.344868 0.668777 0.000000 0.000000 0.000000
1.304030 -0.319176 0.659000 0.000000 0.000000 0.000000
1.298324 -0.281921 0.665349 0.000000 0.000000 0.000000
1.280402 -0.317584 0.665329 0.000000 0.000000 0.000000
1.290712 -0.318343 0.661801 0.000000 0.000000 0.000000
1.272052 -0.302021 0.669531 0.000000 0.000000 0.000000
1.249810 -0.396234 0.690882 0.000000 0.000000 0.000000
1.250581 -0.377590 0.698353 0.000000 0.000000 0.000000
1.287520 -0.321909 0.658671 0.000000 0.000000 0.000000
1.287560 -0.305355 0.655005 0.000000 0.000000 0.000000
1.293517 -0.271713 0.659528 0.000000 0.000000 0.000000
1.275105 -0.361541 0.702482 0.000000 0.000000 0.000000
1.245362 -0.382006 0.685402 0.000000 0.000000 0.000000
1.265877 -0.394752 0.680935 0.000000 0.000000 0.000000
1.269431 -0.315243 0.693446 0.000000 0.000000 0.000000
1.271162 -0.387199 0.695265 0.000000 0.000000 0.000000
1.286832 -0.293709 0.683690 0.000000 0.000000 0.000000
1.270428 -0.384763 0.663553 0.000000 0.000000 0.000000
1.252417 -0.328942 0.677675 0.000000 0.000000 0.000000
1.259778 -0.328474 0.690040 0.000000 0.000000 0.000000
1.248862 -0.357001 0.683275 0.000000 0.000000 0.000000
1.302329 -0.265906 0.646002 0.000000 0.000000 0.000000
1.303698 -0.283638 0.664778 0.000000 0.000000 0.000000
1.259603 -0.347156 0.686608 0.000000 0.000000 0.000000
1.251321 -0.381711 0.695633 0.000000 0.000000 0.000000
1.253677 -0.317828 0.683737 0.000000 0.000000 0.000000
1.263573 -0.384177 0.689151 0.000000 0.000000 0.000000
1.264693 -0.333454 0.694746 0.000000 0.000000 0.000000
1.288535 -0.296662 0.674611 0.000000 0.000000 0.000000
1.277543 -0.346665 0.681643 0.000000 0.000000 0.000000
1.272460 -0.355748 0.693245 0.000000 0.000000 0.000000
1.262893 -0.340944 0.694332 0.000000 0.000000 0.000000
1.305715 -0.268124 0.657528 0.000000 0.000000 0.000000
1.302292 -0.279251 0.666329 0.000000 0.000000 0.000000
1.270239 -0.335855 0.683196 0.000000 0.000000 0.000000
1.275748 -0.347009 0.690183 0.000000 0.000000 0.000000
1.298164 -0.267998 0.649409 0.000000 0.000000 0.000000
1.257717 -0.322095 0.687995 0.000000 0.000000 0.000000
1.262784 -0.396432 0.688044 0.000000 0.000000 0.000000
1.266001 -0.347881 0.694289 0.000000 0.000000 0.000000
1.279137 -0.356284 0.705681 0.000000 0.000000 0.000000
1.256475 -0.298141 0.674068 0.000000 0.000000 0.000000
1.300348 -0.274323 0.660732 0.000000 0.000000 0.000000
1.256502 -0.296295 0.675778 0.000000 0.000000 0.000000
1.259020 -0.303228 0.676962 0.000000 0.000000 0.000000
1.289756 -0.271108 0.653135 0.000000 0.000000 0.000000
1.263455 -0.294124 0.675583 0.000000 0.000000 0.000000
1.253473 -0.386853 0.682725 0.000000 0.000000 0.000000
1.264848 -0.340405 0.688389 0.000000 0.000000 0.000000
1.277271 -0.275062 0.676021 0.000000 0.000000 0.000000
1.300271 -0.264954 0.649950 0.000000 0.000000 0.000000
1.257200 -0.330889 0.681945 0.000000 0.000000 0.000000
1.295520 -0.281240 0.664619 0.000000 0.000000 0.000000
1.296247 -0.391692 0.670393 0.000000 0.000000 0.000000
1.247313 -0.375443 0.692377 0.000000 0.000000 0.000000
1.299656 -0.275247 0.649757 0.000000 0.000000 0.000000
1.302575 -0.271369 0.649869 0.000000 0.000000 0.000000
1.253749 -0.364733 0.695051 0.000000 0.000000 0.000000
1.255529 -0.358352 0.694735 0.000000 0.000000 0.000000
1.248768 -0.314947 0.676031 0.000000 0.000000 0.000000
1.277099 -0.357173 0.705611 0.000000 0.000000 0.000000
1.286222 -0.358550 0.704615 0.000000 0.000000 0.000000
1.251459 -0.323257 0.681426 0.000000 0.000000 0.000000
1.284138 -0.399347 0.661035 0.000000 0.000000 0.000000
1.277678 -0.349551 0.696644 0.000000 0.000000 0.000000
1.255705 -0.332209 0.675322 0.000000 0.000000 0.000000
1.262426 -0.363520 0.698769 0.000000 0.000000 0.000000
1.280522 -0.344927 0.700231 0.000000 0.000000 0.000000
1.298846 -0.362376 0.673576 0.000000 0.000000 0.000000
1.250873 -0.356055 0.682221 0.000000 0.000000 0.000000
1.261738 -0.284267 0.671892 0.000000 0.000000 0.000000
1.249584 -0.383733 0.685512 0.000000 0.000000 0.000000
1.255840 -0.372248 0.683463 0.000000 0.000000 0.000000
1.254636 -0.317016 0.677811 0.000000 0.000000 0.000000
1.259190 -0.339897 0.674992 0.000000 0.000000 0.000000
1.281438 -0.351568 0.654740 0.000000 0.000000 0.000000
1.274812 -0.323266 0.691252 0.000000 0.000000 0.000000
1.259115 -0.274909 0.672796 0.000000 0.000000 0.000000
1.298665 -0.362981 0.662469 0.000000 0.000000 0.000000
1.277294 -0.337642 0.664961 0.000000 0.000000 0.000000
1.275003 -0.317436 0.664591 0.000000 0.000000 0.000000
1.255599 -0.331122 0.686763 0.000000 0.000000 0.000000
1.262235 -0.357906 0.698228 0.000000 0.000000 0.000000
1.251239 -0.370309 0.682776 0.000000 0.000000 0.000000
1.267543 -0.332370 0.666147 0.000000 0.000000 0.000000
1.255286 -0.377495 0.688577 0.000000 0.000000 0.000000
1.276890 -0.322240 0.688198 0.000000 0.000000 0.000000
1.261640 -0.268136 0.669056 0.000000 0.000000 0.000000
1.243666 -0.334394 0.674347 0.000000 0.000000 0.000000
1.266803 -0.328994 0.685116 0.000000 0.000000 0.000000
1.267143 -0.348681 0.702874 0.000000 0.000000 0.000000
1.271853 -0.348841 0.678182 0.000000 0.000000 0.000000
1.270547 -0.356820 0.699556 0.000000 0.000000 0.000000
1.264476 -0.347823 0.698725 0.000000 0.000000 0.000000
1.265718 -0.329501 0.693310 0.000000 0.000000 0.000000
1.273737 -0.360995 0.697717 0.000000 0.000000 0.000000
1.247557 -0.387802 0.691447 0.000000 0.000000 0.000000
1.268375 -0.315398 0.689975 0.000000 0.000000 0.000000
1.286835 -0.359132 0.705088 0.000000 0.000000 0.000000
1.282656 -0.364912 0.693447 0.000000 0.000000 0.000000
1.283483 -0.396719 0.690649 0.000000 0.000000 0.000000
1.285431 -0.355109 0.697684 0.000000 0.000000 0.000000
1.284464 -0.361823 0.701920 0.000000 0.000000 0.000000
1.290174 -0.280438 0.661785 0.000000 0.000000 0.000000
1.307336 -0.306182 0.661825 0.000000 0.000000 0.000000
1.297199 -0.257759 0.666455 0.000000 0.000000 0.000000
1.300290 -0.309550 0.671250 0.000000 0.000000 0.000000
1.302456 -0.301924 0.672079 0.000000 0.000000 0.000000
1.297818 -0.326049 0.664227 0.000000 0.000000 0.000000
1.283676 -0.367863 0.669207 0.000000 0.000000 0.000000
1.255563 -0.339922 0.678076 0.000000 0.000000 0.000000
1.250797 -0.344447 0.681850 0.000000 0.000000 0.000000
1.298305 -0.267148 0.661077 0.000000 0.000000 0.000000
1.258917 -0.359294 0.663342 0.000000 0.000000 0.000000
1.259319 -0.355847 0.677860 0.000000 0.000000 0.000000
1.303378 -0.281592 0.661627 0.000000 0.000000 0.000000
1.301260 -0.289863 0.668991 0.000000 0.000000 0.000000
1.300278 -0.276031 0.666515 0.000000 0.000000 0.000000
1.304461 -0.290957 0.667173 0.000000 0.000000 0.000000
1.248263 -0.364376 0.683681 0.000000 0.000000 0.000000
1.249681 -0.310186 0.676834 0.000000 0.000000 0.000000
1.299047 -0.361586 0.662401 0.000000 0.000000 0.000000
1.300455 -0.359479 0.666756 0.000000 0.000000 0.000000
1.303844 -0.288168 0.662891 0.000000 0.000000 0.000000
1.252844 -0.387840 0.686663 0.000000 0.000000 0.000000
1.297382 -0.309571 0.661681 0.000000 0.000000 0.000000
1.299453 -0.341111 0.664600 0.000000 0.000000 0.000000
1.304163 -0.268586 0.658336 0.000000 0.000000 0.000000
1.281147 -0.364207 0.672535 0.000000 0.000000 0.000000
1.254959 -0.347558 0.675828 0.000000 0.000000 0.000000
1.283523 -0.347042 0.660198 0.000000 0.000000 0.000000
1.300078 -0.268994 0.665199 0.000000 0.000000 0.000000
1.299129 -0.351751 0.676548 0.000000 0.000000 0.000000
1.298539 -0.284316 0.664821 0.000000 0.000000 0.000000
1.271061 -0.374927 0.658896 0.000000 0.000000 0.000000
1.300355 -0.304441 0.662748 0.000000 0.000000 0.000000
1.290086 -0.276603 0.661809 0.000000 0.000000 0.000000
1.298212 -0.274893 0.666600 0.000000 0.000000 0.000000
1.245503 -0.329189 0.682094 0.000000 0.000000 0.000000
1.302800 -0.362929 0.661387 0.000000 0.000000 0.000000
1.303727 -0.339111 0.663105 0.000000 0.000000 0.000000
1.300942 -0.350524 0.660063 0.000000 0.000000 0.000000
1.248858 -0.360043 0.679385 0.000000 0.000000 0.000000
1.256334 -0.369123 0.699390 0.000000 0.000000 0.000000
1.297672 -0.258611 0.666880 0.000000 0.000000 0.000000
1.249212 -0.333807 0.681421 0.000000 0.000000 0.000000
1.242541 -0.352384 0.675627 0.000000 0.000000 0.000000
1.274849 -0.365887 0.669480 0.000000 0.000000 0.000000
1.245523 -0.337171 0.677872 0.000000 0.000000 0.000000
1.271873 -0.352363 0.703177 0.000000 0.000000 0.000000
1.308620 -0.287828 0.659777 0.000000 0.000000 0.000000
1.293931 -0.267384 0.657002 0.000000 0.000000 0.000000
1.273515 -0.375716 0.680404 0.000000 0.000000 0.000000
1.262954 -0.358149 0.703763 0.000000 0.000000 0.000000
1.241588 -0.340074 0.676898 0.000000 0.000000 0.000000
1.308212 -0.296328 0.657995 0.000000 0.000000 0.000000
1.256099 -0.362423 0.684415 0.000000 0.000000 0.000000
1.282897 -0.349346 0.704003 0.000000 0.000000 0.000000
1.304915 -0.309791 0.664720 0.000000 0.000000 0.000000
1.299541 -0.336562 0.672588 0.000000 0.000000 0.000000
1.282732 -0.296620 0.660542 0.000000 0.000000 0.000000
1.261102 -0.293096 0.677501 0.000000 0.000000 0.000000
1.284260 -0.333165 0.659866 0.000000 0.000000 0.000000
1.299975 -0.351884 0.667672 0.000000 0.000000 0.000000
1.302338 -0.334607 0.673578 0.000000 0.000000 0.000000
1.294532 -0.345652 0.675254 0.000000 0.000000 0.000000
1.253989 -0.349070 0.682395 0.000000 0.000000 0.000000
1.284426 -0.362001 0.699887 0.000000 0.000000 0.000000
1.291251 -0.390187 0.661778 0.000000 0.000000 0.000000
1.292477 -0.263173 0.652438 0.000000 0.000000 0.000000
1.291015 -0.265194 0.654300 0.000000 0.000000 0.000000
1.297707 -0.259719 0.667647 0.000000 0.000000 0.000000
1.305110 -0.280285 0.657099 0.000000 0.000000 0.000000
1.304085 -0.327530 0.672841 0.000000 0.000000 0.000000
1.278429 -0.399491 0.685359 0.000000 0.000000 0.000000
1.248477 -0.384083 0.686827 0.000000 0.000000 0.000000
1.303156 -0.283075 0.666708 0.000000 0.000000 0.000000
1.302644 -0.321361 0.676353 0.000000 0.000000 0.000000
1.296186 -0.319522 0.681699 0.000000 0.000000 0.000000
1.303110 -0.331168 0.668657 0.000000 0.000000 0.000000
1.303030 -0.340419 0.677706 0.000000 0.000000 0.000000
1.255679 -0.394700 0.676658 0.000000 0.000000 0.000000
1.248673 -0.399268 0.678946 0.000000 0.000000 0.000000
1.237843 -0.390115 0.680268 0.000000 0.000000 0.000000
1.301138 -0.261768 0.658419 0.000000 0.000000 0.000000
1.295968 -0.272750 0.651829 0.000000 0.000000 0.000000
1.256286 -0.292933 0.667561 0.000000 0.000000 0.000000
1.297547 -0.350024 0.673965 0.000000 0.000000 0.000000
1.295687 -0.255907 0.645216 0.000000 0.000000 0.000000
1.293348 -0.277407 0.654521 0.000000 0.000000 0.000000
1.245647 -0.300140 0.677771 0.000000 0.000000 0.000000
1.301731 -0.345383 0.665210 0.000000 0.000000 0.000000
1.260776 -0.288639 0.670700 0.000000 0.000000 0.000000
1.257863 -0.297350 0.673333 0.000000 0.000000 0.000000
1.295993 -0.275064 0.655781 0.000000 0.000000 0.000000
1.292447 -0.248614 0.657617 0.000000 0.000000 0.000000
1.292466 -0.255822 0.657922 0.000000 0.000000 0.000000
1.288341 -0.254071 0.662875 0.000000 0.000000 0.000000
1.294842 -0.257944 0.657782 0.000000 0.000000 0.000000
1.297819 -0.252432 0.651280 0.000000 0.000000 0.000000
1.252015 -0.304451 0.675303 0.000000 0.000000 0.000000
1.296266 -0.257040 0.651022 0.000000 0.000000 0.000000
1.290057 -0.249086 0.658674 0.000000 0.000000 0.000000
1.251382 -0.309871 0.677694 0.000000 0.000000 0.000000
1.305139 -0.264307 0.670905 0.000000 0.000000 0.000000
1.296650 -0.255129 0.656153 0.000000 0.000000 0.000000
1.299751 -0.342299 0.652829 0.000000 0.000000 0.000000
1.262476 -0.275830 0.671861 0.000000 0.000000 0.000000
1.263871 -0.295254 0.670870 0.000000 0.000000 0.000000
1.297671 -0.269682 0.658672 0.000000 0.000000 0.000000
1.277395 -0.300379 0.661746 0.000000 0.000000 0.000000
1.297498 -0.258799 0.657848 0.000000 0.000000 0.000000
1.296106 -0.348597 0.653259 0.000000 0.000000 0.000000
1.262079 -0.277670 0.672853 0.000000 0.000000 0.000000
1.249045 -0.342145 0.682924 0.000000 0.000000 0.000000
1.292007 -0.248475 0.661034 0.000000 0.000000 0.000000
1.249213 -0.345858 0.681145 0.000000 0.000000 0.000000
1.298222 -0.265684 0.667059 0.000000 0.000000 0.000000
1.284863 -0.255309 0.663396 0.000000 0.000000 0.000000
1.298528 -0.249606 0.652455 0.000000 0.000000 0.000000
1.291190 -0.273564 0.669908 0.000000 0.000000 0.000000
1.294913 -0.257196 0.657353 0.000000 0.000000 0.000000
1.302242 -0.255587 0.656009 0.000000 0.000000 0.000000
1.286058 -0.264777 0.668497 0.000000 0.000000 0.000000
1.297155 -0.255989 0.660120 0.000000 0.000000 0.000000
1.277749 -0.262279 0.663123 0.000000 0.000000 0.000000
1.283844 -0.256035 0.659693 0.000000 0.000000 0.000000
1.253418 -0.330292 0.681757 0.000000 0.000000 0.000000
1.268646 -0.276025 0.670126 0.000000 0.000000 0.000000
1.263337 -0.294820 0.666167 0.000000 0.000000 0.000000
1.262840 -0.281445 0.670637 0.000000 0.000000 0.000000
1.294715 -0.268733 0.648331 0.000000 0.000000 0.000000
1.258578 -0.281628 0.670206 0.000000 0.000000 0.000000
1.260201 -0.294013 0.670746 0.000000 0.000000 0.000000
1.261583 -0.330531 0.672992 0.000000 0.000000 0.000000
1.252119 -0.306948 0.681160 0.000000 0.000000 0.000000
1.247123 -0.315538 0.678339 0.000000 0.000000 0.000000
1.301970 -0.339815 0.673696 0.000000 0.000000 0.000000
1.282025 -0.313064 0.657845 0.000000 0.000000 0.000000
1.264570 -0.278657 0.667361 0.000000 0.000000 0.000000
1.256186 -0.286926 0.671374 0.000000 0.000000 0.000000
1.280232 -0.291360 0.661799 0.000000 0.000000 0.000000
1.282941 -0.281367 0.657478 0.000000 0.000000 0.000000
1.254594 -0.296491 0.676633 0.000000 0.000000 0.000000
1.272758 -0.280709 0.671050 0.000000 0.000000 0.000000
1.259008 -0.281947 0.676720 0.000000 0.000000 0.000000
1.255728 -0.292413 0.676891 0.000000 0.000000 0.000000
1.249109 -0.354197 0.674440 0.000000 0.000000 0.000000
1.250273 -0.319415 0.679345 0.000000 0.000000 0.000000
1.302012 -0.338895 0.664119 0.000000 0.000000 0.000000
1.298564 -0.353048 0.658691 0.000000 0.000000 0.000000
1.277855 -0.308238 0.657923 0.000000 0.000000 0.000000
1.254234 -0.298544 0.676325 0.000000 0.000000 0.000000
1.267153 -0.368651 0.670564 0.000000 0.000000 0.000000
1.276844 -0.383939 0.699665 0.000000 0.000000 0.000000
1.288092 -0.383114 0.695163 0.000000 0.000000 0.000000
1.260262 -0.340953 0.690932 0.000000 0.000000 0.000000
1.269735 -0.334178 0.694204 0.000000 0.000000 0.000000
1.253281 -0.340567 0.681676 0.000000 0.000000 0.000000
1.290920 -0.384095 0.670189 0.000000 0.000000 0.000000
1.254032 -0.362970 0.674196 0.000000 0.000000 0.000000
1.263016 -0.386524 0.691615 0.000000 0.000000 0.000000
1.252436 -0.374072 0.675826 0.000000 0.000000 0.000000
1.293266 -0.396680 0.665177 0.000000 0.000000 0.000000
1.274456 -0.361012 0.671468 0.000000 0.000000 0.000000
1.291037 -0.276224 0.652870 0.000000 0.000000 0.000000
1.271058 -0.381142 0.698156 0.000000 0.000000 0.000000
1.259895 -0.339991 0.675567 0.000000 0.000000 0.000000
1.249437 -0.329092 0.681034 0.000000 0.000000 0.000000
1.281182 -0.286865 0.678094 0.000000 0.000000 0.000000
1.257652 -0.312324 0.677180 0.000000 0.000000 0.000000
1.302293 -0.389561 0.681042 0.000000 0.000000 0.000000
1.273426 -0.325758 0.664750 0.000000 0.000000 0.000000
1.297207 -0.378433 0.667448 0.000000 0.000000 0.000000
1.243702 -0.315889 0.680585 0.000000 0.000000 0.000000
1.277298 -0.281803 0.679491 0.000000 0.000000 0.000000
1.262918 -0.301958 0.676503 0.000000 0.000000 0.000000
1.297485 -0.372635 0.673770 0.000000 0.000000 0.000000
1.274313 -0.327158 0.664383 0.000000 0.000000 0.000000
1.297751 -0.388665 0.667328 0.000000 0.000000 0.000000
1.251274 -0.296625 0.678961 0.000000 0.000000 0.000000
1.274652 -0.266505 0.666699 0.000000 0.000000 0.000000
1.274013 -0.264814 0.670121 0.000000 0.000000 0.000000
1.276294 -0.264401 0.668257 0.000000 0.000000 0.000000
1.261383 -0.285874 0.673743 0.000000 0.000000 0.000000
1.268727 -0.259734 0.673179 0.000000 0.000000 0.000000
1.275328 -0.275627 0.669101 0.000000 0.000000 0.000000
1.272147 -0.282789 0.673141 0.000000 0.000000 0.000000
1.272484 -0.280660 0.665762 0.000000 0.000000 0.000000
1.257314 -0.292914 0.674552 0.000000 0.000000 0.000000
1.268785 -0.269166 0.669361 0.000000 0.000000 0.000000
1.275320 -0.288925 0.661697 0.000000 0.000000 0.000000
1.262855 -0.302120 0.675539 0.000000 0.000000 0.000000
1.258687 -0.285059 0.674342 0.000000 0.000000 0.000000
1.276953 -0.259309 0.664955 0.000000 0.000000 0.000000
1.271864 -0.288869 0.671079 0.000000 0.000000 0.000000
1.272665 -0.266717 0.669049 0.000000 0.000000 0.000000
1.272547 -0.271806 0.667501 0.000000 0.000000 0.000000
1.265591 -0.274748 0.671899 0.000000 0.000000 0.000000
1.278153 -0.280535 0.661335 0.000000 0.000000 0.000000
1.250653 -0.304664 0.681243 0.000000 0.000000 0.000000
1.263824 -0.277298 0.668160 0.000000 0.000000 0.000000
1.260381 -0.283883 0.673274 0.000000 0.000000 0.000000
1.299122 -0.389395 0.662837 0.000000 0.000000 0.000000
1.290279 -0.393442 0.687060 0.000000 0.000000 0.000000
1.269364 -0.291746 0.663771 0.000000 0.000000 0.000000
1.303690 -0.279222 0.651217 0.000000 0.000000 0.000000
1.280710 -0.344588 0.698162 0.000000 0.000000 0.000000
1.299352 -0.337355 0.663393 0.000000 0.000000 0.000000
1.306219 -0.313089 0.664381 0.000000 0.000000 0.000000
1.309600 -0.315322 0.658327 0.000000 0.000000 0.000000
1.306525 -0.327637 0.668694 0.000000 0.000000 0.000000
1.306403 -0.334309 0.663886 0.000000 0.000000 0.000000
1.298611 -0.348754 0.663416 0.000000 0.000000 0.000000
1.295745 -0.289633 0.663308 0.000000 0.000000 0.000000
1.304511 -0.317292 0.665446 0.000000 0.000000 0.000000
1.306677 -0.325903 0.660072 0.000000 0.000000 0.000000
1.309387 -0.325597 0.663712 0.000000 0.000000 0.000000
1.302454 -0.342812 0.671576 0.000000 0.000000 0.000000
1.306530 -0.316529 0.668376 0.000000 0.000000 0.000000
1.305547 -0.310425 0.671966 0.000000 0.000000 0.000000
1.304378 -0.395004 0.659310 0.000000 0.000000 0.000000
1.291990 -0.399788 0.653985 0.000000 0.000000 0.000000
1.303633 -0.299058 0.667163 0.000000 0.000000 0.000000
1.305326 -0.311150 0.671283 0.000000 0.000000 0.000000
1.307194 -0.394279 0.657127 0.000000 0.000000 0.000000
1.298998 -0.383688 0.671488 0.000000 0.000000 0.000000
1.248927 -0.323902 0.677087 0.000000 0.000000 0.000000
1.292330 -0.397608 0.678755 0.000000 0.000000 0.000000
1.270108 -0.315524 0.662846 0.000000 0.000000 0.000000
1.262100 -0.334037 0.667373 0.000000 0.000000 0.000000
1.276926 -0.386268 0.676150 0.000000 0.000000 0.000000
1.292814 -0.396690 0.683200 0.000000 0.000000 0.000000
1.297907 -0.381478 0.670069 0.000000 0.000000 0.000000
1.286033 -0.383769 0.675483 0.000000 0.000000 0.000000
1.275822 -0.319351 0.665385 0.000000 0.000000 0.000000
1.298551 -0.356620 0.672104 0.000000 0.000000 0.000000
1.253062 -0.334218 0.669611 0.000000 0.000000 0.000000
1.250599 -0.326800 0.671836 0.000000 0.000000 0.000000
1.289961 -0.384680 0.686183 0.000000 0.000000 0.000000
1.288274 -0.387438 0.681378 0.000000 0.000000 0.000000
1.277842 -0.305650 0.661041 0.000000 0.000000 0.000000
1.247458 -0.376598 0.685468 0.000000 0.000000 0.000000
1.292197 -0.286591 0.654320 0.000000 0.000000 0.000000
1.277725 -0.290143 0.660427 0.000000 0.000000 0.000000
1.306940 -0.279700 0.647252 0.000000 0.000000 0.000000
1.305294 -0.281021 0.654941 0.000000 0.000000 0.000000
1.280391 -0.286746 0.658678 0.000000 0.000000 0.000000
1.293059 -0.314584 0.659304 0.000000 0.000000 0.000000
1.286486 -0.298489 0.662645 0.000000 0.000000 0.000000
1.249740 -0.373099 0.675882 0.000000 0.000000 0.000000
1.283632 -0.381570 0.707610 0.000000 0.000000 0.000000
1.244657 -0.380661 0.688502 0.000000 0.000000 0.000000
1.286349 -0.280762 0.653134 0.000000 0.000000 0.000000
1.276259 -0.290178 0.660994 0.000000 0.000000 0.000000
1.274620 -0.303467 0.663016 0.000000 0.000000 0.000000
1.242595 -0.371408 0.682478 0.000000 0.000000 0.000000
1.304441 -0.297725 0.660760 0.000000 0.000000 0.000000
1.306678 -0.299222 0.656634 0.000000 0.000000 0.000000
1.246920 -0.381235 0.680036 0.000000 0.000000 0.000000
1.280927 -0.296076 0.654113 0.000000 0.000000 0.000000
1.251218 -0.312415 0.672100 0.000000 0.000000 0.000000
1.249568 -0.315155 0.682872 0.000000 0.000000 0.000000
1.286749 -0.359176 0.701568 0.000000 0.000000 0.000000
1.285374 -0.357775 0.703673 0.000000 0.000000 0.000000
1.247335 -0.377096 0.672898 0.000000 0.000000 0.000000
1.240736 -0.374765 0.674341 0.000000 0.000000 0.000000
1.251806 -0.385722 0.667271 0.000000 0.000000 0.000000
1.288212 -0.268225 0.661956 0.000000 0.000000 0.000000
1.270284 -0.272427 0.665867 0.000000 0.000000 0.000000
1.269024 -0.343306 0.692694 0.000000 0.000000 0.000000
1.250417 -0.333939 0.682260 0.000000 0.000000 0.000000
1.265937 -0.341066 0.691701 0.000000 0.000000 0.000000
1.275682 -0.274192 0.662738 0.000000 0.000000 0.000000
1.277128 -0.351134 0.694381 0.000000 0.000000 0.000000
1.278331 -0.268466 0.654546 0.000000 0.000000 0.000000
1.262041 -0.334294 0.690096 0.000000 0.000000 0.000000
1.253677 -0.366242 0.684413 0.000000 0.000000 0.000000
1.306247 -0.291730 0.657907 0.000000 0.000000 0.000000
1.278751 -0.373802 0.697259 0.000000 0.000000 0.000000
1.309522 -0.283996 0.656034 0.000000 0.000000 0.000000
1.252105 -0.348245 0.683258 0.000000 0.000000 0.000000
1.249120 -0.345223 0.684362 0.000000 0.000000 0.000000
1.303218 -0.398573 0.664158 0.000000 0.000000 0.000000
1.305939 -0.296701 0.662018 0.000000 0.000000 0.000000
1.289429 -0.311260 0.664586 0.000000 0.000000 0.000000
1.306267 -0.275047 0.653940 0.000000 0.000000 0.000000
1.252635 -0.326707 0.679915 0.000000 0.000000 0.000000
1.299723 -0.372640 0.663228 0.000000 0.000000 0.000000
1.241117 -0.359173 0.679229 0.000000 0.000000 0.000000
1.247499 -0.337162 0.680718 0.000000 0.000000 0.000000
1.297621 -0.384203 0.664302 0.000000 0.000000 0.000000
1.304497 -0.289937 0.660292 0.000000 0.000000 0.000000
1.307161 -0.297299 0.658754 0.000000 0.000000 0.000000
1.256490 -0.339645 0.684708 0.000000 0.000000 0.000000
1.302083 -0.380835 0.662323 0.000000 0.000000 0.000000
1.249582 -0.355665 0.680802 0.000000 0.000000 0.000000
1.303256 -0.386788 0.656497 0.000000 0.000000 0.000000
1.291345 -0.266389 0.664974 0.000000 0.000000 0.000000
1.279571 -0.376036 0.688749 0.000000 0.000000 0.000000
1.247944 -0.322479 0.682814 0.000000 0.000000 0.000000
1.286447 -0.375800 0.695724 0.000000 0.000000 0.000000
1.268931 -0.391662 0.701136 0.000000 0.000000 0.000000
1.253123 -0.353411 0.689295 0.000000 0.000000 0.000000
1.310559 -0.308853 0.659690 0.000000 0.000000 0.000000
1.248095 -0.316441 0.681349 0.000000 0.000000 0.000000
1.252540 -0.331432 0.682556 0.000000 0.000000 0.000000
1.264006 -0.397391 0.691508 0.000000 0.000000 0.000000
1.252387 -0.352809 0.685974 0.000000 0.000000 0.000000
1.245476 -0.379263 0.683597 0.000000 0.000000 0.000000
1.302071 -0.325312 0.668175 0.000000 0.000000 0.000000
1.252664 -0.332606 0.682336 0.000000 0.000000 0.000000
1.249042 -0.325004 0.683620 0.000000 0.000000 0.000000
1.295623 -0.358924 0.666633 0.000000 0.000000 0.000000
1.297514 -0.375436 0.674824 0.000000 0.000000 0.000000
1.298295 -0.396652 0.668089 0.000000 0.000000 0.000000
1.304568 -0.399414 0.661305 0.000000 0.000000 0.000000
1.276444 -0.381064 0.675266 0.000000 0.000000 0.000000
1.297600 -0.362928 0.667990 0.000000 0.000000 0.000000
1.301105 -0.396564 0.658396 0.000000 0.000000 0.000000
1.243347 -0.384874 0.685688 0.000000 0.000000 0.000000
1.261844 -0.338951 0.694444 0.000000 0.000000 0.000000
1.269195 -0.332967 0.701902 0.000000 0.000000 0.000000
1.233711 -0.365995 0.684774 0.000000 0.000000 0.000000
1.241021 -0.397316 0.680140 0.000000 0.000000 0.000000
1.245297 -0.375889 0.681809 0.000000 0.000000 0.000000
1.249189 -0.337527 0.682838 0.000000 0.000000 0.000000
1.243260 -0.349438 0.682432 0.000000 0.000000 0.000000
1.244914 -0.379008 0.682627 0.000000 0.000000 0.000000
1.242186 -0.389540 0.683504 0.000000 0.000000 0.000000
1.247125 -0.385282 0.675111 0.000000 0.000000 0.000000
1.247418 -0.357278 0.681718 0.000000 0.000000 0.000000
1.243103 -0.332215 0.687757 0.000000 0.000000 0.000000
