ply
format ascii 1.0
comment VCGLIB generated
obj_info Generated by SPFormer!
element vertex 252
property float x
property float y
property float z
property float nx
property float ny
property float nz
end_header
0.586209 0.031253 3.749197 0.000000 0.000000 0.000000
0.574840 0.034168 3.750100 0.000000 0.000000 0.000000
0.368139 -0.531265 2.181658 0.000000 0.000000 0.000000
0.352502 -0.526328 2.169125 0.000000 0.000000 0.000000
0.560922 0.041092 3.749156 0.000000 0.000000 0.000000
0.562269 0.035428 3.750979 0.000000 0.000000 0.000000
0.543559 0.040898 3.737129 0.000000 0.000000 0.000000
0.345781 -0.527692 2.175707 0.000000 0.000000 0.000000
0.345854 -0.529756 2.176186 0.000000 0.000000 0.000000
0.346309 -0.524230 2.172446 0.000000 0.000000 0.000000
0.354873 -0.520288 2.169743 0.000000 0.000000 0.000000
0.342635 -0.529281 2.178721 0.000000 0.000000 0.000000
0.555029 0.028808 3.748792 0.000000 0.000000 0.000000
0.371210 -0.521184 2.174080 0.000000 0.000000 0.000000
0.359160 -0.528282 2.175679 0.000000 0.000000 0.000000
0.554045 0.035343 3.736491 0.000000 0.000000 0.000000
0.350156 -0.527890 2.171368 0.000000 0.000000 0.000000
0.324045 -0.538107 2.176438 0.000000 0.000000 0.000000
0.554703 0.039068 3.746130 0.000000 0.000000 0.000000
0.549824 0.037764 3.741368 0.000000 0.000000 0.000000
0.534350 0.077666 3.752748 0.000000 0.000000 0.000000
0.552145 0.040381 3.744217 0.000000 0.000000 0.000000
0.560997 0.035820 3.740127 0.000000 0.000000 0.000000
0.564470 0.038616 3.742833 0.000000 0.000000 0.000000
0.359130 -0.528078 2.177660 0.000000 0.000000 0.000000
0.582563 0.038104 3.745311 0.000000 0.000000 0.000000
0.353980 -0.525995 2.176778 0.000000 0.000000 0.000000
0.522123 0.045770 3.749199 0.000000 0.000000 0.000000
0.580517 0.039460 3.745615 0.000000 0.000000 0.000000
0.521493 0.045596 3.738157 0.000000 0.000000 0.000000
0.579490 0.036649 3.748238 0.000000 0.000000 0.000000
0.560235 0.034729 3.745800 0.000000 0.000000 0.000000
0.520921 0.073989 3.730675 0.000000 0.000000 0.000000
0.363281 -0.523317 2.175333 0.000000 0.000000 0.000000
0.562598 0.036280 3.744290 0.000000 0.000000 0.000000
0.547415 0.048906 3.736474 0.000000 0.000000 0.000000
0.544892 0.040392 3.748376 0.000000 0.000000 0.000000
0.554566 0.032433 3.747339 0.000000 0.000000 0.000000
0.557730 0.036541 3.752511 0.000000 0.000000 0.000000
0.567709 0.042300 3.744699 0.000000 0.000000 0.000000
0.563119 0.048373 3.742050 0.000000 0.000000 0.000000
0.322487 -0.531885 2.163562 0.000000 0.000000 0.000000
0.524303 0.074928 3.750250 0.000000 0.000000 0.000000
0.526526 0.063260 3.745929 0.000000 0.000000 0.000000
0.349534 -0.525301 2.170074 0.000000 0.000000 0.000000
0.524607 0.066236 3.746771 0.000000 0.000000 0.000000
0.365467 -0.524862 2.173757 0.000000 0.000000 0.000000
0.534334 0.065688 3.724126 0.000000 0.000000 0.000000
0.347095 -0.527308 2.168556 0.000000 0.000000 0.000000
0.372624 -0.528842 2.178519 0.000000 0.000000 0.000000
0.322980 -0.521330 2.160787 0.000000 0.000000 0.000000
0.364003 -0.530218 2.179917 0.000000 0.000000 0.000000
0.522294 0.055001 3.749378 0.000000 0.000000 0.000000
0.582084 0.039839 3.748749 0.000000 0.000000 0.000000
0.349021 -0.524401 2.170519 0.000000 0.000000 0.000000
0.347881 -0.522315 2.168260 0.000000 0.000000 0.000000
0.352000 -0.524912 2.171813 0.000000 0.000000 0.000000
0.358424 -0.525585 2.178368 0.000000 0.000000 0.000000
0.371194 -0.524179 2.183544 0.000000 0.000000 0.000000
0.362773 -0.525897 2.178982 0.000000 0.000000 0.000000
0.356337 -0.526719 2.176861 0.000000 0.000000 0.000000
0.351933 -0.525747 2.169809 0.000000 0.000000 0.000000
0.358303 -0.523783 2.169985 0.000000 0.000000 0.000000
0.521838 0.046430 3.734363 0.000000 0.000000 0.000000
0.562148 0.046299 3.738127 0.000000 0.000000 0.000000
0.554974 0.040606 3.747176 0.000000 0.000000 0.000000
0.554754 0.030342 3.752415 0.000000 0.000000 0.000000
0.547848 0.035559 3.750958 0.000000 0.000000 0.000000
0.359383 -0.523474 2.169177 0.000000 0.000000 0.000000
0.529917 0.047334 3.735339 0.000000 0.000000 0.000000
0.521939 0.049322 3.738422 0.000000 0.000000 0.000000
0.550378 0.036937 3.735004 0.000000 0.000000 0.000000
0.351153 -0.525111 2.169617 0.000000 0.000000 0.000000
0.321607 -0.530996 2.166979 0.000000 0.000000 0.000000
0.355937 -0.528863 2.178918 0.000000 0.000000 0.000000
0.357479 -0.522900 2.174012 0.000000 0.000000 0.000000
0.529051 0.045479 3.737394 0.000000 0.000000 0.000000
0.564075 0.041431 3.745675 0.000000 0.000000 0.000000
0.333281 -0.524139 2.167812 0.000000 0.000000 0.000000
0.364714 -0.526258 2.174472 0.000000 0.000000 0.000000
0.370471 -0.524985 2.176989 0.000000 0.000000 0.000000
0.367996 -0.521909 2.183080 0.000000 0.000000 0.000000
0.557927 0.042098 3.741365 0.000000 0.000000 0.000000
0.548272 0.038347 3.748245 0.000000 0.000000 0.000000
0.543969 0.039043 3.746991 0.000000 0.000000 0.000000
0.552130 0.039821 3.739959 0.000000 0.000000 0.000000
0.569344 0.039588 3.739713 0.000000 0.000000 0.000000
0.575497 0.036022 3.748269 0.000000 0.000000 0.000000
0.323664 -0.527636 2.168653 0.000000 0.000000 0.000000
0.565103 0.040134 3.746670 0.000000 0.000000 0.000000
0.577080 0.039296 3.744705 0.000000 0.000000 0.000000
0.555407 0.045330 3.737257 0.000000 0.000000 0.000000
0.323492 -0.526829 2.161594 0.000000 0.000000 0.000000
0.369759 -0.526245 2.176925 0.000000 0.000000 0.000000
0.360004 -0.524914 2.176994 0.000000 0.000000 0.000000
0.547429 0.037253 3.737030 0.000000 0.000000 0.000000
0.550788 0.031732 3.743791 0.000000 0.000000 0.000000
0.581364 0.035849 3.747048 0.000000 0.000000 0.000000
0.573399 0.039531 3.747860 0.000000 0.000000 0.000000
0.369680 -0.527686 2.174949 0.000000 0.000000 0.000000
0.554245 0.035398 3.739683 0.000000 0.000000 0.000000
0.570502 0.033679 3.752730 0.000000 0.000000 0.000000
0.541430 0.044447 3.733644 0.000000 0.000000 0.000000
0.367498 -0.524978 2.179320 0.000000 0.000000 0.000000
0.359712 -0.525712 2.178332 0.000000 0.000000 0.000000
0.358534 -0.528870 2.173456 0.000000 0.000000 0.000000
0.344933 -0.528986 2.175690 0.000000 0.000000 0.000000
0.351749 -0.524954 2.167015 0.000000 0.000000 0.000000
0.532234 0.072558 3.755039 0.000000 0.000000 0.000000
0.528819 0.079129 3.745618 0.000000 0.000000 0.000000
0.370369 -0.519709 2.174256 0.000000 0.000000 0.000000
0.366232 -0.525385 2.176058 0.000000 0.000000 0.000000
0.523780 0.059337 3.758383 0.000000 0.000000 0.000000
0.538187 0.044805 3.734239 0.000000 0.000000 0.000000
0.533235 0.075169 3.753221 0.000000 0.000000 0.000000
0.346707 -0.530440 2.173577 0.000000 0.000000 0.000000
0.538790 0.079977 3.756522 0.000000 0.000000 0.000000
0.555958 0.033209 3.733899 0.000000 0.000000 0.000000
0.351577 -0.524854 2.166581 0.000000 0.000000 0.000000
0.520041 0.076687 3.730639 0.000000 0.000000 0.000000
0.324905 -0.525367 2.160834 0.000000 0.000000 0.000000
0.326595 -0.525947 2.168582 0.000000 0.000000 0.000000
0.339600 -0.534591 2.169618 0.000000 0.000000 0.000000
0.540563 0.045387 3.731474 0.000000 0.000000 0.000000
0.335668 -0.530268 2.176625 0.000000 0.000000 0.000000
0.326564 -0.531606 2.170184 0.000000 0.000000 0.000000
0.552758 0.039499 3.731467 0.000000 0.000000 0.000000
0.353857 -0.526929 2.168824 0.000000 0.000000 0.000000
0.540599 0.046238 3.729886 0.000000 0.000000 0.000000
0.544280 0.045891 3.730035 0.000000 0.000000 0.000000
0.369281 -0.526997 2.179442 0.000000 0.000000 0.000000
0.323238 -0.525774 2.169692 0.000000 0.000000 0.000000
0.524068 0.054445 3.752536 0.000000 0.000000 0.000000
0.361793 -0.525345 2.173237 0.000000 0.000000 0.000000
0.371802 -0.524576 2.180557 0.000000 0.000000 0.000000
0.355808 -0.523622 2.176432 0.000000 0.000000 0.000000
0.348907 -0.525444 2.176486 0.000000 0.000000 0.000000
0.524851 0.079006 3.744007 0.000000 0.000000 0.000000
0.526577 0.063516 3.737503 0.000000 0.000000 0.000000
0.547943 0.056344 3.735227 0.000000 0.000000 0.000000
0.558945 0.039717 3.736729 0.000000 0.000000 0.000000
0.533357 0.072279 3.743199 0.000000 0.000000 0.000000
0.534286 0.079541 3.747984 0.000000 0.000000 0.000000
0.528009 0.074928 3.727520 0.000000 0.000000 0.000000
0.351731 -0.525859 2.172562 0.000000 0.000000 0.000000
0.530982 0.067911 3.748092 0.000000 0.000000 0.000000
0.368211 -0.523839 2.181527 0.000000 0.000000 0.000000
0.524889 0.063301 3.724268 0.000000 0.000000 0.000000
0.357069 -0.527083 2.170670 0.000000 0.000000 0.000000
0.331456 -0.531659 2.175054 0.000000 0.000000 0.000000
0.524496 0.064719 3.736898 0.000000 0.000000 0.000000
0.547357 0.036165 3.740143 0.000000 0.000000 0.000000
0.355661 -0.524103 2.178804 0.000000 0.000000 0.000000
0.320716 -0.532455 2.164220 0.000000 0.000000 0.000000
0.580682 0.039605 3.747863 0.000000 0.000000 0.000000
0.573854 0.041864 3.754384 0.000000 0.000000 0.000000
0.373109 -0.525475 2.175063 0.000000 0.000000 0.000000
0.361252 -0.525608 2.180773 0.000000 0.000000 0.000000
0.321916 -0.529704 2.169487 0.000000 0.000000 0.000000
0.350543 -0.527266 2.169363 0.000000 0.000000 0.000000
0.534186 0.075767 3.750469 0.000000 0.000000 0.000000
0.530716 0.075640 3.744252 0.000000 0.000000 0.000000
0.531280 0.063782 3.749224 0.000000 0.000000 0.000000
0.523375 0.077749 3.735466 0.000000 0.000000 0.000000
0.582537 0.036133 3.756010 0.000000 0.000000 0.000000
0.349585 -0.525947 2.170419 0.000000 0.000000 0.000000
0.357814 -0.526048 2.178671 0.000000 0.000000 0.000000
0.523338 0.066012 3.757324 0.000000 0.000000 0.000000
0.533237 0.059952 3.756726 0.000000 0.000000 0.000000
0.540243 0.071331 3.757737 0.000000 0.000000 0.000000
0.373253 -0.521693 2.182134 0.000000 0.000000 0.000000
0.346488 -0.530220 2.176183 0.000000 0.000000 0.000000
0.355247 -0.531751 2.172671 0.000000 0.000000 0.000000
0.351128 -0.524362 2.166929 0.000000 0.000000 0.000000
0.354534 -0.521355 2.175940 0.000000 0.000000 0.000000
0.353418 -0.528153 2.171819 0.000000 0.000000 0.000000
0.350899 -0.525213 2.174298 0.000000 0.000000 0.000000
0.343067 -0.526624 2.171928 0.000000 0.000000 0.000000
0.350836 -0.525266 2.173373 0.000000 0.000000 0.000000
0.523366 0.045857 3.741908 0.000000 0.000000 0.000000
0.526961 0.048814 3.751572 0.000000 0.000000 0.000000
0.530798 0.049869 3.729604 0.000000 0.000000 0.000000
0.561098 0.034126 3.737024 0.000000 0.000000 0.000000
0.555539 0.036047 3.744518 0.000000 0.000000 0.000000
0.373116 -0.524244 2.177534 0.000000 0.000000 0.000000
0.352307 -0.527781 2.171186 0.000000 0.000000 0.000000
0.355799 -0.524831 2.181750 0.000000 0.000000 0.000000
0.376447 -0.525085 2.180501 0.000000 0.000000 0.000000
0.358032 -0.527186 2.180171 0.000000 0.000000 0.000000
0.371115 -0.524839 2.179827 0.000000 0.000000 0.000000
0.361351 -0.521893 2.171874 0.000000 0.000000 0.000000
0.356676 -0.520965 2.178866 0.000000 0.000000 0.000000
0.549388 0.035206 3.737509 0.000000 0.000000 0.000000
0.554565 0.032442 3.750998 0.000000 0.000000 0.000000
0.520991 0.038356 3.735866 0.000000 0.000000 0.000000
0.566792 0.034040 3.749305 0.000000 0.000000 0.000000
0.536568 0.043624 3.737919 0.000000 0.000000 0.000000
0.333482 -0.532125 2.177445 0.000000 0.000000 0.000000
0.583021 0.035034 3.755594 0.000000 0.000000 0.000000
0.533832 0.067567 3.752750 0.000000 0.000000 0.000000
0.378378 -0.522723 2.181107 0.000000 0.000000 0.000000
0.527738 0.079209 3.740049 0.000000 0.000000 0.000000
0.537188 0.068694 3.758159 0.000000 0.000000 0.000000
0.357617 -0.523578 2.174173 0.000000 0.000000 0.000000
0.354724 -0.524619 2.173431 0.000000 0.000000 0.000000
0.355306 -0.528836 2.178927 0.000000 0.000000 0.000000
0.355685 -0.525295 2.170982 0.000000 0.000000 0.000000
0.579290 0.035473 3.744077 0.000000 0.000000 0.000000
0.561556 0.041544 3.750858 0.000000 0.000000 0.000000
0.580199 0.034456 3.750885 0.000000 0.000000 0.000000
0.565264 0.034815 3.751636 0.000000 0.000000 0.000000
0.575483 0.043726 3.744660 0.000000 0.000000 0.000000
0.574117 0.036023 3.748322 0.000000 0.000000 0.000000
0.573959 0.042807 3.745129 0.000000 0.000000 0.000000
0.359466 -0.519417 2.168069 0.000000 0.000000 0.000000
0.341684 -0.527511 2.173952 0.000000 0.000000 0.000000
0.350415 -0.531799 2.174141 0.000000 0.000000 0.000000
0.324397 -0.529699 2.169190 0.000000 0.000000 0.000000
0.375135 -0.521897 2.182817 0.000000 0.000000 0.000000
0.557863 0.030482 3.755543 0.000000 0.000000 0.000000
0.543054 0.038305 3.744519 0.000000 0.000000 0.000000
0.551942 0.038170 3.735757 0.000000 0.000000 0.000000
0.553455 0.041485 3.742421 0.000000 0.000000 0.000000
0.539474 0.079552 3.756885 0.000000 0.000000 0.000000
0.337727 -0.524536 2.174105 0.000000 0.000000 0.000000
0.548409 0.040403 3.742688 0.000000 0.000000 0.000000
0.559066 0.038944 3.748173 0.000000 0.000000 0.000000
0.537017 0.045927 3.735816 0.000000 0.000000 0.000000
0.545994 0.035605 3.744031 0.000000 0.000000 0.000000
0.535183 0.042204 3.743522 0.000000 0.000000 0.000000
0.543435 0.041678 3.739233 0.000000 0.000000 0.000000
0.531904 0.042904 3.741029 0.000000 0.000000 0.000000
0.579522 0.042825 3.746167 0.000000 0.000000 0.000000
0.580231 0.035845 3.750262 0.000000 0.000000 0.000000
0.576019 0.034509 3.750757 0.000000 0.000000 0.000000
0.545401 0.036171 3.744097 0.000000 0.000000 0.000000
0.367216 -0.527066 2.176641 0.000000 0.000000 0.000000
0.370961 -0.524466 2.177433 0.000000 0.000000 0.000000
0.343330 -0.528104 2.173130 0.000000 0.000000 0.000000
0.576868 0.032807 3.752606 0.000000 0.000000 0.000000
0.344964 -0.528318 2.173402 0.000000 0.000000 0.000000
0.321474 -0.527329 2.162809 0.000000 0.000000 0.000000
0.547634 0.040738 3.732938 0.000000 0.000000 0.000000
0.326124 -0.526408 2.170426 0.000000 0.000000 0.000000
0.324238 -0.532167 2.168735 0.000000 0.000000 0.000000
0.343544 -0.524894 2.174128 0.000000 0.000000 0.000000
0.341057 -0.523860 2.172375 0.000000 0.000000 0.000000
0.348985 -0.524722 2.165156 0.000000 0.000000 0.000000
0.341436 -0.523143 2.169344 0.000000 0.000000 0.000000
0.348847 -0.530577 2.172154 0.000000 0.000000 0.000000
0.334622 -0.529174 2.172445 0.000000 0.000000 0.000000
0.527676 0.079043 3.740648 0.000000 0.000000 0.000000
