ply
format ascii 1.0
comment VCGLIB generated
obj_info Generated by SPFormer!
element vertex 754
property float x
property float y
property float z
property float nx
property float ny
property float nz
end_header
-0.111214 1.561402 1.662050 0.000000 0.000000 0.000000
-0.122234 1.558928 1.657513 0.000000 0.000000 0.000000
-0.114365 1.566737 1.672862 0.000000 0.000000 0.000000
-0.129546 1.562264 1.671405 0.000000 0.000000 0.000000
-0.126071 1.559702 1.673487 0.000000 0.000000 0.000000
-0.120809 1.554849 1.665338 0.000000 0.000000 0.000000
-0.109750 1.561661 1.670133 0.000000 0.000000 0.000000
-0.122754 1.560237 1.668467 0.000000 0.000000 0.000000
-0.120235 1.563205 1.667480 0.000000 0.000000 0.000000
-0.111271 1.560123 1.658902 0.000000 0.000000 0.000000
-0.125034 1.559472 1.677976 0.000000 0.000000 0.000000
-0.127008 1.562138 1.671556 0.000000 0.000000 0.000000
-0.117365 1.562929 1.674009 0.000000 0.000000 0.000000
-0.124800 1.559570 1.664002 0.000000 0.000000 0.000000
-0.119312 1.558782 1.667854 0.000000 0.000000 0.000000
-0.111368 1.556617 1.658585 0.000000 0.000000 0.000000
-0.128894 1.565103 1.673934 0.000000 0.000000 0.000000
-0.116315 1.563897 1.676681 0.000000 0.000000 0.000000
-0.115387 1.562109 1.657819 0.000000 0.000000 0.000000
-0.123384 1.563120 1.670352 0.000000 0.000000 0.000000
-0.112403 1.551773 1.666593 0.000000 0.000000 0.000000
-0.116879 1.551147 1.654885 0.000000 0.000000 0.000000
-0.115197 1.561426 1.656772 0.000000 0.000000 0.000000
-0.120883 1.556738 1.664184 0.000000 0.000000 0.000000
-0.110018 1.552092 1.659240 0.000000 0.000000 0.000000
-0.119561 1.552350 1.657690 0.000000 0.000000 0.000000
-0.111950 1.552339 1.670502 0.000000 0.000000 0.000000
-0.115202 1.552023 1.663277 0.000000 0.000000 0.000000
-0.118432 1.557954 1.673633 0.000000 0.000000 0.000000
-0.122014 1.567807 1.675033 0.000000 0.000000 0.000000
-0.126145 1.562055 1.670537 0.000000 0.000000 0.000000
-0.121457 1.554382 1.664648 0.000000 0.000000 0.000000
-0.126193 1.559814 1.662956 0.000000 0.000000 0.000000
-0.125530 1.562490 1.668745 0.000000 0.000000 0.000000
-0.111287 1.563834 1.666831 0.000000 0.000000 0.000000
-0.117001 1.559991 1.658506 0.000000 0.000000 0.000000
-0.112014 1.565406 1.666511 0.000000 0.000000 0.000000
-0.110459 1.552113 1.661856 0.000000 0.000000 0.000000
-0.119258 1.556310 1.670065 0.000000 0.000000 0.000000
-0.122883 1.557987 1.668012 0.000000 0.000000 0.000000
-0.111168 1.553130 1.670683 0.000000 0.000000 0.000000
-0.120350 1.554760 1.666321 0.000000 0.000000 0.000000
-0.122664 1.560065 1.667540 0.000000 0.000000 0.000000
-0.125482 1.558203 1.661233 0.000000 0.000000 0.000000
-0.114121 1.559778 1.662145 0.000000 0.000000 0.000000
-0.117665 1.551965 1.654282 0.000000 0.000000 0.000000
-0.110288 1.557410 1.660081 0.000000 0.000000 0.000000
-0.109187 1.552821 1.657180 0.000000 0.000000 0.000000
-0.116870 1.551382 1.654827 0.000000 0.000000 0.000000
-0.108706 1.554036 1.658351 0.000000 0.000000 0.000000
-0.109189 1.552792 1.657985 0.000000 0.000000 0.000000
-0.115305 1.554390 1.663097 0.000000 0.000000 0.000000
-0.122063 1.558685 1.665872 0.000000 0.000000 0.000000
-0.109450 1.549486 1.655630 0.000000 0.000000 0.000000
-0.111814 1.560851 1.659505 0.000000 0.000000 0.000000
-0.115787 1.559106 1.653974 0.000000 0.000000 0.000000
-0.112170 1.567042 1.673899 0.000000 0.000000 0.000000
-0.111966 1.553001 1.657328 0.000000 0.000000 0.000000
-0.120073 1.555247 1.671413 0.000000 0.000000 0.000000
-0.113182 1.551526 1.666579 0.000000 0.000000 0.000000
-0.115420 1.552937 1.664435 0.000000 0.000000 0.000000
-0.117610 1.552760 1.656378 0.000000 0.000000 0.000000
-0.125438 1.565589 1.676601 0.000000 0.000000 0.000000
-0.111236 1.564542 1.673756 0.000000 0.000000 0.000000
-0.121619 1.558707 1.658001 0.000000 0.000000 0.000000
-0.112967 1.555879 1.675393 0.000000 0.000000 0.000000
-0.124660 1.557413 1.658451 0.000000 0.000000 0.000000
-0.122690 1.560586 1.665129 0.000000 0.000000 0.000000
-0.114662 1.558362 1.657527 0.000000 0.000000 0.000000
-0.124667 1.557069 1.659229 0.000000 0.000000 0.000000
-0.128897 1.560037 1.663912 0.000000 0.000000 0.000000
-0.122254 1.565570 1.674882 0.000000 0.000000 0.000000
-0.131210 1.562700 1.668000 0.000000 0.000000 0.000000
-0.109618 1.561335 1.661975 0.000000 0.000000 0.000000
-0.117480 1.550907 1.658496 0.000000 0.000000 0.000000
-0.115906 1.555521 1.658597 0.000000 0.000000 0.000000
-0.114592 1.553329 1.657849 0.000000 0.000000 0.000000
-0.120833 1.557707 1.666167 0.000000 0.000000 0.000000
-0.122270 1.561669 1.670215 0.000000 0.000000 0.000000
-0.111624 1.559710 1.660221 0.000000 0.000000 0.000000
-0.123284 1.562231 1.672218 0.000000 0.000000 0.000000
-0.113962 1.566009 1.674439 0.000000 0.000000 0.000000
-0.121206 1.556138 1.665914 0.000000 0.000000 0.000000
-0.115526 1.556932 1.664167 0.000000 0.000000 0.000000
-0.115869 1.552895 1.666585 0.000000 0.000000 0.000000
-0.124982 1.557116 1.659732 0.000000 0.000000 0.000000
-0.126488 1.559372 1.661729 0.000000 0.000000 0.000000
-0.123077 1.555466 1.662937 0.000000 0.000000 0.000000
-0.113375 1.551813 1.665262 0.000000 0.000000 0.000000
-0.111664 1.554713 1.669928 0.000000 0.000000 0.000000
-0.107848 1.568523 1.665852 0.000000 0.000000 0.000000
-0.112487 1.560454 1.659571 0.000000 0.000000 0.000000
-0.110583 1.569026 1.678755 0.000000 0.000000 0.000000
-0.114017 1.546469 1.663204 0.000000 0.000000 0.000000
-0.124335 1.558155 1.656817 0.000000 0.000000 0.000000
-0.123016 1.556628 1.664077 0.000000 0.000000 0.000000
-0.120797 1.557577 1.657156 0.000000 0.000000 0.000000
-0.111396 1.557271 1.664165 0.000000 0.000000 0.000000
-0.121602 1.556102 1.657637 0.000000 0.000000 0.000000
-0.123475 1.557760 1.657475 0.000000 0.000000 0.000000
-0.110997 1.565642 1.675341 0.000000 0.000000 0.000000
-0.111655 1.548726 1.655148 0.000000 0.000000 0.000000
-0.121385 1.551518 1.651678 0.000000 0.000000 0.000000
-0.123512 1.554676 1.664503 0.000000 0.000000 0.000000
-0.113448 1.551430 1.661465 0.000000 0.000000 0.000000
-0.110416 1.555568 1.647334 0.000000 0.000000 0.000000
-0.125348 1.555833 1.649876 0.000000 0.000000 0.000000
-0.115814 1.553398 1.668057 0.000000 0.000000 0.000000
-0.119262 1.552059 1.654335 0.000000 0.000000 0.000000
-0.129993 1.536687 1.679412 0.000000 0.000000 0.000000
-0.128049 1.561106 1.654833 0.000000 0.000000 0.000000
-0.111857 1.558608 1.667098 0.000000 0.000000 0.000000
-0.113745 1.550269 1.659592 0.000000 0.000000 0.000000
-0.113797 1.559033 1.662878 0.000000 0.000000 0.000000
-0.123919 1.555656 1.658654 0.000000 0.000000 0.000000
-0.118953 1.553960 1.656358 0.000000 0.000000 0.000000
-0.129004 1.558502 1.659120 0.000000 0.000000 0.000000
-0.114585 1.563056 1.665534 0.000000 0.000000 0.000000
-0.114243 1.554361 1.654817 0.000000 0.000000 0.000000
-0.108244 1.571216 1.678490 0.000000 0.000000 0.000000
-0.111662 1.563108 1.667421 0.000000 0.000000 0.000000
-0.126261 1.560310 1.664394 0.000000 0.000000 0.000000
-0.113289 1.550114 1.662935 0.000000 0.000000 0.000000
-0.130433 1.564669 1.672989 0.000000 0.000000 0.000000
-0.109073 1.552267 1.657754 0.000000 0.000000 0.000000
-0.116879 1.557952 1.677980 0.000000 0.000000 0.000000
-0.111461 1.559915 1.669637 0.000000 0.000000 0.000000
-0.118730 1.549827 1.646558 0.000000 0.000000 0.000000
-0.123321 1.557289 1.662840 0.000000 0.000000 0.000000
-0.132648 1.561623 1.663639 0.000000 0.000000 0.000000
-0.112892 1.546654 1.650243 0.000000 0.000000 0.000000
-0.110737 1.567449 1.670244 0.000000 0.000000 0.000000
-0.111905 1.554834 1.674845 0.000000 0.000000 0.000000
-0.127322 1.560680 1.660935 0.000000 0.000000 0.000000
-0.118638 1.550905 1.659786 0.000000 0.000000 0.000000
-0.112088 1.556852 1.676065 0.000000 0.000000 0.000000
-0.114775 1.549854 1.662216 0.000000 0.000000 0.000000
-0.110086 1.568986 1.678004 0.000000 0.000000 0.000000
-0.126097 1.554566 1.654503 0.000000 0.000000 0.000000
-0.111175 1.541950 1.655299 0.000000 0.000000 0.000000
-0.124421 1.556998 1.665491 0.000000 0.000000 0.000000
-0.113205 1.551354 1.660652 0.000000 0.000000 0.000000
-0.112084 1.548704 1.660812 0.000000 0.000000 0.000000
-0.118798 1.550846 1.655219 0.000000 0.000000 0.000000
-0.115153 1.543848 1.655408 0.000000 0.000000 0.000000
-0.107888 1.555786 1.658328 0.000000 0.000000 0.000000
-0.115716 1.546016 1.657129 0.000000 0.000000 0.000000
-0.111826 1.554516 1.656231 0.000000 0.000000 0.000000
-0.114600 1.550147 1.662594 0.000000 0.000000 0.000000
-0.110028 1.550448 1.655173 0.000000 0.000000 0.000000
-0.110377 1.544247 1.657512 0.000000 0.000000 0.000000
-0.122927 1.561700 1.648252 0.000000 0.000000 0.000000
-0.118847 1.553189 1.654481 0.000000 0.000000 0.000000
-0.113039 1.555475 1.669806 0.000000 0.000000 0.000000
-0.114079 1.565253 1.669304 0.000000 0.000000 0.000000
-0.113316 1.560470 1.677550 0.000000 0.000000 0.000000
-0.114387 1.570662 1.668751 0.000000 0.000000 0.000000
-0.112752 1.559452 1.654520 0.000000 0.000000 0.000000
-0.111005 1.552676 1.654823 0.000000 0.000000 0.000000
-0.113986 1.557099 1.668086 0.000000 0.000000 0.000000
-0.124389 1.556434 1.678183 0.000000 0.000000 0.000000
-0.121487 1.564018 1.675593 0.000000 0.000000 0.000000
-0.115339 1.551162 1.669405 0.000000 0.000000 0.000000
-0.105859 1.563150 1.657824 0.000000 0.000000 0.000000
-0.113978 1.556662 1.667860 0.000000 0.000000 0.000000
-0.111550 1.551708 1.661933 0.000000 0.000000 0.000000
-0.111226 1.565379 1.676827 0.000000 0.000000 0.000000
-0.111513 1.566497 1.679708 0.000000 0.000000 0.000000
-0.110104 1.569502 1.674238 0.000000 0.000000 0.000000
-0.128373 1.562580 1.679050 0.000000 0.000000 0.000000
-0.128935 1.558943 1.673715 0.000000 0.000000 0.000000
-0.133375 1.559927 1.659885 0.000000 0.000000 0.000000
-0.125312 1.561731 1.665576 0.000000 0.000000 0.000000
-0.120892 1.554875 1.679184 0.000000 0.000000 0.000000
-0.116576 1.546724 1.664564 0.000000 0.000000 0.000000
-0.120986 1.558508 1.678573 0.000000 0.000000 0.000000
-0.124179 1.567339 1.659733 0.000000 0.000000 0.000000
-0.117619 1.553583 1.661878 0.000000 0.000000 0.000000
-0.119809 1.549150 1.661520 0.000000 0.000000 0.000000
-0.109245 1.556667 1.664087 0.000000 0.000000 0.000000
-0.111363 1.567064 1.675571 0.000000 0.000000 0.000000
-0.116959 1.562216 1.678783 0.000000 0.000000 0.000000
-0.109493 1.565310 1.671206 0.000000 0.000000 0.000000
-0.129233 1.562656 1.678297 0.000000 0.000000 0.000000
-0.116337 1.554015 1.650921 0.000000 0.000000 0.000000
-0.120295 1.558710 1.651334 0.000000 0.000000 0.000000
-0.118810 1.554148 1.667802 0.000000 0.000000 0.000000
-0.121402 1.525957 1.677966 0.000000 0.000000 0.000000
-0.116242 1.554316 1.669283 0.000000 0.000000 0.000000
-0.123984 1.553628 1.674748 0.000000 0.000000 0.000000
-0.120941 1.573448 1.668753 0.000000 0.000000 0.000000
-0.113964 1.555540 1.666160 0.000000 0.000000 0.000000
-0.128300 1.568304 1.658383 0.000000 0.000000 0.000000
-0.131191 1.563370 1.673740 0.000000 0.000000 0.000000
-0.113430 1.554577 1.662032 0.000000 0.000000 0.000000
-0.113262 1.554475 1.658129 0.000000 0.000000 0.000000
-0.125832 1.559806 1.678300 0.000000 0.000000 0.000000
-0.110171 1.568539 1.677041 0.000000 0.000000 0.000000
-0.132392 1.564372 1.671938 0.000000 0.000000 0.000000
-0.114472 1.552485 1.667930 0.000000 0.000000 0.000000
-0.110002 1.543710 1.660025 0.000000 0.000000 0.000000
-0.114383 1.550825 1.659526 0.000000 0.000000 0.000000
-0.111502 1.555426 1.673773 0.000000 0.000000 0.000000
-0.110369 1.561471 1.674080 0.000000 0.000000 0.000000
-0.108929 1.552664 1.661642 0.000000 0.000000 0.000000
-0.117711 1.562294 1.667162 0.000000 0.000000 0.000000
-0.113817 1.551442 1.655029 0.000000 0.000000 0.000000
-0.109717 1.570458 1.678937 0.000000 0.000000 0.000000
-0.120014 1.552507 1.648212 0.000000 0.000000 0.000000
-0.110506 1.550479 1.651283 0.000000 0.000000 0.000000
-0.110334 1.543699 1.660380 0.000000 0.000000 0.000000
-0.115116 1.550657 1.653316 0.000000 0.000000 0.000000
-0.110701 1.559615 1.671128 0.000000 0.000000 0.000000
-0.114668 1.546322 1.656950 0.000000 0.000000 0.000000
-0.119618 1.557024 1.675423 0.000000 0.000000 0.000000
-0.126084 1.556079 1.676668 0.000000 0.000000 0.000000
-0.126366 1.563007 1.679794 0.000000 0.000000 0.000000
-0.109777 1.542752 1.659119 0.000000 0.000000 0.000000
-0.129625 1.560709 1.669068 0.000000 0.000000 0.000000
-0.109982 1.545112 1.659724 0.000000 0.000000 0.000000
-0.129025 1.560427 1.675137 0.000000 0.000000 0.000000
-0.110508 1.550975 1.654300 0.000000 0.000000 0.000000
-0.110010 1.542303 1.658903 0.000000 0.000000 0.000000
-0.112555 1.560502 1.654839 0.000000 0.000000 0.000000
-0.111165 1.549186 1.663226 0.000000 0.000000 0.000000
-0.115026 1.549769 1.668353 0.000000 0.000000 0.000000
-0.116608 1.550846 1.669019 0.000000 0.000000 0.000000
-0.116522 1.550708 1.667788 0.000000 0.000000 0.000000
-0.109861 1.543223 1.659114 0.000000 0.000000 0.000000
-0.125010 1.558666 1.666913 0.000000 0.000000 0.000000
-0.111844 1.552599 1.678543 0.000000 0.000000 0.000000
-0.109146 1.545389 1.668054 0.000000 0.000000 0.000000
-0.110319 1.547657 1.666553 0.000000 0.000000 0.000000
-0.115459 1.551935 1.667153 0.000000 0.000000 0.000000
-0.107624 1.549856 1.661405 0.000000 0.000000 0.000000
-0.127772 1.558110 1.660182 0.000000 0.000000 0.000000
-0.111307 1.550466 1.660480 0.000000 0.000000 0.000000
-0.112381 1.564971 1.669781 0.000000 0.000000 0.000000
-0.128749 1.563273 1.674179 0.000000 0.000000 0.000000
-0.135856 1.563271 1.670088 0.000000 0.000000 0.000000
-0.113133 1.566987 1.669735 0.000000 0.000000 0.000000
-0.111790 1.562139 1.662512 0.000000 0.000000 0.000000
-0.109167 1.558911 1.662577 0.000000 0.000000 0.000000
-0.109178 1.552952 1.656935 0.000000 0.000000 0.000000
-0.110047 1.567907 1.673497 0.000000 0.000000 0.000000
-0.113941 1.554718 1.659654 0.000000 0.000000 0.000000
-0.115588 1.548919 1.656362 0.000000 0.000000 0.000000
-0.110002 1.558045 1.661055 0.000000 0.000000 0.000000
-0.115516 1.549094 1.657923 0.000000 0.000000 0.000000
-0.110249 1.558802 1.664696 0.000000 0.000000 0.000000
-0.125077 1.564733 1.678404 0.000000 0.000000 0.000000
-0.120235 1.561933 1.675588 0.000000 0.000000 0.000000
-0.119579 1.547069 1.652773 0.000000 0.000000 0.000000
-0.116227 1.549575 1.662407 0.000000 0.000000 0.000000
-0.111164 1.554278 1.653340 0.000000 0.000000 0.000000
0.501512 0.420625 1.240194 0.000000 0.000000 0.000000
0.485824 0.425959 1.223149 0.000000 0.000000 0.000000
0.499007 0.434445 1.233751 0.000000 0.000000 0.000000
0.489109 0.422056 1.229570 0.000000 0.000000 0.000000
0.456282 0.385941 1.221690 0.000000 0.000000 0.000000
0.497197 0.428403 1.241594 0.000000 0.000000 0.000000
0.498019 0.424368 1.228464 0.000000 0.000000 0.000000
0.493216 0.411086 1.242499 0.000000 0.000000 0.000000
0.489784 0.406261 1.231327 0.000000 0.000000 0.000000
0.502830 0.431948 1.259963 0.000000 0.000000 0.000000
0.504882 0.425459 1.246127 0.000000 0.000000 0.000000
0.493566 0.438368 1.228560 0.000000 0.000000 0.000000
0.485419 0.408976 1.235420 0.000000 0.000000 0.000000
0.500239 0.425172 1.236991 0.000000 0.000000 0.000000
0.494165 0.419667 1.239328 0.000000 0.000000 0.000000
0.491597 0.413091 1.235281 0.000000 0.000000 0.000000
0.492624 0.428181 1.223531 0.000000 0.000000 0.000000
0.457526 0.390722 1.214351 0.000000 0.000000 0.000000
0.484696 0.420098 1.225373 0.000000 0.000000 0.000000
0.515669 0.455829 1.240569 0.000000 0.000000 0.000000
0.493749 0.433635 1.232588 0.000000 0.000000 0.000000
0.485615 0.426461 1.210003 0.000000 0.000000 0.000000
0.494123 0.439370 1.222553 0.000000 0.000000 0.000000
0.499268 0.431316 1.231552 0.000000 0.000000 0.000000
0.474926 0.405026 1.226179 0.000000 0.000000 0.000000
0.496366 0.414074 1.253097 0.000000 0.000000 0.000000
0.504794 0.427110 1.246899 0.000000 0.000000 0.000000
0.494917 0.430139 1.226066 0.000000 0.000000 0.000000
0.506176 0.438736 1.240409 0.000000 0.000000 0.000000
0.486799 0.420179 1.212068 0.000000 0.000000 0.000000
0.501192 0.432365 1.231173 0.000000 0.000000 0.000000
0.512172 0.440129 1.252391 0.000000 0.000000 0.000000
0.460685 0.380075 1.228371 0.000000 0.000000 0.000000
0.497821 0.415454 1.255101 0.000000 0.000000 0.000000
0.505942 0.433459 1.243701 0.000000 0.000000 0.000000
0.482971 0.423063 1.211771 0.000000 0.000000 0.000000
0.461593 0.396431 1.214238 0.000000 0.000000 0.000000
0.481219 0.419422 1.216026 0.000000 0.000000 0.000000
0.485509 0.430844 1.223711 0.000000 0.000000 0.000000
0.485741 0.427115 1.216299 0.000000 0.000000 0.000000
0.492677 0.421968 1.225657 0.000000 0.000000 0.000000
0.509434 0.435183 1.240716 0.000000 0.000000 0.000000
0.468197 0.395410 1.227123 0.000000 0.000000 0.000000
0.500454 0.426379 1.239533 0.000000 0.000000 0.000000
0.494285 0.411894 1.250335 0.000000 0.000000 0.000000
0.474787 0.398024 1.234601 0.000000 0.000000 0.000000
0.489025 0.405252 1.236791 0.000000 0.000000 0.000000
0.512693 0.441697 1.243276 0.000000 0.000000 0.000000
0.506855 0.434738 1.249685 0.000000 0.000000 0.000000
0.452694 0.375724 1.226551 0.000000 0.000000 0.000000
0.490871 0.435433 1.227644 0.000000 0.000000 0.000000
0.458105 0.394505 1.217279 0.000000 0.000000 0.000000
0.499738 0.437798 1.232250 0.000000 0.000000 0.000000
0.468250 0.402174 1.219263 0.000000 0.000000 0.000000
0.448245 0.374025 1.225269 0.000000 0.000000 0.000000
0.464656 0.398803 1.216779 0.000000 0.000000 0.000000
0.458363 0.369547 1.236836 0.000000 0.000000 0.000000
0.477638 0.415360 1.218688 0.000000 0.000000 0.000000
0.465941 0.404243 1.214057 0.000000 0.000000 0.000000
0.447480 0.370057 1.231167 0.000000 0.000000 0.000000
0.458268 0.385692 1.223177 0.000000 0.000000 0.000000
0.466879 0.383260 1.235904 0.000000 0.000000 0.000000
0.448133 0.370800 1.228157 0.000000 0.000000 0.000000
0.490444 0.436482 1.217768 0.000000 0.000000 0.000000
0.475378 0.394624 1.237580 0.000000 0.000000 0.000000
0.462111 0.386205 1.224852 0.000000 0.000000 0.000000
0.452611 0.383808 1.220135 0.000000 0.000000 0.000000
0.443534 0.369930 1.227127 0.000000 0.000000 0.000000
0.463629 0.401016 1.215172 0.000000 0.000000 0.000000
0.452778 0.382001 1.221187 0.000000 0.000000 0.000000
0.457178 0.384706 1.219887 0.000000 0.000000 0.000000
0.460185 0.388215 1.222723 0.000000 0.000000 0.000000
0.461513 0.402604 1.220807 0.000000 0.000000 0.000000
0.507924 0.430648 1.257238 0.000000 0.000000 0.000000
0.445298 0.372832 1.222748 0.000000 0.000000 0.000000
0.448011 0.385839 1.217391 0.000000 0.000000 0.000000
0.475958 0.408219 1.224379 0.000000 0.000000 0.000000
0.455460 0.380613 1.225712 0.000000 0.000000 0.000000
0.517571 0.444822 1.242900 0.000000 0.000000 0.000000
0.501372 0.429651 1.234929 0.000000 0.000000 0.000000
0.463857 0.393523 1.221844 0.000000 0.000000 0.000000
0.507532 0.428855 1.239851 0.000000 0.000000 0.000000
0.475255 0.417207 1.208600 0.000000 0.000000 0.000000
0.500611 0.417584 1.259978 0.000000 0.000000 0.000000
0.460351 0.384733 1.225844 0.000000 0.000000 0.000000
0.458523 0.392388 1.214983 0.000000 0.000000 0.000000
0.476428 0.407470 1.243852 0.000000 0.000000 0.000000
0.472761 0.388719 1.236585 0.000000 0.000000 0.000000
0.480850 0.422308 1.211919 0.000000 0.000000 0.000000
0.484195 0.413776 1.228408 0.000000 0.000000 0.000000
0.486443 0.402341 1.240787 0.000000 0.000000 0.000000
0.479207 0.402506 1.233094 0.000000 0.000000 0.000000
0.506705 0.438091 1.229225 0.000000 0.000000 0.000000
0.491709 0.436459 1.222782 0.000000 0.000000 0.000000
0.492157 0.406133 1.249158 0.000000 0.000000 0.000000
0.469273 0.394064 1.230402 0.000000 0.000000 0.000000
0.469538 0.393928 1.231405 0.000000 0.000000 0.000000
0.498655 0.438047 1.220458 0.000000 0.000000 0.000000
0.491389 0.437352 1.211965 0.000000 0.000000 0.000000
0.486921 0.417583 1.225248 0.000000 0.000000 0.000000
0.508757 0.424224 1.243561 0.000000 0.000000 0.000000
0.480049 0.421231 1.206325 0.000000 0.000000 0.000000
0.472227 0.395786 1.231398 0.000000 0.000000 0.000000
0.509885 0.428602 1.255097 0.000000 0.000000 0.000000
0.457082 0.385638 1.221445 0.000000 0.000000 0.000000
0.505200 0.421111 1.256996 0.000000 0.000000 0.000000
0.452624 0.375049 1.228601 0.000000 0.000000 0.000000
0.458739 0.390930 1.217260 0.000000 0.000000 0.000000
0.453634 0.382887 1.217439 0.000000 0.000000 0.000000
0.457274 0.386156 1.220513 0.000000 0.000000 0.000000
0.470816 0.390189 1.232412 0.000000 0.000000 0.000000
0.467843 0.395696 1.221458 0.000000 0.000000 0.000000
0.485829 0.430548 1.218588 0.000000 0.000000 0.000000
0.476288 0.418395 1.208000 0.000000 0.000000 0.000000
0.476228 0.403545 1.228780 0.000000 0.000000 0.000000
0.474121 0.409305 1.217762 0.000000 0.000000 0.000000
0.464325 0.392344 1.225352 0.000000 0.000000 0.000000
0.473581 0.400661 1.227920 0.000000 0.000000 0.000000
0.508326 0.436048 1.244824 0.000000 0.000000 0.000000
0.497087 0.411622 1.256632 0.000000 0.000000 0.000000
0.484416 0.426246 1.214983 0.000000 0.000000 0.000000
0.506517 0.433609 1.248272 0.000000 0.000000 0.000000
0.447237 0.378334 1.220080 0.000000 0.000000 0.000000
0.442677 0.373746 1.217383 0.000000 0.000000 0.000000
0.512689 0.444426 1.246851 0.000000 0.000000 0.000000
0.463443 0.408591 1.199454 0.000000 0.000000 0.000000
0.509069 0.435663 1.250726 0.000000 0.000000 0.000000
0.513180 0.446653 1.246755 0.000000 0.000000 0.000000
0.450592 0.377708 1.224061 0.000000 0.000000 0.000000
0.486872 0.409212 1.240475 0.000000 0.000000 0.000000
0.460798 0.398578 1.209204 0.000000 0.000000 0.000000
0.499839 0.424968 1.236677 0.000000 0.000000 0.000000
0.477676 0.399710 1.233340 0.000000 0.000000 0.000000
0.506286 0.427857 1.254354 0.000000 0.000000 0.000000
0.505198 0.433197 1.239813 0.000000 0.000000 0.000000
0.475399 0.407670 1.238008 0.000000 0.000000 0.000000
0.512336 0.445928 1.243149 0.000000 0.000000 0.000000
0.470886 0.417682 1.200924 0.000000 0.000000 0.000000
0.509226 0.434790 1.255309 0.000000 0.000000 0.000000
0.500883 0.424619 1.242567 0.000000 0.000000 0.000000
0.503086 0.430495 1.253795 0.000000 0.000000 0.000000
0.496754 0.423766 1.240254 0.000000 0.000000 0.000000
0.512199 0.442064 1.248322 0.000000 0.000000 0.000000
0.509010 0.434982 1.252411 0.000000 0.000000 0.000000
0.478106 0.414185 1.217808 0.000000 0.000000 0.000000
0.507582 0.431212 1.251920 0.000000 0.000000 0.000000
0.499242 0.415547 1.249671 0.000000 0.000000 0.000000
0.477095 0.391881 1.240499 0.000000 0.000000 0.000000
0.487799 0.426852 1.215037 0.000000 0.000000 0.000000
0.490793 0.434873 1.220338 0.000000 0.000000 0.000000
0.473371 0.405472 1.211647 0.000000 0.000000 0.000000
0.514784 0.447972 1.244034 0.000000 0.000000 0.000000
0.455331 0.381865 1.222236 0.000000 0.000000 0.000000
0.507488 0.432730 1.251794 0.000000 0.000000 0.000000
0.454834 0.377735 1.229709 0.000000 0.000000 0.000000
0.496145 0.431844 1.220783 0.000000 0.000000 0.000000
0.501204 0.419492 1.252968 0.000000 0.000000 0.000000
0.492476 0.413775 1.243885 0.000000 0.000000 0.000000
0.472024 0.392726 1.234249 0.000000 0.000000 0.000000
0.504339 0.425630 1.235104 0.000000 0.000000 0.000000
0.463839 0.383296 1.234195 0.000000 0.000000 0.000000
0.487837 0.425882 1.219164 0.000000 0.000000 0.000000
0.480267 0.419925 1.209613 0.000000 0.000000 0.000000
0.479245 0.422424 1.206795 0.000000 0.000000 0.000000
0.483472 0.427262 1.208350 0.000000 0.000000 0.000000
0.454465 0.372295 1.232393 0.000000 0.000000 0.000000
0.457479 0.379901 1.228799 0.000000 0.000000 0.000000
0.489273 0.428338 1.226892 0.000000 0.000000 0.000000
0.499151 0.417056 1.242145 0.000000 0.000000 0.000000
0.471939 0.398209 1.227646 0.000000 0.000000 0.000000
0.442628 0.377509 1.208990 0.000000 0.000000 0.000000
0.472353 0.410691 1.213476 0.000000 0.000000 0.000000
0.476444 0.393956 1.236212 0.000000 0.000000 0.000000
0.513494 0.448566 1.240193 0.000000 0.000000 0.000000
0.508689 0.438282 1.230598 0.000000 0.000000 0.000000
0.479031 0.389908 1.243097 0.000000 0.000000 0.000000
0.512801 0.441840 1.246452 0.000000 0.000000 0.000000
0.481031 0.395227 1.244829 0.000000 0.000000 0.000000
0.475646 0.390791 1.241822 0.000000 0.000000 0.000000
0.494069 0.406792 1.246112 0.000000 0.000000 0.000000
0.472418 0.400728 1.224985 0.000000 0.000000 0.000000
0.459567 0.397302 1.206500 0.000000 0.000000 0.000000
0.511427 0.441963 1.257975 0.000000 0.000000 0.000000
0.443151 0.362712 1.236229 0.000000 0.000000 0.000000
0.484947 0.424316 1.210265 0.000000 0.000000 0.000000
0.512259 0.443965 1.247628 0.000000 0.000000 0.000000
0.443441 0.366048 1.230478 0.000000 0.000000 0.000000
0.504809 0.425983 1.248141 0.000000 0.000000 0.000000
0.492854 0.411095 1.240163 0.000000 0.000000 0.000000
0.504632 0.427520 1.244296 0.000000 0.000000 0.000000
0.485474 0.429323 1.212078 0.000000 0.000000 0.000000
0.499853 0.416024 1.253319 0.000000 0.000000 0.000000
0.501949 0.425016 1.242528 0.000000 0.000000 0.000000
0.493176 0.408615 1.253407 0.000000 0.000000 0.000000
0.486826 0.431191 1.214125 0.000000 0.000000 0.000000
0.501015 0.418320 1.253000 0.000000 0.000000 0.000000
0.496237 0.413384 1.248881 0.000000 0.000000 0.000000
0.498510 0.423369 1.233305 0.000000 0.000000 0.000000
0.491779 0.412738 1.236457 0.000000 0.000000 0.000000
0.473049 0.393791 1.234031 0.000000 0.000000 0.000000
0.445206 0.369028 1.231421 0.000000 0.000000 0.000000
0.482413 0.408186 1.227815 0.000000 0.000000 0.000000
0.461275 0.401278 1.207012 0.000000 0.000000 0.000000
0.480405 0.394652 1.240483 0.000000 0.000000 0.000000
0.490826 0.417654 1.228488 0.000000 0.000000 0.000000
0.486690 0.399031 1.241770 0.000000 0.000000 0.000000
0.496734 0.431884 1.232169 0.000000 0.000000 0.000000
0.491478 0.420876 1.233418 0.000000 0.000000 0.000000
0.483370 0.418073 1.227198 0.000000 0.000000 0.000000
0.481879 0.397481 1.243736 0.000000 0.000000 0.000000
0.478293 0.394202 1.237524 0.000000 0.000000 0.000000
0.495085 0.413845 1.247899 0.000000 0.000000 0.000000
0.484721 0.420748 1.234672 0.000000 0.000000 0.000000
0.483218 0.421035 1.216650 0.000000 0.000000 0.000000
0.489360 0.412868 1.228898 0.000000 0.000000 0.000000
0.483128 0.397500 1.234907 0.000000 0.000000 0.000000
0.483846 0.402267 1.241142 0.000000 0.000000 0.000000
0.484811 0.399071 1.240945 0.000000 0.000000 0.000000
0.477084 0.407593 1.223123 0.000000 0.000000 0.000000
0.490577 0.407707 1.240686 0.000000 0.000000 0.000000
0.441813 0.374155 1.214553 0.000000 0.000000 0.000000
0.453210 0.383232 1.215689 0.000000 0.000000 0.000000
0.443493 0.365851 1.235406 0.000000 0.000000 0.000000
0.451136 0.384112 1.214308 0.000000 0.000000 0.000000
0.478227 0.417113 1.207389 0.000000 0.000000 0.000000
0.449052 0.366102 1.236020 0.000000 0.000000 0.000000
0.450050 0.380361 1.216034 0.000000 0.000000 0.000000
0.473727 0.385161 1.243635 0.000000 0.000000 0.000000
0.495144 0.435243 1.219426 0.000000 0.000000 0.000000
0.457442 0.390850 1.214124 0.000000 0.000000 0.000000
0.461336 0.384100 1.228907 0.000000 0.000000 0.000000
0.462908 0.390488 1.226956 0.000000 0.000000 0.000000
0.461180 0.381979 1.230166 0.000000 0.000000 0.000000
0.480464 0.421818 1.215750 0.000000 0.000000 0.000000
0.454985 0.392133 1.208719 0.000000 0.000000 0.000000
0.451422 0.391423 1.212205 0.000000 0.000000 0.000000
0.465470 0.404274 1.210443 0.000000 0.000000 0.000000
0.463014 0.401897 1.207267 0.000000 0.000000 0.000000
0.465598 0.405217 1.207347 0.000000 0.000000 0.000000
0.473021 0.404750 1.218321 0.000000 0.000000 0.000000
0.474027 0.410949 1.213097 0.000000 0.000000 0.000000
0.477266 0.420074 1.208454 0.000000 0.000000 0.000000
0.465975 0.403822 1.208640 0.000000 0.000000 0.000000
0.512636 0.437997 1.246131 0.000000 0.000000 0.000000
0.449882 0.381277 1.203937 0.000000 0.000000 0.000000
0.512726 0.441514 1.250628 0.000000 0.000000 0.000000
0.484370 0.408075 1.236600 0.000000 0.000000 0.000000
0.464799 0.407232 1.208258 0.000000 0.000000 0.000000
0.461884 0.400386 1.209930 0.000000 0.000000 0.000000
0.495586 0.437089 1.216057 0.000000 0.000000 0.000000
0.499371 0.412769 1.256237 0.000000 0.000000 0.000000
0.502593 0.419393 1.263689 0.000000 0.000000 0.000000
0.495608 0.411565 1.250375 0.000000 0.000000 0.000000
0.464734 0.402974 1.209929 0.000000 0.000000 0.000000
0.450266 0.383930 1.213135 0.000000 0.000000 0.000000
0.453518 0.383736 1.211428 0.000000 0.000000 0.000000
0.441844 0.374939 1.212137 0.000000 0.000000 0.000000
0.449655 0.378941 1.221650 0.000000 0.000000 0.000000
0.444321 0.377778 1.214412 0.000000 0.000000 0.000000
0.442006 0.370436 1.222081 0.000000 0.000000 0.000000
0.489924 0.429792 1.210492 0.000000 0.000000 0.000000
0.471165 0.386720 1.239074 0.000000 0.000000 0.000000
0.509626 0.438386 1.252584 0.000000 0.000000 0.000000
0.490872 0.405338 1.247718 0.000000 0.000000 0.000000
0.493779 0.409313 1.246189 0.000000 0.000000 0.000000
0.450998 0.385425 1.214381 0.000000 0.000000 0.000000
0.481013 0.390321 1.244348 0.000000 0.000000 0.000000
0.494927 0.412325 1.247323 0.000000 0.000000 0.000000
0.477422 0.421770 1.203999 0.000000 0.000000 0.000000
0.446401 0.377907 1.212829 0.000000 0.000000 0.000000
0.490400 0.428327 1.231786 0.000000 0.000000 0.000000
0.487569 0.409325 1.237830 0.000000 0.000000 0.000000
0.478335 0.402203 1.241935 0.000000 0.000000 0.000000
0.482242 0.396861 1.244597 0.000000 0.000000 0.000000
0.486929 0.397089 1.248182 0.000000 0.000000 0.000000
0.477998 0.407750 1.230776 0.000000 0.000000 0.000000
0.476866 0.387008 1.239302 0.000000 0.000000 0.000000
0.482321 0.398733 1.243436 0.000000 0.000000 0.000000
0.477074 0.403202 1.228540 0.000000 0.000000 0.000000
0.466629 0.391894 1.228945 0.000000 0.000000 0.000000
0.470198 0.388076 1.235508 0.000000 0.000000 0.000000
0.460191 0.377037 1.235554 0.000000 0.000000 0.000000
0.460543 0.389824 1.217846 0.000000 0.000000 0.000000
0.487937 0.400235 1.247476 0.000000 0.000000 0.000000
0.461627 0.393068 1.216665 0.000000 0.000000 0.000000
0.471285 0.375258 1.237755 0.000000 0.000000 0.000000
0.464447 0.401847 1.213518 0.000000 0.000000 0.000000
0.467746 0.382120 1.239687 0.000000 0.000000 0.000000
0.464185 0.386992 1.229526 0.000000 0.000000 0.000000
0.481904 0.408364 1.223003 0.000000 0.000000 0.000000
0.479569 0.415785 1.213581 0.000000 0.000000 0.000000
0.493538 0.424350 1.221089 0.000000 0.000000 0.000000
0.475313 0.402679 1.240258 0.000000 0.000000 0.000000
0.508752 0.436988 1.246284 0.000000 0.000000 0.000000
0.515669 0.445232 1.246020 0.000000 0.000000 0.000000
0.472022 0.412985 1.210544 0.000000 0.000000 0.000000
0.471820 0.405802 1.216844 0.000000 0.000000 0.000000
0.492455 0.431965 1.224104 0.000000 0.000000 0.000000
0.446000 0.374907 1.219882 0.000000 0.000000 0.000000
0.467790 0.400992 1.218640 0.000000 0.000000 0.000000
0.453527 0.388727 1.211229 0.000000 0.000000 0.000000
0.454451 0.394146 1.210872 0.000000 0.000000 0.000000
0.502207 0.423138 1.239604 0.000000 0.000000 0.000000
0.479253 0.397811 1.245632 0.000000 0.000000 0.000000
0.464295 0.403073 1.210176 0.000000 0.000000 0.000000
0.461601 0.398366 1.214172 0.000000 0.000000 0.000000
0.495431 0.410391 1.250976 0.000000 0.000000 0.000000
0.490574 0.437001 1.212592 0.000000 0.000000 0.000000
0.508646 0.442249 1.241132 0.000000 0.000000 0.000000
0.456826 0.394629 1.207972 0.000000 0.000000 0.000000
0.514344 0.447805 1.247563 0.000000 0.000000 0.000000
0.508310 0.430168 1.243991 0.000000 0.000000 0.000000
0.481781 0.395547 1.240848 0.000000 0.000000 0.000000
0.489336 0.399774 1.250917 0.000000 0.000000 0.000000
0.478546 0.395341 1.239976 0.000000 0.000000 0.000000
0.487398 0.404831 1.245270 0.000000 0.000000 0.000000
0.468458 0.382090 1.240467 0.000000 0.000000 0.000000
0.485445 0.401626 1.245237 0.000000 0.000000 0.000000
0.491274 0.407328 1.247445 0.000000 0.000000 0.000000
0.464838 0.380226 1.241751 0.000000 0.000000 0.000000
0.496429 0.419321 1.236447 0.000000 0.000000 0.000000
0.498993 0.419719 1.248628 0.000000 0.000000 0.000000
0.507954 0.431513 1.236694 0.000000 0.000000 0.000000
0.476882 0.388813 1.243692 0.000000 0.000000 0.000000
0.506401 0.428284 1.245422 0.000000 0.000000 0.000000
0.496436 0.426304 1.230402 0.000000 0.000000 0.000000
0.504146 0.424200 1.252791 0.000000 0.000000 0.000000
0.502892 0.436930 1.234678 0.000000 0.000000 0.000000
0.503622 0.420112 1.258344 0.000000 0.000000 0.000000
0.501937 0.429433 1.239078 0.000000 0.000000 0.000000
0.489587 0.424247 1.222686 0.000000 0.000000 0.000000
0.501472 0.436816 1.231767 0.000000 0.000000 0.000000
0.500298 0.424768 1.238660 0.000000 0.000000 0.000000
0.509567 0.442010 1.240820 0.000000 0.000000 0.000000
0.507007 0.429134 1.258115 0.000000 0.000000 0.000000
0.486238 0.431136 1.211401 0.000000 0.000000 0.000000
0.504529 0.422854 1.256726 0.000000 0.000000 0.000000
0.510313 0.442261 1.246497 0.000000 0.000000 0.000000
0.482137 0.395259 1.247413 0.000000 0.000000 0.000000
0.513269 0.441205 1.246921 0.000000 0.000000 0.000000
0.476109 0.388001 1.242491 0.000000 0.000000 0.000000
0.490169 0.434667 1.223157 0.000000 0.000000 0.000000
0.472639 0.409893 1.221510 0.000000 0.000000 0.000000
0.510911 0.440858 1.242137 0.000000 0.000000 0.000000
0.505099 0.439388 1.232648 0.000000 0.000000 0.000000
0.503561 0.423540 1.259677 0.000000 0.000000 0.000000
0.506899 0.427546 1.254762 0.000000 0.000000 0.000000
0.509752 0.435201 1.253759 0.000000 0.000000 0.000000
0.510710 0.437594 1.257225 0.000000 0.000000 0.000000
0.482441 0.393617 1.244233 0.000000 0.000000 0.000000
0.487165 0.428223 1.217710 0.000000 0.000000 0.000000
0.476049 0.406974 1.220422 0.000000 0.000000 0.000000
0.471673 0.409460 1.217119 0.000000 0.000000 0.000000
0.451819 0.387130 1.210966 0.000000 0.000000 0.000000
0.444862 0.376536 1.211491 0.000000 0.000000 0.000000
0.457135 0.391381 1.212335 0.000000 0.000000 0.000000
0.449427 0.382178 1.218611 0.000000 0.000000 0.000000
0.470321 0.384777 1.239155 0.000000 0.000000 0.000000
0.468234 0.384796 1.235048 0.000000 0.000000 0.000000
0.445209 0.377787 1.214559 0.000000 0.000000 0.000000
0.440166 0.368216 1.222080 0.000000 0.000000 0.000000
0.508593 0.435691 1.251752 0.000000 0.000000 0.000000
0.485647 0.429258 1.203951 0.000000 0.000000 0.000000
0.456061 0.386866 1.218344 0.000000 0.000000 0.000000
0.460389 0.399475 1.207131 0.000000 0.000000 0.000000
0.461084 0.402349 1.206752 0.000000 0.000000 0.000000
0.455303 0.390768 1.211961 0.000000 0.000000 0.000000
0.452820 0.391618 1.208506 0.000000 0.000000 0.000000
0.459416 0.398972 1.208153 0.000000 0.000000 0.000000
0.458979 0.395672 1.208326 0.000000 0.000000 0.000000
0.510226 0.430701 1.249769 0.000000 0.000000 0.000000
0.458945 0.389578 1.221173 0.000000 0.000000 0.000000
0.509578 0.435103 1.254603 0.000000 0.000000 0.000000
0.440603 0.371149 1.219739 0.000000 0.000000 0.000000
0.470339 0.379778 1.237709 0.000000 0.000000 0.000000
0.488559 0.409723 1.234590 0.000000 0.000000 0.000000
0.450490 0.391822 1.204300 0.000000 0.000000 0.000000
0.467493 0.399097 1.209898 0.000000 0.000000 0.000000
0.452350 0.391851 1.210235 0.000000 0.000000 0.000000
0.486822 0.398374 1.249979 0.000000 0.000000 0.000000
0.486576 0.413223 1.231778 0.000000 0.000000 0.000000
0.452402 0.391662 1.207610 0.000000 0.000000 0.000000
0.451450 0.389169 1.210412 0.000000 0.000000 0.000000
0.502348 0.426058 1.238605 0.000000 0.000000 0.000000
0.487188 0.435694 1.202124 0.000000 0.000000 0.000000
0.506150 0.430089 1.260823 0.000000 0.000000 0.000000
0.481859 0.398823 1.240561 0.000000 0.000000 0.000000
0.480534 0.406632 1.233027 0.000000 0.000000 0.000000
0.500566 0.416223 1.258682 0.000000 0.000000 0.000000
0.497610 0.414679 1.258115 0.000000 0.000000 0.000000
0.487216 0.436691 1.216105 0.000000 0.000000 0.000000
0.476301 0.411594 1.234359 0.000000 0.000000 0.000000
0.468533 0.412119 1.203948 0.000000 0.000000 0.000000
0.501805 0.417819 1.258616 0.000000 0.000000 0.000000
0.498039 0.414076 1.254712 0.000000 0.000000 0.000000
0.477329 0.421290 1.221518 0.000000 0.000000 0.000000
0.449653 0.385577 1.211037 0.000000 0.000000 0.000000
0.453829 0.391657 1.209177 0.000000 0.000000 0.000000
0.449845 0.391750 1.208078 0.000000 0.000000 0.000000
0.452692 0.386889 1.214356 0.000000 0.000000 0.000000
0.496905 0.411093 1.259136 0.000000 0.000000 0.000000
0.452589 0.391355 1.206737 0.000000 0.000000 0.000000
0.463172 0.403913 1.208277 0.000000 0.000000 0.000000
0.493878 0.404190 1.253538 0.000000 0.000000 0.000000
0.454318 0.389094 1.212219 0.000000 0.000000 0.000000
0.462227 0.404520 1.204875 0.000000 0.000000 0.000000
0.469894 0.411565 1.205112 0.000000 0.000000 0.000000
0.446198 0.381168 1.209292 0.000000 0.000000 0.000000
0.500267 0.419310 1.247962 0.000000 0.000000 0.000000
0.507861 0.432645 1.248330 0.000000 0.000000 0.000000
0.510445 0.433182 1.259173 0.000000 0.000000 0.000000
0.487375 0.429382 1.205716 0.000000 0.000000 0.000000
0.489122 0.432938 1.207153 0.000000 0.000000 0.000000
0.487728 0.433782 1.208073 0.000000 0.000000 0.000000
0.488258 0.433153 1.204144 0.000000 0.000000 0.000000
0.467392 0.382520 1.236498 0.000000 0.000000 0.000000
0.470560 0.383815 1.241513 0.000000 0.000000 0.000000
0.482860 0.428789 1.205353 0.000000 0.000000 0.000000
0.482186 0.429078 1.205227 0.000000 0.000000 0.000000
0.485188 0.430030 1.208439 0.000000 0.000000 0.000000
0.489058 0.437031 1.205492 0.000000 0.000000 0.000000
0.486807 0.427419 1.205729 0.000000 0.000000 0.000000
0.510590 0.438411 1.254913 0.000000 0.000000 0.000000
0.516589 0.451272 1.242318 0.000000 0.000000 0.000000
0.515556 0.447976 1.246714 0.000000 0.000000 0.000000
0.506905 0.429567 1.254357 0.000000 0.000000 0.000000
0.487142 0.427375 1.205292 0.000000 0.000000 0.000000
0.452668 0.385432 1.216205 0.000000 0.000000 0.000000
0.465541 0.404928 1.210685 0.000000 0.000000 0.000000
0.463651 0.398932 1.208049 0.000000 0.000000 0.000000
0.511677 0.440530 1.250112 0.000000 0.000000 0.000000
0.509758 0.424706 1.242195 0.000000 0.000000 0.000000
0.460558 0.377252 1.238646 0.000000 0.000000 0.000000
0.484347 0.425923 1.213282 0.000000 0.000000 0.000000
0.454191 0.386190 1.220765 0.000000 0.000000 0.000000
0.460256 0.392413 1.220109 0.000000 0.000000 0.000000
0.447844 0.380535 1.214346 0.000000 0.000000 0.000000
0.453489 0.387171 1.214867 0.000000 0.000000 0.000000
0.510647 0.437989 1.235637 0.000000 0.000000 0.000000
0.447933 0.388261 1.204003 0.000000 0.000000 0.000000
0.505310 0.430232 1.251188 0.000000 0.000000 0.000000
0.510444 0.435686 1.256798 0.000000 0.000000 0.000000
0.466380 0.402801 1.210507 0.000000 0.000000 0.000000
0.468038 0.383492 1.242344 0.000000 0.000000 0.000000
0.486934 0.433676 1.204915 0.000000 0.000000 0.000000
0.470546 0.384666 1.238854 0.000000 0.000000 0.000000
0.490160 0.439942 1.205105 0.000000 0.000000 0.000000
0.484762 0.425148 1.204510 0.000000 0.000000 0.000000
0.462931 0.393942 1.213377 0.000000 0.000000 0.000000
0.471176 0.408519 1.214472 0.000000 0.000000 0.000000
0.463113 0.382802 1.237123 0.000000 0.000000 0.000000
0.455612 0.375355 1.233832 0.000000 0.000000 0.000000
0.478637 0.422248 1.206349 0.000000 0.000000 0.000000
0.460876 0.396726 1.210732 0.000000 0.000000 0.000000
0.474763 0.413774 1.209373 0.000000 0.000000 0.000000
0.463362 0.385376 1.231415 0.000000 0.000000 0.000000
0.458911 0.378889 1.232852 0.000000 0.000000 0.000000
0.487846 0.434446 1.206360 0.000000 0.000000 0.000000
0.513497 0.443715 1.260613 0.000000 0.000000 0.000000
0.464349 0.381173 1.238317 0.000000 0.000000 0.000000
0.445960 0.380550 1.211845 0.000000 0.000000 0.000000
0.451123 0.372127 1.231991 0.000000 0.000000 0.000000
0.450315 0.382702 1.213694 0.000000 0.000000 0.000000
0.443027 0.379231 1.209496 0.000000 0.000000 0.000000
0.479423 0.403693 1.231784 0.000000 0.000000 0.000000
0.492155 0.405134 1.250965 0.000000 0.000000 0.000000
0.465641 0.406800 1.210697 0.000000 0.000000 0.000000
0.465334 0.401118 1.211111 0.000000 0.000000 0.000000
0.458250 0.400385 1.212396 0.000000 0.000000 0.000000
0.464609 0.405649 1.205196 0.000000 0.000000 0.000000
0.454002 0.389033 1.208482 0.000000 0.000000 0.000000
0.466650 0.400244 1.213624 0.000000 0.000000 0.000000
0.455209 0.392366 1.208137 0.000000 0.000000 0.000000
0.458961 0.398942 1.205805 0.000000 0.000000 0.000000
0.450618 0.382426 1.213340 0.000000 0.000000 0.000000
0.458978 0.396024 1.209814 0.000000 0.000000 0.000000
0.455660 0.396115 1.205424 0.000000 0.000000 0.000000
0.469182 0.409127 1.211262 0.000000 0.000000 0.000000
0.440869 0.375873 1.209792 0.000000 0.000000 0.000000
0.442900 0.376654 1.210436 0.000000 0.000000 0.000000
0.465758 0.383094 1.234250 0.000000 0.000000 0.000000
0.470326 0.411826 1.207204 0.000000 0.000000 0.000000
0.448721 0.383614 1.209713 0.000000 0.000000 0.000000
0.462715 0.379182 1.234711 0.000000 0.000000 0.000000
0.468350 0.408212 1.206011 0.000000 0.000000 0.000000
0.466633 0.407454 1.206545 0.000000 0.000000 0.000000
0.465905 0.408742 1.202718 0.000000 0.000000 0.000000
0.441657 0.373117 1.210985 0.000000 0.000000 0.000000
0.513292 0.447754 1.246101 0.000000 0.000000 0.000000
0.467063 0.408489 1.206845 0.000000 0.000000 0.000000
0.449100 0.388646 1.208240 0.000000 0.000000 0.000000
0.467881 0.407998 1.207409 0.000000 0.000000 0.000000
0.445280 0.380312 1.210618 0.000000 0.000000 0.000000
0.449639 0.384264 1.211320 0.000000 0.000000 0.000000
0.516710 0.453921 1.242532 0.000000 0.000000 0.000000
0.450999 0.387120 1.207628 0.000000 0.000000 0.000000
0.516465 0.450732 1.244050 0.000000 0.000000 0.000000
0.484877 0.393831 1.248733 0.000000 0.000000 0.000000
0.511390 0.442032 1.261978 0.000000 0.000000 0.000000
