ply
format ascii 1.0
comment VCGLIB generated
obj_info Generated by SPFormer!
element vertex 725
property float x
property float y
property float z
property float nx
property float ny
property float nz
end_header
0.293068 0.617484 1.369413 0.000000 0.000000 0.000000
0.300530 0.620563 1.358950 0.000000 0.000000 0.000000
0.300551 0.597596 1.354592 0.000000 0.000000 0.000000
0.284826 0.626396 1.370251 0.000000 0.000000 0.000000
0.305202 0.603123 1.366605 0.000000 0.000000 0.000000
0.329079 0.565648 1.371695 0.000000 0.000000 0.000000
0.265171 0.670384 1.359227 0.000000 0.000000 0.000000
0.282443 0.633583 1.371381 0.000000 0.000000 0.000000
0.335699 0.561347 1.365252 0.000000 0.000000 0.000000
0.313131 0.590180 1.388925 0.000000 0.000000 0.000000
0.267825 0.664222 1.362965 0.000000 0.000000 0.000000
0.299868 0.605832 1.365769 0.000000 0.000000 0.000000
0.261277 0.677282 1.360790 0.000000 0.000000 0.000000
0.318901 0.579214 1.364593 0.000000 0.000000 0.000000
0.263597 0.680426 1.362275 0.000000 0.000000 0.000000
0.270060 0.667252 1.373888 0.000000 0.000000 0.000000
0.311016 0.590365 1.371834 0.000000 0.000000 0.000000
0.297336 0.612049 1.368584 0.000000 0.000000 0.000000
0.278818 0.647663 1.362955 0.000000 0.000000 0.000000
0.271775 0.663581 1.372538 0.000000 0.000000 0.000000
0.284729 0.637239 1.356410 0.000000 0.000000 0.000000
0.295080 0.622470 1.367960 0.000000 0.000000 0.000000
0.293884 0.611070 1.387297 0.000000 0.000000 0.000000
0.277607 0.648861 1.374167 0.000000 0.000000 0.000000
0.313021 0.587484 1.360652 0.000000 0.000000 0.000000
0.306032 0.601086 1.371048 0.000000 0.000000 0.000000
0.329780 0.567755 1.363751 0.000000 0.000000 0.000000
0.263300 0.672859 1.356347 0.000000 0.000000 0.000000
0.264447 0.671368 1.366205 0.000000 0.000000 0.000000
0.307689 0.594307 1.378510 0.000000 0.000000 0.000000
0.320108 0.580573 1.365808 0.000000 0.000000 0.000000
0.324162 0.574009 1.376215 0.000000 0.000000 0.000000
0.296005 0.622545 1.354349 0.000000 0.000000 0.000000
0.326349 0.570004 1.365738 0.000000 0.000000 0.000000
0.310469 0.627674 1.378342 0.000000 0.000000 0.000000
0.318937 0.581328 1.369246 0.000000 0.000000 0.000000
0.279708 0.627794 1.376040 0.000000 0.000000 0.000000
0.303236 0.605109 1.372809 0.000000 0.000000 0.000000
0.319056 0.583579 1.366394 0.000000 0.000000 0.000000
0.321461 0.576183 1.361605 0.000000 0.000000 0.000000
0.322262 0.563854 1.375779 0.000000 0.000000 0.000000
0.329440 0.564901 1.364351 0.000000 0.000000 0.000000
0.323754 0.583668 1.377241 0.000000 0.000000 0.000000
0.264841 0.676087 1.363215 0.000000 0.000000 0.000000
0.307632 0.596137 1.368077 0.000000 0.000000 0.000000
0.297601 0.615358 1.368878 0.000000 0.000000 0.000000
0.299953 0.605634 1.383773 0.000000 0.000000 0.000000
0.304658 0.596572 1.381926 0.000000 0.000000 0.000000
0.297992 0.615261 1.368153 0.000000 0.000000 0.000000
0.274839 0.658192 1.358058 0.000000 0.000000 0.000000
0.271994 0.662830 1.360410 0.000000 0.000000 0.000000
0.296208 0.613764 1.365792 0.000000 0.000000 0.000000
0.286568 0.627708 1.371424 0.000000 0.000000 0.000000
0.268962 0.667211 1.356857 0.000000 0.000000 0.000000
0.277256 0.638508 1.361025 0.000000 0.000000 0.000000
0.296272 0.622734 1.359081 0.000000 0.000000 0.000000
0.291530 0.611337 1.371731 0.000000 0.000000 0.000000
0.286087 0.630912 1.369607 0.000000 0.000000 0.000000
0.302079 0.612128 1.368762 0.000000 0.000000 0.000000
0.328910 0.565456 1.371764 0.000000 0.000000 0.000000
0.327633 0.577596 1.377163 0.000000 0.000000 0.000000
0.312589 0.586811 1.367908 0.000000 0.000000 0.000000
0.286644 0.624852 1.372736 0.000000 0.000000 0.000000
0.309322 0.590867 1.367474 0.000000 0.000000 0.000000
0.321044 0.566498 1.360175 0.000000 0.000000 0.000000
0.322154 0.592911 1.373636 0.000000 0.000000 0.000000
0.302081 0.607667 1.362421 0.000000 0.000000 0.000000
0.290139 0.640086 1.368030 0.000000 0.000000 0.000000
0.322145 0.602376 1.389679 0.000000 0.000000 0.000000
0.314559 0.587945 1.369430 0.000000 0.000000 0.000000
0.288887 0.628968 1.363414 0.000000 0.000000 0.000000
0.321556 0.579482 1.375035 0.000000 0.000000 0.000000
0.287128 0.627606 1.369681 0.000000 0.000000 0.000000
0.296594 0.624774 1.358249 0.000000 0.000000 0.000000
0.319603 0.573801 1.373467 0.000000 0.000000 0.000000
0.289814 0.631164 1.357360 0.000000 0.000000 0.000000
0.279127 0.648188 1.356416 0.000000 0.000000 0.000000
0.290884 0.638097 1.361599 0.000000 0.000000 0.000000
0.300374 0.613634 1.359499 0.000000 0.000000 0.000000
0.318287 0.586589 1.368103 0.000000 0.000000 0.000000
0.283043 0.651796 1.361437 0.000000 0.000000 0.000000
0.274149 0.664277 1.360109 0.000000 0.000000 0.000000
0.293317 0.633983 1.353363 0.000000 0.000000 0.000000
0.317840 0.570933 1.373625 0.000000 0.000000 0.000000
0.262038 0.680639 1.363623 0.000000 0.000000 0.000000
0.296137 0.621821 1.358981 0.000000 0.000000 0.000000
0.344554 0.593568 1.389350 0.000000 0.000000 0.000000
0.295891 0.598362 1.379024 0.000000 0.000000 0.000000
0.328525 0.560719 1.376977 0.000000 0.000000 0.000000
0.316961 0.574262 1.375972 0.000000 0.000000 0.000000
0.321993 0.580696 1.381225 0.000000 0.000000 0.000000
0.315417 0.578780 1.376573 0.000000 0.000000 0.000000
0.272828 0.666148 1.373585 0.000000 0.000000 0.000000
0.271268 0.649238 1.379639 0.000000 0.000000 0.000000
0.301694 0.617173 1.355302 0.000000 0.000000 0.000000
0.302107 0.608331 1.374650 0.000000 0.000000 0.000000
0.289147 0.625433 1.374309 0.000000 0.000000 0.000000
0.263504 0.665084 1.372908 0.000000 0.000000 0.000000
0.278708 0.632044 1.370038 0.000000 0.000000 0.000000
0.310296 0.600655 1.357946 0.000000 0.000000 0.000000
0.276311 0.648646 1.369629 0.000000 0.000000 0.000000
0.281397 0.630949 1.377895 0.000000 0.000000 0.000000
0.267532 0.663741 1.375371 0.000000 0.000000 0.000000
0.324430 0.567711 1.379892 0.000000 0.000000 0.000000
0.310540 0.590352 1.362931 0.000000 0.000000 0.000000
0.293934 0.618446 1.374449 0.000000 0.000000 0.000000
0.314078 0.590391 1.358544 0.000000 0.000000 0.000000
0.274991 0.668690 1.361348 0.000000 0.000000 0.000000
0.309868 0.601719 1.357156 0.000000 0.000000 0.000000
0.324072 0.576984 1.367732 0.000000 0.000000 0.000000
0.296520 0.622376 1.358851 0.000000 0.000000 0.000000
0.334408 0.564684 1.367121 0.000000 0.000000 0.000000
0.279607 0.658420 1.367955 0.000000 0.000000 0.000000
0.328252 0.581349 1.392326 0.000000 0.000000 0.000000
0.325056 0.572758 1.385550 0.000000 0.000000 0.000000
0.265827 0.663302 1.377456 0.000000 0.000000 0.000000
0.282746 0.640509 1.371674 0.000000 0.000000 0.000000
0.281916 0.644251 1.367461 0.000000 0.000000 0.000000
0.266329 0.668971 1.355654 0.000000 0.000000 0.000000
0.274220 0.643932 1.353693 0.000000 0.000000 0.000000
0.276449 0.655734 1.379519 0.000000 0.000000 0.000000
0.321981 0.563133 1.370781 0.000000 0.000000 0.000000
0.318101 0.585438 1.382141 0.000000 0.000000 0.000000
0.309917 0.583195 1.386065 0.000000 0.000000 0.000000
0.305050 0.592282 1.390327 0.000000 0.000000 0.000000
0.312776 0.578611 1.379690 0.000000 0.000000 0.000000
0.309725 0.592903 1.374858 0.000000 0.000000 0.000000
0.311221 0.601299 1.354344 0.000000 0.000000 0.000000
0.258286 0.686490 1.354665 0.000000 0.000000 0.000000
0.290805 0.621668 1.380367 0.000000 0.000000 0.000000
0.263384 0.672820 1.358944 0.000000 0.000000 0.000000
0.272974 0.639957 1.383058 0.000000 0.000000 0.000000
0.268916 0.671738 1.353281 0.000000 0.000000 0.000000
0.298840 0.627176 1.357515 0.000000 0.000000 0.000000
0.284093 0.629052 1.379224 0.000000 0.000000 0.000000
0.307724 0.609770 1.359214 0.000000 0.000000 0.000000
0.318542 0.610151 1.383371 0.000000 0.000000 0.000000
0.290747 0.623291 1.371189 0.000000 0.000000 0.000000
0.267592 0.668042 1.357598 0.000000 0.000000 0.000000
0.280836 0.634283 1.376704 0.000000 0.000000 0.000000
0.258045 0.660923 1.369862 0.000000 0.000000 0.000000
0.291829 0.620617 1.368810 0.000000 0.000000 0.000000
0.268990 0.666660 1.356161 0.000000 0.000000 0.000000
0.329693 0.562661 1.376516 0.000000 0.000000 0.000000
0.271549 0.648218 1.368386 0.000000 0.000000 0.000000
0.276566 0.635681 1.372360 0.000000 0.000000 0.000000
0.279265 0.632917 1.370616 0.000000 0.000000 0.000000
0.305103 0.606727 1.364362 0.000000 0.000000 0.000000
0.319750 0.574275 1.365332 0.000000 0.000000 0.000000
0.300155 0.614934 1.377406 0.000000 0.000000 0.000000
0.262447 0.675687 1.368480 0.000000 0.000000 0.000000
0.281372 0.630801 1.368201 0.000000 0.000000 0.000000
0.315731 0.575601 1.375337 0.000000 0.000000 0.000000
0.322299 0.577326 1.368506 0.000000 0.000000 0.000000
0.303363 0.597729 1.362056 0.000000 0.000000 0.000000
0.264675 0.655346 1.363409 0.000000 0.000000 0.000000
0.296097 0.608725 1.371769 0.000000 0.000000 0.000000
0.270802 0.665919 1.366691 0.000000 0.000000 0.000000
0.330344 0.566931 1.370318 0.000000 0.000000 0.000000
0.314544 0.586178 1.370389 0.000000 0.000000 0.000000
0.283346 0.632441 1.371006 0.000000 0.000000 0.000000
0.308093 0.598992 1.359203 0.000000 0.000000 0.000000
0.276689 0.669566 1.359218 0.000000 0.000000 0.000000
0.268435 0.654423 1.378281 0.000000 0.000000 0.000000
0.323702 0.574279 1.362225 0.000000 0.000000 0.000000
0.260239 0.681940 1.360165 0.000000 0.000000 0.000000
0.256158 0.691350 1.356445 0.000000 0.000000 0.000000
0.289820 0.598965 1.380985 0.000000 0.000000 0.000000
0.296455 0.607045 1.369501 0.000000 0.000000 0.000000
0.325873 0.565174 1.366333 0.000000 0.000000 0.000000
0.301538 0.611646 1.358481 0.000000 0.000000 0.000000
0.296566 0.608372 1.360030 0.000000 0.000000 0.000000
0.298408 0.616600 1.361703 0.000000 0.000000 0.000000
0.286418 0.625973 1.373979 0.000000 0.000000 0.000000
0.303704 0.601101 1.377602 0.000000 0.000000 0.000000
0.290211 0.619103 1.374811 0.000000 0.000000 0.000000
0.283342 0.627022 1.389185 0.000000 0.000000 0.000000
0.271849 0.646005 1.376334 0.000000 0.000000 0.000000
0.300339 0.610218 1.373933 0.000000 0.000000 0.000000
0.264239 0.675813 1.357164 0.000000 0.000000 0.000000
0.257811 0.673865 1.370702 0.000000 0.000000 0.000000
0.282300 0.634196 1.381655 0.000000 0.000000 0.000000
0.279427 0.638414 1.368257 0.000000 0.000000 0.000000
0.273146 0.654285 1.377188 0.000000 0.000000 0.000000
0.276711 0.642230 1.379220 0.000000 0.000000 0.000000
0.282219 0.639823 1.364031 0.000000 0.000000 0.000000
0.271785 0.654915 1.369108 0.000000 0.000000 0.000000
0.279031 0.638232 1.369395 0.000000 0.000000 0.000000
0.263827 0.664146 1.364394 0.000000 0.000000 0.000000
0.269884 0.666637 1.361632 0.000000 0.000000 0.000000
0.265468 0.671705 1.357486 0.000000 0.000000 0.000000
0.316197 0.597614 1.379772 0.000000 0.000000 0.000000
0.309585 0.604269 1.357183 0.000000 0.000000 0.000000
0.260319 0.683000 1.353227 0.000000 0.000000 0.000000
0.319585 0.564912 1.380001 0.000000 0.000000 0.000000
0.279507 0.649051 1.379839 0.000000 0.000000 0.000000
0.292859 0.629569 1.360223 0.000000 0.000000 0.000000
0.314766 0.586279 1.362088 0.000000 0.000000 0.000000
0.313099 0.586267 1.366694 0.000000 0.000000 0.000000
0.271003 0.655474 1.364803 0.000000 0.000000 0.000000
0.276203 0.654318 1.356812 0.000000 0.000000 0.000000
0.327346 0.575364 1.362645 0.000000 0.000000 0.000000
0.269873 0.669715 1.359154 0.000000 0.000000 0.000000
0.276306 0.655160 1.359937 0.000000 0.000000 0.000000
0.271726 0.665302 1.361882 0.000000 0.000000 0.000000
0.266448 0.667704 1.370929 0.000000 0.000000 0.000000
0.279673 0.635374 1.357267 0.000000 0.000000 0.000000
0.278638 0.639881 1.358473 0.000000 0.000000 0.000000
0.264576 0.668198 1.367682 0.000000 0.000000 0.000000
0.328172 0.562796 1.362766 0.000000 0.000000 0.000000
0.295320 0.615721 1.374837 0.000000 0.000000 0.000000
0.300568 0.610395 1.360893 0.000000 0.000000 0.000000
0.310253 0.603052 1.357281 0.000000 0.000000 0.000000
0.267673 0.669103 1.356004 0.000000 0.000000 0.000000
0.268146 0.664664 1.357599 0.000000 0.000000 0.000000
0.311724 0.592950 1.367887 0.000000 0.000000 0.000000
0.268622 0.663558 1.361380 0.000000 0.000000 0.000000
0.279159 0.643820 1.370492 0.000000 0.000000 0.000000
0.284255 0.629331 1.375060 0.000000 0.000000 0.000000
0.303650 0.606236 1.368086 0.000000 0.000000 0.000000
0.315497 0.593892 1.357497 0.000000 0.000000 0.000000
0.307787 0.593571 1.368792 0.000000 0.000000 0.000000
0.261687 0.677328 1.360638 0.000000 0.000000 0.000000
0.321869 0.576583 1.369822 0.000000 0.000000 0.000000
0.287162 0.622851 1.378600 0.000000 0.000000 0.000000
0.317637 0.587268 1.373044 0.000000 0.000000 0.000000
0.282440 0.633228 1.367005 0.000000 0.000000 0.000000
0.293236 0.626517 1.370674 0.000000 0.000000 0.000000
0.285422 0.641028 1.382320 0.000000 0.000000 0.000000
0.263559 0.677570 1.356238 0.000000 0.000000 0.000000
0.304697 0.598093 1.373025 0.000000 0.000000 0.000000
0.320568 0.571182 1.368037 0.000000 0.000000 0.000000
0.272846 0.658461 1.373813 0.000000 0.000000 0.000000
0.302154 0.609192 1.359548 0.000000 0.000000 0.000000
0.278679 0.643488 1.375142 0.000000 0.000000 0.000000
0.316978 0.584757 1.361694 0.000000 0.000000 0.000000
0.317213 0.597263 1.354276 0.000000 0.000000 0.000000
0.262542 0.676808 1.355196 0.000000 0.000000 0.000000
0.313391 0.591728 1.358852 0.000000 0.000000 0.000000
0.327586 0.572036 1.360354 0.000000 0.000000 0.000000
0.286119 0.646144 1.361481 0.000000 0.000000 0.000000
0.319679 0.582563 1.364920 0.000000 0.000000 0.000000
0.330247 0.570135 1.361485 0.000000 0.000000 0.000000
0.297535 0.614579 1.356508 0.000000 0.000000 0.000000
0.311657 0.596705 1.356271 0.000000 0.000000 0.000000
0.324818 0.573310 1.360880 0.000000 0.000000 0.000000
0.297147 0.616139 1.358855 0.000000 0.000000 0.000000
0.302828 0.609098 1.359697 0.000000 0.000000 0.000000
0.312969 0.584922 1.387917 0.000000 0.000000 0.000000
0.276599 0.643212 1.362581 0.000000 0.000000 0.000000
0.278444 0.642717 1.360186 0.000000 0.000000 0.000000
0.276757 0.653493 1.349691 0.000000 0.000000 0.000000
0.301495 0.625951 1.355660 0.000000 0.000000 0.000000
0.294301 0.630106 1.377970 0.000000 0.000000 0.000000
0.281352 0.640922 1.375165 0.000000 0.000000 0.000000
0.280786 0.640624 1.357949 0.000000 0.000000 0.000000
0.289409 0.632905 1.363596 0.000000 0.000000 0.000000
0.284621 0.637309 1.367634 0.000000 0.000000 0.000000
0.278200 0.643095 1.380394 0.000000 0.000000 0.000000
0.275499 0.648567 1.357983 0.000000 0.000000 0.000000
0.284730 0.624894 1.384412 0.000000 0.000000 0.000000
0.295107 0.632176 1.354298 0.000000 0.000000 0.000000
0.280699 0.645457 1.355965 0.000000 0.000000 0.000000
0.282586 0.629678 1.370718 0.000000 0.000000 0.000000
0.281231 0.640715 1.377587 0.000000 0.000000 0.000000
0.275845 0.639272 1.377816 0.000000 0.000000 0.000000
0.305718 0.595390 1.382911 0.000000 0.000000 0.000000
0.290356 0.628678 1.357241 0.000000 0.000000 0.000000
0.331159 0.573098 1.375553 0.000000 0.000000 0.000000
0.261686 0.672827 1.359866 0.000000 0.000000 0.000000
0.289535 0.639049 1.354477 0.000000 0.000000 0.000000
0.260819 0.679846 1.356514 0.000000 0.000000 0.000000
0.323146 0.568616 1.381231 0.000000 0.000000 0.000000
0.295812 0.606414 1.391436 0.000000 0.000000 0.000000
0.267201 0.660606 1.364691 0.000000 0.000000 0.000000
0.305921 0.612005 1.365158 0.000000 0.000000 0.000000
0.310538 0.597766 1.357690 0.000000 0.000000 0.000000
0.260346 0.682105 1.362185 0.000000 0.000000 0.000000
0.272457 0.662561 1.359539 0.000000 0.000000 0.000000
0.288743 0.624634 1.361389 0.000000 0.000000 0.000000
0.280397 0.660201 1.365072 0.000000 0.000000 0.000000
0.269560 0.662768 1.373969 0.000000 0.000000 0.000000
0.271897 0.657851 1.359078 0.000000 0.000000 0.000000
0.264035 0.677201 1.361341 0.000000 0.000000 0.000000
0.298393 0.615152 1.357857 0.000000 0.000000 0.000000
0.309950 0.584876 1.387136 0.000000 0.000000 0.000000
0.275255 0.636124 1.384104 0.000000 0.000000 0.000000
0.311120 0.584248 1.380125 0.000000 0.000000 0.000000
0.285562 0.634589 1.358003 0.000000 0.000000 0.000000
0.271601 0.640976 1.387394 0.000000 0.000000 0.000000
0.283210 0.634658 1.363071 0.000000 0.000000 0.000000
0.302556 0.594290 1.384663 0.000000 0.000000 0.000000
0.319525 0.577106 1.383987 0.000000 0.000000 0.000000
0.303743 0.595794 1.376614 0.000000 0.000000 0.000000
0.273067 0.639593 1.384439 0.000000 0.000000 0.000000
0.305270 0.595510 1.388169 0.000000 0.000000 0.000000
0.273223 0.665950 1.370984 0.000000 0.000000 0.000000
0.317834 0.577985 1.389714 0.000000 0.000000 0.000000
0.260736 0.680993 1.359081 0.000000 0.000000 0.000000
0.322357 0.567954 1.380097 0.000000 0.000000 0.000000
0.288793 0.641837 1.378663 0.000000 0.000000 0.000000
0.316765 0.575086 1.384692 0.000000 0.000000 0.000000
0.287893 0.648034 1.358583 0.000000 0.000000 0.000000
0.294611 0.642488 1.360375 0.000000 0.000000 0.000000
0.292703 0.621047 1.385352 0.000000 0.000000 0.000000
0.293553 0.618559 1.373418 0.000000 0.000000 0.000000
0.279873 0.629551 1.384203 0.000000 0.000000 0.000000
0.317637 0.582661 1.378248 0.000000 0.000000 0.000000
0.293873 0.628951 1.357115 0.000000 0.000000 0.000000
0.260953 0.681830 1.359292 0.000000 0.000000 0.000000
0.260853 0.681219 1.360502 0.000000 0.000000 0.000000
0.294672 0.611276 1.387671 0.000000 0.000000 0.000000
0.291201 0.632931 1.380122 0.000000 0.000000 0.000000
0.286998 0.615559 1.382721 0.000000 0.000000 0.000000
0.284111 0.626160 1.382459 0.000000 0.000000 0.000000
0.307331 0.592512 1.383085 0.000000 0.000000 0.000000
0.287241 0.623233 1.387439 0.000000 0.000000 0.000000
0.291961 0.622192 1.359519 0.000000 0.000000 0.000000
0.285570 0.611526 1.382671 0.000000 0.000000 0.000000
0.267197 0.669302 1.359443 0.000000 0.000000 0.000000
0.306587 0.598747 1.369452 0.000000 0.000000 0.000000
0.270847 0.667565 1.356086 0.000000 0.000000 0.000000
0.279717 0.637417 1.358283 0.000000 0.000000 0.000000
0.260334 0.678061 1.358230 0.000000 0.000000 0.000000
0.281351 0.652371 1.350299 0.000000 0.000000 0.000000
0.314492 0.597936 1.373342 0.000000 0.000000 0.000000
0.264535 0.671419 1.364373 0.000000 0.000000 0.000000
0.287094 0.655861 1.365316 0.000000 0.000000 0.000000
0.292224 0.640662 1.351736 0.000000 0.000000 0.000000
0.317786 0.580465 1.362369 0.000000 0.000000 0.000000
0.261135 0.664679 1.378630 0.000000 0.000000 0.000000
0.313335 0.592476 1.365312 0.000000 0.000000 0.000000
0.270494 0.664135 1.355214 0.000000 0.000000 0.000000
0.262353 0.674563 1.360255 0.000000 0.000000 0.000000
0.282466 0.632951 1.359329 0.000000 0.000000 0.000000
0.324950 0.560173 1.378659 0.000000 0.000000 0.000000
0.264428 0.666183 1.367864 0.000000 0.000000 0.000000
0.276683 0.652278 1.356706 0.000000 0.000000 0.000000
0.306058 0.594614 1.361798 0.000000 0.000000 0.000000
0.266129 0.671986 1.368603 0.000000 0.000000 0.000000
0.297806 0.614678 1.360974 0.000000 0.000000 0.000000
0.255462 0.656629 1.378103 0.000000 0.000000 0.000000
0.284774 0.638846 1.355795 0.000000 0.000000 0.000000
0.290518 0.620242 1.365188 0.000000 0.000000 0.000000
0.312340 0.580293 1.390664 0.000000 0.000000 0.000000
0.315659 0.576521 1.381580 0.000000 0.000000 0.000000
0.298033 0.615210 1.357411 0.000000 0.000000 0.000000
0.294511 0.610368 1.386227 0.000000 0.000000 0.000000
0.285794 0.624733 1.383472 0.000000 0.000000 0.000000
0.330352 0.566431 1.377836 0.000000 0.000000 0.000000
0.284933 0.621680 1.386290 0.000000 0.000000 0.000000
0.275026 0.640244 1.384161 0.000000 0.000000 0.000000
0.317174 0.591856 1.360180 0.000000 0.000000 0.000000
0.320020 0.588597 1.383511 0.000000 0.000000 0.000000
0.326046 0.566702 1.368768 0.000000 0.000000 0.000000
0.297452 0.616048 1.357178 0.000000 0.000000 0.000000
0.311127 0.596798 1.363858 0.000000 0.000000 0.000000
0.313186 0.596245 1.354404 0.000000 0.000000 0.000000
0.303434 0.597406 1.386368 0.000000 0.000000 0.000000
0.304912 0.597374 1.390750 0.000000 0.000000 0.000000
0.315190 0.576064 1.371467 0.000000 0.000000 0.000000
0.283184 0.636921 1.377823 0.000000 0.000000 0.000000
0.280629 0.624948 1.383729 0.000000 0.000000 0.000000
0.319530 0.591190 1.363481 0.000000 0.000000 0.000000
0.264490 0.669713 1.374513 0.000000 0.000000 0.000000
0.323634 0.567703 1.364767 0.000000 0.000000 0.000000
0.315483 0.581174 1.364817 0.000000 0.000000 0.000000
0.277232 0.648439 1.359384 0.000000 0.000000 0.000000
0.282902 0.643395 1.355209 0.000000 0.000000 0.000000
0.273998 0.652918 1.359608 0.000000 0.000000 0.000000
0.291867 0.633625 1.355521 0.000000 0.000000 0.000000
0.266324 0.672406 1.360288 0.000000 0.000000 0.000000
0.283671 0.639850 1.356245 0.000000 0.000000 0.000000
0.275542 0.654761 1.357203 0.000000 0.000000 0.000000
0.265704 0.668543 1.359191 0.000000 0.000000 0.000000
0.273192 0.658972 1.360271 0.000000 0.000000 0.000000
0.263739 0.676392 1.358045 0.000000 0.000000 0.000000
0.301948 0.595099 1.385798 0.000000 0.000000 0.000000
0.299492 0.613818 1.359684 0.000000 0.000000 0.000000
0.321298 0.571478 1.389385 0.000000 0.000000 0.000000
0.305446 0.596837 1.383847 0.000000 0.000000 0.000000
0.304605 0.600880 1.384819 0.000000 0.000000 0.000000
0.298609 0.613354 1.360151 0.000000 0.000000 0.000000
0.325340 0.570323 1.383909 0.000000 0.000000 0.000000
0.300454 0.600344 1.387315 0.000000 0.000000 0.000000
0.320861 0.577489 1.360607 0.000000 0.000000 0.000000
0.267934 0.668053 1.371004 0.000000 0.000000 0.000000
0.264553 0.675821 1.362481 0.000000 0.000000 0.000000
0.293354 0.631834 1.355050 0.000000 0.000000 0.000000
0.274604 0.637532 1.362516 0.000000 0.000000 0.000000
0.317672 0.602779 1.354346 0.000000 0.000000 0.000000
0.281641 0.630883 1.359460 0.000000 0.000000 0.000000
0.309805 0.608691 1.351694 0.000000 0.000000 0.000000
0.291634 0.627137 1.358006 0.000000 0.000000 0.000000
0.276791 0.649651 1.359162 0.000000 0.000000 0.000000
0.321842 0.572144 1.385108 0.000000 0.000000 0.000000
0.268921 0.677976 1.355341 0.000000 0.000000 0.000000
0.266194 0.673516 1.355101 0.000000 0.000000 0.000000
0.268978 0.642997 1.379097 0.000000 0.000000 0.000000
0.291914 0.622355 1.359523 0.000000 0.000000 0.000000
0.298700 0.616778 1.356240 0.000000 0.000000 0.000000
0.329028 0.570960 1.363164 0.000000 0.000000 0.000000
0.258575 0.676518 1.373213 0.000000 0.000000 0.000000
0.263917 0.677709 1.358441 0.000000 0.000000 0.000000
0.261838 0.679745 1.364581 0.000000 0.000000 0.000000
0.259634 0.682004 1.360122 0.000000 0.000000 0.000000
0.260170 0.670350 1.362582 0.000000 0.000000 0.000000
0.310494 0.607783 1.356194 0.000000 0.000000 0.000000
0.334685 0.561531 1.362546 0.000000 0.000000 0.000000
0.292268 0.617724 1.378187 0.000000 0.000000 0.000000
0.262534 0.678946 1.363031 0.000000 0.000000 0.000000
0.259947 0.675464 1.365558 0.000000 0.000000 0.000000
0.280792 0.658311 1.361866 0.000000 0.000000 0.000000
0.281324 0.642598 1.366507 0.000000 0.000000 0.000000
0.322922 0.575641 1.360874 0.000000 0.000000 0.000000
0.266692 0.670745 1.367479 0.000000 0.000000 0.000000
0.276867 0.664717 1.371245 0.000000 0.000000 0.000000
0.260870 0.676512 1.361845 0.000000 0.000000 0.000000
0.323386 0.576585 1.361178 0.000000 0.000000 0.000000
0.290160 0.640062 1.355826 0.000000 0.000000 0.000000
0.285138 0.639759 1.359178 0.000000 0.000000 0.000000
0.287605 0.637692 1.355086 0.000000 0.000000 0.000000
0.265991 0.646231 1.377999 0.000000 0.000000 0.000000
0.283769 0.634529 1.357962 0.000000 0.000000 0.000000
0.287778 0.632862 1.357297 0.000000 0.000000 0.000000
0.268225 0.645110 1.377217 0.000000 0.000000 0.000000
0.294767 0.635237 1.355272 0.000000 0.000000 0.000000
0.283953 0.641574 1.356986 0.000000 0.000000 0.000000
0.275641 0.654276 1.378411 0.000000 0.000000 0.000000
0.266463 0.671020 1.371100 0.000000 0.000000 0.000000
0.262692 0.671399 1.362264 0.000000 0.000000 0.000000
0.299115 0.604429 1.390608 0.000000 0.000000 0.000000
0.322862 0.570266 1.383663 0.000000 0.000000 0.000000
0.276519 0.654438 1.358770 0.000000 0.000000 0.000000
0.296081 0.609928 1.380423 0.000000 0.000000 0.000000
0.273395 0.658848 1.358674 0.000000 0.000000 0.000000
0.286027 0.615236 1.386447 0.000000 0.000000 0.000000
0.290106 0.626125 1.384628 0.000000 0.000000 0.000000
0.303657 0.604686 1.376149 0.000000 0.000000 0.000000
0.303393 0.609063 1.363132 0.000000 0.000000 0.000000
0.262491 0.667383 1.374858 0.000000 0.000000 0.000000
0.282584 0.633456 1.378638 0.000000 0.000000 0.000000
0.278665 0.620097 1.379161 0.000000 0.000000 0.000000
0.280362 0.638259 1.375304 0.000000 0.000000 0.000000
0.299912 0.604843 1.381107 0.000000 0.000000 0.000000
0.295035 0.615750 1.368643 0.000000 0.000000 0.000000
0.291186 0.618762 1.385495 0.000000 0.000000 0.000000
0.287047 0.623754 1.372399 0.000000 0.000000 0.000000
0.280139 0.621471 1.386591 0.000000 0.000000 0.000000
0.312066 0.590415 1.363461 0.000000 0.000000 0.000000
0.304095 0.602915 1.386225 0.000000 0.000000 0.000000
0.322806 0.575595 1.361321 0.000000 0.000000 0.000000
0.266024 0.662534 1.374195 0.000000 0.000000 0.000000
0.322597 0.569648 1.384324 0.000000 0.000000 0.000000
0.336957 0.565443 1.379497 0.000000 0.000000 0.000000
0.289146 0.651275 1.351627 0.000000 0.000000 0.000000
0.315481 0.572295 1.384705 0.000000 0.000000 0.000000
0.322061 0.572263 1.385278 0.000000 0.000000 0.000000
0.269986 0.645235 1.370469 0.000000 0.000000 0.000000
0.331194 0.575392 1.379850 0.000000 0.000000 0.000000
0.320519 0.560744 1.390402 0.000000 0.000000 0.000000
0.261443 0.668772 1.372817 0.000000 0.000000 0.000000
0.320634 0.574167 1.384357 0.000000 0.000000 0.000000
0.265599 0.654213 1.371663 0.000000 0.000000 0.000000
0.328675 0.572124 1.381880 0.000000 0.000000 0.000000
0.267079 0.656850 1.378895 0.000000 0.000000 0.000000
0.261349 0.673605 1.369266 0.000000 0.000000 0.000000
0.295195 0.623065 1.359121 0.000000 0.000000 0.000000
0.295746 0.613507 1.383931 0.000000 0.000000 0.000000
0.310655 0.581910 1.391317 0.000000 0.000000 0.000000
0.288391 0.619862 1.381261 0.000000 0.000000 0.000000
0.291685 0.616590 1.388078 0.000000 0.000000 0.000000
0.313338 0.587174 1.377260 0.000000 0.000000 0.000000
0.278812 0.649765 1.362509 0.000000 0.000000 0.000000
0.306675 0.608744 1.356886 0.000000 0.000000 0.000000
0.267178 0.682205 1.350387 0.000000 0.000000 0.000000
0.322487 0.564928 1.380484 0.000000 0.000000 0.000000
0.280566 0.622969 1.384107 0.000000 0.000000 0.000000
0.317992 0.576610 1.388727 0.000000 0.000000 0.000000
0.296841 0.633461 1.362466 0.000000 0.000000 0.000000
0.284754 0.633576 1.361378 0.000000 0.000000 0.000000
0.278508 0.627470 1.385119 0.000000 0.000000 0.000000
0.266065 0.666327 1.366499 0.000000 0.000000 0.000000
0.306000 0.595635 1.382423 0.000000 0.000000 0.000000
0.293466 0.622397 1.381414 0.000000 0.000000 0.000000
0.292579 0.621989 1.359407 0.000000 0.000000 0.000000
0.274735 0.635046 1.382103 0.000000 0.000000 0.000000
0.326199 0.564247 1.382743 0.000000 0.000000 0.000000
0.284348 0.645120 1.357336 0.000000 0.000000 0.000000
0.283585 0.643118 1.356143 0.000000 0.000000 0.000000
0.318427 0.581500 1.359861 0.000000 0.000000 0.000000
0.287497 0.646662 1.354901 0.000000 0.000000 0.000000
0.270199 0.657403 1.361103 0.000000 0.000000 0.000000
0.287632 0.647864 1.349868 0.000000 0.000000 0.000000
0.287148 0.654299 1.352691 0.000000 0.000000 0.000000
0.300956 0.620326 1.357429 0.000000 0.000000 0.000000
0.278767 0.645815 1.356197 0.000000 0.000000 0.000000
0.272076 0.663238 1.362227 0.000000 0.000000 0.000000
0.310835 0.617565 1.355268 0.000000 0.000000 0.000000
0.267430 0.668213 1.360992 0.000000 0.000000 0.000000
0.285732 0.643848 1.354484 0.000000 0.000000 0.000000
0.298900 0.609072 1.386064 0.000000 0.000000 0.000000
0.306644 0.600064 1.377934 0.000000 0.000000 0.000000
0.291361 0.642524 1.350896 0.000000 0.000000 0.000000
0.322212 0.570408 1.387534 0.000000 0.000000 0.000000
0.321019 0.562423 1.390547 0.000000 0.000000 0.000000
0.319534 0.570397 1.384874 0.000000 0.000000 0.000000
0.270853 0.665350 1.355674 0.000000 0.000000 0.000000
0.320045 0.571855 1.390838 0.000000 0.000000 0.000000
0.304973 0.590622 1.385607 0.000000 0.000000 0.000000
0.278187 0.651250 1.352629 0.000000 0.000000 0.000000
0.312498 0.572797 1.394409 0.000000 0.000000 0.000000
0.315384 0.576713 1.391305 0.000000 0.000000 0.000000
0.313982 0.604227 1.357549 0.000000 0.000000 0.000000
0.295613 0.612238 1.385438 0.000000 0.000000 0.000000
0.293393 0.611732 1.383703 0.000000 0.000000 0.000000
0.314705 0.585657 1.361228 0.000000 0.000000 0.000000
0.260317 0.682720 1.356675 0.000000 0.000000 0.000000
0.293428 0.637795 1.355188 0.000000 0.000000 0.000000
0.258024 0.690328 1.358979 0.000000 0.000000 0.000000
0.266082 0.669672 1.355644 0.000000 0.000000 0.000000
0.284210 0.639297 1.352192 0.000000 0.000000 0.000000
0.301635 0.606474 1.378252 0.000000 0.000000 0.000000
0.275082 0.670421 1.355663 0.000000 0.000000 0.000000
0.281032 0.643028 1.357368 0.000000 0.000000 0.000000
0.286459 0.638437 1.360651 0.000000 0.000000 0.000000
0.301121 0.611630 1.381249 0.000000 0.000000 0.000000
0.278685 0.645556 1.356429 0.000000 0.000000 0.000000
0.297852 0.606174 1.391446 0.000000 0.000000 0.000000
0.330957 0.576978 1.383522 0.000000 0.000000 0.000000
0.307297 0.601970 1.381993 0.000000 0.000000 0.000000
0.324513 0.564081 1.382139 0.000000 0.000000 0.000000
0.316763 0.585206 1.378273 0.000000 0.000000 0.000000
0.296061 0.608832 1.392184 0.000000 0.000000 0.000000
0.307495 0.589648 1.383865 0.000000 0.000000 0.000000
0.293077 0.608141 1.379995 0.000000 0.000000 0.000000
0.298784 0.599728 1.384339 0.000000 0.000000 0.000000
0.313670 0.584317 1.385923 0.000000 0.000000 0.000000
0.284556 0.621784 1.381282 0.000000 0.000000 0.000000
0.314096 0.605138 1.357180 0.000000 0.000000 0.000000
0.309652 0.586249 1.382943 0.000000 0.000000 0.000000
0.294457 0.609189 1.387003 0.000000 0.000000 0.000000
0.295569 0.610136 1.390893 0.000000 0.000000 0.000000
0.291833 0.610012 1.385461 0.000000 0.000000 0.000000
0.290837 0.619088 1.384495 0.000000 0.000000 0.000000
0.279266 0.627699 1.388389 0.000000 0.000000 0.000000
0.278793 0.631365 1.383914 0.000000 0.000000 0.000000
0.288674 0.619557 1.388461 0.000000 0.000000 0.000000
0.300415 0.602526 1.389669 0.000000 0.000000 0.000000
0.281539 0.622152 1.388194 0.000000 0.000000 0.000000
0.289838 0.616199 1.387800 0.000000 0.000000 0.000000
0.298885 0.605807 1.356120 0.000000 0.000000 0.000000
0.291681 0.622913 1.360186 0.000000 0.000000 0.000000
0.309833 0.589017 1.392246 0.000000 0.000000 0.000000
0.310654 0.614942 1.360307 0.000000 0.000000 0.000000
0.279351 0.636551 1.360438 0.000000 0.000000 0.000000
0.285435 0.629538 1.361380 0.000000 0.000000 0.000000
0.301149 0.611851 1.358886 0.000000 0.000000 0.000000
0.282373 0.626306 1.381751 0.000000 0.000000 0.000000
0.307853 0.599417 1.359864 0.000000 0.000000 0.000000
0.295078 0.619467 1.359619 0.000000 0.000000 0.000000
0.268358 0.646723 1.377414 0.000000 0.000000 0.000000
0.282409 0.641693 1.356555 0.000000 0.000000 0.000000
0.279646 0.634962 1.375342 0.000000 0.000000 0.000000
0.301492 0.609241 1.371419 0.000000 0.000000 0.000000
0.283426 0.616892 1.386341 0.000000 0.000000 0.000000
0.290910 0.622316 1.362521 0.000000 0.000000 0.000000
0.300352 0.610922 1.363752 0.000000 0.000000 0.000000
0.262401 0.662405 1.372688 0.000000 0.000000 0.000000
0.268951 0.653583 1.381340 0.000000 0.000000 0.000000
0.298296 0.613074 1.360626 0.000000 0.000000 0.000000
0.267915 0.656746 1.368463 0.000000 0.000000 0.000000
0.294529 0.624359 1.358325 0.000000 0.000000 0.000000
0.292854 0.617467 1.361112 0.000000 0.000000 0.000000
0.268765 0.654939 1.371073 0.000000 0.000000 0.000000
0.322651 0.579311 1.366324 0.000000 0.000000 0.000000
0.272043 0.642889 1.373276 0.000000 0.000000 0.000000
0.267275 0.654477 1.376527 0.000000 0.000000 0.000000
0.265991 0.671648 1.362000 0.000000 0.000000 0.000000
0.305187 0.618335 1.355563 0.000000 0.000000 0.000000
0.259301 0.679537 1.366125 0.000000 0.000000 0.000000
0.335585 0.562426 1.365956 0.000000 0.000000 0.000000
0.260706 0.672031 1.373464 0.000000 0.000000 0.000000
0.266755 0.663750 1.369538 0.000000 0.000000 0.000000
0.263166 0.673574 1.367989 0.000000 0.000000 0.000000
0.297503 0.592145 1.390145 0.000000 0.000000 0.000000
0.272316 0.658737 1.359076 0.000000 0.000000 0.000000
0.311954 0.614471 1.354087 0.000000 0.000000 0.000000
0.268568 0.664997 1.353154 0.000000 0.000000 0.000000
0.283636 0.648000 1.356996 0.000000 0.000000 0.000000
0.286754 0.612692 1.386436 0.000000 0.000000 0.000000
0.295825 0.604878 1.388268 0.000000 0.000000 0.000000
0.264604 0.674303 1.352285 0.000000 0.000000 0.000000
0.271922 0.658237 1.358891 0.000000 0.000000 0.000000
0.267729 0.661746 1.367394 0.000000 0.000000 0.000000
0.272378 0.658496 1.358765 0.000000 0.000000 0.000000
0.277528 0.654049 1.360410 0.000000 0.000000 0.000000
0.268086 0.645438 1.381333 0.000000 0.000000 0.000000
0.278193 0.637366 1.376880 0.000000 0.000000 0.000000
0.304170 0.596244 1.389268 0.000000 0.000000 0.000000
0.282265 0.626427 1.387729 0.000000 0.000000 0.000000
0.288783 0.609648 1.384062 0.000000 0.000000 0.000000
0.274235 0.639588 1.387127 0.000000 0.000000 0.000000
0.269408 0.648997 1.380145 0.000000 0.000000 0.000000
0.336410 0.561244 1.361920 0.000000 0.000000 0.000000
0.266311 0.658846 1.375960 0.000000 0.000000 0.000000
0.271182 0.654878 1.378686 0.000000 0.000000 0.000000
0.275268 0.645513 1.383250 0.000000 0.000000 0.000000
0.324053 0.564379 1.364499 0.000000 0.000000 0.000000
0.334381 0.573767 1.360064 0.000000 0.000000 0.000000
0.273519 0.632524 1.385662 0.000000 0.000000 0.000000
0.298136 0.604411 1.393984 0.000000 0.000000 0.000000
0.324215 0.566663 1.382761 0.000000 0.000000 0.000000
0.306438 0.589623 1.395598 0.000000 0.000000 0.000000
0.279065 0.630963 1.388052 0.000000 0.000000 0.000000
0.282661 0.627037 1.387309 0.000000 0.000000 0.000000
0.307531 0.585996 1.391896 0.000000 0.000000 0.000000
0.301184 0.602324 1.392361 0.000000 0.000000 0.000000
0.284372 0.636258 1.385000 0.000000 0.000000 0.000000
0.303459 0.598781 1.390384 0.000000 0.000000 0.000000
0.319428 0.574987 1.372126 0.000000 0.000000 0.000000
0.324502 0.569220 1.385951 0.000000 0.000000 0.000000
0.316692 0.576721 1.386948 0.000000 0.000000 0.000000
0.286688 0.623812 1.388454 0.000000 0.000000 0.000000
0.275716 0.635406 1.383618 0.000000 0.000000 0.000000
0.275339 0.629010 1.383524 0.000000 0.000000 0.000000
0.289136 0.628645 1.383303 0.000000 0.000000 0.000000
0.300182 0.595432 1.386562 0.000000 0.000000 0.000000
0.320589 0.581267 1.368494 0.000000 0.000000 0.000000
0.319179 0.570162 1.385476 0.000000 0.000000 0.000000
0.276204 0.633729 1.388585 0.000000 0.000000 0.000000
0.289807 0.623808 1.385735 0.000000 0.000000 0.000000
0.287996 0.636970 1.377092 0.000000 0.000000 0.000000
0.280529 0.622767 1.385014 0.000000 0.000000 0.000000
0.288867 0.640807 1.355768 0.000000 0.000000 0.000000
0.281689 0.639988 1.358666 0.000000 0.000000 0.000000
0.265046 0.674254 1.354283 0.000000 0.000000 0.000000
0.283766 0.642321 1.355664 0.000000 0.000000 0.000000
0.278763 0.652719 1.363784 0.000000 0.000000 0.000000
0.274270 0.648137 1.378617 0.000000 0.000000 0.000000
0.266329 0.658978 1.380820 0.000000 0.000000 0.000000
0.265869 0.660032 1.381310 0.000000 0.000000 0.000000
0.264167 0.663413 1.377365 0.000000 0.000000 0.000000
0.261574 0.666638 1.374183 0.000000 0.000000 0.000000
0.279951 0.653560 1.374179 0.000000 0.000000 0.000000
0.269782 0.653992 1.381889 0.000000 0.000000 0.000000
0.271304 0.657795 1.375486 0.000000 0.000000 0.000000
0.265505 0.660197 1.382761 0.000000 0.000000 0.000000
0.269753 0.652313 1.381805 0.000000 0.000000 0.000000
0.261194 0.676380 1.368860 0.000000 0.000000 0.000000
0.263671 0.664910 1.378449 0.000000 0.000000 0.000000
0.269454 0.668329 1.356322 0.000000 0.000000 0.000000
0.262958 0.680214 1.351827 0.000000 0.000000 0.000000
0.324980 0.568348 1.381964 0.000000 0.000000 0.000000
0.323436 0.569806 1.386254 0.000000 0.000000 0.000000
0.316551 0.573985 1.391569 0.000000 0.000000 0.000000
0.278386 0.665864 1.354153 0.000000 0.000000 0.000000
0.307578 0.590814 1.393026 0.000000 0.000000 0.000000
0.258807 0.684487 1.357843 0.000000 0.000000 0.000000
0.261184 0.667230 1.375215 0.000000 0.000000 0.000000
0.344938 0.598137 1.388386 0.000000 0.000000 0.000000
0.260384 0.680528 1.368582 0.000000 0.000000 0.000000
0.315976 0.575748 1.391823 0.000000 0.000000 0.000000
0.327587 0.565421 1.382418 0.000000 0.000000 0.000000
0.338270 0.562253 1.364593 0.000000 0.000000 0.000000
0.296190 0.620704 1.358981 0.000000 0.000000 0.000000
0.271626 0.667275 1.357821 0.000000 0.000000 0.000000
0.269122 0.670017 1.351737 0.000000 0.000000 0.000000
0.285930 0.643383 1.357081 0.000000 0.000000 0.000000
0.267914 0.681167 1.358847 0.000000 0.000000 0.000000
0.301365 0.621908 1.355453 0.000000 0.000000 0.000000
0.277741 0.661538 1.353135 0.000000 0.000000 0.000000
0.286886 0.646011 1.351416 0.000000 0.000000 0.000000
0.268157 0.668910 1.352352 0.000000 0.000000 0.000000
0.334183 0.561803 1.365522 0.000000 0.000000 0.000000
0.270660 0.664993 1.355145 0.000000 0.000000 0.000000
0.264210 0.678670 1.360628 0.000000 0.000000 0.000000
0.259030 0.683629 1.351382 0.000000 0.000000 0.000000
0.293280 0.633666 1.355865 0.000000 0.000000 0.000000
0.314762 0.577185 1.385960 0.000000 0.000000 0.000000
0.273267 0.656186 1.361122 0.000000 0.000000 0.000000
0.281055 0.630003 1.385445 0.000000 0.000000 0.000000
0.265891 0.672049 1.354019 0.000000 0.000000 0.000000
0.308406 0.583485 1.385201 0.000000 0.000000 0.000000
0.268780 0.667773 1.354365 0.000000 0.000000 0.000000
0.274394 0.661140 1.363219 0.000000 0.000000 0.000000
0.271228 0.642007 1.384275 0.000000 0.000000 0.000000
0.271806 0.640435 1.387285 0.000000 0.000000 0.000000
0.272498 0.639056 1.386180 0.000000 0.000000 0.000000
0.283322 0.655318 1.357372 0.000000 0.000000 0.000000
0.270741 0.639407 1.382997 0.000000 0.000000 0.000000
0.279041 0.629801 1.390339 0.000000 0.000000 0.000000
0.262974 0.667300 1.376158 0.000000 0.000000 0.000000
0.319351 0.577425 1.387121 0.000000 0.000000 0.000000
0.271552 0.663577 1.356433 0.000000 0.000000 0.000000
0.257307 0.683808 1.362384 0.000000 0.000000 0.000000
0.259322 0.682950 1.361147 0.000000 0.000000 0.000000
0.261760 0.680734 1.358067 0.000000 0.000000 0.000000
0.326733 0.560798 1.381475 0.000000 0.000000 0.000000
0.281658 0.644553 1.358812 0.000000 0.000000 0.000000
0.327583 0.585613 1.395636 0.000000 0.000000 0.000000
0.271621 0.663520 1.357679 0.000000 0.000000 0.000000
0.311711 0.583405 1.389616 0.000000 0.000000 0.000000
0.281133 0.648855 1.354141 0.000000 0.000000 0.000000
0.320412 0.570766 1.382037 0.000000 0.000000 0.000000
0.315504 0.561156 1.392157 0.000000 0.000000 0.000000
0.312382 0.581801 1.387516 0.000000 0.000000 0.000000
0.313044 0.574883 1.375242 0.000000 0.000000 0.000000
0.316794 0.573938 1.390002 0.000000 0.000000 0.000000
0.300095 0.601420 1.385704 0.000000 0.000000 0.000000
0.307803 0.589816 1.388677 0.000000 0.000000 0.000000
0.308108 0.589985 1.388219 0.000000 0.000000 0.000000
0.317626 0.568233 1.379105 0.000000 0.000000 0.000000
0.275279 0.639348 1.363862 0.000000 0.000000 0.000000
0.303567 0.597179 1.381210 0.000000 0.000000 0.000000
0.306842 0.598016 1.383036 0.000000 0.000000 0.000000
0.318605 0.573136 1.383812 0.000000 0.000000 0.000000
0.313743 0.580626 1.376622 0.000000 0.000000 0.000000
0.313047 0.579170 1.387185 0.000000 0.000000 0.000000
0.308468 0.588540 1.383930 0.000000 0.000000 0.000000
0.308051 0.589485 1.387721 0.000000 0.000000 0.000000
0.314075 0.579352 1.387071 0.000000 0.000000 0.000000
0.307925 0.592759 1.380641 0.000000 0.000000 0.000000
0.266480 0.652431 1.369153 0.000000 0.000000 0.000000
0.309422 0.586740 1.385660 0.000000 0.000000 0.000000
