ply
format ascii 1.0
comment VCGLIB generated
obj_info Generated by SPFormer!
element vertex 836
property float x
property float y
property float z
property float nx
property float ny
property float nz
end_header
1.138237 -1.278836 1.802960 0.000000 0.000000 0.000000
1.049044 -1.303278 1.854101 0.000000 0.000000 0.000000
1.068836 -1.320149 1.835289 0.000000 0.000000 0.000000
1.040977 -1.304881 1.856362 0.000000 0.000000 0.000000
1.069975 -1.282417 1.869752 0.000000 0.000000 0.000000
1.070547 -1.268342 1.805734 0.000000 0.000000 0.000000
1.080513 -1.274121 1.826082 0.000000 0.000000 0.000000
1.044715 -1.261068 1.818129 0.000000 0.000000 0.000000
1.044807 -1.296235 1.844053 0.000000 0.000000 0.000000
1.040395 -1.303091 1.893608 0.000000 0.000000 0.000000
1.050157 -1.291228 1.866199 0.000000 0.000000 0.000000
1.084428 -1.263786 1.811799 0.000000 0.000000 0.000000
1.046045 -1.295734 1.865170 0.000000 0.000000 0.000000
1.053502 -1.287222 1.847468 0.000000 0.000000 0.000000
1.061221 -1.269361 1.827518 0.000000 0.000000 0.000000
1.084291 -1.263763 1.819754 0.000000 0.000000 0.000000
1.044483 -1.297277 1.852190 0.000000 0.000000 0.000000
1.040473 -1.297981 1.861611 0.000000 0.000000 0.000000
1.044077 -1.304277 1.880254 0.000000 0.000000 0.000000
1.038510 -1.310373 1.849843 0.000000 0.000000 0.000000
1.066694 -1.296410 1.898941 0.000000 0.000000 0.000000
1.079797 -1.316175 1.859037 0.000000 0.000000 0.000000
1.080413 -1.281161 1.839623 0.000000 0.000000 0.000000
1.113395 -1.330165 1.483242 0.000000 0.000000 0.000000
1.068003 -1.261024 1.802491 0.000000 0.000000 0.000000
1.071941 -1.268692 1.865828 0.000000 0.000000 0.000000
1.055102 -1.316892 1.889859 0.000000 0.000000 0.000000
1.086131 -1.266199 1.830696 0.000000 0.000000 0.000000
1.077706 -1.260271 1.812806 0.000000 0.000000 0.000000
1.107285 -1.352581 1.483953 0.000000 0.000000 0.000000
1.069828 -1.323050 1.812511 0.000000 0.000000 0.000000
1.105492 -1.342100 1.509352 0.000000 0.000000 0.000000
1.093796 -1.356232 1.494645 0.000000 0.000000 0.000000
1.104457 -1.331565 1.487713 0.000000 0.000000 0.000000
1.083777 -1.342178 1.490834 0.000000 0.000000 0.000000
1.096887 -1.357611 1.496000 0.000000 0.000000 0.000000
1.072000 -1.279953 1.835810 0.000000 0.000000 0.000000
1.065957 -1.282242 1.852984 0.000000 0.000000 0.000000
1.081051 -1.352024 1.482687 0.000000 0.000000 0.000000
1.079133 -1.274929 1.851103 0.000000 0.000000 0.000000
1.062646 -1.285972 1.845659 0.000000 0.000000 0.000000
1.163501 -1.312904 1.850070 0.000000 0.000000 0.000000
1.155202 -1.315405 1.849456 0.000000 0.000000 0.000000
0.802952 -1.242522 1.729019 0.000000 0.000000 0.000000
0.850022 -1.178756 1.697903 0.000000 0.000000 0.000000
0.806001 -1.255705 1.770200 0.000000 0.000000 0.000000
0.803456 -1.236701 1.755586 0.000000 0.000000 0.000000
0.807384 -1.250407 1.722813 0.000000 0.000000 0.000000
0.794216 -1.240638 1.607214 0.000000 0.000000 0.000000
0.804294 -1.275916 1.751195 0.000000 0.000000 0.000000
0.977777 -1.163031 2.004834 0.000000 0.000000 0.000000
0.858573 -1.197829 1.885011 0.000000 0.000000 0.000000
0.832183 -1.195070 1.786303 0.000000 0.000000 0.000000
0.857537 -1.167679 1.828253 0.000000 0.000000 0.000000
0.920223 -1.169582 1.939796 0.000000 0.000000 0.000000
0.921639 -1.146075 1.869305 0.000000 0.000000 0.000000
0.890229 -1.181735 1.817282 0.000000 0.000000 0.000000
0.805743 -1.278933 1.625073 0.000000 0.000000 0.000000
0.936388 -1.162928 1.964869 0.000000 0.000000 0.000000
0.880599 -1.197155 1.834141 0.000000 0.000000 0.000000
0.812107 -1.218500 1.817554 0.000000 0.000000 0.000000
0.871560 -1.218075 1.857267 0.000000 0.000000 0.000000
0.858407 -1.193349 1.828959 0.000000 0.000000 0.000000
0.946659 -1.129674 1.898248 0.000000 0.000000 0.000000
0.912067 -1.157830 1.849713 0.000000 0.000000 0.000000
0.876388 -1.167545 1.818338 0.000000 0.000000 0.000000
0.812970 -1.277459 1.756060 0.000000 0.000000 0.000000
0.803584 -1.258827 1.752468 0.000000 0.000000 0.000000
0.933703 -1.148504 1.920903 0.000000 0.000000 0.000000
0.801537 -1.256656 1.803600 0.000000 0.000000 0.000000
0.826858 -1.256187 1.743883 0.000000 0.000000 0.000000
0.805048 -1.270630 1.753099 0.000000 0.000000 0.000000
0.837122 -1.203419 1.822204 0.000000 0.000000 0.000000
0.819062 -1.247198 1.750607 0.000000 0.000000 0.000000
0.820619 -1.245174 1.729130 0.000000 0.000000 0.000000
0.808762 -1.253596 1.752018 0.000000 0.000000 0.000000
0.910110 -1.172346 1.955052 0.000000 0.000000 0.000000
0.803649 -1.269007 1.747295 0.000000 0.000000 0.000000
0.806202 -1.242604 1.759423 0.000000 0.000000 0.000000
0.829078 -1.235680 1.724978 0.000000 0.000000 0.000000
0.906808 -1.171391 1.937780 0.000000 0.000000 0.000000
0.919094 -1.155467 1.922403 0.000000 0.000000 0.000000
0.948089 -1.141064 1.934594 0.000000 0.000000 0.000000
0.942314 -1.146806 1.927121 0.000000 0.000000 0.000000
0.946552 -1.133214 1.905783 0.000000 0.000000 0.000000
0.882642 -1.194414 1.874216 0.000000 0.000000 0.000000
0.957578 -1.131183 1.918766 0.000000 0.000000 0.000000
0.841191 -1.161781 1.646844 0.000000 0.000000 0.000000
0.936914 -1.151262 1.909053 0.000000 0.000000 0.000000
0.864303 -1.183062 1.828918 0.000000 0.000000 0.000000
0.931352 -1.149358 1.899176 0.000000 0.000000 0.000000
0.820854 -1.170050 1.745676 0.000000 0.000000 0.000000
0.877045 -1.171396 1.797828 0.000000 0.000000 0.000000
0.859539 -1.195866 1.820531 0.000000 0.000000 0.000000
0.929883 -1.161524 1.944027 0.000000 0.000000 0.000000
0.859315 -1.168394 1.869047 0.000000 0.000000 0.000000
0.983358 -1.169398 2.016404 0.000000 0.000000 0.000000
0.888097 -1.200706 1.901835 0.000000 0.000000 0.000000
0.815479 -1.217070 1.778423 0.000000 0.000000 0.000000
0.897277 -1.157772 1.872249 0.000000 0.000000 0.000000
0.790256 -1.255794 1.629495 0.000000 0.000000 0.000000
0.791778 -1.249496 1.632823 0.000000 0.000000 0.000000
0.812767 -1.232043 1.778982 0.000000 0.000000 0.000000
0.877316 -1.171504 1.866296 0.000000 0.000000 0.000000
0.819754 -1.219308 1.783665 0.000000 0.000000 0.000000
0.867303 -1.193359 1.903139 0.000000 0.000000 0.000000
0.853323 -1.206391 1.884866 0.000000 0.000000 0.000000
0.832669 -1.230469 1.733049 0.000000 0.000000 0.000000
0.805175 -1.220399 1.693850 0.000000 0.000000 0.000000
0.792503 -1.252825 1.764779 0.000000 0.000000 0.000000
0.888200 -1.189861 1.940489 0.000000 0.000000 0.000000
0.821566 -1.232785 1.811417 0.000000 0.000000 0.000000
0.897084 -1.167949 1.849809 0.000000 0.000000 0.000000
0.914286 -1.164683 1.914599 0.000000 0.000000 0.000000
0.855521 -1.211843 1.906412 0.000000 0.000000 0.000000
0.791452 -1.255459 1.761542 0.000000 0.000000 0.000000
0.868259 -1.197572 1.858659 0.000000 0.000000 0.000000
0.813899 -1.228968 1.788356 0.000000 0.000000 0.000000
0.896763 -1.168757 1.914401 0.000000 0.000000 0.000000
0.921045 -1.160191 1.940498 0.000000 0.000000 0.000000
0.856354 -1.195285 1.873836 0.000000 0.000000 0.000000
0.925318 -1.163300 1.925308 0.000000 0.000000 0.000000
0.916204 -1.154510 1.879642 0.000000 0.000000 0.000000
0.808792 -1.277932 1.740785 0.000000 0.000000 0.000000
0.884535 -1.161295 1.761472 0.000000 0.000000 0.000000
0.803998 -1.277937 1.749740 0.000000 0.000000 0.000000
0.816355 -1.218160 1.831172 0.000000 0.000000 0.000000
0.796566 -1.250725 1.776244 0.000000 0.000000 0.000000
0.972442 -1.130021 1.926562 0.000000 0.000000 0.000000
0.907387 -1.159112 1.913610 0.000000 0.000000 0.000000
0.934253 -1.138002 1.885491 0.000000 0.000000 0.000000
0.806781 -1.217857 1.704513 0.000000 0.000000 0.000000
0.909207 -1.202184 1.865497 0.000000 0.000000 0.000000
0.930551 -1.154270 1.890882 0.000000 0.000000 0.000000
0.780814 -1.260839 1.613520 0.000000 0.000000 0.000000
0.958470 -1.137763 1.922043 0.000000 0.000000 0.000000
0.925094 -1.160523 1.914303 0.000000 0.000000 0.000000
0.914321 -1.164526 1.879079 0.000000 0.000000 0.000000
0.808202 -1.225764 1.720363 0.000000 0.000000 0.000000
0.902139 -1.205874 1.862319 0.000000 0.000000 0.000000
0.787498 -1.248931 1.637673 0.000000 0.000000 0.000000
0.898939 -1.209746 1.840517 0.000000 0.000000 0.000000
0.827517 -1.205514 1.752949 0.000000 0.000000 0.000000
0.786750 -1.242413 1.619179 0.000000 0.000000 0.000000
0.848933 -1.199686 1.827430 0.000000 0.000000 0.000000
0.806706 -1.248031 1.765581 0.000000 0.000000 0.000000
0.832414 -1.194675 1.828060 0.000000 0.000000 0.000000
0.963462 -1.154024 1.965823 0.000000 0.000000 0.000000
0.856699 -1.184957 1.869045 0.000000 0.000000 0.000000
0.820569 -1.207384 1.808287 0.000000 0.000000 0.000000
0.800742 -1.275148 1.756936 0.000000 0.000000 0.000000
0.973974 -1.154243 1.979610 0.000000 0.000000 0.000000
0.882440 -1.204197 1.828306 0.000000 0.000000 0.000000
0.895626 -1.202498 1.845192 0.000000 0.000000 0.000000
0.848827 -1.175897 1.747181 0.000000 0.000000 0.000000
0.897742 -1.199755 1.840741 0.000000 0.000000 0.000000
0.934106 -1.153493 1.918613 0.000000 0.000000 0.000000
0.927211 -1.155934 1.913045 0.000000 0.000000 0.000000
0.865974 -1.189598 1.803703 0.000000 0.000000 0.000000
0.801032 -1.268214 1.758423 0.000000 0.000000 0.000000
0.901701 -1.178404 1.938343 0.000000 0.000000 0.000000
0.816144 -1.262184 1.777633 0.000000 0.000000 0.000000
0.909701 -1.163792 1.876579 0.000000 0.000000 0.000000
0.809139 -1.258995 1.776394 0.000000 0.000000 0.000000
0.889934 -1.188582 1.928974 0.000000 0.000000 0.000000
0.910539 -1.167153 1.936151 0.000000 0.000000 0.000000
0.910891 -1.170789 1.942221 0.000000 0.000000 0.000000
0.803964 -1.270931 1.762809 0.000000 0.000000 0.000000
0.827165 -1.175115 1.706294 0.000000 0.000000 0.000000
0.809048 -1.225911 1.697936 0.000000 0.000000 0.000000
0.858089 -1.202610 1.900741 0.000000 0.000000 0.000000
0.827462 -1.172221 1.716096 0.000000 0.000000 0.000000
0.888068 -1.203675 1.833997 0.000000 0.000000 0.000000
0.815015 -1.215796 1.736196 0.000000 0.000000 0.000000
0.804135 -1.248375 1.802922 0.000000 0.000000 0.000000
0.837039 -1.212832 1.877000 0.000000 0.000000 0.000000
0.855504 -1.203488 1.901624 0.000000 0.000000 0.000000
0.845883 -1.209506 1.811261 0.000000 0.000000 0.000000
0.836667 -1.220311 1.748164 0.000000 0.000000 0.000000
0.917357 -1.149629 1.895023 0.000000 0.000000 0.000000
0.862584 -1.171874 1.711670 0.000000 0.000000 0.000000
0.895248 -1.206751 1.853735 0.000000 0.000000 0.000000
0.901445 -1.211089 1.847164 0.000000 0.000000 0.000000
0.842868 -1.215667 1.839039 0.000000 0.000000 0.000000
0.801062 -1.233068 1.760668 0.000000 0.000000 0.000000
0.804783 -1.232126 1.733142 0.000000 0.000000 0.000000
0.801027 -1.279076 1.729654 0.000000 0.000000 0.000000
0.818626 -1.269512 1.732319 0.000000 0.000000 0.000000
0.887087 -1.204279 1.834535 0.000000 0.000000 0.000000
0.805399 -1.272449 1.738141 0.000000 0.000000 0.000000
0.805982 -1.242542 1.800504 0.000000 0.000000 0.000000
0.827159 -1.261112 1.799375 0.000000 0.000000 0.000000
0.812966 -1.267928 1.782650 0.000000 0.000000 0.000000
0.812149 -1.252312 1.810687 0.000000 0.000000 0.000000
0.835463 -1.196895 1.735819 0.000000 0.000000 0.000000
0.968693 -1.168005 2.004178 0.000000 0.000000 0.000000
0.844211 -1.204807 1.882200 0.000000 0.000000 0.000000
0.800907 -1.273215 1.752105 0.000000 0.000000 0.000000
0.965711 -1.145565 1.950291 0.000000 0.000000 0.000000
0.846767 -1.169414 1.880940 0.000000 0.000000 0.000000
0.863588 -1.195415 1.904629 0.000000 0.000000 0.000000
0.820499 -1.268817 1.780158 0.000000 0.000000 0.000000
0.868725 -1.207429 1.905876 0.000000 0.000000 0.000000
0.876264 -1.198656 1.923009 0.000000 0.000000 0.000000
0.891065 -1.200876 1.845768 0.000000 0.000000 0.000000
0.848936 -1.210958 1.894256 0.000000 0.000000 0.000000
0.895201 -1.197719 1.850564 0.000000 0.000000 0.000000
0.802334 -1.267421 1.762877 0.000000 0.000000 0.000000
0.898806 -1.149358 1.826785 0.000000 0.000000 0.000000
0.905288 -1.210781 1.845608 0.000000 0.000000 0.000000
0.849956 -1.207863 1.838548 0.000000 0.000000 0.000000
0.929988 -1.151851 1.902410 0.000000 0.000000 0.000000
0.893065 -1.201729 1.842631 0.000000 0.000000 0.000000
0.958466 -1.136766 1.929135 0.000000 0.000000 0.000000
0.809021 -1.233479 1.817370 0.000000 0.000000 0.000000
0.895656 -1.208815 1.834890 0.000000 0.000000 0.000000
0.805423 -1.243975 1.808207 0.000000 0.000000 0.000000
0.867700 -1.164199 1.877438 0.000000 0.000000 0.000000
0.910265 -1.177445 1.941467 0.000000 0.000000 0.000000
0.974273 -1.163748 1.998455 0.000000 0.000000 0.000000
0.901521 -1.171365 1.937958 0.000000 0.000000 0.000000
0.814553 -1.272449 1.772971 0.000000 0.000000 0.000000
0.796058 -1.207006 1.659754 0.000000 0.000000 0.000000
0.817930 -1.244222 1.781612 0.000000 0.000000 0.000000
0.898338 -1.205152 1.848076 0.000000 0.000000 0.000000
0.866304 -1.199074 1.906576 0.000000 0.000000 0.000000
0.844680 -1.194831 1.692215 0.000000 0.000000 0.000000
0.951398 -1.149323 1.943325 0.000000 0.000000 0.000000
0.815369 -1.214417 1.782506 0.000000 0.000000 0.000000
0.951676 -1.127605 1.888399 0.000000 0.000000 0.000000
0.910242 -1.159966 1.915697 0.000000 0.000000 0.000000
0.963335 -1.145311 1.948259 0.000000 0.000000 0.000000
0.925152 -1.170641 1.841969 0.000000 0.000000 0.000000
0.905151 -1.150611 1.820767 0.000000 0.000000 0.000000
0.939963 -1.131796 1.887056 0.000000 0.000000 0.000000
0.856492 -1.186176 1.830833 0.000000 0.000000 0.000000
0.805221 -1.236787 1.809234 0.000000 0.000000 0.000000
0.811211 -1.233310 1.801915 0.000000 0.000000 0.000000
0.860462 -1.194622 1.895296 0.000000 0.000000 0.000000
0.814200 -1.234040 1.702064 0.000000 0.000000 0.000000
0.813018 -1.251830 1.798631 0.000000 0.000000 0.000000
0.796925 -1.204929 1.669675 0.000000 0.000000 0.000000
0.783625 -1.263270 1.634211 0.000000 0.000000 0.000000
0.815995 -1.213629 1.768019 0.000000 0.000000 0.000000
0.801365 -1.240107 1.803663 0.000000 0.000000 0.000000
0.786496 -1.261101 1.636330 0.000000 0.000000 0.000000
0.793234 -1.246890 1.634530 0.000000 0.000000 0.000000
0.817048 -1.234153 1.763789 0.000000 0.000000 0.000000
0.810381 -1.245967 1.762707 0.000000 0.000000 0.000000
0.879534 -1.198301 1.929626 0.000000 0.000000 0.000000
0.813567 -1.236491 1.713479 0.000000 0.000000 0.000000
0.859696 -1.162782 1.845457 0.000000 0.000000 0.000000
0.813016 -1.241884 1.765751 0.000000 0.000000 0.000000
0.937827 -1.116607 1.846970 0.000000 0.000000 0.000000
0.881452 -1.188729 1.924379 0.000000 0.000000 0.000000
0.835698 -1.233125 1.770802 0.000000 0.000000 0.000000
0.802663 -1.257800 1.747115 0.000000 0.000000 0.000000
0.831780 -1.217399 1.814212 0.000000 0.000000 0.000000
0.869458 -1.163004 1.706586 0.000000 0.000000 0.000000
0.956180 -1.124282 1.832607 0.000000 0.000000 0.000000
0.808891 -1.237741 1.812753 0.000000 0.000000 0.000000
0.937372 -1.131592 1.885290 0.000000 0.000000 0.000000
0.898058 -1.161350 1.885207 0.000000 0.000000 0.000000
0.819273 -1.196337 1.691083 0.000000 0.000000 0.000000
0.817377 -1.237014 1.794710 0.000000 0.000000 0.000000
0.889231 -1.166841 1.897203 0.000000 0.000000 0.000000
0.800854 -1.216053 1.658739 0.000000 0.000000 0.000000
0.977884 -1.153088 1.979120 0.000000 0.000000 0.000000
0.828264 -1.205635 1.841993 0.000000 0.000000 0.000000
0.929336 -1.132856 1.809897 0.000000 0.000000 0.000000
0.980524 -1.164059 1.991764 0.000000 0.000000 0.000000
0.822162 -1.209697 1.722831 0.000000 0.000000 0.000000
0.886774 -1.146215 1.748244 0.000000 0.000000 0.000000
0.846795 -1.228803 1.761290 0.000000 0.000000 0.000000
0.943892 -1.169795 1.977004 0.000000 0.000000 0.000000
0.827349 -1.203989 1.825853 0.000000 0.000000 0.000000
0.958349 -1.168018 1.991519 0.000000 0.000000 0.000000
0.854311 -1.176650 1.862482 0.000000 0.000000 0.000000
0.802904 -1.247293 1.785965 0.000000 0.000000 0.000000
0.977827 -1.170105 2.020240 0.000000 0.000000 0.000000
0.810159 -1.242350 1.790663 0.000000 0.000000 0.000000
0.802149 -1.232451 1.819697 0.000000 0.000000 0.000000
0.974989 -1.167938 2.011713 0.000000 0.000000 0.000000
0.813878 -1.225069 1.776862 0.000000 0.000000 0.000000
0.874173 -1.198396 1.922761 0.000000 0.000000 0.000000
0.923455 -1.134085 1.844690 0.000000 0.000000 0.000000
0.926609 -1.133105 1.827579 0.000000 0.000000 0.000000
0.947465 -1.143675 1.931253 0.000000 0.000000 0.000000
0.793947 -1.258856 1.636289 0.000000 0.000000 0.000000
0.803561 -1.269805 1.618060 0.000000 0.000000 0.000000
0.786504 -1.250920 1.626690 0.000000 0.000000 0.000000
0.807221 -1.257375 1.777090 0.000000 0.000000 0.000000
0.862690 -1.193841 1.884122 0.000000 0.000000 0.000000
0.778384 -1.257667 1.609637 0.000000 0.000000 0.000000
0.805081 -1.250860 1.743711 0.000000 0.000000 0.000000
0.864918 -1.167943 1.859051 0.000000 0.000000 0.000000
0.881325 -1.187856 1.924123 0.000000 0.000000 0.000000
0.836407 -1.228999 1.761308 0.000000 0.000000 0.000000
0.954704 -1.125674 1.881950 0.000000 0.000000 0.000000
0.838861 -1.201550 1.822616 0.000000 0.000000 0.000000
0.930445 -1.157635 1.844965 0.000000 0.000000 0.000000
0.832751 -1.191410 1.690552 0.000000 0.000000 0.000000
0.797077 -1.250269 1.803293 0.000000 0.000000 0.000000
0.832258 -1.225748 1.731333 0.000000 0.000000 0.000000
0.952324 -1.168564 1.979873 0.000000 0.000000 0.000000
0.891735 -1.159476 1.861332 0.000000 0.000000 0.000000
0.970150 -1.161892 1.992012 0.000000 0.000000 0.000000
0.832152 -1.213876 1.762565 0.000000 0.000000 0.000000
0.808209 -1.239429 1.790261 0.000000 0.000000 0.000000
0.817402 -1.227221 1.736204 0.000000 0.000000 0.000000
0.983862 -1.171215 2.017559 0.000000 0.000000 0.000000
0.822680 -1.212770 1.788965 0.000000 0.000000 0.000000
0.835708 -1.184652 1.758936 0.000000 0.000000 0.000000
0.961863 -1.131363 1.924950 0.000000 0.000000 0.000000
0.909300 -1.147673 1.858523 0.000000 0.000000 0.000000
0.849456 -1.169432 1.776246 0.000000 0.000000 0.000000
0.863422 -1.183072 1.799052 0.000000 0.000000 0.000000
0.879122 -1.187405 1.900634 0.000000 0.000000 0.000000
0.855364 -1.179739 1.808412 0.000000 0.000000 0.000000
0.845454 -1.190125 1.886956 0.000000 0.000000 0.000000
0.959479 -1.162859 1.971092 0.000000 0.000000 0.000000
0.803595 -1.276792 1.635117 0.000000 0.000000 0.000000
0.784986 -1.249892 1.618858 0.000000 0.000000 0.000000
0.909664 -1.173138 1.949082 0.000000 0.000000 0.000000
0.879431 -1.149240 1.667221 0.000000 0.000000 0.000000
0.847989 -1.221041 1.800238 0.000000 0.000000 0.000000
0.857624 -1.215352 1.795342 0.000000 0.000000 0.000000
0.855051 -1.200692 1.892893 0.000000 0.000000 0.000000
0.802032 -1.267449 1.731066 0.000000 0.000000 0.000000
0.815282 -1.269255 1.738386 0.000000 0.000000 0.000000
0.926232 -1.180247 1.970928 0.000000 0.000000 0.000000
0.821776 -1.216024 1.688535 0.000000 0.000000 0.000000
0.877218 -1.163482 1.788370 0.000000 0.000000 0.000000
0.805974 -1.206073 1.685421 0.000000 0.000000 0.000000
0.851627 -1.212811 1.786880 0.000000 0.000000 0.000000
0.782895 -1.268835 1.616568 0.000000 0.000000 0.000000
0.931500 -1.155623 1.917484 0.000000 0.000000 0.000000
0.803099 -1.235723 1.805838 0.000000 0.000000 0.000000
0.951133 -1.167374 1.958544 0.000000 0.000000 0.000000
0.920374 -1.156675 1.876369 0.000000 0.000000 0.000000
0.828112 -1.265094 1.748952 0.000000 0.000000 0.000000
0.858959 -1.165300 1.829394 0.000000 0.000000 0.000000
0.850195 -1.186507 1.747746 0.000000 0.000000 0.000000
0.941744 -1.132527 1.872245 0.000000 0.000000 0.000000
0.810078 -1.227206 1.751980 0.000000 0.000000 0.000000
0.794691 -1.247235 1.637144 0.000000 0.000000 0.000000
0.863434 -1.211723 1.811036 0.000000 0.000000 0.000000
0.848839 -1.211119 1.889593 0.000000 0.000000 0.000000
0.855055 -1.187013 1.671162 0.000000 0.000000 0.000000
0.933903 -1.146188 1.907866 0.000000 0.000000 0.000000
0.799512 -1.213139 1.669521 0.000000 0.000000 0.000000
0.914344 -1.178421 1.960541 0.000000 0.000000 0.000000
0.808546 -1.224291 1.675849 0.000000 0.000000 0.000000
0.840483 -1.220238 1.809787 0.000000 0.000000 0.000000
0.834378 -1.221349 1.801084 0.000000 0.000000 0.000000
0.800578 -1.240981 1.803943 0.000000 0.000000 0.000000
0.800619 -1.203915 1.678493 0.000000 0.000000 0.000000
0.934181 -1.172377 1.944010 0.000000 0.000000 0.000000
0.818314 -1.208590 1.700348 0.000000 0.000000 0.000000
0.858735 -1.157236 1.832780 0.000000 0.000000 0.000000
0.772796 -1.273606 1.618592 0.000000 0.000000 0.000000
0.798777 -1.248377 1.804002 0.000000 0.000000 0.000000
0.882363 -1.172707 1.811619 0.000000 0.000000 0.000000
0.857773 -1.203482 1.890796 0.000000 0.000000 0.000000
0.848744 -1.197525 1.867820 0.000000 0.000000 0.000000
0.960066 -1.165849 1.990279 0.000000 0.000000 0.000000
0.884694 -1.194730 1.845791 0.000000 0.000000 0.000000
0.808664 -1.207697 1.671912 0.000000 0.000000 0.000000
0.772936 -1.275957 1.613561 0.000000 0.000000 0.000000
0.880691 -1.166018 1.760651 0.000000 0.000000 0.000000
0.801940 -1.257959 1.737312 0.000000 0.000000 0.000000
0.863374 -1.180598 1.840592 0.000000 0.000000 0.000000
0.838150 -1.213679 1.836287 0.000000 0.000000 0.000000
0.804249 -1.227661 1.664751 0.000000 0.000000 0.000000
0.790461 -1.234654 1.614972 0.000000 0.000000 0.000000
0.853069 -1.198123 1.884823 0.000000 0.000000 0.000000
0.871966 -1.177899 1.823186 0.000000 0.000000 0.000000
0.845804 -1.192430 1.866183 0.000000 0.000000 0.000000
0.850598 -1.211560 1.889436 0.000000 0.000000 0.000000
0.948557 -1.160125 1.961086 0.000000 0.000000 0.000000
0.896965 -1.210575 1.848223 0.000000 0.000000 0.000000
0.902748 -1.190219 1.851015 0.000000 0.000000 0.000000
0.857288 -1.181374 1.657731 0.000000 0.000000 0.000000
0.835887 -1.222926 1.804273 0.000000 0.000000 0.000000
0.824402 -1.197721 1.731683 0.000000 0.000000 0.000000
0.845754 -1.199834 1.848153 0.000000 0.000000 0.000000
0.964521 -1.155738 1.978511 0.000000 0.000000 0.000000
0.850303 -1.205757 1.888501 0.000000 0.000000 0.000000
0.901285 -1.195821 1.910309 0.000000 0.000000 0.000000
0.809341 -1.226205 1.736192 0.000000 0.000000 0.000000
0.793434 -1.245413 1.791767 0.000000 0.000000 0.000000
0.916614 -1.144021 1.861850 0.000000 0.000000 0.000000
0.972094 -1.144596 1.959403 0.000000 0.000000 0.000000
0.791559 -1.274068 1.601955 0.000000 0.000000 0.000000
0.790596 -1.239645 1.625427 0.000000 0.000000 0.000000
0.795444 -1.224757 1.637373 0.000000 0.000000 0.000000
0.892268 -1.189886 1.887497 0.000000 0.000000 0.000000
0.806562 -1.223050 1.762970 0.000000 0.000000 0.000000
0.795274 -1.248742 1.793354 0.000000 0.000000 0.000000
0.870138 -1.201574 1.921974 0.000000 0.000000 0.000000
0.968628 -1.149084 1.971875 0.000000 0.000000 0.000000
0.832640 -1.210325 1.843796 0.000000 0.000000 0.000000
0.791520 -1.270005 1.612691 0.000000 0.000000 0.000000
0.785930 -1.233310 1.625910 0.000000 0.000000 0.000000
0.781998 -1.243034 1.604410 0.000000 0.000000 0.000000
0.798404 -1.225199 1.622306 0.000000 0.000000 0.000000
0.850109 -1.208875 1.883559 0.000000 0.000000 0.000000
0.847119 -1.202098 1.898780 0.000000 0.000000 0.000000
0.852586 -1.207820 1.888093 0.000000 0.000000 0.000000
0.845395 -1.189780 1.893788 0.000000 0.000000 0.000000
0.838456 -1.189409 1.771191 0.000000 0.000000 0.000000
0.856072 -1.194580 1.858982 0.000000 0.000000 0.000000
0.848625 -1.176437 1.820929 0.000000 0.000000 0.000000
0.845511 -1.176473 1.789255 0.000000 0.000000 0.000000
0.828045 -1.183648 1.771083 0.000000 0.000000 0.000000
0.842956 -1.175330 1.758186 0.000000 0.000000 0.000000
0.779816 -1.263152 1.600846 0.000000 0.000000 0.000000
0.834804 -1.182452 1.764565 0.000000 0.000000 0.000000
0.900897 -1.198096 1.792192 0.000000 0.000000 0.000000
0.892720 -1.155586 1.842313 0.000000 0.000000 0.000000
0.843348 -1.180987 1.792467 0.000000 0.000000 0.000000
0.843802 -1.180675 1.832046 0.000000 0.000000 0.000000
0.827472 -1.180761 1.714154 0.000000 0.000000 0.000000
0.848988 -1.203632 1.885617 0.000000 0.000000 0.000000
0.952375 -1.164088 1.960558 0.000000 0.000000 0.000000
0.870384 -1.197851 1.909493 0.000000 0.000000 0.000000
0.896820 -1.184919 1.915626 0.000000 0.000000 0.000000
0.875992 -1.193700 1.916719 0.000000 0.000000 0.000000
0.875764 -1.191186 1.896341 0.000000 0.000000 0.000000
0.876291 -1.177704 1.900435 0.000000 0.000000 0.000000
0.806594 -1.236237 1.730869 0.000000 0.000000 0.000000
0.890033 -1.180629 1.917033 0.000000 0.000000 0.000000
0.816819 -1.206775 1.727280 0.000000 0.000000 0.000000
0.871730 -1.197418 1.911312 0.000000 0.000000 0.000000
0.869910 -1.186670 1.903970 0.000000 0.000000 0.000000
0.894933 -1.180262 1.937024 0.000000 0.000000 0.000000
0.806853 -1.211022 1.704111 0.000000 0.000000 0.000000
0.975673 -1.147787 1.959397 0.000000 0.000000 0.000000
0.867558 -1.196248 1.910294 0.000000 0.000000 0.000000
0.925676 -1.173939 1.951251 0.000000 0.000000 0.000000
0.806003 -1.213757 1.742453 0.000000 0.000000 0.000000
0.873183 -1.191939 1.910524 0.000000 0.000000 0.000000
0.880391 -1.179914 1.878841 0.000000 0.000000 0.000000
0.886336 -1.178914 1.923733 0.000000 0.000000 0.000000
0.803580 -1.234400 1.718682 0.000000 0.000000 0.000000
0.819230 -1.211955 1.733981 0.000000 0.000000 0.000000
0.861060 -1.185640 1.890315 0.000000 0.000000 0.000000
0.883799 -1.191975 1.927365 0.000000 0.000000 0.000000
0.856942 -1.169614 1.821621 0.000000 0.000000 0.000000
0.934674 -1.158164 1.941751 0.000000 0.000000 0.000000
0.952846 -1.155311 1.957810 0.000000 0.000000 0.000000
0.815928 -1.207676 1.694620 0.000000 0.000000 0.000000
0.812955 -1.203969 1.684738 0.000000 0.000000 0.000000
0.798512 -1.230101 1.605617 0.000000 0.000000 0.000000
0.958626 -1.154755 1.959177 0.000000 0.000000 0.000000
0.869864 -1.198914 1.916843 0.000000 0.000000 0.000000
0.953301 -1.161867 1.969788 0.000000 0.000000 0.000000
0.807727 -1.273786 1.736192 0.000000 0.000000 0.000000
0.835368 -1.189293 1.791616 0.000000 0.000000 0.000000
0.792656 -1.275380 1.630732 0.000000 0.000000 0.000000
0.824193 -1.203880 1.703448 0.000000 0.000000 0.000000
0.836845 -1.179565 1.710023 0.000000 0.000000 0.000000
0.782059 -1.272029 1.601879 0.000000 0.000000 0.000000
0.936045 -1.167143 1.964025 0.000000 0.000000 0.000000
0.834349 -1.187419 1.783584 0.000000 0.000000 0.000000
0.818104 -1.204059 1.716633 0.000000 0.000000 0.000000
0.844269 -1.207169 1.876506 0.000000 0.000000 0.000000
0.865367 -1.186464 1.720783 0.000000 0.000000 0.000000
0.893490 -1.210745 1.834224 0.000000 0.000000 0.000000
0.820966 -1.183521 1.731384 0.000000 0.000000 0.000000
0.799678 -1.244179 1.807616 0.000000 0.000000 0.000000
0.839692 -1.176461 1.753023 0.000000 0.000000 0.000000
0.805537 -1.218002 1.652220 0.000000 0.000000 0.000000
0.843903 -1.205587 1.757013 0.000000 0.000000 0.000000
0.919463 -1.141948 1.767755 0.000000 0.000000 0.000000
0.836987 -1.206964 1.858402 0.000000 0.000000 0.000000
0.817476 -1.204533 1.703053 0.000000 0.000000 0.000000
0.843551 -1.200575 1.848141 0.000000 0.000000 0.000000
0.807414 -1.213285 1.724895 0.000000 0.000000 0.000000
0.804135 -1.226247 1.694552 0.000000 0.000000 0.000000
0.869599 -1.177968 1.889388 0.000000 0.000000 0.000000
0.830853 -1.179735 1.744410 0.000000 0.000000 0.000000
0.815600 -1.257630 1.809375 0.000000 0.000000 0.000000
0.813077 -1.228025 1.712981 0.000000 0.000000 0.000000
0.836169 -1.203642 1.741537 0.000000 0.000000 0.000000
0.848810 -1.189072 1.862494 0.000000 0.000000 0.000000
0.825435 -1.189453 1.735568 0.000000 0.000000 0.000000
0.810115 -1.217186 1.739498 0.000000 0.000000 0.000000
0.797683 -1.235142 1.652785 0.000000 0.000000 0.000000
0.903645 -1.177769 1.915042 0.000000 0.000000 0.000000
0.893922 -1.204064 1.833296 0.000000 0.000000 0.000000
0.794318 -1.245566 1.801811 0.000000 0.000000 0.000000
0.802591 -1.262441 1.768965 0.000000 0.000000 0.000000
0.815199 -1.217147 1.812473 0.000000 0.000000 0.000000
0.808923 -1.250911 1.808551 0.000000 0.000000 0.000000
0.809203 -1.225609 1.827336 0.000000 0.000000 0.000000
0.798357 -1.250321 1.802361 0.000000 0.000000 0.000000
0.824644 -1.250264 1.778965 0.000000 0.000000 0.000000
0.869067 -1.202767 1.924296 0.000000 0.000000 0.000000
0.815293 -1.216987 1.703238 0.000000 0.000000 0.000000
0.804541 -1.261061 1.776327 0.000000 0.000000 0.000000
0.807268 -1.217474 1.808792 0.000000 0.000000 0.000000
0.809932 -1.257697 1.789606 0.000000 0.000000 0.000000
0.796562 -1.248593 1.796350 0.000000 0.000000 0.000000
0.839837 -1.237730 1.783927 0.000000 0.000000 0.000000
0.812780 -1.213218 1.708652 0.000000 0.000000 0.000000
0.842924 -1.175448 1.735357 0.000000 0.000000 0.000000
0.890674 -1.197311 1.853201 0.000000 0.000000 0.000000
0.898740 -1.205811 1.850563 0.000000 0.000000 0.000000
0.804728 -1.239289 1.803867 0.000000 0.000000 0.000000
0.812692 -1.234840 1.804112 0.000000 0.000000 0.000000
0.793778 -1.245211 1.795111 0.000000 0.000000 0.000000
0.843000 -1.208278 1.871316 0.000000 0.000000 0.000000
0.814331 -1.219999 1.807181 0.000000 0.000000 0.000000
0.804119 -1.242554 1.811592 0.000000 0.000000 0.000000
0.798442 -1.249282 1.802080 0.000000 0.000000 0.000000
0.802966 -1.274453 1.731088 0.000000 0.000000 0.000000
0.789640 -1.253121 1.779122 0.000000 0.000000 0.000000
0.946780 -1.125232 1.856210 0.000000 0.000000 0.000000
0.804824 -1.250041 1.786129 0.000000 0.000000 0.000000
0.795216 -1.248511 1.781621 0.000000 0.000000 0.000000
0.850574 -1.201525 1.854434 0.000000 0.000000 0.000000
0.966640 -1.151766 1.963846 0.000000 0.000000 0.000000
0.794281 -1.247982 1.760499 0.000000 0.000000 0.000000
0.804806 -1.238398 1.793064 0.000000 0.000000 0.000000
0.853653 -1.210074 1.813608 0.000000 0.000000 0.000000
0.939987 -1.129529 1.870300 0.000000 0.000000 0.000000
0.795516 -1.251713 1.798824 0.000000 0.000000 0.000000
0.952071 -1.124559 1.871527 0.000000 0.000000 0.000000
0.809627 -1.254971 1.790291 0.000000 0.000000 0.000000
0.826567 -1.217789 1.855000 0.000000 0.000000 0.000000
0.804517 -1.248161 1.769278 0.000000 0.000000 0.000000
0.833112 -1.210463 1.831491 0.000000 0.000000 0.000000
0.963756 -1.157868 1.975206 0.000000 0.000000 0.000000
0.935282 -1.164901 1.947599 0.000000 0.000000 0.000000
0.795964 -1.245708 1.775808 0.000000 0.000000 0.000000
0.815397 -1.270853 1.771016 0.000000 0.000000 0.000000
0.793104 -1.248081 1.786951 0.000000 0.000000 0.000000
0.802784 -1.277089 1.727194 0.000000 0.000000 0.000000
0.802642 -1.248261 1.814745 0.000000 0.000000 0.000000
0.837884 -1.190820 1.804382 0.000000 0.000000 0.000000
0.805903 -1.246688 1.813226 0.000000 0.000000 0.000000
0.874452 -1.158932 1.837073 0.000000 0.000000 0.000000
0.811737 -1.208491 1.688236 0.000000 0.000000 0.000000
0.799043 -1.248257 1.807053 0.000000 0.000000 0.000000
0.948580 -1.164486 1.976358 0.000000 0.000000 0.000000
0.805269 -1.238130 1.820509 0.000000 0.000000 0.000000
0.833955 -1.183578 1.774052 0.000000 0.000000 0.000000
0.809035 -1.251387 1.815149 0.000000 0.000000 0.000000
0.814608 -1.181430 1.715049 0.000000 0.000000 0.000000
0.849409 -1.169353 1.788363 0.000000 0.000000 0.000000
0.815190 -1.184821 1.700474 0.000000 0.000000 0.000000
0.808030 -1.220522 1.722700 0.000000 0.000000 0.000000
0.943411 -1.171584 1.978877 0.000000 0.000000 0.000000
0.827621 -1.225409 1.865549 0.000000 0.000000 0.000000
0.915882 -1.183091 1.948275 0.000000 0.000000 0.000000
0.795026 -1.221214 1.649949 0.000000 0.000000 0.000000
0.832425 -1.256008 1.738095 0.000000 0.000000 0.000000
0.803042 -1.223552 1.712413 0.000000 0.000000 0.000000
0.823559 -1.263823 1.780889 0.000000 0.000000 0.000000
0.815800 -1.273999 1.766043 0.000000 0.000000 0.000000
0.846381 -1.178927 1.705476 0.000000 0.000000 0.000000
0.922342 -1.169913 1.950196 0.000000 0.000000 0.000000
0.793802 -1.222378 1.661195 0.000000 0.000000 0.000000
0.828518 -1.256422 1.731653 0.000000 0.000000 0.000000
0.811814 -1.221179 1.745687 0.000000 0.000000 0.000000
0.814263 -1.262480 1.787154 0.000000 0.000000 0.000000
0.797168 -1.247244 1.795878 0.000000 0.000000 0.000000
0.814809 -1.256998 1.804405 0.000000 0.000000 0.000000
0.798194 -1.246373 1.799790 0.000000 0.000000 0.000000
0.832421 -1.199142 1.725268 0.000000 0.000000 0.000000
0.874108 -1.187294 1.930775 0.000000 0.000000 0.000000
0.962284 -1.126242 1.917254 0.000000 0.000000 0.000000
0.833277 -1.196645 1.762504 0.000000 0.000000 0.000000
0.861637 -1.199183 1.900967 0.000000 0.000000 0.000000
0.872288 -1.193255 1.914572 0.000000 0.000000 0.000000
0.850746 -1.197502 1.782216 0.000000 0.000000 0.000000
0.815330 -1.263667 1.790339 0.000000 0.000000 0.000000
0.948704 -1.119898 1.826319 0.000000 0.000000 0.000000
0.862320 -1.155408 1.869094 0.000000 0.000000 0.000000
0.862495 -1.185406 1.759583 0.000000 0.000000 0.000000
0.826483 -1.207290 1.691081 0.000000 0.000000 0.000000
0.877015 -1.193290 1.937897 0.000000 0.000000 0.000000
0.956880 -1.126425 1.906162 0.000000 0.000000 0.000000
0.830694 -1.199174 1.764555 0.000000 0.000000 0.000000
0.856954 -1.200676 1.898033 0.000000 0.000000 0.000000
0.864649 -1.198359 1.905400 0.000000 0.000000 0.000000
0.814202 -1.252677 1.800511 0.000000 0.000000 0.000000
0.798721 -1.251253 1.793493 0.000000 0.000000 0.000000
0.808728 -1.214575 1.738843 0.000000 0.000000 0.000000
0.952859 -1.132075 1.918016 0.000000 0.000000 0.000000
0.810955 -1.214290 1.755107 0.000000 0.000000 0.000000
0.930829 -1.136263 1.893715 0.000000 0.000000 0.000000
0.902150 -1.205177 1.856032 0.000000 0.000000 0.000000
0.828921 -1.228444 1.856384 0.000000 0.000000 0.000000
0.816814 -1.206094 1.628768 0.000000 0.000000 0.000000
0.799539 -1.255437 1.782501 0.000000 0.000000 0.000000
0.808459 -1.254413 1.792549 0.000000 0.000000 0.000000
0.806859 -1.249551 1.795564 0.000000 0.000000 0.000000
0.831472 -1.172519 1.662266 0.000000 0.000000 0.000000
0.960561 -1.167906 1.992379 0.000000 0.000000 0.000000
0.947456 -1.144172 1.954360 0.000000 0.000000 0.000000
0.950540 -1.170544 1.984838 0.000000 0.000000 0.000000
0.798335 -1.255454 1.776226 0.000000 0.000000 0.000000
0.811515 -1.242380 1.799148 0.000000 0.000000 0.000000
0.959264 -1.133521 1.933643 0.000000 0.000000 0.000000
0.822221 -1.250418 1.787343 0.000000 0.000000 0.000000
0.807401 -1.203252 1.681081 0.000000 0.000000 0.000000
0.893769 -1.205959 1.842530 0.000000 0.000000 0.000000
0.820376 -1.219504 1.832626 0.000000 0.000000 0.000000
0.805328 -1.219247 1.675775 0.000000 0.000000 0.000000
0.929149 -1.135579 1.781224 0.000000 0.000000 0.000000
0.818006 -1.224250 1.825516 0.000000 0.000000 0.000000
0.804810 -1.216136 1.671478 0.000000 0.000000 0.000000
0.898770 -1.206997 1.851846 0.000000 0.000000 0.000000
0.882251 -1.206649 1.834082 0.000000 0.000000 0.000000
0.847291 -1.212607 1.876937 0.000000 0.000000 0.000000
0.891511 -1.205916 1.852654 0.000000 0.000000 0.000000
0.893702 -1.203411 1.841291 0.000000 0.000000 0.000000
0.848696 -1.210633 1.882870 0.000000 0.000000 0.000000
0.893960 -1.204214 1.836018 0.000000 0.000000 0.000000
0.901396 -1.203917 1.854592 0.000000 0.000000 0.000000
0.799166 -1.228021 1.641407 0.000000 0.000000 0.000000
0.949665 -1.140963 1.920641 0.000000 0.000000 0.000000
0.958293 -1.124122 1.891410 0.000000 0.000000 0.000000
0.787704 -1.238878 1.661278 0.000000 0.000000 0.000000
0.870985 -1.193473 1.879630 0.000000 0.000000 0.000000
0.962441 -1.131192 1.938920 0.000000 0.000000 0.000000
0.799200 -1.228121 1.660863 0.000000 0.000000 0.000000
0.941498 -1.156631 1.940420 0.000000 0.000000 0.000000
0.952958 -1.132130 1.909352 0.000000 0.000000 0.000000
0.959101 -1.121887 1.897220 0.000000 0.000000 0.000000
0.802408 -1.221080 1.628634 0.000000 0.000000 0.000000
0.844848 -1.176202 1.755861 0.000000 0.000000 0.000000
0.963463 -1.129468 1.944963 0.000000 0.000000 0.000000
0.844326 -1.193088 1.748885 0.000000 0.000000 0.000000
0.873902 -1.184277 1.757435 0.000000 0.000000 0.000000
0.832812 -1.202645 1.730783 0.000000 0.000000 0.000000
0.838245 -1.189789 1.799807 0.000000 0.000000 0.000000
0.854593 -1.189163 1.729457 0.000000 0.000000 0.000000
0.819891 -1.202484 1.716522 0.000000 0.000000 0.000000
0.822443 -1.192104 1.705210 0.000000 0.000000 0.000000
0.821669 -1.202885 1.729866 0.000000 0.000000 0.000000
0.828690 -1.195626 1.743467 0.000000 0.000000 0.000000
0.834400 -1.174483 1.748813 0.000000 0.000000 0.000000
0.887761 -1.174691 1.773913 0.000000 0.000000 0.000000
0.829168 -1.184428 1.748466 0.000000 0.000000 0.000000
0.857898 -1.186643 1.756341 0.000000 0.000000 0.000000
0.823245 -1.196874 1.729561 0.000000 0.000000 0.000000
0.842632 -1.178837 1.716235 0.000000 0.000000 0.000000
0.842000 -1.185153 1.749335 0.000000 0.000000 0.000000
0.825553 -1.195526 1.735970 0.000000 0.000000 0.000000
0.812729 -1.273594 1.774282 0.000000 0.000000 0.000000
0.819701 -1.197573 1.716269 0.000000 0.000000 0.000000
0.829122 -1.185272 1.726472 0.000000 0.000000 0.000000
0.912841 -1.136339 1.763544 0.000000 0.000000 0.000000
0.809828 -1.229807 1.830009 0.000000 0.000000 0.000000
0.919490 -1.145203 1.783702 0.000000 0.000000 0.000000
0.942382 -1.122998 1.844644 0.000000 0.000000 0.000000
0.959037 -1.134156 1.934116 0.000000 0.000000 0.000000
0.807985 -1.235485 1.822556 0.000000 0.000000 0.000000
0.937595 -1.138329 1.913219 0.000000 0.000000 0.000000
0.893477 -1.162402 1.801000 0.000000 0.000000 0.000000
0.949836 -1.143738 1.928622 0.000000 0.000000 0.000000
0.817658 -1.253150 1.792662 0.000000 0.000000 0.000000
0.808295 -1.271607 1.633537 0.000000 0.000000 0.000000
0.795242 -1.230448 1.667361 0.000000 0.000000 0.000000
0.793544 -1.238807 1.657094 0.000000 0.000000 0.000000
0.808962 -1.196132 1.686740 0.000000 0.000000 0.000000
0.827627 -1.184145 1.696463 0.000000 0.000000 0.000000
0.792954 -1.233267 1.679031 0.000000 0.000000 0.000000
0.793480 -1.235848 1.650661 0.000000 0.000000 0.000000
0.806630 -1.196818 1.680320 0.000000 0.000000 0.000000
0.813065 -1.269427 1.763405 0.000000 0.000000 0.000000
0.875767 -1.194182 1.931976 0.000000 0.000000 0.000000
0.925708 -1.167920 1.957285 0.000000 0.000000 0.000000
0.920955 -1.173443 1.955541 0.000000 0.000000 0.000000
0.953085 -1.172041 1.998548 0.000000 0.000000 0.000000
0.956179 -1.162210 1.984150 0.000000 0.000000 0.000000
0.953923 -1.173843 1.992570 0.000000 0.000000 0.000000
0.816504 -1.196275 1.670866 0.000000 0.000000 0.000000
0.958479 -1.170923 1.995932 0.000000 0.000000 0.000000
0.973207 -1.170394 2.004877 0.000000 0.000000 0.000000
0.965038 -1.172386 2.001673 0.000000 0.000000 0.000000
0.819739 -1.189687 1.670125 0.000000 0.000000 0.000000
0.846867 -1.167372 1.879226 0.000000 0.000000 0.000000
0.870129 -1.199287 1.915588 0.000000 0.000000 0.000000
0.873662 -1.205648 1.921507 0.000000 0.000000 0.000000
0.871963 -1.197545 1.851895 0.000000 0.000000 0.000000
0.863741 -1.208438 1.837000 0.000000 0.000000 0.000000
0.852570 -1.203746 1.903194 0.000000 0.000000 0.000000
0.858273 -1.202342 1.904529 0.000000 0.000000 0.000000
0.861228 -1.197228 1.906816 0.000000 0.000000 0.000000
0.855563 -1.200491 1.901157 0.000000 0.000000 0.000000
0.883821 -1.197067 1.920236 0.000000 0.000000 0.000000
0.850898 -1.170716 1.887269 0.000000 0.000000 0.000000
0.935280 -1.130519 1.833448 0.000000 0.000000 0.000000
0.856124 -1.198506 1.885971 0.000000 0.000000 0.000000
0.857427 -1.197453 1.881866 0.000000 0.000000 0.000000
0.917054 -1.148724 1.884533 0.000000 0.000000 0.000000
0.942998 -1.116784 1.837050 0.000000 0.000000 0.000000
0.934809 -1.126330 1.836879 0.000000 0.000000 0.000000
0.941360 -1.121561 1.815168 0.000000 0.000000 0.000000
0.938774 -1.127363 1.821527 0.000000 0.000000 0.000000
0.850940 -1.205714 1.893005 0.000000 0.000000 0.000000
0.850167 -1.175810 1.880698 0.000000 0.000000 0.000000
0.928942 -1.136600 1.842393 0.000000 0.000000 0.000000
0.860236 -1.196712 1.875737 0.000000 0.000000 0.000000
0.863463 -1.199524 1.877422 0.000000 0.000000 0.000000
0.949330 -1.119856 1.856566 0.000000 0.000000 0.000000
0.947365 -1.118288 1.847452 0.000000 0.000000 0.000000
0.915604 -1.137160 1.826226 0.000000 0.000000 0.000000
0.940803 -1.120134 1.830714 0.000000 0.000000 0.000000
0.854498 -1.202950 1.897270 0.000000 0.000000 0.000000
0.835283 -1.225178 1.854249 0.000000 0.000000 0.000000
0.820779 -1.222721 1.854057 0.000000 0.000000 0.000000
0.945703 -1.117968 1.808872 0.000000 0.000000 0.000000
0.937647 -1.159977 1.953888 0.000000 0.000000 0.000000
0.908935 -1.152373 1.761425 0.000000 0.000000 0.000000
0.805985 -1.228660 1.826182 0.000000 0.000000 0.000000
0.934310 -1.158204 1.953436 0.000000 0.000000 0.000000
0.938876 -1.176987 1.981476 0.000000 0.000000 0.000000
0.933253 -1.161793 1.954859 0.000000 0.000000 0.000000
0.937738 -1.119058 1.801942 0.000000 0.000000 0.000000
0.925394 -1.157596 1.947386 0.000000 0.000000 0.000000
0.897979 -1.153249 1.784874 0.000000 0.000000 0.000000
0.814523 -1.223758 1.840730 0.000000 0.000000 0.000000
0.935494 -1.181113 1.977349 0.000000 0.000000 0.000000
0.913302 -1.180316 1.937265 0.000000 0.000000 0.000000
0.942864 -1.161639 1.963100 0.000000 0.000000 0.000000
0.930661 -1.178822 1.969996 0.000000 0.000000 0.000000
0.941132 -1.156867 1.957894 0.000000 0.000000 0.000000
0.935186 -1.170076 1.971431 0.000000 0.000000 0.000000
0.936528 -1.122936 1.810670 0.000000 0.000000 0.000000
0.887837 -1.207361 1.826631 0.000000 0.000000 0.000000
0.894279 -1.208556 1.833875 0.000000 0.000000 0.000000
0.897758 -1.205503 1.849997 0.000000 0.000000 0.000000
0.897163 -1.201792 1.852882 0.000000 0.000000 0.000000
0.896388 -1.206066 1.843694 0.000000 0.000000 0.000000
0.965072 -1.169165 2.001515 0.000000 0.000000 0.000000
0.938844 -1.122431 1.801101 0.000000 0.000000 0.000000
0.774463 -1.277364 1.604938 0.000000 0.000000 0.000000
0.960860 -1.160726 1.978084 0.000000 0.000000 0.000000
0.817700 -1.193194 1.694734 0.000000 0.000000 0.000000
0.775963 -1.273932 1.628203 0.000000 0.000000 0.000000
0.817497 -1.213521 1.819349 0.000000 0.000000 0.000000
0.978143 -1.162466 1.972578 0.000000 0.000000 0.000000
0.830570 -1.217611 1.849004 0.000000 0.000000 0.000000
0.831814 -1.214896 1.865025 0.000000 0.000000 0.000000
0.920927 -1.187004 1.968968 0.000000 0.000000 0.000000
0.945477 -1.168639 1.972525 0.000000 0.000000 0.000000
0.919515 -1.142070 1.783998 0.000000 0.000000 0.000000
0.909506 -1.143711 1.815761 0.000000 0.000000 0.000000
0.893195 -1.201300 1.837996 0.000000 0.000000 0.000000
0.933815 -1.128354 1.796616 0.000000 0.000000 0.000000
0.833103 -1.181249 1.726690 0.000000 0.000000 0.000000
0.906191 -1.140568 1.785164 0.000000 0.000000 0.000000
0.933214 -1.131598 1.794758 0.000000 0.000000 0.000000
0.912798 -1.182741 1.932518 0.000000 0.000000 0.000000
0.771257 -1.275374 1.604590 0.000000 0.000000 0.000000
0.954192 -1.157936 1.963481 0.000000 0.000000 0.000000
0.818334 -1.197772 1.683018 0.000000 0.000000 0.000000
0.773147 -1.273539 1.616120 0.000000 0.000000 0.000000
0.827791 -1.193369 1.830291 0.000000 0.000000 0.000000
0.974794 -1.160966 1.988779 0.000000 0.000000 0.000000
0.843320 -1.198601 1.845407 0.000000 0.000000 0.000000
0.831586 -1.217209 1.867412 0.000000 0.000000 0.000000
0.897709 -1.191350 1.944297 0.000000 0.000000 0.000000
0.954984 -1.166351 1.975333 0.000000 0.000000 0.000000
0.926562 -1.135666 1.809182 0.000000 0.000000 0.000000
0.923783 -1.136452 1.799516 0.000000 0.000000 0.000000
0.892782 -1.204904 1.837518 0.000000 0.000000 0.000000
0.927524 -1.131243 1.799233 0.000000 0.000000 0.000000
0.831963 -1.176698 1.730836 0.000000 0.000000 0.000000
0.911716 -1.142313 1.777509 0.000000 0.000000 0.000000
0.927165 -1.131953 1.819083 0.000000 0.000000 0.000000
0.907795 -1.182541 1.926773 0.000000 0.000000 0.000000
0.898581 -1.207578 1.847460 0.000000 0.000000 0.000000
0.972969 -1.157639 1.988951 0.000000 0.000000 0.000000
0.861716 -1.205750 1.900508 0.000000 0.000000 0.000000
0.851010 -1.206961 1.901189 0.000000 0.000000 0.000000
0.850089 -1.194820 1.889589 0.000000 0.000000 0.000000
0.858857 -1.204419 1.887337 0.000000 0.000000 0.000000
0.844751 -1.191416 1.892200 0.000000 0.000000 0.000000
0.906078 -1.181680 1.936302 0.000000 0.000000 0.000000
0.817573 -1.170750 1.737930 0.000000 0.000000 0.000000
0.859447 -1.199422 1.878539 0.000000 0.000000 0.000000
0.964999 -1.162095 1.985939 0.000000 0.000000 0.000000
0.907671 -1.142850 1.874087 0.000000 0.000000 0.000000
0.912982 -1.126150 1.857959 0.000000 0.000000 0.000000
0.873074 -1.190692 1.886225 0.000000 0.000000 0.000000
0.855338 -1.194832 1.886630 0.000000 0.000000 0.000000
0.907026 -1.188573 1.931492 0.000000 0.000000 0.000000
0.902356 -1.186651 1.931246 0.000000 0.000000 0.000000
0.847601 -1.206405 1.873412 0.000000 0.000000 0.000000
0.855372 -1.200525 1.896828 0.000000 0.000000 0.000000
0.890292 -1.180021 1.864264 0.000000 0.000000 0.000000
0.920902 -1.138533 1.866327 0.000000 0.000000 0.000000
0.898755 -1.211879 1.843096 0.000000 0.000000 0.000000
0.851661 -1.162058 1.842374 0.000000 0.000000 0.000000
0.857196 -1.201976 1.865711 0.000000 0.000000 0.000000
0.952047 -1.126888 1.917946 0.000000 0.000000 0.000000
0.856655 -1.211466 1.906860 0.000000 0.000000 0.000000
0.892871 -1.182746 1.935109 0.000000 0.000000 0.000000
0.828069 -1.169806 1.759115 0.000000 0.000000 0.000000
0.845022 -1.215063 1.867765 0.000000 0.000000 0.000000
0.942725 -1.177513 1.983685 0.000000 0.000000 0.000000
0.855977 -1.206707 1.880518 0.000000 0.000000 0.000000
0.976105 -1.157285 1.992096 0.000000 0.000000 0.000000
0.899925 -1.147254 1.869126 0.000000 0.000000 0.000000
0.916410 -1.136328 1.864457 0.000000 0.000000 0.000000
0.865961 -1.194750 1.867782 0.000000 0.000000 0.000000
0.857240 -1.196480 1.902771 0.000000 0.000000 0.000000
0.906695 -1.187607 1.921819 0.000000 0.000000 0.000000
0.869477 -1.198318 1.904948 0.000000 0.000000 0.000000
0.866578 -1.202512 1.910820 0.000000 0.000000 0.000000
0.876908 -1.181516 1.828352 0.000000 0.000000 0.000000
0.915481 -1.145475 1.806163 0.000000 0.000000 0.000000
0.894739 -1.209128 1.855857 0.000000 0.000000 0.000000
0.865613 -1.159546 1.869877 0.000000 0.000000 0.000000
0.849089 -1.206983 1.870247 0.000000 0.000000 0.000000
0.942101 -1.123797 1.883960 0.000000 0.000000 0.000000
0.856137 -1.204167 1.903594 0.000000 0.000000 0.000000
0.903590 -1.205489 1.861922 0.000000 0.000000 0.000000
0.814782 -1.261892 1.797150 0.000000 0.000000 0.000000
0.869414 -1.215272 1.814227 0.000000 0.000000 0.000000
0.867413 -1.196122 1.895990 0.000000 0.000000 0.000000
0.813103 -1.258178 1.793082 0.000000 0.000000 0.000000
0.879715 -1.205642 1.824510 0.000000 0.000000 0.000000
0.863254 -1.201679 1.895134 0.000000 0.000000 0.000000
0.897132 -1.211109 1.859237 0.000000 0.000000 0.000000
0.896524 -1.209559 1.843718 0.000000 0.000000 0.000000
0.861979 -1.205410 1.909705 0.000000 0.000000 0.000000
0.859682 -1.206249 1.926137 0.000000 0.000000 0.000000
0.853930 -1.197706 1.913746 0.000000 0.000000 0.000000
0.863553 -1.203025 1.937816 0.000000 0.000000 0.000000
