ply
format ascii 1.0
comment VCGLIB generated
obj_info Generated by SPFormer!
element vertex 788
property float x
property float y
property float z
property float nx
property float ny
property float nz
end_header
0.013332 2.356430 1.937158 0.000000 0.000000 0.000000
0.331189 0.602632 1.510747 0.000000 0.000000 0.000000
0.007136 2.293109 1.923775 0.000000 0.000000 0.000000
0.003906 2.346599 1.927565 0.000000 0.000000 0.000000
-0.003358 2.351582 1.924186 0.000000 0.000000 0.000000
0.008348 2.299474 1.922922 0.000000 0.000000 0.000000
-0.000141 2.350490 1.925120 0.000000 0.000000 0.000000
0.002193 2.314378 1.920226 0.000000 0.000000 0.000000
-0.001085 2.348561 1.924175 0.000000 0.000000 0.000000
0.007025 2.280603 1.921949 0.000000 0.000000 0.000000
-0.006338 2.358877 1.924542 0.000000 0.000000 0.000000
0.008901 2.352267 1.936466 0.000000 0.000000 0.000000
0.007741 2.299564 1.924851 0.000000 0.000000 0.000000
-0.003461 2.359309 1.930532 0.000000 0.000000 0.000000
0.004203 2.317699 1.922829 0.000000 0.000000 0.000000
0.005114 2.312837 1.924478 0.000000 0.000000 0.000000
0.004696 2.298313 1.922470 0.000000 0.000000 0.000000
0.338363 0.607996 1.505974 0.000000 0.000000 0.000000
0.366217 0.570295 1.484272 0.000000 0.000000 0.000000
0.329923 0.626890 1.507053 0.000000 0.000000 0.000000
0.000671 2.321120 1.923916 0.000000 0.000000 0.000000
0.008056 2.299834 1.925766 0.000000 0.000000 0.000000
0.000845 2.357518 1.938753 0.000000 0.000000 0.000000
0.004511 2.331163 1.937023 0.000000 0.000000 0.000000
-0.000232 2.342275 1.935506 0.000000 0.000000 0.000000
0.001612 2.357900 1.935477 0.000000 0.000000 0.000000
0.001908 2.352258 1.928947 0.000000 0.000000 0.000000
0.004291 2.319283 1.922436 0.000000 0.000000 0.000000
0.003111 2.336863 1.925141 0.000000 0.000000 0.000000
-0.003955 2.358836 1.933253 0.000000 0.000000 0.000000
0.007247 2.340373 1.939589 0.000000 0.000000 0.000000
0.002780 2.345971 1.924192 0.000000 0.000000 0.000000
0.008680 2.358261 1.937841 0.000000 0.000000 0.000000
0.331385 0.619591 1.510097 0.000000 0.000000 0.000000
0.331110 0.611081 1.506219 0.000000 0.000000 0.000000
0.003727 2.334550 1.926666 0.000000 0.000000 0.000000
0.002147 2.346283 1.922168 0.000000 0.000000 0.000000
0.006058 2.309577 1.933258 0.000000 0.000000 0.000000
0.005672 2.321881 1.926269 0.000000 0.000000 0.000000
0.012593 2.313153 1.937413 0.000000 0.000000 0.000000
0.005042 2.339884 1.928202 0.000000 0.000000 0.000000
0.006782 2.317839 1.936737 0.000000 0.000000 0.000000
0.331866 0.619748 1.511750 0.000000 0.000000 0.000000
-0.007974 2.329540 1.921724 0.000000 0.000000 0.000000
0.326927 0.626661 1.508167 0.000000 0.000000 0.000000
0.006524 2.326586 1.923425 0.000000 0.000000 0.000000
0.003631 2.337783 1.925572 0.000000 0.000000 0.000000
0.330607 0.604190 1.508463 0.000000 0.000000 0.000000
0.002539 2.335346 1.922707 0.000000 0.000000 0.000000
0.006193 2.339427 1.928609 0.000000 0.000000 0.000000
0.328538 0.623586 1.505428 0.000000 0.000000 0.000000
0.010366 2.312128 1.929120 0.000000 0.000000 0.000000
0.007461 2.299202 1.924048 0.000000 0.000000 0.000000
0.003452 2.345958 1.927257 0.000000 0.000000 0.000000
0.005061 2.340062 1.936993 0.000000 0.000000 0.000000
0.329789 0.615317 1.508968 0.000000 0.000000 0.000000
0.325365 0.608077 1.504127 0.000000 0.000000 0.000000
0.011358 2.305603 1.930701 0.000000 0.000000 0.000000
0.003328 2.322078 1.923696 0.000000 0.000000 0.000000
0.005997 2.316735 1.925250 0.000000 0.000000 0.000000
0.002623 2.337609 1.925173 0.000000 0.000000 0.000000
0.010723 2.315723 1.930231 0.000000 0.000000 0.000000
0.009519 2.289356 1.924398 0.000000 0.000000 0.000000
0.011244 2.296350 1.929242 0.000000 0.000000 0.000000
0.011897 2.300438 1.933604 0.000000 0.000000 0.000000
-0.000526 2.340311 1.924285 0.000000 0.000000 0.000000
-0.007108 2.359749 1.922714 0.000000 0.000000 0.000000
-0.004412 2.358873 1.925859 0.000000 0.000000 0.000000
0.011806 2.298011 1.932657 0.000000 0.000000 0.000000
0.008033 2.331438 1.930409 0.000000 0.000000 0.000000
-0.006271 2.353175 1.921273 0.000000 0.000000 0.000000
0.328263 0.626676 1.506575 0.000000 0.000000 0.000000
0.330252 0.619998 1.510437 0.000000 0.000000 0.000000
0.007493 2.321643 1.929264 0.000000 0.000000 0.000000
-0.006901 2.351050 1.921885 0.000000 0.000000 0.000000
-0.002584 2.352353 1.915809 0.000000 0.000000 0.000000
0.009518 2.303726 1.929614 0.000000 0.000000 0.000000
0.332491 0.608184 1.507761 0.000000 0.000000 0.000000
0.003810 2.340407 1.926042 0.000000 0.000000 0.000000
0.327265 0.623894 1.509903 0.000000 0.000000 0.000000
0.001247 2.313376 1.925794 0.000000 0.000000 0.000000
0.008897 2.337364 1.932962 0.000000 0.000000 0.000000
0.006194 2.314501 1.931404 0.000000 0.000000 0.000000
-0.002626 2.358268 1.930022 0.000000 0.000000 0.000000
0.012823 2.357126 1.926204 0.000000 0.000000 0.000000
-0.001834 2.327500 1.931021 0.000000 0.000000 0.000000
0.001374 2.344110 1.921838 0.000000 0.000000 0.000000
0.014510 2.331468 1.925833 0.000000 0.000000 0.000000
0.006111 2.328526 1.920119 0.000000 0.000000 0.000000
0.008581 2.310020 1.927447 0.000000 0.000000 0.000000
0.006017 2.351887 1.930279 0.000000 0.000000 0.000000
0.333747 0.617732 1.511516 0.000000 0.000000 0.000000
0.001429 2.342248 1.923076 0.000000 0.000000 0.000000
0.001624 2.346654 1.923665 0.000000 0.000000 0.000000
0.001622 2.336966 1.921527 0.000000 0.000000 0.000000
0.328776 0.612034 1.506113 0.000000 0.000000 0.000000
0.015093 2.334557 1.941803 0.000000 0.000000 0.000000
0.011254 2.348224 1.938823 0.000000 0.000000 0.000000
0.001564 2.345699 1.924094 0.000000 0.000000 0.000000
0.013005 2.340866 1.942013 0.000000 0.000000 0.000000
-0.000426 2.323509 1.920993 0.000000 0.000000 0.000000
0.014953 2.346454 1.943858 0.000000 0.000000 0.000000
0.008103 2.359778 1.937334 0.000000 0.000000 0.000000
0.008058 2.333099 1.940345 0.000000 0.000000 0.000000
0.330131 0.626924 1.504581 0.000000 0.000000 0.000000
0.328142 0.629147 1.506451 0.000000 0.000000 0.000000
-0.004987 2.356447 1.920596 0.000000 0.000000 0.000000
-0.012040 2.352429 1.925639 0.000000 0.000000 0.000000
-0.013439 2.351172 1.920063 0.000000 0.000000 0.000000
0.004118 2.337956 1.925448 0.000000 0.000000 0.000000
0.332294 0.612365 1.509392 0.000000 0.000000 0.000000
0.003625 2.358548 1.933918 0.000000 0.000000 0.000000
0.001897 2.356612 1.930546 0.000000 0.000000 0.000000
0.007300 2.330986 1.930866 0.000000 0.000000 0.000000
0.003587 2.349061 1.928127 0.000000 0.000000 0.000000
0.005739 2.312376 1.934439 0.000000 0.000000 0.000000
0.012271 2.348987 1.931939 0.000000 0.000000 0.000000
0.015840 2.352165 1.943926 0.000000 0.000000 0.000000
0.003338 2.347788 1.929433 0.000000 0.000000 0.000000
0.008123 2.309020 1.926602 0.000000 0.000000 0.000000
0.005874 2.337060 1.928483 0.000000 0.000000 0.000000
0.012756 2.346085 1.934869 0.000000 0.000000 0.000000
0.003941 2.342736 1.926711 0.000000 0.000000 0.000000
0.007908 2.331732 1.934350 0.000000 0.000000 0.000000
0.000424 2.353396 1.927849 0.000000 0.000000 0.000000
0.003985 2.332713 1.927810 0.000000 0.000000 0.000000
0.012987 2.341435 1.942877 0.000000 0.000000 0.000000
-0.001110 2.332291 1.928006 0.000000 0.000000 0.000000
0.002987 2.349497 1.928591 0.000000 0.000000 0.000000
0.012052 2.316069 1.934438 0.000000 0.000000 0.000000
-0.003453 2.347767 1.922361 0.000000 0.000000 0.000000
0.327743 0.614140 1.513963 0.000000 0.000000 0.000000
0.331402 0.611157 1.507887 0.000000 0.000000 0.000000
0.332967 0.603990 1.506808 0.000000 0.000000 0.000000
0.333475 0.604621 1.504929 0.000000 0.000000 0.000000
0.001471 2.304645 1.927295 0.000000 0.000000 0.000000
-0.003810 2.354753 1.924968 0.000000 0.000000 0.000000
0.004720 2.286155 1.926859 0.000000 0.000000 0.000000
0.009773 2.316632 1.930069 0.000000 0.000000 0.000000
0.006771 2.318489 1.927210 0.000000 0.000000 0.000000
0.334127 0.603393 1.510864 0.000000 0.000000 0.000000
0.011296 2.298004 1.931180 0.000000 0.000000 0.000000
0.329933 0.624474 1.506138 0.000000 0.000000 0.000000
0.010940 2.326720 1.935650 0.000000 0.000000 0.000000
0.002259 2.296410 1.925610 0.000000 0.000000 0.000000
0.325931 0.628303 1.508229 0.000000 0.000000 0.000000
0.012976 2.351603 1.938616 0.000000 0.000000 0.000000
0.017073 2.331257 1.936232 0.000000 0.000000 0.000000
0.326286 0.609618 1.501206 0.000000 0.000000 0.000000
-0.000083 2.327238 1.933811 0.000000 0.000000 0.000000
0.008517 2.283113 1.924692 0.000000 0.000000 0.000000
0.008094 2.301369 1.925895 0.000000 0.000000 0.000000
0.013957 2.352088 1.941594 0.000000 0.000000 0.000000
0.007329 2.324800 1.929401 0.000000 0.000000 0.000000
0.329179 0.625452 1.509929 0.000000 0.000000 0.000000
0.014635 2.335914 1.938550 0.000000 0.000000 0.000000
0.329716 0.617727 1.504720 0.000000 0.000000 0.000000
0.010372 2.285957 1.923356 0.000000 0.000000 0.000000
0.007495 2.300160 1.924802 0.000000 0.000000 0.000000
0.001503 2.301262 1.927988 0.000000 0.000000 0.000000
-0.000863 2.322900 1.918987 0.000000 0.000000 0.000000
0.018299 2.343581 1.937600 0.000000 0.000000 0.000000
0.011915 2.315907 1.934978 0.000000 0.000000 0.000000
0.007667 2.304287 1.934642 0.000000 0.000000 0.000000
0.008628 2.294439 1.926452 0.000000 0.000000 0.000000
0.331097 0.608742 1.506934 0.000000 0.000000 0.000000
0.013994 2.352331 1.940710 0.000000 0.000000 0.000000
-0.002378 2.343298 1.932464 0.000000 0.000000 0.000000
0.009986 2.324460 1.934986 0.000000 0.000000 0.000000
0.329908 0.625230 1.509496 0.000000 0.000000 0.000000
0.012338 2.337798 1.941905 0.000000 0.000000 0.000000
0.327024 0.634556 1.507662 0.000000 0.000000 0.000000
0.007922 2.290421 1.924006 0.000000 0.000000 0.000000
0.005430 2.342298 1.929824 0.000000 0.000000 0.000000
0.327923 0.623103 1.507233 0.000000 0.000000 0.000000
0.009834 2.296259 1.929422 0.000000 0.000000 0.000000
0.010843 2.322140 1.914731 0.000000 0.000000 0.000000
0.004056 2.302910 1.930750 0.000000 0.000000 0.000000
0.008833 2.288114 1.926042 0.000000 0.000000 0.000000
0.006490 2.281149 1.924173 0.000000 0.000000 0.000000
0.007647 2.286750 1.928369 0.000000 0.000000 0.000000
0.013545 2.318466 1.938646 0.000000 0.000000 0.000000
0.007171 2.305609 1.924060 0.000000 0.000000 0.000000
0.009326 2.286902 1.924317 0.000000 0.000000 0.000000
0.010014 2.355411 1.943535 0.000000 0.000000 0.000000
0.002819 2.321935 1.920397 0.000000 0.000000 0.000000
0.329748 0.624614 1.512769 0.000000 0.000000 0.000000
0.008626 2.356270 1.938594 0.000000 0.000000 0.000000
0.000928 2.310619 1.923527 0.000000 0.000000 0.000000
0.327075 0.606633 1.507143 0.000000 0.000000 0.000000
0.329729 0.607860 1.507637 0.000000 0.000000 0.000000
0.331492 0.615810 1.513533 0.000000 0.000000 0.000000
0.332900 0.616342 1.512411 0.000000 0.000000 0.000000
0.008397 2.292588 1.925398 0.000000 0.000000 0.000000
0.005429 2.305838 1.927614 0.000000 0.000000 0.000000
0.015127 2.332332 1.936663 0.000000 0.000000 0.000000
0.004364 2.313547 1.921643 0.000000 0.000000 0.000000
0.332050 0.600189 1.508328 0.000000 0.000000 0.000000
-0.003895 2.327832 1.924490 0.000000 0.000000 0.000000
-0.003566 2.339056 1.921454 0.000000 0.000000 0.000000
0.005757 2.298547 1.920120 0.000000 0.000000 0.000000
0.002230 2.311785 1.922737 0.000000 0.000000 0.000000
0.004316 2.296375 1.920648 0.000000 0.000000 0.000000
0.013115 2.312108 1.936967 0.000000 0.000000 0.000000
0.330200 0.626552 1.512009 0.000000 0.000000 0.000000
0.334809 0.617851 1.513261 0.000000 0.000000 0.000000
0.332709 0.624893 1.505060 0.000000 0.000000 0.000000
-0.006821 2.341855 1.917561 0.000000 0.000000 0.000000
0.331232 0.625778 1.509977 0.000000 0.000000 0.000000
0.324613 0.617445 1.501375 0.000000 0.000000 0.000000
0.331333 0.621868 1.511108 0.000000 0.000000 0.000000
0.329748 0.625491 1.512278 0.000000 0.000000 0.000000
0.331976 0.617105 1.504349 0.000000 0.000000 0.000000
0.328055 0.626414 1.510296 0.000000 0.000000 0.000000
0.331457 0.622776 1.511119 0.000000 0.000000 0.000000
0.331341 0.619174 1.502010 0.000000 0.000000 0.000000
0.003625 2.285027 1.921474 0.000000 0.000000 0.000000
0.002074 2.285671 1.922890 0.000000 0.000000 0.000000
0.332379 0.616373 1.503446 0.000000 0.000000 0.000000
0.007758 2.281259 1.924691 0.000000 0.000000 0.000000
0.328117 0.626531 1.509980 0.000000 0.000000 0.000000
0.005275 2.293004 1.920572 0.000000 0.000000 0.000000
0.329256 0.609749 1.504331 0.000000 0.000000 0.000000
0.005481 2.283430 1.923183 0.000000 0.000000 0.000000
0.006102 2.298675 1.921906 0.000000 0.000000 0.000000
0.005927 2.287020 1.925291 0.000000 0.000000 0.000000
0.008307 2.290386 1.927759 0.000000 0.000000 0.000000
0.002030 2.324248 1.920591 0.000000 0.000000 0.000000
0.326745 0.620368 1.510308 0.000000 0.000000 0.000000
0.008729 2.289627 1.920934 0.000000 0.000000 0.000000
0.330563 0.614798 1.508228 0.000000 0.000000 0.000000
-0.003390 2.342760 1.930593 0.000000 0.000000 0.000000
0.008718 2.299365 1.930177 0.000000 0.000000 0.000000
0.009032 2.285083 1.928008 0.000000 0.000000 0.000000
0.012907 2.328558 1.920715 0.000000 0.000000 0.000000
0.331725 0.606166 1.505619 0.000000 0.000000 0.000000
0.012944 2.323315 1.932528 0.000000 0.000000 0.000000
0.329996 0.604086 1.504215 0.000000 0.000000 0.000000
0.013347 2.304603 1.932563 0.000000 0.000000 0.000000
0.326683 0.612887 1.503234 0.000000 0.000000 0.000000
0.329255 0.628282 1.504886 0.000000 0.000000 0.000000
0.327160 0.607447 1.508589 0.000000 0.000000 0.000000
0.332095 0.604681 1.508466 0.000000 0.000000 0.000000
0.327297 0.624856 1.509055 0.000000 0.000000 0.000000
0.327946 0.624705 1.511181 0.000000 0.000000 0.000000
0.331498 0.628506 1.506435 0.000000 0.000000 0.000000
0.328499 0.626639 1.508082 0.000000 0.000000 0.000000
0.328730 0.612418 1.501940 0.000000 0.000000 0.000000
0.330554 0.610897 1.503937 0.000000 0.000000 0.000000
0.008095 2.282702 1.928922 0.000000 0.000000 0.000000
-0.008880 2.359500 1.923371 0.000000 0.000000 0.000000
0.000379 2.331380 1.922497 0.000000 0.000000 0.000000
0.331612 0.616892 1.515736 0.000000 0.000000 0.000000
0.336485 0.611332 1.509843 0.000000 0.000000 0.000000
0.333372 0.611703 1.509947 0.000000 0.000000 0.000000
0.330014 0.628662 1.507589 0.000000 0.000000 0.000000
0.332184 0.606857 1.507091 0.000000 0.000000 0.000000
0.329417 0.618996 1.503196 0.000000 0.000000 0.000000
0.327921 0.624634 1.509614 0.000000 0.000000 0.000000
0.330472 0.613445 1.509300 0.000000 0.000000 0.000000
0.331938 0.618750 1.505399 0.000000 0.000000 0.000000
0.011207 2.284028 1.923830 0.000000 0.000000 0.000000
0.324801 0.629336 1.509741 0.000000 0.000000 0.000000
0.015737 2.347859 1.943881 0.000000 0.000000 0.000000
0.332834 0.601752 1.509807 0.000000 0.000000 0.000000
0.014882 2.345553 1.941126 0.000000 0.000000 0.000000
0.013433 2.348094 1.944721 0.000000 0.000000 0.000000
0.329755 0.614803 1.512108 0.000000 0.000000 0.000000
0.333574 0.608138 1.510243 0.000000 0.000000 0.000000
0.328520 0.604820 1.513970 0.000000 0.000000 0.000000
0.327071 0.626341 1.505345 0.000000 0.000000 0.000000
0.326155 0.624658 1.510764 0.000000 0.000000 0.000000
0.331240 0.611652 1.509750 0.000000 0.000000 0.000000
0.329026 0.616493 1.511471 0.000000 0.000000 0.000000
0.332216 0.617561 1.505076 0.000000 0.000000 0.000000
0.327026 0.632196 1.506908 0.000000 0.000000 0.000000
0.327466 0.604090 1.502448 0.000000 0.000000 0.000000
0.323514 0.620877 1.509379 0.000000 0.000000 0.000000
0.003673 2.307946 1.924756 0.000000 0.000000 0.000000
0.327451 0.630544 1.505594 0.000000 0.000000 0.000000
-0.007955 2.335907 1.923165 0.000000 0.000000 0.000000
-0.007330 2.333522 1.918348 0.000000 0.000000 0.000000
0.326880 0.612039 1.508152 0.000000 0.000000 0.000000
0.010777 2.290000 1.930894 0.000000 0.000000 0.000000
0.327486 0.607729 1.516107 0.000000 0.000000 0.000000
0.326081 0.621659 1.507778 0.000000 0.000000 0.000000
0.005852 2.338858 1.940221 0.000000 0.000000 0.000000
0.331494 0.610943 1.508082 0.000000 0.000000 0.000000
0.016495 2.359339 1.947168 0.000000 0.000000 0.000000
0.013908 2.330816 1.940557 0.000000 0.000000 0.000000
0.014841 2.323771 1.940366 0.000000 0.000000 0.000000
0.330329 0.619888 1.505868 0.000000 0.000000 0.000000
0.328796 0.626355 1.505066 0.000000 0.000000 0.000000
0.331040 0.617213 1.513802 0.000000 0.000000 0.000000
0.321010 0.629104 1.507589 0.000000 0.000000 0.000000
0.327497 0.614606 1.510902 0.000000 0.000000 0.000000
0.324930 0.616916 1.503888 0.000000 0.000000 0.000000
0.326182 0.630109 1.505957 0.000000 0.000000 0.000000
0.327206 0.620431 1.505698 0.000000 0.000000 0.000000
0.332306 0.612864 1.504540 0.000000 0.000000 0.000000
0.004482 2.296446 1.922997 0.000000 0.000000 0.000000
0.329472 0.628495 1.506687 0.000000 0.000000 0.000000
0.328146 0.629776 1.499789 0.000000 0.000000 0.000000
0.001865 2.332977 1.928600 0.000000 0.000000 0.000000
0.015502 2.337762 1.942076 0.000000 0.000000 0.000000
0.003737 2.301990 1.926730 0.000000 0.000000 0.000000
0.016170 2.354242 1.946388 0.000000 0.000000 0.000000
0.331827 0.604612 1.509894 0.000000 0.000000 0.000000
0.009869 2.285520 1.927666 0.000000 0.000000 0.000000
0.013583 2.289008 1.920101 0.000000 0.000000 0.000000
0.323020 0.633416 1.502463 0.000000 0.000000 0.000000
0.326668 0.629451 1.506475 0.000000 0.000000 0.000000
0.014059 2.323184 1.938854 0.000000 0.000000 0.000000
0.015481 2.334850 1.941540 0.000000 0.000000 0.000000
-0.002415 2.322185 1.917267 0.000000 0.000000 0.000000
0.014319 2.327275 1.937860 0.000000 0.000000 0.000000
0.016130 2.335409 1.940229 0.000000 0.000000 0.000000
-0.004180 2.321615 1.918266 0.000000 0.000000 0.000000
0.393947 0.620856 1.514489 0.000000 0.000000 0.000000
0.389895 0.576274 1.470083 0.000000 0.000000 0.000000
0.388107 0.599188 1.481981 0.000000 0.000000 0.000000
0.383284 0.562524 1.457684 0.000000 0.000000 0.000000
0.398135 0.623209 1.500869 0.000000 0.000000 0.000000
0.402527 0.615569 1.493512 0.000000 0.000000 0.000000
0.382496 0.569290 1.475726 0.000000 0.000000 0.000000
0.393673 0.588910 1.475821 0.000000 0.000000 0.000000
0.386780 0.624249 1.499678 0.000000 0.000000 0.000000
0.382643 0.576561 1.476306 0.000000 0.000000 0.000000
0.398262 0.598525 1.482070 0.000000 0.000000 0.000000
0.387073 0.617344 1.490949 0.000000 0.000000 0.000000
0.393871 0.622529 1.499146 0.000000 0.000000 0.000000
0.379999 0.589251 1.465135 0.000000 0.000000 0.000000
0.404356 0.609665 1.503622 0.000000 0.000000 0.000000
0.376581 0.588996 1.475851 0.000000 0.000000 0.000000
0.388699 0.615850 1.487425 0.000000 0.000000 0.000000
0.385649 0.570177 1.477066 0.000000 0.000000 0.000000
0.402658 0.600552 1.493443 0.000000 0.000000 0.000000
0.395174 0.598115 1.490406 0.000000 0.000000 0.000000
0.386829 0.568711 1.471991 0.000000 0.000000 0.000000
0.394351 0.580926 1.471858 0.000000 0.000000 0.000000
0.386448 0.595546 1.489415 0.000000 0.000000 0.000000
0.396894 0.585330 1.467957 0.000000 0.000000 0.000000
0.395177 0.595832 1.480486 0.000000 0.000000 0.000000
0.376414 0.577863 1.453371 0.000000 0.000000 0.000000
0.385607 0.567397 1.463453 0.000000 0.000000 0.000000
0.383190 0.607629 1.487466 0.000000 0.000000 0.000000
0.389785 0.619040 1.495288 0.000000 0.000000 0.000000
0.387948 0.598361 1.484227 0.000000 0.000000 0.000000
0.400034 0.610796 1.491107 0.000000 0.000000 0.000000
0.398839 0.595423 1.482014 0.000000 0.000000 0.000000
0.376373 0.581640 1.466513 0.000000 0.000000 0.000000
0.376772 0.561646 1.467416 0.000000 0.000000 0.000000
0.379133 0.597673 1.483676 0.000000 0.000000 0.000000
0.394137 0.582078 1.463717 0.000000 0.000000 0.000000
0.375176 0.578616 1.473323 0.000000 0.000000 0.000000
0.377765 0.587113 1.468326 0.000000 0.000000 0.000000
0.378134 0.582130 1.473744 0.000000 0.000000 0.000000
0.387055 0.583423 1.486134 0.000000 0.000000 0.000000
0.383411 0.583568 1.479895 0.000000 0.000000 0.000000
0.381917 0.572234 1.471216 0.000000 0.000000 0.000000
0.384824 0.586133 1.480528 0.000000 0.000000 0.000000
0.399143 0.580918 1.484625 0.000000 0.000000 0.000000
0.378083 0.589629 1.462494 0.000000 0.000000 0.000000
0.384636 0.565595 1.474521 0.000000 0.000000 0.000000
0.396420 0.624594 1.511468 0.000000 0.000000 0.000000
0.380338 0.579982 1.477089 0.000000 0.000000 0.000000
0.375274 0.573337 1.461114 0.000000 0.000000 0.000000
0.385601 0.615912 1.494285 0.000000 0.000000 0.000000
0.383299 0.568810 1.467077 0.000000 0.000000 0.000000
0.374935 0.560641 1.464075 0.000000 0.000000 0.000000
0.398904 0.597953 1.483780 0.000000 0.000000 0.000000
0.385304 0.596770 1.487167 0.000000 0.000000 0.000000
0.390487 0.624871 1.509313 0.000000 0.000000 0.000000
0.395570 0.619234 1.498661 0.000000 0.000000 0.000000
0.389650 0.630037 1.505998 0.000000 0.000000 0.000000
0.387920 0.629297 1.505398 0.000000 0.000000 0.000000
0.390276 0.630242 1.509817 0.000000 0.000000 0.000000
0.393646 0.624709 1.499249 0.000000 0.000000 0.000000
0.391005 0.630542 1.506879 0.000000 0.000000 0.000000
0.389887 0.631817 1.512237 0.000000 0.000000 0.000000
0.377357 0.560962 1.457876 0.000000 0.000000 0.000000
0.373281 0.570140 1.463007 0.000000 0.000000 0.000000
0.371929 0.564436 1.465742 0.000000 0.000000 0.000000
0.402421 0.609082 1.493424 0.000000 0.000000 0.000000
0.393405 0.598915 1.490362 0.000000 0.000000 0.000000
0.396140 0.601141 1.491470 0.000000 0.000000 0.000000
0.392623 0.631579 1.516408 0.000000 0.000000 0.000000
0.380241 0.588855 1.482087 0.000000 0.000000 0.000000
0.373918 0.578946 1.472402 0.000000 0.000000 0.000000
0.398278 0.598861 1.480143 0.000000 0.000000 0.000000
0.365082 0.567650 1.465295 0.000000 0.000000 0.000000
0.382725 0.560106 1.464479 0.000000 0.000000 0.000000
0.396447 0.583185 1.475108 0.000000 0.000000 0.000000
0.399136 0.612756 1.499009 0.000000 0.000000 0.000000
0.389403 0.619771 1.517024 0.000000 0.000000 0.000000
0.373447 0.575990 1.458989 0.000000 0.000000 0.000000
0.367479 0.582477 1.476626 0.000000 0.000000 0.000000
0.392232 0.632497 1.515494 0.000000 0.000000 0.000000
0.393395 0.633568 1.517774 0.000000 0.000000 0.000000
0.387666 0.618385 1.499541 0.000000 0.000000 0.000000
0.395559 0.629261 1.510737 0.000000 0.000000 0.000000
0.397689 0.587502 1.480815 0.000000 0.000000 0.000000
0.392569 0.629467 1.506768 0.000000 0.000000 0.000000
0.380332 0.563094 1.466279 0.000000 0.000000 0.000000
0.383631 0.563239 1.476599 0.000000 0.000000 0.000000
0.393408 0.627866 1.504900 0.000000 0.000000 0.000000
0.383672 0.590317 1.480299 0.000000 0.000000 0.000000
0.395281 0.593106 1.477288 0.000000 0.000000 0.000000
0.393794 0.624961 1.506087 0.000000 0.000000 0.000000
0.389118 0.586805 1.482818 0.000000 0.000000 0.000000
0.395573 0.609920 1.490888 0.000000 0.000000 0.000000
0.381823 0.589101 1.466453 0.000000 0.000000 0.000000
0.395871 0.609523 1.485897 0.000000 0.000000 0.000000
0.391236 0.579464 1.474355 0.000000 0.000000 0.000000
0.374638 0.569232 1.458814 0.000000 0.000000 0.000000
0.388461 0.571782 1.475666 0.000000 0.000000 0.000000
0.397295 0.594955 1.485668 0.000000 0.000000 0.000000
0.397011 0.599200 1.482382 0.000000 0.000000 0.000000
0.392183 0.586355 1.473973 0.000000 0.000000 0.000000
0.393917 0.629339 1.511692 0.000000 0.000000 0.000000
0.385856 0.593801 1.479488 0.000000 0.000000 0.000000
0.394232 0.621106 1.494809 0.000000 0.000000 0.000000
0.389475 0.623797 1.498434 0.000000 0.000000 0.000000
0.390075 0.623789 1.495723 0.000000 0.000000 0.000000
0.393144 0.624412 1.505745 0.000000 0.000000 0.000000
0.391750 0.622726 1.506882 0.000000 0.000000 0.000000
0.392224 0.629044 1.506829 0.000000 0.000000 0.000000
0.392182 0.627347 1.503328 0.000000 0.000000 0.000000
0.384133 0.565621 1.462389 0.000000 0.000000 0.000000
0.384311 0.596363 1.481433 0.000000 0.000000 0.000000
0.382801 0.612754 1.489117 0.000000 0.000000 0.000000
0.390127 0.604054 1.482958 0.000000 0.000000 0.000000
0.383132 0.561354 1.463387 0.000000 0.000000 0.000000
0.374285 0.570057 1.464473 0.000000 0.000000 0.000000
0.386565 0.567191 1.471061 0.000000 0.000000 0.000000
0.392753 0.629306 1.507183 0.000000 0.000000 0.000000
0.386994 0.634445 1.494433 0.000000 0.000000 0.000000
0.375377 0.583499 1.472560 0.000000 0.000000 0.000000
0.397128 0.599028 1.486901 0.000000 0.000000 0.000000
0.388989 0.598133 1.486169 0.000000 0.000000 0.000000
0.382677 0.603305 1.488647 0.000000 0.000000 0.000000
0.387937 0.576498 1.472829 0.000000 0.000000 0.000000
0.392474 0.597388 1.482493 0.000000 0.000000 0.000000
0.395575 0.616670 1.492341 0.000000 0.000000 0.000000
0.388346 0.576552 1.477714 0.000000 0.000000 0.000000
0.375269 0.572900 1.461303 0.000000 0.000000 0.000000
0.379780 0.560258 1.464722 0.000000 0.000000 0.000000
0.368511 0.571646 1.472387 0.000000 0.000000 0.000000
0.374048 0.560887 1.459188 0.000000 0.000000 0.000000
0.397785 0.596711 1.482914 0.000000 0.000000 0.000000
0.397487 0.594327 1.480031 0.000000 0.000000 0.000000
0.394997 0.602605 1.485346 0.000000 0.000000 0.000000
0.402383 0.605818 1.488023 0.000000 0.000000 0.000000
0.375881 0.577716 1.461388 0.000000 0.000000 0.000000
0.397574 0.625084 1.507921 0.000000 0.000000 0.000000
0.377912 0.618818 1.504416 0.000000 0.000000 0.000000
0.377704 0.588898 1.475540 0.000000 0.000000 0.000000
0.395043 0.622839 1.507290 0.000000 0.000000 0.000000
0.387636 0.628921 1.496064 0.000000 0.000000 0.000000
0.386602 0.625598 1.491747 0.000000 0.000000 0.000000
0.381240 0.565631 1.461445 0.000000 0.000000 0.000000
0.385661 0.619058 1.491044 0.000000 0.000000 0.000000
0.399061 0.617010 1.504914 0.000000 0.000000 0.000000
0.379676 0.590611 1.476571 0.000000 0.000000 0.000000
0.397101 0.618364 1.493971 0.000000 0.000000 0.000000
0.384691 0.623250 1.497978 0.000000 0.000000 0.000000
0.389793 0.597199 1.483227 0.000000 0.000000 0.000000
0.375527 0.622079 1.501747 0.000000 0.000000 0.000000
0.380914 0.601204 1.490399 0.000000 0.000000 0.000000
0.388284 0.600078 1.484034 0.000000 0.000000 0.000000
0.389393 0.606918 1.486992 0.000000 0.000000 0.000000
0.381558 0.618432 1.494590 0.000000 0.000000 0.000000
0.379007 0.619764 1.499219 0.000000 0.000000 0.000000
0.391118 0.610219 1.488868 0.000000 0.000000 0.000000
0.384391 0.593387 1.481927 0.000000 0.000000 0.000000
0.385501 0.613494 1.493981 0.000000 0.000000 0.000000
0.382706 0.605318 1.476443 0.000000 0.000000 0.000000
0.384181 0.600188 1.483888 0.000000 0.000000 0.000000
0.395206 0.570576 1.474874 0.000000 0.000000 0.000000
0.389395 0.619460 1.494102 0.000000 0.000000 0.000000
0.379081 0.593071 1.481133 0.000000 0.000000 0.000000
0.394796 0.634375 1.513880 0.000000 0.000000 0.000000
0.391048 0.637273 1.503254 0.000000 0.000000 0.000000
0.384286 0.593333 1.479659 0.000000 0.000000 0.000000
0.393261 0.599913 1.491171 0.000000 0.000000 0.000000
0.377596 0.602154 1.480430 0.000000 0.000000 0.000000
0.396138 0.596634 1.489108 0.000000 0.000000 0.000000
0.376914 0.589223 1.473148 0.000000 0.000000 0.000000
0.391075 0.608006 1.487555 0.000000 0.000000 0.000000
0.384687 0.618160 1.489293 0.000000 0.000000 0.000000
0.376853 0.572527 1.475665 0.000000 0.000000 0.000000
0.387658 0.630933 1.507299 0.000000 0.000000 0.000000
0.391380 0.626395 1.501638 0.000000 0.000000 0.000000
0.384948 0.622177 1.495621 0.000000 0.000000 0.000000
0.378729 0.610192 1.477427 0.000000 0.000000 0.000000
0.394621 0.593746 1.485901 0.000000 0.000000 0.000000
0.375835 0.562981 1.462890 0.000000 0.000000 0.000000
0.386273 0.600122 1.485581 0.000000 0.000000 0.000000
0.382604 0.561824 1.458205 0.000000 0.000000 0.000000
0.384401 0.614920 1.485053 0.000000 0.000000 0.000000
0.378391 0.565063 1.455244 0.000000 0.000000 0.000000
0.397818 0.626760 1.509678 0.000000 0.000000 0.000000
0.385437 0.624174 1.498195 0.000000 0.000000 0.000000
0.380585 0.601645 1.476695 0.000000 0.000000 0.000000
0.389031 0.634474 1.509786 0.000000 0.000000 0.000000
0.383779 0.587999 1.478095 0.000000 0.000000 0.000000
0.378102 0.580197 1.471498 0.000000 0.000000 0.000000
0.381968 0.613608 1.487488 0.000000 0.000000 0.000000
0.377238 0.588319 1.474616 0.000000 0.000000 0.000000
0.388262 0.627936 1.509649 0.000000 0.000000 0.000000
0.385462 0.594937 1.472140 0.000000 0.000000 0.000000
0.384580 0.593763 1.481103 0.000000 0.000000 0.000000
0.383579 0.606107 1.486125 0.000000 0.000000 0.000000
0.382434 0.593541 1.475417 0.000000 0.000000 0.000000
0.385770 0.591782 1.475430 0.000000 0.000000 0.000000
0.385298 0.601950 1.486097 0.000000 0.000000 0.000000
0.398340 0.630350 1.505046 0.000000 0.000000 0.000000
0.387335 0.629869 1.504503 0.000000 0.000000 0.000000
0.394721 0.628459 1.513552 0.000000 0.000000 0.000000
0.386980 0.570837 1.472224 0.000000 0.000000 0.000000
0.389313 0.635849 1.504306 0.000000 0.000000 0.000000
0.395313 0.626080 1.507901 0.000000 0.000000 0.000000
0.381983 0.620180 1.493600 0.000000 0.000000 0.000000
0.392295 0.624947 1.503533 0.000000 0.000000 0.000000
0.390056 0.578974 1.476876 0.000000 0.000000 0.000000
0.390703 0.636928 1.518324 0.000000 0.000000 0.000000
0.404119 0.622687 1.495960 0.000000 0.000000 0.000000
0.394780 0.619834 1.501902 0.000000 0.000000 0.000000
0.390359 0.628419 1.505295 0.000000 0.000000 0.000000
0.376838 0.564650 1.465779 0.000000 0.000000 0.000000
0.374159 0.570319 1.460849 0.000000 0.000000 0.000000
0.399845 0.623436 1.493302 0.000000 0.000000 0.000000
0.384156 0.570809 1.474486 0.000000 0.000000 0.000000
0.382826 0.562073 1.462385 0.000000 0.000000 0.000000
0.391127 0.637064 1.505727 0.000000 0.000000 0.000000
0.384387 0.566888 1.472211 0.000000 0.000000 0.000000
0.396178 0.574974 1.483445 0.000000 0.000000 0.000000
0.399255 0.578690 1.466257 0.000000 0.000000 0.000000
0.400235 0.583472 1.470103 0.000000 0.000000 0.000000
0.375371 0.594712 1.481340 0.000000 0.000000 0.000000
0.381954 0.573735 1.476573 0.000000 0.000000 0.000000
0.392645 0.617461 1.494931 0.000000 0.000000 0.000000
0.387187 0.636915 1.503797 0.000000 0.000000 0.000000
0.391254 0.628369 1.518846 0.000000 0.000000 0.000000
0.392627 0.632311 1.516349 0.000000 0.000000 0.000000
0.394461 0.580453 1.470595 0.000000 0.000000 0.000000
0.396355 0.614499 1.509296 0.000000 0.000000 0.000000
0.371231 0.576029 1.472869 0.000000 0.000000 0.000000
0.396466 0.628512 1.511659 0.000000 0.000000 0.000000
0.394470 0.630882 1.516253 0.000000 0.000000 0.000000
0.375995 0.616691 1.493297 0.000000 0.000000 0.000000
0.396281 0.626632 1.514547 0.000000 0.000000 0.000000
0.391677 0.607486 1.473308 0.000000 0.000000 0.000000
0.390023 0.585108 1.483112 0.000000 0.000000 0.000000
0.386644 0.572356 1.470772 0.000000 0.000000 0.000000
0.396293 0.583379 1.472594 0.000000 0.000000 0.000000
0.382147 0.569614 1.468191 0.000000 0.000000 0.000000
0.387297 0.572284 1.473315 0.000000 0.000000 0.000000
0.390791 0.590106 1.481629 0.000000 0.000000 0.000000
0.389002 0.570245 1.464804 0.000000 0.000000 0.000000
0.388844 0.565656 1.461584 0.000000 0.000000 0.000000
0.386222 0.587041 1.475413 0.000000 0.000000 0.000000
0.391527 0.580770 1.478638 0.000000 0.000000 0.000000
0.377479 0.584715 1.475653 0.000000 0.000000 0.000000
0.404203 0.584404 1.477780 0.000000 0.000000 0.000000
0.399129 0.577630 1.469493 0.000000 0.000000 0.000000
0.391915 0.634426 1.519612 0.000000 0.000000 0.000000
0.393808 0.628774 1.515679 0.000000 0.000000 0.000000
0.375015 0.576644 1.462341 0.000000 0.000000 0.000000
0.400304 0.609141 1.493991 0.000000 0.000000 0.000000
0.394508 0.631720 1.517469 0.000000 0.000000 0.000000
0.392660 0.636577 1.516585 0.000000 0.000000 0.000000
0.374054 0.582761 1.469233 0.000000 0.000000 0.000000
0.386153 0.628089 1.503867 0.000000 0.000000 0.000000
0.401496 0.614649 1.490955 0.000000 0.000000 0.000000
0.377950 0.582131 1.463579 0.000000 0.000000 0.000000
0.393559 0.584433 1.478919 0.000000 0.000000 0.000000
0.402022 0.599715 1.486988 0.000000 0.000000 0.000000
0.386550 0.587829 1.486403 0.000000 0.000000 0.000000
0.385104 0.573063 1.462709 0.000000 0.000000 0.000000
0.398268 0.595233 1.478593 0.000000 0.000000 0.000000
0.392603 0.633149 1.517154 0.000000 0.000000 0.000000
0.392770 0.632050 1.517301 0.000000 0.000000 0.000000
0.383361 0.563817 1.465803 0.000000 0.000000 0.000000
0.393304 0.586733 1.490746 0.000000 0.000000 0.000000
0.394157 0.630258 1.516512 0.000000 0.000000 0.000000
0.393948 0.577150 1.483378 0.000000 0.000000 0.000000
0.393302 0.574268 1.478258 0.000000 0.000000 0.000000
0.392577 0.641558 1.508941 0.000000 0.000000 0.000000
0.374331 0.592316 1.485379 0.000000 0.000000 0.000000
0.375203 0.575711 1.466002 0.000000 0.000000 0.000000
0.392149 0.585116 1.482140 0.000000 0.000000 0.000000
0.398032 0.596309 1.479639 0.000000 0.000000 0.000000
0.393099 0.592115 1.481759 0.000000 0.000000 0.000000
0.402814 0.609524 1.490589 0.000000 0.000000 0.000000
0.374687 0.586433 1.476605 0.000000 0.000000 0.000000
0.388636 0.608051 1.492624 0.000000 0.000000 0.000000
0.398745 0.629849 1.511216 0.000000 0.000000 0.000000
0.403894 0.574544 1.469849 0.000000 0.000000 0.000000
0.374082 0.587780 1.475903 0.000000 0.000000 0.000000
0.397330 0.584201 1.475797 0.000000 0.000000 0.000000
0.385028 0.611046 1.480422 0.000000 0.000000 0.000000
0.382785 0.603321 1.484892 0.000000 0.000000 0.000000
0.391180 0.576784 1.475415 0.000000 0.000000 0.000000
0.395026 0.578692 1.471194 0.000000 0.000000 0.000000
0.390784 0.595575 1.484772 0.000000 0.000000 0.000000
0.385034 0.576752 1.485335 0.000000 0.000000 0.000000
0.381578 0.602509 1.483302 0.000000 0.000000 0.000000
0.385468 0.609332 1.486982 0.000000 0.000000 0.000000
0.383235 0.606719 1.485998 0.000000 0.000000 0.000000
0.402013 0.616464 1.495161 0.000000 0.000000 0.000000
0.392755 0.615810 1.494865 0.000000 0.000000 0.000000
0.382144 0.616891 1.493420 0.000000 0.000000 0.000000
0.392392 0.584465 1.487928 0.000000 0.000000 0.000000
0.375658 0.590669 1.482722 0.000000 0.000000 0.000000
0.390070 0.624306 1.485665 0.000000 0.000000 0.000000
0.389943 0.578149 1.476591 0.000000 0.000000 0.000000
0.378828 0.562876 1.463027 0.000000 0.000000 0.000000
0.398906 0.593392 1.479722 0.000000 0.000000 0.000000
0.392777 0.586703 1.475689 0.000000 0.000000 0.000000
0.392331 0.626153 1.487721 0.000000 0.000000 0.000000
0.371452 0.564715 1.463017 0.000000 0.000000 0.000000
0.397970 0.586170 1.473497 0.000000 0.000000 0.000000
0.379533 0.582535 1.472837 0.000000 0.000000 0.000000
0.380009 0.570666 1.473460 0.000000 0.000000 0.000000
0.377287 0.574761 1.467687 0.000000 0.000000 0.000000
0.374974 0.572200 1.465947 0.000000 0.000000 0.000000
0.381214 0.561356 1.463910 0.000000 0.000000 0.000000
0.375567 0.585533 1.461416 0.000000 0.000000 0.000000
0.376827 0.564556 1.463151 0.000000 0.000000 0.000000
0.393664 0.610812 1.493545 0.000000 0.000000 0.000000
0.388226 0.577112 1.484101 0.000000 0.000000 0.000000
0.382284 0.571634 1.472895 0.000000 0.000000 0.000000
0.379740 0.587210 1.468233 0.000000 0.000000 0.000000
0.378779 0.566861 1.465242 0.000000 0.000000 0.000000
0.393087 0.593061 1.489348 0.000000 0.000000 0.000000
0.386375 0.591709 1.483538 0.000000 0.000000 0.000000
0.376306 0.570736 1.468597 0.000000 0.000000 0.000000
0.375146 0.572234 1.463864 0.000000 0.000000 0.000000
0.380509 0.565110 1.467078 0.000000 0.000000 0.000000
0.401015 0.602545 1.482429 0.000000 0.000000 0.000000
0.376582 0.581115 1.470430 0.000000 0.000000 0.000000
0.382578 0.593154 1.466634 0.000000 0.000000 0.000000
0.378550 0.597510 1.483263 0.000000 0.000000 0.000000
0.378725 0.590965 1.472117 0.000000 0.000000 0.000000
0.372738 0.581515 1.476904 0.000000 0.000000 0.000000
0.385184 0.599155 1.470509 0.000000 0.000000 0.000000
0.398076 0.617747 1.501261 0.000000 0.000000 0.000000
0.382505 0.584245 1.475286 0.000000 0.000000 0.000000
0.382531 0.603930 1.472503 0.000000 0.000000 0.000000
0.392682 0.596272 1.490512 0.000000 0.000000 0.000000
0.404953 0.624624 1.502891 0.000000 0.000000 0.000000
0.377918 0.575549 1.472451 0.000000 0.000000 0.000000
0.403180 0.611875 1.493527 0.000000 0.000000 0.000000
0.384190 0.603018 1.484664 0.000000 0.000000 0.000000
0.380317 0.616278 1.493521 0.000000 0.000000 0.000000
0.409160 0.605434 1.492127 0.000000 0.000000 0.000000
0.383446 0.622016 1.498006 0.000000 0.000000 0.000000
0.400683 0.622463 1.499789 0.000000 0.000000 0.000000
0.374023 0.576876 1.469152 0.000000 0.000000 0.000000
0.373334 0.567624 1.465109 0.000000 0.000000 0.000000
0.400873 0.610150 1.493780 0.000000 0.000000 0.000000
0.378858 0.606901 1.484852 0.000000 0.000000 0.000000
0.378565 0.578536 1.474316 0.000000 0.000000 0.000000
0.399977 0.603137 1.487769 0.000000 0.000000 0.000000
0.379518 0.612390 1.491279 0.000000 0.000000 0.000000
0.376350 0.604832 1.490441 0.000000 0.000000 0.000000
0.380995 0.569713 1.472483 0.000000 0.000000 0.000000
0.376550 0.567423 1.460192 0.000000 0.000000 0.000000
0.369791 0.561097 1.462469 0.000000 0.000000 0.000000
0.378464 0.562487 1.460834 0.000000 0.000000 0.000000
0.373119 0.571117 1.465130 0.000000 0.000000 0.000000
0.377461 0.563776 1.465980 0.000000 0.000000 0.000000
0.374792 0.565009 1.460240 0.000000 0.000000 0.000000
0.374903 0.573422 1.457049 0.000000 0.000000 0.000000
0.388096 0.599259 1.478963 0.000000 0.000000 0.000000
0.374196 0.569099 1.469205 0.000000 0.000000 0.000000
0.395560 0.607346 1.488616 0.000000 0.000000 0.000000
0.400370 0.619447 1.494971 0.000000 0.000000 0.000000
0.385221 0.624592 1.490049 0.000000 0.000000 0.000000
0.395775 0.610543 1.502084 0.000000 0.000000 0.000000
0.387428 0.569356 1.471923 0.000000 0.000000 0.000000
0.389965 0.568453 1.464895 0.000000 0.000000 0.000000
0.380723 0.574210 1.471935 0.000000 0.000000 0.000000
0.387122 0.569649 1.469441 0.000000 0.000000 0.000000
0.378535 0.602533 1.484964 0.000000 0.000000 0.000000
0.393456 0.570980 1.465428 0.000000 0.000000 0.000000
0.393404 0.574250 1.466665 0.000000 0.000000 0.000000
0.388294 0.573839 1.464771 0.000000 0.000000 0.000000
0.385105 0.592295 1.463515 0.000000 0.000000 0.000000
0.389979 0.628492 1.513540 0.000000 0.000000 0.000000
0.393613 0.631210 1.511720 0.000000 0.000000 0.000000
0.385766 0.623726 1.496382 0.000000 0.000000 0.000000
0.397625 0.621036 1.504052 0.000000 0.000000 0.000000
0.393331 0.610979 1.501588 0.000000 0.000000 0.000000
0.390614 0.636161 1.512572 0.000000 0.000000 0.000000
0.392173 0.635386 1.514447 0.000000 0.000000 0.000000
0.395375 0.570089 1.463075 0.000000 0.000000 0.000000
0.394569 0.576821 1.469217 0.000000 0.000000 0.000000
0.398238 0.602911 1.482913 0.000000 0.000000 0.000000
0.390001 0.569367 1.476587 0.000000 0.000000 0.000000
0.402124 0.603557 1.483128 0.000000 0.000000 0.000000
0.401420 0.609476 1.489132 0.000000 0.000000 0.000000
0.386218 0.566612 1.461102 0.000000 0.000000 0.000000
0.400252 0.599629 1.481537 0.000000 0.000000 0.000000
0.403169 0.608494 1.486790 0.000000 0.000000 0.000000
0.392307 0.633855 1.512326 0.000000 0.000000 0.000000
0.393878 0.628955 1.511053 0.000000 0.000000 0.000000
0.389711 0.614500 1.500130 0.000000 0.000000 0.000000
0.391006 0.633046 1.519967 0.000000 0.000000 0.000000
0.395204 0.631313 1.513535 0.000000 0.000000 0.000000
0.395443 0.601420 1.494010 0.000000 0.000000 0.000000
0.392741 0.631868 1.515770 0.000000 0.000000 0.000000
0.405437 0.599689 1.483198 0.000000 0.000000 0.000000
0.400887 0.635775 1.511315 0.000000 0.000000 0.000000
0.394642 0.569204 1.478689 0.000000 0.000000 0.000000
0.399492 0.612365 1.492028 0.000000 0.000000 0.000000
0.386121 0.563817 1.478394 0.000000 0.000000 0.000000
0.395867 0.627369 1.511591 0.000000 0.000000 0.000000
0.377577 0.560608 1.471922 0.000000 0.000000 0.000000
0.393391 0.628855 1.512959 0.000000 0.000000 0.000000
0.396253 0.632890 1.515270 0.000000 0.000000 0.000000
0.395900 0.629002 1.513535 0.000000 0.000000 0.000000
0.396452 0.622575 1.506775 0.000000 0.000000 0.000000
0.397569 0.623346 1.506682 0.000000 0.000000 0.000000
0.390219 0.571724 1.467178 0.000000 0.000000 0.000000
0.395044 0.576463 1.468096 0.000000 0.000000 0.000000
0.377876 0.571721 1.455870 0.000000 0.000000 0.000000
0.394798 0.629904 1.511776 0.000000 0.000000 0.000000
0.391022 0.626494 1.522166 0.000000 0.000000 0.000000
0.394851 0.627955 1.510294 0.000000 0.000000 0.000000
0.371758 0.581751 1.474939 0.000000 0.000000 0.000000
0.405279 0.618208 1.494564 0.000000 0.000000 0.000000
0.403245 0.608974 1.488418 0.000000 0.000000 0.000000
0.391994 0.594301 1.488811 0.000000 0.000000 0.000000
0.383568 0.613087 1.490632 0.000000 0.000000 0.000000
0.379842 0.598507 1.480746 0.000000 0.000000 0.000000
0.386767 0.620915 1.497248 0.000000 0.000000 0.000000
0.383658 0.617615 1.494148 0.000000 0.000000 0.000000
0.378663 0.605117 1.470561 0.000000 0.000000 0.000000
0.383173 0.613986 1.498054 0.000000 0.000000 0.000000
0.368896 0.569218 1.467086 0.000000 0.000000 0.000000
0.396457 0.607254 1.483008 0.000000 0.000000 0.000000
0.398678 0.616784 1.487847 0.000000 0.000000 0.000000
0.371564 0.599190 1.483305 0.000000 0.000000 0.000000
0.381606 0.625972 1.502656 0.000000 0.000000 0.000000
0.386153 0.615826 1.478899 0.000000 0.000000 0.000000
0.381337 0.614962 1.491415 0.000000 0.000000 0.000000
0.398150 0.607212 1.486212 0.000000 0.000000 0.000000
0.404159 0.615271 1.490293 0.000000 0.000000 0.000000
0.384261 0.624040 1.497777 0.000000 0.000000 0.000000
0.392589 0.612932 1.491775 0.000000 0.000000 0.000000
0.377843 0.611461 1.489919 0.000000 0.000000 0.000000
0.385277 0.631158 1.493419 0.000000 0.000000 0.000000
0.375227 0.570316 1.458328 0.000000 0.000000 0.000000
0.396056 0.615873 1.494974 0.000000 0.000000 0.000000
0.392370 0.621511 1.492702 0.000000 0.000000 0.000000
0.386359 0.627016 1.498134 0.000000 0.000000 0.000000
0.383543 0.564918 1.460395 0.000000 0.000000 0.000000
0.388037 0.630331 1.491405 0.000000 0.000000 0.000000
0.387919 0.569144 1.476792 0.000000 0.000000 0.000000
0.401816 0.610683 1.496776 0.000000 0.000000 0.000000
0.390862 0.580643 1.484869 0.000000 0.000000 0.000000
0.394516 0.602686 1.492359 0.000000 0.000000 0.000000
0.398128 0.610870 1.496822 0.000000 0.000000 0.000000
0.384373 0.607113 1.488088 0.000000 0.000000 0.000000
0.390699 0.607139 1.498782 0.000000 0.000000 0.000000
0.394418 0.607817 1.493340 0.000000 0.000000 0.000000
0.394367 0.593295 1.498431 0.000000 0.000000 0.000000
0.393052 0.606502 1.496231 0.000000 0.000000 0.000000
0.388009 0.605861 1.490914 0.000000 0.000000 0.000000
0.397481 0.606786 1.492470 0.000000 0.000000 0.000000
0.398103 0.605413 1.500432 0.000000 0.000000 0.000000
0.393363 0.584379 1.478523 0.000000 0.000000 0.000000
0.391835 0.634863 1.512173 0.000000 0.000000 0.000000
0.392293 0.596008 1.486265 0.000000 0.000000 0.000000
0.388637 0.632626 1.509536 0.000000 0.000000 0.000000
0.389977 0.587541 1.482238 0.000000 0.000000 0.000000
0.391358 0.595681 1.487747 0.000000 0.000000 0.000000
0.383213 0.615873 1.490620 0.000000 0.000000 0.000000
0.399846 0.593376 1.479520 0.000000 0.000000 0.000000
0.392254 0.583616 1.482965 0.000000 0.000000 0.000000
0.386772 0.592139 1.477582 0.000000 0.000000 0.000000
0.387172 0.619132 1.484725 0.000000 0.000000 0.000000
0.400218 0.591400 1.479420 0.000000 0.000000 0.000000
0.384710 0.561342 1.473230 0.000000 0.000000 0.000000
0.388218 0.619836 1.505714 0.000000 0.000000 0.000000
0.387605 0.615741 1.515850 0.000000 0.000000 0.000000
