ply
format ascii 1.0
comment VCGLIB generated
obj_info Generated by SPFormer!
element vertex 862
property float x
property float y
property float z
property float nx
property float ny
property float nz
end_header
0.891650 -1.011447 1.437817 0.000000 0.000000 0.000000
0.856365 -1.003143 1.439529 0.000000 0.000000 0.000000
0.900511 -1.003268 1.424380 0.000000 0.000000 0.000000
0.882813 -1.000845 1.434442 0.000000 0.000000 0.000000
0.877803 -1.003450 1.437534 0.000000 0.000000 0.000000
0.881678 -1.004318 1.438069 0.000000 0.000000 0.000000
0.861752 -1.002300 1.439087 0.000000 0.000000 0.000000
0.843326 -1.003993 1.439408 0.000000 0.000000 0.000000
0.857024 -1.004698 1.439173 0.000000 0.000000 0.000000
0.897867 -1.004849 1.438261 0.000000 0.000000 0.000000
0.885227 -1.005355 1.439313 0.000000 0.000000 0.000000
0.871624 -1.001708 1.437926 0.000000 0.000000 0.000000
0.853958 -1.004954 1.439444 0.000000 0.000000 0.000000
0.898062 -1.006778 1.431978 0.000000 0.000000 0.000000
0.880381 -1.005662 1.439029 0.000000 0.000000 0.000000
0.905795 -1.006865 1.436849 0.000000 0.000000 0.000000
0.843760 -1.005536 1.438468 0.000000 0.000000 0.000000
0.867894 -1.006270 1.434579 0.000000 0.000000 0.000000
0.883518 -1.003865 1.439467 0.000000 0.000000 0.000000
0.864811 -1.000272 1.437717 0.000000 0.000000 0.000000
0.884427 -1.003915 1.439408 0.000000 0.000000 0.000000
0.855330 -1.000653 1.438568 0.000000 0.000000 0.000000
0.890065 -1.008136 1.437927 0.000000 0.000000 0.000000
0.897538 -1.004430 1.439593 0.000000 0.000000 0.000000
0.876107 -1.005194 1.436227 0.000000 0.000000 0.000000
0.863216 -1.003327 1.437602 0.000000 0.000000 0.000000
0.881588 -1.003706 1.438642 0.000000 0.000000 0.000000
0.883150 -1.005745 1.437913 0.000000 0.000000 0.000000
0.845715 -1.000554 1.439723 0.000000 0.000000 0.000000
0.888375 -1.003948 1.437790 0.000000 0.000000 0.000000
0.889940 -1.004964 1.438205 0.000000 0.000000 0.000000
0.848973 -1.002190 1.438066 0.000000 0.000000 0.000000
0.887197 -1.005676 1.439174 0.000000 0.000000 0.000000
0.847570 -1.003157 1.439599 0.000000 0.000000 0.000000
0.874141 -1.005061 1.438415 0.000000 0.000000 0.000000
0.884134 -1.004211 1.435203 0.000000 0.000000 0.000000
0.890648 -1.006425 1.438480 0.000000 0.000000 0.000000
0.890704 -1.004428 1.436029 0.000000 0.000000 0.000000
0.861738 -1.005195 1.439700 0.000000 0.000000 0.000000
0.867335 -1.004480 1.438284 0.000000 0.000000 0.000000
0.862093 -1.003945 1.437066 0.000000 0.000000 0.000000
0.872750 -1.000460 1.439770 0.000000 0.000000 0.000000
0.854547 -1.003723 1.439471 0.000000 0.000000 0.000000
0.867410 -1.003533 1.439301 0.000000 0.000000 0.000000
0.872666 -1.004696 1.437321 0.000000 0.000000 0.000000
0.882350 -1.009124 1.438065 0.000000 0.000000 0.000000
0.882173 -1.006214 1.437147 0.000000 0.000000 0.000000
0.873788 -1.003102 1.436239 0.000000 0.000000 0.000000
0.870287 -1.010787 1.439833 0.000000 0.000000 0.000000
0.896441 -1.002376 1.434375 0.000000 0.000000 0.000000
0.875831 -1.007333 1.435300 0.000000 0.000000 0.000000
0.882562 -1.003785 1.437625 0.000000 0.000000 0.000000
0.888397 -1.000987 1.436664 0.000000 0.000000 0.000000
1.497341 -1.420949 1.307235 0.000000 0.000000 0.000000
1.508911 -1.354270 1.332120 0.000000 0.000000 0.000000
1.569462 -1.305419 1.391732 0.000000 0.000000 0.000000
1.563528 -1.325706 1.406286 0.000000 0.000000 0.000000
1.477226 -1.398323 1.362282 0.000000 0.000000 0.000000
1.516869 -1.380084 1.340189 0.000000 0.000000 0.000000
1.573574 -1.330238 1.418237 0.000000 0.000000 0.000000
1.607500 -1.393833 1.389319 0.000000 0.000000 0.000000
1.521047 -1.392899 1.339759 0.000000 0.000000 0.000000
1.581852 -1.329913 1.387009 0.000000 0.000000 0.000000
1.508413 -1.389391 1.315369 0.000000 0.000000 0.000000
1.535600 -1.391104 1.428045 0.000000 0.000000 0.000000
1.620925 -1.389650 1.377610 0.000000 0.000000 0.000000
1.541853 -1.419613 1.318754 0.000000 0.000000 0.000000
1.551545 -1.362030 1.396390 0.000000 0.000000 0.000000
1.574613 -1.343924 1.398084 0.000000 0.000000 0.000000
1.548598 -1.356936 1.424787 0.000000 0.000000 0.000000
1.495149 -1.361577 1.352564 0.000000 0.000000 0.000000
1.583682 -1.329046 1.388028 0.000000 0.000000 0.000000
1.505836 -1.375383 1.314574 0.000000 0.000000 0.000000
1.579889 -1.323167 1.386453 0.000000 0.000000 0.000000
1.514406 -1.350385 1.378829 0.000000 0.000000 0.000000
1.558639 -1.316767 1.400872 0.000000 0.000000 0.000000
1.566778 -1.339507 1.398284 0.000000 0.000000 0.000000
1.506287 -1.362512 1.325105 0.000000 0.000000 0.000000
1.483660 -1.389835 1.340231 0.000000 0.000000 0.000000
1.496248 -1.414242 1.361954 0.000000 0.000000 0.000000
1.575301 -1.326714 1.426973 0.000000 0.000000 0.000000
1.574689 -1.317942 1.387475 0.000000 0.000000 0.000000
1.556957 -1.359516 1.413670 0.000000 0.000000 0.000000
1.583407 -1.335095 1.392497 0.000000 0.000000 0.000000
1.483982 -1.386209 1.345217 0.000000 0.000000 0.000000
1.364390 -1.439076 1.272362 0.000000 0.000000 0.000000
1.579018 -1.374935 1.425607 0.000000 0.000000 0.000000
1.539098 -1.364911 1.355012 0.000000 0.000000 0.000000
1.546180 -1.356588 1.358350 0.000000 0.000000 0.000000
1.543183 -1.361884 1.372006 0.000000 0.000000 0.000000
1.336358 -1.429248 1.294140 0.000000 0.000000 0.000000
1.545809 -1.371224 1.396079 0.000000 0.000000 0.000000
1.564041 -1.358014 1.403117 0.000000 0.000000 0.000000
1.556355 -1.323210 1.398403 0.000000 0.000000 0.000000
1.573938 -1.388920 1.394652 0.000000 0.000000 0.000000
1.549140 -1.370411 1.404933 0.000000 0.000000 0.000000
1.557979 -1.302412 1.401057 0.000000 0.000000 0.000000
1.599001 -1.300560 1.417887 0.000000 0.000000 0.000000
1.510690 -1.367100 1.320975 0.000000 0.000000 0.000000
1.516818 -1.354656 1.333839 0.000000 0.000000 0.000000
1.527338 -1.395152 1.344751 0.000000 0.000000 0.000000
1.531736 -1.364474 1.402999 0.000000 0.000000 0.000000
1.585587 -1.340914 1.390045 0.000000 0.000000 0.000000
1.511200 -1.351151 1.330226 0.000000 0.000000 0.000000
1.485821 -1.419667 1.307461 0.000000 0.000000 0.000000
1.577329 -1.385262 1.400886 0.000000 0.000000 0.000000
1.577153 -1.353631 1.429808 0.000000 0.000000 0.000000
1.581141 -1.324885 1.392762 0.000000 0.000000 0.000000
1.540441 -1.362684 1.356543 0.000000 0.000000 0.000000
1.553656 -1.344710 1.393931 0.000000 0.000000 0.000000
1.568984 -1.308880 1.391235 0.000000 0.000000 0.000000
1.500342 -1.407495 1.315926 0.000000 0.000000 0.000000
1.557197 -1.325962 1.404207 0.000000 0.000000 0.000000
1.555538 -1.336818 1.404164 0.000000 0.000000 0.000000
1.532706 -1.378970 1.370405 0.000000 0.000000 0.000000
1.544640 -1.367855 1.398374 0.000000 0.000000 0.000000
1.561009 -1.396679 1.362207 0.000000 0.000000 0.000000
1.358873 -1.428841 1.281652 0.000000 0.000000 0.000000
1.556599 -1.360742 1.399086 0.000000 0.000000 0.000000
1.524347 -1.373113 1.348927 0.000000 0.000000 0.000000
1.530995 -1.353304 1.396898 0.000000 0.000000 0.000000
1.535364 -1.356434 1.388654 0.000000 0.000000 0.000000
1.489083 -1.400151 1.317577 0.000000 0.000000 0.000000
1.625721 -1.386683 1.385879 0.000000 0.000000 0.000000
1.345462 -1.437339 1.285249 0.000000 0.000000 0.000000
1.620353 -1.386455 1.390767 0.000000 0.000000 0.000000
1.583152 -1.330343 1.432750 0.000000 0.000000 0.000000
1.502104 -1.355317 1.371127 0.000000 0.000000 0.000000
1.608407 -1.398069 1.364537 0.000000 0.000000 0.000000
1.622890 -1.398141 1.392673 0.000000 0.000000 0.000000
1.598006 -1.389336 1.391131 0.000000 0.000000 0.000000
1.614194 -1.394497 1.367841 0.000000 0.000000 0.000000
1.594737 -1.361912 1.418895 0.000000 0.000000 0.000000
1.572593 -1.350616 1.395679 0.000000 0.000000 0.000000
1.540059 -1.358798 1.359574 0.000000 0.000000 0.000000
1.598078 -1.286502 1.422518 0.000000 0.000000 0.000000
1.577553 -1.397734 1.372371 0.000000 0.000000 0.000000
1.340111 -1.436362 1.268009 0.000000 0.000000 0.000000
1.525044 -1.399025 1.333192 0.000000 0.000000 0.000000
1.507926 -1.411045 1.316959 0.000000 0.000000 0.000000
1.514935 -1.370007 1.395038 0.000000 0.000000 0.000000
1.539268 -1.364203 1.352076 0.000000 0.000000 0.000000
1.549126 -1.372953 1.417554 0.000000 0.000000 0.000000
1.534751 -1.392366 1.344482 0.000000 0.000000 0.000000
1.577043 -1.336987 1.427061 0.000000 0.000000 0.000000
1.556084 -1.346671 1.390541 0.000000 0.000000 0.000000
1.555670 -1.389067 1.382954 0.000000 0.000000 0.000000
1.376672 -1.438750 1.254916 0.000000 0.000000 0.000000
1.511416 -1.360031 1.331819 0.000000 0.000000 0.000000
1.585995 -1.332099 1.415453 0.000000 0.000000 0.000000
1.504903 -1.361494 1.380396 0.000000 0.000000 0.000000
1.579551 -1.319529 1.382393 0.000000 0.000000 0.000000
1.537169 -1.362355 1.355805 0.000000 0.000000 0.000000
1.506601 -1.399325 1.313937 0.000000 0.000000 0.000000
1.498017 -1.400750 1.310470 0.000000 0.000000 0.000000
1.544789 -1.367760 1.368574 0.000000 0.000000 0.000000
1.376250 -1.439434 1.244317 0.000000 0.000000 0.000000
1.519139 -1.403302 1.317035 0.000000 0.000000 0.000000
1.507931 -1.363411 1.327328 0.000000 0.000000 0.000000
1.391291 -1.429270 1.278528 0.000000 0.000000 0.000000
1.516701 -1.326829 1.375412 0.000000 0.000000 0.000000
1.569981 -1.337150 1.421334 0.000000 0.000000 0.000000
1.591749 -1.372847 1.407080 0.000000 0.000000 0.000000
1.524248 -1.373353 1.345515 0.000000 0.000000 0.000000
1.578794 -1.321833 1.397134 0.000000 0.000000 0.000000
1.579536 -1.334507 1.396023 0.000000 0.000000 0.000000
1.597466 -1.386968 1.374864 0.000000 0.000000 0.000000
1.377748 -1.438565 1.268752 0.000000 0.000000 0.000000
1.521948 -1.351470 1.405239 0.000000 0.000000 0.000000
1.587722 -1.399324 1.372986 0.000000 0.000000 0.000000
1.582117 -1.338202 1.392277 0.000000 0.000000 0.000000
1.480965 -1.391593 1.347325 0.000000 0.000000 0.000000
1.546917 -1.381512 1.351708 0.000000 0.000000 0.000000
1.521323 -1.350488 1.411902 0.000000 0.000000 0.000000
1.618366 -1.387363 1.385329 0.000000 0.000000 0.000000
1.384944 -1.436020 1.252153 0.000000 0.000000 0.000000
1.616970 -1.396523 1.384761 0.000000 0.000000 0.000000
1.533877 -1.369629 1.420490 0.000000 0.000000 0.000000
1.570087 -1.339676 1.395304 0.000000 0.000000 0.000000
1.554368 -1.379912 1.363136 0.000000 0.000000 0.000000
1.596796 -1.387086 1.379471 0.000000 0.000000 0.000000
1.486341 -1.429980 1.312818 0.000000 0.000000 0.000000
1.352614 -1.434314 1.280552 0.000000 0.000000 0.000000
1.519479 -1.405063 1.314326 0.000000 0.000000 0.000000
1.502134 -1.417508 1.308101 0.000000 0.000000 0.000000
1.509637 -1.391086 1.329583 0.000000 0.000000 0.000000
1.610607 -1.396172 1.374703 0.000000 0.000000 0.000000
1.577104 -1.335241 1.391655 0.000000 0.000000 0.000000
1.518314 -1.365997 1.333068 0.000000 0.000000 0.000000
1.515624 -1.402786 1.310294 0.000000 0.000000 0.000000
1.598444 -1.399011 1.385226 0.000000 0.000000 0.000000
1.495888 -1.357416 1.354703 0.000000 0.000000 0.000000
1.569106 -1.360658 1.436689 0.000000 0.000000 0.000000
1.561352 -1.366631 1.426649 0.000000 0.000000 0.000000
1.569703 -1.368673 1.380019 0.000000 0.000000 0.000000
1.516994 -1.371213 1.334718 0.000000 0.000000 0.000000
1.515158 -1.357802 1.329860 0.000000 0.000000 0.000000
1.527212 -1.352337 1.412576 0.000000 0.000000 0.000000
1.507101 -1.373132 1.338189 0.000000 0.000000 0.000000
1.571517 -1.336560 1.396038 0.000000 0.000000 0.000000
1.559034 -1.377846 1.362800 0.000000 0.000000 0.000000
1.602464 -1.291159 1.412570 0.000000 0.000000 0.000000
1.562657 -1.331405 1.408440 0.000000 0.000000 0.000000
1.516274 -1.372270 1.333532 0.000000 0.000000 0.000000
1.528392 -1.386183 1.378552 0.000000 0.000000 0.000000
1.510973 -1.385484 1.337297 0.000000 0.000000 0.000000
1.514205 -1.405007 1.315217 0.000000 0.000000 0.000000
1.513331 -1.362459 1.323022 0.000000 0.000000 0.000000
1.604747 -1.282778 1.411948 0.000000 0.000000 0.000000
1.544928 -1.391797 1.400361 0.000000 0.000000 0.000000
1.572804 -1.354027 1.413616 0.000000 0.000000 0.000000
1.572321 -1.342677 1.415092 0.000000 0.000000 0.000000
1.637538 -1.385664 1.395546 0.000000 0.000000 0.000000
1.494526 -1.384238 1.327338 0.000000 0.000000 0.000000
1.505664 -1.364427 1.323066 0.000000 0.000000 0.000000
1.519750 -1.411316 1.318038 0.000000 0.000000 0.000000
1.503481 -1.395539 1.329426 0.000000 0.000000 0.000000
1.491811 -1.399970 1.319953 0.000000 0.000000 0.000000
1.515941 -1.404950 1.316193 0.000000 0.000000 0.000000
1.604860 -1.290136 1.410155 0.000000 0.000000 0.000000
1.489404 -1.388019 1.322503 0.000000 0.000000 0.000000
1.532630 -1.364355 1.365867 0.000000 0.000000 0.000000
1.507024 -1.353750 1.368210 0.000000 0.000000 0.000000
1.626306 -1.386769 1.390282 0.000000 0.000000 0.000000
1.572294 -1.321941 1.402174 0.000000 0.000000 0.000000
1.509399 -1.398260 1.316366 0.000000 0.000000 0.000000
1.574250 -1.342072 1.405197 0.000000 0.000000 0.000000
1.575374 -1.336473 1.395878 0.000000 0.000000 0.000000
1.577151 -1.328945 1.397088 0.000000 0.000000 0.000000
1.619032 -1.392459 1.386862 0.000000 0.000000 0.000000
1.574448 -1.361168 1.399632 0.000000 0.000000 0.000000
1.596832 -1.378426 1.397163 0.000000 0.000000 0.000000
1.577078 -1.386926 1.344061 0.000000 0.000000 0.000000
1.497952 -1.403864 1.314522 0.000000 0.000000 0.000000
1.502524 -1.354944 1.361914 0.000000 0.000000 0.000000
1.495408 -1.402010 1.304870 0.000000 0.000000 0.000000
1.556229 -1.328671 1.404143 0.000000 0.000000 0.000000
1.499402 -1.384279 1.321570 0.000000 0.000000 0.000000
1.516155 -1.393357 1.354911 0.000000 0.000000 0.000000
1.560890 -1.312928 1.396992 0.000000 0.000000 0.000000
1.493390 -1.390125 1.325068 0.000000 0.000000 0.000000
1.507412 -1.386849 1.363874 0.000000 0.000000 0.000000
1.495052 -1.364880 1.372506 0.000000 0.000000 0.000000
1.602560 -1.371038 1.398192 0.000000 0.000000 0.000000
1.529120 -1.369555 1.360018 0.000000 0.000000 0.000000
1.509560 -1.348998 1.338248 0.000000 0.000000 0.000000
1.524137 -1.378798 1.373383 0.000000 0.000000 0.000000
1.535672 -1.364228 1.361150 0.000000 0.000000 0.000000
1.518582 -1.356909 1.334734 0.000000 0.000000 0.000000
1.553312 -1.359847 1.394529 0.000000 0.000000 0.000000
1.603176 -1.308275 1.408435 0.000000 0.000000 0.000000
1.543818 -1.378611 1.410538 0.000000 0.000000 0.000000
1.498902 -1.384414 1.321146 0.000000 0.000000 0.000000
1.503119 -1.393900 1.319071 0.000000 0.000000 0.000000
1.509867 -1.355209 1.355991 0.000000 0.000000 0.000000
1.482525 -1.378466 1.310260 0.000000 0.000000 0.000000
1.541632 -1.345869 1.392637 0.000000 0.000000 0.000000
1.579656 -1.375563 1.419922 0.000000 0.000000 0.000000
1.560829 -1.361926 1.409823 0.000000 0.000000 0.000000
1.576738 -1.341359 1.407700 0.000000 0.000000 0.000000
1.507287 -1.357821 1.365959 0.000000 0.000000 0.000000
1.503526 -1.350786 1.361224 0.000000 0.000000 0.000000
1.584029 -1.341990 1.399992 0.000000 0.000000 0.000000
1.490595 -1.400333 1.307629 0.000000 0.000000 0.000000
1.634288 -1.383821 1.398848 0.000000 0.000000 0.000000
1.495196 -1.358066 1.366506 0.000000 0.000000 0.000000
1.501718 -1.365087 1.334531 0.000000 0.000000 0.000000
1.565729 -1.337114 1.399312 0.000000 0.000000 0.000000
1.504831 -1.390970 1.319206 0.000000 0.000000 0.000000
1.518140 -1.373767 1.335842 0.000000 0.000000 0.000000
1.626396 -1.388866 1.391033 0.000000 0.000000 0.000000
1.486810 -1.410296 1.310501 0.000000 0.000000 0.000000
1.486541 -1.387001 1.325423 0.000000 0.000000 0.000000
1.481883 -1.394057 1.311434 0.000000 0.000000 0.000000
1.515759 -1.409015 1.316492 0.000000 0.000000 0.000000
1.487456 -1.401985 1.305249 0.000000 0.000000 0.000000
1.499587 -1.405587 1.311741 0.000000 0.000000 0.000000
1.524743 -1.406936 1.315498 0.000000 0.000000 0.000000
1.611915 -1.374298 1.396855 0.000000 0.000000 0.000000
1.566442 -1.335666 1.401655 0.000000 0.000000 0.000000
1.500983 -1.357486 1.361977 0.000000 0.000000 0.000000
1.515268 -1.358102 1.332866 0.000000 0.000000 0.000000
1.523202 -1.382618 1.344206 0.000000 0.000000 0.000000
1.540815 -1.362602 1.351674 0.000000 0.000000 0.000000
1.549191 -1.379264 1.353457 0.000000 0.000000 0.000000
1.549214 -1.363823 1.373602 0.000000 0.000000 0.000000
1.542011 -1.348270 1.386432 0.000000 0.000000 0.000000
1.593358 -1.377732 1.344209 0.000000 0.000000 0.000000
1.584553 -1.341435 1.416188 0.000000 0.000000 0.000000
1.564771 -1.316658 1.401912 0.000000 0.000000 0.000000
1.563012 -1.315131 1.408527 0.000000 0.000000 0.000000
1.618411 -1.399165 1.375571 0.000000 0.000000 0.000000
1.552813 -1.381005 1.346945 0.000000 0.000000 0.000000
1.575288 -1.333911 1.411071 0.000000 0.000000 0.000000
1.531894 -1.351878 1.365776 0.000000 0.000000 0.000000
1.616928 -1.399038 1.372274 0.000000 0.000000 0.000000
1.550139 -1.396518 1.358513 0.000000 0.000000 0.000000
1.567767 -1.330368 1.392605 0.000000 0.000000 0.000000
1.504882 -1.394692 1.318175 0.000000 0.000000 0.000000
1.565408 -1.332319 1.415028 0.000000 0.000000 0.000000
1.509230 -1.388237 1.313265 0.000000 0.000000 0.000000
1.579528 -1.322726 1.387628 0.000000 0.000000 0.000000
1.527620 -1.382960 1.350480 0.000000 0.000000 0.000000
1.533206 -1.370081 1.352722 0.000000 0.000000 0.000000
1.513378 -1.348292 1.333212 0.000000 0.000000 0.000000
1.507341 -1.398181 1.321323 0.000000 0.000000 0.000000
1.502842 -1.359863 1.327531 0.000000 0.000000 0.000000
1.536657 -1.377839 1.369040 0.000000 0.000000 0.000000
1.511409 -1.355360 1.331564 0.000000 0.000000 0.000000
1.522369 -1.382758 1.335726 0.000000 0.000000 0.000000
1.344177 -1.431690 1.297009 0.000000 0.000000 0.000000
1.481000 -1.381333 1.313589 0.000000 0.000000 0.000000
1.342124 -1.414178 1.308065 0.000000 0.000000 0.000000
1.506632 -1.388580 1.374050 0.000000 0.000000 0.000000
1.599286 -1.397421 1.423280 0.000000 0.000000 0.000000
1.504732 -1.350209 1.419970 0.000000 0.000000 0.000000
1.619244 -1.384127 1.396225 0.000000 0.000000 0.000000
1.533303 -1.381752 1.404537 0.000000 0.000000 0.000000
1.509856 -1.368533 1.323203 0.000000 0.000000 0.000000
1.577256 -1.396110 1.352364 0.000000 0.000000 0.000000
1.593003 -1.386557 1.386048 0.000000 0.000000 0.000000
1.548383 -1.359909 1.376749 0.000000 0.000000 0.000000
1.523292 -1.337811 1.383963 0.000000 0.000000 0.000000
1.523685 -1.405672 1.316299 0.000000 0.000000 0.000000
1.509553 -1.384041 1.333912 0.000000 0.000000 0.000000
1.578475 -1.391267 1.348271 0.000000 0.000000 0.000000
1.538784 -1.363652 1.360958 0.000000 0.000000 0.000000
1.332733 -1.429153 1.292037 0.000000 0.000000 0.000000
1.533787 -1.367786 1.356066 0.000000 0.000000 0.000000
1.537117 -1.379044 1.358744 0.000000 0.000000 0.000000
1.517074 -1.409277 1.317678 0.000000 0.000000 0.000000
1.508264 -1.393339 1.320369 0.000000 0.000000 0.000000
1.596693 -1.384489 1.346470 0.000000 0.000000 0.000000
1.535407 -1.374265 1.362126 0.000000 0.000000 0.000000
1.521289 -1.374077 1.352914 0.000000 0.000000 0.000000
1.497219 -1.353431 1.356666 0.000000 0.000000 0.000000
1.511125 -1.392681 1.338776 0.000000 0.000000 0.000000
1.503009 -1.352816 1.359685 0.000000 0.000000 0.000000
1.546467 -1.359787 1.380082 0.000000 0.000000 0.000000
1.541544 -1.359451 1.357456 0.000000 0.000000 0.000000
1.552874 -1.359983 1.365105 0.000000 0.000000 0.000000
1.501517 -1.401411 1.315281 0.000000 0.000000 0.000000
1.566798 -1.368831 1.401595 0.000000 0.000000 0.000000
1.602644 -1.292465 1.411811 0.000000 0.000000 0.000000
1.561641 -1.386705 1.351761 0.000000 0.000000 0.000000
1.495469 -1.410246 1.316229 0.000000 0.000000 0.000000
1.552728 -1.364996 1.395528 0.000000 0.000000 0.000000
1.562270 -1.395911 1.350514 0.000000 0.000000 0.000000
1.515494 -1.362393 1.408407 0.000000 0.000000 0.000000
1.535382 -1.383121 1.420604 0.000000 0.000000 0.000000
1.598206 -1.292703 1.420684 0.000000 0.000000 0.000000
1.565138 -1.390577 1.344526 0.000000 0.000000 0.000000
1.570462 -1.325602 1.423067 0.000000 0.000000 0.000000
1.535619 -1.369787 1.386928 0.000000 0.000000 0.000000
1.508452 -1.414217 1.317485 0.000000 0.000000 0.000000
1.569857 -1.338465 1.401271 0.000000 0.000000 0.000000
1.337304 -1.438013 1.301956 0.000000 0.000000 0.000000
1.510411 -1.362889 1.398826 0.000000 0.000000 0.000000
1.580327 -1.321618 1.390138 0.000000 0.000000 0.000000
1.564198 -1.315544 1.397697 0.000000 0.000000 0.000000
1.577927 -1.316881 1.385665 0.000000 0.000000 0.000000
1.541718 -1.364462 1.369578 0.000000 0.000000 0.000000
1.517613 -1.373822 1.327764 0.000000 0.000000 0.000000
1.510219 -1.382002 1.329916 0.000000 0.000000 0.000000
1.506471 -1.388511 1.332442 0.000000 0.000000 0.000000
1.509098 -1.352282 1.367462 0.000000 0.000000 0.000000
1.511977 -1.346266 1.361745 0.000000 0.000000 0.000000
1.517838 -1.384391 1.341371 0.000000 0.000000 0.000000
1.500020 -1.354250 1.358949 0.000000 0.000000 0.000000
1.514776 -1.381862 1.342949 0.000000 0.000000 0.000000
1.585108 -1.390294 1.348529 0.000000 0.000000 0.000000
1.532550 -1.375248 1.383913 0.000000 0.000000 0.000000
1.512573 -1.379725 1.350826 0.000000 0.000000 0.000000
1.572091 -1.337731 1.408659 0.000000 0.000000 0.000000
1.572886 -1.317510 1.391371 0.000000 0.000000 0.000000
1.575933 -1.337693 1.395945 0.000000 0.000000 0.000000
1.560431 -1.381953 1.389898 0.000000 0.000000 0.000000
1.560974 -1.386070 1.366571 0.000000 0.000000 0.000000
1.483841 -1.438732 1.360453 0.000000 0.000000 0.000000
1.576622 -1.334220 1.397266 0.000000 0.000000 0.000000
1.521384 -1.385649 1.371424 0.000000 0.000000 0.000000
1.567966 -1.349489 1.403350 0.000000 0.000000 0.000000
1.570132 -1.322521 1.397243 0.000000 0.000000 0.000000
1.571879 -1.340521 1.395274 0.000000 0.000000 0.000000
1.575736 -1.321024 1.406456 0.000000 0.000000 0.000000
1.574049 -1.379110 1.366922 0.000000 0.000000 0.000000
1.574041 -1.348108 1.403079 0.000000 0.000000 0.000000
1.491782 -1.359006 1.356912 0.000000 0.000000 0.000000
1.530510 -1.387175 1.352376 0.000000 0.000000 0.000000
1.498096 -1.354686 1.362238 0.000000 0.000000 0.000000
1.547049 -1.379662 1.353993 0.000000 0.000000 0.000000
1.519015 -1.377146 1.337566 0.000000 0.000000 0.000000
1.520813 -1.371967 1.335896 0.000000 0.000000 0.000000
1.500496 -1.360062 1.366575 0.000000 0.000000 0.000000
1.521034 -1.370739 1.337372 0.000000 0.000000 0.000000
1.583544 -1.391909 1.350377 0.000000 0.000000 0.000000
1.529283 -1.378533 1.366969 0.000000 0.000000 0.000000
1.507000 -1.386412 1.332220 0.000000 0.000000 0.000000
1.580191 -1.396535 1.352005 0.000000 0.000000 0.000000
1.572644 -1.372996 1.361463 0.000000 0.000000 0.000000
1.566306 -1.332113 1.399770 0.000000 0.000000 0.000000
1.504375 -1.402503 1.318120 0.000000 0.000000 0.000000
1.482353 -1.400816 1.316406 0.000000 0.000000 0.000000
1.546344 -1.394892 1.367337 0.000000 0.000000 0.000000
1.501709 -1.408680 1.313814 0.000000 0.000000 0.000000
1.554141 -1.390574 1.345764 0.000000 0.000000 0.000000
1.621821 -1.394070 1.378060 0.000000 0.000000 0.000000
1.509488 -1.371536 1.325074 0.000000 0.000000 0.000000
1.599044 -1.397974 1.349467 0.000000 0.000000 0.000000
1.566028 -1.307796 1.391344 0.000000 0.000000 0.000000
1.540125 -1.342311 1.418469 0.000000 0.000000 0.000000
1.545244 -1.353893 1.364679 0.000000 0.000000 0.000000
1.522072 -1.371244 1.336179 0.000000 0.000000 0.000000
1.570019 -1.384985 1.355796 0.000000 0.000000 0.000000
1.598149 -1.388570 1.385221 0.000000 0.000000 0.000000
1.342207 -1.422520 1.311047 0.000000 0.000000 0.000000
1.594076 -1.379810 1.378450 0.000000 0.000000 0.000000
1.545095 -1.368167 1.366328 0.000000 0.000000 0.000000
1.532781 -1.370502 1.352764 0.000000 0.000000 0.000000
1.574940 -1.346144 1.430559 0.000000 0.000000 0.000000
1.602485 -1.307515 1.415483 0.000000 0.000000 0.000000
1.538596 -1.359357 1.358646 0.000000 0.000000 0.000000
1.627989 -1.395009 1.382628 0.000000 0.000000 0.000000
1.495665 -1.379155 1.326002 0.000000 0.000000 0.000000
1.508151 -1.397724 1.311174 0.000000 0.000000 0.000000
1.599437 -1.300992 1.413171 0.000000 0.000000 0.000000
1.533089 -1.363253 1.357916 0.000000 0.000000 0.000000
1.507590 -1.389197 1.315414 0.000000 0.000000 0.000000
1.531427 -1.369153 1.378822 0.000000 0.000000 0.000000
1.610416 -1.397266 1.363585 0.000000 0.000000 0.000000
1.597570 -1.389661 1.368650 0.000000 0.000000 0.000000
1.573048 -1.370144 1.417304 0.000000 0.000000 0.000000
1.509836 -1.383777 1.308618 0.000000 0.000000 0.000000
1.481473 -1.398234 1.318487 0.000000 0.000000 0.000000
1.610150 -1.370130 1.397515 0.000000 0.000000 0.000000
1.585306 -1.359039 1.413657 0.000000 0.000000 0.000000
1.488323 -1.387266 1.321312 0.000000 0.000000 0.000000
1.510187 -1.354631 1.332723 0.000000 0.000000 0.000000
1.578305 -1.328647 1.421910 0.000000 0.000000 0.000000
1.572990 -1.346655 1.402746 0.000000 0.000000 0.000000
1.507497 -1.369617 1.338459 0.000000 0.000000 0.000000
1.544491 -1.344360 1.386634 0.000000 0.000000 0.000000
1.508963 -1.364518 1.331345 0.000000 0.000000 0.000000
1.508811 -1.378875 1.339347 0.000000 0.000000 0.000000
1.523166 -1.369382 1.339453 0.000000 0.000000 0.000000
1.500716 -1.409959 1.308570 0.000000 0.000000 0.000000
1.505170 -1.366582 1.323740 0.000000 0.000000 0.000000
1.563545 -1.329978 1.411756 0.000000 0.000000 0.000000
1.506683 -1.379543 1.323461 0.000000 0.000000 0.000000
1.496003 -1.398025 1.306965 0.000000 0.000000 0.000000
1.630201 -1.390859 1.395632 0.000000 0.000000 0.000000
1.582134 -1.327960 1.406088 0.000000 0.000000 0.000000
1.486934 -1.372628 1.320236 0.000000 0.000000 0.000000
1.574085 -1.327119 1.427408 0.000000 0.000000 0.000000
1.504498 -1.371222 1.326865 0.000000 0.000000 0.000000
1.625829 -1.390983 1.381898 0.000000 0.000000 0.000000
1.516528 -1.402361 1.312256 0.000000 0.000000 0.000000
1.599555 -1.288894 1.412925 0.000000 0.000000 0.000000
1.567619 -1.336230 1.402219 0.000000 0.000000 0.000000
1.605824 -1.297256 1.412756 0.000000 0.000000 0.000000
1.601773 -1.287858 1.414141 0.000000 0.000000 0.000000
1.525311 -1.373653 1.348620 0.000000 0.000000 0.000000
1.561376 -1.323067 1.402367 0.000000 0.000000 0.000000
1.590888 -1.393475 1.352242 0.000000 0.000000 0.000000
1.602531 -1.303103 1.410851 0.000000 0.000000 0.000000
1.525277 -1.371228 1.343190 0.000000 0.000000 0.000000
1.482564 -1.398890 1.333725 0.000000 0.000000 0.000000
1.486107 -1.399496 1.335640 0.000000 0.000000 0.000000
1.599294 -1.291281 1.414863 0.000000 0.000000 0.000000
1.574322 -1.386776 1.340297 0.000000 0.000000 0.000000
1.565000 -1.343556 1.398126 0.000000 0.000000 0.000000
1.490478 -1.427274 1.314275 0.000000 0.000000 0.000000
1.603698 -1.292928 1.410391 0.000000 0.000000 0.000000
1.575534 -1.330345 1.408165 0.000000 0.000000 0.000000
1.582266 -1.329914 1.389007 0.000000 0.000000 0.000000
1.531349 -1.367089 1.355301 0.000000 0.000000 0.000000
1.536270 -1.371394 1.373884 0.000000 0.000000 0.000000
1.539197 -1.362939 1.355153 0.000000 0.000000 0.000000
1.518334 -1.360917 1.362439 0.000000 0.000000 0.000000
1.563817 -1.347096 1.406598 0.000000 0.000000 0.000000
1.522502 -1.364713 1.335104 0.000000 0.000000 0.000000
1.569353 -1.332074 1.413098 0.000000 0.000000 0.000000
1.564179 -1.344022 1.398938 0.000000 0.000000 0.000000
1.331440 -1.428046 1.306697 0.000000 0.000000 0.000000
1.543805 -1.379784 1.351472 0.000000 0.000000 0.000000
1.340373 -1.415720 1.294669 0.000000 0.000000 0.000000
1.541203 -1.392050 1.357242 0.000000 0.000000 0.000000
1.592390 -1.395270 1.354865 0.000000 0.000000 0.000000
1.577974 -1.317952 1.385933 0.000000 0.000000 0.000000
1.538026 -1.365689 1.363811 0.000000 0.000000 0.000000
1.531511 -1.366086 1.370166 0.000000 0.000000 0.000000
1.538401 -1.362424 1.365611 0.000000 0.000000 0.000000
1.604807 -1.400309 1.356631 0.000000 0.000000 0.000000
1.576678 -1.342973 1.398230 0.000000 0.000000 0.000000
1.519307 -1.362591 1.353385 0.000000 0.000000 0.000000
1.520296 -1.365847 1.353698 0.000000 0.000000 0.000000
1.575133 -1.318428 1.391399 0.000000 0.000000 0.000000
1.582106 -1.339820 1.401589 0.000000 0.000000 0.000000
1.569317 -1.342269 1.400170 0.000000 0.000000 0.000000
1.501912 -1.365459 1.332488 0.000000 0.000000 0.000000
1.598329 -1.393263 1.359223 0.000000 0.000000 0.000000
1.601823 -1.291185 1.414626 0.000000 0.000000 0.000000
1.523568 -1.365513 1.366908 0.000000 0.000000 0.000000
1.571151 -1.342723 1.405927 0.000000 0.000000 0.000000
1.597471 -1.396672 1.347861 0.000000 0.000000 0.000000
1.570713 -1.338516 1.400280 0.000000 0.000000 0.000000
1.572425 -1.329368 1.401238 0.000000 0.000000 0.000000
1.582213 -1.336914 1.395062 0.000000 0.000000 0.000000
1.583595 -1.343802 1.402761 0.000000 0.000000 0.000000
1.581513 -1.335544 1.402496 0.000000 0.000000 0.000000
1.574815 -1.325921 1.392914 0.000000 0.000000 0.000000
1.573822 -1.319753 1.397347 0.000000 0.000000 0.000000
1.581802 -1.393905 1.348835 0.000000 0.000000 0.000000
1.571366 -1.343963 1.400620 0.000000 0.000000 0.000000
1.584892 -1.342432 1.393624 0.000000 0.000000 0.000000
1.568699 -1.336440 1.406816 0.000000 0.000000 0.000000
1.570975 -1.322675 1.393960 0.000000 0.000000 0.000000
1.568281 -1.313789 1.394943 0.000000 0.000000 0.000000
1.481483 -1.387707 1.316236 0.000000 0.000000 0.000000
1.572025 -1.332736 1.426862 0.000000 0.000000 0.000000
1.533102 -1.365589 1.360295 0.000000 0.000000 0.000000
1.557948 -1.329075 1.398948 0.000000 0.000000 0.000000
1.620089 -1.387140 1.388952 0.000000 0.000000 0.000000
1.522337 -1.384791 1.356854 0.000000 0.000000 0.000000
1.523068 -1.369422 1.343300 0.000000 0.000000 0.000000
1.510708 -1.401291 1.314058 0.000000 0.000000 0.000000
1.522606 -1.368962 1.336865 0.000000 0.000000 0.000000
1.500889 -1.403821 1.310438 0.000000 0.000000 0.000000
1.548809 -1.382778 1.348617 0.000000 0.000000 0.000000
1.493696 -1.400361 1.310581 0.000000 0.000000 0.000000
1.539202 -1.370034 1.359733 0.000000 0.000000 0.000000
1.575462 -1.347514 1.401493 0.000000 0.000000 0.000000
1.515139 -1.359467 1.332203 0.000000 0.000000 0.000000
1.509879 -1.383637 1.311982 0.000000 0.000000 0.000000
1.551329 -1.392250 1.338343 0.000000 0.000000 0.000000
1.508755 -1.368267 1.334446 0.000000 0.000000 0.000000
1.325346 -1.439802 1.264105 0.000000 0.000000 0.000000
1.528679 -1.363225 1.368927 0.000000 0.000000 0.000000
1.501455 -1.353307 1.326093 0.000000 0.000000 0.000000
1.511160 -1.365433 1.340541 0.000000 0.000000 0.000000
1.514263 -1.361256 1.344283 0.000000 0.000000 0.000000
1.515677 -1.357436 1.336310 0.000000 0.000000 0.000000
1.520900 -1.369525 1.333446 0.000000 0.000000 0.000000
1.535196 -1.379625 1.353319 0.000000 0.000000 0.000000
1.579782 -1.329132 1.389337 0.000000 0.000000 0.000000
1.518869 -1.358855 1.342145 0.000000 0.000000 0.000000
1.514280 -1.365898 1.347106 0.000000 0.000000 0.000000
1.481242 -1.406062 1.299395 0.000000 0.000000 0.000000
1.533153 -1.367443 1.364185 0.000000 0.000000 0.000000
1.611961 -1.392316 1.369676 0.000000 0.000000 0.000000
1.526541 -1.373851 1.358940 0.000000 0.000000 0.000000
1.610624 -1.395163 1.377456 0.000000 0.000000 0.000000
1.518999 -1.403841 1.313826 0.000000 0.000000 0.000000
1.521237 -1.362005 1.337470 0.000000 0.000000 0.000000
1.637011 -1.384904 1.392966 0.000000 0.000000 0.000000
1.566958 -1.373584 1.370372 0.000000 0.000000 0.000000
1.599219 -1.398031 1.362644 0.000000 0.000000 0.000000
1.605173 -1.398921 1.362992 0.000000 0.000000 0.000000
1.496007 -1.377728 1.338212 0.000000 0.000000 0.000000
1.586252 -1.397888 1.356752 0.000000 0.000000 0.000000
1.495693 -1.374336 1.361471 0.000000 0.000000 0.000000
1.484242 -1.365298 1.355175 0.000000 0.000000 0.000000
1.321970 -1.431465 1.281218 0.000000 0.000000 0.000000
1.625289 -1.396007 1.376739 0.000000 0.000000 0.000000
1.515173 -1.366392 1.328922 0.000000 0.000000 0.000000
1.518869 -1.363263 1.335649 0.000000 0.000000 0.000000
1.605965 -1.307674 1.415341 0.000000 0.000000 0.000000
1.502534 -1.360855 1.334064 0.000000 0.000000 0.000000
1.511441 -1.375781 1.331589 0.000000 0.000000 0.000000
1.512744 -1.376794 1.333829 0.000000 0.000000 0.000000
1.509800 -1.374507 1.325536 0.000000 0.000000 0.000000
1.520444 -1.373204 1.327366 0.000000 0.000000 0.000000
1.513270 -1.375063 1.330454 0.000000 0.000000 0.000000
1.502919 -1.372012 1.323191 0.000000 0.000000 0.000000
1.629518 -1.385378 1.391234 0.000000 0.000000 0.000000
1.574346 -1.342167 1.407390 0.000000 0.000000 0.000000
1.522906 -1.365328 1.347484 0.000000 0.000000 0.000000
1.531781 -1.369293 1.339485 0.000000 0.000000 0.000000
1.499732 -1.377697 1.328763 0.000000 0.000000 0.000000
1.507252 -1.372474 1.314048 0.000000 0.000000 0.000000
1.531709 -1.379993 1.366314 0.000000 0.000000 0.000000
1.537797 -1.368151 1.356279 0.000000 0.000000 0.000000
1.578762 -1.334114 1.418543 0.000000 0.000000 0.000000
1.524122 -1.365660 1.348275 0.000000 0.000000 0.000000
1.556503 -1.344360 1.409797 0.000000 0.000000 0.000000
1.533754 -1.365216 1.360263 0.000000 0.000000 0.000000
1.607845 -1.376463 1.398085 0.000000 0.000000 0.000000
1.520790 -1.350874 1.331400 0.000000 0.000000 0.000000
1.613338 -1.399031 1.367765 0.000000 0.000000 0.000000
1.507231 -1.373338 1.326850 0.000000 0.000000 0.000000
1.548768 -1.356496 1.384435 0.000000 0.000000 0.000000
1.574528 -1.395370 1.349820 0.000000 0.000000 0.000000
1.542389 -1.356551 1.355556 0.000000 0.000000 0.000000
1.510194 -1.366623 1.322553 0.000000 0.000000 0.000000
1.588063 -1.397681 1.356911 0.000000 0.000000 0.000000
1.577095 -1.388247 1.342886 0.000000 0.000000 0.000000
1.617392 -1.392724 1.373482 0.000000 0.000000 0.000000
1.536711 -1.362229 1.358270 0.000000 0.000000 0.000000
1.571778 -1.339357 1.404687 0.000000 0.000000 0.000000
1.512485 -1.354097 1.332847 0.000000 0.000000 0.000000
1.371186 -1.437315 1.243545 0.000000 0.000000 0.000000
1.515390 -1.374695 1.332258 0.000000 0.000000 0.000000
1.529266 -1.373548 1.346773 0.000000 0.000000 0.000000
1.570714 -1.334829 1.411485 0.000000 0.000000 0.000000
1.522109 -1.374106 1.347170 0.000000 0.000000 0.000000
1.515343 -1.382174 1.342420 0.000000 0.000000 0.000000
1.558046 -1.389877 1.340228 0.000000 0.000000 0.000000
1.573317 -1.319418 1.406751 0.000000 0.000000 0.000000
1.511248 -1.380741 1.342190 0.000000 0.000000 0.000000
1.526779 -1.381002 1.342919 0.000000 0.000000 0.000000
1.564261 -1.389733 1.338550 0.000000 0.000000 0.000000
1.505805 -1.367500 1.328506 0.000000 0.000000 0.000000
1.599563 -1.292371 1.414356 0.000000 0.000000 0.000000
1.503314 -1.385712 1.323630 0.000000 0.000000 0.000000
1.503702 -1.391281 1.330640 0.000000 0.000000 0.000000
1.370091 -1.439500 1.241559 0.000000 0.000000 0.000000
1.602650 -1.298310 1.410672 0.000000 0.000000 0.000000
1.598962 -1.294179 1.417187 0.000000 0.000000 0.000000
1.518723 -1.380048 1.337360 0.000000 0.000000 0.000000
1.525877 -1.376137 1.340470 0.000000 0.000000 0.000000
1.493548 -1.383518 1.325853 0.000000 0.000000 0.000000
1.508939 -1.390719 1.327168 0.000000 0.000000 0.000000
1.512924 -1.395557 1.312915 0.000000 0.000000 0.000000
1.506521 -1.386433 1.312737 0.000000 0.000000 0.000000
1.507371 -1.392455 1.313282 0.000000 0.000000 0.000000
1.512182 -1.370291 1.325219 0.000000 0.000000 0.000000
1.578140 -1.321497 1.390493 0.000000 0.000000 0.000000
1.497110 -1.362957 1.376850 0.000000 0.000000 0.000000
1.572124 -1.377636 1.360197 0.000000 0.000000 0.000000
1.391077 -1.436836 1.278280 0.000000 0.000000 0.000000
1.602028 -1.294282 1.420812 0.000000 0.000000 0.000000
1.519316 -1.385591 1.345818 0.000000 0.000000 0.000000
1.500837 -1.386611 1.342271 0.000000 0.000000 0.000000
1.593296 -1.296708 1.418824 0.000000 0.000000 0.000000
1.606992 -1.296829 1.408033 0.000000 0.000000 0.000000
1.605342 -1.302954 1.410851 0.000000 0.000000 0.000000
1.595213 -1.299325 1.417214 0.000000 0.000000 0.000000
1.509754 -1.348230 1.333912 0.000000 0.000000 0.000000
1.536754 -1.365373 1.355523 0.000000 0.000000 0.000000
1.572830 -1.376368 1.361239 0.000000 0.000000 0.000000
1.513918 -1.361849 1.333363 0.000000 0.000000 0.000000
1.505263 -1.362982 1.321766 0.000000 0.000000 0.000000
1.382958 -1.435421 1.275803 0.000000 0.000000 0.000000
1.544538 -1.388495 1.337961 0.000000 0.000000 0.000000
1.549027 -1.383665 1.330236 0.000000 0.000000 0.000000
1.523467 -1.370149 1.343290 0.000000 0.000000 0.000000
1.500753 -1.361607 1.332262 0.000000 0.000000 0.000000
1.495452 -1.358395 1.361496 0.000000 0.000000 0.000000
1.518221 -1.377812 1.333667 0.000000 0.000000 0.000000
1.510239 -1.380248 1.335512 0.000000 0.000000 0.000000
1.508254 -1.365201 1.333908 0.000000 0.000000 0.000000
1.510375 -1.361195 1.341625 0.000000 0.000000 0.000000
1.504791 -1.373468 1.325713 0.000000 0.000000 0.000000
1.540069 -1.362613 1.363396 0.000000 0.000000 0.000000
1.514982 -1.355078 1.338233 0.000000 0.000000 0.000000
1.639071 -1.386992 1.399791 0.000000 0.000000 0.000000
1.622343 -1.388480 1.393470 0.000000 0.000000 0.000000
1.518873 -1.369190 1.339689 0.000000 0.000000 0.000000
1.511984 -1.364042 1.331103 0.000000 0.000000 0.000000
1.584528 -1.369509 1.371587 0.000000 0.000000 0.000000
1.498585 -1.393351 1.303067 0.000000 0.000000 0.000000
1.505928 -1.367441 1.324308 0.000000 0.000000 0.000000
1.509714 -1.374091 1.331892 0.000000 0.000000 0.000000
1.521208 -1.375143 1.331522 0.000000 0.000000 0.000000
1.324061 -1.421009 1.282807 0.000000 0.000000 0.000000
1.541847 -1.365680 1.361577 0.000000 0.000000 0.000000
1.370929 -1.437217 1.243162 0.000000 0.000000 0.000000
1.566597 -1.367379 1.362403 0.000000 0.000000 0.000000
1.510993 -1.359434 1.329590 0.000000 0.000000 0.000000
1.507739 -1.365342 1.328398 0.000000 0.000000 0.000000
1.487478 -1.408454 1.304153 0.000000 0.000000 0.000000
1.543630 -1.365335 1.361609 0.000000 0.000000 0.000000
1.548941 -1.357432 1.358792 0.000000 0.000000 0.000000
1.552626 -1.383412 1.330616 0.000000 0.000000 0.000000
1.513200 -1.398559 1.328016 0.000000 0.000000 0.000000
1.549292 -1.375369 1.363407 0.000000 0.000000 0.000000
1.615718 -1.398694 1.376096 0.000000 0.000000 0.000000
1.622871 -1.394829 1.372285 0.000000 0.000000 0.000000
1.576585 -1.338729 1.422850 0.000000 0.000000 0.000000
1.531228 -1.379961 1.371932 0.000000 0.000000 0.000000
1.514206 -1.355510 1.334788 0.000000 0.000000 0.000000
1.573499 -1.332817 1.421698 0.000000 0.000000 0.000000
1.604512 -1.399777 1.370619 0.000000 0.000000 0.000000
1.576060 -1.323870 1.413640 0.000000 0.000000 0.000000
1.618287 -1.396979 1.371307 0.000000 0.000000 0.000000
1.565872 -1.327543 1.412530 0.000000 0.000000 0.000000
1.501749 -1.359373 1.326874 0.000000 0.000000 0.000000
1.512918 -1.359222 1.328663 0.000000 0.000000 0.000000
1.520617 -1.362692 1.342842 0.000000 0.000000 0.000000
1.502687 -1.357759 1.329783 0.000000 0.000000 0.000000
1.489028 -1.377723 1.323526 0.000000 0.000000 0.000000
1.514952 -1.399966 1.311987 0.000000 0.000000 0.000000
1.504788 -1.403205 1.311307 0.000000 0.000000 0.000000
1.540089 -1.357575 1.358017 0.000000 0.000000 0.000000
1.517425 -1.368323 1.330097 0.000000 0.000000 0.000000
1.509317 -1.400225 1.311740 0.000000 0.000000 0.000000
1.510008 -1.401694 1.307333 0.000000 0.000000 0.000000
1.576021 -1.385922 1.340266 0.000000 0.000000 0.000000
1.563970 -1.310530 1.397803 0.000000 0.000000 0.000000
1.551962 -1.360731 1.390243 0.000000 0.000000 0.000000
1.511202 -1.352799 1.329031 0.000000 0.000000 0.000000
1.518873 -1.348736 1.340025 0.000000 0.000000 0.000000
1.572816 -1.312666 1.388996 0.000000 0.000000 0.000000
1.580079 -1.321275 1.381791 0.000000 0.000000 0.000000
1.565266 -1.305700 1.394289 0.000000 0.000000 0.000000
1.504065 -1.358183 1.328793 0.000000 0.000000 0.000000
1.540753 -1.389580 1.336827 0.000000 0.000000 0.000000
1.518516 -1.359694 1.337560 0.000000 0.000000 0.000000
1.514476 -1.367158 1.332992 0.000000 0.000000 0.000000
1.504310 -1.354365 1.324215 0.000000 0.000000 0.000000
1.525620 -1.370546 1.346641 0.000000 0.000000 0.000000
1.584648 -1.394630 1.358322 0.000000 0.000000 0.000000
1.566157 -1.352137 1.388067 0.000000 0.000000 0.000000
1.523421 -1.380515 1.339831 0.000000 0.000000 0.000000
1.588774 -1.392472 1.361683 0.000000 0.000000 0.000000
1.563848 -1.355627 1.391110 0.000000 0.000000 0.000000
1.523680 -1.371476 1.347565 0.000000 0.000000 0.000000
1.558747 -1.330258 1.398828 0.000000 0.000000 0.000000
1.598994 -1.373927 1.389662 0.000000 0.000000 0.000000
1.491982 -1.408211 1.314041 0.000000 0.000000 0.000000
1.495320 -1.359499 1.356884 0.000000 0.000000 0.000000
1.519220 -1.357992 1.330878 0.000000 0.000000 0.000000
1.573487 -1.332950 1.425012 0.000000 0.000000 0.000000
1.600941 -1.295498 1.417990 0.000000 0.000000 0.000000
1.505901 -1.352876 1.330583 0.000000 0.000000 0.000000
1.505883 -1.383690 1.335661 0.000000 0.000000 0.000000
1.532693 -1.374544 1.376109 0.000000 0.000000 0.000000
1.539284 -1.380954 1.368801 0.000000 0.000000 0.000000
1.532755 -1.375995 1.373618 0.000000 0.000000 0.000000
1.552258 -1.381048 1.361912 0.000000 0.000000 0.000000
1.817488 -1.115851 0.856224 0.000000 0.000000 0.000000
1.814304 -1.100259 0.845057 0.000000 0.000000 0.000000
1.770599 -1.022949 0.848057 0.000000 0.000000 0.000000
1.793015 -0.961365 0.879901 0.000000 0.000000 0.000000
1.862591 -0.864465 0.935069 0.000000 0.000000 0.000000
1.800992 -1.168019 0.875426 0.000000 0.000000 0.000000
1.872374 -0.855574 0.905890 0.000000 0.000000 0.000000
1.769509 -0.972762 0.898772 0.000000 0.000000 0.000000
1.764101 -0.954250 0.918018 0.000000 0.000000 0.000000
1.863105 -0.880735 0.917282 0.000000 0.000000 0.000000
1.776610 -0.977934 0.891324 0.000000 0.000000 0.000000
1.770656 -0.975840 0.882448 0.000000 0.000000 0.000000
1.793064 -0.989121 0.905760 0.000000 0.000000 0.000000
1.846113 -0.869547 0.896914 0.000000 0.000000 0.000000
1.779634 -0.939993 0.910752 0.000000 0.000000 0.000000
1.796282 -0.928680 0.904107 0.000000 0.000000 0.000000
1.816858 -1.156460 0.843647 0.000000 0.000000 0.000000
1.783290 -0.923943 0.880715 0.000000 0.000000 0.000000
1.784339 -0.968334 0.891885 0.000000 0.000000 0.000000
1.865867 -0.884161 0.882471 0.000000 0.000000 0.000000
1.798522 -0.949264 0.888291 0.000000 0.000000 0.000000
1.794017 -0.962599 0.842509 0.000000 0.000000 0.000000
1.868402 -0.844296 0.916767 0.000000 0.000000 0.000000
1.778477 -0.951729 0.896691 0.000000 0.000000 0.000000
1.842331 -0.868886 0.883475 0.000000 0.000000 0.000000
1.783303 -0.938721 0.883114 0.000000 0.000000 0.000000
1.758420 -0.951470 0.908275 0.000000 0.000000 0.000000
1.793933 -0.952615 0.916548 0.000000 0.000000 0.000000
1.817731 -0.859306 0.900030 0.000000 0.000000 0.000000
1.767576 -0.986439 0.865801 0.000000 0.000000 0.000000
1.869390 -0.869550 0.913773 0.000000 0.000000 0.000000
1.778199 -0.938005 0.892885 0.000000 0.000000 0.000000
1.781164 -0.933051 0.896582 0.000000 0.000000 0.000000
1.778418 -0.921448 0.899576 0.000000 0.000000 0.000000
1.779351 -0.961209 0.890585 0.000000 0.000000 0.000000
1.798017 -1.154953 0.869490 0.000000 0.000000 0.000000
1.803816 -1.179379 0.862857 0.000000 0.000000 0.000000
1.813966 -1.159322 0.857278 0.000000 0.000000 0.000000
1.797673 -1.130476 0.836692 0.000000 0.000000 0.000000
1.770441 -1.012169 0.874446 0.000000 0.000000 0.000000
1.786781 -1.000494 0.898550 0.000000 0.000000 0.000000
1.775234 -0.963245 0.900168 0.000000 0.000000 0.000000
1.815015 -1.166914 0.847494 0.000000 0.000000 0.000000
1.779238 -0.961894 0.909676 0.000000 0.000000 0.000000
1.828918 -0.856530 0.906839 0.000000 0.000000 0.000000
1.772581 -1.013365 0.877349 0.000000 0.000000 0.000000
1.794995 -0.990802 0.895201 0.000000 0.000000 0.000000
1.855326 -0.933349 0.907096 0.000000 0.000000 0.000000
1.781153 -0.964809 0.924999 0.000000 0.000000 0.000000
1.784380 -0.964187 0.884376 0.000000 0.000000 0.000000
1.784377 -0.970272 0.876299 0.000000 0.000000 0.000000
1.783417 -1.128883 0.832163 0.000000 0.000000 0.000000
1.856646 -0.873004 0.903628 0.000000 0.000000 0.000000
1.862876 -0.858347 0.922681 0.000000 0.000000 0.000000
1.849138 -0.879155 0.905996 0.000000 0.000000 0.000000
1.873386 -0.857009 0.888602 0.000000 0.000000 0.000000
1.846336 -0.924401 0.925784 0.000000 0.000000 0.000000
1.783403 -1.092433 0.866532 0.000000 0.000000 0.000000
1.856479 -0.946208 0.886872 0.000000 0.000000 0.000000
1.797195 -1.110742 0.850972 0.000000 0.000000 0.000000
1.850296 -0.933399 0.906727 0.000000 0.000000 0.000000
1.860245 -0.928813 0.893524 0.000000 0.000000 0.000000
1.861297 -0.929704 0.880994 0.000000 0.000000 0.000000
1.848876 -0.920207 0.885280 0.000000 0.000000 0.000000
1.772931 -1.006726 0.884912 0.000000 0.000000 0.000000
1.870502 -0.941933 0.880706 0.000000 0.000000 0.000000
1.849440 -0.911669 0.902216 0.000000 0.000000 0.000000
1.772466 -1.003758 0.899176 0.000000 0.000000 0.000000
1.789861 -0.965116 0.906454 0.000000 0.000000 0.000000
1.784479 -0.956350 0.921300 0.000000 0.000000 0.000000
1.780657 -0.981899 0.893334 0.000000 0.000000 0.000000
1.782130 -0.973004 0.918662 0.000000 0.000000 0.000000
1.778385 -0.972853 0.927799 0.000000 0.000000 0.000000
1.787454 -0.961336 0.910279 0.000000 0.000000 0.000000
1.784810 -0.946582 0.912754 0.000000 0.000000 0.000000
1.784551 -0.975828 0.901438 0.000000 0.000000 0.000000
1.780596 -0.967750 0.919346 0.000000 0.000000 0.000000
1.780994 -0.961528 0.918532 0.000000 0.000000 0.000000
1.773767 -0.978412 0.935996 0.000000 0.000000 0.000000
1.793505 -0.950852 0.924764 0.000000 0.000000 0.000000
1.773209 -1.111525 0.848812 0.000000 0.000000 0.000000
1.775572 -1.129622 0.855951 0.000000 0.000000 0.000000
1.819182 -1.159066 0.828590 0.000000 0.000000 0.000000
1.805760 -1.122843 0.848185 0.000000 0.000000 0.000000
1.793599 -1.118271 0.841794 0.000000 0.000000 0.000000
1.796533 -1.153026 0.830709 0.000000 0.000000 0.000000
1.815086 -0.825219 0.888111 0.000000 0.000000 0.000000
1.709551 -0.854081 0.877234 0.000000 0.000000 0.000000
1.691797 -0.847003 0.876895 0.000000 0.000000 0.000000
1.680591 -0.843877 0.856391 0.000000 0.000000 0.000000
1.681211 -0.840358 0.848233 0.000000 0.000000 0.000000
1.689018 -0.840549 0.873158 0.000000 0.000000 0.000000
1.698568 -0.847518 0.858417 0.000000 0.000000 0.000000
1.807415 -0.824997 0.915981 0.000000 0.000000 0.000000
1.810885 -0.843045 0.916121 0.000000 0.000000 0.000000
1.783450 -0.834496 0.893783 0.000000 0.000000 0.000000
1.792605 -0.839831 0.910732 0.000000 0.000000 0.000000
1.733650 -0.856135 0.892835 0.000000 0.000000 0.000000
1.794965 -0.806398 0.902396 0.000000 0.000000 0.000000
1.798293 -0.812927 0.887455 0.000000 0.000000 0.000000
1.802167 -0.842361 0.911913 0.000000 0.000000 0.000000
1.887371 -0.823962 0.893884 0.000000 0.000000 0.000000
1.887644 -0.833513 0.914410 0.000000 0.000000 0.000000
1.841015 -0.840254 0.915290 0.000000 0.000000 0.000000
1.883209 -0.833716 0.904288 0.000000 0.000000 0.000000
1.721841 -0.857521 0.881159 0.000000 0.000000 0.000000
1.679454 -0.841848 0.866893 0.000000 0.000000 0.000000
1.698091 -0.843128 0.868300 0.000000 0.000000 0.000000
1.700364 -0.851112 0.863934 0.000000 0.000000 0.000000
1.687629 -0.847787 0.868570 0.000000 0.000000 0.000000
1.682151 -0.851631 0.846320 0.000000 0.000000 0.000000
1.683950 -0.847588 0.848601 0.000000 0.000000 0.000000
1.702093 -0.848034 0.841878 0.000000 0.000000 0.000000
1.685516 -0.849205 0.859971 0.000000 0.000000 0.000000
1.685186 -0.847889 0.862534 0.000000 0.000000 0.000000
1.714528 -0.852596 0.866894 0.000000 0.000000 0.000000
1.692242 -0.849720 0.865888 0.000000 0.000000 0.000000
1.704822 -0.845631 0.870614 0.000000 0.000000 0.000000
1.712244 -0.855517 0.863316 0.000000 0.000000 0.000000
1.683255 -0.848154 0.858913 0.000000 0.000000 0.000000
1.732501 -0.841587 0.899638 0.000000 0.000000 0.000000
1.727659 -0.843079 0.894603 0.000000 0.000000 0.000000
1.731979 -0.840092 0.896251 0.000000 0.000000 0.000000
1.841507 -0.840128 0.921883 0.000000 0.000000 0.000000
1.854104 -0.839107 0.904861 0.000000 0.000000 0.000000
1.847661 -0.842418 0.927199 0.000000 0.000000 0.000000
1.833284 -0.838042 0.904720 0.000000 0.000000 0.000000
1.824983 -0.837907 0.920970 0.000000 0.000000 0.000000
0.918462 -1.001443 1.429413 0.000000 0.000000 0.000000
0.903983 -1.002202 1.433427 0.000000 0.000000 0.000000
0.907117 -1.002891 1.425959 0.000000 0.000000 0.000000
0.911313 -1.005233 1.432486 0.000000 0.000000 0.000000
