ply
format ascii 1.0
comment VCGLIB generated
obj_info Generated by SPFormer!
element vertex 632
property float x
property float y
property float z
property float nx
property float ny
property float nz
end_header
0.518275 -0.858801 1.508284 0.000000 0.000000 0.000000
0.505424 -0.864260 1.503525 0.000000 0.000000 0.000000
0.512282 -0.864559 1.505056 0.000000 0.000000 0.000000
0.519762 -0.857476 1.512274 0.000000 0.000000 0.000000
0.516456 -0.861830 1.550170 0.000000 0.000000 0.000000
0.505624 -0.861031 1.535823 0.000000 0.000000 0.000000
0.501255 -0.843662 1.522548 0.000000 0.000000 0.000000
0.507134 -0.864460 1.527130 0.000000 0.000000 0.000000
0.513513 -0.863155 1.506910 0.000000 0.000000 0.000000
0.507765 -0.868857 1.539404 0.000000 0.000000 0.000000
0.515355 -0.863218 1.496513 0.000000 0.000000 0.000000
0.519299 -0.848597 1.517939 0.000000 0.000000 0.000000
0.515237 -0.858690 1.531711 0.000000 0.000000 0.000000
0.517509 -0.852409 1.498888 0.000000 0.000000 0.000000
0.516530 -0.866797 1.549076 0.000000 0.000000 0.000000
0.509084 -0.863838 1.512702 0.000000 0.000000 0.000000
0.517543 -0.860022 1.501268 0.000000 0.000000 0.000000
0.510577 -0.862783 1.535954 0.000000 0.000000 0.000000
0.514277 -0.864339 1.498232 0.000000 0.000000 0.000000
0.501307 -0.854336 1.521424 0.000000 0.000000 0.000000
0.499108 -0.856970 1.547967 0.000000 0.000000 0.000000
0.514479 -0.874205 1.553179 0.000000 0.000000 0.000000
0.507804 -0.865932 1.506182 0.000000 0.000000 0.000000
0.518015 -0.862500 1.543059 0.000000 0.000000 0.000000
0.500219 -0.872236 1.537421 0.000000 0.000000 0.000000
0.498743 -0.865615 1.531401 0.000000 0.000000 0.000000
0.512987 -0.866535 1.489815 0.000000 0.000000 0.000000
0.461787 -0.857169 1.511274 0.000000 0.000000 0.000000
0.507930 -0.863061 1.532346 0.000000 0.000000 0.000000
0.516128 -0.858225 1.553981 0.000000 0.000000 0.000000
0.479809 -0.863230 1.531838 0.000000 0.000000 0.000000
0.509474 -0.857309 1.503001 0.000000 0.000000 0.000000
0.511585 -0.863907 1.556260 0.000000 0.000000 0.000000
0.513858 -0.863613 1.499876 0.000000 0.000000 0.000000
0.493138 -0.869627 1.556914 0.000000 0.000000 0.000000
0.514810 -0.861813 1.524515 0.000000 0.000000 0.000000
0.468331 -0.851031 1.522264 0.000000 0.000000 0.000000
0.464128 -0.855880 1.514011 0.000000 0.000000 0.000000
0.514249 -0.861498 1.554265 0.000000 0.000000 0.000000
0.519333 -0.862553 1.542770 0.000000 0.000000 0.000000
0.504230 -0.867394 1.521845 0.000000 0.000000 0.000000
0.503933 -0.865188 1.520687 0.000000 0.000000 0.000000
0.466647 -0.863881 1.507233 0.000000 0.000000 0.000000
0.493726 -0.869731 1.519674 0.000000 0.000000 0.000000
0.505499 -0.867616 1.514420 0.000000 0.000000 0.000000
0.516522 -0.862116 1.521788 0.000000 0.000000 0.000000
0.486151 -0.851311 1.496353 0.000000 0.000000 0.000000
0.493375 -0.862013 1.536606 0.000000 0.000000 0.000000
0.503553 -0.866585 1.501381 0.000000 0.000000 0.000000
0.478178 -0.860993 1.499593 0.000000 0.000000 0.000000
0.516110 -0.868320 1.534257 0.000000 0.000000 0.000000
0.517810 -0.870992 1.525376 0.000000 0.000000 0.000000
0.516225 -0.873056 1.538190 0.000000 0.000000 0.000000
0.515103 -0.861876 1.508777 0.000000 0.000000 0.000000
0.509546 -0.863649 1.513405 0.000000 0.000000 0.000000
0.514529 -0.862593 1.516659 0.000000 0.000000 0.000000
0.511347 -0.872486 1.541284 0.000000 0.000000 0.000000
0.503980 -0.863298 1.523356 0.000000 0.000000 0.000000
0.503960 -0.884047 1.511067 0.000000 0.000000 0.000000
0.513482 -0.871195 1.532144 0.000000 0.000000 0.000000
0.515429 -0.864065 1.510715 0.000000 0.000000 0.000000
0.517045 -0.853630 1.524792 0.000000 0.000000 0.000000
0.517159 -0.850239 1.509342 0.000000 0.000000 0.000000
0.516197 -0.859383 1.515485 0.000000 0.000000 0.000000
0.513417 -0.856299 1.539868 0.000000 0.000000 0.000000
0.516311 -0.857646 1.535624 0.000000 0.000000 0.000000
0.514792 -0.864377 1.536143 0.000000 0.000000 0.000000
0.512776 -0.862517 1.518951 0.000000 0.000000 0.000000
0.510011 -0.865150 1.545645 0.000000 0.000000 0.000000
0.499666 -0.868820 1.528413 0.000000 0.000000 0.000000
0.517442 -0.867169 1.553197 0.000000 0.000000 0.000000
0.513348 -0.860140 1.532598 0.000000 0.000000 0.000000
0.519153 -0.864490 1.525231 0.000000 0.000000 0.000000
0.509748 -0.858294 1.539559 0.000000 0.000000 0.000000
0.491657 -0.874478 1.521681 0.000000 0.000000 0.000000
0.502841 -0.867628 1.553565 0.000000 0.000000 0.000000
0.504625 -0.870214 1.550134 0.000000 0.000000 0.000000
0.498064 -0.865059 1.544295 0.000000 0.000000 0.000000
0.496933 -0.868516 1.544282 0.000000 0.000000 0.000000
0.498177 -0.873584 1.517810 0.000000 0.000000 0.000000
0.514277 -0.871383 1.547593 0.000000 0.000000 0.000000
0.516624 -0.858359 1.547645 0.000000 0.000000 0.000000
0.513802 -0.860029 1.557039 0.000000 0.000000 0.000000
0.510786 -0.872160 1.540978 0.000000 0.000000 0.000000
0.505590 -0.861676 1.551163 0.000000 0.000000 0.000000
0.518756 -0.864250 1.538439 0.000000 0.000000 0.000000
0.478501 -0.859266 1.485812 0.000000 0.000000 0.000000
0.488386 -0.873025 1.536296 0.000000 0.000000 0.000000
0.512282 -0.867383 1.542507 0.000000 0.000000 0.000000
0.510338 -0.858618 1.535073 0.000000 0.000000 0.000000
0.503528 -0.857017 1.550749 0.000000 0.000000 0.000000
0.490612 -0.867331 1.503007 0.000000 0.000000 0.000000
0.518543 -0.863144 1.497109 0.000000 0.000000 0.000000
0.506438 -0.871010 1.559035 0.000000 0.000000 0.000000
0.508333 -0.865417 1.512806 0.000000 0.000000 0.000000
0.507404 -0.865183 1.548015 0.000000 0.000000 0.000000
0.504030 -0.869551 1.557140 0.000000 0.000000 0.000000
0.503857 -0.858798 1.550538 0.000000 0.000000 0.000000
0.511975 -0.863714 1.502352 0.000000 0.000000 0.000000
0.504987 -0.862470 1.488995 0.000000 0.000000 0.000000
0.492680 -0.858871 1.556930 0.000000 0.000000 0.000000
0.502941 -0.864425 1.536434 0.000000 0.000000 0.000000
0.484644 -0.859311 1.520380 0.000000 0.000000 0.000000
0.482276 -0.856048 1.524348 0.000000 0.000000 0.000000
0.508890 -0.867387 1.491902 0.000000 0.000000 0.000000
0.480098 -0.864282 1.522610 0.000000 0.000000 0.000000
0.514818 -0.862249 1.517041 0.000000 0.000000 0.000000
0.493950 -0.861829 1.543736 0.000000 0.000000 0.000000
0.506300 -0.865322 1.494886 0.000000 0.000000 0.000000
0.497999 -0.866825 1.528475 0.000000 0.000000 0.000000
0.515308 -0.863545 1.524881 0.000000 0.000000 0.000000
0.494980 -0.863543 1.548031 0.000000 0.000000 0.000000
0.510884 -0.869174 1.557684 0.000000 0.000000 0.000000
0.476174 -0.865705 1.503499 0.000000 0.000000 0.000000
0.514472 -0.867141 1.544836 0.000000 0.000000 0.000000
0.511555 -0.867394 1.532804 0.000000 0.000000 0.000000
0.486119 -0.861934 1.516290 0.000000 0.000000 0.000000
0.514970 -0.862360 1.541071 0.000000 0.000000 0.000000
0.510710 -0.859756 1.525669 0.000000 0.000000 0.000000
0.491618 -0.862792 1.516171 0.000000 0.000000 0.000000
0.512902 -0.866500 1.555107 0.000000 0.000000 0.000000
0.498982 -0.864396 1.538756 0.000000 0.000000 0.000000
0.501229 -0.862434 1.544480 0.000000 0.000000 0.000000
0.473444 -0.856548 1.502499 0.000000 0.000000 0.000000
0.504195 -0.866823 1.556758 0.000000 0.000000 0.000000
0.472472 -0.860593 1.505064 0.000000 0.000000 0.000000
0.514742 -0.864559 1.549752 0.000000 0.000000 0.000000
0.509864 -0.859851 1.537338 0.000000 0.000000 0.000000
0.500250 -0.866571 1.541020 0.000000 0.000000 0.000000
0.496763 -0.865684 1.543184 0.000000 0.000000 0.000000
0.501538 -0.868076 1.547058 0.000000 0.000000 0.000000
0.504533 -0.861897 1.558474 0.000000 0.000000 0.000000
0.507652 -0.855421 1.545735 0.000000 0.000000 0.000000
0.499324 -0.867735 1.549966 0.000000 0.000000 0.000000
0.497935 -0.867196 1.527315 0.000000 0.000000 0.000000
0.515259 -0.863301 1.558266 0.000000 0.000000 0.000000
0.504140 -0.873056 1.545712 0.000000 0.000000 0.000000
0.515951 -0.865432 1.546833 0.000000 0.000000 0.000000
0.502463 -0.864507 1.528955 0.000000 0.000000 0.000000
0.500376 -0.862112 1.553260 0.000000 0.000000 0.000000
0.486607 -0.857025 1.525064 0.000000 0.000000 0.000000
0.495336 -0.858550 1.545152 0.000000 0.000000 0.000000
0.516244 -0.862798 1.535970 0.000000 0.000000 0.000000
0.501473 -0.864686 1.544198 0.000000 0.000000 0.000000
0.498884 -0.860945 1.558842 0.000000 0.000000 0.000000
0.514871 -0.858939 1.545646 0.000000 0.000000 0.000000
0.504382 -0.861356 1.542742 0.000000 0.000000 0.000000
0.508341 -0.864746 1.506834 0.000000 0.000000 0.000000
0.469711 -0.854182 1.493332 0.000000 0.000000 0.000000
0.506519 -0.864988 1.506010 0.000000 0.000000 0.000000
0.512345 -0.864827 1.505743 0.000000 0.000000 0.000000
0.518219 -0.863987 1.496793 0.000000 0.000000 0.000000
0.475137 -0.863253 1.508138 0.000000 0.000000 0.000000
0.491851 -0.881597 1.515947 0.000000 0.000000 0.000000
0.502670 -0.878379 1.513399 0.000000 0.000000 0.000000
0.499791 -0.852912 1.512411 0.000000 0.000000 0.000000
0.501502 -0.868529 1.521289 0.000000 0.000000 0.000000
0.498344 -0.869608 1.523742 0.000000 0.000000 0.000000
0.502525 -0.867142 1.518642 0.000000 0.000000 0.000000
0.496740 -0.872436 1.521293 0.000000 0.000000 0.000000
0.493778 -0.872289 1.525782 0.000000 0.000000 0.000000
0.510923 -0.865064 1.509104 0.000000 0.000000 0.000000
0.477835 -0.863973 1.499463 0.000000 0.000000 0.000000
0.515656 -0.858851 1.487523 0.000000 0.000000 0.000000
0.475187 -0.858728 1.501183 0.000000 0.000000 0.000000
0.513287 -0.866741 1.493059 0.000000 0.000000 0.000000
0.506413 -0.870298 1.540889 0.000000 0.000000 0.000000
0.509417 -0.866343 1.499289 0.000000 0.000000 0.000000
0.507057 -0.865130 1.540247 0.000000 0.000000 0.000000
0.506284 -0.868925 1.499897 0.000000 0.000000 0.000000
0.481343 -0.863288 1.511790 0.000000 0.000000 0.000000
0.479662 -0.867948 1.514274 0.000000 0.000000 0.000000
0.511491 -0.873101 1.542035 0.000000 0.000000 0.000000
0.502639 -0.868686 1.517259 0.000000 0.000000 0.000000
0.500209 -0.870858 1.533245 0.000000 0.000000 0.000000
0.503557 -0.871491 1.520846 0.000000 0.000000 0.000000
0.497972 -0.869748 1.541421 0.000000 0.000000 0.000000
0.519562 -0.864539 1.545369 0.000000 0.000000 0.000000
0.506838 -0.867386 1.547303 0.000000 0.000000 0.000000
0.518800 -0.863772 1.530666 0.000000 0.000000 0.000000
0.504882 -0.871294 1.546025 0.000000 0.000000 0.000000
0.510388 -0.871019 1.548013 0.000000 0.000000 0.000000
0.517713 -0.865566 1.528337 0.000000 0.000000 0.000000
0.506691 -0.870758 1.554201 0.000000 0.000000 0.000000
0.511963 -0.868771 1.546682 0.000000 0.000000 0.000000
0.517642 -0.857767 1.553843 0.000000 0.000000 0.000000
0.512068 -0.865328 1.529864 0.000000 0.000000 0.000000
0.475219 -0.863711 1.514431 0.000000 0.000000 0.000000
0.477700 -0.863584 1.520432 0.000000 0.000000 0.000000
0.494511 -0.866166 1.529456 0.000000 0.000000 0.000000
0.500523 -0.864072 1.541295 0.000000 0.000000 0.000000
0.499887 -0.865058 1.544510 0.000000 0.000000 0.000000
0.501452 -0.868250 1.505865 0.000000 0.000000 0.000000
0.508558 -0.869553 1.508520 0.000000 0.000000 0.000000
0.503868 -0.860679 1.516770 0.000000 0.000000 0.000000
0.500401 -0.856315 1.515481 0.000000 0.000000 0.000000
0.502905 -0.858899 1.510359 0.000000 0.000000 0.000000
0.507195 -0.862876 1.546466 0.000000 0.000000 0.000000
0.504678 -0.867652 1.516708 0.000000 0.000000 0.000000
0.502061 -0.870003 1.517534 0.000000 0.000000 0.000000
0.492046 -0.863837 1.532483 0.000000 0.000000 0.000000
0.490072 -0.879002 1.525699 0.000000 0.000000 0.000000
0.506365 -0.869893 1.510510 0.000000 0.000000 0.000000
0.506980 -0.865284 1.514615 0.000000 0.000000 0.000000
0.493671 -0.873191 1.520610 0.000000 0.000000 0.000000
0.504990 -0.869337 1.513394 0.000000 0.000000 0.000000
0.507259 -0.858154 1.521612 0.000000 0.000000 0.000000
0.500970 -0.860317 1.555656 0.000000 0.000000 0.000000
0.492149 -0.862667 1.509764 0.000000 0.000000 0.000000
0.508911 -0.858831 1.532669 0.000000 0.000000 0.000000
0.507894 -0.867194 1.504936 0.000000 0.000000 0.000000
0.507547 -0.864852 1.506405 0.000000 0.000000 0.000000
0.505691 -0.859670 1.513335 0.000000 0.000000 0.000000
0.500569 -0.860879 1.554004 0.000000 0.000000 0.000000
0.489347 -0.858838 1.515361 0.000000 0.000000 0.000000
0.506210 -0.854868 1.534644 0.000000 0.000000 0.000000
0.504750 -0.869646 1.508463 0.000000 0.000000 0.000000
0.512116 -0.864633 1.503798 0.000000 0.000000 0.000000
0.477138 -0.852374 1.492399 0.000000 0.000000 0.000000
0.497835 -0.870368 1.539602 0.000000 0.000000 0.000000
0.505415 -0.868380 1.544644 0.000000 0.000000 0.000000
0.501839 -0.870993 1.553975 0.000000 0.000000 0.000000
0.507834 -0.870668 1.534576 0.000000 0.000000 0.000000
0.510483 -0.864530 1.505057 0.000000 0.000000 0.000000
0.506150 -0.873265 1.542332 0.000000 0.000000 0.000000
0.446999 -0.864418 1.510365 0.000000 0.000000 0.000000
0.456344 -0.860632 1.502283 0.000000 0.000000 0.000000
0.452552 -0.868712 1.498726 0.000000 0.000000 0.000000
0.460099 -0.862262 1.498737 0.000000 0.000000 0.000000
0.448398 -0.869245 1.505037 0.000000 0.000000 0.000000
0.445873 0.341896 1.255814 0.000000 0.000000 0.000000
0.504139 0.268510 1.220285 0.000000 0.000000 0.000000
0.508552 0.279000 1.195923 0.000000 0.000000 0.000000
0.509941 0.263908 1.206318 0.000000 0.000000 0.000000
0.463452 0.323960 1.244087 0.000000 0.000000 0.000000
0.497512 0.265877 1.215272 0.000000 0.000000 0.000000
0.517070 0.253616 1.201829 0.000000 0.000000 0.000000
0.511762 0.262367 1.225974 0.000000 0.000000 0.000000
0.505050 0.279834 1.200506 0.000000 0.000000 0.000000
0.450043 0.334808 1.247811 0.000000 0.000000 0.000000
0.498674 0.280716 1.216337 0.000000 0.000000 0.000000
0.518586 0.261601 1.227796 0.000000 0.000000 0.000000
0.512007 0.261864 1.211781 0.000000 0.000000 0.000000
0.499165 0.288205 1.208904 0.000000 0.000000 0.000000
0.443138 0.351394 1.252536 0.000000 0.000000 0.000000
0.449953 0.335586 1.241301 0.000000 0.000000 0.000000
0.499844 0.275384 1.213879 0.000000 0.000000 0.000000
0.510944 0.263791 1.214979 0.000000 0.000000 0.000000
0.510745 0.249748 1.208411 0.000000 0.000000 0.000000
0.500530 0.264494 1.232610 0.000000 0.000000 0.000000
0.494609 0.267512 1.238626 0.000000 0.000000 0.000000
0.517278 0.257684 1.200221 0.000000 0.000000 0.000000
0.491250 0.281145 1.236138 0.000000 0.000000 0.000000
0.504378 0.262864 1.228042 0.000000 0.000000 0.000000
0.497518 0.286002 1.211120 0.000000 0.000000 0.000000
0.447155 0.335116 1.250527 0.000000 0.000000 0.000000
0.494590 0.275366 1.223840 0.000000 0.000000 0.000000
0.488319 0.272791 1.230419 0.000000 0.000000 0.000000
0.441454 0.356703 1.246369 0.000000 0.000000 0.000000
0.488648 0.305899 1.211157 0.000000 0.000000 0.000000
0.506525 0.272405 1.219011 0.000000 0.000000 0.000000
0.496541 0.274323 1.229934 0.000000 0.000000 0.000000
0.441661 0.339407 1.277142 0.000000 0.000000 0.000000
0.501875 0.283411 1.211519 0.000000 0.000000 0.000000
0.496995 0.287527 1.215667 0.000000 0.000000 0.000000
0.513892 0.265392 1.196041 0.000000 0.000000 0.000000
0.491648 0.272762 1.231917 0.000000 0.000000 0.000000
0.511653 0.265501 1.198943 0.000000 0.000000 0.000000
0.487784 0.282143 1.229732 0.000000 0.000000 0.000000
0.481749 0.289854 1.240662 0.000000 0.000000 0.000000
0.503987 0.273549 1.214062 0.000000 0.000000 0.000000
0.507832 0.277358 1.196756 0.000000 0.000000 0.000000
0.486857 0.297503 1.206353 0.000000 0.000000 0.000000
0.490099 0.295820 1.219856 0.000000 0.000000 0.000000
0.504699 0.275919 1.208819 0.000000 0.000000 0.000000
0.444369 0.334618 1.251565 0.000000 0.000000 0.000000
0.498278 0.277240 1.223440 0.000000 0.000000 0.000000
0.501525 0.271607 1.228728 0.000000 0.000000 0.000000
0.482387 0.307005 1.237089 0.000000 0.000000 0.000000
0.503040 0.273580 1.217937 0.000000 0.000000 0.000000
0.498965 0.279534 1.214147 0.000000 0.000000 0.000000
0.452127 0.328108 1.256637 0.000000 0.000000 0.000000
0.518203 0.253736 1.199851 0.000000 0.000000 0.000000
0.481738 0.311483 1.214419 0.000000 0.000000 0.000000
0.485099 0.287222 1.228943 0.000000 0.000000 0.000000
0.508842 0.271707 1.212241 0.000000 0.000000 0.000000
0.501628 0.285321 1.204025 0.000000 0.000000 0.000000
0.463049 0.322258 1.242272 0.000000 0.000000 0.000000
0.480918 0.292835 1.248981 0.000000 0.000000 0.000000
0.513815 0.260985 1.211001 0.000000 0.000000 0.000000
0.491758 0.308770 1.204390 0.000000 0.000000 0.000000
0.517508 0.255302 1.214803 0.000000 0.000000 0.000000
0.488938 0.292490 1.218860 0.000000 0.000000 0.000000
0.441688 0.342849 1.275051 0.000000 0.000000 0.000000
0.442919 0.349999 1.245704 0.000000 0.000000 0.000000
0.447486 0.332950 1.258973 0.000000 0.000000 0.000000
0.501924 0.267000 1.229813 0.000000 0.000000 0.000000
0.515722 0.255229 1.195485 0.000000 0.000000 0.000000
0.483014 0.303733 1.231963 0.000000 0.000000 0.000000
0.486398 0.295211 1.226976 0.000000 0.000000 0.000000
0.495646 0.276254 1.214584 0.000000 0.000000 0.000000
0.496439 0.285186 1.202362 0.000000 0.000000 0.000000
0.495832 0.293161 1.214570 0.000000 0.000000 0.000000
0.497662 0.278653 1.237363 0.000000 0.000000 0.000000
0.497189 0.282141 1.201436 0.000000 0.000000 0.000000
0.508920 0.261258 1.222947 0.000000 0.000000 0.000000
0.450352 0.331189 1.244631 0.000000 0.000000 0.000000
0.500642 0.275214 1.223112 0.000000 0.000000 0.000000
0.519690 0.260345 1.192682 0.000000 0.000000 0.000000
0.495828 0.279467 1.225596 0.000000 0.000000 0.000000
0.443043 0.335849 1.261236 0.000000 0.000000 0.000000
0.509237 0.263820 1.206941 0.000000 0.000000 0.000000
0.486466 0.281977 1.225426 0.000000 0.000000 0.000000
0.497708 0.274485 1.233580 0.000000 0.000000 0.000000
0.487583 0.292084 1.238032 0.000000 0.000000 0.000000
0.484775 0.303036 1.204851 0.000000 0.000000 0.000000
0.490041 0.294227 1.231762 0.000000 0.000000 0.000000
0.493359 0.291970 1.210909 0.000000 0.000000 0.000000
0.486859 0.306259 1.211951 0.000000 0.000000 0.000000
0.504419 0.268845 1.220521 0.000000 0.000000 0.000000
0.443609 0.344126 1.254309 0.000000 0.000000 0.000000
0.489234 0.292817 1.210183 0.000000 0.000000 0.000000
0.486024 0.281572 1.247295 0.000000 0.000000 0.000000
0.511698 0.266484 1.195836 0.000000 0.000000 0.000000
0.494932 0.290084 1.216317 0.000000 0.000000 0.000000
0.487977 0.297404 1.209955 0.000000 0.000000 0.000000
0.519036 0.256149 1.202787 0.000000 0.000000 0.000000
0.518639 0.259645 1.197539 0.000000 0.000000 0.000000
0.481950 0.301434 1.213927 0.000000 0.000000 0.000000
0.493179 0.287513 1.204780 0.000000 0.000000 0.000000
0.499258 0.280327 1.218833 0.000000 0.000000 0.000000
0.451386 0.335711 1.256185 0.000000 0.000000 0.000000
0.501390 0.271984 1.201089 0.000000 0.000000 0.000000
0.442710 0.337524 1.257924 0.000000 0.000000 0.000000
0.488548 0.293735 1.207944 0.000000 0.000000 0.000000
0.453728 0.332854 1.240039 0.000000 0.000000 0.000000
0.493565 0.287196 1.203624 0.000000 0.000000 0.000000
0.488703 0.293309 1.203481 0.000000 0.000000 0.000000
0.503659 0.272029 1.214852 0.000000 0.000000 0.000000
0.497545 0.268836 1.215489 0.000000 0.000000 0.000000
0.483212 0.313799 1.204539 0.000000 0.000000 0.000000
0.440408 0.339455 1.275553 0.000000 0.000000 0.000000
0.440844 0.339408 1.260007 0.000000 0.000000 0.000000
0.444261 0.347392 1.243413 0.000000 0.000000 0.000000
0.455132 0.320739 1.250558 0.000000 0.000000 0.000000
0.507706 0.270939 1.203533 0.000000 0.000000 0.000000
0.496663 0.281493 1.217411 0.000000 0.000000 0.000000
0.507066 0.264560 1.226400 0.000000 0.000000 0.000000
0.497743 0.279698 1.201580 0.000000 0.000000 0.000000
0.514865 0.264442 1.205353 0.000000 0.000000 0.000000
0.448388 0.332695 1.253696 0.000000 0.000000 0.000000
0.460818 0.323831 1.256076 0.000000 0.000000 0.000000
0.440349 0.342672 1.267142 0.000000 0.000000 0.000000
0.443873 0.335441 1.271785 0.000000 0.000000 0.000000
0.441929 0.335208 1.269730 0.000000 0.000000 0.000000
0.440188 0.344029 1.271805 0.000000 0.000000 0.000000
0.519623 0.251245 1.193788 0.000000 0.000000 0.000000
0.443597 0.338994 1.267728 0.000000 0.000000 0.000000
0.489652 0.285490 1.257827 0.000000 0.000000 0.000000
0.490162 0.287585 1.249292 0.000000 0.000000 0.000000
0.483546 0.294890 1.251275 0.000000 0.000000 0.000000
0.492820 0.310820 1.202935 0.000000 0.000000 0.000000
0.513485 0.261506 1.195201 0.000000 0.000000 0.000000
0.515712 0.259585 1.201832 0.000000 0.000000 0.000000
0.448494 0.332222 1.247242 0.000000 0.000000 0.000000
0.508908 0.274140 1.208459 0.000000 0.000000 0.000000
0.446596 0.332046 1.263924 0.000000 0.000000 0.000000
0.450862 0.326443 1.248692 0.000000 0.000000 0.000000
0.455245 0.329964 1.260387 0.000000 0.000000 0.000000
0.509441 0.268350 1.203455 0.000000 0.000000 0.000000
0.449260 0.331466 1.251226 0.000000 0.000000 0.000000
0.452139 0.325887 1.269565 0.000000 0.000000 0.000000
0.499696 0.285208 1.194620 0.000000 0.000000 0.000000
0.487429 0.302013 1.217860 0.000000 0.000000 0.000000
0.519347 0.257282 1.198454 0.000000 0.000000 0.000000
0.486420 0.292706 1.244939 0.000000 0.000000 0.000000
0.501349 0.267356 1.232030 0.000000 0.000000 0.000000
0.466059 0.320380 1.250483 0.000000 0.000000 0.000000
0.516095 0.256042 1.195144 0.000000 0.000000 0.000000
0.483077 0.309200 1.209259 0.000000 0.000000 0.000000
0.493698 0.292378 1.197406 0.000000 0.000000 0.000000
0.496442 0.291815 1.209914 0.000000 0.000000 0.000000
0.452314 0.324074 1.265324 0.000000 0.000000 0.000000
0.499841 0.277108 1.207495 0.000000 0.000000 0.000000
0.441080 0.335194 1.267768 0.000000 0.000000 0.000000
0.461835 0.324138 1.253281 0.000000 0.000000 0.000000
0.505209 0.253917 1.222324 0.000000 0.000000 0.000000
0.496945 0.279428 1.239206 0.000000 0.000000 0.000000
0.498963 0.283184 1.198673 0.000000 0.000000 0.000000
0.518590 0.258022 1.199549 0.000000 0.000000 0.000000
0.487704 0.302659 1.200920 0.000000 0.000000 0.000000
0.499927 0.283259 1.200515 0.000000 0.000000 0.000000
0.501979 0.281334 1.198446 0.000000 0.000000 0.000000
0.449205 0.326132 1.262183 0.000000 0.000000 0.000000
0.440626 0.339973 1.277148 0.000000 0.000000 0.000000
0.443893 0.335207 1.269617 0.000000 0.000000 0.000000
0.441273 0.338493 1.275540 0.000000 0.000000 0.000000
0.445070 0.333968 1.265983 0.000000 0.000000 0.000000
0.455146 0.324009 1.270606 0.000000 0.000000 0.000000
0.509808 0.265524 1.209797 0.000000 0.000000 0.000000
0.513232 0.257001 1.223577 0.000000 0.000000 0.000000
0.472840 0.332972 1.240232 0.000000 0.000000 0.000000
0.451519 0.328218 1.271799 0.000000 0.000000 0.000000
0.452788 0.326306 1.270346 0.000000 0.000000 0.000000
0.450223 0.330125 1.269874 0.000000 0.000000 0.000000
0.453309 0.325787 1.270015 0.000000 0.000000 0.000000
0.442999 0.336343 1.273021 0.000000 0.000000 0.000000
0.443911 0.324357 1.270224 0.000000 0.000000 0.000000
0.453186 0.323951 1.271320 0.000000 0.000000 0.000000
0.456329 0.326050 1.275369 0.000000 0.000000 0.000000
0.451735 0.326237 1.269891 0.000000 0.000000 0.000000
0.512526 0.267458 1.229413 0.000000 0.000000 0.000000
0.500614 0.271510 1.230510 0.000000 0.000000 0.000000
0.484326 0.294231 1.255330 0.000000 0.000000 0.000000
0.487909 0.293791 1.253953 0.000000 0.000000 0.000000
0.487622 0.290848 1.252951 0.000000 0.000000 0.000000
0.441669 0.338172 1.271609 0.000000 0.000000 0.000000
0.450501 0.328180 1.270051 0.000000 0.000000 0.000000
0.489151 0.302674 1.213840 0.000000 0.000000 0.000000
0.485317 0.301332 1.213625 0.000000 0.000000 0.000000
0.441207 0.341026 1.274975 0.000000 0.000000 0.000000
0.446119 0.330795 1.244026 0.000000 0.000000 0.000000
0.441317 0.336463 1.276306 0.000000 0.000000 0.000000
0.510759 0.265403 1.229615 0.000000 0.000000 0.000000
0.511511 0.266787 1.196203 0.000000 0.000000 0.000000
0.449739 0.328094 1.255477 0.000000 0.000000 0.000000
0.515217 0.264175 1.192016 0.000000 0.000000 0.000000
0.453307 0.328157 1.272805 0.000000 0.000000 0.000000
0.451081 0.327773 1.270031 0.000000 0.000000 0.000000
0.452902 0.327367 1.271793 0.000000 0.000000 0.000000
0.456090 0.323331 1.266826 0.000000 0.000000 0.000000
0.440870 0.345280 1.263647 0.000000 0.000000 0.000000
0.444456 0.336459 1.272389 0.000000 0.000000 0.000000
0.444116 0.333233 1.272917 0.000000 0.000000 0.000000
0.487702 0.283993 1.230651 0.000000 0.000000 0.000000
0.486751 0.294356 1.215233 0.000000 0.000000 0.000000
0.445312 0.333188 1.264626 0.000000 0.000000 0.000000
0.495581 0.280503 1.227452 0.000000 0.000000 0.000000
0.499035 0.268204 1.236537 0.000000 0.000000 0.000000
0.506943 0.260646 1.221004 0.000000 0.000000 0.000000
0.485384 0.287043 1.240302 0.000000 0.000000 0.000000
0.443503 0.336781 1.269520 0.000000 0.000000 0.000000
0.489498 0.294533 1.220830 0.000000 0.000000 0.000000
0.488396 0.304236 1.207930 0.000000 0.000000 0.000000
0.512223 0.264418 1.220629 0.000000 0.000000 0.000000
0.485632 0.298004 1.224080 0.000000 0.000000 0.000000
0.494183 0.295454 1.193509 0.000000 0.000000 0.000000
0.516141 0.275721 1.226822 0.000000 0.000000 0.000000
0.508423 0.267474 1.211555 0.000000 0.000000 0.000000
0.514025 0.259483 1.220871 0.000000 0.000000 0.000000
0.514835 0.263764 1.213194 0.000000 0.000000 0.000000
0.512015 0.269904 1.200372 0.000000 0.000000 0.000000
0.502102 0.287888 1.201120 0.000000 0.000000 0.000000
0.504587 0.280259 1.207054 0.000000 0.000000 0.000000
0.507674 0.274313 1.203884 0.000000 0.000000 0.000000
0.505353 0.276270 1.205540 0.000000 0.000000 0.000000
0.510718 0.274851 1.197731 0.000000 0.000000 0.000000
0.509839 0.255978 1.222931 0.000000 0.000000 0.000000
0.493713 0.266253 1.232900 0.000000 0.000000 0.000000
0.502780 0.280403 1.202478 0.000000 0.000000 0.000000
0.516535 0.256895 1.210301 0.000000 0.000000 0.000000
0.476589 0.322008 1.244505 0.000000 0.000000 0.000000
0.455304 0.325536 1.261575 0.000000 0.000000 0.000000
0.513866 0.255203 1.216026 0.000000 0.000000 0.000000
0.512584 0.259957 1.226334 0.000000 0.000000 0.000000
0.503272 0.270362 1.235802 0.000000 0.000000 0.000000
0.493514 0.293565 1.198813 0.000000 0.000000 0.000000
0.448708 0.332167 1.253924 0.000000 0.000000 0.000000
0.463360 0.324991 1.240616 0.000000 0.000000 0.000000
0.495237 0.298641 1.205902 0.000000 0.000000 0.000000
0.482052 0.296322 1.260396 0.000000 0.000000 0.000000
0.500785 0.272533 1.238454 0.000000 0.000000 0.000000
0.442170 0.351089 1.245770 0.000000 0.000000 0.000000
0.496941 0.289842 1.196447 0.000000 0.000000 0.000000
0.460090 0.320445 1.243979 0.000000 0.000000 0.000000
0.483690 0.312232 1.214739 0.000000 0.000000 0.000000
0.484510 0.296613 1.255865 0.000000 0.000000 0.000000
0.451859 0.339848 1.250559 0.000000 0.000000 0.000000
0.442457 0.335583 1.271355 0.000000 0.000000 0.000000
0.450551 0.329049 1.270504 0.000000 0.000000 0.000000
0.454577 0.322136 1.267654 0.000000 0.000000 0.000000
0.511044 0.258873 1.231037 0.000000 0.000000 0.000000
0.452122 0.327265 1.270468 0.000000 0.000000 0.000000
0.447686 0.326719 1.268612 0.000000 0.000000 0.000000
0.496359 0.297954 1.193248 0.000000 0.000000 0.000000
0.501627 0.276890 1.207263 0.000000 0.000000 0.000000
0.514617 0.260772 1.206010 0.000000 0.000000 0.000000
0.458005 0.322111 1.267655 0.000000 0.000000 0.000000
0.518332 0.251522 1.196892 0.000000 0.000000 0.000000
0.508227 0.266396 1.211245 0.000000 0.000000 0.000000
0.507513 0.266381 1.218143 0.000000 0.000000 0.000000
0.505942 0.271035 1.219643 0.000000 0.000000 0.000000
0.508515 0.255093 1.219561 0.000000 0.000000 0.000000
0.445376 0.334105 1.254023 0.000000 0.000000 0.000000
0.517616 0.259136 1.201245 0.000000 0.000000 0.000000
0.486779 0.288709 1.251880 0.000000 0.000000 0.000000
0.518471 0.246608 1.217367 0.000000 0.000000 0.000000
0.496693 0.288667 1.204631 0.000000 0.000000 0.000000
0.508232 0.263590 1.229429 0.000000 0.000000 0.000000
0.517586 0.248763 1.212124 0.000000 0.000000 0.000000
0.483568 0.296610 1.247140 0.000000 0.000000 0.000000
0.493436 0.292352 1.213060 0.000000 0.000000 0.000000
0.490602 0.289956 1.246341 0.000000 0.000000 0.000000
0.487682 0.307092 1.204429 0.000000 0.000000 0.000000
0.484806 0.297228 1.202295 0.000000 0.000000 0.000000
0.500939 0.277833 1.238641 0.000000 0.000000 0.000000
0.497468 0.281148 1.247458 0.000000 0.000000 0.000000
0.507376 0.262266 1.219553 0.000000 0.000000 0.000000
0.490546 0.287152 1.224641 0.000000 0.000000 0.000000
0.492920 0.282948 1.235741 0.000000 0.000000 0.000000
0.515470 0.253412 1.217376 0.000000 0.000000 0.000000
0.482009 0.310189 1.211346 0.000000 0.000000 0.000000
0.495425 0.287262 1.251824 0.000000 0.000000 0.000000
0.509521 0.254474 1.216449 0.000000 0.000000 0.000000
0.499076 0.269149 1.235949 0.000000 0.000000 0.000000
0.459656 0.338992 1.259554 0.000000 0.000000 0.000000
0.480291 0.302051 1.218129 0.000000 0.000000 0.000000
0.519234 0.246823 1.213389 0.000000 0.000000 0.000000
0.461622 0.333579 1.263783 0.000000 0.000000 0.000000
0.483293 0.293951 1.222276 0.000000 0.000000 0.000000
0.513881 0.259160 1.216333 0.000000 0.000000 0.000000
0.506960 0.277300 1.209138 0.000000 0.000000 0.000000
0.484571 0.294213 1.257078 0.000000 0.000000 0.000000
0.487525 0.287872 1.251558 0.000000 0.000000 0.000000
0.519395 0.255397 1.193334 0.000000 0.000000 0.000000
0.514130 0.258294 1.206813 0.000000 0.000000 0.000000
0.507371 0.280188 1.195545 0.000000 0.000000 0.000000
0.489244 0.287675 1.258760 0.000000 0.000000 0.000000
0.484380 0.304790 1.204500 0.000000 0.000000 0.000000
0.487773 0.297736 1.203517 0.000000 0.000000 0.000000
0.482747 0.301674 1.208092 0.000000 0.000000 0.000000
0.448048 0.325507 1.268968 0.000000 0.000000 0.000000
0.513049 0.270793 1.193437 0.000000 0.000000 0.000000
0.491614 0.300390 1.199143 0.000000 0.000000 0.000000
0.494363 0.294786 1.197455 0.000000 0.000000 0.000000
0.481640 0.305461 1.199572 0.000000 0.000000 0.000000
0.492756 0.299327 1.204420 0.000000 0.000000 0.000000
0.500267 0.286512 1.196492 0.000000 0.000000 0.000000
0.483243 0.305717 1.207130 0.000000 0.000000 0.000000
0.511327 0.278517 1.196027 0.000000 0.000000 0.000000
0.482396 0.312426 1.212849 0.000000 0.000000 0.000000
0.488525 0.303195 1.199307 0.000000 0.000000 0.000000
0.514488 0.260924 1.194300 0.000000 0.000000 0.000000
0.459244 0.320203 1.263664 0.000000 0.000000 0.000000
0.495119 0.290328 1.197915 0.000000 0.000000 0.000000
0.488045 0.299722 1.198895 0.000000 0.000000 0.000000
0.493100 0.291386 1.202776 0.000000 0.000000 0.000000
0.442070 0.334914 1.269935 0.000000 0.000000 0.000000
0.518345 0.241692 1.212245 0.000000 0.000000 0.000000
0.518535 0.242980 1.205765 0.000000 0.000000 0.000000
0.515591 0.256997 1.194852 0.000000 0.000000 0.000000
0.456875 0.320253 1.258471 0.000000 0.000000 0.000000
0.481420 0.312712 1.203786 0.000000 0.000000 0.000000
0.508648 0.268985 1.197665 0.000000 0.000000 0.000000
0.458403 0.324370 1.244851 0.000000 0.000000 0.000000
0.451817 0.329991 1.273175 0.000000 0.000000 0.000000
0.462037 0.323953 1.256303 0.000000 0.000000 0.000000
0.514467 0.259151 1.195676 0.000000 0.000000 0.000000
0.496395 0.267614 1.233048 0.000000 0.000000 0.000000
0.513774 0.264855 1.194447 0.000000 0.000000 0.000000
0.489064 0.277574 1.239547 0.000000 0.000000 0.000000
0.519603 0.257218 1.191657 0.000000 0.000000 0.000000
0.514892 0.265629 1.198095 0.000000 0.000000 0.000000
0.516814 0.263048 1.194615 0.000000 0.000000 0.000000
0.503021 0.281741 1.195611 0.000000 0.000000 0.000000
0.444162 0.335406 1.266093 0.000000 0.000000 0.000000
0.500793 0.287357 1.197749 0.000000 0.000000 0.000000
0.443181 0.336620 1.272961 0.000000 0.000000 0.000000
0.502230 0.299926 1.198575 0.000000 0.000000 0.000000
0.503942 0.285104 1.194164 0.000000 0.000000 0.000000
0.516287 0.254985 1.210004 0.000000 0.000000 0.000000
0.510319 0.267600 1.193599 0.000000 0.000000 0.000000
0.493879 0.284144 1.246919 0.000000 0.000000 0.000000
0.512585 0.269866 1.192360 0.000000 0.000000 0.000000
0.511130 0.275248 1.191884 0.000000 0.000000 0.000000
0.501648 0.273241 1.203772 0.000000 0.000000 0.000000
0.495678 0.282389 1.204016 0.000000 0.000000 0.000000
0.510319 0.261273 1.198542 0.000000 0.000000 0.000000
0.504935 0.275737 1.198123 0.000000 0.000000 0.000000
0.485356 0.302474 1.206119 0.000000 0.000000 0.000000
0.505400 0.268981 1.197697 0.000000 0.000000 0.000000
0.498414 0.280641 1.200536 0.000000 0.000000 0.000000
0.486878 0.300182 1.203818 0.000000 0.000000 0.000000
0.497251 0.296786 1.199676 0.000000 0.000000 0.000000
0.497863 0.280154 1.202668 0.000000 0.000000 0.000000
0.503576 0.268253 1.200050 0.000000 0.000000 0.000000
0.501764 0.279983 1.197657 0.000000 0.000000 0.000000
0.499106 0.280412 1.199767 0.000000 0.000000 0.000000
0.504209 0.271320 1.197546 0.000000 0.000000 0.000000
0.513147 0.261988 1.197794 0.000000 0.000000 0.000000
0.444406 0.337391 1.271592 0.000000 0.000000 0.000000
0.440668 0.334963 1.268935 0.000000 0.000000 0.000000
0.440711 0.340571 1.277090 0.000000 0.000000 0.000000
0.491549 0.287524 1.253755 0.000000 0.000000 0.000000
0.444403 0.334619 1.271581 0.000000 0.000000 0.000000
0.450998 0.332072 1.272690 0.000000 0.000000 0.000000
0.441680 0.339651 1.256354 0.000000 0.000000 0.000000
0.444604 0.335506 1.272247 0.000000 0.000000 0.000000
0.499392 0.289700 1.196414 0.000000 0.000000 0.000000
0.505438 0.275673 1.196992 0.000000 0.000000 0.000000
0.501314 0.270426 1.226141 0.000000 0.000000 0.000000
0.497114 0.283363 1.195149 0.000000 0.000000 0.000000
0.496193 0.294476 1.197917 0.000000 0.000000 0.000000
0.503693 0.268775 1.236596 0.000000 0.000000 0.000000
0.502970 0.282378 1.198320 0.000000 0.000000 0.000000
0.497457 0.291289 1.197763 0.000000 0.000000 0.000000
0.446078 0.336645 1.274676 0.000000 0.000000 0.000000
0.516003 0.241428 1.210635 0.000000 0.000000 0.000000
0.441602 0.339097 1.271500 0.000000 0.000000 0.000000
0.516242 0.243194 1.214449 0.000000 0.000000 0.000000
0.441604 0.338319 1.275620 0.000000 0.000000 0.000000
0.444133 0.334931 1.271070 0.000000 0.000000 0.000000
0.442049 0.340664 1.270093 0.000000 0.000000 0.000000
0.509386 0.267357 1.197499 0.000000 0.000000 0.000000
0.442568 0.338969 1.274777 0.000000 0.000000 0.000000
0.496198 0.291171 1.195798 0.000000 0.000000 0.000000
0.441964 0.337900 1.272735 0.000000 0.000000 0.000000
0.459525 0.327813 1.266600 0.000000 0.000000 0.000000
0.513530 0.253622 1.193050 0.000000 0.000000 0.000000
0.519331 0.250427 1.195509 0.000000 0.000000 0.000000
0.518616 0.256357 1.192865 0.000000 0.000000 0.000000
0.502020 0.277794 1.200573 0.000000 0.000000 0.000000
0.511011 0.269354 1.193733 0.000000 0.000000 0.000000
0.510584 0.264792 1.197473 0.000000 0.000000 0.000000
0.456713 0.325702 1.266324 0.000000 0.000000 0.000000
0.449611 0.332417 1.274409 0.000000 0.000000 0.000000
0.445537 0.332605 1.271238 0.000000 0.000000 0.000000
0.517180 0.247685 1.219454 0.000000 0.000000 0.000000
0.453971 0.333422 1.274778 0.000000 0.000000 0.000000
0.515134 0.247957 1.218801 0.000000 0.000000 0.000000
0.519002 0.249613 1.217717 0.000000 0.000000 0.000000
0.516007 0.258262 1.225090 0.000000 0.000000 0.000000
