ply
format ascii 1.0
comment VCGLIB generated
obj_info Generated by SPFormer!
element vertex 719
property float x
property float y
property float z
property float nx
property float ny
property float nz
end_header
0.450869 -0.147427 2.954515 0.000000 0.000000 0.000000
0.454126 -0.139999 2.962805 0.000000 0.000000 0.000000
0.445224 -0.185195 2.966979 0.000000 0.000000 0.000000
0.009227 2.415057 1.948994 0.000000 0.000000 0.000000
-0.005229 2.397863 1.935241 0.000000 0.000000 0.000000
0.013332 2.356430 1.937158 0.000000 0.000000 0.000000
-0.017976 2.433897 1.930343 0.000000 0.000000 0.000000
-0.011939 2.415252 1.927800 0.000000 0.000000 0.000000
-0.000355 2.377400 1.925502 0.000000 0.000000 0.000000
0.008939 2.381160 1.926180 0.000000 0.000000 0.000000
0.003906 2.346599 1.927565 0.000000 0.000000 0.000000
-0.022799 2.421689 1.924723 0.000000 0.000000 0.000000
-0.007774 2.403169 1.917190 0.000000 0.000000 0.000000
-0.005021 2.432109 1.934226 0.000000 0.000000 0.000000
-0.008006 2.425634 1.921734 0.000000 0.000000 0.000000
-0.021455 2.436021 1.942835 0.000000 0.000000 0.000000
-0.003358 2.351582 1.924186 0.000000 0.000000 0.000000
-0.006230 2.417607 1.931070 0.000000 0.000000 0.000000
-0.017398 2.404716 1.919849 0.000000 0.000000 0.000000
-0.009204 2.436313 1.946523 0.000000 0.000000 0.000000
-0.003960 2.418410 1.950795 0.000000 0.000000 0.000000
-0.006893 2.397004 1.931424 0.000000 0.000000 0.000000
0.002599 2.393968 1.924943 0.000000 0.000000 0.000000
-0.004174 2.409027 1.932982 0.000000 0.000000 0.000000
-0.000141 2.350490 1.925120 0.000000 0.000000 0.000000
-0.007174 2.418027 1.931471 0.000000 0.000000 0.000000
-0.014582 2.401724 1.928678 0.000000 0.000000 0.000000
-0.018703 2.439950 1.926619 0.000000 0.000000 0.000000
-0.001085 2.348561 1.924175 0.000000 0.000000 0.000000
-0.018522 2.438068 1.924349 0.000000 0.000000 0.000000
0.010590 2.404640 1.945104 0.000000 0.000000 0.000000
0.445810 -0.176436 2.964958 0.000000 0.000000 0.000000
0.448872 -0.197253 2.966423 0.000000 0.000000 0.000000
0.443301 -0.158001 2.958192 0.000000 0.000000 0.000000
0.001469 2.361696 1.921651 0.000000 0.000000 0.000000
0.458729 -0.145174 2.957874 0.000000 0.000000 0.000000
-0.006338 2.358877 1.924542 0.000000 0.000000 0.000000
-0.015695 2.392349 1.931077 0.000000 0.000000 0.000000
-0.003998 2.417235 1.940119 0.000000 0.000000 0.000000
0.001360 2.374450 1.920467 0.000000 0.000000 0.000000
-0.002371 2.384775 1.946196 0.000000 0.000000 0.000000
-0.011020 2.402874 1.944192 0.000000 0.000000 0.000000
-0.022534 2.406959 1.940119 0.000000 0.000000 0.000000
-0.001443 2.416499 1.947570 0.000000 0.000000 0.000000
0.008901 2.352267 1.936466 0.000000 0.000000 0.000000
-0.011053 2.414028 1.927379 0.000000 0.000000 0.000000
0.452945 -0.163291 2.964968 0.000000 0.000000 0.000000
0.449777 -0.159177 2.963078 0.000000 0.000000 0.000000
-0.010781 2.400833 1.926914 0.000000 0.000000 0.000000
0.455375 -0.152071 2.959512 0.000000 0.000000 0.000000
0.443399 -0.177904 2.971243 0.000000 0.000000 0.000000
-0.008392 2.395265 1.927721 0.000000 0.000000 0.000000
-0.004239 2.403443 1.936103 0.000000 0.000000 0.000000
-0.011916 2.415294 1.940240 0.000000 0.000000 0.000000
-0.005405 2.406884 1.933779 0.000000 0.000000 0.000000
0.449108 -0.158542 2.952922 0.000000 0.000000 0.000000
0.007747 2.362750 1.945000 0.000000 0.000000 0.000000
-0.003461 2.359309 1.930532 0.000000 0.000000 0.000000
-0.005756 2.382934 1.931702 0.000000 0.000000 0.000000
0.441907 -0.173367 2.964003 0.000000 0.000000 0.000000
0.447505 -0.164880 2.960857 0.000000 0.000000 0.000000
0.450397 -0.176230 2.963736 0.000000 0.000000 0.000000
0.460177 -0.163549 2.970159 0.000000 0.000000 0.000000
-0.024348 2.434487 1.930050 0.000000 0.000000 0.000000
-0.007120 2.400088 1.931651 0.000000 0.000000 0.000000
0.005843 2.409342 1.939314 0.000000 0.000000 0.000000
0.006402 2.395830 1.938918 0.000000 0.000000 0.000000
0.016236 2.367901 1.941670 0.000000 0.000000 0.000000
-0.015690 2.403463 1.928552 0.000000 0.000000 0.000000
0.453984 -0.151617 2.954602 0.000000 0.000000 0.000000
0.366217 0.570295 1.484272 0.000000 0.000000 0.000000
0.002556 2.417637 1.939386 0.000000 0.000000 0.000000
-0.010132 2.418897 1.929771 0.000000 0.000000 0.000000
-0.022985 2.395181 1.913887 0.000000 0.000000 0.000000
-0.003265 2.438777 1.939101 0.000000 0.000000 0.000000
-0.003929 2.428768 1.937575 0.000000 0.000000 0.000000
0.008847 2.387373 1.939435 0.000000 0.000000 0.000000
0.000671 2.321120 1.923916 0.000000 0.000000 0.000000
0.000845 2.357518 1.938753 0.000000 0.000000 0.000000
0.005732 2.381284 1.944627 0.000000 0.000000 0.000000
0.000149 2.386625 1.939507 0.000000 0.000000 0.000000
0.004511 2.331163 1.937023 0.000000 0.000000 0.000000
-0.006525 2.421419 1.930935 0.000000 0.000000 0.000000
-0.001244 2.373011 1.935162 0.000000 0.000000 0.000000
-0.000232 2.342275 1.935506 0.000000 0.000000 0.000000
0.004649 2.383470 1.924694 0.000000 0.000000 0.000000
0.008160 2.407129 1.942448 0.000000 0.000000 0.000000
-0.018953 2.400773 1.940624 0.000000 0.000000 0.000000
0.011336 2.368754 1.944405 0.000000 0.000000 0.000000
0.001612 2.357900 1.935477 0.000000 0.000000 0.000000
0.005347 2.419684 1.941051 0.000000 0.000000 0.000000
0.010421 2.391034 1.943196 0.000000 0.000000 0.000000
0.452844 -0.146029 2.963286 0.000000 0.000000 0.000000
0.459736 -0.153879 2.958763 0.000000 0.000000 0.000000
-0.010137 2.420609 1.941606 0.000000 0.000000 0.000000
0.001908 2.352258 1.928947 0.000000 0.000000 0.000000
-0.004641 2.360673 1.927646 0.000000 0.000000 0.000000
-0.010523 2.362705 1.935146 0.000000 0.000000 0.000000
0.003111 2.336863 1.925141 0.000000 0.000000 0.000000
-0.023533 2.416370 1.922604 0.000000 0.000000 0.000000
-0.003955 2.358836 1.933253 0.000000 0.000000 0.000000
0.007247 2.340373 1.939589 0.000000 0.000000 0.000000
0.463835 -0.158667 2.958076 0.000000 0.000000 0.000000
0.002780 2.345971 1.924192 0.000000 0.000000 0.000000
-0.007579 2.372725 1.925819 0.000000 0.000000 0.000000
0.008680 2.358261 1.937841 0.000000 0.000000 0.000000
0.462792 -0.152368 2.960385 0.000000 0.000000 0.000000
0.455588 -0.168522 2.961700 0.000000 0.000000 0.000000
-0.002738 2.388855 1.943680 0.000000 0.000000 0.000000
0.003727 2.334550 1.926666 0.000000 0.000000 0.000000
0.002147 2.346283 1.922168 0.000000 0.000000 0.000000
0.012461 2.390906 1.945207 0.000000 0.000000 0.000000
0.005672 2.321881 1.926269 0.000000 0.000000 0.000000
0.011258 2.402061 1.946986 0.000000 0.000000 0.000000
0.446712 -0.165306 2.960314 0.000000 0.000000 0.000000
0.005042 2.339884 1.928202 0.000000 0.000000 0.000000
-0.007122 2.367560 1.922845 0.000000 0.000000 0.000000
0.440794 -0.181343 2.961243 0.000000 0.000000 0.000000
-0.018220 2.437291 1.928743 0.000000 0.000000 0.000000
0.454433 -0.147874 2.965250 0.000000 0.000000 0.000000
-0.004876 2.425347 1.934469 0.000000 0.000000 0.000000
-0.017480 2.407803 1.939463 0.000000 0.000000 0.000000
0.001819 2.369108 1.921680 0.000000 0.000000 0.000000
-0.004878 2.408675 1.947094 0.000000 0.000000 0.000000
0.453890 -0.158929 2.946861 0.000000 0.000000 0.000000
0.441329 -0.176303 2.970294 0.000000 0.000000 0.000000
0.002047 2.417385 1.938082 0.000000 0.000000 0.000000
-0.007974 2.329540 1.921724 0.000000 0.000000 0.000000
-0.010174 2.427812 1.931750 0.000000 0.000000 0.000000
0.004808 2.436227 1.949326 0.000000 0.000000 0.000000
0.006524 2.326586 1.923425 0.000000 0.000000 0.000000
-0.001140 2.378901 1.939027 0.000000 0.000000 0.000000
0.003631 2.337783 1.925572 0.000000 0.000000 0.000000
-0.012398 2.430410 1.941423 0.000000 0.000000 0.000000
0.002539 2.335346 1.922707 0.000000 0.000000 0.000000
-0.004827 2.387904 1.932312 0.000000 0.000000 0.000000
0.006193 2.339427 1.928609 0.000000 0.000000 0.000000
0.003452 2.345958 1.927257 0.000000 0.000000 0.000000
0.005061 2.340062 1.936993 0.000000 0.000000 0.000000
-0.011058 2.412461 1.929281 0.000000 0.000000 0.000000
-0.013720 2.435979 1.928885 0.000000 0.000000 0.000000
-0.025597 2.420027 1.921616 0.000000 0.000000 0.000000
-0.016353 2.413396 1.924071 0.000000 0.000000 0.000000
-0.004720 2.433133 1.928618 0.000000 0.000000 0.000000
-0.013576 2.426024 1.927900 0.000000 0.000000 0.000000
-0.018904 2.429347 1.924788 0.000000 0.000000 0.000000
-0.016214 2.434103 1.926833 0.000000 0.000000 0.000000
-0.016835 2.433093 1.925655 0.000000 0.000000 0.000000
-0.024033 2.439365 1.930270 0.000000 0.000000 0.000000
-0.023157 2.414628 1.934637 0.000000 0.000000 0.000000
0.460748 -0.154338 2.965253 0.000000 0.000000 0.000000
0.011231 2.401135 1.948361 0.000000 0.000000 0.000000
0.003328 2.322078 1.923696 0.000000 0.000000 0.000000
0.002623 2.337609 1.925173 0.000000 0.000000 0.000000
0.453728 -0.153793 2.956270 0.000000 0.000000 0.000000
-0.007461 2.361369 1.926557 0.000000 0.000000 0.000000
0.457518 -0.152510 2.954021 0.000000 0.000000 0.000000
0.461121 -0.158101 2.964655 0.000000 0.000000 0.000000
0.450880 -0.146159 2.955704 0.000000 0.000000 0.000000
-0.016415 2.425952 1.925705 0.000000 0.000000 0.000000
-0.028309 2.422845 1.929931 0.000000 0.000000 0.000000
-0.017657 2.434992 1.927204 0.000000 0.000000 0.000000
-0.014597 2.380271 1.924143 0.000000 0.000000 0.000000
-0.006453 2.379416 1.938241 0.000000 0.000000 0.000000
0.460054 -0.160484 2.962951 0.000000 0.000000 0.000000
-0.000526 2.340311 1.924285 0.000000 0.000000 0.000000
-0.007108 2.359749 1.922714 0.000000 0.000000 0.000000
-0.004412 2.358873 1.925859 0.000000 0.000000 0.000000
0.008033 2.331438 1.930409 0.000000 0.000000 0.000000
0.448034 -0.159443 2.959769 0.000000 0.000000 0.000000
-0.006271 2.353175 1.921273 0.000000 0.000000 0.000000
-0.013041 2.378647 1.936058 0.000000 0.000000 0.000000
0.007493 2.321643 1.929264 0.000000 0.000000 0.000000
0.449311 -0.199178 2.967130 0.000000 0.000000 0.000000
-0.006901 2.351050 1.921885 0.000000 0.000000 0.000000
-0.002584 2.352353 1.915809 0.000000 0.000000 0.000000
-0.019212 2.438389 1.928647 0.000000 0.000000 0.000000
0.003810 2.340407 1.926042 0.000000 0.000000 0.000000
-0.022615 2.408132 1.924969 0.000000 0.000000 0.000000
-0.014392 2.422245 1.926721 0.000000 0.000000 0.000000
-0.018173 2.425036 1.927884 0.000000 0.000000 0.000000
0.445454 -0.164601 2.963473 0.000000 0.000000 0.000000
-0.020943 2.428747 1.929117 0.000000 0.000000 0.000000
-0.018775 2.417341 1.920747 0.000000 0.000000 0.000000
-0.013607 2.366664 1.910197 0.000000 0.000000 0.000000
-0.020701 2.405683 1.938370 0.000000 0.000000 0.000000
0.008897 2.337364 1.932962 0.000000 0.000000 0.000000
-0.002626 2.358268 1.930022 0.000000 0.000000 0.000000
0.004791 2.389247 1.924021 0.000000 0.000000 0.000000
-0.010038 2.421665 1.930735 0.000000 0.000000 0.000000
0.012823 2.357126 1.926204 0.000000 0.000000 0.000000
-0.009364 2.361477 1.919321 0.000000 0.000000 0.000000
-0.014686 2.385897 1.940083 0.000000 0.000000 0.000000
-0.011536 2.422544 1.924845 0.000000 0.000000 0.000000
-0.013862 2.402692 1.926236 0.000000 0.000000 0.000000
-0.001834 2.327500 1.931021 0.000000 0.000000 0.000000
-0.017023 2.364803 1.919378 0.000000 0.000000 0.000000
0.001374 2.344110 1.921838 0.000000 0.000000 0.000000
0.014510 2.331468 1.925833 0.000000 0.000000 0.000000
0.006111 2.328526 1.920119 0.000000 0.000000 0.000000
0.006017 2.351887 1.930279 0.000000 0.000000 0.000000
0.001429 2.342248 1.923076 0.000000 0.000000 0.000000
0.001624 2.346654 1.923665 0.000000 0.000000 0.000000
0.001622 2.336966 1.921527 0.000000 0.000000 0.000000
-0.007089 2.395201 1.926700 0.000000 0.000000 0.000000
0.015093 2.334557 1.941803 0.000000 0.000000 0.000000
0.011254 2.348224 1.938823 0.000000 0.000000 0.000000
0.001564 2.345699 1.924094 0.000000 0.000000 0.000000
-0.006019 2.360334 1.919710 0.000000 0.000000 0.000000
-0.007448 2.382550 1.923283 0.000000 0.000000 0.000000
0.013005 2.340866 1.942013 0.000000 0.000000 0.000000
-0.000426 2.323509 1.920993 0.000000 0.000000 0.000000
0.014953 2.346454 1.943858 0.000000 0.000000 0.000000
0.008103 2.359778 1.937334 0.000000 0.000000 0.000000
-0.014852 2.397333 1.924150 0.000000 0.000000 0.000000
-0.011092 2.371073 1.917255 0.000000 0.000000 0.000000
-0.019517 2.369681 1.919670 0.000000 0.000000 0.000000
-0.011701 2.398356 1.925567 0.000000 0.000000 0.000000
0.008058 2.333099 1.940345 0.000000 0.000000 0.000000
-0.004987 2.356447 1.920596 0.000000 0.000000 0.000000
-0.005507 2.360627 1.920373 0.000000 0.000000 0.000000
0.456230 -0.148978 2.963164 0.000000 0.000000 0.000000
-0.021280 2.383335 1.933737 0.000000 0.000000 0.000000
-0.004165 2.424650 1.940134 0.000000 0.000000 0.000000
-0.004269 2.431578 1.941327 0.000000 0.000000 0.000000
-0.018932 2.400832 1.924396 0.000000 0.000000 0.000000
0.450197 -0.153217 2.959766 0.000000 0.000000 0.000000
-0.012040 2.352429 1.925639 0.000000 0.000000 0.000000
-0.015997 2.378296 1.921667 0.000000 0.000000 0.000000
-0.010673 2.411358 1.934817 0.000000 0.000000 0.000000
0.009141 2.412891 1.945591 0.000000 0.000000 0.000000
0.450705 -0.169391 2.961926 0.000000 0.000000 0.000000
-0.015505 2.380313 1.926000 0.000000 0.000000 0.000000
-0.013439 2.351172 1.920063 0.000000 0.000000 0.000000
0.004118 2.337956 1.925448 0.000000 0.000000 0.000000
0.326860 -0.475681 2.162847 0.000000 0.000000 0.000000
0.003625 2.358548 1.933918 0.000000 0.000000 0.000000
-0.006229 2.398684 1.930015 0.000000 0.000000 0.000000
0.005897 2.428137 1.929678 0.000000 0.000000 0.000000
-0.003257 2.370529 1.931984 0.000000 0.000000 0.000000
0.011755 2.394371 1.934278 0.000000 0.000000 0.000000
0.003703 2.417082 1.935933 0.000000 0.000000 0.000000
0.001897 2.356612 1.930546 0.000000 0.000000 0.000000
0.007300 2.330986 1.930866 0.000000 0.000000 0.000000
0.003587 2.349061 1.928127 0.000000 0.000000 0.000000
0.012271 2.348987 1.931939 0.000000 0.000000 0.000000
0.004190 2.383637 1.937917 0.000000 0.000000 0.000000
0.015840 2.352165 1.943926 0.000000 0.000000 0.000000
0.003338 2.347788 1.929433 0.000000 0.000000 0.000000
0.005874 2.337060 1.928483 0.000000 0.000000 0.000000
0.012756 2.346085 1.934869 0.000000 0.000000 0.000000
0.005753 2.376887 1.933035 0.000000 0.000000 0.000000
-0.003599 2.360523 1.922964 0.000000 0.000000 0.000000
0.010160 2.380493 1.946674 0.000000 0.000000 0.000000
0.001166 2.432811 1.933226 0.000000 0.000000 0.000000
-0.007269 2.400184 1.932865 0.000000 0.000000 0.000000
-0.002778 2.360451 1.929540 0.000000 0.000000 0.000000
0.006932 2.411510 1.949790 0.000000 0.000000 0.000000
0.003941 2.342736 1.926711 0.000000 0.000000 0.000000
0.007908 2.331732 1.934350 0.000000 0.000000 0.000000
0.000424 2.353396 1.927849 0.000000 0.000000 0.000000
-0.003453 2.416378 1.934364 0.000000 0.000000 0.000000
0.011150 2.376166 1.942742 0.000000 0.000000 0.000000
0.003985 2.332713 1.927810 0.000000 0.000000 0.000000
0.012987 2.341435 1.942877 0.000000 0.000000 0.000000
0.004568 2.413462 1.940471 0.000000 0.000000 0.000000
-0.001110 2.332291 1.928006 0.000000 0.000000 0.000000
0.002987 2.349497 1.928591 0.000000 0.000000 0.000000
-0.010315 2.391762 1.929347 0.000000 0.000000 0.000000
0.006922 2.374776 1.928013 0.000000 0.000000 0.000000
-0.003453 2.347767 1.922361 0.000000 0.000000 0.000000
-0.015375 2.361472 1.918495 0.000000 0.000000 0.000000
-0.003810 2.354753 1.924968 0.000000 0.000000 0.000000
0.440148 -0.174577 2.960533 0.000000 0.000000 0.000000
0.010940 2.326720 1.935650 0.000000 0.000000 0.000000
-0.022704 2.432410 1.926630 0.000000 0.000000 0.000000
-0.032563 2.438194 1.930132 0.000000 0.000000 0.000000
-0.015925 2.393533 1.937108 0.000000 0.000000 0.000000
-0.020720 2.412546 1.928133 0.000000 0.000000 0.000000
0.012976 2.351603 1.938616 0.000000 0.000000 0.000000
0.017073 2.331257 1.936232 0.000000 0.000000 0.000000
-0.002937 2.375962 1.941587 0.000000 0.000000 0.000000
-0.000083 2.327238 1.933811 0.000000 0.000000 0.000000
0.015430 2.372212 1.946782 0.000000 0.000000 0.000000
0.442333 -0.182857 2.969732 0.000000 0.000000 0.000000
0.457909 -0.159717 2.958566 0.000000 0.000000 0.000000
0.451948 -0.157922 2.959502 0.000000 0.000000 0.000000
0.013957 2.352088 1.941594 0.000000 0.000000 0.000000
0.007329 2.324800 1.929401 0.000000 0.000000 0.000000
0.015123 2.381657 1.941771 0.000000 0.000000 0.000000
0.454685 -0.145161 2.959083 0.000000 0.000000 0.000000
-0.008460 2.430298 1.927124 0.000000 0.000000 0.000000
0.449773 -0.157678 2.954961 0.000000 0.000000 0.000000
0.014635 2.335914 1.938550 0.000000 0.000000 0.000000
-0.028630 2.435504 1.927662 0.000000 0.000000 0.000000
-0.010272 2.367881 1.930959 0.000000 0.000000 0.000000
-0.033423 2.433553 1.922598 0.000000 0.000000 0.000000
-0.013002 2.426789 1.924482 0.000000 0.000000 0.000000
-0.024051 2.435901 1.922267 0.000000 0.000000 0.000000
0.449010 -0.177349 2.962810 0.000000 0.000000 0.000000
-0.028245 2.438019 1.931965 0.000000 0.000000 0.000000
-0.031301 2.433584 1.938635 0.000000 0.000000 0.000000
-0.000863 2.322900 1.918987 0.000000 0.000000 0.000000
0.018299 2.343581 1.937600 0.000000 0.000000 0.000000
-0.027816 2.432480 1.929160 0.000000 0.000000 0.000000
-0.031789 2.436659 1.934567 0.000000 0.000000 0.000000
-0.028495 2.430270 1.941444 0.000000 0.000000 0.000000
0.013994 2.352331 1.940710 0.000000 0.000000 0.000000
-0.002378 2.343298 1.932464 0.000000 0.000000 0.000000
0.009986 2.324460 1.934986 0.000000 0.000000 0.000000
0.012338 2.337798 1.941905 0.000000 0.000000 0.000000
0.457422 -0.157277 2.962252 0.000000 0.000000 0.000000
0.459734 -0.160838 2.965858 0.000000 0.000000 0.000000
-0.020259 2.412740 1.923318 0.000000 0.000000 0.000000
-0.016762 2.399294 1.925109 0.000000 0.000000 0.000000
0.005430 2.342298 1.929824 0.000000 0.000000 0.000000
0.010843 2.322140 1.914731 0.000000 0.000000 0.000000
0.453496 -0.151879 2.964397 0.000000 0.000000 0.000000
-0.029232 2.436234 1.935434 0.000000 0.000000 0.000000
-0.023724 2.404744 1.932192 0.000000 0.000000 0.000000
0.453459 -0.154219 2.964970 0.000000 0.000000 0.000000
0.456172 -0.150012 2.966285 0.000000 0.000000 0.000000
-0.024658 2.423811 1.938617 0.000000 0.000000 0.000000
0.013823 2.360637 1.947076 0.000000 0.000000 0.000000
0.013916 2.379986 1.945324 0.000000 0.000000 0.000000
0.014536 2.369180 1.938166 0.000000 0.000000 0.000000
0.010014 2.355411 1.943535 0.000000 0.000000 0.000000
0.013107 2.391343 1.947932 0.000000 0.000000 0.000000
0.002819 2.321935 1.920397 0.000000 0.000000 0.000000
0.000795 2.379806 1.938188 0.000000 0.000000 0.000000
0.008626 2.356270 1.938594 0.000000 0.000000 0.000000
0.462950 -0.152085 2.956786 0.000000 0.000000 0.000000
0.013640 2.368922 1.947899 0.000000 0.000000 0.000000
0.462326 -0.158304 2.968652 0.000000 0.000000 0.000000
-0.001215 2.431406 1.947773 0.000000 0.000000 0.000000
-0.025961 2.439375 1.943607 0.000000 0.000000 0.000000
-0.015270 2.416152 1.944485 0.000000 0.000000 0.000000
-0.023872 2.427727 1.942199 0.000000 0.000000 0.000000
-0.024826 2.414692 1.920963 0.000000 0.000000 0.000000
-0.018900 2.384930 1.923554 0.000000 0.000000 0.000000
-0.024849 2.395320 1.921487 0.000000 0.000000 0.000000
-0.023423 2.413673 1.921680 0.000000 0.000000 0.000000
0.015127 2.332332 1.936663 0.000000 0.000000 0.000000
0.451218 -0.156590 2.951631 0.000000 0.000000 0.000000
-0.003895 2.327832 1.924490 0.000000 0.000000 0.000000
-0.003566 2.339056 1.921454 0.000000 0.000000 0.000000
-0.011273 2.412517 1.927057 0.000000 0.000000 0.000000
-0.003470 2.393640 1.922402 0.000000 0.000000 0.000000
-0.018720 2.404882 1.920471 0.000000 0.000000 0.000000
-0.006821 2.341855 1.917561 0.000000 0.000000 0.000000
0.002030 2.324248 1.920591 0.000000 0.000000 0.000000
0.448726 -0.148719 2.961858 0.000000 0.000000 0.000000
0.007054 2.426613 1.945202 0.000000 0.000000 0.000000
-0.010082 2.374436 1.921088 0.000000 0.000000 0.000000
-0.008043 2.379362 1.917871 0.000000 0.000000 0.000000
-0.007667 2.436303 1.947113 0.000000 0.000000 0.000000
0.003885 2.431936 1.943516 0.000000 0.000000 0.000000
-0.016166 2.438659 1.941919 0.000000 0.000000 0.000000
-0.014440 2.373775 1.924064 0.000000 0.000000 0.000000
-0.003390 2.342760 1.930593 0.000000 0.000000 0.000000
-0.013260 2.396891 1.941023 0.000000 0.000000 0.000000
-0.010505 2.419070 1.930414 0.000000 0.000000 0.000000
0.003355 2.373503 1.943513 0.000000 0.000000 0.000000
-0.007708 2.372423 1.923848 0.000000 0.000000 0.000000
-0.006689 2.399722 1.929646 0.000000 0.000000 0.000000
-0.010671 2.421142 1.930160 0.000000 0.000000 0.000000
0.006543 2.402679 1.931470 0.000000 0.000000 0.000000
0.012907 2.328558 1.920715 0.000000 0.000000 0.000000
-0.030795 2.438126 1.928234 0.000000 0.000000 0.000000
0.464522 -0.160768 2.971996 0.000000 0.000000 0.000000
0.012944 2.323315 1.932528 0.000000 0.000000 0.000000
0.328887 -0.468309 2.160545 0.000000 0.000000 0.000000
0.016284 2.364979 1.947384 0.000000 0.000000 0.000000
-0.030127 2.419690 1.920573 0.000000 0.000000 0.000000
0.012447 2.380993 1.947546 0.000000 0.000000 0.000000
-0.020587 2.390043 1.918276 0.000000 0.000000 0.000000
-0.023150 2.407515 1.934793 0.000000 0.000000 0.000000
-0.028140 2.422152 1.922380 0.000000 0.000000 0.000000
-0.008880 2.359500 1.923371 0.000000 0.000000 0.000000
0.000379 2.331380 1.922497 0.000000 0.000000 0.000000
-0.017362 2.379617 1.919706 0.000000 0.000000 0.000000
-0.019298 2.391756 1.920295 0.000000 0.000000 0.000000
-0.013255 2.378909 1.925783 0.000000 0.000000 0.000000
-0.021346 2.400753 1.919113 0.000000 0.000000 0.000000
-0.029706 2.411020 1.928306 0.000000 0.000000 0.000000
-0.026385 2.403849 1.916162 0.000000 0.000000 0.000000
0.450913 -0.147939 2.957325 0.000000 0.000000 0.000000
0.464662 -0.155706 2.969270 0.000000 0.000000 0.000000
0.448571 -0.144942 2.956557 0.000000 0.000000 0.000000
0.015737 2.347859 1.943881 0.000000 0.000000 0.000000
0.014882 2.345553 1.941126 0.000000 0.000000 0.000000
-0.023140 2.396670 1.925999 0.000000 0.000000 0.000000
0.013433 2.348094 1.944721 0.000000 0.000000 0.000000
-0.015916 2.382972 1.923964 0.000000 0.000000 0.000000
-0.000917 2.380405 1.947288 0.000000 0.000000 0.000000
-0.020522 2.423664 1.926982 0.000000 0.000000 0.000000
0.009541 2.370295 1.948602 0.000000 0.000000 0.000000
0.447321 -0.183072 2.962742 0.000000 0.000000 0.000000
0.007816 2.385183 1.949430 0.000000 0.000000 0.000000
0.005573 2.387308 1.950131 0.000000 0.000000 0.000000
0.004130 2.423919 1.949285 0.000000 0.000000 0.000000
0.001286 2.432440 1.951109 0.000000 0.000000 0.000000
-0.007955 2.335907 1.923165 0.000000 0.000000 0.000000
-0.007330 2.333522 1.918348 0.000000 0.000000 0.000000
0.005852 2.338858 1.940221 0.000000 0.000000 0.000000
-0.021132 2.383754 1.920743 0.000000 0.000000 0.000000
0.016495 2.359339 1.947168 0.000000 0.000000 0.000000
-0.016613 2.419394 1.924712 0.000000 0.000000 0.000000
-0.011688 2.360606 1.917497 0.000000 0.000000 0.000000
0.013908 2.330816 1.940557 0.000000 0.000000 0.000000
-0.019767 2.378404 1.920452 0.000000 0.000000 0.000000
-0.014440 2.372212 1.918714 0.000000 0.000000 0.000000
0.014841 2.323771 1.940366 0.000000 0.000000 0.000000
0.460280 -0.149178 2.959433 0.000000 0.000000 0.000000
0.001865 2.332977 1.928600 0.000000 0.000000 0.000000
0.015502 2.337762 1.942076 0.000000 0.000000 0.000000
0.016170 2.354242 1.946388 0.000000 0.000000 0.000000
0.454511 -0.159053 2.952567 0.000000 0.000000 0.000000
0.447908 -0.157678 2.948538 0.000000 0.000000 0.000000
0.014059 2.323184 1.938854 0.000000 0.000000 0.000000
0.015481 2.334850 1.941540 0.000000 0.000000 0.000000
-0.002415 2.322185 1.917267 0.000000 0.000000 0.000000
0.014319 2.327275 1.937860 0.000000 0.000000 0.000000
0.016130 2.335409 1.940229 0.000000 0.000000 0.000000
-0.004180 2.321615 1.918266 0.000000 0.000000 0.000000
0.393947 0.620856 1.514489 0.000000 0.000000 0.000000
0.388107 0.599188 1.481981 0.000000 0.000000 0.000000
0.398135 0.623209 1.500869 0.000000 0.000000 0.000000
0.402527 0.615569 1.493512 0.000000 0.000000 0.000000
0.386780 0.624249 1.499678 0.000000 0.000000 0.000000
0.398262 0.598525 1.482070 0.000000 0.000000 0.000000
0.387073 0.617344 1.490949 0.000000 0.000000 0.000000
0.393871 0.622529 1.499146 0.000000 0.000000 0.000000
0.404356 0.609665 1.503622 0.000000 0.000000 0.000000
0.388699 0.615850 1.487425 0.000000 0.000000 0.000000
0.402658 0.600552 1.493443 0.000000 0.000000 0.000000
0.395174 0.598115 1.490406 0.000000 0.000000 0.000000
0.386448 0.595546 1.489415 0.000000 0.000000 0.000000
0.395177 0.595832 1.480486 0.000000 0.000000 0.000000
0.383190 0.607629 1.487466 0.000000 0.000000 0.000000
0.389785 0.619040 1.495288 0.000000 0.000000 0.000000
0.387948 0.598361 1.484227 0.000000 0.000000 0.000000
0.400034 0.610796 1.491107 0.000000 0.000000 0.000000
0.398839 0.595423 1.482014 0.000000 0.000000 0.000000
0.379133 0.597673 1.483676 0.000000 0.000000 0.000000
0.387055 0.583423 1.486134 0.000000 0.000000 0.000000
0.384824 0.586133 1.480528 0.000000 0.000000 0.000000
0.399143 0.580918 1.484625 0.000000 0.000000 0.000000
0.396420 0.624594 1.511468 0.000000 0.000000 0.000000
0.385601 0.615912 1.494285 0.000000 0.000000 0.000000
0.398904 0.597953 1.483780 0.000000 0.000000 0.000000
0.385304 0.596770 1.487167 0.000000 0.000000 0.000000
0.390487 0.624871 1.509313 0.000000 0.000000 0.000000
0.395570 0.619234 1.498661 0.000000 0.000000 0.000000
0.389650 0.630037 1.505998 0.000000 0.000000 0.000000
0.387920 0.629297 1.505398 0.000000 0.000000 0.000000
0.390276 0.630242 1.509817 0.000000 0.000000 0.000000
0.393646 0.624709 1.499249 0.000000 0.000000 0.000000
0.391005 0.630542 1.506879 0.000000 0.000000 0.000000
0.389887 0.631817 1.512237 0.000000 0.000000 0.000000
0.402421 0.609082 1.493424 0.000000 0.000000 0.000000
0.393405 0.598915 1.490362 0.000000 0.000000 0.000000
0.396140 0.601141 1.491470 0.000000 0.000000 0.000000
0.392623 0.631579 1.516408 0.000000 0.000000 0.000000
0.380241 0.588855 1.482087 0.000000 0.000000 0.000000
0.398278 0.598861 1.480143 0.000000 0.000000 0.000000
0.399136 0.612756 1.499009 0.000000 0.000000 0.000000
0.389403 0.619771 1.517024 0.000000 0.000000 0.000000
0.392232 0.632497 1.515494 0.000000 0.000000 0.000000
0.393395 0.633568 1.517774 0.000000 0.000000 0.000000
0.387666 0.618385 1.499541 0.000000 0.000000 0.000000
0.395559 0.629261 1.510737 0.000000 0.000000 0.000000
0.397689 0.587502 1.480815 0.000000 0.000000 0.000000
0.392569 0.629467 1.506768 0.000000 0.000000 0.000000
0.393408 0.627866 1.504900 0.000000 0.000000 0.000000
0.383672 0.590317 1.480299 0.000000 0.000000 0.000000
0.393794 0.624961 1.506087 0.000000 0.000000 0.000000
0.389118 0.586805 1.482818 0.000000 0.000000 0.000000
0.395573 0.609920 1.490888 0.000000 0.000000 0.000000
0.395871 0.609523 1.485897 0.000000 0.000000 0.000000
0.397295 0.594955 1.485668 0.000000 0.000000 0.000000
0.397011 0.599200 1.482382 0.000000 0.000000 0.000000
0.393917 0.629339 1.511692 0.000000 0.000000 0.000000
0.394232 0.621106 1.494809 0.000000 0.000000 0.000000
0.389475 0.623797 1.498434 0.000000 0.000000 0.000000
0.390075 0.623789 1.495723 0.000000 0.000000 0.000000
0.393144 0.624412 1.505745 0.000000 0.000000 0.000000
0.391750 0.622726 1.506882 0.000000 0.000000 0.000000
0.392224 0.629044 1.506829 0.000000 0.000000 0.000000
0.392182 0.627347 1.503328 0.000000 0.000000 0.000000
0.384311 0.596363 1.481433 0.000000 0.000000 0.000000
0.382801 0.612754 1.489117 0.000000 0.000000 0.000000
0.390127 0.604054 1.482958 0.000000 0.000000 0.000000
0.392753 0.629306 1.507183 0.000000 0.000000 0.000000
0.386994 0.634445 1.494433 0.000000 0.000000 0.000000
0.397128 0.599028 1.486901 0.000000 0.000000 0.000000
0.388989 0.598133 1.486169 0.000000 0.000000 0.000000
0.382677 0.603305 1.488647 0.000000 0.000000 0.000000
0.392474 0.597388 1.482493 0.000000 0.000000 0.000000
0.395575 0.616670 1.492341 0.000000 0.000000 0.000000
0.397785 0.596711 1.482914 0.000000 0.000000 0.000000
0.397487 0.594327 1.480031 0.000000 0.000000 0.000000
0.394997 0.602605 1.485346 0.000000 0.000000 0.000000
0.402383 0.605818 1.488023 0.000000 0.000000 0.000000
0.397574 0.625084 1.507921 0.000000 0.000000 0.000000
0.377912 0.618818 1.504416 0.000000 0.000000 0.000000
0.395043 0.622839 1.507290 0.000000 0.000000 0.000000
0.387636 0.628921 1.496064 0.000000 0.000000 0.000000
0.386602 0.625598 1.491747 0.000000 0.000000 0.000000
0.385661 0.619058 1.491044 0.000000 0.000000 0.000000
0.399061 0.617010 1.504914 0.000000 0.000000 0.000000
0.397101 0.618364 1.493971 0.000000 0.000000 0.000000
0.384691 0.623250 1.497978 0.000000 0.000000 0.000000
0.389793 0.597199 1.483227 0.000000 0.000000 0.000000
0.375527 0.622079 1.501747 0.000000 0.000000 0.000000
0.380914 0.601204 1.490399 0.000000 0.000000 0.000000
0.388284 0.600078 1.484034 0.000000 0.000000 0.000000
0.389393 0.606918 1.486992 0.000000 0.000000 0.000000
0.381558 0.618432 1.494590 0.000000 0.000000 0.000000
0.379007 0.619764 1.499219 0.000000 0.000000 0.000000
0.391118 0.610219 1.488868 0.000000 0.000000 0.000000
0.384391 0.593387 1.481927 0.000000 0.000000 0.000000
0.385501 0.613494 1.493981 0.000000 0.000000 0.000000
0.382706 0.605318 1.476443 0.000000 0.000000 0.000000
0.384181 0.600188 1.483888 0.000000 0.000000 0.000000
0.389395 0.619460 1.494102 0.000000 0.000000 0.000000
0.379081 0.593071 1.481133 0.000000 0.000000 0.000000
0.394796 0.634375 1.513880 0.000000 0.000000 0.000000
0.391048 0.637273 1.503254 0.000000 0.000000 0.000000
0.393261 0.599913 1.491171 0.000000 0.000000 0.000000
0.377596 0.602154 1.480430 0.000000 0.000000 0.000000
0.396138 0.596634 1.489108 0.000000 0.000000 0.000000
0.391075 0.608006 1.487555 0.000000 0.000000 0.000000
0.384687 0.618160 1.489293 0.000000 0.000000 0.000000
0.387658 0.630933 1.507299 0.000000 0.000000 0.000000
0.391380 0.626395 1.501638 0.000000 0.000000 0.000000
0.384948 0.622177 1.495621 0.000000 0.000000 0.000000
0.378729 0.610192 1.477427 0.000000 0.000000 0.000000
0.394621 0.593746 1.485901 0.000000 0.000000 0.000000
0.386273 0.600122 1.485581 0.000000 0.000000 0.000000
0.384401 0.614920 1.485053 0.000000 0.000000 0.000000
0.397818 0.626760 1.509678 0.000000 0.000000 0.000000
0.385437 0.624174 1.498195 0.000000 0.000000 0.000000
0.380585 0.601645 1.476695 0.000000 0.000000 0.000000
0.389031 0.634474 1.509786 0.000000 0.000000 0.000000
0.381968 0.613608 1.487488 0.000000 0.000000 0.000000
0.388262 0.627936 1.509649 0.000000 0.000000 0.000000
0.384580 0.593763 1.481103 0.000000 0.000000 0.000000
0.383579 0.606107 1.486125 0.000000 0.000000 0.000000
0.385298 0.601950 1.486097 0.000000 0.000000 0.000000
0.398340 0.630350 1.505046 0.000000 0.000000 0.000000
0.387335 0.629869 1.504503 0.000000 0.000000 0.000000
0.394721 0.628459 1.513552 0.000000 0.000000 0.000000
0.389313 0.635849 1.504306 0.000000 0.000000 0.000000
0.395313 0.626080 1.507901 0.000000 0.000000 0.000000
0.381983 0.620180 1.493600 0.000000 0.000000 0.000000
0.392295 0.624947 1.503533 0.000000 0.000000 0.000000
0.390703 0.636928 1.518324 0.000000 0.000000 0.000000
0.404119 0.622687 1.495960 0.000000 0.000000 0.000000
0.394780 0.619834 1.501902 0.000000 0.000000 0.000000
0.390359 0.628419 1.505295 0.000000 0.000000 0.000000
0.399845 0.623436 1.493302 0.000000 0.000000 0.000000
0.391127 0.637064 1.505727 0.000000 0.000000 0.000000
0.396178 0.574974 1.483445 0.000000 0.000000 0.000000
0.400235 0.583472 1.470103 0.000000 0.000000 0.000000
0.375371 0.594712 1.481340 0.000000 0.000000 0.000000
0.392645 0.617461 1.494931 0.000000 0.000000 0.000000
0.387187 0.636915 1.503797 0.000000 0.000000 0.000000
0.391254 0.628369 1.518846 0.000000 0.000000 0.000000
0.392627 0.632311 1.516349 0.000000 0.000000 0.000000
0.396355 0.614499 1.509296 0.000000 0.000000 0.000000
0.396466 0.628512 1.511659 0.000000 0.000000 0.000000
0.394470 0.630882 1.516253 0.000000 0.000000 0.000000
0.375995 0.616691 1.493297 0.000000 0.000000 0.000000
0.396281 0.626632 1.514547 0.000000 0.000000 0.000000
0.391677 0.607486 1.473308 0.000000 0.000000 0.000000
0.390023 0.585108 1.483112 0.000000 0.000000 0.000000
0.390791 0.590106 1.481629 0.000000 0.000000 0.000000
0.404203 0.584404 1.477780 0.000000 0.000000 0.000000
0.391915 0.634426 1.519612 0.000000 0.000000 0.000000
0.393808 0.628774 1.515679 0.000000 0.000000 0.000000
0.400304 0.609141 1.493991 0.000000 0.000000 0.000000
0.394508 0.631720 1.517469 0.000000 0.000000 0.000000
0.392660 0.636577 1.516585 0.000000 0.000000 0.000000
0.386153 0.628089 1.503867 0.000000 0.000000 0.000000
0.401496 0.614649 1.490955 0.000000 0.000000 0.000000
0.402022 0.599715 1.486988 0.000000 0.000000 0.000000
0.386550 0.587829 1.486403 0.000000 0.000000 0.000000
0.392603 0.633149 1.517154 0.000000 0.000000 0.000000
0.392770 0.632050 1.517301 0.000000 0.000000 0.000000
0.393304 0.586733 1.490746 0.000000 0.000000 0.000000
0.394157 0.630258 1.516512 0.000000 0.000000 0.000000
0.393948 0.577150 1.483378 0.000000 0.000000 0.000000
0.374331 0.592316 1.485379 0.000000 0.000000 0.000000
0.392149 0.585116 1.482140 0.000000 0.000000 0.000000
0.393099 0.592115 1.481759 0.000000 0.000000 0.000000
0.402814 0.609524 1.490589 0.000000 0.000000 0.000000
0.388636 0.608051 1.492624 0.000000 0.000000 0.000000
0.398745 0.629849 1.511216 0.000000 0.000000 0.000000
0.403894 0.574544 1.469849 0.000000 0.000000 0.000000
0.385028 0.611046 1.480422 0.000000 0.000000 0.000000
0.382785 0.603321 1.484892 0.000000 0.000000 0.000000
0.390784 0.595575 1.484772 0.000000 0.000000 0.000000
0.385034 0.576752 1.485335 0.000000 0.000000 0.000000
0.381578 0.602509 1.483302 0.000000 0.000000 0.000000
0.385468 0.609332 1.486982 0.000000 0.000000 0.000000
0.383235 0.606719 1.485998 0.000000 0.000000 0.000000
0.402013 0.616464 1.495161 0.000000 0.000000 0.000000
0.392755 0.615810 1.494865 0.000000 0.000000 0.000000
0.382144 0.616891 1.493420 0.000000 0.000000 0.000000
0.392392 0.584465 1.487928 0.000000 0.000000 0.000000
0.375658 0.590669 1.482722 0.000000 0.000000 0.000000
0.390070 0.624306 1.485665 0.000000 0.000000 0.000000
0.392331 0.626153 1.487721 0.000000 0.000000 0.000000
0.393664 0.610812 1.493545 0.000000 0.000000 0.000000
0.388226 0.577112 1.484101 0.000000 0.000000 0.000000
0.393087 0.593061 1.489348 0.000000 0.000000 0.000000
0.386375 0.591709 1.483538 0.000000 0.000000 0.000000
0.401015 0.602545 1.482429 0.000000 0.000000 0.000000
0.378550 0.597510 1.483263 0.000000 0.000000 0.000000
0.398076 0.617747 1.501261 0.000000 0.000000 0.000000
0.382531 0.603930 1.472503 0.000000 0.000000 0.000000
0.392682 0.596272 1.490512 0.000000 0.000000 0.000000
0.404953 0.624624 1.502891 0.000000 0.000000 0.000000
0.403180 0.611875 1.493527 0.000000 0.000000 0.000000
0.384190 0.603018 1.484664 0.000000 0.000000 0.000000
0.380317 0.616278 1.493521 0.000000 0.000000 0.000000
0.409160 0.605434 1.492127 0.000000 0.000000 0.000000
0.383446 0.622016 1.498006 0.000000 0.000000 0.000000
0.400683 0.622463 1.499789 0.000000 0.000000 0.000000
0.400873 0.610150 1.493780 0.000000 0.000000 0.000000
0.378858 0.606901 1.484852 0.000000 0.000000 0.000000
0.399977 0.603137 1.487769 0.000000 0.000000 0.000000
0.379518 0.612390 1.491279 0.000000 0.000000 0.000000
0.376350 0.604832 1.490441 0.000000 0.000000 0.000000
0.395560 0.607346 1.488616 0.000000 0.000000 0.000000
0.400370 0.619447 1.494971 0.000000 0.000000 0.000000
0.385221 0.624592 1.490049 0.000000 0.000000 0.000000
0.395775 0.610543 1.502084 0.000000 0.000000 0.000000
0.378535 0.602533 1.484964 0.000000 0.000000 0.000000
0.389979 0.628492 1.513540 0.000000 0.000000 0.000000
0.393613 0.631210 1.511720 0.000000 0.000000 0.000000
0.385766 0.623726 1.496382 0.000000 0.000000 0.000000
0.397625 0.621036 1.504052 0.000000 0.000000 0.000000
0.393331 0.610979 1.501588 0.000000 0.000000 0.000000
0.390614 0.636161 1.512572 0.000000 0.000000 0.000000
0.392173 0.635386 1.514447 0.000000 0.000000 0.000000
0.398238 0.602911 1.482913 0.000000 0.000000 0.000000
0.402124 0.603557 1.483128 0.000000 0.000000 0.000000
0.401420 0.609476 1.489132 0.000000 0.000000 0.000000
0.400252 0.599629 1.481537 0.000000 0.000000 0.000000
0.403169 0.608494 1.486790 0.000000 0.000000 0.000000
0.392307 0.633855 1.512326 0.000000 0.000000 0.000000
0.393878 0.628955 1.511053 0.000000 0.000000 0.000000
0.389711 0.614500 1.500130 0.000000 0.000000 0.000000
0.391006 0.633046 1.519967 0.000000 0.000000 0.000000
0.395204 0.631313 1.513535 0.000000 0.000000 0.000000
0.395443 0.601420 1.494010 0.000000 0.000000 0.000000
0.392741 0.631868 1.515770 0.000000 0.000000 0.000000
0.405437 0.599689 1.483198 0.000000 0.000000 0.000000
0.400887 0.635775 1.511315 0.000000 0.000000 0.000000
0.399492 0.612365 1.492028 0.000000 0.000000 0.000000
0.395867 0.627369 1.511591 0.000000 0.000000 0.000000
0.393391 0.628855 1.512959 0.000000 0.000000 0.000000
0.396253 0.632890 1.515270 0.000000 0.000000 0.000000
0.395900 0.629002 1.513535 0.000000 0.000000 0.000000
0.396452 0.622575 1.506775 0.000000 0.000000 0.000000
0.397569 0.623346 1.506682 0.000000 0.000000 0.000000
0.394798 0.629904 1.511776 0.000000 0.000000 0.000000
0.391022 0.626494 1.522166 0.000000 0.000000 0.000000
0.394851 0.627955 1.510294 0.000000 0.000000 0.000000
0.405279 0.618208 1.494564 0.000000 0.000000 0.000000
0.403245 0.608974 1.488418 0.000000 0.000000 0.000000
0.391994 0.594301 1.488811 0.000000 0.000000 0.000000
0.383568 0.613087 1.490632 0.000000 0.000000 0.000000
0.379842 0.598507 1.480746 0.000000 0.000000 0.000000
0.386767 0.620915 1.497248 0.000000 0.000000 0.000000
0.383658 0.617615 1.494148 0.000000 0.000000 0.000000
0.378663 0.605117 1.470561 0.000000 0.000000 0.000000
0.383173 0.613986 1.498054 0.000000 0.000000 0.000000
0.396457 0.607254 1.483008 0.000000 0.000000 0.000000
0.398678 0.616784 1.487847 0.000000 0.000000 0.000000
0.371564 0.599190 1.483305 0.000000 0.000000 0.000000
0.381606 0.625972 1.502656 0.000000 0.000000 0.000000
0.386153 0.615826 1.478899 0.000000 0.000000 0.000000
0.381337 0.614962 1.491415 0.000000 0.000000 0.000000
0.398150 0.607212 1.486212 0.000000 0.000000 0.000000
0.404159 0.615271 1.490293 0.000000 0.000000 0.000000
0.384261 0.624040 1.497777 0.000000 0.000000 0.000000
0.392589 0.612932 1.491775 0.000000 0.000000 0.000000
0.377843 0.611461 1.489919 0.000000 0.000000 0.000000
0.385277 0.631158 1.493419 0.000000 0.000000 0.000000
0.396056 0.615873 1.494974 0.000000 0.000000 0.000000
0.392370 0.621511 1.492702 0.000000 0.000000 0.000000
0.386359 0.627016 1.498134 0.000000 0.000000 0.000000
0.388037 0.630331 1.491405 0.000000 0.000000 0.000000
0.401816 0.610683 1.496776 0.000000 0.000000 0.000000
0.390862 0.580643 1.484869 0.000000 0.000000 0.000000
0.394516 0.602686 1.492359 0.000000 0.000000 0.000000
0.398128 0.610870 1.496822 0.000000 0.000000 0.000000
0.384373 0.607113 1.488088 0.000000 0.000000 0.000000
0.390699 0.607139 1.498782 0.000000 0.000000 0.000000
0.394418 0.607817 1.493340 0.000000 0.000000 0.000000
0.394367 0.593295 1.498431 0.000000 0.000000 0.000000
0.393052 0.606502 1.496231 0.000000 0.000000 0.000000
0.388009 0.605861 1.490914 0.000000 0.000000 0.000000
0.397481 0.606786 1.492470 0.000000 0.000000 0.000000
0.398103 0.605413 1.500432 0.000000 0.000000 0.000000
0.391835 0.634863 1.512173 0.000000 0.000000 0.000000
0.392293 0.596008 1.486265 0.000000 0.000000 0.000000
0.388637 0.632626 1.509536 0.000000 0.000000 0.000000
0.389977 0.587541 1.482238 0.000000 0.000000 0.000000
0.391358 0.595681 1.487747 0.000000 0.000000 0.000000
0.383213 0.615873 1.490620 0.000000 0.000000 0.000000
0.392254 0.583616 1.482965 0.000000 0.000000 0.000000
0.387172 0.619132 1.484725 0.000000 0.000000 0.000000
0.400218 0.591400 1.479420 0.000000 0.000000 0.000000
0.388218 0.619836 1.505714 0.000000 0.000000 0.000000
0.387605 0.615741 1.515850 0.000000 0.000000 0.000000
