ply
format ascii 1.0
comment VCGLIB generated
obj_info Generated by SPFormer!
element vertex 241
property float x
property float y
property float z
property float nx
property float ny
property float nz
end_header
0.461302 -0.207019 2.973468 0.000000 0.000000 0.000000
0.501449 0.064112 3.763738 0.000000 0.000000 0.000000
0.024340 2.541521 3.229506 0.000000 0.000000 0.000000
0.003336 2.554249 3.191774 0.000000 0.000000 0.000000
0.001087 2.557147 3.190208 0.000000 0.000000 0.000000
0.004140 2.558788 3.195407 0.000000 0.000000 0.000000
0.016615 2.543545 3.212520 0.000000 0.000000 0.000000
0.008975 2.546871 3.198725 0.000000 0.000000 0.000000
0.013263 2.542164 3.199299 0.000000 0.000000 0.000000
0.017054 2.540882 3.211980 0.000000 0.000000 0.000000
0.497848 0.065066 3.773066 0.000000 0.000000 0.000000
0.511947 0.034874 3.798116 0.000000 0.000000 0.000000
0.516095 0.044752 3.781256 0.000000 0.000000 0.000000
0.503803 0.041536 3.790651 0.000000 0.000000 0.000000
0.506459 0.054223 3.772585 0.000000 0.000000 0.000000
0.495613 0.067949 3.768126 0.000000 0.000000 0.000000
0.450537 -0.237701 2.996850 0.000000 0.000000 0.000000
0.517876 0.042067 3.774437 0.000000 0.000000 0.000000
0.495448 0.067364 3.765489 0.000000 0.000000 0.000000
0.009001 2.554585 3.216091 0.000000 0.000000 0.000000
0.007155 2.551698 3.202145 0.000000 0.000000 0.000000
0.448065 -0.224597 2.974148 0.000000 0.000000 0.000000
0.003617 2.554343 3.198181 0.000000 0.000000 0.000000
0.016294 2.550056 3.215798 0.000000 0.000000 0.000000
0.512837 0.035504 3.790513 0.000000 0.000000 0.000000
0.007161 2.556761 3.202320 0.000000 0.000000 0.000000
0.509066 0.033618 3.775201 0.000000 0.000000 0.000000
0.443194 -0.223410 2.981144 0.000000 0.000000 0.000000
0.448546 -0.231024 2.992799 0.000000 0.000000 0.000000
0.434889 -0.222853 2.981533 0.000000 0.000000 0.000000
0.443440 -0.219788 2.983609 0.000000 0.000000 0.000000
0.509615 0.054823 3.786540 0.000000 0.000000 0.000000
0.446684 -0.223035 2.994107 0.000000 0.000000 0.000000
0.509301 0.039764 3.779439 0.000000 0.000000 0.000000
0.512193 0.032438 3.787511 0.000000 0.000000 0.000000
0.511690 0.041689 3.767656 0.000000 0.000000 0.000000
0.445506 -0.232366 2.981588 0.000000 0.000000 0.000000
0.510634 0.045423 3.788820 0.000000 0.000000 0.000000
0.442829 -0.229752 2.989712 0.000000 0.000000 0.000000
0.441264 -0.217436 2.989567 0.000000 0.000000 0.000000
0.006035 2.549100 3.197305 0.000000 0.000000 0.000000
0.514989 0.046609 3.775441 0.000000 0.000000 0.000000
0.437295 -0.224979 2.989082 0.000000 0.000000 0.000000
0.441394 -0.233743 2.982862 0.000000 0.000000 0.000000
0.439569 -0.211284 2.961976 0.000000 0.000000 0.000000
0.506307 0.039405 3.797277 0.000000 0.000000 0.000000
0.501058 0.068796 3.764261 0.000000 0.000000 0.000000
0.499301 0.046648 3.787910 0.000000 0.000000 0.000000
0.513861 0.051513 3.773124 0.000000 0.000000 0.000000
0.436261 -0.220440 2.975881 0.000000 0.000000 0.000000
0.005091 2.557447 3.179159 0.000000 0.000000 0.000000
0.007587 2.548324 3.196286 0.000000 0.000000 0.000000
0.447317 -0.233685 2.991699 0.000000 0.000000 0.000000
0.009630 2.552006 3.215055 0.000000 0.000000 0.000000
0.432095 -0.223507 2.970865 0.000000 0.000000 0.000000
0.013865 2.544600 3.212018 0.000000 0.000000 0.000000
0.007762 2.549384 3.183757 0.000000 0.000000 0.000000
0.441175 -0.230446 2.978462 0.000000 0.000000 0.000000
0.442181 -0.229308 2.980222 0.000000 0.000000 0.000000
0.027705 2.543945 3.232631 0.000000 0.000000 0.000000
0.014747 2.550855 3.229712 0.000000 0.000000 0.000000
0.438401 -0.223320 2.978762 0.000000 0.000000 0.000000
0.442624 -0.226764 2.978466 0.000000 0.000000 0.000000
0.440086 -0.212679 2.974484 0.000000 0.000000 0.000000
0.441231 -0.236870 2.987706 0.000000 0.000000 0.000000
0.016211 2.546710 3.217290 0.000000 0.000000 0.000000
0.439312 -0.225113 2.983696 0.000000 0.000000 0.000000
0.442929 -0.218953 2.978279 0.000000 0.000000 0.000000
0.441152 -0.221884 2.973385 0.000000 0.000000 0.000000
0.444869 -0.224177 2.984001 0.000000 0.000000 0.000000
0.502951 0.046176 3.774679 0.000000 0.000000 0.000000
0.500707 0.072095 3.763976 0.000000 0.000000 0.000000
0.009601 2.554871 3.203906 0.000000 0.000000 0.000000
0.027758 2.539212 3.223047 0.000000 0.000000 0.000000
0.441458 -0.227967 2.992256 0.000000 0.000000 0.000000
0.456673 -0.236820 2.994115 0.000000 0.000000 0.000000
0.438939 -0.229101 2.984157 0.000000 0.000000 0.000000
0.011196 2.547342 3.205688 0.000000 0.000000 0.000000
0.443504 -0.212609 2.982541 0.000000 0.000000 0.000000
0.441029 -0.220051 2.970437 0.000000 0.000000 0.000000
0.448184 -0.216031 2.986643 0.000000 0.000000 0.000000
0.492887 0.071261 3.769390 0.000000 0.000000 0.000000
0.511502 0.042147 3.778501 0.000000 0.000000 0.000000
0.512455 0.037961 3.783740 0.000000 0.000000 0.000000
0.016461 2.541514 3.210865 0.000000 0.000000 0.000000
0.498655 0.069742 3.765195 0.000000 0.000000 0.000000
0.439949 -0.233773 2.988800 0.000000 0.000000 0.000000
0.450789 -0.224050 2.982868 0.000000 0.000000 0.000000
0.432942 -0.215151 2.971325 0.000000 0.000000 0.000000
0.437637 -0.220175 2.984327 0.000000 0.000000 0.000000
0.443450 -0.219897 2.975397 0.000000 0.000000 0.000000
0.436715 -0.224935 2.992091 0.000000 0.000000 0.000000
0.448840 -0.230882 2.995098 0.000000 0.000000 0.000000
0.441824 -0.226264 2.973546 0.000000 0.000000 0.000000
0.441870 -0.230948 2.982028 0.000000 0.000000 0.000000
0.452983 -0.233216 2.993633 0.000000 0.000000 0.000000
0.449211 -0.225683 2.982991 0.000000 0.000000 0.000000
0.450672 -0.226970 2.991940 0.000000 0.000000 0.000000
0.441256 -0.225112 2.988879 0.000000 0.000000 0.000000
0.440864 -0.223559 2.976428 0.000000 0.000000 0.000000
0.432662 -0.218351 2.980894 0.000000 0.000000 0.000000
0.450244 -0.232128 2.987657 0.000000 0.000000 0.000000
0.433654 -0.219877 2.978352 0.000000 0.000000 0.000000
0.451494 -0.235887 2.993439 0.000000 0.000000 0.000000
0.013596 2.544145 3.205237 0.000000 0.000000 0.000000
0.512372 0.039960 3.767020 0.000000 0.000000 0.000000
0.432377 -0.231309 2.981274 0.000000 0.000000 0.000000
0.510718 0.042124 3.785919 0.000000 0.000000 0.000000
0.440055 -0.215758 2.980407 0.000000 0.000000 0.000000
0.442126 -0.214005 2.969501 0.000000 0.000000 0.000000
0.443661 -0.216657 2.978296 0.000000 0.000000 0.000000
0.519848 0.040339 3.767366 0.000000 0.000000 0.000000
0.433266 -0.223408 2.976349 0.000000 0.000000 0.000000
0.438235 -0.223804 2.982016 0.000000 0.000000 0.000000
0.438415 -0.221515 2.973159 0.000000 0.000000 0.000000
0.439120 -0.218926 2.969789 0.000000 0.000000 0.000000
0.437232 -0.214861 2.982796 0.000000 0.000000 0.000000
0.012334 2.553932 3.222590 0.000000 0.000000 0.000000
0.439864 -0.227379 2.992041 0.000000 0.000000 0.000000
0.511594 0.031211 3.769857 0.000000 0.000000 0.000000
0.437925 -0.230037 2.983084 0.000000 0.000000 0.000000
0.438970 -0.228646 2.989027 0.000000 0.000000 0.000000
0.443366 -0.222282 2.971983 0.000000 0.000000 0.000000
0.442059 -0.207998 2.963026 0.000000 0.000000 0.000000
0.497371 0.065151 3.769931 0.000000 0.000000 0.000000
0.507528 0.034720 3.780083 0.000000 0.000000 0.000000
0.505795 0.052539 3.786427 0.000000 0.000000 0.000000
0.444978 -0.229596 2.994543 0.000000 0.000000 0.000000
0.443951 -0.232411 2.993095 0.000000 0.000000 0.000000
0.508032 0.046898 3.776319 0.000000 0.000000 0.000000
0.519788 0.044730 3.761647 0.000000 0.000000 0.000000
0.512163 0.049829 3.770545 0.000000 0.000000 0.000000
0.509257 0.045060 3.766600 0.000000 0.000000 0.000000
0.415237 -0.208561 2.983021 0.000000 0.000000 0.000000
0.438401 -0.231139 2.994262 0.000000 0.000000 0.000000
0.513180 0.041488 3.761857 0.000000 0.000000 0.000000
0.518476 0.038655 3.765435 0.000000 0.000000 0.000000
0.510831 0.037147 3.765643 0.000000 0.000000 0.000000
0.515723 0.042164 3.764970 0.000000 0.000000 0.000000
0.019343 2.546809 3.216985 0.000000 0.000000 0.000000
0.014170 2.547023 3.208959 0.000000 0.000000 0.000000
0.032262 2.540843 3.228895 0.000000 0.000000 0.000000
0.026012 2.544728 3.232419 0.000000 0.000000 0.000000
0.026408 2.543436 3.228548 0.000000 0.000000 0.000000
0.030745 2.538619 3.215816 0.000000 0.000000 0.000000
0.007965 2.552760 3.208029 0.000000 0.000000 0.000000
0.011819 2.548827 3.206441 0.000000 0.000000 0.000000
0.449968 -0.204629 2.960647 0.000000 0.000000 0.000000
0.437323 -0.217331 2.964826 0.000000 0.000000 0.000000
0.430919 -0.208838 2.964903 0.000000 0.000000 0.000000
0.433972 -0.215529 2.973519 0.000000 0.000000 0.000000
0.019150 2.543287 3.208567 0.000000 0.000000 0.000000
0.024529 2.546699 3.226613 0.000000 0.000000 0.000000
0.497727 0.071138 3.767209 0.000000 0.000000 0.000000
0.011754 2.550383 3.210339 0.000000 0.000000 0.000000
0.441353 -0.238028 2.984677 0.000000 0.000000 0.000000
0.023111 2.541457 3.214821 0.000000 0.000000 0.000000
0.498050 0.067589 3.770470 0.000000 0.000000 0.000000
0.017624 2.548689 3.214274 0.000000 0.000000 0.000000
0.514921 0.041367 3.792407 0.000000 0.000000 0.000000
0.504401 0.059630 3.781873 0.000000 0.000000 0.000000
0.439611 -0.208267 2.961795 0.000000 0.000000 0.000000
0.434435 -0.217922 2.967714 0.000000 0.000000 0.000000
0.438395 -0.207695 2.961325 0.000000 0.000000 0.000000
0.441290 -0.214372 2.965069 0.000000 0.000000 0.000000
0.021574 2.539829 3.219890 0.000000 0.000000 0.000000
0.012043 2.545114 3.203341 0.000000 0.000000 0.000000
0.000450 2.555852 3.174069 0.000000 0.000000 0.000000
0.507232 0.040762 3.762044 0.000000 0.000000 0.000000
0.503655 0.050450 3.766875 0.000000 0.000000 0.000000
0.502256 0.043172 3.780306 0.000000 0.000000 0.000000
0.511957 0.038778 3.772763 0.000000 0.000000 0.000000
0.501167 0.038715 3.771834 0.000000 0.000000 0.000000
0.499421 0.046739 3.775156 0.000000 0.000000 0.000000
0.505934 0.047100 3.766446 0.000000 0.000000 0.000000
0.511572 0.041651 3.772215 0.000000 0.000000 0.000000
0.435336 -0.210531 2.963982 0.000000 0.000000 0.000000
0.024301 2.545885 3.230603 0.000000 0.000000 0.000000
0.020276 2.550710 3.227982 0.000000 0.000000 0.000000
0.021893 2.548445 3.227590 0.000000 0.000000 0.000000
0.019260 2.550344 3.230897 0.000000 0.000000 0.000000
0.444955 -0.225997 2.980814 0.000000 0.000000 0.000000
0.412229 -0.214971 2.980534 0.000000 0.000000 0.000000
0.449612 -0.222703 2.978765 0.000000 0.000000 0.000000
0.441153 -0.225007 2.976851 0.000000 0.000000 0.000000
0.446212 -0.233719 2.986907 0.000000 0.000000 0.000000
0.442290 -0.220609 2.990227 0.000000 0.000000 0.000000
0.028596 2.545313 3.230243 0.000000 0.000000 0.000000
0.444970 -0.209207 2.977117 0.000000 0.000000 0.000000
0.007599 2.552555 3.186612 0.000000 0.000000 0.000000
0.500681 0.064147 3.771136 0.000000 0.000000 0.000000
0.505742 0.064214 3.767156 0.000000 0.000000 0.000000
0.503768 0.069833 3.767194 0.000000 0.000000 0.000000
0.504188 0.060124 3.764004 0.000000 0.000000 0.000000
0.499590 0.064972 3.765148 0.000000 0.000000 0.000000
0.499793 0.066726 3.769106 0.000000 0.000000 0.000000
0.442717 -0.219204 2.979027 0.000000 0.000000 0.000000
0.443833 -0.220070 2.986945 0.000000 0.000000 0.000000
0.436420 -0.214438 2.973110 0.000000 0.000000 0.000000
0.432856 -0.215119 2.961775 0.000000 0.000000 0.000000
0.448373 -0.213324 2.984909 0.000000 0.000000 0.000000
0.430687 -0.210488 2.961149 0.000000 0.000000 0.000000
0.033417 2.538564 3.223783 0.000000 0.000000 0.000000
0.448727 -0.236339 3.000416 0.000000 0.000000 0.000000
0.452216 -0.235401 3.000864 0.000000 0.000000 0.000000
0.440773 -0.210863 2.979876 0.000000 0.000000 0.000000
0.032222 2.538782 3.219169 0.000000 0.000000 0.000000
0.438209 -0.216916 2.986766 0.000000 0.000000 0.000000
0.490490 0.070171 3.769884 0.000000 0.000000 0.000000
0.448229 -0.229215 2.976307 0.000000 0.000000 0.000000
0.448098 -0.220844 2.980180 0.000000 0.000000 0.000000
0.443360 -0.227896 2.992515 0.000000 0.000000 0.000000
0.444213 -0.227581 2.981998 0.000000 0.000000 0.000000
0.026450 2.545470 3.215906 0.000000 0.000000 0.000000
0.446857 -0.233242 2.990750 0.000000 0.000000 0.000000
0.442279 -0.230460 2.985520 0.000000 0.000000 0.000000
0.444044 -0.215938 2.983808 0.000000 0.000000 0.000000
0.445592 -0.225512 2.987960 0.000000 0.000000 0.000000
0.449560 -0.240218 2.992470 0.000000 0.000000 0.000000
0.435538 -0.216239 2.983549 0.000000 0.000000 0.000000
0.447668 -0.227149 2.981442 0.000000 0.000000 0.000000
0.022156 2.546874 3.221882 0.000000 0.000000 0.000000
0.018786 2.544858 3.219849 0.000000 0.000000 0.000000
0.445503 -0.230448 2.984546 0.000000 0.000000 0.000000
0.509501 0.028167 3.769003 0.000000 0.000000 0.000000
0.006560 2.547857 3.196215 0.000000 0.000000 0.000000
0.443680 -0.217628 2.962860 0.000000 0.000000 0.000000
0.491021 0.070612 3.766208 0.000000 0.000000 0.000000
0.008294 2.549302 3.201147 0.000000 0.000000 0.000000
0.009491 2.549877 3.203967 0.000000 0.000000 0.000000
0.436213 -0.218029 2.987471 0.000000 0.000000 0.000000
0.433986 -0.212887 2.963912 0.000000 0.000000 0.000000
0.442093 -0.210771 2.973238 0.000000 0.000000 0.000000
0.436930 -0.219007 2.971316 0.000000 0.000000 0.000000
0.432345 -0.215542 2.968332 0.000000 0.000000 0.000000
0.434619 -0.219645 2.975353 0.000000 0.000000 0.000000
0.440952 -0.218503 2.971924 0.000000 0.000000 0.000000
0.438170 -0.217131 2.981786 0.000000 0.000000 0.000000
0.005663 2.548733 3.195783 0.000000 0.000000 0.000000
0.016609 2.539852 3.211780 0.000000 0.000000 0.000000
0.497020 0.072028 3.765222 0.000000 0.000000 0.000000
