ply
format ascii 1.0
comment VCGLIB generated
obj_info Generated by SPFormer!
element vertex 560
property float x
property float y
property float z
property float nx
property float ny
property float nz
end_header
-0.072558 0.934957 1.824508 0.000000 0.000000 0.000000
-0.081060 0.923791 1.822928 0.000000 0.000000 0.000000
-0.074569 0.921637 1.827242 0.000000 0.000000 0.000000
-0.071591 0.926716 1.822116 0.000000 0.000000 0.000000
-0.074489 0.916558 1.820876 0.000000 0.000000 0.000000
-0.066833 0.941063 1.817278 0.000000 0.000000 0.000000
-0.081872 0.923129 1.824497 0.000000 0.000000 0.000000
-0.071949 0.936477 1.826673 0.000000 0.000000 0.000000
-0.065669 0.955732 1.801493 0.000000 0.000000 0.000000
-0.074862 0.927388 1.827188 0.000000 0.000000 0.000000
-0.062014 0.948231 1.818373 0.000000 0.000000 0.000000
-0.074470 0.920579 1.827320 0.000000 0.000000 0.000000
-0.079845 0.923783 1.820558 0.000000 0.000000 0.000000
-0.165721 1.586251 1.773851 0.000000 0.000000 0.000000
-0.069363 0.937593 1.824855 0.000000 0.000000 0.000000
-0.179557 1.572801 1.780461 0.000000 0.000000 0.000000
-0.076709 0.928583 1.826304 0.000000 0.000000 0.000000
-0.065083 0.947363 1.813378 0.000000 0.000000 0.000000
-0.080871 0.931788 1.825148 0.000000 0.000000 0.000000
-0.079119 0.927165 1.820539 0.000000 0.000000 0.000000
-0.067527 0.940016 1.817585 0.000000 0.000000 0.000000
-0.162853 1.587059 1.768226 0.000000 0.000000 0.000000
-0.076074 0.919816 1.823810 0.000000 0.000000 0.000000
-0.079434 0.920309 1.823025 0.000000 0.000000 0.000000
-0.163383 1.589715 1.761154 0.000000 0.000000 0.000000
-0.162153 1.594473 1.770281 0.000000 0.000000 0.000000
-0.079783 0.920637 1.821641 0.000000 0.000000 0.000000
-0.080123 0.922796 1.827216 0.000000 0.000000 0.000000
-0.076385 0.922492 1.822111 0.000000 0.000000 0.000000
-0.189380 1.589815 1.787199 0.000000 0.000000 0.000000
-0.072167 0.934220 1.826091 0.000000 0.000000 0.000000
-0.075315 0.933173 1.821691 0.000000 0.000000 0.000000
-0.198237 1.591009 1.788342 0.000000 0.000000 0.000000
-0.197170 1.593287 1.796233 0.000000 0.000000 0.000000
-0.067549 0.938753 1.817818 0.000000 0.000000 0.000000
-0.074450 0.924124 1.828534 0.000000 0.000000 0.000000
-0.199107 1.586877 1.793149 0.000000 0.000000 0.000000
-0.078274 0.921559 1.825899 0.000000 0.000000 0.000000
-0.068266 0.930441 1.821723 0.000000 0.000000 0.000000
-0.196280 1.588246 1.788599 0.000000 0.000000 0.000000
-0.197573 1.589146 1.788426 0.000000 0.000000 0.000000
-0.190136 1.587446 1.786362 0.000000 0.000000 0.000000
-0.069851 0.928763 1.830719 0.000000 0.000000 0.000000
-0.069025 0.939668 1.815159 0.000000 0.000000 0.000000
-0.193930 1.586375 1.784529 0.000000 0.000000 0.000000
-0.069957 0.937213 1.820302 0.000000 0.000000 0.000000
-0.064780 0.935111 1.820033 0.000000 0.000000 0.000000
-0.066402 0.938557 1.823398 0.000000 0.000000 0.000000
-0.193857 1.585500 1.785107 0.000000 0.000000 0.000000
-0.069805 0.937722 1.821389 0.000000 0.000000 0.000000
-0.073906 0.932163 1.829789 0.000000 0.000000 0.000000
-0.074526 0.922937 1.828718 0.000000 0.000000 0.000000
-0.081704 0.918385 1.829515 0.000000 0.000000 0.000000
-0.185563 1.576495 1.774620 0.000000 0.000000 0.000000
-0.165167 1.598199 1.774486 0.000000 0.000000 0.000000
-0.182368 1.580479 1.778452 0.000000 0.000000 0.000000
-0.207305 1.596688 1.793829 0.000000 0.000000 0.000000
-0.173974 1.577056 1.765407 0.000000 0.000000 0.000000
-0.182483 1.569767 1.780299 0.000000 0.000000 0.000000
-0.202688 1.598232 1.798279 0.000000 0.000000 0.000000
-0.165926 1.598180 1.762460 0.000000 0.000000 0.000000
-0.045902 0.959902 1.800351 0.000000 0.000000 0.000000
-0.078575 0.956936 1.800476 0.000000 0.000000 0.000000
-0.196381 1.583874 1.790424 0.000000 0.000000 0.000000
-0.183113 1.573257 1.784298 0.000000 0.000000 0.000000
-0.193902 1.583163 1.782223 0.000000 0.000000 0.000000
-0.166606 1.576015 1.763871 0.000000 0.000000 0.000000
-0.079371 0.927701 1.819931 0.000000 0.000000 0.000000
-0.185277 1.568045 1.777974 0.000000 0.000000 0.000000
-0.182151 1.576744 1.772471 0.000000 0.000000 0.000000
-0.167294 1.572296 1.770700 0.000000 0.000000 0.000000
-0.201357 1.591079 1.790318 0.000000 0.000000 0.000000
-0.166778 1.593879 1.763338 0.000000 0.000000 0.000000
-0.179463 1.569779 1.775637 0.000000 0.000000 0.000000
-0.193806 1.591201 1.790534 0.000000 0.000000 0.000000
-0.181826 1.588523 1.782026 0.000000 0.000000 0.000000
-0.167420 1.574381 1.776359 0.000000 0.000000 0.000000
-0.173799 1.575329 1.770755 0.000000 0.000000 0.000000
-0.201079 1.593800 1.802842 0.000000 0.000000 0.000000
-0.198782 1.582756 1.801170 0.000000 0.000000 0.000000
-0.074714 0.931827 1.829944 0.000000 0.000000 0.000000
-0.071349 0.927932 1.823401 0.000000 0.000000 0.000000
-0.079329 0.927785 1.829598 0.000000 0.000000 0.000000
-0.178694 1.574798 1.770952 0.000000 0.000000 0.000000
-0.162680 1.591217 1.764331 0.000000 0.000000 0.000000
-0.188720 1.578852 1.783391 0.000000 0.000000 0.000000
-0.068132 0.936262 1.827656 0.000000 0.000000 0.000000
-0.068462 0.929493 1.828928 0.000000 0.000000 0.000000
0.315171 0.479557 1.468857 0.000000 0.000000 0.000000
-0.078719 0.921719 1.824902 0.000000 0.000000 0.000000
-0.067059 0.940841 1.825855 0.000000 0.000000 0.000000
-0.064757 0.942454 1.813371 0.000000 0.000000 0.000000
-0.056494 0.957498 1.813147 0.000000 0.000000 0.000000
-0.209653 1.595873 1.801841 0.000000 0.000000 0.000000
-0.165978 1.585236 1.764870 0.000000 0.000000 0.000000
-0.169336 1.597955 1.762135 0.000000 0.000000 0.000000
-0.077101 0.913900 1.821635 0.000000 0.000000 0.000000
-0.074441 0.929944 1.818583 0.000000 0.000000 0.000000
-0.182344 1.577480 1.775489 0.000000 0.000000 0.000000
-0.186079 1.578455 1.778161 0.000000 0.000000 0.000000
-0.080463 0.927441 1.825461 0.000000 0.000000 0.000000
-0.067246 0.931646 1.820524 0.000000 0.000000 0.000000
-0.074993 0.919981 1.829792 0.000000 0.000000 0.000000
-0.071693 0.930666 1.819278 0.000000 0.000000 0.000000
-0.193772 1.584943 1.793937 0.000000 0.000000 0.000000
-0.168093 1.570944 1.764631 0.000000 0.000000 0.000000
-0.073579 0.933493 1.825833 0.000000 0.000000 0.000000
-0.070872 0.939097 1.816462 0.000000 0.000000 0.000000
-0.203702 1.596920 1.795177 0.000000 0.000000 0.000000
-0.062014 0.959835 1.800875 0.000000 0.000000 0.000000
-0.173042 1.582934 1.775530 0.000000 0.000000 0.000000
-0.063518 0.958115 1.807746 0.000000 0.000000 0.000000
-0.178176 1.567597 1.778046 0.000000 0.000000 0.000000
-0.046879 0.959487 1.803359 0.000000 0.000000 0.000000
-0.202689 1.587536 1.801987 0.000000 0.000000 0.000000
-0.195553 1.589681 1.783877 0.000000 0.000000 0.000000
-0.078219 0.925689 1.822190 0.000000 0.000000 0.000000
-0.077925 0.933147 1.819270 0.000000 0.000000 0.000000
-0.183251 1.589281 1.783900 0.000000 0.000000 0.000000
-0.185931 1.580921 1.783090 0.000000 0.000000 0.000000
-0.184419 1.579461 1.779868 0.000000 0.000000 0.000000
-0.174593 1.580371 1.781377 0.000000 0.000000 0.000000
-0.070677 0.938091 1.820033 0.000000 0.000000 0.000000
-0.062711 0.955982 1.806177 0.000000 0.000000 0.000000
-0.208832 1.602045 1.806313 0.000000 0.000000 0.000000
-0.194121 1.582420 1.786275 0.000000 0.000000 0.000000
-0.069306 0.932492 1.825325 0.000000 0.000000 0.000000
-0.202150 1.593347 1.795608 0.000000 0.000000 0.000000
-0.194404 1.589664 1.795448 0.000000 0.000000 0.000000
-0.067095 0.941675 1.817811 0.000000 0.000000 0.000000
-0.200769 1.589303 1.799029 0.000000 0.000000 0.000000
-0.079193 0.930709 1.827796 0.000000 0.000000 0.000000
-0.079199 0.922684 1.820388 0.000000 0.000000 0.000000
-0.076755 0.920152 1.827010 0.000000 0.000000 0.000000
-0.082116 0.951653 1.802162 0.000000 0.000000 0.000000
-0.078423 0.923084 1.826359 0.000000 0.000000 0.000000
-0.073660 0.919474 1.821251 0.000000 0.000000 0.000000
-0.181530 1.576856 1.769650 0.000000 0.000000 0.000000
-0.171147 1.595780 1.760929 0.000000 0.000000 0.000000
-0.070223 0.939231 1.813731 0.000000 0.000000 0.000000
-0.074362 0.931729 1.823052 0.000000 0.000000 0.000000
-0.077141 0.925126 1.819878 0.000000 0.000000 0.000000
-0.083271 0.924780 1.826738 0.000000 0.000000 0.000000
-0.081908 0.924384 1.827718 0.000000 0.000000 0.000000
-0.172430 1.590963 1.769275 0.000000 0.000000 0.000000
-0.073468 0.938016 1.815747 0.000000 0.000000 0.000000
-0.072580 0.936841 1.818702 0.000000 0.000000 0.000000
-0.073076 0.919354 1.829275 0.000000 0.000000 0.000000
-0.069703 0.938597 1.815177 0.000000 0.000000 0.000000
-0.206279 1.595678 1.798278 0.000000 0.000000 0.000000
-0.067297 0.946920 1.810761 0.000000 0.000000 0.000000
-0.174239 1.574969 1.786111 0.000000 0.000000 0.000000
-0.053792 0.956058 1.801217 0.000000 0.000000 0.000000
-0.187421 1.565886 1.780611 0.000000 0.000000 0.000000
-0.204194 1.599022 1.801140 0.000000 0.000000 0.000000
-0.184288 1.586989 1.784493 0.000000 0.000000 0.000000
-0.183454 1.582221 1.775483 0.000000 0.000000 0.000000
-0.061278 0.952994 1.800616 0.000000 0.000000 0.000000
-0.195431 1.592685 1.789392 0.000000 0.000000 0.000000
-0.205580 1.598527 1.801057 0.000000 0.000000 0.000000
-0.204123 1.589576 1.799356 0.000000 0.000000 0.000000
-0.179281 1.591303 1.786973 0.000000 0.000000 0.000000
-0.199492 1.587155 1.790085 0.000000 0.000000 0.000000
-0.185957 1.580513 1.788562 0.000000 0.000000 0.000000
-0.193150 1.588753 1.795974 0.000000 0.000000 0.000000
0.318611 0.477590 1.462334 0.000000 0.000000 0.000000
-0.212451 1.588117 1.803059 0.000000 0.000000 0.000000
-0.076213 0.920963 1.831209 0.000000 0.000000 0.000000
-0.196497 1.589116 1.799363 0.000000 0.000000 0.000000
-0.079925 0.926910 1.823684 0.000000 0.000000 0.000000
-0.081356 0.919217 1.827477 0.000000 0.000000 0.000000
-0.073354 0.918355 1.829709 0.000000 0.000000 0.000000
-0.209919 1.590433 1.787946 0.000000 0.000000 0.000000
-0.197147 1.596058 1.798995 0.000000 0.000000 0.000000
-0.198746 1.585395 1.787462 0.000000 0.000000 0.000000
-0.214327 1.596588 1.807086 0.000000 0.000000 0.000000
-0.207016 1.600053 1.805813 0.000000 0.000000 0.000000
-0.173446 1.579229 1.783996 0.000000 0.000000 0.000000
-0.078287 0.919840 1.829485 0.000000 0.000000 0.000000
-0.072114 0.935610 1.816867 0.000000 0.000000 0.000000
-0.203176 1.600574 1.803184 0.000000 0.000000 0.000000
-0.163809 1.572397 1.773518 0.000000 0.000000 0.000000
-0.184758 1.575277 1.786581 0.000000 0.000000 0.000000
-0.185444 1.585381 1.784181 0.000000 0.000000 0.000000
-0.166875 1.571300 1.761676 0.000000 0.000000 0.000000
-0.190298 1.581863 1.789865 0.000000 0.000000 0.000000
-0.160445 1.588684 1.780617 0.000000 0.000000 0.000000
-0.185814 1.586586 1.790524 0.000000 0.000000 0.000000
0.319785 0.478888 1.460337 0.000000 0.000000 0.000000
-0.078748 0.927731 1.822086 0.000000 0.000000 0.000000
-0.075596 0.930562 1.822451 0.000000 0.000000 0.000000
-0.186296 1.578129 1.781951 0.000000 0.000000 0.000000
-0.072927 0.935640 1.824098 0.000000 0.000000 0.000000
-0.196773 1.592216 1.790621 0.000000 0.000000 0.000000
-0.167871 1.574472 1.777805 0.000000 0.000000 0.000000
-0.063740 0.936715 1.829505 0.000000 0.000000 0.000000
-0.078681 0.925921 1.821688 0.000000 0.000000 0.000000
-0.043388 0.955372 1.811581 0.000000 0.000000 0.000000
-0.070401 0.936809 1.826880 0.000000 0.000000 0.000000
-0.207152 1.591385 1.805581 0.000000 0.000000 0.000000
-0.205058 1.588869 1.794140 0.000000 0.000000 0.000000
-0.079528 0.923127 1.820635 0.000000 0.000000 0.000000
-0.210098 1.594551 1.812626 0.000000 0.000000 0.000000
-0.204598 1.595415 1.797660 0.000000 0.000000 0.000000
-0.199643 1.586447 1.793494 0.000000 0.000000 0.000000
-0.207411 1.595840 1.811094 0.000000 0.000000 0.000000
-0.080510 0.922153 1.824851 0.000000 0.000000 0.000000
-0.073021 0.929465 1.823301 0.000000 0.000000 0.000000
-0.070159 0.939153 1.817564 0.000000 0.000000 0.000000
-0.073380 0.938280 1.815817 0.000000 0.000000 0.000000
-0.058288 0.959067 1.811666 0.000000 0.000000 0.000000
-0.210807 1.596380 1.807258 0.000000 0.000000 0.000000
-0.209616 1.595885 1.806338 0.000000 0.000000 0.000000
-0.165421 1.578446 1.781327 0.000000 0.000000 0.000000
-0.071348 0.940272 1.815386 0.000000 0.000000 0.000000
-0.079453 0.923982 1.824917 0.000000 0.000000 0.000000
-0.184495 1.574314 1.789859 0.000000 0.000000 0.000000
-0.061571 0.950693 1.814203 0.000000 0.000000 0.000000
-0.210354 1.605080 1.808331 0.000000 0.000000 0.000000
-0.074162 0.916453 1.818607 0.000000 0.000000 0.000000
-0.193294 1.593467 1.792034 0.000000 0.000000 0.000000
-0.080418 0.921442 1.829047 0.000000 0.000000 0.000000
-0.171916 1.570929 1.776281 0.000000 0.000000 0.000000
-0.071459 0.940392 1.813268 0.000000 0.000000 0.000000
-0.069027 0.936605 1.818767 0.000000 0.000000 0.000000
-0.066238 0.950738 1.802902 0.000000 0.000000 0.000000
-0.063111 0.952696 1.810680 0.000000 0.000000 0.000000
-0.054830 0.958848 1.802575 0.000000 0.000000 0.000000
-0.065742 0.943451 1.813639 0.000000 0.000000 0.000000
-0.071362 0.923795 1.831555 0.000000 0.000000 0.000000
-0.175173 1.580808 1.786510 0.000000 0.000000 0.000000
-0.065907 0.959534 1.800648 0.000000 0.000000 0.000000
-0.179268 1.575106 1.785668 0.000000 0.000000 0.000000
-0.164556 1.582744 1.777280 0.000000 0.000000 0.000000
-0.059449 0.950527 1.814883 0.000000 0.000000 0.000000
-0.176622 1.580558 1.773071 0.000000 0.000000 0.000000
-0.074829 0.921173 1.828312 0.000000 0.000000 0.000000
-0.171227 1.574480 1.762000 0.000000 0.000000 0.000000
-0.189543 1.581690 1.784183 0.000000 0.000000 0.000000
-0.065910 0.943353 1.820474 0.000000 0.000000 0.000000
-0.190769 1.580213 1.773759 0.000000 0.000000 0.000000
-0.068897 0.928384 1.829645 0.000000 0.000000 0.000000
-0.199771 1.588270 1.798455 0.000000 0.000000 0.000000
-0.070690 0.933998 1.821893 0.000000 0.000000 0.000000
-0.072324 0.919364 1.827802 0.000000 0.000000 0.000000
-0.066260 0.930506 1.833213 0.000000 0.000000 0.000000
-0.044050 0.959617 1.806240 0.000000 0.000000 0.000000
-0.066064 0.932736 1.826355 0.000000 0.000000 0.000000
-0.070624 0.939809 1.823667 0.000000 0.000000 0.000000
-0.192884 1.577860 1.794239 0.000000 0.000000 0.000000
-0.177340 1.576196 1.774890 0.000000 0.000000 0.000000
-0.067059 0.932031 1.820324 0.000000 0.000000 0.000000
-0.201175 1.577280 1.776172 0.000000 0.000000 0.000000
-0.203309 1.581779 1.801940 0.000000 0.000000 0.000000
-0.213920 1.605939 1.810936 0.000000 0.000000 0.000000
-0.197283 1.576821 1.802008 0.000000 0.000000 0.000000
-0.173534 1.573803 1.775022 0.000000 0.000000 0.000000
-0.078434 0.922991 1.822543 0.000000 0.000000 0.000000
-0.192776 1.590902 1.786395 0.000000 0.000000 0.000000
-0.202565 1.590470 1.785611 0.000000 0.000000 0.000000
-0.195610 1.579183 1.793261 0.000000 0.000000 0.000000
-0.201361 1.583741 1.803318 0.000000 0.000000 0.000000
-0.070116 0.933522 1.824850 0.000000 0.000000 0.000000
-0.064906 0.942691 1.815700 0.000000 0.000000 0.000000
-0.070641 0.922155 1.819757 0.000000 0.000000 0.000000
-0.067549 0.929999 1.833886 0.000000 0.000000 0.000000
-0.188022 1.579012 1.794028 0.000000 0.000000 0.000000
-0.179153 1.577094 1.788621 0.000000 0.000000 0.000000
-0.175404 1.573241 1.782895 0.000000 0.000000 0.000000
-0.191022 1.575532 1.787272 0.000000 0.000000 0.000000
-0.196117 1.582996 1.800441 0.000000 0.000000 0.000000
-0.180289 1.573869 1.785006 0.000000 0.000000 0.000000
-0.176695 1.571343 1.782388 0.000000 0.000000 0.000000
-0.176054 1.572379 1.768745 0.000000 0.000000 0.000000
-0.068979 0.940760 1.820190 0.000000 0.000000 0.000000
-0.078096 0.940023 1.820535 0.000000 0.000000 0.000000
-0.068925 0.941054 1.814064 0.000000 0.000000 0.000000
-0.065521 0.937875 1.816987 0.000000 0.000000 0.000000
-0.077297 0.936814 1.818482 0.000000 0.000000 0.000000
-0.072710 0.933258 1.819219 0.000000 0.000000 0.000000
-0.068364 0.932848 1.820640 0.000000 0.000000 0.000000
-0.067388 0.938568 1.824581 0.000000 0.000000 0.000000
-0.172619 1.581322 1.775145 0.000000 0.000000 0.000000
-0.181231 1.569931 1.781189 0.000000 0.000000 0.000000
-0.197174 1.576591 1.790460 0.000000 0.000000 0.000000
-0.177972 1.588377 1.778959 0.000000 0.000000 0.000000
-0.202883 1.590216 1.798182 0.000000 0.000000 0.000000
-0.065135 0.946417 1.813813 0.000000 0.000000 0.000000
-0.210250 1.595798 1.805689 0.000000 0.000000 0.000000
-0.209119 1.592580 1.810523 0.000000 0.000000 0.000000
-0.211079 1.603170 1.811143 0.000000 0.000000 0.000000
-0.207823 1.602866 1.805861 0.000000 0.000000 0.000000
0.311952 0.475416 1.463244 0.000000 0.000000 0.000000
-0.211197 1.599026 1.807228 0.000000 0.000000 0.000000
-0.199700 1.587036 1.792514 0.000000 0.000000 0.000000
-0.206230 1.596827 1.795882 0.000000 0.000000 0.000000
-0.210617 1.596874 1.799465 0.000000 0.000000 0.000000
-0.206162 1.594611 1.799512 0.000000 0.000000 0.000000
-0.205259 1.590222 1.800828 0.000000 0.000000 0.000000
-0.211399 1.604154 1.808038 0.000000 0.000000 0.000000
-0.210976 1.603576 1.807599 0.000000 0.000000 0.000000
-0.211117 1.599728 1.804478 0.000000 0.000000 0.000000
-0.074888 0.920593 1.828062 0.000000 0.000000 0.000000
-0.083330 0.929483 1.830984 0.000000 0.000000 0.000000
-0.077519 0.919872 1.826702 0.000000 0.000000 0.000000
-0.187861 1.574940 1.785055 0.000000 0.000000 0.000000
-0.062384 0.957491 1.802233 0.000000 0.000000 0.000000
-0.202237 1.595266 1.805026 0.000000 0.000000 0.000000
-0.077881 0.910486 1.820239 0.000000 0.000000 0.000000
-0.063635 0.950126 1.816525 0.000000 0.000000 0.000000
-0.063928 0.954237 1.804838 0.000000 0.000000 0.000000
-0.063607 0.944158 1.814839 0.000000 0.000000 0.000000
-0.191426 1.583629 1.786544 0.000000 0.000000 0.000000
-0.073584 0.925757 1.831717 0.000000 0.000000 0.000000
-0.193516 1.577117 1.790532 0.000000 0.000000 0.000000
-0.180340 1.582366 1.791813 0.000000 0.000000 0.000000
-0.074916 0.923666 1.822008 0.000000 0.000000 0.000000
-0.178730 1.573683 1.772936 0.000000 0.000000 0.000000
-0.196841 1.584302 1.789519 0.000000 0.000000 0.000000
-0.040839 0.955643 1.809430 0.000000 0.000000 0.000000
-0.210216 1.597918 1.809720 0.000000 0.000000 0.000000
-0.074602 0.916205 1.825074 0.000000 0.000000 0.000000
-0.195336 1.589508 1.787259 0.000000 0.000000 0.000000
-0.191107 1.577813 1.785643 0.000000 0.000000 0.000000
-0.175314 1.572380 1.782889 0.000000 0.000000 0.000000
-0.192448 1.584946 1.793381 0.000000 0.000000 0.000000
-0.176472 1.568007 1.774742 0.000000 0.000000 0.000000
-0.179962 1.565465 1.772990 0.000000 0.000000 0.000000
-0.205196 1.590347 1.801371 0.000000 0.000000 0.000000
-0.209246 1.595769 1.804335 0.000000 0.000000 0.000000
-0.189339 1.575732 1.789468 0.000000 0.000000 0.000000
-0.169894 1.577041 1.787590 0.000000 0.000000 0.000000
-0.073494 0.920036 1.829079 0.000000 0.000000 0.000000
-0.086437 0.919681 1.820997 0.000000 0.000000 0.000000
-0.063746 0.941151 1.820450 0.000000 0.000000 0.000000
-0.072650 0.935770 1.820882 0.000000 0.000000 0.000000
-0.214270 1.605365 1.800738 0.000000 0.000000 0.000000
-0.215272 1.608033 1.808708 0.000000 0.000000 0.000000
-0.081966 0.918290 1.827643 0.000000 0.000000 0.000000
-0.209169 1.588658 1.794203 0.000000 0.000000 0.000000
-0.210748 1.600373 1.810959 0.000000 0.000000 0.000000
-0.208365 1.602931 1.809556 0.000000 0.000000 0.000000
-0.211226 1.604424 1.809849 0.000000 0.000000 0.000000
-0.077948 0.924684 1.829973 0.000000 0.000000 0.000000
-0.212535 1.595023 1.798211 0.000000 0.000000 0.000000
-0.207072 1.601932 1.800954 0.000000 0.000000 0.000000
-0.204246 1.600633 1.806224 0.000000 0.000000 0.000000
-0.210340 1.602142 1.808836 0.000000 0.000000 0.000000
-0.218057 1.612020 1.810202 0.000000 0.000000 0.000000
-0.203223 1.588321 1.800594 0.000000 0.000000 0.000000
-0.206665 1.594675 1.798925 0.000000 0.000000 0.000000
0.319423 0.469248 1.462527 0.000000 0.000000 0.000000
-0.210856 1.598555 1.806633 0.000000 0.000000 0.000000
0.316811 0.467522 1.465564 0.000000 0.000000 0.000000
0.312332 0.469484 1.460881 0.000000 0.000000 0.000000
-0.191439 1.588298 1.791769 0.000000 0.000000 0.000000
-0.082550 0.915319 1.816643 0.000000 0.000000 0.000000
-0.161680 1.585566 1.774350 0.000000 0.000000 0.000000
-0.081435 0.922383 1.821984 0.000000 0.000000 0.000000
-0.205519 1.583177 1.796397 0.000000 0.000000 0.000000
-0.201743 1.585964 1.804201 0.000000 0.000000 0.000000
0.316603 0.474542 1.466141 0.000000 0.000000 0.000000
-0.201998 1.574466 1.800313 0.000000 0.000000 0.000000
-0.202692 1.575330 1.791786 0.000000 0.000000 0.000000
-0.184726 1.575193 1.788107 0.000000 0.000000 0.000000
-0.203505 1.583637 1.798997 0.000000 0.000000 0.000000
-0.195033 1.573199 1.794725 0.000000 0.000000 0.000000
-0.177885 1.571840 1.776406 0.000000 0.000000 0.000000
-0.193575 1.584731 1.784468 0.000000 0.000000 0.000000
-0.178096 1.582624 1.785702 0.000000 0.000000 0.000000
-0.073138 0.920626 1.829318 0.000000 0.000000 0.000000
-0.079325 0.923278 1.825299 0.000000 0.000000 0.000000
-0.075001 0.931731 1.829456 0.000000 0.000000 0.000000
-0.074433 0.916462 1.828671 0.000000 0.000000 0.000000
-0.218663 1.603469 1.811812 0.000000 0.000000 0.000000
-0.210483 1.598196 1.808515 0.000000 0.000000 0.000000
-0.214933 1.590957 1.806813 0.000000 0.000000 0.000000
-0.076249 0.922612 1.823089 0.000000 0.000000 0.000000
-0.211617 1.582742 1.802701 0.000000 0.000000 0.000000
-0.078968 0.925846 1.820460 0.000000 0.000000 0.000000
-0.080753 0.923184 1.822259 0.000000 0.000000 0.000000
-0.077596 0.929105 1.830653 0.000000 0.000000 0.000000
-0.081955 0.923670 1.813576 0.000000 0.000000 0.000000
-0.085722 0.915061 1.819117 0.000000 0.000000 0.000000
-0.191490 1.578224 1.793757 0.000000 0.000000 0.000000
-0.074229 0.937864 1.816267 0.000000 0.000000 0.000000
-0.080040 0.921490 1.826659 0.000000 0.000000 0.000000
-0.083664 0.915099 1.831628 0.000000 0.000000 0.000000
-0.201097 1.583676 1.799981 0.000000 0.000000 0.000000
-0.196219 1.581538 1.796235 0.000000 0.000000 0.000000
-0.179188 1.572867 1.778422 0.000000 0.000000 0.000000
-0.197444 1.583134 1.797195 0.000000 0.000000 0.000000
-0.075013 0.921506 1.828718 0.000000 0.000000 0.000000
-0.076410 0.929830 1.825727 0.000000 0.000000 0.000000
-0.204709 1.601329 1.801736 0.000000 0.000000 0.000000
-0.074657 0.935914 1.820996 0.000000 0.000000 0.000000
-0.077106 0.922320 1.819887 0.000000 0.000000 0.000000
-0.078718 0.922826 1.824451 0.000000 0.000000 0.000000
-0.210372 1.600476 1.804325 0.000000 0.000000 0.000000
-0.086947 0.913159 1.823174 0.000000 0.000000 0.000000
-0.081649 0.910431 1.821311 0.000000 0.000000 0.000000
-0.212449 1.590774 1.790044 0.000000 0.000000 0.000000
-0.205610 1.594739 1.794438 0.000000 0.000000 0.000000
-0.069811 0.924903 1.820962 0.000000 0.000000 0.000000
-0.210873 1.599123 1.796561 0.000000 0.000000 0.000000
-0.200877 1.587191 1.785717 0.000000 0.000000 0.000000
-0.199040 1.599056 1.795434 0.000000 0.000000 0.000000
-0.208517 1.595644 1.787850 0.000000 0.000000 0.000000
-0.204388 1.591797 1.787897 0.000000 0.000000 0.000000
-0.072723 0.921877 1.820298 0.000000 0.000000 0.000000
-0.207859 1.598511 1.798473 0.000000 0.000000 0.000000
-0.207332 1.597608 1.795225 0.000000 0.000000 0.000000
-0.069162 0.926192 1.832531 0.000000 0.000000 0.000000
-0.067245 0.937759 1.824548 0.000000 0.000000 0.000000
-0.066697 0.933835 1.821888 0.000000 0.000000 0.000000
-0.081476 0.917037 1.821562 0.000000 0.000000 0.000000
-0.068292 0.933404 1.831210 0.000000 0.000000 0.000000
-0.064132 0.941637 1.818678 0.000000 0.000000 0.000000
-0.212471 1.586602 1.800651 0.000000 0.000000 0.000000
0.318775 0.473529 1.459790 0.000000 0.000000 0.000000
-0.047192 0.952685 1.824369 0.000000 0.000000 0.000000
0.315492 0.473498 1.458079 0.000000 0.000000 0.000000
-0.082597 0.912967 1.818643 0.000000 0.000000 0.000000
-0.076167 0.921456 1.827542 0.000000 0.000000 0.000000
-0.073238 0.930753 1.820940 0.000000 0.000000 0.000000
-0.080081 0.926203 1.822303 0.000000 0.000000 0.000000
-0.074897 0.920501 1.827935 0.000000 0.000000 0.000000
-0.080415 0.919430 1.822694 0.000000 0.000000 0.000000
-0.079374 0.932662 1.813648 0.000000 0.000000 0.000000
-0.084093 0.923359 1.819098 0.000000 0.000000 0.000000
-0.076800 0.929741 1.820976 0.000000 0.000000 0.000000
-0.215990 1.609947 1.816112 0.000000 0.000000 0.000000
-0.080322 0.923665 1.821953 0.000000 0.000000 0.000000
-0.079248 0.924481 1.823797 0.000000 0.000000 0.000000
-0.080402 0.924659 1.817751 0.000000 0.000000 0.000000
-0.082023 0.923546 1.822847 0.000000 0.000000 0.000000
-0.070530 0.925276 1.820090 0.000000 0.000000 0.000000
-0.189016 1.568545 1.778384 0.000000 0.000000 0.000000
-0.210574 1.597851 1.806165 0.000000 0.000000 0.000000
-0.203477 1.582881 1.800827 0.000000 0.000000 0.000000
-0.080407 0.927063 1.823066 0.000000 0.000000 0.000000
-0.065831 0.945840 1.812227 0.000000 0.000000 0.000000
-0.200230 1.597834 1.802305 0.000000 0.000000 0.000000
-0.080529 0.926645 1.818127 0.000000 0.000000 0.000000
-0.065332 0.934432 1.828721 0.000000 0.000000 0.000000
-0.080334 0.919135 1.823969 0.000000 0.000000 0.000000
-0.199382 1.597527 1.797696 0.000000 0.000000 0.000000
-0.209265 1.597733 1.805258 0.000000 0.000000 0.000000
-0.072597 0.927415 1.821375 0.000000 0.000000 0.000000
-0.209980 1.595433 1.796961 0.000000 0.000000 0.000000
-0.208411 1.593701 1.810443 0.000000 0.000000 0.000000
-0.074678 0.918370 1.823077 0.000000 0.000000 0.000000
-0.066500 0.933814 1.828339 0.000000 0.000000 0.000000
-0.175141 1.576120 1.766052 0.000000 0.000000 0.000000
-0.185451 1.567823 1.771519 0.000000 0.000000 0.000000
-0.172732 1.580122 1.766736 0.000000 0.000000 0.000000
-0.067445 0.933649 1.822704 0.000000 0.000000 0.000000
-0.179508 1.568851 1.763363 0.000000 0.000000 0.000000
-0.174582 1.569966 1.770431 0.000000 0.000000 0.000000
-0.185273 1.576419 1.762200 0.000000 0.000000 0.000000
-0.210241 1.597716 1.807171 0.000000 0.000000 0.000000
-0.183599 1.575590 1.765785 0.000000 0.000000 0.000000
-0.172074 1.567425 1.763970 0.000000 0.000000 0.000000
-0.176894 1.570630 1.765381 0.000000 0.000000 0.000000
-0.203133 1.588405 1.799630 0.000000 0.000000 0.000000
-0.085914 0.912104 1.823589 0.000000 0.000000 0.000000
-0.071535 0.923735 1.822571 0.000000 0.000000 0.000000
-0.062929 0.956450 1.813387 0.000000 0.000000 0.000000
-0.058340 0.959448 1.812596 0.000000 0.000000 0.000000
-0.074936 0.931666 1.819601 0.000000 0.000000 0.000000
-0.041501 0.959583 1.810662 0.000000 0.000000 0.000000
-0.061097 0.959248 1.808070 0.000000 0.000000 0.000000
-0.054493 0.959603 1.809459 0.000000 0.000000 0.000000
-0.175106 1.582201 1.770648 0.000000 0.000000 0.000000
-0.199488 1.588004 1.783957 0.000000 0.000000 0.000000
-0.195025 1.585127 1.781894 0.000000 0.000000 0.000000
-0.192480 1.576970 1.783397 0.000000 0.000000 0.000000
-0.193600 1.587884 1.784164 0.000000 0.000000 0.000000
-0.201911 1.581709 1.784093 0.000000 0.000000 0.000000
-0.191477 1.577304 1.783064 0.000000 0.000000 0.000000
-0.210163 1.598067 1.806666 0.000000 0.000000 0.000000
-0.193825 1.598242 1.792752 0.000000 0.000000 0.000000
-0.210906 1.590843 1.805708 0.000000 0.000000 0.000000
-0.214048 1.599566 1.798462 0.000000 0.000000 0.000000
-0.214164 1.587267 1.793001 0.000000 0.000000 0.000000
-0.205927 1.594778 1.794445 0.000000 0.000000 0.000000
-0.210258 1.595677 1.801342 0.000000 0.000000 0.000000
-0.209658 1.597331 1.793447 0.000000 0.000000 0.000000
-0.208310 1.593803 1.789507 0.000000 0.000000 0.000000
-0.217042 1.596176 1.800272 0.000000 0.000000 0.000000
-0.202172 1.588580 1.787681 0.000000 0.000000 0.000000
-0.071928 0.923609 1.821570 0.000000 0.000000 0.000000
-0.076489 0.920338 1.826693 0.000000 0.000000 0.000000
-0.080361 0.925249 1.829216 0.000000 0.000000 0.000000
-0.072600 0.958263 1.801477 0.000000 0.000000 0.000000
-0.075736 0.915971 1.820819 0.000000 0.000000 0.000000
-0.073395 0.922066 1.832080 0.000000 0.000000 0.000000
-0.072140 0.930323 1.825543 0.000000 0.000000 0.000000
-0.083624 0.916305 1.822836 0.000000 0.000000 0.000000
-0.080015 0.914585 1.825471 0.000000 0.000000 0.000000
-0.070769 0.954409 1.801857 0.000000 0.000000 0.000000
-0.069734 0.927329 1.833387 0.000000 0.000000 0.000000
-0.066507 0.954863 1.803656 0.000000 0.000000 0.000000
-0.071180 0.923880 1.835984 0.000000 0.000000 0.000000
-0.182753 1.565238 1.776153 0.000000 0.000000 0.000000
-0.079102 0.920056 1.834776 0.000000 0.000000 0.000000
-0.080237 0.924041 1.817580 0.000000 0.000000 0.000000
-0.080529 0.927242 1.814905 0.000000 0.000000 0.000000
-0.062326 0.949770 1.812384 0.000000 0.000000 0.000000
-0.085758 0.910713 1.819333 0.000000 0.000000 0.000000
-0.080165 0.929919 1.821066 0.000000 0.000000 0.000000
-0.082656 0.922848 1.818226 0.000000 0.000000 0.000000
-0.065054 0.952221 1.807682 0.000000 0.000000 0.000000
-0.079784 0.926519 1.819150 0.000000 0.000000 0.000000
-0.086275 0.916076 1.825856 0.000000 0.000000 0.000000
-0.074694 0.919319 1.826125 0.000000 0.000000 0.000000
-0.062262 0.956180 1.802928 0.000000 0.000000 0.000000
-0.076579 0.922190 1.826596 0.000000 0.000000 0.000000
-0.085381 0.924736 1.829638 0.000000 0.000000 0.000000
-0.082356 0.926885 1.825371 0.000000 0.000000 0.000000
-0.081510 0.915717 1.822133 0.000000 0.000000 0.000000
-0.082274 0.916510 1.821508 0.000000 0.000000 0.000000
-0.080835 0.924651 1.818089 0.000000 0.000000 0.000000
-0.075352 0.916381 1.820224 0.000000 0.000000 0.000000
-0.087120 0.914429 1.827903 0.000000 0.000000 0.000000
-0.071493 0.952173 1.801561 0.000000 0.000000 0.000000
-0.069370 0.945389 1.810620 0.000000 0.000000 0.000000
-0.074847 0.929144 1.823712 0.000000 0.000000 0.000000
-0.066346 0.945737 1.808690 0.000000 0.000000 0.000000
-0.180923 1.566331 1.778768 0.000000 0.000000 0.000000
-0.077799 0.914224 1.820288 0.000000 0.000000 0.000000
-0.083951 0.917335 1.822950 0.000000 0.000000 0.000000
-0.171582 1.571071 1.779669 0.000000 0.000000 0.000000
-0.082314 0.925643 1.825604 0.000000 0.000000 0.000000
-0.073727 0.920254 1.828127 0.000000 0.000000 0.000000
-0.080221 0.923051 1.821452 0.000000 0.000000 0.000000
-0.074300 0.919634 1.819654 0.000000 0.000000 0.000000
-0.076212 0.920240 1.824172 0.000000 0.000000 0.000000
-0.084391 0.913568 1.814378 0.000000 0.000000 0.000000
-0.080689 0.923372 1.820075 0.000000 0.000000 0.000000
-0.080961 0.923133 1.817396 0.000000 0.000000 0.000000
-0.074226 0.921781 1.821625 0.000000 0.000000 0.000000
-0.082635 0.917581 1.822153 0.000000 0.000000 0.000000
-0.073050 0.920443 1.819710 0.000000 0.000000 0.000000
-0.074706 0.921021 1.821921 0.000000 0.000000 0.000000
-0.075533 0.920875 1.822894 0.000000 0.000000 0.000000
-0.080258 0.924346 1.820492 0.000000 0.000000 0.000000
-0.074469 0.920311 1.822971 0.000000 0.000000 0.000000
-0.072433 0.922030 1.821928 0.000000 0.000000 0.000000
-0.079504 0.925541 1.819976 0.000000 0.000000 0.000000
-0.068101 0.942409 1.812690 0.000000 0.000000 0.000000
-0.075079 0.934925 1.816023 0.000000 0.000000 0.000000
-0.079150 0.920423 1.821020 0.000000 0.000000 0.000000
-0.063486 0.948706 1.813279 0.000000 0.000000 0.000000
-0.065868 0.945638 1.812173 0.000000 0.000000 0.000000
-0.075025 0.925382 1.823461 0.000000 0.000000 0.000000
-0.082147 0.917231 1.823153 0.000000 0.000000 0.000000
-0.072249 0.922047 1.822282 0.000000 0.000000 0.000000
-0.070579 0.926641 1.821886 0.000000 0.000000 0.000000
-0.047673 0.955507 1.816989 0.000000 0.000000 0.000000
