ply
format ascii 1.0
comment VCGLIB generated
obj_info Generated by SPFormer!
element vertex 695
property float x
property float y
property float z
property float nx
property float ny
property float nz
end_header
-0.045551 0.976765 1.802462 0.000000 0.000000 0.000000
-0.043138 1.016881 1.787360 0.000000 0.000000 0.000000
-0.039174 1.001394 1.789486 0.000000 0.000000 0.000000
-0.045655 1.001034 1.793369 0.000000 0.000000 0.000000
-0.023067 1.028026 1.788334 0.000000 0.000000 0.000000
-0.041990 0.974254 1.838290 0.000000 0.000000 0.000000
-0.035721 1.004707 1.775216 0.000000 0.000000 0.000000
-0.025487 1.030022 1.786345 0.000000 0.000000 0.000000
-0.061611 0.983102 1.816439 0.000000 0.000000 0.000000
-0.084716 0.995812 1.813621 0.000000 0.000000 0.000000
-0.079787 1.018475 1.825771 0.000000 0.000000 0.000000
-0.041442 1.010844 1.797075 0.000000 0.000000 0.000000
-0.085933 0.999958 1.818298 0.000000 0.000000 0.000000
-0.091067 1.027755 1.820271 0.000000 0.000000 0.000000
-0.052122 1.004147 1.824791 0.000000 0.000000 0.000000
-0.055582 0.983589 1.808426 0.000000 0.000000 0.000000
-0.048115 0.981815 1.817155 0.000000 0.000000 0.000000
-0.061750 1.057049 1.839130 0.000000 0.000000 0.000000
-0.044260 0.989678 1.806033 0.000000 0.000000 0.000000
-0.070036 0.992996 1.817697 0.000000 0.000000 0.000000
-0.061318 1.061282 1.831473 0.000000 0.000000 0.000000
-0.087896 0.997959 1.815467 0.000000 0.000000 0.000000
-0.060620 1.074562 1.835549 0.000000 0.000000 0.000000
-0.046036 1.004921 1.800316 0.000000 0.000000 0.000000
-0.081136 1.001727 1.825817 0.000000 0.000000 0.000000
-0.039042 1.012980 1.784819 0.000000 0.000000 0.000000
-0.020020 1.014629 1.777410 0.000000 0.000000 0.000000
-0.055351 0.991101 1.817790 0.000000 0.000000 0.000000
-0.046347 0.993126 1.823024 0.000000 0.000000 0.000000
-0.044120 1.027730 1.792401 0.000000 0.000000 0.000000
-0.042565 0.969468 1.805359 0.000000 0.000000 0.000000
-0.088965 1.016428 1.812529 0.000000 0.000000 0.000000
-0.030210 1.030078 1.783326 0.000000 0.000000 0.000000
-0.085132 1.015733 1.818815 0.000000 0.000000 0.000000
-0.083800 1.003462 1.818628 0.000000 0.000000 0.000000
-0.082488 1.039044 1.816696 0.000000 0.000000 0.000000
-0.041024 1.029126 1.797570 0.000000 0.000000 0.000000
0.331189 0.602632 1.510747 0.000000 0.000000 0.000000
-0.030207 1.007127 1.772805 0.000000 0.000000 0.000000
-0.050628 1.039015 1.792019 0.000000 0.000000 0.000000
-0.053767 1.020343 1.828333 0.000000 0.000000 0.000000
-0.045106 1.026967 1.787021 0.000000 0.000000 0.000000
-0.066802 1.061257 1.827457 0.000000 0.000000 0.000000
-0.065312 1.056789 1.832579 0.000000 0.000000 0.000000
-0.082979 1.004842 1.816446 0.000000 0.000000 0.000000
-0.040514 0.980587 1.828055 0.000000 0.000000 0.000000
-0.090645 1.027032 1.818502 0.000000 0.000000 0.000000
-0.057873 1.044593 1.829653 0.000000 0.000000 0.000000
-0.066872 1.064620 1.831022 0.000000 0.000000 0.000000
-0.081190 1.017458 1.822479 0.000000 0.000000 0.000000
-0.085521 1.009682 1.816153 0.000000 0.000000 0.000000
0.397401 -0.158769 2.976487 0.000000 0.000000 0.000000
-0.066021 1.065094 1.825193 0.000000 0.000000 0.000000
-0.081899 1.033155 1.822700 0.000000 0.000000 0.000000
-0.065013 0.982740 1.818132 0.000000 0.000000 0.000000
-0.075188 1.002047 1.814943 0.000000 0.000000 0.000000
-0.057015 1.049612 1.826952 0.000000 0.000000 0.000000
-0.064328 1.043566 1.833986 0.000000 0.000000 0.000000
-0.082568 1.009741 1.811321 0.000000 0.000000 0.000000
-0.049470 0.972513 1.814969 0.000000 0.000000 0.000000
-0.086430 0.997449 1.817326 0.000000 0.000000 0.000000
-0.046012 0.984075 1.806182 0.000000 0.000000 0.000000
-0.064033 1.057902 1.828561 0.000000 0.000000 0.000000
-0.080953 1.002994 1.813274 0.000000 0.000000 0.000000
-0.025877 1.031355 1.792390 0.000000 0.000000 0.000000
-0.067048 1.018568 1.800568 0.000000 0.000000 0.000000
-0.050278 0.996200 1.800293 0.000000 0.000000 0.000000
-0.067854 0.986712 1.804828 0.000000 0.000000 0.000000
-0.041245 1.009742 1.801718 0.000000 0.000000 0.000000
-0.050103 0.971411 1.809759 0.000000 0.000000 0.000000
-0.013861 1.010841 1.792896 0.000000 0.000000 0.000000
-0.056331 1.034850 1.833404 0.000000 0.000000 0.000000
-0.059956 1.056909 1.828391 0.000000 0.000000 0.000000
-0.088519 1.020531 1.814994 0.000000 0.000000 0.000000
-0.045793 0.994115 1.810208 0.000000 0.000000 0.000000
-0.084850 0.993799 1.813857 0.000000 0.000000 0.000000
-0.060331 1.038621 1.833929 0.000000 0.000000 0.000000
-0.050974 0.973171 1.804544 0.000000 0.000000 0.000000
-0.047065 0.987574 1.814448 0.000000 0.000000 0.000000
-0.018436 1.022174 1.786073 0.000000 0.000000 0.000000
-0.042138 0.995528 1.805508 0.000000 0.000000 0.000000
-0.015405 1.008459 1.786355 0.000000 0.000000 0.000000
-0.049225 0.983337 1.811899 0.000000 0.000000 0.000000
-0.063402 0.968717 1.818527 0.000000 0.000000 0.000000
-0.059735 0.989911 1.820087 0.000000 0.000000 0.000000
-0.059844 0.981056 1.815518 0.000000 0.000000 0.000000
-0.043481 0.984321 1.816913 0.000000 0.000000 0.000000
-0.035212 1.024034 1.772653 0.000000 0.000000 0.000000
0.338363 0.607996 1.505974 0.000000 0.000000 0.000000
-0.071546 1.063950 1.836486 0.000000 0.000000 0.000000
-0.054487 1.020477 1.826946 0.000000 0.000000 0.000000
-0.087208 1.035528 1.822428 0.000000 0.000000 0.000000
-0.040853 0.985539 1.835755 0.000000 0.000000 0.000000
-0.092636 1.021899 1.820530 0.000000 0.000000 0.000000
0.329923 0.626890 1.507053 0.000000 0.000000 0.000000
-0.066404 1.055857 1.837147 0.000000 0.000000 0.000000
-0.024760 1.031865 1.790368 0.000000 0.000000 0.000000
-0.051184 1.018399 1.830959 0.000000 0.000000 0.000000
-0.087274 1.026690 1.819575 0.000000 0.000000 0.000000
0.400088 -0.157197 2.978826 0.000000 0.000000 0.000000
-0.081076 1.014910 1.822744 0.000000 0.000000 0.000000
-0.053695 0.989249 1.812057 0.000000 0.000000 0.000000
-0.087604 1.006693 1.822908 0.000000 0.000000 0.000000
-0.060545 1.049179 1.824360 0.000000 0.000000 0.000000
-0.085394 0.998254 1.817958 0.000000 0.000000 0.000000
-0.087133 1.005090 1.816620 0.000000 0.000000 0.000000
-0.064701 1.055773 1.830969 0.000000 0.000000 0.000000
-0.049437 0.961315 1.819098 0.000000 0.000000 0.000000
-0.069429 0.995804 1.822112 0.000000 0.000000 0.000000
-0.053285 0.969138 1.809060 0.000000 0.000000 0.000000
-0.063361 1.022038 1.823299 0.000000 0.000000 0.000000
-0.057618 1.038010 1.836505 0.000000 0.000000 0.000000
-0.072903 0.986633 1.813482 0.000000 0.000000 0.000000
-0.089058 1.034593 1.823722 0.000000 0.000000 0.000000
-0.052913 0.964636 1.814031 0.000000 0.000000 0.000000
-0.054035 0.978839 1.812992 0.000000 0.000000 0.000000
-0.067460 1.051954 1.834350 0.000000 0.000000 0.000000
-0.072244 0.992364 1.820473 0.000000 0.000000 0.000000
-0.028547 1.013784 1.776453 0.000000 0.000000 0.000000
-0.056240 1.040095 1.841133 0.000000 0.000000 0.000000
0.331385 0.619591 1.510097 0.000000 0.000000 0.000000
-0.082333 1.022090 1.824252 0.000000 0.000000 0.000000
0.331110 0.611081 1.506219 0.000000 0.000000 0.000000
-0.076221 0.989506 1.813652 0.000000 0.000000 0.000000
-0.040630 0.983251 1.835107 0.000000 0.000000 0.000000
-0.088972 1.023129 1.815859 0.000000 0.000000 0.000000
-0.085740 0.999633 1.822074 0.000000 0.000000 0.000000
-0.046783 1.021347 1.788728 0.000000 0.000000 0.000000
-0.072307 0.988322 1.812706 0.000000 0.000000 0.000000
-0.028711 1.036514 1.786147 0.000000 0.000000 0.000000
-0.078196 0.999769 1.813282 0.000000 0.000000 0.000000
-0.053777 0.971544 1.814541 0.000000 0.000000 0.000000
-0.090516 1.030371 1.821502 0.000000 0.000000 0.000000
-0.044083 0.972113 1.813382 0.000000 0.000000 0.000000
0.331866 0.619748 1.511750 0.000000 0.000000 0.000000
-0.050478 1.025774 1.827036 0.000000 0.000000 0.000000
-0.086473 1.031481 1.818436 0.000000 0.000000 0.000000
-0.036108 1.002477 1.788741 0.000000 0.000000 0.000000
-0.043424 1.019835 1.788127 0.000000 0.000000 0.000000
-0.060684 1.054687 1.837344 0.000000 0.000000 0.000000
-0.056953 1.040044 1.821973 0.000000 0.000000 0.000000
-0.040618 0.960196 1.808330 0.000000 0.000000 0.000000
-0.088727 1.024402 1.819373 0.000000 0.000000 0.000000
-0.081574 1.005023 1.814201 0.000000 0.000000 0.000000
-0.086569 1.026812 1.820993 0.000000 0.000000 0.000000
-0.085835 1.026730 1.818389 0.000000 0.000000 0.000000
-0.088663 1.031233 1.820500 0.000000 0.000000 0.000000
-0.081842 0.998447 1.814895 0.000000 0.000000 0.000000
-0.046115 0.980986 1.814445 0.000000 0.000000 0.000000
-0.047185 0.973212 1.817439 0.000000 0.000000 0.000000
-0.024542 1.013158 1.785219 0.000000 0.000000 0.000000
0.326927 0.626661 1.508167 0.000000 0.000000 0.000000
-0.023499 1.008662 1.774267 0.000000 0.000000 0.000000
-0.044247 0.990852 1.808179 0.000000 0.000000 0.000000
-0.087353 1.025981 1.825304 0.000000 0.000000 0.000000
-0.026967 1.016794 1.781616 0.000000 0.000000 0.000000
-0.089110 1.015789 1.817960 0.000000 0.000000 0.000000
-0.052564 0.985202 1.815572 0.000000 0.000000 0.000000
-0.055510 1.038419 1.834101 0.000000 0.000000 0.000000
-0.059829 0.972986 1.814352 0.000000 0.000000 0.000000
-0.052628 1.027929 1.825194 0.000000 0.000000 0.000000
-0.064475 1.062728 1.830419 0.000000 0.000000 0.000000
-0.059186 1.056235 1.829469 0.000000 0.000000 0.000000
-0.057366 1.053013 1.832435 0.000000 0.000000 0.000000
-0.070503 1.025460 1.825811 0.000000 0.000000 0.000000
0.330607 0.604190 1.508463 0.000000 0.000000 0.000000
-0.082954 1.031408 1.823705 0.000000 0.000000 0.000000
-0.076510 0.986889 1.815956 0.000000 0.000000 0.000000
-0.034500 1.007126 1.781682 0.000000 0.000000 0.000000
-0.052087 1.021085 1.826255 0.000000 0.000000 0.000000
-0.075292 0.993569 1.818534 0.000000 0.000000 0.000000
-0.071515 0.980361 1.812969 0.000000 0.000000 0.000000
-0.032451 1.020008 1.774288 0.000000 0.000000 0.000000
-0.069396 0.990313 1.814438 0.000000 0.000000 0.000000
-0.060554 0.989753 1.819076 0.000000 0.000000 0.000000
-0.070021 0.984137 1.813849 0.000000 0.000000 0.000000
-0.088795 1.024833 1.818156 0.000000 0.000000 0.000000
-0.088596 1.014270 1.819255 0.000000 0.000000 0.000000
-0.083425 1.018214 1.827125 0.000000 0.000000 0.000000
0.328538 0.623586 1.505428 0.000000 0.000000 0.000000
-0.038054 1.029769 1.792473 0.000000 0.000000 0.000000
-0.011088 1.013070 1.798319 0.000000 0.000000 0.000000
-0.068388 1.046184 1.834681 0.000000 0.000000 0.000000
-0.083074 1.030462 1.818677 0.000000 0.000000 0.000000
-0.048132 0.970310 1.807866 0.000000 0.000000 0.000000
-0.037463 1.006291 1.786068 0.000000 0.000000 0.000000
-0.055546 1.027527 1.839281 0.000000 0.000000 0.000000
-0.060423 1.034779 1.828475 0.000000 0.000000 0.000000
-0.081535 1.008143 1.818160 0.000000 0.000000 0.000000
-0.041014 0.978114 1.833937 0.000000 0.000000 0.000000
-0.086658 1.000446 1.812909 0.000000 0.000000 0.000000
-0.060674 1.042185 1.835323 0.000000 0.000000 0.000000
0.329789 0.615317 1.508968 0.000000 0.000000 0.000000
-0.064035 1.048689 1.819088 0.000000 0.000000 0.000000
0.325365 0.608077 1.504127 0.000000 0.000000 0.000000
-0.091761 1.019291 1.814046 0.000000 0.000000 0.000000
-0.016431 1.011275 1.797261 0.000000 0.000000 0.000000
-0.086739 1.011377 1.816785 0.000000 0.000000 0.000000
-0.069129 1.068756 1.830525 0.000000 0.000000 0.000000
-0.068544 1.059021 1.835539 0.000000 0.000000 0.000000
-0.046173 0.990466 1.826355 0.000000 0.000000 0.000000
-0.063054 0.978470 1.813554 0.000000 0.000000 0.000000
-0.090057 1.016963 1.814924 0.000000 0.000000 0.000000
-0.042688 1.009604 1.826859 0.000000 0.000000 0.000000
-0.077801 1.019558 1.825494 0.000000 0.000000 0.000000
-0.060989 1.060017 1.837238 0.000000 0.000000 0.000000
-0.042227 1.030110 1.786249 0.000000 0.000000 0.000000
-0.042007 1.015476 1.829918 0.000000 0.000000 0.000000
-0.070733 0.993450 1.815319 0.000000 0.000000 0.000000
-0.061087 1.048509 1.835563 0.000000 0.000000 0.000000
-0.059947 1.042540 1.834220 0.000000 0.000000 0.000000
0.395737 -0.159212 2.978689 0.000000 0.000000 0.000000
-0.080422 1.010571 1.812066 0.000000 0.000000 0.000000
-0.068281 1.064934 1.831820 0.000000 0.000000 0.000000
-0.060900 1.025004 1.831438 0.000000 0.000000 0.000000
-0.063017 1.076911 1.829526 0.000000 0.000000 0.000000
-0.066519 1.076354 1.826404 0.000000 0.000000 0.000000
-0.068212 1.057044 1.834417 0.000000 0.000000 0.000000
-0.017963 1.022160 1.796215 0.000000 0.000000 0.000000
-0.022936 1.007030 1.786992 0.000000 0.000000 0.000000
-0.041142 1.060388 1.801507 0.000000 0.000000 0.000000
-0.089904 0.999883 1.813225 0.000000 0.000000 0.000000
-0.058947 0.963908 1.804368 0.000000 0.000000 0.000000
-0.042982 1.012714 1.790426 0.000000 0.000000 0.000000
-0.046673 0.986546 1.827972 0.000000 0.000000 0.000000
0.328263 0.626676 1.506575 0.000000 0.000000 0.000000
-0.040228 0.987079 1.835828 0.000000 0.000000 0.000000
-0.089259 0.999008 1.819967 0.000000 0.000000 0.000000
-0.063871 1.007791 1.800255 0.000000 0.000000 0.000000
0.330252 0.619998 1.510437 0.000000 0.000000 0.000000
-0.053064 1.035275 1.829740 0.000000 0.000000 0.000000
-0.075661 1.026945 1.822495 0.000000 0.000000 0.000000
-0.052310 1.031646 1.827320 0.000000 0.000000 0.000000
-0.088502 1.031826 1.821734 0.000000 0.000000 0.000000
-0.081971 1.029513 1.823866 0.000000 0.000000 0.000000
-0.091352 1.010938 1.816536 0.000000 0.000000 0.000000
-0.088696 1.004271 1.817258 0.000000 0.000000 0.000000
0.332491 0.608184 1.507761 0.000000 0.000000 0.000000
-0.084804 0.987048 1.811436 0.000000 0.000000 0.000000
-0.077553 0.985376 1.811693 0.000000 0.000000 0.000000
-0.087527 1.004494 1.812975 0.000000 0.000000 0.000000
-0.043173 1.012989 1.787421 0.000000 0.000000 0.000000
-0.089623 1.008481 1.814021 0.000000 0.000000 0.000000
-0.082682 1.005383 1.810402 0.000000 0.000000 0.000000
-0.042331 1.004009 1.825312 0.000000 0.000000 0.000000
-0.034317 1.024991 1.776681 0.000000 0.000000 0.000000
-0.085121 1.026500 1.819523 0.000000 0.000000 0.000000
-0.039123 1.012457 1.798801 0.000000 0.000000 0.000000
-0.071985 0.984380 1.807877 0.000000 0.000000 0.000000
-0.026961 1.035897 1.785710 0.000000 0.000000 0.000000
-0.052821 0.980528 1.802800 0.000000 0.000000 0.000000
-0.085274 1.031735 1.814002 0.000000 0.000000 0.000000
0.327265 0.623894 1.509903 0.000000 0.000000 0.000000
-0.087241 1.016464 1.816896 0.000000 0.000000 0.000000
-0.084755 0.998472 1.826440 0.000000 0.000000 0.000000
-0.079495 1.008067 1.815456 0.000000 0.000000 0.000000
-0.091017 1.006064 1.814462 0.000000 0.000000 0.000000
-0.030844 1.028306 1.780273 0.000000 0.000000 0.000000
-0.090860 1.023139 1.813802 0.000000 0.000000 0.000000
-0.035403 1.013246 1.771631 0.000000 0.000000 0.000000
-0.032983 1.006942 1.785636 0.000000 0.000000 0.000000
-0.062366 0.990728 1.818207 0.000000 0.000000 0.000000
-0.074724 1.011068 1.817312 0.000000 0.000000 0.000000
-0.054520 0.961191 1.804702 0.000000 0.000000 0.000000
-0.054598 1.039601 1.833641 0.000000 0.000000 0.000000
-0.082836 1.028412 1.815656 0.000000 0.000000 0.000000
-0.048316 0.962559 1.802354 0.000000 0.000000 0.000000
-0.090783 1.004512 1.816823 0.000000 0.000000 0.000000
-0.056534 1.049757 1.831839 0.000000 0.000000 0.000000
-0.055876 1.024365 1.831428 0.000000 0.000000 0.000000
-0.090120 1.036765 1.822639 0.000000 0.000000 0.000000
0.333747 0.617732 1.511516 0.000000 0.000000 0.000000
-0.060490 0.974705 1.806187 0.000000 0.000000 0.000000
-0.054513 0.978456 1.815867 0.000000 0.000000 0.000000
-0.047932 0.972918 1.809149 0.000000 0.000000 0.000000
-0.032796 1.016486 1.776803 0.000000 0.000000 0.000000
-0.022084 1.015996 1.780249 0.000000 0.000000 0.000000
-0.042311 0.987898 1.817721 0.000000 0.000000 0.000000
-0.057039 1.064645 1.831131 0.000000 0.000000 0.000000
-0.053990 1.046564 1.832667 0.000000 0.000000 0.000000
-0.078260 0.998314 1.813761 0.000000 0.000000 0.000000
-0.062735 1.043261 1.824972 0.000000 0.000000 0.000000
-0.064914 1.053264 1.835716 0.000000 0.000000 0.000000
-0.041925 0.965138 1.802509 0.000000 0.000000 0.000000
-0.058779 1.067977 1.832909 0.000000 0.000000 0.000000
-0.066157 1.067202 1.834028 0.000000 0.000000 0.000000
-0.063655 1.043213 1.836830 0.000000 0.000000 0.000000
-0.061731 1.046422 1.826267 0.000000 0.000000 0.000000
0.328776 0.612034 1.506113 0.000000 0.000000 0.000000
-0.050313 1.022055 1.829225 0.000000 0.000000 0.000000
-0.060766 0.982890 1.817544 0.000000 0.000000 0.000000
-0.065460 1.068509 1.830454 0.000000 0.000000 0.000000
-0.066515 1.072128 1.831540 0.000000 0.000000 0.000000
-0.063997 1.038679 1.827867 0.000000 0.000000 0.000000
-0.037220 1.020130 1.768385 0.000000 0.000000 0.000000
-0.059271 1.030556 1.833688 0.000000 0.000000 0.000000
-0.074885 0.983939 1.811696 0.000000 0.000000 0.000000
-0.064535 1.043948 1.828934 0.000000 0.000000 0.000000
0.330131 0.626924 1.504581 0.000000 0.000000 0.000000
0.328142 0.629147 1.506451 0.000000 0.000000 0.000000
-0.061506 1.062816 1.841551 0.000000 0.000000 0.000000
-0.045052 0.968895 1.809152 0.000000 0.000000 0.000000
-0.071747 0.982721 1.817213 0.000000 0.000000 0.000000
-0.059181 1.065103 1.832897 0.000000 0.000000 0.000000
0.332294 0.612365 1.509392 0.000000 0.000000 0.000000
-0.032215 1.021334 1.776477 0.000000 0.000000 0.000000
-0.050967 0.977153 1.814666 0.000000 0.000000 0.000000
0.327743 0.614140 1.513963 0.000000 0.000000 0.000000
0.331402 0.611157 1.507887 0.000000 0.000000 0.000000
0.332967 0.603990 1.506808 0.000000 0.000000 0.000000
0.333475 0.604621 1.504929 0.000000 0.000000 0.000000
-0.090080 1.031913 1.821497 0.000000 0.000000 0.000000
-0.053194 1.037443 1.823701 0.000000 0.000000 0.000000
-0.066998 1.053714 1.831719 0.000000 0.000000 0.000000
-0.061196 1.033589 1.832281 0.000000 0.000000 0.000000
-0.054654 1.037212 1.827442 0.000000 0.000000 0.000000
-0.063498 0.987776 1.820082 0.000000 0.000000 0.000000
-0.035792 1.002148 1.779125 0.000000 0.000000 0.000000
0.334127 0.603393 1.510864 0.000000 0.000000 0.000000
-0.064070 1.036869 1.833151 0.000000 0.000000 0.000000
0.329933 0.624474 1.506138 0.000000 0.000000 0.000000
-0.078363 0.988129 1.812159 0.000000 0.000000 0.000000
-0.041227 0.981913 1.830678 0.000000 0.000000 0.000000
-0.065880 1.063550 1.831340 0.000000 0.000000 0.000000
-0.080090 1.006674 1.811828 0.000000 0.000000 0.000000
0.325931 0.628303 1.508229 0.000000 0.000000 0.000000
0.326286 0.609618 1.501206 0.000000 0.000000 0.000000
-0.051483 0.996086 1.821011 0.000000 0.000000 0.000000
-0.066256 1.067708 1.826970 0.000000 0.000000 0.000000
-0.067365 1.065712 1.822134 0.000000 0.000000 0.000000
-0.066263 1.054061 1.827355 0.000000 0.000000 0.000000
-0.054228 1.035543 1.822627 0.000000 0.000000 0.000000
-0.023950 1.007895 1.794450 0.000000 0.000000 0.000000
-0.024055 1.027093 1.789079 0.000000 0.000000 0.000000
-0.020767 1.016405 1.794253 0.000000 0.000000 0.000000
-0.056972 0.973608 1.820458 0.000000 0.000000 0.000000
0.329179 0.625452 1.509929 0.000000 0.000000 0.000000
-0.029934 1.034266 1.778303 0.000000 0.000000 0.000000
-0.035128 1.004228 1.776330 0.000000 0.000000 0.000000
-0.060228 0.979065 1.815369 0.000000 0.000000 0.000000
0.329716 0.617727 1.504720 0.000000 0.000000 0.000000
-0.055554 1.031422 1.822899 0.000000 0.000000 0.000000
-0.019530 1.019859 1.778351 0.000000 0.000000 0.000000
-0.058970 0.988747 1.816214 0.000000 0.000000 0.000000
-0.053074 1.040195 1.832413 0.000000 0.000000 0.000000
-0.071236 0.984223 1.814273 0.000000 0.000000 0.000000
-0.041625 0.974143 1.809759 0.000000 0.000000 0.000000
-0.018340 1.025093 1.782992 0.000000 0.000000 0.000000
-0.048945 0.966151 1.803418 0.000000 0.000000 0.000000
-0.044019 0.991713 1.808323 0.000000 0.000000 0.000000
-0.084936 1.015819 1.822198 0.000000 0.000000 0.000000
-0.064785 1.061624 1.835301 0.000000 0.000000 0.000000
-0.090326 1.025374 1.819228 0.000000 0.000000 0.000000
-0.029366 1.012504 1.790346 0.000000 0.000000 0.000000
-0.015010 1.000984 1.784873 0.000000 0.000000 0.000000
-0.041033 1.026532 1.777007 0.000000 0.000000 0.000000
-0.030339 1.001414 1.773481 0.000000 0.000000 0.000000
-0.085793 1.025616 1.817571 0.000000 0.000000 0.000000
-0.029294 1.031064 1.784791 0.000000 0.000000 0.000000
-0.040155 1.037313 1.783691 0.000000 0.000000 0.000000
-0.055406 1.019566 1.830239 0.000000 0.000000 0.000000
0.331097 0.608742 1.506934 0.000000 0.000000 0.000000
-0.060996 1.039427 1.823218 0.000000 0.000000 0.000000
0.329908 0.625230 1.509496 0.000000 0.000000 0.000000
0.327024 0.634556 1.507662 0.000000 0.000000 0.000000
-0.064289 1.071609 1.828265 0.000000 0.000000 0.000000
-0.055218 1.044847 1.834677 0.000000 0.000000 0.000000
-0.063779 1.063888 1.836919 0.000000 0.000000 0.000000
-0.075903 0.984209 1.813128 0.000000 0.000000 0.000000
-0.055934 1.051424 1.827878 0.000000 0.000000 0.000000
-0.010326 1.026687 1.783114 0.000000 0.000000 0.000000
-0.051917 1.061541 1.834862 0.000000 0.000000 0.000000
-0.060239 1.054367 1.838087 0.000000 0.000000 0.000000
-0.016920 1.037025 1.778753 0.000000 0.000000 0.000000
-0.011631 1.007185 1.795912 0.000000 0.000000 0.000000
-0.041666 0.979888 1.836385 0.000000 0.000000 0.000000
0.327923 0.623103 1.507233 0.000000 0.000000 0.000000
-0.086830 1.025128 1.820116 0.000000 0.000000 0.000000
-0.083157 0.987285 1.811417 0.000000 0.000000 0.000000
-0.080737 0.984890 1.812584 0.000000 0.000000 0.000000
-0.090342 1.036654 1.817158 0.000000 0.000000 0.000000
-0.047720 0.966349 1.814386 0.000000 0.000000 0.000000
-0.090594 0.999650 1.818418 0.000000 0.000000 0.000000
-0.088672 1.018257 1.817422 0.000000 0.000000 0.000000
-0.021889 1.014657 1.788048 0.000000 0.000000 0.000000
-0.031842 1.026684 1.777045 0.000000 0.000000 0.000000
-0.031554 1.022525 1.775742 0.000000 0.000000 0.000000
-0.028217 1.019275 1.780757 0.000000 0.000000 0.000000
-0.029778 1.004865 1.771176 0.000000 0.000000 0.000000
-0.075132 0.987035 1.814466 0.000000 0.000000 0.000000
-0.029290 1.022195 1.779444 0.000000 0.000000 0.000000
-0.032956 1.010388 1.772046 0.000000 0.000000 0.000000
-0.043064 0.963672 1.807937 0.000000 0.000000 0.000000
-0.057886 1.048271 1.816599 0.000000 0.000000 0.000000
-0.066472 1.054589 1.821413 0.000000 0.000000 0.000000
0.329748 0.624614 1.512769 0.000000 0.000000 0.000000
-0.037000 1.015926 1.775004 0.000000 0.000000 0.000000
-0.010130 1.000510 1.793808 0.000000 0.000000 0.000000
0.411325 -0.159766 2.964889 0.000000 0.000000 0.000000
0.327075 0.606633 1.507143 0.000000 0.000000 0.000000
-0.075753 1.005971 1.821351 0.000000 0.000000 0.000000
-0.082221 1.013270 1.827268 0.000000 0.000000 0.000000
0.329729 0.607860 1.507637 0.000000 0.000000 0.000000
-0.036636 1.035560 1.778221 0.000000 0.000000 0.000000
0.331492 0.615810 1.513533 0.000000 0.000000 0.000000
-0.031654 1.023896 1.779715 0.000000 0.000000 0.000000
0.332900 0.616342 1.512411 0.000000 0.000000 0.000000
-0.040868 0.982165 1.837445 0.000000 0.000000 0.000000
-0.064803 1.064057 1.835881 0.000000 0.000000 0.000000
-0.051468 1.057903 1.830471 0.000000 0.000000 0.000000
0.402933 -0.157682 2.978974 0.000000 0.000000 0.000000
-0.044171 0.999970 1.825706 0.000000 0.000000 0.000000
-0.040711 0.980719 1.826605 0.000000 0.000000 0.000000
-0.041054 1.008401 1.832006 0.000000 0.000000 0.000000
-0.044299 0.997219 1.821179 0.000000 0.000000 0.000000
-0.085809 1.020618 1.822623 0.000000 0.000000 0.000000
-0.069166 1.065232 1.830206 0.000000 0.000000 0.000000
-0.048499 0.998611 1.822780 0.000000 0.000000 0.000000
-0.049140 1.026286 1.833245 0.000000 0.000000 0.000000
-0.051166 1.026093 1.830163 0.000000 0.000000 0.000000
-0.042290 0.993018 1.823872 0.000000 0.000000 0.000000
-0.066959 1.066418 1.830644 0.000000 0.000000 0.000000
-0.058681 0.972528 1.811973 0.000000 0.000000 0.000000
-0.029227 1.030148 1.797956 0.000000 0.000000 0.000000
-0.089248 1.024273 1.821859 0.000000 0.000000 0.000000
-0.040275 1.032131 1.770182 0.000000 0.000000 0.000000
-0.078300 0.991842 1.811339 0.000000 0.000000 0.000000
-0.075381 0.988712 1.813696 0.000000 0.000000 0.000000
-0.086933 0.998079 1.815007 0.000000 0.000000 0.000000
-0.086868 0.994815 1.813889 0.000000 0.000000 0.000000
-0.042024 1.010908 1.782491 0.000000 0.000000 0.000000
-0.034357 1.012688 1.772346 0.000000 0.000000 0.000000
-0.079503 0.994023 1.814132 0.000000 0.000000 0.000000
-0.082140 0.995363 1.813841 0.000000 0.000000 0.000000
-0.080293 0.988518 1.812962 0.000000 0.000000 0.000000
-0.040802 1.019461 1.781488 0.000000 0.000000 0.000000
-0.074669 0.997220 1.820074 0.000000 0.000000 0.000000
-0.080610 1.025392 1.824009 0.000000 0.000000 0.000000
0.403692 -0.158742 2.973254 0.000000 0.000000 0.000000
0.332050 0.600189 1.508328 0.000000 0.000000 0.000000
-0.064810 1.052849 1.833465 0.000000 0.000000 0.000000
-0.066907 1.058957 1.831245 0.000000 0.000000 0.000000
-0.057023 1.052350 1.826250 0.000000 0.000000 0.000000
-0.054973 0.967905 1.807020 0.000000 0.000000 0.000000
-0.055810 1.020632 1.822731 0.000000 0.000000 0.000000
0.330200 0.626552 1.512009 0.000000 0.000000 0.000000
-0.075209 0.998074 1.816979 0.000000 0.000000 0.000000
-0.047784 0.969792 1.800781 0.000000 0.000000 0.000000
-0.086967 0.993678 1.815319 0.000000 0.000000 0.000000
-0.043810 0.972739 1.805257 0.000000 0.000000 0.000000
-0.056165 0.973795 1.813528 0.000000 0.000000 0.000000
-0.011669 1.002737 1.791043 0.000000 0.000000 0.000000
-0.090089 1.039685 1.824664 0.000000 0.000000 0.000000
-0.060410 1.027170 1.831949 0.000000 0.000000 0.000000
-0.064600 1.053222 1.837571 0.000000 0.000000 0.000000
-0.056268 1.061124 1.830010 0.000000 0.000000 0.000000
0.334809 0.617851 1.513261 0.000000 0.000000 0.000000
-0.061009 1.068195 1.823663 0.000000 0.000000 0.000000
-0.041736 0.971464 1.836797 0.000000 0.000000 0.000000
0.332709 0.624893 1.505060 0.000000 0.000000 0.000000
0.331232 0.625778 1.509977 0.000000 0.000000 0.000000
-0.056324 1.047344 1.837183 0.000000 0.000000 0.000000
0.324613 0.617445 1.501375 0.000000 0.000000 0.000000
0.331333 0.621868 1.511108 0.000000 0.000000 0.000000
0.329748 0.625491 1.512278 0.000000 0.000000 0.000000
0.331976 0.617105 1.504349 0.000000 0.000000 0.000000
0.328055 0.626414 1.510296 0.000000 0.000000 0.000000
0.331457 0.622776 1.511119 0.000000 0.000000 0.000000
0.331341 0.619174 1.502010 0.000000 0.000000 0.000000
0.332379 0.616373 1.503446 0.000000 0.000000 0.000000
-0.065408 1.066580 1.832345 0.000000 0.000000 0.000000
-0.040222 2.252668 1.914788 0.000000 0.000000 0.000000
0.328117 0.626531 1.509980 0.000000 0.000000 0.000000
-0.060243 1.063805 1.832004 0.000000 0.000000 0.000000
0.329256 0.609749 1.504331 0.000000 0.000000 0.000000
-0.022722 1.006866 1.789634 0.000000 0.000000 0.000000
-0.081922 1.028757 1.820915 0.000000 0.000000 0.000000
-0.062823 1.061089 1.837105 0.000000 0.000000 0.000000
0.326745 0.620368 1.510308 0.000000 0.000000 0.000000
-0.068230 1.062428 1.830382 0.000000 0.000000 0.000000
-0.088940 1.034933 1.822845 0.000000 0.000000 0.000000
-0.043685 1.007434 1.808940 0.000000 0.000000 0.000000
-0.086966 1.032159 1.824875 0.000000 0.000000 0.000000
0.330563 0.614798 1.508228 0.000000 0.000000 0.000000
-0.062553 0.976388 1.808981 0.000000 0.000000 0.000000
-0.029848 1.025765 1.781141 0.000000 0.000000 0.000000
-0.068294 0.979955 1.810943 0.000000 0.000000 0.000000
-0.040492 0.971907 1.801814 0.000000 0.000000 0.000000
-0.037717 1.032534 1.782446 0.000000 0.000000 0.000000
0.331725 0.606166 1.505619 0.000000 0.000000 0.000000
0.329996 0.604086 1.504215 0.000000 0.000000 0.000000
0.326683 0.612887 1.503234 0.000000 0.000000 0.000000
-0.086688 1.022978 1.818988 0.000000 0.000000 0.000000
-0.081992 1.030731 1.818098 0.000000 0.000000 0.000000
-0.085256 1.023136 1.825848 0.000000 0.000000 0.000000
-0.086653 1.028940 1.824502 0.000000 0.000000 0.000000
0.329255 0.628282 1.504886 0.000000 0.000000 0.000000
0.327160 0.607447 1.508589 0.000000 0.000000 0.000000
-0.049857 1.029923 1.826366 0.000000 0.000000 0.000000
-0.019631 1.025624 1.779281 0.000000 0.000000 0.000000
-0.077052 0.985639 1.813962 0.000000 0.000000 0.000000
-0.019272 1.029579 1.778088 0.000000 0.000000 0.000000
-0.059016 1.036947 1.825969 0.000000 0.000000 0.000000
-0.034479 1.033277 1.780663 0.000000 0.000000 0.000000
-0.087806 0.996558 1.816886 0.000000 0.000000 0.000000
-0.025707 1.029191 1.780985 0.000000 0.000000 0.000000
0.332095 0.604681 1.508466 0.000000 0.000000 0.000000
0.327297 0.624856 1.509055 0.000000 0.000000 0.000000
-0.091259 1.020616 1.818832 0.000000 0.000000 0.000000
-0.066103 0.977489 1.812071 0.000000 0.000000 0.000000
0.327946 0.624705 1.511181 0.000000 0.000000 0.000000
0.331498 0.628506 1.506435 0.000000 0.000000 0.000000
0.328499 0.626639 1.508082 0.000000 0.000000 0.000000
-0.081865 0.991531 1.815561 0.000000 0.000000 0.000000
-0.089369 1.007153 1.815699 0.000000 0.000000 0.000000
-0.057700 0.967979 1.810534 0.000000 0.000000 0.000000
-0.066155 0.996671 1.820068 0.000000 0.000000 0.000000
-0.062845 1.035865 1.821515 0.000000 0.000000 0.000000
-0.063971 0.973155 1.811541 0.000000 0.000000 0.000000
-0.056634 0.986516 1.822501 0.000000 0.000000 0.000000
-0.059702 1.036810 1.826850 0.000000 0.000000 0.000000
-0.057445 1.059238 1.832272 0.000000 0.000000 0.000000
-0.036567 1.008828 1.774303 0.000000 0.000000 0.000000
-0.053176 1.063908 1.828183 0.000000 0.000000 0.000000
-0.062810 1.069737 1.832869 0.000000 0.000000 0.000000
0.332010 0.560784 1.427884 0.000000 0.000000 0.000000
-0.067608 1.042868 1.827547 0.000000 0.000000 0.000000
-0.056396 1.066918 1.831567 0.000000 0.000000 0.000000
0.328730 0.612418 1.501940 0.000000 0.000000 0.000000
-0.062067 1.071638 1.832891 0.000000 0.000000 0.000000
-0.061402 1.067238 1.834783 0.000000 0.000000 0.000000
0.330554 0.610897 1.503937 0.000000 0.000000 0.000000
-0.056606 1.072514 1.830741 0.000000 0.000000 0.000000
-0.056157 1.020307 1.825846 0.000000 0.000000 0.000000
-0.064149 1.067637 1.833759 0.000000 0.000000 0.000000
-0.060103 1.018407 1.822016 0.000000 0.000000 0.000000
-0.040396 0.993866 1.810054 0.000000 0.000000 0.000000
-0.080427 1.016620 1.811705 0.000000 0.000000 0.000000
-0.045536 0.991372 1.818132 0.000000 0.000000 0.000000
-0.081728 1.021433 1.821400 0.000000 0.000000 0.000000
-0.085093 1.015171 1.813076 0.000000 0.000000 0.000000
-0.080877 1.030717 1.821037 0.000000 0.000000 0.000000
-0.080739 1.032316 1.819819 0.000000 0.000000 0.000000
-0.079428 1.015485 1.819902 0.000000 0.000000 0.000000
-0.064203 1.047815 1.829340 0.000000 0.000000 0.000000
-0.081632 1.022241 1.817705 0.000000 0.000000 0.000000
-0.080492 1.029853 1.817456 0.000000 0.000000 0.000000
-0.065452 1.062502 1.829123 0.000000 0.000000 0.000000
-0.081390 1.014401 1.816553 0.000000 0.000000 0.000000
-0.082527 1.022724 1.817113 0.000000 0.000000 0.000000
-0.060926 1.058122 1.826506 0.000000 0.000000 0.000000
-0.086671 1.026199 1.820530 0.000000 0.000000 0.000000
-0.011689 1.007887 1.794430 0.000000 0.000000 0.000000
-0.067554 1.063646 1.828677 0.000000 0.000000 0.000000
0.331612 0.616892 1.515736 0.000000 0.000000 0.000000
-0.083103 0.988513 1.813529 0.000000 0.000000 0.000000
0.336485 0.611332 1.509843 0.000000 0.000000 0.000000
0.333372 0.611703 1.509947 0.000000 0.000000 0.000000
-0.046915 1.017514 1.827244 0.000000 0.000000 0.000000
-0.065798 1.071267 1.827024 0.000000 0.000000 0.000000
0.330014 0.628662 1.507589 0.000000 0.000000 0.000000
0.332184 0.606857 1.507091 0.000000 0.000000 0.000000
0.329417 0.618996 1.503196 0.000000 0.000000 0.000000
0.327921 0.624634 1.509614 0.000000 0.000000 0.000000
0.330472 0.613445 1.509300 0.000000 0.000000 0.000000
0.331938 0.618750 1.505399 0.000000 0.000000 0.000000
-0.076286 0.979646 1.818656 0.000000 0.000000 0.000000
-0.056430 1.022627 1.823724 0.000000 0.000000 0.000000
-0.047755 1.008382 1.827009 0.000000 0.000000 0.000000
-0.056178 1.016991 1.828302 0.000000 0.000000 0.000000
-0.052413 1.015207 1.829676 0.000000 0.000000 0.000000
-0.054900 1.008426 1.828553 0.000000 0.000000 0.000000
-0.043656 1.015915 1.831283 0.000000 0.000000 0.000000
-0.055643 1.016361 1.830284 0.000000 0.000000 0.000000
-0.051469 1.038139 1.839043 0.000000 0.000000 0.000000
-0.064002 1.067604 1.833818 0.000000 0.000000 0.000000
-0.064693 1.069710 1.831433 0.000000 0.000000 0.000000
0.324801 0.629336 1.509741 0.000000 0.000000 0.000000
-0.049612 0.962231 1.815624 0.000000 0.000000 0.000000
-0.054299 0.975022 1.826133 0.000000 0.000000 0.000000
-0.059114 1.050385 1.837981 0.000000 0.000000 0.000000
-0.046826 0.983781 1.825774 0.000000 0.000000 0.000000
-0.048941 0.962352 1.806795 0.000000 0.000000 0.000000
-0.052268 0.973908 1.814982 0.000000 0.000000 0.000000
-0.059178 1.053295 1.838820 0.000000 0.000000 0.000000
-0.056003 0.988877 1.819409 0.000000 0.000000 0.000000
-0.038786 1.014067 1.773727 0.000000 0.000000 0.000000
-0.058841 0.965702 1.801080 0.000000 0.000000 0.000000
-0.053382 1.022134 1.829592 0.000000 0.000000 0.000000
0.332834 0.601752 1.509807 0.000000 0.000000 0.000000
-0.052793 0.966091 1.804261 0.000000 0.000000 0.000000
-0.053600 1.007683 1.824489 0.000000 0.000000 0.000000
-0.051318 1.009166 1.820312 0.000000 0.000000 0.000000
-0.059563 1.027585 1.832772 0.000000 0.000000 0.000000
-0.051446 0.960832 1.805438 0.000000 0.000000 0.000000
-0.077642 1.006898 1.815161 0.000000 0.000000 0.000000
-0.087689 1.012202 1.811436 0.000000 0.000000 0.000000
0.329755 0.614803 1.512108 0.000000 0.000000 0.000000
-0.076769 1.006348 1.815661 0.000000 0.000000 0.000000
-0.050600 0.962770 1.810358 0.000000 0.000000 0.000000
-0.058641 1.042714 1.823727 0.000000 0.000000 0.000000
-0.058966 1.037654 1.824246 0.000000 0.000000 0.000000
-0.012080 1.008680 1.797598 0.000000 0.000000 0.000000
-0.054751 1.043790 1.830455 0.000000 0.000000 0.000000
-0.051363 1.035474 1.830636 0.000000 0.000000 0.000000
-0.011784 1.003234 1.796657 0.000000 0.000000 0.000000
0.333574 0.608138 1.510243 0.000000 0.000000 0.000000
0.328520 0.604820 1.513970 0.000000 0.000000 0.000000
0.327071 0.626341 1.505345 0.000000 0.000000 0.000000
0.326155 0.624658 1.510764 0.000000 0.000000 0.000000
0.331240 0.611652 1.509750 0.000000 0.000000 0.000000
0.329026 0.616493 1.511471 0.000000 0.000000 0.000000
-0.089041 1.013084 1.807719 0.000000 0.000000 0.000000
-0.045675 1.015919 1.828115 0.000000 0.000000 0.000000
-0.086223 1.027276 1.813658 0.000000 0.000000 0.000000
-0.055153 1.059550 1.830381 0.000000 0.000000 0.000000
0.332216 0.617561 1.505076 0.000000 0.000000 0.000000
0.327026 0.632196 1.506908 0.000000 0.000000 0.000000
-0.051692 1.015864 1.824647 0.000000 0.000000 0.000000
-0.052230 1.012058 1.835573 0.000000 0.000000 0.000000
-0.050494 1.062579 1.828260 0.000000 0.000000 0.000000
-0.092213 1.023677 1.816560 0.000000 0.000000 0.000000
-0.048341 1.023130 1.832528 0.000000 0.000000 0.000000
-0.041846 1.004867 1.828197 0.000000 0.000000 0.000000
-0.049482 1.053633 1.826317 0.000000 0.000000 0.000000
-0.054488 1.018645 1.827393 0.000000 0.000000 0.000000
-0.054670 0.999450 1.823570 0.000000 0.000000 0.000000
-0.053398 1.015558 1.823417 0.000000 0.000000 0.000000
-0.057181 1.019337 1.832981 0.000000 0.000000 0.000000
-0.050562 1.013701 1.823129 0.000000 0.000000 0.000000
-0.051965 0.982452 1.836019 0.000000 0.000000 0.000000
-0.049179 1.007539 1.823666 0.000000 0.000000 0.000000
-0.084657 1.002818 1.816221 0.000000 0.000000 0.000000
-0.051688 1.012751 1.826340 0.000000 0.000000 0.000000
-0.049570 1.001563 1.821883 0.000000 0.000000 0.000000
-0.091194 1.031824 1.824864 0.000000 0.000000 0.000000
-0.047950 1.014450 1.827170 0.000000 0.000000 0.000000
-0.052402 0.990548 1.820106 0.000000 0.000000 0.000000
0.327466 0.604090 1.502448 0.000000 0.000000 0.000000
0.323514 0.620877 1.509379 0.000000 0.000000 0.000000
0.327451 0.630544 1.505594 0.000000 0.000000 0.000000
-0.033136 1.032720 1.777142 0.000000 0.000000 0.000000
0.326880 0.612039 1.508152 0.000000 0.000000 0.000000
0.327486 0.607729 1.516107 0.000000 0.000000 0.000000
0.326081 0.621659 1.507778 0.000000 0.000000 0.000000
-0.053434 1.011783 1.829255 0.000000 0.000000 0.000000
0.331494 0.610943 1.508082 0.000000 0.000000 0.000000
-0.054692 1.045157 1.826430 0.000000 0.000000 0.000000
-0.051726 1.029638 1.832423 0.000000 0.000000 0.000000
-0.083992 1.011786 1.820170 0.000000 0.000000 0.000000
0.330329 0.619888 1.505868 0.000000 0.000000 0.000000
-0.064684 1.071789 1.826866 0.000000 0.000000 0.000000
0.328796 0.626355 1.505066 0.000000 0.000000 0.000000
-0.086739 0.999034 1.818641 0.000000 0.000000 0.000000
0.331040 0.617213 1.513802 0.000000 0.000000 0.000000
0.321010 0.629104 1.507589 0.000000 0.000000 0.000000
0.327497 0.614606 1.510902 0.000000 0.000000 0.000000
0.324930 0.616916 1.503888 0.000000 0.000000 0.000000
0.326182 0.630109 1.505957 0.000000 0.000000 0.000000
-0.048744 0.985787 1.825407 0.000000 0.000000 0.000000
0.327206 0.620431 1.505698 0.000000 0.000000 0.000000
-0.026089 1.023041 1.779384 0.000000 0.000000 0.000000
0.332306 0.612864 1.504540 0.000000 0.000000 0.000000
-0.025575 1.027865 1.778376 0.000000 0.000000 0.000000
0.397432 -0.159547 2.978245 0.000000 0.000000 0.000000
-0.065684 1.060803 1.835165 0.000000 0.000000 0.000000
0.397089 -0.156480 2.980196 0.000000 0.000000 0.000000
0.329472 0.628495 1.506687 0.000000 0.000000 0.000000
0.328146 0.629776 1.499789 0.000000 0.000000 0.000000
-0.059087 1.050851 1.840733 0.000000 0.000000 0.000000
-0.027063 1.007288 1.763208 0.000000 0.000000 0.000000
-0.025894 1.036183 1.781950 0.000000 0.000000 0.000000
-0.029813 1.030371 1.781430 0.000000 0.000000 0.000000
-0.038598 1.030441 1.774059 0.000000 0.000000 0.000000
-0.035416 1.009184 1.769911 0.000000 0.000000 0.000000
-0.031547 1.037099 1.780032 0.000000 0.000000 0.000000
-0.028962 1.032964 1.780416 0.000000 0.000000 0.000000
-0.033815 1.001319 1.771377 0.000000 0.000000 0.000000
-0.026206 1.004618 1.774310 0.000000 0.000000 0.000000
-0.078678 1.013482 1.815057 0.000000 0.000000 0.000000
-0.067078 1.071016 1.824787 0.000000 0.000000 0.000000
0.331827 0.604612 1.509894 0.000000 0.000000 0.000000
-0.076183 1.007956 1.821417 0.000000 0.000000 0.000000
-0.077359 1.014749 1.825036 0.000000 0.000000 0.000000
-0.076957 0.999983 1.817593 0.000000 0.000000 0.000000
-0.079634 1.009114 1.824846 0.000000 0.000000 0.000000
-0.083639 1.006477 1.822054 0.000000 0.000000 0.000000
-0.076444 1.008804 1.824067 0.000000 0.000000 0.000000
-0.090899 1.036807 1.823474 0.000000 0.000000 0.000000
-0.064361 1.073847 1.827156 0.000000 0.000000 0.000000
0.323020 0.633416 1.502463 0.000000 0.000000 0.000000
0.326668 0.629451 1.506475 0.000000 0.000000 0.000000
-0.063085 1.071816 1.831177 0.000000 0.000000 0.000000
-0.041546 0.960925 1.810493 0.000000 0.000000 0.000000
-0.054676 0.961710 1.812621 0.000000 0.000000 0.000000
