ply
format ascii 1.0
comment VCGLIB generated
obj_info Generated by SPFormer!
element vertex 615
property float x
property float y
property float z
property float nx
property float ny
property float nz
end_header
0.562639 -0.900506 1.502900 0.000000 0.000000 0.000000
0.578428 -0.922122 1.520327 0.000000 0.000000 0.000000
0.539849 -0.883095 1.483007 0.000000 0.000000 0.000000
0.597819 -0.910498 1.458118 0.000000 0.000000 0.000000
0.574563 -0.932795 1.497556 0.000000 0.000000 0.000000
0.572742 -0.947076 1.476397 0.000000 0.000000 0.000000
0.536430 -0.893683 1.536345 0.000000 0.000000 0.000000
0.540266 -0.881754 1.510332 0.000000 0.000000 0.000000
0.581863 -0.917517 1.482445 0.000000 0.000000 0.000000
0.586287 -0.914281 1.523199 0.000000 0.000000 0.000000
0.582191 -0.907314 1.530612 0.000000 0.000000 0.000000
0.541982 -0.886043 1.498632 0.000000 0.000000 0.000000
0.578285 -0.917550 1.440852 0.000000 0.000000 0.000000
0.773750 -1.013410 1.468057 0.000000 0.000000 0.000000
0.574322 -0.949713 1.448196 0.000000 0.000000 0.000000
0.589500 -0.910066 1.524019 0.000000 0.000000 0.000000
0.546669 -0.897096 1.510935 0.000000 0.000000 0.000000
0.565278 -0.916011 1.497302 0.000000 0.000000 0.000000
0.584553 -0.863210 1.484421 0.000000 0.000000 0.000000
0.567145 -0.957338 1.454934 0.000000 0.000000 0.000000
0.531520 -0.916729 1.515795 0.000000 0.000000 0.000000
0.546706 -0.892879 1.509876 0.000000 0.000000 0.000000
0.571805 -0.893178 1.457945 0.000000 0.000000 0.000000
0.535106 -0.931604 1.470951 0.000000 0.000000 0.000000
0.553496 -0.892814 1.498828 0.000000 0.000000 0.000000
0.602284 -0.912753 1.536453 0.000000 0.000000 0.000000
0.578855 -0.908729 1.446186 0.000000 0.000000 0.000000
0.569583 -0.915673 1.512802 0.000000 0.000000 0.000000
0.576348 -0.910201 1.503765 0.000000 0.000000 0.000000
0.559497 -0.935158 1.472803 0.000000 0.000000 0.000000
0.551357 -0.895453 1.493126 0.000000 0.000000 0.000000
0.580730 -0.901922 1.499611 0.000000 0.000000 0.000000
0.530537 -0.893566 1.504174 0.000000 0.000000 0.000000
0.573596 -0.918244 1.498761 0.000000 0.000000 0.000000
0.568851 -0.903854 1.494544 0.000000 0.000000 0.000000
0.562137 -0.913890 1.502293 0.000000 0.000000 0.000000
0.580363 -0.911253 1.522255 0.000000 0.000000 0.000000
0.597904 -0.913114 1.527554 0.000000 0.000000 0.000000
0.549136 -0.883788 1.487436 0.000000 0.000000 0.000000
0.580628 -0.916011 1.445159 0.000000 0.000000 0.000000
0.568014 -0.914478 1.490129 0.000000 0.000000 0.000000
0.578079 -0.893621 1.459053 0.000000 0.000000 0.000000
0.573974 -0.905577 1.459519 0.000000 0.000000 0.000000
0.580462 -0.916681 1.526356 0.000000 0.000000 0.000000
0.566210 -0.919923 1.455548 0.000000 0.000000 0.000000
0.581562 -0.903047 1.449368 0.000000 0.000000 0.000000
0.545853 -0.907040 1.517541 0.000000 0.000000 0.000000
0.581923 -0.910407 1.496300 0.000000 0.000000 0.000000
0.594118 -0.932274 1.508269 0.000000 0.000000 0.000000
0.538122 -0.905161 1.506973 0.000000 0.000000 0.000000
0.584337 -0.851702 1.494651 0.000000 0.000000 0.000000
0.586619 -0.902809 1.441042 0.000000 0.000000 0.000000
0.581577 -0.902316 1.443799 0.000000 0.000000 0.000000
0.784500 -1.013439 1.440612 0.000000 0.000000 0.000000
0.564729 -0.908693 1.515700 0.000000 0.000000 0.000000
0.575032 -0.920307 1.458563 0.000000 0.000000 0.000000
0.578321 -0.914561 1.511940 0.000000 0.000000 0.000000
0.585532 -0.920015 1.529413 0.000000 0.000000 0.000000
0.535010 -0.903505 1.525144 0.000000 0.000000 0.000000
0.598445 -0.859442 1.481207 0.000000 0.000000 0.000000
0.576270 -0.914769 1.487513 0.000000 0.000000 0.000000
0.578443 -0.921477 1.473798 0.000000 0.000000 0.000000
0.560716 -0.884968 1.477022 0.000000 0.000000 0.000000
0.520951 -0.932107 1.485491 0.000000 0.000000 0.000000
0.538327 -0.942671 1.467764 0.000000 0.000000 0.000000
0.570116 -0.944016 1.459599 0.000000 0.000000 0.000000
0.532505 -0.936498 1.456273 0.000000 0.000000 0.000000
0.538381 -0.881221 1.499474 0.000000 0.000000 0.000000
0.573055 -0.902112 1.514277 0.000000 0.000000 0.000000
0.598006 -0.913611 1.529759 0.000000 0.000000 0.000000
0.586817 -0.921295 1.530671 0.000000 0.000000 0.000000
0.770952 -0.992759 1.500671 0.000000 0.000000 0.000000
0.522801 -0.925611 1.452628 0.000000 0.000000 0.000000
0.544327 -0.887360 1.497264 0.000000 0.000000 0.000000
0.781916 -1.000407 1.445975 0.000000 0.000000 0.000000
0.565912 -0.906384 1.495378 0.000000 0.000000 0.000000
0.581714 -0.914609 1.443391 0.000000 0.000000 0.000000
0.541232 -0.892133 1.502358 0.000000 0.000000 0.000000
0.576200 -0.934229 1.469352 0.000000 0.000000 0.000000
0.558229 -0.890610 1.484242 0.000000 0.000000 0.000000
0.544597 -0.885416 1.501956 0.000000 0.000000 0.000000
0.570153 -0.939285 1.475973 0.000000 0.000000 0.000000
0.573532 -0.943506 1.456990 0.000000 0.000000 0.000000
0.584260 -0.901581 1.455275 0.000000 0.000000 0.000000
0.566105 -0.900287 1.498426 0.000000 0.000000 0.000000
0.566996 -0.912479 1.453179 0.000000 0.000000 0.000000
0.568511 -0.897310 1.506405 0.000000 0.000000 0.000000
0.570493 -0.910248 1.478819 0.000000 0.000000 0.000000
0.537099 -0.880374 1.508626 0.000000 0.000000 0.000000
0.541706 -0.885763 1.481895 0.000000 0.000000 0.000000
0.569968 -0.895835 1.472605 0.000000 0.000000 0.000000
0.543529 -0.892467 1.488916 0.000000 0.000000 0.000000
0.586712 -0.911876 1.535731 0.000000 0.000000 0.000000
0.593424 -0.925468 1.533610 0.000000 0.000000 0.000000
0.589624 -0.910006 1.533068 0.000000 0.000000 0.000000
0.574066 -0.902371 1.442091 0.000000 0.000000 0.000000
0.541933 -0.886239 1.499722 0.000000 0.000000 0.000000
0.533500 -0.884605 1.498623 0.000000 0.000000 0.000000
0.566392 -0.903767 1.510794 0.000000 0.000000 0.000000
0.603068 -0.916180 1.538292 0.000000 0.000000 0.000000
0.592452 -0.926030 1.533945 0.000000 0.000000 0.000000
0.555704 -0.898265 1.508992 0.000000 0.000000 0.000000
0.545658 -0.897485 1.504776 0.000000 0.000000 0.000000
0.589811 -0.888742 1.451560 0.000000 0.000000 0.000000
0.580997 -0.951021 1.490643 0.000000 0.000000 0.000000
0.585647 -0.912054 1.451643 0.000000 0.000000 0.000000
0.550510 -0.888973 1.507030 0.000000 0.000000 0.000000
0.587806 -0.913213 1.519156 0.000000 0.000000 0.000000
0.582019 -0.910156 1.528494 0.000000 0.000000 0.000000
0.795127 -1.001950 1.452163 0.000000 0.000000 0.000000
0.581750 -0.906154 1.489974 0.000000 0.000000 0.000000
0.564873 -0.914084 1.463044 0.000000 0.000000 0.000000
0.547145 -0.889827 1.507873 0.000000 0.000000 0.000000
0.545350 -0.906442 1.500051 0.000000 0.000000 0.000000
0.574569 -0.906902 1.521306 0.000000 0.000000 0.000000
0.582890 -0.917152 1.486578 0.000000 0.000000 0.000000
0.569741 -0.896226 1.507575 0.000000 0.000000 0.000000
0.539308 -0.884181 1.494138 0.000000 0.000000 0.000000
0.575022 -0.899660 1.513737 0.000000 0.000000 0.000000
0.796049 -1.004254 1.451773 0.000000 0.000000 0.000000
0.556701 -0.904700 1.510772 0.000000 0.000000 0.000000
0.593325 -0.866038 1.481683 0.000000 0.000000 0.000000
0.599081 -0.922216 1.530440 0.000000 0.000000 0.000000
0.593468 -0.930794 1.518662 0.000000 0.000000 0.000000
0.601611 -0.911453 1.529341 0.000000 0.000000 0.000000
0.797848 -1.003095 1.450210 0.000000 0.000000 0.000000
0.543280 -0.887350 1.505226 0.000000 0.000000 0.000000
0.561575 -0.912328 1.447027 0.000000 0.000000 0.000000
0.588600 -0.912709 1.527453 0.000000 0.000000 0.000000
0.599356 -0.917552 1.537346 0.000000 0.000000 0.000000
0.575685 -0.908442 1.476234 0.000000 0.000000 0.000000
0.783257 -1.002601 1.441358 0.000000 0.000000 0.000000
0.591718 -0.911292 1.519980 0.000000 0.000000 0.000000
0.588451 -0.917540 1.524619 0.000000 0.000000 0.000000
0.781957 -1.003113 1.468698 0.000000 0.000000 0.000000
0.545557 -0.883698 1.486193 0.000000 0.000000 0.000000
0.537869 -0.908329 1.487316 0.000000 0.000000 0.000000
0.589670 -0.906087 1.516289 0.000000 0.000000 0.000000
0.580427 -0.926921 1.532250 0.000000 0.000000 0.000000
0.585095 -0.913603 1.531904 0.000000 0.000000 0.000000
0.591183 -0.918267 1.535929 0.000000 0.000000 0.000000
0.587664 -0.905430 1.513760 0.000000 0.000000 0.000000
0.586785 -0.914922 1.531949 0.000000 0.000000 0.000000
0.776717 -1.008146 1.463445 0.000000 0.000000 0.000000
0.593482 -0.913507 1.525543 0.000000 0.000000 0.000000
0.584416 -0.913925 1.529759 0.000000 0.000000 0.000000
0.589711 -0.922843 1.533034 0.000000 0.000000 0.000000
0.575100 -0.918353 1.483139 0.000000 0.000000 0.000000
0.573861 -0.907599 1.517748 0.000000 0.000000 0.000000
0.583804 -0.913127 1.531404 0.000000 0.000000 0.000000
0.572085 -0.867621 1.480527 0.000000 0.000000 0.000000
0.598641 -0.927927 1.538395 0.000000 0.000000 0.000000
0.588266 -0.910972 1.532134 0.000000 0.000000 0.000000
0.582236 -0.912450 1.516896 0.000000 0.000000 0.000000
0.565635 -0.906467 1.521743 0.000000 0.000000 0.000000
0.572728 -0.911619 1.507494 0.000000 0.000000 0.000000
0.584560 -0.908269 1.467142 0.000000 0.000000 0.000000
0.590805 -0.920691 1.531263 0.000000 0.000000 0.000000
0.551924 -0.923501 1.487019 0.000000 0.000000 0.000000
0.567550 -0.924146 1.450152 0.000000 0.000000 0.000000
0.565756 -0.899928 1.501283 0.000000 0.000000 0.000000
0.579981 -0.921292 1.477594 0.000000 0.000000 0.000000
0.541519 -0.912938 1.518801 0.000000 0.000000 0.000000
0.592322 -0.920240 1.536956 0.000000 0.000000 0.000000
0.530596 -0.924326 1.443137 0.000000 0.000000 0.000000
0.794756 -1.000520 1.449699 0.000000 0.000000 0.000000
0.559692 -0.913839 1.504540 0.000000 0.000000 0.000000
0.485285 -0.930219 1.480553 0.000000 0.000000 0.000000
0.548471 -0.909099 1.484023 0.000000 0.000000 0.000000
0.589262 -0.919608 1.532775 0.000000 0.000000 0.000000
0.582218 -0.909005 1.474314 0.000000 0.000000 0.000000
0.580104 -0.916289 1.475073 0.000000 0.000000 0.000000
0.543668 -0.909600 1.511089 0.000000 0.000000 0.000000
0.584221 -0.908465 1.471445 0.000000 0.000000 0.000000
0.585371 -0.923886 1.526033 0.000000 0.000000 0.000000
0.559901 -0.906339 1.517890 0.000000 0.000000 0.000000
0.574474 -0.907052 1.508315 0.000000 0.000000 0.000000
0.576107 -0.900002 1.514420 0.000000 0.000000 0.000000
0.528059 -0.926075 1.444851 0.000000 0.000000 0.000000
0.592887 -0.921358 1.535688 0.000000 0.000000 0.000000
0.543398 -0.883301 1.510505 0.000000 0.000000 0.000000
0.593986 -0.920257 1.540904 0.000000 0.000000 0.000000
0.585850 -0.918962 1.528098 0.000000 0.000000 0.000000
0.551783 -0.926106 1.485343 0.000000 0.000000 0.000000
0.533437 -0.881722 1.494915 0.000000 0.000000 0.000000
0.592063 -0.926152 1.532009 0.000000 0.000000 0.000000
0.543970 -0.891727 1.502919 0.000000 0.000000 0.000000
0.774803 -1.000300 1.452346 0.000000 0.000000 0.000000
0.783384 -1.003129 1.459782 0.000000 0.000000 0.000000
0.544923 -0.885637 1.506479 0.000000 0.000000 0.000000
0.603895 -0.923062 1.533236 0.000000 0.000000 0.000000
0.597826 -0.920396 1.514218 0.000000 0.000000 0.000000
0.569222 -0.898910 1.455692 0.000000 0.000000 0.000000
0.583212 -0.900797 1.465271 0.000000 0.000000 0.000000
0.554968 -0.912624 1.519269 0.000000 0.000000 0.000000
0.554806 -0.904694 1.514125 0.000000 0.000000 0.000000
0.578755 -0.880398 1.447547 0.000000 0.000000 0.000000
0.566586 -0.910819 1.464971 0.000000 0.000000 0.000000
0.537230 -0.896116 1.521133 0.000000 0.000000 0.000000
0.573931 -0.946708 1.457824 0.000000 0.000000 0.000000
0.542454 -0.897002 1.504311 0.000000 0.000000 0.000000
0.536686 -0.908009 1.500438 0.000000 0.000000 0.000000
0.560427 -0.894444 1.489844 0.000000 0.000000 0.000000
0.580628 -0.906171 1.455602 0.000000 0.000000 0.000000
0.582767 -0.911848 1.508613 0.000000 0.000000 0.000000
0.581555 -0.909691 1.510885 0.000000 0.000000 0.000000
0.586459 -0.904459 1.517748 0.000000 0.000000 0.000000
0.569292 -0.907323 1.516215 0.000000 0.000000 0.000000
0.581081 -0.903136 1.515298 0.000000 0.000000 0.000000
0.559020 -0.905943 1.511593 0.000000 0.000000 0.000000
0.581001 -0.909555 1.516959 0.000000 0.000000 0.000000
0.573722 -0.903880 1.518521 0.000000 0.000000 0.000000
0.783704 -1.012599 1.445800 0.000000 0.000000 0.000000
0.566486 -0.924667 1.478190 0.000000 0.000000 0.000000
0.583434 -0.905210 1.463867 0.000000 0.000000 0.000000
0.544723 -0.905124 1.519732 0.000000 0.000000 0.000000
0.547428 -0.886455 1.512702 0.000000 0.000000 0.000000
0.571014 -0.902704 1.443216 0.000000 0.000000 0.000000
0.790340 -1.006315 1.448957 0.000000 0.000000 0.000000
0.547097 -0.903056 1.510971 0.000000 0.000000 0.000000
0.547290 -0.896284 1.526005 0.000000 0.000000 0.000000
0.567314 -0.872635 1.483617 0.000000 0.000000 0.000000
0.570869 -0.904468 1.474433 0.000000 0.000000 0.000000
0.576433 -0.914668 1.521579 0.000000 0.000000 0.000000
0.570298 -0.914528 1.444468 0.000000 0.000000 0.000000
0.594776 -0.914790 1.541660 0.000000 0.000000 0.000000
0.547803 -0.935856 1.488397 0.000000 0.000000 0.000000
0.574896 -0.923738 1.496836 0.000000 0.000000 0.000000
0.591756 -0.859611 1.483408 0.000000 0.000000 0.000000
0.576915 -0.902958 1.458101 0.000000 0.000000 0.000000
0.568019 -0.898268 1.450831 0.000000 0.000000 0.000000
0.569872 -0.921436 1.494810 0.000000 0.000000 0.000000
0.585099 -0.913521 1.532912 0.000000 0.000000 0.000000
0.580662 -0.915440 1.485027 0.000000 0.000000 0.000000
0.560168 -0.916024 1.453564 0.000000 0.000000 0.000000
0.582413 -0.868020 1.481721 0.000000 0.000000 0.000000
0.601826 -0.913379 1.534690 0.000000 0.000000 0.000000
0.602084 -0.923394 1.531576 0.000000 0.000000 0.000000
0.602384 -0.924574 1.542478 0.000000 0.000000 0.000000
0.535704 -0.908048 1.484572 0.000000 0.000000 0.000000
0.784144 -1.007162 1.442142 0.000000 0.000000 0.000000
0.549810 -0.922032 1.486069 0.000000 0.000000 0.000000
0.588066 -0.908766 1.516817 0.000000 0.000000 0.000000
0.568888 -0.945070 1.484795 0.000000 0.000000 0.000000
0.585097 -0.897433 1.453020 0.000000 0.000000 0.000000
0.799857 -1.005982 1.452367 0.000000 0.000000 0.000000
0.578426 -0.911442 1.453019 0.000000 0.000000 0.000000
0.526327 -0.945160 1.491717 0.000000 0.000000 0.000000
0.571807 -0.917157 1.443278 0.000000 0.000000 0.000000
0.574991 -0.912144 1.442699 0.000000 0.000000 0.000000
0.599846 -0.923058 1.529306 0.000000 0.000000 0.000000
0.538107 -0.886984 1.531506 0.000000 0.000000 0.000000
0.569590 -0.906644 1.506419 0.000000 0.000000 0.000000
0.545964 -0.885173 1.507466 0.000000 0.000000 0.000000
0.548407 -0.952619 1.460512 0.000000 0.000000 0.000000
0.567486 -0.914334 1.506394 0.000000 0.000000 0.000000
0.587503 -0.910844 1.509996 0.000000 0.000000 0.000000
0.567204 -0.910720 1.523171 0.000000 0.000000 0.000000
0.576957 -0.911628 1.505999 0.000000 0.000000 0.000000
0.586758 -0.888093 1.497243 0.000000 0.000000 0.000000
0.558164 -0.912968 1.521614 0.000000 0.000000 0.000000
0.567334 -0.909204 1.519000 0.000000 0.000000 0.000000
0.519266 -0.936741 1.491464 0.000000 0.000000 0.000000
0.562591 -0.909184 1.518807 0.000000 0.000000 0.000000
0.561445 -0.923896 1.489824 0.000000 0.000000 0.000000
0.564514 -0.908345 1.514070 0.000000 0.000000 0.000000
0.560596 -0.906293 1.518383 0.000000 0.000000 0.000000
0.587870 -0.910389 1.532117 0.000000 0.000000 0.000000
0.505267 -0.931361 1.487752 0.000000 0.000000 0.000000
0.579666 -0.907277 1.527232 0.000000 0.000000 0.000000
0.580523 -0.917497 1.523720 0.000000 0.000000 0.000000
0.570909 -0.933459 1.472389 0.000000 0.000000 0.000000
0.580447 -0.921625 1.474630 0.000000 0.000000 0.000000
0.584913 -0.907772 1.490469 0.000000 0.000000 0.000000
0.567059 -0.873760 1.494271 0.000000 0.000000 0.000000
0.586040 -0.910197 1.484071 0.000000 0.000000 0.000000
0.777951 -1.004632 1.476124 0.000000 0.000000 0.000000
0.782917 -1.006212 1.465658 0.000000 0.000000 0.000000
0.573075 -0.934118 1.467761 0.000000 0.000000 0.000000
0.591035 -0.918548 1.535456 0.000000 0.000000 0.000000
0.519843 -0.931441 1.480537 0.000000 0.000000 0.000000
0.583729 -0.906547 1.524532 0.000000 0.000000 0.000000
0.524369 -0.934422 1.492832 0.000000 0.000000 0.000000
0.550851 -0.914661 1.518217 0.000000 0.000000 0.000000
0.595423 -0.920452 1.538466 0.000000 0.000000 0.000000
0.564714 -0.959050 1.463708 0.000000 0.000000 0.000000
0.588562 -0.912452 1.531629 0.000000 0.000000 0.000000
0.523928 -0.934541 1.492186 0.000000 0.000000 0.000000
0.532133 -0.957385 1.451423 0.000000 0.000000 0.000000
0.519497 -0.941674 1.496079 0.000000 0.000000 0.000000
0.569536 -0.864271 1.487918 0.000000 0.000000 0.000000
0.563280 -0.911744 1.519767 0.000000 0.000000 0.000000
0.544854 -0.884668 1.529105 0.000000 0.000000 0.000000
0.543678 -0.922899 1.478099 0.000000 0.000000 0.000000
0.563012 -0.880652 1.479961 0.000000 0.000000 0.000000
0.566213 -0.913299 1.456172 0.000000 0.000000 0.000000
0.575522 -0.896407 1.456989 0.000000 0.000000 0.000000
0.563786 -0.927282 1.485497 0.000000 0.000000 0.000000
0.565898 -0.913251 1.464071 0.000000 0.000000 0.000000
0.575907 -0.911431 1.509152 0.000000 0.000000 0.000000
0.541637 -0.893577 1.527761 0.000000 0.000000 0.000000
0.547233 -0.945416 1.451740 0.000000 0.000000 0.000000
0.564540 -0.871464 1.487949 0.000000 0.000000 0.000000
0.565134 -0.865996 1.509367 0.000000 0.000000 0.000000
0.540428 -0.900340 1.507005 0.000000 0.000000 0.000000
0.550017 -0.889552 1.508998 0.000000 0.000000 0.000000
0.537565 -0.941413 1.475938 0.000000 0.000000 0.000000
0.550128 -0.914684 1.504557 0.000000 0.000000 0.000000
0.546101 -0.903053 1.511189 0.000000 0.000000 0.000000
0.579076 -0.865632 1.483505 0.000000 0.000000 0.000000
0.555887 -0.898565 1.485782 0.000000 0.000000 0.000000
0.562562 -0.894568 1.464650 0.000000 0.000000 0.000000
0.568865 -0.923452 1.489352 0.000000 0.000000 0.000000
0.545532 -0.913564 1.512178 0.000000 0.000000 0.000000
0.578154 -0.918816 1.472386 0.000000 0.000000 0.000000
0.569272 -0.944753 1.453247 0.000000 0.000000 0.000000
0.580462 -0.912329 1.486130 0.000000 0.000000 0.000000
0.571406 -0.945355 1.462417 0.000000 0.000000 0.000000
0.572050 -0.929735 1.469513 0.000000 0.000000 0.000000
0.791060 -1.013123 1.447138 0.000000 0.000000 0.000000
0.571645 -0.901898 1.466299 0.000000 0.000000 0.000000
0.577790 -0.916424 1.522757 0.000000 0.000000 0.000000
0.589206 -0.889729 1.505719 0.000000 0.000000 0.000000
0.566009 -0.912521 1.509724 0.000000 0.000000 0.000000
0.562958 -0.905666 1.505526 0.000000 0.000000 0.000000
0.578501 -0.925564 1.473573 0.000000 0.000000 0.000000
0.560463 -0.897456 1.490667 0.000000 0.000000 0.000000
0.540176 -0.887846 1.485922 0.000000 0.000000 0.000000
0.578044 -0.915503 1.481765 0.000000 0.000000 0.000000
0.576375 -0.913186 1.469596 0.000000 0.000000 0.000000
0.582581 -0.900434 1.460748 0.000000 0.000000 0.000000
0.585016 -0.889831 1.500884 0.000000 0.000000 0.000000
0.552420 -0.913617 1.507666 0.000000 0.000000 0.000000
0.557026 -0.914590 1.515997 0.000000 0.000000 0.000000
0.568518 -0.901020 1.481937 0.000000 0.000000 0.000000
0.565733 -0.900343 1.478399 0.000000 0.000000 0.000000
0.589085 -0.899555 1.463318 0.000000 0.000000 0.000000
0.573803 -0.914417 1.451277 0.000000 0.000000 0.000000
0.586135 -0.859060 1.487019 0.000000 0.000000 0.000000
0.569609 -0.917228 1.482223 0.000000 0.000000 0.000000
0.574310 -0.908842 1.467004 0.000000 0.000000 0.000000
0.564392 -0.908563 1.490531 0.000000 0.000000 0.000000
0.580355 -0.905939 1.480383 0.000000 0.000000 0.000000
0.576640 -0.895303 1.467482 0.000000 0.000000 0.000000
0.589628 -0.855302 1.484789 0.000000 0.000000 0.000000
0.577288 -0.916102 1.518987 0.000000 0.000000 0.000000
0.572156 -0.904100 1.510738 0.000000 0.000000 0.000000
0.527676 -0.925166 1.472819 0.000000 0.000000 0.000000
0.574277 -0.896349 1.504172 0.000000 0.000000 0.000000
0.586689 -0.910323 1.511567 0.000000 0.000000 0.000000
0.577969 -0.913764 1.525181 0.000000 0.000000 0.000000
0.539665 -0.952371 1.469758 0.000000 0.000000 0.000000
0.535400 -0.946182 1.476498 0.000000 0.000000 0.000000
0.571698 -0.932141 1.469859 0.000000 0.000000 0.000000
0.546922 -0.917683 1.480172 0.000000 0.000000 0.000000
0.532020 -0.945379 1.471483 0.000000 0.000000 0.000000
0.596084 -0.921164 1.541394 0.000000 0.000000 0.000000
0.602043 -0.917205 1.535955 0.000000 0.000000 0.000000
0.597949 -0.922337 1.540727 0.000000 0.000000 0.000000
0.528598 -0.912477 1.483854 0.000000 0.000000 0.000000
0.535606 -0.934174 1.480926 0.000000 0.000000 0.000000
0.556536 -0.920336 1.493432 0.000000 0.000000 0.000000
0.596374 -0.918858 1.542003 0.000000 0.000000 0.000000
0.526404 -0.936117 1.475741 0.000000 0.000000 0.000000
0.586809 -0.915906 1.531547 0.000000 0.000000 0.000000
0.541510 -0.925042 1.482007 0.000000 0.000000 0.000000
0.574224 -0.945068 1.459266 0.000000 0.000000 0.000000
0.532759 -0.953094 1.471474 0.000000 0.000000 0.000000
0.529624 -0.941254 1.477951 0.000000 0.000000 0.000000
0.519645 -0.935572 1.480705 0.000000 0.000000 0.000000
0.536536 -0.928369 1.476084 0.000000 0.000000 0.000000
0.555254 -0.897083 1.500055 0.000000 0.000000 0.000000
0.545620 -0.914723 1.488541 0.000000 0.000000 0.000000
0.537061 -0.927223 1.479939 0.000000 0.000000 0.000000
0.533033 -0.897580 1.483444 0.000000 0.000000 0.000000
0.555671 -0.926649 1.488983 0.000000 0.000000 0.000000
0.557796 -0.895721 1.499486 0.000000 0.000000 0.000000
0.797245 -1.000527 1.444783 0.000000 0.000000 0.000000
0.534344 -0.924416 1.469381 0.000000 0.000000 0.000000
0.570213 -0.897276 1.492937 0.000000 0.000000 0.000000
0.594684 -0.921581 1.538792 0.000000 0.000000 0.000000
0.575893 -0.914511 1.501441 0.000000 0.000000 0.000000
0.560070 -0.900349 1.477516 0.000000 0.000000 0.000000
0.538556 -0.895351 1.499261 0.000000 0.000000 0.000000
0.563040 -0.907330 1.484087 0.000000 0.000000 0.000000
0.536658 -0.898151 1.493735 0.000000 0.000000 0.000000
0.573586 -0.904227 1.477688 0.000000 0.000000 0.000000
0.582260 -0.851418 1.483634 0.000000 0.000000 0.000000
0.583471 -0.924580 1.528653 0.000000 0.000000 0.000000
0.593231 -0.924893 1.524241 0.000000 0.000000 0.000000
0.585525 -0.912942 1.517605 0.000000 0.000000 0.000000
0.586070 -0.911242 1.526889 0.000000 0.000000 0.000000
0.581102 -0.909856 1.524525 0.000000 0.000000 0.000000
0.589732 -0.920834 1.534347 0.000000 0.000000 0.000000
0.530254 -0.915273 1.483566 0.000000 0.000000 0.000000
0.599575 -0.890783 1.472327 0.000000 0.000000 0.000000
0.603236 -0.916412 1.538409 0.000000 0.000000 0.000000
0.602216 -0.928937 1.532787 0.000000 0.000000 0.000000
0.561907 -0.909924 1.519243 0.000000 0.000000 0.000000
0.577378 -0.910272 1.478990 0.000000 0.000000 0.000000
0.578421 -0.912150 1.477138 0.000000 0.000000 0.000000
0.584841 -0.914801 1.515296 0.000000 0.000000 0.000000
0.578590 -0.916405 1.522095 0.000000 0.000000 0.000000
0.603493 -0.915794 1.537536 0.000000 0.000000 0.000000
0.582972 -0.910613 1.523706 0.000000 0.000000 0.000000
0.594323 -0.920062 1.537327 0.000000 0.000000 0.000000
0.588666 -0.921155 1.512745 0.000000 0.000000 0.000000
0.790091 -1.007406 1.448587 0.000000 0.000000 0.000000
0.538394 -0.880215 1.503232 0.000000 0.000000 0.000000
0.592250 -0.919761 1.535665 0.000000 0.000000 0.000000
0.584243 -0.911441 1.523247 0.000000 0.000000 0.000000
0.572071 -0.939421 1.466909 0.000000 0.000000 0.000000
0.585572 -0.907128 1.511932 0.000000 0.000000 0.000000
0.587249 -0.916575 1.523678 0.000000 0.000000 0.000000
0.550164 -0.906572 1.503434 0.000000 0.000000 0.000000
0.584061 -0.911754 1.515245 0.000000 0.000000 0.000000
0.533903 -0.937560 1.472075 0.000000 0.000000 0.000000
0.563236 -0.915424 1.469276 0.000000 0.000000 0.000000
0.579856 -0.906229 1.470947 0.000000 0.000000 0.000000
0.597114 -0.916823 1.544213 0.000000 0.000000 0.000000
0.595297 -0.924622 1.536702 0.000000 0.000000 0.000000
0.570543 -0.882682 1.484282 0.000000 0.000000 0.000000
0.575060 -0.941161 1.479525 0.000000 0.000000 0.000000
0.579666 -0.917421 1.482530 0.000000 0.000000 0.000000
0.552945 -0.900347 1.511739 0.000000 0.000000 0.000000
0.570731 -0.885762 1.480803 0.000000 0.000000 0.000000
0.567228 -0.889983 1.464860 0.000000 0.000000 0.000000
0.573685 -0.906503 1.467116 0.000000 0.000000 0.000000
0.555296 -0.908355 1.519071 0.000000 0.000000 0.000000
0.551139 -0.898516 1.520375 0.000000 0.000000 0.000000
0.545754 -0.928851 1.510915 0.000000 0.000000 0.000000
0.547893 -0.896820 1.522641 0.000000 0.000000 0.000000
0.543058 -0.922487 1.504838 0.000000 0.000000 0.000000
0.794471 -1.000570 1.450510 0.000000 0.000000 0.000000
0.569151 -0.950768 1.467792 0.000000 0.000000 0.000000
0.584424 -0.860199 1.489623 0.000000 0.000000 0.000000
0.596229 -0.927164 1.534619 0.000000 0.000000 0.000000
0.600796 -0.921528 1.531765 0.000000 0.000000 0.000000
0.544066 -0.925373 1.502204 0.000000 0.000000 0.000000
0.536374 -0.947784 1.487007 0.000000 0.000000 0.000000
0.565028 -0.884632 1.449313 0.000000 0.000000 0.000000
0.788873 -1.019125 1.451481 0.000000 0.000000 0.000000
0.539522 -0.941480 1.491976 0.000000 0.000000 0.000000
0.572763 -0.897782 1.443161 0.000000 0.000000 0.000000
0.585735 -0.887857 1.447133 0.000000 0.000000 0.000000
0.579552 -0.888155 1.454767 0.000000 0.000000 0.000000
0.579938 -0.915233 1.443663 0.000000 0.000000 0.000000
0.571375 -0.909922 1.519527 0.000000 0.000000 0.000000
0.572129 -0.944866 1.460299 0.000000 0.000000 0.000000
0.555277 -0.914340 1.524168 0.000000 0.000000 0.000000
0.568973 -0.940666 1.467087 0.000000 0.000000 0.000000
0.581857 -0.866526 1.492022 0.000000 0.000000 0.000000
0.583727 -0.874616 1.486294 0.000000 0.000000 0.000000
0.554710 -0.916324 1.502318 0.000000 0.000000 0.000000
0.539108 -0.918710 1.517779 0.000000 0.000000 0.000000
0.582540 -0.871363 1.491230 0.000000 0.000000 0.000000
0.574895 -0.869215 1.485355 0.000000 0.000000 0.000000
0.561174 -0.895403 1.447704 0.000000 0.000000 0.000000
0.543407 -0.907223 1.493922 0.000000 0.000000 0.000000
0.585828 -0.917868 1.524390 0.000000 0.000000 0.000000
0.594568 -0.888761 1.441113 0.000000 0.000000 0.000000
0.539951 -0.881123 1.485932 0.000000 0.000000 0.000000
0.582853 -0.915566 1.522277 0.000000 0.000000 0.000000
0.590636 -0.918821 1.523594 0.000000 0.000000 0.000000
0.588543 -0.908849 1.516764 0.000000 0.000000 0.000000
0.544472 -0.889910 1.497135 0.000000 0.000000 0.000000
0.577486 -0.900367 1.507097 0.000000 0.000000 0.000000
0.544740 -0.892029 1.500799 0.000000 0.000000 0.000000
0.578472 -0.908025 1.513336 0.000000 0.000000 0.000000
0.799583 -1.000642 1.446170 0.000000 0.000000 0.000000
0.574274 -0.902175 1.517247 0.000000 0.000000 0.000000
0.570730 -0.919439 1.446176 0.000000 0.000000 0.000000
0.587814 -0.868770 1.496325 0.000000 0.000000 0.000000
0.586662 -0.873215 1.498035 0.000000 0.000000 0.000000
0.586210 -0.901427 1.450856 0.000000 0.000000 0.000000
0.588942 -0.871932 1.493210 0.000000 0.000000 0.000000
0.586611 -0.868777 1.486884 0.000000 0.000000 0.000000
0.539297 -0.885532 1.484587 0.000000 0.000000 0.000000
0.547911 -0.907007 1.498315 0.000000 0.000000 0.000000
0.797213 -1.004079 1.445425 0.000000 0.000000 0.000000
0.539695 -0.893028 1.506355 0.000000 0.000000 0.000000
0.562919 -0.917022 1.477398 0.000000 0.000000 0.000000
0.562548 -0.918506 1.481906 0.000000 0.000000 0.000000
0.592082 -0.918840 1.536559 0.000000 0.000000 0.000000
0.584495 -0.949269 1.492938 0.000000 0.000000 0.000000
0.589127 -0.909712 1.518433 0.000000 0.000000 0.000000
0.547772 -0.926696 1.484196 0.000000 0.000000 0.000000
0.592596 -0.916301 1.518381 0.000000 0.000000 0.000000
0.595413 -0.926726 1.535869 0.000000 0.000000 0.000000
0.574520 -0.955693 1.471806 0.000000 0.000000 0.000000
0.584823 -0.913380 1.516076 0.000000 0.000000 0.000000
0.596838 -0.915411 1.527954 0.000000 0.000000 0.000000
0.575633 -0.935073 1.472950 0.000000 0.000000 0.000000
0.568442 -0.938376 1.468340 0.000000 0.000000 0.000000
0.595429 -0.930640 1.534163 0.000000 0.000000 0.000000
0.598992 -0.915270 1.523384 0.000000 0.000000 0.000000
0.574248 -0.942144 1.467688 0.000000 0.000000 0.000000
0.582326 -0.907754 1.511804 0.000000 0.000000 0.000000
0.568864 -0.868696 1.482869 0.000000 0.000000 0.000000
0.587695 -0.911848 1.522122 0.000000 0.000000 0.000000
0.560209 -0.918949 1.443322 0.000000 0.000000 0.000000
0.597473 -0.918514 1.541474 0.000000 0.000000 0.000000
0.577364 -0.916943 1.495749 0.000000 0.000000 0.000000
0.599741 -0.910318 1.531605 0.000000 0.000000 0.000000
0.599211 -0.916472 1.540986 0.000000 0.000000 0.000000
0.533320 -0.908892 1.481187 0.000000 0.000000 0.000000
0.533392 -0.918986 1.483058 0.000000 0.000000 0.000000
0.571737 -0.934412 1.471313 0.000000 0.000000 0.000000
0.576558 -0.908036 1.490370 0.000000 0.000000 0.000000
0.580579 -0.917945 1.494568 0.000000 0.000000 0.000000
0.548425 -0.900245 1.482581 0.000000 0.000000 0.000000
0.523993 -0.922546 1.477415 0.000000 0.000000 0.000000
0.561371 -0.913628 1.499767 0.000000 0.000000 0.000000
0.574424 -0.910537 1.493797 0.000000 0.000000 0.000000
0.576029 -0.914041 1.498269 0.000000 0.000000 0.000000
0.543438 -0.913439 1.498134 0.000000 0.000000 0.000000
0.525490 -0.922228 1.480856 0.000000 0.000000 0.000000
0.563488 -0.951290 1.456568 0.000000 0.000000 0.000000
0.574701 -0.944307 1.465271 0.000000 0.000000 0.000000
0.563670 -0.914126 1.446499 0.000000 0.000000 0.000000
0.563896 -0.912799 1.460130 0.000000 0.000000 0.000000
0.572301 -0.945248 1.463767 0.000000 0.000000 0.000000
0.533544 -0.936112 1.482283 0.000000 0.000000 0.000000
0.572805 -0.940897 1.454155 0.000000 0.000000 0.000000
0.531762 -0.920454 1.480263 0.000000 0.000000 0.000000
0.535679 -0.940865 1.465716 0.000000 0.000000 0.000000
0.569108 -0.946516 1.455767 0.000000 0.000000 0.000000
0.574288 -0.939774 1.456179 0.000000 0.000000 0.000000
0.552109 -0.913268 1.517366 0.000000 0.000000 0.000000
0.561696 -0.947183 1.461997 0.000000 0.000000 0.000000
0.551969 -0.898505 1.510955 0.000000 0.000000 0.000000
0.546530 -0.890758 1.508102 0.000000 0.000000 0.000000
0.566602 -0.943811 1.460143 0.000000 0.000000 0.000000
0.566985 -0.943296 1.461060 0.000000 0.000000 0.000000
0.516064 -0.941342 1.496216 0.000000 0.000000 0.000000
0.551670 -0.910338 1.522229 0.000000 0.000000 0.000000
0.549218 -0.911758 1.520180 0.000000 0.000000 0.000000
0.544317 -0.882534 1.527062 0.000000 0.000000 0.000000
0.540135 -0.912973 1.512529 0.000000 0.000000 0.000000
0.536362 -0.935505 1.480577 0.000000 0.000000 0.000000
0.554350 -0.889894 1.520652 0.000000 0.000000 0.000000
0.549957 -0.898389 1.527956 0.000000 0.000000 0.000000
0.547474 -0.885258 1.519598 0.000000 0.000000 0.000000
0.538936 -0.911946 1.510311 0.000000 0.000000 0.000000
0.536740 -0.936983 1.477485 0.000000 0.000000 0.000000
0.541548 -0.925390 1.520091 0.000000 0.000000 0.000000
0.539103 -0.892506 1.539468 0.000000 0.000000 0.000000
0.576138 -0.916652 1.497875 0.000000 0.000000 0.000000
0.570090 -0.914231 1.453907 0.000000 0.000000 0.000000
0.577371 -0.923255 1.468801 0.000000 0.000000 0.000000
0.583158 -0.908325 1.506909 0.000000 0.000000 0.000000
0.580424 -0.927345 1.469372 0.000000 0.000000 0.000000
0.575605 -0.910103 1.475942 0.000000 0.000000 0.000000
0.533633 -0.950090 1.474136 0.000000 0.000000 0.000000
0.578663 -0.911665 1.502364 0.000000 0.000000 0.000000
0.580897 -0.909417 1.508680 0.000000 0.000000 0.000000
0.584074 -0.868406 1.493932 0.000000 0.000000 0.000000
0.572746 -0.927421 1.471815 0.000000 0.000000 0.000000
0.582103 -0.915276 1.502313 0.000000 0.000000 0.000000
0.580081 -0.916621 1.500815 0.000000 0.000000 0.000000
0.573960 -0.906505 1.490634 0.000000 0.000000 0.000000
0.577021 -0.892320 1.518512 0.000000 0.000000 0.000000
0.564071 -0.918702 1.450662 0.000000 0.000000 0.000000
0.575141 -0.926468 1.469208 0.000000 0.000000 0.000000
0.533062 -0.925083 1.466883 0.000000 0.000000 0.000000
0.569378 -0.902306 1.486936 0.000000 0.000000 0.000000
0.560284 -0.913337 1.453009 0.000000 0.000000 0.000000
0.578248 -0.917888 1.475850 0.000000 0.000000 0.000000
0.587937 -0.914316 1.536267 0.000000 0.000000 0.000000
0.547479 -0.882621 1.483155 0.000000 0.000000 0.000000
0.590268 -0.917532 1.535218 0.000000 0.000000 0.000000
0.550056 -0.910720 1.481413 0.000000 0.000000 0.000000
0.552331 -0.926458 1.486108 0.000000 0.000000 0.000000
0.546218 -0.890303 1.481527 0.000000 0.000000 0.000000
0.547675 -0.910663 1.494156 0.000000 0.000000 0.000000
0.553616 -0.914191 1.523603 0.000000 0.000000 0.000000
0.549799 -0.908477 1.480875 0.000000 0.000000 0.000000
0.546675 -0.927008 1.484395 0.000000 0.000000 0.000000
0.548898 -0.907119 1.487817 0.000000 0.000000 0.000000
0.544921 -0.911893 1.496907 0.000000 0.000000 0.000000
0.542658 -0.882089 1.506787 0.000000 0.000000 0.000000
0.541047 -0.886503 1.494065 0.000000 0.000000 0.000000
0.518728 -0.933423 1.480445 0.000000 0.000000 0.000000
0.541056 -0.882532 1.491172 0.000000 0.000000 0.000000
0.591006 -0.919246 1.518630 0.000000 0.000000 0.000000
0.786010 -1.029798 1.479275 0.000000 0.000000 0.000000
0.790679 -1.018721 1.465122 0.000000 0.000000 0.000000
0.790671 -1.020948 1.474514 0.000000 0.000000 0.000000
0.796969 -1.017651 1.472662 0.000000 0.000000 0.000000
0.796382 -1.022061 1.470694 0.000000 0.000000 0.000000
0.782433 -1.003390 1.476561 0.000000 0.000000 0.000000
0.797128 -1.018280 1.463091 0.000000 0.000000 0.000000
0.792282 -1.024562 1.474619 0.000000 0.000000 0.000000
0.791687 -1.021424 1.475594 0.000000 0.000000 0.000000
0.792583 -1.022039 1.475138 0.000000 0.000000 0.000000
0.798733 -1.014971 1.470853 0.000000 0.000000 0.000000
0.789875 -1.025621 1.469675 0.000000 0.000000 0.000000
0.781410 -1.030540 1.470431 0.000000 0.000000 0.000000
0.788126 -1.024015 1.470632 0.000000 0.000000 0.000000
0.798744 -1.016146 1.472440 0.000000 0.000000 0.000000
0.791539 -1.029569 1.469531 0.000000 0.000000 0.000000
0.783494 -1.029423 1.478912 0.000000 0.000000 0.000000
0.793552 -1.029500 1.476576 0.000000 0.000000 0.000000
0.786745 -1.023957 1.478139 0.000000 0.000000 0.000000
0.791152 -1.018743 1.471283 0.000000 0.000000 0.000000
0.797314 -1.019042 1.451330 0.000000 0.000000 0.000000
0.786704 -1.014971 1.477914 0.000000 0.000000 0.000000
0.792128 -1.020794 1.465268 0.000000 0.000000 0.000000
0.784001 -1.026550 1.470503 0.000000 0.000000 0.000000
0.783179 -1.028620 1.479070 0.000000 0.000000 0.000000
0.787821 -1.018436 1.473313 0.000000 0.000000 0.000000
0.784313 -1.016657 1.472706 0.000000 0.000000 0.000000
0.797836 -1.021025 1.479537 0.000000 0.000000 0.000000
0.798440 -1.010701 1.464162 0.000000 0.000000 0.000000
0.794701 -1.012846 1.464731 0.000000 0.000000 0.000000
