ply
format ascii 1.0
comment VCGLIB generated
obj_info Generated by SPFormer!
element vertex 526
property float x
property float y
property float z
property float nx
property float ny
property float nz
end_header
-0.115689 1.982893 1.826612 0.000000 0.000000 0.000000
-0.115395 1.980655 1.826390 0.000000 0.000000 0.000000
-0.125887 1.990919 1.830358 0.000000 0.000000 0.000000
-0.124925 1.988863 1.832026 0.000000 0.000000 0.000000
-0.101928 1.971217 1.831131 0.000000 0.000000 0.000000
0.302751 -0.516804 2.149572 0.000000 0.000000 0.000000
-0.122234 1.987430 1.834077 0.000000 0.000000 0.000000
0.317888 -0.470990 2.152186 0.000000 0.000000 0.000000
-0.123574 1.983293 1.833366 0.000000 0.000000 0.000000
-0.128636 1.998748 1.832587 0.000000 0.000000 0.000000
-0.087395 1.962002 1.829040 0.000000 0.000000 0.000000
-0.120920 1.985882 1.833715 0.000000 0.000000 0.000000
0.272459 -0.497306 2.143614 0.000000 0.000000 0.000000
-0.106967 1.971252 1.834406 0.000000 0.000000 0.000000
-0.120765 2.013174 1.799653 0.000000 0.000000 0.000000
-0.116191 2.010314 1.795982 0.000000 0.000000 0.000000
-0.100460 1.968751 1.830488 0.000000 0.000000 0.000000
-0.124996 1.987068 1.828966 0.000000 0.000000 0.000000
-0.131164 1.998309 1.829017 0.000000 0.000000 0.000000
-0.121842 2.004646 1.795209 0.000000 0.000000 0.000000
-0.127655 1.991194 1.830508 0.000000 0.000000 0.000000
-0.089660 1.963865 1.833619 0.000000 0.000000 0.000000
-0.107860 1.978631 1.813209 0.000000 0.000000 0.000000
-0.125301 1.988111 1.829926 0.000000 0.000000 0.000000
-0.109312 1.978741 1.830956 0.000000 0.000000 0.000000
-0.118183 2.003363 1.810101 0.000000 0.000000 0.000000
-0.130900 1.988099 1.826982 0.000000 0.000000 0.000000
-0.118426 1.983559 1.831754 0.000000 0.000000 0.000000
-0.133272 1.990694 1.829551 0.000000 0.000000 0.000000
-0.122600 2.005857 1.800543 0.000000 0.000000 0.000000
-0.122861 1.986550 1.834347 0.000000 0.000000 0.000000
0.319825 -0.470000 2.149957 0.000000 0.000000 0.000000
-0.113213 1.982408 1.830958 0.000000 0.000000 0.000000
-0.119350 1.982003 1.821716 0.000000 0.000000 0.000000
0.325118 -0.471417 2.147746 0.000000 0.000000 0.000000
-0.120809 2.015827 1.793221 0.000000 0.000000 0.000000
-0.124402 2.016546 1.800538 0.000000 0.000000 0.000000
-0.082496 1.971440 1.832550 0.000000 0.000000 0.000000
-0.101676 1.966525 1.832127 0.000000 0.000000 0.000000
-0.084144 1.980296 1.838257 0.000000 0.000000 0.000000
-0.105809 1.970662 1.824832 0.000000 0.000000 0.000000
0.307271 -0.494106 2.153366 0.000000 0.000000 0.000000
-0.118677 1.978595 1.819351 0.000000 0.000000 0.000000
-0.113957 1.981539 1.833656 0.000000 0.000000 0.000000
-0.111041 1.963857 1.838214 0.000000 0.000000 0.000000
-0.108747 1.980430 1.836733 0.000000 0.000000 0.000000
-0.080750 1.983961 1.830527 0.000000 0.000000 0.000000
0.272228 -0.493089 2.136869 0.000000 0.000000 0.000000
0.288360 -0.514572 2.157322 0.000000 0.000000 0.000000
0.284858 -0.502865 2.141083 0.000000 0.000000 0.000000
-0.101964 1.967988 1.822656 0.000000 0.000000 0.000000
0.277398 -0.498058 2.137929 0.000000 0.000000 0.000000
-0.107827 1.973839 1.830946 0.000000 0.000000 0.000000
0.275761 -0.499370 2.147278 0.000000 0.000000 0.000000
-0.091670 1.971653 1.831945 0.000000 0.000000 0.000000
0.303456 -0.514960 2.143237 0.000000 0.000000 0.000000
-0.122851 1.992576 1.798976 0.000000 0.000000 0.000000
-0.081862 1.962119 1.837014 0.000000 0.000000 0.000000
-0.119655 2.002523 1.817906 0.000000 0.000000 0.000000
-0.123586 2.015593 1.804671 0.000000 0.000000 0.000000
0.282321 -0.505917 2.137761 0.000000 0.000000 0.000000
0.279373 -0.500073 2.148624 0.000000 0.000000 0.000000
0.329263 -0.479416 2.157769 0.000000 0.000000 0.000000
0.277326 -0.491311 2.149393 0.000000 0.000000 0.000000
-0.083072 1.967951 1.837407 0.000000 0.000000 0.000000
-0.122482 1.991055 1.832269 0.000000 0.000000 0.000000
-0.126557 1.989317 1.828934 0.000000 0.000000 0.000000
-0.120654 2.012699 1.799649 0.000000 0.000000 0.000000
0.318653 -0.480362 2.154211 0.000000 0.000000 0.000000
0.310234 -0.489939 2.151397 0.000000 0.000000 0.000000
-0.124746 1.987680 1.829313 0.000000 0.000000 0.000000
-0.124883 2.024852 1.788718 0.000000 0.000000 0.000000
0.272528 -0.496808 2.137232 0.000000 0.000000 0.000000
0.296739 -0.511943 2.155501 0.000000 0.000000 0.000000
-0.123418 2.019679 1.802027 0.000000 0.000000 0.000000
-0.121985 2.012565 1.795509 0.000000 0.000000 0.000000
-0.121214 2.007025 1.799202 0.000000 0.000000 0.000000
-0.118012 1.990155 1.803135 0.000000 0.000000 0.000000
-0.098013 1.969133 1.839424 0.000000 0.000000 0.000000
0.285466 -0.508788 2.146540 0.000000 0.000000 0.000000
0.329957 -0.477070 2.148859 0.000000 0.000000 0.000000
-0.124600 2.007262 1.798797 0.000000 0.000000 0.000000
0.303607 -0.513894 2.147637 0.000000 0.000000 0.000000
0.309335 -0.519877 2.137809 0.000000 0.000000 0.000000
0.315578 -0.468016 2.153354 0.000000 0.000000 0.000000
-0.117517 2.003067 1.806622 0.000000 0.000000 0.000000
-0.125963 1.989857 1.832222 0.000000 0.000000 0.000000
-0.120719 1.997998 1.804452 0.000000 0.000000 0.000000
0.314753 -0.474726 2.152925 0.000000 0.000000 0.000000
0.313032 -0.474893 2.157227 0.000000 0.000000 0.000000
-0.116670 2.001236 1.802069 0.000000 0.000000 0.000000
0.330061 -0.474944 2.157987 0.000000 0.000000 0.000000
-0.083131 1.983777 1.837201 0.000000 0.000000 0.000000
-0.116442 1.986104 1.818771 0.000000 0.000000 0.000000
0.288328 -0.508280 2.148567 0.000000 0.000000 0.000000
-0.125212 1.995018 1.803708 0.000000 0.000000 0.000000
0.287534 -0.510963 2.156905 0.000000 0.000000 0.000000
-0.119314 1.997001 1.806607 0.000000 0.000000 0.000000
-0.115693 2.014739 1.799879 0.000000 0.000000 0.000000
0.293719 -0.507533 2.144027 0.000000 0.000000 0.000000
0.275372 -0.494382 2.149200 0.000000 0.000000 0.000000
0.314774 -0.470893 2.151716 0.000000 0.000000 0.000000
0.289767 -0.514604 2.152177 0.000000 0.000000 0.000000
0.283331 -0.506127 2.152702 0.000000 0.000000 0.000000
0.303787 -0.509967 2.157922 0.000000 0.000000 0.000000
-0.123560 2.020772 1.797043 0.000000 0.000000 0.000000
0.273725 -0.499678 2.137882 0.000000 0.000000 0.000000
-0.128016 2.008922 1.798432 0.000000 0.000000 0.000000
-0.125028 2.015940 1.787895 0.000000 0.000000 0.000000
-0.123970 2.014891 1.795147 0.000000 0.000000 0.000000
0.278733 -0.497174 2.135762 0.000000 0.000000 0.000000
-0.120589 2.005948 1.800194 0.000000 0.000000 0.000000
-0.120978 1.995819 1.815476 0.000000 0.000000 0.000000
-0.121046 2.009926 1.804214 0.000000 0.000000 0.000000
0.322743 -0.466651 2.154382 0.000000 0.000000 0.000000
0.289504 -0.514471 2.154996 0.000000 0.000000 0.000000
-0.118919 1.999431 1.810140 0.000000 0.000000 0.000000
0.266153 -0.502406 2.142668 0.000000 0.000000 0.000000
-0.121695 1.990327 1.814170 0.000000 0.000000 0.000000
-0.102904 1.966832 1.828417 0.000000 0.000000 0.000000
0.284813 -0.493277 2.158745 0.000000 0.000000 0.000000
-0.113312 1.978781 1.826218 0.000000 0.000000 0.000000
-0.089974 1.972671 1.838490 0.000000 0.000000 0.000000
-0.103991 1.963741 1.837963 0.000000 0.000000 0.000000
0.312867 -0.478915 2.153705 0.000000 0.000000 0.000000
0.317471 -0.483784 2.159200 0.000000 0.000000 0.000000
0.310275 -0.518425 2.151434 0.000000 0.000000 0.000000
-0.117100 1.993163 1.812248 0.000000 0.000000 0.000000
-0.102111 1.964463 1.817660 0.000000 0.000000 0.000000
0.281232 -0.501481 2.147673 0.000000 0.000000 0.000000
-0.124850 1.988776 1.802947 0.000000 0.000000 0.000000
0.311014 -0.491193 2.144575 0.000000 0.000000 0.000000
-0.110339 1.979726 1.833561 0.000000 0.000000 0.000000
0.309280 -0.482891 2.146908 0.000000 0.000000 0.000000
-0.128263 1.988229 1.823260 0.000000 0.000000 0.000000
0.299230 -0.512096 2.146958 0.000000 0.000000 0.000000
0.305294 -0.503693 2.153427 0.000000 0.000000 0.000000
0.306209 -0.487548 2.147862 0.000000 0.000000 0.000000
-0.117449 1.993555 1.806743 0.000000 0.000000 0.000000
0.316837 -0.475180 2.148723 0.000000 0.000000 0.000000
0.301295 -0.518056 2.140923 0.000000 0.000000 0.000000
0.285388 -0.505281 2.143559 0.000000 0.000000 0.000000
0.319893 -0.482051 2.149287 0.000000 0.000000 0.000000
-0.121741 1.985005 1.815223 0.000000 0.000000 0.000000
0.318100 -0.477619 2.144847 0.000000 0.000000 0.000000
-0.119965 1.989586 1.813700 0.000000 0.000000 0.000000
-0.128100 2.016564 1.798749 0.000000 0.000000 0.000000
-0.120250 1.984878 1.829735 0.000000 0.000000 0.000000
0.322374 -0.476801 2.143825 0.000000 0.000000 0.000000
-0.116927 2.002079 1.811182 0.000000 0.000000 0.000000
0.317967 -0.460491 2.139220 0.000000 0.000000 0.000000
-0.123171 1.992215 1.806520 0.000000 0.000000 0.000000
0.312039 -0.470451 2.148147 0.000000 0.000000 0.000000
0.323639 -0.475160 2.135416 0.000000 0.000000 0.000000
0.325384 -0.474080 2.147579 0.000000 0.000000 0.000000
0.322223 -0.477674 2.142081 0.000000 0.000000 0.000000
0.302916 -0.503955 2.152311 0.000000 0.000000 0.000000
-0.122773 1.988745 1.812928 0.000000 0.000000 0.000000
-0.125569 1.990605 1.827754 0.000000 0.000000 0.000000
-0.118139 1.984458 1.831033 0.000000 0.000000 0.000000
-0.124086 2.026886 1.788698 0.000000 0.000000 0.000000
0.312253 -0.480845 2.141906 0.000000 0.000000 0.000000
-0.112674 1.976748 1.834438 0.000000 0.000000 0.000000
-0.123671 1.986071 1.832112 0.000000 0.000000 0.000000
-0.123920 2.010486 1.791858 0.000000 0.000000 0.000000
-0.123824 1.993256 1.835570 0.000000 0.000000 0.000000
-0.098255 1.966142 1.832775 0.000000 0.000000 0.000000
-0.120839 1.991328 1.810119 0.000000 0.000000 0.000000
-0.121382 1.996286 1.803948 0.000000 0.000000 0.000000
0.275505 -0.494309 2.136567 0.000000 0.000000 0.000000
-0.122273 2.013323 1.795659 0.000000 0.000000 0.000000
-0.127144 1.995303 1.808521 0.000000 0.000000 0.000000
0.330148 -0.459413 2.149955 0.000000 0.000000 0.000000
0.300641 -0.511047 2.151547 0.000000 0.000000 0.000000
0.317447 -0.468663 2.151912 0.000000 0.000000 0.000000
0.314958 -0.476315 2.149223 0.000000 0.000000 0.000000
0.313657 -0.481256 2.156321 0.000000 0.000000 0.000000
-0.120647 2.015169 1.798826 0.000000 0.000000 0.000000
0.304542 -0.481683 2.151993 0.000000 0.000000 0.000000
-0.102645 1.960081 1.828577 0.000000 0.000000 0.000000
0.295727 -0.515183 2.151414 0.000000 0.000000 0.000000
-0.102520 1.971291 1.835724 0.000000 0.000000 0.000000
-0.096273 1.970738 1.837875 0.000000 0.000000 0.000000
-0.093510 1.962359 1.838507 0.000000 0.000000 0.000000
-0.124718 1.999962 1.834679 0.000000 0.000000 0.000000
0.327192 -0.468786 2.149741 0.000000 0.000000 0.000000
-0.125650 1.992192 1.806864 0.000000 0.000000 0.000000
0.317464 -0.466415 2.147941 0.000000 0.000000 0.000000
0.284947 -0.504852 2.142430 0.000000 0.000000 0.000000
0.282207 -0.503435 2.136950 0.000000 0.000000 0.000000
0.261328 -0.496648 2.140939 0.000000 0.000000 0.000000
-0.085155 1.969078 1.835713 0.000000 0.000000 0.000000
0.300167 -0.516660 2.146799 0.000000 0.000000 0.000000
0.270414 -0.499535 2.142698 0.000000 0.000000 0.000000
0.303027 -0.516689 2.152847 0.000000 0.000000 0.000000
0.282630 -0.505038 2.144695 0.000000 0.000000 0.000000
0.313100 -0.490296 2.157036 0.000000 0.000000 0.000000
-0.117414 1.981979 1.833536 0.000000 0.000000 0.000000
-0.097283 1.969258 1.835736 0.000000 0.000000 0.000000
0.308810 -0.495221 2.152698 0.000000 0.000000 0.000000
0.322022 -0.477109 2.153093 0.000000 0.000000 0.000000
0.333611 -0.479676 2.157442 0.000000 0.000000 0.000000
0.326073 -0.475557 2.145587 0.000000 0.000000 0.000000
0.285249 -0.491562 2.140305 0.000000 0.000000 0.000000
-0.103408 1.970616 1.839644 0.000000 0.000000 0.000000
0.322703 -0.478092 2.152085 0.000000 0.000000 0.000000
0.275152 -0.493683 2.149729 0.000000 0.000000 0.000000
0.327279 -0.476254 2.144294 0.000000 0.000000 0.000000
-0.098842 1.969732 1.832326 0.000000 0.000000 0.000000
-0.083621 1.980162 1.833880 0.000000 0.000000 0.000000
-0.118792 2.000920 1.806256 0.000000 0.000000 0.000000
-0.082455 1.975363 1.831376 0.000000 0.000000 0.000000
-0.092932 1.966060 1.837841 0.000000 0.000000 0.000000
-0.114481 1.985607 1.814432 0.000000 0.000000 0.000000
0.288944 -0.511586 2.144871 0.000000 0.000000 0.000000
-0.124892 2.013151 1.799386 0.000000 0.000000 0.000000
0.290843 -0.510581 2.150274 0.000000 0.000000 0.000000
-0.123221 2.009899 1.799042 0.000000 0.000000 0.000000
0.316596 -0.470671 2.155462 0.000000 0.000000 0.000000
-0.120870 2.010909 1.799011 0.000000 0.000000 0.000000
-0.121488 2.021122 1.799124 0.000000 0.000000 0.000000
-0.122546 1.988249 1.837335 0.000000 0.000000 0.000000
-0.126382 2.002265 1.803746 0.000000 0.000000 0.000000
-0.122035 2.014330 1.802638 0.000000 0.000000 0.000000
-0.107661 1.975166 1.833688 0.000000 0.000000 0.000000
-0.129730 1.986040 1.830782 0.000000 0.000000 0.000000
-0.118040 1.985513 1.834647 0.000000 0.000000 0.000000
-0.124432 2.011825 1.800779 0.000000 0.000000 0.000000
-0.126768 2.009044 1.796881 0.000000 0.000000 0.000000
-0.118533 1.984228 1.815466 0.000000 0.000000 0.000000
-0.126733 2.002496 1.797019 0.000000 0.000000 0.000000
-0.122782 1.984670 1.809644 0.000000 0.000000 0.000000
-0.118417 2.000724 1.808935 0.000000 0.000000 0.000000
0.277808 -0.498546 2.144572 0.000000 0.000000 0.000000
-0.126492 2.015483 1.792624 0.000000 0.000000 0.000000
-0.128769 2.005891 1.797073 0.000000 0.000000 0.000000
-0.118667 2.007514 1.806126 0.000000 0.000000 0.000000
-0.111661 1.976695 1.828043 0.000000 0.000000 0.000000
0.320173 -0.474349 2.144398 0.000000 0.000000 0.000000
0.318514 -0.470615 2.147145 0.000000 0.000000 0.000000
0.295294 -0.505962 2.135186 0.000000 0.000000 0.000000
0.288640 -0.497379 2.159192 0.000000 0.000000 0.000000
0.323154 -0.468355 2.151877 0.000000 0.000000 0.000000
-0.097570 1.966978 1.834251 0.000000 0.000000 0.000000
0.321847 -0.465427 2.148665 0.000000 0.000000 0.000000
0.308978 -0.478170 2.144749 0.000000 0.000000 0.000000
-0.122573 1.996198 1.805635 0.000000 0.000000 0.000000
0.323947 -0.472314 2.152010 0.000000 0.000000 0.000000
-0.116818 1.999423 1.811714 0.000000 0.000000 0.000000
0.323195 -0.459839 2.148950 0.000000 0.000000 0.000000
-0.113103 1.983836 1.819692 0.000000 0.000000 0.000000
-0.117613 1.984677 1.813979 0.000000 0.000000 0.000000
0.325774 -0.472228 2.151390 0.000000 0.000000 0.000000
0.285557 -0.509532 2.154528 0.000000 0.000000 0.000000
0.308566 -0.511706 2.147218 0.000000 0.000000 0.000000
0.322031 -0.468572 2.156400 0.000000 0.000000 0.000000
0.284253 -0.510005 2.150735 0.000000 0.000000 0.000000
0.300529 -0.511758 2.154441 0.000000 0.000000 0.000000
-0.080320 1.986511 1.823417 0.000000 0.000000 0.000000
0.300372 -0.511530 2.151258 0.000000 0.000000 0.000000
-0.120537 2.002396 1.802779 0.000000 0.000000 0.000000
0.282485 -0.507312 2.147146 0.000000 0.000000 0.000000
-0.115582 1.985376 1.816092 0.000000 0.000000 0.000000
-0.114775 1.986290 1.821370 0.000000 0.000000 0.000000
-0.114622 1.978680 1.823130 0.000000 0.000000 0.000000
-0.116031 1.980889 1.825924 0.000000 0.000000 0.000000
-0.112628 1.981448 1.820751 0.000000 0.000000 0.000000
-0.128281 1.991963 1.833347 0.000000 0.000000 0.000000
0.300470 -0.509879 2.148601 0.000000 0.000000 0.000000
0.302588 -0.509321 2.156843 0.000000 0.000000 0.000000
0.320806 -0.478273 2.137472 0.000000 0.000000 0.000000
-0.124062 2.023505 1.792555 0.000000 0.000000 0.000000
-0.119719 2.025687 1.790269 0.000000 0.000000 0.000000
-0.122699 2.018997 1.791602 0.000000 0.000000 0.000000
-0.117099 1.996715 1.797888 0.000000 0.000000 0.000000
-0.123266 2.022561 1.791617 0.000000 0.000000 0.000000
-0.124891 2.017261 1.794269 0.000000 0.000000 0.000000
0.278666 -0.501558 2.131753 0.000000 0.000000 0.000000
-0.123235 2.019230 1.797028 0.000000 0.000000 0.000000
-0.125419 2.020042 1.794971 0.000000 0.000000 0.000000
-0.120922 2.013098 1.799126 0.000000 0.000000 0.000000
-0.120039 2.011918 1.807010 0.000000 0.000000 0.000000
0.287776 -0.503308 2.141821 0.000000 0.000000 0.000000
0.294806 -0.512591 2.150260 0.000000 0.000000 0.000000
0.291321 -0.516400 2.148696 0.000000 0.000000 0.000000
-0.122534 1.989361 1.835299 0.000000 0.000000 0.000000
0.310010 -0.481849 2.152392 0.000000 0.000000 0.000000
0.277428 -0.500351 2.145878 0.000000 0.000000 0.000000
-0.121200 2.021637 1.794946 0.000000 0.000000 0.000000
-0.089349 1.967670 1.834003 0.000000 0.000000 0.000000
-0.101260 1.970063 1.829958 0.000000 0.000000 0.000000
-0.098419 1.969493 1.829068 0.000000 0.000000 0.000000
-0.083659 1.966288 1.829504 0.000000 0.000000 0.000000
-0.103924 1.975624 1.823428 0.000000 0.000000 0.000000
-0.088503 1.963284 1.830413 0.000000 0.000000 0.000000
-0.113984 1.978640 1.818567 0.000000 0.000000 0.000000
0.272471 -0.498264 2.146306 0.000000 0.000000 0.000000
-0.104769 1.966759 1.817965 0.000000 0.000000 0.000000
0.276433 -0.493571 2.151548 0.000000 0.000000 0.000000
0.284016 -0.512037 2.152287 0.000000 0.000000 0.000000
0.319474 -0.487565 2.151227 0.000000 0.000000 0.000000
0.307605 -0.516661 2.143456 0.000000 0.000000 0.000000
0.324569 -0.468655 2.153538 0.000000 0.000000 0.000000
0.317528 -0.485304 2.153241 0.000000 0.000000 0.000000
0.316125 -0.485054 2.155111 0.000000 0.000000 0.000000
0.316145 -0.477725 2.149584 0.000000 0.000000 0.000000
0.285779 -0.508459 2.138625 0.000000 0.000000 0.000000
0.302334 -0.514329 2.145507 0.000000 0.000000 0.000000
0.310638 -0.486169 2.153318 0.000000 0.000000 0.000000
0.321627 -0.467422 2.142325 0.000000 0.000000 0.000000
0.317999 -0.476617 2.153309 0.000000 0.000000 0.000000
0.302690 -0.511634 2.149530 0.000000 0.000000 0.000000
0.319067 -0.475459 2.154599 0.000000 0.000000 0.000000
0.318467 -0.472730 2.140473 0.000000 0.000000 0.000000
-0.120648 1.982564 1.826924 0.000000 0.000000 0.000000
-0.121801 1.988431 1.828987 0.000000 0.000000 0.000000
-0.112727 1.980216 1.833310 0.000000 0.000000 0.000000
-0.120500 1.982497 1.830574 0.000000 0.000000 0.000000
0.275051 -0.497827 2.137031 0.000000 0.000000 0.000000
-0.118141 1.993310 1.811922 0.000000 0.000000 0.000000
-0.123370 1.986279 1.830111 0.000000 0.000000 0.000000
-0.123748 1.989001 1.835900 0.000000 0.000000 0.000000
-0.119833 1.983187 1.831983 0.000000 0.000000 0.000000
0.322727 -0.468305 2.150963 0.000000 0.000000 0.000000
-0.119015 1.979034 1.833072 0.000000 0.000000 0.000000
0.312778 -0.485062 2.155301 0.000000 0.000000 0.000000
-0.121832 2.011092 1.799846 0.000000 0.000000 0.000000
-0.113523 1.982883 1.820069 0.000000 0.000000 0.000000
-0.124265 2.016241 1.798544 0.000000 0.000000 0.000000
-0.104889 1.962040 1.830003 0.000000 0.000000 0.000000
-0.119416 2.002848 1.804247 0.000000 0.000000 0.000000
0.319694 -0.515215 2.138504 0.000000 0.000000 0.000000
-0.116593 1.988474 1.810833 0.000000 0.000000 0.000000
-0.122605 2.017930 1.791309 0.000000 0.000000 0.000000
-0.126844 1.991741 1.833261 0.000000 0.000000 0.000000
-0.123020 2.016255 1.792448 0.000000 0.000000 0.000000
-0.124499 1.988777 1.829603 0.000000 0.000000 0.000000
0.318209 -0.480450 2.156468 0.000000 0.000000 0.000000
-0.123314 1.988423 1.806748 0.000000 0.000000 0.000000
0.298270 -0.518520 2.151895 0.000000 0.000000 0.000000
-0.124023 1.988181 1.832788 0.000000 0.000000 0.000000
0.275111 -0.493361 2.146436 0.000000 0.000000 0.000000
0.329824 -0.467529 2.144031 0.000000 0.000000 0.000000
0.276593 -0.497468 2.140965 0.000000 0.000000 0.000000
0.322719 -0.469198 2.150068 0.000000 0.000000 0.000000
0.287333 -0.502977 2.141994 0.000000 0.000000 0.000000
-0.123987 2.020447 1.788922 0.000000 0.000000 0.000000
0.273079 -0.496262 2.130758 0.000000 0.000000 0.000000
-0.120941 1.991495 1.810593 0.000000 0.000000 0.000000
-0.119934 2.013067 1.798674 0.000000 0.000000 0.000000
-0.122457 2.024192 1.794190 0.000000 0.000000 0.000000
-0.118281 2.007988 1.802194 0.000000 0.000000 0.000000
-0.126597 2.002936 1.802110 0.000000 0.000000 0.000000
0.308005 -0.476981 2.150248 0.000000 0.000000 0.000000
0.309385 -0.485541 2.145238 0.000000 0.000000 0.000000
0.319805 -0.477789 2.143151 0.000000 0.000000 0.000000
0.310434 -0.476677 2.137143 0.000000 0.000000 0.000000
-0.123474 2.020339 1.795722 0.000000 0.000000 0.000000
-0.125760 2.008104 1.797095 0.000000 0.000000 0.000000
-0.124851 2.013983 1.793189 0.000000 0.000000 0.000000
0.314031 -0.473693 2.145122 0.000000 0.000000 0.000000
0.325942 -0.475346 2.147030 0.000000 0.000000 0.000000
-0.120250 2.010309 1.798604 0.000000 0.000000 0.000000
-0.124241 2.019365 1.795084 0.000000 0.000000 0.000000
-0.119239 2.007783 1.800458 0.000000 0.000000 0.000000
0.321708 -0.477242 2.146282 0.000000 0.000000 0.000000
-0.120773 1.983477 1.806131 0.000000 0.000000 0.000000
-0.123959 2.000253 1.803508 0.000000 0.000000 0.000000
0.315362 -0.475456 2.150844 0.000000 0.000000 0.000000
0.283351 -0.507883 2.151159 0.000000 0.000000 0.000000
0.317821 -0.470492 2.147324 0.000000 0.000000 0.000000
0.275068 -0.501523 2.141379 0.000000 0.000000 0.000000
-0.120285 2.005683 1.803618 0.000000 0.000000 0.000000
0.281327 -0.502511 2.148571 0.000000 0.000000 0.000000
-0.127256 1.995800 1.803781 0.000000 0.000000 0.000000
0.288042 -0.511390 2.152255 0.000000 0.000000 0.000000
0.297742 -0.515470 2.148041 0.000000 0.000000 0.000000
0.283993 -0.503670 2.140993 0.000000 0.000000 0.000000
0.263113 -0.494032 2.138400 0.000000 0.000000 0.000000
0.293587 -0.519827 2.146782 0.000000 0.000000 0.000000
0.274629 -0.496700 2.144313 0.000000 0.000000 0.000000
-0.086175 1.978116 1.832214 0.000000 0.000000 0.000000
0.319653 -0.482976 2.155004 0.000000 0.000000 0.000000
0.291736 -0.518291 2.152456 0.000000 0.000000 0.000000
-0.125480 1.994917 1.832601 0.000000 0.000000 0.000000
0.330416 -0.476943 2.149837 0.000000 0.000000 0.000000
-0.120733 2.009095 1.798497 0.000000 0.000000 0.000000
-0.119996 2.005389 1.802980 0.000000 0.000000 0.000000
-0.083687 1.970866 1.834907 0.000000 0.000000 0.000000
-0.083415 1.981851 1.828527 0.000000 0.000000 0.000000
-0.082077 1.983784 1.826531 0.000000 0.000000 0.000000
-0.119345 1.992452 1.808478 0.000000 0.000000 0.000000
0.265048 -0.496248 2.144083 0.000000 0.000000 0.000000
-0.087470 1.977076 1.831070 0.000000 0.000000 0.000000
-0.119110 1.997873 1.806916 0.000000 0.000000 0.000000
0.261542 -0.494028 2.143084 0.000000 0.000000 0.000000
0.322493 -0.474321 2.146213 0.000000 0.000000 0.000000
0.319978 -0.467732 2.152745 0.000000 0.000000 0.000000
0.331446 -0.463016 2.150833 0.000000 0.000000 0.000000
-0.118070 1.986505 1.816544 0.000000 0.000000 0.000000
0.299681 -0.510144 2.147045 0.000000 0.000000 0.000000
0.300271 -0.495768 2.148608 0.000000 0.000000 0.000000
0.303967 -0.516060 2.146070 0.000000 0.000000 0.000000
-0.117564 2.007202 1.805868 0.000000 0.000000 0.000000
-0.119079 2.013041 1.802553 0.000000 0.000000 0.000000
-0.119032 1.996475 1.813092 0.000000 0.000000 0.000000
-0.119572 2.005286 1.805883 0.000000 0.000000 0.000000
0.317603 -0.479179 2.137762 0.000000 0.000000 0.000000
0.315017 -0.479878 2.149522 0.000000 0.000000 0.000000
0.315365 -0.480748 2.142874 0.000000 0.000000 0.000000
0.318485 -0.485232 2.144719 0.000000 0.000000 0.000000
0.281118 -0.505578 2.159902 0.000000 0.000000 0.000000
0.314346 -0.484197 2.153606 0.000000 0.000000 0.000000
0.280276 -0.509542 2.154643 0.000000 0.000000 0.000000
-0.125419 2.010256 1.795199 0.000000 0.000000 0.000000
-0.126177 2.018733 1.793579 0.000000 0.000000 0.000000
-0.124444 2.017946 1.793375 0.000000 0.000000 0.000000
0.316613 -0.466470 2.156137 0.000000 0.000000 0.000000
0.329587 -0.476179 2.147711 0.000000 0.000000 0.000000
-0.118912 2.003812 1.802930 0.000000 0.000000 0.000000
0.325386 -0.467179 2.156899 0.000000 0.000000 0.000000
-0.117944 1.998073 1.810632 0.000000 0.000000 0.000000
0.313112 -0.516660 2.139063 0.000000 0.000000 0.000000
0.318766 -0.486496 2.148875 0.000000 0.000000 0.000000
-0.113964 1.976673 1.828881 0.000000 0.000000 0.000000
-0.117912 2.009495 1.804172 0.000000 0.000000 0.000000
-0.117862 1.978077 1.830645 0.000000 0.000000 0.000000
-0.117618 1.993917 1.813485 0.000000 0.000000 0.000000
0.268642 -0.497972 2.140136 0.000000 0.000000 0.000000
0.301372 -0.505763 2.150043 0.000000 0.000000 0.000000
0.288121 -0.512466 2.153472 0.000000 0.000000 0.000000
0.272894 -0.501632 2.137702 0.000000 0.000000 0.000000
0.287056 -0.513753 2.147599 0.000000 0.000000 0.000000
-0.127244 1.993344 1.804105 0.000000 0.000000 0.000000
-0.116214 1.984124 1.820141 0.000000 0.000000 0.000000
0.287166 -0.510321 2.150949 0.000000 0.000000 0.000000
0.294188 -0.517355 2.147636 0.000000 0.000000 0.000000
-0.119373 1.992213 1.816184 0.000000 0.000000 0.000000
0.284510 -0.507737 2.155527 0.000000 0.000000 0.000000
0.296044 -0.503797 2.142831 0.000000 0.000000 0.000000
0.290899 -0.509690 2.153925 0.000000 0.000000 0.000000
0.288084 -0.513878 2.145442 0.000000 0.000000 0.000000
-0.080048 1.960526 1.828994 0.000000 0.000000 0.000000
0.297595 -0.517515 2.148206 0.000000 0.000000 0.000000
0.285884 -0.516520 2.150290 0.000000 0.000000 0.000000
-0.125670 2.025636 1.786089 0.000000 0.000000 0.000000
0.322957 -0.474659 2.146000 0.000000 0.000000 0.000000
-0.127044 1.994058 1.835119 0.000000 0.000000 0.000000
0.326035 -0.471716 2.144730 0.000000 0.000000 0.000000
0.303146 -0.518193 2.153757 0.000000 0.000000 0.000000
-0.118233 2.002799 1.807425 0.000000 0.000000 0.000000
-0.121291 2.014944 1.800102 0.000000 0.000000 0.000000
-0.115771 1.992991 1.811857 0.000000 0.000000 0.000000
-0.116464 2.005031 1.808804 0.000000 0.000000 0.000000
0.322109 -0.463651 2.152753 0.000000 0.000000 0.000000
0.323022 -0.474754 2.146097 0.000000 0.000000 0.000000
-0.115341 1.985247 1.836258 0.000000 0.000000 0.000000
0.316872 -0.518582 2.140420 0.000000 0.000000 0.000000
-0.125734 2.012805 1.791593 0.000000 0.000000 0.000000
-0.120762 2.023697 1.793619 0.000000 0.000000 0.000000
-0.123357 2.017122 1.796212 0.000000 0.000000 0.000000
0.319169 -0.518270 2.134860 0.000000 0.000000 0.000000
-0.114271 1.979961 1.836154 0.000000 0.000000 0.000000
-0.126161 1.999720 1.804237 0.000000 0.000000 0.000000
0.318476 -0.470633 2.152378 0.000000 0.000000 0.000000
0.269309 -0.495473 2.137066 0.000000 0.000000 0.000000
-0.126630 2.006460 1.807961 0.000000 0.000000 0.000000
-0.125355 1.996764 1.805172 0.000000 0.000000 0.000000
0.308907 -0.490006 2.151031 0.000000 0.000000 0.000000
0.269682 -0.500596 2.136239 0.000000 0.000000 0.000000
-0.100372 1.968192 1.827904 0.000000 0.000000 0.000000
-0.102487 1.966737 1.831249 0.000000 0.000000 0.000000
-0.104662 1.968321 1.834047 0.000000 0.000000 0.000000
-0.101269 1.963500 1.830447 0.000000 0.000000 0.000000
-0.113258 1.987241 1.817586 0.000000 0.000000 0.000000
-0.120706 1.980216 1.831857 0.000000 0.000000 0.000000
-0.116303 1.992420 1.814732 0.000000 0.000000 0.000000
-0.114311 1.976241 1.832486 0.000000 0.000000 0.000000
-0.101543 1.965830 1.829401 0.000000 0.000000 0.000000
-0.105367 1.971028 1.830770 0.000000 0.000000 0.000000
-0.104150 1.969244 1.831835 0.000000 0.000000 0.000000
-0.101861 1.970557 1.837437 0.000000 0.000000 0.000000
-0.107104 1.973708 1.831910 0.000000 0.000000 0.000000
-0.110900 1.972363 1.829727 0.000000 0.000000 0.000000
-0.107135 1.971190 1.838273 0.000000 0.000000 0.000000
0.281454 -0.503495 2.141618 0.000000 0.000000 0.000000
0.283641 -0.501863 2.144640 0.000000 0.000000 0.000000
0.279718 -0.498716 2.136034 0.000000 0.000000 0.000000
0.323362 -0.469540 2.151363 0.000000 0.000000 0.000000
0.303152 -0.511939 2.155206 0.000000 0.000000 0.000000
0.282613 -0.505829 2.140798 0.000000 0.000000 0.000000
0.271852 -0.494124 2.147668 0.000000 0.000000 0.000000
0.323732 -0.469231 2.155414 0.000000 0.000000 0.000000
0.296751 -0.515828 2.156865 0.000000 0.000000 0.000000
0.301076 -0.509916 2.156780 0.000000 0.000000 0.000000
0.274805 -0.499145 2.149878 0.000000 0.000000 0.000000
0.325647 -0.470638 2.159707 0.000000 0.000000 0.000000
0.280342 -0.499176 2.136255 0.000000 0.000000 0.000000
0.322677 -0.464225 2.154985 0.000000 0.000000 0.000000
0.322577 -0.470586 2.150889 0.000000 0.000000 0.000000
0.299077 -0.513312 2.159545 0.000000 0.000000 0.000000
0.304374 -0.500578 2.148370 0.000000 0.000000 0.000000
0.300099 -0.515527 2.147832 0.000000 0.000000 0.000000
0.302634 -0.499426 2.148626 0.000000 0.000000 0.000000
0.277193 -0.496767 2.129117 0.000000 0.000000 0.000000
0.332471 -0.479364 2.151426 0.000000 0.000000 0.000000
0.315908 -0.474897 2.155900 0.000000 0.000000 0.000000
0.328899 -0.476785 2.148200 0.000000 0.000000 0.000000
0.325960 -0.479082 2.146877 0.000000 0.000000 0.000000
0.321766 -0.466982 2.149031 0.000000 0.000000 0.000000
0.325869 -0.475563 2.148912 0.000000 0.000000 0.000000
0.327120 -0.463503 2.147997 0.000000 0.000000 0.000000
-0.117069 1.996700 1.813800 0.000000 0.000000 0.000000
0.326697 -0.477051 2.150178 0.000000 0.000000 0.000000
0.279216 -0.501845 2.134642 0.000000 0.000000 0.000000
0.315281 -0.479883 2.148587 0.000000 0.000000 0.000000
0.278283 -0.493440 2.135165 0.000000 0.000000 0.000000
0.328616 -0.476333 2.149173 0.000000 0.000000 0.000000
0.320488 -0.473763 2.144779 0.000000 0.000000 0.000000
0.278084 -0.500770 2.138641 0.000000 0.000000 0.000000
-0.125826 2.016836 1.794786 0.000000 0.000000 0.000000
0.277981 -0.502921 2.136626 0.000000 0.000000 0.000000
0.284815 -0.505807 2.129317 0.000000 0.000000 0.000000
0.279792 -0.493982 2.127135 0.000000 0.000000 0.000000
-0.125797 2.021200 1.792762 0.000000 0.000000 0.000000
0.328050 -0.473963 2.158780 0.000000 0.000000 0.000000
