ply
format ascii 1.0
comment VCGLIB generated
obj_info Generated by SPFormer!
element vertex 323
property float x
property float y
property float z
property float nx
property float ny
property float nz
end_header
0.471610 0.402998 1.351686 0.000000 0.000000 0.000000
0.469875 0.404752 1.355699 0.000000 0.000000 0.000000
0.469926 0.404157 1.366078 0.000000 0.000000 0.000000
0.469294 0.400265 1.348654 0.000000 0.000000 0.000000
0.463973 0.395666 1.374540 0.000000 0.000000 0.000000
0.452699 0.438147 1.362086 0.000000 0.000000 0.000000
0.459462 0.420923 1.364263 0.000000 0.000000 0.000000
0.474302 0.403929 1.354788 0.000000 0.000000 0.000000
0.478752 0.398252 1.355037 0.000000 0.000000 0.000000
0.470764 0.398910 1.349162 0.000000 0.000000 0.000000
0.460022 0.401637 1.354607 0.000000 0.000000 0.000000
0.468228 0.401723 1.351399 0.000000 0.000000 0.000000
0.466391 0.414052 1.360279 0.000000 0.000000 0.000000
0.451935 0.428086 1.366422 0.000000 0.000000 0.000000
0.465379 0.409479 1.359560 0.000000 0.000000 0.000000
0.457483 0.415897 1.361735 0.000000 0.000000 0.000000
0.461526 0.404260 1.362563 0.000000 0.000000 0.000000
0.466071 0.415029 1.358446 0.000000 0.000000 0.000000
0.445367 0.429743 1.364678 0.000000 0.000000 0.000000
0.475487 0.401419 1.354134 0.000000 0.000000 0.000000
0.454388 0.423018 1.362223 0.000000 0.000000 0.000000
0.474940 0.400932 1.354488 0.000000 0.000000 0.000000
0.443924 0.431405 1.371679 0.000000 0.000000 0.000000
0.468626 0.400202 1.355485 0.000000 0.000000 0.000000
0.471204 0.398657 1.350893 0.000000 0.000000 0.000000
0.463723 0.410650 1.359776 0.000000 0.000000 0.000000
0.444589 0.436748 1.371987 0.000000 0.000000 0.000000
0.460193 0.396279 1.364216 0.000000 0.000000 0.000000
0.459412 0.417681 1.353402 0.000000 0.000000 0.000000
0.475274 0.404750 1.370928 0.000000 0.000000 0.000000
0.465383 0.417803 1.360890 0.000000 0.000000 0.000000
0.472039 0.403780 1.367283 0.000000 0.000000 0.000000
0.475279 0.401261 1.354230 0.000000 0.000000 0.000000
0.446604 0.432597 1.366512 0.000000 0.000000 0.000000
0.456749 0.431022 1.371934 0.000000 0.000000 0.000000
0.477778 0.399913 1.353894 0.000000 0.000000 0.000000
0.478329 0.404388 1.356381 0.000000 0.000000 0.000000
0.461624 0.407590 1.349330 0.000000 0.000000 0.000000
0.480965 0.400059 1.371006 0.000000 0.000000 0.000000
0.469596 0.405319 1.369280 0.000000 0.000000 0.000000
0.471817 0.401110 1.346859 0.000000 0.000000 0.000000
0.463777 0.418774 1.364027 0.000000 0.000000 0.000000
0.443566 0.439843 1.372431 0.000000 0.000000 0.000000
0.468117 0.403156 1.349362 0.000000 0.000000 0.000000
0.472326 0.405630 1.364998 0.000000 0.000000 0.000000
0.446985 0.435022 1.373485 0.000000 0.000000 0.000000
0.481409 0.401376 1.370630 0.000000 0.000000 0.000000
0.477625 0.401288 1.355411 0.000000 0.000000 0.000000
0.467114 0.416588 1.356168 0.000000 0.000000 0.000000
0.463787 0.416920 1.360438 0.000000 0.000000 0.000000
0.455137 0.424153 1.369339 0.000000 0.000000 0.000000
0.475885 0.404899 1.350819 0.000000 0.000000 0.000000
0.474616 0.405863 1.356799 0.000000 0.000000 0.000000
0.469645 0.408514 1.360866 0.000000 0.000000 0.000000
0.463307 0.397691 1.367209 0.000000 0.000000 0.000000
0.480140 0.417406 1.377213 0.000000 0.000000 0.000000
0.458726 0.423307 1.368397 0.000000 0.000000 0.000000
0.449297 0.435236 1.366804 0.000000 0.000000 0.000000
0.446038 0.437370 1.364099 0.000000 0.000000 0.000000
0.472142 0.411666 1.367442 0.000000 0.000000 0.000000
0.455055 0.401968 1.353115 0.000000 0.000000 0.000000
0.472819 0.403473 1.354499 0.000000 0.000000 0.000000
0.471865 0.401156 1.370574 0.000000 0.000000 0.000000
0.474142 0.419245 1.365268 0.000000 0.000000 0.000000
0.473866 0.393382 1.375376 0.000000 0.000000 0.000000
0.458461 0.394571 1.363517 0.000000 0.000000 0.000000
0.443516 0.430586 1.366643 0.000000 0.000000 0.000000
0.464949 0.411489 1.354944 0.000000 0.000000 0.000000
0.449050 0.431324 1.366592 0.000000 0.000000 0.000000
0.470492 0.394803 1.353398 0.000000 0.000000 0.000000
0.467512 0.413573 1.364641 0.000000 0.000000 0.000000
0.458316 0.394326 1.362225 0.000000 0.000000 0.000000
0.471125 0.406547 1.369236 0.000000 0.000000 0.000000
0.461328 0.416083 1.360384 0.000000 0.000000 0.000000
0.471266 0.410527 1.365854 0.000000 0.000000 0.000000
0.481002 0.400771 1.371064 0.000000 0.000000 0.000000
0.458099 0.392364 1.365989 0.000000 0.000000 0.000000
0.462756 0.416087 1.356291 0.000000 0.000000 0.000000
0.459052 0.393347 1.366142 0.000000 0.000000 0.000000
0.469623 0.410261 1.359822 0.000000 0.000000 0.000000
0.440037 0.425809 1.367788 0.000000 0.000000 0.000000
0.445595 0.436256 1.365769 0.000000 0.000000 0.000000
0.452978 0.427096 1.364133 0.000000 0.000000 0.000000
0.471885 0.404966 1.368162 0.000000 0.000000 0.000000
0.470160 0.410853 1.364334 0.000000 0.000000 0.000000
0.443841 0.425940 1.366571 0.000000 0.000000 0.000000
0.462001 0.395702 1.364479 0.000000 0.000000 0.000000
0.458698 0.393395 1.363066 0.000000 0.000000 0.000000
0.465918 0.404536 1.344517 0.000000 0.000000 0.000000
0.440509 0.434869 1.360638 0.000000 0.000000 0.000000
0.468823 0.403881 1.361909 0.000000 0.000000 0.000000
0.459317 0.396286 1.356147 0.000000 0.000000 0.000000
0.441148 0.425685 1.367973 0.000000 0.000000 0.000000
0.467363 0.405435 1.374567 0.000000 0.000000 0.000000
0.468325 0.402395 1.347641 0.000000 0.000000 0.000000
0.479084 0.398449 1.372153 0.000000 0.000000 0.000000
0.465389 0.392801 1.369394 0.000000 0.000000 0.000000
0.467103 0.407044 1.369527 0.000000 0.000000 0.000000
0.460104 0.398896 1.357882 0.000000 0.000000 0.000000
0.456356 0.425236 1.359613 0.000000 0.000000 0.000000
0.462083 0.416487 1.358178 0.000000 0.000000 0.000000
0.470051 0.403603 1.361339 0.000000 0.000000 0.000000
0.443865 0.429727 1.370127 0.000000 0.000000 0.000000
0.460275 0.410221 1.350513 0.000000 0.000000 0.000000
0.463867 0.417463 1.348579 0.000000 0.000000 0.000000
0.456025 0.394435 1.356371 0.000000 0.000000 0.000000
0.467999 0.397430 1.369768 0.000000 0.000000 0.000000
0.457943 0.393174 1.364393 0.000000 0.000000 0.000000
0.462242 0.401018 1.353417 0.000000 0.000000 0.000000
0.462590 0.398150 1.360542 0.000000 0.000000 0.000000
0.465443 0.401712 1.361614 0.000000 0.000000 0.000000
0.470968 0.401060 1.346497 0.000000 0.000000 0.000000
0.469676 0.407955 1.363093 0.000000 0.000000 0.000000
0.473247 0.399826 1.372812 0.000000 0.000000 0.000000
0.475474 0.402159 1.355011 0.000000 0.000000 0.000000
0.456006 0.396451 1.357839 0.000000 0.000000 0.000000
0.471437 0.402262 1.356553 0.000000 0.000000 0.000000
0.473236 0.405951 1.364784 0.000000 0.000000 0.000000
0.452793 0.427616 1.370635 0.000000 0.000000 0.000000
0.471923 0.405096 1.368472 0.000000 0.000000 0.000000
0.465800 0.405419 1.365040 0.000000 0.000000 0.000000
0.481033 0.400016 1.371272 0.000000 0.000000 0.000000
0.456024 0.422937 1.359942 0.000000 0.000000 0.000000
0.480023 0.399244 1.351429 0.000000 0.000000 0.000000
0.455495 0.420130 1.367755 0.000000 0.000000 0.000000
0.453861 0.423683 1.368772 0.000000 0.000000 0.000000
0.440500 0.435443 1.369226 0.000000 0.000000 0.000000
0.473544 0.401623 1.355364 0.000000 0.000000 0.000000
0.460056 0.418986 1.358483 0.000000 0.000000 0.000000
0.458985 0.417716 1.360263 0.000000 0.000000 0.000000
0.457230 0.392345 1.363676 0.000000 0.000000 0.000000
0.471917 0.400769 1.347558 0.000000 0.000000 0.000000
0.473056 0.402922 1.354654 0.000000 0.000000 0.000000
0.458986 0.393418 1.366983 0.000000 0.000000 0.000000
0.460170 0.401558 1.349969 0.000000 0.000000 0.000000
0.480123 0.400303 1.348665 0.000000 0.000000 0.000000
0.463533 0.398442 1.354430 0.000000 0.000000 0.000000
0.458695 0.393469 1.357206 0.000000 0.000000 0.000000
0.469637 0.408477 1.362558 0.000000 0.000000 0.000000
0.472455 0.398658 1.346074 0.000000 0.000000 0.000000
0.468261 0.397050 1.367195 0.000000 0.000000 0.000000
0.476446 0.405172 1.370145 0.000000 0.000000 0.000000
0.467934 0.398724 1.366611 0.000000 0.000000 0.000000
0.468220 0.413183 1.350102 0.000000 0.000000 0.000000
0.472382 0.406513 1.367295 0.000000 0.000000 0.000000
0.441790 0.436983 1.362391 0.000000 0.000000 0.000000
0.444833 0.413120 1.361734 0.000000 0.000000 0.000000
0.470442 0.408215 1.366111 0.000000 0.000000 0.000000
0.440216 0.436169 1.373336 0.000000 0.000000 0.000000
0.461773 0.402073 1.353096 0.000000 0.000000 0.000000
0.440858 0.436028 1.365045 0.000000 0.000000 0.000000
0.456507 0.395558 1.358231 0.000000 0.000000 0.000000
0.456524 0.417489 1.377553 0.000000 0.000000 0.000000
0.457815 0.392741 1.364907 0.000000 0.000000 0.000000
0.462685 0.415725 1.352226 0.000000 0.000000 0.000000
0.467806 0.410104 1.371080 0.000000 0.000000 0.000000
0.471451 0.405957 1.363326 0.000000 0.000000 0.000000
0.476518 0.400261 1.354046 0.000000 0.000000 0.000000
0.475918 0.401134 1.354811 0.000000 0.000000 0.000000
0.482146 0.418015 1.375775 0.000000 0.000000 0.000000
0.465420 0.407086 1.355887 0.000000 0.000000 0.000000
0.470729 0.399525 1.368820 0.000000 0.000000 0.000000
0.471220 0.398758 1.348928 0.000000 0.000000 0.000000
0.478324 0.399628 1.354396 0.000000 0.000000 0.000000
0.440885 0.428430 1.369397 0.000000 0.000000 0.000000
0.447548 0.435815 1.365677 0.000000 0.000000 0.000000
0.468543 0.408948 1.363078 0.000000 0.000000 0.000000
0.470189 0.409675 1.366983 0.000000 0.000000 0.000000
0.471669 0.400986 1.366303 0.000000 0.000000 0.000000
0.468714 0.413086 1.363539 0.000000 0.000000 0.000000
0.467926 0.402128 1.345264 0.000000 0.000000 0.000000
0.468536 0.413009 1.366778 0.000000 0.000000 0.000000
0.462757 0.408158 1.349978 0.000000 0.000000 0.000000
0.470563 0.397899 1.370204 0.000000 0.000000 0.000000
0.469528 0.400974 1.365844 0.000000 0.000000 0.000000
0.459125 0.387490 1.370324 0.000000 0.000000 0.000000
0.456696 0.401797 1.351469 0.000000 0.000000 0.000000
0.460178 0.396478 1.358394 0.000000 0.000000 0.000000
0.456193 0.399848 1.352982 0.000000 0.000000 0.000000
0.471175 0.397881 1.345914 0.000000 0.000000 0.000000
0.454813 0.391745 1.365129 0.000000 0.000000 0.000000
0.466233 0.413397 1.363393 0.000000 0.000000 0.000000
0.462576 0.390568 1.360398 0.000000 0.000000 0.000000
0.470207 0.400168 1.344601 0.000000 0.000000 0.000000
0.459557 0.406781 1.345297 0.000000 0.000000 0.000000
0.456981 0.399288 1.354377 0.000000 0.000000 0.000000
0.468004 0.402574 1.363153 0.000000 0.000000 0.000000
0.457950 0.403689 1.358155 0.000000 0.000000 0.000000
0.467880 0.407855 1.375514 0.000000 0.000000 0.000000
0.457852 0.392800 1.365783 0.000000 0.000000 0.000000
0.453303 0.393200 1.359415 0.000000 0.000000 0.000000
0.457649 0.422566 1.359461 0.000000 0.000000 0.000000
0.450231 0.435118 1.366116 0.000000 0.000000 0.000000
0.453544 0.427732 1.365390 0.000000 0.000000 0.000000
0.448819 0.427351 1.367031 0.000000 0.000000 0.000000
0.448268 0.438105 1.369292 0.000000 0.000000 0.000000
0.449618 0.428685 1.370459 0.000000 0.000000 0.000000
0.456078 0.426804 1.374818 0.000000 0.000000 0.000000
0.472056 0.404871 1.368032 0.000000 0.000000 0.000000
0.473943 0.404518 1.367467 0.000000 0.000000 0.000000
0.448926 0.436151 1.369876 0.000000 0.000000 0.000000
0.473658 0.407376 1.367430 0.000000 0.000000 0.000000
0.469674 0.401105 1.344373 0.000000 0.000000 0.000000
0.475918 0.406993 1.369687 0.000000 0.000000 0.000000
0.460836 0.399480 1.354048 0.000000 0.000000 0.000000
0.469018 0.406534 1.361461 0.000000 0.000000 0.000000
0.464644 0.394489 1.366970 0.000000 0.000000 0.000000
0.455020 0.419799 1.377864 0.000000 0.000000 0.000000
0.458196 0.394097 1.364809 0.000000 0.000000 0.000000
0.457535 0.397105 1.358748 0.000000 0.000000 0.000000
0.475935 0.394988 1.352545 0.000000 0.000000 0.000000
0.444374 0.435940 1.370144 0.000000 0.000000 0.000000
0.471823 0.404842 1.367548 0.000000 0.000000 0.000000
0.466549 0.411409 1.358177 0.000000 0.000000 0.000000
0.467318 0.414075 1.365131 0.000000 0.000000 0.000000
0.463801 0.417700 1.352912 0.000000 0.000000 0.000000
0.465520 0.404727 1.358193 0.000000 0.000000 0.000000
0.458726 0.420135 1.363316 0.000000 0.000000 0.000000
0.466798 0.403772 1.362375 0.000000 0.000000 0.000000
0.465731 0.416158 1.362723 0.000000 0.000000 0.000000
0.460775 0.404524 1.356316 0.000000 0.000000 0.000000
0.468443 0.411630 1.362257 0.000000 0.000000 0.000000
0.467937 0.408955 1.356167 0.000000 0.000000 0.000000
0.462124 0.415525 1.357602 0.000000 0.000000 0.000000
0.459853 0.409792 1.353608 0.000000 0.000000 0.000000
0.471792 0.406307 1.361685 0.000000 0.000000 0.000000
0.473642 0.402647 1.368377 0.000000 0.000000 0.000000
0.472432 0.408476 1.366340 0.000000 0.000000 0.000000
0.449412 0.427652 1.370631 0.000000 0.000000 0.000000
0.471724 0.400744 1.362939 0.000000 0.000000 0.000000
0.457417 0.424234 1.359050 0.000000 0.000000 0.000000
0.446090 0.424657 1.365560 0.000000 0.000000 0.000000
0.456271 0.425363 1.360884 0.000000 0.000000 0.000000
0.462269 0.418900 1.350138 0.000000 0.000000 0.000000
0.470235 0.407370 1.359415 0.000000 0.000000 0.000000
0.466758 0.407476 1.345069 0.000000 0.000000 0.000000
0.469458 0.404239 1.362003 0.000000 0.000000 0.000000
0.471860 0.410387 1.368928 0.000000 0.000000 0.000000
0.469334 0.402203 1.364107 0.000000 0.000000 0.000000
0.467863 0.397014 1.379854 0.000000 0.000000 0.000000
0.464043 0.393405 1.370134 0.000000 0.000000 0.000000
0.460883 0.402887 1.352792 0.000000 0.000000 0.000000
0.470236 0.396833 1.369551 0.000000 0.000000 0.000000
0.473172 0.392547 1.373738 0.000000 0.000000 0.000000
0.469527 0.402342 1.352659 0.000000 0.000000 0.000000
0.464570 0.406496 1.346328 0.000000 0.000000 0.000000
0.446541 0.435022 1.368186 0.000000 0.000000 0.000000
0.449737 0.437823 1.364576 0.000000 0.000000 0.000000
0.470681 0.400717 1.346330 0.000000 0.000000 0.000000
0.459309 0.416272 1.376574 0.000000 0.000000 0.000000
0.450103 0.428877 1.369373 0.000000 0.000000 0.000000
0.468443 0.400058 1.344621 0.000000 0.000000 0.000000
0.449444 0.433728 1.369276 0.000000 0.000000 0.000000
0.475096 0.395063 1.372455 0.000000 0.000000 0.000000
0.645708 -0.949133 1.395831 0.000000 0.000000 0.000000
0.474507 0.401332 1.354922 0.000000 0.000000 0.000000
0.464814 0.417590 1.362992 0.000000 0.000000 0.000000
0.475160 0.400899 1.354551 0.000000 0.000000 0.000000
0.455387 0.424554 1.358405 0.000000 0.000000 0.000000
0.453873 0.428050 1.364018 0.000000 0.000000 0.000000
0.466276 0.409153 1.346856 0.000000 0.000000 0.000000
0.469800 0.400301 1.349828 0.000000 0.000000 0.000000
0.452587 0.423224 1.366366 0.000000 0.000000 0.000000
0.457422 0.415952 1.365164 0.000000 0.000000 0.000000
0.465414 0.420099 1.348873 0.000000 0.000000 0.000000
0.471924 0.405019 1.367976 0.000000 0.000000 0.000000
0.462650 0.419270 1.354932 0.000000 0.000000 0.000000
0.461193 0.411612 1.348173 0.000000 0.000000 0.000000
0.453315 0.425775 1.363278 0.000000 0.000000 0.000000
0.463192 0.395790 1.366576 0.000000 0.000000 0.000000
0.470346 0.392536 1.375955 0.000000 0.000000 0.000000
0.453470 0.391379 1.362599 0.000000 0.000000 0.000000
0.468343 0.399066 1.367712 0.000000 0.000000 0.000000
0.476355 0.405846 1.372787 0.000000 0.000000 0.000000
0.453501 0.394557 1.355034 0.000000 0.000000 0.000000
0.476478 0.393319 1.356933 0.000000 0.000000 0.000000
0.462256 0.415026 1.356583 0.000000 0.000000 0.000000
0.459520 0.419959 1.356611 0.000000 0.000000 0.000000
0.462454 0.408831 1.347701 0.000000 0.000000 0.000000
0.461318 0.415294 1.347277 0.000000 0.000000 0.000000
0.461083 0.419621 1.354999 0.000000 0.000000 0.000000
0.463166 0.411204 1.354972 0.000000 0.000000 0.000000
0.469080 0.409276 1.349774 0.000000 0.000000 0.000000
0.460955 0.408926 1.357323 0.000000 0.000000 0.000000
0.456407 0.423068 1.362359 0.000000 0.000000 0.000000
0.466790 0.413391 1.358388 0.000000 0.000000 0.000000
0.456674 0.421307 1.363902 0.000000 0.000000 0.000000
0.464191 0.410333 1.355658 0.000000 0.000000 0.000000
0.459964 0.397735 1.360795 0.000000 0.000000 0.000000
0.457286 0.394005 1.365767 0.000000 0.000000 0.000000
0.463954 0.416591 1.354089 0.000000 0.000000 0.000000
0.470850 0.403142 1.354585 0.000000 0.000000 0.000000
0.462505 0.405532 1.357365 0.000000 0.000000 0.000000
0.471122 0.420379 1.345435 0.000000 0.000000 0.000000
0.463534 0.413837 1.355286 0.000000 0.000000 0.000000
0.462824 0.415609 1.356605 0.000000 0.000000 0.000000
0.461557 0.394698 1.364294 0.000000 0.000000 0.000000
0.458462 0.391170 1.363095 0.000000 0.000000 0.000000
0.460236 0.395220 1.363962 0.000000 0.000000 0.000000
0.450133 0.427321 1.373390 0.000000 0.000000 0.000000
0.458414 0.389960 1.366982 0.000000 0.000000 0.000000
0.455468 0.391134 1.360425 0.000000 0.000000 0.000000
0.463474 0.415612 1.354882 0.000000 0.000000 0.000000
0.474135 0.400970 1.366181 0.000000 0.000000 0.000000
0.478420 0.397946 1.370497 0.000000 0.000000 0.000000
0.473056 0.399430 1.358626 0.000000 0.000000 0.000000
0.463067 0.416266 1.363775 0.000000 0.000000 0.000000
0.468372 0.395442 1.370968 0.000000 0.000000 0.000000
0.471592 0.400148 1.368385 0.000000 0.000000 0.000000
0.462447 0.411703 1.349899 0.000000 0.000000 0.000000
0.475194 0.395030 1.362975 0.000000 0.000000 0.000000
0.461305 0.412578 1.347923 0.000000 0.000000 0.000000
0.477099 0.405881 1.357339 0.000000 0.000000 0.000000
0.457174 0.392402 1.363574 0.000000 0.000000 0.000000
0.456686 0.390409 1.366240 0.000000 0.000000 0.000000
0.450869 0.429662 1.366326 0.000000 0.000000 0.000000
0.479914 0.400560 1.349759 0.000000 0.000000 0.000000
0.475556 0.401098 1.354991 0.000000 0.000000 0.000000
0.463728 0.401572 1.353263 0.000000 0.000000 0.000000
0.471846 0.398019 1.344640 0.000000 0.000000 0.000000
0.469971 0.404041 1.345190 0.000000 0.000000 0.000000
0.462502 0.406326 1.353890 0.000000 0.000000 0.000000
0.451103 0.431742 1.368037 0.000000 0.000000 0.000000
