ply
format ascii 1.0
comment VCGLIB generated
obj_info Generated by SPFormer!
element vertex 29
property float x
property float y
property float z
property float nx
property float ny
property float nz
end_header
1.228247 -1.516907 1.259941 0.000000 0.000000 0.000000
1.226261 -1.517884 1.262570 0.000000 0.000000 0.000000
1.213597 -1.525816 1.261448 0.000000 0.000000 0.000000
1.232481 -1.509756 1.270975 0.000000 0.000000 0.000000
1.220675 -1.524572 1.260858 0.000000 0.000000 0.000000
1.226680 -1.510660 1.267736 0.000000 0.000000 0.000000
1.229788 -1.509971 1.263680 0.000000 0.000000 0.000000
1.221080 -1.516062 1.268645 0.000000 0.000000 0.000000
1.216095 -1.523133 1.259955 0.000000 0.000000 0.000000
1.221565 -1.519577 1.266361 0.000000 0.000000 0.000000
1.218592 -1.523775 1.265280 0.000000 0.000000 0.000000
1.210959 -1.524575 1.258704 0.000000 0.000000 0.000000
1.212036 -1.520203 1.261169 0.000000 0.000000 0.000000
1.220983 -1.522229 1.261044 0.000000 0.000000 0.000000
0.989602 -1.506498 1.452179 0.000000 0.000000 0.000000
0.961322 -1.481899 1.441934 0.000000 0.000000 0.000000
0.968004 -1.430480 1.417523 0.000000 0.000000 0.000000
0.994264 -1.518077 1.411679 0.000000 0.000000 0.000000
0.991307 -1.439048 1.403182 0.000000 0.000000 0.000000
0.996217 -1.419134 1.415436 0.000000 0.000000 0.000000
0.978041 -1.518772 1.416129 0.000000 0.000000 0.000000
0.981757 -1.525129 1.411284 0.000000 0.000000 0.000000
0.995487 -1.509741 1.433440 0.000000 0.000000 0.000000
0.990170 -1.525171 1.420108 0.000000 0.000000 0.000000
0.988573 -1.535113 1.427614 0.000000 0.000000 0.000000
0.975902 -1.528205 1.418468 0.000000 0.000000 0.000000
0.984876 -1.520739 1.436097 0.000000 0.000000 0.000000
0.980866 -1.544960 1.422263 0.000000 0.000000 0.000000
0.987616 -1.516663 1.424402 0.000000 0.000000 0.000000
