ply
format ascii 1.0
comment VCGLIB generated
obj_info Generated by SPFormer!
element vertex 856
property float x
property float y
property float z
property float nx
property float ny
property float nz
end_header
0.468551 0.453665 1.529947 0.000000 0.000000 0.000000
0.468146 0.451198 1.542875 0.000000 0.000000 0.000000
0.466962 0.453653 1.529971 0.000000 0.000000 0.000000
0.469786 0.452176 1.532909 0.000000 0.000000 0.000000
0.467581 0.453768 1.529226 0.000000 0.000000 0.000000
0.471865 0.451180 1.540273 0.000000 0.000000 0.000000
0.468930 0.453734 1.534796 0.000000 0.000000 0.000000
0.466768 0.452466 1.536363 0.000000 0.000000 0.000000
0.466256 0.453173 1.520973 0.000000 0.000000 0.000000
0.467529 0.455326 1.541193 0.000000 0.000000 0.000000
0.467380 0.452456 1.529572 0.000000 0.000000 0.000000
0.466865 0.451559 1.539392 0.000000 0.000000 0.000000
0.466440 0.453195 1.536067 0.000000 0.000000 0.000000
0.468135 0.452682 1.537437 0.000000 0.000000 0.000000
0.468017 0.456066 1.533958 0.000000 0.000000 0.000000
0.467001 0.452183 1.533119 0.000000 0.000000 0.000000
0.467737 0.454224 1.535746 0.000000 0.000000 0.000000
0.467533 0.454551 1.538248 0.000000 0.000000 0.000000
0.467700 0.453470 1.527449 0.000000 0.000000 0.000000
0.468436 0.454635 1.528881 0.000000 0.000000 0.000000
0.467969 0.453753 1.526969 0.000000 0.000000 0.000000
0.467460 0.458519 1.522491 0.000000 0.000000 0.000000
0.467551 0.453788 1.526808 0.000000 0.000000 0.000000
0.465136 0.452763 1.546807 0.000000 0.000000 0.000000
0.467263 0.453822 1.525464 0.000000 0.000000 0.000000
0.468935 0.451794 1.539976 0.000000 0.000000 0.000000
0.466615 0.454455 1.521353 0.000000 0.000000 0.000000
0.466911 0.452290 1.528881 0.000000 0.000000 0.000000
0.463678 0.454302 1.527599 0.000000 0.000000 0.000000
0.470125 0.450795 1.540143 0.000000 0.000000 0.000000
0.469613 0.450278 1.539097 0.000000 0.000000 0.000000
0.469824 0.453100 1.528878 0.000000 0.000000 0.000000
0.467209 0.453980 1.524586 0.000000 0.000000 0.000000
0.468365 0.452591 1.536584 0.000000 0.000000 0.000000
0.470223 0.454752 1.532855 0.000000 0.000000 0.000000
0.468544 0.452218 1.537689 0.000000 0.000000 0.000000
0.467680 0.450327 1.538849 0.000000 0.000000 0.000000
0.468984 0.452330 1.537501 0.000000 0.000000 0.000000
0.468001 0.452053 1.538000 0.000000 0.000000 0.000000
0.469437 0.453832 1.525778 0.000000 0.000000 0.000000
0.467745 0.453688 1.527772 0.000000 0.000000 0.000000
0.468278 0.453856 1.533058 0.000000 0.000000 0.000000
0.467737 0.453956 1.538948 0.000000 0.000000 0.000000
0.467755 0.452396 1.537815 0.000000 0.000000 0.000000
0.468655 0.454158 1.538752 0.000000 0.000000 0.000000
0.470127 0.453124 1.526729 0.000000 0.000000 0.000000
0.467111 0.451100 1.541311 0.000000 0.000000 0.000000
0.465944 0.454773 1.532543 0.000000 0.000000 0.000000
0.480620 0.409689 1.609141 0.000000 0.000000 0.000000
0.476831 0.396022 1.624377 0.000000 0.000000 0.000000
0.479146 0.399501 1.613726 0.000000 0.000000 0.000000
0.479160 0.391196 1.625746 0.000000 0.000000 0.000000
0.468895 0.431494 1.559504 0.000000 0.000000 0.000000
0.468434 0.425495 1.559312 0.000000 0.000000 0.000000
0.480290 0.392429 1.620743 0.000000 0.000000 0.000000
0.474436 0.404535 1.605188 0.000000 0.000000 0.000000
0.481614 0.392053 1.621442 0.000000 0.000000 0.000000
0.482446 0.418721 1.612845 0.000000 0.000000 0.000000
0.475454 0.409819 1.611634 0.000000 0.000000 0.000000
0.468609 0.414004 1.573547 0.000000 0.000000 0.000000
0.481909 0.386684 1.641997 0.000000 0.000000 0.000000
0.480302 0.440676 1.580184 0.000000 0.000000 0.000000
0.478162 0.394296 1.624133 0.000000 0.000000 0.000000
0.479506 0.391631 1.622746 0.000000 0.000000 0.000000
0.474905 0.434010 1.565635 0.000000 0.000000 0.000000
0.470051 0.425647 1.584504 0.000000 0.000000 0.000000
0.473060 0.409459 1.605054 0.000000 0.000000 0.000000
0.471127 0.426033 1.567297 0.000000 0.000000 0.000000
0.477794 0.410952 1.608355 0.000000 0.000000 0.000000
0.479351 0.390744 1.619322 0.000000 0.000000 0.000000
0.476104 0.396766 1.604896 0.000000 0.000000 0.000000
0.469531 0.439019 1.559288 0.000000 0.000000 0.000000
0.483029 0.430378 1.585874 0.000000 0.000000 0.000000
0.486310 0.414632 1.625231 0.000000 0.000000 0.000000
0.472751 0.438049 1.565813 0.000000 0.000000 0.000000
0.471480 0.423212 1.574538 0.000000 0.000000 0.000000
0.469196 0.418473 1.580562 0.000000 0.000000 0.000000
0.487428 0.435608 1.606374 0.000000 0.000000 0.000000
0.469022 0.439370 1.559834 0.000000 0.000000 0.000000
0.470575 0.438806 1.552785 0.000000 0.000000 0.000000
0.479176 0.404638 1.607125 0.000000 0.000000 0.000000
0.474831 0.408387 1.609509 0.000000 0.000000 0.000000
0.471212 0.425916 1.570422 0.000000 0.000000 0.000000
0.472731 0.430785 1.573830 0.000000 0.000000 0.000000
0.470004 0.432367 1.563252 0.000000 0.000000 0.000000
0.470052 0.417104 1.584414 0.000000 0.000000 0.000000
0.481209 0.390920 1.624458 0.000000 0.000000 0.000000
0.470172 0.426603 1.563027 0.000000 0.000000 0.000000
0.472698 0.398567 1.601257 0.000000 0.000000 0.000000
0.484701 0.424562 1.611373 0.000000 0.000000 0.000000
0.472392 0.421880 1.590885 0.000000 0.000000 0.000000
0.478123 0.415338 1.610754 0.000000 0.000000 0.000000
0.479259 0.392861 1.621450 0.000000 0.000000 0.000000
0.471037 0.429820 1.577780 0.000000 0.000000 0.000000
0.481391 0.430836 1.602053 0.000000 0.000000 0.000000
0.479878 0.404526 1.621233 0.000000 0.000000 0.000000
0.481118 0.427861 1.602438 0.000000 0.000000 0.000000
0.475288 0.425017 1.594876 0.000000 0.000000 0.000000
0.470068 0.427673 1.566162 0.000000 0.000000 0.000000
0.474761 0.410501 1.586309 0.000000 0.000000 0.000000
0.478683 0.387790 1.629103 0.000000 0.000000 0.000000
0.479284 0.445187 1.585842 0.000000 0.000000 0.000000
0.481255 0.405274 1.620251 0.000000 0.000000 0.000000
0.477854 0.414763 1.613283 0.000000 0.000000 0.000000
0.481025 0.444266 1.587402 0.000000 0.000000 0.000000
0.485497 0.409037 1.626683 0.000000 0.000000 0.000000
0.484732 0.413541 1.604329 0.000000 0.000000 0.000000
0.479997 0.381949 1.642180 0.000000 0.000000 0.000000
0.469057 0.429878 1.562835 0.000000 0.000000 0.000000
0.472639 0.411240 1.601727 0.000000 0.000000 0.000000
0.471042 0.437860 1.564519 0.000000 0.000000 0.000000
0.472352 0.422072 1.597261 0.000000 0.000000 0.000000
0.480555 0.383510 1.639084 0.000000 0.000000 0.000000
0.474689 0.429412 1.588899 0.000000 0.000000 0.000000
0.485867 0.425463 1.609666 0.000000 0.000000 0.000000
0.474799 0.398600 1.610892 0.000000 0.000000 0.000000
0.468841 0.428425 1.563085 0.000000 0.000000 0.000000
0.478443 0.410476 1.617300 0.000000 0.000000 0.000000
0.482206 0.431715 1.600625 0.000000 0.000000 0.000000
0.485153 0.424748 1.618958 0.000000 0.000000 0.000000
0.476651 0.395988 1.614623 0.000000 0.000000 0.000000
0.484168 0.425856 1.608128 0.000000 0.000000 0.000000
0.476593 0.405622 1.619722 0.000000 0.000000 0.000000
0.472053 0.430329 1.584491 0.000000 0.000000 0.000000
0.475704 0.432764 1.585140 0.000000 0.000000 0.000000
0.470452 0.427442 1.560447 0.000000 0.000000 0.000000
0.476673 0.448579 1.561774 0.000000 0.000000 0.000000
0.484191 0.437990 1.595769 0.000000 0.000000 0.000000
0.471334 0.414853 1.575152 0.000000 0.000000 0.000000
0.487901 0.408528 1.608583 0.000000 0.000000 0.000000
0.474582 0.397506 1.610847 0.000000 0.000000 0.000000
0.479420 0.427905 1.600811 0.000000 0.000000 0.000000
0.489057 0.426448 1.595199 0.000000 0.000000 0.000000
0.479420 0.436657 1.594657 0.000000 0.000000 0.000000
0.478696 0.399497 1.604639 0.000000 0.000000 0.000000
0.479238 0.393169 1.631517 0.000000 0.000000 0.000000
0.477794 0.398886 1.607416 0.000000 0.000000 0.000000
0.480414 0.385994 1.634911 0.000000 0.000000 0.000000
0.468775 0.442078 1.559093 0.000000 0.000000 0.000000
0.475019 0.436326 1.580470 0.000000 0.000000 0.000000
0.484631 0.417415 1.621070 0.000000 0.000000 0.000000
0.479455 0.399372 1.625946 0.000000 0.000000 0.000000
0.479006 0.399552 1.631985 0.000000 0.000000 0.000000
0.472996 0.409601 1.591705 0.000000 0.000000 0.000000
0.478304 0.392900 1.617941 0.000000 0.000000 0.000000
0.476534 0.404601 1.600026 0.000000 0.000000 0.000000
0.475011 0.399475 1.592299 0.000000 0.000000 0.000000
0.480059 0.440162 1.589259 0.000000 0.000000 0.000000
0.472573 0.443952 1.557732 0.000000 0.000000 0.000000
0.480580 0.383878 1.636693 0.000000 0.000000 0.000000
0.480650 0.395144 1.634910 0.000000 0.000000 0.000000
0.478798 0.397983 1.631616 0.000000 0.000000 0.000000
0.480147 0.389705 1.635304 0.000000 0.000000 0.000000
0.479495 0.386986 1.632149 0.000000 0.000000 0.000000
0.479277 0.389218 1.628765 0.000000 0.000000 0.000000
0.470712 0.423556 1.574593 0.000000 0.000000 0.000000
0.475760 0.399175 1.608401 0.000000 0.000000 0.000000
0.471471 0.425076 1.584998 0.000000 0.000000 0.000000
0.489472 0.412391 1.607753 0.000000 0.000000 0.000000
0.483129 0.416485 1.619555 0.000000 0.000000 0.000000
0.476603 0.437536 1.583846 0.000000 0.000000 0.000000
0.480538 0.388864 1.636744 0.000000 0.000000 0.000000
0.471753 0.428472 1.576556 0.000000 0.000000 0.000000
0.482106 0.381802 1.634335 0.000000 0.000000 0.000000
0.479644 0.381985 1.641158 0.000000 0.000000 0.000000
0.476406 0.405010 1.602484 0.000000 0.000000 0.000000
0.475203 0.398439 1.613157 0.000000 0.000000 0.000000
0.477858 0.395981 1.606508 0.000000 0.000000 0.000000
0.481550 0.382487 1.643930 0.000000 0.000000 0.000000
0.473719 0.407767 1.600900 0.000000 0.000000 0.000000
0.478303 0.396181 1.604013 0.000000 0.000000 0.000000
0.482269 0.387282 1.641786 0.000000 0.000000 0.000000
0.483839 0.387504 1.644389 0.000000 0.000000 0.000000
0.469257 0.451430 1.545810 0.000000 0.000000 0.000000
0.480252 0.439833 1.588228 0.000000 0.000000 0.000000
0.478721 0.445336 1.561572 0.000000 0.000000 0.000000
0.472981 0.411078 1.588169 0.000000 0.000000 0.000000
0.484337 0.404995 1.621547 0.000000 0.000000 0.000000
0.479659 0.423400 1.605889 0.000000 0.000000 0.000000
0.473089 0.402447 1.593534 0.000000 0.000000 0.000000
0.475555 0.399652 1.614597 0.000000 0.000000 0.000000
0.470226 0.437992 1.568750 0.000000 0.000000 0.000000
0.478148 0.396899 1.610730 0.000000 0.000000 0.000000
0.479641 0.391966 1.614200 0.000000 0.000000 0.000000
0.470322 0.404346 1.585699 0.000000 0.000000 0.000000
0.479991 0.386511 1.630832 0.000000 0.000000 0.000000
0.478875 0.395910 1.632169 0.000000 0.000000 0.000000
0.481161 0.383827 1.636481 0.000000 0.000000 0.000000
0.474356 0.411128 1.592727 0.000000 0.000000 0.000000
0.470667 0.427994 1.586479 0.000000 0.000000 0.000000
0.485176 0.430128 1.600999 0.000000 0.000000 0.000000
0.480063 0.383098 1.636727 0.000000 0.000000 0.000000
0.471690 0.415201 1.592452 0.000000 0.000000 0.000000
0.478220 0.394780 1.618506 0.000000 0.000000 0.000000
0.473330 0.408298 1.595530 0.000000 0.000000 0.000000
0.484582 0.415692 1.621072 0.000000 0.000000 0.000000
0.476526 0.402975 1.594324 0.000000 0.000000 0.000000
0.474086 0.399978 1.604025 0.000000 0.000000 0.000000
0.481912 0.401069 1.626753 0.000000 0.000000 0.000000
0.472436 0.442494 1.564451 0.000000 0.000000 0.000000
0.473285 0.404470 1.588524 0.000000 0.000000 0.000000
0.473873 0.404184 1.585375 0.000000 0.000000 0.000000
0.470464 0.430695 1.572941 0.000000 0.000000 0.000000
0.474484 0.414288 1.583716 0.000000 0.000000 0.000000
0.474146 0.432386 1.578533 0.000000 0.000000 0.000000
0.476572 0.400357 1.616824 0.000000 0.000000 0.000000
0.470198 0.408483 1.583730 0.000000 0.000000 0.000000
0.469499 0.425360 1.576087 0.000000 0.000000 0.000000
0.474791 0.436207 1.576672 0.000000 0.000000 0.000000
0.479852 0.390534 1.636461 0.000000 0.000000 0.000000
0.479819 0.387232 1.633049 0.000000 0.000000 0.000000
0.471957 0.428758 1.583210 0.000000 0.000000 0.000000
0.478477 0.400068 1.595419 0.000000 0.000000 0.000000
0.479545 0.387821 1.629632 0.000000 0.000000 0.000000
0.479508 0.398375 1.626889 0.000000 0.000000 0.000000
0.470027 0.409502 1.581706 0.000000 0.000000 0.000000
0.472118 0.418279 1.578825 0.000000 0.000000 0.000000
0.470941 0.401676 1.587362 0.000000 0.000000 0.000000
0.480155 0.393734 1.631048 0.000000 0.000000 0.000000
0.471215 0.444466 1.557024 0.000000 0.000000 0.000000
0.482100 0.407881 1.619644 0.000000 0.000000 0.000000
0.485819 0.433555 1.602415 0.000000 0.000000 0.000000
0.478677 0.452317 1.562846 0.000000 0.000000 0.000000
0.487059 0.414615 1.623486 0.000000 0.000000 0.000000
0.473262 0.403911 1.601183 0.000000 0.000000 0.000000
0.482403 0.429852 1.597418 0.000000 0.000000 0.000000
0.478130 0.438944 1.578083 0.000000 0.000000 0.000000
0.469908 0.426933 1.560424 0.000000 0.000000 0.000000
0.479418 0.395622 1.629877 0.000000 0.000000 0.000000
0.473075 0.399324 1.597710 0.000000 0.000000 0.000000
0.468096 0.448151 1.547543 0.000000 0.000000 0.000000
0.472949 0.409635 1.604333 0.000000 0.000000 0.000000
0.468242 0.417649 1.569115 0.000000 0.000000 0.000000
0.480882 0.384449 1.628480 0.000000 0.000000 0.000000
0.470108 0.416545 1.572283 0.000000 0.000000 0.000000
0.471450 0.414891 1.577362 0.000000 0.000000 0.000000
0.484155 0.408798 1.630356 0.000000 0.000000 0.000000
0.481023 0.436474 1.597841 0.000000 0.000000 0.000000
0.471241 0.438088 1.565062 0.000000 0.000000 0.000000
0.475595 0.408366 1.597683 0.000000 0.000000 0.000000
0.479119 0.425104 1.602072 0.000000 0.000000 0.000000
0.482575 0.412396 1.622163 0.000000 0.000000 0.000000
0.470301 0.411647 1.593195 0.000000 0.000000 0.000000
0.473860 0.432664 1.583358 0.000000 0.000000 0.000000
0.468615 0.436898 1.559443 0.000000 0.000000 0.000000
0.482852 0.419879 1.611961 0.000000 0.000000 0.000000
0.480763 0.441202 1.588244 0.000000 0.000000 0.000000
0.473110 0.409340 1.607183 0.000000 0.000000 0.000000
0.480169 0.381692 1.639395 0.000000 0.000000 0.000000
0.486318 0.428165 1.607629 0.000000 0.000000 0.000000
0.475774 0.422148 1.599911 0.000000 0.000000 0.000000
0.483452 0.439654 1.594681 0.000000 0.000000 0.000000
0.479235 0.390086 1.633545 0.000000 0.000000 0.000000
0.481729 0.437430 1.593153 0.000000 0.000000 0.000000
0.485695 0.409461 1.631035 0.000000 0.000000 0.000000
0.483405 0.416410 1.613994 0.000000 0.000000 0.000000
0.482696 0.426111 1.609305 0.000000 0.000000 0.000000
0.478892 0.439072 1.586388 0.000000 0.000000 0.000000
0.469538 0.445009 1.550938 0.000000 0.000000 0.000000
0.480651 0.446876 1.589741 0.000000 0.000000 0.000000
0.485230 0.425603 1.610246 0.000000 0.000000 0.000000
0.485162 0.415664 1.622074 0.000000 0.000000 0.000000
0.472510 0.410362 1.584420 0.000000 0.000000 0.000000
0.473571 0.435365 1.563726 0.000000 0.000000 0.000000
0.472548 0.444313 1.560399 0.000000 0.000000 0.000000
0.471730 0.410448 1.587871 0.000000 0.000000 0.000000
0.470952 0.448736 1.546970 0.000000 0.000000 0.000000
0.481168 0.415810 1.614657 0.000000 0.000000 0.000000
0.471489 0.433034 1.567986 0.000000 0.000000 0.000000
0.475346 0.444662 1.568916 0.000000 0.000000 0.000000
0.477312 0.446287 1.567350 0.000000 0.000000 0.000000
0.474400 0.444767 1.563906 0.000000 0.000000 0.000000
0.477514 0.397046 1.612060 0.000000 0.000000 0.000000
0.474995 0.398676 1.605025 0.000000 0.000000 0.000000
0.486323 0.428318 1.606606 0.000000 0.000000 0.000000
0.478397 0.396142 1.615550 0.000000 0.000000 0.000000
0.474242 0.446929 1.550370 0.000000 0.000000 0.000000
0.480052 0.390501 1.627039 0.000000 0.000000 0.000000
0.476938 0.395482 1.632423 0.000000 0.000000 0.000000
0.481921 0.388506 1.640047 0.000000 0.000000 0.000000
0.479921 0.385887 1.633556 0.000000 0.000000 0.000000
0.475426 0.396338 1.613349 0.000000 0.000000 0.000000
0.482445 0.444104 1.591774 0.000000 0.000000 0.000000
0.471420 0.425041 1.563043 0.000000 0.000000 0.000000
0.477179 0.445580 1.568304 0.000000 0.000000 0.000000
0.483705 0.403118 1.630057 0.000000 0.000000 0.000000
0.471603 0.423050 1.590263 0.000000 0.000000 0.000000
0.480108 0.384620 1.633131 0.000000 0.000000 0.000000
0.484322 0.402236 1.625075 0.000000 0.000000 0.000000
0.478809 0.402489 1.614429 0.000000 0.000000 0.000000
0.487770 0.416519 1.619198 0.000000 0.000000 0.000000
0.480306 0.394461 1.618784 0.000000 0.000000 0.000000
0.481643 0.386847 1.639183 0.000000 0.000000 0.000000
0.471048 0.414667 1.595454 0.000000 0.000000 0.000000
0.477483 0.395139 1.612418 0.000000 0.000000 0.000000
0.479756 0.386129 1.633949 0.000000 0.000000 0.000000
0.480726 0.386921 1.634224 0.000000 0.000000 0.000000
0.484150 0.419226 1.615452 0.000000 0.000000 0.000000
0.473134 0.408576 1.603248 0.000000 0.000000 0.000000
0.483068 0.409040 1.629193 0.000000 0.000000 0.000000
0.478701 0.403352 1.623524 0.000000 0.000000 0.000000
0.472247 0.409949 1.589284 0.000000 0.000000 0.000000
0.475589 0.418374 1.606765 0.000000 0.000000 0.000000
0.480584 0.382173 1.640338 0.000000 0.000000 0.000000
0.482264 0.419129 1.612837 0.000000 0.000000 0.000000
0.483510 0.397724 1.633216 0.000000 0.000000 0.000000
0.481854 0.390459 1.639279 0.000000 0.000000 0.000000
0.469090 0.425291 1.560286 0.000000 0.000000 0.000000
0.483853 0.409255 1.617423 0.000000 0.000000 0.000000
0.481557 0.391453 1.635767 0.000000 0.000000 0.000000
0.479034 0.393005 1.630687 0.000000 0.000000 0.000000
0.481196 0.384341 1.635791 0.000000 0.000000 0.000000
0.480058 0.382111 1.641473 0.000000 0.000000 0.000000
0.482003 0.382352 1.634078 0.000000 0.000000 0.000000
0.477656 0.450486 1.564842 0.000000 0.000000 0.000000
0.480528 0.381674 1.639056 0.000000 0.000000 0.000000
0.480621 0.383447 1.641931 0.000000 0.000000 0.000000
0.481720 0.382775 1.643123 0.000000 0.000000 0.000000
0.466809 0.404958 1.581124 0.000000 0.000000 0.000000
0.469846 0.409283 1.580579 0.000000 0.000000 0.000000
0.469964 0.409069 1.583919 0.000000 0.000000 0.000000
0.485188 0.425845 1.615700 0.000000 0.000000 0.000000
0.485720 0.416944 1.623765 0.000000 0.000000 0.000000
0.477169 0.433474 1.585442 0.000000 0.000000 0.000000
0.481636 0.432685 1.597990 0.000000 0.000000 0.000000
0.472802 0.435696 1.574105 0.000000 0.000000 0.000000
0.478742 0.442820 1.580817 0.000000 0.000000 0.000000
0.482023 0.436681 1.596130 0.000000 0.000000 0.000000
0.478146 0.430748 1.592369 0.000000 0.000000 0.000000
0.477877 0.395229 1.607394 0.000000 0.000000 0.000000
0.474744 0.437781 1.578004 0.000000 0.000000 0.000000
0.474677 0.431848 1.585860 0.000000 0.000000 0.000000
0.468383 0.416635 1.568407 0.000000 0.000000 0.000000
0.476745 0.422044 1.601470 0.000000 0.000000 0.000000
0.481925 0.427242 1.603404 0.000000 0.000000 0.000000
0.474984 0.444270 1.562770 0.000000 0.000000 0.000000
0.479538 0.446360 1.569735 0.000000 0.000000 0.000000
0.477917 0.404083 1.601976 0.000000 0.000000 0.000000
0.480146 0.391200 1.636453 0.000000 0.000000 0.000000
0.480599 0.384403 1.630723 0.000000 0.000000 0.000000
0.486218 0.423823 1.607589 0.000000 0.000000 0.000000
0.487847 0.428713 1.607464 0.000000 0.000000 0.000000
0.483739 0.417313 1.614468 0.000000 0.000000 0.000000
0.477369 0.444223 1.580360 0.000000 0.000000 0.000000
0.480748 0.386010 1.631733 0.000000 0.000000 0.000000
0.481947 0.394673 1.636794 0.000000 0.000000 0.000000
0.478264 0.394134 1.633789 0.000000 0.000000 0.000000
0.482279 0.420244 1.613687 0.000000 0.000000 0.000000
0.485795 0.427919 1.609166 0.000000 0.000000 0.000000
0.474083 0.437924 1.575994 0.000000 0.000000 0.000000
0.481301 0.417354 1.613126 0.000000 0.000000 0.000000
0.475135 0.432996 1.595259 0.000000 0.000000 0.000000
0.479302 0.436449 1.591575 0.000000 0.000000 0.000000
0.485965 0.419369 1.621908 0.000000 0.000000 0.000000
0.482314 0.388633 1.641669 0.000000 0.000000 0.000000
0.478951 0.434058 1.601733 0.000000 0.000000 0.000000
0.472216 0.410168 1.596337 0.000000 0.000000 0.000000
0.473687 0.403466 1.596050 0.000000 0.000000 0.000000
0.470781 0.425317 1.565416 0.000000 0.000000 0.000000
0.478019 0.403475 1.613569 0.000000 0.000000 0.000000
0.486096 0.431564 1.607376 0.000000 0.000000 0.000000
0.480209 0.429130 1.600071 0.000000 0.000000 0.000000
0.486674 0.426616 1.618515 0.000000 0.000000 0.000000
0.484859 0.424287 1.612636 0.000000 0.000000 0.000000
0.478153 0.409347 1.608143 0.000000 0.000000 0.000000
0.481025 0.403189 1.620020 0.000000 0.000000 0.000000
0.480460 0.390415 1.637076 0.000000 0.000000 0.000000
0.482958 0.417857 1.614645 0.000000 0.000000 0.000000
0.469369 0.418025 1.570706 0.000000 0.000000 0.000000
0.475612 0.405849 1.587506 0.000000 0.000000 0.000000
0.470894 0.424769 1.567847 0.000000 0.000000 0.000000
0.472953 0.443480 1.558776 0.000000 0.000000 0.000000
0.469668 0.447488 1.549795 0.000000 0.000000 0.000000
0.469437 0.419571 1.563051 0.000000 0.000000 0.000000
0.472726 0.431478 1.565616 0.000000 0.000000 0.000000
0.468204 0.421943 1.573569 0.000000 0.000000 0.000000
0.470894 0.439870 1.552298 0.000000 0.000000 0.000000
0.476467 0.405215 1.618950 0.000000 0.000000 0.000000
0.478686 0.447181 1.572108 0.000000 0.000000 0.000000
0.479823 0.390915 1.628458 0.000000 0.000000 0.000000
0.481293 0.395915 1.611933 0.000000 0.000000 0.000000
0.478394 0.389869 1.632188 0.000000 0.000000 0.000000
0.479973 0.390709 1.634815 0.000000 0.000000 0.000000
0.480313 0.383516 1.632401 0.000000 0.000000 0.000000
0.482516 0.425829 1.607087 0.000000 0.000000 0.000000
0.468140 0.433544 1.555254 0.000000 0.000000 0.000000
0.484877 0.429691 1.606430 0.000000 0.000000 0.000000
0.483135 0.424968 1.600438 0.000000 0.000000 0.000000
0.484471 0.438686 1.597063 0.000000 0.000000 0.000000
0.469966 0.431661 1.566660 0.000000 0.000000 0.000000
0.478380 0.417789 1.609411 0.000000 0.000000 0.000000
0.468583 0.450420 1.544375 0.000000 0.000000 0.000000
0.482147 0.414977 1.614091 0.000000 0.000000 0.000000
0.474428 0.398164 1.621595 0.000000 0.000000 0.000000
0.478860 0.393728 1.619596 0.000000 0.000000 0.000000
0.472686 0.449193 1.551716 0.000000 0.000000 0.000000
0.477713 0.442897 1.578959 0.000000 0.000000 0.000000
0.482312 0.403680 1.626476 0.000000 0.000000 0.000000
0.482542 0.411469 1.611925 0.000000 0.000000 0.000000
0.483595 0.398236 1.637256 0.000000 0.000000 0.000000
0.476794 0.444915 1.576239 0.000000 0.000000 0.000000
0.477399 0.414869 1.599129 0.000000 0.000000 0.000000
0.484818 0.413982 1.630313 0.000000 0.000000 0.000000
0.481488 0.430897 1.596257 0.000000 0.000000 0.000000
0.484428 0.400090 1.636033 0.000000 0.000000 0.000000
0.468549 0.450272 1.546817 0.000000 0.000000 0.000000
0.484019 0.440330 1.594949 0.000000 0.000000 0.000000
0.469698 0.427057 1.559039 0.000000 0.000000 0.000000
0.478417 0.388455 1.629567 0.000000 0.000000 0.000000
0.470268 0.424458 1.559813 0.000000 0.000000 0.000000
0.480740 0.436080 1.587408 0.000000 0.000000 0.000000
0.484798 0.441142 1.595868 0.000000 0.000000 0.000000
0.468338 0.439530 1.554805 0.000000 0.000000 0.000000
0.470910 0.432004 1.556306 0.000000 0.000000 0.000000
0.473816 0.417755 1.571576 0.000000 0.000000 0.000000
0.469205 0.430325 1.558448 0.000000 0.000000 0.000000
0.471575 0.421006 1.571723 0.000000 0.000000 0.000000
0.471892 0.423272 1.573093 0.000000 0.000000 0.000000
0.474125 0.423336 1.562020 0.000000 0.000000 0.000000
0.471680 0.403386 1.589829 0.000000 0.000000 0.000000
0.471285 0.426048 1.565181 0.000000 0.000000 0.000000
0.473772 0.410760 1.608038 0.000000 0.000000 0.000000
0.481260 0.399370 1.634633 0.000000 0.000000 0.000000
0.471804 0.424346 1.564437 0.000000 0.000000 0.000000
0.471312 0.423042 1.570467 0.000000 0.000000 0.000000
0.474445 0.413442 1.606166 0.000000 0.000000 0.000000
0.468612 0.414898 1.574607 0.000000 0.000000 0.000000
0.470675 0.426914 1.580031 0.000000 0.000000 0.000000
0.468290 0.418301 1.563599 0.000000 0.000000 0.000000
0.470777 0.429786 1.564414 0.000000 0.000000 0.000000
0.470137 0.426132 1.560844 0.000000 0.000000 0.000000
0.473205 0.409465 1.592270 0.000000 0.000000 0.000000
0.482661 0.399946 1.634936 0.000000 0.000000 0.000000
0.478470 0.383283 1.642868 0.000000 0.000000 0.000000
0.480933 0.386653 1.640538 0.000000 0.000000 0.000000
0.476372 0.395308 1.605360 0.000000 0.000000 0.000000
0.480008 0.391557 1.623818 0.000000 0.000000 0.000000
0.479780 0.383772 1.640139 0.000000 0.000000 0.000000
0.477489 0.382845 1.639727 0.000000 0.000000 0.000000
0.482768 0.387294 1.642976 0.000000 0.000000 0.000000
0.482407 0.387532 1.641471 0.000000 0.000000 0.000000
0.481457 0.388645 1.637958 0.000000 0.000000 0.000000
0.480506 0.381034 1.642715 0.000000 0.000000 0.000000
0.481145 0.388718 1.629064 0.000000 0.000000 0.000000
0.473685 0.385401 1.623655 0.000000 0.000000 0.000000
0.480288 0.382380 1.639614 0.000000 0.000000 0.000000
0.478699 0.392836 1.635258 0.000000 0.000000 0.000000
0.477407 0.394826 1.626062 0.000000 0.000000 0.000000
0.480535 0.382648 1.640338 0.000000 0.000000 0.000000
0.468167 0.449601 1.544965 0.000000 0.000000 0.000000
0.469872 0.443963 1.552833 0.000000 0.000000 0.000000
0.471049 0.420900 1.565241 0.000000 0.000000 0.000000
0.478077 0.445274 1.573301 0.000000 0.000000 0.000000
0.480654 0.442846 1.587820 0.000000 0.000000 0.000000
0.477125 0.447444 1.566489 0.000000 0.000000 0.000000
0.480608 0.393193 1.608566 0.000000 0.000000 0.000000
0.469646 0.435685 1.554365 0.000000 0.000000 0.000000
0.470232 0.451686 1.543408 0.000000 0.000000 0.000000
0.468286 0.450400 1.547729 0.000000 0.000000 0.000000
0.471818 0.441167 1.563819 0.000000 0.000000 0.000000
0.469692 0.436523 1.566659 0.000000 0.000000 0.000000
0.472010 0.421504 1.576028 0.000000 0.000000 0.000000
0.471547 0.423966 1.575248 0.000000 0.000000 0.000000
0.471141 0.428776 1.569650 0.000000 0.000000 0.000000
0.471031 0.420170 1.586308 0.000000 0.000000 0.000000
0.473821 0.440313 1.565416 0.000000 0.000000 0.000000
0.480051 0.449463 1.573827 0.000000 0.000000 0.000000
0.485377 0.386264 1.645739 0.000000 0.000000 0.000000
0.481809 0.430554 1.603605 0.000000 0.000000 0.000000
0.477259 0.394804 1.610183 0.000000 0.000000 0.000000
0.479918 0.443108 1.576589 0.000000 0.000000 0.000000
0.475030 0.443529 1.556773 0.000000 0.000000 0.000000
0.479458 0.433386 1.593747 0.000000 0.000000 0.000000
0.481727 0.381569 1.644109 0.000000 0.000000 0.000000
0.480340 0.382073 1.638894 0.000000 0.000000 0.000000
0.482603 0.382876 1.647506 0.000000 0.000000 0.000000
0.470296 0.432833 1.558419 0.000000 0.000000 0.000000
0.479448 0.445948 1.580866 0.000000 0.000000 0.000000
0.474602 0.425590 1.592205 0.000000 0.000000 0.000000
0.469762 0.422086 1.581677 0.000000 0.000000 0.000000
0.477280 0.414258 1.608487 0.000000 0.000000 0.000000
0.475918 0.440262 1.569789 0.000000 0.000000 0.000000
0.473418 0.420540 1.595223 0.000000 0.000000 0.000000
0.476899 0.443660 1.571740 0.000000 0.000000 0.000000
0.480062 0.441618 1.590523 0.000000 0.000000 0.000000
0.480408 0.446792 1.578582 0.000000 0.000000 0.000000
0.469749 0.444840 1.551304 0.000000 0.000000 0.000000
0.480230 0.437648 1.586826 0.000000 0.000000 0.000000
0.479583 0.450755 1.575265 0.000000 0.000000 0.000000
0.468589 0.439546 1.557163 0.000000 0.000000 0.000000
0.479002 0.438216 1.588508 0.000000 0.000000 0.000000
0.474137 0.407067 1.608018 0.000000 0.000000 0.000000
0.473054 0.433584 1.576158 0.000000 0.000000 0.000000
0.477706 0.422411 1.594379 0.000000 0.000000 0.000000
0.473413 0.448132 1.555367 0.000000 0.000000 0.000000
0.474723 0.441743 1.570415 0.000000 0.000000 0.000000
0.468050 0.441433 1.557712 0.000000 0.000000 0.000000
0.478045 0.401486 1.600663 0.000000 0.000000 0.000000
0.476542 0.403393 1.603194 0.000000 0.000000 0.000000
0.476887 0.394721 1.610545 0.000000 0.000000 0.000000
0.477745 0.397918 1.600235 0.000000 0.000000 0.000000
0.477342 0.398685 1.602313 0.000000 0.000000 0.000000
0.478301 0.397108 1.600881 0.000000 0.000000 0.000000
0.466968 0.451705 1.545513 0.000000 0.000000 0.000000
0.472217 0.406360 1.588141 0.000000 0.000000 0.000000
0.484936 0.424409 1.621306 0.000000 0.000000 0.000000
0.474937 0.405759 1.591023 0.000000 0.000000 0.000000
0.476865 0.402189 1.621665 0.000000 0.000000 0.000000
0.475076 0.398185 1.610462 0.000000 0.000000 0.000000
0.476061 0.399450 1.619252 0.000000 0.000000 0.000000
0.476895 0.394495 1.612861 0.000000 0.000000 0.000000
0.478949 0.393949 1.625383 0.000000 0.000000 0.000000
0.479313 0.397685 1.631563 0.000000 0.000000 0.000000
0.476702 0.395252 1.619095 0.000000 0.000000 0.000000
0.474290 0.405515 1.607757 0.000000 0.000000 0.000000
0.473510 0.403882 1.610424 0.000000 0.000000 0.000000
0.477013 0.397696 1.609666 0.000000 0.000000 0.000000
0.470399 0.448323 1.549510 0.000000 0.000000 0.000000
0.476037 0.400428 1.612202 0.000000 0.000000 0.000000
0.476125 0.396488 1.615652 0.000000 0.000000 0.000000
0.472754 0.414777 1.603090 0.000000 0.000000 0.000000
0.477634 0.398207 1.616087 0.000000 0.000000 0.000000
0.467781 0.449791 1.543109 0.000000 0.000000 0.000000
0.481838 0.428238 1.604512 0.000000 0.000000 0.000000
0.481068 0.421008 1.609165 0.000000 0.000000 0.000000
0.474008 0.396965 1.614956 0.000000 0.000000 0.000000
0.478535 0.391414 1.633924 0.000000 0.000000 0.000000
0.485148 0.425200 1.612053 0.000000 0.000000 0.000000
0.469536 0.449995 1.543480 0.000000 0.000000 0.000000
0.487600 0.424938 1.614030 0.000000 0.000000 0.000000
0.481897 0.392277 1.640136 0.000000 0.000000 0.000000
0.470576 0.448964 1.546433 0.000000 0.000000 0.000000
0.477440 0.394765 1.613674 0.000000 0.000000 0.000000
0.482248 0.431564 1.602936 0.000000 0.000000 0.000000
0.484330 0.427984 1.613312 0.000000 0.000000 0.000000
0.473976 0.401035 1.597139 0.000000 0.000000 0.000000
0.484709 0.421129 1.618609 0.000000 0.000000 0.000000
0.469741 0.447517 1.551343 0.000000 0.000000 0.000000
0.474966 0.400481 1.615124 0.000000 0.000000 0.000000
0.485676 0.420937 1.613988 0.000000 0.000000 0.000000
0.484159 0.413922 1.620073 0.000000 0.000000 0.000000
0.485106 0.430522 1.611766 0.000000 0.000000 0.000000
0.481622 0.417838 1.614396 0.000000 0.000000 0.000000
0.478080 0.397122 1.620610 0.000000 0.000000 0.000000
0.481200 0.438297 1.593905 0.000000 0.000000 0.000000
0.474505 0.399179 1.591929 0.000000 0.000000 0.000000
0.479590 0.384205 1.632296 0.000000 0.000000 0.000000
0.468671 0.451813 1.545677 0.000000 0.000000 0.000000
0.483219 0.388261 1.643817 0.000000 0.000000 0.000000
0.479544 0.397295 1.632766 0.000000 0.000000 0.000000
0.474987 0.406426 1.587786 0.000000 0.000000 0.000000
0.483247 0.437453 1.602575 0.000000 0.000000 0.000000
0.465727 0.449413 1.542371 0.000000 0.000000 0.000000
0.477633 0.448268 1.570008 0.000000 0.000000 0.000000
0.485158 0.431845 1.607527 0.000000 0.000000 0.000000
0.470131 0.442265 1.556347 0.000000 0.000000 0.000000
0.480689 0.381394 1.644674 0.000000 0.000000 0.000000
0.470256 0.445912 1.547419 0.000000 0.000000 0.000000
0.483949 0.442444 1.595381 0.000000 0.000000 0.000000
0.483414 0.412088 1.628612 0.000000 0.000000 0.000000
0.486581 0.441315 1.600829 0.000000 0.000000 0.000000
0.483656 0.404856 1.627250 0.000000 0.000000 0.000000
0.481115 0.413208 1.620847 0.000000 0.000000 0.000000
0.478939 0.396667 1.603512 0.000000 0.000000 0.000000
0.478695 0.445399 1.570858 0.000000 0.000000 0.000000
0.483737 0.403869 1.628403 0.000000 0.000000 0.000000
0.484093 0.406751 1.629131 0.000000 0.000000 0.000000
0.482302 0.382634 1.645430 0.000000 0.000000 0.000000
0.482637 0.396540 1.638027 0.000000 0.000000 0.000000
0.486839 0.430598 1.607095 0.000000 0.000000 0.000000
0.483993 0.404735 1.631718 0.000000 0.000000 0.000000
0.479034 0.447743 1.576190 0.000000 0.000000 0.000000
0.482069 0.403254 1.623630 0.000000 0.000000 0.000000
0.484263 0.420592 1.612725 0.000000 0.000000 0.000000
0.467795 0.407671 1.580289 0.000000 0.000000 0.000000
0.483018 0.407730 1.628240 0.000000 0.000000 0.000000
0.481406 0.400859 1.606259 0.000000 0.000000 0.000000
0.484089 0.406320 1.629488 0.000000 0.000000 0.000000
0.479963 0.390122 1.634753 0.000000 0.000000 0.000000
0.473063 0.415835 1.576182 0.000000 0.000000 0.000000
0.479506 0.398340 1.614889 0.000000 0.000000 0.000000
0.475024 0.416214 1.575351 0.000000 0.000000 0.000000
0.471075 0.412869 1.571741 0.000000 0.000000 0.000000
0.481893 0.440035 1.594850 0.000000 0.000000 0.000000
0.484964 0.439727 1.592771 0.000000 0.000000 0.000000
0.478895 0.425685 1.600325 0.000000 0.000000 0.000000
0.482403 0.446429 1.589970 0.000000 0.000000 0.000000
0.482794 0.437792 1.594193 0.000000 0.000000 0.000000
0.482347 0.438812 1.594531 0.000000 0.000000 0.000000
0.483568 0.433900 1.604800 0.000000 0.000000 0.000000
0.470734 0.449033 1.553549 0.000000 0.000000 0.000000
0.485923 0.439936 1.599922 0.000000 0.000000 0.000000
0.476096 0.440475 1.586028 0.000000 0.000000 0.000000
0.481881 0.380955 1.644721 0.000000 0.000000 0.000000
0.478509 0.446582 1.574895 0.000000 0.000000 0.000000
0.476573 0.438341 1.586079 0.000000 0.000000 0.000000
0.477509 0.407189 1.616205 0.000000 0.000000 0.000000
0.481424 0.431843 1.600174 0.000000 0.000000 0.000000
0.471679 0.431915 1.556054 0.000000 0.000000 0.000000
0.483073 0.437914 1.597041 0.000000 0.000000 0.000000
0.479355 0.444869 1.579627 0.000000 0.000000 0.000000
0.483931 0.419407 1.623100 0.000000 0.000000 0.000000
0.481921 0.403710 1.634602 0.000000 0.000000 0.000000
0.480780 0.436661 1.593089 0.000000 0.000000 0.000000
0.469756 0.423108 1.559811 0.000000 0.000000 0.000000
0.478784 0.442474 1.580577 0.000000 0.000000 0.000000
0.471812 0.444925 1.548592 0.000000 0.000000 0.000000
0.481256 0.440821 1.597656 0.000000 0.000000 0.000000
0.476789 0.395519 1.617398 0.000000 0.000000 0.000000
0.480407 0.379250 1.648650 0.000000 0.000000 0.000000
0.472513 0.402787 1.591487 0.000000 0.000000 0.000000
0.471556 0.412214 1.582846 0.000000 0.000000 0.000000
0.471737 0.399796 1.594952 0.000000 0.000000 0.000000
0.473765 0.389608 1.610896 0.000000 0.000000 0.000000
0.472573 0.414391 1.599726 0.000000 0.000000 0.000000
0.480770 0.401645 1.596907 0.000000 0.000000 0.000000
0.478544 0.397429 1.601183 0.000000 0.000000 0.000000
0.473100 0.404005 1.606368 0.000000 0.000000 0.000000
0.474761 0.400875 1.595547 0.000000 0.000000 0.000000
0.471528 0.402785 1.588715 0.000000 0.000000 0.000000
0.471633 0.398433 1.592473 0.000000 0.000000 0.000000
0.472179 0.419233 1.589439 0.000000 0.000000 0.000000
0.480093 0.400687 1.603136 0.000000 0.000000 0.000000
0.486156 0.428783 1.613409 0.000000 0.000000 0.000000
0.484340 0.423389 1.617743 0.000000 0.000000 0.000000
0.483966 0.384670 1.645811 0.000000 0.000000 0.000000
0.486856 0.429038 1.608842 0.000000 0.000000 0.000000
0.481594 0.383952 1.637558 0.000000 0.000000 0.000000
0.481887 0.385176 1.639301 0.000000 0.000000 0.000000
0.483535 0.425708 1.612452 0.000000 0.000000 0.000000
0.484141 0.383543 1.644615 0.000000 0.000000 0.000000
0.481021 0.383187 1.644200 0.000000 0.000000 0.000000
0.481102 0.383899 1.642612 0.000000 0.000000 0.000000
0.482232 0.435664 1.600879 0.000000 0.000000 0.000000
0.483393 0.429963 1.614884 0.000000 0.000000 0.000000
0.485632 0.428648 1.607614 0.000000 0.000000 0.000000
0.484024 0.425435 1.619390 0.000000 0.000000 0.000000
0.482757 0.425956 1.610261 0.000000 0.000000 0.000000
0.486514 0.423973 1.621378 0.000000 0.000000 0.000000
0.480550 0.444721 1.585139 0.000000 0.000000 0.000000
0.480020 0.446615 1.569416 0.000000 0.000000 0.000000
0.477908 0.452851 1.564923 0.000000 0.000000 0.000000
0.471157 0.406767 1.605144 0.000000 0.000000 0.000000
0.468437 0.451247 1.543622 0.000000 0.000000 0.000000
0.478199 0.449462 1.570154 0.000000 0.000000 0.000000
0.475726 0.448903 1.563175 0.000000 0.000000 0.000000
0.479642 0.442099 1.584794 0.000000 0.000000 0.000000
0.471282 0.410248 1.600869 0.000000 0.000000 0.000000
0.479598 0.452785 1.569787 0.000000 0.000000 0.000000
0.483673 0.435274 1.609701 0.000000 0.000000 0.000000
0.480753 0.441946 1.589042 0.000000 0.000000 0.000000
0.479761 0.445771 1.582549 0.000000 0.000000 0.000000
0.479468 0.378017 1.652416 0.000000 0.000000 0.000000
0.474698 0.421413 1.583025 0.000000 0.000000 0.000000
0.471557 0.426997 1.584246 0.000000 0.000000 0.000000
0.474127 0.407663 1.610722 0.000000 0.000000 0.000000
0.476760 0.411008 1.612699 0.000000 0.000000 0.000000
0.477774 0.405344 1.618693 0.000000 0.000000 0.000000
0.479847 0.442717 1.583426 0.000000 0.000000 0.000000
0.475613 0.443179 1.569823 0.000000 0.000000 0.000000
0.469548 0.429557 1.556362 0.000000 0.000000 0.000000
0.470311 0.417780 1.596544 0.000000 0.000000 0.000000
0.473701 0.404546 1.607772 0.000000 0.000000 0.000000
0.472505 0.412309 1.593255 0.000000 0.000000 0.000000
0.473943 0.416265 1.605694 0.000000 0.000000 0.000000
0.479344 0.444759 1.567930 0.000000 0.000000 0.000000
0.480447 0.416682 1.611947 0.000000 0.000000 0.000000
0.477058 0.438800 1.577409 0.000000 0.000000 0.000000
0.478377 0.446669 1.573685 0.000000 0.000000 0.000000
0.479679 0.384637 1.639974 0.000000 0.000000 0.000000
0.485071 0.428753 1.608002 0.000000 0.000000 0.000000
0.484020 0.418930 1.615852 0.000000 0.000000 0.000000
0.486694 0.418000 1.621925 0.000000 0.000000 0.000000
0.481944 0.428536 1.603439 0.000000 0.000000 0.000000
0.486597 0.434171 1.606961 0.000000 0.000000 0.000000
0.484114 0.429443 1.606598 0.000000 0.000000 0.000000
0.486990 0.427132 1.606701 0.000000 0.000000 0.000000
0.482575 0.389411 1.643569 0.000000 0.000000 0.000000
0.481543 0.428132 1.603334 0.000000 0.000000 0.000000
0.483863 0.421811 1.610789 0.000000 0.000000 0.000000
0.468460 0.417455 1.569457 0.000000 0.000000 0.000000
0.482763 0.437288 1.593866 0.000000 0.000000 0.000000
0.485473 0.424883 1.615641 0.000000 0.000000 0.000000
0.484664 0.428211 1.612478 0.000000 0.000000 0.000000
0.484729 0.415588 1.619800 0.000000 0.000000 0.000000
0.482660 0.431313 1.608441 0.000000 0.000000 0.000000
0.482962 0.444538 1.594013 0.000000 0.000000 0.000000
0.481418 0.446582 1.573582 0.000000 0.000000 0.000000
0.485822 0.437925 1.606329 0.000000 0.000000 0.000000
0.481678 0.382814 1.646526 0.000000 0.000000 0.000000
0.483411 0.423719 1.610042 0.000000 0.000000 0.000000
0.476927 0.422398 1.600853 0.000000 0.000000 0.000000
0.484078 0.418627 1.624403 0.000000 0.000000 0.000000
0.484498 0.425059 1.619221 0.000000 0.000000 0.000000
0.468262 0.401358 1.585665 0.000000 0.000000 0.000000
0.487220 0.422300 1.622229 0.000000 0.000000 0.000000
0.473800 0.406686 1.588032 0.000000 0.000000 0.000000
0.485946 0.433797 1.603534 0.000000 0.000000 0.000000
0.477433 0.394638 1.610878 0.000000 0.000000 0.000000
0.470606 0.449217 1.546297 0.000000 0.000000 0.000000
0.477918 0.448707 1.573441 0.000000 0.000000 0.000000
0.470788 0.447098 1.556612 0.000000 0.000000 0.000000
0.468874 0.448924 1.548854 0.000000 0.000000 0.000000
0.470479 0.449660 1.547379 0.000000 0.000000 0.000000
0.470933 0.450497 1.544011 0.000000 0.000000 0.000000
0.469229 0.444752 1.549716 0.000000 0.000000 0.000000
0.470554 0.449703 1.547620 0.000000 0.000000 0.000000
0.480358 0.442687 1.578322 0.000000 0.000000 0.000000
0.481469 0.445878 1.584023 0.000000 0.000000 0.000000
0.486025 0.424441 1.617212 0.000000 0.000000 0.000000
0.470338 0.413002 1.576103 0.000000 0.000000 0.000000
0.480597 0.445534 1.580320 0.000000 0.000000 0.000000
0.467992 0.420245 1.564245 0.000000 0.000000 0.000000
0.478522 0.444225 1.567899 0.000000 0.000000 0.000000
0.475504 0.397251 1.597843 0.000000 0.000000 0.000000
0.469455 0.416129 1.568318 0.000000 0.000000 0.000000
0.479708 0.381396 1.645117 0.000000 0.000000 0.000000
0.480424 0.381625 1.641694 0.000000 0.000000 0.000000
0.482438 0.444926 1.584282 0.000000 0.000000 0.000000
0.481880 0.420705 1.614194 0.000000 0.000000 0.000000
0.484200 0.383537 1.642878 0.000000 0.000000 0.000000
0.478385 0.441472 1.577031 0.000000 0.000000 0.000000
0.480046 0.391218 1.636495 0.000000 0.000000 0.000000
0.482223 0.384101 1.645663 0.000000 0.000000 0.000000
0.477598 0.445911 1.579731 0.000000 0.000000 0.000000
0.477531 0.446735 1.570403 0.000000 0.000000 0.000000
0.471224 0.421470 1.568846 0.000000 0.000000 0.000000
0.467850 0.409457 1.583393 0.000000 0.000000 0.000000
0.478852 0.444133 1.582783 0.000000 0.000000 0.000000
0.469889 0.416661 1.575698 0.000000 0.000000 0.000000
0.469793 0.428682 1.559265 0.000000 0.000000 0.000000
0.466881 0.412704 1.573069 0.000000 0.000000 0.000000
0.480690 0.444389 1.582748 0.000000 0.000000 0.000000
0.469934 0.408364 1.578627 0.000000 0.000000 0.000000
0.468594 0.415518 1.580684 0.000000 0.000000 0.000000
0.469904 0.417826 1.566765 0.000000 0.000000 0.000000
0.480376 0.449655 1.588744 0.000000 0.000000 0.000000
0.468610 0.427944 1.563520 0.000000 0.000000 0.000000
0.471410 0.421017 1.590945 0.000000 0.000000 0.000000
0.473808 0.409461 1.582201 0.000000 0.000000 0.000000
0.468476 0.419325 1.566638 0.000000 0.000000 0.000000
0.469645 0.407395 1.580816 0.000000 0.000000 0.000000
0.467332 0.412553 1.572749 0.000000 0.000000 0.000000
0.486655 0.430758 1.614571 0.000000 0.000000 0.000000
0.468442 0.410554 1.577393 0.000000 0.000000 0.000000
0.485984 0.407860 1.626459 0.000000 0.000000 0.000000
0.484849 0.401710 1.632936 0.000000 0.000000 0.000000
0.478402 0.447983 1.571510 0.000000 0.000000 0.000000
0.484955 0.424081 1.619096 0.000000 0.000000 0.000000
0.470527 0.409655 1.579494 0.000000 0.000000 0.000000
0.466499 0.411660 1.568084 0.000000 0.000000 0.000000
0.483831 0.405167 1.628262 0.000000 0.000000 0.000000
0.482011 0.381621 1.643801 0.000000 0.000000 0.000000
0.485298 0.424234 1.617551 0.000000 0.000000 0.000000
0.468689 0.421735 1.562815 0.000000 0.000000 0.000000
0.481308 0.390022 1.637368 0.000000 0.000000 0.000000
0.475174 0.444665 1.554769 0.000000 0.000000 0.000000
0.481661 0.389160 1.632335 0.000000 0.000000 0.000000
0.465469 0.406458 1.576321 0.000000 0.000000 0.000000
0.473992 0.435228 1.568169 0.000000 0.000000 0.000000
0.488828 0.428035 1.609467 0.000000 0.000000 0.000000
0.485691 0.438655 1.601515 0.000000 0.000000 0.000000
0.481546 0.380144 1.640556 0.000000 0.000000 0.000000
0.483891 0.436420 1.602370 0.000000 0.000000 0.000000
0.485302 0.436588 1.599604 0.000000 0.000000 0.000000
0.469718 0.449146 1.549931 0.000000 0.000000 0.000000
0.480534 0.387256 1.637796 0.000000 0.000000 0.000000
0.485966 0.439781 1.599005 0.000000 0.000000 0.000000
0.485373 0.436971 1.599134 0.000000 0.000000 0.000000
0.482330 0.392713 1.643108 0.000000 0.000000 0.000000
0.482693 0.384398 1.645377 0.000000 0.000000 0.000000
0.484272 0.432108 1.613570 0.000000 0.000000 0.000000
0.486451 0.433979 1.606889 0.000000 0.000000 0.000000
0.485007 0.433387 1.605631 0.000000 0.000000 0.000000
0.476844 0.397735 1.595134 0.000000 0.000000 0.000000
0.477613 0.403038 1.591820 0.000000 0.000000 0.000000
0.474284 0.397414 1.595623 0.000000 0.000000 0.000000
0.475095 0.400442 1.590605 0.000000 0.000000 0.000000
0.480127 0.381008 1.641501 0.000000 0.000000 0.000000
0.479284 0.379991 1.645189 0.000000 0.000000 0.000000
0.468817 0.447206 1.547415 0.000000 0.000000 0.000000
0.485613 0.428041 1.608705 0.000000 0.000000 0.000000
0.485978 0.436421 1.608335 0.000000 0.000000 0.000000
0.483086 0.403257 1.638767 0.000000 0.000000 0.000000
0.479797 0.378337 1.649933 0.000000 0.000000 0.000000
0.485867 0.422833 1.621109 0.000000 0.000000 0.000000
0.487579 0.437244 1.605295 0.000000 0.000000 0.000000
0.482405 0.437584 1.584597 0.000000 0.000000 0.000000
0.468853 0.417771 1.569442 0.000000 0.000000 0.000000
0.470937 0.420534 1.561088 0.000000 0.000000 0.000000
0.480329 0.378996 1.647836 0.000000 0.000000 0.000000
0.477394 0.394606 1.615804 0.000000 0.000000 0.000000
0.483165 0.387659 1.646493 0.000000 0.000000 0.000000
0.476936 0.394982 1.623112 0.000000 0.000000 0.000000
0.469184 0.407951 1.581357 0.000000 0.000000 0.000000
0.480081 0.391633 1.631353 0.000000 0.000000 0.000000
0.469247 0.415892 1.573615 0.000000 0.000000 0.000000
0.481870 0.403121 1.637100 0.000000 0.000000 0.000000
0.478921 0.380295 1.643363 0.000000 0.000000 0.000000
0.469622 0.407929 1.580369 0.000000 0.000000 0.000000
0.467147 0.407365 1.578834 0.000000 0.000000 0.000000
0.483607 0.392959 1.644564 0.000000 0.000000 0.000000
0.471655 0.413058 1.576948 0.000000 0.000000 0.000000
0.470107 0.428913 1.561399 0.000000 0.000000 0.000000
0.470171 0.403678 1.587235 0.000000 0.000000 0.000000
0.470453 0.412781 1.575747 0.000000 0.000000 0.000000
0.469663 0.426822 1.564255 0.000000 0.000000 0.000000
0.470242 0.405547 1.585733 0.000000 0.000000 0.000000
0.480087 0.383133 1.634552 0.000000 0.000000 0.000000
0.480257 0.381153 1.636684 0.000000 0.000000 0.000000
0.474330 0.446998 1.556642 0.000000 0.000000 0.000000
0.468795 0.440311 1.551998 0.000000 0.000000 0.000000
0.480028 0.389591 1.629229 0.000000 0.000000 0.000000
0.471834 0.445017 1.554374 0.000000 0.000000 0.000000
0.480380 0.390371 1.638968 0.000000 0.000000 0.000000
0.464064 0.440423 1.552030 0.000000 0.000000 0.000000
0.472662 0.447366 1.555835 0.000000 0.000000 0.000000
0.483525 0.383906 1.644464 0.000000 0.000000 0.000000
0.484220 0.421297 1.617896 0.000000 0.000000 0.000000
0.467532 0.448067 1.546907 0.000000 0.000000 0.000000
0.471327 0.448794 1.554840 0.000000 0.000000 0.000000
0.480954 0.382021 1.645090 0.000000 0.000000 0.000000
0.475485 0.401785 1.616736 0.000000 0.000000 0.000000
0.474136 0.400453 1.621777 0.000000 0.000000 0.000000
0.477598 0.393682 1.623603 0.000000 0.000000 0.000000
0.478606 0.392780 1.623134 0.000000 0.000000 0.000000
0.470423 0.438887 1.560978 0.000000 0.000000 0.000000
0.469637 0.437788 1.552874 0.000000 0.000000 0.000000
0.471379 0.437816 1.551818 0.000000 0.000000 0.000000
0.476948 0.394558 1.629142 0.000000 0.000000 0.000000
0.481484 0.403158 1.620256 0.000000 0.000000 0.000000
0.478837 0.392707 1.616799 0.000000 0.000000 0.000000
0.471169 0.424166 1.585565 0.000000 0.000000 0.000000
0.468654 0.432548 1.557660 0.000000 0.000000 0.000000
0.469717 0.442628 1.548432 0.000000 0.000000 0.000000
0.481265 0.402906 1.625128 0.000000 0.000000 0.000000
0.482551 0.383018 1.646128 0.000000 0.000000 0.000000
0.471316 0.440621 1.562394 0.000000 0.000000 0.000000
0.468768 0.427769 1.568949 0.000000 0.000000 0.000000
0.482161 0.395388 1.635242 0.000000 0.000000 0.000000
0.474438 0.397701 1.621659 0.000000 0.000000 0.000000
0.470318 0.433135 1.561071 0.000000 0.000000 0.000000
0.469241 0.419123 1.568989 0.000000 0.000000 0.000000
0.478054 0.447379 1.575452 0.000000 0.000000 0.000000
0.480452 0.445405 1.582281 0.000000 0.000000 0.000000
0.472839 0.443333 1.562151 0.000000 0.000000 0.000000
0.472715 0.387145 1.621930 0.000000 0.000000 0.000000
0.480634 0.447436 1.580610 0.000000 0.000000 0.000000
0.480754 0.451133 1.580425 0.000000 0.000000 0.000000
0.481760 0.450070 1.577064 0.000000 0.000000 0.000000
0.472485 0.449638 1.543889 0.000000 0.000000 0.000000
0.480068 0.446197 1.579808 0.000000 0.000000 0.000000
0.473191 0.415121 1.597398 0.000000 0.000000 0.000000
0.479209 0.449054 1.572561 0.000000 0.000000 0.000000
0.478793 0.446220 1.575875 0.000000 0.000000 0.000000
0.478790 0.445928 1.580104 0.000000 0.000000 0.000000
