ply
format ascii 1.0
comment VCGLIB generated
obj_info Generated by SPFormer!
element vertex 823
property float x
property float y
property float z
property float nx
property float ny
property float nz
end_header
0.487282 -0.879760 1.578620 0.000000 0.000000 0.000000
0.555447 -0.828865 1.544964 0.000000 0.000000 0.000000
0.536129 -0.845887 1.500188 0.000000 0.000000 0.000000
0.524579 -0.851748 1.480467 0.000000 0.000000 0.000000
0.545311 -0.833807 1.523448 0.000000 0.000000 0.000000
0.546160 -0.833480 1.535020 0.000000 0.000000 0.000000
0.473731 -0.838278 1.663766 0.000000 0.000000 0.000000
0.496626 -0.878717 1.630967 0.000000 0.000000 0.000000
0.545393 -0.845370 1.533283 0.000000 0.000000 0.000000
0.546515 -0.832095 1.539278 0.000000 0.000000 0.000000
0.537440 -0.832535 1.516735 0.000000 0.000000 0.000000
0.548640 -0.869232 1.503688 0.000000 0.000000 0.000000
0.533654 -0.856585 1.499133 0.000000 0.000000 0.000000
0.532010 -0.867743 1.499489 0.000000 0.000000 0.000000
0.526522 -0.852478 1.515331 0.000000 0.000000 0.000000
0.545854 -0.868556 1.546484 0.000000 0.000000 0.000000
0.536625 -0.861429 1.502204 0.000000 0.000000 0.000000
0.548111 -0.831916 1.530239 0.000000 0.000000 0.000000
0.544454 -0.838131 1.528900 0.000000 0.000000 0.000000
0.496422 -0.864229 1.598953 0.000000 0.000000 0.000000
0.549491 -0.853695 1.527415 0.000000 0.000000 0.000000
0.540832 -0.856300 1.515425 0.000000 0.000000 0.000000
0.544840 -0.879718 1.499202 0.000000 0.000000 0.000000
0.520046 -0.853662 1.505903 0.000000 0.000000 0.000000
0.541155 -0.859410 1.510548 0.000000 0.000000 0.000000
0.544767 -0.852516 1.525113 0.000000 0.000000 0.000000
0.545616 -0.844899 1.539045 0.000000 0.000000 0.000000
0.490471 -0.875256 1.595030 0.000000 0.000000 0.000000
0.542436 -0.863101 1.518856 0.000000 0.000000 0.000000
0.545204 -0.845006 1.532731 0.000000 0.000000 0.000000
0.512661 -0.873465 1.591406 0.000000 0.000000 0.000000
0.502664 -0.867163 1.583557 0.000000 0.000000 0.000000
0.549076 -0.854734 1.527250 0.000000 0.000000 0.000000
0.503918 -0.871307 1.612250 0.000000 0.000000 0.000000
0.516456 -0.861830 1.550170 0.000000 0.000000 0.000000
0.538193 -0.862735 1.508062 0.000000 0.000000 0.000000
0.516917 -0.854528 1.577994 0.000000 0.000000 0.000000
0.545259 -0.858223 1.517192 0.000000 0.000000 0.000000
0.553652 -0.840257 1.540970 0.000000 0.000000 0.000000
0.496011 -0.867211 1.587658 0.000000 0.000000 0.000000
0.546323 -0.841149 1.536877 0.000000 0.000000 0.000000
0.496126 -0.872342 1.589236 0.000000 0.000000 0.000000
0.524832 -0.856911 1.566999 0.000000 0.000000 0.000000
0.499594 -0.861082 1.608114 0.000000 0.000000 0.000000
0.498324 -0.864296 1.604658 0.000000 0.000000 0.000000
0.506890 -0.855956 1.575757 0.000000 0.000000 0.000000
0.523880 -0.860572 1.504207 0.000000 0.000000 0.000000
0.549316 -0.869180 1.501289 0.000000 0.000000 0.000000
0.562835 -0.835764 1.530964 0.000000 0.000000 0.000000
0.505624 -0.861031 1.535823 0.000000 0.000000 0.000000
0.550553 -0.861920 1.525938 0.000000 0.000000 0.000000
0.560711 -0.848830 1.528535 0.000000 0.000000 0.000000
0.538180 -0.857868 1.508189 0.000000 0.000000 0.000000
0.501255 -0.843662 1.522548 0.000000 0.000000 0.000000
0.508580 -0.862229 1.578885 0.000000 0.000000 0.000000
0.489173 -0.872555 1.622573 0.000000 0.000000 0.000000
0.537846 -0.863257 1.520440 0.000000 0.000000 0.000000
0.542460 -0.836445 1.543923 0.000000 0.000000 0.000000
0.507134 -0.864460 1.527130 0.000000 0.000000 0.000000
0.544246 -0.856497 1.521623 0.000000 0.000000 0.000000
0.543311 -0.878798 1.502823 0.000000 0.000000 0.000000
0.494591 -0.856458 1.618064 0.000000 0.000000 0.000000
0.535140 -0.849389 1.498491 0.000000 0.000000 0.000000
0.491313 -0.864271 1.563105 0.000000 0.000000 0.000000
0.497196 -0.864171 1.617638 0.000000 0.000000 0.000000
0.509646 -0.845000 1.607067 0.000000 0.000000 0.000000
0.537372 -0.856552 1.514472 0.000000 0.000000 0.000000
0.543854 -0.863881 1.493262 0.000000 0.000000 0.000000
0.497605 -0.874987 1.617267 0.000000 0.000000 0.000000
0.534029 -0.876453 1.493632 0.000000 0.000000 0.000000
0.504957 -0.866616 1.597899 0.000000 0.000000 0.000000
0.526859 -0.860151 1.561217 0.000000 0.000000 0.000000
0.545134 -0.870888 1.509831 0.000000 0.000000 0.000000
0.497512 -0.870969 1.580887 0.000000 0.000000 0.000000
0.544394 -0.844606 1.542220 0.000000 0.000000 0.000000
0.507765 -0.868857 1.539404 0.000000 0.000000 0.000000
0.493546 -0.874449 1.583097 0.000000 0.000000 0.000000
0.540340 -0.862731 1.507078 0.000000 0.000000 0.000000
0.540033 -0.831812 1.552537 0.000000 0.000000 0.000000
0.553092 -0.831481 1.545428 0.000000 0.000000 0.000000
0.534450 -0.873684 1.498500 0.000000 0.000000 0.000000
0.563107 -0.832682 1.552936 0.000000 0.000000 0.000000
0.503899 -0.860821 1.590574 0.000000 0.000000 0.000000
0.507049 -0.861253 1.592390 0.000000 0.000000 0.000000
0.548782 -0.840721 1.529394 0.000000 0.000000 0.000000
0.515237 -0.858690 1.531711 0.000000 0.000000 0.000000
0.516530 -0.866797 1.549076 0.000000 0.000000 0.000000
0.555716 -0.822226 1.546266 0.000000 0.000000 0.000000
0.489800 -0.874957 1.619850 0.000000 0.000000 0.000000
0.538590 -0.877221 1.507058 0.000000 0.000000 0.000000
0.487368 -0.869180 1.619756 0.000000 0.000000 0.000000
0.480197 -0.861943 1.634343 0.000000 0.000000 0.000000
0.542415 -0.858075 1.519153 0.000000 0.000000 0.000000
0.510577 -0.862783 1.535954 0.000000 0.000000 0.000000
0.483594 -0.862075 1.611786 0.000000 0.000000 0.000000
0.524717 -0.869456 1.512850 0.000000 0.000000 0.000000
0.487345 -0.867597 1.625767 0.000000 0.000000 0.000000
0.537575 -0.856669 1.485321 0.000000 0.000000 0.000000
0.501307 -0.854336 1.521424 0.000000 0.000000 0.000000
0.484310 -0.864741 1.580157 0.000000 0.000000 0.000000
0.536840 -0.870784 1.496882 0.000000 0.000000 0.000000
0.546079 -0.848796 1.545077 0.000000 0.000000 0.000000
0.548991 -0.846563 1.527986 0.000000 0.000000 0.000000
0.542202 -0.857148 1.516704 0.000000 0.000000 0.000000
0.499108 -0.856970 1.547967 0.000000 0.000000 0.000000
0.548033 -0.848846 1.524315 0.000000 0.000000 0.000000
0.514479 -0.874205 1.553179 0.000000 0.000000 0.000000
0.546714 -0.867332 1.582044 0.000000 0.000000 0.000000
0.557277 -0.830199 1.543676 0.000000 0.000000 0.000000
0.530866 -0.859955 1.494348 0.000000 0.000000 0.000000
0.546001 -0.839750 1.534973 0.000000 0.000000 0.000000
0.557862 -0.834536 1.539359 0.000000 0.000000 0.000000
0.525755 -0.871657 1.536621 0.000000 0.000000 0.000000
0.548509 -0.838994 1.519843 0.000000 0.000000 0.000000
0.538595 -0.879116 1.510276 0.000000 0.000000 0.000000
0.537996 -0.874515 1.490687 0.000000 0.000000 0.000000
0.536093 -0.872120 1.592291 0.000000 0.000000 0.000000
0.546565 -0.866723 1.516828 0.000000 0.000000 0.000000
0.505175 -0.869321 1.584589 0.000000 0.000000 0.000000
0.518015 -0.862500 1.543059 0.000000 0.000000 0.000000
0.500219 -0.872236 1.537421 0.000000 0.000000 0.000000
0.485072 -0.870913 1.636530 0.000000 0.000000 0.000000
0.498743 -0.865615 1.531401 0.000000 0.000000 0.000000
0.479419 -0.865462 1.638959 0.000000 0.000000 0.000000
0.536689 -0.846045 1.484109 0.000000 0.000000 0.000000
0.491146 -0.880474 1.620918 0.000000 0.000000 0.000000
0.554154 -0.833293 1.537960 0.000000 0.000000 0.000000
0.541382 -0.876209 1.490042 0.000000 0.000000 0.000000
0.546726 -0.846972 1.536824 0.000000 0.000000 0.000000
0.546127 -0.863917 1.514079 0.000000 0.000000 0.000000
0.527292 -0.865920 1.549892 0.000000 0.000000 0.000000
0.537896 -0.865803 1.498045 0.000000 0.000000 0.000000
0.516810 -0.868465 1.565193 0.000000 0.000000 0.000000
0.528587 -0.859542 1.493069 0.000000 0.000000 0.000000
0.551039 -0.830631 1.537810 0.000000 0.000000 0.000000
0.551512 -0.847692 1.529825 0.000000 0.000000 0.000000
0.507908 -0.860716 1.564658 0.000000 0.000000 0.000000
0.543000 -0.869204 1.515205 0.000000 0.000000 0.000000
0.557036 -0.831780 1.539903 0.000000 0.000000 0.000000
0.540564 -0.859609 1.488850 0.000000 0.000000 0.000000
0.507930 -0.863061 1.532346 0.000000 0.000000 0.000000
0.548369 -0.836406 1.529603 0.000000 0.000000 0.000000
0.541098 -0.875118 1.505032 0.000000 0.000000 0.000000
0.516128 -0.858225 1.553981 0.000000 0.000000 0.000000
0.540917 -0.869951 1.508131 0.000000 0.000000 0.000000
0.503947 -0.870010 1.562859 0.000000 0.000000 0.000000
0.500493 -0.861244 1.574436 0.000000 0.000000 0.000000
0.511585 -0.863907 1.556260 0.000000 0.000000 0.000000
0.548281 -0.840463 1.529183 0.000000 0.000000 0.000000
0.501567 -0.870036 1.570044 0.000000 0.000000 0.000000
0.493138 -0.869627 1.556914 0.000000 0.000000 0.000000
0.493959 -0.875513 1.577404 0.000000 0.000000 0.000000
0.514810 -0.861813 1.524515 0.000000 0.000000 0.000000
0.489901 -0.873048 1.630882 0.000000 0.000000 0.000000
0.488971 -0.870557 1.607386 0.000000 0.000000 0.000000
0.500572 -0.865342 1.563172 0.000000 0.000000 0.000000
0.504345 -0.856595 1.604420 0.000000 0.000000 0.000000
0.534674 -0.869652 1.612944 0.000000 0.000000 0.000000
0.498776 -0.868188 1.585297 0.000000 0.000000 0.000000
0.549484 -0.833850 1.533174 0.000000 0.000000 0.000000
0.540730 -0.858809 1.531596 0.000000 0.000000 0.000000
0.543094 -0.851209 1.526488 0.000000 0.000000 0.000000
0.545258 -0.860498 1.513656 0.000000 0.000000 0.000000
0.549890 -0.871427 1.514764 0.000000 0.000000 0.000000
0.548276 -0.873997 1.508881 0.000000 0.000000 0.000000
0.549664 -0.847685 1.519477 0.000000 0.000000 0.000000
0.501253 -0.866216 1.564792 0.000000 0.000000 0.000000
0.554340 -0.873432 1.571741 0.000000 0.000000 0.000000
0.545236 -0.852061 1.523077 0.000000 0.000000 0.000000
0.479412 -0.868193 1.639834 0.000000 0.000000 0.000000
0.507185 -0.869351 1.573195 0.000000 0.000000 0.000000
0.514249 -0.861498 1.554265 0.000000 0.000000 0.000000
0.519333 -0.862553 1.542770 0.000000 0.000000 0.000000
0.504230 -0.867394 1.521845 0.000000 0.000000 0.000000
0.503933 -0.865188 1.520687 0.000000 0.000000 0.000000
0.520465 -0.873028 1.588496 0.000000 0.000000 0.000000
0.500728 -0.870825 1.591790 0.000000 0.000000 0.000000
0.543145 -0.848831 1.538882 0.000000 0.000000 0.000000
0.480967 -0.870394 1.629070 0.000000 0.000000 0.000000
0.543675 -0.830255 1.546421 0.000000 0.000000 0.000000
0.516522 -0.862116 1.521788 0.000000 0.000000 0.000000
0.476367 -0.868261 1.631228 0.000000 0.000000 0.000000
0.485813 -0.873602 1.600179 0.000000 0.000000 0.000000
0.488145 -0.878243 1.573535 0.000000 0.000000 0.000000
0.515007 -0.855755 1.606264 0.000000 0.000000 0.000000
0.504000 -0.857757 1.568832 0.000000 0.000000 0.000000
0.523275 -0.864552 1.495337 0.000000 0.000000 0.000000
0.552843 -0.831859 1.537026 0.000000 0.000000 0.000000
0.511761 -0.872475 1.580490 0.000000 0.000000 0.000000
0.526028 -0.869696 1.480480 0.000000 0.000000 0.000000
0.492515 -0.858151 1.614160 0.000000 0.000000 0.000000
0.493375 -0.862013 1.536606 0.000000 0.000000 0.000000
0.546752 -0.844470 1.527842 0.000000 0.000000 0.000000
0.510518 -0.854188 1.607824 0.000000 0.000000 0.000000
0.508086 -0.860518 1.560131 0.000000 0.000000 0.000000
0.509819 -0.871552 1.566212 0.000000 0.000000 0.000000
0.521339 -0.865065 1.555888 0.000000 0.000000 0.000000
0.479780 -0.877090 1.632321 0.000000 0.000000 0.000000
0.481387 -0.878724 1.600125 0.000000 0.000000 0.000000
0.537005 -0.858400 1.499558 0.000000 0.000000 0.000000
0.493726 -0.862683 1.590176 0.000000 0.000000 0.000000
0.534722 -0.844305 1.504297 0.000000 0.000000 0.000000
0.516381 -0.873826 1.608238 0.000000 0.000000 0.000000
0.558288 -0.834569 1.541133 0.000000 0.000000 0.000000
0.544873 -0.846857 1.537575 0.000000 0.000000 0.000000
0.543704 -0.844477 1.542498 0.000000 0.000000 0.000000
0.516110 -0.868320 1.534257 0.000000 0.000000 0.000000
0.517810 -0.870992 1.525376 0.000000 0.000000 0.000000
0.502708 -0.868309 1.585085 0.000000 0.000000 0.000000
0.494138 -0.861192 1.619741 0.000000 0.000000 0.000000
0.498395 -0.860568 1.575334 0.000000 0.000000 0.000000
0.516225 -0.873056 1.538190 0.000000 0.000000 0.000000
0.511363 -0.865565 1.570590 0.000000 0.000000 0.000000
0.498835 -0.870367 1.572424 0.000000 0.000000 0.000000
0.511319 -0.862484 1.572575 0.000000 0.000000 0.000000
0.553721 -0.867922 1.598916 0.000000 0.000000 0.000000
0.520597 -0.852117 1.513435 0.000000 0.000000 0.000000
0.511347 -0.872486 1.541284 0.000000 0.000000 0.000000
0.503980 -0.863298 1.523356 0.000000 0.000000 0.000000
0.513482 -0.871195 1.532144 0.000000 0.000000 0.000000
0.517045 -0.853630 1.524792 0.000000 0.000000 0.000000
0.540256 -0.863197 1.492170 0.000000 0.000000 0.000000
0.532919 -0.844538 1.492893 0.000000 0.000000 0.000000
0.499504 -0.872593 1.604191 0.000000 0.000000 0.000000
0.484687 -0.866415 1.639332 0.000000 0.000000 0.000000
0.494665 -0.871245 1.587877 0.000000 0.000000 0.000000
0.511739 -0.863907 1.599787 0.000000 0.000000 0.000000
0.505197 -0.876004 1.588872 0.000000 0.000000 0.000000
0.496391 -0.871020 1.600471 0.000000 0.000000 0.000000
0.493194 -0.866993 1.600507 0.000000 0.000000 0.000000
0.513417 -0.856299 1.539868 0.000000 0.000000 0.000000
0.488064 -0.876641 1.629966 0.000000 0.000000 0.000000
0.484411 -0.866257 1.632236 0.000000 0.000000 0.000000
0.516311 -0.857646 1.535624 0.000000 0.000000 0.000000
0.486653 -0.863634 1.638018 0.000000 0.000000 0.000000
0.541939 -0.866334 1.516903 0.000000 0.000000 0.000000
0.542266 -0.869708 1.576436 0.000000 0.000000 0.000000
0.539874 -0.863069 1.585087 0.000000 0.000000 0.000000
0.523216 -0.864759 1.598507 0.000000 0.000000 0.000000
0.514792 -0.864377 1.536143 0.000000 0.000000 0.000000
0.510207 -0.869415 1.592230 0.000000 0.000000 0.000000
0.508249 -0.869926 1.616559 0.000000 0.000000 0.000000
0.537051 -0.876030 1.586143 0.000000 0.000000 0.000000
0.477236 -0.872343 1.639979 0.000000 0.000000 0.000000
0.509227 -0.857822 1.590046 0.000000 0.000000 0.000000
0.526782 -0.870910 1.578633 0.000000 0.000000 0.000000
0.543743 -0.875241 1.511639 0.000000 0.000000 0.000000
0.522830 -0.861690 1.534095 0.000000 0.000000 0.000000
0.510011 -0.865150 1.545645 0.000000 0.000000 0.000000
0.522151 -0.857771 1.595877 0.000000 0.000000 0.000000
0.499666 -0.868820 1.528413 0.000000 0.000000 0.000000
0.485244 -0.869349 1.615943 0.000000 0.000000 0.000000
0.507630 -0.870119 1.576963 0.000000 0.000000 0.000000
0.546022 -0.878021 1.487590 0.000000 0.000000 0.000000
0.480371 -0.876851 1.616642 0.000000 0.000000 0.000000
0.517442 -0.867169 1.553197 0.000000 0.000000 0.000000
0.533062 -0.873097 1.588737 0.000000 0.000000 0.000000
0.513348 -0.860140 1.532598 0.000000 0.000000 0.000000
0.519153 -0.864490 1.525231 0.000000 0.000000 0.000000
0.509748 -0.858294 1.539559 0.000000 0.000000 0.000000
0.479025 -0.874547 1.623075 0.000000 0.000000 0.000000
0.545250 -0.835426 1.520874 0.000000 0.000000 0.000000
0.491657 -0.874478 1.521681 0.000000 0.000000 0.000000
0.554282 -0.842475 1.538893 0.000000 0.000000 0.000000
0.539851 -0.862621 1.511132 0.000000 0.000000 0.000000
0.545217 -0.875847 1.513703 0.000000 0.000000 0.000000
0.542466 -0.868542 1.580321 0.000000 0.000000 0.000000
0.502841 -0.867628 1.553565 0.000000 0.000000 0.000000
0.504625 -0.870214 1.550134 0.000000 0.000000 0.000000
0.560648 -0.832535 1.539729 0.000000 0.000000 0.000000
0.479661 -0.878374 1.611317 0.000000 0.000000 0.000000
0.498064 -0.865059 1.544295 0.000000 0.000000 0.000000
0.505482 -0.873323 1.566972 0.000000 0.000000 0.000000
0.496933 -0.868516 1.544282 0.000000 0.000000 0.000000
0.495754 -0.878583 1.572255 0.000000 0.000000 0.000000
0.497195 -0.870391 1.593132 0.000000 0.000000 0.000000
0.534293 -0.835403 1.546209 0.000000 0.000000 0.000000
0.493146 -0.874006 1.594924 0.000000 0.000000 0.000000
0.481892 -0.871446 1.611927 0.000000 0.000000 0.000000
0.483954 -0.880784 1.619907 0.000000 0.000000 0.000000
0.512631 -0.856947 1.592301 0.000000 0.000000 0.000000
0.494365 -0.864044 1.615656 0.000000 0.000000 0.000000
0.542128 -0.871430 1.600232 0.000000 0.000000 0.000000
0.544510 -0.866258 1.491730 0.000000 0.000000 0.000000
0.493449 -0.873416 1.605486 0.000000 0.000000 0.000000
0.497397 -0.873622 1.592333 0.000000 0.000000 0.000000
0.480223 -0.872468 1.626831 0.000000 0.000000 0.000000
0.489931 -0.884994 1.570037 0.000000 0.000000 0.000000
0.526592 -0.872105 1.583598 0.000000 0.000000 0.000000
0.514277 -0.871383 1.547593 0.000000 0.000000 0.000000
0.516624 -0.858359 1.547645 0.000000 0.000000 0.000000
0.493873 -0.875835 1.584624 0.000000 0.000000 0.000000
0.513802 -0.860029 1.557039 0.000000 0.000000 0.000000
0.510786 -0.872160 1.540978 0.000000 0.000000 0.000000
0.516637 -0.861040 1.561810 0.000000 0.000000 0.000000
0.491905 -0.876004 1.591817 0.000000 0.000000 0.000000
0.490671 -0.871218 1.604612 0.000000 0.000000 0.000000
0.480026 -0.876872 1.614602 0.000000 0.000000 0.000000
0.539748 -0.861740 1.584788 0.000000 0.000000 0.000000
0.542702 -0.873897 1.516956 0.000000 0.000000 0.000000
0.549286 -0.861992 1.578055 0.000000 0.000000 0.000000
0.502886 -0.854009 1.608829 0.000000 0.000000 0.000000
0.532047 -0.869689 1.588774 0.000000 0.000000 0.000000
0.510140 -0.875876 1.605824 0.000000 0.000000 0.000000
0.500223 -0.866527 1.584945 0.000000 0.000000 0.000000
0.552514 -0.856099 1.527396 0.000000 0.000000 0.000000
0.505590 -0.861676 1.551163 0.000000 0.000000 0.000000
0.518756 -0.864250 1.538439 0.000000 0.000000 0.000000
0.479771 -0.876003 1.619771 0.000000 0.000000 0.000000
0.488386 -0.873025 1.536296 0.000000 0.000000 0.000000
0.546445 -0.847103 1.520738 0.000000 0.000000 0.000000
0.484138 -0.873768 1.621666 0.000000 0.000000 0.000000
0.497799 -0.863437 1.574346 0.000000 0.000000 0.000000
0.504980 -0.873747 1.602658 0.000000 0.000000 0.000000
0.485579 -0.860582 1.633621 0.000000 0.000000 0.000000
0.486227 -0.873771 1.612549 0.000000 0.000000 0.000000
0.548721 -0.839035 1.535553 0.000000 0.000000 0.000000
0.500304 -0.873331 1.582517 0.000000 0.000000 0.000000
0.540659 -0.837720 1.525765 0.000000 0.000000 0.000000
0.501114 -0.871383 1.585338 0.000000 0.000000 0.000000
0.512282 -0.867383 1.542507 0.000000 0.000000 0.000000
0.542555 -0.862683 1.582849 0.000000 0.000000 0.000000
0.487186 -0.851798 1.607309 0.000000 0.000000 0.000000
0.501118 -0.872247 1.579062 0.000000 0.000000 0.000000
0.539301 -0.864215 1.500710 0.000000 0.000000 0.000000
0.492043 -0.864129 1.601770 0.000000 0.000000 0.000000
0.520742 -0.866472 1.582807 0.000000 0.000000 0.000000
0.508855 -0.873890 1.592720 0.000000 0.000000 0.000000
0.524778 -0.863882 1.594874 0.000000 0.000000 0.000000
0.505663 -0.865066 1.575410 0.000000 0.000000 0.000000
0.534921 -0.847517 1.518308 0.000000 0.000000 0.000000
0.493807 -0.866039 1.584778 0.000000 0.000000 0.000000
0.517904 -0.871911 1.596573 0.000000 0.000000 0.000000
0.490745 -0.866855 1.619130 0.000000 0.000000 0.000000
0.549967 -0.838285 1.535250 0.000000 0.000000 0.000000
0.543001 -0.855583 1.548689 0.000000 0.000000 0.000000
0.503128 -0.873431 1.592210 0.000000 0.000000 0.000000
0.500304 -0.868186 1.571182 0.000000 0.000000 0.000000
0.537312 -0.838477 1.524606 0.000000 0.000000 0.000000
0.520178 -0.860211 1.491782 0.000000 0.000000 0.000000
0.500182 -0.867989 1.595512 0.000000 0.000000 0.000000
0.524914 -0.865137 1.506948 0.000000 0.000000 0.000000
0.538179 -0.864278 1.572872 0.000000 0.000000 0.000000
0.510338 -0.858618 1.535073 0.000000 0.000000 0.000000
0.530027 -0.873686 1.588183 0.000000 0.000000 0.000000
0.498444 -0.871375 1.578829 0.000000 0.000000 0.000000
0.488451 -0.880924 1.616824 0.000000 0.000000 0.000000
0.520227 -0.873140 1.597015 0.000000 0.000000 0.000000
0.501258 -0.853565 1.606901 0.000000 0.000000 0.000000
0.537416 -0.871373 1.589202 0.000000 0.000000 0.000000
0.503528 -0.857017 1.550749 0.000000 0.000000 0.000000
0.553637 -0.820671 1.548275 0.000000 0.000000 0.000000
0.497661 -0.865159 1.568632 0.000000 0.000000 0.000000
0.543176 -0.856141 1.516531 0.000000 0.000000 0.000000
0.506438 -0.871010 1.559035 0.000000 0.000000 0.000000
0.542315 -0.826818 1.555417 0.000000 0.000000 0.000000
0.501376 -0.859592 1.561944 0.000000 0.000000 0.000000
0.552368 -0.820338 1.541361 0.000000 0.000000 0.000000
0.479053 -0.860832 1.604568 0.000000 0.000000 0.000000
0.507404 -0.865183 1.548015 0.000000 0.000000 0.000000
0.524530 -0.872180 1.602976 0.000000 0.000000 0.000000
0.504030 -0.869551 1.557140 0.000000 0.000000 0.000000
0.540284 -0.832299 1.534302 0.000000 0.000000 0.000000
0.470972 -0.875034 1.635772 0.000000 0.000000 0.000000
0.487802 -0.870810 1.581090 0.000000 0.000000 0.000000
0.497119 -0.866145 1.580845 0.000000 0.000000 0.000000
0.503857 -0.858798 1.550538 0.000000 0.000000 0.000000
0.482817 -0.869651 1.627529 0.000000 0.000000 0.000000
0.513135 -0.848843 1.598600 0.000000 0.000000 0.000000
0.490646 -0.861813 1.604248 0.000000 0.000000 0.000000
0.496008 -0.841876 1.606821 0.000000 0.000000 0.000000
0.488747 -0.864963 1.637259 0.000000 0.000000 0.000000
0.490791 -0.859897 1.635967 0.000000 0.000000 0.000000
0.511932 -0.854339 1.592505 0.000000 0.000000 0.000000
0.495329 -0.870481 1.591133 0.000000 0.000000 0.000000
0.489102 -0.878110 1.613693 0.000000 0.000000 0.000000
0.506396 -0.844845 1.607138 0.000000 0.000000 0.000000
0.505744 -0.846073 1.597854 0.000000 0.000000 0.000000
0.505763 -0.843925 1.609203 0.000000 0.000000 0.000000
0.488114 -0.857728 1.633866 0.000000 0.000000 0.000000
0.489233 -0.869843 1.605800 0.000000 0.000000 0.000000
0.546695 -0.851547 1.519905 0.000000 0.000000 0.000000
0.497658 -0.858333 1.603911 0.000000 0.000000 0.000000
0.537433 -0.866845 1.578144 0.000000 0.000000 0.000000
0.539726 -0.823277 1.564273 0.000000 0.000000 0.000000
0.540337 -0.864120 1.520716 0.000000 0.000000 0.000000
0.492680 -0.858871 1.556930 0.000000 0.000000 0.000000
0.516112 -0.864914 1.584950 0.000000 0.000000 0.000000
0.543997 -0.830289 1.549468 0.000000 0.000000 0.000000
0.502941 -0.864425 1.536434 0.000000 0.000000 0.000000
0.520179 -0.856652 1.517018 0.000000 0.000000 0.000000
0.539049 -0.870923 1.599031 0.000000 0.000000 0.000000
0.545326 -0.829011 1.554675 0.000000 0.000000 0.000000
0.530842 -0.858316 1.605582 0.000000 0.000000 0.000000
0.484644 -0.859311 1.520380 0.000000 0.000000 0.000000
0.480337 -0.871977 1.626086 0.000000 0.000000 0.000000
0.533400 -0.865581 1.611004 0.000000 0.000000 0.000000
0.524890 -0.861292 1.487644 0.000000 0.000000 0.000000
0.539347 -0.859640 1.608379 0.000000 0.000000 0.000000
0.482276 -0.856048 1.524348 0.000000 0.000000 0.000000
0.534061 -0.822435 1.559202 0.000000 0.000000 0.000000
0.537211 -0.870626 1.583105 0.000000 0.000000 0.000000
0.537157 -0.865129 1.610535 0.000000 0.000000 0.000000
0.547482 -0.834580 1.549925 0.000000 0.000000 0.000000
0.531504 -0.868892 1.593857 0.000000 0.000000 0.000000
0.551844 -0.824962 1.545855 0.000000 0.000000 0.000000
0.470187 -0.876062 1.633343 0.000000 0.000000 0.000000
0.480098 -0.864282 1.522610 0.000000 0.000000 0.000000
0.547738 -0.827824 1.556714 0.000000 0.000000 0.000000
0.529112 -0.853353 1.493631 0.000000 0.000000 0.000000
0.553336 -0.833133 1.535583 0.000000 0.000000 0.000000
0.549355 -0.827430 1.545712 0.000000 0.000000 0.000000
0.521083 -0.867365 1.512509 0.000000 0.000000 0.000000
0.493950 -0.861829 1.543736 0.000000 0.000000 0.000000
0.528850 -0.864906 1.590185 0.000000 0.000000 0.000000
0.531222 -0.868365 1.587986 0.000000 0.000000 0.000000
0.550402 -0.831610 1.549975 0.000000 0.000000 0.000000
0.537420 -0.869321 1.574479 0.000000 0.000000 0.000000
0.529307 -0.873490 1.580901 0.000000 0.000000 0.000000
0.502936 -0.869332 1.578183 0.000000 0.000000 0.000000
0.548395 -0.820174 1.558777 0.000000 0.000000 0.000000
0.524718 -0.856473 1.500163 0.000000 0.000000 0.000000
0.551471 -0.837716 1.549309 0.000000 0.000000 0.000000
0.497999 -0.866825 1.528475 0.000000 0.000000 0.000000
0.515308 -0.863545 1.524881 0.000000 0.000000 0.000000
0.548073 -0.825708 1.540046 0.000000 0.000000 0.000000
0.494980 -0.863543 1.548031 0.000000 0.000000 0.000000
0.529109 -0.869782 1.583538 0.000000 0.000000 0.000000
0.507045 -0.863454 1.587496 0.000000 0.000000 0.000000
0.540093 -0.858944 1.534495 0.000000 0.000000 0.000000
0.529100 -0.863575 1.494772 0.000000 0.000000 0.000000
0.532802 -0.871709 1.579279 0.000000 0.000000 0.000000
0.545808 -0.844236 1.517069 0.000000 0.000000 0.000000
0.542035 -0.864011 1.574593 0.000000 0.000000 0.000000
0.500982 -0.870309 1.582105 0.000000 0.000000 0.000000
0.541416 -0.825051 1.560560 0.000000 0.000000 0.000000
0.489579 -0.879497 1.584496 0.000000 0.000000 0.000000
0.543609 -0.864800 1.486479 0.000000 0.000000 0.000000
0.532064 -0.844689 1.486513 0.000000 0.000000 0.000000
0.533690 -0.840493 1.599875 0.000000 0.000000 0.000000
0.502108 -0.849147 1.611962 0.000000 0.000000 0.000000
0.530148 -0.871584 1.587013 0.000000 0.000000 0.000000
0.532501 -0.850625 1.488756 0.000000 0.000000 0.000000
0.541565 -0.852105 1.480398 0.000000 0.000000 0.000000
0.538119 -0.870568 1.486109 0.000000 0.000000 0.000000
0.510884 -0.869174 1.557684 0.000000 0.000000 0.000000
0.497661 -0.856226 1.611009 0.000000 0.000000 0.000000
0.533551 -0.848945 1.483577 0.000000 0.000000 0.000000
0.536040 -0.851762 1.480165 0.000000 0.000000 0.000000
0.540164 -0.874186 1.485774 0.000000 0.000000 0.000000
0.514472 -0.867141 1.544836 0.000000 0.000000 0.000000
0.511555 -0.867394 1.532804 0.000000 0.000000 0.000000
0.539603 -0.868309 1.611245 0.000000 0.000000 0.000000
0.484032 -0.879405 1.632763 0.000000 0.000000 0.000000
0.521194 -0.864455 1.539049 0.000000 0.000000 0.000000
0.488022 -0.879874 1.623880 0.000000 0.000000 0.000000
0.514970 -0.862360 1.541071 0.000000 0.000000 0.000000
0.486972 -0.857899 1.611808 0.000000 0.000000 0.000000
0.510710 -0.859756 1.525669 0.000000 0.000000 0.000000
0.550954 -0.824099 1.552498 0.000000 0.000000 0.000000
0.487766 -0.875898 1.635377 0.000000 0.000000 0.000000
0.520205 -0.860350 1.531270 0.000000 0.000000 0.000000
0.561778 -0.811599 1.543775 0.000000 0.000000 0.000000
0.476984 -0.875240 1.626189 0.000000 0.000000 0.000000
0.512902 -0.866500 1.555107 0.000000 0.000000 0.000000
0.498982 -0.864396 1.538756 0.000000 0.000000 0.000000
0.485579 -0.858218 1.632190 0.000000 0.000000 0.000000
0.526986 -0.864317 1.610496 0.000000 0.000000 0.000000
0.501229 -0.862434 1.544480 0.000000 0.000000 0.000000
0.470241 -0.874008 1.639296 0.000000 0.000000 0.000000
0.504195 -0.866823 1.556758 0.000000 0.000000 0.000000
0.490456 -0.858731 1.626741 0.000000 0.000000 0.000000
0.541257 -0.863847 1.584090 0.000000 0.000000 0.000000
0.538805 -0.816125 1.566680 0.000000 0.000000 0.000000
0.489423 -0.869992 1.617218 0.000000 0.000000 0.000000
0.514742 -0.864559 1.549752 0.000000 0.000000 0.000000
0.509094 -0.869086 1.563596 0.000000 0.000000 0.000000
0.509864 -0.859851 1.537338 0.000000 0.000000 0.000000
0.508955 -0.869644 1.574684 0.000000 0.000000 0.000000
0.480465 -0.869646 1.628856 0.000000 0.000000 0.000000
0.500250 -0.866571 1.541020 0.000000 0.000000 0.000000
0.496763 -0.865684 1.543184 0.000000 0.000000 0.000000
0.493691 -0.860462 1.592991 0.000000 0.000000 0.000000
0.501538 -0.868076 1.547058 0.000000 0.000000 0.000000
0.494443 -0.863806 1.590541 0.000000 0.000000 0.000000
0.504533 -0.861897 1.558474 0.000000 0.000000 0.000000
0.504844 -0.870134 1.571999 0.000000 0.000000 0.000000
0.507652 -0.855421 1.545735 0.000000 0.000000 0.000000
0.509618 -0.872123 1.566584 0.000000 0.000000 0.000000
0.487374 -0.870345 1.623661 0.000000 0.000000 0.000000
0.499324 -0.867735 1.549966 0.000000 0.000000 0.000000
0.497935 -0.867196 1.527315 0.000000 0.000000 0.000000
0.494166 -0.860816 1.580767 0.000000 0.000000 0.000000
0.512408 -0.856163 1.563599 0.000000 0.000000 0.000000
0.517909 -0.866081 1.576373 0.000000 0.000000 0.000000
0.515259 -0.863301 1.558266 0.000000 0.000000 0.000000
0.491371 -0.863457 1.615464 0.000000 0.000000 0.000000
0.504140 -0.873056 1.545712 0.000000 0.000000 0.000000
0.515951 -0.865432 1.546833 0.000000 0.000000 0.000000
0.502463 -0.864507 1.528955 0.000000 0.000000 0.000000
0.500376 -0.862112 1.553260 0.000000 0.000000 0.000000
0.546593 -0.844198 1.535090 0.000000 0.000000 0.000000
0.486607 -0.857025 1.525064 0.000000 0.000000 0.000000
0.543367 -0.840831 1.545071 0.000000 0.000000 0.000000
0.553796 -0.839199 1.547670 0.000000 0.000000 0.000000
0.553113 -0.840895 1.536609 0.000000 0.000000 0.000000
0.495336 -0.858550 1.545152 0.000000 0.000000 0.000000
0.516244 -0.862798 1.535970 0.000000 0.000000 0.000000
0.561606 -0.849389 1.533635 0.000000 0.000000 0.000000
0.501473 -0.864686 1.544198 0.000000 0.000000 0.000000
0.498884 -0.860945 1.558842 0.000000 0.000000 0.000000
0.514871 -0.858939 1.545646 0.000000 0.000000 0.000000
0.499428 -0.863361 1.570579 0.000000 0.000000 0.000000
0.559903 -0.841773 1.540441 0.000000 0.000000 0.000000
0.502347 -0.864918 1.560032 0.000000 0.000000 0.000000
0.522816 -0.859821 1.482253 0.000000 0.000000 0.000000
0.504382 -0.861356 1.542742 0.000000 0.000000 0.000000
0.535240 -0.875261 1.509114 0.000000 0.000000 0.000000
0.548548 -0.840402 1.542264 0.000000 0.000000 0.000000
0.554957 -0.843645 1.549967 0.000000 0.000000 0.000000
0.536720 -0.874870 1.514388 0.000000 0.000000 0.000000
0.538505 -0.871930 1.517290 0.000000 0.000000 0.000000
0.537743 -0.871415 1.513870 0.000000 0.000000 0.000000
0.525269 -0.864768 1.483975 0.000000 0.000000 0.000000
0.483882 -0.855647 1.639868 0.000000 0.000000 0.000000
0.542641 -0.857931 1.537272 0.000000 0.000000 0.000000
0.544367 -0.847177 1.548206 0.000000 0.000000 0.000000
0.551969 -0.850021 1.544607 0.000000 0.000000 0.000000
0.545026 -0.857377 1.526279 0.000000 0.000000 0.000000
0.549711 -0.875374 1.529601 0.000000 0.000000 0.000000
0.557737 -0.824372 1.545729 0.000000 0.000000 0.000000
0.542460 -0.826618 1.558233 0.000000 0.000000 0.000000
0.501502 -0.868529 1.521289 0.000000 0.000000 0.000000
0.498344 -0.869608 1.523742 0.000000 0.000000 0.000000
0.513771 -0.872010 1.579823 0.000000 0.000000 0.000000
0.507022 -0.877289 1.579613 0.000000 0.000000 0.000000
0.508925 -0.865066 1.585550 0.000000 0.000000 0.000000
0.525782 -0.876021 1.582499 0.000000 0.000000 0.000000
0.498684 -0.873244 1.611911 0.000000 0.000000 0.000000
0.496740 -0.872436 1.521293 0.000000 0.000000 0.000000
0.511766 -0.873523 1.584690 0.000000 0.000000 0.000000
0.483672 -0.889451 1.605119 0.000000 0.000000 0.000000
0.510298 -0.885598 1.577686 0.000000 0.000000 0.000000
0.512687 -0.874598 1.588919 0.000000 0.000000 0.000000
0.508107 -0.857533 1.569811 0.000000 0.000000 0.000000
0.537920 -0.858901 1.572444 0.000000 0.000000 0.000000
0.534324 -0.870905 1.571369 0.000000 0.000000 0.000000
0.521692 -0.872536 1.581648 0.000000 0.000000 0.000000
0.525882 -0.873202 1.581748 0.000000 0.000000 0.000000
0.517728 -0.874671 1.589157 0.000000 0.000000 0.000000
0.503173 -0.875263 1.591231 0.000000 0.000000 0.000000
0.514541 -0.862567 1.577771 0.000000 0.000000 0.000000
0.502985 -0.869478 1.596013 0.000000 0.000000 0.000000
0.513618 -0.877898 1.567748 0.000000 0.000000 0.000000
0.511406 -0.874451 1.581194 0.000000 0.000000 0.000000
0.483033 -0.874493 1.602774 0.000000 0.000000 0.000000
0.508619 -0.863821 1.571252 0.000000 0.000000 0.000000
0.509390 -0.859292 1.581293 0.000000 0.000000 0.000000
0.544635 -0.861545 1.570538 0.000000 0.000000 0.000000
0.528156 -0.872328 1.579182 0.000000 0.000000 0.000000
0.529137 -0.873347 1.575263 0.000000 0.000000 0.000000
0.502957 -0.871264 1.588429 0.000000 0.000000 0.000000
0.493778 -0.872289 1.525782 0.000000 0.000000 0.000000
0.555915 -0.837308 1.549890 0.000000 0.000000 0.000000
0.506718 -0.872894 1.618566 0.000000 0.000000 0.000000
0.547576 -0.833842 1.550750 0.000000 0.000000 0.000000
0.546455 -0.834952 1.541615 0.000000 0.000000 0.000000
0.494566 -0.857766 1.616717 0.000000 0.000000 0.000000
0.548917 -0.867333 1.584174 0.000000 0.000000 0.000000
0.497620 -0.884014 1.581836 0.000000 0.000000 0.000000
0.503556 -0.854016 1.610379 0.000000 0.000000 0.000000
0.541706 -0.856255 1.537221 0.000000 0.000000 0.000000
0.495324 -0.856569 1.618975 0.000000 0.000000 0.000000
0.538707 -0.871869 1.589682 0.000000 0.000000 0.000000
0.496200 -0.856710 1.587572 0.000000 0.000000 0.000000
0.501288 -0.855766 1.612994 0.000000 0.000000 0.000000
0.551547 -0.839483 1.537467 0.000000 0.000000 0.000000
0.538500 -0.876239 1.504067 0.000000 0.000000 0.000000
0.490101 -0.870648 1.637501 0.000000 0.000000 0.000000
0.544869 -0.862027 1.592256 0.000000 0.000000 0.000000
0.493680 -0.886778 1.577736 0.000000 0.000000 0.000000
0.543306 -0.860011 1.591746 0.000000 0.000000 0.000000
0.545712 -0.862208 1.584819 0.000000 0.000000 0.000000
0.482131 -0.871141 1.624752 0.000000 0.000000 0.000000
0.506413 -0.870298 1.540889 0.000000 0.000000 0.000000
0.523542 -0.868497 1.512108 0.000000 0.000000 0.000000
0.507057 -0.865130 1.540247 0.000000 0.000000 0.000000
0.528109 -0.859019 1.501414 0.000000 0.000000 0.000000
0.547749 -0.846742 1.540074 0.000000 0.000000 0.000000
0.520660 -0.869424 1.588912 0.000000 0.000000 0.000000
0.548596 -0.863948 1.582103 0.000000 0.000000 0.000000
0.543268 -0.825453 1.558997 0.000000 0.000000 0.000000
0.548551 -0.819550 1.560018 0.000000 0.000000 0.000000
0.544225 -0.864044 1.572645 0.000000 0.000000 0.000000
0.544731 -0.861776 1.571184 0.000000 0.000000 0.000000
0.544736 -0.848867 1.541472 0.000000 0.000000 0.000000
0.530387 -0.867986 1.598416 0.000000 0.000000 0.000000
0.538988 -0.866397 1.579512 0.000000 0.000000 0.000000
0.546570 -0.860584 1.578149 0.000000 0.000000 0.000000
0.550836 -0.820624 1.555473 0.000000 0.000000 0.000000
0.525064 -0.845140 1.602021 0.000000 0.000000 0.000000
0.520193 -0.870630 1.577261 0.000000 0.000000 0.000000
0.542116 -0.864823 1.574959 0.000000 0.000000 0.000000
0.527945 -0.868471 1.606740 0.000000 0.000000 0.000000
0.555090 -0.808244 1.550516 0.000000 0.000000 0.000000
0.505095 -0.873147 1.576778 0.000000 0.000000 0.000000
0.548746 -0.866581 1.521777 0.000000 0.000000 0.000000
0.546642 -0.851584 1.534495 0.000000 0.000000 0.000000
0.521727 -0.872096 1.533056 0.000000 0.000000 0.000000
0.511491 -0.873101 1.542035 0.000000 0.000000 0.000000
0.543750 -0.814600 1.568107 0.000000 0.000000 0.000000
0.549480 -0.848871 1.530901 0.000000 0.000000 0.000000
0.500842 -0.852254 1.612522 0.000000 0.000000 0.000000
0.549902 -0.812586 1.562477 0.000000 0.000000 0.000000
0.546223 -0.857921 1.530185 0.000000 0.000000 0.000000
0.502064 -0.858324 1.606384 0.000000 0.000000 0.000000
0.548092 -0.864131 1.584317 0.000000 0.000000 0.000000
0.500209 -0.870858 1.533245 0.000000 0.000000 0.000000
0.503557 -0.871491 1.520846 0.000000 0.000000 0.000000
0.543582 -0.862965 1.528492 0.000000 0.000000 0.000000
0.520555 -0.861042 1.603481 0.000000 0.000000 0.000000
0.549033 -0.868445 1.580670 0.000000 0.000000 0.000000
0.497972 -0.869748 1.541421 0.000000 0.000000 0.000000
0.519562 -0.864539 1.545369 0.000000 0.000000 0.000000
0.487332 -0.875587 1.573093 0.000000 0.000000 0.000000
0.562313 -0.828159 1.544892 0.000000 0.000000 0.000000
0.506838 -0.867386 1.547303 0.000000 0.000000 0.000000
0.533019 -0.865465 1.611685 0.000000 0.000000 0.000000
0.518800 -0.863772 1.530666 0.000000 0.000000 0.000000
0.542314 -0.854594 1.535601 0.000000 0.000000 0.000000
0.504882 -0.871294 1.546025 0.000000 0.000000 0.000000
0.510388 -0.871019 1.548013 0.000000 0.000000 0.000000
0.489218 -0.862029 1.624961 0.000000 0.000000 0.000000
0.484769 -0.859610 1.628771 0.000000 0.000000 0.000000
0.491882 -0.863931 1.623158 0.000000 0.000000 0.000000
0.517713 -0.865566 1.528337 0.000000 0.000000 0.000000
0.489414 -0.876482 1.599640 0.000000 0.000000 0.000000
0.473415 -0.873421 1.637643 0.000000 0.000000 0.000000
0.506691 -0.870758 1.554201 0.000000 0.000000 0.000000
0.511963 -0.868771 1.546682 0.000000 0.000000 0.000000
0.529956 -0.863587 1.603539 0.000000 0.000000 0.000000
0.485874 -0.874200 1.574453 0.000000 0.000000 0.000000
0.485737 -0.880755 1.583887 0.000000 0.000000 0.000000
0.490101 -0.863630 1.623839 0.000000 0.000000 0.000000
0.490163 -0.861667 1.626013 0.000000 0.000000 0.000000
0.492782 -0.881377 1.621348 0.000000 0.000000 0.000000
0.488676 -0.857433 1.626583 0.000000 0.000000 0.000000
0.517642 -0.857767 1.553843 0.000000 0.000000 0.000000
0.489170 -0.879058 1.604613 0.000000 0.000000 0.000000
0.482310 -0.878286 1.637856 0.000000 0.000000 0.000000
0.503395 -0.868889 1.565563 0.000000 0.000000 0.000000
0.512068 -0.865328 1.529864 0.000000 0.000000 0.000000
0.537222 -0.857750 1.607796 0.000000 0.000000 0.000000
0.469391 -0.876536 1.637157 0.000000 0.000000 0.000000
0.479868 -0.877012 1.625911 0.000000 0.000000 0.000000
0.490319 -0.878748 1.567519 0.000000 0.000000 0.000000
0.537778 -0.844367 1.528753 0.000000 0.000000 0.000000
0.470175 -0.878053 1.635202 0.000000 0.000000 0.000000
0.536046 -0.812179 1.569543 0.000000 0.000000 0.000000
0.551630 -0.865320 1.602366 0.000000 0.000000 0.000000
0.473666 -0.871554 1.635890 0.000000 0.000000 0.000000
0.488532 -0.872349 1.606533 0.000000 0.000000 0.000000
0.473076 -0.878980 1.626156 0.000000 0.000000 0.000000
0.487397 -0.877515 1.623513 0.000000 0.000000 0.000000
0.468408 -0.877923 1.636853 0.000000 0.000000 0.000000
0.476932 -0.876294 1.618749 0.000000 0.000000 0.000000
0.511479 -0.836737 1.602867 0.000000 0.000000 0.000000
0.543654 -0.867639 1.604519 0.000000 0.000000 0.000000
0.475347 -0.870555 1.639622 0.000000 0.000000 0.000000
0.475172 -0.876872 1.620183 0.000000 0.000000 0.000000
0.513930 -0.844525 1.603211 0.000000 0.000000 0.000000
0.484398 -0.886516 1.614183 0.000000 0.000000 0.000000
0.525621 -0.855161 1.604224 0.000000 0.000000 0.000000
0.542111 -0.846157 1.518205 0.000000 0.000000 0.000000
0.544822 -0.863803 1.567544 0.000000 0.000000 0.000000
0.486771 -0.862460 1.624510 0.000000 0.000000 0.000000
0.490417 -0.859428 1.625413 0.000000 0.000000 0.000000
0.559785 -0.876699 1.499373 0.000000 0.000000 0.000000
0.509931 -0.850548 1.601613 0.000000 0.000000 0.000000
0.528808 -0.849668 1.603835 0.000000 0.000000 0.000000
0.481234 -0.852637 1.624492 0.000000 0.000000 0.000000
0.491403 -0.857776 1.623662 0.000000 0.000000 0.000000
0.549217 -0.871225 1.491809 0.000000 0.000000 0.000000
0.546229 -0.838148 1.523979 0.000000 0.000000 0.000000
0.533701 -0.847012 1.602860 0.000000 0.000000 0.000000
0.490987 -0.856303 1.610821 0.000000 0.000000 0.000000
0.530753 -0.870950 1.612189 0.000000 0.000000 0.000000
0.494511 -0.866166 1.529456 0.000000 0.000000 0.000000
0.490454 -0.886839 1.566239 0.000000 0.000000 0.000000
0.535931 -0.865173 1.607343 0.000000 0.000000 0.000000
0.559785 -0.825673 1.541944 0.000000 0.000000 0.000000
0.509478 -0.877078 1.612843 0.000000 0.000000 0.000000
0.539289 -0.836308 1.512556 0.000000 0.000000 0.000000
0.500523 -0.864072 1.541295 0.000000 0.000000 0.000000
0.521801 -0.872210 1.614683 0.000000 0.000000 0.000000
0.557504 -0.861201 1.480226 0.000000 0.000000 0.000000
0.536396 -0.839956 1.516848 0.000000 0.000000 0.000000
0.499887 -0.865058 1.544510 0.000000 0.000000 0.000000
0.523815 -0.863719 1.548741 0.000000 0.000000 0.000000
0.493201 -0.881532 1.579771 0.000000 0.000000 0.000000
0.532112 -0.862500 1.607588 0.000000 0.000000 0.000000
0.515685 -0.847966 1.604653 0.000000 0.000000 0.000000
0.539777 -0.847597 1.603224 0.000000 0.000000 0.000000
0.498738 -0.869814 1.610106 0.000000 0.000000 0.000000
0.547456 -0.836123 1.548225 0.000000 0.000000 0.000000
0.533532 -0.853919 1.600818 0.000000 0.000000 0.000000
0.529503 -0.835077 1.600466 0.000000 0.000000 0.000000
0.511522 -0.851063 1.597747 0.000000 0.000000 0.000000
0.504222 -0.845338 1.609477 0.000000 0.000000 0.000000
0.541747 -0.834683 1.559385 0.000000 0.000000 0.000000
0.517046 -0.860385 1.606309 0.000000 0.000000 0.000000
0.530999 -0.831522 1.602082 0.000000 0.000000 0.000000
0.489086 -0.874857 1.566175 0.000000 0.000000 0.000000
0.492787 -0.873917 1.566249 0.000000 0.000000 0.000000
0.510432 -0.854097 1.598849 0.000000 0.000000 0.000000
0.546641 -0.824002 1.528758 0.000000 0.000000 0.000000
0.507195 -0.862876 1.546466 0.000000 0.000000 0.000000
0.527432 -0.854236 1.600808 0.000000 0.000000 0.000000
0.535829 -0.857735 1.495066 0.000000 0.000000 0.000000
0.490589 -0.863372 1.615480 0.000000 0.000000 0.000000
0.536132 -0.859231 1.503197 0.000000 0.000000 0.000000
0.491207 -0.858735 1.598231 0.000000 0.000000 0.000000
0.549383 -0.858127 1.530287 0.000000 0.000000 0.000000
0.542799 -0.856089 1.520921 0.000000 0.000000 0.000000
0.492046 -0.863837 1.532483 0.000000 0.000000 0.000000
0.490072 -0.879002 1.525699 0.000000 0.000000 0.000000
0.540981 -0.824589 1.564334 0.000000 0.000000 0.000000
0.543323 -0.849411 1.507969 0.000000 0.000000 0.000000
0.546773 -0.819897 1.561983 0.000000 0.000000 0.000000
0.543445 -0.822159 1.563643 0.000000 0.000000 0.000000
0.493671 -0.873191 1.520610 0.000000 0.000000 0.000000
0.544452 -0.865724 1.526851 0.000000 0.000000 0.000000
0.547880 -0.868900 1.517825 0.000000 0.000000 0.000000
0.507259 -0.858154 1.521612 0.000000 0.000000 0.000000
0.550381 -0.837463 1.538356 0.000000 0.000000 0.000000
0.500970 -0.860317 1.555656 0.000000 0.000000 0.000000
0.490252 -0.876532 1.589345 0.000000 0.000000 0.000000
0.548039 -0.818922 1.560832 0.000000 0.000000 0.000000
0.508911 -0.858831 1.532669 0.000000 0.000000 0.000000
0.549782 -0.818872 1.560033 0.000000 0.000000 0.000000
0.547350 -0.863428 1.513692 0.000000 0.000000 0.000000
0.500569 -0.860879 1.554004 0.000000 0.000000 0.000000
0.491107 -0.876593 1.592423 0.000000 0.000000 0.000000
0.548493 -0.817756 1.561965 0.000000 0.000000 0.000000
0.506210 -0.854868 1.534644 0.000000 0.000000 0.000000
0.551738 -0.821188 1.555072 0.000000 0.000000 0.000000
0.550159 -0.851603 1.532433 0.000000 0.000000 0.000000
0.526409 -0.872879 1.574601 0.000000 0.000000 0.000000
0.501219 -0.869402 1.563335 0.000000 0.000000 0.000000
0.502072 -0.870056 1.567224 0.000000 0.000000 0.000000
0.509253 -0.866620 1.611620 0.000000 0.000000 0.000000
0.527518 -0.867228 1.583752 0.000000 0.000000 0.000000
0.543832 -0.855030 1.534618 0.000000 0.000000 0.000000
0.551322 -0.822570 1.558468 0.000000 0.000000 0.000000
0.531979 -0.867265 1.573143 0.000000 0.000000 0.000000
0.521879 -0.874725 1.577113 0.000000 0.000000 0.000000
0.551354 -0.831932 1.546568 0.000000 0.000000 0.000000
0.550073 -0.863570 1.584206 0.000000 0.000000 0.000000
0.542732 -0.854765 1.542179 0.000000 0.000000 0.000000
0.494966 -0.861653 1.611183 0.000000 0.000000 0.000000
0.550488 -0.868226 1.583257 0.000000 0.000000 0.000000
0.545488 -0.864019 1.521631 0.000000 0.000000 0.000000
0.544619 -0.860863 1.530347 0.000000 0.000000 0.000000
0.543822 -0.853217 1.519542 0.000000 0.000000 0.000000
0.542506 -0.871481 1.523259 0.000000 0.000000 0.000000
0.548315 -0.854038 1.522954 0.000000 0.000000 0.000000
0.544711 -0.869101 1.520169 0.000000 0.000000 0.000000
0.547420 -0.872592 1.512450 0.000000 0.000000 0.000000
0.530180 -0.871041 1.580730 0.000000 0.000000 0.000000
0.524049 -0.869952 1.607085 0.000000 0.000000 0.000000
0.544702 -0.851320 1.541159 0.000000 0.000000 0.000000
0.514741 -0.878667 1.583652 0.000000 0.000000 0.000000
0.545828 -0.824399 1.557827 0.000000 0.000000 0.000000
0.555350 -0.826296 1.549041 0.000000 0.000000 0.000000
0.523631 -0.871816 1.610473 0.000000 0.000000 0.000000
0.541143 -0.861295 1.519457 0.000000 0.000000 0.000000
0.542284 -0.866305 1.536603 0.000000 0.000000 0.000000
0.547507 -0.866303 1.516897 0.000000 0.000000 0.000000
0.543140 -0.859031 1.530515 0.000000 0.000000 0.000000
0.543500 -0.868258 1.522799 0.000000 0.000000 0.000000
0.521511 -0.877274 1.578745 0.000000 0.000000 0.000000
0.514501 -0.868025 1.613025 0.000000 0.000000 0.000000
0.482312 -0.854030 1.634917 0.000000 0.000000 0.000000
0.542071 -0.850949 1.541322 0.000000 0.000000 0.000000
0.518952 -0.874737 1.579376 0.000000 0.000000 0.000000
0.550691 -0.828106 1.555360 0.000000 0.000000 0.000000
0.558933 -0.823549 1.545766 0.000000 0.000000 0.000000
0.516132 -0.871733 1.614769 0.000000 0.000000 0.000000
0.529134 -0.872751 1.564780 0.000000 0.000000 0.000000
0.542845 -0.877708 1.483888 0.000000 0.000000 0.000000
0.497835 -0.870368 1.539602 0.000000 0.000000 0.000000
0.505415 -0.868380 1.544644 0.000000 0.000000 0.000000
0.523914 -0.868192 1.521246 0.000000 0.000000 0.000000
0.551690 -0.879765 1.484713 0.000000 0.000000 0.000000
0.501839 -0.870993 1.553975 0.000000 0.000000 0.000000
0.490718 -0.883991 1.603991 0.000000 0.000000 0.000000
0.550273 -0.879001 1.482164 0.000000 0.000000 0.000000
0.507834 -0.870668 1.534576 0.000000 0.000000 0.000000
0.495825 -0.880101 1.603654 0.000000 0.000000 0.000000
0.480033 -0.878862 1.608284 0.000000 0.000000 0.000000
0.542314 -0.851674 1.546161 0.000000 0.000000 0.000000
0.541108 -0.872355 1.591460 0.000000 0.000000 0.000000
0.543808 -0.865424 1.589803 0.000000 0.000000 0.000000
0.536520 -0.872639 1.591981 0.000000 0.000000 0.000000
0.544205 -0.873430 1.598437 0.000000 0.000000 0.000000
0.545780 -0.868498 1.580741 0.000000 0.000000 0.000000
0.539831 -0.874640 1.590638 0.000000 0.000000 0.000000
0.548487 -0.865249 1.595881 0.000000 0.000000 0.000000
0.546474 -0.861808 1.595081 0.000000 0.000000 0.000000
0.506150 -0.873265 1.542332 0.000000 0.000000 0.000000
0.540641 -0.858396 1.608733 0.000000 0.000000 0.000000
0.551824 -0.865053 1.600114 0.000000 0.000000 0.000000
0.546162 -0.863428 1.603130 0.000000 0.000000 0.000000
0.538195 -0.869301 1.500868 0.000000 0.000000 0.000000
0.507154 -0.872350 1.610327 0.000000 0.000000 0.000000
0.508905 -0.876621 1.621729 0.000000 0.000000 0.000000
0.513544 -0.877168 1.619363 0.000000 0.000000 0.000000
0.508798 -0.880902 1.621264 0.000000 0.000000 0.000000
0.539224 -0.878266 1.497461 0.000000 0.000000 0.000000
0.519828 -0.883387 1.612677 0.000000 0.000000 0.000000
0.504279 -0.876093 1.616616 0.000000 0.000000 0.000000
0.519623 -0.877673 1.613479 0.000000 0.000000 0.000000
0.514516 -0.877477 1.614735 0.000000 0.000000 0.000000
