ply
format ascii 1.0
comment VCGLIB generated
obj_info Generated by SPFormer!
element vertex 865
property float x
property float y
property float z
property float nx
property float ny
property float nz
end_header
0.888244 0.117323 0.939512 0.000000 0.000000 0.000000
0.921698 0.188326 0.981578 0.000000 0.000000 0.000000
0.894201 0.141731 0.978113 0.000000 0.000000 0.000000
0.911120 0.200521 1.001451 0.000000 0.000000 0.000000
0.936847 0.203101 0.992026 0.000000 0.000000 0.000000
0.934090 0.180637 0.993222 0.000000 0.000000 0.000000
0.938883 0.150680 0.986778 0.000000 0.000000 0.000000
0.915925 0.278834 1.009792 0.000000 0.000000 0.000000
0.889386 0.085660 0.939470 0.000000 0.000000 0.000000
0.909090 0.178103 0.999981 0.000000 0.000000 0.000000
0.924909 0.201340 1.014444 0.000000 0.000000 0.000000
0.899988 0.171368 0.978947 0.000000 0.000000 0.000000
0.913310 0.057450 0.924485 0.000000 0.000000 0.000000
0.936140 0.202395 0.992109 0.000000 0.000000 0.000000
0.898288 0.231162 1.026513 0.000000 0.000000 0.000000
0.891361 0.171041 0.985521 0.000000 0.000000 0.000000
0.890844 0.113106 1.009688 0.000000 0.000000 0.000000
0.884348 0.079101 0.955535 0.000000 0.000000 0.000000
0.880348 0.125936 0.941302 0.000000 0.000000 0.000000
0.895806 0.212311 1.022340 0.000000 0.000000 0.000000
0.939043 0.232915 1.004546 0.000000 0.000000 0.000000
0.908065 0.079817 0.968938 0.000000 0.000000 0.000000
0.910311 0.152788 1.012481 0.000000 0.000000 0.000000
0.913648 0.216999 1.030659 0.000000 0.000000 0.000000
0.905596 0.203980 1.026446 0.000000 0.000000 0.000000
0.928378 0.190716 1.013860 0.000000 0.000000 0.000000
0.933085 0.150913 0.986058 0.000000 0.000000 0.000000
0.921728 0.071081 0.947873 0.000000 0.000000 0.000000
0.943742 0.045445 0.956094 0.000000 0.000000 0.000000
0.888437 0.186478 0.992808 0.000000 0.000000 0.000000
0.944518 0.242380 1.003539 0.000000 0.000000 0.000000
0.890195 0.184883 0.997465 0.000000 0.000000 0.000000
0.937046 0.223021 1.017700 0.000000 0.000000 0.000000
0.923597 0.175308 1.011798 0.000000 0.000000 0.000000
0.904875 0.250776 1.020859 0.000000 0.000000 0.000000
0.922841 0.270582 1.023398 0.000000 0.000000 0.000000
0.907024 0.052762 0.938220 0.000000 0.000000 0.000000
0.928193 0.202922 1.000089 0.000000 0.000000 0.000000
0.922916 0.153063 0.992818 0.000000 0.000000 0.000000
0.895171 0.204311 1.024884 0.000000 0.000000 0.000000
0.937215 0.127209 0.970859 0.000000 0.000000 0.000000
0.920732 0.208980 1.000868 0.000000 0.000000 0.000000
0.893623 0.217798 1.024710 0.000000 0.000000 0.000000
0.935513 0.092049 0.953836 0.000000 0.000000 0.000000
0.881612 0.113093 0.931132 0.000000 0.000000 0.000000
0.932500 0.060247 0.956219 0.000000 0.000000 0.000000
0.932597 0.100958 0.968892 0.000000 0.000000 0.000000
0.950261 0.117676 0.969528 0.000000 0.000000 0.000000
0.894773 0.216679 1.023184 0.000000 0.000000 0.000000
0.922095 0.125719 1.000937 0.000000 0.000000 0.000000
0.923538 0.207929 0.994160 0.000000 0.000000 0.000000
0.922420 0.198939 1.010804 0.000000 0.000000 0.000000
0.887624 0.172610 0.988357 0.000000 0.000000 0.000000
0.894071 0.163887 1.003249 0.000000 0.000000 0.000000
0.888765 0.195977 1.025078 0.000000 0.000000 0.000000
0.930694 0.173839 1.018107 0.000000 0.000000 0.000000
0.905418 0.220849 1.010150 0.000000 0.000000 0.000000
0.923995 0.253623 1.026796 0.000000 0.000000 0.000000
0.880103 0.086258 0.982071 0.000000 0.000000 0.000000
0.924121 0.191477 1.016469 0.000000 0.000000 0.000000
0.929906 0.282812 1.010101 0.000000 0.000000 0.000000
0.921244 0.250974 1.023933 0.000000 0.000000 0.000000
0.939802 0.122975 1.000899 0.000000 0.000000 0.000000
0.927974 0.282917 1.009769 0.000000 0.000000 0.000000
0.932006 0.197440 0.985511 0.000000 0.000000 0.000000
0.909863 0.135416 1.012405 0.000000 0.000000 0.000000
0.937733 0.175356 0.991474 0.000000 0.000000 0.000000
0.926866 0.202143 1.012044 0.000000 0.000000 0.000000
0.881591 0.078079 0.975279 0.000000 0.000000 0.000000
0.898664 0.240945 1.029568 0.000000 0.000000 0.000000
0.906613 0.190203 1.000811 0.000000 0.000000 0.000000
0.921269 0.062177 0.947950 0.000000 0.000000 0.000000
0.896169 0.226009 1.022700 0.000000 0.000000 0.000000
0.894935 0.141080 0.970403 0.000000 0.000000 0.000000
0.916547 0.185715 1.002074 0.000000 0.000000 0.000000
0.927887 0.194184 0.996140 0.000000 0.000000 0.000000
0.912742 0.102023 0.949937 0.000000 0.000000 0.000000
0.919616 0.145865 1.002923 0.000000 0.000000 0.000000
0.890303 0.128322 0.960194 0.000000 0.000000 0.000000
0.919576 0.266263 1.021746 0.000000 0.000000 0.000000
0.906934 0.232715 1.019011 0.000000 0.000000 0.000000
0.928821 0.150311 0.986394 0.000000 0.000000 0.000000
0.942242 0.150929 0.988645 0.000000 0.000000 0.000000
0.884010 0.067166 0.942035 0.000000 0.000000 0.000000
0.910043 0.199306 1.006138 0.000000 0.000000 0.000000
0.936696 0.198666 0.989636 0.000000 0.000000 0.000000
0.898355 0.165369 0.990022 0.000000 0.000000 0.000000
0.887395 0.173036 0.981675 0.000000 0.000000 0.000000
0.895175 0.201885 1.011587 0.000000 0.000000 0.000000
0.912850 0.196165 1.015605 0.000000 0.000000 0.000000
0.881309 0.057880 0.920632 0.000000 0.000000 0.000000
0.894092 0.200237 1.020727 0.000000 0.000000 0.000000
0.911992 0.221590 1.028008 0.000000 0.000000 0.000000
0.893175 0.142055 1.014719 0.000000 0.000000 0.000000
0.891173 0.078103 0.922336 0.000000 0.000000 0.000000
0.890216 0.190563 1.002048 0.000000 0.000000 0.000000
0.922703 0.196636 1.006563 0.000000 0.000000 0.000000
0.932416 0.211167 0.993449 0.000000 0.000000 0.000000
0.901231 0.083694 0.974308 0.000000 0.000000 0.000000
0.910590 0.223931 1.009709 0.000000 0.000000 0.000000
0.919290 0.045558 0.933623 0.000000 0.000000 0.000000
0.926877 0.228416 0.994227 0.000000 0.000000 0.000000
0.928777 0.058602 0.944973 0.000000 0.000000 0.000000
0.890229 0.146273 0.974544 0.000000 0.000000 0.000000
0.890912 0.179489 1.016882 0.000000 0.000000 0.000000
0.929844 0.241954 1.000644 0.000000 0.000000 0.000000
0.896391 0.211917 1.015028 0.000000 0.000000 0.000000
0.915165 0.249075 1.030001 0.000000 0.000000 0.000000
0.898227 0.174745 1.005303 0.000000 0.000000 0.000000
0.929607 0.271824 1.005198 0.000000 0.000000 0.000000
0.926722 0.281285 1.019925 0.000000 0.000000 0.000000
0.914304 0.223678 1.008725 0.000000 0.000000 0.000000
0.930722 0.265338 1.017693 0.000000 0.000000 0.000000
0.910333 0.059057 0.931507 0.000000 0.000000 0.000000
0.925150 0.213846 0.996918 0.000000 0.000000 0.000000
0.912696 0.265687 1.023080 0.000000 0.000000 0.000000
0.918492 0.194800 1.007864 0.000000 0.000000 0.000000
0.920455 0.139404 1.020619 0.000000 0.000000 0.000000
0.901427 0.247657 1.030813 0.000000 0.000000 0.000000
0.880597 0.177807 0.981047 0.000000 0.000000 0.000000
0.902194 0.104887 0.977279 0.000000 0.000000 0.000000
0.921360 0.112378 0.978347 0.000000 0.000000 0.000000
0.931395 0.101693 0.966989 0.000000 0.000000 0.000000
0.909112 0.090201 0.978968 0.000000 0.000000 0.000000
0.916575 0.175449 0.998878 0.000000 0.000000 0.000000
0.908872 0.104820 0.965381 0.000000 0.000000 0.000000
0.937512 0.220672 0.992688 0.000000 0.000000 0.000000
0.923482 0.053707 0.956144 0.000000 0.000000 0.000000
0.882643 0.133042 0.946894 0.000000 0.000000 0.000000
0.922294 0.209927 0.998791 0.000000 0.000000 0.000000
0.914128 0.192469 1.003252 0.000000 0.000000 0.000000
0.936345 0.227856 0.992747 0.000000 0.000000 0.000000
0.941226 0.131679 0.996429 0.000000 0.000000 0.000000
0.891299 0.233174 1.029004 0.000000 0.000000 0.000000
0.919275 0.265286 1.022336 0.000000 0.000000 0.000000
0.941070 0.133996 0.975052 0.000000 0.000000 0.000000
0.929279 0.270454 1.013490 0.000000 0.000000 0.000000
0.906351 0.073110 0.958804 0.000000 0.000000 0.000000
0.935438 0.160667 0.995258 0.000000 0.000000 0.000000
0.917823 0.079412 0.965675 0.000000 0.000000 0.000000
0.944034 0.204007 0.994332 0.000000 0.000000 0.000000
0.902688 0.224344 1.021295 0.000000 0.000000 0.000000
0.891788 0.064905 0.968023 0.000000 0.000000 0.000000
0.914347 0.200189 1.004484 0.000000 0.000000 0.000000
0.915030 0.258912 1.016414 0.000000 0.000000 0.000000
0.885515 0.165892 1.007808 0.000000 0.000000 0.000000
0.901213 0.221463 1.024987 0.000000 0.000000 0.000000
0.909137 0.064323 0.963184 0.000000 0.000000 0.000000
0.926701 0.242609 1.008821 0.000000 0.000000 0.000000
0.893934 0.043755 0.929303 0.000000 0.000000 0.000000
0.916537 0.243199 1.013539 0.000000 0.000000 0.000000
0.892670 0.066142 0.972053 0.000000 0.000000 0.000000
0.893433 0.095911 0.932386 0.000000 0.000000 0.000000
0.918970 0.163027 0.997789 0.000000 0.000000 0.000000
0.931434 0.256337 1.011422 0.000000 0.000000 0.000000
0.899007 0.187694 1.015764 0.000000 0.000000 0.000000
0.910722 0.235703 1.019924 0.000000 0.000000 0.000000
0.940800 0.243200 1.004119 0.000000 0.000000 0.000000
0.904948 0.167978 1.012431 0.000000 0.000000 0.000000
0.912132 0.198306 1.007310 0.000000 0.000000 0.000000
0.923793 0.182554 0.994929 0.000000 0.000000 0.000000
0.907351 0.249492 1.017105 0.000000 0.000000 0.000000
0.919303 0.220782 1.005494 0.000000 0.000000 0.000000
0.897247 0.207765 1.026001 0.000000 0.000000 0.000000
0.919850 0.238823 0.999404 0.000000 0.000000 0.000000
0.903789 0.226890 1.020491 0.000000 0.000000 0.000000
0.928080 0.179921 0.991683 0.000000 0.000000 0.000000
0.940280 0.117567 0.982699 0.000000 0.000000 0.000000
0.908610 0.211169 1.020673 0.000000 0.000000 0.000000
0.911846 0.132726 1.009446 0.000000 0.000000 0.000000
0.927455 0.064171 0.950015 0.000000 0.000000 0.000000
0.912506 0.072911 0.943658 0.000000 0.000000 0.000000
0.944981 0.122863 0.976977 0.000000 0.000000 0.000000
0.911379 0.072729 0.937719 0.000000 0.000000 0.000000
0.941765 0.204975 0.996307 0.000000 0.000000 0.000000
0.904230 0.181686 1.021775 0.000000 0.000000 0.000000
0.911784 0.261887 1.021300 0.000000 0.000000 0.000000
0.927095 0.286943 1.014975 0.000000 0.000000 0.000000
0.935108 0.224472 0.986231 0.000000 0.000000 0.000000
0.909808 0.259154 1.032961 0.000000 0.000000 0.000000
0.900462 0.226154 1.025967 0.000000 0.000000 0.000000
0.900139 0.232237 1.020791 0.000000 0.000000 0.000000
0.906938 0.239743 1.029089 0.000000 0.000000 0.000000
0.895160 0.228323 1.022681 0.000000 0.000000 0.000000
0.915184 0.186682 0.980086 0.000000 0.000000 0.000000
0.925996 0.108687 0.970095 0.000000 0.000000 0.000000
0.912020 0.269756 1.017416 0.000000 0.000000 0.000000
0.895491 0.221397 1.022733 0.000000 0.000000 0.000000
0.911979 0.157506 1.011615 0.000000 0.000000 0.000000
0.904394 0.261144 1.025950 0.000000 0.000000 0.000000
0.916457 0.099741 0.987551 0.000000 0.000000 0.000000
0.946347 0.121707 0.978703 0.000000 0.000000 0.000000
0.925870 0.288482 1.016430 0.000000 0.000000 0.000000
0.896248 0.059931 0.922603 0.000000 0.000000 0.000000
0.920720 0.227266 1.001091 0.000000 0.000000 0.000000
0.902458 0.230769 1.015540 0.000000 0.000000 0.000000
0.908341 0.149290 1.008423 0.000000 0.000000 0.000000
0.933067 0.221816 1.021140 0.000000 0.000000 0.000000
0.899616 0.228076 1.021067 0.000000 0.000000 0.000000
0.935708 0.093225 0.965258 0.000000 0.000000 0.000000
0.909180 0.263872 1.028769 0.000000 0.000000 0.000000
0.912268 0.274734 1.017896 0.000000 0.000000 0.000000
0.911963 0.102851 0.958964 0.000000 0.000000 0.000000
0.936363 0.260426 1.010652 0.000000 0.000000 0.000000
0.935153 0.231871 0.997474 0.000000 0.000000 0.000000
0.928766 0.122276 0.972373 0.000000 0.000000 0.000000
0.887418 0.167135 0.998092 0.000000 0.000000 0.000000
0.883859 0.166965 0.978741 0.000000 0.000000 0.000000
0.889237 0.173625 0.995026 0.000000 0.000000 0.000000
0.942697 0.158348 0.988084 0.000000 0.000000 0.000000
0.935614 0.051367 0.943950 0.000000 0.000000 0.000000
0.940393 0.195170 0.991039 0.000000 0.000000 0.000000
0.893333 0.197884 1.022877 0.000000 0.000000 0.000000
0.921898 0.151542 1.011557 0.000000 0.000000 0.000000
0.906380 0.263769 1.018671 0.000000 0.000000 0.000000
0.937795 0.220818 1.004324 0.000000 0.000000 0.000000
0.945364 0.209361 1.020831 0.000000 0.000000 0.000000
0.913989 0.256428 1.026986 0.000000 0.000000 0.000000
0.901061 0.238848 1.027310 0.000000 0.000000 0.000000
0.886496 0.217857 1.017701 0.000000 0.000000 0.000000
0.895794 0.231030 1.025878 0.000000 0.000000 0.000000
0.899213 0.255228 1.033824 0.000000 0.000000 0.000000
0.935491 0.205636 1.011376 0.000000 0.000000 0.000000
0.900157 0.234728 1.024663 0.000000 0.000000 0.000000
0.899732 0.239105 1.029943 0.000000 0.000000 0.000000
0.928386 0.205705 1.005735 0.000000 0.000000 0.000000
0.928498 0.289570 1.014335 0.000000 0.000000 0.000000
0.910166 0.279692 1.021115 0.000000 0.000000 0.000000
0.927243 0.276558 1.022672 0.000000 0.000000 0.000000
0.883190 0.184632 1.008433 0.000000 0.000000 0.000000
0.938325 0.110803 0.968633 0.000000 0.000000 0.000000
0.919456 0.082473 0.978622 0.000000 0.000000 0.000000
0.890964 0.207789 1.017702 0.000000 0.000000 0.000000
0.936535 0.104995 0.969044 0.000000 0.000000 0.000000
0.912134 0.060239 0.974984 0.000000 0.000000 0.000000
0.900560 0.235212 1.022277 0.000000 0.000000 0.000000
0.883857 0.170725 0.977903 0.000000 0.000000 0.000000
0.891593 0.219217 1.021078 0.000000 0.000000 0.000000
0.893745 0.234036 1.016309 0.000000 0.000000 0.000000
0.923270 0.269118 1.008532 0.000000 0.000000 0.000000
0.898584 0.064304 0.977328 0.000000 0.000000 0.000000
0.934483 0.158416 0.987688 0.000000 0.000000 0.000000
0.945419 0.130578 0.983274 0.000000 0.000000 0.000000
0.948829 0.111549 0.974732 0.000000 0.000000 0.000000
0.915479 0.169682 0.994611 0.000000 0.000000 0.000000
0.943282 0.117388 0.972799 0.000000 0.000000 0.000000
0.908159 0.130934 1.002650 0.000000 0.000000 0.000000
0.932058 0.251745 1.005146 0.000000 0.000000 0.000000
0.937601 0.243635 0.999649 0.000000 0.000000 0.000000
0.937261 0.206870 0.995149 0.000000 0.000000 0.000000
0.930668 0.250271 0.998499 0.000000 0.000000 0.000000
0.893205 0.215048 1.019995 0.000000 0.000000 0.000000
0.895890 0.159516 1.017180 0.000000 0.000000 0.000000
0.917942 0.283609 1.014362 0.000000 0.000000 0.000000
0.895078 0.209104 1.026873 0.000000 0.000000 0.000000
0.936526 0.099432 0.961113 0.000000 0.000000 0.000000
0.915962 0.222579 1.013748 0.000000 0.000000 0.000000
0.926972 0.274580 1.010920 0.000000 0.000000 0.000000
0.939775 0.223801 1.026531 0.000000 0.000000 0.000000
0.927800 0.265391 1.008734 0.000000 0.000000 0.000000
0.908564 0.142657 1.012129 0.000000 0.000000 0.000000
0.883073 0.175574 0.979521 0.000000 0.000000 0.000000
0.912270 0.259763 1.034649 0.000000 0.000000 0.000000
0.930316 0.286625 1.016890 0.000000 0.000000 0.000000
0.926770 0.160575 0.990876 0.000000 0.000000 0.000000
0.908430 0.072926 0.950694 0.000000 0.000000 0.000000
0.899737 0.181704 0.988166 0.000000 0.000000 0.000000
0.916601 0.164204 0.983365 0.000000 0.000000 0.000000
0.884360 0.173323 0.979203 0.000000 0.000000 0.000000
0.919415 0.213437 1.019847 0.000000 0.000000 0.000000
0.887170 0.126952 1.007919 0.000000 0.000000 0.000000
0.932013 0.073094 0.946038 0.000000 0.000000 0.000000
0.893931 0.096506 0.945774 0.000000 0.000000 0.000000
0.904966 0.199681 1.015269 0.000000 0.000000 0.000000
0.899865 0.118941 0.955320 0.000000 0.000000 0.000000
0.899701 0.086271 0.936342 0.000000 0.000000 0.000000
0.910992 0.069879 0.933507 0.000000 0.000000 0.000000
0.915915 0.143715 0.977254 0.000000 0.000000 0.000000
0.896378 0.167300 1.013660 0.000000 0.000000 0.000000
0.924019 0.041181 0.948169 0.000000 0.000000 0.000000
0.912704 0.125802 0.974833 0.000000 0.000000 0.000000
0.889521 0.072297 0.969088 0.000000 0.000000 0.000000
0.898013 0.152630 0.996588 0.000000 0.000000 0.000000
0.917240 0.041500 0.927604 0.000000 0.000000 0.000000
0.894802 0.124162 0.980768 0.000000 0.000000 0.000000
0.898306 0.162999 0.990625 0.000000 0.000000 0.000000
0.887895 0.153090 0.978679 0.000000 0.000000 0.000000
0.923947 0.120099 0.978422 0.000000 0.000000 0.000000
0.916163 0.159733 0.986776 0.000000 0.000000 0.000000
0.908632 0.127281 0.981050 0.000000 0.000000 0.000000
0.888870 0.137194 0.997103 0.000000 0.000000 0.000000
0.938630 0.241467 1.002758 0.000000 0.000000 0.000000
0.932188 0.159458 0.986407 0.000000 0.000000 0.000000
0.904040 0.043732 0.937400 0.000000 0.000000 0.000000
0.903470 0.173007 1.012504 0.000000 0.000000 0.000000
0.924036 0.115154 0.993306 0.000000 0.000000 0.000000
0.938063 0.111313 0.969700 0.000000 0.000000 0.000000
0.923054 0.080401 0.961288 0.000000 0.000000 0.000000
0.886251 0.148118 0.991626 0.000000 0.000000 0.000000
0.892322 0.216954 1.026195 0.000000 0.000000 0.000000
0.888125 0.060201 0.963710 0.000000 0.000000 0.000000
0.927755 0.280010 1.020242 0.000000 0.000000 0.000000
0.924510 0.146337 0.979921 0.000000 0.000000 0.000000
0.892487 0.155426 0.980898 0.000000 0.000000 0.000000
0.895673 0.139411 1.008491 0.000000 0.000000 0.000000
0.933031 0.132418 0.977509 0.000000 0.000000 0.000000
0.920333 0.077749 0.941117 0.000000 0.000000 0.000000
0.931320 0.087769 0.939729 0.000000 0.000000 0.000000
0.898770 0.091241 0.950068 0.000000 0.000000 0.000000
0.893573 0.185035 1.011374 0.000000 0.000000 0.000000
0.888281 0.060200 0.937894 0.000000 0.000000 0.000000
0.904485 0.072762 0.962586 0.000000 0.000000 0.000000
0.917693 0.164120 0.961348 0.000000 0.000000 0.000000
0.906557 0.221528 1.015013 0.000000 0.000000 0.000000
0.914730 0.041030 0.942620 0.000000 0.000000 0.000000
0.892354 0.095536 0.983560 0.000000 0.000000 0.000000
0.906755 0.164550 0.993314 0.000000 0.000000 0.000000
0.891074 0.164914 0.992089 0.000000 0.000000 0.000000
0.886367 0.141357 0.982896 0.000000 0.000000 0.000000
0.881320 0.086207 0.933317 0.000000 0.000000 0.000000
0.906278 0.085480 0.932028 0.000000 0.000000 0.000000
0.908213 0.133525 0.975605 0.000000 0.000000 0.000000
0.886291 0.149062 0.973958 0.000000 0.000000 0.000000
0.926513 0.067048 0.941292 0.000000 0.000000 0.000000
0.925818 0.126679 0.983402 0.000000 0.000000 0.000000
0.925766 0.140811 0.983518 0.000000 0.000000 0.000000
0.924582 0.162564 0.978440 0.000000 0.000000 0.000000
0.890618 0.219312 1.014164 0.000000 0.000000 0.000000
0.901923 0.202290 1.003411 0.000000 0.000000 0.000000
0.903921 0.093076 0.965730 0.000000 0.000000 0.000000
0.937336 0.164021 0.996883 0.000000 0.000000 0.000000
0.912730 0.139024 0.989323 0.000000 0.000000 0.000000
0.938188 0.232273 0.995597 0.000000 0.000000 0.000000
0.889918 0.090569 0.969431 0.000000 0.000000 0.000000
0.888442 0.127856 1.006130 0.000000 0.000000 0.000000
0.910475 0.059977 0.942311 0.000000 0.000000 0.000000
0.895271 0.172971 1.015309 0.000000 0.000000 0.000000
0.906357 0.109218 0.988736 0.000000 0.000000 0.000000
0.924240 0.074074 0.943141 0.000000 0.000000 0.000000
0.942674 0.114778 0.972789 0.000000 0.000000 0.000000
0.914044 0.101822 0.958482 0.000000 0.000000 0.000000
0.887362 0.137733 0.988876 0.000000 0.000000 0.000000
0.932913 0.145788 0.997612 0.000000 0.000000 0.000000
0.891118 0.204287 1.022472 0.000000 0.000000 0.000000
0.904404 0.054785 0.970995 0.000000 0.000000 0.000000
0.919778 0.273612 1.016167 0.000000 0.000000 0.000000
0.904554 0.259337 1.019778 0.000000 0.000000 0.000000
0.898776 0.219188 1.018888 0.000000 0.000000 0.000000
0.910134 0.258608 1.032477 0.000000 0.000000 0.000000
0.919028 0.263155 1.010864 0.000000 0.000000 0.000000
0.900066 0.140118 0.970600 0.000000 0.000000 0.000000
0.887903 0.143654 0.967809 0.000000 0.000000 0.000000
0.938530 0.230172 1.007288 0.000000 0.000000 0.000000
0.893930 0.178054 1.022869 0.000000 0.000000 0.000000
0.896240 0.208057 1.016292 0.000000 0.000000 0.000000
0.910811 0.174336 0.999282 0.000000 0.000000 0.000000
0.882994 0.118693 1.006664 0.000000 0.000000 0.000000
0.943320 0.187524 1.001487 0.000000 0.000000 0.000000
0.900554 0.126117 1.001068 0.000000 0.000000 0.000000
0.892791 0.051645 0.953851 0.000000 0.000000 0.000000
0.903283 0.142460 0.979661 0.000000 0.000000 0.000000
0.908175 0.084560 0.948330 0.000000 0.000000 0.000000
0.921341 0.050792 0.944720 0.000000 0.000000 0.000000
0.906299 0.089098 0.979629 0.000000 0.000000 0.000000
0.889524 0.064811 0.955937 0.000000 0.000000 0.000000
0.933284 0.177850 1.005089 0.000000 0.000000 0.000000
0.918193 0.211000 1.020292 0.000000 0.000000 0.000000
0.915970 0.065057 0.937030 0.000000 0.000000 0.000000
0.924228 0.047638 0.935612 0.000000 0.000000 0.000000
0.903793 0.195330 1.007199 0.000000 0.000000 0.000000
0.938224 0.097964 0.969244 0.000000 0.000000 0.000000
0.908089 0.107583 0.961083 0.000000 0.000000 0.000000
0.896731 0.129366 0.974946 0.000000 0.000000 0.000000
0.942815 0.242369 1.010815 0.000000 0.000000 0.000000
0.901897 0.203085 1.010599 0.000000 0.000000 0.000000
0.895830 0.199013 1.016156 0.000000 0.000000 0.000000
0.904405 0.158056 1.004146 0.000000 0.000000 0.000000
0.890781 0.114415 0.997873 0.000000 0.000000 0.000000
0.896666 0.120213 0.999456 0.000000 0.000000 0.000000
0.901595 0.047409 0.930080 0.000000 0.000000 0.000000
0.891023 0.088596 0.924532 0.000000 0.000000 0.000000
0.894924 0.046306 0.949162 0.000000 0.000000 0.000000
0.908333 0.133987 0.989025 0.000000 0.000000 0.000000
0.929029 0.249617 1.007940 0.000000 0.000000 0.000000
0.896880 0.058881 0.949532 0.000000 0.000000 0.000000
0.889745 0.092849 0.999881 0.000000 0.000000 0.000000
0.896325 0.188010 1.021127 0.000000 0.000000 0.000000
0.917399 0.135613 0.989085 0.000000 0.000000 0.000000
0.881048 0.169642 0.974807 0.000000 0.000000 0.000000
0.929185 0.283265 1.020919 0.000000 0.000000 0.000000
0.886769 0.138204 1.005399 0.000000 0.000000 0.000000
0.891760 0.130393 0.956230 0.000000 0.000000 0.000000
0.944440 0.223518 0.995605 0.000000 0.000000 0.000000
0.886309 0.101693 0.928033 0.000000 0.000000 0.000000
0.931982 0.243125 1.001325 0.000000 0.000000 0.000000
0.916201 0.189296 1.004064 0.000000 0.000000 0.000000
0.936075 0.230182 0.990532 0.000000 0.000000 0.000000
0.914368 0.135341 0.985717 0.000000 0.000000 0.000000
0.885644 0.183827 0.982397 0.000000 0.000000 0.000000
0.892514 0.091527 0.994948 0.000000 0.000000 0.000000
0.904960 0.115318 0.956092 0.000000 0.000000 0.000000
0.930309 0.073925 0.952073 0.000000 0.000000 0.000000
0.880047 0.144836 0.958537 0.000000 0.000000 0.000000
0.941545 0.209945 0.993483 0.000000 0.000000 0.000000
0.900162 0.126764 0.948356 0.000000 0.000000 0.000000
0.937499 0.222337 0.994053 0.000000 0.000000 0.000000
0.928603 0.226098 1.001972 0.000000 0.000000 0.000000
0.929708 0.221423 0.998886 0.000000 0.000000 0.000000
0.935089 0.209596 0.994646 0.000000 0.000000 0.000000
0.917698 0.155688 0.993866 0.000000 0.000000 0.000000
0.906909 0.085870 0.956354 0.000000 0.000000 0.000000
0.927867 0.134459 0.989438 0.000000 0.000000 0.000000
0.933122 0.143603 1.001772 0.000000 0.000000 0.000000
0.895073 0.179069 1.020617 0.000000 0.000000 0.000000
0.914713 0.141994 1.001308 0.000000 0.000000 0.000000
0.885251 0.150559 1.002535 0.000000 0.000000 0.000000
0.917655 0.108257 1.009435 0.000000 0.000000 0.000000
0.889347 0.205769 1.017556 0.000000 0.000000 0.000000
0.921899 0.178348 0.997658 0.000000 0.000000 0.000000
0.886036 0.095541 0.985306 0.000000 0.000000 0.000000
0.941546 0.144268 0.983008 0.000000 0.000000 0.000000
0.891119 0.170914 1.017539 0.000000 0.000000 0.000000
0.928192 0.133625 0.997229 0.000000 0.000000 0.000000
0.884024 0.141033 1.004413 0.000000 0.000000 0.000000
0.903270 0.111699 1.002423 0.000000 0.000000 0.000000
0.906727 0.055962 0.974159 0.000000 0.000000 0.000000
0.891295 0.182580 1.001487 0.000000 0.000000 0.000000
0.888076 0.183265 0.992509 0.000000 0.000000 0.000000
0.897512 0.238407 1.032963 0.000000 0.000000 0.000000
0.882144 0.164570 0.984157 0.000000 0.000000 0.000000
0.887667 0.144972 0.982043 0.000000 0.000000 0.000000
0.896838 0.208182 1.022409 0.000000 0.000000 0.000000
0.887140 0.182510 0.999000 0.000000 0.000000 0.000000
0.888828 0.176920 0.987135 0.000000 0.000000 0.000000
0.885754 0.160852 0.988873 0.000000 0.000000 0.000000
0.887735 0.175829 1.001166 0.000000 0.000000 0.000000
0.936172 0.135027 0.998263 0.000000 0.000000 0.000000
0.942172 0.144614 0.993740 0.000000 0.000000 0.000000
0.886507 0.162670 0.973138 0.000000 0.000000 0.000000
0.886608 0.146978 1.002225 0.000000 0.000000 0.000000
0.910924 0.195494 1.006207 0.000000 0.000000 0.000000
0.887579 0.181975 1.004340 0.000000 0.000000 0.000000
0.887230 0.133946 0.991821 0.000000 0.000000 0.000000
0.940497 0.145813 0.989442 0.000000 0.000000 0.000000
0.943277 0.135898 0.997920 0.000000 0.000000 0.000000
0.928937 0.259794 1.019002 0.000000 0.000000 0.000000
0.915918 0.266430 1.027027 0.000000 0.000000 0.000000
0.935758 0.266685 1.014893 0.000000 0.000000 0.000000
0.904489 0.064009 0.982942 0.000000 0.000000 0.000000
0.929201 0.284381 1.018373 0.000000 0.000000 0.000000
0.892018 0.197891 1.026229 0.000000 0.000000 0.000000
0.930361 0.236405 1.019456 0.000000 0.000000 0.000000
0.886227 0.152276 1.003873 0.000000 0.000000 0.000000
0.940861 0.236094 1.012856 0.000000 0.000000 0.000000
0.941451 0.239345 0.998936 0.000000 0.000000 0.000000
0.939881 0.250014 1.009039 0.000000 0.000000 0.000000
0.930202 0.287087 1.018235 0.000000 0.000000 0.000000
0.903513 0.214081 1.024245 0.000000 0.000000 0.000000
0.890585 0.189511 1.011880 0.000000 0.000000 0.000000
0.894578 0.132635 0.990955 0.000000 0.000000 0.000000
0.943881 0.224871 1.009698 0.000000 0.000000 0.000000
0.944562 0.230632 1.002376 0.000000 0.000000 0.000000
0.932519 0.082756 0.945593 0.000000 0.000000 0.000000
0.936045 0.055884 0.938357 0.000000 0.000000 0.000000
0.943415 0.109118 0.967716 0.000000 0.000000 0.000000
0.941775 0.100982 0.960273 0.000000 0.000000 0.000000
0.886177 0.180036 0.991440 0.000000 0.000000 0.000000
0.919895 0.065033 0.961529 0.000000 0.000000 0.000000
0.906106 0.056569 0.963841 0.000000 0.000000 0.000000
0.920694 0.087247 0.962876 0.000000 0.000000 0.000000
0.916809 0.065358 0.945600 0.000000 0.000000 0.000000
0.906317 0.056132 0.946000 0.000000 0.000000 0.000000
0.890523 0.185217 0.993926 0.000000 0.000000 0.000000
0.907485 0.275947 1.022957 0.000000 0.000000 0.000000
0.921158 0.278352 1.010668 0.000000 0.000000 0.000000
0.900719 0.247571 1.026989 0.000000 0.000000 0.000000
0.935459 0.112475 0.967879 0.000000 0.000000 0.000000
0.944559 0.095226 0.956004 0.000000 0.000000 0.000000
0.926397 0.142587 0.981954 0.000000 0.000000 0.000000
0.932291 0.275981 1.015111 0.000000 0.000000 0.000000
0.914186 0.253561 1.013021 0.000000 0.000000 0.000000
0.940131 0.134038 0.996682 0.000000 0.000000 0.000000
0.921994 0.272901 1.012611 0.000000 0.000000 0.000000
0.887087 0.052401 0.929786 0.000000 0.000000 0.000000
0.941945 0.116293 0.968336 0.000000 0.000000 0.000000
0.919187 0.127247 0.970224 0.000000 0.000000 0.000000
0.917298 0.242333 1.006011 0.000000 0.000000 0.000000
0.940639 0.131251 0.993300 0.000000 0.000000 0.000000
0.930343 0.272001 1.021395 0.000000 0.000000 0.000000
0.913448 0.277847 1.020644 0.000000 0.000000 0.000000
0.932509 0.285268 1.012330 0.000000 0.000000 0.000000
0.935161 0.285930 1.020661 0.000000 0.000000 0.000000
0.917562 0.281774 1.014233 0.000000 0.000000 0.000000
0.935334 0.225650 1.021463 0.000000 0.000000 0.000000
0.930254 0.281455 1.023450 0.000000 0.000000 0.000000
0.892869 0.083775 0.994683 0.000000 0.000000 0.000000
0.929481 0.272153 1.011361 0.000000 0.000000 0.000000
0.925043 0.283715 1.012548 0.000000 0.000000 0.000000
0.908881 0.253854 1.021976 0.000000 0.000000 0.000000
0.927755 0.253094 1.021805 0.000000 0.000000 0.000000
0.897299 0.220086 1.017072 0.000000 0.000000 0.000000
0.933877 0.143314 0.993957 0.000000 0.000000 0.000000
0.931923 0.266720 1.008829 0.000000 0.000000 0.000000
0.892157 0.075259 0.976871 0.000000 0.000000 0.000000
0.910561 0.098455 1.000275 0.000000 0.000000 0.000000
0.888909 0.092545 0.996917 0.000000 0.000000 0.000000
0.933727 0.132478 0.990098 0.000000 0.000000 0.000000
0.945677 0.136884 0.983934 0.000000 0.000000 0.000000
0.940757 0.132346 0.988033 0.000000 0.000000 0.000000
0.896612 0.070689 0.985586 0.000000 0.000000 0.000000
0.938160 0.115496 0.986885 0.000000 0.000000 0.000000
0.919799 0.249996 1.009785 0.000000 0.000000 0.000000
0.924310 0.247301 1.018026 0.000000 0.000000 0.000000
0.916191 0.230467 1.010146 0.000000 0.000000 0.000000
0.938282 0.144173 0.983417 0.000000 0.000000 0.000000
0.935884 0.280764 1.011475 0.000000 0.000000 0.000000
0.896511 0.056040 0.961125 0.000000 0.000000 0.000000
0.881674 0.101403 0.995878 0.000000 0.000000 0.000000
0.889681 0.084713 0.991280 0.000000 0.000000 0.000000
0.944390 0.130368 0.981750 0.000000 0.000000 0.000000
0.944073 0.138394 0.987015 0.000000 0.000000 0.000000
0.891012 0.089403 0.998478 0.000000 0.000000 0.000000
0.883180 0.209910 1.014784 0.000000 0.000000 0.000000
0.937904 0.111364 0.986177 0.000000 0.000000 0.000000
0.925381 0.229642 1.022930 0.000000 0.000000 0.000000
0.909998 0.243050 1.029621 0.000000 0.000000 0.000000
0.917467 0.249579 1.029599 0.000000 0.000000 0.000000
0.911291 0.255201 1.032516 0.000000 0.000000 0.000000
0.914252 0.248860 1.031053 0.000000 0.000000 0.000000
0.893425 0.079183 0.989323 0.000000 0.000000 0.000000
0.890751 0.135086 1.011411 0.000000 0.000000 0.000000
0.894981 0.219606 1.004861 0.000000 0.000000 0.000000
0.894212 0.085302 0.994042 0.000000 0.000000 0.000000
0.920178 0.254051 1.029297 0.000000 0.000000 0.000000
0.887720 0.146083 1.009444 0.000000 0.000000 0.000000
0.892810 0.203963 1.016618 0.000000 0.000000 0.000000
0.940632 0.137442 0.985704 0.000000 0.000000 0.000000
0.909644 0.185125 0.975988 0.000000 0.000000 0.000000
0.918155 0.267706 1.016904 0.000000 0.000000 0.000000
0.890889 0.191953 1.006324 0.000000 0.000000 0.000000
0.946241 0.235570 1.002557 0.000000 0.000000 0.000000
0.904410 0.055361 0.921572 0.000000 0.000000 0.000000
0.889427 0.189726 1.011842 0.000000 0.000000 0.000000
0.945343 0.140579 0.982921 0.000000 0.000000 0.000000
0.899164 0.112789 1.008874 0.000000 0.000000 0.000000
0.945884 0.216583 0.998830 0.000000 0.000000 0.000000
0.899017 0.180092 0.998345 0.000000 0.000000 0.000000
0.943334 0.149430 0.985452 0.000000 0.000000 0.000000
0.894861 0.122416 1.006412 0.000000 0.000000 0.000000
0.890194 0.187514 0.997817 0.000000 0.000000 0.000000
0.890557 0.181780 0.993290 0.000000 0.000000 0.000000
0.881548 0.179812 0.970392 0.000000 0.000000 0.000000
0.908430 0.215929 1.008111 0.000000 0.000000 0.000000
0.925564 0.227715 1.019740 0.000000 0.000000 0.000000
0.890991 0.061129 0.967202 0.000000 0.000000 0.000000
0.925956 0.217192 1.014195 0.000000 0.000000 0.000000
0.913560 0.050269 0.964639 0.000000 0.000000 0.000000
0.939760 0.040555 0.941851 0.000000 0.000000 0.000000
0.923919 0.040872 0.951703 0.000000 0.000000 0.000000
0.896711 0.114235 0.990785 0.000000 0.000000 0.000000
0.897424 0.072741 0.968009 0.000000 0.000000 0.000000
0.923640 0.233366 1.018623 0.000000 0.000000 0.000000
0.885393 0.081928 0.982709 0.000000 0.000000 0.000000
0.914334 0.043725 0.963113 0.000000 0.000000 0.000000
0.934349 0.086273 0.957319 0.000000 0.000000 0.000000
0.880360 0.178274 0.982168 0.000000 0.000000 0.000000
0.902947 0.053309 0.964918 0.000000 0.000000 0.000000
0.882173 0.164936 0.972979 0.000000 0.000000 0.000000
0.882720 0.179848 0.982161 0.000000 0.000000 0.000000
0.944198 0.167844 0.988843 0.000000 0.000000 0.000000
0.893678 0.141211 0.971379 0.000000 0.000000 0.000000
0.941878 0.174467 1.001513 0.000000 0.000000 0.000000
0.941300 0.169852 0.989353 0.000000 0.000000 0.000000
0.907086 0.041651 0.954449 0.000000 0.000000 0.000000
0.887761 0.148700 0.965475 0.000000 0.000000 0.000000
0.936466 0.156088 0.986557 0.000000 0.000000 0.000000
0.933772 0.098337 0.978618 0.000000 0.000000 0.000000
0.880005 0.158938 0.966870 0.000000 0.000000 0.000000
0.936431 0.147574 0.983407 0.000000 0.000000 0.000000
0.938744 0.130277 0.983273 0.000000 0.000000 0.000000
0.889671 0.092669 0.987421 0.000000 0.000000 0.000000
0.906336 0.119509 0.967080 0.000000 0.000000 0.000000
0.936717 0.095638 0.958049 0.000000 0.000000 0.000000
0.913929 0.042288 0.961342 0.000000 0.000000 0.000000
0.945182 0.187266 0.991480 0.000000 0.000000 0.000000
0.893442 0.134424 0.963237 0.000000 0.000000 0.000000
0.944777 0.186684 0.995124 0.000000 0.000000 0.000000
0.936006 0.159480 0.996569 0.000000 0.000000 0.000000
0.933002 0.176329 0.989070 0.000000 0.000000 0.000000
0.940460 0.161783 0.989606 0.000000 0.000000 0.000000
0.930099 0.099312 0.981078 0.000000 0.000000 0.000000
0.920510 0.110744 0.963606 0.000000 0.000000 0.000000
0.889638 0.121241 0.945800 0.000000 0.000000 0.000000
0.935580 0.163189 0.989258 0.000000 0.000000 0.000000
0.900107 0.105841 0.946298 0.000000 0.000000 0.000000
0.942742 0.123572 0.975405 0.000000 0.000000 0.000000
0.939843 0.121960 0.986508 0.000000 0.000000 0.000000
0.888811 0.092738 0.978023 0.000000 0.000000 0.000000
0.898129 0.109663 0.960048 0.000000 0.000000 0.000000
0.883566 0.167437 0.976281 0.000000 0.000000 0.000000
0.925391 0.091027 0.976116 0.000000 0.000000 0.000000
0.906607 0.050516 0.959460 0.000000 0.000000 0.000000
0.887975 0.102612 0.993348 0.000000 0.000000 0.000000
0.929988 0.066473 0.954419 0.000000 0.000000 0.000000
0.910226 0.272411 1.017286 0.000000 0.000000 0.000000
0.909605 0.270764 1.020626 0.000000 0.000000 0.000000
0.896258 0.210764 1.025664 0.000000 0.000000 0.000000
0.932455 0.068283 0.950377 0.000000 0.000000 0.000000
0.900222 0.195037 1.023592 0.000000 0.000000 0.000000
0.890210 0.180988 1.006289 0.000000 0.000000 0.000000
0.893032 0.194075 1.023958 0.000000 0.000000 0.000000
0.954469 0.136376 0.973291 0.000000 0.000000 0.000000
0.899904 0.213822 1.029213 0.000000 0.000000 0.000000
0.889856 0.138865 1.001250 0.000000 0.000000 0.000000
0.894280 0.187143 1.021462 0.000000 0.000000 0.000000
0.922752 0.268815 1.017594 0.000000 0.000000 0.000000
0.945436 0.133717 0.979863 0.000000 0.000000 0.000000
0.942023 0.243878 1.000475 0.000000 0.000000 0.000000
0.940073 0.210617 1.025618 0.000000 0.000000 0.000000
0.929927 0.292038 1.020105 0.000000 0.000000 0.000000
0.902866 0.252627 1.024194 0.000000 0.000000 0.000000
0.918048 0.115181 1.005411 0.000000 0.000000 0.000000
0.941046 0.231731 1.024455 0.000000 0.000000 0.000000
0.940086 0.192665 0.993070 0.000000 0.000000 0.000000
0.945257 0.207903 0.997199 0.000000 0.000000 0.000000
0.931750 0.239515 1.000511 0.000000 0.000000 0.000000
0.944562 0.190643 1.000399 0.000000 0.000000 0.000000
0.931113 0.273097 1.009357 0.000000 0.000000 0.000000
0.935345 0.243474 1.000643 0.000000 0.000000 0.000000
0.941739 0.192757 1.000688 0.000000 0.000000 0.000000
0.923653 0.265575 1.027191 0.000000 0.000000 0.000000
0.929229 0.281500 1.020398 0.000000 0.000000 0.000000
0.941243 0.189690 0.995133 0.000000 0.000000 0.000000
0.941130 0.195674 0.999187 0.000000 0.000000 0.000000
0.935695 0.252386 1.009113 0.000000 0.000000 0.000000
0.926727 0.185737 0.999140 0.000000 0.000000 0.000000
0.933916 0.249899 1.004464 0.000000 0.000000 0.000000
0.941199 0.235425 0.996661 0.000000 0.000000 0.000000
0.940305 0.176996 0.997900 0.000000 0.000000 0.000000
0.928099 0.280168 1.019857 0.000000 0.000000 0.000000
0.904626 0.121669 1.026516 0.000000 0.000000 0.000000
0.933236 0.202649 1.021514 0.000000 0.000000 0.000000
0.915838 0.280316 1.020198 0.000000 0.000000 0.000000
0.926344 0.290810 1.014296 0.000000 0.000000 0.000000
0.887808 0.180422 0.987794 0.000000 0.000000 0.000000
0.943692 0.222049 1.007977 0.000000 0.000000 0.000000
0.933925 0.098210 0.982704 0.000000 0.000000 0.000000
0.934484 0.210541 1.024837 0.000000 0.000000 0.000000
0.924293 0.155673 0.987698 0.000000 0.000000 0.000000
0.940445 0.132369 0.978163 0.000000 0.000000 0.000000
0.914197 0.057991 0.972082 0.000000 0.000000 0.000000
0.927635 0.085666 0.958229 0.000000 0.000000 0.000000
0.945288 0.212531 1.005188 0.000000 0.000000 0.000000
0.937029 0.139928 0.979695 0.000000 0.000000 0.000000
0.938296 0.119904 0.972398 0.000000 0.000000 0.000000
0.931932 0.097929 0.961742 0.000000 0.000000 0.000000
0.919598 0.044763 0.956134 0.000000 0.000000 0.000000
0.945196 0.222015 1.007729 0.000000 0.000000 0.000000
0.907562 0.273388 1.022396 0.000000 0.000000 0.000000
0.883705 0.173672 0.979867 0.000000 0.000000 0.000000
0.889549 0.168954 1.012400 0.000000 0.000000 0.000000
0.893226 0.071194 0.981377 0.000000 0.000000 0.000000
0.915241 0.236954 1.025491 0.000000 0.000000 0.000000
0.888380 0.177769 0.993726 0.000000 0.000000 0.000000
0.935808 0.102336 0.974617 0.000000 0.000000 0.000000
0.920570 0.103230 0.977014 0.000000 0.000000 0.000000
0.936997 0.082241 0.956218 0.000000 0.000000 0.000000
0.895025 0.085138 0.981568 0.000000 0.000000 0.000000
0.916644 0.128819 1.023748 0.000000 0.000000 0.000000
0.925856 0.085701 0.969282 0.000000 0.000000 0.000000
0.916888 0.056464 0.965295 0.000000 0.000000 0.000000
0.921830 0.265708 1.023285 0.000000 0.000000 0.000000
0.894572 0.087053 0.983096 0.000000 0.000000 0.000000
0.922861 0.076855 0.972184 0.000000 0.000000 0.000000
0.906077 0.056017 0.968629 0.000000 0.000000 0.000000
0.900872 0.042238 0.961582 0.000000 0.000000 0.000000
0.907797 0.046260 0.968582 0.000000 0.000000 0.000000
0.912893 0.237854 1.023000 0.000000 0.000000 0.000000
0.937693 0.105392 0.979954 0.000000 0.000000 0.000000
0.912269 0.109937 0.979197 0.000000 0.000000 0.000000
0.930022 0.075018 0.959642 0.000000 0.000000 0.000000
0.915935 0.137715 1.019581 0.000000 0.000000 0.000000
0.926371 0.086757 0.964179 0.000000 0.000000 0.000000
0.925492 0.097612 0.966381 0.000000 0.000000 0.000000
0.925627 0.260993 1.027549 0.000000 0.000000 0.000000
0.941034 0.087842 0.959012 0.000000 0.000000 0.000000
0.896386 0.076369 0.974310 0.000000 0.000000 0.000000
0.929057 0.076391 0.965048 0.000000 0.000000 0.000000
0.945423 0.111084 0.972282 0.000000 0.000000 0.000000
0.933159 0.281233 1.018720 0.000000 0.000000 0.000000
0.905050 0.041737 0.964039 0.000000 0.000000 0.000000
0.909062 0.042559 0.961861 0.000000 0.000000 0.000000
0.883292 0.122073 1.001464 0.000000 0.000000 0.000000
0.885193 0.127363 0.999373 0.000000 0.000000 0.000000
0.904725 0.050475 0.969860 0.000000 0.000000 0.000000
0.887450 0.208052 1.012619 0.000000 0.000000 0.000000
0.924688 0.133300 1.022834 0.000000 0.000000 0.000000
0.927309 0.285537 1.015092 0.000000 0.000000 0.000000
0.929025 0.284348 1.014273 0.000000 0.000000 0.000000
0.944500 0.201952 1.002015 0.000000 0.000000 0.000000
0.944416 0.214605 1.005290 0.000000 0.000000 0.000000
0.931215 0.274169 1.011798 0.000000 0.000000 0.000000
0.933433 0.260662 1.008178 0.000000 0.000000 0.000000
0.943990 0.216270 1.002777 0.000000 0.000000 0.000000
0.883195 0.220273 1.025406 0.000000 0.000000 0.000000
0.923183 0.236557 1.018388 0.000000 0.000000 0.000000
0.946327 0.209566 1.003495 0.000000 0.000000 0.000000
0.899825 0.077364 0.986816 0.000000 0.000000 0.000000
0.890941 0.077581 0.983940 0.000000 0.000000 0.000000
0.904625 0.075837 0.959837 0.000000 0.000000 0.000000
0.940063 0.176310 1.019240 0.000000 0.000000 0.000000
0.914997 0.086100 0.983966 0.000000 0.000000 0.000000
0.916501 0.081427 0.979550 0.000000 0.000000 0.000000
0.906102 0.142807 1.008677 0.000000 0.000000 0.000000
0.927519 0.256461 1.006750 0.000000 0.000000 0.000000
0.907161 0.060835 0.974608 0.000000 0.000000 0.000000
0.932472 0.102838 0.986707 0.000000 0.000000 0.000000
0.928912 0.217692 1.026520 0.000000 0.000000 0.000000
0.897669 0.061552 0.973264 0.000000 0.000000 0.000000
0.934031 0.240769 1.017881 0.000000 0.000000 0.000000
0.943151 0.098083 0.964411 0.000000 0.000000 0.000000
0.907055 0.057555 0.959039 0.000000 0.000000 0.000000
0.937184 0.173817 1.018955 0.000000 0.000000 0.000000
0.915492 0.087366 0.981583 0.000000 0.000000 0.000000
0.920264 0.091982 0.979589 0.000000 0.000000 0.000000
0.904977 0.113585 1.001224 0.000000 0.000000 0.000000
0.920652 0.261386 1.008660 0.000000 0.000000 0.000000
0.909934 0.066945 0.977737 0.000000 0.000000 0.000000
0.900745 0.070659 0.979721 0.000000 0.000000 0.000000
0.930444 0.091368 0.971210 0.000000 0.000000 0.000000
0.925543 0.220782 1.025048 0.000000 0.000000 0.000000
0.893682 0.086963 0.988981 0.000000 0.000000 0.000000
0.939790 0.248175 1.012153 0.000000 0.000000 0.000000
0.939142 0.102905 0.966220 0.000000 0.000000 0.000000
0.902531 0.060736 0.962952 0.000000 0.000000 0.000000
0.888528 0.213610 1.015026 0.000000 0.000000 0.000000
0.910847 0.136875 1.020729 0.000000 0.000000 0.000000
0.913634 0.046762 0.922459 0.000000 0.000000 0.000000
0.902442 0.225606 1.017041 0.000000 0.000000 0.000000
0.925786 0.041421 0.942848 0.000000 0.000000 0.000000
0.904213 0.247507 1.026822 0.000000 0.000000 0.000000
0.927173 0.046357 0.938788 0.000000 0.000000 0.000000
0.928882 0.060472 0.955292 0.000000 0.000000 0.000000
0.907920 0.249771 1.022230 0.000000 0.000000 0.000000
0.885341 0.196783 1.014048 0.000000 0.000000 0.000000
0.924657 0.049485 0.927867 0.000000 0.000000 0.000000
0.898910 0.231303 1.023693 0.000000 0.000000 0.000000
0.926487 0.066576 0.954869 0.000000 0.000000 0.000000
0.900474 0.243807 1.029276 0.000000 0.000000 0.000000
0.895604 0.245840 1.016197 0.000000 0.000000 0.000000
0.923787 0.058789 0.940533 0.000000 0.000000 0.000000
0.932515 0.055605 0.943317 0.000000 0.000000 0.000000
0.930593 0.041428 0.929977 0.000000 0.000000 0.000000
0.936018 0.076073 0.964310 0.000000 0.000000 0.000000
0.907319 0.237747 1.016812 0.000000 0.000000 0.000000
0.889103 0.238864 1.018360 0.000000 0.000000 0.000000
0.891552 0.207223 1.018019 0.000000 0.000000 0.000000
0.890062 0.146875 1.008358 0.000000 0.000000 0.000000
0.917068 0.140269 1.018849 0.000000 0.000000 0.000000
0.926983 0.289901 1.017303 0.000000 0.000000 0.000000
0.909574 0.133633 1.019888 0.000000 0.000000 0.000000
0.882174 0.144643 0.958065 0.000000 0.000000 0.000000
0.881401 0.105321 0.996633 0.000000 0.000000 0.000000
0.930091 0.157385 1.001992 0.000000 0.000000 0.000000
0.893541 0.116805 0.942264 0.000000 0.000000 0.000000
0.901678 0.068592 0.933824 0.000000 0.000000 0.000000
0.907823 0.132509 1.020335 0.000000 0.000000 0.000000
0.897069 0.122088 0.958322 0.000000 0.000000 0.000000
0.901896 0.117789 0.961123 0.000000 0.000000 0.000000
0.917411 0.271029 1.025072 0.000000 0.000000 0.000000
0.938095 0.141669 0.993320 0.000000 0.000000 0.000000
0.912141 0.270505 1.025400 0.000000 0.000000 0.000000
0.929295 0.284082 1.021555 0.000000 0.000000 0.000000
0.882277 0.209656 1.018364 0.000000 0.000000 0.000000
0.926269 0.269684 1.023672 0.000000 0.000000 0.000000
0.906209 0.274234 1.023877 0.000000 0.000000 0.000000
0.916827 0.268784 1.024868 0.000000 0.000000 0.000000
0.904048 0.250667 1.025165 0.000000 0.000000 0.000000
0.921576 0.270930 1.025268 0.000000 0.000000 0.000000
0.910415 0.234979 1.026082 0.000000 0.000000 0.000000
0.898443 0.236970 1.028586 0.000000 0.000000 0.000000
0.920540 0.273036 1.022394 0.000000 0.000000 0.000000
0.902954 0.247074 1.025203 0.000000 0.000000 0.000000
0.914670 0.248785 1.026232 0.000000 0.000000 0.000000
0.917471 0.264621 1.027382 0.000000 0.000000 0.000000
0.905813 0.236034 1.026931 0.000000 0.000000 0.000000
0.900549 0.239534 1.029648 0.000000 0.000000 0.000000
0.928931 0.271399 1.020619 0.000000 0.000000 0.000000
0.903715 0.237924 1.022483 0.000000 0.000000 0.000000
0.889579 0.184843 0.999059 0.000000 0.000000 0.000000
0.886354 0.219109 1.024361 0.000000 0.000000 0.000000
0.923355 0.103250 1.004197 0.000000 0.000000 0.000000
0.890021 0.177255 1.010580 0.000000 0.000000 0.000000
0.887710 0.200389 1.011931 0.000000 0.000000 0.000000
0.889119 0.205106 1.016680 0.000000 0.000000 0.000000
0.882093 0.108724 0.994450 0.000000 0.000000 0.000000
0.888743 0.221633 1.021389 0.000000 0.000000 0.000000
0.883184 0.101662 0.993432 0.000000 0.000000 0.000000
0.888978 0.205558 1.018726 0.000000 0.000000 0.000000
0.884828 0.190741 1.006620 0.000000 0.000000 0.000000
0.885906 0.102598 0.999425 0.000000 0.000000 0.000000
0.890916 0.186577 1.004959 0.000000 0.000000 0.000000
0.897132 0.172271 1.019995 0.000000 0.000000 0.000000
0.883125 0.202265 1.019824 0.000000 0.000000 0.000000
0.898838 0.160700 1.012552 0.000000 0.000000 0.000000
0.887141 0.157239 1.009405 0.000000 0.000000 0.000000
0.903396 0.174202 1.016454 0.000000 0.000000 0.000000
0.885774 0.141342 1.008364 0.000000 0.000000 0.000000
0.912020 0.260313 1.030337 0.000000 0.000000 0.000000
0.909798 0.264399 1.020990 0.000000 0.000000 0.000000
0.912281 0.261788 1.032881 0.000000 0.000000 0.000000
0.910519 0.267152 1.027490 0.000000 0.000000 0.000000
0.923554 0.276520 1.019112 0.000000 0.000000 0.000000
0.914667 0.280159 1.021373 0.000000 0.000000 0.000000
0.914788 0.259979 1.031570 0.000000 0.000000 0.000000
0.910498 0.274404 1.022106 0.000000 0.000000 0.000000
0.922354 0.267102 1.024842 0.000000 0.000000 0.000000
0.913065 0.257322 1.032942 0.000000 0.000000 0.000000
0.917140 0.266293 1.022705 0.000000 0.000000 0.000000
0.912864 0.264903 1.017061 0.000000 0.000000 0.000000
0.906943 0.269438 1.019838 0.000000 0.000000 0.000000
0.918625 0.266960 1.018736 0.000000 0.000000 0.000000
0.909178 0.259203 1.027117 0.000000 0.000000 0.000000
0.910349 0.260730 1.026691 0.000000 0.000000 0.000000
0.913383 0.268074 1.014772 0.000000 0.000000 0.000000
0.917076 0.274293 1.017355 0.000000 0.000000 0.000000
0.913298 0.274672 1.019592 0.000000 0.000000 0.000000
0.913812 0.269587 1.019486 0.000000 0.000000 0.000000
0.909739 0.262154 1.032774 0.000000 0.000000 0.000000
0.913279 0.260272 1.029968 0.000000 0.000000 0.000000
0.893317 0.207721 1.024801 0.000000 0.000000 0.000000
0.908944 0.254300 1.030765 0.000000 0.000000 0.000000
0.911356 0.263721 1.025439 0.000000 0.000000 0.000000
0.881201 0.181836 0.973351 0.000000 0.000000 0.000000
0.910627 0.262123 1.029404 0.000000 0.000000 0.000000
0.885827 0.140460 1.009169 0.000000 0.000000 0.000000
0.892890 0.224445 1.026132 0.000000 0.000000 0.000000
0.889236 0.205264 1.017742 0.000000 0.000000 0.000000
0.906717 0.200633 1.026796 0.000000 0.000000 0.000000
0.888396 0.204916 1.018001 0.000000 0.000000 0.000000
0.885383 0.189476 1.019320 0.000000 0.000000 0.000000
0.885845 0.237452 1.021559 0.000000 0.000000 0.000000
0.910574 0.226126 1.014454 0.000000 0.000000 0.000000
0.892060 0.186473 1.014098 0.000000 0.000000 0.000000
0.917399 0.277262 1.014596 0.000000 0.000000 0.000000
0.894191 0.212621 1.028169 0.000000 0.000000 0.000000
0.897122 0.200707 1.013143 0.000000 0.000000 0.000000
0.914438 0.227568 1.013271 0.000000 0.000000 0.000000
0.889800 0.197325 1.018825 0.000000 0.000000 0.000000
0.915184 0.278635 1.017748 0.000000 0.000000 0.000000
0.892511 0.200519 1.026115 0.000000 0.000000 0.000000
0.892083 0.217927 1.019222 0.000000 0.000000 0.000000
0.884394 0.184605 0.993031 0.000000 0.000000 0.000000
0.941182 0.112290 0.974136 0.000000 0.000000 0.000000
0.938581 0.111715 0.979395 0.000000 0.000000 0.000000
0.927340 0.099087 0.983609 0.000000 0.000000 0.000000
0.896959 0.228156 1.026523 0.000000 0.000000 0.000000
0.926491 0.115555 0.982315 0.000000 0.000000 0.000000
0.931945 0.113530 0.984455 0.000000 0.000000 0.000000
0.913798 0.134947 1.022183 0.000000 0.000000 0.000000
0.896475 0.235699 1.024981 0.000000 0.000000 0.000000
0.936883 0.109132 0.996215 0.000000 0.000000 0.000000
0.932723 0.093592 0.984415 0.000000 0.000000 0.000000
0.907705 0.130027 1.023097 0.000000 0.000000 0.000000
0.911308 0.282190 1.023287 0.000000 0.000000 0.000000
