ply
format ascii 1.0
comment VCGLIB generated
obj_info Generated by SPFormer!
element vertex 459
property float x
property float y
property float z
property float nx
property float ny
property float nz
end_header
0.310716 0.502178 1.408510 0.000000 0.000000 0.000000
0.306428 0.510480 1.392964 0.000000 0.000000 0.000000
0.263428 0.535281 1.385365 0.000000 0.000000 0.000000
0.257144 0.550852 1.420153 0.000000 0.000000 0.000000
0.251462 0.547475 1.427025 0.000000 0.000000 0.000000
0.282500 0.518868 1.383293 0.000000 0.000000 0.000000
0.250055 0.545365 1.435445 0.000000 0.000000 0.000000
0.266331 0.543161 1.437020 0.000000 0.000000 0.000000
0.239666 0.546747 1.428868 0.000000 0.000000 0.000000
0.239290 0.551285 1.424877 0.000000 0.000000 0.000000
0.298310 0.514087 1.383444 0.000000 0.000000 0.000000
0.248985 0.545826 1.435784 0.000000 0.000000 0.000000
0.251706 0.547010 1.429617 0.000000 0.000000 0.000000
0.277601 0.521442 1.394633 0.000000 0.000000 0.000000
0.318699 0.503411 1.386589 0.000000 0.000000 0.000000
0.242106 0.549996 1.429235 0.000000 0.000000 0.000000
0.313345 0.500759 1.407564 0.000000 0.000000 0.000000
0.310629 0.502245 1.389437 0.000000 0.000000 0.000000
0.246243 0.548459 1.425833 0.000000 0.000000 0.000000
0.318455 0.502016 1.400006 0.000000 0.000000 0.000000
0.318177 0.499342 1.387159 0.000000 0.000000 0.000000
0.290198 0.511285 1.390019 0.000000 0.000000 0.000000
0.280680 0.520076 1.386434 0.000000 0.000000 0.000000
0.250332 0.547074 1.433571 0.000000 0.000000 0.000000
0.277901 0.544313 1.435652 0.000000 0.000000 0.000000
0.318122 0.501365 1.397753 0.000000 0.000000 0.000000
0.314272 0.506435 1.380024 0.000000 0.000000 0.000000
0.302301 0.505115 1.394003 0.000000 0.000000 0.000000
0.286552 0.511696 1.389810 0.000000 0.000000 0.000000
0.266853 0.542656 1.433642 0.000000 0.000000 0.000000
0.274702 0.523619 1.390764 0.000000 0.000000 0.000000
0.318663 0.519213 1.388427 0.000000 0.000000 0.000000
0.289165 0.509290 1.391957 0.000000 0.000000 0.000000
0.252394 0.547289 1.434750 0.000000 0.000000 0.000000
0.277111 0.517924 1.391721 0.000000 0.000000 0.000000
0.270466 0.544347 1.426467 0.000000 0.000000 0.000000
0.314751 0.508722 1.398514 0.000000 0.000000 0.000000
0.298570 0.499309 1.384786 0.000000 0.000000 0.000000
0.310455 0.510359 1.382703 0.000000 0.000000 0.000000
0.300887 0.518596 1.373377 0.000000 0.000000 0.000000
0.304979 0.502856 1.393211 0.000000 0.000000 0.000000
0.261436 0.546258 1.435493 0.000000 0.000000 0.000000
0.255995 0.549415 1.426414 0.000000 0.000000 0.000000
0.274979 0.543414 1.429432 0.000000 0.000000 0.000000
0.278620 0.512618 1.387007 0.000000 0.000000 0.000000
0.255606 0.558608 1.433445 0.000000 0.000000 0.000000
0.251477 0.545728 1.431288 0.000000 0.000000 0.000000
0.244721 0.546195 1.431200 0.000000 0.000000 0.000000
0.290971 0.512130 1.391088 0.000000 0.000000 0.000000
0.296555 0.511638 1.387854 0.000000 0.000000 0.000000
0.252120 0.549995 1.422829 0.000000 0.000000 0.000000
0.264366 0.545442 1.427680 0.000000 0.000000 0.000000
0.260589 0.544374 1.433671 0.000000 0.000000 0.000000
0.284279 0.527112 1.386571 0.000000 0.000000 0.000000
0.244014 0.547337 1.428342 0.000000 0.000000 0.000000
0.243486 0.555207 1.423563 0.000000 0.000000 0.000000
0.264202 0.562303 1.421457 0.000000 0.000000 0.000000
0.261659 0.547513 1.425466 0.000000 0.000000 0.000000
0.284381 0.518389 1.382531 0.000000 0.000000 0.000000
0.263492 0.544722 1.430652 0.000000 0.000000 0.000000
0.276379 0.520016 1.390455 0.000000 0.000000 0.000000
0.269543 0.541952 1.431103 0.000000 0.000000 0.000000
0.281070 0.519392 1.387266 0.000000 0.000000 0.000000
0.271349 0.543835 1.427641 0.000000 0.000000 0.000000
0.256911 0.545460 1.435951 0.000000 0.000000 0.000000
0.276333 0.540993 1.434293 0.000000 0.000000 0.000000
0.260385 0.546439 1.429654 0.000000 0.000000 0.000000
0.282116 0.513421 1.398442 0.000000 0.000000 0.000000
0.246821 0.543443 1.431541 0.000000 0.000000 0.000000
0.259334 0.540591 1.431908 0.000000 0.000000 0.000000
0.264072 0.549472 1.421019 0.000000 0.000000 0.000000
0.265467 0.547573 1.429587 0.000000 0.000000 0.000000
0.296406 0.515805 1.379613 0.000000 0.000000 0.000000
0.310979 0.511939 1.386158 0.000000 0.000000 0.000000
0.247882 0.549670 1.426615 0.000000 0.000000 0.000000
0.273049 0.522601 1.389628 0.000000 0.000000 0.000000
0.273277 0.512457 1.393335 0.000000 0.000000 0.000000
0.274440 0.523568 1.391341 0.000000 0.000000 0.000000
0.307728 0.504799 1.394435 0.000000 0.000000 0.000000
0.258192 0.547730 1.437549 0.000000 0.000000 0.000000
0.281851 0.519282 1.390659 0.000000 0.000000 0.000000
0.272453 0.524497 1.383185 0.000000 0.000000 0.000000
0.246451 0.544294 1.426362 0.000000 0.000000 0.000000
0.289167 0.507315 1.386069 0.000000 0.000000 0.000000
0.288426 0.509665 1.393006 0.000000 0.000000 0.000000
0.301007 0.510054 1.386700 0.000000 0.000000 0.000000
0.273808 0.516820 1.400438 0.000000 0.000000 0.000000
0.275367 0.544210 1.436441 0.000000 0.000000 0.000000
0.310791 0.498345 1.381611 0.000000 0.000000 0.000000
0.297021 0.508135 1.395380 0.000000 0.000000 0.000000
0.299429 0.503016 1.394032 0.000000 0.000000 0.000000
0.278562 0.537882 1.436709 0.000000 0.000000 0.000000
0.273865 0.524951 1.392487 0.000000 0.000000 0.000000
0.295506 0.498223 1.396163 0.000000 0.000000 0.000000
0.230016 0.552216 1.434615 0.000000 0.000000 0.000000
0.233199 0.553142 1.429318 0.000000 0.000000 0.000000
0.297802 0.507830 1.390702 0.000000 0.000000 0.000000
0.263470 0.549059 1.423445 0.000000 0.000000 0.000000
0.312728 0.524116 1.383741 0.000000 0.000000 0.000000
0.303869 0.506800 1.390079 0.000000 0.000000 0.000000
0.296925 0.514584 1.388728 0.000000 0.000000 0.000000
0.284905 0.520114 1.394303 0.000000 0.000000 0.000000
0.313087 0.495865 1.400886 0.000000 0.000000 0.000000
0.238276 0.564492 1.431458 0.000000 0.000000 0.000000
0.311816 0.513497 1.378474 0.000000 0.000000 0.000000
0.249689 0.548147 1.424587 0.000000 0.000000 0.000000
0.245879 0.563635 1.425399 0.000000 0.000000 0.000000
0.247462 0.550776 1.426939 0.000000 0.000000 0.000000
0.287917 0.513711 1.382774 0.000000 0.000000 0.000000
0.316087 0.519842 1.378195 0.000000 0.000000 0.000000
0.233888 0.553720 1.430072 0.000000 0.000000 0.000000
0.269404 0.522817 1.387749 0.000000 0.000000 0.000000
0.279348 0.524348 1.386436 0.000000 0.000000 0.000000
0.242835 0.550444 1.425148 0.000000 0.000000 0.000000
0.238663 0.551361 1.429883 0.000000 0.000000 0.000000
0.288149 0.523148 1.383705 0.000000 0.000000 0.000000
0.273890 0.544667 1.434589 0.000000 0.000000 0.000000
0.257918 0.544262 1.439173 0.000000 0.000000 0.000000
0.277177 0.544751 1.430761 0.000000 0.000000 0.000000
0.255274 0.548854 1.433575 0.000000 0.000000 0.000000
0.244683 0.553778 1.419377 0.000000 0.000000 0.000000
0.256934 0.544216 1.436295 0.000000 0.000000 0.000000
0.263364 0.549211 1.426979 0.000000 0.000000 0.000000
0.271888 0.543472 1.427148 0.000000 0.000000 0.000000
0.253213 0.545725 1.436836 0.000000 0.000000 0.000000
0.258739 0.548224 1.423946 0.000000 0.000000 0.000000
0.295845 0.508274 1.393856 0.000000 0.000000 0.000000
0.242708 0.551947 1.436760 0.000000 0.000000 0.000000
0.230242 0.559712 1.435672 0.000000 0.000000 0.000000
0.246868 0.543574 1.427437 0.000000 0.000000 0.000000
0.233382 0.557777 1.427679 0.000000 0.000000 0.000000
0.238698 0.551812 1.428384 0.000000 0.000000 0.000000
0.269889 0.522956 1.384182 0.000000 0.000000 0.000000
0.234928 0.550529 1.434794 0.000000 0.000000 0.000000
0.305389 0.503534 1.382834 0.000000 0.000000 0.000000
0.235493 0.549399 1.430627 0.000000 0.000000 0.000000
0.255815 0.548716 1.430872 0.000000 0.000000 0.000000
0.302546 0.506686 1.383558 0.000000 0.000000 0.000000
0.273722 0.522595 1.387770 0.000000 0.000000 0.000000
0.297305 0.513436 1.381665 0.000000 0.000000 0.000000
0.293778 0.513823 1.394544 0.000000 0.000000 0.000000
0.234297 0.556218 1.427236 0.000000 0.000000 0.000000
0.234018 0.549346 1.432438 0.000000 0.000000 0.000000
0.308500 0.502644 1.390802 0.000000 0.000000 0.000000
0.296853 0.507105 1.392560 0.000000 0.000000 0.000000
0.300920 0.507292 1.391053 0.000000 0.000000 0.000000
0.270574 0.526034 1.383536 0.000000 0.000000 0.000000
0.293627 0.508380 1.393236 0.000000 0.000000 0.000000
0.308394 0.500458 1.385695 0.000000 0.000000 0.000000
0.248240 0.549027 1.428902 0.000000 0.000000 0.000000
0.279101 0.542637 1.427361 0.000000 0.000000 0.000000
0.279028 0.540011 1.434185 0.000000 0.000000 0.000000
0.239193 0.554007 1.424009 0.000000 0.000000 0.000000
0.232972 0.552483 1.428221 0.000000 0.000000 0.000000
0.242092 0.545979 1.427066 0.000000 0.000000 0.000000
0.240413 0.541792 1.435869 0.000000 0.000000 0.000000
0.230548 0.555451 1.433143 0.000000 0.000000 0.000000
0.296801 0.508478 1.382501 0.000000 0.000000 0.000000
0.249167 0.549401 1.423151 0.000000 0.000000 0.000000
0.234118 0.549065 1.424224 0.000000 0.000000 0.000000
0.248677 0.547616 1.434579 0.000000 0.000000 0.000000
0.236893 0.547174 1.433757 0.000000 0.000000 0.000000
0.234715 0.550159 1.429105 0.000000 0.000000 0.000000
0.282135 0.516558 1.384887 0.000000 0.000000 0.000000
0.300933 0.526903 1.389362 0.000000 0.000000 0.000000
0.243518 0.554613 1.424944 0.000000 0.000000 0.000000
0.301768 0.506505 1.384288 0.000000 0.000000 0.000000
0.248229 0.558480 1.428255 0.000000 0.000000 0.000000
0.280604 0.515985 1.378871 0.000000 0.000000 0.000000
0.306268 0.503946 1.392762 0.000000 0.000000 0.000000
0.295046 0.514413 1.379654 0.000000 0.000000 0.000000
0.311140 0.504706 1.387246 0.000000 0.000000 0.000000
0.287621 0.519393 1.379506 0.000000 0.000000 0.000000
0.240490 0.546416 1.425840 0.000000 0.000000 0.000000
0.264794 0.542658 1.425766 0.000000 0.000000 0.000000
0.271996 0.579286 1.438931 0.000000 0.000000 0.000000
0.253807 0.547651 1.424621 0.000000 0.000000 0.000000
0.249413 0.555664 1.420984 0.000000 0.000000 0.000000
0.278828 0.524981 1.383450 0.000000 0.000000 0.000000
0.235730 0.558218 1.435005 0.000000 0.000000 0.000000
0.230923 0.555797 1.436727 0.000000 0.000000 0.000000
0.234272 0.553472 1.425807 0.000000 0.000000 0.000000
0.229281 0.551134 1.428922 0.000000 0.000000 0.000000
0.289621 0.512795 1.395213 0.000000 0.000000 0.000000
0.244115 0.549999 1.429122 0.000000 0.000000 0.000000
0.235754 0.550944 1.434675 0.000000 0.000000 0.000000
0.274860 0.521833 1.392379 0.000000 0.000000 0.000000
0.283212 0.517877 1.392634 0.000000 0.000000 0.000000
0.280834 0.517479 1.393060 0.000000 0.000000 0.000000
0.284637 0.520486 1.377980 0.000000 0.000000 0.000000
0.285430 0.516508 1.382897 0.000000 0.000000 0.000000
0.276515 0.520293 1.384059 0.000000 0.000000 0.000000
0.274166 0.524275 1.387272 0.000000 0.000000 0.000000
0.272550 0.529441 1.377383 0.000000 0.000000 0.000000
0.273163 0.525880 1.382102 0.000000 0.000000 0.000000
0.270601 0.526471 1.385270 0.000000 0.000000 0.000000
0.239176 0.546932 1.428642 0.000000 0.000000 0.000000
0.287755 0.510066 1.384584 0.000000 0.000000 0.000000
0.278070 0.519854 1.382727 0.000000 0.000000 0.000000
0.246242 0.550278 1.423622 0.000000 0.000000 0.000000
0.281933 0.520388 1.394101 0.000000 0.000000 0.000000
0.244971 0.547237 1.434090 0.000000 0.000000 0.000000
0.264955 0.531131 1.387745 0.000000 0.000000 0.000000
0.290334 0.514181 1.378525 0.000000 0.000000 0.000000
0.262848 0.545824 1.437726 0.000000 0.000000 0.000000
0.270713 0.543220 1.432120 0.000000 0.000000 0.000000
0.241987 0.545674 1.430781 0.000000 0.000000 0.000000
0.252307 0.547926 1.426345 0.000000 0.000000 0.000000
0.271475 0.544467 1.432463 0.000000 0.000000 0.000000
0.245903 0.544285 1.430924 0.000000 0.000000 0.000000
0.264597 0.538867 1.437089 0.000000 0.000000 0.000000
0.279082 0.525490 1.379863 0.000000 0.000000 0.000000
0.283856 0.516925 1.383790 0.000000 0.000000 0.000000
0.276410 0.518223 1.390040 0.000000 0.000000 0.000000
0.306036 0.499682 1.380764 0.000000 0.000000 0.000000
0.301700 0.503548 1.391894 0.000000 0.000000 0.000000
0.276609 0.522948 1.386486 0.000000 0.000000 0.000000
0.274683 0.521563 1.392033 0.000000 0.000000 0.000000
0.282004 0.510618 1.385287 0.000000 0.000000 0.000000
0.293639 0.517528 1.380430 0.000000 0.000000 0.000000
0.294715 0.512031 1.387608 0.000000 0.000000 0.000000
0.248379 0.543877 1.431674 0.000000 0.000000 0.000000
0.311047 0.502417 1.385108 0.000000 0.000000 0.000000
0.250605 0.548799 1.431129 0.000000 0.000000 0.000000
0.279338 0.518041 1.397024 0.000000 0.000000 0.000000
0.241683 0.547683 1.433752 0.000000 0.000000 0.000000
0.260212 0.539724 1.436366 0.000000 0.000000 0.000000
0.232775 0.551940 1.429200 0.000000 0.000000 0.000000
0.272517 0.547890 1.432996 0.000000 0.000000 0.000000
0.281386 0.521249 1.394786 0.000000 0.000000 0.000000
0.266817 0.522250 1.387147 0.000000 0.000000 0.000000
0.265663 0.549290 1.422025 0.000000 0.000000 0.000000
0.279905 0.542080 1.433484 0.000000 0.000000 0.000000
0.308221 0.505995 1.389243 0.000000 0.000000 0.000000
0.249701 0.552026 1.422083 0.000000 0.000000 0.000000
0.283346 0.513598 1.390500 0.000000 0.000000 0.000000
0.245160 0.544278 1.430543 0.000000 0.000000 0.000000
0.271593 0.543221 1.438468 0.000000 0.000000 0.000000
0.277479 0.521046 1.391080 0.000000 0.000000 0.000000
0.262890 0.544965 1.429620 0.000000 0.000000 0.000000
0.266824 0.545835 1.425822 0.000000 0.000000 0.000000
0.270935 0.539016 1.430809 0.000000 0.000000 0.000000
0.269708 0.547666 1.424962 0.000000 0.000000 0.000000
0.295809 0.510864 1.380467 0.000000 0.000000 0.000000
0.285326 0.516135 1.387325 0.000000 0.000000 0.000000
0.269643 0.520507 1.390705 0.000000 0.000000 0.000000
0.310637 0.501084 1.387279 0.000000 0.000000 0.000000
0.280409 0.512247 1.387638 0.000000 0.000000 0.000000
0.268389 0.525212 1.384047 0.000000 0.000000 0.000000
0.250952 0.543345 1.426189 0.000000 0.000000 0.000000
0.318549 0.508417 1.390201 0.000000 0.000000 0.000000
0.270335 0.543828 1.437122 0.000000 0.000000 0.000000
0.269420 0.517738 1.396983 0.000000 0.000000 0.000000
0.264462 0.540696 1.435632 0.000000 0.000000 0.000000
0.285963 0.507159 1.386577 0.000000 0.000000 0.000000
0.239859 0.551257 1.428660 0.000000 0.000000 0.000000
0.233232 0.550473 1.433523 0.000000 0.000000 0.000000
0.301300 0.504761 1.392907 0.000000 0.000000 0.000000
0.227575 0.552302 1.433990 0.000000 0.000000 0.000000
0.232962 0.556480 1.427992 0.000000 0.000000 0.000000
0.275057 0.521939 1.389394 0.000000 0.000000 0.000000
0.276965 0.519723 1.390575 0.000000 0.000000 0.000000
0.276055 0.521710 1.379828 0.000000 0.000000 0.000000
0.278469 0.522728 1.387133 0.000000 0.000000 0.000000
0.282267 0.516001 1.388160 0.000000 0.000000 0.000000
0.293431 0.506352 1.384274 0.000000 0.000000 0.000000
0.294362 0.514547 1.381901 0.000000 0.000000 0.000000
0.303111 0.500531 1.388211 0.000000 0.000000 0.000000
0.282992 0.511236 1.389105 0.000000 0.000000 0.000000
0.312068 0.500414 1.386840 0.000000 0.000000 0.000000
0.310558 0.499594 1.392983 0.000000 0.000000 0.000000
0.303021 0.504682 1.392891 0.000000 0.000000 0.000000
0.278531 0.521422 1.390552 0.000000 0.000000 0.000000
0.257809 0.539437 1.424502 0.000000 0.000000 0.000000
0.295730 0.504744 1.389030 0.000000 0.000000 0.000000
0.300364 0.533273 1.393828 0.000000 0.000000 0.000000
0.271525 0.545229 1.427626 0.000000 0.000000 0.000000
0.307429 0.518701 1.383211 0.000000 0.000000 0.000000
0.268903 0.544999 1.428083 0.000000 0.000000 0.000000
0.278106 0.542583 1.430556 0.000000 0.000000 0.000000
0.295038 0.533964 1.397310 0.000000 0.000000 0.000000
0.277245 0.543391 1.436447 0.000000 0.000000 0.000000
0.267540 0.546221 1.426188 0.000000 0.000000 0.000000
0.318677 0.503308 1.391587 0.000000 0.000000 0.000000
0.265853 0.544389 1.431952 0.000000 0.000000 0.000000
0.318579 0.500088 1.386050 0.000000 0.000000 0.000000
0.299718 0.509871 1.394521 0.000000 0.000000 0.000000
0.319975 0.512707 1.386922 0.000000 0.000000 0.000000
0.316061 0.505107 1.394960 0.000000 0.000000 0.000000
0.316064 0.502738 1.382677 0.000000 0.000000 0.000000
0.268494 0.522988 1.388769 0.000000 0.000000 0.000000
0.319109 0.501646 1.386865 0.000000 0.000000 0.000000
0.275264 0.522735 1.392432 0.000000 0.000000 0.000000
0.270952 0.542568 1.427720 0.000000 0.000000 0.000000
0.286872 0.517543 1.387978 0.000000 0.000000 0.000000
0.307962 0.496610 1.387917 0.000000 0.000000 0.000000
0.298582 0.531692 1.395677 0.000000 0.000000 0.000000
0.265657 0.545649 1.425617 0.000000 0.000000 0.000000
0.315683 0.498455 1.384537 0.000000 0.000000 0.000000
0.299683 0.507151 1.394549 0.000000 0.000000 0.000000
0.313605 0.497228 1.386858 0.000000 0.000000 0.000000
0.299690 0.503856 1.403812 0.000000 0.000000 0.000000
0.271505 0.527239 1.393204 0.000000 0.000000 0.000000
0.316035 0.497828 1.393002 0.000000 0.000000 0.000000
0.309696 0.520351 1.372152 0.000000 0.000000 0.000000
0.300493 0.512349 1.390701 0.000000 0.000000 0.000000
0.310264 0.507524 1.384936 0.000000 0.000000 0.000000
0.266900 0.524406 1.387301 0.000000 0.000000 0.000000
0.279856 0.542280 1.435123 0.000000 0.000000 0.000000
0.318661 0.545992 1.390739 0.000000 0.000000 0.000000
0.292052 0.505785 1.392361 0.000000 0.000000 0.000000
0.288123 0.514773 1.395428 0.000000 0.000000 0.000000
0.293004 0.517914 1.391705 0.000000 0.000000 0.000000
0.285390 0.511036 1.377550 0.000000 0.000000 0.000000
0.279879 0.522022 1.392366 0.000000 0.000000 0.000000
0.294684 0.512993 1.395432 0.000000 0.000000 0.000000
0.294286 0.513143 1.389222 0.000000 0.000000 0.000000
0.290119 0.516055 1.393965 0.000000 0.000000 0.000000
0.302417 0.511326 1.382282 0.000000 0.000000 0.000000
0.307618 0.508241 1.384090 0.000000 0.000000 0.000000
0.240132 0.555291 1.424569 0.000000 0.000000 0.000000
0.270533 0.520000 1.385656 0.000000 0.000000 0.000000
0.286065 0.509618 1.384562 0.000000 0.000000 0.000000
0.275590 0.542564 1.436236 0.000000 0.000000 0.000000
0.281508 0.524347 1.383208 0.000000 0.000000 0.000000
0.281985 0.521696 1.381980 0.000000 0.000000 0.000000
0.276224 0.544850 1.431043 0.000000 0.000000 0.000000
0.266003 0.545811 1.425516 0.000000 0.000000 0.000000
0.264958 0.544115 1.432235 0.000000 0.000000 0.000000
0.271131 0.542124 1.428862 0.000000 0.000000 0.000000
0.256717 0.547809 1.424337 0.000000 0.000000 0.000000
0.274363 0.542093 1.428483 0.000000 0.000000 0.000000
0.302562 0.506937 1.389677 0.000000 0.000000 0.000000
0.300154 0.504616 1.395241 0.000000 0.000000 0.000000
0.266485 0.547488 1.426567 0.000000 0.000000 0.000000
0.305506 0.497163 1.399732 0.000000 0.000000 0.000000
0.302853 0.509632 1.384181 0.000000 0.000000 0.000000
0.316275 0.506311 1.391954 0.000000 0.000000 0.000000
0.273883 0.540639 1.436336 0.000000 0.000000 0.000000
0.294507 0.515282 1.387577 0.000000 0.000000 0.000000
0.296031 0.505848 1.400373 0.000000 0.000000 0.000000
0.242846 0.552830 1.423651 0.000000 0.000000 0.000000
0.243066 0.554322 1.424527 0.000000 0.000000 0.000000
0.270140 0.524304 1.384480 0.000000 0.000000 0.000000
0.280936 0.506069 1.388672 0.000000 0.000000 0.000000
0.242627 0.546975 1.429014 0.000000 0.000000 0.000000
0.227563 0.553433 1.436403 0.000000 0.000000 0.000000
0.232218 0.555700 1.431150 0.000000 0.000000 0.000000
0.230926 0.558969 1.431584 0.000000 0.000000 0.000000
0.236672 0.549940 1.434581 0.000000 0.000000 0.000000
0.230658 0.554589 1.435358 0.000000 0.000000 0.000000
0.279953 0.525001 1.381246 0.000000 0.000000 0.000000
0.268331 0.525810 1.390892 0.000000 0.000000 0.000000
0.279740 0.529508 1.377088 0.000000 0.000000 0.000000
0.275170 0.521313 1.383940 0.000000 0.000000 0.000000
0.269747 0.538995 1.434359 0.000000 0.000000 0.000000
0.232145 0.558032 1.430272 0.000000 0.000000 0.000000
0.274999 0.525836 1.379733 0.000000 0.000000 0.000000
0.295176 0.521989 1.380021 0.000000 0.000000 0.000000
0.270329 0.549631 1.424936 0.000000 0.000000 0.000000
0.278700 0.542548 1.437106 0.000000 0.000000 0.000000
0.302375 0.513346 1.380483 0.000000 0.000000 0.000000
0.265737 0.547127 1.434052 0.000000 0.000000 0.000000
0.291276 0.516686 1.382443 0.000000 0.000000 0.000000
0.279278 0.511979 1.389266 0.000000 0.000000 0.000000
0.270988 0.522529 1.384622 0.000000 0.000000 0.000000
0.268679 0.545621 1.436629 0.000000 0.000000 0.000000
0.273017 0.541184 1.437000 0.000000 0.000000 0.000000
0.249343 0.540331 1.436686 0.000000 0.000000 0.000000
0.275738 0.515680 1.380908 0.000000 0.000000 0.000000
0.270270 0.526457 1.391580 0.000000 0.000000 0.000000
0.277273 0.523401 1.382563 0.000000 0.000000 0.000000
0.271926 0.524949 1.393023 0.000000 0.000000 0.000000
0.284896 0.509159 1.389045 0.000000 0.000000 0.000000
0.265015 0.545093 1.437736 0.000000 0.000000 0.000000
0.313968 0.502824 1.409862 0.000000 0.000000 0.000000
0.229786 0.549987 1.436461 0.000000 0.000000 0.000000
0.231911 0.550069 1.432310 0.000000 0.000000 0.000000
0.233909 0.549589 1.434878 0.000000 0.000000 0.000000
0.315011 0.499516 1.388727 0.000000 0.000000 0.000000
0.319434 0.507819 1.376469 0.000000 0.000000 0.000000
0.272421 0.522907 1.382930 0.000000 0.000000 0.000000
0.300786 0.504786 1.383220 0.000000 0.000000 0.000000
0.308784 0.503990 1.387925 0.000000 0.000000 0.000000
0.319907 0.502541 1.391807 0.000000 0.000000 0.000000
0.319910 0.538071 1.390246 0.000000 0.000000 0.000000
0.274203 0.524401 1.383504 0.000000 0.000000 0.000000
0.243980 0.550974 1.431552 0.000000 0.000000 0.000000
0.309919 0.506600 1.383325 0.000000 0.000000 0.000000
0.248832 0.542537 1.433773 0.000000 0.000000 0.000000
0.307857 0.506556 1.384667 0.000000 0.000000 0.000000
0.231197 0.551442 1.431760 0.000000 0.000000 0.000000
0.267852 0.524247 1.385695 0.000000 0.000000 0.000000
0.264493 0.545691 1.429629 0.000000 0.000000 0.000000
0.279622 0.542061 1.433494 0.000000 0.000000 0.000000
0.268775 0.524925 1.385947 0.000000 0.000000 0.000000
0.300564 0.530480 1.393330 0.000000 0.000000 0.000000
0.277133 0.541842 1.432648 0.000000 0.000000 0.000000
0.265095 0.545523 1.430470 0.000000 0.000000 0.000000
0.318492 0.502637 1.393766 0.000000 0.000000 0.000000
0.273507 0.541333 1.431039 0.000000 0.000000 0.000000
0.312018 0.509454 1.394205 0.000000 0.000000 0.000000
0.310525 0.512265 1.390349 0.000000 0.000000 0.000000
0.303126 0.507657 1.385771 0.000000 0.000000 0.000000
0.279227 0.543233 1.436790 0.000000 0.000000 0.000000
0.271073 0.543038 1.427943 0.000000 0.000000 0.000000
0.290330 0.525672 1.378924 0.000000 0.000000 0.000000
0.268978 0.552916 1.424137 0.000000 0.000000 0.000000
0.274532 0.545300 1.427221 0.000000 0.000000 0.000000
0.308030 0.507084 1.384738 0.000000 0.000000 0.000000
0.301022 0.507389 1.384603 0.000000 0.000000 0.000000
0.284772 0.519249 1.383173 0.000000 0.000000 0.000000
0.315655 0.517484 1.387317 0.000000 0.000000 0.000000
0.319916 0.517800 1.379127 0.000000 0.000000 0.000000
0.262701 0.550247 1.423253 0.000000 0.000000 0.000000
0.264505 0.554158 1.427287 0.000000 0.000000 0.000000
0.272012 0.544232 1.427964 0.000000 0.000000 0.000000
0.293600 0.515409 1.379536 0.000000 0.000000 0.000000
0.272808 0.522656 1.384060 0.000000 0.000000 0.000000
0.234667 0.554044 1.429566 0.000000 0.000000 0.000000
0.274778 0.525871 1.383172 0.000000 0.000000 0.000000
0.305504 0.506224 1.389557 0.000000 0.000000 0.000000
0.234318 0.559631 1.431167 0.000000 0.000000 0.000000
0.299831 0.513485 1.394411 0.000000 0.000000 0.000000
0.319258 0.519652 1.385984 0.000000 0.000000 0.000000
0.247624 0.541771 1.426049 0.000000 0.000000 0.000000
0.246991 0.543954 1.425265 0.000000 0.000000 0.000000
0.270573 0.525136 1.385075 0.000000 0.000000 0.000000
0.250320 0.544056 1.427287 0.000000 0.000000 0.000000
0.267626 0.532791 1.382490 0.000000 0.000000 0.000000
0.269339 0.542016 1.433657 0.000000 0.000000 0.000000
0.269637 0.528459 1.383537 0.000000 0.000000 0.000000
0.316593 0.497974 1.389377 0.000000 0.000000 0.000000
0.305814 0.503401 1.392158 0.000000 0.000000 0.000000
0.303381 0.514393 1.399518 0.000000 0.000000 0.000000
0.311049 0.508047 1.385731 0.000000 0.000000 0.000000
0.271154 0.527433 1.381294 0.000000 0.000000 0.000000
0.266964 0.525904 1.388206 0.000000 0.000000 0.000000
0.303993 0.509488 1.396814 0.000000 0.000000 0.000000
0.272228 0.549734 1.424262 0.000000 0.000000 0.000000
0.280635 0.520136 1.394783 0.000000 0.000000 0.000000
0.257273 0.546695 1.439231 0.000000 0.000000 0.000000
0.249573 0.544301 1.433118 0.000000 0.000000 0.000000
0.317227 0.541840 1.384269 0.000000 0.000000 0.000000
0.235107 0.548526 1.431924 0.000000 0.000000 0.000000
0.275513 0.537429 1.437439 0.000000 0.000000 0.000000
0.255214 0.547888 1.436699 0.000000 0.000000 0.000000
0.269184 0.525082 1.384462 0.000000 0.000000 0.000000
0.272058 0.520535 1.395069 0.000000 0.000000 0.000000
0.284206 0.520930 1.393676 0.000000 0.000000 0.000000
0.303401 0.531049 1.393445 0.000000 0.000000 0.000000
0.271629 0.523016 1.389935 0.000000 0.000000 0.000000
0.266258 0.525275 1.390505 0.000000 0.000000 0.000000
0.227560 0.556410 1.437947 0.000000 0.000000 0.000000
0.317614 0.546977 1.380995 0.000000 0.000000 0.000000
0.316723 0.542987 1.380718 0.000000 0.000000 0.000000
0.318610 0.559086 1.389824 0.000000 0.000000 0.000000
0.319481 0.545156 1.383093 0.000000 0.000000 0.000000
0.319545 0.540078 1.378800 0.000000 0.000000 0.000000
