ply
format ascii 1.0
comment VCGLIB generated
obj_info Generated by SPFormer!
element vertex 534
property float x
property float y
property float z
property float nx
property float ny
property float nz
end_header
1.258663 1.947833 -0.122808 0.000000 0.000000 0.000000
1.264368 1.947224 -0.116088 0.000000 0.000000 0.000000
1.240211 1.915677 -0.112999 0.000000 0.000000 0.000000
1.253158 1.941246 -0.080531 0.000000 0.000000 0.000000
1.269473 1.970344 -0.128815 0.000000 0.000000 0.000000
1.262073 1.920681 -0.103191 0.000000 0.000000 0.000000
1.242751 1.964583 -0.140672 0.000000 0.000000 0.000000
1.255140 1.971108 -0.140931 0.000000 0.000000 0.000000
1.254976 1.961716 -0.136116 0.000000 0.000000 0.000000
1.259871 1.965222 -0.131149 0.000000 0.000000 0.000000
1.255432 1.909990 -0.108407 0.000000 0.000000 0.000000
1.260771 1.929342 -0.130715 0.000000 0.000000 0.000000
1.262321 1.949710 -0.133651 0.000000 0.000000 0.000000
1.262734 1.955458 -0.106867 0.000000 0.000000 0.000000
1.259291 1.913518 -0.122322 0.000000 0.000000 0.000000
1.255080 1.968621 -0.142364 0.000000 0.000000 0.000000
1.263509 1.954719 -0.120100 0.000000 0.000000 0.000000
1.260986 1.952842 -0.103663 0.000000 0.000000 0.000000
1.240746 1.923511 -0.095229 0.000000 0.000000 0.000000
1.252790 1.927547 -0.112103 0.000000 0.000000 0.000000
1.244131 1.909288 -0.088825 0.000000 0.000000 0.000000
1.232665 1.960648 -0.135715 0.000000 0.000000 0.000000
1.260391 1.949793 -0.136424 0.000000 0.000000 0.000000
1.236260 1.954106 -0.127797 0.000000 0.000000 0.000000
1.257149 1.950480 -0.081417 0.000000 0.000000 0.000000
1.242602 1.962523 -0.133855 0.000000 0.000000 0.000000
1.247987 1.961415 -0.130934 0.000000 0.000000 0.000000
1.250469 1.957257 -0.117200 0.000000 0.000000 0.000000
1.244582 1.941827 -0.126114 0.000000 0.000000 0.000000
1.252380 1.936982 -0.112189 0.000000 0.000000 0.000000
1.249997 1.950364 -0.120438 0.000000 0.000000 0.000000
1.243734 1.954479 -0.116704 0.000000 0.000000 0.000000
1.245673 1.924616 -0.119533 0.000000 0.000000 0.000000
1.263327 1.932313 -0.106477 0.000000 0.000000 0.000000
1.261405 1.928443 -0.120411 0.000000 0.000000 0.000000
1.232292 1.966796 -0.144218 0.000000 0.000000 0.000000
1.239141 1.967216 -0.151485 0.000000 0.000000 0.000000
1.238669 1.974121 -0.138115 0.000000 0.000000 0.000000
1.235773 1.968125 -0.150343 0.000000 0.000000 0.000000
1.266692 1.918633 -0.126504 0.000000 0.000000 0.000000
1.266693 1.923208 -0.084557 0.000000 0.000000 0.000000
1.267041 1.929268 -0.133446 0.000000 0.000000 0.000000
1.262387 1.969695 -0.141236 0.000000 0.000000 0.000000
1.263353 1.932981 -0.121094 0.000000 0.000000 0.000000
1.262354 1.932739 -0.092319 0.000000 0.000000 0.000000
1.249788 1.937223 -0.140267 0.000000 0.000000 0.000000
1.242882 1.969305 -0.147016 0.000000 0.000000 0.000000
1.256080 1.951602 -0.126133 0.000000 0.000000 0.000000
1.258633 1.920246 -0.093104 0.000000 0.000000 0.000000
1.264548 1.942203 -0.122869 0.000000 0.000000 0.000000
1.258306 1.929616 -0.082808 0.000000 0.000000 0.000000
1.235601 1.925167 -0.092180 0.000000 0.000000 0.000000
1.262791 1.939139 -0.100102 0.000000 0.000000 0.000000
1.260796 1.947198 -0.097342 0.000000 0.000000 0.000000
1.252977 1.938830 -0.103779 0.000000 0.000000 0.000000
1.259900 1.943203 -0.087497 0.000000 0.000000 0.000000
1.252255 1.948668 -0.135164 0.000000 0.000000 0.000000
1.263150 1.956923 -0.140995 0.000000 0.000000 0.000000
1.263680 1.950380 -0.123336 0.000000 0.000000 0.000000
1.257512 1.943341 -0.132921 0.000000 0.000000 0.000000
1.251099 1.905520 -0.114698 0.000000 0.000000 0.000000
1.264407 1.945064 -0.109921 0.000000 0.000000 0.000000
1.258730 1.911063 -0.108289 0.000000 0.000000 0.000000
1.250174 1.911647 -0.127155 0.000000 0.000000 0.000000
1.260062 1.915171 -0.096770 0.000000 0.000000 0.000000
1.262756 1.924475 -0.117703 0.000000 0.000000 0.000000
1.251200 1.914160 -0.124365 0.000000 0.000000 0.000000
1.258103 1.968574 -0.135327 0.000000 0.000000 0.000000
1.241322 1.961810 -0.154023 0.000000 0.000000 0.000000
1.254732 1.975772 -0.133142 0.000000 0.000000 0.000000
1.261785 1.958215 -0.120437 0.000000 0.000000 0.000000
1.261293 1.958006 -0.132127 0.000000 0.000000 0.000000
1.258503 1.959058 -0.133988 0.000000 0.000000 0.000000
1.265706 1.963629 -0.135349 0.000000 0.000000 0.000000
1.261604 1.956315 -0.136439 0.000000 0.000000 0.000000
1.258817 1.965912 -0.138990 0.000000 0.000000 0.000000
1.251462 1.932918 -0.136245 0.000000 0.000000 0.000000
1.259285 1.935419 -0.129828 0.000000 0.000000 0.000000
1.255946 1.939092 -0.138955 0.000000 0.000000 0.000000
1.260129 1.940345 -0.134041 0.000000 0.000000 0.000000
0.960783 1.622756 -0.000576 0.000000 0.000000 0.000000
0.994213 1.639004 -0.000954 0.000000 0.000000 0.000000
0.169257 2.283040 -0.555704 0.000000 0.000000 0.000000
0.202442 2.285550 -0.558655 0.000000 0.000000 0.000000
0.193038 2.313248 -0.581029 0.000000 0.000000 0.000000
0.198137 2.299655 -0.567029 0.000000 0.000000 0.000000
0.190400 2.294867 -0.574854 0.000000 0.000000 0.000000
0.179188 2.314926 -0.571957 0.000000 0.000000 0.000000
0.206226 2.276410 -0.542765 0.000000 0.000000 0.000000
0.187482 2.275153 -0.559401 0.000000 0.000000 0.000000
0.181260 2.285498 -0.553886 0.000000 0.000000 0.000000
0.179219 2.303566 -0.564110 0.000000 0.000000 0.000000
0.165803 2.287501 -0.556363 0.000000 0.000000 0.000000
0.175492 2.264151 -0.571257 0.000000 0.000000 0.000000
0.201108 2.277285 -0.548408 0.000000 0.000000 0.000000
0.183337 2.261872 -0.573822 0.000000 0.000000 0.000000
0.164667 2.276786 -0.546808 0.000000 0.000000 0.000000
0.170631 2.301241 -0.567509 0.000000 0.000000 0.000000
0.165879 2.264818 -0.574245 0.000000 0.000000 0.000000
0.170235 2.285426 -0.565826 0.000000 0.000000 0.000000
0.239330 2.278131 -0.544044 0.000000 0.000000 0.000000
0.171605 2.276018 -0.567820 0.000000 0.000000 0.000000
0.167702 2.278705 -0.572603 0.000000 0.000000 0.000000
0.231289 2.280309 -0.545272 0.000000 0.000000 0.000000
0.187016 2.300434 -0.571473 0.000000 0.000000 0.000000
0.195414 2.273343 -0.561147 0.000000 0.000000 0.000000
0.227975 2.279580 -0.544217 0.000000 0.000000 0.000000
0.178443 2.299402 -0.568472 0.000000 0.000000 0.000000
0.176884 2.261544 -0.562626 0.000000 0.000000 0.000000
0.164330 2.273256 -0.570410 0.000000 0.000000 0.000000
0.172980 2.271972 -0.573228 0.000000 0.000000 0.000000
0.180649 2.305102 -0.577809 0.000000 0.000000 0.000000
0.204478 2.292739 -0.549409 0.000000 0.000000 0.000000
0.167253 2.269422 -0.572695 0.000000 0.000000 0.000000
0.173352 2.262221 -0.562406 0.000000 0.000000 0.000000
0.168825 2.263792 -0.574513 0.000000 0.000000 0.000000
0.219369 2.278251 -0.547389 0.000000 0.000000 0.000000
0.177717 2.262140 -0.570731 0.000000 0.000000 0.000000
0.188529 2.291991 -0.552247 0.000000 0.000000 0.000000
0.186010 2.275544 -0.565966 0.000000 0.000000 0.000000
0.176763 2.263673 -0.569479 0.000000 0.000000 0.000000
0.163997 2.264276 -0.566433 0.000000 0.000000 0.000000
0.203754 2.275495 -0.555278 0.000000 0.000000 0.000000
0.196805 2.286355 -0.567968 0.000000 0.000000 0.000000
0.188314 2.310892 -0.589775 0.000000 0.000000 0.000000
0.187094 2.283008 -0.557461 0.000000 0.000000 0.000000
0.178838 2.263928 -0.567983 0.000000 0.000000 0.000000
0.176570 2.264127 -0.571168 0.000000 0.000000 0.000000
0.239164 2.271160 -0.539246 0.000000 0.000000 0.000000
0.219896 2.276062 -0.546170 0.000000 0.000000 0.000000
0.197955 2.310354 -0.564234 0.000000 0.000000 0.000000
0.182428 2.264428 -0.567892 0.000000 0.000000 0.000000
0.193397 2.282539 -0.563083 0.000000 0.000000 0.000000
0.162352 2.266393 -0.563256 0.000000 0.000000 0.000000
0.198116 2.298353 -0.569252 0.000000 0.000000 0.000000
0.199685 2.303127 -0.576820 0.000000 0.000000 0.000000
0.173562 2.261912 -0.574005 0.000000 0.000000 0.000000
0.184830 2.270833 -0.552230 0.000000 0.000000 0.000000
0.173581 2.299948 -0.552497 0.000000 0.000000 0.000000
0.168958 2.300893 -0.550581 0.000000 0.000000 0.000000
0.172404 2.273751 -0.550114 0.000000 0.000000 0.000000
0.222065 2.276793 -0.547884 0.000000 0.000000 0.000000
0.169058 2.256100 -0.574914 0.000000 0.000000 0.000000
0.182205 2.274886 -0.552971 0.000000 0.000000 0.000000
0.193568 2.305042 -0.575242 0.000000 0.000000 0.000000
0.191225 2.282306 -0.562852 0.000000 0.000000 0.000000
0.181943 2.265495 -0.571635 0.000000 0.000000 0.000000
0.165488 2.281796 -0.538161 0.000000 0.000000 0.000000
0.190670 2.274138 -0.561068 0.000000 0.000000 0.000000
0.160035 2.282501 -0.567092 0.000000 0.000000 0.000000
0.176382 2.284569 -0.572628 0.000000 0.000000 0.000000
0.204662 2.311892 -0.572578 0.000000 0.000000 0.000000
0.202859 2.329520 -0.570920 0.000000 0.000000 0.000000
0.196158 2.303422 -0.573802 0.000000 0.000000 0.000000
0.197997 2.314444 -0.573868 0.000000 0.000000 0.000000
0.206307 2.283204 -0.546014 0.000000 0.000000 0.000000
0.182529 2.298647 -0.584911 0.000000 0.000000 0.000000
0.205451 2.308677 -0.578265 0.000000 0.000000 0.000000
0.186459 2.300053 -0.575385 0.000000 0.000000 0.000000
0.198827 2.286316 -0.559925 0.000000 0.000000 0.000000
0.185681 2.305013 -0.576654 0.000000 0.000000 0.000000
0.171023 2.261546 -0.574052 0.000000 0.000000 0.000000
0.160647 2.266579 -0.565700 0.000000 0.000000 0.000000
0.165539 2.291653 -0.568021 0.000000 0.000000 0.000000
0.175145 2.304122 -0.556080 0.000000 0.000000 0.000000
0.181792 2.275564 -0.556369 0.000000 0.000000 0.000000
0.200737 2.288023 -0.547925 0.000000 0.000000 0.000000
0.167364 2.289391 -0.572701 0.000000 0.000000 0.000000
0.213640 2.287458 -0.539389 0.000000 0.000000 0.000000
0.196473 2.295812 -0.565325 0.000000 0.000000 0.000000
0.209790 2.273063 -0.557289 0.000000 0.000000 0.000000
0.220926 2.282804 -0.543847 0.000000 0.000000 0.000000
0.188352 2.284359 -0.557098 0.000000 0.000000 0.000000
0.170964 2.305956 -0.580593 0.000000 0.000000 0.000000
0.188673 2.291834 -0.553462 0.000000 0.000000 0.000000
0.170780 2.277216 -0.566349 0.000000 0.000000 0.000000
0.166761 2.271190 -0.565154 0.000000 0.000000 0.000000
0.212449 2.291073 -0.544064 0.000000 0.000000 0.000000
0.207189 2.279680 -0.550117 0.000000 0.000000 0.000000
0.176338 2.290039 -0.551729 0.000000 0.000000 0.000000
0.224204 2.282950 -0.538735 0.000000 0.000000 0.000000
0.192828 2.311861 -0.582189 0.000000 0.000000 0.000000
0.218189 2.279566 -0.545679 0.000000 0.000000 0.000000
0.236202 2.276522 -0.541715 0.000000 0.000000 0.000000
0.181402 2.298607 -0.582802 0.000000 0.000000 0.000000
0.165232 2.285377 -0.554122 0.000000 0.000000 0.000000
0.174720 2.291690 -0.557500 0.000000 0.000000 0.000000
0.204688 2.294011 -0.556104 0.000000 0.000000 0.000000
0.201818 2.300536 -0.570457 0.000000 0.000000 0.000000
0.171917 2.304663 -0.556091 0.000000 0.000000 0.000000
0.185118 2.302116 -0.579310 0.000000 0.000000 0.000000
0.196132 2.316019 -0.569382 0.000000 0.000000 0.000000
0.192188 2.305165 -0.571240 0.000000 0.000000 0.000000
0.198438 2.302238 -0.574662 0.000000 0.000000 0.000000
0.166596 2.281986 -0.555913 0.000000 0.000000 0.000000
0.194824 2.308486 -0.570812 0.000000 0.000000 0.000000
0.173582 2.288200 -0.577223 0.000000 0.000000 0.000000
0.173053 2.281640 -0.576116 0.000000 0.000000 0.000000
0.179312 2.286406 -0.572314 0.000000 0.000000 0.000000
0.189126 2.307662 -0.579760 0.000000 0.000000 0.000000
0.179383 2.270168 -0.561860 0.000000 0.000000 0.000000
0.180524 2.264446 -0.569537 0.000000 0.000000 0.000000
0.190094 2.279989 -0.563201 0.000000 0.000000 0.000000
0.188756 2.297112 -0.551706 0.000000 0.000000 0.000000
0.189723 2.278306 -0.567655 0.000000 0.000000 0.000000
0.185174 2.311602 -0.577952 0.000000 0.000000 0.000000
0.190425 2.277809 -0.558100 0.000000 0.000000 0.000000
0.180588 2.272395 -0.573890 0.000000 0.000000 0.000000
0.186741 2.306978 -0.577408 0.000000 0.000000 0.000000
0.161956 2.287060 -0.558658 0.000000 0.000000 0.000000
0.207773 2.304683 -0.568536 0.000000 0.000000 0.000000
0.168308 2.298482 -0.551801 0.000000 0.000000 0.000000
0.182648 2.308855 -0.561532 0.000000 0.000000 0.000000
0.187376 2.278764 -0.574107 0.000000 0.000000 0.000000
0.180862 2.310248 -0.576638 0.000000 0.000000 0.000000
0.193350 2.319111 -0.582304 0.000000 0.000000 0.000000
0.167766 2.258975 -0.575799 0.000000 0.000000 0.000000
0.171666 2.285648 -0.549623 0.000000 0.000000 0.000000
0.188194 2.289806 -0.564570 0.000000 0.000000 0.000000
0.215396 2.285532 -0.551679 0.000000 0.000000 0.000000
0.186659 2.268781 -0.554361 0.000000 0.000000 0.000000
0.200726 2.312700 -0.569965 0.000000 0.000000 0.000000
0.175867 2.292408 -0.547194 0.000000 0.000000 0.000000
0.173735 2.287776 -0.551835 0.000000 0.000000 0.000000
0.174162 2.296035 -0.545914 0.000000 0.000000 0.000000
0.187872 2.290550 -0.545917 0.000000 0.000000 0.000000
0.161265 2.294014 -0.570327 0.000000 0.000000 0.000000
0.168190 2.281349 -0.565468 0.000000 0.000000 0.000000
0.170509 2.285754 -0.549828 0.000000 0.000000 0.000000
0.168813 2.290575 -0.553059 0.000000 0.000000 0.000000
0.165670 2.277177 -0.553841 0.000000 0.000000 0.000000
0.169893 2.301258 -0.550704 0.000000 0.000000 0.000000
0.180677 2.287163 -0.563769 0.000000 0.000000 0.000000
0.198779 2.288616 -0.550067 0.000000 0.000000 0.000000
0.216318 2.276378 -0.549539 0.000000 0.000000 0.000000
0.210356 2.284612 -0.544652 0.000000 0.000000 0.000000
0.204436 2.289060 -0.549411 0.000000 0.000000 0.000000
0.207586 2.284214 -0.547686 0.000000 0.000000 0.000000
0.181238 2.298006 -0.545945 0.000000 0.000000 0.000000
0.202625 2.289788 -0.553637 0.000000 0.000000 0.000000
0.199500 2.296197 -0.556642 0.000000 0.000000 0.000000
0.168706 2.282692 -0.556991 0.000000 0.000000 0.000000
0.196534 2.286041 -0.563301 0.000000 0.000000 0.000000
0.181407 2.275378 -0.551832 0.000000 0.000000 0.000000
0.167061 2.260361 -0.573562 0.000000 0.000000 0.000000
0.174638 2.261657 -0.566601 0.000000 0.000000 0.000000
0.170396 2.262279 -0.571690 0.000000 0.000000 0.000000
0.171253 2.258085 -0.574241 0.000000 0.000000 0.000000
0.168428 2.258785 -0.570790 0.000000 0.000000 0.000000
0.192791 2.309507 -0.579566 0.000000 0.000000 0.000000
0.183909 2.294592 -0.566027 0.000000 0.000000 0.000000
0.185565 2.287535 -0.559110 0.000000 0.000000 0.000000
0.176128 2.272689 -0.567317 0.000000 0.000000 0.000000
0.182610 2.302760 -0.564156 0.000000 0.000000 0.000000
0.176832 2.295242 -0.574485 0.000000 0.000000 0.000000
0.200497 2.302961 -0.564459 0.000000 0.000000 0.000000
0.198360 2.276189 -0.569892 0.000000 0.000000 0.000000
0.192441 2.298112 -0.568329 0.000000 0.000000 0.000000
0.195606 2.286812 -0.558246 0.000000 0.000000 0.000000
0.197953 2.289254 -0.562417 0.000000 0.000000 0.000000
0.218774 2.278862 -0.545307 0.000000 0.000000 0.000000
0.168137 2.260802 -0.572494 0.000000 0.000000 0.000000
0.197570 2.287360 -0.555046 0.000000 0.000000 0.000000
0.172369 2.278877 -0.572267 0.000000 0.000000 0.000000
0.193108 2.286089 -0.555943 0.000000 0.000000 0.000000
0.164655 2.259525 -0.573642 0.000000 0.000000 0.000000
0.174062 2.257410 -0.568103 0.000000 0.000000 0.000000
0.171589 2.265060 -0.572540 0.000000 0.000000 0.000000
0.167473 2.255522 -0.574899 0.000000 0.000000 0.000000
0.188209 2.308402 -0.565005 0.000000 0.000000 0.000000
0.185282 2.294077 -0.556711 0.000000 0.000000 0.000000
0.167844 2.263614 -0.573405 0.000000 0.000000 0.000000
0.203834 2.278675 -0.550675 0.000000 0.000000 0.000000
0.168119 2.262322 -0.573705 0.000000 0.000000 0.000000
0.210527 2.282154 -0.542989 0.000000 0.000000 0.000000
0.170656 2.291183 -0.547909 0.000000 0.000000 0.000000
0.220468 2.284998 -0.547202 0.000000 0.000000 0.000000
0.180807 2.288437 -0.554435 0.000000 0.000000 0.000000
0.185334 2.316786 -0.578233 0.000000 0.000000 0.000000
0.182311 2.301313 -0.580917 0.000000 0.000000 0.000000
0.177640 2.298896 -0.552401 0.000000 0.000000 0.000000
0.181257 2.296274 -0.562521 0.000000 0.000000 0.000000
0.171402 2.295300 -0.555286 0.000000 0.000000 0.000000
0.166226 2.277925 -0.569654 0.000000 0.000000 0.000000
0.185341 2.277407 -0.570255 0.000000 0.000000 0.000000
0.181404 2.293826 -0.579031 0.000000 0.000000 0.000000
0.189710 2.307160 -0.579089 0.000000 0.000000 0.000000
0.174654 2.291641 -0.574927 0.000000 0.000000 0.000000
0.192970 2.300529 -0.572214 0.000000 0.000000 0.000000
0.197963 2.311761 -0.577016 0.000000 0.000000 0.000000
0.163094 2.263054 -0.574705 0.000000 0.000000 0.000000
0.178389 2.267892 -0.569968 0.000000 0.000000 0.000000
0.166600 2.265263 -0.573239 0.000000 0.000000 0.000000
0.179579 2.261532 -0.553320 0.000000 0.000000 0.000000
0.180426 2.273206 -0.563267 0.000000 0.000000 0.000000
0.170488 2.265443 -0.574144 0.000000 0.000000 0.000000
0.174595 2.270921 -0.550901 0.000000 0.000000 0.000000
0.225897 2.279133 -0.533540 0.000000 0.000000 0.000000
0.196896 2.316953 -0.571152 0.000000 0.000000 0.000000
0.196023 2.308882 -0.581326 0.000000 0.000000 0.000000
0.177491 2.265408 -0.562221 0.000000 0.000000 0.000000
0.181397 2.279794 -0.569089 0.000000 0.000000 0.000000
0.183782 2.270962 -0.565226 0.000000 0.000000 0.000000
0.203461 2.309086 -0.576771 0.000000 0.000000 0.000000
0.191504 2.269828 -0.566750 0.000000 0.000000 0.000000
0.191154 2.292699 -0.573077 0.000000 0.000000 0.000000
0.181512 2.269658 -0.564264 0.000000 0.000000 0.000000
0.183032 2.279076 -0.573721 0.000000 0.000000 0.000000
0.223032 2.277558 -0.544637 0.000000 0.000000 0.000000
0.181815 2.267753 -0.553001 0.000000 0.000000 0.000000
0.185708 2.270142 -0.560391 0.000000 0.000000 0.000000
0.187019 2.273328 -0.575812 0.000000 0.000000 0.000000
0.182304 2.269246 -0.570106 0.000000 0.000000 0.000000
0.171840 2.285057 -0.579530 0.000000 0.000000 0.000000
0.171191 2.287696 -0.571718 0.000000 0.000000 0.000000
0.192019 2.290943 -0.572348 0.000000 0.000000 0.000000
0.204113 2.308500 -0.567033 0.000000 0.000000 0.000000
0.180111 2.276950 -0.574490 0.000000 0.000000 0.000000
0.188810 2.291577 -0.571289 0.000000 0.000000 0.000000
0.177397 2.286506 -0.578207 0.000000 0.000000 0.000000
0.193470 2.280486 -0.557903 0.000000 0.000000 0.000000
0.188517 2.285806 -0.572958 0.000000 0.000000 0.000000
0.180457 2.270069 -0.569653 0.000000 0.000000 0.000000
0.175668 2.289503 -0.582348 0.000000 0.000000 0.000000
0.172921 2.293993 -0.573486 0.000000 0.000000 0.000000
0.191361 2.303390 -0.573381 0.000000 0.000000 0.000000
0.170560 2.298905 -0.554719 0.000000 0.000000 0.000000
0.172370 2.291391 -0.567273 0.000000 0.000000 0.000000
0.187374 2.306625 -0.588995 0.000000 0.000000 0.000000
0.199032 2.295202 -0.559717 0.000000 0.000000 0.000000
0.183028 2.283949 -0.576409 0.000000 0.000000 0.000000
0.200259 2.287055 -0.554360 0.000000 0.000000 0.000000
0.236327 2.279585 -0.545205 0.000000 0.000000 0.000000
0.188356 2.274618 -0.559724 0.000000 0.000000 0.000000
0.223711 2.282525 -0.546304 0.000000 0.000000 0.000000
0.168921 2.259274 -0.570978 0.000000 0.000000 0.000000
0.204057 2.320085 -0.566385 0.000000 0.000000 0.000000
0.174493 2.259531 -0.566275 0.000000 0.000000 0.000000
0.211310 2.285417 -0.543621 0.000000 0.000000 0.000000
0.169898 2.267870 -0.569189 0.000000 0.000000 0.000000
0.165516 2.256069 -0.574509 0.000000 0.000000 0.000000
0.172130 2.259576 -0.567757 0.000000 0.000000 0.000000
0.170975 2.275016 -0.567927 0.000000 0.000000 0.000000
0.166102 2.270578 -0.573928 0.000000 0.000000 0.000000
0.226228 2.282939 -0.539905 0.000000 0.000000 0.000000
0.161633 2.269223 -0.569244 0.000000 0.000000 0.000000
0.170779 2.278999 -0.567595 0.000000 0.000000 0.000000
0.179989 2.280712 -0.564345 0.000000 0.000000 0.000000
0.185124 2.298786 -0.550594 0.000000 0.000000 0.000000
0.182146 2.292610 -0.573185 0.000000 0.000000 0.000000
0.165913 2.262614 -0.569497 0.000000 0.000000 0.000000
0.160920 2.270675 -0.566204 0.000000 0.000000 0.000000
0.163369 2.276906 -0.555204 0.000000 0.000000 0.000000
0.173519 2.285859 -0.569789 0.000000 0.000000 0.000000
0.178664 2.293781 -0.581067 0.000000 0.000000 0.000000
0.185846 2.282946 -0.577876 0.000000 0.000000 0.000000
0.186181 2.282254 -0.575102 0.000000 0.000000 0.000000
0.163778 2.283465 -0.554737 0.000000 0.000000 0.000000
0.160560 2.283083 -0.562095 0.000000 0.000000 0.000000
0.165523 2.257635 -0.576367 0.000000 0.000000 0.000000
0.170752 2.273814 -0.550441 0.000000 0.000000 0.000000
0.184627 2.299711 -0.583261 0.000000 0.000000 0.000000
0.165839 2.277220 -0.559589 0.000000 0.000000 0.000000
0.193245 2.306790 -0.583650 0.000000 0.000000 0.000000
0.167753 2.261257 -0.573310 0.000000 0.000000 0.000000
0.199900 2.322422 -0.568578 0.000000 0.000000 0.000000
0.202086 2.309445 -0.571991 0.000000 0.000000 0.000000
0.199697 2.291848 -0.552114 0.000000 0.000000 0.000000
0.181086 2.293287 -0.549230 0.000000 0.000000 0.000000
0.198984 2.299766 -0.560654 0.000000 0.000000 0.000000
0.193343 2.310039 -0.582194 0.000000 0.000000 0.000000
0.196350 2.306952 -0.578022 0.000000 0.000000 0.000000
0.200182 2.289018 -0.544564 0.000000 0.000000 0.000000
0.223601 2.280872 -0.544742 0.000000 0.000000 0.000000
0.198891 2.321308 -0.578272 0.000000 0.000000 0.000000
0.192142 2.307363 -0.583403 0.000000 0.000000 0.000000
0.193210 2.305029 -0.578294 0.000000 0.000000 0.000000
0.198926 2.288357 -0.547740 0.000000 0.000000 0.000000
0.191520 2.313295 -0.588685 0.000000 0.000000 0.000000
0.220734 2.278008 -0.549011 0.000000 0.000000 0.000000
0.204265 2.325837 -0.579261 0.000000 0.000000 0.000000
0.191863 2.308769 -0.583060 0.000000 0.000000 0.000000
0.234059 2.277151 -0.541305 0.000000 0.000000 0.000000
0.162043 2.266536 -0.572942 0.000000 0.000000 0.000000
0.180523 2.285017 -0.561148 0.000000 0.000000 0.000000
0.164556 2.278776 -0.548285 0.000000 0.000000 0.000000
0.196347 2.286039 -0.562004 0.000000 0.000000 0.000000
0.166478 2.295214 -0.558965 0.000000 0.000000 0.000000
0.167590 2.257808 -0.578853 0.000000 0.000000 0.000000
0.207706 2.297006 -0.570247 0.000000 0.000000 0.000000
0.202422 2.295840 -0.565173 0.000000 0.000000 0.000000
0.199344 2.304506 -0.572650 0.000000 0.000000 0.000000
0.166280 2.300529 -0.556531 0.000000 0.000000 0.000000
0.168904 2.304855 -0.557508 0.000000 0.000000 0.000000
0.199398 2.306077 -0.575351 0.000000 0.000000 0.000000
0.179578 2.293376 -0.547802 0.000000 0.000000 0.000000
0.169746 2.296879 -0.547503 0.000000 0.000000 0.000000
0.163014 2.262895 -0.572686 0.000000 0.000000 0.000000
0.180080 2.299763 -0.555450 0.000000 0.000000 0.000000
0.220625 2.283946 -0.539664 0.000000 0.000000 0.000000
0.227237 2.278758 -0.543914 0.000000 0.000000 0.000000
0.179400 2.302093 -0.551023 0.000000 0.000000 0.000000
0.232204 2.278639 -0.540994 0.000000 0.000000 0.000000
0.175119 2.300478 -0.552284 0.000000 0.000000 0.000000
0.220706 2.280888 -0.542208 0.000000 0.000000 0.000000
0.234360 2.279005 -0.540151 0.000000 0.000000 0.000000
0.161101 2.257315 -0.575047 0.000000 0.000000 0.000000
0.173002 2.300122 -0.548020 0.000000 0.000000 0.000000
0.167317 2.299503 -0.552708 0.000000 0.000000 0.000000
0.166217 2.281512 -0.558069 0.000000 0.000000 0.000000
0.182443 2.303748 -0.548619 0.000000 0.000000 0.000000
0.163885 2.265889 -0.572527 0.000000 0.000000 0.000000
0.231398 2.278406 -0.542440 0.000000 0.000000 0.000000
0.193430 2.272239 -0.552669 0.000000 0.000000 0.000000
0.170728 2.288501 -0.555653 0.000000 0.000000 0.000000
0.169377 2.295822 -0.546931 0.000000 0.000000 0.000000
0.164346 2.268749 -0.570178 0.000000 0.000000 0.000000
0.169369 2.294566 -0.551549 0.000000 0.000000 0.000000
0.167042 2.276030 -0.549542 0.000000 0.000000 0.000000
0.182863 2.296188 -0.547577 0.000000 0.000000 0.000000
0.172087 2.289245 -0.562749 0.000000 0.000000 0.000000
0.190078 2.313225 -0.577253 0.000000 0.000000 0.000000
0.183860 2.305882 -0.559934 0.000000 0.000000 0.000000
0.204299 2.308541 -0.574846 0.000000 0.000000 0.000000
0.198420 2.296222 -0.582384 0.000000 0.000000 0.000000
0.179795 2.301382 -0.552382 0.000000 0.000000 0.000000
0.178187 2.292669 -0.554988 0.000000 0.000000 0.000000
0.180104 2.281876 -0.570467 0.000000 0.000000 0.000000
0.190363 2.279471 -0.578677 0.000000 0.000000 0.000000
0.199863 2.321670 -0.578287 0.000000 0.000000 0.000000
0.203969 2.322214 -0.582234 0.000000 0.000000 0.000000
0.178957 2.302390 -0.547616 0.000000 0.000000 0.000000
0.194806 2.302019 -0.577537 0.000000 0.000000 0.000000
0.197136 2.318387 -0.572881 0.000000 0.000000 0.000000
0.184694 2.298857 -0.581422 0.000000 0.000000 0.000000
0.172145 2.291739 -0.549508 0.000000 0.000000 0.000000
0.179913 2.301888 -0.561814 0.000000 0.000000 0.000000
0.189144 2.304580 -0.586331 0.000000 0.000000 0.000000
0.197511 2.315515 -0.579301 0.000000 0.000000 0.000000
0.184445 2.291762 -0.584715 0.000000 0.000000 0.000000
0.181810 2.298335 -0.547644 0.000000 0.000000 0.000000
0.179135 2.270114 -0.569004 0.000000 0.000000 0.000000
0.173191 2.259551 -0.568447 0.000000 0.000000 0.000000
0.175470 2.262646 -0.573251 0.000000 0.000000 0.000000
0.230612 2.277120 -0.543058 0.000000 0.000000 0.000000
0.173356 2.267459 -0.563666 0.000000 0.000000 0.000000
0.171154 2.253868 -0.574387 0.000000 0.000000 0.000000
0.197703 2.283776 -0.569467 0.000000 0.000000 0.000000
0.177477 2.295875 -0.577260 0.000000 0.000000 0.000000
0.168428 2.279622 -0.564203 0.000000 0.000000 0.000000
0.178332 2.263424 -0.563408 0.000000 0.000000 0.000000
0.198192 2.290554 -0.552997 0.000000 0.000000 0.000000
0.228447 2.280385 -0.541812 0.000000 0.000000 0.000000
0.231479 2.277482 -0.539055 0.000000 0.000000 0.000000
0.226625 2.277270 -0.544658 0.000000 0.000000 0.000000
0.232647 2.277298 -0.541046 0.000000 0.000000 0.000000
0.207927 2.326455 -0.583508 0.000000 0.000000 0.000000
0.229025 2.278448 -0.545296 0.000000 0.000000 0.000000
0.176874 2.291035 -0.553105 0.000000 0.000000 0.000000
0.175745 2.298820 -0.556435 0.000000 0.000000 0.000000
0.177701 2.302455 -0.546899 0.000000 0.000000 0.000000
0.171811 2.283692 -0.553663 0.000000 0.000000 0.000000
0.182526 2.300972 -0.553403 0.000000 0.000000 0.000000
0.182931 2.299071 -0.550014 0.000000 0.000000 0.000000
0.175685 2.284204 -0.553153 0.000000 0.000000 0.000000
0.165290 2.284086 -0.560992 0.000000 0.000000 0.000000
0.172776 2.271704 -0.553378 0.000000 0.000000 0.000000
0.161425 2.289064 -0.570020 0.000000 0.000000 0.000000
0.170694 2.287606 -0.562454 0.000000 0.000000 0.000000
0.238090 2.277531 -0.541515 0.000000 0.000000 0.000000
0.168417 2.297320 -0.568943 0.000000 0.000000 0.000000
0.168389 2.275006 -0.563470 0.000000 0.000000 0.000000
0.167315 2.279699 -0.560995 0.000000 0.000000 0.000000
0.174573 2.271221 -0.559559 0.000000 0.000000 0.000000
0.176386 2.270420 -0.550344 0.000000 0.000000 0.000000
0.169240 2.277198 -0.568362 0.000000 0.000000 0.000000
0.172563 2.276673 -0.553858 0.000000 0.000000 0.000000
0.229403 2.274828 -0.550302 0.000000 0.000000 0.000000
0.233604 2.277828 -0.540095 0.000000 0.000000 0.000000
0.232653 2.274803 -0.542100 0.000000 0.000000 0.000000
0.166566 2.278934 -0.551470 0.000000 0.000000 0.000000
0.231611 2.274801 -0.544471 0.000000 0.000000 0.000000
0.224280 2.283601 -0.541417 0.000000 0.000000 0.000000
0.173576 2.293390 -0.556106 0.000000 0.000000 0.000000
0.163555 2.286729 -0.572840 0.000000 0.000000 0.000000
0.163276 2.270809 -0.570283 0.000000 0.000000 0.000000
0.184094 2.274805 -0.558449 0.000000 0.000000 0.000000
0.175750 2.281268 -0.564441 0.000000 0.000000 0.000000
0.224226 2.278123 -0.543993 0.000000 0.000000 0.000000
0.165121 2.288329 -0.565409 0.000000 0.000000 0.000000
0.165001 2.286077 -0.570677 0.000000 0.000000 0.000000
0.168996 2.284997 -0.570986 0.000000 0.000000 0.000000
0.180727 2.267998 -0.558094 0.000000 0.000000 0.000000
0.174985 2.269200 -0.572479 0.000000 0.000000 0.000000
0.229763 2.277381 -0.542828 0.000000 0.000000 0.000000
0.227806 2.282447 -0.541638 0.000000 0.000000 0.000000
0.222009 2.281218 -0.543715 0.000000 0.000000 0.000000
0.205383 2.293338 -0.552957 0.000000 0.000000 0.000000
0.227220 2.278649 -0.542973 0.000000 0.000000 0.000000
0.202069 2.293597 -0.557196 0.000000 0.000000 0.000000
0.223323 2.276246 -0.546648 0.000000 0.000000 0.000000
0.162411 2.277901 -0.558077 0.000000 0.000000 0.000000
0.187630 2.301215 -0.563561 0.000000 0.000000 0.000000
0.164411 2.296646 -0.562474 0.000000 0.000000 0.000000
0.178564 2.294788 -0.555681 0.000000 0.000000 0.000000
0.171112 2.275095 -0.558989 0.000000 0.000000 0.000000
0.165814 2.282216 -0.566486 0.000000 0.000000 0.000000
0.161249 2.283573 -0.563400 0.000000 0.000000 0.000000
0.183514 2.302032 -0.548260 0.000000 0.000000 0.000000
0.201037 2.293607 -0.576244 0.000000 0.000000 0.000000
0.175181 2.289356 -0.563791 0.000000 0.000000 0.000000
0.188738 2.296127 -0.556975 0.000000 0.000000 0.000000
0.180028 2.296664 -0.566087 0.000000 0.000000 0.000000
0.172959 2.264926 -0.572595 0.000000 0.000000 0.000000
0.171053 2.256286 -0.573173 0.000000 0.000000 0.000000
0.170537 2.270882 -0.570590 0.000000 0.000000 0.000000
0.170727 2.260324 -0.572507 0.000000 0.000000 0.000000
0.170872 2.263853 -0.574067 0.000000 0.000000 0.000000
0.168031 2.262499 -0.573489 0.000000 0.000000 0.000000
0.182128 2.268342 -0.568792 0.000000 0.000000 0.000000
0.166264 2.270507 -0.565957 0.000000 0.000000 0.000000
0.173548 2.271012 -0.571718 0.000000 0.000000 0.000000
0.174851 2.265703 -0.573036 0.000000 0.000000 0.000000
0.161573 2.268258 -0.571263 0.000000 0.000000 0.000000
0.183141 2.265333 -0.562773 0.000000 0.000000 0.000000
0.169496 2.269542 -0.571225 0.000000 0.000000 0.000000
0.179955 2.257790 -0.566567 0.000000 0.000000 0.000000
0.160006 2.264951 -0.572294 0.000000 0.000000 0.000000
0.173146 2.262155 -0.575519 0.000000 0.000000 0.000000
0.171138 2.257804 -0.570028 0.000000 0.000000 0.000000
1.249130 1.888507 -0.108138 0.000000 0.000000 0.000000
1.240790 1.884353 -0.092667 0.000000 0.000000 0.000000
1.245745 1.902509 -0.095668 0.000000 0.000000 0.000000
1.242672 1.894756 -0.108523 0.000000 0.000000 0.000000
