ply
format ascii 1.0
comment VCGLIB generated
obj_info Generated by SPFormer!
element vertex 850
property float x
property float y
property float z
property float nx
property float ny
property float nz
end_header
0.264303 1.214349 0.970098 0.000000 0.000000 0.000000
0.283661 1.212363 0.954370 0.000000 0.000000 0.000000
0.276452 1.203532 0.951963 0.000000 0.000000 0.000000
0.296032 1.242177 0.966807 0.000000 0.000000 0.000000
0.262741 1.219151 0.957136 0.000000 0.000000 0.000000
0.237305 1.216146 0.932343 0.000000 0.000000 0.000000
0.259457 1.221573 0.955904 0.000000 0.000000 0.000000
0.272998 1.229347 0.976251 0.000000 0.000000 0.000000
0.293376 1.244230 0.968151 0.000000 0.000000 0.000000
0.253405 1.215361 0.954716 0.000000 0.000000 0.000000
0.245968 1.215903 0.940857 0.000000 0.000000 0.000000
0.224146 1.207291 0.976261 0.000000 0.000000 0.000000
0.230218 1.199412 0.970390 0.000000 0.000000 0.000000
0.230055 1.197678 0.972249 0.000000 0.000000 0.000000
0.318055 1.200613 0.941540 0.000000 0.000000 0.000000
0.282818 1.218757 0.952658 0.000000 0.000000 0.000000
0.319532 1.202828 0.932311 0.000000 0.000000 0.000000
0.267152 1.227679 0.983052 0.000000 0.000000 0.000000
0.287503 1.235685 0.976455 0.000000 0.000000 0.000000
0.317313 1.200284 0.935484 0.000000 0.000000 0.000000
0.298901 1.241939 0.976613 0.000000 0.000000 0.000000
0.288071 1.229570 0.976794 0.000000 0.000000 0.000000
0.289102 1.244572 0.971587 0.000000 0.000000 0.000000
0.208475 1.214957 0.987512 0.000000 0.000000 0.000000
0.239695 1.199020 0.970649 0.000000 0.000000 0.000000
0.222483 1.211936 0.987788 0.000000 0.000000 0.000000
0.280865 1.218110 0.959946 0.000000 0.000000 0.000000
0.282532 1.220801 0.955018 0.000000 0.000000 0.000000
0.289381 1.235911 0.967735 0.000000 0.000000 0.000000
0.275860 1.201128 0.944854 0.000000 0.000000 0.000000
0.277239 1.226073 0.965132 0.000000 0.000000 0.000000
0.289824 1.235904 0.977704 0.000000 0.000000 0.000000
0.219424 1.214256 0.978459 0.000000 0.000000 0.000000
0.219936 1.211624 0.980429 0.000000 0.000000 0.000000
0.213881 1.215046 0.985164 0.000000 0.000000 0.000000
0.215255 1.214252 0.985067 0.000000 0.000000 0.000000
0.251447 1.218776 0.931905 0.000000 0.000000 0.000000
0.260968 1.218564 0.970725 0.000000 0.000000 0.000000
0.236037 1.193385 0.963860 0.000000 0.000000 0.000000
0.233297 1.196592 0.965987 0.000000 0.000000 0.000000
0.247518 1.211363 0.939311 0.000000 0.000000 0.000000
0.268584 1.222480 0.973992 0.000000 0.000000 0.000000
0.268270 1.224675 0.975992 0.000000 0.000000 0.000000
0.240397 1.201597 0.945537 0.000000 0.000000 0.000000
0.285073 1.225602 0.961843 0.000000 0.000000 0.000000
0.225382 1.199119 0.972436 0.000000 0.000000 0.000000
0.292846 1.236485 0.972563 0.000000 0.000000 0.000000
0.228847 1.206707 0.972325 0.000000 0.000000 0.000000
0.226984 1.202790 0.974303 0.000000 0.000000 0.000000
0.235979 1.198286 0.981691 0.000000 0.000000 0.000000
0.244686 1.219533 0.931161 0.000000 0.000000 0.000000
0.311920 1.203141 0.957788 0.000000 0.000000 0.000000
0.272328 1.233712 0.981634 0.000000 0.000000 0.000000
0.215403 1.205439 0.982352 0.000000 0.000000 0.000000
0.249344 1.201590 0.957778 0.000000 0.000000 0.000000
0.275365 1.228855 0.976520 0.000000 0.000000 0.000000
0.257418 1.220625 0.960818 0.000000 0.000000 0.000000
0.292070 1.238454 0.978413 0.000000 0.000000 0.000000
0.233213 1.195237 0.973204 0.000000 0.000000 0.000000
0.299452 1.243074 0.971990 0.000000 0.000000 0.000000
0.290751 1.232692 0.962423 0.000000 0.000000 0.000000
0.213274 1.205176 0.981069 0.000000 0.000000 0.000000
0.239987 1.225870 0.944388 0.000000 0.000000 0.000000
0.267368 1.229741 0.979801 0.000000 0.000000 0.000000
0.266009 1.234488 0.955911 0.000000 0.000000 0.000000
0.251826 1.239363 0.945604 0.000000 0.000000 0.000000
0.374294 1.433861 0.509521 0.000000 0.000000 0.000000
0.277400 1.214918 0.953889 0.000000 0.000000 0.000000
0.382988 1.422693 0.492438 0.000000 0.000000 0.000000
0.263007 1.220884 0.968356 0.000000 0.000000 0.000000
0.235798 1.196036 0.969116 0.000000 0.000000 0.000000
0.235120 1.213474 0.963449 0.000000 0.000000 0.000000
0.270007 1.220570 0.972342 0.000000 0.000000 0.000000
0.296245 1.251006 0.969339 0.000000 0.000000 0.000000
0.220536 1.202424 0.982901 0.000000 0.000000 0.000000
0.294344 1.240301 0.973593 0.000000 0.000000 0.000000
0.245691 1.217849 0.934327 0.000000 0.000000 0.000000
0.213115 1.213999 0.982048 0.000000 0.000000 0.000000
0.219978 1.204589 0.974184 0.000000 0.000000 0.000000
0.383808 1.425533 0.497099 0.000000 0.000000 0.000000
0.382094 1.424032 0.496339 0.000000 0.000000 0.000000
0.384082 1.427542 0.499027 0.000000 0.000000 0.000000
0.290697 1.236623 0.973145 0.000000 0.000000 0.000000
0.242776 1.222406 0.939717 0.000000 0.000000 0.000000
0.267672 1.228129 0.957826 0.000000 0.000000 0.000000
0.245956 1.218281 0.933225 0.000000 0.000000 0.000000
0.242778 1.202109 0.950439 0.000000 0.000000 0.000000
0.260496 1.233784 0.946192 0.000000 0.000000 0.000000
0.292310 1.239943 0.975289 0.000000 0.000000 0.000000
0.217608 1.213290 0.980594 0.000000 0.000000 0.000000
0.377253 1.416566 0.502543 0.000000 0.000000 0.000000
0.236276 1.167305 0.964755 0.000000 0.000000 0.000000
0.377057 1.430701 0.507076 0.000000 0.000000 0.000000
0.292558 1.202340 0.964102 0.000000 0.000000 0.000000
0.222111 1.200363 0.974916 0.000000 0.000000 0.000000
0.222970 1.211655 0.978705 0.000000 0.000000 0.000000
0.282267 1.204127 0.951751 0.000000 0.000000 0.000000
0.232159 1.203121 0.971956 0.000000 0.000000 0.000000
0.219450 1.201462 0.977777 0.000000 0.000000 0.000000
0.298209 1.200450 0.940391 0.000000 0.000000 0.000000
0.305091 1.236928 0.969427 0.000000 0.000000 0.000000
0.387174 1.434011 0.498099 0.000000 0.000000 0.000000
0.381573 1.400041 0.492800 0.000000 0.000000 0.000000
0.282693 1.220434 0.958112 0.000000 0.000000 0.000000
0.274722 1.214227 0.969554 0.000000 0.000000 0.000000
0.398136 1.422423 0.485412 0.000000 0.000000 0.000000
0.282638 1.222249 0.957785 0.000000 0.000000 0.000000
0.389775 1.420364 0.489800 0.000000 0.000000 0.000000
0.391209 1.401612 0.480818 0.000000 0.000000 0.000000
0.266266 1.222044 0.930247 0.000000 0.000000 0.000000
0.229745 1.197190 0.978849 0.000000 0.000000 0.000000
0.384352 1.415292 0.494427 0.000000 0.000000 0.000000
0.251618 1.216684 0.958808 0.000000 0.000000 0.000000
0.379362 1.424502 0.503393 0.000000 0.000000 0.000000
0.287854 1.234590 0.964889 0.000000 0.000000 0.000000
0.387238 1.425182 0.488352 0.000000 0.000000 0.000000
0.229987 1.205253 0.973287 0.000000 0.000000 0.000000
0.228458 1.202333 0.986341 0.000000 0.000000 0.000000
0.281356 1.219565 0.959274 0.000000 0.000000 0.000000
0.223493 1.208555 0.981342 0.000000 0.000000 0.000000
0.372443 1.422793 0.510844 0.000000 0.000000 0.000000
0.386067 1.428567 0.496779 0.000000 0.000000 0.000000
0.239297 1.210143 0.942002 0.000000 0.000000 0.000000
0.254337 1.213188 0.964584 0.000000 0.000000 0.000000
0.282410 1.204395 0.959522 0.000000 0.000000 0.000000
0.236904 1.219045 0.949552 0.000000 0.000000 0.000000
0.278753 1.205532 0.951879 0.000000 0.000000 0.000000
0.303597 1.233811 0.969010 0.000000 0.000000 0.000000
0.261210 1.218791 0.968472 0.000000 0.000000 0.000000
0.300623 1.241470 0.972469 0.000000 0.000000 0.000000
0.308655 1.202258 0.970272 0.000000 0.000000 0.000000
0.225584 1.215005 0.980492 0.000000 0.000000 0.000000
0.214168 1.204552 0.978453 0.000000 0.000000 0.000000
0.268291 1.237288 0.977584 0.000000 0.000000 0.000000
0.384306 1.418717 0.492244 0.000000 0.000000 0.000000
0.265280 1.235704 0.978374 0.000000 0.000000 0.000000
0.290876 1.238829 0.960784 0.000000 0.000000 0.000000
0.232561 1.199998 0.975875 0.000000 0.000000 0.000000
0.270004 1.225979 0.960805 0.000000 0.000000 0.000000
0.300142 1.243949 0.973965 0.000000 0.000000 0.000000
0.215771 1.216468 0.984250 0.000000 0.000000 0.000000
0.213003 1.217879 0.987976 0.000000 0.000000 0.000000
0.279809 1.230490 0.971163 0.000000 0.000000 0.000000
0.319231 1.200975 0.941238 0.000000 0.000000 0.000000
0.288595 1.242020 0.969383 0.000000 0.000000 0.000000
0.272888 1.224839 0.984448 0.000000 0.000000 0.000000
0.257558 1.227737 0.960933 0.000000 0.000000 0.000000
0.273597 1.231285 0.978463 0.000000 0.000000 0.000000
0.296040 1.235527 0.973107 0.000000 0.000000 0.000000
0.225750 1.209717 0.975040 0.000000 0.000000 0.000000
0.297396 1.241596 0.977788 0.000000 0.000000 0.000000
0.218549 1.204935 0.988659 0.000000 0.000000 0.000000
0.285493 1.231945 0.977386 0.000000 0.000000 0.000000
0.233787 1.196116 0.961628 0.000000 0.000000 0.000000
0.281648 1.218067 0.958287 0.000000 0.000000 0.000000
0.214952 1.214476 0.983000 0.000000 0.000000 0.000000
0.210836 1.213786 0.985967 0.000000 0.000000 0.000000
0.279661 1.213267 0.949917 0.000000 0.000000 0.000000
0.230021 1.202879 0.971555 0.000000 0.000000 0.000000
0.294424 1.241054 0.970447 0.000000 0.000000 0.000000
0.269557 1.227530 0.979317 0.000000 0.000000 0.000000
0.263650 1.231784 0.983662 0.000000 0.000000 0.000000
0.246066 1.210688 0.936833 0.000000 0.000000 0.000000
0.270094 1.226544 0.975344 0.000000 0.000000 0.000000
0.241092 1.207611 0.942916 0.000000 0.000000 0.000000
0.210809 1.213046 0.985333 0.000000 0.000000 0.000000
0.378942 1.423867 0.513292 0.000000 0.000000 0.000000
0.383885 1.429531 0.500559 0.000000 0.000000 0.000000
0.255356 1.209111 0.948049 0.000000 0.000000 0.000000
0.239644 1.219605 0.939481 0.000000 0.000000 0.000000
0.226724 1.206220 0.985085 0.000000 0.000000 0.000000
0.297361 1.201590 0.960496 0.000000 0.000000 0.000000
0.225901 1.202230 0.976704 0.000000 0.000000 0.000000
0.396778 1.406196 0.484389 0.000000 0.000000 0.000000
0.263345 1.221729 0.967685 0.000000 0.000000 0.000000
0.231389 1.190053 0.960677 0.000000 0.000000 0.000000
0.261031 1.214145 0.961837 0.000000 0.000000 0.000000
0.303068 1.232220 0.962640 0.000000 0.000000 0.000000
0.229871 1.201409 0.976214 0.000000 0.000000 0.000000
0.315982 1.200824 0.935397 0.000000 0.000000 0.000000
0.212580 1.209904 0.984757 0.000000 0.000000 0.000000
0.384647 1.421662 0.500330 0.000000 0.000000 0.000000
0.287984 1.229757 0.975049 0.000000 0.000000 0.000000
0.299436 1.242029 0.979845 0.000000 0.000000 0.000000
0.378587 1.416785 0.495649 0.000000 0.000000 0.000000
0.265997 1.232652 0.980733 0.000000 0.000000 0.000000
0.313051 1.201556 0.940287 0.000000 0.000000 0.000000
0.294192 1.203084 0.967400 0.000000 0.000000 0.000000
0.378411 1.425739 0.493591 0.000000 0.000000 0.000000
0.386988 1.425998 0.497584 0.000000 0.000000 0.000000
0.319961 1.203181 0.927406 0.000000 0.000000 0.000000
0.250496 1.200001 0.953052 0.000000 0.000000 0.000000
0.228723 1.206733 0.982624 0.000000 0.000000 0.000000
0.381334 1.418481 0.504232 0.000000 0.000000 0.000000
0.379993 1.427030 0.506578 0.000000 0.000000 0.000000
0.388339 1.441238 0.502114 0.000000 0.000000 0.000000
0.277415 1.228896 0.966682 0.000000 0.000000 0.000000
0.301763 1.238224 0.969377 0.000000 0.000000 0.000000
0.256411 1.216791 0.958783 0.000000 0.000000 0.000000
0.235315 1.216068 0.954999 0.000000 0.000000 0.000000
0.385334 1.429748 0.498905 0.000000 0.000000 0.000000
0.392618 1.441334 0.496577 0.000000 0.000000 0.000000
0.240141 1.202337 0.974513 0.000000 0.000000 0.000000
0.210622 1.212990 0.985406 0.000000 0.000000 0.000000
0.385859 1.430472 0.497071 0.000000 0.000000 0.000000
0.311125 1.201776 0.937351 0.000000 0.000000 0.000000
0.238348 1.226702 0.947220 0.000000 0.000000 0.000000
0.297160 1.242784 0.973981 0.000000 0.000000 0.000000
0.300683 1.244963 0.969201 0.000000 0.000000 0.000000
0.241092 1.206467 0.940822 0.000000 0.000000 0.000000
0.264490 1.216858 0.956234 0.000000 0.000000 0.000000
0.302184 1.241453 0.972009 0.000000 0.000000 0.000000
0.287014 1.230750 0.966452 0.000000 0.000000 0.000000
0.226137 1.208555 0.986405 0.000000 0.000000 0.000000
0.240442 1.214771 0.941519 0.000000 0.000000 0.000000
0.265844 1.233917 0.974178 0.000000 0.000000 0.000000
0.303145 1.245629 0.978563 0.000000 0.000000 0.000000
0.386164 1.432814 0.499213 0.000000 0.000000 0.000000
0.298477 1.242247 0.974646 0.000000 0.000000 0.000000
0.236383 1.217935 0.938602 0.000000 0.000000 0.000000
0.260426 1.212302 0.964544 0.000000 0.000000 0.000000
0.266824 1.246489 0.954468 0.000000 0.000000 0.000000
0.277138 1.229928 0.968068 0.000000 0.000000 0.000000
0.235586 1.210433 0.972836 0.000000 0.000000 0.000000
0.230615 1.208523 0.983862 0.000000 0.000000 0.000000
0.299914 1.242771 0.977702 0.000000 0.000000 0.000000
0.284314 1.234201 0.972852 0.000000 0.000000 0.000000
0.224113 1.213932 0.979764 0.000000 0.000000 0.000000
0.225565 1.211711 0.984162 0.000000 0.000000 0.000000
0.231210 1.199618 0.981814 0.000000 0.000000 0.000000
0.242262 1.219025 0.930856 0.000000 0.000000 0.000000
0.386466 1.438821 0.496833 0.000000 0.000000 0.000000
0.237499 1.209764 0.941168 0.000000 0.000000 0.000000
0.213211 1.215352 0.980441 0.000000 0.000000 0.000000
0.298189 1.237083 0.972322 0.000000 0.000000 0.000000
0.300520 1.243384 0.975698 0.000000 0.000000 0.000000
0.216246 1.213077 0.981623 0.000000 0.000000 0.000000
0.245072 1.215623 0.942457 0.000000 0.000000 0.000000
0.209834 1.211733 0.983416 0.000000 0.000000 0.000000
0.317989 1.201098 0.933862 0.000000 0.000000 0.000000
0.381572 1.429882 0.492841 0.000000 0.000000 0.000000
0.227862 1.202192 0.981909 0.000000 0.000000 0.000000
0.265968 1.227462 0.976617 0.000000 0.000000 0.000000
0.204781 1.218586 0.985894 0.000000 0.000000 0.000000
0.278922 1.223504 0.977993 0.000000 0.000000 0.000000
0.276752 1.222104 0.965834 0.000000 0.000000 0.000000
0.299213 1.241272 0.978869 0.000000 0.000000 0.000000
0.291391 1.203188 0.966767 0.000000 0.000000 0.000000
0.300497 1.241708 0.972181 0.000000 0.000000 0.000000
0.288664 1.219167 0.958103 0.000000 0.000000 0.000000
0.281458 1.220400 0.966986 0.000000 0.000000 0.000000
0.378233 1.421976 0.507849 0.000000 0.000000 0.000000
0.224483 1.206491 0.977626 0.000000 0.000000 0.000000
0.264261 1.216015 0.965617 0.000000 0.000000 0.000000
0.381567 1.428140 0.513201 0.000000 0.000000 0.000000
0.274425 1.225976 0.973517 0.000000 0.000000 0.000000
0.314506 1.200124 0.927323 0.000000 0.000000 0.000000
0.285337 1.208889 0.965623 0.000000 0.000000 0.000000
0.366816 1.415487 0.483442 0.000000 0.000000 0.000000
0.245427 1.206986 0.938209 0.000000 0.000000 0.000000
0.284550 1.233623 0.969053 0.000000 0.000000 0.000000
0.254050 1.222315 0.963228 0.000000 0.000000 0.000000
0.387659 1.401715 0.485144 0.000000 0.000000 0.000000
0.230776 1.200915 0.972749 0.000000 0.000000 0.000000
0.255176 1.209257 0.954915 0.000000 0.000000 0.000000
0.236162 1.203379 0.971942 0.000000 0.000000 0.000000
0.266089 1.236550 0.952577 0.000000 0.000000 0.000000
0.286867 1.230245 0.961187 0.000000 0.000000 0.000000
0.285216 1.226597 0.952777 0.000000 0.000000 0.000000
0.212423 1.211530 0.984238 0.000000 0.000000 0.000000
0.294341 1.231771 0.971285 0.000000 0.000000 0.000000
0.258312 1.217153 0.965531 0.000000 0.000000 0.000000
0.272116 1.212655 0.970367 0.000000 0.000000 0.000000
0.270691 1.205746 0.952026 0.000000 0.000000 0.000000
0.265998 1.222367 0.961083 0.000000 0.000000 0.000000
0.274984 1.206407 0.952915 0.000000 0.000000 0.000000
0.376476 1.418689 0.497621 0.000000 0.000000 0.000000
0.300356 1.206133 0.963278 0.000000 0.000000 0.000000
0.294289 1.231621 0.966985 0.000000 0.000000 0.000000
0.207056 1.210614 0.985761 0.000000 0.000000 0.000000
0.275216 1.224115 0.963001 0.000000 0.000000 0.000000
0.282869 1.229938 0.974674 0.000000 0.000000 0.000000
0.384167 1.419602 0.496079 0.000000 0.000000 0.000000
0.393785 1.402314 0.501029 0.000000 0.000000 0.000000
0.288529 1.242269 0.970697 0.000000 0.000000 0.000000
0.289010 1.208060 0.956766 0.000000 0.000000 0.000000
0.234682 1.210416 0.933457 0.000000 0.000000 0.000000
0.212639 1.214132 0.982824 0.000000 0.000000 0.000000
0.244105 1.221773 0.934948 0.000000 0.000000 0.000000
0.271166 1.237481 0.964099 0.000000 0.000000 0.000000
0.391378 1.403059 0.483304 0.000000 0.000000 0.000000
0.264466 1.233503 0.971791 0.000000 0.000000 0.000000
0.279817 1.208408 0.951139 0.000000 0.000000 0.000000
0.391633 1.402767 0.480699 0.000000 0.000000 0.000000
0.267244 1.239742 0.959131 0.000000 0.000000 0.000000
0.294026 1.213461 0.958717 0.000000 0.000000 0.000000
0.271695 1.223860 0.965690 0.000000 0.000000 0.000000
0.382121 1.417630 0.501788 0.000000 0.000000 0.000000
0.236552 1.208297 0.977937 0.000000 0.000000 0.000000
0.276854 1.226532 0.965935 0.000000 0.000000 0.000000
0.273132 1.234653 0.953755 0.000000 0.000000 0.000000
0.274874 1.235711 0.964957 0.000000 0.000000 0.000000
0.274226 1.202749 0.951152 0.000000 0.000000 0.000000
0.263118 1.225088 0.953032 0.000000 0.000000 0.000000
0.246153 1.215449 0.948145 0.000000 0.000000 0.000000
0.241212 1.221347 0.938664 0.000000 0.000000 0.000000
0.267238 1.233975 0.976392 0.000000 0.000000 0.000000
0.231636 1.204638 0.985505 0.000000 0.000000 0.000000
0.379374 1.418464 0.510317 0.000000 0.000000 0.000000
0.247987 1.219294 0.931846 0.000000 0.000000 0.000000
0.382147 1.444881 0.506779 0.000000 0.000000 0.000000
0.243178 1.226546 0.938160 0.000000 0.000000 0.000000
0.259996 1.223074 0.971787 0.000000 0.000000 0.000000
0.302870 1.244607 0.974128 0.000000 0.000000 0.000000
0.269412 1.200983 0.946353 0.000000 0.000000 0.000000
0.279781 1.202975 0.951688 0.000000 0.000000 0.000000
0.384593 1.434167 0.496067 0.000000 0.000000 0.000000
0.234975 1.200817 0.982006 0.000000 0.000000 0.000000
0.239196 1.210008 0.944157 0.000000 0.000000 0.000000
0.385117 1.431313 0.498280 0.000000 0.000000 0.000000
0.270025 1.230208 0.961779 0.000000 0.000000 0.000000
0.281266 1.206672 0.949803 0.000000 0.000000 0.000000
0.293689 1.235883 0.967282 0.000000 0.000000 0.000000
0.236942 1.194910 0.973633 0.000000 0.000000 0.000000
0.238270 1.224719 0.941698 0.000000 0.000000 0.000000
0.221353 1.213063 0.986857 0.000000 0.000000 0.000000
0.291423 1.238085 0.963207 0.000000 0.000000 0.000000
0.292694 1.235767 0.970381 0.000000 0.000000 0.000000
0.217452 1.206163 0.982423 0.000000 0.000000 0.000000
0.300953 1.246774 0.963616 0.000000 0.000000 0.000000
0.214165 1.204197 0.980329 0.000000 0.000000 0.000000
0.238933 1.203653 0.945066 0.000000 0.000000 0.000000
0.213607 1.214558 0.987578 0.000000 0.000000 0.000000
0.250180 1.237632 0.948502 0.000000 0.000000 0.000000
0.221790 1.206902 0.978743 0.000000 0.000000 0.000000
0.379258 1.425937 0.503024 0.000000 0.000000 0.000000
0.288381 1.231489 0.961021 0.000000 0.000000 0.000000
0.294458 1.240736 0.965877 0.000000 0.000000 0.000000
0.286468 1.230838 0.974267 0.000000 0.000000 0.000000
0.239379 1.206181 0.943631 0.000000 0.000000 0.000000
0.382814 1.419608 0.503335 0.000000 0.000000 0.000000
0.292397 1.234400 0.971401 0.000000 0.000000 0.000000
0.258353 1.236245 0.937088 0.000000 0.000000 0.000000
0.267105 1.231021 0.974941 0.000000 0.000000 0.000000
0.243322 1.203035 0.955105 0.000000 0.000000 0.000000
0.247676 1.219935 0.931066 0.000000 0.000000 0.000000
0.374745 1.415142 0.499563 0.000000 0.000000 0.000000
0.240861 1.210369 0.942230 0.000000 0.000000 0.000000
0.272805 1.229177 0.976896 0.000000 0.000000 0.000000
0.271312 1.229397 0.983063 0.000000 0.000000 0.000000
0.247624 1.223826 0.932474 0.000000 0.000000 0.000000
0.257900 1.226370 0.940627 0.000000 0.000000 0.000000
0.273362 1.203268 0.945226 0.000000 0.000000 0.000000
0.264290 1.229815 0.978312 0.000000 0.000000 0.000000
0.390009 1.434004 0.507543 0.000000 0.000000 0.000000
0.265912 1.202984 0.937504 0.000000 0.000000 0.000000
0.293325 1.241478 0.964982 0.000000 0.000000 0.000000
0.217184 1.205649 0.980321 0.000000 0.000000 0.000000
0.282914 1.243528 0.964323 0.000000 0.000000 0.000000
0.218122 1.207851 0.981361 0.000000 0.000000 0.000000
0.220393 1.214329 0.983256 0.000000 0.000000 0.000000
0.217936 1.204590 0.979708 0.000000 0.000000 0.000000
0.286017 1.235882 0.987954 0.000000 0.000000 0.000000
0.387190 1.441128 0.497950 0.000000 0.000000 0.000000
0.227885 1.205271 0.974061 0.000000 0.000000 0.000000
0.211060 1.215751 0.987435 0.000000 0.000000 0.000000
0.386705 1.435833 0.502587 0.000000 0.000000 0.000000
0.390680 1.438287 0.499362 0.000000 0.000000 0.000000
0.241677 1.220401 0.934215 0.000000 0.000000 0.000000
0.378504 1.419353 0.512277 0.000000 0.000000 0.000000
0.376082 1.419118 0.501417 0.000000 0.000000 0.000000
0.212119 1.212965 0.983099 0.000000 0.000000 0.000000
0.239951 1.216739 0.940081 0.000000 0.000000 0.000000
0.389169 1.445465 0.500475 0.000000 0.000000 0.000000
0.299719 1.233273 0.969154 0.000000 0.000000 0.000000
0.267833 1.227300 0.973812 0.000000 0.000000 0.000000
0.251471 1.228546 0.939241 0.000000 0.000000 0.000000
0.227754 1.199518 0.966687 0.000000 0.000000 0.000000
0.305911 1.242190 0.965663 0.000000 0.000000 0.000000
0.376444 1.426579 0.495174 0.000000 0.000000 0.000000
0.374573 1.437625 0.497298 0.000000 0.000000 0.000000
0.269224 1.222762 0.965365 0.000000 0.000000 0.000000
0.384704 1.415287 0.490244 0.000000 0.000000 0.000000
0.279662 1.226603 0.955902 0.000000 0.000000 0.000000
0.262146 1.232065 0.945631 0.000000 0.000000 0.000000
0.278440 1.234748 0.955600 0.000000 0.000000 0.000000
0.264353 1.237147 0.948846 0.000000 0.000000 0.000000
0.212110 1.212734 0.983619 0.000000 0.000000 0.000000
0.311452 1.203683 0.943519 0.000000 0.000000 0.000000
0.279110 1.221158 0.946850 0.000000 0.000000 0.000000
0.279129 1.212430 0.953830 0.000000 0.000000 0.000000
0.224386 1.208141 0.985903 0.000000 0.000000 0.000000
0.218924 1.210750 0.986444 0.000000 0.000000 0.000000
0.392851 1.403191 0.483360 0.000000 0.000000 0.000000
0.319079 1.202677 0.935098 0.000000 0.000000 0.000000
0.224889 1.206263 0.975206 0.000000 0.000000 0.000000
0.226774 1.198883 0.970575 0.000000 0.000000 0.000000
0.383856 1.427269 0.497260 0.000000 0.000000 0.000000
0.387856 1.429436 0.491998 0.000000 0.000000 0.000000
0.304028 1.200548 0.957621 0.000000 0.000000 0.000000
0.383610 1.426348 0.494816 0.000000 0.000000 0.000000
0.380317 1.422085 0.496647 0.000000 0.000000 0.000000
0.397763 1.405674 0.490506 0.000000 0.000000 0.000000
0.383744 1.421082 0.492110 0.000000 0.000000 0.000000
0.269692 1.232081 0.979041 0.000000 0.000000 0.000000
0.215450 1.217118 0.983900 0.000000 0.000000 0.000000
0.269763 1.228879 0.981971 0.000000 0.000000 0.000000
0.223127 1.213968 0.977913 0.000000 0.000000 0.000000
0.227308 1.208914 0.974841 0.000000 0.000000 0.000000
0.256810 1.228361 0.933154 0.000000 0.000000 0.000000
0.206434 1.210789 0.979969 0.000000 0.000000 0.000000
0.213372 1.217822 0.981068 0.000000 0.000000 0.000000
0.210501 1.202784 0.981153 0.000000 0.000000 0.000000
0.224406 1.194664 0.978586 0.000000 0.000000 0.000000
0.390032 1.429165 0.497411 0.000000 0.000000 0.000000
0.260087 1.224036 0.934827 0.000000 0.000000 0.000000
0.252385 1.201897 0.954326 0.000000 0.000000 0.000000
0.238133 1.211728 0.941319 0.000000 0.000000 0.000000
0.298262 1.244074 0.970455 0.000000 0.000000 0.000000
0.306377 1.200302 0.959701 0.000000 0.000000 0.000000
0.235234 1.196316 0.977010 0.000000 0.000000 0.000000
0.226934 1.198147 0.983659 0.000000 0.000000 0.000000
0.274124 1.246515 0.951966 0.000000 0.000000 0.000000
0.228983 1.205905 0.982499 0.000000 0.000000 0.000000
0.245848 1.219234 0.937405 0.000000 0.000000 0.000000
0.388217 1.403801 0.489473 0.000000 0.000000 0.000000
0.236496 1.219532 0.941055 0.000000 0.000000 0.000000
0.392893 1.407888 0.490616 0.000000 0.000000 0.000000
0.380291 1.424919 0.498586 0.000000 0.000000 0.000000
0.296833 1.230052 0.965908 0.000000 0.000000 0.000000
0.390002 1.411157 0.483446 0.000000 0.000000 0.000000
0.223820 1.201105 0.976100 0.000000 0.000000 0.000000
0.395543 1.407044 0.488448 0.000000 0.000000 0.000000
0.245907 1.215379 0.937642 0.000000 0.000000 0.000000
0.294590 1.238444 0.969688 0.000000 0.000000 0.000000
0.382574 1.423153 0.506026 0.000000 0.000000 0.000000
0.384745 1.423417 0.489416 0.000000 0.000000 0.000000
0.279222 1.233986 0.969076 0.000000 0.000000 0.000000
0.396457 1.403072 0.498913 0.000000 0.000000 0.000000
0.298610 1.239638 0.977307 0.000000 0.000000 0.000000
0.289913 1.240519 0.966187 0.000000 0.000000 0.000000
0.211233 1.207328 0.981871 0.000000 0.000000 0.000000
0.302337 1.230533 0.966072 0.000000 0.000000 0.000000
0.210732 1.212741 0.985196 0.000000 0.000000 0.000000
0.208235 1.213214 0.984285 0.000000 0.000000 0.000000
0.302589 1.246081 0.975567 0.000000 0.000000 0.000000
0.208453 1.210792 0.983599 0.000000 0.000000 0.000000
0.382780 1.428880 0.497273 0.000000 0.000000 0.000000
0.214642 1.215189 0.987505 0.000000 0.000000 0.000000
0.380934 1.424832 0.507346 0.000000 0.000000 0.000000
0.297702 1.239692 0.977962 0.000000 0.000000 0.000000
0.243017 1.213092 0.941135 0.000000 0.000000 0.000000
0.380475 1.423633 0.503260 0.000000 0.000000 0.000000
0.208066 1.207655 0.977750 0.000000 0.000000 0.000000
0.298797 1.241053 0.977556 0.000000 0.000000 0.000000
0.263974 1.212440 0.967598 0.000000 0.000000 0.000000
0.260438 1.212338 0.962169 0.000000 0.000000 0.000000
0.389900 1.434583 0.495213 0.000000 0.000000 0.000000
0.236117 1.234831 0.942239 0.000000 0.000000 0.000000
0.230451 1.201342 0.969047 0.000000 0.000000 0.000000
0.282195 1.223618 0.957181 0.000000 0.000000 0.000000
0.389213 1.440192 0.496952 0.000000 0.000000 0.000000
0.388067 1.434737 0.498049 0.000000 0.000000 0.000000
0.211080 1.210890 0.982431 0.000000 0.000000 0.000000
0.289715 1.232934 0.962010 0.000000 0.000000 0.000000
0.221413 1.197558 0.972227 0.000000 0.000000 0.000000
0.281830 1.230872 0.960425 0.000000 0.000000 0.000000
0.219861 1.204128 0.958010 0.000000 0.000000 0.000000
0.262756 1.224267 0.931804 0.000000 0.000000 0.000000
0.286056 1.214450 0.964951 0.000000 0.000000 0.000000
0.238647 1.194136 0.970365 0.000000 0.000000 0.000000
0.287004 1.219408 0.965168 0.000000 0.000000 0.000000
0.216079 1.218486 0.985573 0.000000 0.000000 0.000000
0.268711 1.226017 0.974304 0.000000 0.000000 0.000000
0.223354 1.202393 0.977971 0.000000 0.000000 0.000000
0.275796 1.218460 0.957564 0.000000 0.000000 0.000000
0.275345 1.216723 0.948447 0.000000 0.000000 0.000000
0.276600 1.210933 0.946689 0.000000 0.000000 0.000000
0.305933 1.202000 0.957486 0.000000 0.000000 0.000000
0.214640 1.207181 0.976594 0.000000 0.000000 0.000000
0.211529 1.214425 0.984941 0.000000 0.000000 0.000000
0.214697 1.209226 0.976160 0.000000 0.000000 0.000000
0.373911 1.430106 0.503474 0.000000 0.000000 0.000000
0.384626 1.446260 0.504008 0.000000 0.000000 0.000000
0.257872 1.227627 0.943570 0.000000 0.000000 0.000000
0.239875 1.231373 0.939658 0.000000 0.000000 0.000000
0.229244 1.202723 0.976455 0.000000 0.000000 0.000000
0.246071 1.214723 0.939218 0.000000 0.000000 0.000000
0.215090 1.209027 0.976574 0.000000 0.000000 0.000000
0.368135 1.411024 0.481018 0.000000 0.000000 0.000000
0.374136 1.427224 0.499506 0.000000 0.000000 0.000000
0.382664 1.425338 0.491300 0.000000 0.000000 0.000000
0.396062 1.410808 0.490215 0.000000 0.000000 0.000000
0.273850 1.229683 0.968696 0.000000 0.000000 0.000000
0.306320 1.200559 0.955968 0.000000 0.000000 0.000000
0.379908 1.416279 0.502365 0.000000 0.000000 0.000000
0.384993 1.440814 0.499693 0.000000 0.000000 0.000000
0.389621 1.452142 0.494943 0.000000 0.000000 0.000000
0.387894 1.440324 0.504345 0.000000 0.000000 0.000000
0.389035 1.441078 0.499609 0.000000 0.000000 0.000000
0.237332 1.228506 0.939913 0.000000 0.000000 0.000000
0.256302 1.231656 0.971366 0.000000 0.000000 0.000000
0.386031 1.415914 0.501600 0.000000 0.000000 0.000000
0.254430 1.210148 0.953550 0.000000 0.000000 0.000000
0.239510 1.216629 0.939930 0.000000 0.000000 0.000000
0.254843 1.234114 0.962297 0.000000 0.000000 0.000000
0.380023 1.400124 0.482248 0.000000 0.000000 0.000000
0.377685 1.420201 0.499312 0.000000 0.000000 0.000000
0.250761 1.217156 0.933374 0.000000 0.000000 0.000000
0.304000 1.239682 0.969896 0.000000 0.000000 0.000000
0.281279 1.212951 0.954422 0.000000 0.000000 0.000000
0.318159 1.200472 0.936776 0.000000 0.000000 0.000000
0.382156 1.424294 0.503005 0.000000 0.000000 0.000000
0.225660 1.206017 0.987564 0.000000 0.000000 0.000000
0.254290 1.228048 0.948249 0.000000 0.000000 0.000000
0.215447 1.200089 0.975391 0.000000 0.000000 0.000000
0.216416 1.215074 0.988643 0.000000 0.000000 0.000000
0.269048 1.203584 0.951152 0.000000 0.000000 0.000000
0.243266 1.215950 0.939770 0.000000 0.000000 0.000000
0.224306 1.213692 0.989862 0.000000 0.000000 0.000000
0.253473 1.207542 0.957382 0.000000 0.000000 0.000000
0.249441 1.205117 0.954354 0.000000 0.000000 0.000000
0.278283 1.228682 0.974657 0.000000 0.000000 0.000000
0.284261 1.208739 0.950074 0.000000 0.000000 0.000000
0.259994 1.231237 0.934214 0.000000 0.000000 0.000000
0.248520 1.201559 0.953086 0.000000 0.000000 0.000000
0.393303 1.416964 0.490190 0.000000 0.000000 0.000000
0.258085 1.211042 0.954142 0.000000 0.000000 0.000000
0.261262 1.214290 0.949168 0.000000 0.000000 0.000000
0.288708 1.233652 0.958505 0.000000 0.000000 0.000000
0.261742 1.207789 0.955442 0.000000 0.000000 0.000000
0.295504 1.239303 0.967273 0.000000 0.000000 0.000000
0.216912 1.218426 0.984799 0.000000 0.000000 0.000000
0.247162 1.216085 0.932602 0.000000 0.000000 0.000000
0.299615 1.242016 0.978986 0.000000 0.000000 0.000000
0.242159 1.224073 0.941864 0.000000 0.000000 0.000000
0.221911 1.199627 0.978842 0.000000 0.000000 0.000000
0.245769 1.221176 0.945419 0.000000 0.000000 0.000000
0.220089 1.202317 0.977380 0.000000 0.000000 0.000000
0.292506 1.239294 0.962527 0.000000 0.000000 0.000000
0.387034 1.418333 0.490135 0.000000 0.000000 0.000000
0.260253 1.221318 0.953396 0.000000 0.000000 0.000000
0.272391 1.227445 0.971648 0.000000 0.000000 0.000000
0.390113 1.420503 0.492316 0.000000 0.000000 0.000000
0.259961 1.212036 0.966292 0.000000 0.000000 0.000000
0.289159 1.237381 0.975340 0.000000 0.000000 0.000000
0.283853 1.226306 0.966140 0.000000 0.000000 0.000000
0.264785 1.232364 0.978804 0.000000 0.000000 0.000000
0.383843 1.430891 0.500818 0.000000 0.000000 0.000000
0.297858 1.242934 0.981287 0.000000 0.000000 0.000000
0.294210 1.240603 0.980238 0.000000 0.000000 0.000000
0.271238 1.229448 0.971262 0.000000 0.000000 0.000000
0.304144 1.245891 0.978615 0.000000 0.000000 0.000000
0.302447 1.243061 0.979609 0.000000 0.000000 0.000000
0.268118 1.239822 0.953084 0.000000 0.000000 0.000000
0.264562 1.239145 0.966026 0.000000 0.000000 0.000000
0.371437 1.419144 0.501594 0.000000 0.000000 0.000000
0.377636 1.416423 0.503177 0.000000 0.000000 0.000000
0.386315 1.423249 0.490781 0.000000 0.000000 0.000000
0.388203 1.429386 0.493355 0.000000 0.000000 0.000000
0.385157 1.426775 0.497839 0.000000 0.000000 0.000000
0.384327 1.434912 0.509052 0.000000 0.000000 0.000000
0.291790 1.240924 0.966773 0.000000 0.000000 0.000000
0.298933 1.241489 0.978310 0.000000 0.000000 0.000000
0.381843 1.426619 0.497023 0.000000 0.000000 0.000000
0.293845 1.237389 0.975851 0.000000 0.000000 0.000000
0.298111 1.240360 0.975962 0.000000 0.000000 0.000000
0.381382 1.425998 0.504731 0.000000 0.000000 0.000000
0.268336 1.223305 0.967217 0.000000 0.000000 0.000000
0.261509 1.229701 0.972410 0.000000 0.000000 0.000000
0.271850 1.242325 0.964101 0.000000 0.000000 0.000000
0.382426 1.433257 0.496675 0.000000 0.000000 0.000000
0.385702 1.417594 0.497210 0.000000 0.000000 0.000000
0.269453 1.231613 0.973657 0.000000 0.000000 0.000000
0.276775 1.236872 0.970025 0.000000 0.000000 0.000000
0.268232 1.241310 0.949289 0.000000 0.000000 0.000000
0.381580 1.430331 0.506295 0.000000 0.000000 0.000000
0.259108 1.212545 0.963629 0.000000 0.000000 0.000000
0.254911 1.224408 0.958172 0.000000 0.000000 0.000000
0.257703 1.222723 0.971415 0.000000 0.000000 0.000000
0.268095 1.234451 0.974081 0.000000 0.000000 0.000000
0.393746 1.402345 0.495421 0.000000 0.000000 0.000000
0.245301 1.217873 0.942315 0.000000 0.000000 0.000000
0.292190 1.234665 0.958120 0.000000 0.000000 0.000000
0.212751 1.216836 0.987854 0.000000 0.000000 0.000000
0.212487 1.208461 0.978054 0.000000 0.000000 0.000000
0.219400 1.216544 0.978281 0.000000 0.000000 0.000000
0.258002 1.218344 0.972213 0.000000 0.000000 0.000000
0.268459 1.228563 0.976157 0.000000 0.000000 0.000000
0.259213 1.223605 0.968926 0.000000 0.000000 0.000000
0.263340 1.222822 0.969955 0.000000 0.000000 0.000000
0.273005 1.235669 0.973708 0.000000 0.000000 0.000000
0.392061 1.441145 0.499177 0.000000 0.000000 0.000000
0.241791 1.202014 0.941249 0.000000 0.000000 0.000000
0.285953 1.219996 0.959298 0.000000 0.000000 0.000000
0.242318 1.201701 0.940795 0.000000 0.000000 0.000000
0.299642 1.242480 0.967428 0.000000 0.000000 0.000000
0.289661 1.239649 0.973584 0.000000 0.000000 0.000000
0.377942 1.417488 0.507079 0.000000 0.000000 0.000000
0.251770 1.219761 0.955759 0.000000 0.000000 0.000000
0.272775 1.232635 0.976761 0.000000 0.000000 0.000000
0.287143 1.233623 0.976250 0.000000 0.000000 0.000000
0.287417 1.237960 0.975252 0.000000 0.000000 0.000000
0.381226 1.430352 0.508302 0.000000 0.000000 0.000000
0.268525 1.223823 0.968803 0.000000 0.000000 0.000000
0.373575 1.421707 0.498907 0.000000 0.000000 0.000000
0.303612 1.234043 0.966654 0.000000 0.000000 0.000000
0.285740 1.238560 0.971813 0.000000 0.000000 0.000000
0.260588 1.217151 0.965757 0.000000 0.000000 0.000000
0.234240 1.222697 0.949159 0.000000 0.000000 0.000000
0.231313 1.217049 0.943329 0.000000 0.000000 0.000000
0.268667 1.222319 0.958322 0.000000 0.000000 0.000000
0.219199 1.216878 0.982895 0.000000 0.000000 0.000000
0.273374 1.236412 0.972230 0.000000 0.000000 0.000000
0.243653 1.221751 0.936990 0.000000 0.000000 0.000000
0.236305 1.226715 0.948801 0.000000 0.000000 0.000000
0.245689 1.207852 0.950816 0.000000 0.000000 0.000000
0.276362 1.211915 0.968277 0.000000 0.000000 0.000000
0.242695 1.207521 0.947252 0.000000 0.000000 0.000000
0.239157 1.205366 0.944302 0.000000 0.000000 0.000000
0.243375 1.220782 0.941002 0.000000 0.000000 0.000000
0.240731 1.202227 0.949779 0.000000 0.000000 0.000000
0.221686 1.204865 0.970618 0.000000 0.000000 0.000000
0.237787 1.205805 0.940341 0.000000 0.000000 0.000000
0.235172 1.225776 0.945560 0.000000 0.000000 0.000000
0.286708 1.240245 0.967805 0.000000 0.000000 0.000000
0.229371 1.207812 0.969104 0.000000 0.000000 0.000000
0.229246 1.206358 0.974706 0.000000 0.000000 0.000000
0.262679 1.230663 0.981412 0.000000 0.000000 0.000000
0.288013 1.238806 0.965935 0.000000 0.000000 0.000000
0.290570 1.235411 0.971268 0.000000 0.000000 0.000000
0.287645 1.228778 0.964319 0.000000 0.000000 0.000000
0.306027 1.242824 0.973958 0.000000 0.000000 0.000000
0.263402 1.238912 0.945877 0.000000 0.000000 0.000000
0.216021 1.215235 0.976650 0.000000 0.000000 0.000000
0.300175 1.234456 0.968845 0.000000 0.000000 0.000000
0.296238 1.230975 0.968193 0.000000 0.000000 0.000000
0.285989 1.224437 0.970089 0.000000 0.000000 0.000000
0.290450 1.233261 0.959986 0.000000 0.000000 0.000000
0.267999 1.242769 0.947357 0.000000 0.000000 0.000000
0.217918 1.208361 0.978714 0.000000 0.000000 0.000000
0.270269 1.209326 0.952349 0.000000 0.000000 0.000000
0.281966 1.228487 0.964811 0.000000 0.000000 0.000000
0.228318 1.203824 0.977807 0.000000 0.000000 0.000000
0.272117 1.243139 0.953305 0.000000 0.000000 0.000000
0.287197 1.228432 0.960894 0.000000 0.000000 0.000000
0.295521 1.240053 0.963449 0.000000 0.000000 0.000000
0.283622 1.224557 0.969732 0.000000 0.000000 0.000000
0.229949 1.205482 0.975856 0.000000 0.000000 0.000000
0.268967 1.242864 0.954846 0.000000 0.000000 0.000000
0.300308 1.243531 0.972408 0.000000 0.000000 0.000000
0.290802 1.250781 0.965597 0.000000 0.000000 0.000000
0.374610 1.425465 0.513818 0.000000 0.000000 0.000000
0.274960 1.236509 0.977241 0.000000 0.000000 0.000000
0.217889 1.215418 0.980795 0.000000 0.000000 0.000000
0.256397 1.225863 0.973205 0.000000 0.000000 0.000000
0.379702 1.422325 0.505623 0.000000 0.000000 0.000000
0.302617 1.245603 0.981881 0.000000 0.000000 0.000000
0.300914 1.245430 0.980217 0.000000 0.000000 0.000000
0.247386 1.229656 0.939941 0.000000 0.000000 0.000000
0.261877 1.230165 0.968114 0.000000 0.000000 0.000000
0.299102 1.244908 0.981787 0.000000 0.000000 0.000000
0.216799 1.214177 0.985915 0.000000 0.000000 0.000000
0.300300 1.243111 0.979963 0.000000 0.000000 0.000000
0.303688 1.240776 0.975408 0.000000 0.000000 0.000000
0.221641 1.212901 0.989463 0.000000 0.000000 0.000000
0.301755 1.241780 0.969739 0.000000 0.000000 0.000000
0.220785 1.216220 0.977929 0.000000 0.000000 0.000000
0.296080 1.238554 0.977046 0.000000 0.000000 0.000000
0.219219 1.210448 0.979159 0.000000 0.000000 0.000000
0.237617 1.203490 0.942831 0.000000 0.000000 0.000000
0.268855 1.232744 0.981621 0.000000 0.000000 0.000000
0.259858 1.227081 0.974838 0.000000 0.000000 0.000000
0.270139 1.227853 0.980290 0.000000 0.000000 0.000000
0.210573 1.213469 0.985194 0.000000 0.000000 0.000000
0.238655 1.231246 0.949079 0.000000 0.000000 0.000000
0.269944 1.232103 0.987687 0.000000 0.000000 0.000000
0.227939 1.199275 0.978431 0.000000 0.000000 0.000000
0.287846 1.234253 0.972371 0.000000 0.000000 0.000000
0.226399 1.199255 0.979582 0.000000 0.000000 0.000000
0.301584 1.229610 0.965875 0.000000 0.000000 0.000000
0.295176 1.239578 0.980245 0.000000 0.000000 0.000000
0.301487 1.242751 0.977369 0.000000 0.000000 0.000000
0.269903 1.226921 0.977645 0.000000 0.000000 0.000000
0.296765 1.229881 0.972459 0.000000 0.000000 0.000000
0.284032 1.237675 0.971808 0.000000 0.000000 0.000000
0.285493 1.236768 0.960237 0.000000 0.000000 0.000000
0.288270 1.232624 0.976750 0.000000 0.000000 0.000000
0.268902 1.230790 0.983149 0.000000 0.000000 0.000000
0.289175 1.230916 0.968730 0.000000 0.000000 0.000000
0.289394 1.234532 0.976452 0.000000 0.000000 0.000000
0.267990 1.229373 0.979345 0.000000 0.000000 0.000000
0.283951 1.230236 0.985987 0.000000 0.000000 0.000000
0.275324 1.229781 0.980166 0.000000 0.000000 0.000000
0.299145 1.232938 0.968450 0.000000 0.000000 0.000000
0.223755 1.199562 0.977418 0.000000 0.000000 0.000000
0.382202 1.414702 0.498799 0.000000 0.000000 0.000000
0.297679 1.238741 0.967401 0.000000 0.000000 0.000000
0.378435 1.418103 0.509037 0.000000 0.000000 0.000000
0.293897 1.237023 0.976512 0.000000 0.000000 0.000000
0.291794 1.239374 0.977669 0.000000 0.000000 0.000000
0.297331 1.237104 0.974534 0.000000 0.000000 0.000000
0.305077 1.238760 0.967890 0.000000 0.000000 0.000000
0.266046 1.229479 0.984733 0.000000 0.000000 0.000000
0.267005 1.228823 0.981437 0.000000 0.000000 0.000000
0.217751 1.205615 0.979902 0.000000 0.000000 0.000000
0.265345 1.228405 0.978231 0.000000 0.000000 0.000000
0.262493 1.216379 0.964485 0.000000 0.000000 0.000000
0.272076 1.233945 0.979326 0.000000 0.000000 0.000000
0.223082 1.200320 0.974292 0.000000 0.000000 0.000000
0.258731 1.233920 0.968711 0.000000 0.000000 0.000000
0.388177 1.400837 0.502503 0.000000 0.000000 0.000000
0.284075 1.233011 0.977383 0.000000 0.000000 0.000000
0.315370 1.205014 0.938303 0.000000 0.000000 0.000000
0.230082 1.197549 0.986478 0.000000 0.000000 0.000000
0.227711 1.206320 0.985919 0.000000 0.000000 0.000000
0.388215 1.417255 0.495452 0.000000 0.000000 0.000000
0.216343 1.211771 0.984398 0.000000 0.000000 0.000000
0.244325 1.206908 0.944748 0.000000 0.000000 0.000000
0.387591 1.434072 0.497251 0.000000 0.000000 0.000000
0.247879 1.204193 0.936644 0.000000 0.000000 0.000000
0.223609 1.211028 0.985914 0.000000 0.000000 0.000000
0.221287 1.214358 0.987875 0.000000 0.000000 0.000000
0.218935 1.213581 0.978746 0.000000 0.000000 0.000000
0.299302 1.244286 0.967477 0.000000 0.000000 0.000000
0.393452 1.414741 0.480175 0.000000 0.000000 0.000000
0.203269 1.210994 0.978176 0.000000 0.000000 0.000000
0.260262 1.240723 0.951419 0.000000 0.000000 0.000000
0.296524 1.243817 0.971376 0.000000 0.000000 0.000000
0.302530 1.201405 0.929197 0.000000 0.000000 0.000000
0.241126 1.220423 0.928226 0.000000 0.000000 0.000000
0.289966 1.206883 0.960241 0.000000 0.000000 0.000000
0.236600 1.214660 0.941303 0.000000 0.000000 0.000000
0.283296 1.212222 0.964230 0.000000 0.000000 0.000000
0.284801 1.209528 0.954632 0.000000 0.000000 0.000000
0.380753 1.419396 0.500193 0.000000 0.000000 0.000000
0.292610 1.209304 0.962713 0.000000 0.000000 0.000000
0.239963 1.222430 0.927143 0.000000 0.000000 0.000000
0.273450 1.233343 0.979032 0.000000 0.000000 0.000000
0.225887 1.210452 0.976874 0.000000 0.000000 0.000000
0.266757 1.227642 0.980905 0.000000 0.000000 0.000000
0.281567 1.230730 0.975799 0.000000 0.000000 0.000000
0.299444 1.200307 0.958064 0.000000 0.000000 0.000000
0.227878 1.199122 0.973507 0.000000 0.000000 0.000000
0.214817 1.200181 0.978972 0.000000 0.000000 0.000000
0.230347 1.198380 0.985104 0.000000 0.000000 0.000000
0.275742 1.231165 0.973920 0.000000 0.000000 0.000000
0.217309 1.203602 0.979903 0.000000 0.000000 0.000000
0.228963 1.199741 0.984219 0.000000 0.000000 0.000000
0.287063 1.229138 0.961199 0.000000 0.000000 0.000000
0.251696 1.201589 0.960195 0.000000 0.000000 0.000000
0.211366 1.202834 0.978091 0.000000 0.000000 0.000000
0.266119 1.229075 0.980780 0.000000 0.000000 0.000000
0.233645 1.229166 0.949991 0.000000 0.000000 0.000000
0.263649 1.218706 0.961085 0.000000 0.000000 0.000000
0.241390 1.235279 0.944339 0.000000 0.000000 0.000000
0.260801 1.227280 0.974201 0.000000 0.000000 0.000000
0.268604 1.235198 0.979719 0.000000 0.000000 0.000000
0.266813 1.238164 0.951848 0.000000 0.000000 0.000000
0.268544 1.234553 0.952292 0.000000 0.000000 0.000000
0.239166 1.225867 0.927269 0.000000 0.000000 0.000000
0.257251 1.200911 0.962567 0.000000 0.000000 0.000000
0.255816 1.218865 0.965634 0.000000 0.000000 0.000000
0.286666 1.222570 0.960489 0.000000 0.000000 0.000000
0.257464 1.203257 0.961439 0.000000 0.000000 0.000000
0.232087 1.209987 0.972841 0.000000 0.000000 0.000000
0.236870 1.206255 0.979829 0.000000 0.000000 0.000000
0.209147 1.212241 0.984734 0.000000 0.000000 0.000000
0.219864 1.215255 0.989193 0.000000 0.000000 0.000000
0.246965 1.202371 0.954238 0.000000 0.000000 0.000000
0.395935 1.405879 0.482047 0.000000 0.000000 0.000000
0.232529 1.209259 0.974725 0.000000 0.000000 0.000000
0.230956 1.209149 0.973418 0.000000 0.000000 0.000000
0.308363 1.237339 0.966543 0.000000 0.000000 0.000000
0.385656 1.441297 0.508609 0.000000 0.000000 0.000000
0.268233 1.231303 0.982468 0.000000 0.000000 0.000000
0.298763 1.224840 0.965675 0.000000 0.000000 0.000000
0.267803 1.229508 0.981056 0.000000 0.000000 0.000000
0.291410 1.233450 0.973191 0.000000 0.000000 0.000000
0.388286 1.438522 0.500829 0.000000 0.000000 0.000000
0.234044 1.218240 0.938775 0.000000 0.000000 0.000000
0.250941 1.210158 0.956612 0.000000 0.000000 0.000000
0.277291 1.243602 0.971227 0.000000 0.000000 0.000000
0.244837 1.203047 0.950833 0.000000 0.000000 0.000000
0.299587 1.232963 0.963305 0.000000 0.000000 0.000000
0.266483 1.229497 0.981151 0.000000 0.000000 0.000000
0.290097 1.231737 0.973593 0.000000 0.000000 0.000000
0.293481 1.235998 0.973806 0.000000 0.000000 0.000000
0.393247 1.403834 0.500142 0.000000 0.000000 0.000000
0.257032 1.205747 0.965344 0.000000 0.000000 0.000000
0.247778 1.208879 0.953078 0.000000 0.000000 0.000000
0.243749 1.208798 0.942916 0.000000 0.000000 0.000000
0.237324 1.225009 0.949114 0.000000 0.000000 0.000000
0.304662 1.246534 0.971815 0.000000 0.000000 0.000000
0.205180 1.213189 0.982935 0.000000 0.000000 0.000000
0.276650 1.230439 0.957082 0.000000 0.000000 0.000000
0.315433 1.200299 0.935039 0.000000 0.000000 0.000000
0.245748 1.220801 0.948529 0.000000 0.000000 0.000000
0.303878 1.245338 0.975081 0.000000 0.000000 0.000000
0.305807 1.242401 0.972497 0.000000 0.000000 0.000000
0.266940 1.238326 0.951643 0.000000 0.000000 0.000000
0.381804 1.416193 0.500119 0.000000 0.000000 0.000000
0.231239 1.214273 0.944229 0.000000 0.000000 0.000000
0.305419 1.245327 0.972484 0.000000 0.000000 0.000000
0.250902 1.231297 0.937659 0.000000 0.000000 0.000000
0.283389 1.226708 0.986346 0.000000 0.000000 0.000000
0.276510 1.233497 0.980005 0.000000 0.000000 0.000000
0.244248 1.214971 0.942869 0.000000 0.000000 0.000000
0.241578 1.239140 0.942717 0.000000 0.000000 0.000000
0.279348 1.233086 0.977478 0.000000 0.000000 0.000000
0.245911 1.212994 0.948955 0.000000 0.000000 0.000000
0.252241 1.238165 0.948393 0.000000 0.000000 0.000000
0.283422 1.233058 0.975889 0.000000 0.000000 0.000000
0.248340 1.210151 0.931379 0.000000 0.000000 0.000000
0.312207 1.200333 0.927498 0.000000 0.000000 0.000000
0.302040 1.245741 0.979894 0.000000 0.000000 0.000000
0.300594 1.242630 0.976604 0.000000 0.000000 0.000000
0.303414 1.246510 0.977730 0.000000 0.000000 0.000000
0.388265 1.402198 0.502064 0.000000 0.000000 0.000000
0.287103 1.228560 0.956492 0.000000 0.000000 0.000000
0.231821 1.194043 0.963057 0.000000 0.000000 0.000000
0.391825 1.408993 0.486997 0.000000 0.000000 0.000000
0.389761 1.405037 0.487574 0.000000 0.000000 0.000000
0.391225 1.403710 0.492312 0.000000 0.000000 0.000000
0.250728 1.221524 0.952745 0.000000 0.000000 0.000000
0.228273 1.203058 0.973712 0.000000 0.000000 0.000000
0.385275 1.410379 0.497230 0.000000 0.000000 0.000000
0.247867 1.215970 0.952344 0.000000 0.000000 0.000000
0.231406 1.196745 0.966733 0.000000 0.000000 0.000000
0.254975 1.222797 0.960775 0.000000 0.000000 0.000000
0.301103 1.243211 0.978199 0.000000 0.000000 0.000000
0.299782 1.241500 0.972018 0.000000 0.000000 0.000000
0.226343 1.210579 0.986982 0.000000 0.000000 0.000000
0.303145 1.247061 0.975647 0.000000 0.000000 0.000000
0.303497 1.245836 0.976624 0.000000 0.000000 0.000000
0.377001 1.413681 0.500193 0.000000 0.000000 0.000000
0.301359 1.247852 0.977745 0.000000 0.000000 0.000000
0.302486 1.244584 0.975441 0.000000 0.000000 0.000000
0.293796 1.242462 0.982312 0.000000 0.000000 0.000000
0.379716 1.423053 0.503868 0.000000 0.000000 0.000000
0.262991 1.219797 0.965246 0.000000 0.000000 0.000000
0.380820 1.417091 0.498639 0.000000 0.000000 0.000000
0.255580 1.221423 0.967460 0.000000 0.000000 0.000000
0.206795 1.211696 0.986972 0.000000 0.000000 0.000000
0.259507 1.202452 0.957858 0.000000 0.000000 0.000000
0.244108 1.226448 0.935831 0.000000 0.000000 0.000000
0.305302 1.240176 0.972575 0.000000 0.000000 0.000000
0.240237 1.223636 0.928126 0.000000 0.000000 0.000000
0.269410 1.219921 0.961924 0.000000 0.000000 0.000000
0.264376 1.214423 0.957085 0.000000 0.000000 0.000000
