ply
format ascii 1.0
comment VCGLIB generated
obj_info Generated by SPFormer!
element vertex 460
property float x
property float y
property float z
property float nx
property float ny
property float nz
end_header
0.989752 1.641008 0.025169 0.000000 0.000000 0.000000
1.011087 1.632126 0.046845 0.000000 0.000000 0.000000
0.993509 1.610735 0.016123 0.000000 0.000000 0.000000
1.019205 1.660177 0.026450 0.000000 0.000000 0.000000
1.004241 1.643230 0.019364 0.000000 0.000000 0.000000
1.010292 1.644910 0.038091 0.000000 0.000000 0.000000
0.997845 1.637381 0.011830 0.000000 0.000000 0.000000
1.010326 1.645796 0.033493 0.000000 0.000000 0.000000
0.995117 1.604944 0.042880 0.000000 0.000000 0.000000
1.001105 1.630041 0.027344 0.000000 0.000000 0.000000
1.006318 1.645829 0.007873 0.000000 0.000000 0.000000
1.006868 1.613335 0.048605 0.000000 0.000000 0.000000
0.973892 1.665365 0.059476 0.000000 0.000000 0.000000
1.032473 1.648112 0.041392 0.000000 0.000000 0.000000
0.988860 1.671394 0.052551 0.000000 0.000000 0.000000
0.996473 1.647373 0.010850 0.000000 0.000000 0.000000
0.997118 1.611046 0.038848 0.000000 0.000000 0.000000
1.000453 1.642240 0.037738 0.000000 0.000000 0.000000
1.003919 1.649475 0.035730 0.000000 0.000000 0.000000
0.989372 1.573551 0.064078 0.000000 0.000000 0.000000
0.995398 1.628253 0.018116 0.000000 0.000000 0.000000
1.010052 1.637746 0.022731 0.000000 0.000000 0.000000
0.990932 1.681258 0.041930 0.000000 0.000000 0.000000
0.990209 1.624662 0.004231 0.000000 0.000000 0.000000
1.010544 1.657865 0.055358 0.000000 0.000000 0.000000
1.017675 1.621245 0.046587 0.000000 0.000000 0.000000
0.992653 1.648251 0.004038 0.000000 0.000000 0.000000
0.992225 1.633761 0.013636 0.000000 0.000000 0.000000
0.994364 1.623278 0.025142 0.000000 0.000000 0.000000
0.987469 1.652513 0.074406 0.000000 0.000000 0.000000
1.019905 1.647748 0.055943 0.000000 0.000000 0.000000
1.010172 1.637564 0.041066 0.000000 0.000000 0.000000
0.992646 1.588064 0.043118 0.000000 0.000000 0.000000
0.985555 1.587866 0.061655 0.000000 0.000000 0.000000
0.997638 1.627174 0.019770 0.000000 0.000000 0.000000
0.991692 1.563210 0.055814 0.000000 0.000000 0.000000
0.999197 1.636518 0.000738 0.000000 0.000000 0.000000
0.999378 1.607384 0.040932 0.000000 0.000000 0.000000
0.965785 1.678566 0.034341 0.000000 0.000000 0.000000
0.980060 1.687146 0.048641 0.000000 0.000000 0.000000
1.000494 1.626547 0.017376 0.000000 0.000000 0.000000
1.006543 1.641519 0.062918 0.000000 0.000000 0.000000
0.992038 1.622343 0.031686 0.000000 0.000000 0.000000
1.018284 1.656003 0.066854 0.000000 0.000000 0.000000
1.020021 1.662005 0.054673 0.000000 0.000000 0.000000
0.994864 1.635173 0.000713 0.000000 0.000000 0.000000
0.992252 1.617390 0.021812 0.000000 0.000000 0.000000
0.985654 1.570674 0.060708 0.000000 0.000000 0.000000
0.982000 1.564099 0.067163 0.000000 0.000000 0.000000
1.002934 1.647698 0.041824 0.000000 0.000000 0.000000
0.993137 1.613367 0.028178 0.000000 0.000000 0.000000
0.989699 1.600628 0.062450 0.000000 0.000000 0.000000
0.996338 1.609063 0.045385 0.000000 0.000000 0.000000
0.996366 1.590901 0.052820 0.000000 0.000000 0.000000
1.016840 1.661501 0.028124 0.000000 0.000000 0.000000
0.992246 1.614841 0.055063 0.000000 0.000000 0.000000
1.005773 1.635365 0.070885 0.000000 0.000000 0.000000
1.019583 1.677089 0.043875 0.000000 0.000000 0.000000
1.018255 1.676956 0.041820 0.000000 0.000000 0.000000
1.023299 1.674486 0.047154 0.000000 0.000000 0.000000
1.014150 1.674753 0.030749 0.000000 0.000000 0.000000
1.012756 1.677736 0.023833 0.000000 0.000000 0.000000
1.018239 1.678860 0.037314 0.000000 0.000000 0.000000
0.986075 1.632777 0.003570 0.000000 0.000000 0.000000
0.977406 1.572696 0.062620 0.000000 0.000000 0.000000
1.002613 1.635641 0.016244 0.000000 0.000000 0.000000
0.976381 1.669967 0.070082 0.000000 0.000000 0.000000
1.009680 1.647944 0.042209 0.000000 0.000000 0.000000
1.005798 1.652796 0.034587 0.000000 0.000000 0.000000
0.991308 1.596462 0.055459 0.000000 0.000000 0.000000
0.993797 1.577350 0.057838 0.000000 0.000000 0.000000
1.012132 1.652419 0.048665 0.000000 0.000000 0.000000
0.995734 1.570465 0.055857 0.000000 0.000000 0.000000
1.023236 1.656796 -0.004937 0.000000 0.000000 0.000000
1.006881 1.650661 0.029363 0.000000 0.000000 0.000000
0.988877 1.602205 0.030412 0.000000 0.000000 0.000000
1.021445 1.649303 0.039324 0.000000 0.000000 0.000000
1.021583 1.664274 0.037152 0.000000 0.000000 0.000000
0.965643 1.660921 0.008936 0.000000 0.000000 0.000000
1.023900 1.650734 -0.000786 0.000000 0.000000 0.000000
0.992163 1.584370 0.056819 0.000000 0.000000 0.000000
0.991827 1.602719 0.052125 0.000000 0.000000 0.000000
0.995721 1.597918 0.048685 0.000000 0.000000 0.000000
1.000649 1.625468 0.053215 0.000000 0.000000 0.000000
1.002701 1.644773 0.033617 0.000000 0.000000 0.000000
1.003376 1.613014 0.031648 0.000000 0.000000 0.000000
1.001045 1.610097 0.053143 0.000000 0.000000 0.000000
1.011262 1.617040 0.045423 0.000000 0.000000 0.000000
0.992890 1.594191 0.055479 0.000000 0.000000 0.000000
1.007442 1.619586 0.034781 0.000000 0.000000 0.000000
1.018284 1.673265 0.050730 0.000000 0.000000 0.000000
1.016070 1.671342 0.034751 0.000000 0.000000 0.000000
1.019474 1.673453 0.042288 0.000000 0.000000 0.000000
1.014122 1.676942 0.021762 0.000000 0.000000 0.000000
0.975228 1.671762 0.043179 0.000000 0.000000 0.000000
1.004613 1.639314 0.051746 0.000000 0.000000 0.000000
1.006509 1.622841 0.053313 0.000000 0.000000 0.000000
1.017556 1.637459 0.056982 0.000000 0.000000 0.000000
1.008169 1.633624 0.062926 0.000000 0.000000 0.000000
1.020715 1.677631 0.046806 0.000000 0.000000 0.000000
1.024122 1.663821 0.038676 0.000000 0.000000 0.000000
1.019605 1.673119 0.035306 0.000000 0.000000 0.000000
1.021376 1.667048 0.028084 0.000000 0.000000 0.000000
1.020754 1.651571 0.039584 0.000000 0.000000 0.000000
1.020584 1.671745 0.033754 0.000000 0.000000 0.000000
0.991871 1.647591 0.005946 0.000000 0.000000 0.000000
1.012533 1.676929 0.017033 0.000000 0.000000 0.000000
0.988990 1.579576 0.059194 0.000000 0.000000 0.000000
1.002596 1.640143 0.003509 0.000000 0.000000 0.000000
0.988992 1.591240 0.061024 0.000000 0.000000 0.000000
0.994011 1.633541 0.007786 0.000000 0.000000 0.000000
0.984775 1.587281 0.057918 0.000000 0.000000 0.000000
1.007254 1.640341 0.007500 0.000000 0.000000 0.000000
1.010592 1.653370 0.042906 0.000000 0.000000 0.000000
1.015532 1.671789 0.036725 0.000000 0.000000 0.000000
1.012275 1.649808 0.053301 0.000000 0.000000 0.000000
1.004628 1.634482 0.011227 0.000000 0.000000 0.000000
1.022463 1.664284 0.032541 0.000000 0.000000 0.000000
0.997389 1.605625 0.050329 0.000000 0.000000 0.000000
1.028199 1.655754 0.050377 0.000000 0.000000 0.000000
1.008938 1.648818 0.059104 0.000000 0.000000 0.000000
1.011390 1.643076 0.013850 0.000000 0.000000 0.000000
1.015721 1.647271 0.042387 0.000000 0.000000 0.000000
1.020381 1.666429 0.032268 0.000000 0.000000 0.000000
0.992591 1.598486 0.058826 0.000000 0.000000 0.000000
0.996712 1.581842 0.054081 0.000000 0.000000 0.000000
1.013605 1.655476 0.062480 0.000000 0.000000 0.000000
0.992505 1.566443 0.055500 0.000000 0.000000 0.000000
1.012928 1.622113 0.041903 0.000000 0.000000 0.000000
1.013825 1.645072 0.063557 0.000000 0.000000 0.000000
1.016701 1.612837 0.044150 0.000000 0.000000 0.000000
1.008156 1.635181 0.056608 0.000000 0.000000 0.000000
1.028642 1.635684 0.035986 0.000000 0.000000 0.000000
1.001200 1.634123 0.019154 0.000000 0.000000 0.000000
1.008282 1.652133 0.032562 0.000000 0.000000 0.000000
0.999565 1.634987 0.024172 0.000000 0.000000 0.000000
1.007295 1.644331 0.020250 0.000000 0.000000 0.000000
1.003712 1.650728 0.029477 0.000000 0.000000 0.000000
1.008236 1.649488 0.023827 0.000000 0.000000 0.000000
1.001508 1.644915 0.025480 0.000000 0.000000 0.000000
1.002388 1.640263 0.031288 0.000000 0.000000 0.000000
1.006737 1.621660 0.032322 0.000000 0.000000 0.000000
1.002416 1.621922 0.032939 0.000000 0.000000 0.000000
0.995204 1.612588 0.062812 0.000000 0.000000 0.000000
1.007197 1.629986 0.008224 0.000000 0.000000 0.000000
0.996366 1.644672 0.038821 0.000000 0.000000 0.000000
1.003662 1.631405 0.020812 0.000000 0.000000 0.000000
1.003695 1.655925 0.019986 0.000000 0.000000 0.000000
1.010657 1.652932 0.027155 0.000000 0.000000 0.000000
1.002905 1.649349 0.023784 0.000000 0.000000 0.000000
1.007712 1.643678 0.027110 0.000000 0.000000 0.000000
1.005618 1.619265 0.038716 0.000000 0.000000 0.000000
1.008168 1.627402 0.041486 0.000000 0.000000 0.000000
1.019881 1.677769 0.069799 0.000000 0.000000 0.000000
0.984124 1.603388 0.020830 0.000000 0.000000 0.000000
0.986054 1.608835 0.023422 0.000000 0.000000 0.000000
0.997493 1.640668 0.016341 0.000000 0.000000 0.000000
0.984332 1.674435 0.040064 0.000000 0.000000 0.000000
1.002446 1.644818 0.033674 0.000000 0.000000 0.000000
0.993536 1.614740 0.056612 0.000000 0.000000 0.000000
0.972792 1.653552 0.041088 0.000000 0.000000 0.000000
1.002650 1.636708 0.050455 0.000000 0.000000 0.000000
0.998543 1.619229 0.061045 0.000000 0.000000 0.000000
1.006521 1.674758 0.069221 0.000000 0.000000 0.000000
0.997533 1.611378 0.046906 0.000000 0.000000 0.000000
1.019622 1.677071 0.061333 0.000000 0.000000 0.000000
1.001692 1.626299 0.062540 0.000000 0.000000 0.000000
1.000850 1.643304 0.041233 0.000000 0.000000 0.000000
1.001281 1.631466 0.055221 0.000000 0.000000 0.000000
0.969911 1.655535 0.039125 0.000000 0.000000 0.000000
1.007860 1.615348 0.050890 0.000000 0.000000 0.000000
1.007722 1.660376 0.061336 0.000000 0.000000 0.000000
0.995176 1.629557 0.057920 0.000000 0.000000 0.000000
1.001842 1.624959 0.057084 0.000000 0.000000 0.000000
1.003186 1.635453 0.020465 0.000000 0.000000 0.000000
1.018229 1.656103 0.043874 0.000000 0.000000 0.000000
0.996286 1.623634 0.057769 0.000000 0.000000 0.000000
0.995015 1.635023 0.008945 0.000000 0.000000 0.000000
0.999036 1.636094 0.004523 0.000000 0.000000 0.000000
1.003651 1.640977 0.000736 0.000000 0.000000 0.000000
1.004890 1.663715 0.066470 0.000000 0.000000 0.000000
0.976680 1.587399 0.031862 0.000000 0.000000 0.000000
1.000251 1.655328 0.068998 0.000000 0.000000 0.000000
0.986432 1.583747 0.036059 0.000000 0.000000 0.000000
0.960198 1.629043 0.000119 0.000000 0.000000 0.000000
1.021292 1.668926 0.041449 0.000000 0.000000 0.000000
1.010685 1.641807 0.011965 0.000000 0.000000 0.000000
1.022597 1.646708 0.037026 0.000000 0.000000 0.000000
1.020225 1.637955 0.041221 0.000000 0.000000 0.000000
1.015761 1.649680 0.026490 0.000000 0.000000 0.000000
1.016848 1.636353 0.030363 0.000000 0.000000 0.000000
1.020097 1.639430 0.033646 0.000000 0.000000 0.000000
0.985464 1.638684 0.001880 0.000000 0.000000 0.000000
0.987595 1.633408 0.004680 0.000000 0.000000 0.000000
1.022085 1.686885 0.065806 0.000000 0.000000 0.000000
1.011129 1.686351 0.075770 0.000000 0.000000 0.000000
1.013151 1.642478 0.008444 0.000000 0.000000 0.000000
1.015427 1.697342 0.090717 0.000000 0.000000 0.000000
1.014241 1.695607 0.084473 0.000000 0.000000 0.000000
0.981040 1.683309 0.057223 0.000000 0.000000 0.000000
1.005555 1.674934 0.021960 0.000000 0.000000 0.000000
1.018968 1.659823 0.026703 0.000000 0.000000 0.000000
1.009448 1.675395 0.012892 0.000000 0.000000 0.000000
0.997142 1.617342 0.021199 0.000000 0.000000 0.000000
0.999814 1.680878 0.068237 0.000000 0.000000 0.000000
0.996303 1.614967 0.014846 0.000000 0.000000 0.000000
0.994250 1.615661 0.020913 0.000000 0.000000 0.000000
0.991133 1.610575 0.021318 0.000000 0.000000 0.000000
0.988022 1.608699 0.016610 0.000000 0.000000 0.000000
0.987706 1.603082 0.011725 0.000000 0.000000 0.000000
1.012144 1.675085 0.020594 0.000000 0.000000 0.000000
1.013436 1.677717 0.019121 0.000000 0.000000 0.000000
1.013871 1.676982 0.019549 0.000000 0.000000 0.000000
1.024245 1.683688 0.074215 0.000000 0.000000 0.000000
1.024240 1.690318 0.068567 0.000000 0.000000 0.000000
0.995985 1.651654 0.071087 0.000000 0.000000 0.000000
0.999399 1.635856 0.061862 0.000000 0.000000 0.000000
1.020777 1.691208 0.081585 0.000000 0.000000 0.000000
1.023360 1.693280 0.082796 0.000000 0.000000 0.000000
0.997093 1.645654 0.064637 0.000000 0.000000 0.000000
1.005404 1.654773 0.062394 0.000000 0.000000 0.000000
1.005566 1.647003 0.016758 0.000000 0.000000 0.000000
1.001801 1.641856 0.013137 0.000000 0.000000 0.000000
1.000705 1.651983 0.018604 0.000000 0.000000 0.000000
1.026489 1.634787 0.047613 0.000000 0.000000 0.000000
1.014479 1.655527 0.036450 0.000000 0.000000 0.000000
1.020329 1.636423 0.043397 0.000000 0.000000 0.000000
1.017054 1.653322 0.037054 0.000000 0.000000 0.000000
0.998133 1.640728 0.008982 0.000000 0.000000 0.000000
0.961527 1.637534 0.000819 0.000000 0.000000 0.000000
1.014558 1.671769 0.062755 0.000000 0.000000 0.000000
1.026317 1.668609 0.048253 0.000000 0.000000 0.000000
1.016931 1.644601 0.020948 0.000000 0.000000 0.000000
1.012579 1.673862 0.065141 0.000000 0.000000 0.000000
1.021851 1.666434 0.041029 0.000000 0.000000 0.000000
1.015769 1.641645 0.014667 0.000000 0.000000 0.000000
1.012380 1.678252 0.019020 0.000000 0.000000 0.000000
0.988757 1.633100 0.002271 0.000000 0.000000 0.000000
0.999726 1.647379 0.003860 0.000000 0.000000 0.000000
0.982163 1.688017 0.049953 0.000000 0.000000 0.000000
1.018933 1.666815 0.046529 0.000000 0.000000 0.000000
1.020226 1.674624 0.039479 0.000000 0.000000 0.000000
0.990974 1.639845 0.004031 0.000000 0.000000 0.000000
1.010662 1.678363 0.018566 0.000000 0.000000 0.000000
0.980232 1.599042 0.019447 0.000000 0.000000 0.000000
1.016441 1.657609 0.029812 0.000000 0.000000 0.000000
0.985703 1.644365 0.000984 0.000000 0.000000 0.000000
0.992330 1.607100 0.012811 0.000000 0.000000 0.000000
1.025081 1.660157 0.046279 0.000000 0.000000 0.000000
1.025770 1.665132 0.047786 0.000000 0.000000 0.000000
0.420204 1.394009 0.461763 0.000000 0.000000 0.000000
0.407354 1.386775 0.450492 0.000000 0.000000 0.000000
0.400508 1.383398 0.448029 0.000000 0.000000 0.000000
0.401174 1.399755 0.442223 0.000000 0.000000 0.000000
0.408064 1.384983 0.464715 0.000000 0.000000 0.000000
1.782303 0.603346 2.168799 0.000000 0.000000 0.000000
1.792570 0.611495 2.179505 0.000000 0.000000 0.000000
1.802240 0.615441 2.169125 0.000000 0.000000 0.000000
0.441094 1.403905 0.462706 0.000000 0.000000 0.000000
0.448768 1.396968 0.453713 0.000000 0.000000 0.000000
0.403902 1.398682 0.464601 0.000000 0.000000 0.000000
0.441947 1.388247 0.453826 0.000000 0.000000 0.000000
0.403164 1.391202 0.446106 0.000000 0.000000 0.000000
0.402541 1.395350 0.470688 0.000000 0.000000 0.000000
0.450779 1.390825 0.452295 0.000000 0.000000 0.000000
0.441994 1.393622 0.450344 0.000000 0.000000 0.000000
0.440276 1.385642 0.453746 0.000000 0.000000 0.000000
0.437050 1.395034 0.445975 0.000000 0.000000 0.000000
0.450065 1.392835 0.458255 0.000000 0.000000 0.000000
0.439117 1.393264 0.443310 0.000000 0.000000 0.000000
0.416709 1.390361 0.460685 0.000000 0.000000 0.000000
0.447498 1.390545 0.445399 0.000000 0.000000 0.000000
0.424086 1.395091 0.465162 0.000000 0.000000 0.000000
0.449740 1.392433 0.449389 0.000000 0.000000 0.000000
0.406843 1.385304 0.444963 0.000000 0.000000 0.000000
0.418471 1.387263 0.470619 0.000000 0.000000 0.000000
0.417636 1.393130 0.463903 0.000000 0.000000 0.000000
0.403658 1.386453 0.472022 0.000000 0.000000 0.000000
0.421188 1.395634 0.465958 0.000000 0.000000 0.000000
0.431783 1.390418 0.449944 0.000000 0.000000 0.000000
0.412251 1.397914 0.462543 0.000000 0.000000 0.000000
1.788814 0.605700 2.161448 0.000000 0.000000 0.000000
1.790409 0.614045 2.174534 0.000000 0.000000 0.000000
0.445104 1.392012 0.449935 0.000000 0.000000 0.000000
1.781289 0.602004 2.173482 0.000000 0.000000 0.000000
0.405827 1.382737 0.450743 0.000000 0.000000 0.000000
0.423973 1.387959 0.468931 0.000000 0.000000 0.000000
0.413109 1.388424 0.465029 0.000000 0.000000 0.000000
0.424263 1.398078 0.468085 0.000000 0.000000 0.000000
1.795844 0.607003 2.177032 0.000000 0.000000 0.000000
0.414537 1.393745 0.470691 0.000000 0.000000 0.000000
0.415149 1.394571 0.474955 0.000000 0.000000 0.000000
0.418525 1.381346 0.469122 0.000000 0.000000 0.000000
0.450962 1.393150 0.453014 0.000000 0.000000 0.000000
0.427557 1.386365 0.443574 0.000000 0.000000 0.000000
0.414001 1.384699 0.463295 0.000000 0.000000 0.000000
0.445097 1.391492 0.452121 0.000000 0.000000 0.000000
0.444714 1.399127 0.460715 0.000000 0.000000 0.000000
0.426684 1.396023 0.459424 0.000000 0.000000 0.000000
1.785737 0.604918 2.171807 0.000000 0.000000 0.000000
0.423199 1.387488 0.462791 0.000000 0.000000 0.000000
1.800865 0.609451 2.173203 0.000000 0.000000 0.000000
1.794388 0.604824 2.175928 0.000000 0.000000 0.000000
1.794507 0.608968 2.169336 0.000000 0.000000 0.000000
1.798916 0.602436 2.172624 0.000000 0.000000 0.000000
0.427809 1.392473 0.458048 0.000000 0.000000 0.000000
0.429098 1.391649 0.461723 0.000000 0.000000 0.000000
0.431026 1.394287 0.468001 0.000000 0.000000 0.000000
0.436163 1.391473 0.446954 0.000000 0.000000 0.000000
0.429342 1.392481 0.452120 0.000000 0.000000 0.000000
0.433906 1.388978 0.446988 0.000000 0.000000 0.000000
0.423635 1.387919 0.463361 0.000000 0.000000 0.000000
0.416266 1.379798 0.467536 0.000000 0.000000 0.000000
0.406402 1.380107 0.444058 0.000000 0.000000 0.000000
0.402136 1.381369 0.463935 0.000000 0.000000 0.000000
0.447221 1.391307 0.458103 0.000000 0.000000 0.000000
0.433593 1.391737 0.451213 0.000000 0.000000 0.000000
0.446271 1.389690 0.451326 0.000000 0.000000 0.000000
0.453349 1.385085 0.448594 0.000000 0.000000 0.000000
0.447665 1.392719 0.450078 0.000000 0.000000 0.000000
0.421897 1.390386 0.469127 0.000000 0.000000 0.000000
0.424532 1.394213 0.458392 0.000000 0.000000 0.000000
0.432218 1.382735 0.457285 0.000000 0.000000 0.000000
0.431175 1.382120 0.460453 0.000000 0.000000 0.000000
0.432193 1.394355 0.460026 0.000000 0.000000 0.000000
0.402327 1.394590 0.453158 0.000000 0.000000 0.000000
0.408589 1.387896 0.474130 0.000000 0.000000 0.000000
1.795750 0.605824 2.176722 0.000000 0.000000 0.000000
1.788702 0.601906 2.179877 0.000000 0.000000 0.000000
1.792570 0.603257 2.177538 0.000000 0.000000 0.000000
1.796049 0.610314 2.176791 0.000000 0.000000 0.000000
0.433237 1.388960 0.455356 0.000000 0.000000 0.000000
0.404937 1.382644 0.448242 0.000000 0.000000 0.000000
0.419339 1.390548 0.469067 0.000000 0.000000 0.000000
0.411108 1.394105 0.469840 0.000000 0.000000 0.000000
0.423774 1.394237 0.468283 0.000000 0.000000 0.000000
0.440257 1.399708 0.455305 0.000000 0.000000 0.000000
0.432780 1.391953 0.444216 0.000000 0.000000 0.000000
0.416283 1.392089 0.472210 0.000000 0.000000 0.000000
0.400901 1.383461 0.479631 0.000000 0.000000 0.000000
0.443020 1.389525 0.454354 0.000000 0.000000 0.000000
0.438893 1.387107 0.458314 0.000000 0.000000 0.000000
0.441186 1.394122 0.461735 0.000000 0.000000 0.000000
0.436691 1.389815 0.463624 0.000000 0.000000 0.000000
0.436367 1.394908 0.449955 0.000000 0.000000 0.000000
0.420924 1.375066 0.475365 0.000000 0.000000 0.000000
0.452521 1.394215 0.456942 0.000000 0.000000 0.000000
0.434881 1.399459 0.466572 0.000000 0.000000 0.000000
0.437870 1.397458 0.460309 0.000000 0.000000 0.000000
0.440568 1.398981 0.458760 0.000000 0.000000 0.000000
0.407143 1.387662 0.457175 0.000000 0.000000 0.000000
0.439905 1.391578 0.448974 0.000000 0.000000 0.000000
0.433244 1.391213 0.455152 0.000000 0.000000 0.000000
0.432835 1.391184 0.465698 0.000000 0.000000 0.000000
0.423895 1.384557 0.471170 0.000000 0.000000 0.000000
0.441692 1.398842 0.459227 0.000000 0.000000 0.000000
0.430674 1.385954 0.461879 0.000000 0.000000 0.000000
0.406004 1.379909 0.452992 0.000000 0.000000 0.000000
0.408126 1.387707 0.472994 0.000000 0.000000 0.000000
1.789480 0.602708 2.176143 0.000000 0.000000 0.000000
0.433172 1.388272 0.455362 0.000000 0.000000 0.000000
0.405548 1.391089 0.475322 0.000000 0.000000 0.000000
1.790787 0.600132 2.173177 0.000000 0.000000 0.000000
0.428093 1.386726 0.463993 0.000000 0.000000 0.000000
0.410687 1.386744 0.469054 0.000000 0.000000 0.000000
0.440080 1.401074 0.465189 0.000000 0.000000 0.000000
0.440238 1.396779 0.457132 0.000000 0.000000 0.000000
0.439945 1.394271 0.458154 0.000000 0.000000 0.000000
0.434698 1.391458 0.456706 0.000000 0.000000 0.000000
0.415999 1.384608 0.463423 0.000000 0.000000 0.000000
0.440864 1.390285 0.449559 0.000000 0.000000 0.000000
0.442391 1.398362 0.452364 0.000000 0.000000 0.000000
0.435706 1.397091 0.450698 0.000000 0.000000 0.000000
0.437817 1.390345 0.454766 0.000000 0.000000 0.000000
0.410367 1.387218 0.478033 0.000000 0.000000 0.000000
0.403676 1.384583 0.475201 0.000000 0.000000 0.000000
0.443816 1.397008 0.454117 0.000000 0.000000 0.000000
0.435222 1.385599 0.455482 0.000000 0.000000 0.000000
0.427767 1.391643 0.447124 0.000000 0.000000 0.000000
0.430884 1.395545 0.457189 0.000000 0.000000 0.000000
0.413696 1.390734 0.448356 0.000000 0.000000 0.000000
0.405867 1.380479 0.443376 0.000000 0.000000 0.000000
0.415184 1.388351 0.466290 0.000000 0.000000 0.000000
0.440435 1.399638 0.460582 0.000000 0.000000 0.000000
0.404952 1.382960 0.450589 0.000000 0.000000 0.000000
0.420791 1.377401 0.469909 0.000000 0.000000 0.000000
0.414081 1.387542 0.445409 0.000000 0.000000 0.000000
0.401977 1.379167 0.441734 0.000000 0.000000 0.000000
0.408090 1.386826 0.466778 0.000000 0.000000 0.000000
0.439330 1.388449 0.448953 0.000000 0.000000 0.000000
0.442611 1.391739 0.447866 0.000000 0.000000 0.000000
0.442923 1.386958 0.452750 0.000000 0.000000 0.000000
0.404176 1.387978 0.479425 0.000000 0.000000 0.000000
0.436573 1.394172 0.459373 0.000000 0.000000 0.000000
0.400778 1.393958 0.474270 0.000000 0.000000 0.000000
0.426196 1.397500 0.470834 0.000000 0.000000 0.000000
0.438467 1.390905 0.450668 0.000000 0.000000 0.000000
0.438854 1.385256 0.457992 0.000000 0.000000 0.000000
0.430746 1.390969 0.457035 0.000000 0.000000 0.000000
1.799633 0.603817 2.177394 0.000000 0.000000 0.000000
0.436915 1.384227 0.465726 0.000000 0.000000 0.000000
0.434992 1.390983 0.446703 0.000000 0.000000 0.000000
0.443220 1.387818 0.449715 0.000000 0.000000 0.000000
0.443855 1.389423 0.451089 0.000000 0.000000 0.000000
0.448337 1.388365 0.453867 0.000000 0.000000 0.000000
0.444170 1.401473 0.454729 0.000000 0.000000 0.000000
0.436047 1.387482 0.453951 0.000000 0.000000 0.000000
0.438460 1.398869 0.463585 0.000000 0.000000 0.000000
0.444815 1.391147 0.449537 0.000000 0.000000 0.000000
0.416073 1.396230 0.463995 0.000000 0.000000 0.000000
1.786765 0.605339 2.174520 0.000000 0.000000 0.000000
1.791141 0.600865 2.182575 0.000000 0.000000 0.000000
1.791246 0.603161 2.181106 0.000000 0.000000 0.000000
0.453217 1.399108 0.452701 0.000000 0.000000 0.000000
0.447279 1.394714 0.460937 0.000000 0.000000 0.000000
0.421603 1.397384 0.465547 0.000000 0.000000 0.000000
0.439432 1.396170 0.457879 0.000000 0.000000 0.000000
0.436723 1.399420 0.468463 0.000000 0.000000 0.000000
0.449530 1.394789 0.456804 0.000000 0.000000 0.000000
0.449717 1.390926 0.455902 0.000000 0.000000 0.000000
0.446732 1.400894 0.458431 0.000000 0.000000 0.000000
0.432098 1.392928 0.462760 0.000000 0.000000 0.000000
0.443420 1.399516 0.459594 0.000000 0.000000 0.000000
0.435191 1.393381 0.473336 0.000000 0.000000 0.000000
0.438703 1.390176 0.469052 0.000000 0.000000 0.000000
1.799252 0.616746 2.178810 0.000000 0.000000 0.000000
1.783501 0.600261 2.164302 0.000000 0.000000 0.000000
0.406379 1.399834 0.471036 0.000000 0.000000 0.000000
0.447407 1.397447 0.457870 0.000000 0.000000 0.000000
0.431908 1.386451 0.456689 0.000000 0.000000 0.000000
0.436336 1.384519 0.458561 0.000000 0.000000 0.000000
0.438408 1.390913 0.451752 0.000000 0.000000 0.000000
0.420734 1.383417 0.471650 0.000000 0.000000 0.000000
0.409766 1.380183 0.469438 0.000000 0.000000 0.000000
0.409878 1.391697 0.473294 0.000000 0.000000 0.000000
0.404960 1.397705 0.475687 0.000000 0.000000 0.000000
0.420983 1.378255 0.465830 0.000000 0.000000 0.000000
0.412808 1.391652 0.469998 0.000000 0.000000 0.000000
0.420879 1.399890 0.469456 0.000000 0.000000 0.000000
0.453572 1.400749 0.454670 0.000000 0.000000 0.000000
0.450989 1.398782 0.454224 0.000000 0.000000 0.000000
0.453573 1.394607 0.455476 0.000000 0.000000 0.000000
0.450825 1.397245 0.455429 0.000000 0.000000 0.000000
0.452239 1.399542 0.456507 0.000000 0.000000 0.000000
0.448653 1.394518 0.453974 0.000000 0.000000 0.000000
0.431238 1.386707 0.458380 0.000000 0.000000 0.000000
0.432394 1.388430 0.462212 0.000000 0.000000 0.000000
0.437773 1.389318 0.452410 0.000000 0.000000 0.000000
0.403045 1.381556 0.453292 0.000000 0.000000 0.000000
0.410162 1.384670 0.461283 0.000000 0.000000 0.000000
1.791447 0.614047 2.178468 0.000000 0.000000 0.000000
0.418800 1.377181 0.473539 0.000000 0.000000 0.000000
0.417033 1.399016 0.459967 0.000000 0.000000 0.000000
0.423511 1.384490 0.466525 0.000000 0.000000 0.000000
0.424909 1.386212 0.457728 0.000000 0.000000 0.000000
0.406048 1.383889 0.441955 0.000000 0.000000 0.000000
1.786655 0.606378 2.171186 0.000000 0.000000 0.000000
1.794677 0.608914 2.165609 0.000000 0.000000 0.000000
1.776481 0.604876 2.169757 0.000000 0.000000 0.000000
1.795075 0.606307 2.165600 0.000000 0.000000 0.000000
