ply
format ascii 1.0
comment VCGLIB generated
obj_info Generated by SPFormer!
element vertex 236
property float x
property float y
property float z
property float nx
property float ny
property float nz
end_header
1.011087 1.632126 0.046845 0.000000 0.000000 0.000000
0.995117 1.604944 0.042880 0.000000 0.000000 0.000000
1.006868 1.613335 0.048605 0.000000 0.000000 0.000000
1.032473 1.648112 0.041392 0.000000 0.000000 0.000000
1.010544 1.657865 0.055358 0.000000 0.000000 0.000000
1.017675 1.621245 0.046587 0.000000 0.000000 0.000000
1.019905 1.647748 0.055943 0.000000 0.000000 0.000000
1.010172 1.637564 0.041066 0.000000 0.000000 0.000000
0.999378 1.607384 0.040932 0.000000 0.000000 0.000000
1.006543 1.641519 0.062918 0.000000 0.000000 0.000000
1.018284 1.656003 0.066854 0.000000 0.000000 0.000000
1.020021 1.662005 0.054673 0.000000 0.000000 0.000000
1.002934 1.647698 0.041824 0.000000 0.000000 0.000000
0.989699 1.600628 0.062450 0.000000 0.000000 0.000000
0.996338 1.609063 0.045385 0.000000 0.000000 0.000000
0.992246 1.614841 0.055063 0.000000 0.000000 0.000000
1.005773 1.635365 0.070885 0.000000 0.000000 0.000000
1.019583 1.677089 0.043875 0.000000 0.000000 0.000000
1.018255 1.676956 0.041820 0.000000 0.000000 0.000000
1.023299 1.674486 0.047154 0.000000 0.000000 0.000000
1.009680 1.647944 0.042209 0.000000 0.000000 0.000000
1.012132 1.652419 0.048665 0.000000 0.000000 0.000000
0.991827 1.602719 0.052125 0.000000 0.000000 0.000000
1.000649 1.625468 0.053215 0.000000 0.000000 0.000000
1.001045 1.610097 0.053143 0.000000 0.000000 0.000000
1.011262 1.617040 0.045423 0.000000 0.000000 0.000000
1.018284 1.673265 0.050730 0.000000 0.000000 0.000000
1.019474 1.673453 0.042288 0.000000 0.000000 0.000000
1.004613 1.639314 0.051746 0.000000 0.000000 0.000000
1.006509 1.622841 0.053313 0.000000 0.000000 0.000000
1.017556 1.637459 0.056982 0.000000 0.000000 0.000000
1.008169 1.633624 0.062926 0.000000 0.000000 0.000000
1.020715 1.677631 0.046806 0.000000 0.000000 0.000000
1.010592 1.653370 0.042906 0.000000 0.000000 0.000000
1.012275 1.649808 0.053301 0.000000 0.000000 0.000000
0.997389 1.605625 0.050329 0.000000 0.000000 0.000000
1.028199 1.655754 0.050377 0.000000 0.000000 0.000000
1.008938 1.648818 0.059104 0.000000 0.000000 0.000000
1.015721 1.647271 0.042387 0.000000 0.000000 0.000000
1.013605 1.655476 0.062480 0.000000 0.000000 0.000000
1.012928 1.622113 0.041903 0.000000 0.000000 0.000000
1.013825 1.645072 0.063557 0.000000 0.000000 0.000000
1.016701 1.612837 0.044150 0.000000 0.000000 0.000000
1.008156 1.635181 0.056608 0.000000 0.000000 0.000000
0.995204 1.612588 0.062812 0.000000 0.000000 0.000000
1.008168 1.627402 0.041486 0.000000 0.000000 0.000000
1.019881 1.677769 0.069799 0.000000 0.000000 0.000000
0.993536 1.614740 0.056612 0.000000 0.000000 0.000000
1.002650 1.636708 0.050455 0.000000 0.000000 0.000000
0.998543 1.619229 0.061045 0.000000 0.000000 0.000000
1.006521 1.674758 0.069221 0.000000 0.000000 0.000000
0.997533 1.611378 0.046906 0.000000 0.000000 0.000000
1.019622 1.677071 0.061333 0.000000 0.000000 0.000000
1.001692 1.626299 0.062540 0.000000 0.000000 0.000000
1.000850 1.643304 0.041233 0.000000 0.000000 0.000000
1.001281 1.631466 0.055221 0.000000 0.000000 0.000000
1.007860 1.615348 0.050890 0.000000 0.000000 0.000000
1.007722 1.660376 0.061336 0.000000 0.000000 0.000000
0.995176 1.629557 0.057920 0.000000 0.000000 0.000000
1.001842 1.624959 0.057084 0.000000 0.000000 0.000000
1.018229 1.656103 0.043874 0.000000 0.000000 0.000000
0.996286 1.623634 0.057769 0.000000 0.000000 0.000000
1.004890 1.663715 0.066470 0.000000 0.000000 0.000000
1.000251 1.655328 0.068998 0.000000 0.000000 0.000000
1.021292 1.668926 0.041449 0.000000 0.000000 0.000000
1.020225 1.637955 0.041221 0.000000 0.000000 0.000000
1.022085 1.686885 0.065806 0.000000 0.000000 0.000000
1.011129 1.686351 0.075770 0.000000 0.000000 0.000000
1.015427 1.697342 0.090717 0.000000 0.000000 0.000000
1.014241 1.695607 0.084473 0.000000 0.000000 0.000000
1.024245 1.683688 0.074215 0.000000 0.000000 0.000000
1.024240 1.690318 0.068567 0.000000 0.000000 0.000000
0.999399 1.635856 0.061862 0.000000 0.000000 0.000000
1.020777 1.691208 0.081585 0.000000 0.000000 0.000000
1.023360 1.693280 0.082796 0.000000 0.000000 0.000000
1.005404 1.654773 0.062394 0.000000 0.000000 0.000000
1.026489 1.634787 0.047613 0.000000 0.000000 0.000000
1.020329 1.636423 0.043397 0.000000 0.000000 0.000000
1.014558 1.671769 0.062755 0.000000 0.000000 0.000000
1.026317 1.668609 0.048253 0.000000 0.000000 0.000000
1.012579 1.673862 0.065141 0.000000 0.000000 0.000000
1.021851 1.666434 0.041029 0.000000 0.000000 0.000000
1.018933 1.666815 0.046529 0.000000 0.000000 0.000000
1.025081 1.660157 0.046279 0.000000 0.000000 0.000000
1.025770 1.665132 0.047786 0.000000 0.000000 0.000000
1.414190 1.962065 0.249218 0.000000 0.000000 0.000000
1.352452 1.400090 0.462667 0.000000 0.000000 0.000000
1.293055 1.383179 0.474514 0.000000 0.000000 0.000000
1.307585 1.364265 0.485661 0.000000 0.000000 0.000000
1.317721 1.308534 0.432014 0.000000 0.000000 0.000000
1.306621 1.391870 0.488039 0.000000 0.000000 0.000000
1.307168 1.343080 0.517583 0.000000 0.000000 0.000000
1.301276 1.318164 0.511314 0.000000 0.000000 0.000000
1.304601 1.377165 0.517454 0.000000 0.000000 0.000000
1.312188 1.397695 0.481645 0.000000 0.000000 0.000000
1.310105 1.341126 0.539531 0.000000 0.000000 0.000000
1.294561 1.398648 0.476618 0.000000 0.000000 0.000000
1.292192 1.400535 0.472554 0.000000 0.000000 0.000000
1.279772 1.390668 0.469422 0.000000 0.000000 0.000000
1.296800 1.376956 0.480413 0.000000 0.000000 0.000000
1.309193 1.384534 0.501798 0.000000 0.000000 0.000000
1.294515 1.381525 0.493298 0.000000 0.000000 0.000000
1.297785 1.350082 0.509352 0.000000 0.000000 0.000000
1.285803 1.364217 0.498333 0.000000 0.000000 0.000000
1.309065 1.311020 0.513446 0.000000 0.000000 0.000000
1.291256 1.381918 0.477313 0.000000 0.000000 0.000000
1.296049 1.387994 0.480026 0.000000 0.000000 0.000000
1.302870 1.369456 0.492179 0.000000 0.000000 0.000000
1.288404 1.391054 0.484095 0.000000 0.000000 0.000000
1.311587 1.363658 0.502106 0.000000 0.000000 0.000000
1.298382 1.387480 0.483869 0.000000 0.000000 0.000000
1.288447 1.391434 0.481310 0.000000 0.000000 0.000000
1.305792 1.339879 0.525703 0.000000 0.000000 0.000000
1.327976 1.380198 0.459997 0.000000 0.000000 0.000000
1.300501 1.365341 0.501700 0.000000 0.000000 0.000000
1.305332 1.375686 0.505514 0.000000 0.000000 0.000000
1.329746 1.380203 0.444047 0.000000 0.000000 0.000000
1.313970 1.377865 0.506508 0.000000 0.000000 0.000000
1.297460 1.341698 0.493878 0.000000 0.000000 0.000000
1.310496 1.316687 0.428361 0.000000 0.000000 0.000000
1.286582 1.321277 0.506622 0.000000 0.000000 0.000000
1.333690 1.393097 0.453412 0.000000 0.000000 0.000000
1.289595 1.343237 0.503205 0.000000 0.000000 0.000000
1.307609 1.334014 0.500677 0.000000 0.000000 0.000000
1.306458 1.320808 0.527195 0.000000 0.000000 0.000000
1.297320 1.329834 0.499722 0.000000 0.000000 0.000000
1.291538 1.325284 0.492338 0.000000 0.000000 0.000000
1.285243 1.330000 0.507132 0.000000 0.000000 0.000000
1.287220 1.394856 0.474659 0.000000 0.000000 0.000000
1.300186 1.349159 0.534452 0.000000 0.000000 0.000000
1.296948 1.348115 0.521242 0.000000 0.000000 0.000000
1.297014 1.410868 0.469893 0.000000 0.000000 0.000000
1.315518 1.314969 0.424862 0.000000 0.000000 0.000000
1.307007 1.353295 0.504628 0.000000 0.000000 0.000000
1.289470 1.378941 0.488990 0.000000 0.000000 0.000000
1.298475 1.363239 0.484066 0.000000 0.000000 0.000000
1.295945 1.355528 0.500689 0.000000 0.000000 0.000000
1.293385 1.356230 0.509443 0.000000 0.000000 0.000000
1.294254 1.361730 0.496691 0.000000 0.000000 0.000000
1.285263 1.396720 0.470739 0.000000 0.000000 0.000000
1.296339 1.349622 0.512988 0.000000 0.000000 0.000000
1.304311 1.345239 0.495795 0.000000 0.000000 0.000000
1.314955 1.363636 0.505755 0.000000 0.000000 0.000000
1.306787 1.374392 0.499109 0.000000 0.000000 0.000000
1.300947 1.347911 0.500104 0.000000 0.000000 0.000000
1.319781 1.356773 0.516448 0.000000 0.000000 0.000000
1.302270 1.347832 0.508703 0.000000 0.000000 0.000000
1.299024 1.355427 0.492947 0.000000 0.000000 0.000000
1.298105 1.319690 0.507031 0.000000 0.000000 0.000000
1.305762 1.346045 0.501960 0.000000 0.000000 0.000000
1.294359 1.370814 0.483988 0.000000 0.000000 0.000000
1.303875 1.323629 0.510245 0.000000 0.000000 0.000000
1.331760 1.374386 0.506900 0.000000 0.000000 0.000000
1.304092 1.362340 0.508619 0.000000 0.000000 0.000000
1.303757 1.376833 0.480674 0.000000 0.000000 0.000000
1.327958 1.365948 0.517134 0.000000 0.000000 0.000000
1.302167 1.354545 0.511183 0.000000 0.000000 0.000000
1.306877 1.355890 0.493623 0.000000 0.000000 0.000000
1.304367 1.320589 0.519427 0.000000 0.000000 0.000000
1.288800 1.317212 0.501318 0.000000 0.000000 0.000000
1.306388 1.358608 0.507063 0.000000 0.000000 0.000000
1.301677 1.321099 0.521574 0.000000 0.000000 0.000000
1.338880 1.377563 0.494371 0.000000 0.000000 0.000000
1.342994 1.400732 0.485368 0.000000 0.000000 0.000000
1.300027 1.322805 0.514750 0.000000 0.000000 0.000000
1.316455 1.308938 0.497104 0.000000 0.000000 0.000000
1.316228 1.304568 0.491321 0.000000 0.000000 0.000000
1.287009 1.322246 0.492058 0.000000 0.000000 0.000000
1.295874 1.325820 0.514630 0.000000 0.000000 0.000000
1.293865 1.373079 0.497218 0.000000 0.000000 0.000000
1.319758 1.359141 0.516929 0.000000 0.000000 0.000000
1.315052 1.325330 0.519042 0.000000 0.000000 0.000000
1.317115 1.326247 0.531044 0.000000 0.000000 0.000000
1.314822 1.303370 0.509376 0.000000 0.000000 0.000000
1.312509 1.296648 0.509931 0.000000 0.000000 0.000000
1.315815 1.376413 0.499206 0.000000 0.000000 0.000000
1.308182 1.380895 0.493999 0.000000 0.000000 0.000000
1.305737 1.393733 0.485828 0.000000 0.000000 0.000000
1.316477 1.305213 0.500904 0.000000 0.000000 0.000000
1.300640 1.333806 0.521682 0.000000 0.000000 0.000000
1.318460 1.314641 0.517985 0.000000 0.000000 0.000000
1.294892 1.395326 0.471322 0.000000 0.000000 0.000000
1.299219 1.399556 0.477044 0.000000 0.000000 0.000000
1.313016 1.323883 0.538068 0.000000 0.000000 0.000000
1.318780 1.315127 0.529537 0.000000 0.000000 0.000000
1.308250 1.308651 0.495151 0.000000 0.000000 0.000000
1.319534 1.308814 0.509573 0.000000 0.000000 0.000000
1.285979 1.374559 0.483580 0.000000 0.000000 0.000000
1.313157 1.351799 0.513289 0.000000 0.000000 0.000000
1.286623 1.390333 0.478620 0.000000 0.000000 0.000000
1.301036 1.340788 0.511544 0.000000 0.000000 0.000000
1.282253 1.383452 0.485325 0.000000 0.000000 0.000000
1.282590 1.385516 0.481221 0.000000 0.000000 0.000000
1.291716 1.348290 0.506370 0.000000 0.000000 0.000000
1.298172 1.328933 0.511550 0.000000 0.000000 0.000000
1.308283 1.404047 0.475323 0.000000 0.000000 0.000000
1.306667 1.330616 0.513675 0.000000 0.000000 0.000000
1.318356 1.406191 0.458004 0.000000 0.000000 0.000000
1.314742 1.401495 0.474068 0.000000 0.000000 0.000000
1.290189 1.332633 0.493729 0.000000 0.000000 0.000000
1.286935 1.315310 0.482780 0.000000 0.000000 0.000000
1.307981 1.300451 0.511716 0.000000 0.000000 0.000000
1.312784 1.291730 0.507190 0.000000 0.000000 0.000000
1.293358 1.326451 0.495167 0.000000 0.000000 0.000000
1.291388 1.370091 0.492961 0.000000 0.000000 0.000000
1.295025 1.334887 0.506986 0.000000 0.000000 0.000000
1.325714 1.396432 0.479752 0.000000 0.000000 0.000000
1.324575 1.390936 0.492877 0.000000 0.000000 0.000000
1.329490 1.402035 0.470534 0.000000 0.000000 0.000000
1.330198 1.395312 0.477618 0.000000 0.000000 0.000000
1.335953 1.388845 0.488438 0.000000 0.000000 0.000000
1.289515 1.331445 0.510011 0.000000 0.000000 0.000000
1.316400 1.334627 0.542405 0.000000 0.000000 0.000000
1.338087 1.375326 0.497306 0.000000 0.000000 0.000000
1.286125 1.334058 0.502214 0.000000 0.000000 0.000000
1.316597 1.334677 0.548311 0.000000 0.000000 0.000000
1.337131 1.383308 0.493736 0.000000 0.000000 0.000000
1.308059 1.340550 0.548166 0.000000 0.000000 0.000000
1.291597 1.357164 0.515208 0.000000 0.000000 0.000000
1.285432 1.374239 0.509559 0.000000 0.000000 0.000000
1.292788 1.360357 0.518221 0.000000 0.000000 0.000000
1.287438 1.372333 0.502849 0.000000 0.000000 0.000000
1.320204 1.395920 0.461529 0.000000 0.000000 0.000000
1.332016 1.382421 0.488706 0.000000 0.000000 0.000000
1.345289 1.389482 0.451557 0.000000 0.000000 0.000000
1.184760 1.800260 0.377142 0.000000 0.000000 0.000000
1.200912 1.813772 0.302763 0.000000 0.000000 0.000000
1.182958 1.809303 0.323392 0.000000 0.000000 0.000000
1.197408 1.799828 0.365363 0.000000 0.000000 0.000000
1.181680 1.810743 0.362547 0.000000 0.000000 0.000000
1.182165 1.811756 0.372838 0.000000 0.000000 0.000000
1.193528 1.796822 0.323185 0.000000 0.000000 0.000000
1.194275 1.808440 0.335836 0.000000 0.000000 0.000000
1.189581 1.800625 0.363904 0.000000 0.000000 0.000000
1.187482 1.802355 0.349515 0.000000 0.000000 0.000000
1.191354 1.805387 0.361704 0.000000 0.000000 0.000000
