ply
format ascii 1.0
comment VCGLIB generated
obj_info Generated by SPFormer!
element vertex 579
property float x
property float y
property float z
property float nx
property float ny
property float nz
end_header
0.989752 1.641008 0.025169 0.000000 0.000000 0.000000
1.011087 1.632126 0.046845 0.000000 0.000000 0.000000
0.993509 1.610735 0.016123 0.000000 0.000000 0.000000
1.019205 1.660177 0.026450 0.000000 0.000000 0.000000
1.004241 1.643230 0.019364 0.000000 0.000000 0.000000
1.010292 1.644910 0.038091 0.000000 0.000000 0.000000
0.997845 1.637381 0.011830 0.000000 0.000000 0.000000
1.010326 1.645796 0.033493 0.000000 0.000000 0.000000
0.995117 1.604944 0.042880 0.000000 0.000000 0.000000
1.001105 1.630041 0.027344 0.000000 0.000000 0.000000
1.006318 1.645829 0.007873 0.000000 0.000000 0.000000
1.006868 1.613335 0.048605 0.000000 0.000000 0.000000
0.973892 1.665365 0.059476 0.000000 0.000000 0.000000
1.032473 1.648112 0.041392 0.000000 0.000000 0.000000
0.988860 1.671394 0.052551 0.000000 0.000000 0.000000
0.996473 1.647373 0.010850 0.000000 0.000000 0.000000
0.997118 1.611046 0.038848 0.000000 0.000000 0.000000
1.000453 1.642240 0.037738 0.000000 0.000000 0.000000
1.003919 1.649475 0.035730 0.000000 0.000000 0.000000
0.995398 1.628253 0.018116 0.000000 0.000000 0.000000
1.010052 1.637746 0.022731 0.000000 0.000000 0.000000
0.990932 1.681258 0.041930 0.000000 0.000000 0.000000
0.990209 1.624662 0.004231 0.000000 0.000000 0.000000
1.010544 1.657865 0.055358 0.000000 0.000000 0.000000
1.017675 1.621245 0.046587 0.000000 0.000000 0.000000
0.992653 1.648251 0.004038 0.000000 0.000000 0.000000
0.992225 1.633761 0.013636 0.000000 0.000000 0.000000
0.994364 1.623278 0.025142 0.000000 0.000000 0.000000
0.987469 1.652513 0.074406 0.000000 0.000000 0.000000
1.019905 1.647748 0.055943 0.000000 0.000000 0.000000
1.010172 1.637564 0.041066 0.000000 0.000000 0.000000
0.997638 1.627174 0.019770 0.000000 0.000000 0.000000
0.999197 1.636518 0.000738 0.000000 0.000000 0.000000
0.999378 1.607384 0.040932 0.000000 0.000000 0.000000
0.965785 1.678566 0.034341 0.000000 0.000000 0.000000
0.980060 1.687146 0.048641 0.000000 0.000000 0.000000
1.000494 1.626547 0.017376 0.000000 0.000000 0.000000
1.006543 1.641519 0.062918 0.000000 0.000000 0.000000
0.992038 1.622343 0.031686 0.000000 0.000000 0.000000
1.018284 1.656003 0.066854 0.000000 0.000000 0.000000
1.020021 1.662005 0.054673 0.000000 0.000000 0.000000
0.994864 1.635173 0.000713 0.000000 0.000000 0.000000
0.992252 1.617390 0.021812 0.000000 0.000000 0.000000
1.002934 1.647698 0.041824 0.000000 0.000000 0.000000
0.993137 1.613367 0.028178 0.000000 0.000000 0.000000
0.989699 1.600628 0.062450 0.000000 0.000000 0.000000
0.996338 1.609063 0.045385 0.000000 0.000000 0.000000
1.016840 1.661501 0.028124 0.000000 0.000000 0.000000
0.992246 1.614841 0.055063 0.000000 0.000000 0.000000
1.005773 1.635365 0.070885 0.000000 0.000000 0.000000
1.019583 1.677089 0.043875 0.000000 0.000000 0.000000
1.018255 1.676956 0.041820 0.000000 0.000000 0.000000
1.023299 1.674486 0.047154 0.000000 0.000000 0.000000
1.014150 1.674753 0.030749 0.000000 0.000000 0.000000
1.012756 1.677736 0.023833 0.000000 0.000000 0.000000
1.018239 1.678860 0.037314 0.000000 0.000000 0.000000
0.986075 1.632777 0.003570 0.000000 0.000000 0.000000
1.002613 1.635641 0.016244 0.000000 0.000000 0.000000
0.976381 1.669967 0.070082 0.000000 0.000000 0.000000
1.009680 1.647944 0.042209 0.000000 0.000000 0.000000
1.005798 1.652796 0.034587 0.000000 0.000000 0.000000
1.012132 1.652419 0.048665 0.000000 0.000000 0.000000
1.023236 1.656796 -0.004937 0.000000 0.000000 0.000000
1.006881 1.650661 0.029363 0.000000 0.000000 0.000000
0.988877 1.602205 0.030412 0.000000 0.000000 0.000000
1.021445 1.649303 0.039324 0.000000 0.000000 0.000000
1.021583 1.664274 0.037152 0.000000 0.000000 0.000000
0.965643 1.660921 0.008936 0.000000 0.000000 0.000000
1.023900 1.650734 -0.000786 0.000000 0.000000 0.000000
0.991827 1.602719 0.052125 0.000000 0.000000 0.000000
1.000649 1.625468 0.053215 0.000000 0.000000 0.000000
1.002701 1.644773 0.033617 0.000000 0.000000 0.000000
1.003376 1.613014 0.031648 0.000000 0.000000 0.000000
1.001045 1.610097 0.053143 0.000000 0.000000 0.000000
1.011262 1.617040 0.045423 0.000000 0.000000 0.000000
1.007442 1.619586 0.034781 0.000000 0.000000 0.000000
1.018284 1.673265 0.050730 0.000000 0.000000 0.000000
1.016070 1.671342 0.034751 0.000000 0.000000 0.000000
1.019474 1.673453 0.042288 0.000000 0.000000 0.000000
1.014122 1.676942 0.021762 0.000000 0.000000 0.000000
0.975228 1.671762 0.043179 0.000000 0.000000 0.000000
1.004613 1.639314 0.051746 0.000000 0.000000 0.000000
1.006509 1.622841 0.053313 0.000000 0.000000 0.000000
1.017556 1.637459 0.056982 0.000000 0.000000 0.000000
1.008169 1.633624 0.062926 0.000000 0.000000 0.000000
1.020715 1.677631 0.046806 0.000000 0.000000 0.000000
1.024122 1.663821 0.038676 0.000000 0.000000 0.000000
1.019605 1.673119 0.035306 0.000000 0.000000 0.000000
1.021376 1.667048 0.028084 0.000000 0.000000 0.000000
1.020754 1.651571 0.039584 0.000000 0.000000 0.000000
1.020584 1.671745 0.033754 0.000000 0.000000 0.000000
0.991871 1.647591 0.005946 0.000000 0.000000 0.000000
1.012533 1.676929 0.017033 0.000000 0.000000 0.000000
1.002596 1.640143 0.003509 0.000000 0.000000 0.000000
0.994011 1.633541 0.007786 0.000000 0.000000 0.000000
1.007254 1.640341 0.007500 0.000000 0.000000 0.000000
1.010592 1.653370 0.042906 0.000000 0.000000 0.000000
1.015532 1.671789 0.036725 0.000000 0.000000 0.000000
1.012275 1.649808 0.053301 0.000000 0.000000 0.000000
1.004628 1.634482 0.011227 0.000000 0.000000 0.000000
1.022463 1.664284 0.032541 0.000000 0.000000 0.000000
0.997389 1.605625 0.050329 0.000000 0.000000 0.000000
1.028199 1.655754 0.050377 0.000000 0.000000 0.000000
1.008938 1.648818 0.059104 0.000000 0.000000 0.000000
1.011390 1.643076 0.013850 0.000000 0.000000 0.000000
1.015721 1.647271 0.042387 0.000000 0.000000 0.000000
1.020381 1.666429 0.032268 0.000000 0.000000 0.000000
1.013605 1.655476 0.062480 0.000000 0.000000 0.000000
1.012928 1.622113 0.041903 0.000000 0.000000 0.000000
1.013825 1.645072 0.063557 0.000000 0.000000 0.000000
1.016701 1.612837 0.044150 0.000000 0.000000 0.000000
1.008156 1.635181 0.056608 0.000000 0.000000 0.000000
1.028642 1.635684 0.035986 0.000000 0.000000 0.000000
1.001200 1.634123 0.019154 0.000000 0.000000 0.000000
1.008282 1.652133 0.032562 0.000000 0.000000 0.000000
0.999565 1.634987 0.024172 0.000000 0.000000 0.000000
1.007295 1.644331 0.020250 0.000000 0.000000 0.000000
1.003712 1.650728 0.029477 0.000000 0.000000 0.000000
1.008236 1.649488 0.023827 0.000000 0.000000 0.000000
1.001508 1.644915 0.025480 0.000000 0.000000 0.000000
1.002388 1.640263 0.031288 0.000000 0.000000 0.000000
1.006737 1.621660 0.032322 0.000000 0.000000 0.000000
1.002416 1.621922 0.032939 0.000000 0.000000 0.000000
0.995204 1.612588 0.062812 0.000000 0.000000 0.000000
1.007197 1.629986 0.008224 0.000000 0.000000 0.000000
0.996366 1.644672 0.038821 0.000000 0.000000 0.000000
1.003662 1.631405 0.020812 0.000000 0.000000 0.000000
1.003695 1.655925 0.019986 0.000000 0.000000 0.000000
1.010657 1.652932 0.027155 0.000000 0.000000 0.000000
1.002905 1.649349 0.023784 0.000000 0.000000 0.000000
1.007712 1.643678 0.027110 0.000000 0.000000 0.000000
1.005618 1.619265 0.038716 0.000000 0.000000 0.000000
1.008168 1.627402 0.041486 0.000000 0.000000 0.000000
1.019881 1.677769 0.069799 0.000000 0.000000 0.000000
0.984124 1.603388 0.020830 0.000000 0.000000 0.000000
0.986054 1.608835 0.023422 0.000000 0.000000 0.000000
0.997493 1.640668 0.016341 0.000000 0.000000 0.000000
0.984332 1.674435 0.040064 0.000000 0.000000 0.000000
1.002446 1.644818 0.033674 0.000000 0.000000 0.000000
0.993536 1.614740 0.056612 0.000000 0.000000 0.000000
0.972792 1.653552 0.041088 0.000000 0.000000 0.000000
1.002650 1.636708 0.050455 0.000000 0.000000 0.000000
0.998543 1.619229 0.061045 0.000000 0.000000 0.000000
1.006521 1.674758 0.069221 0.000000 0.000000 0.000000
0.997533 1.611378 0.046906 0.000000 0.000000 0.000000
1.019622 1.677071 0.061333 0.000000 0.000000 0.000000
1.001692 1.626299 0.062540 0.000000 0.000000 0.000000
1.000850 1.643304 0.041233 0.000000 0.000000 0.000000
1.001281 1.631466 0.055221 0.000000 0.000000 0.000000
0.969911 1.655535 0.039125 0.000000 0.000000 0.000000
1.007860 1.615348 0.050890 0.000000 0.000000 0.000000
1.007722 1.660376 0.061336 0.000000 0.000000 0.000000
0.995176 1.629557 0.057920 0.000000 0.000000 0.000000
1.001842 1.624959 0.057084 0.000000 0.000000 0.000000
1.003186 1.635453 0.020465 0.000000 0.000000 0.000000
1.018229 1.656103 0.043874 0.000000 0.000000 0.000000
0.996286 1.623634 0.057769 0.000000 0.000000 0.000000
0.995015 1.635023 0.008945 0.000000 0.000000 0.000000
0.999036 1.636094 0.004523 0.000000 0.000000 0.000000
1.003651 1.640977 0.000736 0.000000 0.000000 0.000000
1.004890 1.663715 0.066470 0.000000 0.000000 0.000000
0.976680 1.587399 0.031862 0.000000 0.000000 0.000000
1.000251 1.655328 0.068998 0.000000 0.000000 0.000000
0.986432 1.583747 0.036059 0.000000 0.000000 0.000000
0.960198 1.629043 0.000119 0.000000 0.000000 0.000000
1.021292 1.668926 0.041449 0.000000 0.000000 0.000000
1.010685 1.641807 0.011965 0.000000 0.000000 0.000000
1.022597 1.646708 0.037026 0.000000 0.000000 0.000000
1.020225 1.637955 0.041221 0.000000 0.000000 0.000000
1.015761 1.649680 0.026490 0.000000 0.000000 0.000000
1.016848 1.636353 0.030363 0.000000 0.000000 0.000000
1.020097 1.639430 0.033646 0.000000 0.000000 0.000000
0.985464 1.638684 0.001880 0.000000 0.000000 0.000000
0.987595 1.633408 0.004680 0.000000 0.000000 0.000000
1.022085 1.686885 0.065806 0.000000 0.000000 0.000000
1.011129 1.686351 0.075770 0.000000 0.000000 0.000000
1.013151 1.642478 0.008444 0.000000 0.000000 0.000000
1.015427 1.697342 0.090717 0.000000 0.000000 0.000000
1.014241 1.695607 0.084473 0.000000 0.000000 0.000000
0.981040 1.683309 0.057223 0.000000 0.000000 0.000000
1.005555 1.674934 0.021960 0.000000 0.000000 0.000000
1.018968 1.659823 0.026703 0.000000 0.000000 0.000000
1.009448 1.675395 0.012892 0.000000 0.000000 0.000000
0.997142 1.617342 0.021199 0.000000 0.000000 0.000000
0.999814 1.680878 0.068237 0.000000 0.000000 0.000000
0.996303 1.614967 0.014846 0.000000 0.000000 0.000000
0.994250 1.615661 0.020913 0.000000 0.000000 0.000000
0.991133 1.610575 0.021318 0.000000 0.000000 0.000000
0.988022 1.608699 0.016610 0.000000 0.000000 0.000000
0.987706 1.603082 0.011725 0.000000 0.000000 0.000000
1.012144 1.675085 0.020594 0.000000 0.000000 0.000000
1.013436 1.677717 0.019121 0.000000 0.000000 0.000000
1.013871 1.676982 0.019549 0.000000 0.000000 0.000000
1.024245 1.683688 0.074215 0.000000 0.000000 0.000000
1.024240 1.690318 0.068567 0.000000 0.000000 0.000000
0.995985 1.651654 0.071087 0.000000 0.000000 0.000000
0.999399 1.635856 0.061862 0.000000 0.000000 0.000000
1.020777 1.691208 0.081585 0.000000 0.000000 0.000000
1.023360 1.693280 0.082796 0.000000 0.000000 0.000000
0.997093 1.645654 0.064637 0.000000 0.000000 0.000000
1.005404 1.654773 0.062394 0.000000 0.000000 0.000000
1.005566 1.647003 0.016758 0.000000 0.000000 0.000000
1.001801 1.641856 0.013137 0.000000 0.000000 0.000000
1.000705 1.651983 0.018604 0.000000 0.000000 0.000000
1.026489 1.634787 0.047613 0.000000 0.000000 0.000000
1.014479 1.655527 0.036450 0.000000 0.000000 0.000000
1.020329 1.636423 0.043397 0.000000 0.000000 0.000000
1.017054 1.653322 0.037054 0.000000 0.000000 0.000000
0.998133 1.640728 0.008982 0.000000 0.000000 0.000000
0.961527 1.637534 0.000819 0.000000 0.000000 0.000000
1.014558 1.671769 0.062755 0.000000 0.000000 0.000000
1.026317 1.668609 0.048253 0.000000 0.000000 0.000000
1.016931 1.644601 0.020948 0.000000 0.000000 0.000000
1.012579 1.673862 0.065141 0.000000 0.000000 0.000000
1.021851 1.666434 0.041029 0.000000 0.000000 0.000000
1.015769 1.641645 0.014667 0.000000 0.000000 0.000000
1.012380 1.678252 0.019020 0.000000 0.000000 0.000000
0.988757 1.633100 0.002271 0.000000 0.000000 0.000000
0.999726 1.647379 0.003860 0.000000 0.000000 0.000000
0.982163 1.688017 0.049953 0.000000 0.000000 0.000000
1.018933 1.666815 0.046529 0.000000 0.000000 0.000000
1.020226 1.674624 0.039479 0.000000 0.000000 0.000000
0.990974 1.639845 0.004031 0.000000 0.000000 0.000000
1.010662 1.678363 0.018566 0.000000 0.000000 0.000000
0.980232 1.599042 0.019447 0.000000 0.000000 0.000000
1.016441 1.657609 0.029812 0.000000 0.000000 0.000000
0.985703 1.644365 0.000984 0.000000 0.000000 0.000000
0.992330 1.607100 0.012811 0.000000 0.000000 0.000000
1.025081 1.660157 0.046279 0.000000 0.000000 0.000000
1.025770 1.665132 0.047786 0.000000 0.000000 0.000000
0.285829 1.185473 0.965150 0.000000 0.000000 0.000000
0.311613 1.193627 0.934236 0.000000 0.000000 0.000000
0.305000 1.190546 0.937825 0.000000 0.000000 0.000000
0.306962 1.190019 0.935737 0.000000 0.000000 0.000000
0.315227 1.196884 0.936468 0.000000 0.000000 0.000000
0.315302 1.198405 0.941480 0.000000 0.000000 0.000000
0.313380 1.198413 0.928772 0.000000 0.000000 0.000000
0.319072 1.193422 0.929191 0.000000 0.000000 0.000000
0.316398 1.191932 0.936607 0.000000 0.000000 0.000000
0.302976 1.188581 0.945315 0.000000 0.000000 0.000000
0.310162 1.195667 0.933556 0.000000 0.000000 0.000000
0.312444 1.193501 0.930929 0.000000 0.000000 0.000000
0.314816 1.191748 0.931001 0.000000 0.000000 0.000000
0.317632 1.191337 0.931535 0.000000 0.000000 0.000000
0.325544 1.202682 0.936573 0.000000 0.000000 0.000000
0.310732 1.196900 0.937735 0.000000 0.000000 0.000000
0.289868 1.189494 0.964298 0.000000 0.000000 0.000000
0.291155 1.172625 0.965839 0.000000 0.000000 0.000000
0.310740 1.191464 0.934403 0.000000 0.000000 0.000000
0.289311 1.179316 0.961301 0.000000 0.000000 0.000000
0.306897 1.196311 0.928832 0.000000 0.000000 0.000000
0.288860 1.187205 0.955522 0.000000 0.000000 0.000000
0.317488 1.198105 0.933834 0.000000 0.000000 0.000000
0.321740 1.205257 0.934971 0.000000 0.000000 0.000000
0.328536 1.210533 0.934975 0.000000 0.000000 0.000000
0.317368 1.191654 0.921482 0.000000 0.000000 0.000000
0.289944 1.169109 0.968022 0.000000 0.000000 0.000000
0.317247 1.197622 0.940537 0.000000 0.000000 0.000000
0.306183 1.189850 0.938452 0.000000 0.000000 0.000000
0.318491 1.199207 0.939925 0.000000 0.000000 0.000000
0.316474 1.199181 0.927715 0.000000 0.000000 0.000000
0.308201 1.195486 0.936083 0.000000 0.000000 0.000000
0.290612 1.187948 0.947667 0.000000 0.000000 0.000000
0.320696 1.193139 0.931694 0.000000 0.000000 0.000000
0.291376 1.195046 0.946644 0.000000 0.000000 0.000000
0.441094 1.403905 0.462706 0.000000 0.000000 0.000000
0.448768 1.396968 0.453713 0.000000 0.000000 0.000000
0.319890 1.192432 0.938885 0.000000 0.000000 0.000000
0.311269 1.196221 0.944588 0.000000 0.000000 0.000000
0.312476 1.193536 0.935513 0.000000 0.000000 0.000000
0.315040 1.193913 0.930103 0.000000 0.000000 0.000000
0.294576 1.176925 0.966315 0.000000 0.000000 0.000000
0.286018 1.184924 0.947829 0.000000 0.000000 0.000000
0.441947 1.388247 0.453826 0.000000 0.000000 0.000000
0.286022 1.194016 0.969423 0.000000 0.000000 0.000000
0.285232 1.195144 0.963288 0.000000 0.000000 0.000000
0.299540 1.190592 0.949198 0.000000 0.000000 0.000000
0.286708 1.176218 0.975590 0.000000 0.000000 0.000000
0.321969 1.198384 0.940103 0.000000 0.000000 0.000000
0.321470 1.197135 0.932675 0.000000 0.000000 0.000000
0.285675 1.198333 0.955303 0.000000 0.000000 0.000000
0.329701 1.206557 0.938036 0.000000 0.000000 0.000000
0.288982 1.198254 0.962426 0.000000 0.000000 0.000000
0.307479 1.192936 0.932148 0.000000 0.000000 0.000000
0.289685 1.184174 0.947962 0.000000 0.000000 0.000000
0.291187 1.192319 0.952746 0.000000 0.000000 0.000000
0.322592 1.202290 0.935917 0.000000 0.000000 0.000000
0.320594 1.199713 0.926044 0.000000 0.000000 0.000000
0.294340 1.187440 0.943361 0.000000 0.000000 0.000000
0.314566 1.189952 0.925592 0.000000 0.000000 0.000000
0.450779 1.390825 0.452295 0.000000 0.000000 0.000000
0.441994 1.393622 0.450344 0.000000 0.000000 0.000000
0.440276 1.385642 0.453746 0.000000 0.000000 0.000000
0.308082 1.197650 0.941536 0.000000 0.000000 0.000000
0.309846 1.197564 0.940600 0.000000 0.000000 0.000000
0.286156 1.196856 0.952728 0.000000 0.000000 0.000000
0.309652 1.190341 0.930083 0.000000 0.000000 0.000000
0.316151 1.195874 0.935386 0.000000 0.000000 0.000000
0.313050 1.196438 0.941430 0.000000 0.000000 0.000000
0.315262 1.196470 0.929319 0.000000 0.000000 0.000000
0.450065 1.392835 0.458255 0.000000 0.000000 0.000000
0.286358 1.188725 0.956088 0.000000 0.000000 0.000000
0.305523 1.193336 0.944178 0.000000 0.000000 0.000000
0.291842 1.178217 0.961834 0.000000 0.000000 0.000000
0.297642 1.172314 0.966466 0.000000 0.000000 0.000000
0.289372 1.173767 0.959100 0.000000 0.000000 0.000000
0.297914 1.187641 0.938536 0.000000 0.000000 0.000000
0.447498 1.390545 0.445399 0.000000 0.000000 0.000000
0.449740 1.392433 0.449389 0.000000 0.000000 0.000000
0.295084 1.183074 0.942892 0.000000 0.000000 0.000000
0.310075 1.194604 0.926591 0.000000 0.000000 0.000000
0.285983 1.174281 0.970881 0.000000 0.000000 0.000000
0.310362 1.191491 0.935645 0.000000 0.000000 0.000000
0.311479 1.192602 0.931355 0.000000 0.000000 0.000000
0.293498 1.193814 0.963767 0.000000 0.000000 0.000000
0.302694 1.193740 0.949444 0.000000 0.000000 0.000000
0.325664 1.204287 0.927651 0.000000 0.000000 0.000000
0.282094 1.176487 0.954744 0.000000 0.000000 0.000000
0.333176 1.203970 0.927368 0.000000 0.000000 0.000000
0.332309 1.198593 0.933494 0.000000 0.000000 0.000000
0.445104 1.392012 0.449935 0.000000 0.000000 0.000000
0.321819 1.203457 0.935616 0.000000 0.000000 0.000000
0.309518 1.191034 0.931821 0.000000 0.000000 0.000000
0.295691 1.171558 0.963917 0.000000 0.000000 0.000000
0.286092 1.193988 0.945963 0.000000 0.000000 0.000000
0.313261 1.193074 0.935637 0.000000 0.000000 0.000000
0.297037 1.185789 0.939253 0.000000 0.000000 0.000000
0.314755 1.196014 0.932597 0.000000 0.000000 0.000000
0.316073 1.199435 0.941102 0.000000 0.000000 0.000000
0.323707 1.202874 0.938196 0.000000 0.000000 0.000000
0.308555 1.189651 0.932280 0.000000 0.000000 0.000000
0.303539 1.183301 0.971633 0.000000 0.000000 0.000000
0.297908 1.189035 0.942898 0.000000 0.000000 0.000000
0.292166 1.199455 0.959657 0.000000 0.000000 0.000000
0.302077 1.189005 0.937594 0.000000 0.000000 0.000000
0.307084 1.197243 0.939515 0.000000 0.000000 0.000000
0.281492 1.191363 0.956064 0.000000 0.000000 0.000000
0.292952 1.174868 0.965052 0.000000 0.000000 0.000000
0.286659 1.172590 0.973258 0.000000 0.000000 0.000000
0.292836 1.198281 0.961513 0.000000 0.000000 0.000000
0.450962 1.393150 0.453014 0.000000 0.000000 0.000000
0.291428 1.176387 0.969182 0.000000 0.000000 0.000000
0.301736 1.197616 0.955434 0.000000 0.000000 0.000000
0.328512 1.204180 0.938445 0.000000 0.000000 0.000000
0.445097 1.391492 0.452121 0.000000 0.000000 0.000000
0.444714 1.399127 0.460715 0.000000 0.000000 0.000000
0.285187 1.168028 0.969884 0.000000 0.000000 0.000000
0.305020 1.192763 0.923862 0.000000 0.000000 0.000000
0.283839 1.186069 0.968467 0.000000 0.000000 0.000000
0.312710 1.195665 0.930336 0.000000 0.000000 0.000000
0.281491 1.163276 0.985197 0.000000 0.000000 0.000000
0.294901 1.190049 0.947630 0.000000 0.000000 0.000000
0.308319 1.194667 0.936138 0.000000 0.000000 0.000000
0.320435 1.197408 0.929244 0.000000 0.000000 0.000000
0.305387 1.187395 0.936017 0.000000 0.000000 0.000000
0.292684 1.170704 0.970732 0.000000 0.000000 0.000000
0.309639 1.194984 0.930434 0.000000 0.000000 0.000000
0.301042 1.188132 0.939876 0.000000 0.000000 0.000000
0.317118 1.192168 0.931499 0.000000 0.000000 0.000000
0.295729 1.184955 0.941408 0.000000 0.000000 0.000000
0.320635 1.211975 0.935400 0.000000 0.000000 0.000000
0.315599 1.194722 0.934199 0.000000 0.000000 0.000000
0.286497 1.171900 0.968246 0.000000 0.000000 0.000000
0.284994 1.174463 0.981515 0.000000 0.000000 0.000000
0.317332 1.197138 0.928276 0.000000 0.000000 0.000000
0.280994 1.199271 0.950022 0.000000 0.000000 0.000000
0.282778 1.188474 0.957631 0.000000 0.000000 0.000000
0.317257 1.195632 0.931855 0.000000 0.000000 0.000000
0.320857 1.202497 0.927393 0.000000 0.000000 0.000000
0.321836 1.197852 0.927745 0.000000 0.000000 0.000000
0.325746 1.202537 0.939525 0.000000 0.000000 0.000000
0.318427 1.193774 0.934777 0.000000 0.000000 0.000000
0.291229 1.176312 0.972932 0.000000 0.000000 0.000000
0.296916 1.187488 0.940302 0.000000 0.000000 0.000000
0.299028 1.187770 0.937077 0.000000 0.000000 0.000000
0.283564 1.180717 0.947766 0.000000 0.000000 0.000000
0.286041 1.185911 0.952844 0.000000 0.000000 0.000000
0.290930 1.175502 0.971341 0.000000 0.000000 0.000000
0.288899 1.180964 0.960981 0.000000 0.000000 0.000000
0.295787 1.192199 0.949964 0.000000 0.000000 0.000000
0.300974 1.187558 0.935228 0.000000 0.000000 0.000000
0.283415 1.183245 0.947130 0.000000 0.000000 0.000000
0.299099 1.185794 0.937864 0.000000 0.000000 0.000000
0.447221 1.391307 0.458103 0.000000 0.000000 0.000000
0.446271 1.389690 0.451326 0.000000 0.000000 0.000000
0.453349 1.385085 0.448594 0.000000 0.000000 0.000000
0.296338 1.197681 0.962194 0.000000 0.000000 0.000000
0.447665 1.392719 0.450078 0.000000 0.000000 0.000000
0.307693 1.188041 0.933329 0.000000 0.000000 0.000000
0.302633 1.189019 0.936428 0.000000 0.000000 0.000000
0.307130 1.186454 0.936453 0.000000 0.000000 0.000000
0.323808 1.193647 0.928961 0.000000 0.000000 0.000000
0.308785 1.194185 0.934521 0.000000 0.000000 0.000000
0.293427 1.185137 0.943466 0.000000 0.000000 0.000000
0.318749 1.197867 0.927783 0.000000 0.000000 0.000000
0.320368 1.196983 0.928965 0.000000 0.000000 0.000000
0.320023 1.203898 0.928526 0.000000 0.000000 0.000000
0.300150 1.188364 0.944277 0.000000 0.000000 0.000000
0.304486 1.190506 0.937953 0.000000 0.000000 0.000000
0.305203 1.187586 0.934829 0.000000 0.000000 0.000000
0.440257 1.399708 0.455305 0.000000 0.000000 0.000000
0.306092 1.198665 0.957107 0.000000 0.000000 0.000000
0.306155 1.194645 0.959768 0.000000 0.000000 0.000000
0.296388 1.189337 0.953508 0.000000 0.000000 0.000000
0.301328 1.188016 0.955852 0.000000 0.000000 0.000000
0.299434 1.199472 0.959226 0.000000 0.000000 0.000000
0.295487 1.195502 0.952672 0.000000 0.000000 0.000000
0.314971 1.192572 0.938898 0.000000 0.000000 0.000000
0.443020 1.389525 0.454354 0.000000 0.000000 0.000000
0.286478 1.168275 0.981385 0.000000 0.000000 0.000000
0.441186 1.394122 0.461735 0.000000 0.000000 0.000000
0.452521 1.394215 0.456942 0.000000 0.000000 0.000000
0.440568 1.398981 0.458760 0.000000 0.000000 0.000000
0.441692 1.398842 0.459227 0.000000 0.000000 0.000000
0.286982 1.166237 0.968366 0.000000 0.000000 0.000000
0.291584 1.167871 0.969355 0.000000 0.000000 0.000000
0.440080 1.401074 0.465189 0.000000 0.000000 0.000000
0.440238 1.396779 0.457132 0.000000 0.000000 0.000000
0.284369 1.165461 0.971283 0.000000 0.000000 0.000000
0.303259 1.186234 0.932529 0.000000 0.000000 0.000000
0.298320 1.191380 0.945983 0.000000 0.000000 0.000000
0.294348 1.192968 0.955397 0.000000 0.000000 0.000000
0.295848 1.169330 0.977643 0.000000 0.000000 0.000000
0.302536 1.190939 0.940966 0.000000 0.000000 0.000000
0.300192 1.191982 0.944866 0.000000 0.000000 0.000000
0.308937 1.192730 0.939026 0.000000 0.000000 0.000000
0.313688 1.192685 0.931573 0.000000 0.000000 0.000000
0.320553 1.195072 0.933338 0.000000 0.000000 0.000000
0.311151 1.192391 0.953140 0.000000 0.000000 0.000000
0.324532 1.198461 0.936515 0.000000 0.000000 0.000000
0.440864 1.390285 0.449559 0.000000 0.000000 0.000000
0.442391 1.398362 0.452364 0.000000 0.000000 0.000000
0.305666 1.191874 0.948129 0.000000 0.000000 0.000000
0.301705 1.187754 0.953532 0.000000 0.000000 0.000000
0.322066 1.197671 0.931650 0.000000 0.000000 0.000000
0.299118 1.195795 0.951606 0.000000 0.000000 0.000000
0.307862 1.190809 0.951578 0.000000 0.000000 0.000000
0.299210 1.196472 0.955446 0.000000 0.000000 0.000000
0.291890 1.199184 0.954257 0.000000 0.000000 0.000000
0.301094 1.191788 0.955719 0.000000 0.000000 0.000000
0.281066 1.172644 0.984025 0.000000 0.000000 0.000000
0.323698 1.204463 0.936831 0.000000 0.000000 0.000000
0.443816 1.397008 0.454117 0.000000 0.000000 0.000000
0.326046 1.207582 0.935644 0.000000 0.000000 0.000000
0.312453 1.194177 0.938180 0.000000 0.000000 0.000000
0.302223 1.193953 0.928934 0.000000 0.000000 0.000000
0.322838 1.199761 0.933944 0.000000 0.000000 0.000000
0.325801 1.208332 0.936343 0.000000 0.000000 0.000000
0.293533 1.174492 0.972065 0.000000 0.000000 0.000000
0.440435 1.399638 0.460582 0.000000 0.000000 0.000000
0.316556 1.195319 0.930038 0.000000 0.000000 0.000000
0.320585 1.195837 0.931203 0.000000 0.000000 0.000000
0.315995 1.192330 0.926689 0.000000 0.000000 0.000000
0.323956 1.206325 0.932734 0.000000 0.000000 0.000000
0.326302 1.207002 0.935833 0.000000 0.000000 0.000000
0.321856 1.204399 0.932126 0.000000 0.000000 0.000000
0.316602 1.199775 0.932466 0.000000 0.000000 0.000000
0.294176 1.169889 0.962316 0.000000 0.000000 0.000000
0.287517 1.168211 0.971327 0.000000 0.000000 0.000000
0.442611 1.391739 0.447866 0.000000 0.000000 0.000000
0.306517 1.194104 0.955637 0.000000 0.000000 0.000000
0.442923 1.386958 0.452750 0.000000 0.000000 0.000000
0.314831 1.194407 0.928833 0.000000 0.000000 0.000000
0.304264 1.187779 0.936264 0.000000 0.000000 0.000000
0.308241 1.186282 0.928211 0.000000 0.000000 0.000000
0.305996 1.186611 0.935030 0.000000 0.000000 0.000000
0.324141 1.201590 0.932664 0.000000 0.000000 0.000000
0.324358 1.204520 0.932873 0.000000 0.000000 0.000000
0.331634 1.210872 0.939935 0.000000 0.000000 0.000000
0.293358 1.172221 0.972497 0.000000 0.000000 0.000000
0.320733 1.208250 0.935134 0.000000 0.000000 0.000000
0.313112 1.193569 0.929457 0.000000 0.000000 0.000000
0.326116 1.197828 0.930540 0.000000 0.000000 0.000000
0.298594 1.195669 0.958059 0.000000 0.000000 0.000000
0.306337 1.189076 0.934741 0.000000 0.000000 0.000000
0.288348 1.171234 0.975303 0.000000 0.000000 0.000000
0.286494 1.166011 0.982847 0.000000 0.000000 0.000000
0.311322 1.198851 0.935828 0.000000 0.000000 0.000000
0.316595 1.194906 0.935850 0.000000 0.000000 0.000000
0.323460 1.208571 0.930926 0.000000 0.000000 0.000000
0.315228 1.198589 0.933520 0.000000 0.000000 0.000000
0.281450 1.165301 0.985704 0.000000 0.000000 0.000000
0.328250 1.209455 0.935732 0.000000 0.000000 0.000000
0.331158 1.208146 0.940545 0.000000 0.000000 0.000000
0.296434 1.170935 0.968731 0.000000 0.000000 0.000000
0.320328 1.200891 0.927448 0.000000 0.000000 0.000000
0.329162 1.205420 0.940634 0.000000 0.000000 0.000000
0.323606 1.211953 0.932289 0.000000 0.000000 0.000000
0.305807 1.187721 0.952743 0.000000 0.000000 0.000000
0.302590 1.188610 0.953916 0.000000 0.000000 0.000000
0.324338 1.207817 0.934759 0.000000 0.000000 0.000000
0.330432 1.201682 0.929835 0.000000 0.000000 0.000000
0.301061 1.189715 0.925950 0.000000 0.000000 0.000000
0.322873 1.196480 0.936980 0.000000 0.000000 0.000000
0.300038 1.189719 0.935636 0.000000 0.000000 0.000000
0.322928 1.207112 0.932085 0.000000 0.000000 0.000000
0.297356 1.199582 0.968463 0.000000 0.000000 0.000000
0.443220 1.387818 0.449715 0.000000 0.000000 0.000000
0.443855 1.389423 0.451089 0.000000 0.000000 0.000000
0.448337 1.388365 0.453867 0.000000 0.000000 0.000000
0.444170 1.401473 0.454729 0.000000 0.000000 0.000000
0.285263 1.195891 0.956220 0.000000 0.000000 0.000000
0.281765 1.191116 0.955513 0.000000 0.000000 0.000000
0.282931 1.175825 0.949241 0.000000 0.000000 0.000000
0.444815 1.391147 0.449537 0.000000 0.000000 0.000000
0.323238 1.207189 0.931814 0.000000 0.000000 0.000000
0.296370 1.173912 0.970892 0.000000 0.000000 0.000000
0.324210 1.203964 0.934586 0.000000 0.000000 0.000000
0.326045 1.212731 0.934437 0.000000 0.000000 0.000000
0.311649 1.192998 0.931526 0.000000 0.000000 0.000000
0.283278 1.187804 0.969010 0.000000 0.000000 0.000000
0.284090 1.184354 0.963284 0.000000 0.000000 0.000000
0.283460 1.187824 0.976020 0.000000 0.000000 0.000000
0.325547 1.208428 0.937731 0.000000 0.000000 0.000000
0.314482 1.191543 0.957568 0.000000 0.000000 0.000000
0.297637 1.192630 0.948888 0.000000 0.000000 0.000000
0.296181 1.193004 0.950759 0.000000 0.000000 0.000000
0.312945 1.189084 0.939033 0.000000 0.000000 0.000000
0.320318 1.192345 0.939191 0.000000 0.000000 0.000000
0.453217 1.399108 0.452701 0.000000 0.000000 0.000000
0.320767 1.196571 0.933617 0.000000 0.000000 0.000000
0.287210 1.171289 0.984854 0.000000 0.000000 0.000000
0.308595 1.187449 0.955893 0.000000 0.000000 0.000000
0.326125 1.207508 0.935513 0.000000 0.000000 0.000000
0.328828 1.197261 0.940992 0.000000 0.000000 0.000000
0.310797 1.189011 0.929028 0.000000 0.000000 0.000000
0.330087 1.199412 0.942096 0.000000 0.000000 0.000000
0.328777 1.204226 0.938546 0.000000 0.000000 0.000000
0.303150 1.190086 0.953420 0.000000 0.000000 0.000000
0.321474 1.206615 0.929798 0.000000 0.000000 0.000000
0.447279 1.394714 0.460937 0.000000 0.000000 0.000000
0.321608 1.196484 0.929414 0.000000 0.000000 0.000000
0.449530 1.394789 0.456804 0.000000 0.000000 0.000000
0.449717 1.390926 0.455902 0.000000 0.000000 0.000000
0.446732 1.400894 0.458431 0.000000 0.000000 0.000000
0.327379 1.203241 0.940079 0.000000 0.000000 0.000000
0.443420 1.399516 0.459594 0.000000 0.000000 0.000000
0.288825 1.180081 0.957565 0.000000 0.000000 0.000000
0.298548 1.171391 0.966768 0.000000 0.000000 0.000000
0.289320 1.186482 0.959952 0.000000 0.000000 0.000000
0.297060 1.171413 0.969642 0.000000 0.000000 0.000000
0.322778 1.207409 0.929677 0.000000 0.000000 0.000000
0.285437 1.181174 0.947192 0.000000 0.000000 0.000000
0.305382 1.195419 0.954788 0.000000 0.000000 0.000000
0.294283 1.178357 0.974370 0.000000 0.000000 0.000000
0.295968 1.182226 0.971614 0.000000 0.000000 0.000000
0.324141 1.209903 0.931665 0.000000 0.000000 0.000000
0.298492 1.189439 0.944695 0.000000 0.000000 0.000000
0.324554 1.207791 0.933390 0.000000 0.000000 0.000000
0.447407 1.397447 0.457870 0.000000 0.000000 0.000000
0.291549 1.186381 0.945832 0.000000 0.000000 0.000000
0.287136 1.181996 0.951630 0.000000 0.000000 0.000000
0.302455 1.192616 0.942923 0.000000 0.000000 0.000000
0.292680 1.183385 0.953242 0.000000 0.000000 0.000000
0.302929 1.193280 0.944089 0.000000 0.000000 0.000000
0.285594 1.178798 0.954609 0.000000 0.000000 0.000000
0.453572 1.400749 0.454670 0.000000 0.000000 0.000000
0.321981 1.202916 0.930361 0.000000 0.000000 0.000000
0.450989 1.398782 0.454224 0.000000 0.000000 0.000000
0.453573 1.394607 0.455476 0.000000 0.000000 0.000000
0.327890 1.208156 0.927832 0.000000 0.000000 0.000000
0.450825 1.397245 0.455429 0.000000 0.000000 0.000000
0.329971 1.199388 0.936421 0.000000 0.000000 0.000000
0.330385 1.202869 0.938019 0.000000 0.000000 0.000000
0.327682 1.202857 0.936633 0.000000 0.000000 0.000000
0.326031 1.210488 0.931817 0.000000 0.000000 0.000000
0.452239 1.399542 0.456507 0.000000 0.000000 0.000000
0.448653 1.394518 0.453974 0.000000 0.000000 0.000000
0.325815 1.211181 0.934278 0.000000 0.000000 0.000000
0.304880 1.185858 0.931708 0.000000 0.000000 0.000000
0.307183 1.192985 0.949560 0.000000 0.000000 0.000000
0.289236 1.180083 0.943085 0.000000 0.000000 0.000000
0.287940 1.183572 0.946592 0.000000 0.000000 0.000000
0.330124 1.206955 0.938093 0.000000 0.000000 0.000000
0.306215 1.188700 0.937445 0.000000 0.000000 0.000000
0.321876 1.207786 0.928798 0.000000 0.000000 0.000000
0.306019 1.192271 0.947786 0.000000 0.000000 0.000000
0.303736 1.183517 0.950230 0.000000 0.000000 0.000000
0.300991 1.186805 0.946160 0.000000 0.000000 0.000000
