ply
format ascii 1.0
comment VCGLIB generated
obj_info Generated by SPFormer!
element vertex 185
property float x
property float y
property float z
property float nx
property float ny
property float nz
end_header
-0.181426 1.238987 1.991542 0.000000 0.000000 0.000000
-0.183398 1.241548 1.989149 0.000000 0.000000 0.000000
-0.180115 1.234158 1.991498 0.000000 0.000000 0.000000
-0.176488 1.243203 1.990785 0.000000 0.000000 0.000000
-0.188071 1.235083 1.997174 0.000000 0.000000 0.000000
-0.185759 1.257266 2.030858 0.000000 0.000000 0.000000
-0.166304 1.218803 1.995638 0.000000 0.000000 0.000000
-0.169762 1.222800 1.998454 0.000000 0.000000 0.000000
-0.184242 1.241185 2.031739 0.000000 0.000000 0.000000
-0.168356 1.240666 2.000006 0.000000 0.000000 0.000000
-0.175164 1.220034 1.999095 0.000000 0.000000 0.000000
-0.179836 1.237210 1.995065 0.000000 0.000000 0.000000
-0.172929 1.219898 1.998776 0.000000 0.000000 0.000000
-0.185679 1.252462 2.026114 0.000000 0.000000 0.000000
-0.165595 1.242351 2.000905 0.000000 0.000000 0.000000
-0.184151 1.234696 1.997190 0.000000 0.000000 0.000000
-0.174215 1.240397 1.999364 0.000000 0.000000 0.000000
-0.175952 1.240983 1.993483 0.000000 0.000000 0.000000
-0.170964 1.242037 1.994742 0.000000 0.000000 0.000000
-0.185642 1.255741 2.025294 0.000000 0.000000 0.000000
-0.183549 1.259896 2.032710 0.000000 0.000000 0.000000
-0.177157 1.238650 1.994751 0.000000 0.000000 0.000000
-0.168238 1.240767 2.001500 0.000000 0.000000 0.000000
-0.181605 1.240621 2.030652 0.000000 0.000000 0.000000
-0.193633 1.245527 2.016292 0.000000 0.000000 0.000000
1.718066 0.539705 2.158085 0.000000 0.000000 0.000000
-0.169181 1.245987 1.991963 0.000000 0.000000 0.000000
-0.171528 1.221488 1.997605 0.000000 0.000000 0.000000
-0.169841 1.230132 1.996072 0.000000 0.000000 0.000000
-0.174405 1.237728 1.995181 0.000000 0.000000 0.000000
-0.183722 1.241434 2.025813 0.000000 0.000000 0.000000
-0.162046 1.239938 1.999575 0.000000 0.000000 0.000000
-0.183377 1.247793 2.035309 0.000000 0.000000 0.000000
-0.167133 1.241433 2.001103 0.000000 0.000000 0.000000
-0.188561 1.237275 1.997658 0.000000 0.000000 0.000000
-0.176309 1.221620 1.999719 0.000000 0.000000 0.000000
-0.188555 1.252538 2.030453 0.000000 0.000000 0.000000
-0.187961 1.257441 2.029438 0.000000 0.000000 0.000000
-0.165680 1.242971 2.005186 0.000000 0.000000 0.000000
-0.184490 1.257016 2.033199 0.000000 0.000000 0.000000
-0.179209 1.238818 1.994005 0.000000 0.000000 0.000000
-0.168037 1.240856 2.001851 0.000000 0.000000 0.000000
-0.169612 1.242782 1.997562 0.000000 0.000000 0.000000
-0.187985 1.248366 2.020353 0.000000 0.000000 0.000000
-0.179552 1.233399 1.995702 0.000000 0.000000 0.000000
-0.160663 1.279433 2.037588 0.000000 0.000000 0.000000
-0.183331 1.258676 2.036829 0.000000 0.000000 0.000000
-0.181196 1.244298 2.030433 0.000000 0.000000 0.000000
-0.188057 1.240545 2.019627 0.000000 0.000000 0.000000
-0.191656 1.242393 2.036072 0.000000 0.000000 0.000000
-0.182790 1.251428 2.025618 0.000000 0.000000 0.000000
-0.182329 1.234092 1.998610 0.000000 0.000000 0.000000
-0.184744 1.242606 2.038754 0.000000 0.000000 0.000000
-0.164940 1.243801 2.003693 0.000000 0.000000 0.000000
-0.166995 1.246105 1.999805 0.000000 0.000000 0.000000
-0.168478 1.220893 1.996712 0.000000 0.000000 0.000000
-0.192426 1.254106 2.027070 0.000000 0.000000 0.000000
-0.167363 1.241018 2.003072 0.000000 0.000000 0.000000
-0.182699 1.245705 2.030123 0.000000 0.000000 0.000000
-0.181239 1.238304 1.986404 0.000000 0.000000 0.000000
-0.173165 1.240512 1.996098 0.000000 0.000000 0.000000
-0.192699 1.258097 2.029622 0.000000 0.000000 0.000000
-0.178374 1.220546 1.996072 0.000000 0.000000 0.000000
-0.183834 1.242021 2.024535 0.000000 0.000000 0.000000
-0.195504 1.248772 2.039256 0.000000 0.000000 0.000000
-0.188470 1.259829 2.037663 0.000000 0.000000 0.000000
-0.186539 1.256140 2.037003 0.000000 0.000000 0.000000
-0.186243 1.262071 2.028515 0.000000 0.000000 0.000000
-0.183646 1.244897 2.033325 0.000000 0.000000 0.000000
-0.182450 1.241708 2.038932 0.000000 0.000000 0.000000
-0.189674 1.254676 2.021456 0.000000 0.000000 0.000000
-0.191851 1.256624 2.021560 0.000000 0.000000 0.000000
-0.187308 1.252356 2.023520 0.000000 0.000000 0.000000
1.717971 0.530704 2.154493 0.000000 0.000000 0.000000
1.719988 0.534620 2.159191 0.000000 0.000000 0.000000
-0.162301 1.242402 2.011847 0.000000 0.000000 0.000000
-0.184276 1.251035 2.023441 0.000000 0.000000 0.000000
-0.177593 1.236756 1.999671 0.000000 0.000000 0.000000
-0.182350 1.251649 2.031120 0.000000 0.000000 0.000000
-0.189050 1.254403 2.026693 0.000000 0.000000 0.000000
-0.191198 1.258360 2.026259 0.000000 0.000000 0.000000
-0.171648 1.220620 1.996903 0.000000 0.000000 0.000000
-0.182347 1.245822 1.991220 0.000000 0.000000 0.000000
-0.173313 1.237353 1.995427 0.000000 0.000000 0.000000
-0.176945 1.216115 1.998670 0.000000 0.000000 0.000000
-0.168157 1.240510 2.001260 0.000000 0.000000 0.000000
-0.163676 1.246526 2.007971 0.000000 0.000000 0.000000
-0.170559 1.219846 1.995769 0.000000 0.000000 0.000000
-0.172454 1.244238 1.992573 0.000000 0.000000 0.000000
-0.168296 1.216614 1.996000 0.000000 0.000000 0.000000
-0.167161 1.226647 1.999294 0.000000 0.000000 0.000000
-0.169720 1.222190 1.997893 0.000000 0.000000 0.000000
-0.174253 1.223060 1.998634 0.000000 0.000000 0.000000
-0.180244 1.237809 1.996148 0.000000 0.000000 0.000000
-0.164837 1.219583 1.999804 0.000000 0.000000 0.000000
-0.165265 1.244659 2.004644 0.000000 0.000000 0.000000
-0.178376 1.243989 1.987693 0.000000 0.000000 0.000000
-0.166526 1.240565 2.002783 0.000000 0.000000 0.000000
-0.163587 1.243730 2.006509 0.000000 0.000000 0.000000
-0.173503 1.230156 1.994260 0.000000 0.000000 0.000000
-0.164936 1.242710 2.002986 0.000000 0.000000 0.000000
-0.165713 1.242874 2.002877 0.000000 0.000000 0.000000
-0.179102 1.248178 2.038935 0.000000 0.000000 0.000000
-0.178230 1.253769 2.026526 0.000000 0.000000 0.000000
-0.185174 1.238120 1.993457 0.000000 0.000000 0.000000
-0.178129 1.240910 1.985969 0.000000 0.000000 0.000000
-0.167104 1.243082 1.998466 0.000000 0.000000 0.000000
-0.192873 1.230951 1.999761 0.000000 0.000000 0.000000
-0.167305 1.241697 2.001086 0.000000 0.000000 0.000000
-0.170350 1.243407 1.995251 0.000000 0.000000 0.000000
1.701472 0.522824 2.146366 0.000000 0.000000 0.000000
-0.172374 1.222514 1.998148 0.000000 0.000000 0.000000
-0.170998 1.223364 1.996480 0.000000 0.000000 0.000000
-0.187688 1.250374 2.025966 0.000000 0.000000 0.000000
-0.179750 1.256484 2.027181 0.000000 0.000000 0.000000
-0.173025 1.240707 2.009681 0.000000 0.000000 0.000000
-0.186652 1.258092 2.032588 0.000000 0.000000 0.000000
-0.166937 1.241653 2.002991 0.000000 0.000000 0.000000
-0.164635 1.245035 2.003338 0.000000 0.000000 0.000000
-0.182369 1.257737 2.031705 0.000000 0.000000 0.000000
1.717665 0.530930 2.157176 0.000000 0.000000 0.000000
-0.161566 1.240008 2.001232 0.000000 0.000000 0.000000
-0.176898 1.250035 2.038563 0.000000 0.000000 0.000000
1.714059 0.525049 2.149617 0.000000 0.000000 0.000000
-0.165617 1.242378 2.002948 0.000000 0.000000 0.000000
1.717440 0.529459 2.149034 0.000000 0.000000 0.000000
-0.179953 1.250446 2.024622 0.000000 0.000000 0.000000
-0.179834 1.250338 2.028519 0.000000 0.000000 0.000000
-0.177764 1.258633 2.022961 0.000000 0.000000 0.000000
-0.182110 1.254588 2.039636 0.000000 0.000000 0.000000
-0.170133 1.245177 2.015810 0.000000 0.000000 0.000000
-0.182589 1.259202 2.037590 0.000000 0.000000 0.000000
-0.174116 1.239877 1.998536 0.000000 0.000000 0.000000
-0.178307 1.240415 1.991041 0.000000 0.000000 0.000000
-0.164366 1.243109 2.014274 0.000000 0.000000 0.000000
-0.184477 1.260710 2.038144 0.000000 0.000000 0.000000
-0.190861 1.253734 2.039527 0.000000 0.000000 0.000000
-0.169252 1.240872 2.000159 0.000000 0.000000 0.000000
-0.182496 1.241346 1.989365 0.000000 0.000000 0.000000
1.716831 0.530929 2.154163 0.000000 0.000000 0.000000
-0.177138 1.238529 1.998756 0.000000 0.000000 0.000000
1.712365 0.527853 2.151006 0.000000 0.000000 0.000000
1.698947 0.523399 2.138236 0.000000 0.000000 0.000000
-0.186546 1.260175 2.034745 0.000000 0.000000 0.000000
-0.183328 1.255406 2.031902 0.000000 0.000000 0.000000
-0.190741 1.255303 2.030986 0.000000 0.000000 0.000000
-0.185322 1.259515 2.025110 0.000000 0.000000 0.000000
-0.182883 1.258876 2.035213 0.000000 0.000000 0.000000
-0.184504 1.252513 2.022220 0.000000 0.000000 0.000000
-0.179963 1.249446 2.028940 0.000000 0.000000 0.000000
-0.179145 1.248829 2.025934 0.000000 0.000000 0.000000
-0.176431 1.254582 2.025940 0.000000 0.000000 0.000000
1.704769 0.540642 2.151004 0.000000 0.000000 0.000000
-0.168799 1.274280 2.039467 0.000000 0.000000 0.000000
1.707341 0.536640 2.143281 0.000000 0.000000 0.000000
-0.183281 1.252307 2.035736 0.000000 0.000000 0.000000
-0.164333 1.240721 2.009604 0.000000 0.000000 0.000000
-0.180420 1.257595 2.031698 0.000000 0.000000 0.000000
-0.176578 1.244376 2.027703 0.000000 0.000000 0.000000
1.708096 0.526138 2.143644 0.000000 0.000000 0.000000
1.707771 0.531619 2.152028 0.000000 0.000000 0.000000
1.704616 0.523203 2.146547 0.000000 0.000000 0.000000
1.706364 0.526851 2.147950 0.000000 0.000000 0.000000
1.708172 0.533889 2.156297 0.000000 0.000000 0.000000
1.710219 0.524046 2.147647 0.000000 0.000000 0.000000
-0.179931 1.241039 2.023264 0.000000 0.000000 0.000000
-0.181499 1.241594 2.031527 0.000000 0.000000 0.000000
-0.180335 1.238090 1.995240 0.000000 0.000000 0.000000
-0.158713 1.238107 2.000899 0.000000 0.000000 0.000000
1.708875 0.528269 2.150027 0.000000 0.000000 0.000000
1.712516 0.532743 2.155856 0.000000 0.000000 0.000000
1.717684 0.530571 2.147918 0.000000 0.000000 0.000000
-0.176635 1.241951 1.996083 0.000000 0.000000 0.000000
-0.186948 1.239099 1.992946 0.000000 0.000000 0.000000
-0.171919 1.239772 1.994679 0.000000 0.000000 0.000000
1.719283 0.527622 2.150935 0.000000 0.000000 0.000000
1.718895 0.520751 2.143829 0.000000 0.000000 0.000000
1.715090 0.528772 2.144240 0.000000 0.000000 0.000000
1.709200 0.529196 2.136010 0.000000 0.000000 0.000000
-0.163353 1.242530 1.996652 0.000000 0.000000 0.000000
-0.163902 1.248983 2.000609 0.000000 0.000000 0.000000
-0.162792 1.247138 1.996870 0.000000 0.000000 0.000000
1.700287 0.528310 2.147287 0.000000 0.000000 0.000000
1.713085 0.537446 2.153035 0.000000 0.000000 0.000000
1.714569 0.546032 2.157374 0.000000 0.000000 0.000000
