ply
format ascii 1.0
comment VCGLIB generated
obj_info Generated by SPFormer!
element vertex 156
property float x
property float y
property float z
property float nx
property float ny
property float nz
end_header
1.785096 0.580547 2.193984 0.000000 0.000000 0.000000
1.774833 0.595159 2.181163 0.000000 0.000000 0.000000
1.773943 0.579563 2.195196 0.000000 0.000000 0.000000
1.761173 0.574251 2.184125 0.000000 0.000000 0.000000
1.780019 0.578483 2.199954 0.000000 0.000000 0.000000
1.789330 0.576186 2.199971 0.000000 0.000000 0.000000
1.789704 0.565975 2.185131 0.000000 0.000000 0.000000
1.788213 0.581992 2.206070 0.000000 0.000000 0.000000
1.795170 0.588287 2.201716 0.000000 0.000000 0.000000
1.783488 0.577766 2.197884 0.000000 0.000000 0.000000
1.794762 0.573190 2.204377 0.000000 0.000000 0.000000
1.761025 0.570923 2.206749 0.000000 0.000000 0.000000
1.773146 0.574079 2.187981 0.000000 0.000000 0.000000
1.783984 0.577444 2.197300 0.000000 0.000000 0.000000
1.785696 0.579738 2.207201 0.000000 0.000000 0.000000
1.777714 0.579622 2.171091 0.000000 0.000000 0.000000
1.767529 0.576624 2.194039 0.000000 0.000000 0.000000
1.780815 0.572991 2.184242 0.000000 0.000000 0.000000
1.782863 0.599346 2.166282 0.000000 0.000000 0.000000
1.773469 0.592396 2.173197 0.000000 0.000000 0.000000
1.792078 0.578215 2.208098 0.000000 0.000000 0.000000
1.800934 0.577614 2.210766 0.000000 0.000000 0.000000
1.767082 0.576787 2.211571 0.000000 0.000000 0.000000
1.799629 0.581710 2.212987 0.000000 0.000000 0.000000
1.760026 0.574539 2.206088 0.000000 0.000000 0.000000
1.777783 0.574494 2.191097 0.000000 0.000000 0.000000
1.762024 0.576078 2.194594 0.000000 0.000000 0.000000
1.790446 0.569077 2.188627 0.000000 0.000000 0.000000
1.793939 0.571979 2.207742 0.000000 0.000000 0.000000
1.790913 0.583165 2.209556 0.000000 0.000000 0.000000
1.765329 0.585350 2.178185 0.000000 0.000000 0.000000
1.761105 0.581399 2.192191 0.000000 0.000000 0.000000
1.783235 0.571102 2.187735 0.000000 0.000000 0.000000
1.786676 0.576438 2.195163 0.000000 0.000000 0.000000
1.775028 0.577964 2.199816 0.000000 0.000000 0.000000
1.788621 0.571449 2.189200 0.000000 0.000000 0.000000
1.787064 0.575185 2.208248 0.000000 0.000000 0.000000
1.799696 0.572558 2.193097 0.000000 0.000000 0.000000
1.784509 0.574615 2.208733 0.000000 0.000000 0.000000
1.787521 0.598468 2.173123 0.000000 0.000000 0.000000
1.779895 0.574687 2.188812 0.000000 0.000000 0.000000
1.775085 0.571065 2.205533 0.000000 0.000000 0.000000
1.792992 0.571401 2.199456 0.000000 0.000000 0.000000
1.768171 0.572918 2.189620 0.000000 0.000000 0.000000
1.770703 0.575545 2.194338 0.000000 0.000000 0.000000
1.765937 0.574134 2.201027 0.000000 0.000000 0.000000
1.781574 0.592590 2.173252 0.000000 0.000000 0.000000
1.806875 0.573963 2.211222 0.000000 0.000000 0.000000
1.792261 0.577854 2.197876 0.000000 0.000000 0.000000
1.778398 0.574805 2.184099 0.000000 0.000000 0.000000
1.783679 0.596775 2.161156 0.000000 0.000000 0.000000
1.787135 0.581554 2.198251 0.000000 0.000000 0.000000
1.784353 0.573789 2.190783 0.000000 0.000000 0.000000
1.767163 0.572191 2.206997 0.000000 0.000000 0.000000
1.760830 0.578629 2.185096 0.000000 0.000000 0.000000
1.764112 0.571754 2.201949 0.000000 0.000000 0.000000
1.763338 0.571641 2.194927 0.000000 0.000000 0.000000
1.772094 0.580565 2.195118 0.000000 0.000000 0.000000
1.774095 0.575115 2.171582 0.000000 0.000000 0.000000
1.794418 0.576670 2.213263 0.000000 0.000000 0.000000
1.784020 0.579553 2.191936 0.000000 0.000000 0.000000
1.770329 0.590719 2.181222 0.000000 0.000000 0.000000
1.782782 0.599687 2.175862 0.000000 0.000000 0.000000
1.805682 0.577556 2.203916 0.000000 0.000000 0.000000
1.782285 0.579861 2.193630 0.000000 0.000000 0.000000
1.760412 0.592253 2.202765 0.000000 0.000000 0.000000
1.787179 0.581931 2.204723 0.000000 0.000000 0.000000
1.809729 0.572107 2.215704 0.000000 0.000000 0.000000
1.772934 0.573223 2.187235 0.000000 0.000000 0.000000
1.800096 0.563924 2.196256 0.000000 0.000000 0.000000
1.793556 0.583372 2.198644 0.000000 0.000000 0.000000
1.804260 0.583316 2.209261 0.000000 0.000000 0.000000
1.800198 0.571328 2.211957 0.000000 0.000000 0.000000
1.806103 0.578679 2.214036 0.000000 0.000000 0.000000
1.786249 0.576003 2.205346 0.000000 0.000000 0.000000
1.771443 0.575302 2.194918 0.000000 0.000000 0.000000
1.794368 0.575956 2.193645 0.000000 0.000000 0.000000
1.762527 0.563419 2.164354 0.000000 0.000000 0.000000
1.786985 0.580590 2.205851 0.000000 0.000000 0.000000
1.803918 0.579250 2.216326 0.000000 0.000000 0.000000
1.770071 0.574411 2.187710 0.000000 0.000000 0.000000
1.773321 0.589834 2.177274 0.000000 0.000000 0.000000
1.791321 0.575449 2.215393 0.000000 0.000000 0.000000
1.765453 0.573419 2.181076 0.000000 0.000000 0.000000
1.792504 0.583209 2.213351 0.000000 0.000000 0.000000
1.796255 0.581668 2.216990 0.000000 0.000000 0.000000
1.764578 0.578296 2.200133 0.000000 0.000000 0.000000
1.762830 0.581243 2.171139 0.000000 0.000000 0.000000
1.774734 0.585812 2.168930 0.000000 0.000000 0.000000
1.760705 0.577868 2.192892 0.000000 0.000000 0.000000
1.776823 0.590952 2.175144 0.000000 0.000000 0.000000
1.787734 0.592761 2.168819 0.000000 0.000000 0.000000
1.781201 0.597679 2.179203 0.000000 0.000000 0.000000
1.782232 0.594940 2.181340 0.000000 0.000000 0.000000
1.774212 0.591738 2.176955 0.000000 0.000000 0.000000
1.781524 0.597749 2.169464 0.000000 0.000000 0.000000
1.782570 0.597740 2.177967 0.000000 0.000000 0.000000
1.787650 0.599005 2.160698 0.000000 0.000000 0.000000
1.777269 0.589721 2.170606 0.000000 0.000000 0.000000
1.772021 0.588573 2.173826 0.000000 0.000000 0.000000
1.799202 0.580838 2.217977 0.000000 0.000000 0.000000
1.792186 0.568379 2.185792 0.000000 0.000000 0.000000
1.763840 0.592526 2.202032 0.000000 0.000000 0.000000
1.766041 0.599729 2.204879 0.000000 0.000000 0.000000
1.780616 0.595358 2.175492 0.000000 0.000000 0.000000
1.788571 0.580112 2.207586 0.000000 0.000000 0.000000
1.797970 0.576639 2.216107 0.000000 0.000000 0.000000
1.787956 0.579106 2.206070 0.000000 0.000000 0.000000
1.770801 0.589842 2.167633 0.000000 0.000000 0.000000
1.790971 0.573714 2.195082 0.000000 0.000000 0.000000
1.775416 0.589987 2.173155 0.000000 0.000000 0.000000
1.799756 0.578096 2.215163 0.000000 0.000000 0.000000
1.792713 0.598276 2.160756 0.000000 0.000000 0.000000
1.792714 0.596183 2.164717 0.000000 0.000000 0.000000
1.795196 0.576496 2.221440 0.000000 0.000000 0.000000
1.772000 0.594557 2.207570 0.000000 0.000000 0.000000
1.769034 0.599362 2.205911 0.000000 0.000000 0.000000
1.767611 0.572926 2.214364 0.000000 0.000000 0.000000
1.760859 0.575117 2.198848 0.000000 0.000000 0.000000
1.763528 0.577951 2.200887 0.000000 0.000000 0.000000
1.769155 0.589388 2.169405 0.000000 0.000000 0.000000
1.774854 0.590042 2.171037 0.000000 0.000000 0.000000
1.763340 0.583998 2.168225 0.000000 0.000000 0.000000
1.774324 0.588524 2.171859 0.000000 0.000000 0.000000
1.767229 0.584784 2.170861 0.000000 0.000000 0.000000
1.762491 0.572518 2.191322 0.000000 0.000000 0.000000
1.785274 0.571520 2.192071 0.000000 0.000000 0.000000
1.778299 0.578419 2.197370 0.000000 0.000000 0.000000
1.763619 0.582622 2.174077 0.000000 0.000000 0.000000
1.761180 0.580752 2.170240 0.000000 0.000000 0.000000
1.795409 0.597736 2.172765 0.000000 0.000000 0.000000
1.777149 0.593879 2.169015 0.000000 0.000000 0.000000
1.790432 0.592742 2.178782 0.000000 0.000000 0.000000
1.782088 0.591687 2.167752 0.000000 0.000000 0.000000
1.763182 0.573905 2.214659 0.000000 0.000000 0.000000
1.796731 0.570095 2.207502 0.000000 0.000000 0.000000
1.800994 0.569093 2.207013 0.000000 0.000000 0.000000
1.802317 0.566995 2.202847 0.000000 0.000000 0.000000
1.769742 0.571305 2.204615 0.000000 0.000000 0.000000
1.806997 0.572689 2.197649 0.000000 0.000000 0.000000
1.766141 0.571145 2.199926 0.000000 0.000000 0.000000
1.780330 0.599279 2.164008 0.000000 0.000000 0.000000
1.781178 0.592073 2.163309 0.000000 0.000000 0.000000
1.774434 0.585962 2.165488 0.000000 0.000000 0.000000
1.781181 0.591841 2.170147 0.000000 0.000000 0.000000
1.814322 0.567950 2.210001 0.000000 0.000000 0.000000
1.786565 0.596210 2.164234 0.000000 0.000000 0.000000
1.788602 0.560835 2.188881 0.000000 0.000000 0.000000
1.781910 0.566511 2.183486 0.000000 0.000000 0.000000
1.782984 0.598636 2.212669 0.000000 0.000000 0.000000
1.777144 0.570400 2.185954 0.000000 0.000000 0.000000
1.791428 0.571113 2.187395 0.000000 0.000000 0.000000
1.766390 0.574407 2.206258 0.000000 0.000000 0.000000
1.784965 0.598116 2.161790 0.000000 0.000000 0.000000
1.787281 0.593218 2.163152 0.000000 0.000000 0.000000
1.782403 0.596646 2.165991 0.000000 0.000000 0.000000
