ply
format ascii 1.0
comment VCGLIB generated
obj_info Generated by SPFormer!
element vertex 137
property float x
property float y
property float z
property float nx
property float ny
property float nz
end_header
0.898450 1.020899 1.198113 0.000000 0.000000 0.000000
0.888366 1.019446 1.197386 0.000000 0.000000 0.000000
0.891622 1.018964 1.196302 0.000000 0.000000 0.000000
0.892580 1.019464 1.196195 0.000000 0.000000 0.000000
0.900156 1.017849 1.194401 0.000000 0.000000 0.000000
0.906653 1.017309 1.194493 0.000000 0.000000 0.000000
0.892139 1.017596 1.196107 0.000000 0.000000 0.000000
0.896993 1.016787 1.197442 0.000000 0.000000 0.000000
0.204155 0.653413 0.758884 0.000000 0.000000 0.000000
0.211207 0.643624 0.758754 0.000000 0.000000 0.000000
0.200589 0.660595 0.759036 0.000000 0.000000 0.000000
0.201700 0.663698 0.757810 0.000000 0.000000 0.000000
0.205351 0.646823 0.755714 0.000000 0.000000 0.000000
0.202203 0.655969 0.757338 0.000000 0.000000 0.000000
0.201581 0.662092 0.757164 0.000000 0.000000 0.000000
0.202275 0.656680 0.755558 0.000000 0.000000 0.000000
0.206029 0.642802 0.758021 0.000000 0.000000 0.000000
0.205331 0.647727 0.759032 0.000000 0.000000 0.000000
0.200831 0.662419 0.754620 0.000000 0.000000 0.000000
0.200533 0.656531 0.753404 0.000000 0.000000 0.000000
0.204077 0.652549 0.756666 0.000000 0.000000 0.000000
0.200688 0.661470 0.756925 0.000000 0.000000 0.000000
0.200144 0.670551 0.755999 0.000000 0.000000 0.000000
0.267311 0.656247 0.761969 0.000000 0.000000 0.000000
0.234322 0.670061 0.757747 0.000000 0.000000 0.000000
0.238017 0.673612 0.751309 0.000000 0.000000 0.000000
0.232133 0.669351 0.758178 0.000000 0.000000 0.000000
0.235926 0.671364 0.750611 0.000000 0.000000 0.000000
0.238315 0.653354 0.748714 0.000000 0.000000 0.000000
0.239333 0.656916 0.747752 0.000000 0.000000 0.000000
0.233420 0.663002 0.753242 0.000000 0.000000 0.000000
0.236861 0.659834 0.750381 0.000000 0.000000 0.000000
0.239279 0.671977 0.747903 0.000000 0.000000 0.000000
0.233141 0.676239 0.758405 0.000000 0.000000 0.000000
0.228465 0.673242 0.755608 0.000000 0.000000 0.000000
0.234693 0.661341 0.751746 0.000000 0.000000 0.000000
0.235785 0.664436 0.756917 0.000000 0.000000 0.000000
0.233080 0.659714 0.754781 0.000000 0.000000 0.000000
0.238898 0.670694 0.750919 0.000000 0.000000 0.000000
0.235741 0.666556 0.753044 0.000000 0.000000 0.000000
0.236905 0.665239 0.750701 0.000000 0.000000 0.000000
0.235278 0.671043 0.752217 0.000000 0.000000 0.000000
0.231090 0.673064 0.759024 0.000000 0.000000 0.000000
0.237912 0.651823 0.752440 0.000000 0.000000 0.000000
0.233983 0.664631 0.752684 0.000000 0.000000 0.000000
0.234120 0.665261 0.749864 0.000000 0.000000 0.000000
0.232414 0.664874 0.754001 0.000000 0.000000 0.000000
0.239991 0.664143 0.748562 0.000000 0.000000 0.000000
0.230016 0.672882 0.759386 0.000000 0.000000 0.000000
0.229856 0.678182 0.759401 0.000000 0.000000 0.000000
0.232622 0.678759 0.754895 0.000000 0.000000 0.000000
0.235693 0.665028 0.753205 0.000000 0.000000 0.000000
0.234104 0.662576 0.750701 0.000000 0.000000 0.000000
0.232987 0.675267 0.756204 0.000000 0.000000 0.000000
0.231239 0.672445 0.759454 0.000000 0.000000 0.000000
0.237952 0.658995 0.750151 0.000000 0.000000 0.000000
0.234723 0.661691 0.752322 0.000000 0.000000 0.000000
0.236864 0.652389 0.750756 0.000000 0.000000 0.000000
0.235818 0.659641 0.752108 0.000000 0.000000 0.000000
0.237889 0.670093 0.749661 0.000000 0.000000 0.000000
0.234606 0.666765 0.753333 0.000000 0.000000 0.000000
0.233011 0.662376 0.750811 0.000000 0.000000 0.000000
0.260226 0.643649 0.763741 0.000000 0.000000 0.000000
0.247842 0.641104 0.787893 0.000000 0.000000 0.000000
0.242035 0.646073 0.781507 0.000000 0.000000 0.000000
0.233485 0.658447 0.751821 0.000000 0.000000 0.000000
0.238199 0.677351 0.748478 0.000000 0.000000 0.000000
0.252386 0.650732 0.777420 0.000000 0.000000 0.000000
0.239594 0.676338 0.752992 0.000000 0.000000 0.000000
0.236134 0.670844 0.754205 0.000000 0.000000 0.000000
0.238868 0.661326 0.751610 0.000000 0.000000 0.000000
0.237449 0.671067 0.752773 0.000000 0.000000 0.000000
0.233693 0.658093 0.752462 0.000000 0.000000 0.000000
0.234190 0.675119 0.755944 0.000000 0.000000 0.000000
0.230050 0.672288 0.758163 0.000000 0.000000 0.000000
0.234782 0.660131 0.750615 0.000000 0.000000 0.000000
0.254274 0.644665 0.772347 0.000000 0.000000 0.000000
0.242401 0.650469 0.788067 0.000000 0.000000 0.000000
0.230761 0.668773 0.759656 0.000000 0.000000 0.000000
0.251961 0.643365 0.771819 0.000000 0.000000 0.000000
0.231567 0.673009 0.753617 0.000000 0.000000 0.000000
0.261416 0.643250 0.769801 0.000000 0.000000 0.000000
0.233669 0.666802 0.757676 0.000000 0.000000 0.000000
1.003903 0.680162 0.760383 0.000000 0.000000 0.000000
0.327321 0.598126 1.229034 0.000000 0.000000 0.000000
0.359179 0.595986 1.210582 0.000000 0.000000 0.000000
0.323048 0.590969 1.228840 0.000000 0.000000 0.000000
0.326200 0.597182 1.226602 0.000000 0.000000 0.000000
0.321006 0.593757 1.231559 0.000000 0.000000 0.000000
0.321057 0.593070 1.234208 0.000000 0.000000 0.000000
0.334368 0.598551 1.224249 0.000000 0.000000 0.000000
0.323177 0.593690 1.230998 0.000000 0.000000 0.000000
0.331397 0.597440 1.226653 0.000000 0.000000 0.000000
0.358868 0.591765 1.218134 0.000000 0.000000 0.000000
0.342496 0.599186 1.212597 0.000000 0.000000 0.000000
0.347492 0.598408 1.210319 0.000000 0.000000 0.000000
0.325103 0.598351 1.228301 0.000000 0.000000 0.000000
0.332494 0.595773 1.226349 0.000000 0.000000 0.000000
0.359667 0.589460 1.226224 0.000000 0.000000 0.000000
0.323681 0.599835 1.228025 0.000000 0.000000 0.000000
0.357836 0.594940 1.213805 0.000000 0.000000 0.000000
0.357695 0.593224 1.213681 0.000000 0.000000 0.000000
0.915252 1.003967 1.177279 0.000000 0.000000 0.000000
0.919338 1.009737 1.177795 0.000000 0.000000 0.000000
0.916491 1.001480 1.179501 0.000000 0.000000 0.000000
0.919508 1.006841 1.179152 0.000000 0.000000 0.000000
0.916043 1.008600 1.177971 0.000000 0.000000 0.000000
0.911384 1.001042 1.177423 0.000000 0.000000 0.000000
0.880203 1.032450 1.195158 0.000000 0.000000 0.000000
0.898450 1.020899 1.198113 0.000000 0.000000 0.000000
0.911804 1.036325 1.187497 0.000000 0.000000 0.000000
0.901401 1.039985 1.190764 0.000000 0.000000 0.000000
0.905843 1.020857 1.197983 0.000000 0.000000 0.000000
0.888366 1.019446 1.197386 0.000000 0.000000 0.000000
0.891622 1.018964 1.196302 0.000000 0.000000 0.000000
0.892237 1.027931 1.191660 0.000000 0.000000 0.000000
0.897261 1.029443 1.193881 0.000000 0.000000 0.000000
0.909836 1.025906 1.188483 0.000000 0.000000 0.000000
0.905829 1.031011 1.194597 0.000000 0.000000 0.000000
0.892580 1.019464 1.196195 0.000000 0.000000 0.000000
0.897798 1.021809 1.193311 0.000000 0.000000 0.000000
0.914079 1.030953 1.190342 0.000000 0.000000 0.000000
0.900156 1.017849 1.194401 0.000000 0.000000 0.000000
0.910482 1.021867 1.189835 0.000000 0.000000 0.000000
0.910574 1.038605 1.182496 0.000000 0.000000 0.000000
0.915997 1.025720 1.189675 0.000000 0.000000 0.000000
0.906653 1.017309 1.194493 0.000000 0.000000 0.000000
0.900720 1.033657 1.187711 0.000000 0.000000 0.000000
0.892139 1.017596 1.196107 0.000000 0.000000 0.000000
0.896993 1.016787 1.197442 0.000000 0.000000 0.000000
0.915534 1.025244 1.186134 0.000000 0.000000 0.000000
0.915473 1.034320 1.182940 0.000000 0.000000 0.000000
0.909288 1.022456 1.190026 0.000000 0.000000 0.000000
0.918632 1.029733 1.186355 0.000000 0.000000 0.000000
0.914616 1.029292 1.184526 0.000000 0.000000 0.000000
0.904801 1.028408 1.191770 0.000000 0.000000 0.000000
0.893438 1.038317 1.198588 0.000000 0.000000 0.000000
