ply
format ascii 1.0
comment VCGLIB generated
obj_info Generated by SPFormer!
element vertex 757
property float x
property float y
property float z
property float nx
property float ny
property float nz
end_header
0.501751 0.501514 0.680932 0.000000 0.000000 0.000000
0.507515 0.509112 0.671711 0.000000 0.000000 0.000000
0.544883 0.515303 0.696686 0.000000 0.000000 0.000000
0.507099 0.476679 0.683035 0.000000 0.000000 0.000000
0.558266 0.481295 0.702051 0.000000 0.000000 0.000000
0.545574 0.495526 0.686093 0.000000 0.000000 0.000000
0.550015 0.507281 0.699033 0.000000 0.000000 0.000000
0.553162 0.509277 0.701897 0.000000 0.000000 0.000000
0.542063 0.487077 0.690910 0.000000 0.000000 0.000000
0.512584 0.490631 0.678453 0.000000 0.000000 0.000000
0.534313 0.512267 0.680165 0.000000 0.000000 0.000000
0.504922 0.487900 0.688206 0.000000 0.000000 0.000000
0.506480 0.475177 0.690083 0.000000 0.000000 0.000000
0.540230 0.496955 0.694990 0.000000 0.000000 0.000000
0.548663 0.518924 0.695407 0.000000 0.000000 0.000000
0.516113 0.461771 0.685936 0.000000 0.000000 0.000000
0.550643 0.504499 0.691297 0.000000 0.000000 0.000000
0.527173 0.498882 0.686393 0.000000 0.000000 0.000000
0.507703 0.467798 0.682998 0.000000 0.000000 0.000000
0.517655 0.486530 0.682424 0.000000 0.000000 0.000000
0.531008 0.501842 0.678761 0.000000 0.000000 0.000000
0.543225 0.501301 0.692795 0.000000 0.000000 0.000000
0.511157 0.453223 0.686365 0.000000 0.000000 0.000000
0.547134 0.487853 0.687429 0.000000 0.000000 0.000000
0.501305 0.455278 0.686738 0.000000 0.000000 0.000000
0.507746 0.471906 0.685392 0.000000 0.000000 0.000000
0.517433 0.503247 0.680030 0.000000 0.000000 0.000000
0.495519 0.450550 0.683127 0.000000 0.000000 0.000000
0.517232 0.486468 0.684087 0.000000 0.000000 0.000000
0.532754 0.490998 0.692533 0.000000 0.000000 0.000000
0.549589 0.510899 0.691366 0.000000 0.000000 0.000000
0.502452 0.488688 0.674820 0.000000 0.000000 0.000000
0.532813 0.489968 0.687072 0.000000 0.000000 0.000000
0.497097 0.465395 0.677197 0.000000 0.000000 0.000000
0.508717 0.474032 0.685930 0.000000 0.000000 0.000000
0.498553 0.457197 0.680945 0.000000 0.000000 0.000000
0.522233 0.473049 0.687997 0.000000 0.000000 0.000000
0.512503 0.482987 0.682462 0.000000 0.000000 0.000000
0.507031 0.486932 0.677770 0.000000 0.000000 0.000000
0.532105 0.473129 0.685158 0.000000 0.000000 0.000000
0.529957 0.493009 0.680526 0.000000 0.000000 0.000000
0.523441 0.486911 0.690085 0.000000 0.000000 0.000000
0.534130 0.491083 0.688354 0.000000 0.000000 0.000000
0.554828 0.489500 0.693117 0.000000 0.000000 0.000000
0.517519 0.479112 0.688479 0.000000 0.000000 0.000000
0.519741 0.506339 0.674668 0.000000 0.000000 0.000000
0.505707 0.474669 0.691237 0.000000 0.000000 0.000000
0.538849 0.486889 0.690845 0.000000 0.000000 0.000000
0.509823 0.492196 0.675147 0.000000 0.000000 0.000000
0.511354 0.504406 0.669699 0.000000 0.000000 0.000000
0.508102 0.491272 0.673724 0.000000 0.000000 0.000000
0.495148 0.476524 0.674719 0.000000 0.000000 0.000000
0.507210 0.473777 0.694625 0.000000 0.000000 0.000000
0.553593 0.516706 0.700440 0.000000 0.000000 0.000000
0.521438 0.473001 0.687857 0.000000 0.000000 0.000000
0.501441 0.479143 0.680336 0.000000 0.000000 0.000000
0.505846 0.491861 0.675932 0.000000 0.000000 0.000000
0.518727 0.482649 0.689340 0.000000 0.000000 0.000000
0.541125 0.480193 0.688012 0.000000 0.000000 0.000000
0.496832 0.452067 0.680780 0.000000 0.000000 0.000000
0.491704 0.464164 0.678953 0.000000 0.000000 0.000000
0.522737 0.469495 0.687457 0.000000 0.000000 0.000000
0.527843 0.464528 0.683595 0.000000 0.000000 0.000000
0.516112 0.504991 0.673840 0.000000 0.000000 0.000000
0.496709 0.478008 0.675573 0.000000 0.000000 0.000000
0.546338 0.486651 0.688704 0.000000 0.000000 0.000000
0.513842 0.498893 0.677992 0.000000 0.000000 0.000000
0.500343 0.469896 0.678561 0.000000 0.000000 0.000000
0.521736 0.487877 0.687823 0.000000 0.000000 0.000000
0.502798 0.492657 0.671930 0.000000 0.000000 0.000000
0.521658 0.505703 0.675410 0.000000 0.000000 0.000000
0.496433 0.459001 0.679830 0.000000 0.000000 0.000000
0.511808 0.495776 0.674840 0.000000 0.000000 0.000000
0.520393 0.497898 0.678462 0.000000 0.000000 0.000000
0.541753 0.507271 0.701227 0.000000 0.000000 0.000000
0.546785 0.485433 0.688525 0.000000 0.000000 0.000000
0.499460 0.455425 0.678699 0.000000 0.000000 0.000000
0.502934 0.458420 0.682757 0.000000 0.000000 0.000000
0.500351 0.473993 0.673612 0.000000 0.000000 0.000000
0.520358 0.481453 0.684392 0.000000 0.000000 0.000000
0.508795 0.483543 0.678238 0.000000 0.000000 0.000000
0.509876 0.487990 0.674346 0.000000 0.000000 0.000000
0.532576 0.475241 0.690858 0.000000 0.000000 0.000000
0.535962 0.469936 0.686315 0.000000 0.000000 0.000000
0.540120 0.484755 0.692212 0.000000 0.000000 0.000000
0.544199 0.504809 0.687294 0.000000 0.000000 0.000000
0.492894 0.473211 0.674278 0.000000 0.000000 0.000000
0.513078 0.503285 0.672702 0.000000 0.000000 0.000000
0.492205 0.465484 0.677325 0.000000 0.000000 0.000000
0.501392 0.490917 0.671932 0.000000 0.000000 0.000000
0.494952 0.453456 0.685187 0.000000 0.000000 0.000000
0.501865 0.463250 0.676490 0.000000 0.000000 0.000000
0.489451 0.462449 0.675786 0.000000 0.000000 0.000000
0.512702 0.503528 0.672291 0.000000 0.000000 0.000000
0.505502 0.453854 0.681792 0.000000 0.000000 0.000000
0.494678 0.452958 0.680177 0.000000 0.000000 0.000000
0.492889 0.472146 0.673607 0.000000 0.000000 0.000000
0.509591 0.499705 0.669180 0.000000 0.000000 0.000000
0.516426 0.495635 0.678725 0.000000 0.000000 0.000000
0.489412 0.453126 0.676886 0.000000 0.000000 0.000000
0.513432 0.499256 0.673920 0.000000 0.000000 0.000000
0.502186 0.452097 0.681695 0.000000 0.000000 0.000000
0.512034 0.494757 0.669802 0.000000 0.000000 0.000000
0.484197 0.449763 0.676791 0.000000 0.000000 0.000000
0.527252 0.502761 0.679901 0.000000 0.000000 0.000000
0.504372 0.464153 0.688094 0.000000 0.000000 0.000000
0.487642 0.463141 0.675506 0.000000 0.000000 0.000000
0.502012 0.447467 0.679916 0.000000 0.000000 0.000000
0.548921 0.489179 0.691916 0.000000 0.000000 0.000000
0.498574 0.475948 0.677809 0.000000 0.000000 0.000000
0.553267 0.505896 0.691300 0.000000 0.000000 0.000000
0.545228 0.512649 0.698429 0.000000 0.000000 0.000000
0.518404 0.503731 0.674989 0.000000 0.000000 0.000000
0.519354 0.508886 0.674230 0.000000 0.000000 0.000000
0.505048 0.483316 0.677483 0.000000 0.000000 0.000000
0.546732 0.501452 0.698018 0.000000 0.000000 0.000000
0.522932 0.467614 0.689205 0.000000 0.000000 0.000000
0.527675 0.511552 0.676651 0.000000 0.000000 0.000000
0.528538 0.492469 0.694578 0.000000 0.000000 0.000000
0.499938 0.469455 0.674815 0.000000 0.000000 0.000000
0.513103 0.468366 0.686132 0.000000 0.000000 0.000000
0.506246 0.478459 0.678171 0.000000 0.000000 0.000000
0.537938 0.491444 0.691025 0.000000 0.000000 0.000000
0.531184 0.464279 0.685897 0.000000 0.000000 0.000000
0.553858 0.489188 0.693877 0.000000 0.000000 0.000000
0.505889 0.480883 0.685318 0.000000 0.000000 0.000000
0.501296 0.490904 0.671437 0.000000 0.000000 0.000000
0.519112 0.503502 0.674636 0.000000 0.000000 0.000000
0.499459 0.447844 0.679755 0.000000 0.000000 0.000000
0.539103 0.497972 0.705301 0.000000 0.000000 0.000000
0.515438 0.471265 0.687314 0.000000 0.000000 0.000000
0.516148 0.462734 0.684157 0.000000 0.000000 0.000000
0.499754 0.485823 0.673359 0.000000 0.000000 0.000000
0.537410 0.496625 0.689446 0.000000 0.000000 0.000000
0.495971 0.463326 0.680465 0.000000 0.000000 0.000000
0.504071 0.488501 0.676051 0.000000 0.000000 0.000000
0.522394 0.504706 0.676203 0.000000 0.000000 0.000000
0.513313 0.488727 0.678636 0.000000 0.000000 0.000000
0.522321 0.504052 0.674286 0.000000 0.000000 0.000000
0.533795 0.507883 0.682112 0.000000 0.000000 0.000000
0.504793 0.460760 0.682560 0.000000 0.000000 0.000000
0.551500 0.516907 0.693856 0.000000 0.000000 0.000000
0.502543 0.474955 0.683063 0.000000 0.000000 0.000000
0.491927 0.460178 0.689728 0.000000 0.000000 0.000000
0.523841 0.505009 0.686912 0.000000 0.000000 0.000000
0.513235 0.504593 0.672064 0.000000 0.000000 0.000000
0.557376 0.510754 0.702457 0.000000 0.000000 0.000000
0.500367 0.491501 0.671548 0.000000 0.000000 0.000000
0.516578 0.504734 0.671845 0.000000 0.000000 0.000000
0.527745 0.465099 0.683310 0.000000 0.000000 0.000000
0.552333 0.493086 0.700715 0.000000 0.000000 0.000000
0.503199 0.498221 0.670960 0.000000 0.000000 0.000000
0.520881 0.496660 0.675619 0.000000 0.000000 0.000000
0.510439 0.486523 0.682588 0.000000 0.000000 0.000000
0.550818 0.513911 0.701595 0.000000 0.000000 0.000000
0.540985 0.506695 0.685060 0.000000 0.000000 0.000000
0.513399 0.487469 0.687234 0.000000 0.000000 0.000000
0.531034 0.494223 0.687758 0.000000 0.000000 0.000000
0.507686 0.483501 0.671421 0.000000 0.000000 0.000000
0.501634 0.452094 0.680042 0.000000 0.000000 0.000000
0.549870 0.512680 0.693219 0.000000 0.000000 0.000000
0.493595 0.454408 0.685539 0.000000 0.000000 0.000000
0.513405 0.491663 0.679425 0.000000 0.000000 0.000000
0.538772 0.498132 0.696390 0.000000 0.000000 0.000000
0.554855 0.504853 0.697774 0.000000 0.000000 0.000000
0.558453 0.513734 0.698892 0.000000 0.000000 0.000000
0.537678 0.509993 0.684221 0.000000 0.000000 0.000000
0.512303 0.500789 0.674442 0.000000 0.000000 0.000000
0.508837 0.458495 0.682678 0.000000 0.000000 0.000000
0.553549 0.498448 0.699266 0.000000 0.000000 0.000000
0.529714 0.502640 0.688916 0.000000 0.000000 0.000000
0.547438 0.486103 0.693706 0.000000 0.000000 0.000000
0.555446 0.493349 0.696185 0.000000 0.000000 0.000000
0.553924 0.496049 0.690317 0.000000 0.000000 0.000000
0.493018 0.472272 0.675278 0.000000 0.000000 0.000000
0.487513 0.464269 0.674740 0.000000 0.000000 0.000000
0.490525 0.461465 0.676353 0.000000 0.000000 0.000000
0.502476 0.470701 0.671057 0.000000 0.000000 0.000000
0.527471 0.494636 0.686241 0.000000 0.000000 0.000000
0.556537 0.519585 0.687881 0.000000 0.000000 0.000000
0.506432 0.472644 0.684672 0.000000 0.000000 0.000000
0.558257 0.495077 0.692904 0.000000 0.000000 0.000000
0.495103 0.469528 0.677825 0.000000 0.000000 0.000000
0.552724 0.501288 0.691853 0.000000 0.000000 0.000000
0.557457 0.497978 0.688282 0.000000 0.000000 0.000000
0.559942 0.508548 0.699264 0.000000 0.000000 0.000000
0.492592 0.474417 0.674058 0.000000 0.000000 0.000000
0.500154 0.484899 0.675084 0.000000 0.000000 0.000000
0.551823 0.496773 0.688692 0.000000 0.000000 0.000000
0.500427 0.449667 0.681508 0.000000 0.000000 0.000000
0.498718 0.480047 0.677580 0.000000 0.000000 0.000000
0.534576 0.495164 0.697641 0.000000 0.000000 0.000000
0.544472 0.513683 0.703421 0.000000 0.000000 0.000000
0.496496 0.474795 0.672397 0.000000 0.000000 0.000000
0.485508 0.475062 0.677952 0.000000 0.000000 0.000000
0.500496 0.490916 0.671785 0.000000 0.000000 0.000000
0.518922 0.482931 0.695182 0.000000 0.000000 0.000000
0.521152 0.509409 0.673971 0.000000 0.000000 0.000000
0.555028 0.504030 0.703677 0.000000 0.000000 0.000000
0.550918 0.519260 0.693064 0.000000 0.000000 0.000000
0.547469 0.484572 0.688334 0.000000 0.000000 0.000000
0.526231 0.484948 0.693595 0.000000 0.000000 0.000000
0.502114 0.498216 0.668306 0.000000 0.000000 0.000000
0.525697 0.488293 0.702308 0.000000 0.000000 0.000000
0.521509 0.505631 0.674747 0.000000 0.000000 0.000000
0.522171 0.495747 0.681253 0.000000 0.000000 0.000000
0.521246 0.487867 0.688284 0.000000 0.000000 0.000000
0.521866 0.505530 0.673982 0.000000 0.000000 0.000000
0.521433 0.505788 0.674356 0.000000 0.000000 0.000000
0.528422 0.509006 0.678357 0.000000 0.000000 0.000000
0.495409 0.479587 0.672489 0.000000 0.000000 0.000000
0.555586 0.496829 0.699182 0.000000 0.000000 0.000000
0.490034 0.466012 0.675257 0.000000 0.000000 0.000000
0.556217 0.481529 0.697558 0.000000 0.000000 0.000000
0.511017 0.497154 0.675995 0.000000 0.000000 0.000000
0.503402 0.479134 0.685250 0.000000 0.000000 0.000000
0.507780 0.456259 0.681215 0.000000 0.000000 0.000000
0.537954 0.470109 0.684985 0.000000 0.000000 0.000000
0.482465 0.445690 0.680294 0.000000 0.000000 0.000000
0.494747 0.455633 0.686444 0.000000 0.000000 0.000000
0.494701 0.456782 0.673540 0.000000 0.000000 0.000000
0.487642 0.450022 0.681821 0.000000 0.000000 0.000000
0.545665 0.490244 0.694677 0.000000 0.000000 0.000000
0.525961 0.474933 0.689190 0.000000 0.000000 0.000000
0.537090 0.487626 0.691468 0.000000 0.000000 0.000000
0.543357 0.477440 0.688544 0.000000 0.000000 0.000000
0.515149 0.460888 0.681827 0.000000 0.000000 0.000000
0.539727 0.470107 0.686830 0.000000 0.000000 0.000000
0.533277 0.483369 0.687620 0.000000 0.000000 0.000000
0.558799 0.507537 0.692626 0.000000 0.000000 0.000000
0.496941 0.455763 0.691866 0.000000 0.000000 0.000000
0.521999 0.501982 0.678273 0.000000 0.000000 0.000000
0.558416 0.509181 0.703544 0.000000 0.000000 0.000000
0.526865 0.497541 0.695879 0.000000 0.000000 0.000000
0.518407 0.503929 0.674419 0.000000 0.000000 0.000000
0.557390 0.508507 0.699751 0.000000 0.000000 0.000000
0.540883 0.475720 0.685534 0.000000 0.000000 0.000000
0.548159 0.516366 0.691169 0.000000 0.000000 0.000000
0.497905 0.495113 0.676263 0.000000 0.000000 0.000000
0.527244 0.458390 0.684342 0.000000 0.000000 0.000000
0.515758 0.464582 0.685529 0.000000 0.000000 0.000000
0.520696 0.460808 0.683514 0.000000 0.000000 0.000000
0.541809 0.509900 0.687693 0.000000 0.000000 0.000000
0.517063 0.462818 0.677071 0.000000 0.000000 0.000000
0.536165 0.509455 0.683853 0.000000 0.000000 0.000000
0.518475 0.462357 0.685453 0.000000 0.000000 0.000000
0.499091 0.447014 0.682162 0.000000 0.000000 0.000000
0.535311 0.509795 0.679098 0.000000 0.000000 0.000000
0.505910 0.451478 0.679805 0.000000 0.000000 0.000000
0.556550 0.489272 0.690264 0.000000 0.000000 0.000000
0.492470 0.461592 0.672221 0.000000 0.000000 0.000000
0.516905 0.506000 0.669382 0.000000 0.000000 0.000000
0.553629 0.486749 0.690311 0.000000 0.000000 0.000000
0.525193 0.478911 0.694535 0.000000 0.000000 0.000000
0.558622 0.503773 0.703556 0.000000 0.000000 0.000000
0.506534 0.498226 0.673747 0.000000 0.000000 0.000000
0.516698 0.470559 0.686905 0.000000 0.000000 0.000000
0.501751 0.501514 0.680932 0.000000 0.000000 0.000000
0.485454 0.457990 0.673865 0.000000 0.000000 0.000000
0.522156 0.468200 0.683594 0.000000 0.000000 0.000000
0.503440 0.475432 0.687247 0.000000 0.000000 0.000000
0.555534 0.482728 0.698428 0.000000 0.000000 0.000000
0.510847 0.487273 0.682829 0.000000 0.000000 0.000000
0.556959 0.481369 0.699895 0.000000 0.000000 0.000000
0.559695 0.480290 0.697574 0.000000 0.000000 0.000000
0.500787 0.457250 0.678914 0.000000 0.000000 0.000000
0.503364 0.476986 0.673909 0.000000 0.000000 0.000000
0.529570 0.461158 0.684181 0.000000 0.000000 0.000000
0.555441 0.498599 0.696797 0.000000 0.000000 0.000000
0.526259 0.477527 0.684232 0.000000 0.000000 0.000000
0.512694 0.481110 0.695322 0.000000 0.000000 0.000000
0.511443 0.449686 0.677360 0.000000 0.000000 0.000000
0.525745 0.459131 0.683413 0.000000 0.000000 0.000000
0.535301 0.507096 0.683279 0.000000 0.000000 0.000000
0.527317 0.463698 0.685021 0.000000 0.000000 0.000000
0.497922 0.449510 0.681436 0.000000 0.000000 0.000000
0.518666 0.459781 0.684032 0.000000 0.000000 0.000000
0.536153 0.507008 0.689071 0.000000 0.000000 0.000000
0.504133 0.462798 0.680718 0.000000 0.000000 0.000000
0.555870 0.516580 0.695558 0.000000 0.000000 0.000000
0.494795 0.475666 0.672201 0.000000 0.000000 0.000000
0.506715 0.495098 0.668541 0.000000 0.000000 0.000000
0.525637 0.472707 0.687453 0.000000 0.000000 0.000000
0.515776 0.504552 0.675426 0.000000 0.000000 0.000000
0.526004 0.509572 0.679784 0.000000 0.000000 0.000000
0.540050 0.481655 0.691647 0.000000 0.000000 0.000000
0.490615 0.471158 0.674532 0.000000 0.000000 0.000000
0.511229 0.481147 0.701454 0.000000 0.000000 0.000000
0.512442 0.504352 0.673033 0.000000 0.000000 0.000000
0.501893 0.450427 0.677612 0.000000 0.000000 0.000000
0.515184 0.459949 0.684482 0.000000 0.000000 0.000000
0.493854 0.457687 0.687855 0.000000 0.000000 0.000000
0.552317 0.485520 0.697845 0.000000 0.000000 0.000000
0.493415 0.444978 0.679635 0.000000 0.000000 0.000000
0.555474 0.495144 0.686123 0.000000 0.000000 0.000000
0.506676 0.461170 0.687099 0.000000 0.000000 0.000000
0.515231 0.502740 0.673208 0.000000 0.000000 0.000000
0.515906 0.456550 0.681124 0.000000 0.000000 0.000000
0.500500 0.490863 0.672094 0.000000 0.000000 0.000000
0.512308 0.496698 0.677089 0.000000 0.000000 0.000000
0.507152 0.500598 0.670635 0.000000 0.000000 0.000000
0.515932 0.500780 0.670931 0.000000 0.000000 0.000000
0.506579 0.495327 0.678648 0.000000 0.000000 0.000000
0.506698 0.500125 0.672831 0.000000 0.000000 0.000000
0.536837 0.480476 0.688075 0.000000 0.000000 0.000000
0.522878 0.510058 0.672614 0.000000 0.000000 0.000000
0.502577 0.494406 0.671334 0.000000 0.000000 0.000000
0.498542 0.449867 0.679980 0.000000 0.000000 0.000000
0.500995 0.489584 0.671445 0.000000 0.000000 0.000000
0.513076 0.476759 0.691512 0.000000 0.000000 0.000000
0.493726 0.471427 0.676676 0.000000 0.000000 0.000000
0.552073 0.484289 0.695665 0.000000 0.000000 0.000000
0.539697 0.479669 0.695529 0.000000 0.000000 0.000000
0.509613 0.498033 0.675009 0.000000 0.000000 0.000000
0.497061 0.481787 0.672082 0.000000 0.000000 0.000000
0.513283 0.504180 0.672536 0.000000 0.000000 0.000000
0.541053 0.503356 0.701516 0.000000 0.000000 0.000000
0.548352 0.518011 0.686014 0.000000 0.000000 0.000000
0.533876 0.472723 0.688759 0.000000 0.000000 0.000000
0.540026 0.496086 0.687696 0.000000 0.000000 0.000000
0.545317 0.514294 0.687129 0.000000 0.000000 0.000000
0.494207 0.451371 0.681666 0.000000 0.000000 0.000000
0.532200 0.512331 0.680097 0.000000 0.000000 0.000000
0.518416 0.465055 0.686913 0.000000 0.000000 0.000000
0.488329 0.449363 0.684414 0.000000 0.000000 0.000000
0.484112 0.446989 0.676234 0.000000 0.000000 0.000000
0.559262 0.486725 0.697961 0.000000 0.000000 0.000000
0.557391 0.490614 0.693347 0.000000 0.000000 0.000000
0.545714 0.515222 0.690515 0.000000 0.000000 0.000000
0.557944 0.475410 0.699155 0.000000 0.000000 0.000000
0.537504 0.475553 0.685120 0.000000 0.000000 0.000000
0.522706 0.458654 0.684720 0.000000 0.000000 0.000000
0.509305 0.501311 0.673922 0.000000 0.000000 0.000000
0.511778 0.453582 0.681216 0.000000 0.000000 0.000000
0.503354 0.460538 0.685205 0.000000 0.000000 0.000000
0.530483 0.470422 0.682101 0.000000 0.000000 0.000000
0.536179 0.485665 0.684212 0.000000 0.000000 0.000000
0.530125 0.468186 0.687591 0.000000 0.000000 0.000000
0.543380 0.487695 0.690105 0.000000 0.000000 0.000000
0.489342 0.450209 0.684452 0.000000 0.000000 0.000000
0.519704 0.469646 0.686322 0.000000 0.000000 0.000000
0.531807 0.474971 0.683136 0.000000 0.000000 0.000000
0.519730 0.470353 0.687178 0.000000 0.000000 0.000000
0.540188 0.469688 0.691477 0.000000 0.000000 0.000000
0.527343 0.479102 0.689700 0.000000 0.000000 0.000000
0.554668 0.478179 0.699120 0.000000 0.000000 0.000000
0.520558 0.464767 0.686171 0.000000 0.000000 0.000000
0.523746 0.465123 0.686714 0.000000 0.000000 0.000000
0.531734 0.476638 0.689295 0.000000 0.000000 0.000000
0.488987 0.467179 0.673697 0.000000 0.000000 0.000000
0.507507 0.452252 0.683798 0.000000 0.000000 0.000000
0.537677 0.514226 0.683912 0.000000 0.000000 0.000000
0.540041 0.514431 0.685077 0.000000 0.000000 0.000000
0.553560 0.487746 0.685879 0.000000 0.000000 0.000000
0.515502 0.507698 0.668939 0.000000 0.000000 0.000000
0.522151 0.507319 0.673865 0.000000 0.000000 0.000000
0.519988 0.506394 0.672239 0.000000 0.000000 0.000000
0.514417 0.506503 0.670625 0.000000 0.000000 0.000000
0.539499 0.471439 0.686105 0.000000 0.000000 0.000000
0.526898 0.457019 0.683513 0.000000 0.000000 0.000000
0.530898 0.467377 0.681247 0.000000 0.000000 0.000000
0.537699 0.482598 0.682849 0.000000 0.000000 0.000000
0.494418 0.478713 0.672906 0.000000 0.000000 0.000000
0.499471 0.450789 0.681432 0.000000 0.000000 0.000000
0.492004 0.469089 0.675498 0.000000 0.000000 0.000000
0.525320 0.510506 0.673722 0.000000 0.000000 0.000000
0.550045 0.481771 0.692839 0.000000 0.000000 0.000000
0.498854 0.490484 0.671157 0.000000 0.000000 0.000000
0.504482 0.496197 0.670998 0.000000 0.000000 0.000000
0.493437 0.449405 0.673330 0.000000 0.000000 0.000000
0.519178 0.468177 0.687403 0.000000 0.000000 0.000000
0.521208 0.508217 0.690694 0.000000 0.000000 0.000000
0.531664 0.512528 0.679457 0.000000 0.000000 0.000000
0.511843 0.504033 0.671206 0.000000 0.000000 0.000000
0.535102 0.514404 0.679613 0.000000 0.000000 0.000000
0.538425 0.513641 0.687067 0.000000 0.000000 0.000000
0.547923 0.515062 0.696467 0.000000 0.000000 0.000000
0.534710 0.513483 0.679660 0.000000 0.000000 0.000000
0.531530 0.509973 0.678686 0.000000 0.000000 0.000000
0.527590 0.511637 0.675335 0.000000 0.000000 0.000000
0.537801 0.512990 0.682611 0.000000 0.000000 0.000000
0.484570 0.453663 0.674993 0.000000 0.000000 0.000000
0.510972 0.467709 0.681785 0.000000 0.000000 0.000000
0.496928 0.480135 0.675062 0.000000 0.000000 0.000000
0.484479 0.448760 0.680311 0.000000 0.000000 0.000000
0.525968 0.461657 0.684585 0.000000 0.000000 0.000000
0.479239 0.447284 0.683081 0.000000 0.000000 0.000000
0.504796 0.455145 0.677264 0.000000 0.000000 0.000000
0.501033 0.478110 0.696634 0.000000 0.000000 0.000000
0.498668 0.487552 0.673272 0.000000 0.000000 0.000000
0.487061 0.455148 0.675646 0.000000 0.000000 0.000000
0.498700 0.462629 0.683907 0.000000 0.000000 0.000000
0.512874 0.450173 0.680186 0.000000 0.000000 0.000000
0.488087 0.450487 0.679488 0.000000 0.000000 0.000000
0.501731 0.491674 0.670960 0.000000 0.000000 0.000000
0.484719 0.442906 0.678537 0.000000 0.000000 0.000000
0.519626 0.482338 0.679379 0.000000 0.000000 0.000000
0.490140 0.450854 0.684085 0.000000 0.000000 0.000000
0.498044 0.450516 0.682035 0.000000 0.000000 0.000000
0.507465 0.457296 0.681934 0.000000 0.000000 0.000000
0.518503 0.471833 0.676476 0.000000 0.000000 0.000000
0.494723 0.449391 0.681603 0.000000 0.000000 0.000000
0.517278 0.456239 0.685519 0.000000 0.000000 0.000000
0.489533 0.471867 0.672787 0.000000 0.000000 0.000000
0.507119 0.494973 0.670682 0.000000 0.000000 0.000000
0.498879 0.480387 0.671356 0.000000 0.000000 0.000000
0.502884 0.495408 0.672841 0.000000 0.000000 0.000000
0.502113 0.490161 0.672764 0.000000 0.000000 0.000000
0.493254 0.469280 0.676591 0.000000 0.000000 0.000000
0.505059 0.493218 0.674210 0.000000 0.000000 0.000000
0.496155 0.474222 0.678569 0.000000 0.000000 0.000000
0.496556 0.483123 0.672347 0.000000 0.000000 0.000000
0.502036 0.487378 0.673048 0.000000 0.000000 0.000000
0.517312 0.451727 0.682302 0.000000 0.000000 0.000000
0.504680 0.486331 0.678219 0.000000 0.000000 0.000000
0.502673 0.493821 0.671365 0.000000 0.000000 0.000000
0.501076 0.481687 0.680493 0.000000 0.000000 0.000000
0.500324 0.487246 0.673513 0.000000 0.000000 0.000000
0.503419 0.480439 0.680122 0.000000 0.000000 0.000000
0.498459 0.479561 0.676185 0.000000 0.000000 0.000000
0.500361 0.476847 0.676322 0.000000 0.000000 0.000000
0.503664 0.493062 0.675382 0.000000 0.000000 0.000000
0.497599 0.471628 0.681274 0.000000 0.000000 0.000000
0.502728 0.491800 0.672434 0.000000 0.000000 0.000000
0.497829 0.451741 0.678699 0.000000 0.000000 0.000000
0.493968 0.480317 0.673035 0.000000 0.000000 0.000000
0.488150 0.451106 0.687656 0.000000 0.000000 0.000000
0.550511 0.478768 0.694705 0.000000 0.000000 0.000000
0.504315 0.485722 0.668501 0.000000 0.000000 0.000000
0.489709 0.456288 0.676439 0.000000 0.000000 0.000000
0.485368 0.446659 0.679129 0.000000 0.000000 0.000000
0.505009 0.490800 0.677904 0.000000 0.000000 0.000000
0.508169 0.497056 0.674945 0.000000 0.000000 0.000000
0.500308 0.487716 0.673497 0.000000 0.000000 0.000000
0.493926 0.464094 0.674482 0.000000 0.000000 0.000000
0.497883 0.447839 0.683805 0.000000 0.000000 0.000000
0.521685 0.508394 0.673596 0.000000 0.000000 0.000000
0.532087 0.497457 0.696443 0.000000 0.000000 0.000000
0.490158 0.454760 0.688697 0.000000 0.000000 0.000000
0.498936 0.454862 0.681898 0.000000 0.000000 0.000000
0.503471 0.495590 0.671506 0.000000 0.000000 0.000000
0.536048 0.475117 0.687383 0.000000 0.000000 0.000000
0.502762 0.491652 0.673926 0.000000 0.000000 0.000000
0.502333 0.493541 0.672914 0.000000 0.000000 0.000000
0.501594 0.491999 0.672060 0.000000 0.000000 0.000000
0.499103 0.488633 0.672214 0.000000 0.000000 0.000000
0.498792 0.489290 0.670315 0.000000 0.000000 0.000000
0.487432 0.446690 0.679568 0.000000 0.000000 0.000000
0.489812 0.449054 0.683257 0.000000 0.000000 0.000000
0.501191 0.485252 0.679890 0.000000 0.000000 0.000000
0.489079 0.452078 0.686027 0.000000 0.000000 0.000000
0.515929 0.460512 0.676479 0.000000 0.000000 0.000000
0.501418 0.450482 0.679782 0.000000 0.000000 0.000000
0.503121 0.451388 0.680096 0.000000 0.000000 0.000000
0.505125 0.445670 0.678813 0.000000 0.000000 0.000000
0.504330 0.462722 0.686128 0.000000 0.000000 0.000000
0.495753 0.455729 0.678354 0.000000 0.000000 0.000000
0.503354 0.453500 0.680715 0.000000 0.000000 0.000000
0.508298 0.455568 0.684602 0.000000 0.000000 0.000000
0.509796 0.450010 0.679857 0.000000 0.000000 0.000000
0.514996 0.454033 0.683999 0.000000 0.000000 0.000000
0.509519 0.454219 0.680290 0.000000 0.000000 0.000000
0.555214 0.516209 0.700698 0.000000 0.000000 0.000000
0.509425 0.459815 0.683352 0.000000 0.000000 0.000000
0.519025 0.459896 0.684468 0.000000 0.000000 0.000000
0.515154 0.507022 0.669995 0.000000 0.000000 0.000000
0.496549 0.446311 0.679483 0.000000 0.000000 0.000000
0.515891 0.449815 0.680744 0.000000 0.000000 0.000000
0.488565 0.447811 0.673773 0.000000 0.000000 0.000000
0.521041 0.456675 0.683533 0.000000 0.000000 0.000000
0.512609 0.457718 0.683985 0.000000 0.000000 0.000000
0.520497 0.507252 0.671641 0.000000 0.000000 0.000000
0.504997 0.484861 0.672193 0.000000 0.000000 0.000000
0.518766 0.507617 0.670562 0.000000 0.000000 0.000000
0.502158 0.492781 0.672523 0.000000 0.000000 0.000000
0.511158 0.497610 0.675310 0.000000 0.000000 0.000000
0.503915 0.495260 0.671957 0.000000 0.000000 0.000000
0.510323 0.503145 0.668968 0.000000 0.000000 0.000000
0.511044 0.501746 0.675067 0.000000 0.000000 0.000000
0.502435 0.494738 0.669422 0.000000 0.000000 0.000000
0.518166 0.505654 0.671119 0.000000 0.000000 0.000000
0.501430 0.479685 0.677401 0.000000 0.000000 0.000000
0.497028 0.448351 0.682586 0.000000 0.000000 0.000000
0.507994 0.447962 0.678595 0.000000 0.000000 0.000000
0.484794 0.470393 0.677229 0.000000 0.000000 0.000000
0.505609 0.471665 0.694787 0.000000 0.000000 0.000000
0.519029 0.498111 0.685692 0.000000 0.000000 0.000000
0.513472 0.484249 0.690487 0.000000 0.000000 0.000000
0.515363 0.507640 0.670229 0.000000 0.000000 0.000000
0.548181 0.478315 0.693827 0.000000 0.000000 0.000000
0.547578 0.478834 0.692527 0.000000 0.000000 0.000000
0.515354 0.508510 0.669724 0.000000 0.000000 0.000000
0.537318 0.489685 0.697834 0.000000 0.000000 0.000000
0.513733 0.457238 0.685397 0.000000 0.000000 0.000000
0.535373 0.464272 0.686772 0.000000 0.000000 0.000000
0.510867 0.502177 0.668843 0.000000 0.000000 0.000000
0.531378 0.463803 0.684679 0.000000 0.000000 0.000000
0.502392 0.451955 0.679951 0.000000 0.000000 0.000000
0.501033 0.485710 0.670675 0.000000 0.000000 0.000000
0.515613 0.460493 0.684087 0.000000 0.000000 0.000000
0.503894 0.458532 0.676646 0.000000 0.000000 0.000000
0.533179 0.463327 0.684423 0.000000 0.000000 0.000000
0.543341 0.472244 0.691406 0.000000 0.000000 0.000000
0.528169 0.460156 0.684071 0.000000 0.000000 0.000000
0.520110 0.456311 0.684964 0.000000 0.000000 0.000000
0.504150 0.451995 0.681246 0.000000 0.000000 0.000000
0.524436 0.462049 0.686018 0.000000 0.000000 0.000000
0.526610 0.460392 0.683907 0.000000 0.000000 0.000000
0.506729 0.458936 0.679800 0.000000 0.000000 0.000000
0.513647 0.505462 0.670818 0.000000 0.000000 0.000000
0.500528 0.452416 0.679914 0.000000 0.000000 0.000000
0.489680 0.450898 0.676652 0.000000 0.000000 0.000000
0.500638 0.490721 0.670880 0.000000 0.000000 0.000000
0.524472 0.471548 0.687622 0.000000 0.000000 0.000000
0.525486 0.467263 0.687671 0.000000 0.000000 0.000000
0.490944 0.482650 0.674694 0.000000 0.000000 0.000000
0.532221 0.511488 0.680557 0.000000 0.000000 0.000000
0.522350 0.505915 0.678102 0.000000 0.000000 0.000000
0.529112 0.505662 0.683377 0.000000 0.000000 0.000000
0.522883 0.508552 0.680610 0.000000 0.000000 0.000000
0.539864 0.509913 0.695509 0.000000 0.000000 0.000000
0.527987 0.510087 0.684327 0.000000 0.000000 0.000000
0.522306 0.516834 0.677279 0.000000 0.000000 0.000000
0.489255 0.461735 0.674963 0.000000 0.000000 0.000000
0.481241 0.442559 0.680844 0.000000 0.000000 0.000000
0.488028 0.449854 0.682524 0.000000 0.000000 0.000000
0.491043 0.452188 0.684784 0.000000 0.000000 0.000000
0.552029 0.501964 0.688690 0.000000 0.000000 0.000000
0.520478 0.509093 0.671161 0.000000 0.000000 0.000000
0.542061 0.475374 0.687705 0.000000 0.000000 0.000000
0.529671 0.498477 0.700712 0.000000 0.000000 0.000000
0.547335 0.479593 0.683771 0.000000 0.000000 0.000000
0.523278 0.453517 0.684015 0.000000 0.000000 0.000000
0.540234 0.466495 0.687804 0.000000 0.000000 0.000000
0.521630 0.452900 0.681200 0.000000 0.000000 0.000000
0.558831 0.506973 0.696684 0.000000 0.000000 0.000000
0.526036 0.488451 0.697340 0.000000 0.000000 0.000000
0.547689 0.486371 0.690809 0.000000 0.000000 0.000000
0.544091 0.477456 0.683752 0.000000 0.000000 0.000000
0.543527 0.486266 0.694713 0.000000 0.000000 0.000000
0.558044 0.502867 0.692984 0.000000 0.000000 0.000000
0.541774 0.502211 0.700788 0.000000 0.000000 0.000000
0.524001 0.486206 0.697532 0.000000 0.000000 0.000000
0.557457 0.483700 0.697365 0.000000 0.000000 0.000000
0.544306 0.474855 0.690527 0.000000 0.000000 0.000000
0.521596 0.474566 0.697657 0.000000 0.000000 0.000000
0.553290 0.511436 0.701299 0.000000 0.000000 0.000000
0.559361 0.497843 0.699236 0.000000 0.000000 0.000000
0.550748 0.487569 0.682901 0.000000 0.000000 0.000000
0.553947 0.491908 0.691414 0.000000 0.000000 0.000000
0.553723 0.495082 0.689502 0.000000 0.000000 0.000000
0.559428 0.512323 0.700246 0.000000 0.000000 0.000000
0.531352 0.494242 0.700054 0.000000 0.000000 0.000000
0.551893 0.499883 0.696840 0.000000 0.000000 0.000000
0.540288 0.476017 0.689836 0.000000 0.000000 0.000000
0.541961 0.481172 0.684968 0.000000 0.000000 0.000000
0.517023 0.508172 0.668496 0.000000 0.000000 0.000000
0.520344 0.496563 0.693185 0.000000 0.000000 0.000000
0.522719 0.505256 0.674738 0.000000 0.000000 0.000000
0.491073 0.475309 0.673425 0.000000 0.000000 0.000000
0.488774 0.467137 0.673353 0.000000 0.000000 0.000000
0.491929 0.444765 0.679712 0.000000 0.000000 0.000000
0.516939 0.507614 0.671678 0.000000 0.000000 0.000000
0.527693 0.494408 0.700347 0.000000 0.000000 0.000000
0.489375 0.465444 0.676806 0.000000 0.000000 0.000000
0.524471 0.508320 0.673860 0.000000 0.000000 0.000000
0.555880 0.473588 0.695929 0.000000 0.000000 0.000000
0.530900 0.496811 0.701457 0.000000 0.000000 0.000000
0.522688 0.494301 0.690644 0.000000 0.000000 0.000000
0.514860 0.511089 0.669901 0.000000 0.000000 0.000000
0.516867 0.485752 0.692077 0.000000 0.000000 0.000000
0.526265 0.492171 0.698634 0.000000 0.000000 0.000000
0.546466 0.502512 0.693095 0.000000 0.000000 0.000000
0.513772 0.481226 0.698954 0.000000 0.000000 0.000000
0.549676 0.514466 0.705294 0.000000 0.000000 0.000000
0.533642 0.508954 0.695801 0.000000 0.000000 0.000000
0.509377 0.508457 0.669991 0.000000 0.000000 0.000000
0.542671 0.509252 0.699815 0.000000 0.000000 0.000000
0.522612 0.483669 0.691266 0.000000 0.000000 0.000000
0.524370 0.484892 0.695482 0.000000 0.000000 0.000000
0.510031 0.503810 0.666743 0.000000 0.000000 0.000000
0.535110 0.508261 0.690061 0.000000 0.000000 0.000000
0.526847 0.495519 0.698118 0.000000 0.000000 0.000000
0.529440 0.496020 0.698141 0.000000 0.000000 0.000000
0.531718 0.505960 0.698843 0.000000 0.000000 0.000000
0.521043 0.506314 0.673710 0.000000 0.000000 0.000000
0.556532 0.494736 0.698681 0.000000 0.000000 0.000000
0.509075 0.503788 0.669212 0.000000 0.000000 0.000000
0.519794 0.506531 0.673389 0.000000 0.000000 0.000000
0.503601 0.490990 0.675916 0.000000 0.000000 0.000000
0.515510 0.502181 0.673343 0.000000 0.000000 0.000000
0.501184 0.455801 0.676368 0.000000 0.000000 0.000000
0.486699 0.462764 0.674349 0.000000 0.000000 0.000000
0.513281 0.505364 0.671725 0.000000 0.000000 0.000000
0.522722 0.504717 0.675420 0.000000 0.000000 0.000000
0.497135 0.449983 0.682014 0.000000 0.000000 0.000000
0.512180 0.502789 0.670685 0.000000 0.000000 0.000000
0.533052 0.512779 0.679715 0.000000 0.000000 0.000000
0.508112 0.452429 0.678153 0.000000 0.000000 0.000000
0.510785 0.503282 0.669489 0.000000 0.000000 0.000000
0.531641 0.515375 0.688031 0.000000 0.000000 0.000000
0.520186 0.507443 0.672728 0.000000 0.000000 0.000000
0.513417 0.504479 0.670797 0.000000 0.000000 0.000000
0.518309 0.509644 0.672421 0.000000 0.000000 0.000000
0.501401 0.465393 0.690816 0.000000 0.000000 0.000000
0.517984 0.509737 0.670973 0.000000 0.000000 0.000000
0.545765 0.513399 0.701671 0.000000 0.000000 0.000000
0.505531 0.459854 0.685669 0.000000 0.000000 0.000000
0.520599 0.459904 0.684256 0.000000 0.000000 0.000000
0.516610 0.509642 0.672149 0.000000 0.000000 0.000000
0.487264 0.456673 0.676383 0.000000 0.000000 0.000000
0.499552 0.487042 0.673398 0.000000 0.000000 0.000000
0.529485 0.457384 0.682786 0.000000 0.000000 0.000000
0.531485 0.463726 0.683928 0.000000 0.000000 0.000000
0.527028 0.457754 0.683081 0.000000 0.000000 0.000000
0.510767 0.463322 0.685129 0.000000 0.000000 0.000000
0.540237 0.474676 0.690566 0.000000 0.000000 0.000000
0.532005 0.461496 0.684365 0.000000 0.000000 0.000000
0.495820 0.467022 0.681722 0.000000 0.000000 0.000000
0.497328 0.466044 0.685070 0.000000 0.000000 0.000000
0.528893 0.471077 0.685069 0.000000 0.000000 0.000000
0.497888 0.463015 0.688626 0.000000 0.000000 0.000000
0.538165 0.466320 0.684405 0.000000 0.000000 0.000000
0.482335 0.451166 0.676761 0.000000 0.000000 0.000000
0.535786 0.466501 0.685245 0.000000 0.000000 0.000000
0.534468 0.469525 0.684608 0.000000 0.000000 0.000000
0.536711 0.461405 0.685953 0.000000 0.000000 0.000000
0.502703 0.475728 0.681653 0.000000 0.000000 0.000000
0.503179 0.466836 0.686996 0.000000 0.000000 0.000000
0.509608 0.458631 0.683178 0.000000 0.000000 0.000000
0.529000 0.472864 0.686130 0.000000 0.000000 0.000000
0.532372 0.463192 0.685088 0.000000 0.000000 0.000000
0.481324 0.458696 0.678880 0.000000 0.000000 0.000000
0.541150 0.467620 0.686058 0.000000 0.000000 0.000000
0.541567 0.508302 0.697954 0.000000 0.000000 0.000000
0.490670 0.452675 0.685623 0.000000 0.000000 0.000000
0.486814 0.460374 0.674637 0.000000 0.000000 0.000000
0.500227 0.486187 0.671529 0.000000 0.000000 0.000000
0.516584 0.508395 0.670173 0.000000 0.000000 0.000000
0.506914 0.505067 0.670529 0.000000 0.000000 0.000000
0.535834 0.504210 0.703117 0.000000 0.000000 0.000000
0.551220 0.516253 0.701769 0.000000 0.000000 0.000000
0.499444 0.482747 0.674557 0.000000 0.000000 0.000000
0.506562 0.471066 0.692218 0.000000 0.000000 0.000000
0.546246 0.509146 0.702395 0.000000 0.000000 0.000000
0.533787 0.512838 0.698121 0.000000 0.000000 0.000000
0.534998 0.500006 0.695515 0.000000 0.000000 0.000000
0.545434 0.508450 0.704050 0.000000 0.000000 0.000000
0.538300 0.506433 0.703698 0.000000 0.000000 0.000000
0.536531 0.499309 0.700157 0.000000 0.000000 0.000000
0.494851 0.478890 0.673606 0.000000 0.000000 0.000000
0.506029 0.469831 0.692232 0.000000 0.000000 0.000000
0.541244 0.504396 0.697553 0.000000 0.000000 0.000000
0.532319 0.511890 0.705224 0.000000 0.000000 0.000000
0.540629 0.511302 0.699637 0.000000 0.000000 0.000000
0.539584 0.510252 0.700492 0.000000 0.000000 0.000000
0.538369 0.504766 0.702592 0.000000 0.000000 0.000000
0.491227 0.470917 0.672665 0.000000 0.000000 0.000000
0.497758 0.487235 0.672726 0.000000 0.000000 0.000000
0.486621 0.463531 0.672594 0.000000 0.000000 0.000000
0.498133 0.477506 0.672304 0.000000 0.000000 0.000000
0.484462 0.461978 0.676361 0.000000 0.000000 0.000000
0.552000 0.484954 0.687363 0.000000 0.000000 0.000000
0.556732 0.490553 0.685814 0.000000 0.000000 0.000000
0.556115 0.482196 0.690707 0.000000 0.000000 0.000000
0.505054 0.471039 0.690938 0.000000 0.000000 0.000000
0.502032 0.492646 0.671253 0.000000 0.000000 0.000000
0.488219 0.463001 0.677597 0.000000 0.000000 0.000000
0.506355 0.447655 0.684914 0.000000 0.000000 0.000000
0.483220 0.448681 0.677630 0.000000 0.000000 0.000000
0.501226 0.466922 0.692317 0.000000 0.000000 0.000000
0.496592 0.490338 0.675154 0.000000 0.000000 0.000000
0.509264 0.502196 0.669069 0.000000 0.000000 0.000000
0.510794 0.472990 0.693198 0.000000 0.000000 0.000000
0.519497 0.459627 0.678030 0.000000 0.000000 0.000000
0.515390 0.463071 0.680693 0.000000 0.000000 0.000000
0.507515 0.509112 0.671711 0.000000 0.000000 0.000000
0.555824 0.516728 0.673720 0.000000 0.000000 0.000000
0.534231 0.516664 0.679915 0.000000 0.000000 0.000000
0.496831 0.466746 0.687660 0.000000 0.000000 0.000000
0.545765 0.516887 0.686156 0.000000 0.000000 0.000000
0.511048 0.479137 0.686692 0.000000 0.000000 0.000000
0.498291 0.456193 0.683023 0.000000 0.000000 0.000000
0.498007 0.463411 0.687899 0.000000 0.000000 0.000000
0.553420 0.517739 0.676170 0.000000 0.000000 0.000000
0.534848 0.517025 0.679608 0.000000 0.000000 0.000000
0.495798 0.465410 0.692865 0.000000 0.000000 0.000000
0.531654 0.512131 0.675487 0.000000 0.000000 0.000000
0.498136 0.464131 0.682693 0.000000 0.000000 0.000000
0.494806 0.467108 0.689039 0.000000 0.000000 0.000000
0.500612 0.466335 0.689769 0.000000 0.000000 0.000000
0.499354 0.469940 0.681084 0.000000 0.000000 0.000000
0.508715 0.496646 0.674018 0.000000 0.000000 0.000000
0.517615 0.509619 0.675005 0.000000 0.000000 0.000000
0.490861 0.458052 0.679065 0.000000 0.000000 0.000000
0.492738 0.445064 0.682337 0.000000 0.000000 0.000000
0.500100 0.497402 0.670960 0.000000 0.000000 0.000000
0.484436 0.452851 0.677109 0.000000 0.000000 0.000000
0.518180 0.454261 0.681025 0.000000 0.000000 0.000000
0.515463 0.510672 0.672430 0.000000 0.000000 0.000000
0.521809 0.508825 0.670637 0.000000 0.000000 0.000000
0.501878 0.472876 0.681591 0.000000 0.000000 0.000000
0.500505 0.488445 0.672986 0.000000 0.000000 0.000000
0.493116 0.467986 0.673774 0.000000 0.000000 0.000000
0.496957 0.450353 0.685782 0.000000 0.000000 0.000000
0.499759 0.454083 0.679519 0.000000 0.000000 0.000000
0.489440 0.445402 0.679256 0.000000 0.000000 0.000000
0.535999 0.513140 0.679516 0.000000 0.000000 0.000000
0.490275 0.449436 0.681754 0.000000 0.000000 0.000000
0.498668 0.487080 0.673886 0.000000 0.000000 0.000000
0.490767 0.444470 0.675527 0.000000 0.000000 0.000000
0.503798 0.470123 0.693797 0.000000 0.000000 0.000000
0.491366 0.455638 0.687947 0.000000 0.000000 0.000000
0.493146 0.461848 0.680883 0.000000 0.000000 0.000000
0.495990 0.462142 0.690235 0.000000 0.000000 0.000000
0.491354 0.458021 0.686829 0.000000 0.000000 0.000000
0.489728 0.453358 0.680850 0.000000 0.000000 0.000000
0.499214 0.462937 0.687956 0.000000 0.000000 0.000000
0.486333 0.449791 0.683622 0.000000 0.000000 0.000000
0.500219 0.487044 0.674018 0.000000 0.000000 0.000000
0.485199 0.473412 0.680457 0.000000 0.000000 0.000000
0.499660 0.491671 0.673030 0.000000 0.000000 0.000000
0.483272 0.454215 0.675772 0.000000 0.000000 0.000000
0.505150 0.492496 0.671760 0.000000 0.000000 0.000000
0.492437 0.473875 0.674679 0.000000 0.000000 0.000000
0.502617 0.449745 0.680599 0.000000 0.000000 0.000000
0.497216 0.488915 0.669340 0.000000 0.000000 0.000000
0.513647 0.510866 0.665590 0.000000 0.000000 0.000000
0.501713 0.495883 0.666828 0.000000 0.000000 0.000000
0.507485 0.500456 0.667758 0.000000 0.000000 0.000000
0.515836 0.508919 0.672033 0.000000 0.000000 0.000000
0.512999 0.501457 0.678934 0.000000 0.000000 0.000000
0.505251 0.497490 0.670605 0.000000 0.000000 0.000000
0.515152 0.505591 0.673140 0.000000 0.000000 0.000000
0.485701 0.467497 0.675941 0.000000 0.000000 0.000000
0.522608 0.505858 0.674540 0.000000 0.000000 0.000000
0.490792 0.472265 0.673620 0.000000 0.000000 0.000000
0.516664 0.505529 0.671840 0.000000 0.000000 0.000000
0.518015 0.507340 0.669313 0.000000 0.000000 0.000000
0.496628 0.485096 0.672827 0.000000 0.000000 0.000000
0.521226 0.510265 0.669921 0.000000 0.000000 0.000000
0.485367 0.452308 0.678198 0.000000 0.000000 0.000000
0.493303 0.469483 0.694130 0.000000 0.000000 0.000000
0.496846 0.485774 0.670378 0.000000 0.000000 0.000000
0.524406 0.513514 0.679470 0.000000 0.000000 0.000000
0.499170 0.445638 0.679199 0.000000 0.000000 0.000000
0.514316 0.510053 0.671351 0.000000 0.000000 0.000000
0.516484 0.505154 0.671151 0.000000 0.000000 0.000000
0.519232 0.508200 0.670215 0.000000 0.000000 0.000000
0.538762 0.467334 0.687100 0.000000 0.000000 0.000000
0.524708 0.513089 0.670589 0.000000 0.000000 0.000000
0.516387 0.509861 0.667730 0.000000 0.000000 0.000000
0.505769 0.497770 0.671198 0.000000 0.000000 0.000000
0.519635 0.501842 0.678482 0.000000 0.000000 0.000000
0.559459 0.454373 0.681049 0.000000 0.000000 0.000000
0.557323 0.480984 0.675898 0.000000 0.000000 0.000000
0.557717 0.482931 0.682254 0.000000 0.000000 0.000000
