ply
format ascii 1.0
comment VCGLIB generated
obj_info Generated by SPFormer!
element vertex 30
property float x
property float y
property float z
property float nx
property float ny
property float nz
end_header
0.652778 0.371984 1.437008 0.000000 0.000000 0.000000
0.652645 0.366516 1.417663 0.000000 0.000000 0.000000
0.649906 0.361578 1.422483 0.000000 0.000000 0.000000
0.646070 0.365507 1.405953 0.000000 0.000000 0.000000
0.649671 0.366591 1.411069 0.000000 0.000000 0.000000
0.652925 0.362711 1.425292 0.000000 0.000000 0.000000
0.652439 0.360356 1.416841 0.000000 0.000000 0.000000
0.650423 0.363094 1.406724 0.000000 0.000000 0.000000
0.643086 0.361451 1.402696 0.000000 0.000000 0.000000
0.651918 0.363424 1.420743 0.000000 0.000000 0.000000
0.652465 0.372998 1.433478 0.000000 0.000000 0.000000
0.654251 0.362403 1.412351 0.000000 0.000000 0.000000
0.653052 0.362535 1.419209 0.000000 0.000000 0.000000
0.655790 0.372010 1.433841 0.000000 0.000000 0.000000
0.641526 0.365867 1.436059 0.000000 0.000000 0.000000
0.652829 0.364817 1.414640 0.000000 0.000000 0.000000
0.636986 0.397491 1.486402 0.000000 0.000000 0.000000
0.648630 0.365303 1.409955 0.000000 0.000000 0.000000
0.638125 0.386685 1.485367 0.000000 0.000000 0.000000
0.650421 0.366673 1.432092 0.000000 0.000000 0.000000
0.644368 0.361687 1.402053 0.000000 0.000000 0.000000
0.637438 0.392010 1.482432 0.000000 0.000000 0.000000
0.656498 0.362660 1.410300 0.000000 0.000000 0.000000
0.641184 0.370613 1.419956 0.000000 0.000000 0.000000
0.644449 0.383428 1.439292 0.000000 0.000000 0.000000
0.643358 0.362247 1.422921 0.000000 0.000000 0.000000
0.645046 0.370145 1.425083 0.000000 0.000000 0.000000
0.641733 0.360914 1.413097 0.000000 0.000000 0.000000
0.641116 0.368506 1.403746 0.000000 0.000000 0.000000
0.679805 0.367712 1.437768 0.000000 0.000000 0.000000
