ply
format ascii 1.0
comment VCGLIB generated
obj_info Generated by SPFormer!
element vertex 401
property float x
property float y
property float z
property float nx
property float ny
property float nz
end_header
0.584782 0.781685 2.271023 0.000000 0.000000 0.000000
0.634901 0.752329 2.260814 0.000000 0.000000 0.000000
0.636517 0.745279 2.268483 0.000000 0.000000 0.000000
0.651276 0.768735 2.254738 0.000000 0.000000 0.000000
0.571415 0.786402 2.277957 0.000000 0.000000 0.000000
0.621181 0.772996 2.257737 0.000000 0.000000 0.000000
0.629160 0.761768 2.267058 0.000000 0.000000 0.000000
0.622723 0.757612 2.257452 0.000000 0.000000 0.000000
0.573570 0.794887 2.271037 0.000000 0.000000 0.000000
0.587894 0.789220 2.272730 0.000000 0.000000 0.000000
0.612662 0.752833 2.268139 0.000000 0.000000 0.000000
0.596304 0.773833 2.258960 0.000000 0.000000 0.000000
0.576578 0.803687 2.271829 0.000000 0.000000 0.000000
0.575026 0.804593 2.266542 0.000000 0.000000 0.000000
0.585854 0.770990 2.269487 0.000000 0.000000 0.000000
0.638677 0.792155 2.250352 0.000000 0.000000 0.000000
0.635102 0.769564 2.257105 0.000000 0.000000 0.000000
0.596828 0.783252 2.263936 0.000000 0.000000 0.000000
0.611492 0.806525 2.250875 0.000000 0.000000 0.000000
0.619374 0.773887 2.261521 0.000000 0.000000 0.000000
0.610687 0.767478 2.254843 0.000000 0.000000 0.000000
0.581641 0.809999 2.262511 0.000000 0.000000 0.000000
0.619139 0.749605 2.264523 0.000000 0.000000 0.000000
0.641181 0.783166 2.255806 0.000000 0.000000 0.000000
0.589666 0.775031 2.260115 0.000000 0.000000 0.000000
0.581746 0.816144 2.266218 0.000000 0.000000 0.000000
0.598957 0.750086 2.267795 0.000000 0.000000 0.000000
0.593018 0.800796 2.253268 0.000000 0.000000 0.000000
0.597632 0.764043 2.268470 0.000000 0.000000 0.000000
0.586645 0.752172 2.274211 0.000000 0.000000 0.000000
0.586960 0.766884 2.272757 0.000000 0.000000 0.000000
0.615484 0.805344 2.250196 0.000000 0.000000 0.000000
0.591500 0.753269 2.272488 0.000000 0.000000 0.000000
0.631973 0.751700 2.261007 0.000000 0.000000 0.000000
0.628005 0.792464 2.252153 0.000000 0.000000 0.000000
0.609998 0.810209 2.246424 0.000000 0.000000 0.000000
0.647236 0.789539 2.251261 0.000000 0.000000 0.000000
0.596934 0.749895 2.269531 0.000000 0.000000 0.000000
0.631826 0.765759 2.263032 0.000000 0.000000 0.000000
0.624469 0.768873 2.257085 0.000000 0.000000 0.000000
0.582806 0.813962 2.260557 0.000000 0.000000 0.000000
0.637608 0.742931 2.276004 0.000000 0.000000 0.000000
0.586633 0.756644 2.273954 0.000000 0.000000 0.000000
0.583363 0.793687 2.261762 0.000000 0.000000 0.000000
0.578354 0.766667 2.274024 0.000000 0.000000 0.000000
0.634702 0.748438 2.271846 0.000000 0.000000 0.000000
0.567834 0.800213 2.272438 0.000000 0.000000 0.000000
0.648311 0.765979 2.262905 0.000000 0.000000 0.000000
0.634691 0.743262 2.278318 0.000000 0.000000 0.000000
0.648967 0.766803 2.255810 0.000000 0.000000 0.000000
0.597707 0.755728 2.266172 0.000000 0.000000 0.000000
0.582203 0.803777 2.265061 0.000000 0.000000 0.000000
0.609667 0.751759 2.269047 0.000000 0.000000 0.000000
0.595218 0.808955 2.256388 0.000000 0.000000 0.000000
0.568498 0.807681 2.274080 0.000000 0.000000 0.000000
0.612966 0.753499 2.265760 0.000000 0.000000 0.000000
0.632764 0.762437 2.273958 0.000000 0.000000 0.000000
0.622831 0.806690 2.247267 0.000000 0.000000 0.000000
0.563590 0.790924 2.280104 0.000000 0.000000 0.000000
0.602044 0.808038 2.255679 0.000000 0.000000 0.000000
0.566299 0.787612 2.276521 0.000000 0.000000 0.000000
0.575017 0.780836 2.276313 0.000000 0.000000 0.000000
0.591094 0.792768 2.257765 0.000000 0.000000 0.000000
0.584841 0.756683 2.276613 0.000000 0.000000 0.000000
0.566693 0.804186 2.270822 0.000000 0.000000 0.000000
0.583514 0.781870 2.263369 0.000000 0.000000 0.000000
0.610535 0.776626 2.252794 0.000000 0.000000 0.000000
0.596523 0.767915 2.261045 0.000000 0.000000 0.000000
0.585921 0.793434 2.259728 0.000000 0.000000 0.000000
0.567483 0.796275 2.275999 0.000000 0.000000 0.000000
0.569025 0.786573 2.271151 0.000000 0.000000 0.000000
0.567089 0.788284 2.275517 0.000000 0.000000 0.000000
0.564044 0.797044 2.270825 0.000000 0.000000 0.000000
0.565599 0.802433 2.271716 0.000000 0.000000 0.000000
0.609243 0.787613 2.252326 0.000000 0.000000 0.000000
0.595671 0.752409 2.271241 0.000000 0.000000 0.000000
0.612001 0.777254 2.257056 0.000000 0.000000 0.000000
0.587227 0.797159 2.263592 0.000000 0.000000 0.000000
0.612229 0.800880 2.250240 0.000000 0.000000 0.000000
0.601449 0.746963 2.267667 0.000000 0.000000 0.000000
0.613411 0.790796 2.243822 0.000000 0.000000 0.000000
0.585448 0.783660 2.262315 0.000000 0.000000 0.000000
0.593726 0.757728 2.267049 0.000000 0.000000 0.000000
0.596527 0.751120 2.268279 0.000000 0.000000 0.000000
0.604211 0.752243 2.269760 0.000000 0.000000 0.000000
0.600579 0.796307 2.256714 0.000000 0.000000 0.000000
0.595651 0.771503 2.255225 0.000000 0.000000 0.000000
0.652165 0.770230 2.259475 0.000000 0.000000 0.000000
0.635843 0.755713 2.261143 0.000000 0.000000 0.000000
0.584444 0.800440 2.261285 0.000000 0.000000 0.000000
0.567563 0.814161 2.266726 0.000000 0.000000 0.000000
0.599196 0.793557 2.250615 0.000000 0.000000 0.000000
0.570209 0.803292 2.275997 0.000000 0.000000 0.000000
0.631420 0.758490 2.257413 0.000000 0.000000 0.000000
0.566879 0.799461 2.279443 0.000000 0.000000 0.000000
0.573837 0.767190 2.276581 0.000000 0.000000 0.000000
0.649182 0.764063 2.271882 0.000000 0.000000 0.000000
0.585787 0.813639 2.263498 0.000000 0.000000 0.000000
0.564167 0.775563 2.284690 0.000000 0.000000 0.000000
0.580549 0.808811 2.260289 0.000000 0.000000 0.000000
0.564268 0.801755 2.278442 0.000000 0.000000 0.000000
0.575888 0.809020 2.264021 0.000000 0.000000 0.000000
0.610186 0.751851 2.262351 0.000000 0.000000 0.000000
0.626636 0.752565 2.266591 0.000000 0.000000 0.000000
0.582467 0.760332 2.270835 0.000000 0.000000 0.000000
0.642337 0.773442 2.257928 0.000000 0.000000 0.000000
0.606910 0.780773 2.246056 0.000000 0.000000 0.000000
0.631057 0.796890 2.248891 0.000000 0.000000 0.000000
0.605975 0.756327 2.262841 0.000000 0.000000 0.000000
0.613085 0.770471 2.245617 0.000000 0.000000 0.000000
0.570682 0.790293 2.272289 0.000000 0.000000 0.000000
0.637629 0.802274 2.248966 0.000000 0.000000 0.000000
0.595141 0.783354 2.255454 0.000000 0.000000 0.000000
0.600097 0.768940 2.259645 0.000000 0.000000 0.000000
0.620088 0.784912 2.248491 0.000000 0.000000 0.000000
0.627295 0.803440 2.247526 0.000000 0.000000 0.000000
0.601828 0.775201 2.256054 0.000000 0.000000 0.000000
0.591966 0.815423 2.256795 0.000000 0.000000 0.000000
0.586977 0.769489 2.265091 0.000000 0.000000 0.000000
0.634639 0.787511 2.250901 0.000000 0.000000 0.000000
0.572454 0.814897 2.263016 0.000000 0.000000 0.000000
0.577649 0.800671 2.272869 0.000000 0.000000 0.000000
0.576105 0.806448 2.265391 0.000000 0.000000 0.000000
0.625604 0.750428 2.270827 0.000000 0.000000 0.000000
0.620897 0.746876 2.274267 0.000000 0.000000 0.000000
0.576019 0.766580 2.278827 0.000000 0.000000 0.000000
0.655517 0.770063 2.258578 0.000000 0.000000 0.000000
0.612260 0.752612 2.256385 0.000000 0.000000 0.000000
0.606184 0.768302 2.258052 0.000000 0.000000 0.000000
0.600098 0.802438 2.251003 0.000000 0.000000 0.000000
0.638830 0.782179 2.248494 0.000000 0.000000 0.000000
0.585243 0.817902 2.260324 0.000000 0.000000 0.000000
0.582497 0.768129 2.269033 0.000000 0.000000 0.000000
0.627808 0.758450 2.255133 0.000000 0.000000 0.000000
0.598430 0.807601 2.252189 0.000000 0.000000 0.000000
0.564275 0.789757 2.272235 0.000000 0.000000 0.000000
0.629022 0.779110 2.251473 0.000000 0.000000 0.000000
0.583109 0.804043 2.265251 0.000000 0.000000 0.000000
0.574366 0.810112 2.265326 0.000000 0.000000 0.000000
0.580117 0.815506 2.260675 0.000000 0.000000 0.000000
0.563008 0.802003 2.276369 0.000000 0.000000 0.000000
0.567671 0.807768 2.270919 0.000000 0.000000 0.000000
0.599131 0.751310 2.271178 0.000000 0.000000 0.000000
0.637864 0.745445 2.270181 0.000000 0.000000 0.000000
0.624135 0.771731 2.255487 0.000000 0.000000 0.000000
0.611606 0.746146 2.263847 0.000000 0.000000 0.000000
0.596855 0.763533 2.260425 0.000000 0.000000 0.000000
0.597213 0.758146 2.271852 0.000000 0.000000 0.000000
0.606745 0.767951 2.256779 0.000000 0.000000 0.000000
0.577514 0.775578 2.268211 0.000000 0.000000 0.000000
0.594351 0.750678 2.273562 0.000000 0.000000 0.000000
0.632142 0.793423 2.250034 0.000000 0.000000 0.000000
0.585709 0.756604 2.273080 0.000000 0.000000 0.000000
0.579685 0.763468 2.275600 0.000000 0.000000 0.000000
0.594750 0.756041 2.263506 0.000000 0.000000 0.000000
0.622534 0.741413 2.274792 0.000000 0.000000 0.000000
0.630444 0.742417 2.279698 0.000000 0.000000 0.000000
0.610497 0.795600 2.251634 0.000000 0.000000 0.000000
0.580736 0.812976 2.259686 0.000000 0.000000 0.000000
0.583542 0.807951 2.260725 0.000000 0.000000 0.000000
0.587516 0.814976 2.257535 0.000000 0.000000 0.000000
0.569212 0.806688 2.272610 0.000000 0.000000 0.000000
0.565305 0.793860 2.279231 0.000000 0.000000 0.000000
0.605506 0.813113 2.252384 0.000000 0.000000 0.000000
0.568983 0.807479 2.268709 0.000000 0.000000 0.000000
0.642041 0.769373 2.255930 0.000000 0.000000 0.000000
0.604964 0.810164 2.252364 0.000000 0.000000 0.000000
0.627726 0.767177 2.255457 0.000000 0.000000 0.000000
0.609968 0.772036 2.259576 0.000000 0.000000 0.000000
0.606455 0.793557 2.247157 0.000000 0.000000 0.000000
0.623869 0.803909 2.245435 0.000000 0.000000 0.000000
0.584682 0.764558 2.276376 0.000000 0.000000 0.000000
0.569587 0.800356 2.272034 0.000000 0.000000 0.000000
0.564455 0.783242 2.280630 0.000000 0.000000 0.000000
0.584892 0.759248 2.271849 0.000000 0.000000 0.000000
0.571692 0.792159 2.270711 0.000000 0.000000 0.000000
0.585776 0.766861 2.266000 0.000000 0.000000 0.000000
0.587118 0.757000 2.270113 0.000000 0.000000 0.000000
0.595636 0.752308 2.272302 0.000000 0.000000 0.000000
0.570562 0.773382 2.277280 0.000000 0.000000 0.000000
0.644510 0.789273 2.250583 0.000000 0.000000 0.000000
0.580820 0.761043 2.273157 0.000000 0.000000 0.000000
0.581199 0.771019 2.270859 0.000000 0.000000 0.000000
0.563992 0.788416 2.279918 0.000000 0.000000 0.000000
0.589766 0.776386 2.263008 0.000000 0.000000 0.000000
0.630231 0.784610 2.254004 0.000000 0.000000 0.000000
0.580807 0.764389 2.271427 0.000000 0.000000 0.000000
0.579043 0.769261 2.274960 0.000000 0.000000 0.000000
0.567294 0.804426 2.273355 0.000000 0.000000 0.000000
0.563130 0.802669 2.275100 0.000000 0.000000 0.000000
0.567940 0.800792 2.276569 0.000000 0.000000 0.000000
0.580358 0.798956 2.260732 0.000000 0.000000 0.000000
0.574803 0.781992 2.269230 0.000000 0.000000 0.000000
0.571228 0.811615 2.273701 0.000000 0.000000 0.000000
0.566660 0.792975 2.274898 0.000000 0.000000 0.000000
0.597531 0.815066 2.252620 0.000000 0.000000 0.000000
0.562123 0.802539 2.281818 0.000000 0.000000 0.000000
0.563562 0.809296 2.272234 0.000000 0.000000 0.000000
0.587197 0.802598 2.256426 0.000000 0.000000 0.000000
0.566737 0.795586 2.274632 0.000000 0.000000 0.000000
0.576077 0.784628 2.271471 0.000000 0.000000 0.000000
0.580896 0.797646 2.264703 0.000000 0.000000 0.000000
0.577946 0.791484 2.259930 0.000000 0.000000 0.000000
0.635184 0.746943 2.268003 0.000000 0.000000 0.000000
0.639635 0.751010 2.267479 0.000000 0.000000 0.000000
0.566854 0.800014 2.279518 0.000000 0.000000 0.000000
0.587914 0.804122 2.258324 0.000000 0.000000 0.000000
0.572776 0.803542 2.273433 0.000000 0.000000 0.000000
0.629224 0.792782 2.244845 0.000000 0.000000 0.000000
0.658187 0.762040 2.261635 0.000000 0.000000 0.000000
0.632510 0.751409 2.262743 0.000000 0.000000 0.000000
0.616654 0.793307 2.250060 0.000000 0.000000 0.000000
0.643746 0.787636 2.251858 0.000000 0.000000 0.000000
0.623773 0.802803 2.248108 0.000000 0.000000 0.000000
0.587548 0.781058 2.265177 0.000000 0.000000 0.000000
0.602099 0.765283 2.267356 0.000000 0.000000 0.000000
0.644879 0.770179 2.246823 0.000000 0.000000 0.000000
0.629061 0.744962 2.275473 0.000000 0.000000 0.000000
0.633079 0.762646 2.259093 0.000000 0.000000 0.000000
0.617563 0.807965 2.246514 0.000000 0.000000 0.000000
0.649619 0.764945 2.257218 0.000000 0.000000 0.000000
0.625071 0.785049 2.247901 0.000000 0.000000 0.000000
0.655237 0.771032 2.258655 0.000000 0.000000 0.000000
0.593966 0.819361 2.253457 0.000000 0.000000 0.000000
0.580597 0.790723 2.267645 0.000000 0.000000 0.000000
0.628963 0.745217 2.271211 0.000000 0.000000 0.000000
0.635097 0.757009 2.250981 0.000000 0.000000 0.000000
0.613586 0.793875 2.251381 0.000000 0.000000 0.000000
0.658219 0.771260 2.258896 0.000000 0.000000 0.000000
0.586129 0.780020 2.265251 0.000000 0.000000 0.000000
0.566329 0.782240 2.280867 0.000000 0.000000 0.000000
0.623636 0.799698 2.254763 0.000000 0.000000 0.000000
0.574762 0.813034 2.267721 0.000000 0.000000 0.000000
0.599373 0.795651 2.260835 0.000000 0.000000 0.000000
0.630142 0.800084 2.247397 0.000000 0.000000 0.000000
0.615413 0.798041 2.249246 0.000000 0.000000 0.000000
0.619327 0.790205 2.256001 0.000000 0.000000 0.000000
0.635469 0.795087 2.247252 0.000000 0.000000 0.000000
0.573440 0.791341 2.279966 0.000000 0.000000 0.000000
0.619601 0.795115 2.243750 0.000000 0.000000 0.000000
0.572335 0.795928 2.262880 0.000000 0.000000 0.000000
0.585034 0.814147 2.262085 0.000000 0.000000 0.000000
0.570327 0.792869 2.273433 0.000000 0.000000 0.000000
0.582673 0.795873 2.264048 0.000000 0.000000 0.000000
0.588466 0.776162 2.260526 0.000000 0.000000 0.000000
0.566623 0.798183 2.275148 0.000000 0.000000 0.000000
0.574960 0.800347 2.267898 0.000000 0.000000 0.000000
0.581090 0.784665 2.260459 0.000000 0.000000 0.000000
0.571504 0.790949 2.279526 0.000000 0.000000 0.000000
0.577461 0.792553 2.270355 0.000000 0.000000 0.000000
0.593572 0.751474 2.271236 0.000000 0.000000 0.000000
0.637061 0.743789 2.265605 0.000000 0.000000 0.000000
0.636707 0.744290 2.276034 0.000000 0.000000 0.000000
0.640279 0.785289 2.249305 0.000000 0.000000 0.000000
0.639215 0.782799 2.251680 0.000000 0.000000 0.000000
0.643989 0.789933 2.252916 0.000000 0.000000 0.000000
0.644665 0.785170 2.253830 0.000000 0.000000 0.000000
0.643629 0.786618 2.253255 0.000000 0.000000 0.000000
0.655271 0.768432 2.258812 0.000000 0.000000 0.000000
0.638217 0.765348 2.259275 0.000000 0.000000 0.000000
0.641889 0.786930 2.250345 0.000000 0.000000 0.000000
0.652411 0.776720 2.256212 0.000000 0.000000 0.000000
0.644459 0.783316 2.249275 0.000000 0.000000 0.000000
0.645135 0.785622 2.249676 0.000000 0.000000 0.000000
0.644081 0.765801 2.244196 0.000000 0.000000 0.000000
0.644270 0.786472 2.253094 0.000000 0.000000 0.000000
0.642491 0.783564 2.250245 0.000000 0.000000 0.000000
0.652334 0.778072 2.255813 0.000000 0.000000 0.000000
0.649228 0.760819 2.259481 0.000000 0.000000 0.000000
0.644032 0.776741 2.254683 0.000000 0.000000 0.000000
0.633393 0.779082 2.255611 0.000000 0.000000 0.000000
0.646746 0.786458 2.251730 0.000000 0.000000 0.000000
0.631948 0.759953 2.256565 0.000000 0.000000 0.000000
0.577160 0.765087 2.275983 0.000000 0.000000 0.000000
0.563030 0.777149 2.285183 0.000000 0.000000 0.000000
0.628652 0.746005 2.274101 0.000000 0.000000 0.000000
0.563265 0.794710 2.276626 0.000000 0.000000 0.000000
0.570540 0.775550 2.275707 0.000000 0.000000 0.000000
0.579090 0.803448 2.263988 0.000000 0.000000 0.000000
0.622460 0.750505 2.269442 0.000000 0.000000 0.000000
0.631408 0.770508 2.252430 0.000000 0.000000 0.000000
0.633528 0.750798 2.263879 0.000000 0.000000 0.000000
0.608894 0.774351 2.256684 0.000000 0.000000 0.000000
0.563634 0.797787 2.278617 0.000000 0.000000 0.000000
0.642210 0.784795 2.249696 0.000000 0.000000 0.000000
0.626208 0.754981 2.259466 0.000000 0.000000 0.000000
0.574922 0.779320 2.272867 0.000000 0.000000 0.000000
0.623301 0.765729 2.248499 0.000000 0.000000 0.000000
0.623289 0.798095 2.248919 0.000000 0.000000 0.000000
0.561359 0.793508 2.281101 0.000000 0.000000 0.000000
0.622298 0.779775 2.253988 0.000000 0.000000 0.000000
0.616363 0.747293 2.266634 0.000000 0.000000 0.000000
0.617178 0.748729 2.267857 0.000000 0.000000 0.000000
0.620241 0.747777 2.262751 0.000000 0.000000 0.000000
0.570747 0.809021 2.271819 0.000000 0.000000 0.000000
0.569107 0.811472 2.269019 0.000000 0.000000 0.000000
0.564385 0.801693 2.276163 0.000000 0.000000 0.000000
0.567409 0.811268 2.269124 0.000000 0.000000 0.000000
0.579975 0.773994 2.271171 0.000000 0.000000 0.000000
0.570845 0.771341 2.278856 0.000000 0.000000 0.000000
0.566869 0.777189 2.278897 0.000000 0.000000 0.000000
0.606786 0.744582 2.266245 0.000000 0.000000 0.000000
0.612453 0.742880 2.266808 0.000000 0.000000 0.000000
0.596514 0.752625 2.266151 0.000000 0.000000 0.000000
0.603126 0.748588 2.266523 0.000000 0.000000 0.000000
0.605954 0.747169 2.265893 0.000000 0.000000 0.000000
0.598448 0.747437 2.269496 0.000000 0.000000 0.000000
0.625813 0.754582 2.273443 0.000000 0.000000 0.000000
0.634638 0.796358 2.251041 0.000000 0.000000 0.000000
0.559997 0.802220 2.277970 0.000000 0.000000 0.000000
0.637160 0.796927 2.249178 0.000000 0.000000 0.000000
0.617709 0.810359 2.249361 0.000000 0.000000 0.000000
0.619830 0.797667 2.245999 0.000000 0.000000 0.000000
0.623905 0.807091 2.249496 0.000000 0.000000 0.000000
0.631490 0.800115 2.248765 0.000000 0.000000 0.000000
0.612009 0.803785 2.247613 0.000000 0.000000 0.000000
0.616885 0.805912 2.251479 0.000000 0.000000 0.000000
0.608271 0.809625 2.250370 0.000000 0.000000 0.000000
0.571715 0.776415 2.277932 0.000000 0.000000 0.000000
0.577109 0.810798 2.262703 0.000000 0.000000 0.000000
0.625249 0.748785 2.270443 0.000000 0.000000 0.000000
0.578441 0.815629 2.260719 0.000000 0.000000 0.000000
0.571390 0.810080 2.268347 0.000000 0.000000 0.000000
0.579628 0.817107 2.258466 0.000000 0.000000 0.000000
0.633981 0.762670 2.252914 0.000000 0.000000 0.000000
0.563137 0.785741 2.283972 0.000000 0.000000 0.000000
0.566993 0.781951 2.278830 0.000000 0.000000 0.000000
0.573622 0.771027 2.274674 0.000000 0.000000 0.000000
0.581227 0.812742 2.263569 0.000000 0.000000 0.000000
0.580007 0.815937 2.263205 0.000000 0.000000 0.000000
0.652545 0.776793 2.258183 0.000000 0.000000 0.000000
0.565219 0.783685 2.282863 0.000000 0.000000 0.000000
0.609569 0.811504 2.246136 0.000000 0.000000 0.000000
0.583966 0.756135 2.275850 0.000000 0.000000 0.000000
0.581003 0.812433 2.258063 0.000000 0.000000 0.000000
0.563658 0.784167 2.281537 0.000000 0.000000 0.000000
0.567996 0.782060 2.273913 0.000000 0.000000 0.000000
0.592601 0.815637 2.254740 0.000000 0.000000 0.000000
0.643306 0.776789 2.248606 0.000000 0.000000 0.000000
0.610667 0.809348 2.245733 0.000000 0.000000 0.000000
0.586125 0.812405 2.262591 0.000000 0.000000 0.000000
0.625207 0.743384 2.270356 0.000000 0.000000 0.000000
0.564139 0.791041 2.275602 0.000000 0.000000 0.000000
0.620040 0.750286 2.264349 0.000000 0.000000 0.000000
0.618430 0.760601 2.260049 0.000000 0.000000 0.000000
0.615314 0.758173 2.260550 0.000000 0.000000 0.000000
0.620024 0.746311 2.262442 0.000000 0.000000 0.000000
0.601302 0.745700 2.270525 0.000000 0.000000 0.000000
0.606606 0.753534 2.271422 0.000000 0.000000 0.000000
0.622249 0.760828 2.257203 0.000000 0.000000 0.000000
0.648721 0.774204 2.256649 0.000000 0.000000 0.000000
0.614665 0.769858 2.252607 0.000000 0.000000 0.000000
0.615381 0.749534 2.262038 0.000000 0.000000 0.000000
0.601282 0.748614 2.268967 0.000000 0.000000 0.000000
0.618462 0.745833 2.271175 0.000000 0.000000 0.000000
0.591294 0.749992 2.272127 0.000000 0.000000 0.000000
0.602386 0.757687 2.270031 0.000000 0.000000 0.000000
0.600002 0.768627 2.259453 0.000000 0.000000 0.000000
0.590705 0.756316 2.268106 0.000000 0.000000 0.000000
0.566803 0.781072 2.277791 0.000000 0.000000 0.000000
0.586388 0.756228 2.271496 0.000000 0.000000 0.000000
0.606095 0.750593 2.271209 0.000000 0.000000 0.000000
0.572809 0.770656 2.278930 0.000000 0.000000 0.000000
0.605257 0.748560 2.269560 0.000000 0.000000 0.000000
0.586540 0.765178 2.268377 0.000000 0.000000 0.000000
0.595253 0.769680 2.263083 0.000000 0.000000 0.000000
0.654565 0.769832 2.258143 0.000000 0.000000 0.000000
0.590792 0.816929 2.253966 0.000000 0.000000 0.000000
0.595844 0.813526 2.256164 0.000000 0.000000 0.000000
0.582037 0.814944 2.262175 0.000000 0.000000 0.000000
0.578005 0.812499 2.265359 0.000000 0.000000 0.000000
0.594504 0.808228 2.257725 0.000000 0.000000 0.000000
0.595091 0.811800 2.255060 0.000000 0.000000 0.000000
0.589530 0.815433 2.257505 0.000000 0.000000 0.000000
0.583873 0.815722 2.259932 0.000000 0.000000 0.000000
0.607433 0.811085 2.251190 0.000000 0.000000 0.000000
0.595615 0.818268 2.255606 0.000000 0.000000 0.000000
0.654104 0.769604 2.258034 0.000000 0.000000 0.000000
0.604309 0.812093 2.251961 0.000000 0.000000 0.000000
0.578511 0.800651 2.274928 0.000000 0.000000 0.000000
0.570480 0.802313 2.275151 0.000000 0.000000 0.000000
0.598811 0.810648 2.258910 0.000000 0.000000 0.000000
0.622389 0.809751 2.247680 0.000000 0.000000 0.000000
0.590186 0.819527 2.256025 0.000000 0.000000 0.000000
0.642557 0.795451 2.249273 0.000000 0.000000 0.000000
0.634444 0.799978 2.249033 0.000000 0.000000 0.000000
0.583321 0.757518 2.274214 0.000000 0.000000 0.000000
0.578684 0.759420 2.276250 0.000000 0.000000 0.000000
0.603790 0.815660 2.251606 0.000000 0.000000 0.000000
0.596238 0.815807 2.253456 0.000000 0.000000 0.000000
0.595019 0.816883 2.256581 0.000000 0.000000 0.000000
0.616600 0.811224 2.250260 0.000000 0.000000 0.000000
0.563266 0.788755 2.282791 0.000000 0.000000 0.000000
0.563257 0.793832 2.282542 0.000000 0.000000 0.000000
0.633701 0.745273 2.268937 0.000000 0.000000 0.000000
0.658350 0.761632 2.261891 0.000000 0.000000 0.000000
0.656485 0.768694 2.258512 0.000000 0.000000 0.000000
0.648203 0.781938 2.254363 0.000000 0.000000 0.000000
0.654699 0.765927 2.260091 0.000000 0.000000 0.000000
0.649209 0.775045 2.252013 0.000000 0.000000 0.000000
0.646286 0.783138 2.255138 0.000000 0.000000 0.000000
