ply
format ascii 1.0
comment VCGLIB generated
obj_info Generated by SPFormer!
element vertex 330
property float x
property float y
property float z
property float nx
property float ny
property float nz
end_header
0.133326 0.783649 0.636534 0.000000 0.000000 0.000000
0.186385 0.739728 0.637537 0.000000 0.000000 0.000000
0.199754 0.732989 0.633959 0.000000 0.000000 0.000000
0.190412 0.740695 0.637418 0.000000 0.000000 0.000000
0.186955 0.741953 0.617709 0.000000 0.000000 0.000000
0.197574 0.733998 0.637771 0.000000 0.000000 0.000000
0.339546 0.085305 0.073528 0.000000 0.000000 0.000000
0.151232 0.774391 0.606226 0.000000 0.000000 0.000000
0.201350 0.073321 0.228592 0.000000 0.000000 0.000000
0.142669 0.772876 0.606139 0.000000 0.000000 0.000000
0.190252 0.723433 0.638175 0.000000 0.000000 0.000000
0.152579 0.764514 0.637653 0.000000 0.000000 0.000000
0.357080 0.092427 0.078324 0.000000 0.000000 0.000000
0.198369 0.723647 0.631165 0.000000 0.000000 0.000000
0.136218 0.791828 0.601364 0.000000 0.000000 0.000000
0.357873 0.090990 0.075772 0.000000 0.000000 0.000000
0.149373 0.775306 0.619774 0.000000 0.000000 0.000000
0.196468 0.724876 0.639516 0.000000 0.000000 0.000000
0.172349 0.749517 0.617078 0.000000 0.000000 0.000000
0.180960 0.750777 0.611646 0.000000 0.000000 0.000000
0.170139 0.759839 0.607766 0.000000 0.000000 0.000000
0.154310 0.778397 0.602851 0.000000 0.000000 0.000000
0.186239 0.747840 0.617313 0.000000 0.000000 0.000000
0.189900 0.743896 0.621301 0.000000 0.000000 0.000000
0.227014 0.054503 0.217330 0.000000 0.000000 0.000000
0.198617 0.747434 0.633767 0.000000 0.000000 0.000000
0.200721 0.058525 0.206191 0.000000 0.000000 0.000000
0.178233 0.743982 0.610083 0.000000 0.000000 0.000000
0.157755 0.761806 0.603909 0.000000 0.000000 0.000000
0.186952 0.736901 0.618950 0.000000 0.000000 0.000000
0.196420 0.739807 0.616152 0.000000 0.000000 0.000000
0.189948 0.746309 0.620919 0.000000 0.000000 0.000000
0.186123 0.743268 0.624089 0.000000 0.000000 0.000000
0.143522 0.780932 0.603456 0.000000 0.000000 0.000000
0.151146 0.771941 0.633069 0.000000 0.000000 0.000000
0.153084 0.767673 0.606547 0.000000 0.000000 0.000000
0.201241 0.062527 0.204329 0.000000 0.000000 0.000000
0.180265 0.747087 0.614380 0.000000 0.000000 0.000000
0.239372 0.064961 0.202192 0.000000 0.000000 0.000000
0.190507 0.746266 0.621113 0.000000 0.000000 0.000000
0.188111 0.752356 0.616759 0.000000 0.000000 0.000000
0.349781 0.085585 0.075878 0.000000 0.000000 0.000000
0.149256 0.768985 0.635565 0.000000 0.000000 0.000000
0.152927 0.778878 0.603027 0.000000 0.000000 0.000000
0.158247 0.777740 0.602044 0.000000 0.000000 0.000000
0.192022 0.738302 0.617699 0.000000 0.000000 0.000000
0.151755 0.769464 0.606286 0.000000 0.000000 0.000000
0.186397 0.749430 0.619237 0.000000 0.000000 0.000000
0.237096 0.053971 0.216651 0.000000 0.000000 0.000000
0.356995 0.100208 0.078415 0.000000 0.000000 0.000000
0.156609 0.765350 0.601206 0.000000 0.000000 0.000000
0.161788 0.759460 0.605638 0.000000 0.000000 0.000000
0.176754 0.755991 0.609432 0.000000 0.000000 0.000000
0.157876 0.779357 0.603799 0.000000 0.000000 0.000000
0.144641 0.785460 0.600869 0.000000 0.000000 0.000000
0.154934 0.770689 0.602601 0.000000 0.000000 0.000000
0.155146 0.776850 0.601550 0.000000 0.000000 0.000000
0.344695 0.084560 0.076958 0.000000 0.000000 0.000000
0.204863 0.059125 0.201380 0.000000 0.000000 0.000000
0.222823 0.053492 0.203472 0.000000 0.000000 0.000000
0.149197 0.771168 0.601831 0.000000 0.000000 0.000000
0.228411 0.066199 0.211944 0.000000 0.000000 0.000000
0.159405 0.763304 0.614934 0.000000 0.000000 0.000000
0.169119 0.757259 0.610763 0.000000 0.000000 0.000000
0.161470 0.759192 0.631189 0.000000 0.000000 0.000000
0.155285 0.785758 0.603677 0.000000 0.000000 0.000000
0.182919 0.757262 0.639006 0.000000 0.000000 0.000000
0.182462 0.752412 0.631985 0.000000 0.000000 0.000000
0.344032 0.097465 0.079489 0.000000 0.000000 0.000000
0.344985 0.090218 0.075566 0.000000 0.000000 0.000000
0.224107 0.056468 0.219213 0.000000 0.000000 0.000000
0.136703 0.769432 0.637655 0.000000 0.000000 0.000000
0.219817 0.057849 0.212175 0.000000 0.000000 0.000000
0.152414 0.760938 0.635315 0.000000 0.000000 0.000000
0.154811 0.764118 0.627137 0.000000 0.000000 0.000000
0.344021 0.082150 0.076500 0.000000 0.000000 0.000000
0.153502 0.771304 0.630177 0.000000 0.000000 0.000000
0.165897 0.759094 0.603115 0.000000 0.000000 0.000000
0.163686 0.751625 0.629799 0.000000 0.000000 0.000000
0.166880 0.750836 0.632219 0.000000 0.000000 0.000000
0.148661 0.765008 0.637014 0.000000 0.000000 0.000000
0.168795 0.753825 0.624750 0.000000 0.000000 0.000000
0.172559 0.758256 0.611724 0.000000 0.000000 0.000000
0.180617 0.753040 0.614621 0.000000 0.000000 0.000000
0.235812 0.075879 0.212097 0.000000 0.000000 0.000000
0.172793 0.756233 0.611142 0.000000 0.000000 0.000000
0.173070 0.758416 0.609853 0.000000 0.000000 0.000000
0.173456 0.754118 0.609812 0.000000 0.000000 0.000000
0.237035 0.061481 0.208549 0.000000 0.000000 0.000000
0.232218 0.069336 0.205693 0.000000 0.000000 0.000000
0.239470 0.060582 0.212879 0.000000 0.000000 0.000000
0.227050 0.063784 0.215140 0.000000 0.000000 0.000000
0.232305 0.055810 0.210577 0.000000 0.000000 0.000000
0.153116 0.771447 0.600542 0.000000 0.000000 0.000000
0.167078 0.756804 0.612836 0.000000 0.000000 0.000000
0.168792 0.753114 0.607067 0.000000 0.000000 0.000000
0.172656 0.757574 0.611788 0.000000 0.000000 0.000000
0.175866 0.750970 0.623941 0.000000 0.000000 0.000000
0.177664 0.753634 0.611691 0.000000 0.000000 0.000000
0.169573 0.750757 0.613676 0.000000 0.000000 0.000000
0.181738 0.749916 0.606445 0.000000 0.000000 0.000000
0.157933 0.764772 0.601072 0.000000 0.000000 0.000000
0.171264 0.756014 0.601642 0.000000 0.000000 0.000000
0.169490 0.755934 0.622086 0.000000 0.000000 0.000000
0.166479 0.757556 0.608080 0.000000 0.000000 0.000000
0.178481 0.756559 0.607690 0.000000 0.000000 0.000000
0.170222 0.754704 0.608193 0.000000 0.000000 0.000000
0.155855 0.772981 0.602184 0.000000 0.000000 0.000000
0.197181 0.743828 0.626580 0.000000 0.000000 0.000000
0.172139 0.749618 0.629082 0.000000 0.000000 0.000000
0.188505 0.738589 0.626191 0.000000 0.000000 0.000000
0.181426 0.751471 0.617049 0.000000 0.000000 0.000000
0.183569 0.749138 0.637561 0.000000 0.000000 0.000000
0.184278 0.751033 0.616967 0.000000 0.000000 0.000000
0.160596 0.754924 0.623025 0.000000 0.000000 0.000000
0.179570 0.754613 0.614219 0.000000 0.000000 0.000000
0.155674 0.761273 0.629914 0.000000 0.000000 0.000000
0.164232 0.755540 0.628921 0.000000 0.000000 0.000000
0.164673 0.756381 0.626207 0.000000 0.000000 0.000000
0.145028 0.765068 0.630470 0.000000 0.000000 0.000000
0.344864 0.106060 0.076817 0.000000 0.000000 0.000000
0.149371 0.764605 0.630049 0.000000 0.000000 0.000000
0.211482 0.058891 0.202837 0.000000 0.000000 0.000000
0.224728 0.073393 0.204040 0.000000 0.000000 0.000000
0.223879 0.059251 0.216595 0.000000 0.000000 0.000000
0.234903 0.056600 0.217987 0.000000 0.000000 0.000000
0.212802 0.061552 0.200352 0.000000 0.000000 0.000000
0.231792 0.070618 0.205992 0.000000 0.000000 0.000000
0.221080 0.053877 0.216060 0.000000 0.000000 0.000000
0.233077 0.053600 0.213288 0.000000 0.000000 0.000000
0.347434 0.086416 0.079311 0.000000 0.000000 0.000000
0.342061 0.081278 0.073954 0.000000 0.000000 0.000000
0.345714 0.080403 0.073082 0.000000 0.000000 0.000000
0.189424 0.746897 0.618324 0.000000 0.000000 0.000000
0.192316 0.737421 0.622291 0.000000 0.000000 0.000000
0.155786 0.775477 0.605464 0.000000 0.000000 0.000000
0.131897 0.007112 0.198048 0.000000 0.000000 0.000000
0.140011 0.003524 0.204729 0.000000 0.000000 0.000000
0.133682 0.000255 0.212617 0.000000 0.000000 0.000000
0.149154 0.007902 0.210389 0.000000 0.000000 0.000000
0.149947 0.004728 0.191015 0.000000 0.000000 0.000000
0.153488 0.005650 0.182215 0.000000 0.000000 0.000000
0.124528 0.030439 0.194657 0.000000 0.000000 0.000000
0.145244 0.008191 0.206362 0.000000 0.000000 0.000000
0.143282 0.011489 0.192167 0.000000 0.000000 0.000000
0.132709 0.034855 0.191348 0.000000 0.000000 0.000000
0.092921 -0.007824 0.281062 0.000000 0.000000 0.000000
0.120489 0.024543 0.196854 0.000000 0.000000 0.000000
0.142671 0.001582 0.198107 0.000000 0.000000 0.000000
0.150494 0.005678 0.205875 0.000000 0.000000 0.000000
0.149341 0.005285 0.210475 0.000000 0.000000 0.000000
0.138221 0.027081 0.190952 0.000000 0.000000 0.000000
0.137487 0.008293 0.206415 0.000000 0.000000 0.000000
0.157956 0.006461 0.197312 0.000000 0.000000 0.000000
0.155457 0.001622 0.209723 0.000000 0.000000 0.000000
0.144909 0.027677 0.186779 0.000000 0.000000 0.000000
0.130894 0.033616 0.192788 0.000000 0.000000 0.000000
0.134380 0.029024 0.190889 0.000000 0.000000 0.000000
0.138031 0.039178 0.192820 0.000000 0.000000 0.000000
0.128864 0.036085 0.219183 0.000000 0.000000 0.000000
0.159193 0.005365 0.212556 0.000000 0.000000 0.000000
0.144091 0.000551 0.236648 0.000000 0.000000 0.000000
0.135323 0.038181 0.185971 0.000000 0.000000 0.000000
0.142240 0.039454 0.180982 0.000000 0.000000 0.000000
0.126216 0.016492 0.215745 0.000000 0.000000 0.000000
0.135971 0.035701 0.184660 0.000000 0.000000 0.000000
0.143154 0.025196 0.191551 0.000000 0.000000 0.000000
0.154992 0.015978 0.197314 0.000000 0.000000 0.000000
0.150157 0.011879 0.225050 0.000000 0.000000 0.000000
0.131755 0.020251 0.197659 0.000000 0.000000 0.000000
0.146893 0.016424 0.194264 0.000000 0.000000 0.000000
0.139321 0.038472 0.184249 0.000000 0.000000 0.000000
0.125992 0.013742 0.202642 0.000000 0.000000 0.000000
0.122370 0.007387 0.204329 0.000000 0.000000 0.000000
0.154294 0.019658 0.229210 0.000000 0.000000 0.000000
0.150199 0.017183 0.194013 0.000000 0.000000 0.000000
0.142603 0.037719 0.189802 0.000000 0.000000 0.000000
0.148466 0.023692 0.190273 0.000000 0.000000 0.000000
0.141836 0.004242 0.216797 0.000000 0.000000 0.000000
0.130812 0.003644 0.211014 0.000000 0.000000 0.000000
0.153450 0.009569 0.231265 0.000000 0.000000 0.000000
0.144753 0.024306 0.191303 0.000000 0.000000 0.000000
0.138930 0.019253 0.196082 0.000000 0.000000 0.000000
0.148273 0.024579 0.190328 0.000000 0.000000 0.000000
0.150433 0.022723 0.187640 0.000000 0.000000 0.000000
0.130945 0.005059 0.204443 0.000000 0.000000 0.000000
0.144346 0.012033 0.200514 0.000000 0.000000 0.000000
0.142408 0.021617 0.198034 0.000000 0.000000 0.000000
0.150278 0.004725 0.231888 0.000000 0.000000 0.000000
0.159198 0.000887 0.198176 0.000000 0.000000 0.000000
0.139158 0.020747 0.223534 0.000000 0.000000 0.000000
0.205736 0.040712 0.216480 0.000000 0.000000 0.000000
0.217062 0.046770 0.223932 0.000000 0.000000 0.000000
0.231323 0.043580 0.216627 0.000000 0.000000 0.000000
0.209840 0.041221 0.223278 0.000000 0.000000 0.000000
0.218833 0.042487 0.229323 0.000000 0.000000 0.000000
0.229019 0.046682 0.209344 0.000000 0.000000 0.000000
0.226763 0.052139 0.223533 0.000000 0.000000 0.000000
0.225036 0.045114 0.218709 0.000000 0.000000 0.000000
0.232583 0.048773 0.220212 0.000000 0.000000 0.000000
0.208988 0.050825 0.208665 0.000000 0.000000 0.000000
0.220396 0.043754 0.218457 0.000000 0.000000 0.000000
0.211166 0.048113 0.211144 0.000000 0.000000 0.000000
0.212019 0.047138 0.210911 0.000000 0.000000 0.000000
0.237169 0.048900 0.202203 0.000000 0.000000 0.000000
0.234359 0.047183 0.209970 0.000000 0.000000 0.000000
0.223996 0.047971 0.219465 0.000000 0.000000 0.000000
0.159933 0.019051 0.221884 0.000000 0.000000 0.000000
0.218167 0.040704 0.218284 0.000000 0.000000 0.000000
0.222932 0.048962 0.221797 0.000000 0.000000 0.000000
0.201233 0.045729 0.213058 0.000000 0.000000 0.000000
0.230512 0.044617 0.212520 0.000000 0.000000 0.000000
0.211448 0.050641 0.225256 0.000000 0.000000 0.000000
0.220062 0.041940 0.201710 0.000000 0.000000 0.000000
0.216577 0.040333 0.218108 0.000000 0.000000 0.000000
0.209637 0.041502 0.216535 0.000000 0.000000 0.000000
0.202893 0.051269 0.212795 0.000000 0.000000 0.000000
0.206017 0.044642 0.214307 0.000000 0.000000 0.000000
0.213815 0.043912 0.216603 0.000000 0.000000 0.000000
0.218400 0.048472 0.214225 0.000000 0.000000 0.000000
0.225581 0.040320 0.221755 0.000000 0.000000 0.000000
0.202518 0.040502 0.230120 0.000000 0.000000 0.000000
0.203962 0.050971 0.214160 0.000000 0.000000 0.000000
0.151888 0.026266 0.235613 0.000000 0.000000 0.000000
0.203338 0.049755 0.213596 0.000000 0.000000 0.000000
0.201069 0.040347 0.216273 0.000000 0.000000 0.000000
0.158622 0.023453 0.224269 0.000000 0.000000 0.000000
0.156516 0.027744 0.234044 0.000000 0.000000 0.000000
0.216391 0.048751 0.216044 0.000000 0.000000 0.000000
0.207250 0.046750 0.212048 0.000000 0.000000 0.000000
0.225007 0.050648 0.219802 0.000000 0.000000 0.000000
0.232070 0.041010 0.220006 0.000000 0.000000 0.000000
0.238548 0.049555 0.217450 0.000000 0.000000 0.000000
0.222532 0.044861 0.218456 0.000000 0.000000 0.000000
0.212811 0.043458 0.215839 0.000000 0.000000 0.000000
0.227420 0.042604 0.216574 0.000000 0.000000 0.000000
0.227372 0.052315 0.217295 0.000000 0.000000 0.000000
0.106489 0.287836 0.119539 0.000000 0.000000 0.000000
0.230140 0.092732 0.114429 0.000000 0.000000 0.000000
0.229118 0.193324 0.064461 0.000000 0.000000 0.000000
0.103707 0.288934 0.110372 0.000000 0.000000 0.000000
0.213469 0.452166 0.255657 0.000000 0.000000 0.000000
0.210812 0.465842 0.256648 0.000000 0.000000 0.000000
0.224084 0.456568 0.251160 0.000000 0.000000 0.000000
0.205247 0.477311 0.244404 0.000000 0.000000 0.000000
0.218305 0.453771 0.258437 0.000000 0.000000 0.000000
0.214377 0.464827 0.241637 0.000000 0.000000 0.000000
0.211315 0.443114 0.242941 0.000000 0.000000 0.000000
0.213718 0.460893 0.249330 0.000000 0.000000 0.000000
0.219160 0.473387 0.241345 0.000000 0.000000 0.000000
0.201430 0.195514 0.171862 0.000000 0.000000 0.000000
0.231911 0.446702 0.259038 0.000000 0.000000 0.000000
0.226052 0.457675 0.245951 0.000000 0.000000 0.000000
0.225711 0.447189 0.253153 0.000000 0.000000 0.000000
0.223711 0.529020 0.230582 0.000000 0.000000 0.000000
0.230322 0.453755 0.246108 0.000000 0.000000 0.000000
0.227599 0.444504 0.250022 0.000000 0.000000 0.000000
0.230456 0.448216 0.257308 0.000000 0.000000 0.000000
0.248611 0.453090 0.199769 0.000000 0.000000 0.000000
0.229120 0.447642 0.243739 0.000000 0.000000 0.000000
0.177822 0.801835 0.613364 0.000000 0.000000 0.000000
0.199974 0.756920 0.630161 0.000000 0.000000 0.000000
0.195261 0.758665 0.616858 0.000000 0.000000 0.000000
0.180506 0.722305 0.632795 0.000000 0.000000 0.000000
0.180567 0.723614 0.627849 0.000000 0.000000 0.000000
0.192292 0.721362 0.636354 0.000000 0.000000 0.000000
0.187364 0.720965 0.626547 0.000000 0.000000 0.000000
0.162822 0.732843 0.619215 0.000000 0.000000 0.000000
0.171104 0.723869 0.633023 0.000000 0.000000 0.000000
0.177090 0.720168 0.624881 0.000000 0.000000 0.000000
0.168214 0.727491 0.625602 0.000000 0.000000 0.000000
0.172378 0.728376 0.625630 0.000000 0.000000 0.000000
0.170580 0.728162 0.624662 0.000000 0.000000 0.000000
0.167498 0.730213 0.620132 0.000000 0.000000 0.000000
0.174363 0.725179 0.627988 0.000000 0.000000 0.000000
0.161837 0.729109 0.623148 0.000000 0.000000 0.000000
0.163906 0.729162 0.632280 0.000000 0.000000 0.000000
0.191374 0.720468 0.637742 0.000000 0.000000 0.000000
0.164805 0.736476 0.614676 0.000000 0.000000 0.000000
0.160402 0.734328 0.615975 0.000000 0.000000 0.000000
0.162572 0.725160 0.627117 0.000000 0.000000 0.000000
0.170607 0.731312 0.616714 0.000000 0.000000 0.000000
0.170517 0.727073 0.618669 0.000000 0.000000 0.000000
0.161775 0.735499 0.614944 0.000000 0.000000 0.000000
0.162543 0.729401 0.637325 0.000000 0.000000 0.000000
0.161711 0.744135 0.618833 0.000000 0.000000 0.000000
0.165226 0.721579 0.622426 0.000000 0.000000 0.000000
0.710402 0.482195 0.920475 0.000000 0.000000 0.000000
0.714752 0.481330 0.922912 0.000000 0.000000 0.000000
0.713608 0.485124 0.939554 0.000000 0.000000 0.000000
0.706400 0.486698 0.922232 0.000000 0.000000 0.000000
0.709392 0.484655 0.924786 0.000000 0.000000 0.000000
0.708726 0.486930 0.930553 0.000000 0.000000 0.000000
0.699547 0.480596 0.926331 0.000000 0.000000 0.000000
0.701883 0.486524 0.921172 0.000000 0.000000 0.000000
0.708969 0.488458 0.922308 0.000000 0.000000 0.000000
0.700086 0.482594 0.922086 0.000000 0.000000 0.000000
0.690130 0.503502 0.927265 0.000000 0.000000 0.000000
0.711201 0.497082 0.941437 0.000000 0.000000 0.000000
0.701232 0.485226 0.930675 0.000000 0.000000 0.000000
0.698837 0.486686 0.923837 0.000000 0.000000 0.000000
0.700588 0.489965 0.926669 0.000000 0.000000 0.000000
0.698077 0.490607 0.924092 0.000000 0.000000 0.000000
0.688799 0.503843 0.923828 0.000000 0.000000 0.000000
0.684636 0.503227 0.921426 0.000000 0.000000 0.000000
0.694913 0.505991 0.926228 0.000000 0.000000 0.000000
0.698728 0.499254 0.926150 0.000000 0.000000 0.000000
0.694437 0.500235 0.924770 0.000000 0.000000 0.000000
0.697997 0.497053 0.927915 0.000000 0.000000 0.000000
0.688693 0.503640 0.923641 0.000000 0.000000 0.000000
0.701756 0.494508 0.924273 0.000000 0.000000 0.000000
0.697239 0.496781 0.923488 0.000000 0.000000 0.000000
0.685722 0.499096 0.922332 0.000000 0.000000 0.000000
0.693165 0.494989 0.923698 0.000000 0.000000 0.000000
0.697755 0.492583 0.921094 0.000000 0.000000 0.000000
0.696369 0.487845 0.927702 0.000000 0.000000 0.000000
0.707675 0.500767 0.929018 0.000000 0.000000 0.000000
0.698619 0.496394 0.928678 0.000000 0.000000 0.000000
0.699052 0.486818 0.924638 0.000000 0.000000 0.000000
0.689086 0.503082 0.924224 0.000000 0.000000 0.000000
0.684453 0.506806 0.924009 0.000000 0.000000 0.000000
0.702110 0.490765 0.924524 0.000000 0.000000 0.000000
0.695662 0.492567 0.924276 0.000000 0.000000 0.000000
0.686112 0.498536 0.925726 0.000000 0.000000 0.000000
0.691915 0.496450 0.920389 0.000000 0.000000 0.000000
0.689544 0.501033 0.923768 0.000000 0.000000 0.000000
0.682720 0.507119 0.920600 0.000000 0.000000 0.000000
0.885353 0.995145 1.157451 0.000000 0.000000 0.000000
0.895615 0.998197 1.159521 0.000000 0.000000 0.000000
0.895143 0.997737 1.157573 0.000000 0.000000 0.000000
