ply
format ascii 1.0
comment VCGLIB generated
obj_info Generated by SPFormer!
element vertex 753
property float x
property float y
property float z
property float nx
property float ny
property float nz
end_header
0.239001 0.108309 0.183860 0.000000 0.000000 0.000000
0.313931 0.116446 0.157263 0.000000 0.000000 0.000000
0.238126 0.079510 0.167892 0.000000 0.000000 0.000000
0.249560 0.094008 0.190973 0.000000 0.000000 0.000000
0.233928 0.091040 0.176944 0.000000 0.000000 0.000000
0.228084 0.076423 0.156535 0.000000 0.000000 0.000000
0.275895 0.094710 0.175098 0.000000 0.000000 0.000000
0.199373 0.059571 0.226133 0.000000 0.000000 0.000000
0.181471 0.075551 0.212662 0.000000 0.000000 0.000000
0.278993 0.093459 0.151272 0.000000 0.000000 0.000000
0.217390 0.075468 0.181050 0.000000 0.000000 0.000000
0.213622 0.105047 0.196393 0.000000 0.000000 0.000000
0.276920 0.092300 0.166187 0.000000 0.000000 0.000000
0.196210 0.083577 0.219290 0.000000 0.000000 0.000000
0.266925 0.086116 0.198398 0.000000 0.000000 0.000000
0.272119 0.090712 0.156149 0.000000 0.000000 0.000000
0.280161 0.090069 0.151928 0.000000 0.000000 0.000000
0.169546 0.107954 0.198350 0.000000 0.000000 0.000000
0.236850 0.085607 0.192145 0.000000 0.000000 0.000000
0.278581 0.104555 0.177988 0.000000 0.000000 0.000000
0.258545 0.089658 0.186281 0.000000 0.000000 0.000000
0.236229 0.073035 0.185073 0.000000 0.000000 0.000000
0.256893 0.095131 0.161001 0.000000 0.000000 0.000000
0.290223 0.086274 0.151456 0.000000 0.000000 0.000000
0.267335 0.102331 0.157966 0.000000 0.000000 0.000000
0.307026 0.110501 0.163568 0.000000 0.000000 0.000000
0.278980 0.084580 0.159605 0.000000 0.000000 0.000000
0.281630 0.107149 0.189229 0.000000 0.000000 0.000000
0.330320 0.132251 0.164365 0.000000 0.000000 0.000000
0.285675 0.105130 0.149625 0.000000 0.000000 0.000000
0.244308 0.071762 0.157930 0.000000 0.000000 0.000000
0.302851 0.118654 0.149082 0.000000 0.000000 0.000000
0.262587 0.116131 0.197672 0.000000 0.000000 0.000000
0.236675 0.053598 0.193411 0.000000 0.000000 0.000000
0.296463 0.090286 0.156850 0.000000 0.000000 0.000000
0.236089 0.050579 0.187719 0.000000 0.000000 0.000000
0.242720 0.087518 0.174994 0.000000 0.000000 0.000000
0.199087 0.098997 0.204948 0.000000 0.000000 0.000000
0.244269 0.077096 0.175396 0.000000 0.000000 0.000000
0.299526 0.112248 0.133520 0.000000 0.000000 0.000000
0.253640 0.089711 0.174880 0.000000 0.000000 0.000000
0.149405 0.095434 0.236321 0.000000 0.000000 0.000000
0.314137 0.120565 0.131463 0.000000 0.000000 0.000000
0.174190 0.096567 0.196812 0.000000 0.000000 0.000000
0.187698 0.064480 0.206033 0.000000 0.000000 0.000000
0.189653 0.056351 0.183625 0.000000 0.000000 0.000000
0.181364 0.146705 0.231924 0.000000 0.000000 0.000000
0.268883 0.086851 0.165066 0.000000 0.000000 0.000000
0.282668 0.111312 0.148625 0.000000 0.000000 0.000000
0.275864 0.107858 0.164597 0.000000 0.000000 0.000000
0.268809 0.120137 0.195773 0.000000 0.000000 0.000000
0.279934 0.097301 0.148082 0.000000 0.000000 0.000000
0.278105 0.086396 0.156468 0.000000 0.000000 0.000000
0.150616 0.136341 0.264629 0.000000 0.000000 0.000000
0.151081 0.149869 0.284280 0.000000 0.000000 0.000000
0.287356 0.096798 0.157652 0.000000 0.000000 0.000000
0.280549 0.109020 0.185247 0.000000 0.000000 0.000000
0.275594 0.107401 0.187284 0.000000 0.000000 0.000000
0.289725 0.091663 0.148958 0.000000 0.000000 0.000000
0.276227 0.092908 0.149844 0.000000 0.000000 0.000000
0.124963 0.145126 0.235580 0.000000 0.000000 0.000000
0.282148 0.128671 0.158861 0.000000 0.000000 0.000000
0.258483 0.093412 0.198215 0.000000 0.000000 0.000000
0.270933 0.095665 0.158874 0.000000 0.000000 0.000000
0.281881 0.082595 0.154658 0.000000 0.000000 0.000000
0.192020 0.054624 0.195644 0.000000 0.000000 0.000000
0.175633 0.065610 0.216164 0.000000 0.000000 0.000000
0.307300 0.113487 0.162819 0.000000 0.000000 0.000000
0.168425 0.072494 0.205476 0.000000 0.000000 0.000000
0.190105 0.058497 0.185473 0.000000 0.000000 0.000000
0.181463 0.056231 0.195516 0.000000 0.000000 0.000000
0.176758 0.055182 0.183959 0.000000 0.000000 0.000000
0.287773 0.108357 0.182156 0.000000 0.000000 0.000000
0.239085 0.065905 0.196794 0.000000 0.000000 0.000000
0.297204 0.106404 0.160871 0.000000 0.000000 0.000000
0.279883 0.091644 0.153434 0.000000 0.000000 0.000000
0.133112 0.141829 0.229584 0.000000 0.000000 0.000000
0.146852 0.119863 0.253922 0.000000 0.000000 0.000000
0.288594 0.101393 0.140349 0.000000 0.000000 0.000000
0.132245 0.089204 0.210833 0.000000 0.000000 0.000000
0.294088 0.089033 0.142931 0.000000 0.000000 0.000000
0.301726 0.111955 0.150777 0.000000 0.000000 0.000000
0.156130 0.133255 0.248931 0.000000 0.000000 0.000000
0.217077 0.095830 0.187996 0.000000 0.000000 0.000000
0.147393 0.118048 0.242368 0.000000 0.000000 0.000000
0.153446 0.097840 0.219644 0.000000 0.000000 0.000000
0.160006 0.147926 0.249081 0.000000 0.000000 0.000000
0.263393 0.098791 0.163674 0.000000 0.000000 0.000000
0.289777 0.102084 0.139951 0.000000 0.000000 0.000000
0.287797 0.086343 0.149172 0.000000 0.000000 0.000000
0.287058 0.106832 0.139130 0.000000 0.000000 0.000000
0.261567 0.083883 0.176461 0.000000 0.000000 0.000000
0.258831 0.079025 0.175222 0.000000 0.000000 0.000000
0.158332 0.113453 0.260261 0.000000 0.000000 0.000000
0.273732 0.090243 0.169883 0.000000 0.000000 0.000000
0.270350 0.094070 0.183150 0.000000 0.000000 0.000000
0.164834 0.116676 0.234094 0.000000 0.000000 0.000000
0.126230 0.145928 0.245204 0.000000 0.000000 0.000000
0.319136 0.119842 0.142315 0.000000 0.000000 0.000000
0.198584 0.064768 0.197356 0.000000 0.000000 0.000000
0.297227 0.101056 0.132653 0.000000 0.000000 0.000000
0.311062 0.119168 0.134998 0.000000 0.000000 0.000000
0.135303 0.089957 0.222355 0.000000 0.000000 0.000000
0.170064 0.080378 0.212897 0.000000 0.000000 0.000000
0.160246 0.116698 0.242685 0.000000 0.000000 0.000000
0.301400 0.117388 0.139457 0.000000 0.000000 0.000000
0.150967 0.090377 0.214338 0.000000 0.000000 0.000000
0.162468 0.080734 0.211151 0.000000 0.000000 0.000000
0.137228 0.089864 0.215229 0.000000 0.000000 0.000000
0.162249 0.085535 0.239926 0.000000 0.000000 0.000000
0.161798 0.069055 0.214931 0.000000 0.000000 0.000000
0.143585 0.100859 0.222943 0.000000 0.000000 0.000000
0.174129 0.075417 0.219625 0.000000 0.000000 0.000000
0.168246 0.065270 0.208706 0.000000 0.000000 0.000000
0.167483 0.068454 0.220048 0.000000 0.000000 0.000000
0.168262 0.078636 0.219366 0.000000 0.000000 0.000000
0.291012 0.092852 0.144299 0.000000 0.000000 0.000000
0.157811 0.064607 0.207811 0.000000 0.000000 0.000000
0.269898 0.085592 0.161427 0.000000 0.000000 0.000000
0.288243 0.086295 0.157684 0.000000 0.000000 0.000000
0.157683 0.146172 0.244009 0.000000 0.000000 0.000000
0.282200 0.085240 0.150882 0.000000 0.000000 0.000000
0.287198 0.089555 0.150174 0.000000 0.000000 0.000000
0.297723 0.099128 0.129499 0.000000 0.000000 0.000000
0.301715 0.108506 0.126821 0.000000 0.000000 0.000000
0.229241 0.063757 0.196265 0.000000 0.000000 0.000000
0.179846 0.084853 0.214835 0.000000 0.000000 0.000000
0.187661 0.058566 0.182771 0.000000 0.000000 0.000000
0.175243 0.094372 0.224724 0.000000 0.000000 0.000000
0.286029 0.095269 0.145304 0.000000 0.000000 0.000000
0.282551 0.094685 0.146780 0.000000 0.000000 0.000000
0.279390 0.082037 0.160710 0.000000 0.000000 0.000000
0.298094 0.109592 0.128313 0.000000 0.000000 0.000000
0.112346 0.130898 0.208797 0.000000 0.000000 0.000000
0.288925 0.089679 0.145630 0.000000 0.000000 0.000000
0.293973 0.088080 0.145292 0.000000 0.000000 0.000000
0.294510 0.095913 0.139387 0.000000 0.000000 0.000000
0.131057 0.147105 0.247777 0.000000 0.000000 0.000000
0.259930 0.082069 0.173304 0.000000 0.000000 0.000000
0.266495 0.079047 0.170929 0.000000 0.000000 0.000000
0.252646 0.075241 0.166268 0.000000 0.000000 0.000000
0.279813 0.100730 0.149685 0.000000 0.000000 0.000000
0.257858 0.091762 0.168188 0.000000 0.000000 0.000000
0.296535 0.116326 0.167557 0.000000 0.000000 0.000000
0.252587 0.076791 0.184838 0.000000 0.000000 0.000000
0.174314 0.117855 0.210371 0.000000 0.000000 0.000000
0.148929 0.150795 0.280406 0.000000 0.000000 0.000000
0.154657 0.109727 0.230682 0.000000 0.000000 0.000000
0.146299 0.125699 0.231748 0.000000 0.000000 0.000000
0.141851 0.129272 0.256897 0.000000 0.000000 0.000000
0.176615 0.120315 0.232828 0.000000 0.000000 0.000000
0.157136 0.118214 0.246805 0.000000 0.000000 0.000000
0.156873 0.148986 0.277438 0.000000 0.000000 0.000000
0.161823 0.121634 0.249187 0.000000 0.000000 0.000000
0.153040 0.092525 0.226346 0.000000 0.000000 0.000000
0.138573 0.131574 0.215086 0.000000 0.000000 0.000000
0.153661 0.146550 0.253508 0.000000 0.000000 0.000000
0.234800 0.057498 0.195693 0.000000 0.000000 0.000000
0.216842 0.065534 0.191432 0.000000 0.000000 0.000000
0.129353 0.144370 0.238404 0.000000 0.000000 0.000000
0.145998 0.102554 0.208735 0.000000 0.000000 0.000000
0.153512 0.139241 0.248351 0.000000 0.000000 0.000000
0.158435 0.144319 0.260579 0.000000 0.000000 0.000000
0.136701 0.150411 0.253659 0.000000 0.000000 0.000000
0.300099 0.116067 0.137708 0.000000 0.000000 0.000000
0.161463 0.147853 0.273008 0.000000 0.000000 0.000000
0.130060 0.138123 0.219668 0.000000 0.000000 0.000000
0.148167 0.131971 0.250848 0.000000 0.000000 0.000000
0.136175 0.156486 0.243417 0.000000 0.000000 0.000000
0.162054 0.126113 0.264756 0.000000 0.000000 0.000000
0.135524 0.129110 0.233018 0.000000 0.000000 0.000000
0.150311 0.157072 0.263398 0.000000 0.000000 0.000000
0.310450 0.111321 0.126069 0.000000 0.000000 0.000000
0.165904 0.124568 0.280646 0.000000 0.000000 0.000000
0.315770 0.117601 0.148285 0.000000 0.000000 0.000000
0.167903 0.126737 0.280593 0.000000 0.000000 0.000000
0.221201 0.077947 0.186987 0.000000 0.000000 0.000000
0.235296 0.082024 0.188863 0.000000 0.000000 0.000000
0.247112 0.087839 0.178849 0.000000 0.000000 0.000000
0.254993 0.120040 0.173857 0.000000 0.000000 0.000000
0.202471 0.067308 0.189423 0.000000 0.000000 0.000000
0.196025 0.059994 0.188452 0.000000 0.000000 0.000000
0.263562 0.112483 0.174619 0.000000 0.000000 0.000000
0.254763 0.102126 0.168913 0.000000 0.000000 0.000000
0.223659 0.085795 0.182653 0.000000 0.000000 0.000000
0.206563 0.072466 0.187202 0.000000 0.000000 0.000000
0.195041 0.064143 0.181850 0.000000 0.000000 0.000000
0.226165 0.096279 0.182877 0.000000 0.000000 0.000000
0.139434 0.151091 0.239992 0.000000 0.000000 0.000000
0.138017 0.160667 0.251214 0.000000 0.000000 0.000000
0.126217 0.153295 0.247516 0.000000 0.000000 0.000000
0.153162 0.111359 0.252148 0.000000 0.000000 0.000000
0.145122 0.140235 0.253113 0.000000 0.000000 0.000000
0.152454 0.121664 0.228045 0.000000 0.000000 0.000000
0.143683 0.112844 0.238515 0.000000 0.000000 0.000000
0.159251 0.131795 0.261830 0.000000 0.000000 0.000000
0.138572 0.116094 0.239988 0.000000 0.000000 0.000000
0.153615 0.115629 0.243606 0.000000 0.000000 0.000000
0.149044 0.131569 0.252798 0.000000 0.000000 0.000000
0.148801 0.128844 0.258185 0.000000 0.000000 0.000000
0.152004 0.144312 0.262360 0.000000 0.000000 0.000000
0.166643 0.143932 0.258277 0.000000 0.000000 0.000000
0.197014 0.052418 0.192289 0.000000 0.000000 0.000000
0.145099 0.154869 0.250149 0.000000 0.000000 0.000000
0.156202 0.149302 0.265045 0.000000 0.000000 0.000000
0.160683 0.129352 0.267191 0.000000 0.000000 0.000000
0.162344 0.137177 0.252477 0.000000 0.000000 0.000000
0.160719 0.149287 0.263909 0.000000 0.000000 0.000000
0.276138 0.115317 0.193174 0.000000 0.000000 0.000000
0.298469 0.101982 0.129991 0.000000 0.000000 0.000000
0.305107 0.117007 0.176229 0.000000 0.000000 0.000000
0.306559 0.108196 0.156974 0.000000 0.000000 0.000000
0.295877 0.100081 0.124963 0.000000 0.000000 0.000000
0.309426 0.111614 0.146669 0.000000 0.000000 0.000000
0.316283 0.121178 0.155648 0.000000 0.000000 0.000000
0.197095 0.056312 0.200848 0.000000 0.000000 0.000000
0.262988 0.148592 0.172176 0.000000 0.000000 0.000000
0.177067 0.053877 0.181981 0.000000 0.000000 0.000000
0.180217 0.057532 0.200948 0.000000 0.000000 0.000000
0.290313 0.173001 0.166733 0.000000 0.000000 0.000000
0.193566 0.053002 0.190194 0.000000 0.000000 0.000000
0.291472 0.086786 0.148452 0.000000 0.000000 0.000000
0.160217 0.145995 0.263574 0.000000 0.000000 0.000000
0.149465 0.151613 0.264006 0.000000 0.000000 0.000000
0.130070 0.138916 0.231492 0.000000 0.000000 0.000000
0.166317 0.144490 0.297422 0.000000 0.000000 0.000000
0.160200 0.141107 0.275161 0.000000 0.000000 0.000000
0.169175 0.141601 0.289482 0.000000 0.000000 0.000000
0.163428 0.141713 0.295777 0.000000 0.000000 0.000000
0.160506 0.143934 0.270091 0.000000 0.000000 0.000000
0.295757 0.168214 0.193371 0.000000 0.000000 0.000000
0.148180 0.082614 0.217687 0.000000 0.000000 0.000000
0.156589 0.084089 0.210749 0.000000 0.000000 0.000000
0.161414 0.102676 0.251814 0.000000 0.000000 0.000000
0.313656 0.116484 0.162702 0.000000 0.000000 0.000000
0.157802 0.151279 0.266759 0.000000 0.000000 0.000000
0.150783 0.105247 0.222870 0.000000 0.000000 0.000000
0.141276 0.118806 0.227921 0.000000 0.000000 0.000000
0.203780 0.054995 0.192469 0.000000 0.000000 0.000000
0.145369 0.117302 0.223850 0.000000 0.000000 0.000000
0.151156 0.152742 0.269705 0.000000 0.000000 0.000000
0.315917 0.122737 0.137918 0.000000 0.000000 0.000000
0.155860 0.125468 0.254669 0.000000 0.000000 0.000000
0.162897 0.098614 0.228770 0.000000 0.000000 0.000000
0.190485 0.054446 0.184170 0.000000 0.000000 0.000000
0.150599 0.108105 0.236187 0.000000 0.000000 0.000000
0.135100 0.154257 0.268830 0.000000 0.000000 0.000000
0.150985 0.125115 0.265308 0.000000 0.000000 0.000000
0.154400 0.132913 0.267399 0.000000 0.000000 0.000000
0.288959 0.170062 0.164392 0.000000 0.000000 0.000000
0.183460 0.064872 0.222855 0.000000 0.000000 0.000000
0.150896 0.151036 0.262409 0.000000 0.000000 0.000000
0.154955 0.145146 0.261298 0.000000 0.000000 0.000000
0.158137 0.145850 0.261365 0.000000 0.000000 0.000000
0.189065 0.061412 0.225355 0.000000 0.000000 0.000000
0.168741 0.138717 0.258246 0.000000 0.000000 0.000000
0.191962 0.069123 0.200613 0.000000 0.000000 0.000000
0.292681 0.101858 0.132096 0.000000 0.000000 0.000000
0.296257 0.106951 0.129820 0.000000 0.000000 0.000000
0.297941 0.102116 0.137918 0.000000 0.000000 0.000000
0.288921 0.097948 0.143853 0.000000 0.000000 0.000000
0.293344 0.096986 0.143025 0.000000 0.000000 0.000000
0.152666 0.072383 0.224598 0.000000 0.000000 0.000000
0.301600 0.106522 0.127451 0.000000 0.000000 0.000000
0.131069 0.129815 0.214148 0.000000 0.000000 0.000000
0.296939 0.105793 0.132509 0.000000 0.000000 0.000000
0.302891 0.101268 0.148798 0.000000 0.000000 0.000000
0.299419 0.099188 0.149096 0.000000 0.000000 0.000000
0.304393 0.108146 0.143156 0.000000 0.000000 0.000000
0.296297 0.097763 0.154603 0.000000 0.000000 0.000000
0.298431 0.102414 0.141443 0.000000 0.000000 0.000000
0.307652 0.113417 0.126089 0.000000 0.000000 0.000000
0.298039 0.107730 0.137726 0.000000 0.000000 0.000000
0.294933 0.105896 0.139197 0.000000 0.000000 0.000000
0.298743 0.097559 0.136198 0.000000 0.000000 0.000000
0.147273 0.105885 0.230837 0.000000 0.000000 0.000000
0.293645 0.106714 0.141206 0.000000 0.000000 0.000000
0.293697 0.110307 0.133421 0.000000 0.000000 0.000000
0.161672 0.073196 0.224336 0.000000 0.000000 0.000000
0.296140 0.098272 0.135273 0.000000 0.000000 0.000000
0.301646 0.110951 0.128424 0.000000 0.000000 0.000000
0.299426 0.095178 0.144568 0.000000 0.000000 0.000000
0.126420 0.110880 0.210903 0.000000 0.000000 0.000000
0.291657 0.102407 0.152005 0.000000 0.000000 0.000000
0.307784 0.111466 0.133637 0.000000 0.000000 0.000000
0.297373 0.104456 0.168676 0.000000 0.000000 0.000000
0.308605 0.113324 0.137178 0.000000 0.000000 0.000000
0.299029 0.098745 0.141832 0.000000 0.000000 0.000000
0.310292 0.118488 0.152608 0.000000 0.000000 0.000000
0.281197 0.173437 0.176221 0.000000 0.000000 0.000000
0.300756 0.092919 0.158170 0.000000 0.000000 0.000000
0.263155 0.078929 0.171105 0.000000 0.000000 0.000000
0.266073 0.080130 0.166065 0.000000 0.000000 0.000000
0.183866 0.054521 0.184389 0.000000 0.000000 0.000000
0.188952 0.053071 0.188490 0.000000 0.000000 0.000000
0.262410 0.081420 0.171912 0.000000 0.000000 0.000000
0.268884 0.077671 0.168413 0.000000 0.000000 0.000000
0.240123 0.069952 0.198392 0.000000 0.000000 0.000000
0.271718 0.081405 0.160353 0.000000 0.000000 0.000000
0.273006 0.089939 0.159589 0.000000 0.000000 0.000000
0.263712 0.080886 0.167441 0.000000 0.000000 0.000000
0.257270 0.086406 0.172162 0.000000 0.000000 0.000000
0.225678 0.061628 0.194193 0.000000 0.000000 0.000000
0.137796 0.159989 0.245559 0.000000 0.000000 0.000000
0.220122 0.059355 0.157823 0.000000 0.000000 0.000000
0.235351 0.068130 0.197800 0.000000 0.000000 0.000000
0.284317 0.092498 0.146157 0.000000 0.000000 0.000000
0.269535 0.081437 0.166311 0.000000 0.000000 0.000000
0.239629 0.080691 0.187697 0.000000 0.000000 0.000000
0.314876 0.117827 0.160221 0.000000 0.000000 0.000000
0.163962 0.140268 0.291390 0.000000 0.000000 0.000000
0.276978 0.159458 0.189477 0.000000 0.000000 0.000000
0.167459 0.141218 0.296450 0.000000 0.000000 0.000000
0.298305 0.162287 0.196123 0.000000 0.000000 0.000000
0.288497 0.160771 0.190633 0.000000 0.000000 0.000000
0.139243 0.161164 0.246544 0.000000 0.000000 0.000000
0.229812 0.082595 0.194143 0.000000 0.000000 0.000000
0.199954 0.056147 0.187980 0.000000 0.000000 0.000000
0.223269 0.066858 0.195358 0.000000 0.000000 0.000000
0.205473 0.060938 0.188464 0.000000 0.000000 0.000000
0.212561 0.059688 0.190528 0.000000 0.000000 0.000000
0.218084 0.060792 0.193678 0.000000 0.000000 0.000000
0.205241 0.063930 0.186751 0.000000 0.000000 0.000000
0.210107 0.061589 0.187251 0.000000 0.000000 0.000000
0.215966 0.068306 0.187951 0.000000 0.000000 0.000000
0.215420 0.058203 0.196070 0.000000 0.000000 0.000000
0.221711 0.067999 0.198095 0.000000 0.000000 0.000000
0.147908 0.121029 0.245025 0.000000 0.000000 0.000000
0.167638 0.128232 0.285499 0.000000 0.000000 0.000000
0.167633 0.125785 0.283139 0.000000 0.000000 0.000000
0.317238 0.123968 0.147330 0.000000 0.000000 0.000000
0.137346 0.141715 0.240850 0.000000 0.000000 0.000000
0.138479 0.132373 0.231162 0.000000 0.000000 0.000000
0.146730 0.120469 0.227817 0.000000 0.000000 0.000000
0.150888 0.121230 0.239088 0.000000 0.000000 0.000000
0.156868 0.154038 0.243481 0.000000 0.000000 0.000000
0.167842 0.134893 0.287525 0.000000 0.000000 0.000000
0.276862 0.161658 0.180577 0.000000 0.000000 0.000000
0.138788 0.136035 0.243321 0.000000 0.000000 0.000000
0.142636 0.113824 0.212939 0.000000 0.000000 0.000000
0.139737 0.133801 0.257158 0.000000 0.000000 0.000000
0.152585 0.117236 0.238264 0.000000 0.000000 0.000000
0.136617 0.142331 0.239521 0.000000 0.000000 0.000000
0.166263 0.133433 0.292065 0.000000 0.000000 0.000000
0.273627 0.085743 0.155826 0.000000 0.000000 0.000000
0.274723 0.081730 0.156141 0.000000 0.000000 0.000000
0.141131 0.154560 0.247889 0.000000 0.000000 0.000000
0.137802 0.146746 0.242560 0.000000 0.000000 0.000000
0.229866 0.068662 0.194640 0.000000 0.000000 0.000000
0.134296 0.158990 0.240250 0.000000 0.000000 0.000000
0.206448 0.067926 0.197250 0.000000 0.000000 0.000000
0.216536 0.072380 0.194667 0.000000 0.000000 0.000000
0.136143 0.148582 0.237998 0.000000 0.000000 0.000000
0.294111 0.089991 0.148211 0.000000 0.000000 0.000000
0.259576 0.076612 0.176523 0.000000 0.000000 0.000000
0.290799 0.093743 0.139741 0.000000 0.000000 0.000000
0.289784 0.097898 0.140235 0.000000 0.000000 0.000000
0.279494 0.085074 0.152251 0.000000 0.000000 0.000000
0.282556 0.089509 0.147911 0.000000 0.000000 0.000000
0.256559 0.082977 0.173991 0.000000 0.000000 0.000000
0.267516 0.085571 0.175588 0.000000 0.000000 0.000000
0.258593 0.077920 0.177801 0.000000 0.000000 0.000000
0.283665 0.100168 0.142001 0.000000 0.000000 0.000000
0.269822 0.079785 0.166800 0.000000 0.000000 0.000000
0.289683 0.092315 0.145311 0.000000 0.000000 0.000000
0.264055 0.083671 0.166028 0.000000 0.000000 0.000000
0.255022 0.079316 0.180558 0.000000 0.000000 0.000000
0.249967 0.077863 0.186166 0.000000 0.000000 0.000000
0.305437 0.108088 0.148499 0.000000 0.000000 0.000000
0.122492 0.046072 0.212506 0.000000 0.000000 0.000000
0.131171 0.050670 0.177361 0.000000 0.000000 0.000000
0.081276 0.080527 0.180513 0.000000 0.000000 0.000000
0.084465 0.086297 0.174441 0.000000 0.000000 0.000000
0.084674 0.084382 0.183336 0.000000 0.000000 0.000000
0.130169 0.044229 0.182109 0.000000 0.000000 0.000000
0.120008 0.049788 0.182626 0.000000 0.000000 0.000000
0.090549 0.083433 0.173321 0.000000 0.000000 0.000000
0.132235 0.046515 0.182633 0.000000 0.000000 0.000000
0.094291 0.084416 0.168120 0.000000 0.000000 0.000000
0.127985 0.042780 0.185850 0.000000 0.000000 0.000000
0.120872 0.055751 0.176752 0.000000 0.000000 0.000000
0.136035 0.041886 0.179384 0.000000 0.000000 0.000000
0.085687 0.083589 0.165732 0.000000 0.000000 0.000000
0.084298 0.085055 0.172494 0.000000 0.000000 0.000000
0.080430 0.091636 0.169905 0.000000 0.000000 0.000000
0.122753 0.051505 0.179977 0.000000 0.000000 0.000000
0.094289 0.087949 0.188927 0.000000 0.000000 0.000000
0.082156 0.089058 0.178871 0.000000 0.000000 0.000000
0.138694 0.047001 0.186439 0.000000 0.000000 0.000000
0.141673 0.044599 0.182918 0.000000 0.000000 0.000000
0.126127 0.042613 0.191084 0.000000 0.000000 0.000000
0.128825 0.057773 0.180305 0.000000 0.000000 0.000000
0.144227 0.043287 0.185969 0.000000 0.000000 0.000000
0.081635 0.094797 0.182895 0.000000 0.000000 0.000000
0.123846 0.062458 0.172269 0.000000 0.000000 0.000000
0.126191 0.062907 0.176518 0.000000 0.000000 0.000000
0.170487 0.052006 0.189548 0.000000 0.000000 0.000000
0.171149 0.055268 0.194707 0.000000 0.000000 0.000000
0.162837 0.055581 0.186644 0.000000 0.000000 0.000000
0.184141 0.052343 0.188156 0.000000 0.000000 0.000000
0.196895 0.043591 0.193444 0.000000 0.000000 0.000000
0.276778 0.043040 0.199924 0.000000 0.000000 0.000000
0.162135 0.050212 0.183287 0.000000 0.000000 0.000000
0.192165 0.043981 0.214871 0.000000 0.000000 0.000000
0.193683 0.043554 0.212641 0.000000 0.000000 0.000000
0.236549 0.041309 0.198477 0.000000 0.000000 0.000000
0.135073 0.057460 0.185794 0.000000 0.000000 0.000000
0.194420 0.040865 0.213272 0.000000 0.000000 0.000000
0.192629 0.043297 0.217082 0.000000 0.000000 0.000000
0.197105 0.047753 0.212912 0.000000 0.000000 0.000000
0.192281 0.042630 0.211666 0.000000 0.000000 0.000000
0.143004 0.046926 0.183320 0.000000 0.000000 0.000000
0.186163 0.040441 0.215615 0.000000 0.000000 0.000000
0.188747 0.043106 0.214677 0.000000 0.000000 0.000000
0.161517 0.054227 0.190165 0.000000 0.000000 0.000000
0.164241 0.054995 0.187731 0.000000 0.000000 0.000000
0.177562 0.051894 0.188748 0.000000 0.000000 0.000000
0.160724 0.055029 0.181711 0.000000 0.000000 0.000000
0.180821 0.052834 0.185571 0.000000 0.000000 0.000000
0.251739 0.140741 0.139352 0.000000 0.000000 0.000000
0.251785 0.146605 0.140789 0.000000 0.000000 0.000000
0.285900 0.138552 0.125103 0.000000 0.000000 0.000000
0.092476 0.147715 0.202277 0.000000 0.000000 0.000000
0.099459 0.115714 0.191622 0.000000 0.000000 0.000000
0.259824 0.169780 0.123638 0.000000 0.000000 0.000000
0.286157 0.133909 0.133451 0.000000 0.000000 0.000000
0.298270 0.132660 0.124415 0.000000 0.000000 0.000000
0.278157 0.131442 0.150064 0.000000 0.000000 0.000000
0.283508 0.149442 0.135914 0.000000 0.000000 0.000000
0.258198 0.107644 0.133128 0.000000 0.000000 0.000000
0.287448 0.135584 0.135083 0.000000 0.000000 0.000000
0.290426 0.129818 0.131457 0.000000 0.000000 0.000000
0.279289 0.135016 0.140671 0.000000 0.000000 0.000000
0.169478 0.087457 0.197292 0.000000 0.000000 0.000000
0.258679 0.159303 0.126588 0.000000 0.000000 0.000000
0.274502 0.171112 0.127298 0.000000 0.000000 0.000000
0.254009 0.162852 0.126526 0.000000 0.000000 0.000000
0.285813 0.126838 0.138215 0.000000 0.000000 0.000000
0.162386 0.083837 0.165048 0.000000 0.000000 0.000000
0.290816 0.156845 0.120577 0.000000 0.000000 0.000000
0.310810 0.131527 0.145051 0.000000 0.000000 0.000000
0.296570 0.147754 0.129208 0.000000 0.000000 0.000000
0.260816 0.133568 0.148344 0.000000 0.000000 0.000000
0.290403 0.135243 0.131477 0.000000 0.000000 0.000000
0.161745 0.080813 0.198408 0.000000 0.000000 0.000000
0.294273 0.156793 0.122446 0.000000 0.000000 0.000000
0.254061 0.154854 0.133060 0.000000 0.000000 0.000000
0.311781 0.130903 0.143301 0.000000 0.000000 0.000000
0.242037 0.158303 0.130329 0.000000 0.000000 0.000000
0.218978 0.081171 0.172906 0.000000 0.000000 0.000000
0.176245 0.079427 0.167236 0.000000 0.000000 0.000000
0.312190 0.122827 0.129429 0.000000 0.000000 0.000000
0.268080 0.137314 0.132520 0.000000 0.000000 0.000000
0.305389 0.125659 0.126065 0.000000 0.000000 0.000000
0.248877 0.117155 0.155982 0.000000 0.000000 0.000000
0.295293 0.148362 0.121260 0.000000 0.000000 0.000000
0.272422 0.106955 0.152169 0.000000 0.000000 0.000000
0.302180 0.152146 0.123693 0.000000 0.000000 0.000000
0.106375 0.208032 0.089187 0.000000 0.000000 0.000000
0.123198 0.162037 0.128428 0.000000 0.000000 0.000000
0.272912 0.160287 0.132993 0.000000 0.000000 0.000000
0.150365 0.071472 0.162486 0.000000 0.000000 0.000000
0.157941 0.059687 0.180867 0.000000 0.000000 0.000000
0.164241 0.079289 0.167779 0.000000 0.000000 0.000000
0.261117 0.155745 0.130799 0.000000 0.000000 0.000000
0.150088 0.078724 0.163805 0.000000 0.000000 0.000000
0.146784 0.083530 0.160603 0.000000 0.000000 0.000000
0.184081 0.072772 0.186849 0.000000 0.000000 0.000000
0.306164 0.121590 0.122280 0.000000 0.000000 0.000000
0.288420 0.110692 0.137303 0.000000 0.000000 0.000000
0.289528 0.147942 0.125847 0.000000 0.000000 0.000000
0.291991 0.126229 0.131171 0.000000 0.000000 0.000000
0.160068 0.060183 0.169998 0.000000 0.000000 0.000000
0.278499 0.110646 0.144887 0.000000 0.000000 0.000000
0.176057 0.119980 0.162515 0.000000 0.000000 0.000000
0.203162 0.120053 0.167410 0.000000 0.000000 0.000000
0.204249 0.092642 0.167460 0.000000 0.000000 0.000000
0.154252 0.058722 0.164096 0.000000 0.000000 0.000000
0.167501 0.075347 0.160650 0.000000 0.000000 0.000000
0.163739 0.069550 0.170929 0.000000 0.000000 0.000000
0.310860 0.131287 0.132636 0.000000 0.000000 0.000000
0.165955 0.077450 0.192305 0.000000 0.000000 0.000000
0.154529 0.086062 0.198133 0.000000 0.000000 0.000000
0.162603 0.087263 0.190764 0.000000 0.000000 0.000000
0.153503 0.075408 0.189938 0.000000 0.000000 0.000000
0.153799 0.063956 0.161408 0.000000 0.000000 0.000000
0.157240 0.058088 0.185418 0.000000 0.000000 0.000000
0.306290 0.140735 0.147897 0.000000 0.000000 0.000000
0.166892 0.058790 0.183556 0.000000 0.000000 0.000000
0.192450 0.081130 0.172734 0.000000 0.000000 0.000000
0.130519 0.075029 0.182060 0.000000 0.000000 0.000000
0.149690 0.065008 0.191446 0.000000 0.000000 0.000000
0.116413 0.090817 0.190529 0.000000 0.000000 0.000000
0.132141 0.073285 0.199997 0.000000 0.000000 0.000000
0.203848 0.073745 0.178215 0.000000 0.000000 0.000000
0.185568 0.074584 0.174767 0.000000 0.000000 0.000000
0.130117 0.184432 0.158829 0.000000 0.000000 0.000000
0.278118 0.121285 0.141570 0.000000 0.000000 0.000000
0.272333 0.116154 0.137472 0.000000 0.000000 0.000000
0.267127 0.119133 0.153262 0.000000 0.000000 0.000000
0.181907 0.060393 0.171551 0.000000 0.000000 0.000000
0.171302 0.084454 0.168602 0.000000 0.000000 0.000000
0.204947 0.092481 0.167218 0.000000 0.000000 0.000000
0.271836 0.110586 0.156639 0.000000 0.000000 0.000000
0.200458 0.127014 0.171118 0.000000 0.000000 0.000000
0.304848 0.115648 0.124424 0.000000 0.000000 0.000000
0.255015 0.137775 0.145987 0.000000 0.000000 0.000000
0.274129 0.125942 0.148674 0.000000 0.000000 0.000000
0.293495 0.114379 0.135765 0.000000 0.000000 0.000000
0.185036 0.093071 0.162290 0.000000 0.000000 0.000000
0.163887 0.058716 0.178963 0.000000 0.000000 0.000000
0.286645 0.116207 0.137937 0.000000 0.000000 0.000000
0.236284 0.107269 0.167139 0.000000 0.000000 0.000000
0.292597 0.123258 0.150865 0.000000 0.000000 0.000000
0.157682 0.083153 0.168299 0.000000 0.000000 0.000000
0.285541 0.141319 0.142048 0.000000 0.000000 0.000000
0.182242 0.088061 0.169840 0.000000 0.000000 0.000000
0.287689 0.141324 0.130301 0.000000 0.000000 0.000000
0.172726 0.061526 0.178958 0.000000 0.000000 0.000000
0.167763 0.062750 0.179210 0.000000 0.000000 0.000000
0.304673 0.128238 0.133381 0.000000 0.000000 0.000000
0.137431 0.068940 0.186031 0.000000 0.000000 0.000000
0.159921 0.069643 0.199912 0.000000 0.000000 0.000000
0.286122 0.156054 0.135652 0.000000 0.000000 0.000000
0.187637 0.087150 0.166774 0.000000 0.000000 0.000000
0.121297 0.084579 0.184960 0.000000 0.000000 0.000000
0.128542 0.088956 0.201957 0.000000 0.000000 0.000000
0.188097 0.080548 0.180277 0.000000 0.000000 0.000000
0.295283 0.112723 0.126362 0.000000 0.000000 0.000000
0.180663 0.060646 0.178605 0.000000 0.000000 0.000000
0.194815 0.076266 0.177934 0.000000 0.000000 0.000000
0.185884 0.066786 0.178710 0.000000 0.000000 0.000000
0.161674 0.074030 0.196745 0.000000 0.000000 0.000000
0.170290 0.072252 0.168667 0.000000 0.000000 0.000000
0.161009 0.070187 0.166199 0.000000 0.000000 0.000000
0.304083 0.143399 0.123859 0.000000 0.000000 0.000000
0.299934 0.124819 0.124374 0.000000 0.000000 0.000000
0.316982 0.129447 0.129708 0.000000 0.000000 0.000000
0.304419 0.128466 0.124080 0.000000 0.000000 0.000000
0.309924 0.124483 0.120014 0.000000 0.000000 0.000000
0.296313 0.133809 0.136149 0.000000 0.000000 0.000000
0.160352 0.065222 0.180926 0.000000 0.000000 0.000000
0.129662 0.088768 0.187462 0.000000 0.000000 0.000000
0.179772 0.068877 0.194968 0.000000 0.000000 0.000000
0.252324 0.157503 0.127627 0.000000 0.000000 0.000000
0.254941 0.105384 0.166428 0.000000 0.000000 0.000000
0.177135 0.071629 0.176779 0.000000 0.000000 0.000000
0.259689 0.154088 0.123769 0.000000 0.000000 0.000000
0.130818 0.070670 0.200203 0.000000 0.000000 0.000000
0.293083 0.129201 0.147051 0.000000 0.000000 0.000000
0.156473 0.067706 0.202028 0.000000 0.000000 0.000000
0.176102 0.062745 0.174401 0.000000 0.000000 0.000000
0.144472 0.065019 0.206969 0.000000 0.000000 0.000000
0.168656 0.195161 0.164370 0.000000 0.000000 0.000000
0.160138 0.065210 0.200646 0.000000 0.000000 0.000000
0.169921 0.200557 0.167652 0.000000 0.000000 0.000000
0.153966 0.062165 0.182504 0.000000 0.000000 0.000000
0.167847 0.061075 0.199754 0.000000 0.000000 0.000000
0.118097 0.086248 0.177109 0.000000 0.000000 0.000000
0.106183 0.106665 0.188797 0.000000 0.000000 0.000000
0.140650 0.074954 0.192844 0.000000 0.000000 0.000000
0.109361 0.098971 0.175253 0.000000 0.000000 0.000000
0.143514 0.186059 0.147043 0.000000 0.000000 0.000000
0.307564 0.112881 0.114981 0.000000 0.000000 0.000000
0.105015 0.130570 0.203455 0.000000 0.000000 0.000000
0.135035 0.100643 0.192481 0.000000 0.000000 0.000000
0.179733 0.058698 0.179038 0.000000 0.000000 0.000000
0.292348 0.109414 0.133145 0.000000 0.000000 0.000000
0.157192 0.182175 0.156619 0.000000 0.000000 0.000000
0.140826 0.175697 0.169199 0.000000 0.000000 0.000000
0.112356 0.113580 0.184670 0.000000 0.000000 0.000000
0.119479 0.090534 0.181315 0.000000 0.000000 0.000000
0.131065 0.099993 0.187465 0.000000 0.000000 0.000000
0.126541 0.080589 0.180748 0.000000 0.000000 0.000000
0.296181 0.126811 0.130451 0.000000 0.000000 0.000000
0.158924 0.183558 0.144694 0.000000 0.000000 0.000000
0.318186 0.135168 0.126333 0.000000 0.000000 0.000000
0.153864 0.057985 0.185669 0.000000 0.000000 0.000000
0.111621 0.103345 0.182013 0.000000 0.000000 0.000000
0.136210 0.074310 0.191424 0.000000 0.000000 0.000000
0.248303 0.134562 0.150691 0.000000 0.000000 0.000000
0.122268 0.119643 0.198042 0.000000 0.000000 0.000000
0.305677 0.112904 0.122764 0.000000 0.000000 0.000000
0.305476 0.114056 0.120920 0.000000 0.000000 0.000000
0.308656 0.114139 0.120202 0.000000 0.000000 0.000000
0.279681 0.160677 0.130532 0.000000 0.000000 0.000000
0.304088 0.120074 0.125765 0.000000 0.000000 0.000000
0.302018 0.121601 0.124569 0.000000 0.000000 0.000000
0.305945 0.114763 0.115578 0.000000 0.000000 0.000000
0.300577 0.115483 0.127697 0.000000 0.000000 0.000000
0.168173 0.066589 0.171384 0.000000 0.000000 0.000000
0.104777 0.089685 0.176516 0.000000 0.000000 0.000000
0.179317 0.079574 0.170727 0.000000 0.000000 0.000000
0.217988 0.119487 0.175962 0.000000 0.000000 0.000000
0.196108 0.099854 0.168856 0.000000 0.000000 0.000000
0.199602 0.076273 0.185034 0.000000 0.000000 0.000000
0.193571 0.066606 0.179175 0.000000 0.000000 0.000000
0.129969 0.097214 0.189303 0.000000 0.000000 0.000000
0.106682 0.115764 0.190518 0.000000 0.000000 0.000000
0.204230 0.084023 0.174861 0.000000 0.000000 0.000000
0.309052 0.157904 0.126525 0.000000 0.000000 0.000000
0.089549 0.229545 0.088451 0.000000 0.000000 0.000000
0.089665 0.222358 0.092296 0.000000 0.000000 0.000000
0.129455 0.207695 0.132847 0.000000 0.000000 0.000000
0.093749 0.200090 0.123510 0.000000 0.000000 0.000000
0.087492 0.234413 0.086056 0.000000 0.000000 0.000000
0.166877 0.084404 0.165928 0.000000 0.000000 0.000000
0.246562 0.197670 0.155019 0.000000 0.000000 0.000000
0.168660 0.078445 0.173687 0.000000 0.000000 0.000000
0.135325 0.178836 0.138313 0.000000 0.000000 0.000000
0.156963 0.060627 0.161259 0.000000 0.000000 0.000000
0.313675 0.145797 0.145712 0.000000 0.000000 0.000000
0.171989 0.054062 0.182260 0.000000 0.000000 0.000000
0.173102 0.055388 0.177688 0.000000 0.000000 0.000000
0.264317 0.129398 0.155092 0.000000 0.000000 0.000000
0.117270 0.261770 0.151118 0.000000 0.000000 0.000000
0.127947 0.258071 0.134474 0.000000 0.000000 0.000000
0.165130 0.059279 0.166552 0.000000 0.000000 0.000000
0.158627 0.061863 0.164153 0.000000 0.000000 0.000000
0.097980 0.229904 0.083016 0.000000 0.000000 0.000000
0.091325 0.236217 0.092569 0.000000 0.000000 0.000000
0.172026 0.088283 0.160954 0.000000 0.000000 0.000000
0.285961 0.157344 0.125911 0.000000 0.000000 0.000000
0.281179 0.121162 0.144010 0.000000 0.000000 0.000000
0.273870 0.120011 0.148826 0.000000 0.000000 0.000000
0.307480 0.138442 0.120641 0.000000 0.000000 0.000000
0.301128 0.126318 0.121774 0.000000 0.000000 0.000000
0.290159 0.122076 0.136417 0.000000 0.000000 0.000000
0.290330 0.119387 0.135137 0.000000 0.000000 0.000000
0.299956 0.139806 0.121310 0.000000 0.000000 0.000000
0.265978 0.158899 0.144410 0.000000 0.000000 0.000000
0.301178 0.129235 0.124823 0.000000 0.000000 0.000000
0.314609 0.126748 0.134378 0.000000 0.000000 0.000000
0.304810 0.121564 0.133211 0.000000 0.000000 0.000000
0.314941 0.124612 0.126911 0.000000 0.000000 0.000000
0.131262 0.260754 0.158113 0.000000 0.000000 0.000000
0.098460 0.104189 0.187126 0.000000 0.000000 0.000000
0.105361 0.096722 0.183596 0.000000 0.000000 0.000000
0.308077 0.119997 0.119216 0.000000 0.000000 0.000000
0.091877 0.223528 0.120136 0.000000 0.000000 0.000000
0.096708 0.104678 0.186953 0.000000 0.000000 0.000000
0.110197 0.092641 0.184123 0.000000 0.000000 0.000000
0.258831 0.192166 0.150482 0.000000 0.000000 0.000000
0.260314 0.184419 0.147210 0.000000 0.000000 0.000000
0.121531 0.175670 0.132177 0.000000 0.000000 0.000000
0.131804 0.202050 0.147113 0.000000 0.000000 0.000000
0.132588 0.193224 0.149815 0.000000 0.000000 0.000000
0.140868 0.187221 0.131048 0.000000 0.000000 0.000000
0.144028 0.205480 0.158239 0.000000 0.000000 0.000000
0.130633 0.191218 0.153732 0.000000 0.000000 0.000000
0.142748 0.203604 0.160084 0.000000 0.000000 0.000000
0.139067 0.267118 0.154889 0.000000 0.000000 0.000000
0.303193 0.109725 0.120156 0.000000 0.000000 0.000000
0.097191 0.107283 0.186600 0.000000 0.000000 0.000000
0.101132 0.101254 0.190252 0.000000 0.000000 0.000000
0.225039 0.135688 0.163495 0.000000 0.000000 0.000000
0.108066 0.242134 0.132743 0.000000 0.000000 0.000000
0.263224 0.183296 0.130869 0.000000 0.000000 0.000000
0.310001 0.135439 0.136268 0.000000 0.000000 0.000000
0.265863 0.155811 0.156376 0.000000 0.000000 0.000000
0.283973 0.145530 0.154430 0.000000 0.000000 0.000000
0.108166 0.215934 0.115753 0.000000 0.000000 0.000000
0.113409 0.208278 0.131097 0.000000 0.000000 0.000000
0.119583 0.227202 0.123626 0.000000 0.000000 0.000000
0.188968 0.099993 0.180271 0.000000 0.000000 0.000000
0.214852 0.088521 0.182451 0.000000 0.000000 0.000000
0.113769 0.220802 0.112179 0.000000 0.000000 0.000000
0.241750 0.175122 0.161987 0.000000 0.000000 0.000000
0.159683 0.057281 0.179781 0.000000 0.000000 0.000000
0.162408 0.064044 0.168344 0.000000 0.000000 0.000000
0.159953 0.056275 0.165186 0.000000 0.000000 0.000000
0.174575 0.060727 0.181858 0.000000 0.000000 0.000000
0.167858 0.055432 0.178899 0.000000 0.000000 0.000000
0.172143 0.059465 0.189483 0.000000 0.000000 0.000000
0.115797 0.211310 0.104307 0.000000 0.000000 0.000000
0.092267 0.211310 0.094308 0.000000 0.000000 0.000000
0.107766 0.224982 0.128647 0.000000 0.000000 0.000000
0.115543 0.250805 0.143670 0.000000 0.000000 0.000000
0.102614 0.206642 0.110359 0.000000 0.000000 0.000000
0.108249 0.259749 0.115124 0.000000 0.000000 0.000000
0.122431 0.252226 0.146101 0.000000 0.000000 0.000000
0.104748 0.234029 0.126491 0.000000 0.000000 0.000000
0.108064 0.217102 0.111206 0.000000 0.000000 0.000000
0.118012 0.215905 0.125061 0.000000 0.000000 0.000000
0.094387 0.209139 0.104021 0.000000 0.000000 0.000000
0.096039 0.220638 0.101603 0.000000 0.000000 0.000000
0.117631 0.241669 0.133217 0.000000 0.000000 0.000000
0.119627 0.250269 0.140418 0.000000 0.000000 0.000000
0.141681 0.170323 0.231578 0.000000 0.000000 0.000000
0.145344 0.175883 0.246267 0.000000 0.000000 0.000000
0.167636 0.157982 0.288900 0.000000 0.000000 0.000000
0.178553 0.354898 0.229215 0.000000 0.000000 0.000000
0.142323 0.171958 0.238392 0.000000 0.000000 0.000000
0.169163 0.353195 0.226063 0.000000 0.000000 0.000000
0.137906 0.163903 0.265312 0.000000 0.000000 0.000000
0.143569 0.170737 0.291758 0.000000 0.000000 0.000000
0.164941 0.164891 0.267028 0.000000 0.000000 0.000000
0.161094 0.149971 0.295605 0.000000 0.000000 0.000000
0.138943 0.170439 0.259082 0.000000 0.000000 0.000000
0.145370 0.163666 0.268141 0.000000 0.000000 0.000000
0.157152 0.166226 0.261102 0.000000 0.000000 0.000000
0.137970 0.164507 0.255329 0.000000 0.000000 0.000000
0.264876 0.181527 0.158122 0.000000 0.000000 0.000000
0.276732 0.194913 0.181354 0.000000 0.000000 0.000000
0.259173 0.201407 0.162425 0.000000 0.000000 0.000000
0.183358 0.351341 0.227025 0.000000 0.000000 0.000000
0.168063 0.353977 0.231245 0.000000 0.000000 0.000000
0.269797 0.176601 0.174530 0.000000 0.000000 0.000000
0.257844 0.206328 0.192985 0.000000 0.000000 0.000000
0.162995 0.357208 0.229000 0.000000 0.000000 0.000000
0.168822 0.357349 0.228551 0.000000 0.000000 0.000000
0.164908 0.159096 0.260908 0.000000 0.000000 0.000000
0.155480 0.159870 0.262986 0.000000 0.000000 0.000000
0.142309 0.166519 0.257815 0.000000 0.000000 0.000000
0.146825 0.166771 0.258647 0.000000 0.000000 0.000000
0.165885 0.149548 0.295007 0.000000 0.000000 0.000000
0.164197 0.168795 0.276655 0.000000 0.000000 0.000000
0.164984 0.173766 0.262689 0.000000 0.000000 0.000000
0.164565 0.152138 0.266105 0.000000 0.000000 0.000000
0.157137 0.158471 0.266270 0.000000 0.000000 0.000000
0.149643 0.171281 0.263555 0.000000 0.000000 0.000000
0.150431 0.154373 0.289681 0.000000 0.000000 0.000000
0.277862 0.187343 0.160543 0.000000 0.000000 0.000000
0.271425 0.203226 0.178747 0.000000 0.000000 0.000000
0.260075 0.225137 0.186405 0.000000 0.000000 0.000000
0.270116 0.193528 0.179150 0.000000 0.000000 0.000000
0.163310 0.179713 0.279194 0.000000 0.000000 0.000000
0.269661 0.207632 0.182020 0.000000 0.000000 0.000000
0.258123 0.216717 0.196006 0.000000 0.000000 0.000000
0.272872 0.192915 0.173678 0.000000 0.000000 0.000000
0.163425 0.163788 0.272017 0.000000 0.000000 0.000000
0.273903 0.186250 0.160852 0.000000 0.000000 0.000000
0.140449 0.167677 0.268524 0.000000 0.000000 0.000000
0.160150 0.154976 0.278588 0.000000 0.000000 0.000000
0.139861 0.160256 0.275167 0.000000 0.000000 0.000000
0.157100 0.167436 0.276177 0.000000 0.000000 0.000000
0.264569 0.222446 0.186667 0.000000 0.000000 0.000000
0.173413 0.355805 0.228121 0.000000 0.000000 0.000000
0.273639 0.185278 0.179448 0.000000 0.000000 0.000000
0.139754 0.184981 0.249885 0.000000 0.000000 0.000000
0.136066 0.175758 0.252650 0.000000 0.000000 0.000000
0.158123 0.155040 0.298256 0.000000 0.000000 0.000000
0.166208 0.148718 0.291880 0.000000 0.000000 0.000000
0.273434 0.171686 0.165975 0.000000 0.000000 0.000000
0.145472 0.171400 0.247286 0.000000 0.000000 0.000000
0.138071 0.166990 0.252374 0.000000 0.000000 0.000000
0.157101 0.154900 0.288489 0.000000 0.000000 0.000000
0.268498 0.170959 0.179459 0.000000 0.000000 0.000000
0.248510 0.183930 0.164411 0.000000 0.000000 0.000000
0.258732 0.211244 0.171886 0.000000 0.000000 0.000000
0.249081 0.215996 0.191927 0.000000 0.000000 0.000000
0.253699 0.206487 0.166381 0.000000 0.000000 0.000000
0.256459 0.202814 0.187623 0.000000 0.000000 0.000000
