ply
format ascii 1.0
comment VCGLIB generated
obj_info Generated by SPFormer!
element vertex 345
property float x
property float y
property float z
property float nx
property float ny
property float nz
end_header
0.443332 0.144682 0.282583 0.000000 0.000000 0.000000
0.381040 0.149638 0.257237 0.000000 0.000000 0.000000
0.364329 0.143767 0.275406 0.000000 0.000000 0.000000
0.368224 0.137145 0.251777 0.000000 0.000000 0.000000
0.439419 0.139627 0.282437 0.000000 0.000000 0.000000
0.426337 0.136694 0.276149 0.000000 0.000000 0.000000
0.422127 0.155612 0.306025 0.000000 0.000000 0.000000
0.368867 0.121583 0.263324 0.000000 0.000000 0.000000
0.440802 0.142248 0.279693 0.000000 0.000000 0.000000
0.406300 0.152325 0.304296 0.000000 0.000000 0.000000
0.399097 0.156680 0.258985 0.000000 0.000000 0.000000
0.432090 0.151426 0.296895 0.000000 0.000000 0.000000
0.362881 0.129268 0.269459 0.000000 0.000000 0.000000
0.369770 0.126796 0.267698 0.000000 0.000000 0.000000
0.365851 0.133405 0.260857 0.000000 0.000000 0.000000
0.409024 0.124712 0.240958 0.000000 0.000000 0.000000
0.376681 0.135924 0.272502 0.000000 0.000000 0.000000
0.401628 0.174869 0.268124 0.000000 0.000000 0.000000
0.436467 0.121520 0.266237 0.000000 0.000000 0.000000
0.414676 0.128510 0.300359 0.000000 0.000000 0.000000
0.425082 0.138169 0.263824 0.000000 0.000000 0.000000
0.413676 0.145089 0.264207 0.000000 0.000000 0.000000
0.423014 0.123822 0.246285 0.000000 0.000000 0.000000
0.417987 0.155875 0.305854 0.000000 0.000000 0.000000
0.412818 0.145728 0.289824 0.000000 0.000000 0.000000
0.386972 0.143243 0.229511 0.000000 0.000000 0.000000
0.431046 0.135408 0.278198 0.000000 0.000000 0.000000
0.431396 0.131517 0.269235 0.000000 0.000000 0.000000
0.427655 0.141186 0.279799 0.000000 0.000000 0.000000
0.436994 0.151999 0.288767 0.000000 0.000000 0.000000
0.413954 0.133690 0.251945 0.000000 0.000000 0.000000
0.428703 0.144720 0.292936 0.000000 0.000000 0.000000
0.420956 0.143601 0.292871 0.000000 0.000000 0.000000
0.432008 0.137378 0.285286 0.000000 0.000000 0.000000
0.414707 0.149040 0.258954 0.000000 0.000000 0.000000
0.408593 0.138041 0.304777 0.000000 0.000000 0.000000
0.438102 0.155110 0.293523 0.000000 0.000000 0.000000
0.438614 0.142391 0.280074 0.000000 0.000000 0.000000
0.416547 0.155116 0.272663 0.000000 0.000000 0.000000
0.431212 0.125808 0.271866 0.000000 0.000000 0.000000
0.424154 0.153229 0.298022 0.000000 0.000000 0.000000
0.420221 0.148358 0.294227 0.000000 0.000000 0.000000
0.413908 0.153582 0.301777 0.000000 0.000000 0.000000
0.416530 0.157072 0.297869 0.000000 0.000000 0.000000
0.411489 0.081380 0.279156 0.000000 0.000000 0.000000
0.401960 0.159587 0.261305 0.000000 0.000000 0.000000
0.428543 0.128290 0.269175 0.000000 0.000000 0.000000
0.424451 0.144346 0.271089 0.000000 0.000000 0.000000
0.389355 0.123930 0.254181 0.000000 0.000000 0.000000
0.371534 0.121537 0.277024 0.000000 0.000000 0.000000
0.400140 0.161206 0.296953 0.000000 0.000000 0.000000
0.390933 0.146007 0.239467 0.000000 0.000000 0.000000
0.431311 0.144796 0.283476 0.000000 0.000000 0.000000
0.431570 0.129042 0.261229 0.000000 0.000000 0.000000
0.370139 0.141908 0.274958 0.000000 0.000000 0.000000
0.423426 0.134272 0.271981 0.000000 0.000000 0.000000
0.375391 0.127739 0.273921 0.000000 0.000000 0.000000
0.428286 0.124903 0.271946 0.000000 0.000000 0.000000
0.380016 0.130130 0.271973 0.000000 0.000000 0.000000
0.411700 0.158597 0.288236 0.000000 0.000000 0.000000
0.410126 0.137084 0.256458 0.000000 0.000000 0.000000
0.390913 0.145072 0.229376 0.000000 0.000000 0.000000
0.440280 0.144829 0.289619 0.000000 0.000000 0.000000
0.412562 0.160855 0.301727 0.000000 0.000000 0.000000
0.423527 0.157353 0.306658 0.000000 0.000000 0.000000
0.391543 0.120220 0.254389 0.000000 0.000000 0.000000
0.369387 0.134205 0.277476 0.000000 0.000000 0.000000
0.411712 0.149926 0.295309 0.000000 0.000000 0.000000
0.405949 0.149200 0.291766 0.000000 0.000000 0.000000
0.435872 0.137546 0.285417 0.000000 0.000000 0.000000
0.433574 0.149831 0.287291 0.000000 0.000000 0.000000
0.370894 0.134351 0.267783 0.000000 0.000000 0.000000
0.437120 0.132179 0.284138 0.000000 0.000000 0.000000
0.431530 0.141361 0.291039 0.000000 0.000000 0.000000
0.402411 0.154826 0.268653 0.000000 0.000000 0.000000
0.426684 0.137118 0.274096 0.000000 0.000000 0.000000
0.432058 0.133412 0.268938 0.000000 0.000000 0.000000
0.426329 0.123921 0.263159 0.000000 0.000000 0.000000
0.437194 0.129325 0.271743 0.000000 0.000000 0.000000
0.438356 0.126791 0.274516 0.000000 0.000000 0.000000
0.442940 0.133253 0.278399 0.000000 0.000000 0.000000
0.428421 0.127186 0.268162 0.000000 0.000000 0.000000
0.415789 0.143727 0.289736 0.000000 0.000000 0.000000
0.409625 0.158635 0.299876 0.000000 0.000000 0.000000
0.420566 0.145366 0.292827 0.000000 0.000000 0.000000
0.409918 0.144853 0.286696 0.000000 0.000000 0.000000
0.385248 0.149915 0.221245 0.000000 0.000000 0.000000
0.406827 0.124799 0.245066 0.000000 0.000000 0.000000
0.427046 0.149639 0.298102 0.000000 0.000000 0.000000
0.428253 0.155295 0.299370 0.000000 0.000000 0.000000
0.425602 0.154070 0.296619 0.000000 0.000000 0.000000
0.424537 0.147697 0.284066 0.000000 0.000000 0.000000
0.419699 0.131642 0.262386 0.000000 0.000000 0.000000
0.424285 0.124051 0.259873 0.000000 0.000000 0.000000
0.433099 0.135438 0.273035 0.000000 0.000000 0.000000
0.424926 0.122404 0.255610 0.000000 0.000000 0.000000
0.442188 0.148094 0.285272 0.000000 0.000000 0.000000
0.437431 0.125754 0.270885 0.000000 0.000000 0.000000
0.406886 0.141840 0.295007 0.000000 0.000000 0.000000
0.418201 0.143760 0.296566 0.000000 0.000000 0.000000
0.410989 0.150662 0.261226 0.000000 0.000000 0.000000
0.434574 0.149862 0.292925 0.000000 0.000000 0.000000
0.425760 0.147831 0.295314 0.000000 0.000000 0.000000
0.434057 0.121085 0.253667 0.000000 0.000000 0.000000
0.429289 0.149195 0.294417 0.000000 0.000000 0.000000
0.425577 0.155795 0.295980 0.000000 0.000000 0.000000
0.407479 0.156722 0.302504 0.000000 0.000000 0.000000
0.388524 0.152189 0.219469 0.000000 0.000000 0.000000
0.396279 0.134181 0.234814 0.000000 0.000000 0.000000
0.415179 0.126932 0.253361 0.000000 0.000000 0.000000
0.409683 0.153788 0.290656 0.000000 0.000000 0.000000
0.425414 0.133341 0.270204 0.000000 0.000000 0.000000
0.426249 0.139325 0.285147 0.000000 0.000000 0.000000
0.428324 0.128836 0.256515 0.000000 0.000000 0.000000
0.379652 0.124874 0.265143 0.000000 0.000000 0.000000
0.409255 0.124146 0.295146 0.000000 0.000000 0.000000
0.376986 0.128665 0.272864 0.000000 0.000000 0.000000
0.434811 0.141029 0.288532 0.000000 0.000000 0.000000
0.404193 0.142603 0.291710 0.000000 0.000000 0.000000
0.441015 0.151636 0.290258 0.000000 0.000000 0.000000
0.431263 0.133767 0.271460 0.000000 0.000000 0.000000
0.375379 0.135907 0.266167 0.000000 0.000000 0.000000
0.417928 0.141208 0.256954 0.000000 0.000000 0.000000
0.417233 0.134820 0.249642 0.000000 0.000000 0.000000
0.428468 0.137205 0.279215 0.000000 0.000000 0.000000
0.435478 0.132557 0.272228 0.000000 0.000000 0.000000
0.420646 0.139560 0.288962 0.000000 0.000000 0.000000
0.426262 0.139389 0.276364 0.000000 0.000000 0.000000
0.436743 0.144734 0.284907 0.000000 0.000000 0.000000
0.401911 0.137578 0.251930 0.000000 0.000000 0.000000
0.430648 0.116906 0.266584 0.000000 0.000000 0.000000
0.435914 0.118593 0.264380 0.000000 0.000000 0.000000
0.445997 0.142621 0.279391 0.000000 0.000000 0.000000
0.429741 0.123265 0.260982 0.000000 0.000000 0.000000
0.425783 0.130305 0.267465 0.000000 0.000000 0.000000
0.420469 0.132874 0.253665 0.000000 0.000000 0.000000
0.379550 0.122858 0.260743 0.000000 0.000000 0.000000
0.444929 0.139894 0.274980 0.000000 0.000000 0.000000
0.368918 0.123014 0.254523 0.000000 0.000000 0.000000
0.425950 0.126430 0.267534 0.000000 0.000000 0.000000
0.428943 0.159933 0.299362 0.000000 0.000000 0.000000
0.432478 0.154808 0.296333 0.000000 0.000000 0.000000
0.425688 0.147250 0.298968 0.000000 0.000000 0.000000
0.429496 0.156746 0.297841 0.000000 0.000000 0.000000
0.422568 0.147894 0.297278 0.000000 0.000000 0.000000
0.418563 0.166130 0.303640 0.000000 0.000000 0.000000
0.412396 0.156577 0.295357 0.000000 0.000000 0.000000
0.429430 0.133939 0.269498 0.000000 0.000000 0.000000
0.432067 0.127024 0.257474 0.000000 0.000000 0.000000
0.437393 0.127171 0.278553 0.000000 0.000000 0.000000
0.417007 0.142605 0.286650 0.000000 0.000000 0.000000
0.384825 0.120523 0.249371 0.000000 0.000000 0.000000
0.434115 0.127004 0.278534 0.000000 0.000000 0.000000
0.413418 0.119092 0.239695 0.000000 0.000000 0.000000
0.378137 0.129408 0.274246 0.000000 0.000000 0.000000
0.400159 0.141367 0.288419 0.000000 0.000000 0.000000
0.415077 0.150911 0.291686 0.000000 0.000000 0.000000
0.379931 0.151167 0.219503 0.000000 0.000000 0.000000
0.407759 0.125331 0.291958 0.000000 0.000000 0.000000
0.419404 0.150708 0.296977 0.000000 0.000000 0.000000
0.420215 0.140387 0.288609 0.000000 0.000000 0.000000
0.410319 0.141202 0.293533 0.000000 0.000000 0.000000
0.404607 0.117182 0.237234 0.000000 0.000000 0.000000
0.435219 0.122163 0.272452 0.000000 0.000000 0.000000
0.425990 0.127035 0.266642 0.000000 0.000000 0.000000
0.432939 0.132282 0.273335 0.000000 0.000000 0.000000
0.434483 0.124214 0.276299 0.000000 0.000000 0.000000
0.438550 0.127218 0.281823 0.000000 0.000000 0.000000
0.436625 0.143776 0.281727 0.000000 0.000000 0.000000
0.437282 0.128250 0.262982 0.000000 0.000000 0.000000
0.432223 0.121512 0.264484 0.000000 0.000000 0.000000
0.429551 0.116609 0.267378 0.000000 0.000000 0.000000
0.436513 0.115350 0.263768 0.000000 0.000000 0.000000
0.414585 0.123424 0.239883 0.000000 0.000000 0.000000
0.369873 0.133153 0.270847 0.000000 0.000000 0.000000
0.435068 0.146265 0.285978 0.000000 0.000000 0.000000
0.436445 0.122749 0.259660 0.000000 0.000000 0.000000
0.434674 0.140766 0.279208 0.000000 0.000000 0.000000
0.437257 0.127487 0.265872 0.000000 0.000000 0.000000
0.435641 0.120980 0.271434 0.000000 0.000000 0.000000
0.429256 0.139415 0.275550 0.000000 0.000000 0.000000
0.431810 0.131408 0.272024 0.000000 0.000000 0.000000
0.423765 0.127023 0.266897 0.000000 0.000000 0.000000
0.382400 0.136352 0.276898 0.000000 0.000000 0.000000
0.429258 0.159868 0.300234 0.000000 0.000000 0.000000
0.427329 0.118706 0.254276 0.000000 0.000000 0.000000
0.437429 0.118099 0.255278 0.000000 0.000000 0.000000
0.426577 0.124726 0.263092 0.000000 0.000000 0.000000
0.433115 0.121247 0.257339 0.000000 0.000000 0.000000
0.430168 0.123033 0.273455 0.000000 0.000000 0.000000
0.401806 0.163278 0.299267 0.000000 0.000000 0.000000
0.379804 0.127416 0.270885 0.000000 0.000000 0.000000
0.426524 0.124026 0.257033 0.000000 0.000000 0.000000
0.410585 0.153780 0.296701 0.000000 0.000000 0.000000
0.369426 0.133214 0.272390 0.000000 0.000000 0.000000
0.423432 0.127301 0.254080 0.000000 0.000000 0.000000
0.386467 0.123609 0.272526 0.000000 0.000000 0.000000
0.374365 0.146580 0.275205 0.000000 0.000000 0.000000
0.408230 0.117742 0.244364 0.000000 0.000000 0.000000
0.403469 0.147294 0.230487 0.000000 0.000000 0.000000
0.382832 0.138614 0.279362 0.000000 0.000000 0.000000
0.433705 0.116796 0.265945 0.000000 0.000000 0.000000
0.375015 0.144323 0.278328 0.000000 0.000000 0.000000
0.372748 0.128568 0.262960 0.000000 0.000000 0.000000
0.432739 0.125815 0.252796 0.000000 0.000000 0.000000
0.426211 0.130593 0.260191 0.000000 0.000000 0.000000
0.434997 0.128525 0.265442 0.000000 0.000000 0.000000
0.433924 0.142389 0.274010 0.000000 0.000000 0.000000
0.410123 0.121532 0.292181 0.000000 0.000000 0.000000
0.403302 0.145334 0.293435 0.000000 0.000000 0.000000
0.435529 0.139059 0.277574 0.000000 0.000000 0.000000
0.439582 0.146771 0.283933 0.000000 0.000000 0.000000
0.428606 0.155312 0.295781 0.000000 0.000000 0.000000
0.423418 0.132016 0.260825 0.000000 0.000000 0.000000
0.429805 0.135922 0.279062 0.000000 0.000000 0.000000
0.426645 0.136853 0.282764 0.000000 0.000000 0.000000
0.433051 0.128987 0.272897 0.000000 0.000000 0.000000
0.432575 0.139068 0.276263 0.000000 0.000000 0.000000
0.427746 0.133809 0.273202 0.000000 0.000000 0.000000
0.426962 0.158265 0.298739 0.000000 0.000000 0.000000
0.434582 0.140018 0.281790 0.000000 0.000000 0.000000
0.429148 0.142008 0.281072 0.000000 0.000000 0.000000
0.437668 0.135621 0.276864 0.000000 0.000000 0.000000
0.437392 0.149122 0.289107 0.000000 0.000000 0.000000
0.434648 0.152538 0.295102 0.000000 0.000000 0.000000
0.438939 0.154178 0.291165 0.000000 0.000000 0.000000
0.429958 0.123782 0.275289 0.000000 0.000000 0.000000
0.440444 0.145973 0.282197 0.000000 0.000000 0.000000
0.431125 0.131586 0.279864 0.000000 0.000000 0.000000
0.405785 0.161060 0.299981 0.000000 0.000000 0.000000
0.411864 0.151540 0.273840 0.000000 0.000000 0.000000
0.414639 0.142494 0.289002 0.000000 0.000000 0.000000
0.424738 0.120936 0.263775 0.000000 0.000000 0.000000
0.426160 0.117703 0.261776 0.000000 0.000000 0.000000
0.424470 0.139936 0.289089 0.000000 0.000000 0.000000
0.405157 0.126729 0.245827 0.000000 0.000000 0.000000
0.408684 0.148368 0.288578 0.000000 0.000000 0.000000
0.404688 0.140856 0.288382 0.000000 0.000000 0.000000
0.409664 0.124838 0.293539 0.000000 0.000000 0.000000
0.425732 0.144030 0.287238 0.000000 0.000000 0.000000
0.410313 0.146562 0.288184 0.000000 0.000000 0.000000
0.431195 0.119022 0.258474 0.000000 0.000000 0.000000
0.392273 0.154526 0.232906 0.000000 0.000000 0.000000
0.416763 0.145165 0.294222 0.000000 0.000000 0.000000
0.380126 0.151775 0.228357 0.000000 0.000000 0.000000
0.422435 0.145679 0.295677 0.000000 0.000000 0.000000
0.405340 0.152217 0.296782 0.000000 0.000000 0.000000
0.416273 0.152749 0.294356 0.000000 0.000000 0.000000
0.368967 0.159711 0.205744 0.000000 0.000000 0.000000
0.421435 0.139879 0.286241 0.000000 0.000000 0.000000
0.413912 0.149868 0.298644 0.000000 0.000000 0.000000
0.422068 0.130402 0.247074 0.000000 0.000000 0.000000
0.427728 0.134844 0.270567 0.000000 0.000000 0.000000
0.415087 0.141093 0.291368 0.000000 0.000000 0.000000
0.423802 0.122044 0.259778 0.000000 0.000000 0.000000
0.388737 0.157439 0.239122 0.000000 0.000000 0.000000
0.414635 0.153356 0.304833 0.000000 0.000000 0.000000
0.415273 0.154628 0.302041 0.000000 0.000000 0.000000
0.433184 0.158333 0.300612 0.000000 0.000000 0.000000
0.430601 0.148330 0.286502 0.000000 0.000000 0.000000
0.430072 0.151166 0.297466 0.000000 0.000000 0.000000
0.417293 0.155703 0.302812 0.000000 0.000000 0.000000
0.402597 0.165670 0.301110 0.000000 0.000000 0.000000
0.424496 0.146329 0.294271 0.000000 0.000000 0.000000
0.428022 0.160476 0.300684 0.000000 0.000000 0.000000
0.403714 0.159281 0.296891 0.000000 0.000000 0.000000
0.406670 0.157534 0.296079 0.000000 0.000000 0.000000
0.423033 0.154386 0.295010 0.000000 0.000000 0.000000
0.429145 0.155289 0.299562 0.000000 0.000000 0.000000
0.418863 0.152624 0.296048 0.000000 0.000000 0.000000
0.424769 0.154304 0.303026 0.000000 0.000000 0.000000
0.403190 0.152280 0.295770 0.000000 0.000000 0.000000
0.376176 0.153835 0.211918 0.000000 0.000000 0.000000
0.426624 0.135108 0.272385 0.000000 0.000000 0.000000
0.425465 0.125581 0.267572 0.000000 0.000000 0.000000
0.425325 0.136574 0.273335 0.000000 0.000000 0.000000
0.378193 0.154937 0.214088 0.000000 0.000000 0.000000
0.369077 0.139583 0.272773 0.000000 0.000000 0.000000
0.363625 0.154295 0.275194 0.000000 0.000000 0.000000
0.382999 0.156236 0.230195 0.000000 0.000000 0.000000
0.363135 0.143758 0.278275 0.000000 0.000000 0.000000
0.371905 0.143318 0.276736 0.000000 0.000000 0.000000
0.394601 0.155061 0.233287 0.000000 0.000000 0.000000
0.395874 0.158319 0.230458 0.000000 0.000000 0.000000
0.426264 0.159238 0.300588 0.000000 0.000000 0.000000
0.429467 0.135807 0.264858 0.000000 0.000000 0.000000
0.369101 0.142798 0.271518 0.000000 0.000000 0.000000
0.398364 0.142039 0.218706 0.000000 0.000000 0.000000
0.384391 0.141622 0.220796 0.000000 0.000000 0.000000
0.420300 0.121177 0.245448 0.000000 0.000000 0.000000
0.399090 0.158891 0.235206 0.000000 0.000000 0.000000
0.402066 0.159942 0.265761 0.000000 0.000000 0.000000
0.385742 0.151811 0.269747 0.000000 0.000000 0.000000
0.408736 0.146275 0.295824 0.000000 0.000000 0.000000
0.412037 0.154979 0.310009 0.000000 0.000000 0.000000
0.411193 0.155600 0.301471 0.000000 0.000000 0.000000
0.404783 0.150139 0.296499 0.000000 0.000000 0.000000
0.369542 0.123459 0.265425 0.000000 0.000000 0.000000
0.374897 0.125074 0.264777 0.000000 0.000000 0.000000
0.370785 0.124200 0.268800 0.000000 0.000000 0.000000
0.373865 0.122113 0.254820 0.000000 0.000000 0.000000
0.409038 0.123114 0.291960 0.000000 0.000000 0.000000
0.437215 0.131053 0.275578 0.000000 0.000000 0.000000
0.369164 0.148357 0.279804 0.000000 0.000000 0.000000
0.374360 0.136846 0.270870 0.000000 0.000000 0.000000
0.365791 0.139650 0.277357 0.000000 0.000000 0.000000
0.362582 0.149738 0.279299 0.000000 0.000000 0.000000
0.374614 0.139903 0.275338 0.000000 0.000000 0.000000
0.372861 0.135320 0.268835 0.000000 0.000000 0.000000
0.376070 0.137919 0.277213 0.000000 0.000000 0.000000
0.407084 0.120535 0.241598 0.000000 0.000000 0.000000
0.408490 0.142726 0.292969 0.000000 0.000000 0.000000
0.394717 0.146677 0.233786 0.000000 0.000000 0.000000
0.429628 0.156254 0.295617 0.000000 0.000000 0.000000
0.397371 0.143714 0.238508 0.000000 0.000000 0.000000
0.422217 0.147215 0.302545 0.000000 0.000000 0.000000
0.419639 0.154267 0.304692 0.000000 0.000000 0.000000
0.431063 0.152848 0.295138 0.000000 0.000000 0.000000
0.416022 0.161688 0.301189 0.000000 0.000000 0.000000
0.413445 0.145354 0.295026 0.000000 0.000000 0.000000
0.420402 0.152789 0.300555 0.000000 0.000000 0.000000
0.425969 0.157558 0.299503 0.000000 0.000000 0.000000
0.419122 0.157962 0.303542 0.000000 0.000000 0.000000
0.383907 0.150157 0.224929 0.000000 0.000000 0.000000
0.415761 0.157545 0.306048 0.000000 0.000000 0.000000
0.432507 0.154202 0.295718 0.000000 0.000000 0.000000
0.394323 0.153370 0.234327 0.000000 0.000000 0.000000
0.379266 0.134345 0.269567 0.000000 0.000000 0.000000
0.384136 0.133991 0.258227 0.000000 0.000000 0.000000
0.427897 0.159470 0.301668 0.000000 0.000000 0.000000
0.376975 0.130869 0.265705 0.000000 0.000000 0.000000
0.376941 0.136246 0.267370 0.000000 0.000000 0.000000
0.433173 0.159466 0.302082 0.000000 0.000000 0.000000
0.423791 0.146901 0.254652 0.000000 0.000000 0.000000
0.402174 0.159811 0.297306 0.000000 0.000000 0.000000
0.374575 0.126668 0.261148 0.000000 0.000000 0.000000
0.443892 0.125771 0.262251 0.000000 0.000000 0.000000
0.369397 0.124537 0.267159 0.000000 0.000000 0.000000
0.435810 0.156412 0.291880 0.000000 0.000000 0.000000
0.435772 0.157683 0.297159 0.000000 0.000000 0.000000
0.434940 0.157771 0.296103 0.000000 0.000000 0.000000
0.432300 0.115550 0.270968 0.000000 0.000000 0.000000
0.428925 0.126811 0.264703 0.000000 0.000000 0.000000
0.431008 0.114034 0.263194 0.000000 0.000000 0.000000
0.425489 0.122562 0.259835 0.000000 0.000000 0.000000
