ply
format ascii 1.0
comment VCGLIB generated
obj_info Generated by SPFormer!
element vertex 722
property float x
property float y
property float z
property float nx
property float ny
property float nz
end_header
1.798810 1.232462 0.527479 0.000000 0.000000 0.000000
1.816976 1.257170 0.560931 0.000000 0.000000 0.000000
1.837604 1.259236 0.567458 0.000000 0.000000 0.000000
1.816428 1.252137 0.553995 0.000000 0.000000 0.000000
1.805295 1.250902 0.536201 0.000000 0.000000 0.000000
1.793987 1.238395 0.527282 0.000000 0.000000 0.000000
1.835564 1.267073 0.567194 0.000000 0.000000 0.000000
1.820928 1.245864 0.533768 0.000000 0.000000 0.000000
1.808888 1.244815 0.534099 0.000000 0.000000 0.000000
1.794391 1.224619 0.527332 0.000000 0.000000 0.000000
1.808117 1.240903 0.542320 0.000000 0.000000 0.000000
1.795937 1.233321 0.527647 0.000000 0.000000 0.000000
1.824725 1.251116 0.552919 0.000000 0.000000 0.000000
1.823994 1.261893 0.563761 0.000000 0.000000 0.000000
0.709599 1.115617 1.366988 0.000000 0.000000 0.000000
0.713311 1.114122 1.387353 0.000000 0.000000 0.000000
0.368323 1.040094 2.521496 0.000000 0.000000 0.000000
0.713666 1.113438 1.399856 0.000000 0.000000 0.000000
0.825449 1.280451 1.922198 0.000000 0.000000 0.000000
0.724980 1.129570 1.516280 0.000000 0.000000 0.000000
0.639343 0.807481 2.720948 0.000000 0.000000 0.000000
0.702435 1.110533 1.365840 0.000000 0.000000 0.000000
0.718395 1.090541 1.397159 0.000000 0.000000 0.000000
0.707649 1.106349 1.386773 0.000000 0.000000 0.000000
1.827492 1.255758 0.527639 0.000000 0.000000 0.000000
0.614320 0.834922 2.740085 0.000000 0.000000 0.000000
1.824433 1.274703 0.531201 0.000000 0.000000 0.000000
0.727544 1.121244 1.497795 0.000000 0.000000 0.000000
0.717728 1.094468 1.377192 0.000000 0.000000 0.000000
0.719214 1.090155 1.375628 0.000000 0.000000 0.000000
0.839405 1.298409 1.930222 0.000000 0.000000 0.000000
0.715150 1.102877 1.395147 0.000000 0.000000 0.000000
0.715658 1.107740 1.385614 0.000000 0.000000 0.000000
1.824688 1.252078 0.525330 0.000000 0.000000 0.000000
0.839336 1.297047 1.934376 0.000000 0.000000 0.000000
1.820215 1.271466 0.536933 0.000000 0.000000 0.000000
1.823171 1.249941 0.523071 0.000000 0.000000 0.000000
0.714658 1.102623 1.379781 0.000000 0.000000 0.000000
1.827026 1.255487 0.525777 0.000000 0.000000 0.000000
0.717965 1.102944 1.375762 0.000000 0.000000 0.000000
0.611436 0.804156 2.756241 0.000000 0.000000 0.000000
0.771599 1.136771 2.208999 0.000000 0.000000 0.000000
1.811249 1.249886 0.524514 0.000000 0.000000 0.000000
0.693497 1.109429 1.399479 0.000000 0.000000 0.000000
0.705853 1.111893 1.360798 0.000000 0.000000 0.000000
0.697277 1.116585 1.387954 0.000000 0.000000 0.000000
0.700512 1.112666 1.374172 0.000000 0.000000 0.000000
0.702916 1.113939 1.372432 0.000000 0.000000 0.000000
0.776397 1.143286 2.213709 0.000000 0.000000 0.000000
1.828506 1.257891 0.518737 0.000000 0.000000 0.000000
0.716704 1.089234 1.398642 0.000000 0.000000 0.000000
0.716850 1.092905 1.394511 0.000000 0.000000 0.000000
0.702044 1.109588 1.364144 0.000000 0.000000 0.000000
1.833182 1.245015 0.524840 0.000000 0.000000 0.000000
0.772607 1.128840 2.212451 0.000000 0.000000 0.000000
1.834068 1.274943 0.536229 0.000000 0.000000 0.000000
1.835499 1.274286 0.532208 0.000000 0.000000 0.000000
1.809606 1.240022 0.525447 0.000000 0.000000 0.000000
1.837018 1.254636 0.525998 0.000000 0.000000 0.000000
0.718620 1.098111 1.371900 0.000000 0.000000 0.000000
1.819409 1.270363 0.528465 0.000000 0.000000 0.000000
1.833382 1.277929 0.537468 0.000000 0.000000 0.000000
0.715139 1.104880 1.373859 0.000000 0.000000 0.000000
0.770318 1.129660 2.209474 0.000000 0.000000 0.000000
0.875653 1.451864 1.992086 0.000000 0.000000 0.000000
0.564287 0.896773 2.611322 0.000000 0.000000 0.000000
0.717514 1.098230 1.379911 0.000000 0.000000 0.000000
0.634643 0.819318 2.727485 0.000000 0.000000 0.000000
0.824292 1.295607 1.926435 0.000000 0.000000 0.000000
0.624523 0.827442 2.722780 0.000000 0.000000 0.000000
0.405452 1.198948 2.914532 0.000000 0.000000 0.000000
1.823290 1.263713 0.525326 0.000000 0.000000 0.000000
0.648748 0.791447 2.732393 0.000000 0.000000 0.000000
0.645908 0.789971 2.733982 0.000000 0.000000 0.000000
1.830050 1.269803 0.537334 0.000000 0.000000 0.000000
1.810079 1.261732 0.524556 0.000000 0.000000 0.000000
0.825413 1.290505 1.921305 0.000000 0.000000 0.000000
0.403267 1.197421 2.915593 0.000000 0.000000 0.000000
0.717410 1.093979 1.384759 0.000000 0.000000 0.000000
0.717358 1.086965 1.391293 0.000000 0.000000 0.000000
1.830330 1.251992 0.522817 0.000000 0.000000 0.000000
0.877394 1.446167 1.979468 0.000000 0.000000 0.000000
1.830775 1.263992 0.528547 0.000000 0.000000 0.000000
0.865097 1.440118 1.968584 0.000000 0.000000 0.000000
1.815619 1.264895 0.525187 0.000000 0.000000 0.000000
0.705368 1.110242 1.362170 0.000000 0.000000 0.000000
1.819122 1.268820 0.527927 0.000000 0.000000 0.000000
0.716960 1.099952 1.365616 0.000000 0.000000 0.000000
1.834333 1.243565 0.525975 0.000000 0.000000 0.000000
0.641842 0.790530 2.725945 0.000000 0.000000 0.000000
0.715425 1.106514 1.361303 0.000000 0.000000 0.000000
0.834366 1.285303 1.923054 0.000000 0.000000 0.000000
0.716145 1.098299 1.394883 0.000000 0.000000 0.000000
0.717119 1.111834 1.362945 0.000000 0.000000 0.000000
1.823041 1.278383 0.531818 0.000000 0.000000 0.000000
0.716887 1.090572 1.393483 0.000000 0.000000 0.000000
0.403752 1.198572 2.903963 0.000000 0.000000 0.000000
1.816362 1.255257 0.526525 0.000000 0.000000 0.000000
0.654841 0.787719 2.744420 0.000000 0.000000 0.000000
0.665446 0.765608 2.752380 0.000000 0.000000 0.000000
0.660342 0.772318 2.747140 0.000000 0.000000 0.000000
1.831560 1.260856 0.525518 0.000000 0.000000 0.000000
0.621595 0.836234 2.720754 0.000000 0.000000 0.000000
1.802107 1.250859 0.520091 0.000000 0.000000 0.000000
1.831473 1.271291 0.532286 0.000000 0.000000 0.000000
1.827099 1.273915 0.532076 0.000000 0.000000 0.000000
1.836880 1.241451 0.520380 0.000000 0.000000 0.000000
1.800014 1.248342 0.517850 0.000000 0.000000 0.000000
0.656560 0.780258 2.742227 0.000000 0.000000 0.000000
0.636333 0.801222 2.730471 0.000000 0.000000 0.000000
1.828576 1.254626 0.524989 0.000000 0.000000 0.000000
1.817753 1.253606 0.520258 0.000000 0.000000 0.000000
0.825796 1.298501 1.924774 0.000000 0.000000 0.000000
0.830747 1.302493 1.923737 0.000000 0.000000 0.000000
0.642318 0.807585 2.690785 0.000000 0.000000 0.000000
0.837229 1.297036 1.930417 0.000000 0.000000 0.000000
0.643939 0.787044 2.732469 0.000000 0.000000 0.000000
0.831758 1.295862 1.930547 0.000000 0.000000 0.000000
0.838509 1.299901 1.934174 0.000000 0.000000 0.000000
1.825927 1.265512 0.527711 0.000000 0.000000 0.000000
0.654467 0.781864 2.739200 0.000000 0.000000 0.000000
1.820040 1.247978 0.524959 0.000000 0.000000 0.000000
0.713848 1.094987 1.398382 0.000000 0.000000 0.000000
0.707313 1.117367 1.366935 0.000000 0.000000 0.000000
1.824014 1.251253 0.528028 0.000000 0.000000 0.000000
1.804695 1.245179 0.526130 0.000000 0.000000 0.000000
1.820115 1.266255 0.529082 0.000000 0.000000 0.000000
0.717465 1.097301 1.390065 0.000000 0.000000 0.000000
0.717888 1.093139 1.388215 0.000000 0.000000 0.000000
1.825929 1.279605 0.533461 0.000000 0.000000 0.000000
0.769849 1.129935 2.205680 0.000000 0.000000 0.000000
0.769216 1.136096 2.200842 0.000000 0.000000 0.000000
1.839265 1.269381 0.533777 0.000000 0.000000 0.000000
0.828032 1.293385 1.923322 0.000000 0.000000 0.000000
0.640279 0.824558 2.716320 0.000000 0.000000 0.000000
1.822583 1.275206 0.542285 0.000000 0.000000 0.000000
0.628539 0.821093 2.721551 0.000000 0.000000 0.000000
0.630831 0.820386 2.723329 0.000000 0.000000 0.000000
0.632669 0.826280 2.721720 0.000000 0.000000 0.000000
0.642801 0.831590 2.716863 0.000000 0.000000 0.000000
0.638307 0.803877 2.722983 0.000000 0.000000 0.000000
0.642637 0.822991 2.708387 0.000000 0.000000 0.000000
1.837322 1.266348 0.532507 0.000000 0.000000 0.000000
0.634613 0.807610 2.734711 0.000000 0.000000 0.000000
1.822245 1.255161 0.525731 0.000000 0.000000 0.000000
1.827820 1.259814 0.525927 0.000000 0.000000 0.000000
1.831401 1.271274 0.532504 0.000000 0.000000 0.000000
0.643633 0.799858 2.727176 0.000000 0.000000 0.000000
0.634221 0.809934 2.740161 0.000000 0.000000 0.000000
0.635522 0.802114 2.732738 0.000000 0.000000 0.000000
0.644976 0.798192 2.728759 0.000000 0.000000 0.000000
0.658129 0.775608 2.747324 0.000000 0.000000 0.000000
0.640875 0.798864 2.727529 0.000000 0.000000 0.000000
0.633299 0.807062 2.737118 0.000000 0.000000 0.000000
0.721161 1.127037 1.505063 0.000000 0.000000 0.000000
0.816759 1.292870 1.928017 0.000000 0.000000 0.000000
0.810083 1.292839 1.921851 0.000000 0.000000 0.000000
0.823338 1.290912 1.924134 0.000000 0.000000 0.000000
1.832058 1.271273 0.531583 0.000000 0.000000 0.000000
1.823308 1.267992 0.531195 0.000000 0.000000 0.000000
1.821492 1.255149 0.522250 0.000000 0.000000 0.000000
1.809034 1.251315 0.522121 0.000000 0.000000 0.000000
0.769743 1.146818 2.204848 0.000000 0.000000 0.000000
0.710344 1.108839 1.379362 0.000000 0.000000 0.000000
1.836888 1.270036 0.535875 0.000000 0.000000 0.000000
1.833253 1.272187 0.534743 0.000000 0.000000 0.000000
0.696338 1.129396 1.402660 0.000000 0.000000 0.000000
0.713289 1.104527 1.368799 0.000000 0.000000 0.000000
0.701714 1.108392 1.366696 0.000000 0.000000 0.000000
0.690171 1.128784 1.435050 0.000000 0.000000 0.000000
1.837029 1.271585 0.533159 0.000000 0.000000 0.000000
1.828917 1.272669 0.532252 0.000000 0.000000 0.000000
1.834214 1.277386 0.537563 0.000000 0.000000 0.000000
1.820994 1.269412 0.525394 0.000000 0.000000 0.000000
0.718066 1.091597 1.384179 0.000000 0.000000 0.000000
1.836602 1.266349 0.528299 0.000000 0.000000 0.000000
1.813099 1.267307 0.526402 0.000000 0.000000 0.000000
0.764527 1.147156 2.200011 0.000000 0.000000 0.000000
0.642662 0.779620 2.730699 0.000000 0.000000 0.000000
1.834002 1.261679 0.529258 0.000000 0.000000 0.000000
0.704829 1.112669 1.387728 0.000000 0.000000 0.000000
0.772924 1.137231 2.211851 0.000000 0.000000 0.000000
1.836269 1.275088 0.537888 0.000000 0.000000 0.000000
0.652620 0.780161 2.758032 0.000000 0.000000 0.000000
1.833486 1.262646 0.528299 0.000000 0.000000 0.000000
1.817074 1.249963 0.523245 0.000000 0.000000 0.000000
0.831138 1.287387 1.919458 0.000000 0.000000 0.000000
0.644399 0.797996 2.755014 0.000000 0.000000 0.000000
0.644518 0.794333 2.759622 0.000000 0.000000 0.000000
1.810592 1.258128 0.525654 0.000000 0.000000 0.000000
1.823134 1.253365 0.527267 0.000000 0.000000 0.000000
0.716139 1.099337 1.387172 0.000000 0.000000 0.000000
0.696837 1.127035 1.405962 0.000000 0.000000 0.000000
1.809590 1.258520 0.523276 0.000000 0.000000 0.000000
1.827695 1.260032 0.528487 0.000000 0.000000 0.000000
1.823353 1.273064 0.533295 0.000000 0.000000 0.000000
1.814517 1.246208 0.522302 0.000000 0.000000 0.000000
0.662412 0.761532 2.754821 0.000000 0.000000 0.000000
1.814080 1.245796 0.521029 0.000000 0.000000 0.000000
1.812424 1.249008 0.521456 0.000000 0.000000 0.000000
0.661910 0.762785 2.751544 0.000000 0.000000 0.000000
1.832073 1.261253 0.526704 0.000000 0.000000 0.000000
0.626757 0.802124 2.728446 0.000000 0.000000 0.000000
0.769849 1.131982 2.207570 0.000000 0.000000 0.000000
0.636234 0.810337 2.742231 0.000000 0.000000 0.000000
1.831405 1.256072 0.523287 0.000000 0.000000 0.000000
0.630576 0.802268 2.722217 0.000000 0.000000 0.000000
0.639432 0.802821 2.743282 0.000000 0.000000 0.000000
0.704301 1.109552 1.363059 0.000000 0.000000 0.000000
0.640385 0.798721 2.742779 0.000000 0.000000 0.000000
0.826401 1.299427 1.918124 0.000000 0.000000 0.000000
1.837059 1.245340 0.528046 0.000000 0.000000 0.000000
0.820049 1.295300 1.922297 0.000000 0.000000 0.000000
0.636733 0.804136 2.728453 0.000000 0.000000 0.000000
0.636383 0.803606 2.737878 0.000000 0.000000 0.000000
0.636613 0.805507 2.744070 0.000000 0.000000 0.000000
1.834796 1.277701 0.538008 0.000000 0.000000 0.000000
1.805340 1.252802 0.520971 0.000000 0.000000 0.000000
0.682792 1.120000 1.429419 0.000000 0.000000 0.000000
0.682699 1.130098 1.427457 0.000000 0.000000 0.000000
1.805972 1.240273 0.525165 0.000000 0.000000 0.000000
0.770129 1.140029 2.201042 0.000000 0.000000 0.000000
1.830743 1.275858 0.534739 0.000000 0.000000 0.000000
0.770633 1.138022 2.201082 0.000000 0.000000 0.000000
1.820235 1.247417 0.525961 0.000000 0.000000 0.000000
0.691753 1.127005 1.421956 0.000000 0.000000 0.000000
1.816609 1.245930 0.520201 0.000000 0.000000 0.000000
0.769180 1.131600 2.200225 0.000000 0.000000 0.000000
1.828773 1.273873 0.533725 0.000000 0.000000 0.000000
1.815533 1.275985 0.529949 0.000000 0.000000 0.000000
1.820737 1.262116 0.524040 0.000000 0.000000 0.000000
1.819176 1.258638 0.526425 0.000000 0.000000 0.000000
1.818957 1.271809 0.530240 0.000000 0.000000 0.000000
0.666675 0.752965 2.753564 0.000000 0.000000 0.000000
0.401419 1.198850 2.912774 0.000000 0.000000 0.000000
0.672252 0.749765 2.758681 0.000000 0.000000 0.000000
0.666181 0.751881 2.756560 0.000000 0.000000 0.000000
1.811020 1.254733 0.522727 0.000000 0.000000 0.000000
1.803766 1.247299 0.516585 0.000000 0.000000 0.000000
0.648016 0.789778 2.733958 0.000000 0.000000 0.000000
0.652995 0.783450 2.740509 0.000000 0.000000 0.000000
0.648732 0.788596 2.734735 0.000000 0.000000 0.000000
0.773241 1.132267 2.204141 0.000000 0.000000 0.000000
1.814879 1.257381 0.521349 0.000000 0.000000 0.000000
0.786335 1.152712 2.215572 0.000000 0.000000 0.000000
0.642408 0.798569 2.727453 0.000000 0.000000 0.000000
0.641518 0.793145 2.729756 0.000000 0.000000 0.000000
0.633007 0.803454 2.723958 0.000000 0.000000 0.000000
0.661885 0.760378 2.747844 0.000000 0.000000 0.000000
0.718003 1.089434 1.390056 0.000000 0.000000 0.000000
0.805033 1.299842 1.924198 0.000000 0.000000 0.000000
0.640553 0.797500 2.729110 0.000000 0.000000 0.000000
0.803672 1.298906 1.919108 0.000000 0.000000 0.000000
0.814493 1.295919 1.919241 0.000000 0.000000 0.000000
0.805648 1.295071 1.924459 0.000000 0.000000 0.000000
0.830473 1.285688 1.921861 0.000000 0.000000 0.000000
0.669042 0.766261 2.758125 0.000000 0.000000 0.000000
0.817979 1.297842 1.928947 0.000000 0.000000 0.000000
0.696744 1.116960 1.381024 0.000000 0.000000 0.000000
0.647425 0.786317 2.734472 0.000000 0.000000 0.000000
0.768306 1.142100 2.200638 0.000000 0.000000 0.000000
0.667375 0.758072 2.759174 0.000000 0.000000 0.000000
0.769456 1.134259 2.203262 0.000000 0.000000 0.000000
0.667332 0.756626 2.756923 0.000000 0.000000 0.000000
0.663488 0.767116 2.748645 0.000000 0.000000 0.000000
0.663741 0.756605 2.755974 0.000000 0.000000 0.000000
0.666651 0.761624 2.754628 0.000000 0.000000 0.000000
0.655983 0.775556 2.743105 0.000000 0.000000 0.000000
0.653339 0.772334 2.740664 0.000000 0.000000 0.000000
1.836074 1.261494 0.529606 0.000000 0.000000 0.000000
1.819060 1.274767 0.537674 0.000000 0.000000 0.000000
0.717863 1.089490 1.385176 0.000000 0.000000 0.000000
1.816365 1.266423 0.530973 0.000000 0.000000 0.000000
1.838232 1.263273 0.533424 0.000000 0.000000 0.000000
1.820468 1.269661 0.535666 0.000000 0.000000 0.000000
1.829688 1.267392 0.529628 0.000000 0.000000 0.000000
1.836082 1.263089 0.530346 0.000000 0.000000 0.000000
0.802264 1.297333 1.920449 0.000000 0.000000 0.000000
1.807996 1.248194 0.514954 0.000000 0.000000 0.000000
0.814518 1.299132 1.908228 0.000000 0.000000 0.000000
0.702832 1.112365 1.392199 0.000000 0.000000 0.000000
0.706703 1.104965 1.371790 0.000000 0.000000 0.000000
1.800937 1.255916 0.520561 0.000000 0.000000 0.000000
0.703029 1.110102 1.383257 0.000000 0.000000 0.000000
0.689163 1.118703 1.390439 0.000000 0.000000 0.000000
0.698857 1.114462 1.366988 0.000000 0.000000 0.000000
0.696673 1.116658 1.390204 0.000000 0.000000 0.000000
0.816984 1.297212 1.913549 0.000000 0.000000 0.000000
0.700031 1.112758 1.377090 0.000000 0.000000 0.000000
0.691077 1.125909 1.400519 0.000000 0.000000 0.000000
0.701580 1.108149 1.391937 0.000000 0.000000 0.000000
1.803110 1.261802 0.524293 0.000000 0.000000 0.000000
0.708600 1.107766 1.367545 0.000000 0.000000 0.000000
0.690370 1.122347 1.400633 0.000000 0.000000 0.000000
0.694162 1.113173 1.385197 0.000000 0.000000 0.000000
1.825688 1.251684 0.528488 0.000000 0.000000 0.000000
1.819445 1.253206 0.519989 0.000000 0.000000 0.000000
0.838922 1.296943 1.928825 0.000000 0.000000 0.000000
0.706834 1.122512 1.418142 0.000000 0.000000 0.000000
1.822538 1.248414 0.519987 0.000000 0.000000 0.000000
0.831023 1.296158 1.925482 0.000000 0.000000 0.000000
0.663121 0.768230 2.749943 0.000000 0.000000 0.000000
0.664137 0.767065 2.752716 0.000000 0.000000 0.000000
0.668632 0.755671 2.757006 0.000000 0.000000 0.000000
0.663603 0.763449 2.752827 0.000000 0.000000 0.000000
0.654343 0.768775 2.742849 0.000000 0.000000 0.000000
0.666185 0.760001 2.758812 0.000000 0.000000 0.000000
0.670681 0.758836 2.759690 0.000000 0.000000 0.000000
0.667552 0.756632 2.757896 0.000000 0.000000 0.000000
0.657370 0.768726 2.744020 0.000000 0.000000 0.000000
1.824338 1.260759 0.534673 0.000000 0.000000 0.000000
0.644725 0.791452 2.756580 0.000000 0.000000 0.000000
0.833218 1.297294 1.927340 0.000000 0.000000 0.000000
0.646285 0.807887 2.705133 0.000000 0.000000 0.000000
1.836588 1.265169 0.529653 0.000000 0.000000 0.000000
1.819423 1.272578 0.523920 0.000000 0.000000 0.000000
0.644482 0.787027 2.751643 0.000000 0.000000 0.000000
1.823918 1.265010 0.524080 0.000000 0.000000 0.000000
0.664056 0.767072 2.752334 0.000000 0.000000 0.000000
0.654794 0.769781 2.742283 0.000000 0.000000 0.000000
0.649249 0.775397 2.742500 0.000000 0.000000 0.000000
0.649573 0.803588 2.695868 0.000000 0.000000 0.000000
1.822443 1.268347 0.529480 0.000000 0.000000 0.000000
1.809219 1.268855 0.521651 0.000000 0.000000 0.000000
0.645611 0.792292 2.750893 0.000000 0.000000 0.000000
1.808331 1.254533 0.520743 0.000000 0.000000 0.000000
0.665618 0.758846 2.757416 0.000000 0.000000 0.000000
0.648340 0.778079 2.735859 0.000000 0.000000 0.000000
0.808640 1.286417 1.922193 0.000000 0.000000 0.000000
1.822886 1.250160 0.521359 0.000000 0.000000 0.000000
1.806399 1.258989 0.521611 0.000000 0.000000 0.000000
1.823054 1.254243 0.521394 0.000000 0.000000 0.000000
0.663189 0.763822 2.751838 0.000000 0.000000 0.000000
1.823725 1.274401 0.524586 0.000000 0.000000 0.000000
0.717493 1.088744 1.396798 0.000000 0.000000 0.000000
1.827930 1.259647 0.522610 0.000000 0.000000 0.000000
1.820936 1.250487 0.518807 0.000000 0.000000 0.000000
0.773822 1.134382 2.208040 0.000000 0.000000 0.000000
1.802889 1.249313 0.523508 0.000000 0.000000 0.000000
1.808733 1.242057 0.519545 0.000000 0.000000 0.000000
0.770873 1.138211 2.202895 0.000000 0.000000 0.000000
0.659796 0.769185 2.745844 0.000000 0.000000 0.000000
0.656315 0.769106 2.741790 0.000000 0.000000 0.000000
0.653559 0.776630 2.742209 0.000000 0.000000 0.000000
0.667375 0.764240 2.754448 0.000000 0.000000 0.000000
0.661087 0.766541 2.751790 0.000000 0.000000 0.000000
1.813198 1.247823 0.520164 0.000000 0.000000 0.000000
0.645876 0.789146 2.731513 0.000000 0.000000 0.000000
0.653878 0.776988 2.740680 0.000000 0.000000 0.000000
0.654693 0.772064 2.742587 0.000000 0.000000 0.000000
0.657274 0.774223 2.744627 0.000000 0.000000 0.000000
0.665932 0.765898 2.752438 0.000000 0.000000 0.000000
0.659697 0.771079 2.747418 0.000000 0.000000 0.000000
0.647458 0.785919 2.737072 0.000000 0.000000 0.000000
1.803349 1.242471 0.523822 0.000000 0.000000 0.000000
0.655065 0.776329 2.742641 0.000000 0.000000 0.000000
0.651626 0.783648 2.738407 0.000000 0.000000 0.000000
0.839777 1.298920 1.931375 0.000000 0.000000 0.000000
0.771085 1.141969 2.203051 0.000000 0.000000 0.000000
0.714394 1.117443 1.386005 0.000000 0.000000 0.000000
0.711284 1.117601 1.397900 0.000000 0.000000 0.000000
1.797284 1.182426 0.523556 0.000000 0.000000 0.000000
1.798226 1.163183 0.520362 0.000000 0.000000 0.000000
1.798933 1.205930 0.549657 0.000000 0.000000 0.000000
1.798295 1.175198 0.527690 0.000000 0.000000 0.000000
1.799743 1.172953 0.525618 0.000000 0.000000 0.000000
1.794939 1.200729 0.534097 0.000000 0.000000 0.000000
1.792544 1.208151 0.526011 0.000000 0.000000 0.000000
1.797035 1.132404 0.525536 0.000000 0.000000 0.000000
1.797452 1.189931 0.520219 0.000000 0.000000 0.000000
1.799941 1.149967 0.523356 0.000000 0.000000 0.000000
1.799815 1.143570 0.520561 0.000000 0.000000 0.000000
1.796149 1.165722 0.520650 0.000000 0.000000 0.000000
1.796147 1.155183 0.522294 0.000000 0.000000 0.000000
1.790331 1.158900 0.533597 0.000000 0.000000 0.000000
1.799062 1.130213 0.529294 0.000000 0.000000 0.000000
1.820377 1.268812 0.480090 0.000000 0.000000 0.000000
1.822320 1.261730 0.480217 0.000000 0.000000 0.000000
1.834603 1.278737 0.482643 0.000000 0.000000 0.000000
1.790157 1.119512 0.530444 0.000000 0.000000 0.000000
1.593309 1.102116 0.405748 0.000000 0.000000 0.000000
1.599812 1.100087 0.401278 0.000000 0.000000 0.000000
1.590874 1.097537 0.401432 0.000000 0.000000 0.000000
1.580673 1.094238 0.400284 0.000000 0.000000 0.000000
1.793284 1.122525 0.527071 0.000000 0.000000 0.000000
1.592853 1.096206 0.406109 0.000000 0.000000 0.000000
1.577699 1.098053 0.402207 0.000000 0.000000 0.000000
1.596371 1.094288 0.402290 0.000000 0.000000 0.000000
1.597185 1.101776 0.406487 0.000000 0.000000 0.000000
1.583513 1.086488 0.403970 0.000000 0.000000 0.000000
1.595496 1.101033 0.405632 0.000000 0.000000 0.000000
1.594087 1.106712 0.405876 0.000000 0.000000 0.000000
1.589012 1.100286 0.400640 0.000000 0.000000 0.000000
0.844085 1.176632 0.359612 0.000000 0.000000 0.000000
0.840156 1.166070 0.353776 0.000000 0.000000 0.000000
0.851018 1.169936 0.358181 0.000000 0.000000 0.000000
1.038855 1.353717 -0.065185 0.000000 0.000000 0.000000
1.028533 1.359538 -0.061275 0.000000 0.000000 0.000000
1.476184 1.232475 0.364014 0.000000 0.000000 0.000000
1.456706 1.235403 0.380450 0.000000 0.000000 0.000000
1.566193 1.324901 0.355232 0.000000 0.000000 0.000000
1.378948 1.085771 1.618369 0.000000 0.000000 0.000000
1.378809 1.096823 1.625073 0.000000 0.000000 0.000000
1.359908 1.063025 1.600274 0.000000 0.000000 0.000000
1.379610 1.100220 1.602856 0.000000 0.000000 0.000000
1.390942 1.113247 1.614571 0.000000 0.000000 0.000000
1.387702 1.102018 1.627179 0.000000 0.000000 0.000000
1.385336 1.096089 1.627349 0.000000 0.000000 0.000000
1.384056 1.106609 1.606059 0.000000 0.000000 0.000000
1.379403 1.082636 1.614010 0.000000 0.000000 0.000000
1.377711 1.087582 1.607928 0.000000 0.000000 0.000000
1.380491 1.086231 1.637013 0.000000 0.000000 0.000000
1.359444 1.063986 1.614529 0.000000 0.000000 0.000000
1.389774 1.111742 1.604486 0.000000 0.000000 0.000000
1.391759 1.114478 1.635010 0.000000 0.000000 0.000000
1.359172 1.068389 1.601812 0.000000 0.000000 0.000000
1.371050 1.078822 1.609755 0.000000 0.000000 0.000000
1.338121 1.048522 1.611874 0.000000 0.000000 0.000000
1.349017 1.051895 1.610733 0.000000 0.000000 0.000000
1.373751 1.077331 1.638018 0.000000 0.000000 0.000000
1.386048 1.115269 1.618886 0.000000 0.000000 0.000000
1.390197 1.105212 1.639752 0.000000 0.000000 0.000000
1.357740 1.058419 1.607625 0.000000 0.000000 0.000000
1.346473 1.047208 1.616410 0.000000 0.000000 0.000000
1.340819 1.046680 1.603255 0.000000 0.000000 0.000000
1.353387 1.056119 1.613753 0.000000 0.000000 0.000000
1.377231 1.078793 1.626010 0.000000 0.000000 0.000000
1.348093 1.062289 1.612105 0.000000 0.000000 0.000000
1.369258 1.069120 1.627722 0.000000 0.000000 0.000000
1.353134 1.055808 1.619149 0.000000 0.000000 0.000000
1.366432 1.067289 1.615058 0.000000 0.000000 0.000000
1.363352 1.062642 1.626658 0.000000 0.000000 0.000000
1.362032 1.059942 1.619523 0.000000 0.000000 0.000000
1.377558 1.082147 1.629655 0.000000 0.000000 0.000000
1.346768 1.048997 1.612051 0.000000 0.000000 0.000000
1.363483 1.061824 1.632546 0.000000 0.000000 0.000000
1.368498 1.067317 1.630527 0.000000 0.000000 0.000000
1.212111 0.916336 1.660524 0.000000 0.000000 0.000000
1.215039 0.911659 1.662568 0.000000 0.000000 0.000000
1.226740 0.917047 1.668477 0.000000 0.000000 0.000000
1.202202 0.916593 1.657816 0.000000 0.000000 0.000000
1.239945 0.919066 1.677400 0.000000 0.000000 0.000000
1.231105 0.919837 1.671909 0.000000 0.000000 0.000000
1.227644 0.915856 1.670884 0.000000 0.000000 0.000000
1.204023 0.918723 1.658953 0.000000 0.000000 0.000000
1.239343 0.919166 1.675303 0.000000 0.000000 0.000000
1.238410 0.918381 1.678072 0.000000 0.000000 0.000000
1.238410 0.918327 1.675858 0.000000 0.000000 0.000000
1.227216 0.917225 1.670166 0.000000 0.000000 0.000000
1.215835 0.919309 1.654781 0.000000 0.000000 0.000000
1.213586 0.916321 1.663267 0.000000 0.000000 0.000000
1.223471 0.912729 1.660694 0.000000 0.000000 0.000000
1.232664 0.916059 1.678747 0.000000 0.000000 0.000000
1.224792 0.915100 1.669476 0.000000 0.000000 0.000000
1.236958 0.918446 1.674361 0.000000 0.000000 0.000000
1.224296 0.912691 1.673601 0.000000 0.000000 0.000000
1.235052 0.915366 1.673318 0.000000 0.000000 0.000000
1.229606 0.915169 1.673004 0.000000 0.000000 0.000000
1.230877 0.916325 1.672255 0.000000 0.000000 0.000000
1.220535 0.919450 1.664931 0.000000 0.000000 0.000000
1.237426 0.918631 1.671550 0.000000 0.000000 0.000000
1.227450 0.916218 1.667913 0.000000 0.000000 0.000000
1.218635 0.913682 1.666462 0.000000 0.000000 0.000000
1.210886 0.913724 1.664572 0.000000 0.000000 0.000000
1.211232 0.918278 1.662992 0.000000 0.000000 0.000000
1.209562 0.913318 1.663051 0.000000 0.000000 0.000000
1.205536 0.915941 1.654960 0.000000 0.000000 0.000000
1.201429 0.914927 1.657909 0.000000 0.000000 0.000000
1.213751 0.887526 1.666046 0.000000 0.000000 0.000000
1.221505 0.884713 1.675332 0.000000 0.000000 0.000000
1.209503 0.886825 1.669454 0.000000 0.000000 0.000000
1.217447 0.884645 1.677005 0.000000 0.000000 0.000000
1.202629 0.881134 1.666342 0.000000 0.000000 0.000000
1.201737 0.884654 1.666555 0.000000 0.000000 0.000000
1.212219 0.889500 1.671814 0.000000 0.000000 0.000000
1.215208 0.882580 1.672869 0.000000 0.000000 0.000000
1.214236 0.886057 1.669866 0.000000 0.000000 0.000000
1.219641 0.880593 1.674808 0.000000 0.000000 0.000000
1.223300 0.880299 1.676281 0.000000 0.000000 0.000000
1.205742 0.883929 1.665519 0.000000 0.000000 0.000000
1.226284 0.882917 1.678662 0.000000 0.000000 0.000000
1.226899 0.882750 1.679325 0.000000 0.000000 0.000000
1.209947 0.887381 1.665364 0.000000 0.000000 0.000000
1.208126 0.889956 1.665617 0.000000 0.000000 0.000000
0.468972 1.141586 1.483114 0.000000 0.000000 0.000000
0.722609 1.146401 1.498623 0.000000 0.000000 0.000000
0.721833 1.137675 1.462664 0.000000 0.000000 0.000000
0.692651 1.157629 1.400696 0.000000 0.000000 0.000000
0.727796 1.152724 1.491060 0.000000 0.000000 0.000000
0.730752 1.142974 1.510147 0.000000 0.000000 0.000000
0.734285 1.142560 1.508589 0.000000 0.000000 0.000000
0.732033 1.149625 1.496608 0.000000 0.000000 0.000000
0.733970 1.134588 1.516601 0.000000 0.000000 0.000000
0.721303 1.138056 1.499086 0.000000 0.000000 0.000000
0.697713 1.144532 1.422588 0.000000 0.000000 0.000000
0.695666 1.145666 1.403744 0.000000 0.000000 0.000000
0.732889 1.149521 1.518497 0.000000 0.000000 0.000000
0.699915 1.152010 1.420289 0.000000 0.000000 0.000000
0.706472 1.148117 1.420525 0.000000 0.000000 0.000000
0.699048 1.138556 1.417103 0.000000 0.000000 0.000000
0.698563 1.158799 1.431839 0.000000 0.000000 0.000000
0.706659 1.157429 1.416638 0.000000 0.000000 0.000000
0.810035 1.319264 1.892691 0.000000 0.000000 0.000000
0.842259 1.345889 1.909827 0.000000 0.000000 0.000000
0.854787 1.355069 1.915805 0.000000 0.000000 0.000000
0.821224 1.314906 1.909612 0.000000 0.000000 0.000000
0.837226 1.313110 1.908427 0.000000 0.000000 0.000000
0.837564 1.308914 1.906936 0.000000 0.000000 0.000000
0.803375 1.305702 1.883257 0.000000 0.000000 0.000000
0.810403 1.305068 1.886842 0.000000 0.000000 0.000000
0.801516 1.310336 1.886679 0.000000 0.000000 0.000000
0.803043 1.317569 1.886423 0.000000 0.000000 0.000000
0.825132 1.312137 1.900963 0.000000 0.000000 0.000000
0.825573 1.303968 1.898098 0.000000 0.000000 0.000000
0.816311 1.313757 1.896838 0.000000 0.000000 0.000000
0.844873 1.357783 1.912672 0.000000 0.000000 0.000000
0.845376 1.341511 1.912230 0.000000 0.000000 0.000000
0.856125 1.349770 1.916831 0.000000 0.000000 0.000000
0.861994 1.335255 1.917035 0.000000 0.000000 0.000000
0.804537 1.306268 1.879963 0.000000 0.000000 0.000000
0.810140 1.303251 1.887293 0.000000 0.000000 0.000000
0.865894 1.344258 1.918916 0.000000 0.000000 0.000000
0.861221 1.318670 1.914808 0.000000 0.000000 0.000000
0.862976 1.353458 1.918694 0.000000 0.000000 0.000000
0.846049 1.320692 1.913650 0.000000 0.000000 0.000000
0.816763 1.313218 1.906130 0.000000 0.000000 0.000000
0.841432 1.318970 1.909987 0.000000 0.000000 0.000000
0.817918 1.311901 1.897794 0.000000 0.000000 0.000000
0.858135 1.353958 1.917571 0.000000 0.000000 0.000000
0.818218 1.305619 1.895912 0.000000 0.000000 0.000000
0.842813 1.335509 1.910757 0.000000 0.000000 0.000000
0.831306 1.306139 1.910155 0.000000 0.000000 0.000000
0.824265 1.300593 1.901364 0.000000 0.000000 0.000000
0.837240 1.303385 1.908938 0.000000 0.000000 0.000000
0.841232 1.321971 1.909155 0.000000 0.000000 0.000000
0.836234 1.305323 1.911222 0.000000 0.000000 0.000000
0.812943 1.304776 1.891374 0.000000 0.000000 0.000000
0.815747 1.306441 1.893593 0.000000 0.000000 0.000000
0.814338 1.300366 1.891373 0.000000 0.000000 0.000000
0.810660 1.313413 1.891469 0.000000 0.000000 0.000000
0.807242 1.310373 1.887450 0.000000 0.000000 0.000000
0.806700 1.303857 1.885821 0.000000 0.000000 0.000000
0.817574 1.316483 1.903643 0.000000 0.000000 0.000000
0.844320 1.309870 1.911190 0.000000 0.000000 0.000000
0.838717 1.313468 1.909307 0.000000 0.000000 0.000000
0.832901 1.308515 1.906506 0.000000 0.000000 0.000000
0.821134 1.311924 1.898991 0.000000 0.000000 0.000000
0.833429 1.309573 1.910057 0.000000 0.000000 0.000000
0.865686 1.328257 1.919701 0.000000 0.000000 0.000000
0.859230 1.331692 1.917406 0.000000 0.000000 0.000000
0.854268 1.322307 1.917445 0.000000 0.000000 0.000000
0.847158 1.317639 1.914412 0.000000 0.000000 0.000000
0.848932 1.315045 1.913764 0.000000 0.000000 0.000000
0.854338 1.337875 1.915387 0.000000 0.000000 0.000000
0.863430 1.328874 1.919599 0.000000 0.000000 0.000000
0.866679 1.333470 1.918143 0.000000 0.000000 0.000000
0.852322 1.316781 1.917057 0.000000 0.000000 0.000000
0.851211 1.320855 1.915635 0.000000 0.000000 0.000000
0.850081 1.321912 1.912306 0.000000 0.000000 0.000000
0.854738 1.323166 1.913803 0.000000 0.000000 0.000000
0.852486 1.329778 1.913894 0.000000 0.000000 0.000000
0.851835 1.318999 1.913490 0.000000 0.000000 0.000000
0.849730 1.333794 1.912907 0.000000 0.000000 0.000000
0.828947 1.280548 1.917401 0.000000 0.000000 0.000000
0.823102 1.280799 1.913928 0.000000 0.000000 0.000000
0.832593 1.297302 1.911905 0.000000 0.000000 0.000000
0.829406 1.297870 1.910491 0.000000 0.000000 0.000000
0.798316 1.120385 2.233208 0.000000 0.000000 0.000000
0.793851 1.138028 2.230779 0.000000 0.000000 0.000000
0.783877 1.126564 2.234101 0.000000 0.000000 0.000000
0.792145 1.135915 2.231599 0.000000 0.000000 0.000000
0.774835 1.131894 2.218984 0.000000 0.000000 0.000000
0.772278 1.126794 2.219099 0.000000 0.000000 0.000000
0.782089 1.130279 2.226274 0.000000 0.000000 0.000000
0.775623 1.127611 2.216887 0.000000 0.000000 0.000000
0.765116 1.120088 2.234067 0.000000 0.000000 0.000000
0.764768 1.123744 2.222766 0.000000 0.000000 0.000000
0.761746 1.120462 2.219345 0.000000 0.000000 0.000000
0.769629 1.126403 2.218452 0.000000 0.000000 0.000000
0.773013 1.125615 2.230910 0.000000 0.000000 0.000000
0.769614 1.120968 2.227334 0.000000 0.000000 0.000000
0.786040 1.136236 2.206260 0.000000 0.000000 0.000000
0.774841 1.122825 2.201437 0.000000 0.000000 0.000000
0.770819 1.122731 2.201801 0.000000 0.000000 0.000000
0.789097 1.142535 2.205453 0.000000 0.000000 0.000000
0.798563 1.139119 2.223856 0.000000 0.000000 0.000000
0.793866 1.153282 2.214960 0.000000 0.000000 0.000000
0.788856 1.151947 2.208905 0.000000 0.000000 0.000000
0.778621 1.135084 2.202943 0.000000 0.000000 0.000000
0.788414 1.145101 2.210952 0.000000 0.000000 0.000000
0.768289 1.120110 2.201338 0.000000 0.000000 0.000000
0.794630 1.152216 2.221497 0.000000 0.000000 0.000000
0.786700 1.125787 2.206985 0.000000 0.000000 0.000000
0.775065 1.125992 2.200848 0.000000 0.000000 0.000000
0.780597 1.120825 2.207322 0.000000 0.000000 0.000000
0.780192 1.124855 2.218137 0.000000 0.000000 0.000000
0.791304 1.125921 2.222831 0.000000 0.000000 0.000000
0.795706 1.142014 2.212373 0.000000 0.000000 0.000000
0.776518 1.126169 2.206999 0.000000 0.000000 0.000000
0.784110 1.124139 2.206753 0.000000 0.000000 0.000000
0.780138 1.142921 2.205724 0.000000 0.000000 0.000000
0.785539 1.141364 2.211972 0.000000 0.000000 0.000000
0.781049 1.130866 2.206999 0.000000 0.000000 0.000000
0.781041 1.135893 2.211566 0.000000 0.000000 0.000000
0.775620 1.132373 2.202619 0.000000 0.000000 0.000000
0.798526 1.150417 2.208543 0.000000 0.000000 0.000000
0.793386 1.155519 2.212346 0.000000 0.000000 0.000000
0.788901 1.146441 2.206085 0.000000 0.000000 0.000000
0.788320 1.153989 2.209118 0.000000 0.000000 0.000000
0.789817 1.146998 2.205891 0.000000 0.000000 0.000000
0.782547 1.144042 2.206547 0.000000 0.000000 0.000000
0.794041 1.155074 2.207458 0.000000 0.000000 0.000000
0.789827 1.155193 2.211797 0.000000 0.000000 0.000000
0.787039 1.142558 2.204936 0.000000 0.000000 0.000000
0.796430 1.158731 2.209119 0.000000 0.000000 0.000000
0.645669 0.806682 2.680239 0.000000 0.000000 0.000000
0.646464 0.801085 2.686775 0.000000 0.000000 0.000000
0.641556 0.800868 2.689390 0.000000 0.000000 0.000000
0.646210 0.810281 2.686003 0.000000 0.000000 0.000000
0.644940 0.805689 2.690026 0.000000 0.000000 0.000000
0.404788 1.133833 2.863317 0.000000 0.000000 0.000000
0.432782 1.158611 2.850830 0.000000 0.000000 0.000000
0.407808 1.144877 2.878854 0.000000 0.000000 0.000000
0.405309 1.184216 2.884562 0.000000 0.000000 0.000000
0.407687 1.147695 2.866823 0.000000 0.000000 0.000000
0.404117 1.185816 2.881547 0.000000 0.000000 0.000000
0.437468 1.196172 2.883872 0.000000 0.000000 0.000000
0.402666 1.151387 2.867842 0.000000 0.000000 0.000000
0.404110 1.167714 2.883036 0.000000 0.000000 0.000000
0.408371 1.198347 2.886475 0.000000 0.000000 0.000000
0.402857 1.143990 2.856175 0.000000 0.000000 0.000000
0.406907 1.188518 2.886782 0.000000 0.000000 0.000000
0.402813 1.140734 2.869517 0.000000 0.000000 0.000000
0.423968 1.158056 2.842239 0.000000 0.000000 0.000000
0.402941 1.142892 2.874035 0.000000 0.000000 0.000000
0.405803 1.176767 2.885031 0.000000 0.000000 0.000000
0.415585 1.185377 2.885276 0.000000 0.000000 0.000000
0.405123 1.150458 2.855800 0.000000 0.000000 0.000000
0.404485 1.124928 2.858394 0.000000 0.000000 0.000000
0.403680 1.195945 2.883395 0.000000 0.000000 0.000000
0.413697 1.193214 2.880018 0.000000 0.000000 0.000000
0.416011 1.146530 2.858294 0.000000 0.000000 0.000000
0.400984 1.129508 2.865590 0.000000 0.000000 0.000000
0.414932 1.196630 2.887652 0.000000 0.000000 0.000000
0.407988 1.140257 2.869491 0.000000 0.000000 0.000000
0.416417 1.173345 2.880330 0.000000 0.000000 0.000000
0.429785 1.185862 2.888544 0.000000 0.000000 0.000000
0.408532 1.139467 2.856311 0.000000 0.000000 0.000000
0.410349 1.150937 2.858736 0.000000 0.000000 0.000000
0.411022 1.154284 2.857686 0.000000 0.000000 0.000000
0.413376 1.150694 2.861724 0.000000 0.000000 0.000000
0.408718 1.161044 2.897326 0.000000 0.000000 0.000000
0.450413 1.110097 2.948873 0.000000 0.000000 0.000000
0.467034 1.171175 2.929807 0.000000 0.000000 0.000000
0.413292 1.199252 2.918762 0.000000 0.000000 0.000000
0.404859 1.166339 2.885828 0.000000 0.000000 0.000000
0.402405 1.165546 2.888353 0.000000 0.000000 0.000000
0.401687 1.173710 2.897934 0.000000 0.000000 0.000000
0.414111 1.188196 2.919104 0.000000 0.000000 0.000000
0.431328 1.064595 3.050582 0.000000 0.000000 0.000000
0.431607 1.184577 2.916763 0.000000 0.000000 0.000000
0.423030 1.171243 2.905913 0.000000 0.000000 0.000000
0.406963 1.176407 2.905898 0.000000 0.000000 0.000000
0.447309 1.179165 2.942158 0.000000 0.000000 0.000000
0.411113 1.162274 2.897932 0.000000 0.000000 0.000000
0.408314 1.169242 2.895725 0.000000 0.000000 0.000000
0.450060 1.184847 2.941842 0.000000 0.000000 0.000000
0.473680 1.185282 2.947951 0.000000 0.000000 0.000000
0.440162 1.180387 2.938801 0.000000 0.000000 0.000000
0.451104 1.182039 2.939189 0.000000 0.000000 0.000000
0.412426 1.182859 2.919249 0.000000 0.000000 0.000000
0.410520 1.165944 2.908583 0.000000 0.000000 0.000000
0.406056 1.163855 2.907553 0.000000 0.000000 0.000000
0.468451 1.186864 2.951445 0.000000 0.000000 0.000000
0.457235 1.185803 2.945027 0.000000 0.000000 0.000000
0.461403 1.186563 2.948071 0.000000 0.000000 0.000000
0.446574 1.180878 2.937904 0.000000 0.000000 0.000000
0.461303 1.185717 2.941605 0.000000 0.000000 0.000000
0.440457 1.182111 2.943066 0.000000 0.000000 0.000000
0.458056 1.185276 2.944511 0.000000 0.000000 0.000000
0.455277 1.179165 2.926263 0.000000 0.000000 0.000000
0.468211 1.185485 2.943463 0.000000 0.000000 0.000000
0.459210 1.183309 2.943166 0.000000 0.000000 0.000000
0.440211 1.174928 2.941652 0.000000 0.000000 0.000000
0.464866 1.186067 2.945960 0.000000 0.000000 0.000000
0.450359 1.162114 2.956691 0.000000 0.000000 0.000000
0.440444 1.170745 2.948052 0.000000 0.000000 0.000000
0.404749 1.183417 2.902528 0.000000 0.000000 0.000000
0.461506 1.186107 2.949494 0.000000 0.000000 0.000000
0.411750 1.193579 2.918805 0.000000 0.000000 0.000000
0.408533 1.177165 2.911863 0.000000 0.000000 0.000000
0.443672 1.170880 2.945942 0.000000 0.000000 0.000000
0.409464 1.169247 2.917702 0.000000 0.000000 0.000000
0.401531 1.184648 2.916480 0.000000 0.000000 0.000000
0.410646 1.187797 2.914891 0.000000 0.000000 0.000000
0.410535 1.185424 2.907389 0.000000 0.000000 0.000000
0.412089 1.179718 2.917675 0.000000 0.000000 0.000000
0.403299 1.182456 2.911278 0.000000 0.000000 0.000000
0.448843 1.171275 2.947811 0.000000 0.000000 0.000000
0.458519 1.186134 2.943269 0.000000 0.000000 0.000000
0.465964 1.185544 2.946135 0.000000 0.000000 0.000000
0.452774 1.185510 2.947066 0.000000 0.000000 0.000000
0.474952 1.178269 2.956253 0.000000 0.000000 0.000000
0.453574 1.185056 2.942591 0.000000 0.000000 0.000000
0.480288 1.179251 2.955377 0.000000 0.000000 0.000000
0.457956 1.182990 2.933958 0.000000 0.000000 0.000000
0.408826 1.180154 2.904581 0.000000 0.000000 0.000000
0.413751 1.181178 2.907310 0.000000 0.000000 0.000000
0.408751 1.189731 2.914300 0.000000 0.000000 0.000000
0.442702 1.189946 2.925978 0.000000 0.000000 0.000000
0.445683 1.175851 2.945029 0.000000 0.000000 0.000000
0.442038 1.179912 2.949512 0.000000 0.000000 0.000000
0.451927 1.184227 2.953677 0.000000 0.000000 0.000000
0.475204 1.184449 2.954538 0.000000 0.000000 0.000000
0.453495 1.177022 2.954159 0.000000 0.000000 0.000000
0.468186 1.188468 2.944089 0.000000 0.000000 0.000000
0.458138 1.183415 2.933248 0.000000 0.000000 0.000000
0.454695 1.185569 2.936914 0.000000 0.000000 0.000000
0.443189 1.185935 2.927641 0.000000 0.000000 0.000000
0.460777 1.186040 2.945028 0.000000 0.000000 0.000000
0.456758 1.182536 2.937484 0.000000 0.000000 0.000000
0.452000 1.180299 2.940588 0.000000 0.000000 0.000000
