ply
format ascii 1.0
comment VCGLIB generated
obj_info Generated by SPFormer!
element vertex 406
property float x
property float y
property float z
property float nx
property float ny
property float nz
end_header
0.486962 0.877875 2.552803 0.000000 0.000000 0.000000
0.478376 0.874520 2.556601 0.000000 0.000000 0.000000
0.499791 0.876083 2.548347 0.000000 0.000000 0.000000
0.480935 0.867320 2.565174 0.000000 0.000000 0.000000
0.517746 0.879142 2.563020 0.000000 0.000000 0.000000
0.515595 0.877671 2.562852 0.000000 0.000000 0.000000
0.519611 0.872525 2.568151 0.000000 0.000000 0.000000
0.509969 0.878168 2.549663 0.000000 0.000000 0.000000
0.516280 0.879432 2.564983 0.000000 0.000000 0.000000
0.512278 0.878987 2.554253 0.000000 0.000000 0.000000
0.482968 0.877198 2.550092 0.000000 0.000000 0.000000
0.519717 0.867417 2.561538 0.000000 0.000000 0.000000
0.511959 0.877176 2.554261 0.000000 0.000000 0.000000
0.513301 0.876732 2.558095 0.000000 0.000000 0.000000
0.509059 0.868814 2.563519 0.000000 0.000000 0.000000
0.519873 0.871279 2.566420 0.000000 0.000000 0.000000
0.366265 0.832506 2.541874 0.000000 0.000000 0.000000
0.432775 0.841834 2.561136 0.000000 0.000000 0.000000
0.389339 0.829111 2.586930 0.000000 0.000000 0.000000
0.352902 0.849629 2.576993 0.000000 0.000000 0.000000
0.369943 0.824531 2.598995 0.000000 0.000000 0.000000
0.401169 0.842770 2.571549 0.000000 0.000000 0.000000
0.360399 0.822339 2.587354 0.000000 0.000000 0.000000
0.313858 0.842404 2.557507 0.000000 0.000000 0.000000
0.324827 0.825284 2.550929 0.000000 0.000000 0.000000
0.407690 0.854503 2.566547 0.000000 0.000000 0.000000
0.312717 0.818625 2.579512 0.000000 0.000000 0.000000
0.323608 0.822702 2.575471 0.000000 0.000000 0.000000
0.316007 0.837907 2.537728 0.000000 0.000000 0.000000
0.474197 0.864462 2.536839 0.000000 0.000000 0.000000
0.327313 0.842324 2.568932 0.000000 0.000000 0.000000
0.326593 0.821513 2.566514 0.000000 0.000000 0.000000
0.369227 0.851535 2.530154 0.000000 0.000000 0.000000
0.406734 0.834320 2.571740 0.000000 0.000000 0.000000
0.320332 0.830259 2.538963 0.000000 0.000000 0.000000
0.460240 0.869800 2.533727 0.000000 0.000000 0.000000
0.369151 0.836127 2.554475 0.000000 0.000000 0.000000
0.357564 0.824475 2.576890 0.000000 0.000000 0.000000
0.482867 0.858435 2.563851 0.000000 0.000000 0.000000
0.348846 0.822501 2.586148 0.000000 0.000000 0.000000
0.350028 0.837103 2.590457 0.000000 0.000000 0.000000
0.413198 0.847727 2.534907 0.000000 0.000000 0.000000
0.308925 0.831191 2.590377 0.000000 0.000000 0.000000
0.456189 0.854412 2.545194 0.000000 0.000000 0.000000
0.367926 0.824554 2.576372 0.000000 0.000000 0.000000
0.368016 0.829174 2.549369 0.000000 0.000000 0.000000
0.427376 0.839324 2.565514 0.000000 0.000000 0.000000
0.392142 0.839865 2.554619 0.000000 0.000000 0.000000
0.324984 0.823240 2.588419 0.000000 0.000000 0.000000
0.472805 0.859281 2.557287 0.000000 0.000000 0.000000
0.346619 0.821218 2.566205 0.000000 0.000000 0.000000
0.343141 0.845241 2.548083 0.000000 0.000000 0.000000
0.331497 0.852112 2.532975 0.000000 0.000000 0.000000
0.440242 0.869166 2.518166 0.000000 0.000000 0.000000
0.374712 0.843255 2.537646 0.000000 0.000000 0.000000
0.459903 0.864325 2.536186 0.000000 0.000000 0.000000
0.330044 0.820832 2.570276 0.000000 0.000000 0.000000
0.336091 0.853093 2.524802 0.000000 0.000000 0.000000
0.302139 0.823895 2.588001 0.000000 0.000000 0.000000
0.439442 0.845856 2.576422 0.000000 0.000000 0.000000
0.441920 0.861392 2.523418 0.000000 0.000000 0.000000
0.462569 0.851753 2.564077 0.000000 0.000000 0.000000
0.405450 0.859055 2.539426 0.000000 0.000000 0.000000
0.427476 0.869478 2.512769 0.000000 0.000000 0.000000
0.415095 0.863924 2.519548 0.000000 0.000000 0.000000
0.395128 0.853755 2.554578 0.000000 0.000000 0.000000
0.363363 0.869557 2.535410 0.000000 0.000000 0.000000
0.324076 0.834952 2.590201 0.000000 0.000000 0.000000
0.367381 0.846875 2.549571 0.000000 0.000000 0.000000
0.341900 0.827748 2.579582 0.000000 0.000000 0.000000
0.345454 0.830577 2.540300 0.000000 0.000000 0.000000
0.354071 0.853526 2.529432 0.000000 0.000000 0.000000
0.315035 0.834083 2.538893 0.000000 0.000000 0.000000
0.348177 0.858005 2.524594 0.000000 0.000000 0.000000
0.430390 0.874119 2.568010 0.000000 0.000000 0.000000
0.337893 0.841241 2.568561 0.000000 0.000000 0.000000
0.342935 0.845839 2.568979 0.000000 0.000000 0.000000
0.475514 0.853952 2.553214 0.000000 0.000000 0.000000
0.400128 0.865887 2.518054 0.000000 0.000000 0.000000
0.341680 0.824894 2.600137 0.000000 0.000000 0.000000
0.415724 0.858868 2.519978 0.000000 0.000000 0.000000
0.371562 0.840363 2.542928 0.000000 0.000000 0.000000
0.351852 0.844699 2.569238 0.000000 0.000000 0.000000
0.348296 0.860157 2.532482 0.000000 0.000000 0.000000
0.374280 0.833273 2.607537 0.000000 0.000000 0.000000
0.332608 0.823893 2.581472 0.000000 0.000000 0.000000
0.314238 0.819895 2.569301 0.000000 0.000000 0.000000
0.304254 0.826450 2.578077 0.000000 0.000000 0.000000
0.313890 0.834007 2.585965 0.000000 0.000000 0.000000
0.355020 0.837013 2.562381 0.000000 0.000000 0.000000
0.302205 0.829735 2.552743 0.000000 0.000000 0.000000
0.453941 0.869479 2.520337 0.000000 0.000000 0.000000
0.459327 0.859274 2.551171 0.000000 0.000000 0.000000
0.323448 0.819092 2.579148 0.000000 0.000000 0.000000
0.301867 0.832052 2.554095 0.000000 0.000000 0.000000
0.323854 0.819711 2.589110 0.000000 0.000000 0.000000
0.425897 0.870679 2.513887 0.000000 0.000000 0.000000
0.369543 0.847247 2.608285 0.000000 0.000000 0.000000
0.422386 0.859863 2.532710 0.000000 0.000000 0.000000
0.362446 0.827170 2.608353 0.000000 0.000000 0.000000
0.364302 0.835702 2.580903 0.000000 0.000000 0.000000
0.442268 0.863195 2.542589 0.000000 0.000000 0.000000
0.340796 0.856538 2.547779 0.000000 0.000000 0.000000
0.345804 0.825700 2.550859 0.000000 0.000000 0.000000
0.494300 0.868830 2.542159 0.000000 0.000000 0.000000
0.373929 0.853096 2.521333 0.000000 0.000000 0.000000
0.337955 0.831074 2.546450 0.000000 0.000000 0.000000
0.447946 0.852300 2.552833 0.000000 0.000000 0.000000
0.328614 0.841056 2.563980 0.000000 0.000000 0.000000
0.387849 0.835534 2.546884 0.000000 0.000000 0.000000
0.452811 0.846942 2.576410 0.000000 0.000000 0.000000
0.324784 0.847878 2.551101 0.000000 0.000000 0.000000
0.332395 0.855385 2.541039 0.000000 0.000000 0.000000
0.400136 0.846262 2.535616 0.000000 0.000000 0.000000
0.386580 0.828747 2.574397 0.000000 0.000000 0.000000
0.497945 0.871233 2.547817 0.000000 0.000000 0.000000
0.414854 0.854025 2.517901 0.000000 0.000000 0.000000
0.375211 0.857067 2.516148 0.000000 0.000000 0.000000
0.329360 0.826627 2.545101 0.000000 0.000000 0.000000
0.427307 0.837910 2.577356 0.000000 0.000000 0.000000
0.430466 0.847447 2.537623 0.000000 0.000000 0.000000
0.384386 0.836317 2.549993 0.000000 0.000000 0.000000
0.414696 0.838033 2.597162 0.000000 0.000000 0.000000
0.405572 0.857141 2.518321 0.000000 0.000000 0.000000
0.366293 0.860424 2.531775 0.000000 0.000000 0.000000
0.357581 0.858580 2.539313 0.000000 0.000000 0.000000
0.480544 0.856905 2.566031 0.000000 0.000000 0.000000
0.325295 0.825299 2.575259 0.000000 0.000000 0.000000
0.467447 0.860109 2.547981 0.000000 0.000000 0.000000
0.386014 0.826487 2.590132 0.000000 0.000000 0.000000
0.397270 0.832937 2.602249 0.000000 0.000000 0.000000
0.333829 0.839004 2.527554 0.000000 0.000000 0.000000
0.474530 0.858698 2.539329 0.000000 0.000000 0.000000
0.335922 0.844761 2.539039 0.000000 0.000000 0.000000
0.326031 0.823426 2.557305 0.000000 0.000000 0.000000
0.369115 0.859664 2.549156 0.000000 0.000000 0.000000
0.420464 0.849107 2.560416 0.000000 0.000000 0.000000
0.367476 0.825717 2.596166 0.000000 0.000000 0.000000
0.462638 0.847883 2.561466 0.000000 0.000000 0.000000
0.482604 0.861918 2.545666 0.000000 0.000000 0.000000
0.309576 0.825468 2.593044 0.000000 0.000000 0.000000
0.340184 0.824737 2.605326 0.000000 0.000000 0.000000
0.339303 0.821883 2.596539 0.000000 0.000000 0.000000
0.325922 0.826158 2.601456 0.000000 0.000000 0.000000
0.328179 0.824610 2.595554 0.000000 0.000000 0.000000
0.347135 0.825291 2.602526 0.000000 0.000000 0.000000
0.308659 0.830395 2.591957 0.000000 0.000000 0.000000
0.430677 0.849452 2.547613 0.000000 0.000000 0.000000
0.407011 0.853017 2.525773 0.000000 0.000000 0.000000
0.461210 0.868106 2.526083 0.000000 0.000000 0.000000
0.409662 0.842708 2.553284 0.000000 0.000000 0.000000
0.445486 0.860977 2.521210 0.000000 0.000000 0.000000
0.455227 0.855903 2.534452 0.000000 0.000000 0.000000
0.480772 0.856066 2.558889 0.000000 0.000000 0.000000
0.450420 0.845250 2.575978 0.000000 0.000000 0.000000
0.459686 0.862602 2.529358 0.000000 0.000000 0.000000
0.380065 0.864100 2.512352 0.000000 0.000000 0.000000
0.376749 0.861612 2.519226 0.000000 0.000000 0.000000
0.395657 0.863280 2.525165 0.000000 0.000000 0.000000
0.431257 0.840921 2.590267 0.000000 0.000000 0.000000
0.320887 0.836816 2.530946 0.000000 0.000000 0.000000
0.472994 0.854874 2.567358 0.000000 0.000000 0.000000
0.487489 0.865025 2.542341 0.000000 0.000000 0.000000
0.430488 0.868204 2.511218 0.000000 0.000000 0.000000
0.330574 0.833274 2.533771 0.000000 0.000000 0.000000
0.408819 0.864573 2.513452 0.000000 0.000000 0.000000
0.434188 0.867902 2.506562 0.000000 0.000000 0.000000
0.372717 0.825995 2.600586 0.000000 0.000000 0.000000
0.401289 0.832439 2.594180 0.000000 0.000000 0.000000
0.468338 0.859324 2.530172 0.000000 0.000000 0.000000
0.427845 0.870951 2.528286 0.000000 0.000000 0.000000
0.458529 0.871071 2.518421 0.000000 0.000000 0.000000
0.482097 0.856138 2.555660 0.000000 0.000000 0.000000
0.494622 0.868315 2.552623 0.000000 0.000000 0.000000
0.431548 0.874183 2.509241 0.000000 0.000000 0.000000
0.407464 0.864426 2.534570 0.000000 0.000000 0.000000
0.438643 0.869952 2.526583 0.000000 0.000000 0.000000
0.492105 0.861651 2.555729 0.000000 0.000000 0.000000
0.480603 0.869749 2.547978 0.000000 0.000000 0.000000
0.443433 0.843240 2.556193 0.000000 0.000000 0.000000
0.436492 0.838280 2.581222 0.000000 0.000000 0.000000
0.372665 0.825929 2.563235 0.000000 0.000000 0.000000
0.381734 0.831554 2.566301 0.000000 0.000000 0.000000
0.418882 0.837285 2.578701 0.000000 0.000000 0.000000
0.428012 0.847853 2.572315 0.000000 0.000000 0.000000
0.353836 0.839590 2.560511 0.000000 0.000000 0.000000
0.464555 0.871446 2.520685 0.000000 0.000000 0.000000
0.461429 0.854661 2.556987 0.000000 0.000000 0.000000
0.409636 0.840841 2.573939 0.000000 0.000000 0.000000
0.414171 0.840594 2.554750 0.000000 0.000000 0.000000
0.450029 0.844368 2.561379 0.000000 0.000000 0.000000
0.442518 0.839784 2.571060 0.000000 0.000000 0.000000
0.314188 0.836070 2.576624 0.000000 0.000000 0.000000
0.395345 0.832507 2.558239 0.000000 0.000000 0.000000
0.376782 0.847488 2.567034 0.000000 0.000000 0.000000
0.456081 0.869707 2.520944 0.000000 0.000000 0.000000
0.370871 0.841736 2.592113 0.000000 0.000000 0.000000
0.367042 0.829436 2.606306 0.000000 0.000000 0.000000
0.376718 0.854528 2.515648 0.000000 0.000000 0.000000
0.366393 0.827806 2.608778 0.000000 0.000000 0.000000
0.388654 0.832454 2.607289 0.000000 0.000000 0.000000
0.367872 0.859542 2.507555 0.000000 0.000000 0.000000
0.352064 0.839128 2.597031 0.000000 0.000000 0.000000
0.390963 0.852682 2.520509 0.000000 0.000000 0.000000
0.384756 0.857408 2.508257 0.000000 0.000000 0.000000
0.301180 0.830575 2.581337 0.000000 0.000000 0.000000
0.312151 0.822892 2.589887 0.000000 0.000000 0.000000
0.332878 0.821207 2.592422 0.000000 0.000000 0.000000
0.308982 0.825491 2.552768 0.000000 0.000000 0.000000
0.427188 0.836777 2.584831 0.000000 0.000000 0.000000
0.327029 0.825890 2.601838 0.000000 0.000000 0.000000
0.339499 0.820168 2.583769 0.000000 0.000000 0.000000
0.325579 0.822253 2.598686 0.000000 0.000000 0.000000
0.316691 0.829156 2.601033 0.000000 0.000000 0.000000
0.365580 0.859740 2.511984 0.000000 0.000000 0.000000
0.296548 0.828043 2.576191 0.000000 0.000000 0.000000
0.334664 0.841568 2.524650 0.000000 0.000000 0.000000
0.305757 0.837520 2.549525 0.000000 0.000000 0.000000
0.314641 0.824404 2.555856 0.000000 0.000000 0.000000
0.334150 0.836555 2.587455 0.000000 0.000000 0.000000
0.309093 0.824566 2.591059 0.000000 0.000000 0.000000
0.301316 0.826234 2.561607 0.000000 0.000000 0.000000
0.313249 0.829681 2.597140 0.000000 0.000000 0.000000
0.366893 0.841310 2.528006 0.000000 0.000000 0.000000
0.396690 0.843245 2.540329 0.000000 0.000000 0.000000
0.376826 0.848105 2.526673 0.000000 0.000000 0.000000
0.355442 0.841672 2.538052 0.000000 0.000000 0.000000
0.314709 0.822218 2.559791 0.000000 0.000000 0.000000
0.305135 0.823668 2.561681 0.000000 0.000000 0.000000
0.298360 0.829314 2.569127 0.000000 0.000000 0.000000
0.294693 0.830549 2.574800 0.000000 0.000000 0.000000
0.301796 0.828831 2.577426 0.000000 0.000000 0.000000
0.300523 0.832526 2.565188 0.000000 0.000000 0.000000
0.419938 0.842453 2.596850 0.000000 0.000000 0.000000
0.307633 0.832756 2.585338 0.000000 0.000000 0.000000
0.309671 0.828603 2.582888 0.000000 0.000000 0.000000
0.375462 0.837178 2.604535 0.000000 0.000000 0.000000
0.445054 0.842298 2.585473 0.000000 0.000000 0.000000
0.300325 0.828375 2.580975 0.000000 0.000000 0.000000
0.312403 0.826121 2.573107 0.000000 0.000000 0.000000
0.475986 0.865800 2.531607 0.000000 0.000000 0.000000
0.473653 0.866127 2.539239 0.000000 0.000000 0.000000
0.296334 0.830797 2.582361 0.000000 0.000000 0.000000
0.297014 0.824534 2.571921 0.000000 0.000000 0.000000
0.305126 0.831474 2.586121 0.000000 0.000000 0.000000
0.370741 0.824175 2.572892 0.000000 0.000000 0.000000
0.371282 0.823204 2.585263 0.000000 0.000000 0.000000
0.395518 0.833846 2.605458 0.000000 0.000000 0.000000
0.298062 0.827812 2.580070 0.000000 0.000000 0.000000
0.401380 0.833568 2.570661 0.000000 0.000000 0.000000
0.299146 0.827884 2.567316 0.000000 0.000000 0.000000
0.492926 0.861699 2.549195 0.000000 0.000000 0.000000
0.350431 0.823383 2.598076 0.000000 0.000000 0.000000
0.306320 0.827078 2.589791 0.000000 0.000000 0.000000
0.300443 0.828574 2.585229 0.000000 0.000000 0.000000
0.398240 0.827331 2.588931 0.000000 0.000000 0.000000
0.380346 0.833352 2.561141 0.000000 0.000000 0.000000
0.391016 0.829281 2.600427 0.000000 0.000000 0.000000
0.295796 0.827325 2.567914 0.000000 0.000000 0.000000
0.298296 0.826971 2.575452 0.000000 0.000000 0.000000
0.308325 0.837015 2.552556 0.000000 0.000000 0.000000
0.295611 0.831973 2.566130 0.000000 0.000000 0.000000
0.312047 0.843685 2.553010 0.000000 0.000000 0.000000
0.486242 0.862143 2.550360 0.000000 0.000000 0.000000
0.298333 0.822056 2.582466 0.000000 0.000000 0.000000
0.297860 0.831970 2.574733 0.000000 0.000000 0.000000
0.304333 0.830549 2.597800 0.000000 0.000000 0.000000
0.298768 0.830734 2.579119 0.000000 0.000000 0.000000
0.343467 0.826968 2.605691 0.000000 0.000000 0.000000
0.374327 0.826779 2.603008 0.000000 0.000000 0.000000
0.494556 0.869978 2.542334 0.000000 0.000000 0.000000
0.368592 0.833732 2.610677 0.000000 0.000000 0.000000
0.442969 0.849647 2.534768 0.000000 0.000000 0.000000
0.427042 0.851279 2.527533 0.000000 0.000000 0.000000
0.417857 0.845084 2.587159 0.000000 0.000000 0.000000
0.373323 0.846342 2.599453 0.000000 0.000000 0.000000
0.366364 0.823233 2.593061 0.000000 0.000000 0.000000
0.400839 0.854955 2.592361 0.000000 0.000000 0.000000
0.316354 0.827809 2.546431 0.000000 0.000000 0.000000
0.387920 0.841671 2.595821 0.000000 0.000000 0.000000
0.429377 0.865519 2.518936 0.000000 0.000000 0.000000
0.372790 0.824665 2.597750 0.000000 0.000000 0.000000
0.408481 0.864452 2.586144 0.000000 0.000000 0.000000
0.492101 0.868542 2.540717 0.000000 0.000000 0.000000
0.444290 0.871807 2.523033 0.000000 0.000000 0.000000
0.328810 0.826176 2.604263 0.000000 0.000000 0.000000
0.483711 0.870610 2.532394 0.000000 0.000000 0.000000
0.319791 0.829675 2.601130 0.000000 0.000000 0.000000
0.479181 0.868670 2.530381 0.000000 0.000000 0.000000
0.297707 0.828671 2.574377 0.000000 0.000000 0.000000
0.295955 0.832711 2.577201 0.000000 0.000000 0.000000
0.302891 0.828970 2.588872 0.000000 0.000000 0.000000
0.300016 0.828804 2.579020 0.000000 0.000000 0.000000
0.303695 0.822609 2.574966 0.000000 0.000000 0.000000
0.304235 0.834493 2.575990 0.000000 0.000000 0.000000
0.304714 0.822983 2.569726 0.000000 0.000000 0.000000
0.324666 0.839166 2.575277 0.000000 0.000000 0.000000
0.312435 0.822163 2.578043 0.000000 0.000000 0.000000
0.299533 0.828286 2.573863 0.000000 0.000000 0.000000
0.316324 0.844369 2.548032 0.000000 0.000000 0.000000
0.299604 0.824385 2.566375 0.000000 0.000000 0.000000
0.308221 0.822827 2.577336 0.000000 0.000000 0.000000
0.316358 0.825006 2.588831 0.000000 0.000000 0.000000
0.297797 0.829650 2.584967 0.000000 0.000000 0.000000
0.316989 0.845252 2.539384 0.000000 0.000000 0.000000
0.317854 0.823322 2.564832 0.000000 0.000000 0.000000
0.309603 0.832638 2.559717 0.000000 0.000000 0.000000
0.310545 0.821831 2.582330 0.000000 0.000000 0.000000
0.305282 0.837753 2.564416 0.000000 0.000000 0.000000
0.314572 0.839164 2.567589 0.000000 0.000000 0.000000
0.314728 0.832072 2.593156 0.000000 0.000000 0.000000
0.299420 0.836038 2.561827 0.000000 0.000000 0.000000
0.299079 0.832964 2.557067 0.000000 0.000000 0.000000
0.301518 0.837194 2.553008 0.000000 0.000000 0.000000
0.324892 0.842418 2.528379 0.000000 0.000000 0.000000
0.432620 0.845622 2.586671 0.000000 0.000000 0.000000
0.313173 0.841323 2.541458 0.000000 0.000000 0.000000
0.441949 0.844640 2.587609 0.000000 0.000000 0.000000
0.396383 0.869708 2.507795 0.000000 0.000000 0.000000
0.439334 0.873509 2.512831 0.000000 0.000000 0.000000
0.485547 0.870392 2.541137 0.000000 0.000000 0.000000
0.487930 0.867975 2.535943 0.000000 0.000000 0.000000
0.438115 0.876026 2.512891 0.000000 0.000000 0.000000
0.350877 0.857632 2.517011 0.000000 0.000000 0.000000
0.340630 0.851521 2.518891 0.000000 0.000000 0.000000
0.358793 0.857078 2.520231 0.000000 0.000000 0.000000
0.310845 0.829443 2.545602 0.000000 0.000000 0.000000
0.488789 0.858977 2.559895 0.000000 0.000000 0.000000
0.446451 0.872300 2.514879 0.000000 0.000000 0.000000
0.443657 0.869305 2.515038 0.000000 0.000000 0.000000
0.357205 0.851716 2.605806 0.000000 0.000000 0.000000
0.380655 0.830416 2.605664 0.000000 0.000000 0.000000
0.405839 0.836765 2.603755 0.000000 0.000000 0.000000
0.434683 0.842787 2.590421 0.000000 0.000000 0.000000
0.312483 0.843057 2.539097 0.000000 0.000000 0.000000
0.306627 0.838360 2.547259 0.000000 0.000000 0.000000
0.487146 0.861996 2.558413 0.000000 0.000000 0.000000
0.344463 0.836154 2.532750 0.000000 0.000000 0.000000
0.331519 0.836216 2.532530 0.000000 0.000000 0.000000
0.360357 0.844266 2.520027 0.000000 0.000000 0.000000
0.370518 0.848737 2.523719 0.000000 0.000000 0.000000
0.324696 0.846549 2.528746 0.000000 0.000000 0.000000
0.301627 0.823925 2.560645 0.000000 0.000000 0.000000
0.446756 0.843829 2.575868 0.000000 0.000000 0.000000
0.357818 0.860795 2.511508 0.000000 0.000000 0.000000
0.348475 0.841687 2.525449 0.000000 0.000000 0.000000
0.343974 0.838963 2.528317 0.000000 0.000000 0.000000
0.345056 0.836209 2.528690 0.000000 0.000000 0.000000
0.349193 0.847375 2.519242 0.000000 0.000000 0.000000
0.515728 0.863955 2.555048 0.000000 0.000000 0.000000
0.392137 0.848153 2.529180 0.000000 0.000000 0.000000
0.312304 0.834921 2.544948 0.000000 0.000000 0.000000
0.309569 0.824346 2.562587 0.000000 0.000000 0.000000
0.373458 0.866056 2.512810 0.000000 0.000000 0.000000
0.497259 0.870980 2.546049 0.000000 0.000000 0.000000
0.369692 0.868547 2.511829 0.000000 0.000000 0.000000
0.362290 0.859765 2.516397 0.000000 0.000000 0.000000
0.416527 0.862102 2.514929 0.000000 0.000000 0.000000
0.389166 0.862318 2.509761 0.000000 0.000000 0.000000
0.402525 0.868906 2.508646 0.000000 0.000000 0.000000
0.456703 0.847262 2.571273 0.000000 0.000000 0.000000
0.314439 0.826477 2.596779 0.000000 0.000000 0.000000
0.470564 0.850746 2.572433 0.000000 0.000000 0.000000
0.354224 0.828661 2.612032 0.000000 0.000000 0.000000
0.320530 0.824853 2.599900 0.000000 0.000000 0.000000
0.402992 0.869274 2.509804 0.000000 0.000000 0.000000
0.409722 0.872697 2.507627 0.000000 0.000000 0.000000
0.426455 0.870989 2.513733 0.000000 0.000000 0.000000
0.439347 0.873137 2.509142 0.000000 0.000000 0.000000
0.296650 0.828308 2.565608 0.000000 0.000000 0.000000
0.298850 0.834445 2.571006 0.000000 0.000000 0.000000
0.296255 0.830802 2.574343 0.000000 0.000000 0.000000
0.298512 0.825049 2.579099 0.000000 0.000000 0.000000
0.298412 0.832243 2.580779 0.000000 0.000000 0.000000
0.319553 0.834171 2.596699 0.000000 0.000000 0.000000
0.306371 0.823081 2.584373 0.000000 0.000000 0.000000
0.344622 0.828842 2.609543 0.000000 0.000000 0.000000
0.421557 0.843033 2.598253 0.000000 0.000000 0.000000
0.345307 0.829030 2.614363 0.000000 0.000000 0.000000
0.340775 0.828499 2.608137 0.000000 0.000000 0.000000
0.412653 0.833718 2.583984 0.000000 0.000000 0.000000
0.336581 0.832475 2.607820 0.000000 0.000000 0.000000
0.491289 0.872814 2.546387 0.000000 0.000000 0.000000
0.493816 0.867117 2.546592 0.000000 0.000000 0.000000
0.460675 0.849291 2.575589 0.000000 0.000000 0.000000
0.448332 0.850178 2.572364 0.000000 0.000000 0.000000
0.417525 0.873042 2.509020 0.000000 0.000000 0.000000
0.399771 0.868185 2.513327 0.000000 0.000000 0.000000
0.463974 0.850366 2.575806 0.000000 0.000000 0.000000
0.433493 0.846266 2.591862 0.000000 0.000000 0.000000
0.421056 0.876088 2.508321 0.000000 0.000000 0.000000
0.376754 0.864942 2.509124 0.000000 0.000000 0.000000
0.380488 0.844753 2.539258 0.000000 0.000000 0.000000
0.444422 0.856660 2.526844 0.000000 0.000000 0.000000
0.417555 0.844111 2.556298 0.000000 0.000000 0.000000
0.431425 0.856214 2.520156 0.000000 0.000000 0.000000
0.444877 0.849321 2.586619 0.000000 0.000000 0.000000
0.363188 0.847735 2.602765 0.000000 0.000000 0.000000
0.427177 0.873503 2.515705 0.000000 0.000000 0.000000
0.480863 0.871754 2.533108 0.000000 0.000000 0.000000
0.358967 0.832671 2.607502 0.000000 0.000000 0.000000
0.461771 0.850068 2.576509 0.000000 0.000000 0.000000
0.465718 0.869196 2.526591 0.000000 0.000000 0.000000
0.466926 0.869477 2.524006 0.000000 0.000000 0.000000
0.354328 0.828097 2.611626 0.000000 0.000000 0.000000
0.451748 0.848123 2.582774 0.000000 0.000000 0.000000
