ply
format ascii 1.0
comment VCGLIB generated
obj_info Generated by SPFormer!
element vertex 581
property float x
property float y
property float z
property float nx
property float ny
property float nz
end_header
0.823275 1.096000 1.003390 0.000000 0.000000 0.000000
0.832389 1.055917 1.020580 0.000000 0.000000 0.000000
0.841082 1.041782 1.002978 0.000000 0.000000 0.000000
0.818353 1.047347 1.023606 0.000000 0.000000 0.000000
0.811446 1.115855 1.005544 0.000000 0.000000 0.000000
0.808846 1.093237 1.010118 0.000000 0.000000 0.000000
0.821222 1.097178 1.010987 0.000000 0.000000 0.000000
0.806903 1.057483 1.011034 0.000000 0.000000 0.000000
0.810850 1.055087 1.016510 0.000000 0.000000 0.000000
0.828306 1.044827 1.022437 0.000000 0.000000 0.000000
0.808483 1.052491 1.020593 0.000000 0.000000 0.000000
0.840229 1.044364 1.000607 0.000000 0.000000 0.000000
0.818682 1.098799 1.016407 0.000000 0.000000 0.000000
0.829446 1.058224 1.026046 0.000000 0.000000 0.000000
0.806157 1.050272 1.016860 0.000000 0.000000 0.000000
0.830279 1.049940 1.020194 0.000000 0.000000 0.000000
0.855909 1.044556 1.005284 0.000000 0.000000 0.000000
0.834381 1.044816 1.009401 0.000000 0.000000 0.000000
0.821970 1.105281 1.016437 0.000000 0.000000 0.000000
0.823095 1.089226 0.999713 0.000000 0.000000 0.000000
0.832119 1.049709 1.010918 0.000000 0.000000 0.000000
0.836735 1.051066 1.000041 0.000000 0.000000 0.000000
0.819609 1.092345 0.999277 0.000000 0.000000 0.000000
0.805803 1.093235 1.002965 0.000000 0.000000 0.000000
0.842599 1.049109 1.015368 0.000000 0.000000 0.000000
0.800418 1.098749 1.022871 0.000000 0.000000 0.000000
0.799543 1.086151 1.008894 0.000000 0.000000 0.000000
0.845807 1.054856 0.999177 0.000000 0.000000 0.000000
0.839251 1.045738 1.013021 0.000000 0.000000 0.000000
0.819843 1.096573 1.004683 0.000000 0.000000 0.000000
0.807404 1.048443 1.037849 0.000000 0.000000 0.000000
0.845081 1.053719 1.019135 0.000000 0.000000 0.000000
0.825596 1.094080 1.000986 0.000000 0.000000 0.000000
0.805109 1.049317 1.029731 0.000000 0.000000 0.000000
0.855377 1.045459 1.004999 0.000000 0.000000 0.000000
0.830933 1.041349 1.038612 0.000000 0.000000 0.000000
0.807849 1.096540 1.009744 0.000000 0.000000 0.000000
0.816830 1.094031 1.003608 0.000000 0.000000 0.000000
0.821532 1.094123 1.001232 0.000000 0.000000 0.000000
0.804393 1.093979 1.004591 0.000000 0.000000 0.000000
0.819053 1.092420 1.004092 0.000000 0.000000 0.000000
0.834680 1.040154 1.000681 0.000000 0.000000 0.000000
0.843972 1.049811 1.011748 0.000000 0.000000 0.000000
0.814518 1.050234 1.035585 0.000000 0.000000 0.000000
0.805924 1.095910 1.015745 0.000000 0.000000 0.000000
0.803074 1.098610 1.020763 0.000000 0.000000 0.000000
0.829228 1.047977 1.017628 0.000000 0.000000 0.000000
0.796059 1.096127 1.020981 0.000000 0.000000 0.000000
0.773785 1.116945 1.033321 0.000000 0.000000 0.000000
0.827845 1.046551 1.037292 0.000000 0.000000 0.000000
0.816903 1.098387 1.010376 0.000000 0.000000 0.000000
0.845831 1.053645 1.002694 0.000000 0.000000 0.000000
0.847466 1.046771 1.012545 0.000000 0.000000 0.000000
0.806579 1.096481 1.002333 0.000000 0.000000 0.000000
0.826389 1.045538 1.020924 0.000000 0.000000 0.000000
0.793240 1.076968 1.024137 0.000000 0.000000 0.000000
0.835944 1.051113 1.014215 0.000000 0.000000 0.000000
0.828444 1.052549 1.029340 0.000000 0.000000 0.000000
0.795301 1.097202 1.004907 0.000000 0.000000 0.000000
0.824842 1.054267 1.018305 0.000000 0.000000 0.000000
0.819124 1.097002 1.008602 0.000000 0.000000 0.000000
0.824439 1.055713 1.036854 0.000000 0.000000 0.000000
0.814732 1.111227 1.010049 0.000000 0.000000 0.000000
0.846837 1.052681 1.014484 0.000000 0.000000 0.000000
0.811949 1.098827 1.010464 0.000000 0.000000 0.000000
0.831108 1.056647 1.026965 0.000000 0.000000 0.000000
0.804410 1.049971 1.023831 0.000000 0.000000 0.000000
0.818751 1.117495 1.020379 0.000000 0.000000 0.000000
0.826744 1.057255 1.023599 0.000000 0.000000 0.000000
0.815321 1.096642 1.024483 0.000000 0.000000 0.000000
0.809175 1.050107 1.022463 0.000000 0.000000 0.000000
0.791887 1.111002 1.028194 0.000000 0.000000 0.000000
0.829480 1.046036 1.021321 0.000000 0.000000 0.000000
0.814438 1.048757 1.027468 0.000000 0.000000 0.000000
0.806042 1.050872 1.037222 0.000000 0.000000 0.000000
0.799173 1.102034 1.030415 0.000000 0.000000 0.000000
0.853994 1.047721 1.007246 0.000000 0.000000 0.000000
0.825364 1.069411 1.008537 0.000000 0.000000 0.000000
0.814288 1.096887 1.004575 0.000000 0.000000 0.000000
0.822371 1.046456 1.023252 0.000000 0.000000 0.000000
0.848992 1.052305 1.003816 0.000000 0.000000 0.000000
0.819744 1.091355 0.998371 0.000000 0.000000 0.000000
0.859943 1.052015 1.000448 0.000000 0.000000 0.000000
0.825144 1.054450 1.032982 0.000000 0.000000 0.000000
0.819163 1.096537 1.008214 0.000000 0.000000 0.000000
0.813390 1.050703 1.022647 0.000000 0.000000 0.000000
0.807671 1.049380 1.025237 0.000000 0.000000 0.000000
0.818914 1.046309 1.026291 0.000000 0.000000 0.000000
0.826459 1.041345 1.022468 0.000000 0.000000 0.000000
0.839249 1.048570 1.009055 0.000000 0.000000 0.000000
0.846138 1.041779 1.006622 0.000000 0.000000 0.000000
0.806918 1.110095 1.006269 0.000000 0.000000 0.000000
0.807905 1.051245 1.027555 0.000000 0.000000 0.000000
0.814813 1.048818 1.030558 0.000000 0.000000 0.000000
0.861506 1.056412 1.012103 0.000000 0.000000 0.000000
0.836467 1.049053 1.010750 0.000000 0.000000 0.000000
0.822151 1.096368 1.005467 0.000000 0.000000 0.000000
0.792339 1.056674 1.010231 0.000000 0.000000 0.000000
0.824309 1.105718 1.011150 0.000000 0.000000 0.000000
0.814842 1.095877 1.002020 0.000000 0.000000 0.000000
0.821549 1.104264 1.015486 0.000000 0.000000 0.000000
0.795371 1.102750 1.032311 0.000000 0.000000 0.000000
0.814006 1.098726 1.015081 0.000000 0.000000 0.000000
0.796455 1.098412 1.023802 0.000000 0.000000 0.000000
0.797514 1.058913 0.996957 0.000000 0.000000 0.000000
0.815286 1.054467 1.032019 0.000000 0.000000 0.000000
0.805879 1.095001 1.011488 0.000000 0.000000 0.000000
0.831102 1.042340 1.018847 0.000000 0.000000 0.000000
0.818586 1.098390 1.005694 0.000000 0.000000 0.000000
0.805941 1.053719 1.010194 0.000000 0.000000 0.000000
0.784987 1.100131 1.030720 0.000000 0.000000 0.000000
0.819360 1.056850 1.030309 0.000000 0.000000 0.000000
0.839298 1.061336 1.022669 0.000000 0.000000 0.000000
0.816080 1.090565 0.994176 0.000000 0.000000 0.000000
0.809593 1.091544 1.011811 0.000000 0.000000 0.000000
0.808633 1.092703 1.008266 0.000000 0.000000 0.000000
0.812161 1.098078 1.003060 0.000000 0.000000 0.000000
0.842320 1.056601 1.004302 0.000000 0.000000 0.000000
0.821236 1.092965 1.000166 0.000000 0.000000 0.000000
0.763535 1.119296 1.025740 0.000000 0.000000 0.000000
0.820067 1.096401 1.003471 0.000000 0.000000 0.000000
0.807546 1.050561 1.023469 0.000000 0.000000 0.000000
0.807795 1.099152 1.021968 0.000000 0.000000 0.000000
0.806164 1.050707 1.032119 0.000000 0.000000 0.000000
0.817724 1.053611 1.029276 0.000000 0.000000 0.000000
0.806723 1.054725 1.017807 0.000000 0.000000 0.000000
0.823343 1.093509 1.019635 0.000000 0.000000 0.000000
0.820777 1.102135 1.015066 0.000000 0.000000 0.000000
0.819669 1.054432 1.023772 0.000000 0.000000 0.000000
0.803923 1.104534 1.013564 0.000000 0.000000 0.000000
0.809118 1.046135 1.016790 0.000000 0.000000 0.000000
0.854468 1.052148 1.004256 0.000000 0.000000 0.000000
0.847998 1.053561 1.007370 0.000000 0.000000 0.000000
0.825079 1.117790 1.017732 0.000000 0.000000 0.000000
0.839642 1.048065 0.999341 0.000000 0.000000 0.000000
0.802904 1.056418 1.012480 0.000000 0.000000 0.000000
0.802618 1.052500 0.999487 0.000000 0.000000 0.000000
0.809664 1.107313 1.006946 0.000000 0.000000 0.000000
0.814198 1.043714 1.030673 0.000000 0.000000 0.000000
0.824364 1.049427 1.030464 0.000000 0.000000 0.000000
0.814459 1.119586 1.007021 0.000000 0.000000 0.000000
0.806809 1.098251 1.009439 0.000000 0.000000 0.000000
0.771033 1.116404 1.032553 0.000000 0.000000 0.000000
0.811503 1.096958 1.003664 0.000000 0.000000 0.000000
0.810703 1.093531 1.014109 0.000000 0.000000 0.000000
0.817740 1.111171 1.012867 0.000000 0.000000 0.000000
0.773404 1.111600 1.031717 0.000000 0.000000 0.000000
0.834220 1.044519 1.002402 0.000000 0.000000 0.000000
0.852576 1.046773 1.005816 0.000000 0.000000 0.000000
0.837983 1.048713 0.996945 0.000000 0.000000 0.000000
0.822800 1.095077 1.016415 0.000000 0.000000 0.000000
0.816226 1.048637 1.019480 0.000000 0.000000 0.000000
0.826751 1.057253 1.031458 0.000000 0.000000 0.000000
0.805043 1.055359 1.019012 0.000000 0.000000 0.000000
0.786869 1.092491 1.017534 0.000000 0.000000 0.000000
0.807038 1.100748 1.014712 0.000000 0.000000 0.000000
0.839987 1.047993 1.009789 0.000000 0.000000 0.000000
0.807339 1.047500 1.022499 0.000000 0.000000 0.000000
0.830989 1.040443 1.022734 0.000000 0.000000 0.000000
0.804717 1.095124 1.016848 0.000000 0.000000 0.000000
0.807571 1.048120 1.029514 0.000000 0.000000 0.000000
0.821609 1.091809 1.002719 0.000000 0.000000 0.000000
0.817766 1.101279 1.016869 0.000000 0.000000 0.000000
0.789422 1.104833 1.031287 0.000000 0.000000 0.000000
0.798767 1.098601 1.022123 0.000000 0.000000 0.000000
0.819898 1.100623 1.017769 0.000000 0.000000 0.000000
0.804226 1.094449 0.997234 0.000000 0.000000 0.000000
0.785131 1.104219 1.038247 0.000000 0.000000 0.000000
0.810658 1.097442 1.010918 0.000000 0.000000 0.000000
0.804137 1.105503 1.015914 0.000000 0.000000 0.000000
0.810437 1.099139 1.013310 0.000000 0.000000 0.000000
0.846734 1.045737 1.009691 0.000000 0.000000 0.000000
0.840595 1.066645 1.005213 0.000000 0.000000 0.000000
0.815817 1.097975 1.004790 0.000000 0.000000 0.000000
0.835604 1.043442 0.997853 0.000000 0.000000 0.000000
0.859053 1.047174 1.002401 0.000000 0.000000 0.000000
0.804645 1.062511 1.011996 0.000000 0.000000 0.000000
0.781108 1.106242 1.039889 0.000000 0.000000 0.000000
0.822652 1.044095 1.030411 0.000000 0.000000 0.000000
0.840462 1.057382 1.004029 0.000000 0.000000 0.000000
0.831269 1.051332 1.003131 0.000000 0.000000 0.000000
0.817039 1.044559 1.033705 0.000000 0.000000 0.000000
0.840495 1.055634 1.014223 0.000000 0.000000 0.000000
0.790256 1.100542 1.028031 0.000000 0.000000 0.000000
0.837725 1.056936 0.996833 0.000000 0.000000 0.000000
0.779917 1.112964 1.039279 0.000000 0.000000 0.000000
0.806747 1.052639 1.036192 0.000000 0.000000 0.000000
0.804534 1.057473 1.004200 0.000000 0.000000 0.000000
0.831869 1.054487 1.020028 0.000000 0.000000 0.000000
0.847408 1.063602 1.008638 0.000000 0.000000 0.000000
0.833778 1.041691 1.022696 0.000000 0.000000 0.000000
0.808490 1.060909 1.013444 0.000000 0.000000 0.000000
0.856972 1.056748 0.999871 0.000000 0.000000 0.000000
0.846365 1.045643 1.004647 0.000000 0.000000 0.000000
0.771444 1.119689 1.029776 0.000000 0.000000 0.000000
0.830124 1.044159 1.009050 0.000000 0.000000 0.000000
0.805861 1.049992 1.037519 0.000000 0.000000 0.000000
0.837423 1.047755 1.014515 0.000000 0.000000 0.000000
0.816357 1.111050 1.012543 0.000000 0.000000 0.000000
0.822384 1.112118 1.015420 0.000000 0.000000 0.000000
0.858369 1.047942 1.004750 0.000000 0.000000 0.000000
0.812854 1.093864 1.007277 0.000000 0.000000 0.000000
0.852571 1.051070 1.004680 0.000000 0.000000 0.000000
0.818780 1.110744 1.014658 0.000000 0.000000 0.000000
0.817567 1.105055 1.013732 0.000000 0.000000 0.000000
0.821648 1.112384 1.015321 0.000000 0.000000 0.000000
0.803300 1.103906 1.007253 0.000000 0.000000 0.000000
0.815145 1.098981 1.016891 0.000000 0.000000 0.000000
0.808504 1.108033 1.005427 0.000000 0.000000 0.000000
0.798775 1.094108 1.014278 0.000000 0.000000 0.000000
0.843136 1.070916 0.995365 0.000000 0.000000 0.000000
0.799134 1.101295 1.029501 0.000000 0.000000 0.000000
0.787855 1.106859 1.034735 0.000000 0.000000 0.000000
0.823028 1.095675 1.000072 0.000000 0.000000 0.000000
0.816919 1.110509 1.011842 0.000000 0.000000 0.000000
0.817719 1.092158 0.999450 0.000000 0.000000 0.000000
0.804294 1.093390 1.016033 0.000000 0.000000 0.000000
0.792028 1.111267 1.032304 0.000000 0.000000 0.000000
0.819503 1.108749 1.013579 0.000000 0.000000 0.000000
0.816489 1.111100 1.011257 0.000000 0.000000 0.000000
0.816745 1.114818 1.012941 0.000000 0.000000 0.000000
0.822444 1.110795 1.015659 0.000000 0.000000 0.000000
0.806622 1.096673 1.014010 0.000000 0.000000 0.000000
0.846522 1.050908 1.008425 0.000000 0.000000 0.000000
0.816880 1.111412 1.012622 0.000000 0.000000 0.000000
0.849944 1.063232 1.004351 0.000000 0.000000 0.000000
0.812419 1.053260 1.039327 0.000000 0.000000 0.000000
0.856393 1.050983 0.997655 0.000000 0.000000 0.000000
0.840452 1.053737 1.012372 0.000000 0.000000 0.000000
0.825917 1.108265 1.018759 0.000000 0.000000 0.000000
0.831084 1.050804 0.994968 0.000000 0.000000 0.000000
0.802597 1.053109 1.009300 0.000000 0.000000 0.000000
0.780176 1.118062 1.038397 0.000000 0.000000 0.000000
0.813376 1.099220 1.006003 0.000000 0.000000 0.000000
0.850836 1.048670 1.004105 0.000000 0.000000 0.000000
0.840350 1.048311 1.014856 0.000000 0.000000 0.000000
0.805308 1.095619 1.001193 0.000000 0.000000 0.000000
0.820090 1.094598 1.004529 0.000000 0.000000 0.000000
0.812182 1.090776 1.007281 0.000000 0.000000 0.000000
0.819844 1.091441 1.000974 0.000000 0.000000 0.000000
0.826262 1.109271 1.018253 0.000000 0.000000 0.000000
0.792142 1.102361 1.030956 0.000000 0.000000 0.000000
0.801715 1.062307 0.993436 0.000000 0.000000 0.000000
0.802648 1.095386 1.015947 0.000000 0.000000 0.000000
0.780095 1.102100 1.038916 0.000000 0.000000 0.000000
0.802954 1.057525 1.002035 0.000000 0.000000 0.000000
0.810681 1.106875 1.008806 0.000000 0.000000 0.000000
0.809702 1.094548 1.003244 0.000000 0.000000 0.000000
0.847238 1.040582 1.003475 0.000000 0.000000 0.000000
0.809676 1.094366 1.010136 0.000000 0.000000 0.000000
0.777135 1.102973 1.034412 0.000000 0.000000 0.000000
0.849925 1.055372 1.008711 0.000000 0.000000 0.000000
0.850275 1.052054 1.011986 0.000000 0.000000 0.000000
0.806670 1.091580 1.002948 0.000000 0.000000 0.000000
0.833678 1.066720 0.990237 0.000000 0.000000 0.000000
0.818625 1.094776 1.006358 0.000000 0.000000 0.000000
0.828288 1.055220 1.030844 0.000000 0.000000 0.000000
0.853879 1.060451 1.001854 0.000000 0.000000 0.000000
0.808656 1.103970 1.031751 0.000000 0.000000 0.000000
0.821620 1.091750 1.006075 0.000000 0.000000 0.000000
0.807313 1.050311 1.023450 0.000000 0.000000 0.000000
0.811484 1.098046 1.004382 0.000000 0.000000 0.000000
0.793942 1.105324 1.033822 0.000000 0.000000 0.000000
0.829315 1.053529 1.024561 0.000000 0.000000 0.000000
0.806872 1.058232 1.010177 0.000000 0.000000 0.000000
0.796471 1.059416 0.993458 0.000000 0.000000 0.000000
0.812136 1.053258 1.035063 0.000000 0.000000 0.000000
0.800451 1.057378 1.004620 0.000000 0.000000 0.000000
0.816417 1.112741 1.012262 0.000000 0.000000 0.000000
0.770656 1.116866 1.024682 0.000000 0.000000 0.000000
0.793945 1.097239 1.023293 0.000000 0.000000 0.000000
0.808449 1.106858 1.006815 0.000000 0.000000 0.000000
0.814354 1.087546 1.008952 0.000000 0.000000 0.000000
0.833873 1.071812 1.000138 0.000000 0.000000 0.000000
0.800577 1.097530 1.023250 0.000000 0.000000 0.000000
0.807091 1.054026 1.015728 0.000000 0.000000 0.000000
0.810731 1.105399 1.022806 0.000000 0.000000 0.000000
0.805329 1.053635 1.011860 0.000000 0.000000 0.000000
0.803973 1.058205 1.004404 0.000000 0.000000 0.000000
0.799922 1.098043 1.021410 0.000000 0.000000 0.000000
0.801955 1.102877 1.024821 0.000000 0.000000 0.000000
0.791641 1.102190 1.029778 0.000000 0.000000 0.000000
0.806958 1.055157 1.007449 0.000000 0.000000 0.000000
0.816206 1.111724 1.011918 0.000000 0.000000 0.000000
0.815103 1.107239 1.010764 0.000000 0.000000 0.000000
0.802629 1.107455 1.004615 0.000000 0.000000 0.000000
0.797181 1.095674 1.018852 0.000000 0.000000 0.000000
0.793412 1.057483 1.000633 0.000000 0.000000 0.000000
0.801946 1.057493 1.004398 0.000000 0.000000 0.000000
0.811591 1.051010 1.003244 0.000000 0.000000 0.000000
0.812641 1.060091 1.019144 0.000000 0.000000 0.000000
0.809260 1.061046 1.010806 0.000000 0.000000 0.000000
0.815512 1.100560 1.013890 0.000000 0.000000 0.000000
0.809420 1.061740 0.997395 0.000000 0.000000 0.000000
0.800066 1.056590 1.000184 0.000000 0.000000 0.000000
0.824836 1.095468 1.020578 0.000000 0.000000 0.000000
0.796543 1.096192 1.020502 0.000000 0.000000 0.000000
0.814410 1.113616 1.009024 0.000000 0.000000 0.000000
0.816724 1.110807 1.011538 0.000000 0.000000 0.000000
0.836153 1.054010 0.995076 0.000000 0.000000 0.000000
0.834491 1.051620 0.994471 0.000000 0.000000 0.000000
0.844121 1.064404 1.005217 0.000000 0.000000 0.000000
0.842051 1.060659 1.008765 0.000000 0.000000 0.000000
0.838891 1.067514 1.002849 0.000000 0.000000 0.000000
0.839758 1.059121 0.999870 0.000000 0.000000 0.000000
0.822346 1.053071 0.999143 0.000000 0.000000 0.000000
0.812857 1.109623 1.008034 0.000000 0.000000 0.000000
0.792074 1.053985 0.996135 0.000000 0.000000 0.000000
0.820330 1.092969 1.001576 0.000000 0.000000 0.000000
0.841840 1.065806 1.006952 0.000000 0.000000 0.000000
0.820789 1.096979 0.997106 0.000000 0.000000 0.000000
0.839669 1.058243 0.996973 0.000000 0.000000 0.000000
0.819880 1.097027 1.004850 0.000000 0.000000 0.000000
0.815256 1.093427 0.999236 0.000000 0.000000 0.000000
0.822610 1.091351 1.002843 0.000000 0.000000 0.000000
0.769922 1.109885 1.027128 0.000000 0.000000 0.000000
0.809816 1.071149 1.004673 0.000000 0.000000 0.000000
0.813000 1.040745 1.037082 0.000000 0.000000 0.000000
0.819471 1.046317 1.035237 0.000000 0.000000 0.000000
0.791171 1.108785 1.036993 0.000000 0.000000 0.000000
0.793934 1.096292 1.018481 0.000000 0.000000 0.000000
0.800794 1.058687 0.999733 0.000000 0.000000 0.000000
0.799770 1.055317 0.998552 0.000000 0.000000 0.000000
0.799498 1.056482 1.000249 0.000000 0.000000 0.000000
0.800232 1.097906 1.021324 0.000000 0.000000 0.000000
0.850913 1.057532 1.003279 0.000000 0.000000 0.000000
0.810342 1.043892 1.010471 0.000000 0.000000 0.000000
0.855739 1.053432 1.001786 0.000000 0.000000 0.000000
0.801145 1.095960 1.016768 0.000000 0.000000 0.000000
0.785715 1.105580 1.028808 0.000000 0.000000 0.000000
0.841390 1.059690 1.011288 0.000000 0.000000 0.000000
0.843350 1.055279 1.013728 0.000000 0.000000 0.000000
0.806814 1.095478 1.014680 0.000000 0.000000 0.000000
0.797090 1.098116 1.020740 0.000000 0.000000 0.000000
0.831956 1.053424 1.037031 0.000000 0.000000 0.000000
0.794676 1.092060 1.012452 0.000000 0.000000 0.000000
0.801855 1.058513 0.997522 0.000000 0.000000 0.000000
0.806427 1.061046 1.005891 0.000000 0.000000 0.000000
0.797232 1.095317 1.013572 0.000000 0.000000 0.000000
0.800603 1.053836 1.005319 0.000000 0.000000 0.000000
0.800371 1.061549 0.996792 0.000000 0.000000 0.000000
0.819401 1.065959 1.015000 0.000000 0.000000 0.000000
0.809650 1.105762 1.010130 0.000000 0.000000 0.000000
0.853675 1.045858 1.006362 0.000000 0.000000 0.000000
0.811828 1.094920 0.999513 0.000000 0.000000 0.000000
0.779399 1.106046 1.039659 0.000000 0.000000 0.000000
0.843326 1.058677 1.009277 0.000000 0.000000 0.000000
0.814333 1.096865 1.004302 0.000000 0.000000 0.000000
0.811640 1.097973 1.004410 0.000000 0.000000 0.000000
0.808644 1.103298 1.006689 0.000000 0.000000 0.000000
0.775689 1.119802 1.030713 0.000000 0.000000 0.000000
0.779166 1.116813 1.036811 0.000000 0.000000 0.000000
0.780192 1.114771 1.039467 0.000000 0.000000 0.000000
0.810902 1.096164 1.005830 0.000000 0.000000 0.000000
0.834313 1.053004 1.018987 0.000000 0.000000 0.000000
0.834241 1.056303 1.022762 0.000000 0.000000 0.000000
0.847371 1.057163 1.004088 0.000000 0.000000 0.000000
0.844186 1.056834 1.006710 0.000000 0.000000 0.000000
0.771641 1.107605 1.029570 0.000000 0.000000 0.000000
0.819688 1.090046 1.002789 0.000000 0.000000 0.000000
0.838047 1.052683 0.995904 0.000000 0.000000 0.000000
0.793682 1.104250 1.031405 0.000000 0.000000 0.000000
0.841613 1.065748 1.009176 0.000000 0.000000 0.000000
0.810455 1.062231 1.002889 0.000000 0.000000 0.000000
0.837098 1.053551 1.001212 0.000000 0.000000 0.000000
0.857024 1.060798 0.997994 0.000000 0.000000 0.000000
0.801925 1.095246 1.018300 0.000000 0.000000 0.000000
0.847221 1.052987 1.005456 0.000000 0.000000 0.000000
0.859836 1.054922 1.008396 0.000000 0.000000 0.000000
0.794390 1.100094 1.029917 0.000000 0.000000 0.000000
0.843765 1.066235 1.003384 0.000000 0.000000 0.000000
0.859465 1.060053 1.002903 0.000000 0.000000 0.000000
0.838769 1.070457 0.999481 0.000000 0.000000 0.000000
0.791140 1.101444 1.031503 0.000000 0.000000 0.000000
0.793487 1.102660 1.028241 0.000000 0.000000 0.000000
0.847837 1.056345 1.009310 0.000000 0.000000 0.000000
0.824484 1.055545 1.032563 0.000000 0.000000 0.000000
0.793626 1.046563 1.013011 0.000000 0.000000 0.000000
0.837153 1.047288 1.018754 0.000000 0.000000 0.000000
0.846551 1.057027 1.018249 0.000000 0.000000 0.000000
0.822081 1.054643 1.039299 0.000000 0.000000 0.000000
0.796384 1.041098 1.021747 0.000000 0.000000 0.000000
0.843236 1.049057 1.023748 0.000000 0.000000 0.000000
0.841061 1.054584 1.023169 0.000000 0.000000 0.000000
0.825999 1.097417 1.019475 0.000000 0.000000 0.000000
0.833607 1.058282 1.017470 0.000000 0.000000 0.000000
0.810948 1.116853 0.997242 0.000000 0.000000 0.000000
0.791969 1.104088 1.036339 0.000000 0.000000 0.000000
0.821603 1.107054 1.013233 0.000000 0.000000 0.000000
0.813503 1.054665 1.028185 0.000000 0.000000 0.000000
0.846090 1.059712 1.014546 0.000000 0.000000 0.000000
0.826992 1.105774 1.016634 0.000000 0.000000 0.000000
0.818654 1.097998 1.019117 0.000000 0.000000 0.000000
0.817461 1.107090 1.014876 0.000000 0.000000 0.000000
0.810723 1.040291 1.029767 0.000000 0.000000 0.000000
0.810505 1.055331 1.021260 0.000000 0.000000 0.000000
0.822941 1.107357 1.015148 0.000000 0.000000 0.000000
0.820318 1.100589 1.015493 0.000000 0.000000 0.000000
0.799009 1.099797 1.026817 0.000000 0.000000 0.000000
0.829217 1.068169 0.997482 0.000000 0.000000 0.000000
0.806576 1.046488 1.007172 0.000000 0.000000 0.000000
0.837962 1.068589 1.001398 0.000000 0.000000 0.000000
0.809528 1.057434 1.005483 0.000000 0.000000 0.000000
0.813651 1.045153 0.999804 0.000000 0.000000 0.000000
0.851844 1.057909 1.001293 0.000000 0.000000 0.000000
0.850778 1.052658 1.004685 0.000000 0.000000 0.000000
0.853470 1.056470 1.003681 0.000000 0.000000 0.000000
0.846610 1.053719 1.014520 0.000000 0.000000 0.000000
0.813901 1.059676 1.024423 0.000000 0.000000 0.000000
0.807513 1.054004 1.028533 0.000000 0.000000 0.000000
0.813986 1.113994 1.007545 0.000000 0.000000 0.000000
0.820714 1.111779 1.013664 0.000000 0.000000 0.000000
0.787877 1.103601 1.031711 0.000000 0.000000 0.000000
0.780674 1.113462 1.038868 0.000000 0.000000 0.000000
0.813757 1.112630 1.009164 0.000000 0.000000 0.000000
0.812446 1.104594 1.010683 0.000000 0.000000 0.000000
0.819732 1.101733 1.015062 0.000000 0.000000 0.000000
0.816813 1.092609 1.014250 0.000000 0.000000 0.000000
0.806242 1.093585 0.998265 0.000000 0.000000 0.000000
0.805342 1.093087 1.001507 0.000000 0.000000 0.000000
0.847275 1.050231 1.008169 0.000000 0.000000 0.000000
0.810127 1.090307 0.997954 0.000000 0.000000 0.000000
0.817249 1.089209 1.004516 0.000000 0.000000 0.000000
0.812327 1.095482 1.001708 0.000000 0.000000 0.000000
0.820221 1.097142 1.000337 0.000000 0.000000 0.000000
0.814639 1.098622 1.005005 0.000000 0.000000 0.000000
0.819175 1.096092 1.004962 0.000000 0.000000 0.000000
0.840278 1.066256 1.013521 0.000000 0.000000 0.000000
0.836435 1.055750 0.994370 0.000000 0.000000 0.000000
0.808071 1.102817 1.009171 0.000000 0.000000 0.000000
0.810743 1.049816 1.019874 0.000000 0.000000 0.000000
0.806907 1.052989 1.017377 0.000000 0.000000 0.000000
0.798467 1.102048 1.029775 0.000000 0.000000 0.000000
0.809685 1.094386 0.996672 0.000000 0.000000 0.000000
0.803223 1.060383 1.009328 0.000000 0.000000 0.000000
0.804707 1.094714 1.006280 0.000000 0.000000 0.000000
0.801102 1.058080 1.009027 0.000000 0.000000 0.000000
0.801931 1.098340 1.019403 0.000000 0.000000 0.000000
0.840960 1.053601 1.016229 0.000000 0.000000 0.000000
0.853839 1.055622 1.003898 0.000000 0.000000 0.000000
0.797703 1.040161 1.019468 0.000000 0.000000 0.000000
0.817660 1.086501 1.003128 0.000000 0.000000 0.000000
0.803733 1.049281 1.028618 0.000000 0.000000 0.000000
0.841553 1.068779 1.008031 0.000000 0.000000 0.000000
0.806844 1.050293 1.017568 0.000000 0.000000 0.000000
0.810293 1.091785 1.018842 0.000000 0.000000 0.000000
0.808802 1.093554 1.011682 0.000000 0.000000 0.000000
0.823971 1.106811 1.016116 0.000000 0.000000 0.000000
0.785499 1.102343 1.035039 0.000000 0.000000 0.000000
0.788207 1.103544 1.039126 0.000000 0.000000 0.000000
0.780540 1.103465 1.034495 0.000000 0.000000 0.000000
0.787528 1.102539 1.039001 0.000000 0.000000 0.000000
0.801756 1.094993 1.010745 0.000000 0.000000 0.000000
0.784093 1.107854 1.033115 0.000000 0.000000 0.000000
0.853034 1.048941 1.010322 0.000000 0.000000 0.000000
0.841667 1.065441 1.006742 0.000000 0.000000 0.000000
0.793087 1.094678 1.015663 0.000000 0.000000 0.000000
0.830153 1.057630 1.028856 0.000000 0.000000 0.000000
0.854415 1.052512 1.001540 0.000000 0.000000 0.000000
0.839151 1.068434 1.002378 0.000000 0.000000 0.000000
0.850240 1.044360 1.018465 0.000000 0.000000 0.000000
0.833620 1.065051 1.017588 0.000000 0.000000 0.000000
0.838444 1.057518 0.994417 0.000000 0.000000 0.000000
0.839190 1.056010 1.019554 0.000000 0.000000 0.000000
0.826380 1.050725 1.022608 0.000000 0.000000 0.000000
0.851707 1.053144 1.006288 0.000000 0.000000 0.000000
0.786933 1.103823 1.035806 0.000000 0.000000 0.000000
0.816292 1.114093 1.009337 0.000000 0.000000 0.000000
0.839588 1.058691 1.012597 0.000000 0.000000 0.000000
0.839935 1.059618 1.011804 0.000000 0.000000 0.000000
0.854416 1.051594 1.008466 0.000000 0.000000 0.000000
0.819285 1.109137 1.013443 0.000000 0.000000 0.000000
0.856570 1.050879 1.003534 0.000000 0.000000 0.000000
0.838591 1.058295 0.997356 0.000000 0.000000 0.000000
0.801724 1.047740 0.999538 0.000000 0.000000 0.000000
0.823806 1.106402 1.016758 0.000000 0.000000 0.000000
0.848588 1.066537 1.005379 0.000000 0.000000 0.000000
0.805031 1.052730 1.003072 0.000000 0.000000 0.000000
0.853138 1.048241 1.002849 0.000000 0.000000 0.000000
0.841438 1.063488 0.998177 0.000000 0.000000 0.000000
0.837046 1.064448 0.997228 0.000000 0.000000 0.000000
0.813045 1.110402 1.009053 0.000000 0.000000 0.000000
0.826260 1.069636 1.003909 0.000000 0.000000 0.000000
0.859779 1.053637 1.001524 0.000000 0.000000 0.000000
0.854077 1.058213 1.003909 0.000000 0.000000 0.000000
0.801075 1.063659 1.003525 0.000000 0.000000 0.000000
0.789822 1.103919 1.038089 0.000000 0.000000 0.000000
0.800077 1.101291 1.024855 0.000000 0.000000 0.000000
0.841534 1.063104 1.004652 0.000000 0.000000 0.000000
0.824514 1.049808 1.037284 0.000000 0.000000 0.000000
0.815685 1.094139 0.999056 0.000000 0.000000 0.000000
0.819207 1.091375 1.000883 0.000000 0.000000 0.000000
0.819647 1.095671 1.009612 0.000000 0.000000 0.000000
0.802364 1.108482 1.000309 0.000000 0.000000 0.000000
0.812519 1.092152 1.004773 0.000000 0.000000 0.000000
0.837515 1.067987 1.001741 0.000000 0.000000 0.000000
0.773014 1.116581 1.031229 0.000000 0.000000 0.000000
0.804519 1.100012 1.001567 0.000000 0.000000 0.000000
0.844624 1.062662 1.009009 0.000000 0.000000 0.000000
0.808274 1.051999 1.017713 0.000000 0.000000 0.000000
0.795447 1.097370 1.023594 0.000000 0.000000 0.000000
0.803059 1.057977 1.007003 0.000000 0.000000 0.000000
0.805625 1.052447 1.015687 0.000000 0.000000 0.000000
0.805784 1.056464 1.013121 0.000000 0.000000 0.000000
0.837561 1.068112 1.004943 0.000000 0.000000 0.000000
0.836209 1.054236 0.996204 0.000000 0.000000 0.000000
0.801306 1.054754 0.999595 0.000000 0.000000 0.000000
0.802914 1.097377 1.022575 0.000000 0.000000 0.000000
0.831937 1.059908 1.038950 0.000000 0.000000 0.000000
0.813393 1.065259 1.005664 0.000000 0.000000 0.000000
0.848160 1.060649 1.006031 0.000000 0.000000 0.000000
0.851391 1.059530 1.006875 0.000000 0.000000 0.000000
0.839444 1.060893 1.000466 0.000000 0.000000 0.000000
0.843804 1.050645 0.998986 0.000000 0.000000 0.000000
0.814624 1.092286 1.005846 0.000000 0.000000 0.000000
0.799708 1.089547 1.013408 0.000000 0.000000 0.000000
0.804814 1.050278 1.036681 0.000000 0.000000 0.000000
0.794463 1.097855 1.007008 0.000000 0.000000 0.000000
0.815272 1.091909 1.003856 0.000000 0.000000 0.000000
0.814816 1.101736 1.012680 0.000000 0.000000 0.000000
0.808613 1.111346 1.004829 0.000000 0.000000 0.000000
0.840370 1.055241 0.999432 0.000000 0.000000 0.000000
0.808821 1.098861 1.013916 0.000000 0.000000 0.000000
0.838970 1.056775 0.997176 0.000000 0.000000 0.000000
0.797253 1.096425 1.017553 0.000000 0.000000 0.000000
0.845809 1.041002 1.009604 0.000000 0.000000 0.000000
0.807552 1.104608 1.008336 0.000000 0.000000 0.000000
0.793936 1.096918 1.019158 0.000000 0.000000 0.000000
0.793649 1.042794 1.007565 0.000000 0.000000 0.000000
0.810845 1.093207 1.009392 0.000000 0.000000 0.000000
0.835632 1.051381 1.001842 0.000000 0.000000 0.000000
0.813911 1.110257 1.007989 0.000000 0.000000 0.000000
0.807836 1.108352 1.007294 0.000000 0.000000 0.000000
0.803969 1.046860 1.021978 0.000000 0.000000 0.000000
0.800225 1.048695 1.030124 0.000000 0.000000 0.000000
0.816729 1.104682 1.010109 0.000000 0.000000 0.000000
0.810055 1.094129 1.010179 0.000000 0.000000 0.000000
0.802650 1.047879 1.033483 0.000000 0.000000 0.000000
0.788963 1.100856 1.036218 0.000000 0.000000 0.000000
0.775357 1.116617 1.034747 0.000000 0.000000 0.000000
0.785395 1.103335 1.036994 0.000000 0.000000 0.000000
0.841822 1.062321 1.000887 0.000000 0.000000 0.000000
0.776602 1.115249 1.034399 0.000000 0.000000 0.000000
0.812567 1.109007 1.008143 0.000000 0.000000 0.000000
0.806581 1.093638 1.011494 0.000000 0.000000 0.000000
0.799118 1.092831 1.006192 0.000000 0.000000 0.000000
0.805602 1.111287 1.000819 0.000000 0.000000 0.000000
0.814138 1.040672 1.031022 0.000000 0.000000 0.000000
0.802657 1.099097 1.025912 0.000000 0.000000 0.000000
0.828863 1.052725 1.027326 0.000000 0.000000 0.000000
0.815620 1.099891 1.019012 0.000000 0.000000 0.000000
0.813935 1.098839 1.006913 0.000000 0.000000 0.000000
0.812985 1.099057 1.014927 0.000000 0.000000 0.000000
0.800524 1.096928 1.018605 0.000000 0.000000 0.000000
0.841794 1.063460 1.009911 0.000000 0.000000 0.000000
0.819988 1.099630 1.015266 0.000000 0.000000 0.000000
0.806822 1.097737 1.018907 0.000000 0.000000 0.000000
0.836576 1.062440 0.996110 0.000000 0.000000 0.000000
0.808882 1.091515 1.009896 0.000000 0.000000 0.000000
0.818453 1.092241 1.001572 0.000000 0.000000 0.000000
0.822911 1.106547 1.016601 0.000000 0.000000 0.000000
0.823261 1.108755 1.016595 0.000000 0.000000 0.000000
0.807887 1.094899 1.009280 0.000000 0.000000 0.000000
0.812245 1.113754 1.008633 0.000000 0.000000 0.000000
0.833266 1.045482 0.999353 0.000000 0.000000 0.000000
0.835821 1.040405 0.998016 0.000000 0.000000 0.000000
0.835141 1.056647 0.996419 0.000000 0.000000 0.000000
0.820874 1.042117 1.021540 0.000000 0.000000 0.000000
0.833238 1.046989 0.996315 0.000000 0.000000 0.000000
0.831160 1.040172 1.014753 0.000000 0.000000 0.000000
0.767318 1.118608 1.028895 0.000000 0.000000 0.000000
0.822065 1.101320 1.014710 0.000000 0.000000 0.000000
0.821006 1.101611 1.019075 0.000000 0.000000 0.000000
0.819605 1.097512 1.014127 0.000000 0.000000 0.000000
0.817874 1.098637 1.020928 0.000000 0.000000 0.000000
0.824805 1.098427 1.018280 0.000000 0.000000 0.000000
0.826400 1.106775 1.019837 0.000000 0.000000 0.000000
0.821301 1.099592 1.013360 0.000000 0.000000 0.000000
0.820760 1.109209 1.018461 0.000000 0.000000 0.000000
0.821777 1.107750 1.016048 0.000000 0.000000 0.000000
0.823898 1.108659 1.016942 0.000000 0.000000 0.000000
