ply
format ascii 1.0
comment VCGLIB generated
obj_info Generated by SPFormer!
element vertex 629
property float x
property float y
property float z
property float nx
property float ny
property float nz
end_header
0.812246 1.060129 1.063328 0.000000 0.000000 0.000000
0.804474 1.049957 1.042741 0.000000 0.000000 0.000000
0.827752 1.039121 1.024201 0.000000 0.000000 0.000000
0.836853 1.034614 1.045759 0.000000 0.000000 0.000000
0.832473 1.033813 1.004051 0.000000 0.000000 0.000000
0.497278 1.225669 2.079283 0.000000 0.000000 0.000000
0.824619 1.056388 1.053647 0.000000 0.000000 0.000000
0.811903 1.060286 1.063208 0.000000 0.000000 0.000000
0.518108 1.221253 2.045124 0.000000 0.000000 0.000000
0.502455 1.205839 2.047042 0.000000 0.000000 0.000000
0.506713 1.215935 2.058750 0.000000 0.000000 0.000000
0.510433 1.208817 2.039105 0.000000 0.000000 0.000000
0.495499 1.213655 2.065818 0.000000 0.000000 0.000000
0.804609 1.045930 1.066464 0.000000 0.000000 0.000000
0.508178 1.204026 2.041276 0.000000 0.000000 0.000000
0.523313 1.205752 2.038919 0.000000 0.000000 0.000000
0.481878 1.189517 2.081340 0.000000 0.000000 0.000000
0.837267 1.023546 1.027186 0.000000 0.000000 0.000000
0.523373 1.217428 2.044607 0.000000 0.000000 0.000000
0.801210 1.065012 1.064871 0.000000 0.000000 0.000000
0.829280 1.034660 1.052103 0.000000 0.000000 0.000000
0.839519 1.038790 1.004142 0.000000 0.000000 0.000000
0.816553 1.056090 1.055634 0.000000 0.000000 0.000000
0.800528 1.066097 1.063610 0.000000 0.000000 0.000000
0.503924 1.206653 2.051494 0.000000 0.000000 0.000000
0.511253 1.221009 2.055206 0.000000 0.000000 0.000000
0.815626 1.045850 1.041126 0.000000 0.000000 0.000000
0.834147 1.037587 1.031319 0.000000 0.000000 0.000000
0.512760 1.208575 2.053809 0.000000 0.000000 0.000000
0.528461 1.213680 2.070242 0.000000 0.000000 0.000000
0.520210 1.204389 2.041189 0.000000 0.000000 0.000000
0.507985 1.206037 2.055225 0.000000 0.000000 0.000000
0.824385 1.039823 1.052337 0.000000 0.000000 0.000000
0.815388 1.038347 1.020668 0.000000 0.000000 0.000000
0.502757 1.213580 2.056457 0.000000 0.000000 0.000000
0.513058 1.213486 2.046117 0.000000 0.000000 0.000000
0.506147 1.206367 2.044799 0.000000 0.000000 0.000000
0.809548 1.040929 1.046690 0.000000 0.000000 0.000000
0.530348 1.204531 2.044270 0.000000 0.000000 0.000000
0.514758 1.200438 2.034889 0.000000 0.000000 0.000000
0.482052 1.177107 2.081741 0.000000 0.000000 0.000000
0.507163 1.204331 2.046866 0.000000 0.000000 0.000000
0.483354 1.176811 2.080823 0.000000 0.000000 0.000000
0.481481 1.184221 2.082142 0.000000 0.000000 0.000000
0.801359 1.048157 1.076758 0.000000 0.000000 0.000000
0.514894 1.215807 2.048647 0.000000 0.000000 0.000000
0.834134 1.030367 1.040722 0.000000 0.000000 0.000000
0.504816 1.207912 2.053405 0.000000 0.000000 0.000000
0.477096 1.184218 2.082156 0.000000 0.000000 0.000000
0.817636 1.051685 1.050980 0.000000 0.000000 0.000000
0.502987 1.207611 2.060643 0.000000 0.000000 0.000000
0.479648 1.186854 2.079175 0.000000 0.000000 0.000000
0.478372 1.175853 2.083361 0.000000 0.000000 0.000000
0.503168 1.205468 2.041636 0.000000 0.000000 0.000000
0.510077 1.208989 2.050536 0.000000 0.000000 0.000000
0.508768 1.199615 2.037837 0.000000 0.000000 0.000000
0.515859 1.214761 2.049827 0.000000 0.000000 0.000000
0.825336 1.039587 1.043657 0.000000 0.000000 0.000000
0.819761 1.050091 1.050369 0.000000 0.000000 0.000000
0.498319 1.211682 2.062900 0.000000 0.000000 0.000000
0.481651 1.175290 2.083171 0.000000 0.000000 0.000000
0.485016 1.172712 2.081336 0.000000 0.000000 0.000000
0.516536 1.203026 2.043797 0.000000 0.000000 0.000000
0.807244 1.048440 1.066597 0.000000 0.000000 0.000000
0.813177 1.046813 1.054260 0.000000 0.000000 0.000000
0.816594 1.049923 1.040277 0.000000 0.000000 0.000000
0.807220 1.062001 1.063242 0.000000 0.000000 0.000000
0.481527 1.178029 2.081606 0.000000 0.000000 0.000000
0.479719 1.169255 2.080543 0.000000 0.000000 0.000000
0.481152 1.188467 2.082021 0.000000 0.000000 0.000000
0.835439 1.019415 1.030410 0.000000 0.000000 0.000000
0.814997 1.059534 1.058471 0.000000 0.000000 0.000000
0.824611 1.059714 1.060992 0.000000 0.000000 0.000000
0.822389 1.049816 1.052579 0.000000 0.000000 0.000000
0.525328 1.194063 2.038645 0.000000 0.000000 0.000000
0.477488 1.180998 2.082193 0.000000 0.000000 0.000000
0.511575 1.205111 2.045290 0.000000 0.000000 0.000000
0.517959 1.201211 2.037520 0.000000 0.000000 0.000000
0.521510 1.204074 2.036152 0.000000 0.000000 0.000000
0.501455 1.205083 2.047584 0.000000 0.000000 0.000000
0.496857 1.213402 2.064136 0.000000 0.000000 0.000000
0.489004 1.209233 2.064954 0.000000 0.000000 0.000000
0.502728 1.211803 2.060470 0.000000 0.000000 0.000000
0.826328 1.060689 1.049072 0.000000 0.000000 0.000000
0.802891 1.053139 1.072764 0.000000 0.000000 0.000000
0.836155 1.023892 1.029454 0.000000 0.000000 0.000000
0.811135 1.071004 1.078998 0.000000 0.000000 0.000000
0.479486 1.190529 2.075508 0.000000 0.000000 0.000000
0.480234 1.188417 2.077345 0.000000 0.000000 0.000000
0.479768 1.181884 2.079738 0.000000 0.000000 0.000000
0.511837 1.205296 2.046275 0.000000 0.000000 0.000000
0.806155 1.055066 1.045431 0.000000 0.000000 0.000000
0.833377 1.034107 1.009406 0.000000 0.000000 0.000000
0.507947 1.202366 2.042062 0.000000 0.000000 0.000000
0.503295 1.207799 2.050725 0.000000 0.000000 0.000000
0.832900 1.022845 1.036448 0.000000 0.000000 0.000000
0.829730 1.035905 1.043777 0.000000 0.000000 0.000000
0.478867 1.168697 2.082288 0.000000 0.000000 0.000000
0.500898 1.208723 2.057758 0.000000 0.000000 0.000000
0.497549 1.215531 2.066607 0.000000 0.000000 0.000000
0.478119 1.184843 2.080370 0.000000 0.000000 0.000000
0.826295 1.036366 1.018981 0.000000 0.000000 0.000000
0.826187 1.038174 1.043886 0.000000 0.000000 0.000000
0.825756 1.054160 1.051295 0.000000 0.000000 0.000000
0.479627 1.165766 2.086141 0.000000 0.000000 0.000000
0.811711 1.049401 1.068709 0.000000 0.000000 0.000000
0.804852 1.067941 1.064677 0.000000 0.000000 0.000000
0.835013 1.009166 1.006165 0.000000 0.000000 0.000000
0.494958 1.213026 2.066910 0.000000 0.000000 0.000000
0.829679 1.033589 1.034611 0.000000 0.000000 0.000000
0.496326 1.210868 2.061899 0.000000 0.000000 0.000000
0.523036 1.212051 2.041868 0.000000 0.000000 0.000000
0.836187 1.023943 1.035007 0.000000 0.000000 0.000000
0.828017 1.051792 1.045945 0.000000 0.000000 0.000000
0.833839 1.007270 1.009320 0.000000 0.000000 0.000000
0.809410 1.040585 1.041244 0.000000 0.000000 0.000000
0.825126 1.033601 1.025312 0.000000 0.000000 0.000000
0.806476 1.049885 1.041029 0.000000 0.000000 0.000000
0.813818 1.050702 1.058558 0.000000 0.000000 0.000000
0.813346 1.044313 1.051346 0.000000 0.000000 0.000000
0.815638 1.056497 1.059684 0.000000 0.000000 0.000000
0.481077 1.192469 2.080572 0.000000 0.000000 0.000000
0.805132 1.053924 1.053890 0.000000 0.000000 0.000000
0.832742 1.039379 1.014750 0.000000 0.000000 0.000000
0.812335 1.043706 1.044148 0.000000 0.000000 0.000000
0.827741 1.035609 1.011536 0.000000 0.000000 0.000000
0.827486 1.037979 1.046407 0.000000 0.000000 0.000000
0.504722 1.198123 2.042181 0.000000 0.000000 0.000000
0.835327 1.030802 1.014823 0.000000 0.000000 0.000000
0.834703 1.018660 1.027503 0.000000 0.000000 0.000000
0.521945 1.202116 2.040876 0.000000 0.000000 0.000000
0.512648 1.210301 2.045128 0.000000 0.000000 0.000000
0.807280 1.061930 1.068022 0.000000 0.000000 0.000000
0.819384 1.054954 1.050781 0.000000 0.000000 0.000000
0.803214 1.047198 1.063692 0.000000 0.000000 0.000000
0.826763 1.026975 1.001163 0.000000 0.000000 0.000000
0.808986 1.039349 1.018748 0.000000 0.000000 0.000000
0.819360 1.034280 1.017866 0.000000 0.000000 0.000000
0.825075 1.055779 1.050887 0.000000 0.000000 0.000000
0.503722 1.210576 2.043255 0.000000 0.000000 0.000000
0.480497 1.178341 2.081978 0.000000 0.000000 0.000000
0.831271 1.031342 1.003836 0.000000 0.000000 0.000000
0.839991 1.013561 1.004440 0.000000 0.000000 0.000000
0.520110 1.201851 2.043890 0.000000 0.000000 0.000000
0.498417 1.211255 2.061500 0.000000 0.000000 0.000000
0.515981 1.209587 2.046525 0.000000 0.000000 0.000000
0.509183 1.212790 2.053249 0.000000 0.000000 0.000000
0.833314 1.037199 1.000684 0.000000 0.000000 0.000000
0.801796 1.043721 1.078625 0.000000 0.000000 0.000000
0.512666 1.210211 2.038575 0.000000 0.000000 0.000000
0.839505 1.039175 1.002904 0.000000 0.000000 0.000000
0.493145 1.211297 2.065732 0.000000 0.000000 0.000000
0.500587 1.209281 2.060317 0.000000 0.000000 0.000000
0.494835 1.213325 2.067653 0.000000 0.000000 0.000000
0.831158 1.014724 1.027368 0.000000 0.000000 0.000000
0.832210 1.033405 1.003215 0.000000 0.000000 0.000000
0.498932 1.210847 2.060086 0.000000 0.000000 0.000000
0.803181 1.051743 1.060904 0.000000 0.000000 0.000000
0.835676 1.021380 1.015608 0.000000 0.000000 0.000000
0.825180 1.035868 1.012480 0.000000 0.000000 0.000000
0.510384 1.205815 2.049275 0.000000 0.000000 0.000000
0.831042 1.034868 1.050188 0.000000 0.000000 0.000000
0.839432 1.011811 1.012277 0.000000 0.000000 0.000000
0.800168 1.053694 1.063429 0.000000 0.000000 0.000000
0.835539 1.027504 1.032725 0.000000 0.000000 0.000000
0.498613 1.206961 2.047643 0.000000 0.000000 0.000000
0.833249 1.032042 1.001296 0.000000 0.000000 0.000000
0.833264 1.018362 1.014439 0.000000 0.000000 0.000000
0.831642 1.034825 1.047809 0.000000 0.000000 0.000000
0.837065 1.017288 1.031387 0.000000 0.000000 0.000000
0.810591 1.047189 1.054594 0.000000 0.000000 0.000000
0.477968 1.185897 2.079710 0.000000 0.000000 0.000000
0.499987 1.211437 2.060959 0.000000 0.000000 0.000000
0.479126 1.184886 2.083553 0.000000 0.000000 0.000000
0.498737 1.210771 2.055965 0.000000 0.000000 0.000000
0.480738 1.189277 2.079551 0.000000 0.000000 0.000000
0.800852 1.033325 1.067672 0.000000 0.000000 0.000000
0.835250 1.013294 1.004637 0.000000 0.000000 0.000000
0.838128 1.015878 1.024078 0.000000 0.000000 0.000000
0.820409 1.056957 1.050570 0.000000 0.000000 0.000000
0.834427 1.038911 1.049841 0.000000 0.000000 0.000000
0.827424 1.045818 1.054992 0.000000 0.000000 0.000000
0.519689 1.212349 2.040967 0.000000 0.000000 0.000000
0.518410 1.216233 2.037386 0.000000 0.000000 0.000000
0.497127 1.216323 2.069417 0.000000 0.000000 0.000000
0.838844 1.007501 1.006694 0.000000 0.000000 0.000000
0.834751 1.009864 1.014673 0.000000 0.000000 0.000000
0.475469 1.182634 2.079891 0.000000 0.000000 0.000000
0.497894 1.208032 2.057273 0.000000 0.000000 0.000000
0.494764 1.213859 2.062609 0.000000 0.000000 0.000000
0.838024 1.020185 1.031382 0.000000 0.000000 0.000000
0.492950 1.212765 2.069722 0.000000 0.000000 0.000000
0.808096 1.047659 1.056653 0.000000 0.000000 0.000000
0.839269 1.015102 1.018090 0.000000 0.000000 0.000000
0.838397 1.012833 1.017318 0.000000 0.000000 0.000000
0.492213 1.209240 2.066646 0.000000 0.000000 0.000000
0.802232 1.075788 1.079932 0.000000 0.000000 0.000000
0.477915 1.187083 2.080122 0.000000 0.000000 0.000000
0.826587 1.049823 1.056102 0.000000 0.000000 0.000000
0.480495 1.176113 2.076250 0.000000 0.000000 0.000000
0.815011 1.065747 1.064643 0.000000 0.000000 0.000000
0.806856 1.038005 1.046485 0.000000 0.000000 0.000000
0.815677 1.068226 1.066169 0.000000 0.000000 0.000000
0.827545 1.067764 1.055838 0.000000 0.000000 0.000000
0.812572 1.066686 1.069967 0.000000 0.000000 0.000000
0.480252 1.163586 2.086669 0.000000 0.000000 0.000000
0.481943 1.180167 2.081044 0.000000 0.000000 0.000000
0.830737 1.005415 1.007841 0.000000 0.000000 0.000000
0.810263 1.039693 1.058708 0.000000 0.000000 0.000000
0.802916 1.048752 1.069297 0.000000 0.000000 0.000000
0.834963 1.018456 1.030158 0.000000 0.000000 0.000000
0.520867 1.202591 2.043728 0.000000 0.000000 0.000000
0.478305 1.160009 2.085474 0.000000 0.000000 0.000000
0.484441 1.189712 2.078804 0.000000 0.000000 0.000000
0.835779 1.019543 1.002468 0.000000 0.000000 0.000000
0.513036 1.210891 2.048372 0.000000 0.000000 0.000000
0.839281 1.012069 1.014786 0.000000 0.000000 0.000000
0.517338 1.209000 2.045909 0.000000 0.000000 0.000000
0.805990 1.042184 1.062773 0.000000 0.000000 0.000000
0.833220 1.040670 1.054808 0.000000 0.000000 0.000000
0.513349 1.206647 2.048620 0.000000 0.000000 0.000000
0.838318 1.016702 1.010957 0.000000 0.000000 0.000000
0.838052 1.010524 1.001922 0.000000 0.000000 0.000000
0.828339 1.027071 1.001378 0.000000 0.000000 0.000000
0.477115 1.188195 2.078351 0.000000 0.000000 0.000000
0.813037 1.062429 1.053767 0.000000 0.000000 0.000000
0.482178 1.217474 2.079569 0.000000 0.000000 0.000000
0.481203 1.181112 2.083424 0.000000 0.000000 0.000000
0.832305 1.003312 1.004309 0.000000 0.000000 0.000000
0.801024 1.049846 1.077722 0.000000 0.000000 0.000000
0.480196 1.175319 2.081948 0.000000 0.000000 0.000000
0.808260 1.038516 1.071224 0.000000 0.000000 0.000000
0.834742 1.032639 1.041798 0.000000 0.000000 0.000000
0.816551 1.034346 1.037787 0.000000 0.000000 0.000000
0.829868 1.038758 1.056634 0.000000 0.000000 0.000000
0.818522 1.031628 1.026660 0.000000 0.000000 0.000000
0.808906 1.036278 1.051489 0.000000 0.000000 0.000000
0.476172 1.169539 2.081055 0.000000 0.000000 0.000000
0.480984 1.195985 2.078440 0.000000 0.000000 0.000000
0.834757 1.009078 1.012250 0.000000 0.000000 0.000000
0.833220 1.030655 1.047869 0.000000 0.000000 0.000000
0.839451 1.024127 1.014436 0.000000 0.000000 0.000000
0.478556 1.190292 2.080940 0.000000 0.000000 0.000000
0.836994 1.025525 1.042244 0.000000 0.000000 0.000000
0.826033 1.057400 1.045147 0.000000 0.000000 0.000000
0.811412 1.067755 1.076248 0.000000 0.000000 0.000000
0.835989 1.021873 1.035087 0.000000 0.000000 0.000000
0.836830 1.036080 1.024324 0.000000 0.000000 0.000000
0.830608 1.044836 1.054681 0.000000 0.000000 0.000000
0.837662 1.035482 1.006405 0.000000 0.000000 0.000000
0.816366 1.034251 1.024585 0.000000 0.000000 0.000000
0.479920 1.189718 2.079012 0.000000 0.000000 0.000000
0.478648 1.177148 2.083374 0.000000 0.000000 0.000000
0.482390 1.233671 2.079834 0.000000 0.000000 0.000000
0.812032 1.038098 1.037346 0.000000 0.000000 0.000000
0.815324 1.037321 1.049647 0.000000 0.000000 0.000000
0.813384 1.032529 1.037817 0.000000 0.000000 0.000000
0.831426 1.010664 1.016888 0.000000 0.000000 0.000000
0.480477 1.186991 2.077185 0.000000 0.000000 0.000000
0.514783 1.210833 2.040802 0.000000 0.000000 0.000000
0.494089 1.212144 2.069489 0.000000 0.000000 0.000000
0.477831 1.185415 2.081004 0.000000 0.000000 0.000000
0.835046 1.022171 1.033742 0.000000 0.000000 0.000000
0.510502 1.202797 2.038663 0.000000 0.000000 0.000000
0.804584 1.058079 1.063144 0.000000 0.000000 0.000000
0.506955 1.211076 2.052444 0.000000 0.000000 0.000000
0.477687 1.185969 2.078593 0.000000 0.000000 0.000000
0.827763 1.031042 1.043843 0.000000 0.000000 0.000000
0.478851 1.184257 2.077838 0.000000 0.000000 0.000000
0.833413 1.023748 1.016508 0.000000 0.000000 0.000000
0.836879 1.012648 1.002769 0.000000 0.000000 0.000000
0.832900 1.012124 1.020600 0.000000 0.000000 0.000000
0.802690 1.060144 1.056497 0.000000 0.000000 0.000000
0.831788 1.046021 1.052014 0.000000 0.000000 0.000000
0.801695 1.049988 1.074615 0.000000 0.000000 0.000000
0.480526 1.191517 2.083431 0.000000 0.000000 0.000000
0.832639 1.017093 1.026718 0.000000 0.000000 0.000000
0.485585 1.206568 2.068603 0.000000 0.000000 0.000000
0.509191 1.207462 2.040798 0.000000 0.000000 0.000000
0.506395 1.205882 2.039719 0.000000 0.000000 0.000000
0.839950 1.009648 1.012434 0.000000 0.000000 0.000000
0.475340 1.183299 2.079970 0.000000 0.000000 0.000000
0.835071 1.025096 1.032901 0.000000 0.000000 0.000000
0.515782 1.203287 2.037588 0.000000 0.000000 0.000000
0.482076 1.187606 2.081317 0.000000 0.000000 0.000000
0.821292 1.034491 1.037973 0.000000 0.000000 0.000000
0.836630 1.021878 1.027861 0.000000 0.000000 0.000000
0.834451 1.021318 1.032324 0.000000 0.000000 0.000000
0.507494 1.207313 2.047387 0.000000 0.000000 0.000000
0.829593 1.033540 1.039370 0.000000 0.000000 0.000000
0.833156 1.027514 1.014751 0.000000 0.000000 0.000000
0.502927 1.203112 2.043142 0.000000 0.000000 0.000000
0.832052 1.032611 1.040668 0.000000 0.000000 0.000000
0.831837 1.055227 1.042908 0.000000 0.000000 0.000000
0.839515 1.031049 1.039540 0.000000 0.000000 0.000000
0.837864 1.015775 1.023329 0.000000 0.000000 0.000000
0.804668 1.038183 1.064175 0.000000 0.000000 0.000000
0.837243 1.024101 1.034976 0.000000 0.000000 0.000000
0.832668 1.036192 1.031476 0.000000 0.000000 0.000000
0.826385 1.049796 1.050844 0.000000 0.000000 0.000000
0.833938 1.035137 1.048759 0.000000 0.000000 0.000000
0.822372 1.053457 1.048011 0.000000 0.000000 0.000000
0.831791 1.046940 1.046906 0.000000 0.000000 0.000000
0.838960 1.032434 1.035594 0.000000 0.000000 0.000000
0.829612 1.058039 1.040807 0.000000 0.000000 0.000000
0.808409 1.041639 1.061293 0.000000 0.000000 0.000000
0.808663 1.073608 1.076491 0.000000 0.000000 0.000000
0.480060 1.165448 2.084123 0.000000 0.000000 0.000000
0.479687 1.170253 2.083353 0.000000 0.000000 0.000000
0.480023 1.190777 2.081359 0.000000 0.000000 0.000000
0.832212 1.046290 1.059771 0.000000 0.000000 0.000000
0.510330 1.203847 2.038095 0.000000 0.000000 0.000000
0.839370 1.026633 1.035843 0.000000 0.000000 0.000000
0.835369 1.024549 1.036966 0.000000 0.000000 0.000000
0.831191 1.037368 1.050946 0.000000 0.000000 0.000000
0.833262 1.011132 1.013279 0.000000 0.000000 0.000000
0.839137 1.022349 1.028839 0.000000 0.000000 0.000000
0.836239 1.026787 1.039263 0.000000 0.000000 0.000000
0.833894 1.030908 1.031173 0.000000 0.000000 0.000000
0.827634 1.040840 1.051478 0.000000 0.000000 0.000000
0.835681 1.029372 1.043778 0.000000 0.000000 0.000000
0.834749 1.019194 1.028497 0.000000 0.000000 0.000000
0.838418 1.023433 1.036096 0.000000 0.000000 0.000000
0.832862 1.039248 1.051857 0.000000 0.000000 0.000000
0.819101 1.055885 1.062053 0.000000 0.000000 0.000000
0.482505 1.189979 2.078475 0.000000 0.000000 0.000000
0.800712 1.043205 1.062794 0.000000 0.000000 0.000000
0.828494 1.038753 1.048718 0.000000 0.000000 0.000000
0.827398 1.043808 1.057205 0.000000 0.000000 0.000000
0.830803 1.045238 1.045572 0.000000 0.000000 0.000000
0.821128 1.047767 1.054676 0.000000 0.000000 0.000000
0.816279 1.032593 1.025760 0.000000 0.000000 0.000000
0.833824 1.039381 1.042683 0.000000 0.000000 0.000000
0.831562 1.042912 1.047512 0.000000 0.000000 0.000000
0.825638 1.047739 1.050566 0.000000 0.000000 0.000000
0.509275 1.213318 2.051945 0.000000 0.000000 0.000000
0.823669 1.048738 1.060327 0.000000 0.000000 0.000000
0.819655 1.060020 1.063916 0.000000 0.000000 0.000000
0.828321 1.048358 1.057902 0.000000 0.000000 0.000000
0.832845 1.044798 1.047455 0.000000 0.000000 0.000000
0.802648 1.068093 1.072346 0.000000 0.000000 0.000000
0.522370 1.196706 2.042425 0.000000 0.000000 0.000000
0.824540 1.055716 1.068079 0.000000 0.000000 0.000000
0.801939 1.062176 1.071557 0.000000 0.000000 0.000000
0.813236 1.060588 1.075830 0.000000 0.000000 0.000000
0.804306 1.037783 1.078993 0.000000 0.000000 0.000000
0.521418 1.198242 2.034813 0.000000 0.000000 0.000000
0.832156 1.033583 1.054291 0.000000 0.000000 0.000000
0.802684 1.040913 1.053637 0.000000 0.000000 0.000000
0.816846 1.039519 1.006544 0.000000 0.000000 0.000000
0.814559 1.040389 1.060334 0.000000 0.000000 0.000000
0.815443 1.033640 1.026524 0.000000 0.000000 0.000000
0.807357 1.045671 1.067043 0.000000 0.000000 0.000000
0.805518 1.040325 1.073120 0.000000 0.000000 0.000000
0.805454 1.053838 1.048297 0.000000 0.000000 0.000000
0.810568 1.053709 1.050310 0.000000 0.000000 0.000000
0.505505 1.216527 2.056896 0.000000 0.000000 0.000000
0.479871 1.168256 2.083939 0.000000 0.000000 0.000000
0.828812 1.033044 1.037567 0.000000 0.000000 0.000000
0.827761 1.019762 1.014536 0.000000 0.000000 0.000000
0.509946 1.215353 2.054433 0.000000 0.000000 0.000000
0.811268 1.054739 1.043817 0.000000 0.000000 0.000000
0.832195 1.034337 1.036297 0.000000 0.000000 0.000000
0.499738 1.207201 2.049987 0.000000 0.000000 0.000000
0.504513 1.213232 2.056184 0.000000 0.000000 0.000000
0.810373 1.056661 1.071877 0.000000 0.000000 0.000000
0.811762 1.071252 1.071517 0.000000 0.000000 0.000000
0.829628 1.029241 1.018221 0.000000 0.000000 0.000000
0.809095 1.068163 1.072653 0.000000 0.000000 0.000000
0.512365 1.216033 2.053151 0.000000 0.000000 0.000000
0.802453 1.055808 1.052681 0.000000 0.000000 0.000000
0.832457 1.025604 1.023361 0.000000 0.000000 0.000000
0.497673 1.209929 2.062613 0.000000 0.000000 0.000000
0.832245 1.024745 1.000652 0.000000 0.000000 0.000000
0.506932 1.215659 2.057785 0.000000 0.000000 0.000000
0.806502 1.065822 1.076542 0.000000 0.000000 0.000000
0.507133 1.208157 2.057986 0.000000 0.000000 0.000000
0.498635 1.209822 2.056310 0.000000 0.000000 0.000000
0.503921 1.212611 2.056584 0.000000 0.000000 0.000000
0.497288 1.210122 2.062682 0.000000 0.000000 0.000000
0.480040 1.193635 2.082653 0.000000 0.000000 0.000000
0.481758 1.163023 2.082769 0.000000 0.000000 0.000000
0.502021 1.214575 2.063049 0.000000 0.000000 0.000000
0.830167 1.006718 1.008774 0.000000 0.000000 0.000000
0.801836 1.045686 1.076352 0.000000 0.000000 0.000000
0.825774 1.032802 1.008692 0.000000 0.000000 0.000000
0.818579 1.035952 1.043771 0.000000 0.000000 0.000000
0.820878 1.030498 1.019807 0.000000 0.000000 0.000000
0.803860 1.039674 1.067954 0.000000 0.000000 0.000000
0.487035 1.180780 2.083491 0.000000 0.000000 0.000000
0.479508 1.183115 2.084310 0.000000 0.000000 0.000000
0.818089 1.037525 1.027110 0.000000 0.000000 0.000000
0.831077 1.037227 1.048878 0.000000 0.000000 0.000000
0.478832 1.186751 2.081220 0.000000 0.000000 0.000000
0.478329 1.168476 2.084208 0.000000 0.000000 0.000000
0.478312 1.168677 2.083640 0.000000 0.000000 0.000000
0.478538 1.176319 2.085107 0.000000 0.000000 0.000000
0.480143 1.175556 2.084615 0.000000 0.000000 0.000000
0.829770 1.040349 1.048300 0.000000 0.000000 0.000000
0.802690 1.049338 1.060937 0.000000 0.000000 0.000000
0.819430 1.046497 1.052083 0.000000 0.000000 0.000000
0.478043 1.188602 2.077333 0.000000 0.000000 0.000000
0.479965 1.173750 2.076326 0.000000 0.000000 0.000000
0.477267 1.187982 2.081795 0.000000 0.000000 0.000000
0.479835 1.190909 2.079846 0.000000 0.000000 0.000000
0.481063 1.180869 2.075349 0.000000 0.000000 0.000000
0.479194 1.185800 2.082059 0.000000 0.000000 0.000000
0.811287 1.033506 1.037273 0.000000 0.000000 0.000000
0.823494 1.035044 1.013238 0.000000 0.000000 0.000000
0.810004 1.036749 1.058052 0.000000 0.000000 0.000000
0.820773 1.028820 1.006630 0.000000 0.000000 0.000000
0.803555 1.040633 1.074835 0.000000 0.000000 0.000000
0.478065 1.181922 2.079764 0.000000 0.000000 0.000000
0.480466 1.186762 2.077121 0.000000 0.000000 0.000000
0.477984 1.183348 2.077891 0.000000 0.000000 0.000000
0.820991 1.036353 1.006070 0.000000 0.000000 0.000000
0.803396 1.040881 1.078379 0.000000 0.000000 0.000000
0.513498 1.216314 2.050052 0.000000 0.000000 0.000000
0.514079 1.200687 2.040038 0.000000 0.000000 0.000000
0.835732 1.015690 1.023011 0.000000 0.000000 0.000000
0.833703 1.015240 1.026634 0.000000 0.000000 0.000000
0.838253 1.017508 1.019732 0.000000 0.000000 0.000000
0.829554 1.014543 1.022235 0.000000 0.000000 0.000000
0.502458 1.209023 2.050807 0.000000 0.000000 0.000000
0.479718 1.175959 2.085743 0.000000 0.000000 0.000000
0.828331 1.039630 1.061653 0.000000 0.000000 0.000000
0.835131 1.022150 1.030292 0.000000 0.000000 0.000000
0.834073 1.024500 1.039387 0.000000 0.000000 0.000000
0.836496 1.012980 1.022720 0.000000 0.000000 0.000000
0.835530 1.021559 1.028690 0.000000 0.000000 0.000000
0.835819 1.017560 1.027467 0.000000 0.000000 0.000000
0.831920 1.037618 1.050946 0.000000 0.000000 0.000000
0.479526 1.171687 2.080062 0.000000 0.000000 0.000000
0.478404 1.195758 2.080258 0.000000 0.000000 0.000000
0.477185 1.185710 2.076875 0.000000 0.000000 0.000000
0.807484 1.039978 1.070286 0.000000 0.000000 0.000000
0.803362 1.070859 1.077452 0.000000 0.000000 0.000000
0.810531 1.038261 1.065674 0.000000 0.000000 0.000000
0.810632 1.040266 1.067186 0.000000 0.000000 0.000000
0.805801 1.037988 1.060009 0.000000 0.000000 0.000000
0.802050 1.031680 1.057598 0.000000 0.000000 0.000000
0.821723 1.051872 1.041168 0.000000 0.000000 0.000000
0.830098 1.052886 1.055044 0.000000 0.000000 0.000000
0.803747 1.038231 1.061434 0.000000 0.000000 0.000000
0.821727 1.059956 1.052029 0.000000 0.000000 0.000000
0.824574 1.055347 1.040754 0.000000 0.000000 0.000000
0.825808 1.056277 1.054154 0.000000 0.000000 0.000000
0.804273 1.031166 1.046859 0.000000 0.000000 0.000000
0.810370 1.034599 1.037201 0.000000 0.000000 0.000000
0.836929 1.017930 1.029506 0.000000 0.000000 0.000000
0.477384 1.183825 2.078748 0.000000 0.000000 0.000000
0.833650 1.020459 1.028669 0.000000 0.000000 0.000000
0.824890 1.045206 1.064365 0.000000 0.000000 0.000000
0.820597 1.029085 1.007797 0.000000 0.000000 0.000000
0.820426 1.045191 1.060146 0.000000 0.000000 0.000000
0.810095 1.036136 1.038412 0.000000 0.000000 0.000000
0.837711 1.008625 1.008633 0.000000 0.000000 0.000000
0.831464 1.010877 1.020387 0.000000 0.000000 0.000000
0.836692 1.010676 1.016177 0.000000 0.000000 0.000000
0.812369 1.034631 1.047931 0.000000 0.000000 0.000000
0.486946 1.237680 2.078718 0.000000 0.000000 0.000000
0.515997 1.220165 2.050032 0.000000 0.000000 0.000000
0.812580 1.052948 1.042368 0.000000 0.000000 0.000000
0.491310 1.238246 2.079347 0.000000 0.000000 0.000000
0.489841 1.238168 2.078999 0.000000 0.000000 0.000000
0.802900 1.052813 1.045843 0.000000 0.000000 0.000000
0.806169 1.054824 1.045255 0.000000 0.000000 0.000000
0.805728 1.052361 1.044127 0.000000 0.000000 0.000000
0.805640 1.063314 1.057158 0.000000 0.000000 0.000000
0.803773 1.053549 1.053964 0.000000 0.000000 0.000000
0.813627 1.054159 1.049319 0.000000 0.000000 0.000000
0.517486 1.206085 2.037368 0.000000 0.000000 0.000000
0.833456 1.022734 1.039302 0.000000 0.000000 0.000000
0.835169 1.033915 1.006922 0.000000 0.000000 0.000000
0.482899 1.177170 2.079036 0.000000 0.000000 0.000000
0.486685 1.231562 2.078948 0.000000 0.000000 0.000000
0.814360 1.063286 1.056962 0.000000 0.000000 0.000000
0.806627 1.053979 1.043374 0.000000 0.000000 0.000000
0.805553 1.056716 1.049991 0.000000 0.000000 0.000000
0.812261 1.074636 1.073849 0.000000 0.000000 0.000000
0.816354 1.066122 1.068254 0.000000 0.000000 0.000000
0.831627 1.005847 1.010571 0.000000 0.000000 0.000000
0.481392 1.216125 2.076561 0.000000 0.000000 0.000000
0.807037 1.045708 1.074207 0.000000 0.000000 0.000000
0.810722 1.043815 1.068979 0.000000 0.000000 0.000000
0.812054 1.044341 1.053080 0.000000 0.000000 0.000000
0.491937 1.217333 2.076607 0.000000 0.000000 0.000000
0.829589 1.046921 1.041686 0.000000 0.000000 0.000000
0.837631 1.014271 1.021494 0.000000 0.000000 0.000000
0.833882 1.018937 1.022810 0.000000 0.000000 0.000000
0.839126 1.015730 1.010725 0.000000 0.000000 0.000000
0.838091 1.020066 1.029421 0.000000 0.000000 0.000000
0.809777 1.058760 1.052700 0.000000 0.000000 0.000000
0.834049 1.023700 1.012990 0.000000 0.000000 0.000000
0.818211 1.031344 1.021979 0.000000 0.000000 0.000000
0.834015 1.026548 1.022436 0.000000 0.000000 0.000000
0.838732 1.015148 1.020986 0.000000 0.000000 0.000000
0.813921 1.056459 1.040806 0.000000 0.000000 0.000000
0.837048 1.026131 1.000732 0.000000 0.000000 0.000000
0.823448 1.034214 1.000767 0.000000 0.000000 0.000000
0.829264 1.020782 1.002936 0.000000 0.000000 0.000000
0.509230 1.203104 2.039922 0.000000 0.000000 0.000000
0.504458 1.206607 2.045861 0.000000 0.000000 0.000000
0.509744 1.201575 2.044510 0.000000 0.000000 0.000000
0.517095 1.204357 2.047357 0.000000 0.000000 0.000000
0.502005 1.202932 2.043473 0.000000 0.000000 0.000000
0.517289 1.211886 2.046959 0.000000 0.000000 0.000000
0.495369 1.212751 2.063480 0.000000 0.000000 0.000000
0.514616 1.213021 2.043498 0.000000 0.000000 0.000000
0.493618 1.209373 2.059563 0.000000 0.000000 0.000000
0.836954 1.026171 1.038254 0.000000 0.000000 0.000000
0.806567 1.059077 1.047318 0.000000 0.000000 0.000000
0.485809 1.217281 2.076601 0.000000 0.000000 0.000000
0.500467 1.207689 2.053806 0.000000 0.000000 0.000000
0.816575 1.033646 1.032552 0.000000 0.000000 0.000000
0.478462 1.172009 2.085696 0.000000 0.000000 0.000000
0.812566 1.072390 1.072197 0.000000 0.000000 0.000000
0.492063 1.214878 2.074993 0.000000 0.000000 0.000000
0.806843 1.039790 1.075246 0.000000 0.000000 0.000000
0.478633 1.171321 2.087091 0.000000 0.000000 0.000000
0.806930 1.073846 1.070502 0.000000 0.000000 0.000000
0.482067 1.205402 2.072582 0.000000 0.000000 0.000000
0.480804 1.201487 2.077857 0.000000 0.000000 0.000000
0.483912 1.190921 2.084177 0.000000 0.000000 0.000000
0.479559 1.182799 2.074100 0.000000 0.000000 0.000000
0.481804 1.186299 2.077758 0.000000 0.000000 0.000000
0.477098 1.181876 2.077584 0.000000 0.000000 0.000000
0.825626 1.038983 1.062547 0.000000 0.000000 0.000000
0.839865 1.018352 1.013805 0.000000 0.000000 0.000000
0.832189 1.035674 1.044112 0.000000 0.000000 0.000000
0.482999 1.193002 2.074669 0.000000 0.000000 0.000000
0.502724 1.211945 2.062193 0.000000 0.000000 0.000000
0.825620 1.031619 1.008950 0.000000 0.000000 0.000000
0.840239 1.028547 1.041123 0.000000 0.000000 0.000000
0.482117 1.188393 2.076940 0.000000 0.000000 0.000000
0.515884 1.202222 2.041796 0.000000 0.000000 0.000000
0.495506 1.210268 2.062558 0.000000 0.000000 0.000000
0.483064 1.195967 2.082312 0.000000 0.000000 0.000000
0.480293 1.176980 2.079410 0.000000 0.000000 0.000000
0.816829 1.028354 1.008591 0.000000 0.000000 0.000000
0.480016 1.190464 2.077865 0.000000 0.000000 0.000000
0.818076 1.031551 1.016577 0.000000 0.000000 0.000000
0.480431 1.187117 2.076618 0.000000 0.000000 0.000000
0.486612 1.212635 2.070445 0.000000 0.000000 0.000000
0.495335 1.203859 2.056124 0.000000 0.000000 0.000000
0.520576 1.206685 2.041245 0.000000 0.000000 0.000000
0.497942 1.210123 2.059386 0.000000 0.000000 0.000000
0.498265 1.210957 2.051264 0.000000 0.000000 0.000000
0.496545 1.213570 2.069805 0.000000 0.000000 0.000000
0.480670 1.195137 2.077587 0.000000 0.000000 0.000000
0.483864 1.192825 2.080073 0.000000 0.000000 0.000000
0.480378 1.218448 2.079961 0.000000 0.000000 0.000000
0.489095 1.214141 2.071452 0.000000 0.000000 0.000000
0.498728 1.211263 2.062686 0.000000 0.000000 0.000000
0.489350 1.217754 2.074816 0.000000 0.000000 0.000000
0.492288 1.214406 2.068530 0.000000 0.000000 0.000000
0.499440 1.203705 2.049900 0.000000 0.000000 0.000000
0.817298 1.056222 1.062913 0.000000 0.000000 0.000000
0.804230 1.054833 1.066829 0.000000 0.000000 0.000000
0.811678 1.044213 1.047111 0.000000 0.000000 0.000000
0.503065 1.215639 2.061254 0.000000 0.000000 0.000000
0.494571 1.214433 2.070418 0.000000 0.000000 0.000000
0.497049 1.207263 2.058751 0.000000 0.000000 0.000000
0.499618 1.214355 2.064537 0.000000 0.000000 0.000000
0.503298 1.205076 2.046664 0.000000 0.000000 0.000000
0.823276 1.058487 1.062051 0.000000 0.000000 0.000000
0.804354 1.055829 1.065286 0.000000 0.000000 0.000000
0.497509 1.212094 2.064843 0.000000 0.000000 0.000000
0.488905 1.215909 2.073520 0.000000 0.000000 0.000000
0.516278 1.204482 2.032528 0.000000 0.000000 0.000000
0.834296 1.006901 1.006740 0.000000 0.000000 0.000000
0.512425 1.214093 2.048537 0.000000 0.000000 0.000000
0.483628 1.170493 2.079396 0.000000 0.000000 0.000000
0.477176 1.170510 2.080777 0.000000 0.000000 0.000000
0.509028 1.202209 2.040002 0.000000 0.000000 0.000000
0.519106 1.202587 2.035436 0.000000 0.000000 0.000000
0.495470 1.214729 2.073107 0.000000 0.000000 0.000000
0.478581 1.187025 2.079349 0.000000 0.000000 0.000000
0.478268 1.180589 2.080734 0.000000 0.000000 0.000000
0.482542 1.181147 2.074962 0.000000 0.000000 0.000000
0.520919 1.212814 2.043285 0.000000 0.000000 0.000000
0.478855 1.171822 2.079079 0.000000 0.000000 0.000000
0.478364 1.174735 2.078588 0.000000 0.000000 0.000000
0.519185 1.203849 2.042308 0.000000 0.000000 0.000000
0.477864 1.171621 2.077224 0.000000 0.000000 0.000000
0.516909 1.214812 2.044263 0.000000 0.000000 0.000000
0.520613 1.211715 2.043415 0.000000 0.000000 0.000000
0.803535 1.032742 1.038686 0.000000 0.000000 0.000000
0.800408 1.045622 1.063934 0.000000 0.000000 0.000000
0.808926 1.036826 1.064008 0.000000 0.000000 0.000000
0.804917 1.036118 1.058259 0.000000 0.000000 0.000000
0.502520 1.201589 2.040982 0.000000 0.000000 0.000000
0.810025 1.040869 1.044941 0.000000 0.000000 0.000000
0.812330 1.036584 1.039813 0.000000 0.000000 0.000000
0.820343 1.038036 1.047876 0.000000 0.000000 0.000000
0.807918 1.037737 1.047785 0.000000 0.000000 0.000000
0.805403 1.040707 1.057359 0.000000 0.000000 0.000000
0.801512 1.039879 1.061859 0.000000 0.000000 0.000000
0.820679 1.031399 1.017146 0.000000 0.000000 0.000000
0.801944 1.040607 1.056555 0.000000 0.000000 0.000000
0.815938 1.033914 1.031245 0.000000 0.000000 0.000000
0.811940 1.034798 1.039769 0.000000 0.000000 0.000000
0.819438 1.033254 1.038842 0.000000 0.000000 0.000000
0.814012 1.031905 1.023697 0.000000 0.000000 0.000000
0.804707 1.037820 1.057240 0.000000 0.000000 0.000000
0.815577 1.043983 1.047168 0.000000 0.000000 0.000000
0.482530 1.197916 2.082027 0.000000 0.000000 0.000000
0.801784 1.035964 1.064439 0.000000 0.000000 0.000000
0.807508 1.039734 1.067398 0.000000 0.000000 0.000000
0.810898 1.036071 1.057087 0.000000 0.000000 0.000000
0.802500 1.039111 1.069836 0.000000 0.000000 0.000000
0.813138 1.036435 1.056903 0.000000 0.000000 0.000000
0.809096 1.035754 1.060707 0.000000 0.000000 0.000000
0.838578 1.007840 1.005717 0.000000 0.000000 0.000000
0.833117 1.013497 1.018394 0.000000 0.000000 0.000000
0.835429 1.005952 1.000641 0.000000 0.000000 0.000000
0.837878 1.005742 1.002412 0.000000 0.000000 0.000000
0.812097 1.029352 1.023607 0.000000 0.000000 0.000000
0.835842 1.006979 1.001297 0.000000 0.000000 0.000000
0.804662 1.041950 1.077015 0.000000 0.000000 0.000000
0.819846 1.024377 1.013691 0.000000 0.000000 0.000000
0.481209 1.174862 2.076407 0.000000 0.000000 0.000000
0.832084 1.032982 1.049403 0.000000 0.000000 0.000000
0.831860 1.032718 1.044646 0.000000 0.000000 0.000000
0.834492 1.022491 1.039621 0.000000 0.000000 0.000000
0.828390 1.043026 1.054650 0.000000 0.000000 0.000000
0.835005 1.008031 1.003269 0.000000 0.000000 0.000000
0.834117 1.023547 1.037385 0.000000 0.000000 0.000000
0.831142 1.037728 1.053547 0.000000 0.000000 0.000000
