ply
format ascii 1.0
comment VCGLIB generated
obj_info Generated by SPFormer!
element vertex 258
property float x
property float y
property float z
property float nx
property float ny
property float nz
end_header
0.497278 1.225669 2.079283 0.000000 0.000000 0.000000
0.518108 1.221253 2.045124 0.000000 0.000000 0.000000
0.502455 1.205839 2.047042 0.000000 0.000000 0.000000
0.506713 1.215935 2.058750 0.000000 0.000000 0.000000
0.510433 1.208817 2.039105 0.000000 0.000000 0.000000
0.495499 1.213655 2.065818 0.000000 0.000000 0.000000
0.508178 1.204026 2.041276 0.000000 0.000000 0.000000
0.523313 1.205752 2.038919 0.000000 0.000000 0.000000
0.481878 1.189517 2.081340 0.000000 0.000000 0.000000
0.523373 1.217428 2.044607 0.000000 0.000000 0.000000
0.503924 1.206653 2.051494 0.000000 0.000000 0.000000
0.511253 1.221009 2.055206 0.000000 0.000000 0.000000
0.512760 1.208575 2.053809 0.000000 0.000000 0.000000
0.528461 1.213680 2.070242 0.000000 0.000000 0.000000
0.520210 1.204389 2.041189 0.000000 0.000000 0.000000
0.507985 1.206037 2.055225 0.000000 0.000000 0.000000
0.502757 1.213580 2.056457 0.000000 0.000000 0.000000
0.513058 1.213486 2.046117 0.000000 0.000000 0.000000
0.506147 1.206367 2.044799 0.000000 0.000000 0.000000
0.530348 1.204531 2.044270 0.000000 0.000000 0.000000
0.514758 1.200438 2.034889 0.000000 0.000000 0.000000
0.482052 1.177107 2.081741 0.000000 0.000000 0.000000
0.507163 1.204331 2.046866 0.000000 0.000000 0.000000
0.483354 1.176811 2.080823 0.000000 0.000000 0.000000
0.481481 1.184221 2.082142 0.000000 0.000000 0.000000
0.514894 1.215807 2.048647 0.000000 0.000000 0.000000
0.504816 1.207912 2.053405 0.000000 0.000000 0.000000
0.477096 1.184218 2.082156 0.000000 0.000000 0.000000
0.502987 1.207611 2.060643 0.000000 0.000000 0.000000
0.479648 1.186854 2.079175 0.000000 0.000000 0.000000
0.478372 1.175853 2.083361 0.000000 0.000000 0.000000
0.503168 1.205468 2.041636 0.000000 0.000000 0.000000
0.510077 1.208989 2.050536 0.000000 0.000000 0.000000
0.508768 1.199615 2.037837 0.000000 0.000000 0.000000
0.515859 1.214761 2.049827 0.000000 0.000000 0.000000
0.498319 1.211682 2.062900 0.000000 0.000000 0.000000
0.481651 1.175290 2.083171 0.000000 0.000000 0.000000
0.485016 1.172712 2.081336 0.000000 0.000000 0.000000
0.516536 1.203026 2.043797 0.000000 0.000000 0.000000
0.481527 1.178029 2.081606 0.000000 0.000000 0.000000
0.479719 1.169255 2.080543 0.000000 0.000000 0.000000
0.481152 1.188467 2.082021 0.000000 0.000000 0.000000
0.525328 1.194063 2.038645 0.000000 0.000000 0.000000
0.477488 1.180998 2.082193 0.000000 0.000000 0.000000
0.511575 1.205111 2.045290 0.000000 0.000000 0.000000
0.517959 1.201211 2.037520 0.000000 0.000000 0.000000
0.521510 1.204074 2.036152 0.000000 0.000000 0.000000
0.501455 1.205083 2.047584 0.000000 0.000000 0.000000
0.496857 1.213402 2.064136 0.000000 0.000000 0.000000
0.489004 1.209233 2.064954 0.000000 0.000000 0.000000
0.502728 1.211803 2.060470 0.000000 0.000000 0.000000
0.479486 1.190529 2.075508 0.000000 0.000000 0.000000
0.480234 1.188417 2.077345 0.000000 0.000000 0.000000
0.479768 1.181884 2.079738 0.000000 0.000000 0.000000
0.511837 1.205296 2.046275 0.000000 0.000000 0.000000
0.507947 1.202366 2.042062 0.000000 0.000000 0.000000
0.503295 1.207799 2.050725 0.000000 0.000000 0.000000
0.478867 1.168697 2.082288 0.000000 0.000000 0.000000
0.500898 1.208723 2.057758 0.000000 0.000000 0.000000
0.497549 1.215531 2.066607 0.000000 0.000000 0.000000
0.478119 1.184843 2.080370 0.000000 0.000000 0.000000
0.479627 1.165766 2.086141 0.000000 0.000000 0.000000
0.494958 1.213026 2.066910 0.000000 0.000000 0.000000
0.496326 1.210868 2.061899 0.000000 0.000000 0.000000
0.523036 1.212051 2.041868 0.000000 0.000000 0.000000
0.481077 1.192469 2.080572 0.000000 0.000000 0.000000
0.504722 1.198123 2.042181 0.000000 0.000000 0.000000
0.521945 1.202116 2.040876 0.000000 0.000000 0.000000
0.512648 1.210301 2.045128 0.000000 0.000000 0.000000
0.503722 1.210576 2.043255 0.000000 0.000000 0.000000
0.480497 1.178341 2.081978 0.000000 0.000000 0.000000
0.520110 1.201851 2.043890 0.000000 0.000000 0.000000
0.498417 1.211255 2.061500 0.000000 0.000000 0.000000
0.515981 1.209587 2.046525 0.000000 0.000000 0.000000
0.509183 1.212790 2.053249 0.000000 0.000000 0.000000
0.512666 1.210211 2.038575 0.000000 0.000000 0.000000
0.493145 1.211297 2.065732 0.000000 0.000000 0.000000
0.500587 1.209281 2.060317 0.000000 0.000000 0.000000
0.494835 1.213325 2.067653 0.000000 0.000000 0.000000
0.498932 1.210847 2.060086 0.000000 0.000000 0.000000
0.510384 1.205815 2.049275 0.000000 0.000000 0.000000
0.498613 1.206961 2.047643 0.000000 0.000000 0.000000
0.477968 1.185897 2.079710 0.000000 0.000000 0.000000
0.499987 1.211437 2.060959 0.000000 0.000000 0.000000
0.479126 1.184886 2.083553 0.000000 0.000000 0.000000
0.498737 1.210771 2.055965 0.000000 0.000000 0.000000
0.480738 1.189277 2.079551 0.000000 0.000000 0.000000
0.519689 1.212349 2.040967 0.000000 0.000000 0.000000
0.518410 1.216233 2.037386 0.000000 0.000000 0.000000
0.497127 1.216323 2.069417 0.000000 0.000000 0.000000
0.475469 1.182634 2.079891 0.000000 0.000000 0.000000
0.497894 1.208032 2.057273 0.000000 0.000000 0.000000
0.494764 1.213859 2.062609 0.000000 0.000000 0.000000
0.492950 1.212765 2.069722 0.000000 0.000000 0.000000
0.492213 1.209240 2.066646 0.000000 0.000000 0.000000
0.477915 1.187083 2.080122 0.000000 0.000000 0.000000
0.480495 1.176113 2.076250 0.000000 0.000000 0.000000
0.480252 1.163586 2.086669 0.000000 0.000000 0.000000
0.481943 1.180167 2.081044 0.000000 0.000000 0.000000
0.520867 1.202591 2.043728 0.000000 0.000000 0.000000
0.478305 1.160009 2.085474 0.000000 0.000000 0.000000
0.484441 1.189712 2.078804 0.000000 0.000000 0.000000
0.513036 1.210891 2.048372 0.000000 0.000000 0.000000
0.517338 1.209000 2.045909 0.000000 0.000000 0.000000
0.513349 1.206647 2.048620 0.000000 0.000000 0.000000
0.477115 1.188195 2.078351 0.000000 0.000000 0.000000
0.482178 1.217474 2.079569 0.000000 0.000000 0.000000
0.481203 1.181112 2.083424 0.000000 0.000000 0.000000
0.480196 1.175319 2.081948 0.000000 0.000000 0.000000
0.476172 1.169539 2.081055 0.000000 0.000000 0.000000
0.480984 1.195985 2.078440 0.000000 0.000000 0.000000
0.478556 1.190292 2.080940 0.000000 0.000000 0.000000
0.479920 1.189718 2.079012 0.000000 0.000000 0.000000
0.478648 1.177148 2.083374 0.000000 0.000000 0.000000
0.482390 1.233671 2.079834 0.000000 0.000000 0.000000
0.480477 1.186991 2.077185 0.000000 0.000000 0.000000
0.514783 1.210833 2.040802 0.000000 0.000000 0.000000
0.494089 1.212144 2.069489 0.000000 0.000000 0.000000
0.477831 1.185415 2.081004 0.000000 0.000000 0.000000
0.510502 1.202797 2.038663 0.000000 0.000000 0.000000
0.506955 1.211076 2.052444 0.000000 0.000000 0.000000
0.477687 1.185969 2.078593 0.000000 0.000000 0.000000
0.478851 1.184257 2.077838 0.000000 0.000000 0.000000
0.480526 1.191517 2.083431 0.000000 0.000000 0.000000
0.485585 1.206568 2.068603 0.000000 0.000000 0.000000
0.509191 1.207462 2.040798 0.000000 0.000000 0.000000
0.506395 1.205882 2.039719 0.000000 0.000000 0.000000
0.475340 1.183299 2.079970 0.000000 0.000000 0.000000
0.515782 1.203287 2.037588 0.000000 0.000000 0.000000
0.482076 1.187606 2.081317 0.000000 0.000000 0.000000
0.507494 1.207313 2.047387 0.000000 0.000000 0.000000
0.502927 1.203112 2.043142 0.000000 0.000000 0.000000
0.480060 1.165448 2.084123 0.000000 0.000000 0.000000
0.479687 1.170253 2.083353 0.000000 0.000000 0.000000
0.480023 1.190777 2.081359 0.000000 0.000000 0.000000
0.510330 1.203847 2.038095 0.000000 0.000000 0.000000
0.482505 1.189979 2.078475 0.000000 0.000000 0.000000
0.509275 1.213318 2.051945 0.000000 0.000000 0.000000
0.522370 1.196706 2.042425 0.000000 0.000000 0.000000
0.521418 1.198242 2.034813 0.000000 0.000000 0.000000
0.505505 1.216527 2.056896 0.000000 0.000000 0.000000
0.479871 1.168256 2.083939 0.000000 0.000000 0.000000
0.509946 1.215353 2.054433 0.000000 0.000000 0.000000
0.499738 1.207201 2.049987 0.000000 0.000000 0.000000
0.504513 1.213232 2.056184 0.000000 0.000000 0.000000
0.512365 1.216033 2.053151 0.000000 0.000000 0.000000
0.497673 1.209929 2.062613 0.000000 0.000000 0.000000
0.506932 1.215659 2.057785 0.000000 0.000000 0.000000
0.507133 1.208157 2.057986 0.000000 0.000000 0.000000
0.498635 1.209822 2.056310 0.000000 0.000000 0.000000
0.503921 1.212611 2.056584 0.000000 0.000000 0.000000
0.497288 1.210122 2.062682 0.000000 0.000000 0.000000
0.480040 1.193635 2.082653 0.000000 0.000000 0.000000
0.481758 1.163023 2.082769 0.000000 0.000000 0.000000
0.502021 1.214575 2.063049 0.000000 0.000000 0.000000
0.487035 1.180780 2.083491 0.000000 0.000000 0.000000
0.479508 1.183115 2.084310 0.000000 0.000000 0.000000
0.478832 1.186751 2.081220 0.000000 0.000000 0.000000
0.478329 1.168476 2.084208 0.000000 0.000000 0.000000
0.478312 1.168677 2.083640 0.000000 0.000000 0.000000
0.478538 1.176319 2.085107 0.000000 0.000000 0.000000
0.480143 1.175556 2.084615 0.000000 0.000000 0.000000
0.478043 1.188602 2.077333 0.000000 0.000000 0.000000
0.479965 1.173750 2.076326 0.000000 0.000000 0.000000
0.477267 1.187982 2.081795 0.000000 0.000000 0.000000
0.479835 1.190909 2.079846 0.000000 0.000000 0.000000
0.481063 1.180869 2.075349 0.000000 0.000000 0.000000
0.479194 1.185800 2.082059 0.000000 0.000000 0.000000
0.478065 1.181922 2.079764 0.000000 0.000000 0.000000
0.480466 1.186762 2.077121 0.000000 0.000000 0.000000
0.477984 1.183348 2.077891 0.000000 0.000000 0.000000
0.513498 1.216314 2.050052 0.000000 0.000000 0.000000
0.514079 1.200687 2.040038 0.000000 0.000000 0.000000
0.502458 1.209023 2.050807 0.000000 0.000000 0.000000
0.479718 1.175959 2.085743 0.000000 0.000000 0.000000
0.479526 1.171687 2.080062 0.000000 0.000000 0.000000
0.478404 1.195758 2.080258 0.000000 0.000000 0.000000
0.477185 1.185710 2.076875 0.000000 0.000000 0.000000
0.477384 1.183825 2.078748 0.000000 0.000000 0.000000
0.486946 1.237680 2.078718 0.000000 0.000000 0.000000
0.515997 1.220165 2.050032 0.000000 0.000000 0.000000
0.491310 1.238246 2.079347 0.000000 0.000000 0.000000
0.489841 1.238168 2.078999 0.000000 0.000000 0.000000
0.517486 1.206085 2.037368 0.000000 0.000000 0.000000
0.482899 1.177170 2.079036 0.000000 0.000000 0.000000
0.486685 1.231562 2.078948 0.000000 0.000000 0.000000
0.481392 1.216125 2.076561 0.000000 0.000000 0.000000
0.491937 1.217333 2.076607 0.000000 0.000000 0.000000
0.509230 1.203104 2.039922 0.000000 0.000000 0.000000
0.504458 1.206607 2.045861 0.000000 0.000000 0.000000
0.509744 1.201575 2.044510 0.000000 0.000000 0.000000
0.517095 1.204357 2.047357 0.000000 0.000000 0.000000
0.502005 1.202932 2.043473 0.000000 0.000000 0.000000
0.517289 1.211886 2.046959 0.000000 0.000000 0.000000
0.495369 1.212751 2.063480 0.000000 0.000000 0.000000
0.514616 1.213021 2.043498 0.000000 0.000000 0.000000
0.493618 1.209373 2.059563 0.000000 0.000000 0.000000
0.485809 1.217281 2.076601 0.000000 0.000000 0.000000
0.500467 1.207689 2.053806 0.000000 0.000000 0.000000
0.478462 1.172009 2.085696 0.000000 0.000000 0.000000
0.492063 1.214878 2.074993 0.000000 0.000000 0.000000
0.478633 1.171321 2.087091 0.000000 0.000000 0.000000
0.482067 1.205402 2.072582 0.000000 0.000000 0.000000
0.480804 1.201487 2.077857 0.000000 0.000000 0.000000
0.483912 1.190921 2.084177 0.000000 0.000000 0.000000
0.479559 1.182799 2.074100 0.000000 0.000000 0.000000
0.481804 1.186299 2.077758 0.000000 0.000000 0.000000
0.477098 1.181876 2.077584 0.000000 0.000000 0.000000
0.482999 1.193002 2.074669 0.000000 0.000000 0.000000
0.502724 1.211945 2.062193 0.000000 0.000000 0.000000
0.482117 1.188393 2.076940 0.000000 0.000000 0.000000
0.515884 1.202222 2.041796 0.000000 0.000000 0.000000
0.495506 1.210268 2.062558 0.000000 0.000000 0.000000
0.483064 1.195967 2.082312 0.000000 0.000000 0.000000
0.480293 1.176980 2.079410 0.000000 0.000000 0.000000
0.480016 1.190464 2.077865 0.000000 0.000000 0.000000
0.480431 1.187117 2.076618 0.000000 0.000000 0.000000
0.486612 1.212635 2.070445 0.000000 0.000000 0.000000
0.495335 1.203859 2.056124 0.000000 0.000000 0.000000
0.520576 1.206685 2.041245 0.000000 0.000000 0.000000
0.497942 1.210123 2.059386 0.000000 0.000000 0.000000
0.498265 1.210957 2.051264 0.000000 0.000000 0.000000
0.496545 1.213570 2.069805 0.000000 0.000000 0.000000
0.480670 1.195137 2.077587 0.000000 0.000000 0.000000
0.483864 1.192825 2.080073 0.000000 0.000000 0.000000
0.480378 1.218448 2.079961 0.000000 0.000000 0.000000
0.489095 1.214141 2.071452 0.000000 0.000000 0.000000
0.498728 1.211263 2.062686 0.000000 0.000000 0.000000
0.489350 1.217754 2.074816 0.000000 0.000000 0.000000
0.492288 1.214406 2.068530 0.000000 0.000000 0.000000
0.499440 1.203705 2.049900 0.000000 0.000000 0.000000
0.503065 1.215639 2.061254 0.000000 0.000000 0.000000
0.494571 1.214433 2.070418 0.000000 0.000000 0.000000
0.497049 1.207263 2.058751 0.000000 0.000000 0.000000
0.499618 1.214355 2.064537 0.000000 0.000000 0.000000
0.503298 1.205076 2.046664 0.000000 0.000000 0.000000
0.497509 1.212094 2.064843 0.000000 0.000000 0.000000
0.488905 1.215909 2.073520 0.000000 0.000000 0.000000
0.516278 1.204482 2.032528 0.000000 0.000000 0.000000
0.512425 1.214093 2.048537 0.000000 0.000000 0.000000
0.483628 1.170493 2.079396 0.000000 0.000000 0.000000
0.477176 1.170510 2.080777 0.000000 0.000000 0.000000
0.509028 1.202209 2.040002 0.000000 0.000000 0.000000
0.519106 1.202587 2.035436 0.000000 0.000000 0.000000
0.495470 1.214729 2.073107 0.000000 0.000000 0.000000
0.478581 1.187025 2.079349 0.000000 0.000000 0.000000
0.478268 1.180589 2.080734 0.000000 0.000000 0.000000
0.482542 1.181147 2.074962 0.000000 0.000000 0.000000
0.520919 1.212814 2.043285 0.000000 0.000000 0.000000
0.478855 1.171822 2.079079 0.000000 0.000000 0.000000
0.478364 1.174735 2.078588 0.000000 0.000000 0.000000
0.519185 1.203849 2.042308 0.000000 0.000000 0.000000
0.477864 1.171621 2.077224 0.000000 0.000000 0.000000
0.516909 1.214812 2.044263 0.000000 0.000000 0.000000
0.520613 1.211715 2.043415 0.000000 0.000000 0.000000
0.502520 1.201589 2.040982 0.000000 0.000000 0.000000
0.482530 1.197916 2.082027 0.000000 0.000000 0.000000
0.481209 1.174862 2.076407 0.000000 0.000000 0.000000
