ply
format ascii 1.0
comment VCGLIB generated
obj_info Generated by SPFormer!
element vertex 746
property float x
property float y
property float z
property float nx
property float ny
property float nz
end_header
0.699262 1.074398 1.053824 0.000000 0.000000 0.000000
0.741030 1.063186 1.043006 0.000000 0.000000 0.000000
0.738302 1.065253 1.044147 0.000000 0.000000 0.000000
0.752074 1.074445 1.051667 0.000000 0.000000 0.000000
0.740358 1.052591 1.040289 0.000000 0.000000 0.000000
0.747302 1.055079 1.060869 0.000000 0.000000 0.000000
0.737450 1.065126 1.041413 0.000000 0.000000 0.000000
0.740175 1.067538 1.041138 0.000000 0.000000 0.000000
0.664430 1.086088 1.053198 0.000000 0.000000 0.000000
0.739883 1.065430 1.041264 0.000000 0.000000 0.000000
0.745691 1.064051 1.060301 0.000000 0.000000 0.000000
0.738713 1.073912 1.038072 0.000000 0.000000 0.000000
0.742835 1.067495 1.038348 0.000000 0.000000 0.000000
0.658634 1.093285 1.045136 0.000000 0.000000 0.000000
0.713069 1.073662 1.050751 0.000000 0.000000 0.000000
0.704756 1.078493 1.069574 0.000000 0.000000 0.000000
0.740063 1.066677 1.039394 0.000000 0.000000 0.000000
0.644510 1.101966 1.034734 0.000000 0.000000 0.000000
0.725483 1.062710 1.068042 0.000000 0.000000 0.000000
0.727011 1.052823 1.061554 0.000000 0.000000 0.000000
0.683733 1.076852 1.050393 0.000000 0.000000 0.000000
0.691817 1.076699 1.064979 0.000000 0.000000 0.000000
0.655406 1.096162 1.037087 0.000000 0.000000 0.000000
0.720629 1.063844 1.061118 0.000000 0.000000 0.000000
0.746752 1.070458 1.051435 0.000000 0.000000 0.000000
0.745778 1.069126 1.054373 0.000000 0.000000 0.000000
0.750989 1.056153 1.061542 0.000000 0.000000 0.000000
0.707480 1.073330 1.064937 0.000000 0.000000 0.000000
0.735250 1.058974 1.064618 0.000000 0.000000 0.000000
0.713870 1.064324 1.075085 0.000000 0.000000 0.000000
0.715158 1.067472 1.066419 0.000000 0.000000 0.000000
0.722340 1.061858 1.066852 0.000000 0.000000 0.000000
0.695151 1.069690 1.057526 0.000000 0.000000 0.000000
0.724822 1.065276 1.062596 0.000000 0.000000 0.000000
0.697003 1.070024 1.058302 0.000000 0.000000 0.000000
0.701694 1.072302 1.069566 0.000000 0.000000 0.000000
0.648644 1.091342 1.056177 0.000000 0.000000 0.000000
0.706378 1.072836 1.070845 0.000000 0.000000 0.000000
0.747768 1.072355 1.053908 0.000000 0.000000 0.000000
0.684497 1.075986 1.058526 0.000000 0.000000 0.000000
0.741914 1.054568 1.065206 0.000000 0.000000 0.000000
0.699306 1.078323 1.078229 0.000000 0.000000 0.000000
0.747515 1.069172 1.057677 0.000000 0.000000 0.000000
0.741355 1.066536 1.037949 0.000000 0.000000 0.000000
0.642296 1.108545 1.039321 0.000000 0.000000 0.000000
0.749135 1.053594 1.067583 0.000000 0.000000 0.000000
0.666213 1.088571 1.054277 0.000000 0.000000 0.000000
0.746557 1.065585 1.047736 0.000000 0.000000 0.000000
0.741739 1.055795 1.067766 0.000000 0.000000 0.000000
0.674217 1.088236 1.061324 0.000000 0.000000 0.000000
0.732237 1.060534 1.042106 0.000000 0.000000 0.000000
0.737018 1.053570 1.066923 0.000000 0.000000 0.000000
0.724671 1.062289 1.067068 0.000000 0.000000 0.000000
0.662777 1.083758 1.042824 0.000000 0.000000 0.000000
0.666476 1.089033 1.059847 0.000000 0.000000 0.000000
0.654935 1.099522 1.055954 0.000000 0.000000 0.000000
0.679882 1.078193 1.051610 0.000000 0.000000 0.000000
0.700714 1.074299 1.061600 0.000000 0.000000 0.000000
0.702424 1.073084 1.054287 0.000000 0.000000 0.000000
0.685562 1.077686 1.062785 0.000000 0.000000 0.000000
0.730113 1.061015 1.068139 0.000000 0.000000 0.000000
0.732172 1.060149 1.069816 0.000000 0.000000 0.000000
0.736091 1.065209 1.031385 0.000000 0.000000 0.000000
0.659626 1.098252 1.055784 0.000000 0.000000 0.000000
0.663099 1.092166 1.055005 0.000000 0.000000 0.000000
0.734371 1.069836 1.042744 0.000000 0.000000 0.000000
0.659767 1.091995 1.048673 0.000000 0.000000 0.000000
0.652582 1.098601 1.046120 0.000000 0.000000 0.000000
0.687485 1.078122 1.062016 0.000000 0.000000 0.000000
0.687104 1.073269 1.056152 0.000000 0.000000 0.000000
0.707979 1.066532 1.057892 0.000000 0.000000 0.000000
0.666714 1.087624 1.051747 0.000000 0.000000 0.000000
0.668956 1.086344 1.048308 0.000000 0.000000 0.000000
0.669159 1.089508 1.061905 0.000000 0.000000 0.000000
0.650214 1.100087 1.042244 0.000000 0.000000 0.000000
0.650140 1.108724 1.045137 0.000000 0.000000 0.000000
0.736013 1.062627 1.033270 0.000000 0.000000 0.000000
0.642486 1.105383 1.046713 0.000000 0.000000 0.000000
0.651852 1.100191 1.038279 0.000000 0.000000 0.000000
0.648019 1.097722 1.060169 0.000000 0.000000 0.000000
0.648238 1.103025 1.054258 0.000000 0.000000 0.000000
0.746228 1.067453 1.056152 0.000000 0.000000 0.000000
0.750270 1.063426 1.067644 0.000000 0.000000 0.000000
0.645909 1.106362 1.050281 0.000000 0.000000 0.000000
0.710161 1.058272 1.057975 0.000000 0.000000 0.000000
0.724125 1.064308 1.070541 0.000000 0.000000 0.000000
0.645165 1.110407 1.043685 0.000000 0.000000 0.000000
0.646570 1.104593 1.037513 0.000000 0.000000 0.000000
0.680293 1.078349 1.053514 0.000000 0.000000 0.000000
0.750183 1.056382 1.061430 0.000000 0.000000 0.000000
0.644236 1.104927 1.043707 0.000000 0.000000 0.000000
0.646579 1.103091 1.038307 0.000000 0.000000 0.000000
0.654733 1.095393 1.045538 0.000000 0.000000 0.000000
0.687627 1.071580 1.058120 0.000000 0.000000 0.000000
0.653449 1.100042 1.053959 0.000000 0.000000 0.000000
0.730149 1.060853 1.071571 0.000000 0.000000 0.000000
0.641238 1.107755 1.039989 0.000000 0.000000 0.000000
0.717006 1.064867 1.068407 0.000000 0.000000 0.000000
0.725643 1.060506 1.062466 0.000000 0.000000 0.000000
0.696006 1.074614 1.055802 0.000000 0.000000 0.000000
0.706494 1.067711 1.060663 0.000000 0.000000 0.000000
0.727666 1.062764 1.065208 0.000000 0.000000 0.000000
0.739893 1.065477 1.032618 0.000000 0.000000 0.000000
0.738537 1.065356 1.045810 0.000000 0.000000 0.000000
0.736588 1.069016 1.037812 0.000000 0.000000 0.000000
0.703071 1.076820 1.076296 0.000000 0.000000 0.000000
0.741766 1.068399 1.040518 0.000000 0.000000 0.000000
0.657655 1.102663 1.041864 0.000000 0.000000 0.000000
0.663464 1.098622 1.032812 0.000000 0.000000 0.000000
0.647721 1.109213 1.049533 0.000000 0.000000 0.000000
0.658468 1.092924 1.040729 0.000000 0.000000 0.000000
0.740845 1.055968 1.065746 0.000000 0.000000 0.000000
0.718770 1.071800 1.062707 0.000000 0.000000 0.000000
0.634520 1.121198 1.041749 0.000000 0.000000 0.000000
0.726045 1.064227 1.072429 0.000000 0.000000 0.000000
0.722565 1.063034 1.071098 0.000000 0.000000 0.000000
0.680419 1.068187 1.072069 0.000000 0.000000 0.000000
0.743961 1.067841 1.041879 0.000000 0.000000 0.000000
0.722894 1.062449 1.072412 0.000000 0.000000 0.000000
0.693678 1.086187 1.080847 0.000000 0.000000 0.000000
0.752267 1.060526 1.073397 0.000000 0.000000 0.000000
0.676447 1.083634 1.050191 0.000000 0.000000 0.000000
0.709228 1.073812 1.071867 0.000000 0.000000 0.000000
0.740571 1.062891 1.040040 0.000000 0.000000 0.000000
0.652198 1.097922 1.039233 0.000000 0.000000 0.000000
0.658147 1.095668 1.042984 0.000000 0.000000 0.000000
0.753403 1.070573 1.059226 0.000000 0.000000 0.000000
0.738107 1.065335 1.039396 0.000000 0.000000 0.000000
0.698228 1.070966 1.060677 0.000000 0.000000 0.000000
0.656970 1.094853 1.041072 0.000000 0.000000 0.000000
0.641004 1.115130 1.046394 0.000000 0.000000 0.000000
0.674321 1.074434 1.056901 0.000000 0.000000 0.000000
0.695753 1.058759 1.055640 0.000000 0.000000 0.000000
0.670213 1.082861 1.060729 0.000000 0.000000 0.000000
0.649594 1.091225 1.041881 0.000000 0.000000 0.000000
0.700387 1.061804 1.055929 0.000000 0.000000 0.000000
0.670606 1.086485 1.051252 0.000000 0.000000 0.000000
0.737578 1.063747 1.043021 0.000000 0.000000 0.000000
0.668417 1.081123 1.057750 0.000000 0.000000 0.000000
0.654026 1.094244 1.042804 0.000000 0.000000 0.000000
0.702389 1.062992 1.063549 0.000000 0.000000 0.000000
0.712928 1.063419 1.072071 0.000000 0.000000 0.000000
0.642157 1.105846 1.036755 0.000000 0.000000 0.000000
0.668961 1.084664 1.042966 0.000000 0.000000 0.000000
0.669075 1.096420 1.037780 0.000000 0.000000 0.000000
0.739862 1.055163 1.062913 0.000000 0.000000 0.000000
0.710408 1.073482 1.070438 0.000000 0.000000 0.000000
0.657017 1.090858 1.039251 0.000000 0.000000 0.000000
0.637334 1.113936 1.041835 0.000000 0.000000 0.000000
0.689124 1.074106 1.059766 0.000000 0.000000 0.000000
0.687596 1.080701 1.046036 0.000000 0.000000 0.000000
0.708349 1.064787 1.061256 0.000000 0.000000 0.000000
0.659232 1.089925 1.043729 0.000000 0.000000 0.000000
0.745063 1.053811 1.070397 0.000000 0.000000 0.000000
0.644956 1.105351 1.036598 0.000000 0.000000 0.000000
0.695806 1.076338 1.063196 0.000000 0.000000 0.000000
0.752900 1.072107 1.061554 0.000000 0.000000 0.000000
0.702085 1.066178 1.074034 0.000000 0.000000 0.000000
0.744991 1.066576 1.047884 0.000000 0.000000 0.000000
0.639161 1.114241 1.042653 0.000000 0.000000 0.000000
0.742805 1.065475 1.042788 0.000000 0.000000 0.000000
0.737320 1.064450 1.044026 0.000000 0.000000 0.000000
0.724235 1.070425 1.065470 0.000000 0.000000 0.000000
0.698841 1.072170 1.059632 0.000000 0.000000 0.000000
0.740588 1.059395 1.060342 0.000000 0.000000 0.000000
0.709584 1.059764 1.073379 0.000000 0.000000 0.000000
0.718567 1.066640 1.062452 0.000000 0.000000 0.000000
0.698729 1.075187 1.052468 0.000000 0.000000 0.000000
0.697984 1.071954 1.060921 0.000000 0.000000 0.000000
0.720536 1.070483 1.067028 0.000000 0.000000 0.000000
0.669770 1.085877 1.078895 0.000000 0.000000 0.000000
0.731738 1.057969 1.064858 0.000000 0.000000 0.000000
0.743982 1.066783 1.049543 0.000000 0.000000 0.000000
0.749593 1.064759 1.052273 0.000000 0.000000 0.000000
0.652497 1.099600 1.039111 0.000000 0.000000 0.000000
0.748743 1.063114 1.068219 0.000000 0.000000 0.000000
0.750921 1.054842 1.068574 0.000000 0.000000 0.000000
0.691062 1.072327 1.060818 0.000000 0.000000 0.000000
0.719493 1.063704 1.074441 0.000000 0.000000 0.000000
0.751455 1.071689 1.058198 0.000000 0.000000 0.000000
0.741067 1.060474 1.070492 0.000000 0.000000 0.000000
0.756307 1.062111 1.068412 0.000000 0.000000 0.000000
0.706140 1.070749 1.069297 0.000000 0.000000 0.000000
0.645045 1.107814 1.038081 0.000000 0.000000 0.000000
0.744523 1.060042 1.068789 0.000000 0.000000 0.000000
0.657996 1.092426 1.041447 0.000000 0.000000 0.000000
0.745561 1.070540 1.042106 0.000000 0.000000 0.000000
0.749751 1.065331 1.048825 0.000000 0.000000 0.000000
0.669526 1.086938 1.051962 0.000000 0.000000 0.000000
0.673946 1.084773 1.055031 0.000000 0.000000 0.000000
0.744841 1.054479 1.067745 0.000000 0.000000 0.000000
0.667414 1.091184 1.041514 0.000000 0.000000 0.000000
0.661839 1.092438 1.040208 0.000000 0.000000 0.000000
0.741528 1.061830 1.065218 0.000000 0.000000 0.000000
0.639340 1.108893 1.041651 0.000000 0.000000 0.000000
0.640815 1.107129 1.049214 0.000000 0.000000 0.000000
0.671796 1.089865 1.060282 0.000000 0.000000 0.000000
0.751113 1.065618 1.069572 0.000000 0.000000 0.000000
0.653812 1.094492 1.043328 0.000000 0.000000 0.000000
0.705631 1.079830 1.070556 0.000000 0.000000 0.000000
0.720008 1.067646 1.054721 0.000000 0.000000 0.000000
0.716859 1.069563 1.072898 0.000000 0.000000 0.000000
0.694483 1.076829 1.073418 0.000000 0.000000 0.000000
0.710673 1.075345 1.082262 0.000000 0.000000 0.000000
0.743650 1.055483 1.064364 0.000000 0.000000 0.000000
0.641395 1.104915 1.034289 0.000000 0.000000 0.000000
0.648962 1.102484 1.037833 0.000000 0.000000 0.000000
0.741142 1.064850 1.039508 0.000000 0.000000 0.000000
0.683730 1.075552 1.050406 0.000000 0.000000 0.000000
0.718713 1.067769 1.073364 0.000000 0.000000 0.000000
0.693199 1.077537 1.065665 0.000000 0.000000 0.000000
0.649654 1.101389 1.051583 0.000000 0.000000 0.000000
0.696539 1.072052 1.055084 0.000000 0.000000 0.000000
0.661977 1.090640 1.042149 0.000000 0.000000 0.000000
0.679912 1.080845 1.050133 0.000000 0.000000 0.000000
0.681257 1.080496 1.053888 0.000000 0.000000 0.000000
0.696488 1.079820 1.050127 0.000000 0.000000 0.000000
0.698862 1.081225 1.063275 0.000000 0.000000 0.000000
0.685003 1.073726 1.057234 0.000000 0.000000 0.000000
0.650248 1.100143 1.046195 0.000000 0.000000 0.000000
0.675181 1.082989 1.046805 0.000000 0.000000 0.000000
0.691123 1.072253 1.054635 0.000000 0.000000 0.000000
0.674997 1.084797 1.049423 0.000000 0.000000 0.000000
0.651050 1.096548 1.032816 0.000000 0.000000 0.000000
0.664824 1.090385 1.043386 0.000000 0.000000 0.000000
0.744530 1.057876 1.059722 0.000000 0.000000 0.000000
0.665804 1.085492 1.045241 0.000000 0.000000 0.000000
0.651690 1.088655 1.035239 0.000000 0.000000 0.000000
0.735472 1.061498 1.034499 0.000000 0.000000 0.000000
0.745478 1.053708 1.067424 0.000000 0.000000 0.000000
0.746311 1.069178 1.045993 0.000000 0.000000 0.000000
0.741378 1.069370 1.038939 0.000000 0.000000 0.000000
0.743404 1.067476 1.041885 0.000000 0.000000 0.000000
0.738746 1.061952 1.032605 0.000000 0.000000 0.000000
0.747593 1.068529 1.057772 0.000000 0.000000 0.000000
0.740614 1.051062 1.065894 0.000000 0.000000 0.000000
0.743638 1.062932 1.042507 0.000000 0.000000 0.000000
0.663850 1.094641 1.042448 0.000000 0.000000 0.000000
0.745490 1.069777 1.044118 0.000000 0.000000 0.000000
0.738167 1.061059 1.045552 0.000000 0.000000 0.000000
0.749786 1.070716 1.050928 0.000000 0.000000 0.000000
0.737026 1.066707 1.037679 0.000000 0.000000 0.000000
0.746010 1.056286 1.065804 0.000000 0.000000 0.000000
0.716372 1.067412 1.059878 0.000000 0.000000 0.000000
0.654992 1.091676 1.038265 0.000000 0.000000 0.000000
0.646549 1.103837 1.039953 0.000000 0.000000 0.000000
0.748371 1.070692 1.059603 0.000000 0.000000 0.000000
0.742173 1.068717 1.038808 0.000000 0.000000 0.000000
0.748134 1.066056 1.049604 0.000000 0.000000 0.000000
0.739927 1.065037 1.038626 0.000000 0.000000 0.000000
0.741939 1.061733 1.041029 0.000000 0.000000 0.000000
0.740650 1.062986 1.040273 0.000000 0.000000 0.000000
0.655285 1.110642 1.055066 0.000000 0.000000 0.000000
0.738055 1.068237 1.052066 0.000000 0.000000 0.000000
0.649756 1.097641 1.046035 0.000000 0.000000 0.000000
0.642702 1.108006 1.048156 0.000000 0.000000 0.000000
0.669442 1.085630 1.036839 0.000000 0.000000 0.000000
0.666744 1.087605 1.045567 0.000000 0.000000 0.000000
0.645069 1.104911 1.053816 0.000000 0.000000 0.000000
0.670752 1.089287 1.069652 0.000000 0.000000 0.000000
0.737949 1.065863 1.038742 0.000000 0.000000 0.000000
0.645043 1.104813 1.043076 0.000000 0.000000 0.000000
0.681400 1.076694 1.070658 0.000000 0.000000 0.000000
0.720570 1.070486 1.078034 0.000000 0.000000 0.000000
0.670129 1.072443 1.065588 0.000000 0.000000 0.000000
0.647725 1.107499 1.033969 0.000000 0.000000 0.000000
0.661883 1.091563 1.042941 0.000000 0.000000 0.000000
0.707678 1.077866 1.066785 0.000000 0.000000 0.000000
0.656422 1.087783 1.040712 0.000000 0.000000 0.000000
0.658763 1.093426 1.043494 0.000000 0.000000 0.000000
0.679228 1.090623 1.068287 0.000000 0.000000 0.000000
0.744570 1.056874 1.064397 0.000000 0.000000 0.000000
0.745831 1.073503 1.048639 0.000000 0.000000 0.000000
0.702430 1.071421 1.067966 0.000000 0.000000 0.000000
0.721532 1.065544 1.058899 0.000000 0.000000 0.000000
0.749727 1.070691 1.052194 0.000000 0.000000 0.000000
0.713204 1.067453 1.062252 0.000000 0.000000 0.000000
0.732859 1.054677 1.065536 0.000000 0.000000 0.000000
0.682752 1.070463 1.070676 0.000000 0.000000 0.000000
0.695035 1.077669 1.079206 0.000000 0.000000 0.000000
0.726348 1.060401 1.067617 0.000000 0.000000 0.000000
0.696890 1.081252 1.081578 0.000000 0.000000 0.000000
0.754534 1.074203 1.063547 0.000000 0.000000 0.000000
0.689402 1.088206 1.079631 0.000000 0.000000 0.000000
0.699676 1.081981 1.080688 0.000000 0.000000 0.000000
0.685502 1.081456 1.080593 0.000000 0.000000 0.000000
0.653640 1.097790 1.037096 0.000000 0.000000 0.000000
0.703494 1.074413 1.080228 0.000000 0.000000 0.000000
0.705835 1.072476 1.048295 0.000000 0.000000 0.000000
0.678250 1.079375 1.070127 0.000000 0.000000 0.000000
0.647620 1.102487 1.038237 0.000000 0.000000 0.000000
0.737306 1.069173 1.039018 0.000000 0.000000 0.000000
0.731053 1.065892 1.045336 0.000000 0.000000 0.000000
0.675319 1.086918 1.049541 0.000000 0.000000 0.000000
0.714540 1.070027 1.073638 0.000000 0.000000 0.000000
0.642056 1.109318 1.048851 0.000000 0.000000 0.000000
0.697649 1.068394 1.082147 0.000000 0.000000 0.000000
0.711730 1.061982 1.073597 0.000000 0.000000 0.000000
0.691174 1.075068 1.068169 0.000000 0.000000 0.000000
0.671957 1.086486 1.063896 0.000000 0.000000 0.000000
0.686259 1.082968 1.071250 0.000000 0.000000 0.000000
0.674909 1.089836 1.065158 0.000000 0.000000 0.000000
0.669713 1.090005 1.058894 0.000000 0.000000 0.000000
0.666861 1.090132 1.059708 0.000000 0.000000 0.000000
0.701005 1.062418 1.068825 0.000000 0.000000 0.000000
0.658796 1.092027 1.050174 0.000000 0.000000 0.000000
0.671597 1.093107 1.062946 0.000000 0.000000 0.000000
0.685222 1.082246 1.073018 0.000000 0.000000 0.000000
0.676496 1.082359 1.066500 0.000000 0.000000 0.000000
0.633151 1.113022 1.040933 0.000000 0.000000 0.000000
0.701022 1.069287 1.057666 0.000000 0.000000 0.000000
0.739516 1.072598 1.031771 0.000000 0.000000 0.000000
0.653051 1.104239 1.033388 0.000000 0.000000 0.000000
0.748185 1.074348 1.048826 0.000000 0.000000 0.000000
0.654743 1.093427 1.043705 0.000000 0.000000 0.000000
0.641228 1.106650 1.057003 0.000000 0.000000 0.000000
0.699483 1.073009 1.060859 0.000000 0.000000 0.000000
0.694794 1.074614 1.047190 0.000000 0.000000 0.000000
0.740910 1.056506 1.046768 0.000000 0.000000 0.000000
0.742066 1.067704 1.044879 0.000000 0.000000 0.000000
0.733496 1.063302 1.061073 0.000000 0.000000 0.000000
0.686958 1.076078 1.059572 0.000000 0.000000 0.000000
0.677291 1.088485 1.043143 0.000000 0.000000 0.000000
0.737795 1.061886 1.045828 0.000000 0.000000 0.000000
0.662298 1.091595 1.076882 0.000000 0.000000 0.000000
0.676811 1.087294 1.066544 0.000000 0.000000 0.000000
0.706967 1.070884 1.079191 0.000000 0.000000 0.000000
0.709890 1.063661 1.068333 0.000000 0.000000 0.000000
0.738495 1.065365 1.041077 0.000000 0.000000 0.000000
0.641621 1.107070 1.062099 0.000000 0.000000 0.000000
0.673960 1.088971 1.077078 0.000000 0.000000 0.000000
0.716179 1.066570 1.073290 0.000000 0.000000 0.000000
0.657793 1.103844 1.069003 0.000000 0.000000 0.000000
0.664976 1.078973 1.044442 0.000000 0.000000 0.000000
0.684692 1.086393 1.070832 0.000000 0.000000 0.000000
0.650785 1.106403 1.070642 0.000000 0.000000 0.000000
0.686206 1.095576 1.072718 0.000000 0.000000 0.000000
0.661706 1.095786 1.056902 0.000000 0.000000 0.000000
0.655053 1.086074 1.042072 0.000000 0.000000 0.000000
0.656955 1.101850 1.073765 0.000000 0.000000 0.000000
0.755799 1.057562 1.067283 0.000000 0.000000 0.000000
0.741420 1.061645 1.069232 0.000000 0.000000 0.000000
0.743268 1.063568 1.041926 0.000000 0.000000 0.000000
0.751783 1.056054 1.056655 0.000000 0.000000 0.000000
0.634743 1.112713 1.041631 0.000000 0.000000 0.000000
0.735265 1.058315 1.071645 0.000000 0.000000 0.000000
0.732300 1.058368 1.069089 0.000000 0.000000 0.000000
0.753196 1.057670 1.066223 0.000000 0.000000 0.000000
0.757782 1.062841 1.068285 0.000000 0.000000 0.000000
0.742560 1.068963 1.050539 0.000000 0.000000 0.000000
0.748227 1.058082 1.065409 0.000000 0.000000 0.000000
0.739909 1.064318 1.042525 0.000000 0.000000 0.000000
0.745736 1.069714 1.042464 0.000000 0.000000 0.000000
0.745632 1.059356 1.066873 0.000000 0.000000 0.000000
0.669155 1.091389 1.064250 0.000000 0.000000 0.000000
0.659040 1.089278 1.050658 0.000000 0.000000 0.000000
0.747804 1.076216 1.058033 0.000000 0.000000 0.000000
0.748119 1.077015 1.046283 0.000000 0.000000 0.000000
0.666112 1.093473 1.069117 0.000000 0.000000 0.000000
0.668489 1.089598 1.073002 0.000000 0.000000 0.000000
0.661462 1.094139 1.060049 0.000000 0.000000 0.000000
0.676683 1.081737 1.054848 0.000000 0.000000 0.000000
0.752246 1.079281 1.054193 0.000000 0.000000 0.000000
0.745559 1.067455 1.044650 0.000000 0.000000 0.000000
0.682827 1.077869 1.063414 0.000000 0.000000 0.000000
0.691110 1.083970 1.079114 0.000000 0.000000 0.000000
0.656372 1.091413 1.044909 0.000000 0.000000 0.000000
0.662498 1.094787 1.055260 0.000000 0.000000 0.000000
0.681672 1.076851 1.070506 0.000000 0.000000 0.000000
0.693895 1.075046 1.067861 0.000000 0.000000 0.000000
0.722849 1.065747 1.066963 0.000000 0.000000 0.000000
0.749271 1.068500 1.051185 0.000000 0.000000 0.000000
0.676335 1.084350 1.061158 0.000000 0.000000 0.000000
0.676058 1.095693 1.065148 0.000000 0.000000 0.000000
0.662187 1.090943 1.048295 0.000000 0.000000 0.000000
0.740558 1.064044 1.029534 0.000000 0.000000 0.000000
0.637922 1.110351 1.036900 0.000000 0.000000 0.000000
0.648522 1.112240 1.054376 0.000000 0.000000 0.000000
0.675855 1.091218 1.071664 0.000000 0.000000 0.000000
0.636731 1.098236 1.058739 0.000000 0.000000 0.000000
0.682439 1.080005 1.063510 0.000000 0.000000 0.000000
0.708465 1.069870 1.069141 0.000000 0.000000 0.000000
0.638390 1.097722 1.041735 0.000000 0.000000 0.000000
0.658545 1.084144 1.064955 0.000000 0.000000 0.000000
0.695499 1.076801 1.067064 0.000000 0.000000 0.000000
0.648662 1.101260 1.036885 0.000000 0.000000 0.000000
0.637052 1.102518 1.039639 0.000000 0.000000 0.000000
0.756218 1.062396 1.066857 0.000000 0.000000 0.000000
0.646749 1.105378 1.051775 0.000000 0.000000 0.000000
0.641629 1.109964 1.038094 0.000000 0.000000 0.000000
0.742570 1.062296 1.043096 0.000000 0.000000 0.000000
0.647284 1.106393 1.039147 0.000000 0.000000 0.000000
0.673794 1.090397 1.064432 0.000000 0.000000 0.000000
0.686382 1.093286 1.061872 0.000000 0.000000 0.000000
0.732566 1.067339 1.068238 0.000000 0.000000 0.000000
0.676614 1.086007 1.063910 0.000000 0.000000 0.000000
0.693095 1.075947 1.054168 0.000000 0.000000 0.000000
0.749134 1.072701 1.048760 0.000000 0.000000 0.000000
0.708671 1.078112 1.077742 0.000000 0.000000 0.000000
0.715362 1.069905 1.078523 0.000000 0.000000 0.000000
0.646719 1.106901 1.062525 0.000000 0.000000 0.000000
0.706178 1.071923 1.088008 0.000000 0.000000 0.000000
0.652944 1.083132 1.053460 0.000000 0.000000 0.000000
0.648771 1.085531 1.054702 0.000000 0.000000 0.000000
0.738021 1.061108 1.036595 0.000000 0.000000 0.000000
0.740739 1.065107 1.036151 0.000000 0.000000 0.000000
0.738785 1.066050 1.041476 0.000000 0.000000 0.000000
0.743676 1.071099 1.045653 0.000000 0.000000 0.000000
0.736860 1.065328 1.045251 0.000000 0.000000 0.000000
0.641909 1.090239 1.040122 0.000000 0.000000 0.000000
0.742724 1.067871 1.040878 0.000000 0.000000 0.000000
0.741014 1.066390 1.038890 0.000000 0.000000 0.000000
0.745966 1.059277 1.067159 0.000000 0.000000 0.000000
0.651295 1.106157 1.054756 0.000000 0.000000 0.000000
0.697482 1.070453 1.058142 0.000000 0.000000 0.000000
0.668161 1.078590 1.038490 0.000000 0.000000 0.000000
0.666457 1.091328 1.060775 0.000000 0.000000 0.000000
0.647751 1.090859 1.050989 0.000000 0.000000 0.000000
0.704291 1.066509 1.056249 0.000000 0.000000 0.000000
0.658070 1.083881 1.040007 0.000000 0.000000 0.000000
0.722920 1.070265 1.068480 0.000000 0.000000 0.000000
0.672114 1.092258 1.063376 0.000000 0.000000 0.000000
0.691502 1.080348 1.065304 0.000000 0.000000 0.000000
0.733157 1.056906 1.065556 0.000000 0.000000 0.000000
0.746847 1.053436 1.065822 0.000000 0.000000 0.000000
0.637688 1.108148 1.039979 0.000000 0.000000 0.000000
0.734104 1.060044 1.060641 0.000000 0.000000 0.000000
0.650418 1.104586 1.055114 0.000000 0.000000 0.000000
0.693710 1.069324 1.072480 0.000000 0.000000 0.000000
0.716409 1.061285 1.064575 0.000000 0.000000 0.000000
0.657827 1.098920 1.071157 0.000000 0.000000 0.000000
0.743836 1.066248 1.046672 0.000000 0.000000 0.000000
0.660331 1.096787 1.075066 0.000000 0.000000 0.000000
0.741874 1.066311 1.043400 0.000000 0.000000 0.000000
0.740544 1.065866 1.035756 0.000000 0.000000 0.000000
0.738324 1.063181 1.043426 0.000000 0.000000 0.000000
0.680902 1.077740 1.048991 0.000000 0.000000 0.000000
0.655198 1.085413 1.044012 0.000000 0.000000 0.000000
0.739288 1.073928 1.053634 0.000000 0.000000 0.000000
0.671874 1.101771 1.069901 0.000000 0.000000 0.000000
0.650476 1.099139 1.048187 0.000000 0.000000 0.000000
0.657821 1.089971 1.047343 0.000000 0.000000 0.000000
0.707636 1.075458 1.070224 0.000000 0.000000 0.000000
0.739686 1.066370 1.050133 0.000000 0.000000 0.000000
0.667316 1.095286 1.064204 0.000000 0.000000 0.000000
0.749154 1.076678 1.048156 0.000000 0.000000 0.000000
0.646672 1.103836 1.029678 0.000000 0.000000 0.000000
0.740684 1.071115 1.025964 0.000000 0.000000 0.000000
0.737454 1.069676 1.039792 0.000000 0.000000 0.000000
0.729317 1.059761 1.071096 0.000000 0.000000 0.000000
0.742166 1.067510 1.037969 0.000000 0.000000 0.000000
0.740256 1.066970 1.038222 0.000000 0.000000 0.000000
0.740710 1.070167 1.033506 0.000000 0.000000 0.000000
0.742193 1.070359 1.035287 0.000000 0.000000 0.000000
0.694970 1.067694 1.064813 0.000000 0.000000 0.000000
0.711677 1.067495 1.058200 0.000000 0.000000 0.000000
0.715474 1.062703 1.059275 0.000000 0.000000 0.000000
0.738477 1.057845 1.067435 0.000000 0.000000 0.000000
0.659228 1.097067 1.060538 0.000000 0.000000 0.000000
0.713636 1.065460 1.059481 0.000000 0.000000 0.000000
0.705828 1.070146 1.079362 0.000000 0.000000 0.000000
0.714144 1.071711 1.078807 0.000000 0.000000 0.000000
0.708679 1.069127 1.078040 0.000000 0.000000 0.000000
0.740518 1.067428 1.035728 0.000000 0.000000 0.000000
0.700173 1.069464 1.073081 0.000000 0.000000 0.000000
0.703607 1.068886 1.070784 0.000000 0.000000 0.000000
0.645056 1.107029 1.066609 0.000000 0.000000 0.000000
0.657916 1.089363 1.039595 0.000000 0.000000 0.000000
0.707727 1.071377 1.070370 0.000000 0.000000 0.000000
0.703998 1.073230 1.054435 0.000000 0.000000 0.000000
0.706647 1.072992 1.076829 0.000000 0.000000 0.000000
0.658455 1.088791 1.040055 0.000000 0.000000 0.000000
0.742525 1.062568 1.043092 0.000000 0.000000 0.000000
0.739025 1.065519 1.037831 0.000000 0.000000 0.000000
0.668962 1.089686 1.061264 0.000000 0.000000 0.000000
0.686927 1.064948 1.050468 0.000000 0.000000 0.000000
0.725474 1.058826 1.071004 0.000000 0.000000 0.000000
0.658730 1.077106 1.046540 0.000000 0.000000 0.000000
0.734430 1.055821 1.066812 0.000000 0.000000 0.000000
0.671988 1.094533 1.067218 0.000000 0.000000 0.000000
0.639118 1.093295 1.049618 0.000000 0.000000 0.000000
0.695734 1.067654 1.051856 0.000000 0.000000 0.000000
0.693374 1.074270 1.053714 0.000000 0.000000 0.000000
0.684996 1.086874 1.074018 0.000000 0.000000 0.000000
0.724208 1.061946 1.077367 0.000000 0.000000 0.000000
0.684894 1.075003 1.059871 0.000000 0.000000 0.000000
0.675259 1.087611 1.060934 0.000000 0.000000 0.000000
0.648553 1.099006 1.040721 0.000000 0.000000 0.000000
0.735086 1.068707 1.072850 0.000000 0.000000 0.000000
0.707435 1.075574 1.066859 0.000000 0.000000 0.000000
0.675862 1.084481 1.071681 0.000000 0.000000 0.000000
0.653187 1.094060 1.038848 0.000000 0.000000 0.000000
0.642551 1.107720 1.046053 0.000000 0.000000 0.000000
0.742795 1.056436 1.074127 0.000000 0.000000 0.000000
0.647115 1.103087 1.054573 0.000000 0.000000 0.000000
0.653839 1.098785 1.050145 0.000000 0.000000 0.000000
0.642406 1.111702 1.045361 0.000000 0.000000 0.000000
0.744184 1.059796 1.070652 0.000000 0.000000 0.000000
0.755522 1.069094 1.068282 0.000000 0.000000 0.000000
0.694666 1.083444 1.080499 0.000000 0.000000 0.000000
0.697280 1.073256 1.084738 0.000000 0.000000 0.000000
0.664343 1.092926 1.066755 0.000000 0.000000 0.000000
0.706669 1.074270 1.085513 0.000000 0.000000 0.000000
0.736393 1.065310 1.069020 0.000000 0.000000 0.000000
0.740508 1.062200 1.067893 0.000000 0.000000 0.000000
0.704712 1.079383 1.083619 0.000000 0.000000 0.000000
0.747512 1.057597 1.068570 0.000000 0.000000 0.000000
0.725242 1.061735 1.072534 0.000000 0.000000 0.000000
0.714357 1.076805 1.078011 0.000000 0.000000 0.000000
0.703139 1.075443 1.079995 0.000000 0.000000 0.000000
0.756587 1.059112 1.067057 0.000000 0.000000 0.000000
0.731935 1.060392 1.035331 0.000000 0.000000 0.000000
0.744648 1.067744 1.042558 0.000000 0.000000 0.000000
0.728990 1.051928 1.056968 0.000000 0.000000 0.000000
0.736523 1.052598 1.059927 0.000000 0.000000 0.000000
0.734635 1.060694 1.060438 0.000000 0.000000 0.000000
0.705454 1.066216 1.063417 0.000000 0.000000 0.000000
0.732402 1.058698 1.069752 0.000000 0.000000 0.000000
0.733443 1.054932 1.067972 0.000000 0.000000 0.000000
0.752550 1.057482 1.059167 0.000000 0.000000 0.000000
0.665725 1.079659 1.068460 0.000000 0.000000 0.000000
0.649106 1.105078 1.054053 0.000000 0.000000 0.000000
0.721360 1.068313 1.078784 0.000000 0.000000 0.000000
0.705541 1.067379 1.077658 0.000000 0.000000 0.000000
0.675624 1.083462 1.048571 0.000000 0.000000 0.000000
0.740251 1.069601 1.033151 0.000000 0.000000 0.000000
0.671726 1.086721 1.045485 0.000000 0.000000 0.000000
0.635073 1.104459 1.053667 0.000000 0.000000 0.000000
0.682263 1.081501 1.047896 0.000000 0.000000 0.000000
0.691520 1.073357 1.052057 0.000000 0.000000 0.000000
0.684880 1.077612 1.048755 0.000000 0.000000 0.000000
0.700770 1.068130 1.057950 0.000000 0.000000 0.000000
0.735740 1.058007 1.059023 0.000000 0.000000 0.000000
0.682224 1.091761 1.064117 0.000000 0.000000 0.000000
0.651843 1.096226 1.047437 0.000000 0.000000 0.000000
0.673486 1.114084 1.055347 0.000000 0.000000 0.000000
0.734708 1.065179 1.065107 0.000000 0.000000 0.000000
0.715855 1.062760 1.061138 0.000000 0.000000 0.000000
0.711484 1.068580 1.059331 0.000000 0.000000 0.000000
0.638285 1.098762 1.039704 0.000000 0.000000 0.000000
0.673982 1.090410 1.045079 0.000000 0.000000 0.000000
0.739789 1.058478 1.065028 0.000000 0.000000 0.000000
0.710376 1.063046 1.060282 0.000000 0.000000 0.000000
0.694581 1.062558 1.051505 0.000000 0.000000 0.000000
0.642241 1.095871 1.047748 0.000000 0.000000 0.000000
0.714196 1.074678 1.078980 0.000000 0.000000 0.000000
0.667231 1.096516 1.060017 0.000000 0.000000 0.000000
0.716306 1.071141 1.082038 0.000000 0.000000 0.000000
0.720420 1.062157 1.073595 0.000000 0.000000 0.000000
0.681886 1.070717 1.046081 0.000000 0.000000 0.000000
0.687957 1.082667 1.076962 0.000000 0.000000 0.000000
0.711332 1.082140 1.080266 0.000000 0.000000 0.000000
0.730815 1.060182 1.071577 0.000000 0.000000 0.000000
0.691177 1.081120 1.075857 0.000000 0.000000 0.000000
0.678179 1.090460 1.069582 0.000000 0.000000 0.000000
0.705610 1.072907 1.074909 0.000000 0.000000 0.000000
0.647623 1.101860 1.041326 0.000000 0.000000 0.000000
0.673545 1.078782 1.047494 0.000000 0.000000 0.000000
0.641778 1.107361 1.043448 0.000000 0.000000 0.000000
0.651822 1.081687 1.046228 0.000000 0.000000 0.000000
0.643563 1.109100 1.050614 0.000000 0.000000 0.000000
0.676850 1.076151 1.048469 0.000000 0.000000 0.000000
0.645310 1.104074 1.043083 0.000000 0.000000 0.000000
0.670624 1.077400 1.049042 0.000000 0.000000 0.000000
0.685525 1.069872 1.059654 0.000000 0.000000 0.000000
0.641497 1.108183 1.044339 0.000000 0.000000 0.000000
0.756616 1.069326 1.065602 0.000000 0.000000 0.000000
0.679904 1.077848 1.048373 0.000000 0.000000 0.000000
0.648114 1.103642 1.049125 0.000000 0.000000 0.000000
0.643855 1.104700 1.047853 0.000000 0.000000 0.000000
0.759817 1.073857 1.065198 0.000000 0.000000 0.000000
0.667574 1.087388 1.045406 0.000000 0.000000 0.000000
0.738773 1.052454 1.062434 0.000000 0.000000 0.000000
0.661571 1.085143 1.044638 0.000000 0.000000 0.000000
0.738206 1.053056 1.063981 0.000000 0.000000 0.000000
0.675460 1.085920 1.082053 0.000000 0.000000 0.000000
0.666519 1.096154 1.039703 0.000000 0.000000 0.000000
0.649599 1.104744 1.054062 0.000000 0.000000 0.000000
0.715367 1.070181 1.056772 0.000000 0.000000 0.000000
0.688288 1.081761 1.043480 0.000000 0.000000 0.000000
0.645397 1.096234 1.039001 0.000000 0.000000 0.000000
0.647501 1.103008 1.037103 0.000000 0.000000 0.000000
0.665924 1.094228 1.059621 0.000000 0.000000 0.000000
0.661529 1.094691 1.060099 0.000000 0.000000 0.000000
0.710838 1.070525 1.060501 0.000000 0.000000 0.000000
0.665735 1.092160 1.058349 0.000000 0.000000 0.000000
0.655699 1.092072 1.044670 0.000000 0.000000 0.000000
0.723967 1.059080 1.057956 0.000000 0.000000 0.000000
0.647593 1.086299 1.044442 0.000000 0.000000 0.000000
0.655271 1.103988 1.065419 0.000000 0.000000 0.000000
0.712948 1.057704 1.058865 0.000000 0.000000 0.000000
0.676477 1.083903 1.067604 0.000000 0.000000 0.000000
0.716995 1.065414 1.064453 0.000000 0.000000 0.000000
0.675820 1.082435 1.075986 0.000000 0.000000 0.000000
0.654574 1.097343 1.048549 0.000000 0.000000 0.000000
0.664792 1.091481 1.063905 0.000000 0.000000 0.000000
0.647489 1.104419 1.058499 0.000000 0.000000 0.000000
0.692986 1.079346 1.085421 0.000000 0.000000 0.000000
0.652810 1.104596 1.054758 0.000000 0.000000 0.000000
0.741535 1.053091 1.062366 0.000000 0.000000 0.000000
0.707498 1.061526 1.052359 0.000000 0.000000 0.000000
0.677560 1.092115 1.076910 0.000000 0.000000 0.000000
0.693801 1.075200 1.079470 0.000000 0.000000 0.000000
0.665092 1.091250 1.064117 0.000000 0.000000 0.000000
0.719118 1.065750 1.063810 0.000000 0.000000 0.000000
0.667317 1.088660 1.059610 0.000000 0.000000 0.000000
0.645721 1.110242 1.048423 0.000000 0.000000 0.000000
0.695628 1.082075 1.081188 0.000000 0.000000 0.000000
0.652814 1.103629 1.053976 0.000000 0.000000 0.000000
0.750220 1.053061 1.062789 0.000000 0.000000 0.000000
0.693366 1.072169 1.050439 0.000000 0.000000 0.000000
0.666606 1.097561 1.076195 0.000000 0.000000 0.000000
0.705818 1.061165 1.055670 0.000000 0.000000 0.000000
0.648496 1.103092 1.038727 0.000000 0.000000 0.000000
0.642259 1.110844 1.040701 0.000000 0.000000 0.000000
0.740325 1.067115 1.037090 0.000000 0.000000 0.000000
0.672243 1.084263 1.044283 0.000000 0.000000 0.000000
0.660112 1.089514 1.043830 0.000000 0.000000 0.000000
0.663791 1.089639 1.041572 0.000000 0.000000 0.000000
0.669626 1.087012 1.045054 0.000000 0.000000 0.000000
0.660891 1.101873 1.058687 0.000000 0.000000 0.000000
0.744377 1.070153 1.055149 0.000000 0.000000 0.000000
0.744674 1.068112 1.044441 0.000000 0.000000 0.000000
0.654172 1.090295 1.042869 0.000000 0.000000 0.000000
0.748034 1.059880 1.062773 0.000000 0.000000 0.000000
0.740155 1.063269 1.041585 0.000000 0.000000 0.000000
0.677970 1.092175 1.067977 0.000000 0.000000 0.000000
0.658816 1.081837 1.041567 0.000000 0.000000 0.000000
0.679518 1.095602 1.083221 0.000000 0.000000 0.000000
0.693679 1.082088 1.079774 0.000000 0.000000 0.000000
0.661476 1.085105 1.045056 0.000000 0.000000 0.000000
0.688370 1.079993 1.077610 0.000000 0.000000 0.000000
0.743809 1.064241 1.046090 0.000000 0.000000 0.000000
0.750725 1.070803 1.056573 0.000000 0.000000 0.000000
0.664909 1.090873 1.061808 0.000000 0.000000 0.000000
0.664718 1.079854 1.050705 0.000000 0.000000 0.000000
0.704800 1.071737 1.080405 0.000000 0.000000 0.000000
0.739333 1.063251 1.046367 0.000000 0.000000 0.000000
0.748316 1.069243 1.052202 0.000000 0.000000 0.000000
0.687535 1.086273 1.072131 0.000000 0.000000 0.000000
0.661543 1.084676 1.050312 0.000000 0.000000 0.000000
0.678514 1.078072 1.065584 0.000000 0.000000 0.000000
0.653080 1.097860 1.036376 0.000000 0.000000 0.000000
0.735763 1.060832 1.038208 0.000000 0.000000 0.000000
0.755239 1.052637 1.065806 0.000000 0.000000 0.000000
0.739704 1.061817 1.036887 0.000000 0.000000 0.000000
0.744982 1.054452 1.062408 0.000000 0.000000 0.000000
0.667487 1.096698 1.063214 0.000000 0.000000 0.000000
0.672482 1.100784 1.067833 0.000000 0.000000 0.000000
0.660001 1.085036 1.049575 0.000000 0.000000 0.000000
0.632062 1.114655 1.039807 0.000000 0.000000 0.000000
0.736561 1.065329 1.041602 0.000000 0.000000 0.000000
0.642484 1.107783 1.038892 0.000000 0.000000 0.000000
0.703435 1.075974 1.081513 0.000000 0.000000 0.000000
0.651994 1.094920 1.037315 0.000000 0.000000 0.000000
0.747577 1.063415 1.065925 0.000000 0.000000 0.000000
0.710091 1.071557 1.076533 0.000000 0.000000 0.000000
0.701519 1.078919 1.080114 0.000000 0.000000 0.000000
0.698007 1.077284 1.077026 0.000000 0.000000 0.000000
0.657666 1.087092 1.043531 0.000000 0.000000 0.000000
0.736226 1.062176 1.041760 0.000000 0.000000 0.000000
0.757731 1.055628 1.063531 0.000000 0.000000 0.000000
0.754810 1.059697 1.064744 0.000000 0.000000 0.000000
0.695609 1.078344 1.075270 0.000000 0.000000 0.000000
0.743949 1.055461 1.070566 0.000000 0.000000 0.000000
0.694456 1.079055 1.070356 0.000000 0.000000 0.000000
0.689033 1.081912 1.071110 0.000000 0.000000 0.000000
0.740754 1.053978 1.068746 0.000000 0.000000 0.000000
0.698175 1.080053 1.073702 0.000000 0.000000 0.000000
0.699804 1.078541 1.079171 0.000000 0.000000 0.000000
0.747238 1.068769 1.049418 0.000000 0.000000 0.000000
0.706891 1.059238 1.056954 0.000000 0.000000 0.000000
0.752020 1.070549 1.060124 0.000000 0.000000 0.000000
0.679121 1.087243 1.072366 0.000000 0.000000 0.000000
0.744349 1.067361 1.043856 0.000000 0.000000 0.000000
0.667071 1.098791 1.062086 0.000000 0.000000 0.000000
0.667554 1.100008 1.070195 0.000000 0.000000 0.000000
0.672431 1.092217 1.064693 0.000000 0.000000 0.000000
0.652067 1.095432 1.037831 0.000000 0.000000 0.000000
0.759417 1.068547 1.066575 0.000000 0.000000 0.000000
0.745727 1.065658 1.052712 0.000000 0.000000 0.000000
0.640826 1.105733 1.039879 0.000000 0.000000 0.000000
0.702294 1.071381 1.059541 0.000000 0.000000 0.000000
0.682773 1.085130 1.068093 0.000000 0.000000 0.000000
0.671195 1.091428 1.062626 0.000000 0.000000 0.000000
0.673845 1.089771 1.065672 0.000000 0.000000 0.000000
0.672082 1.092097 1.071464 0.000000 0.000000 0.000000
0.673473 1.091037 1.065359 0.000000 0.000000 0.000000
0.645645 1.105259 1.064855 0.000000 0.000000 0.000000
0.711206 1.062796 1.058576 0.000000 0.000000 0.000000
0.665153 1.097570 1.061551 0.000000 0.000000 0.000000
0.661340 1.094469 1.061824 0.000000 0.000000 0.000000
0.660036 1.098586 1.057245 0.000000 0.000000 0.000000
0.666926 1.092880 1.065351 0.000000 0.000000 0.000000
0.673963 1.094290 1.067603 0.000000 0.000000 0.000000
0.652069 1.097246 1.069468 0.000000 0.000000 0.000000
0.648079 1.104562 1.068932 0.000000 0.000000 0.000000
0.746403 1.064882 1.052393 0.000000 0.000000 0.000000
0.716819 1.071710 1.082213 0.000000 0.000000 0.000000
0.743651 1.057398 1.059914 0.000000 0.000000 0.000000
0.740785 1.063881 1.036287 0.000000 0.000000 0.000000
0.745834 1.069185 1.055260 0.000000 0.000000 0.000000
0.737362 1.067251 1.038448 0.000000 0.000000 0.000000
0.700827 1.068217 1.050475 0.000000 0.000000 0.000000
0.738113 1.064463 1.027860 0.000000 0.000000 0.000000
0.741952 1.065947 1.035096 0.000000 0.000000 0.000000
0.739856 1.064888 1.032008 0.000000 0.000000 0.000000
0.710860 1.065927 1.082185 0.000000 0.000000 0.000000
0.743849 1.064359 1.051169 0.000000 0.000000 0.000000
0.735927 1.072648 1.055968 0.000000 0.000000 0.000000
0.697413 1.073786 1.050172 0.000000 0.000000 0.000000
0.738332 1.051981 1.073052 0.000000 0.000000 0.000000
0.711248 1.076212 1.073352 0.000000 0.000000 0.000000
0.736054 1.068065 1.057928 0.000000 0.000000 0.000000
0.705495 1.069098 1.051284 0.000000 0.000000 0.000000
0.741651 1.062823 1.063514 0.000000 0.000000 0.000000
0.718989 1.075043 1.078801 0.000000 0.000000 0.000000
0.663029 1.090347 1.037267 0.000000 0.000000 0.000000
0.718173 1.058354 1.060312 0.000000 0.000000 0.000000
0.683875 1.080040 1.048576 0.000000 0.000000 0.000000
0.694425 1.074410 1.050743 0.000000 0.000000 0.000000
0.648565 1.091191 1.039152 0.000000 0.000000 0.000000
0.698761 1.075518 1.046632 0.000000 0.000000 0.000000
0.672342 1.072545 1.044238 0.000000 0.000000 0.000000
0.708619 1.061797 1.058258 0.000000 0.000000 0.000000
0.696324 1.069330 1.053917 0.000000 0.000000 0.000000
0.689556 1.076158 1.050354 0.000000 0.000000 0.000000
0.699295 1.081287 1.081844 0.000000 0.000000 0.000000
0.679444 1.070703 1.063807 0.000000 0.000000 0.000000
0.706458 1.065849 1.057370 0.000000 0.000000 0.000000
0.680600 1.076784 1.050883 0.000000 0.000000 0.000000
0.686285 1.062796 1.064012 0.000000 0.000000 0.000000
0.706146 1.062922 1.059241 0.000000 0.000000 0.000000
0.710114 1.066161 1.057415 0.000000 0.000000 0.000000
0.683141 1.074604 1.058617 0.000000 0.000000 0.000000
0.677345 1.071395 1.053176 0.000000 0.000000 0.000000
0.676229 1.067904 1.044984 0.000000 0.000000 0.000000
0.678775 1.067671 1.052105 0.000000 0.000000 0.000000
0.690012 1.070080 1.057520 0.000000 0.000000 0.000000
0.698094 1.061916 1.071526 0.000000 0.000000 0.000000
0.710516 1.065198 1.065943 0.000000 0.000000 0.000000
0.717731 1.062358 1.059768 0.000000 0.000000 0.000000
0.692494 1.070113 1.049354 0.000000 0.000000 0.000000
0.674378 1.076758 1.052184 0.000000 0.000000 0.000000
0.675338 1.069698 1.049603 0.000000 0.000000 0.000000
0.681719 1.064774 1.056845 0.000000 0.000000 0.000000
