ply
format ascii 1.0
comment VCGLIB generated
obj_info Generated by SPFormer!
element vertex 719
property float x
property float y
property float z
property float nx
property float ny
property float nz
end_header
-0.094447 1.005231 3.163841 0.000000 0.000000 0.000000
0.382095 1.242465 2.178332 0.000000 0.000000 0.000000
0.366084 1.266670 2.205354 0.000000 0.000000 0.000000
0.387092 1.262665 2.207349 0.000000 0.000000 0.000000
0.376460 1.287314 2.175020 0.000000 0.000000 0.000000
0.395443 1.242000 2.201572 0.000000 0.000000 0.000000
-0.085683 0.967252 3.170363 0.000000 0.000000 0.000000
-0.112685 1.056206 3.203360 0.000000 0.000000 0.000000
-0.111706 1.027012 3.189869 0.000000 0.000000 0.000000
-0.118692 1.060752 3.216410 0.000000 0.000000 0.000000
-0.109244 1.020752 3.208055 0.000000 0.000000 0.000000
-0.113133 1.026833 3.212150 0.000000 0.000000 0.000000
-0.116704 1.041584 3.198511 0.000000 0.000000 0.000000
-0.085975 0.961945 3.166506 0.000000 0.000000 0.000000
-0.109880 1.045760 3.200955 0.000000 0.000000 0.000000
-0.100654 1.037473 3.184554 0.000000 0.000000 0.000000
-0.111621 1.043136 3.214708 0.000000 0.000000 0.000000
-0.082495 0.963719 3.177416 0.000000 0.000000 0.000000
0.368257 1.241138 2.209275 0.000000 0.000000 0.000000
-0.110643 1.024003 3.206539 0.000000 0.000000 0.000000
-0.122183 1.009397 3.205044 0.000000 0.000000 0.000000
-0.112594 1.021461 3.191309 0.000000 0.000000 0.000000
-0.110916 1.051866 3.204374 0.000000 0.000000 0.000000
-0.115323 1.057890 3.206545 0.000000 0.000000 0.000000
-0.098462 1.001863 3.189890 0.000000 0.000000 0.000000
-0.116963 1.025213 3.194581 0.000000 0.000000 0.000000
-0.122257 1.057492 3.220270 0.000000 0.000000 0.000000
-0.113492 1.018529 3.191287 0.000000 0.000000 0.000000
0.362872 1.262059 2.226222 0.000000 0.000000 0.000000
-0.098400 0.994894 3.166229 0.000000 0.000000 0.000000
-0.125233 1.044353 3.220778 0.000000 0.000000 0.000000
-0.104472 1.041527 3.217955 0.000000 0.000000 0.000000
-0.086526 0.970978 3.199207 0.000000 0.000000 0.000000
-0.110173 1.040813 3.204844 0.000000 0.000000 0.000000
-0.122588 1.046248 3.218555 0.000000 0.000000 0.000000
-0.100886 1.007792 3.180523 0.000000 0.000000 0.000000
-0.104452 1.013119 3.198298 0.000000 0.000000 0.000000
-0.123969 1.047342 3.220965 0.000000 0.000000 0.000000
0.372229 1.287406 2.170227 0.000000 0.000000 0.000000
-0.117924 1.035602 3.212169 0.000000 0.000000 0.000000
-0.120600 1.058368 3.219766 0.000000 0.000000 0.000000
-0.104646 1.053195 3.208735 0.000000 0.000000 0.000000
-0.119468 1.040192 3.220404 0.000000 0.000000 0.000000
-0.108768 1.029972 3.208591 0.000000 0.000000 0.000000
-0.119837 1.064457 3.220504 0.000000 0.000000 0.000000
-0.121307 1.058279 3.222665 0.000000 0.000000 0.000000
0.380668 1.286296 2.174920 0.000000 0.000000 0.000000
0.363299 1.269382 2.197999 0.000000 0.000000 0.000000
-0.108889 1.023161 3.203063 0.000000 0.000000 0.000000
-0.123471 1.071974 3.225771 0.000000 0.000000 0.000000
-0.106331 1.059704 3.208786 0.000000 0.000000 0.000000
-0.091961 1.003813 3.163712 0.000000 0.000000 0.000000
-0.098707 1.045627 3.190932 0.000000 0.000000 0.000000
-0.096635 1.010370 3.189400 0.000000 0.000000 0.000000
-0.125701 1.056247 3.222188 0.000000 0.000000 0.000000
-0.125187 1.066341 3.227430 0.000000 0.000000 0.000000
0.225669 0.983431 2.700711 0.000000 0.000000 0.000000
0.384804 1.245441 2.213366 0.000000 0.000000 0.000000
-0.113168 1.016244 3.187891 0.000000 0.000000 0.000000
-0.093811 1.022000 3.183253 0.000000 0.000000 0.000000
0.222147 0.992911 2.696237 0.000000 0.000000 0.000000
0.219510 0.984227 2.688267 0.000000 0.000000 0.000000
0.364080 1.268182 2.203529 0.000000 0.000000 0.000000
-0.095842 1.008373 3.173913 0.000000 0.000000 0.000000
-0.101927 1.010023 3.179514 0.000000 0.000000 0.000000
-0.099539 1.007383 3.177383 0.000000 0.000000 0.000000
-0.106508 1.033999 3.214653 0.000000 0.000000 0.000000
-0.116191 1.065288 3.215325 0.000000 0.000000 0.000000
-0.085944 1.021030 3.175781 0.000000 0.000000 0.000000
-0.121722 1.025963 3.203742 0.000000 0.000000 0.000000
-0.094920 0.999381 3.173599 0.000000 0.000000 0.000000
-0.101254 1.008893 3.186176 0.000000 0.000000 0.000000
0.387903 1.268848 2.181301 0.000000 0.000000 0.000000
-0.125164 1.048525 3.223748 0.000000 0.000000 0.000000
0.377446 1.250437 2.179759 0.000000 0.000000 0.000000
0.383132 1.243130 2.197904 0.000000 0.000000 0.000000
-0.113843 1.023016 3.193438 0.000000 0.000000 0.000000
0.372977 1.243829 2.172555 0.000000 0.000000 0.000000
-0.080266 1.005232 3.156457 0.000000 0.000000 0.000000
-0.087157 1.014386 3.167386 0.000000 0.000000 0.000000
0.202461 0.975856 2.736475 0.000000 0.000000 0.000000
-0.110149 1.019011 3.180741 0.000000 0.000000 0.000000
0.386024 1.245783 2.177455 0.000000 0.000000 0.000000
-0.117104 1.069229 3.222499 0.000000 0.000000 0.000000
0.371950 1.245923 2.212605 0.000000 0.000000 0.000000
0.380295 1.240264 2.177966 0.000000 0.000000 0.000000
-0.119042 1.063098 3.217892 0.000000 0.000000 0.000000
-0.107476 1.052963 3.196438 0.000000 0.000000 0.000000
-0.123165 1.055328 3.216169 0.000000 0.000000 0.000000
0.383115 1.242290 2.178997 0.000000 0.000000 0.000000
0.390287 1.246833 2.181306 0.000000 0.000000 0.000000
-0.114554 1.063916 3.213062 0.000000 0.000000 0.000000
-0.124055 1.025561 3.210450 0.000000 0.000000 0.000000
0.369394 1.240184 2.167869 0.000000 0.000000 0.000000
0.377870 1.257052 2.212404 0.000000 0.000000 0.000000
0.387197 1.275854 2.179910 0.000000 0.000000 0.000000
0.383497 1.261527 2.180759 0.000000 0.000000 0.000000
0.388433 1.252313 2.171646 0.000000 0.000000 0.000000
-0.112556 1.012184 3.186473 0.000000 0.000000 0.000000
-0.114854 1.037576 3.208209 0.000000 0.000000 0.000000
-0.099230 1.015039 3.176324 0.000000 0.000000 0.000000
0.385945 1.241535 2.172548 0.000000 0.000000 0.000000
-0.120656 1.055520 3.223067 0.000000 0.000000 0.000000
0.395663 1.246162 2.192139 0.000000 0.000000 0.000000
0.363097 1.261183 2.223646 0.000000 0.000000 0.000000
-0.088194 0.996504 3.162992 0.000000 0.000000 0.000000
-0.082305 0.965073 3.177864 0.000000 0.000000 0.000000
0.220314 0.991305 2.690805 0.000000 0.000000 0.000000
0.385121 1.244716 2.180141 0.000000 0.000000 0.000000
0.367939 1.255784 2.217042 0.000000 0.000000 0.000000
0.210498 0.986667 2.703058 0.000000 0.000000 0.000000
0.380802 1.257117 2.173526 0.000000 0.000000 0.000000
-0.091356 1.010834 3.178779 0.000000 0.000000 0.000000
-0.090533 1.018869 3.186759 0.000000 0.000000 0.000000
-0.110316 1.052363 3.196630 0.000000 0.000000 0.000000
-0.088895 1.020821 3.175677 0.000000 0.000000 0.000000
0.396675 1.241638 2.163671 0.000000 0.000000 0.000000
0.216471 0.986307 2.721646 0.000000 0.000000 0.000000
0.210218 0.983574 2.724850 0.000000 0.000000 0.000000
-0.122566 1.061010 3.223324 0.000000 0.000000 0.000000
0.384383 1.274345 2.176481 0.000000 0.000000 0.000000
-0.108343 1.037698 3.190649 0.000000 0.000000 0.000000
0.394642 1.272801 2.195034 0.000000 0.000000 0.000000
-0.103857 1.053725 3.195892 0.000000 0.000000 0.000000
0.224092 0.985826 2.703656 0.000000 0.000000 0.000000
0.197076 0.978684 2.711069 0.000000 0.000000 0.000000
0.224511 0.986838 2.701204 0.000000 0.000000 0.000000
0.380892 1.257692 2.174634 0.000000 0.000000 0.000000
-0.088428 1.005002 3.166553 0.000000 0.000000 0.000000
-0.120554 1.035290 3.219160 0.000000 0.000000 0.000000
0.374246 1.261496 2.188808 0.000000 0.000000 0.000000
0.384307 1.242918 2.187765 0.000000 0.000000 0.000000
0.238226 0.995814 2.697721 0.000000 0.000000 0.000000
-0.100179 1.023273 3.188982 0.000000 0.000000 0.000000
0.238057 0.984570 2.682703 0.000000 0.000000 0.000000
-0.113584 1.010238 3.186867 0.000000 0.000000 0.000000
-0.109478 1.031663 3.187454 0.000000 0.000000 0.000000
-0.113543 1.007688 3.180697 0.000000 0.000000 0.000000
0.222245 0.991554 2.713900 0.000000 0.000000 0.000000
0.379052 1.283027 2.174292 0.000000 0.000000 0.000000
0.379803 1.285783 2.175549 0.000000 0.000000 0.000000
0.373399 1.254876 2.185760 0.000000 0.000000 0.000000
-0.102238 1.002898 3.195126 0.000000 0.000000 0.000000
-0.127569 1.044499 3.216097 0.000000 0.000000 0.000000
-0.088820 0.991455 3.166942 0.000000 0.000000 0.000000
-0.125203 1.029542 3.212230 0.000000 0.000000 0.000000
0.231472 0.992419 2.698110 0.000000 0.000000 0.000000
0.382033 1.287927 2.173902 0.000000 0.000000 0.000000
-0.114295 1.063324 3.205572 0.000000 0.000000 0.000000
0.380561 1.267514 2.176549 0.000000 0.000000 0.000000
0.383196 1.270484 2.181522 0.000000 0.000000 0.000000
-0.113024 1.024615 3.185203 0.000000 0.000000 0.000000
0.381519 1.280675 2.176978 0.000000 0.000000 0.000000
0.380586 1.245006 2.182400 0.000000 0.000000 0.000000
-0.106414 1.011146 3.203409 0.000000 0.000000 0.000000
0.361926 1.278987 2.210587 0.000000 0.000000 0.000000
0.366940 1.248132 2.213035 0.000000 0.000000 0.000000
-0.101355 1.024060 3.178481 0.000000 0.000000 0.000000
0.392718 1.261242 2.212903 0.000000 0.000000 0.000000
-0.099012 0.989767 3.180391 0.000000 0.000000 0.000000
0.382194 1.254495 2.210016 0.000000 0.000000 0.000000
-0.125526 1.034805 3.215096 0.000000 0.000000 0.000000
0.236174 0.991464 2.686900 0.000000 0.000000 0.000000
0.383721 1.254277 2.172805 0.000000 0.000000 0.000000
0.385676 1.280653 2.178098 0.000000 0.000000 0.000000
0.396265 1.255126 2.195822 0.000000 0.000000 0.000000
-0.105021 1.001321 3.192698 0.000000 0.000000 0.000000
-0.084810 1.007336 3.162910 0.000000 0.000000 0.000000
-0.118913 1.041533 3.216014 0.000000 0.000000 0.000000
0.367940 1.264225 2.204665 0.000000 0.000000 0.000000
-0.125680 1.038543 3.222152 0.000000 0.000000 0.000000
0.229036 0.995373 2.706522 0.000000 0.000000 0.000000
-0.114661 1.033411 3.188157 0.000000 0.000000 0.000000
-0.095759 1.001343 3.180083 0.000000 0.000000 0.000000
0.203709 0.981214 2.725518 0.000000 0.000000 0.000000
0.197036 0.985297 2.719565 0.000000 0.000000 0.000000
-0.124992 1.034504 3.216641 0.000000 0.000000 0.000000
-0.116612 1.028301 3.188062 0.000000 0.000000 0.000000
0.379507 1.281213 2.175199 0.000000 0.000000 0.000000
0.398246 1.241359 2.170021 0.000000 0.000000 0.000000
0.225494 0.986909 2.695294 0.000000 0.000000 0.000000
0.370269 1.262373 2.198056 0.000000 0.000000 0.000000
0.363826 1.273065 2.218803 0.000000 0.000000 0.000000
-0.121736 1.052816 3.210352 0.000000 0.000000 0.000000
-0.129155 1.062709 3.226515 0.000000 0.000000 0.000000
0.199089 0.984640 2.714674 0.000000 0.000000 0.000000
-0.127542 1.025110 3.210373 0.000000 0.000000 0.000000
0.217230 0.995483 2.704252 0.000000 0.000000 0.000000
0.205129 0.986668 2.714075 0.000000 0.000000 0.000000
-0.111734 1.052911 3.213380 0.000000 0.000000 0.000000
-0.115691 1.047255 3.207272 0.000000 0.000000 0.000000
-0.127252 1.057034 3.226542 0.000000 0.000000 0.000000
-0.129630 1.037107 3.217938 0.000000 0.000000 0.000000
0.386126 1.273422 2.182885 0.000000 0.000000 0.000000
-0.119794 1.065258 3.219398 0.000000 0.000000 0.000000
-0.125991 1.052396 3.218805 0.000000 0.000000 0.000000
0.363481 1.263471 2.224727 0.000000 0.000000 0.000000
0.392108 1.241584 2.173022 0.000000 0.000000 0.000000
-0.129578 1.037860 3.224892 0.000000 0.000000 0.000000
-0.103624 1.015308 3.185599 0.000000 0.000000 0.000000
-0.118146 1.049320 3.204946 0.000000 0.000000 0.000000
-0.117730 1.005018 3.196423 0.000000 0.000000 0.000000
-0.121865 1.044304 3.209197 0.000000 0.000000 0.000000
-0.109274 0.998720 3.183632 0.000000 0.000000 0.000000
-0.092299 0.996072 3.161019 0.000000 0.000000 0.000000
-0.119635 1.051815 3.213599 0.000000 0.000000 0.000000
-0.113947 1.002306 3.192548 0.000000 0.000000 0.000000
-0.084425 1.012558 3.166813 0.000000 0.000000 0.000000
0.204203 0.981378 2.707358 0.000000 0.000000 0.000000
-0.104178 1.000087 3.173608 0.000000 0.000000 0.000000
0.224336 0.994164 2.690238 0.000000 0.000000 0.000000
0.222162 0.993028 2.697636 0.000000 0.000000 0.000000
-0.101123 0.995203 3.178091 0.000000 0.000000 0.000000
0.360983 1.277840 2.206983 0.000000 0.000000 0.000000
0.383951 1.262267 2.202879 0.000000 0.000000 0.000000
0.388823 1.248215 2.217810 0.000000 0.000000 0.000000
-0.110058 1.040048 3.211479 0.000000 0.000000 0.000000
-0.083460 1.003539 3.160048 0.000000 0.000000 0.000000
-0.101243 1.006607 3.188661 0.000000 0.000000 0.000000
-0.097269 1.047075 3.200385 0.000000 0.000000 0.000000
-0.091641 1.000327 3.167119 0.000000 0.000000 0.000000
-0.087418 1.005759 3.163112 0.000000 0.000000 0.000000
0.204995 0.977819 2.727602 0.000000 0.000000 0.000000
-0.126154 1.048763 3.221925 0.000000 0.000000 0.000000
-0.115209 1.058811 3.209527 0.000000 0.000000 0.000000
-0.087564 1.014919 3.170901 0.000000 0.000000 0.000000
-0.085312 1.005532 3.163379 0.000000 0.000000 0.000000
-0.099752 1.025224 3.184332 0.000000 0.000000 0.000000
-0.113121 1.060076 3.213186 0.000000 0.000000 0.000000
-0.103246 1.017976 3.181302 0.000000 0.000000 0.000000
-0.102775 0.999088 3.180328 0.000000 0.000000 0.000000
0.224240 0.990565 2.708621 0.000000 0.000000 0.000000
0.392436 1.240576 2.205958 0.000000 0.000000 0.000000
-0.123053 1.043716 3.220476 0.000000 0.000000 0.000000
-0.126964 1.040258 3.215881 0.000000 0.000000 0.000000
0.362682 1.262905 2.227401 0.000000 0.000000 0.000000
0.360059 1.261335 2.225244 0.000000 0.000000 0.000000
0.380761 1.262071 2.197655 0.000000 0.000000 0.000000
0.222850 0.989328 2.710649 0.000000 0.000000 0.000000
-0.093141 1.031028 3.203436 0.000000 0.000000 0.000000
-0.114222 1.011168 3.206864 0.000000 0.000000 0.000000
-0.100887 1.049060 3.194140 0.000000 0.000000 0.000000
-0.095894 1.029189 3.190300 0.000000 0.000000 0.000000
-0.114505 1.015624 3.207928 0.000000 0.000000 0.000000
0.226206 0.987117 2.710299 0.000000 0.000000 0.000000
-0.095516 1.044627 3.182699 0.000000 0.000000 0.000000
0.223824 0.993844 2.706481 0.000000 0.000000 0.000000
0.383991 1.277059 2.183986 0.000000 0.000000 0.000000
0.219847 0.978993 2.710928 0.000000 0.000000 0.000000
-0.079452 1.000399 3.152590 0.000000 0.000000 0.000000
-0.087516 1.020104 3.168867 0.000000 0.000000 0.000000
-0.104522 1.037158 3.186349 0.000000 0.000000 0.000000
0.222818 0.995554 2.691703 0.000000 0.000000 0.000000
-0.123008 1.051676 3.215456 0.000000 0.000000 0.000000
-0.082124 1.013258 3.164093 0.000000 0.000000 0.000000
0.217239 0.982306 2.707227 0.000000 0.000000 0.000000
-0.126428 1.036758 3.211416 0.000000 0.000000 0.000000
-0.122848 1.023295 3.200564 0.000000 0.000000 0.000000
-0.075543 1.000787 3.149862 0.000000 0.000000 0.000000
-0.110759 1.020386 3.210635 0.000000 0.000000 0.000000
0.234603 0.996220 2.687923 0.000000 0.000000 0.000000
-0.126170 1.053194 3.222702 0.000000 0.000000 0.000000
-0.124032 1.026558 3.205615 0.000000 0.000000 0.000000
0.382282 1.277165 2.173397 0.000000 0.000000 0.000000
0.368443 1.269984 2.197961 0.000000 0.000000 0.000000
0.375293 1.253389 2.226678 0.000000 0.000000 0.000000
0.371484 1.258491 2.215987 0.000000 0.000000 0.000000
-0.109936 0.999831 3.190330 0.000000 0.000000 0.000000
-0.101721 1.050743 3.195260 0.000000 0.000000 0.000000
0.375466 1.241410 2.213431 0.000000 0.000000 0.000000
-0.125202 1.017393 3.204568 0.000000 0.000000 0.000000
0.198363 0.976856 2.715992 0.000000 0.000000 0.000000
-0.110147 1.063468 3.197518 0.000000 0.000000 0.000000
0.364103 1.243186 2.161617 0.000000 0.000000 0.000000
0.388826 1.278718 2.182423 0.000000 0.000000 0.000000
0.390502 1.257901 2.185308 0.000000 0.000000 0.000000
0.361620 1.261873 2.226441 0.000000 0.000000 0.000000
-0.111504 1.062318 3.205795 0.000000 0.000000 0.000000
-0.112840 1.005072 3.197337 0.000000 0.000000 0.000000
-0.129804 1.033324 3.216430 0.000000 0.000000 0.000000
-0.113149 1.058436 3.202540 0.000000 0.000000 0.000000
0.239185 0.988723 2.687987 0.000000 0.000000 0.000000
0.217763 0.980625 2.692214 0.000000 0.000000 0.000000
-0.100911 1.000122 3.170615 0.000000 0.000000 0.000000
-0.130022 1.033824 3.210475 0.000000 0.000000 0.000000
-0.116595 1.032977 3.218884 0.000000 0.000000 0.000000
0.389255 1.253025 2.211528 0.000000 0.000000 0.000000
-0.107019 1.043275 3.200859 0.000000 0.000000 0.000000
-0.119130 1.008541 3.202608 0.000000 0.000000 0.000000
-0.094818 1.034225 3.191274 0.000000 0.000000 0.000000
0.378154 1.292194 2.174177 0.000000 0.000000 0.000000
0.385400 1.256681 2.209407 0.000000 0.000000 0.000000
0.386576 1.258121 2.214109 0.000000 0.000000 0.000000
-0.117141 1.063758 3.207473 0.000000 0.000000 0.000000
-0.110228 1.059482 3.210536 0.000000 0.000000 0.000000
0.221658 0.976700 2.702895 0.000000 0.000000 0.000000
-0.112721 1.064161 3.215669 0.000000 0.000000 0.000000
0.376416 1.248477 2.208910 0.000000 0.000000 0.000000
0.388677 1.266476 2.201059 0.000000 0.000000 0.000000
0.366314 1.270841 2.208272 0.000000 0.000000 0.000000
0.197672 0.979728 2.718444 0.000000 0.000000 0.000000
0.385378 1.261894 2.208646 0.000000 0.000000 0.000000
0.398320 1.259575 2.204266 0.000000 0.000000 0.000000
-0.122508 1.011148 3.199848 0.000000 0.000000 0.000000
-0.126086 1.022646 3.204125 0.000000 0.000000 0.000000
0.367175 1.261225 2.203284 0.000000 0.000000 0.000000
-0.121313 1.010275 3.202573 0.000000 0.000000 0.000000
-0.113418 1.007644 3.192259 0.000000 0.000000 0.000000
-0.122499 1.061319 3.220279 0.000000 0.000000 0.000000
0.224808 0.987826 2.711046 0.000000 0.000000 0.000000
-0.126351 1.025829 3.208556 0.000000 0.000000 0.000000
-0.127078 1.026577 3.211532 0.000000 0.000000 0.000000
-0.113799 0.998181 3.193401 0.000000 0.000000 0.000000
0.223706 0.984223 2.710369 0.000000 0.000000 0.000000
0.384121 1.256375 2.212265 0.000000 0.000000 0.000000
-0.117173 1.007286 3.193223 0.000000 0.000000 0.000000
0.235040 0.993274 2.680013 0.000000 0.000000 0.000000
-0.121097 1.014888 3.202952 0.000000 0.000000 0.000000
0.364872 1.268524 2.199976 0.000000 0.000000 0.000000
0.388053 1.271809 2.202664 0.000000 0.000000 0.000000
0.388517 1.255453 2.214109 0.000000 0.000000 0.000000
-0.087832 1.004459 3.159657 0.000000 0.000000 0.000000
0.381986 1.248185 2.208149 0.000000 0.000000 0.000000
-0.113738 1.018299 3.190968 0.000000 0.000000 0.000000
-0.116293 1.028595 3.197237 0.000000 0.000000 0.000000
-0.121456 1.004827 3.191360 0.000000 0.000000 0.000000
-0.122139 1.058758 3.225184 0.000000 0.000000 0.000000
0.385195 1.282536 2.181283 0.000000 0.000000 0.000000
0.388723 1.291672 2.175517 0.000000 0.000000 0.000000
0.381580 1.265513 2.173195 0.000000 0.000000 0.000000
0.382063 1.264639 2.173316 0.000000 0.000000 0.000000
0.210651 0.976722 2.719138 0.000000 0.000000 0.000000
0.380140 1.245035 2.218648 0.000000 0.000000 0.000000
0.209061 0.988673 2.712858 0.000000 0.000000 0.000000
-0.100713 1.040329 3.184767 0.000000 0.000000 0.000000
0.366372 1.241226 2.164449 0.000000 0.000000 0.000000
0.360324 1.262175 2.222488 0.000000 0.000000 0.000000
0.381182 1.277904 2.174550 0.000000 0.000000 0.000000
0.383084 1.268113 2.173029 0.000000 0.000000 0.000000
0.383643 1.249914 2.172149 0.000000 0.000000 0.000000
0.380971 1.276761 2.173734 0.000000 0.000000 0.000000
0.362812 1.263286 2.228673 0.000000 0.000000 0.000000
0.384909 1.263970 2.172455 0.000000 0.000000 0.000000
0.383643 1.275287 2.180852 0.000000 0.000000 0.000000
-0.098375 1.039369 3.185732 0.000000 0.000000 0.000000
0.364460 1.262039 2.227185 0.000000 0.000000 0.000000
0.214953 0.986414 2.703817 0.000000 0.000000 0.000000
0.380713 1.260689 2.199951 0.000000 0.000000 0.000000
0.221877 0.995779 2.696365 0.000000 0.000000 0.000000
0.232396 0.985672 2.683527 0.000000 0.000000 0.000000
-0.082315 1.008545 3.162835 0.000000 0.000000 0.000000
0.203785 0.990260 2.714593 0.000000 0.000000 0.000000
-0.102477 1.045774 3.195037 0.000000 0.000000 0.000000
-0.105632 1.037660 3.186416 0.000000 0.000000 0.000000
0.363301 1.258500 2.221166 0.000000 0.000000 0.000000
-0.087898 1.005486 3.163363 0.000000 0.000000 0.000000
0.211849 0.979869 2.724243 0.000000 0.000000 0.000000
0.218275 0.981396 2.714578 0.000000 0.000000 0.000000
0.211935 0.975253 2.721953 0.000000 0.000000 0.000000
0.369597 1.247931 2.206302 0.000000 0.000000 0.000000
0.366383 1.256239 2.217609 0.000000 0.000000 0.000000
0.373829 1.252372 2.203966 0.000000 0.000000 0.000000
0.370890 1.254543 2.199824 0.000000 0.000000 0.000000
-0.076307 1.003299 3.153853 0.000000 0.000000 0.000000
0.391883 1.272626 2.200967 0.000000 0.000000 0.000000
0.385442 1.264448 2.202074 0.000000 0.000000 0.000000
0.386436 1.265451 2.179923 0.000000 0.000000 0.000000
0.381081 1.269420 2.198182 0.000000 0.000000 0.000000
0.362396 1.272897 2.198794 0.000000 0.000000 0.000000
-0.090386 1.032634 3.174369 0.000000 0.000000 0.000000
0.239151 0.982075 2.680880 0.000000 0.000000 0.000000
-0.119019 1.065238 3.221975 0.000000 0.000000 0.000000
0.361807 1.261603 2.222104 0.000000 0.000000 0.000000
0.395105 1.265217 2.192423 0.000000 0.000000 0.000000
0.376244 1.254134 2.212933 0.000000 0.000000 0.000000
0.366357 1.275332 2.209680 0.000000 0.000000 0.000000
0.363326 1.279494 2.211129 0.000000 0.000000 0.000000
0.224953 0.987875 2.706463 0.000000 0.000000 0.000000
0.212067 0.981459 2.715882 0.000000 0.000000 0.000000
-0.082448 1.015294 3.163155 0.000000 0.000000 0.000000
-0.098209 0.994388 3.175545 0.000000 0.000000 0.000000
0.244012 1.003126 2.693681 0.000000 0.000000 0.000000
-0.123666 1.055459 3.224945 0.000000 0.000000 0.000000
0.373108 1.240772 2.221129 0.000000 0.000000 0.000000
0.374860 1.259147 2.194701 0.000000 0.000000 0.000000
0.387535 1.271995 2.182000 0.000000 0.000000 0.000000
0.192001 0.983280 2.713311 0.000000 0.000000 0.000000
-0.116727 1.026700 3.214610 0.000000 0.000000 0.000000
0.197694 0.977225 2.718795 0.000000 0.000000 0.000000
0.385900 1.285044 2.180553 0.000000 0.000000 0.000000
0.382679 1.273154 2.184141 0.000000 0.000000 0.000000
0.380828 1.269523 2.176405 0.000000 0.000000 0.000000
0.375193 1.258478 2.213447 0.000000 0.000000 0.000000
0.382296 1.282350 2.176310 0.000000 0.000000 0.000000
-0.126423 1.024830 3.216496 0.000000 0.000000 0.000000
0.389150 1.245973 2.216553 0.000000 0.000000 0.000000
0.379686 1.268968 2.174603 0.000000 0.000000 0.000000
-0.119727 1.014454 3.212732 0.000000 0.000000 0.000000
0.391471 1.263682 2.183963 0.000000 0.000000 0.000000
-0.125772 1.021806 3.221308 0.000000 0.000000 0.000000
0.377751 1.278157 2.173540 0.000000 0.000000 0.000000
-0.117524 1.028718 3.223636 0.000000 0.000000 0.000000
0.380300 1.281814 2.176397 0.000000 0.000000 0.000000
0.387418 1.269924 2.187062 0.000000 0.000000 0.000000
0.365823 1.253746 2.216722 0.000000 0.000000 0.000000
0.385479 1.274430 2.186109 0.000000 0.000000 0.000000
0.384249 1.267626 2.177169 0.000000 0.000000 0.000000
0.383741 1.277229 2.173448 0.000000 0.000000 0.000000
0.383620 1.285393 2.175130 0.000000 0.000000 0.000000
0.380588 1.261196 2.169521 0.000000 0.000000 0.000000
0.397973 1.266342 2.197049 0.000000 0.000000 0.000000
0.381402 1.281725 2.176051 0.000000 0.000000 0.000000
0.230404 1.001409 2.684192 0.000000 0.000000 0.000000
0.386440 1.259984 2.182149 0.000000 0.000000 0.000000
0.381710 1.261908 2.176869 0.000000 0.000000 0.000000
-0.094012 0.995920 3.171070 0.000000 0.000000 0.000000
0.232287 0.999503 2.680649 0.000000 0.000000 0.000000
0.385127 1.270095 2.183067 0.000000 0.000000 0.000000
0.380153 1.273285 2.176084 0.000000 0.000000 0.000000
-0.128943 1.029437 3.222047 0.000000 0.000000 0.000000
-0.092512 0.997333 3.177479 0.000000 0.000000 0.000000
0.385725 1.275729 2.179985 0.000000 0.000000 0.000000
0.382816 1.240186 2.169544 0.000000 0.000000 0.000000
0.366587 1.271711 2.187710 0.000000 0.000000 0.000000
0.391209 1.268478 2.185490 0.000000 0.000000 0.000000
-0.090807 0.992516 3.166527 0.000000 0.000000 0.000000
0.215863 0.973551 2.729621 0.000000 0.000000 0.000000
0.360201 1.278111 2.207058 0.000000 0.000000 0.000000
0.380275 1.274066 2.171772 0.000000 0.000000 0.000000
-0.096434 1.033490 3.181781 0.000000 0.000000 0.000000
0.217450 0.994990 2.711815 0.000000 0.000000 0.000000
0.214999 0.991596 2.704070 0.000000 0.000000 0.000000
0.229966 0.986097 2.698574 0.000000 0.000000 0.000000
0.210359 0.986373 2.717422 0.000000 0.000000 0.000000
0.204136 0.984037 2.730424 0.000000 0.000000 0.000000
0.212420 0.999124 2.711620 0.000000 0.000000 0.000000
-0.090873 1.031407 3.168595 0.000000 0.000000 0.000000
0.227104 0.992285 2.704060 0.000000 0.000000 0.000000
0.212649 0.991413 2.700739 0.000000 0.000000 0.000000
0.221007 0.995093 2.697310 0.000000 0.000000 0.000000
0.224284 0.984570 2.705643 0.000000 0.000000 0.000000
0.210796 0.989097 2.713460 0.000000 0.000000 0.000000
0.218502 1.001835 2.707299 0.000000 0.000000 0.000000
0.218464 0.989251 2.717515 0.000000 0.000000 0.000000
0.375146 1.249837 2.219014 0.000000 0.000000 0.000000
0.388472 1.258388 2.211270 0.000000 0.000000 0.000000
0.375906 1.251921 2.214038 0.000000 0.000000 0.000000
-0.102725 1.009967 3.171911 0.000000 0.000000 0.000000
-0.128296 1.048118 3.227112 0.000000 0.000000 0.000000
0.360773 1.257406 2.221742 0.000000 0.000000 0.000000
-0.120968 1.019500 3.210804 0.000000 0.000000 0.000000
0.380287 1.246611 2.212148 0.000000 0.000000 0.000000
0.368357 1.251301 2.216310 0.000000 0.000000 0.000000
0.386045 1.252768 2.214385 0.000000 0.000000 0.000000
-0.085241 1.024312 3.167841 0.000000 0.000000 0.000000
0.362991 1.255596 2.214729 0.000000 0.000000 0.000000
0.374269 1.250315 2.204427 0.000000 0.000000 0.000000
0.376752 1.268249 2.219569 0.000000 0.000000 0.000000
0.231803 0.980072 2.689983 0.000000 0.000000 0.000000
0.387200 1.244015 2.232685 0.000000 0.000000 0.000000
0.249512 1.004570 2.681206 0.000000 0.000000 0.000000
0.363290 1.255572 2.218230 0.000000 0.000000 0.000000
0.389501 1.271590 2.181637 0.000000 0.000000 0.000000
-0.090319 0.992906 3.160980 0.000000 0.000000 0.000000
-0.082457 1.000749 3.137268 0.000000 0.000000 0.000000
-0.083636 1.007101 3.163825 0.000000 0.000000 0.000000
-0.112712 1.061995 3.212212 0.000000 0.000000 0.000000
-0.113842 1.066561 3.217384 0.000000 0.000000 0.000000
0.364656 1.268982 2.205108 0.000000 0.000000 0.000000
0.379412 1.254881 2.202725 0.000000 0.000000 0.000000
0.380439 1.280408 2.177595 0.000000 0.000000 0.000000
0.362585 1.273767 2.208064 0.000000 0.000000 0.000000
0.360106 1.269557 2.200592 0.000000 0.000000 0.000000
0.384011 1.265597 2.173778 0.000000 0.000000 0.000000
0.366447 1.256693 2.221116 0.000000 0.000000 0.000000
0.360535 1.267236 2.201957 0.000000 0.000000 0.000000
0.385858 1.276975 2.176992 0.000000 0.000000 0.000000
0.387935 1.254133 2.213810 0.000000 0.000000 0.000000
0.382574 1.266754 2.172902 0.000000 0.000000 0.000000
0.386420 1.268851 2.171874 0.000000 0.000000 0.000000
0.362773 1.271015 2.203677 0.000000 0.000000 0.000000
0.360932 1.272459 2.206230 0.000000 0.000000 0.000000
0.361853 1.265507 2.200605 0.000000 0.000000 0.000000
0.391468 1.275448 2.187464 0.000000 0.000000 0.000000
0.364416 1.240600 2.161027 0.000000 0.000000 0.000000
0.235338 0.986980 2.721114 0.000000 0.000000 0.000000
0.194142 0.967561 2.714988 0.000000 0.000000 0.000000
0.362559 1.244781 2.165181 0.000000 0.000000 0.000000
0.222104 0.992392 2.715585 0.000000 0.000000 0.000000
0.371067 1.240385 2.172525 0.000000 0.000000 0.000000
-0.089904 0.961387 3.196835 0.000000 0.000000 0.000000
0.382042 1.269104 2.193598 0.000000 0.000000 0.000000
0.389122 1.248750 2.168500 0.000000 0.000000 0.000000
0.360248 1.275631 2.202389 0.000000 0.000000 0.000000
0.364051 1.268264 2.200638 0.000000 0.000000 0.000000
0.383546 1.265383 2.175733 0.000000 0.000000 0.000000
0.361450 1.271094 2.203285 0.000000 0.000000 0.000000
0.360303 1.261666 2.225560 0.000000 0.000000 0.000000
0.394930 1.245692 2.208249 0.000000 0.000000 0.000000
-0.095335 1.037603 3.186519 0.000000 0.000000 0.000000
-0.096256 1.041493 3.185244 0.000000 0.000000 0.000000
-0.103289 1.042425 3.186904 0.000000 0.000000 0.000000
-0.133238 1.053093 3.225333 0.000000 0.000000 0.000000
0.365016 1.265651 2.202469 0.000000 0.000000 0.000000
0.393196 1.243717 2.207178 0.000000 0.000000 0.000000
-0.098245 1.041501 3.187201 0.000000 0.000000 0.000000
-0.102672 1.033770 3.188001 0.000000 0.000000 0.000000
-0.131316 1.044334 3.225750 0.000000 0.000000 0.000000
0.362871 1.269004 2.202518 0.000000 0.000000 0.000000
0.231695 0.977819 2.682096 0.000000 0.000000 0.000000
-0.096240 1.044414 3.198175 0.000000 0.000000 0.000000
0.388258 1.246433 2.210815 0.000000 0.000000 0.000000
0.371622 1.255818 2.219296 0.000000 0.000000 0.000000
0.365233 1.266632 2.195829 0.000000 0.000000 0.000000
-0.102456 1.056603 3.202196 0.000000 0.000000 0.000000
0.227740 0.999945 2.690788 0.000000 0.000000 0.000000
0.212730 0.987874 2.713421 0.000000 0.000000 0.000000
-0.091232 0.993506 3.164685 0.000000 0.000000 0.000000
0.365935 1.272927 2.206399 0.000000 0.000000 0.000000
0.227859 0.994137 2.707790 0.000000 0.000000 0.000000
0.227431 0.981618 2.682962 0.000000 0.000000 0.000000
-0.094519 0.993128 3.164122 0.000000 0.000000 0.000000
-0.098846 1.047243 3.192063 0.000000 0.000000 0.000000
-0.099014 0.997119 3.178424 0.000000 0.000000 0.000000
0.237258 1.004918 2.683905 0.000000 0.000000 0.000000
0.365899 1.276029 2.209254 0.000000 0.000000 0.000000
0.225498 0.992625 2.701721 0.000000 0.000000 0.000000
0.221813 0.988360 2.685881 0.000000 0.000000 0.000000
-0.097671 0.993766 3.162064 0.000000 0.000000 0.000000
0.380901 1.274400 2.173023 0.000000 0.000000 0.000000
0.378885 1.280341 2.173974 0.000000 0.000000 0.000000
0.386220 1.289523 2.174943 0.000000 0.000000 0.000000
0.383979 1.287369 2.180045 0.000000 0.000000 0.000000
0.386895 1.250901 2.219312 0.000000 0.000000 0.000000
0.362704 1.273825 2.202873 0.000000 0.000000 0.000000
0.206410 0.991235 2.722653 0.000000 0.000000 0.000000
0.390740 1.249941 2.212800 0.000000 0.000000 0.000000
0.204432 0.991782 2.714671 0.000000 0.000000 0.000000
0.367497 1.261136 2.200202 0.000000 0.000000 0.000000
0.208773 0.982920 2.724008 0.000000 0.000000 0.000000
0.233539 0.996448 2.705727 0.000000 0.000000 0.000000
0.383704 1.260639 2.207568 0.000000 0.000000 0.000000
0.360455 1.274160 2.203507 0.000000 0.000000 0.000000
0.381981 1.278002 2.176884 0.000000 0.000000 0.000000
-0.096400 1.039232 3.198185 0.000000 0.000000 0.000000
-0.092816 1.044611 3.196864 0.000000 0.000000 0.000000
0.380517 1.268945 2.173058 0.000000 0.000000 0.000000
0.381064 1.279015 2.174593 0.000000 0.000000 0.000000
0.382620 1.274669 2.170223 0.000000 0.000000 0.000000
-0.100174 1.053828 3.199514 0.000000 0.000000 0.000000
-0.114169 1.039229 3.193946 0.000000 0.000000 0.000000
-0.120260 1.061892 3.212803 0.000000 0.000000 0.000000
-0.110137 1.034056 3.195173 0.000000 0.000000 0.000000
0.213020 1.001019 2.697077 0.000000 0.000000 0.000000
0.224151 1.000841 2.690002 0.000000 0.000000 0.000000
0.217978 0.983311 2.700422 0.000000 0.000000 0.000000
-0.091787 1.035794 3.184655 0.000000 0.000000 0.000000
0.206017 0.973619 2.707241 0.000000 0.000000 0.000000
-0.115698 1.049438 3.198650 0.000000 0.000000 0.000000
-0.105862 1.030429 3.187229 0.000000 0.000000 0.000000
0.211468 0.997420 2.701507 0.000000 0.000000 0.000000
-0.099338 1.047740 3.198479 0.000000 0.000000 0.000000
0.230887 1.001838 2.685280 0.000000 0.000000 0.000000
0.228199 1.002161 2.681744 0.000000 0.000000 0.000000
0.220112 0.974077 2.694149 0.000000 0.000000 0.000000
0.201649 0.969643 2.724008 0.000000 0.000000 0.000000
-0.097632 1.055856 3.193923 0.000000 0.000000 0.000000
-0.092855 1.038129 3.187755 0.000000 0.000000 0.000000
-0.094424 1.045157 3.189014 0.000000 0.000000 0.000000
-0.090574 1.025194 3.171422 0.000000 0.000000 0.000000
-0.099001 1.026324 3.177699 0.000000 0.000000 0.000000
-0.089575 1.028280 3.175817 0.000000 0.000000 0.000000
-0.086768 1.011507 3.162478 0.000000 0.000000 0.000000
-0.100515 1.032386 3.184525 0.000000 0.000000 0.000000
-0.092908 1.028785 3.179613 0.000000 0.000000 0.000000
0.210578 0.978258 2.720965 0.000000 0.000000 0.000000
-0.104370 1.011748 3.179328 0.000000 0.000000 0.000000
-0.125398 1.041440 3.221562 0.000000 0.000000 0.000000
0.395578 1.263425 2.193047 0.000000 0.000000 0.000000
0.366927 1.274456 2.210638 0.000000 0.000000 0.000000
0.391122 1.265878 2.204045 0.000000 0.000000 0.000000
0.393137 1.255818 2.222996 0.000000 0.000000 0.000000
0.361688 1.276921 2.211298 0.000000 0.000000 0.000000
-0.093974 0.996090 3.164627 0.000000 0.000000 0.000000
-0.104241 1.006441 3.197520 0.000000 0.000000 0.000000
0.361518 1.279341 2.208570 0.000000 0.000000 0.000000
0.227470 0.980039 2.698069 0.000000 0.000000 0.000000
0.364273 1.270224 2.207658 0.000000 0.000000 0.000000
0.202721 0.971520 2.740665 0.000000 0.000000 0.000000
-0.111420 1.020309 3.207066 0.000000 0.000000 0.000000
0.216111 0.990353 2.720274 0.000000 0.000000 0.000000
0.222007 0.976773 2.706349 0.000000 0.000000 0.000000
0.368180 1.268730 2.208752 0.000000 0.000000 0.000000
0.208846 0.983641 2.699571 0.000000 0.000000 0.000000
0.196559 0.980173 2.715700 0.000000 0.000000 0.000000
0.219675 0.989104 2.696052 0.000000 0.000000 0.000000
0.215400 0.977460 2.703525 0.000000 0.000000 0.000000
0.222426 0.993494 2.688259 0.000000 0.000000 0.000000
0.216206 0.979301 2.695775 0.000000 0.000000 0.000000
0.221679 0.990905 2.689340 0.000000 0.000000 0.000000
-0.084463 1.016799 3.164615 0.000000 0.000000 0.000000
0.227587 0.998263 2.697951 0.000000 0.000000 0.000000
0.235978 0.993864 2.699239 0.000000 0.000000 0.000000
0.213848 0.992408 2.708604 0.000000 0.000000 0.000000
0.217339 0.988978 2.699376 0.000000 0.000000 0.000000
0.206765 0.980613 2.710742 0.000000 0.000000 0.000000
0.203365 0.977206 2.706029 0.000000 0.000000 0.000000
0.196580 0.983472 2.714191 0.000000 0.000000 0.000000
0.207469 0.976564 2.704252 0.000000 0.000000 0.000000
0.204575 0.986082 2.704314 0.000000 0.000000 0.000000
-0.080672 1.012657 3.161657 0.000000 0.000000 0.000000
0.220348 0.996511 2.706592 0.000000 0.000000 0.000000
0.238778 0.987933 2.686745 0.000000 0.000000 0.000000
0.231134 0.993063 2.706578 0.000000 0.000000 0.000000
0.212333 0.988303 2.695290 0.000000 0.000000 0.000000
0.237811 0.999357 2.694227 0.000000 0.000000 0.000000
0.372350 1.258775 2.206128 0.000000 0.000000 0.000000
0.396545 1.266890 2.204980 0.000000 0.000000 0.000000
-0.062633 1.001111 3.147919 0.000000 0.000000 0.000000
0.397988 1.266456 2.205362 0.000000 0.000000 0.000000
-0.078940 1.004755 3.156556 0.000000 0.000000 0.000000
-0.079955 1.007471 3.158692 0.000000 0.000000 0.000000
-0.099843 1.049560 3.181638 0.000000 0.000000 0.000000
0.374182 1.292324 2.164412 0.000000 0.000000 0.000000
0.380829 1.284954 2.172414 0.000000 0.000000 0.000000
0.384265 1.262285 2.195965 0.000000 0.000000 0.000000
0.394922 1.259693 2.206247 0.000000 0.000000 0.000000
0.386013 1.285019 2.176944 0.000000 0.000000 0.000000
0.381191 1.280468 2.173099 0.000000 0.000000 0.000000
0.384632 1.289722 2.174451 0.000000 0.000000 0.000000
0.382342 1.277885 2.173316 0.000000 0.000000 0.000000
0.383976 1.282598 2.169338 0.000000 0.000000 0.000000
0.394758 1.263404 2.202143 0.000000 0.000000 0.000000
0.398433 1.243602 2.209019 0.000000 0.000000 0.000000
0.231979 0.987291 2.692714 0.000000 0.000000 0.000000
0.204709 0.976291 2.711213 0.000000 0.000000 0.000000
0.241066 1.001004 2.695390 0.000000 0.000000 0.000000
0.235891 1.000005 2.693086 0.000000 0.000000 0.000000
0.202919 0.976418 2.710818 0.000000 0.000000 0.000000
0.240222 1.000208 2.685187 0.000000 0.000000 0.000000
-0.124896 1.068536 3.222793 0.000000 0.000000 0.000000
-0.124228 1.053356 3.227535 0.000000 0.000000 0.000000
0.367685 1.259679 2.223576 0.000000 0.000000 0.000000
0.360240 1.271616 2.197350 0.000000 0.000000 0.000000
0.384908 1.243029 2.215953 0.000000 0.000000 0.000000
0.218578 0.990149 2.719478 0.000000 0.000000 0.000000
0.369337 1.257431 2.217023 0.000000 0.000000 0.000000
0.204768 0.978281 2.716713 0.000000 0.000000 0.000000
0.363002 1.260314 2.220400 0.000000 0.000000 0.000000
0.372818 1.269478 2.211645 0.000000 0.000000 0.000000
-0.122884 1.039767 3.221322 0.000000 0.000000 0.000000
0.368443 1.269706 2.199368 0.000000 0.000000 0.000000
0.381819 1.280149 2.173444 0.000000 0.000000 0.000000
-0.086281 1.023317 3.171643 0.000000 0.000000 0.000000
-0.135556 1.042223 3.219605 0.000000 0.000000 0.000000
-0.130111 1.019155 3.211315 0.000000 0.000000 0.000000
-0.089304 1.021466 3.185426 0.000000 0.000000 0.000000
-0.116221 1.005460 3.202919 0.000000 0.000000 0.000000
-0.135895 1.030310 3.216450 0.000000 0.000000 0.000000
0.367361 1.245578 2.166211 0.000000 0.000000 0.000000
0.361171 1.265498 2.232248 0.000000 0.000000 0.000000
0.215213 0.971759 2.711014 0.000000 0.000000 0.000000
-0.105132 0.996640 3.176316 0.000000 0.000000 0.000000
0.367856 1.244319 2.165770 0.000000 0.000000 0.000000
-0.084015 0.960961 3.177489 0.000000 0.000000 0.000000
0.222354 0.988478 2.693558 0.000000 0.000000 0.000000
0.379821 1.242238 2.223062 0.000000 0.000000 0.000000
0.218305 0.973975 2.702017 0.000000 0.000000 0.000000
-0.097793 0.995320 3.168952 0.000000 0.000000 0.000000
0.370335 1.240572 2.168689 0.000000 0.000000 0.000000
0.373189 1.255803 2.214457 0.000000 0.000000 0.000000
-0.125708 1.043300 3.223175 0.000000 0.000000 0.000000
0.381671 1.264400 2.198935 0.000000 0.000000 0.000000
0.384182 1.264698 2.200650 0.000000 0.000000 0.000000
0.211090 0.978097 2.708998 0.000000 0.000000 0.000000
0.221137 0.975052 2.712543 0.000000 0.000000 0.000000
0.211451 0.978109 2.733520 0.000000 0.000000 0.000000
-0.123532 1.066510 3.214427 0.000000 0.000000 0.000000
-0.123818 1.031878 3.217420 0.000000 0.000000 0.000000
0.204759 0.990198 2.725615 0.000000 0.000000 0.000000
0.204315 0.981180 2.728564 0.000000 0.000000 0.000000
-0.117648 1.058429 3.210351 0.000000 0.000000 0.000000
-0.125376 1.030159 3.215633 0.000000 0.000000 0.000000
-0.082768 1.006326 3.158049 0.000000 0.000000 0.000000
0.200082 0.989581 2.719812 0.000000 0.000000 0.000000
0.382005 1.253856 2.215659 0.000000 0.000000 0.000000
-0.076013 1.001305 3.150374 0.000000 0.000000 0.000000
0.384867 1.282599 2.179248 0.000000 0.000000 0.000000
0.373615 1.248935 2.212845 0.000000 0.000000 0.000000
-0.078719 1.002648 3.153029 0.000000 0.000000 0.000000
-0.078927 1.003627 3.152744 0.000000 0.000000 0.000000
-0.075355 1.006648 3.149539 0.000000 0.000000 0.000000
-0.091911 1.026185 3.178927 0.000000 0.000000 0.000000
-0.080023 1.001349 3.156275 0.000000 0.000000 0.000000
-0.078683 1.004954 3.156439 0.000000 0.000000 0.000000
-0.086317 1.001169 3.155835 0.000000 0.000000 0.000000
0.377923 1.282081 2.165981 0.000000 0.000000 0.000000
-0.107395 1.064950 3.207708 0.000000 0.000000 0.000000
0.202645 1.003211 2.704547 0.000000 0.000000 0.000000
0.221139 0.997508 2.702716 0.000000 0.000000 0.000000
0.225023 0.998872 2.691160 0.000000 0.000000 0.000000
0.239458 0.998796 2.686674 0.000000 0.000000 0.000000
0.195355 0.990550 2.712855 0.000000 0.000000 0.000000
-0.112885 1.070617 3.216024 0.000000 0.000000 0.000000
0.200972 0.997591 2.705654 0.000000 0.000000 0.000000
0.227245 0.977283 2.681584 0.000000 0.000000 0.000000
0.232514 1.005630 2.690281 0.000000 0.000000 0.000000
0.227215 0.999466 2.689327 0.000000 0.000000 0.000000
0.234627 1.010459 2.683835 0.000000 0.000000 0.000000
0.233905 1.002686 2.682484 0.000000 0.000000 0.000000
0.372614 1.254436 2.217318 0.000000 0.000000 0.000000
0.386133 1.287954 2.174862 0.000000 0.000000 0.000000
0.382540 1.284722 2.174070 0.000000 0.000000 0.000000
0.365775 1.253376 2.217046 0.000000 0.000000 0.000000
0.383661 1.252244 2.175527 0.000000 0.000000 0.000000
0.207426 0.982365 2.730722 0.000000 0.000000 0.000000
0.362031 1.269246 2.203228 0.000000 0.000000 0.000000
0.382081 1.269530 2.179813 0.000000 0.000000 0.000000
0.219635 0.993830 2.689883 0.000000 0.000000 0.000000
