ply
format ascii 1.0
comment VCGLIB generated
obj_info Generated by SPFormer!
element vertex 666
property float x
property float y
property float z
property float nx
property float ny
property float nz
end_header
0.603522 1.180586 1.646887 0.000000 0.000000 0.000000
0.620105 1.165271 1.653663 0.000000 0.000000 0.000000
0.607366 1.170521 1.643420 0.000000 0.000000 0.000000
0.569566 1.222201 1.796708 0.000000 0.000000 0.000000
0.564241 1.221495 1.798024 0.000000 0.000000 0.000000
0.592626 1.210075 1.765690 0.000000 0.000000 0.000000
0.563117 1.224259 1.809275 0.000000 0.000000 0.000000
0.598257 1.207459 1.763628 0.000000 0.000000 0.000000
0.561238 1.239976 1.837070 0.000000 0.000000 0.000000
0.574180 1.217263 1.795812 0.000000 0.000000 0.000000
0.593895 1.181320 1.664004 0.000000 0.000000 0.000000
0.571564 1.204125 1.770338 0.000000 0.000000 0.000000
0.584077 1.204346 1.763389 0.000000 0.000000 0.000000
0.572278 1.224767 1.796041 0.000000 0.000000 0.000000
0.567657 1.223020 1.789828 0.000000 0.000000 0.000000
0.624122 1.206493 1.765456 0.000000 0.000000 0.000000
0.565067 1.208041 1.781064 0.000000 0.000000 0.000000
0.634767 1.197740 1.726114 0.000000 0.000000 0.000000
0.617886 1.220924 1.784452 0.000000 0.000000 0.000000
0.610599 1.225441 1.800397 0.000000 0.000000 0.000000
0.620222 1.209324 1.736422 0.000000 0.000000 0.000000
0.580782 1.238206 1.828648 0.000000 0.000000 0.000000
0.596417 1.198836 1.752646 0.000000 0.000000 0.000000
0.597377 1.189742 1.672830 0.000000 0.000000 0.000000
0.594420 1.184312 1.655668 0.000000 0.000000 0.000000
0.570080 1.251605 1.839521 0.000000 0.000000 0.000000
0.646806 1.171443 1.663020 0.000000 0.000000 0.000000
0.606157 1.229977 1.818055 0.000000 0.000000 0.000000
0.626131 1.201411 1.710150 0.000000 0.000000 0.000000
0.611394 1.191829 1.658657 0.000000 0.000000 0.000000
0.620382 1.212775 1.790323 0.000000 0.000000 0.000000
0.602001 1.225306 1.808656 0.000000 0.000000 0.000000
0.603284 1.240206 1.814872 0.000000 0.000000 0.000000
0.598925 1.225582 1.825409 0.000000 0.000000 0.000000
0.634639 1.197751 1.720280 0.000000 0.000000 0.000000
0.593339 1.201012 1.750123 0.000000 0.000000 0.000000
0.641607 1.195851 1.694635 0.000000 0.000000 0.000000
0.654778 1.178367 1.665918 0.000000 0.000000 0.000000
0.572167 1.208333 1.776474 0.000000 0.000000 0.000000
0.596511 1.185330 1.686953 0.000000 0.000000 0.000000
0.614758 1.214498 1.788053 0.000000 0.000000 0.000000
0.579143 1.238449 1.866464 0.000000 0.000000 0.000000
0.576311 1.211127 1.788192 0.000000 0.000000 0.000000
0.601594 1.191951 1.688024 0.000000 0.000000 0.000000
0.637297 1.189465 1.702870 0.000000 0.000000 0.000000
0.632680 1.158520 1.654302 0.000000 0.000000 0.000000
0.562664 1.220008 1.815196 0.000000 0.000000 0.000000
0.568567 1.221706 1.788817 0.000000 0.000000 0.000000
0.625665 1.198032 1.741288 0.000000 0.000000 0.000000
0.584363 1.210060 1.777102 0.000000 0.000000 0.000000
0.572198 1.234298 1.875722 0.000000 0.000000 0.000000
0.629941 1.204317 1.760344 0.000000 0.000000 0.000000
0.601608 1.185487 1.661445 0.000000 0.000000 0.000000
0.568194 1.214870 1.804416 0.000000 0.000000 0.000000
0.564596 1.204108 1.772164 0.000000 0.000000 0.000000
0.580891 1.215443 1.786743 0.000000 0.000000 0.000000
0.623682 1.212270 1.765827 0.000000 0.000000 0.000000
0.563401 1.214578 1.801137 0.000000 0.000000 0.000000
0.595244 1.186443 1.675249 0.000000 0.000000 0.000000
0.608679 1.225406 1.802804 0.000000 0.000000 0.000000
0.602325 1.200240 1.700793 0.000000 0.000000 0.000000
0.637214 1.201388 1.727474 0.000000 0.000000 0.000000
0.607315 1.226187 1.815359 0.000000 0.000000 0.000000
0.624971 1.181807 1.642464 0.000000 0.000000 0.000000
0.607088 1.196975 1.738976 0.000000 0.000000 0.000000
0.607008 1.200232 1.735317 0.000000 0.000000 0.000000
0.631341 1.195038 1.722008 0.000000 0.000000 0.000000
0.605003 1.172368 1.645219 0.000000 0.000000 0.000000
0.635805 1.185621 1.647531 0.000000 0.000000 0.000000
0.615784 1.215425 1.793668 0.000000 0.000000 0.000000
0.595812 1.236575 1.854117 0.000000 0.000000 0.000000
0.594386 1.182525 1.676085 0.000000 0.000000 0.000000
0.572922 1.203453 1.762114 0.000000 0.000000 0.000000
0.623547 1.200533 1.748724 0.000000 0.000000 0.000000
0.562292 1.226681 1.816284 0.000000 0.000000 0.000000
0.596301 1.194302 1.714672 0.000000 0.000000 0.000000
0.594014 1.228696 1.836233 0.000000 0.000000 0.000000
0.555146 1.211592 1.795870 0.000000 0.000000 0.000000
0.609453 1.207191 1.763888 0.000000 0.000000 0.000000
0.573279 1.209134 1.748502 0.000000 0.000000 0.000000
0.625364 1.200709 1.724838 0.000000 0.000000 0.000000
0.603458 1.206991 1.761988 0.000000 0.000000 0.000000
0.594208 1.232661 1.839672 0.000000 0.000000 0.000000
0.600698 1.174554 1.648423 0.000000 0.000000 0.000000
0.584465 1.199166 1.743837 0.000000 0.000000 0.000000
0.561057 1.218278 1.809675 0.000000 0.000000 0.000000
0.604643 1.190740 1.685712 0.000000 0.000000 0.000000
0.643596 1.194622 1.682083 0.000000 0.000000 0.000000
0.594821 1.209412 1.745462 0.000000 0.000000 0.000000
0.567238 1.205756 1.762842 0.000000 0.000000 0.000000
0.633495 1.198523 1.734981 0.000000 0.000000 0.000000
0.667542 1.168043 1.662388 0.000000 0.000000 0.000000
0.603841 1.170964 1.666518 0.000000 0.000000 0.000000
0.582928 1.191618 1.705325 0.000000 0.000000 0.000000
0.663160 1.158435 1.653014 0.000000 0.000000 0.000000
0.610105 1.168747 1.653000 0.000000 0.000000 0.000000
0.612467 1.192042 1.677973 0.000000 0.000000 0.000000
0.660340 1.166230 1.644138 0.000000 0.000000 0.000000
0.616589 1.192740 1.740254 0.000000 0.000000 0.000000
0.669624 1.160374 1.648339 0.000000 0.000000 0.000000
0.560047 1.225421 1.815263 0.000000 0.000000 0.000000
0.640116 1.185659 1.715898 0.000000 0.000000 0.000000
0.620897 1.202956 1.751283 0.000000 0.000000 0.000000
0.594962 1.205999 1.753428 0.000000 0.000000 0.000000
0.560025 1.220897 1.807568 0.000000 0.000000 0.000000
0.590218 1.197666 1.708427 0.000000 0.000000 0.000000
0.632780 1.193221 1.737758 0.000000 0.000000 0.000000
0.599316 1.172901 1.658328 0.000000 0.000000 0.000000
0.635045 1.195448 1.740118 0.000000 0.000000 0.000000
0.559888 1.205224 1.775141 0.000000 0.000000 0.000000
0.565978 1.215860 1.764195 0.000000 0.000000 0.000000
0.592441 1.238501 1.853772 0.000000 0.000000 0.000000
0.627633 1.199461 1.707553 0.000000 0.000000 0.000000
0.600587 1.192177 1.679014 0.000000 0.000000 0.000000
0.634448 1.188500 1.723901 0.000000 0.000000 0.000000
0.566688 1.209084 1.776670 0.000000 0.000000 0.000000
0.596520 1.191179 1.700653 0.000000 0.000000 0.000000
0.570399 1.230228 1.825647 0.000000 0.000000 0.000000
0.643420 1.186394 1.720465 0.000000 0.000000 0.000000
0.632273 1.161414 1.660716 0.000000 0.000000 0.000000
0.599039 1.226432 1.830281 0.000000 0.000000 0.000000
0.562007 1.234372 1.831282 0.000000 0.000000 0.000000
0.573130 1.238496 1.825675 0.000000 0.000000 0.000000
0.559531 1.214648 1.791813 0.000000 0.000000 0.000000
0.612354 1.202093 1.728875 0.000000 0.000000 0.000000
0.623348 1.195508 1.735927 0.000000 0.000000 0.000000
0.600021 1.202822 1.754202 0.000000 0.000000 0.000000
0.605276 1.199748 1.749757 0.000000 0.000000 0.000000
0.604777 1.182791 1.670914 0.000000 0.000000 0.000000
0.592215 1.234088 1.841106 0.000000 0.000000 0.000000
0.633125 1.176888 1.687498 0.000000 0.000000 0.000000
0.615050 1.211921 1.776565 0.000000 0.000000 0.000000
0.636482 1.167768 1.663076 0.000000 0.000000 0.000000
0.577996 1.221019 1.786775 0.000000 0.000000 0.000000
0.569835 1.220753 1.789569 0.000000 0.000000 0.000000
0.624349 1.206928 1.759510 0.000000 0.000000 0.000000
0.610765 1.211467 1.777125 0.000000 0.000000 0.000000
0.602387 1.187538 1.698262 0.000000 0.000000 0.000000
0.608170 1.197026 1.709476 0.000000 0.000000 0.000000
0.606938 1.187995 1.709048 0.000000 0.000000 0.000000
0.571312 1.212828 1.793351 0.000000 0.000000 0.000000
0.599735 1.177522 1.669018 0.000000 0.000000 0.000000
0.620627 1.215775 1.779181 0.000000 0.000000 0.000000
0.595564 1.228059 1.823904 0.000000 0.000000 0.000000
0.597715 1.178456 1.680505 0.000000 0.000000 0.000000
0.629418 1.192393 1.729547 0.000000 0.000000 0.000000
0.627031 1.201850 1.751742 0.000000 0.000000 0.000000
0.632878 1.164955 1.649246 0.000000 0.000000 0.000000
0.630052 1.190025 1.685385 0.000000 0.000000 0.000000
0.572523 1.228027 1.836983 0.000000 0.000000 0.000000
0.613251 1.199271 1.744769 0.000000 0.000000 0.000000
0.639388 1.199213 1.720446 0.000000 0.000000 0.000000
0.644811 1.149137 1.648785 0.000000 0.000000 0.000000
0.569550 1.205987 1.756310 0.000000 0.000000 0.000000
0.587449 1.234083 1.854035 0.000000 0.000000 0.000000
0.602917 1.220544 1.826880 0.000000 0.000000 0.000000
0.624412 1.193453 1.720879 0.000000 0.000000 0.000000
0.623305 1.187779 1.702050 0.000000 0.000000 0.000000
0.652845 1.155968 1.640443 0.000000 0.000000 0.000000
0.592679 1.237697 1.859417 0.000000 0.000000 0.000000
0.636915 1.202580 1.737657 0.000000 0.000000 0.000000
0.594210 1.225775 1.822962 0.000000 0.000000 0.000000
0.614516 1.223786 1.804075 0.000000 0.000000 0.000000
0.636786 1.197679 1.742602 0.000000 0.000000 0.000000
0.613391 1.217859 1.797298 0.000000 0.000000 0.000000
0.564531 1.228277 1.832094 0.000000 0.000000 0.000000
0.567788 1.211319 1.780124 0.000000 0.000000 0.000000
0.647181 1.176284 1.700303 0.000000 0.000000 0.000000
0.611759 1.226481 1.806116 0.000000 0.000000 0.000000
0.583121 1.220587 1.780114 0.000000 0.000000 0.000000
0.623932 1.183401 1.683742 0.000000 0.000000 0.000000
0.564564 1.218155 1.817613 0.000000 0.000000 0.000000
0.585440 1.211823 1.742897 0.000000 0.000000 0.000000
0.580052 1.188132 1.715256 0.000000 0.000000 0.000000
0.589283 1.185794 1.689786 0.000000 0.000000 0.000000
0.593750 1.240242 1.826477 0.000000 0.000000 0.000000
0.612973 1.225980 1.799625 0.000000 0.000000 0.000000
0.616353 1.214152 1.776519 0.000000 0.000000 0.000000
0.596392 1.227889 1.832219 0.000000 0.000000 0.000000
0.590284 1.227716 1.828736 0.000000 0.000000 0.000000
0.596830 1.205663 1.727606 0.000000 0.000000 0.000000
0.560591 1.236553 1.808191 0.000000 0.000000 0.000000
0.594087 1.223160 1.818723 0.000000 0.000000 0.000000
0.572972 1.211506 1.775214 0.000000 0.000000 0.000000
0.592098 1.236418 1.833483 0.000000 0.000000 0.000000
0.626171 1.208589 1.764923 0.000000 0.000000 0.000000
0.591003 1.230374 1.829719 0.000000 0.000000 0.000000
0.576279 1.193499 1.735067 0.000000 0.000000 0.000000
0.584470 1.239768 1.852603 0.000000 0.000000 0.000000
0.599898 1.216119 1.799007 0.000000 0.000000 0.000000
0.584787 1.238928 1.868670 0.000000 0.000000 0.000000
0.601103 1.220507 1.807555 0.000000 0.000000 0.000000
0.618035 1.196567 1.704495 0.000000 0.000000 0.000000
0.583291 1.216106 1.769325 0.000000 0.000000 0.000000
0.626385 1.199223 1.731656 0.000000 0.000000 0.000000
0.562362 1.211267 1.790472 0.000000 0.000000 0.000000
0.563411 1.233337 1.827263 0.000000 0.000000 0.000000
0.561407 1.208864 1.778799 0.000000 0.000000 0.000000
0.618686 1.195272 1.721224 0.000000 0.000000 0.000000
0.564154 1.211070 1.772592 0.000000 0.000000 0.000000
0.560742 1.210305 1.782378 0.000000 0.000000 0.000000
0.595224 1.234791 1.822241 0.000000 0.000000 0.000000
0.596217 1.239585 1.836717 0.000000 0.000000 0.000000
0.597345 1.226967 1.833970 0.000000 0.000000 0.000000
0.581776 1.209720 1.781979 0.000000 0.000000 0.000000
0.585391 1.204666 1.748401 0.000000 0.000000 0.000000
0.595716 1.229838 1.834157 0.000000 0.000000 0.000000
0.583602 1.210354 1.782132 0.000000 0.000000 0.000000
0.585497 1.220564 1.786833 0.000000 0.000000 0.000000
0.555537 1.213587 1.798829 0.000000 0.000000 0.000000
0.611330 1.224405 1.818429 0.000000 0.000000 0.000000
0.592014 1.200140 1.752453 0.000000 0.000000 0.000000
0.604332 1.232388 1.831490 0.000000 0.000000 0.000000
0.590663 1.208662 1.764063 0.000000 0.000000 0.000000
0.564764 1.235588 1.839054 0.000000 0.000000 0.000000
0.559587 1.211688 1.792459 0.000000 0.000000 0.000000
0.567449 1.203329 1.762298 0.000000 0.000000 0.000000
0.603705 1.228829 1.820310 0.000000 0.000000 0.000000
0.598633 1.227683 1.817205 0.000000 0.000000 0.000000
0.559588 1.210507 1.791518 0.000000 0.000000 0.000000
0.556481 1.211164 1.790648 0.000000 0.000000 0.000000
0.562093 1.207745 1.782382 0.000000 0.000000 0.000000
0.566376 1.205929 1.764292 0.000000 0.000000 0.000000
0.589788 1.229174 1.835448 0.000000 0.000000 0.000000
0.604956 1.228527 1.809613 0.000000 0.000000 0.000000
0.594077 1.234969 1.845964 0.000000 0.000000 0.000000
0.597265 1.227477 1.813095 0.000000 0.000000 0.000000
0.620781 1.221238 1.811192 0.000000 0.000000 0.000000
0.612764 1.214611 1.752232 0.000000 0.000000 0.000000
0.609777 1.208193 1.754415 0.000000 0.000000 0.000000
0.617050 1.213745 1.759332 0.000000 0.000000 0.000000
0.578488 1.219368 1.776332 0.000000 0.000000 0.000000
0.619006 1.221795 1.780108 0.000000 0.000000 0.000000
0.614764 1.221801 1.793465 0.000000 0.000000 0.000000
0.584853 1.224816 1.788586 0.000000 0.000000 0.000000
0.600182 1.207180 1.753861 0.000000 0.000000 0.000000
0.620071 1.216768 1.782012 0.000000 0.000000 0.000000
0.616477 1.225344 1.809276 0.000000 0.000000 0.000000
0.591732 1.230362 1.840569 0.000000 0.000000 0.000000
0.595717 1.227418 1.817310 0.000000 0.000000 0.000000
0.616046 1.202728 1.742045 0.000000 0.000000 0.000000
0.608330 1.199276 1.720476 0.000000 0.000000 0.000000
0.574658 1.198497 1.748087 0.000000 0.000000 0.000000
0.628447 1.200713 1.732757 0.000000 0.000000 0.000000
0.603071 1.199391 1.719930 0.000000 0.000000 0.000000
0.608429 1.231405 1.829284 0.000000 0.000000 0.000000
0.604418 1.192244 1.678734 0.000000 0.000000 0.000000
0.621564 1.208321 1.746815 0.000000 0.000000 0.000000
0.569732 1.226762 1.821084 0.000000 0.000000 0.000000
0.610088 1.188721 1.658303 0.000000 0.000000 0.000000
0.630420 1.199462 1.745221 0.000000 0.000000 0.000000
0.612517 1.204199 1.740424 0.000000 0.000000 0.000000
0.565110 1.239879 1.832509 0.000000 0.000000 0.000000
0.567482 1.203629 1.746703 0.000000 0.000000 0.000000
0.595148 1.183985 1.697076 0.000000 0.000000 0.000000
0.596123 1.231820 1.829673 0.000000 0.000000 0.000000
0.591537 1.235640 1.862803 0.000000 0.000000 0.000000
0.641312 1.203587 1.729931 0.000000 0.000000 0.000000
0.611323 1.184207 1.688394 0.000000 0.000000 0.000000
0.608807 1.181892 1.709620 0.000000 0.000000 0.000000
0.626375 1.172199 1.686074 0.000000 0.000000 0.000000
0.650366 1.172977 1.691322 0.000000 0.000000 0.000000
0.594085 1.238570 1.845343 0.000000 0.000000 0.000000
0.652027 1.175048 1.660467 0.000000 0.000000 0.000000
0.611941 1.178871 1.694537 0.000000 0.000000 0.000000
0.609556 1.233454 1.824819 0.000000 0.000000 0.000000
0.597434 1.232994 1.846526 0.000000 0.000000 0.000000
0.585800 1.235690 1.845947 0.000000 0.000000 0.000000
0.632708 1.213555 1.755553 0.000000 0.000000 0.000000
0.560174 1.238121 1.836681 0.000000 0.000000 0.000000
0.609670 1.184851 1.649676 0.000000 0.000000 0.000000
0.660984 1.168320 1.679147 0.000000 0.000000 0.000000
0.639892 1.211272 1.755025 0.000000 0.000000 0.000000
0.600240 1.180165 1.652148 0.000000 0.000000 0.000000
0.634098 1.208136 1.763296 0.000000 0.000000 0.000000
0.566930 1.204584 1.770468 0.000000 0.000000 0.000000
0.615048 1.182443 1.648468 0.000000 0.000000 0.000000
0.675105 1.161652 1.664211 0.000000 0.000000 0.000000
0.601269 1.239991 1.819550 0.000000 0.000000 0.000000
0.552608 1.210506 1.796142 0.000000 0.000000 0.000000
0.594032 1.241574 1.829624 0.000000 0.000000 0.000000
0.603443 1.244152 1.825394 0.000000 0.000000 0.000000
0.597213 1.241088 1.823927 0.000000 0.000000 0.000000
0.592196 1.238868 1.824649 0.000000 0.000000 0.000000
0.619647 1.208800 1.755100 0.000000 0.000000 0.000000
0.577246 1.224017 1.802997 0.000000 0.000000 0.000000
0.627120 1.215571 1.757636 0.000000 0.000000 0.000000
0.616712 1.218372 1.777375 0.000000 0.000000 0.000000
0.618984 1.204495 1.757721 0.000000 0.000000 0.000000
0.618061 1.204710 1.750090 0.000000 0.000000 0.000000
0.586888 1.236420 1.855643 0.000000 0.000000 0.000000
0.619254 1.218876 1.785422 0.000000 0.000000 0.000000
0.612103 1.202902 1.752881 0.000000 0.000000 0.000000
0.620703 1.218334 1.785896 0.000000 0.000000 0.000000
0.624459 1.210832 1.758505 0.000000 0.000000 0.000000
0.621261 1.208514 1.754684 0.000000 0.000000 0.000000
0.606669 1.210040 1.759401 0.000000 0.000000 0.000000
0.554653 1.212130 1.794386 0.000000 0.000000 0.000000
0.562116 1.221967 1.807657 0.000000 0.000000 0.000000
0.561553 1.206484 1.775210 0.000000 0.000000 0.000000
0.628005 1.208607 1.754778 0.000000 0.000000 0.000000
0.607073 1.223128 1.814853 0.000000 0.000000 0.000000
0.565047 1.230754 1.828680 0.000000 0.000000 0.000000
0.601115 1.188966 1.680811 0.000000 0.000000 0.000000
0.585604 1.213089 1.759095 0.000000 0.000000 0.000000
0.588137 1.213279 1.756079 0.000000 0.000000 0.000000
0.562426 1.220203 1.805243 0.000000 0.000000 0.000000
0.649900 1.167445 1.671736 0.000000 0.000000 0.000000
0.633672 1.177500 1.666656 0.000000 0.000000 0.000000
0.576647 1.212685 1.756920 0.000000 0.000000 0.000000
0.565588 1.214746 1.798017 0.000000 0.000000 0.000000
0.623339 1.180706 1.668829 0.000000 0.000000 0.000000
0.603145 1.228599 1.809348 0.000000 0.000000 0.000000
0.579561 1.205493 1.753077 0.000000 0.000000 0.000000
0.581533 1.238726 1.867376 0.000000 0.000000 0.000000
0.602665 1.189549 1.676611 0.000000 0.000000 0.000000
0.580446 1.209120 1.771769 0.000000 0.000000 0.000000
0.574717 1.207505 1.765009 0.000000 0.000000 0.000000
0.614374 1.190690 1.684072 0.000000 0.000000 0.000000
0.577639 1.203485 1.744103 0.000000 0.000000 0.000000
0.608795 1.211669 1.748079 0.000000 0.000000 0.000000
0.619448 1.188692 1.693888 0.000000 0.000000 0.000000
0.574816 1.215261 1.789710 0.000000 0.000000 0.000000
0.606857 1.224690 1.800062 0.000000 0.000000 0.000000
0.572876 1.208833 1.766003 0.000000 0.000000 0.000000
0.677169 1.152270 1.656554 0.000000 0.000000 0.000000
0.560861 1.205701 1.772119 0.000000 0.000000 0.000000
0.566025 1.214886 1.786575 0.000000 0.000000 0.000000
0.565835 1.200673 1.747603 0.000000 0.000000 0.000000
0.642063 1.189454 1.679796 0.000000 0.000000 0.000000
0.586294 1.198907 1.725596 0.000000 0.000000 0.000000
0.612143 1.225497 1.815851 0.000000 0.000000 0.000000
0.629538 1.203916 1.716442 0.000000 0.000000 0.000000
0.619545 1.195160 1.711124 0.000000 0.000000 0.000000
0.599367 1.227812 1.810516 0.000000 0.000000 0.000000
0.607390 1.221827 1.798265 0.000000 0.000000 0.000000
0.605264 1.235219 1.815281 0.000000 0.000000 0.000000
0.636304 1.187406 1.692225 0.000000 0.000000 0.000000
0.600371 1.229641 1.839352 0.000000 0.000000 0.000000
0.569691 1.213611 1.789330 0.000000 0.000000 0.000000
0.606619 1.231115 1.826553 0.000000 0.000000 0.000000
0.620271 1.200933 1.716418 0.000000 0.000000 0.000000
0.610401 1.232494 1.805890 0.000000 0.000000 0.000000
0.612642 1.219317 1.788628 0.000000 0.000000 0.000000
0.619184 1.219620 1.799405 0.000000 0.000000 0.000000
0.618539 1.217836 1.796441 0.000000 0.000000 0.000000
0.570925 1.203929 1.762183 0.000000 0.000000 0.000000
0.622895 1.182636 1.707322 0.000000 0.000000 0.000000
0.614006 1.215748 1.782045 0.000000 0.000000 0.000000
0.593353 1.203681 1.720805 0.000000 0.000000 0.000000
0.632209 1.219259 1.759213 0.000000 0.000000 0.000000
0.566407 1.221792 1.819353 0.000000 0.000000 0.000000
0.579226 1.209851 1.780590 0.000000 0.000000 0.000000
0.568952 1.229677 1.808255 0.000000 0.000000 0.000000
0.589855 1.206577 1.734529 0.000000 0.000000 0.000000
0.642458 1.191801 1.732808 0.000000 0.000000 0.000000
0.578310 1.216572 1.795412 0.000000 0.000000 0.000000
0.615267 1.186845 1.716004 0.000000 0.000000 0.000000
0.592412 1.204063 1.712013 0.000000 0.000000 0.000000
0.578758 1.191073 1.722899 0.000000 0.000000 0.000000
0.575506 1.208897 1.773737 0.000000 0.000000 0.000000
0.612953 1.232392 1.801672 0.000000 0.000000 0.000000
0.617195 1.219428 1.781469 0.000000 0.000000 0.000000
0.616773 1.226223 1.788600 0.000000 0.000000 0.000000
0.622177 1.216955 1.794900 0.000000 0.000000 0.000000
0.623091 1.215050 1.789017 0.000000 0.000000 0.000000
0.573506 1.198680 1.749999 0.000000 0.000000 0.000000
0.587635 1.197759 1.730039 0.000000 0.000000 0.000000
0.585655 1.196077 1.715811 0.000000 0.000000 0.000000
0.613999 1.212790 1.777961 0.000000 0.000000 0.000000
0.621509 1.227061 1.779844 0.000000 0.000000 0.000000
0.561348 1.235290 1.811245 0.000000 0.000000 0.000000
0.617804 1.224568 1.802151 0.000000 0.000000 0.000000
0.595907 1.199744 1.706588 0.000000 0.000000 0.000000
0.578259 1.217344 1.798270 0.000000 0.000000 0.000000
0.563961 1.245119 1.827665 0.000000 0.000000 0.000000
0.572842 1.195826 1.741131 0.000000 0.000000 0.000000
0.582667 1.203793 1.746843 0.000000 0.000000 0.000000
0.607683 1.219919 1.802903 0.000000 0.000000 0.000000
0.620531 1.218218 1.768540 0.000000 0.000000 0.000000
0.589420 1.220111 1.783346 0.000000 0.000000 0.000000
0.620885 1.220167 1.797133 0.000000 0.000000 0.000000
0.634632 1.208838 1.752306 0.000000 0.000000 0.000000
0.587186 1.204273 1.722584 0.000000 0.000000 0.000000
0.595633 1.216975 1.769134 0.000000 0.000000 0.000000
0.576798 1.212600 1.756484 0.000000 0.000000 0.000000
0.580458 1.201372 1.744198 0.000000 0.000000 0.000000
0.602731 1.192274 1.736464 0.000000 0.000000 0.000000
0.587080 1.239170 1.867197 0.000000 0.000000 0.000000
0.650661 1.191055 1.714941 0.000000 0.000000 0.000000
0.640522 1.189796 1.725215 0.000000 0.000000 0.000000
0.593613 1.241014 1.832514 0.000000 0.000000 0.000000
0.646754 1.186159 1.706975 0.000000 0.000000 0.000000
0.649781 1.183890 1.712283 0.000000 0.000000 0.000000
0.652345 1.180081 1.700959 0.000000 0.000000 0.000000
0.635826 1.198937 1.746483 0.000000 0.000000 0.000000
0.607034 1.193999 1.682184 0.000000 0.000000 0.000000
0.623467 1.209642 1.772212 0.000000 0.000000 0.000000
0.624164 1.218168 1.786022 0.000000 0.000000 0.000000
0.588324 1.235610 1.839124 0.000000 0.000000 0.000000
0.576258 1.199150 1.741893 0.000000 0.000000 0.000000
0.599442 1.246442 1.835648 0.000000 0.000000 0.000000
0.616948 1.223233 1.803768 0.000000 0.000000 0.000000
0.577168 1.195067 1.727612 0.000000 0.000000 0.000000
0.598484 1.240904 1.829935 0.000000 0.000000 0.000000
0.629688 1.209286 1.768626 0.000000 0.000000 0.000000
0.566423 1.206669 1.764836 0.000000 0.000000 0.000000
0.616754 1.221002 1.800369 0.000000 0.000000 0.000000
0.630895 1.210550 1.777221 0.000000 0.000000 0.000000
0.582480 1.194578 1.733187 0.000000 0.000000 0.000000
0.584388 1.196954 1.717998 0.000000 0.000000 0.000000
0.623461 1.219123 1.792087 0.000000 0.000000 0.000000
0.624463 1.217022 1.788200 0.000000 0.000000 0.000000
0.621995 1.213150 1.765483 0.000000 0.000000 0.000000
0.594031 1.242973 1.838840 0.000000 0.000000 0.000000
0.591573 1.239515 1.837528 0.000000 0.000000 0.000000
0.598740 1.182835 1.674496 0.000000 0.000000 0.000000
0.600485 1.241282 1.826450 0.000000 0.000000 0.000000
0.598910 1.233983 1.837315 0.000000 0.000000 0.000000
0.584056 1.190376 1.713569 0.000000 0.000000 0.000000
0.575586 1.231270 1.868959 0.000000 0.000000 0.000000
0.611132 1.214142 1.789347 0.000000 0.000000 0.000000
0.614899 1.218442 1.802051 0.000000 0.000000 0.000000
0.607255 1.218245 1.792057 0.000000 0.000000 0.000000
0.574561 1.233239 1.815384 0.000000 0.000000 0.000000
0.616145 1.233226 1.797538 0.000000 0.000000 0.000000
0.606656 1.218305 1.794751 0.000000 0.000000 0.000000
0.614231 1.223414 1.793692 0.000000 0.000000 0.000000
0.610430 1.217038 1.795771 0.000000 0.000000 0.000000
0.591825 1.222197 1.772153 0.000000 0.000000 0.000000
0.591771 1.216848 1.781544 0.000000 0.000000 0.000000
0.616953 1.210033 1.767889 0.000000 0.000000 0.000000
0.604190 1.210523 1.750071 0.000000 0.000000 0.000000
0.604134 1.221062 1.804361 0.000000 0.000000 0.000000
0.587723 1.215321 1.787477 0.000000 0.000000 0.000000
0.566266 1.236087 1.827183 0.000000 0.000000 0.000000
0.616412 1.208346 1.762005 0.000000 0.000000 0.000000
0.565471 1.245294 1.834531 0.000000 0.000000 0.000000
0.566080 1.202342 1.755178 0.000000 0.000000 0.000000
0.588180 1.222418 1.783051 0.000000 0.000000 0.000000
0.612817 1.208592 1.759049 0.000000 0.000000 0.000000
0.561452 1.203159 1.769179 0.000000 0.000000 0.000000
0.576416 1.234314 1.794762 0.000000 0.000000 0.000000
0.605460 1.204285 1.745378 0.000000 0.000000 0.000000
0.615693 1.197543 1.719201 0.000000 0.000000 0.000000
0.570680 1.218623 1.809996 0.000000 0.000000 0.000000
0.617154 1.214336 1.767775 0.000000 0.000000 0.000000
0.573806 1.234745 1.812691 0.000000 0.000000 0.000000
0.567338 1.245828 1.832505 0.000000 0.000000 0.000000
0.641070 1.196655 1.742720 0.000000 0.000000 0.000000
0.645562 1.187768 1.696475 0.000000 0.000000 0.000000
0.632076 1.194426 1.693612 0.000000 0.000000 0.000000
0.633262 1.206860 1.747610 0.000000 0.000000 0.000000
0.642637 1.194176 1.732914 0.000000 0.000000 0.000000
0.591939 1.195571 1.702334 0.000000 0.000000 0.000000
0.639011 1.200608 1.752128 0.000000 0.000000 0.000000
0.629093 1.212186 1.764873 0.000000 0.000000 0.000000
0.626026 1.214618 1.764725 0.000000 0.000000 0.000000
0.601030 1.211456 1.756719 0.000000 0.000000 0.000000
0.641465 1.189869 1.705907 0.000000 0.000000 0.000000
0.633475 1.198661 1.741504 0.000000 0.000000 0.000000
0.641371 1.179826 1.664123 0.000000 0.000000 0.000000
0.635121 1.201567 1.751498 0.000000 0.000000 0.000000
0.637750 1.197899 1.739991 0.000000 0.000000 0.000000
0.592863 1.229081 1.824876 0.000000 0.000000 0.000000
0.630145 1.208661 1.747483 0.000000 0.000000 0.000000
0.588688 1.192489 1.701656 0.000000 0.000000 0.000000
0.643665 1.194849 1.727469 0.000000 0.000000 0.000000
0.585361 1.232537 1.859468 0.000000 0.000000 0.000000
0.582688 1.193129 1.726881 0.000000 0.000000 0.000000
0.629271 1.208258 1.740692 0.000000 0.000000 0.000000
0.595805 1.237543 1.850987 0.000000 0.000000 0.000000
0.581934 1.238900 1.856479 0.000000 0.000000 0.000000
0.636232 1.199285 1.709073 0.000000 0.000000 0.000000
0.654705 1.180170 1.677366 0.000000 0.000000 0.000000
0.652856 1.180990 1.679190 0.000000 0.000000 0.000000
0.577305 1.239304 1.873863 0.000000 0.000000 0.000000
0.625555 1.207281 1.729611 0.000000 0.000000 0.000000
0.659362 1.164341 1.664518 0.000000 0.000000 0.000000
0.646499 1.189612 1.688011 0.000000 0.000000 0.000000
0.575976 1.233505 1.812902 0.000000 0.000000 0.000000
0.570334 1.239354 1.818247 0.000000 0.000000 0.000000
0.571140 1.236147 1.825439 0.000000 0.000000 0.000000
0.570049 1.234695 1.816228 0.000000 0.000000 0.000000
0.662384 1.168878 1.671183 0.000000 0.000000 0.000000
0.558857 1.214498 1.781132 0.000000 0.000000 0.000000
0.596221 1.239748 1.848850 0.000000 0.000000 0.000000
0.610982 1.203653 1.730328 0.000000 0.000000 0.000000
0.575554 1.230325 1.801638 0.000000 0.000000 0.000000
0.567466 1.232310 1.822342 0.000000 0.000000 0.000000
0.574043 1.233023 1.816952 0.000000 0.000000 0.000000
0.570613 1.238394 1.825492 0.000000 0.000000 0.000000
0.566196 1.239247 1.834087 0.000000 0.000000 0.000000
0.569431 1.236973 1.815472 0.000000 0.000000 0.000000
0.662568 1.170491 1.681094 0.000000 0.000000 0.000000
0.564158 1.215336 1.772838 0.000000 0.000000 0.000000
0.571968 1.228054 1.810653 0.000000 0.000000 0.000000
0.606382 1.235323 1.827462 0.000000 0.000000 0.000000
0.633257 1.205359 1.721191 0.000000 0.000000 0.000000
0.554623 1.216552 1.797314 0.000000 0.000000 0.000000
0.577273 1.230035 1.792864 0.000000 0.000000 0.000000
0.560473 1.237905 1.846899 0.000000 0.000000 0.000000
0.575693 1.225887 1.814960 0.000000 0.000000 0.000000
0.573022 1.240266 1.824762 0.000000 0.000000 0.000000
0.568511 1.233509 1.801826 0.000000 0.000000 0.000000
0.606889 1.213308 1.789965 0.000000 0.000000 0.000000
0.567381 1.239457 1.821222 0.000000 0.000000 0.000000
0.607029 1.194306 1.684849 0.000000 0.000000 0.000000
0.580207 1.190880 1.721833 0.000000 0.000000 0.000000
0.563975 1.234449 1.820480 0.000000 0.000000 0.000000
0.569913 1.235618 1.814086 0.000000 0.000000 0.000000
0.597242 1.202064 1.714778 0.000000 0.000000 0.000000
0.577989 1.193259 1.732566 0.000000 0.000000 0.000000
0.616620 1.218080 1.790394 0.000000 0.000000 0.000000
0.646029 1.174945 1.688174 0.000000 0.000000 0.000000
0.643622 1.196169 1.734834 0.000000 0.000000 0.000000
0.621411 1.192266 1.729717 0.000000 0.000000 0.000000
0.627032 1.213620 1.778628 0.000000 0.000000 0.000000
0.635354 1.188065 1.720488 0.000000 0.000000 0.000000
0.646695 1.191387 1.727494 0.000000 0.000000 0.000000
0.628707 1.183898 1.710383 0.000000 0.000000 0.000000
0.627431 1.214585 1.776495 0.000000 0.000000 0.000000
0.607982 1.236958 1.817749 0.000000 0.000000 0.000000
0.571845 1.236606 1.816193 0.000000 0.000000 0.000000
0.654058 1.182590 1.703068 0.000000 0.000000 0.000000
0.651248 1.185944 1.699994 0.000000 0.000000 0.000000
0.649989 1.184400 1.709943 0.000000 0.000000 0.000000
0.602996 1.236405 1.813110 0.000000 0.000000 0.000000
0.607489 1.227551 1.829338 0.000000 0.000000 0.000000
0.649690 1.186564 1.712446 0.000000 0.000000 0.000000
0.555312 1.208076 1.783935 0.000000 0.000000 0.000000
0.655934 1.182596 1.704103 0.000000 0.000000 0.000000
0.598939 1.229481 1.835801 0.000000 0.000000 0.000000
0.594822 1.238914 1.853803 0.000000 0.000000 0.000000
0.593429 1.232527 1.850526 0.000000 0.000000 0.000000
0.589340 1.239488 1.865155 0.000000 0.000000 0.000000
0.645468 1.190833 1.718339 0.000000 0.000000 0.000000
0.614231 1.223184 1.807958 0.000000 0.000000 0.000000
0.605361 1.229690 1.801145 0.000000 0.000000 0.000000
0.651979 1.184908 1.710481 0.000000 0.000000 0.000000
0.555589 1.209273 1.789465 0.000000 0.000000 0.000000
0.647791 1.190378 1.719239 0.000000 0.000000 0.000000
0.588740 1.234363 1.858389 0.000000 0.000000 0.000000
0.592490 1.239504 1.859963 0.000000 0.000000 0.000000
0.600439 1.236168 1.840031 0.000000 0.000000 0.000000
0.578252 1.227358 1.802877 0.000000 0.000000 0.000000
0.564802 1.225126 1.816558 0.000000 0.000000 0.000000
0.568564 1.229954 1.809516 0.000000 0.000000 0.000000
0.573697 1.227170 1.799295 0.000000 0.000000 0.000000
0.638200 1.203919 1.747665 0.000000 0.000000 0.000000
0.564964 1.217488 1.794960 0.000000 0.000000 0.000000
0.567537 1.212262 1.777815 0.000000 0.000000 0.000000
0.640196 1.201333 1.733459 0.000000 0.000000 0.000000
0.647524 1.192003 1.727441 0.000000 0.000000 0.000000
0.601363 1.223159 1.812275 0.000000 0.000000 0.000000
0.644813 1.192507 1.720610 0.000000 0.000000 0.000000
0.621817 1.214693 1.769830 0.000000 0.000000 0.000000
0.627528 1.204205 1.746641 0.000000 0.000000 0.000000
0.633668 1.214819 1.751598 0.000000 0.000000 0.000000
0.635940 1.208545 1.754652 0.000000 0.000000 0.000000
0.624802 1.218608 1.775746 0.000000 0.000000 0.000000
0.639198 1.200216 1.744857 0.000000 0.000000 0.000000
0.639757 1.202216 1.737155 0.000000 0.000000 0.000000
0.569206 1.210300 1.776855 0.000000 0.000000 0.000000
0.645625 1.191521 1.730039 0.000000 0.000000 0.000000
0.650320 1.188642 1.723823 0.000000 0.000000 0.000000
0.603491 1.217412 1.799110 0.000000 0.000000 0.000000
0.646453 1.191447 1.723795 0.000000 0.000000 0.000000
0.632456 1.206996 1.740463 0.000000 0.000000 0.000000
0.636596 1.209671 1.747344 0.000000 0.000000 0.000000
0.637316 1.208099 1.741107 0.000000 0.000000 0.000000
0.635941 1.204910 1.756262 0.000000 0.000000 0.000000
0.633114 1.213882 1.759792 0.000000 0.000000 0.000000
0.561692 1.217577 1.798614 0.000000 0.000000 0.000000
0.650102 1.189809 1.708068 0.000000 0.000000 0.000000
0.640703 1.199397 1.730613 0.000000 0.000000 0.000000
0.584200 1.220949 1.779572 0.000000 0.000000 0.000000
0.594627 1.216260 1.770394 0.000000 0.000000 0.000000
0.570030 1.219620 1.781948 0.000000 0.000000 0.000000
0.587978 1.219678 1.775151 0.000000 0.000000 0.000000
0.576615 1.221820 1.782123 0.000000 0.000000 0.000000
0.561900 1.223861 1.824412 0.000000 0.000000 0.000000
0.579702 1.215693 1.765706 0.000000 0.000000 0.000000
0.587385 1.221193 1.786632 0.000000 0.000000 0.000000
0.569280 1.225976 1.808824 0.000000 0.000000 0.000000
0.591423 1.183681 1.702766 0.000000 0.000000 0.000000
0.590430 1.192759 1.694040 0.000000 0.000000 0.000000
0.573366 1.230093 1.817018 0.000000 0.000000 0.000000
0.581119 1.223724 1.798903 0.000000 0.000000 0.000000
0.591422 1.216178 1.763388 0.000000 0.000000 0.000000
0.588252 1.212450 1.764873 0.000000 0.000000 0.000000
0.570548 1.223903 1.789099 0.000000 0.000000 0.000000
0.564103 1.237558 1.815118 0.000000 0.000000 0.000000
0.575378 1.220545 1.782714 0.000000 0.000000 0.000000
0.560224 1.233292 1.823616 0.000000 0.000000 0.000000
0.567708 1.226359 1.798199 0.000000 0.000000 0.000000
0.573372 1.220182 1.776901 0.000000 0.000000 0.000000
0.586581 1.224650 1.791542 0.000000 0.000000 0.000000
0.581191 1.226267 1.788555 0.000000 0.000000 0.000000
0.583260 1.220747 1.796124 0.000000 0.000000 0.000000
0.583118 1.187605 1.706193 0.000000 0.000000 0.000000
0.575196 1.203505 1.739578 0.000000 0.000000 0.000000
0.576251 1.235577 1.810226 0.000000 0.000000 0.000000
0.577172 1.230387 1.806126 0.000000 0.000000 0.000000
0.582599 1.224845 1.798404 0.000000 0.000000 0.000000
0.622808 1.212355 1.781320 0.000000 0.000000 0.000000
0.615488 1.211940 1.783122 0.000000 0.000000 0.000000
0.581330 1.229953 1.798950 0.000000 0.000000 0.000000
0.607186 1.215469 1.791898 0.000000 0.000000 0.000000
0.615281 1.211372 1.775043 0.000000 0.000000 0.000000
0.610983 1.212171 1.782618 0.000000 0.000000 0.000000
0.605801 1.220941 1.797312 0.000000 0.000000 0.000000
0.620338 1.210814 1.779053 0.000000 0.000000 0.000000
0.609384 1.214273 1.783742 0.000000 0.000000 0.000000
0.578293 1.224821 1.806189 0.000000 0.000000 0.000000
0.586444 1.239060 1.851076 0.000000 0.000000 0.000000
0.608442 1.215590 1.807034 0.000000 0.000000 0.000000
0.594455 1.211760 1.773769 0.000000 0.000000 0.000000
0.581346 1.218661 1.801179 0.000000 0.000000 0.000000
0.594785 1.221576 1.784832 0.000000 0.000000 0.000000
0.584752 1.235306 1.851866 0.000000 0.000000 0.000000
0.604061 1.219948 1.816978 0.000000 0.000000 0.000000
0.597417 1.208808 1.761312 0.000000 0.000000 0.000000
0.580373 1.221980 1.795502 0.000000 0.000000 0.000000
0.605476 1.222993 1.774825 0.000000 0.000000 0.000000
0.587135 1.234156 1.845033 0.000000 0.000000 0.000000
0.582138 1.238227 1.858917 0.000000 0.000000 0.000000
0.580440 1.238933 1.860860 0.000000 0.000000 0.000000
0.575568 1.230283 1.808920 0.000000 0.000000 0.000000
0.574076 1.235774 1.817098 0.000000 0.000000 0.000000
0.561761 1.206339 1.770308 0.000000 0.000000 0.000000
0.653377 1.183421 1.701769 0.000000 0.000000 0.000000
0.654501 1.179001 1.702138 0.000000 0.000000 0.000000
0.561022 1.203023 1.760389 0.000000 0.000000 0.000000
0.649136 1.179915 1.702624 0.000000 0.000000 0.000000
0.668611 1.168703 1.657359 0.000000 0.000000 0.000000
0.660932 1.180416 1.693647 0.000000 0.000000 0.000000
0.654882 1.177146 1.699618 0.000000 0.000000 0.000000
0.562582 1.203663 1.763723 0.000000 0.000000 0.000000
0.642228 1.191252 1.717518 0.000000 0.000000 0.000000
0.656447 1.175430 1.686523 0.000000 0.000000 0.000000
0.652018 1.186461 1.695056 0.000000 0.000000 0.000000
0.576274 1.193738 1.719230 0.000000 0.000000 0.000000
0.570440 1.197123 1.738369 0.000000 0.000000 0.000000
0.578245 1.193790 1.734914 0.000000 0.000000 0.000000
0.576927 1.196089 1.731783 0.000000 0.000000 0.000000
0.632393 1.206555 1.767001 0.000000 0.000000 0.000000
0.582369 1.193801 1.698754 0.000000 0.000000 0.000000
0.579512 1.195060 1.712446 0.000000 0.000000 0.000000
0.572491 1.198702 1.727445 0.000000 0.000000 0.000000
0.569900 1.199345 1.740976 0.000000 0.000000 0.000000
0.570740 1.199831 1.744254 0.000000 0.000000 0.000000
0.577091 1.195624 1.740034 0.000000 0.000000 0.000000
0.631814 1.204432 1.757073 0.000000 0.000000 0.000000
0.588768 1.191624 1.688187 0.000000 0.000000 0.000000
0.582837 1.196591 1.712807 0.000000 0.000000 0.000000
0.579444 1.231827 1.806320 0.000000 0.000000 0.000000
0.571726 1.239591 1.824164 0.000000 0.000000 0.000000
0.575131 1.234793 1.804213 0.000000 0.000000 0.000000
0.614637 1.224586 1.816572 0.000000 0.000000 0.000000
0.601210 1.230529 1.842481 0.000000 0.000000 0.000000
0.587611 1.235612 1.855904 0.000000 0.000000 0.000000
0.570123 1.239387 1.817503 0.000000 0.000000 0.000000
0.607172 1.226479 1.821347 0.000000 0.000000 0.000000
0.599162 1.227850 1.837341 0.000000 0.000000 0.000000
0.604128 1.231649 1.831156 0.000000 0.000000 0.000000
