ply
format ascii 1.0
comment VCGLIB generated
obj_info Generated by SPFormer!
element vertex 37
property float x
property float y
property float z
property float nx
property float ny
property float nz
end_header
0.635920 1.121887 1.589682 0.000000 0.000000 0.000000
0.615629 1.136366 1.568197 0.000000 0.000000 0.000000
0.636421 1.151641 1.548622 0.000000 0.000000 0.000000
0.574919 1.136818 1.559461 0.000000 0.000000 0.000000
0.600171 1.142791 1.546515 0.000000 0.000000 0.000000
0.589015 1.144214 1.562954 0.000000 0.000000 0.000000
0.635766 1.148503 1.536109 0.000000 0.000000 0.000000
0.624757 1.159625 1.529624 0.000000 0.000000 0.000000
0.594525 1.152841 1.561787 0.000000 0.000000 0.000000
0.604829 1.154906 1.526979 0.000000 0.000000 0.000000
0.572768 1.136070 1.548301 0.000000 0.000000 0.000000
0.616513 1.131709 1.559245 0.000000 0.000000 0.000000
0.583578 1.151131 1.587188 0.000000 0.000000 0.000000
0.601166 1.141367 1.591400 0.000000 0.000000 0.000000
0.570319 1.150766 1.599724 0.000000 0.000000 0.000000
0.629768 1.157729 1.538061 0.000000 0.000000 0.000000
0.571791 1.150260 1.595327 0.000000 0.000000 0.000000
0.578928 1.147627 1.593726 0.000000 0.000000 0.000000
0.562772 1.138151 1.567024 0.000000 0.000000 0.000000
0.563224 1.150130 1.588978 0.000000 0.000000 0.000000
0.605302 1.135929 1.538234 0.000000 0.000000 0.000000
0.589962 1.135089 1.547193 0.000000 0.000000 0.000000
0.572506 1.144019 1.573798 0.000000 0.000000 0.000000
0.618832 1.159465 1.527733 0.000000 0.000000 0.000000
0.622210 1.155140 1.530884 0.000000 0.000000 0.000000
0.620709 1.154049 1.591872 0.000000 0.000000 0.000000
0.603693 1.156827 1.572497 0.000000 0.000000 0.000000
0.591089 1.154781 1.591700 0.000000 0.000000 0.000000
0.603630 1.151847 1.587188 0.000000 0.000000 0.000000
0.638273 1.147994 1.560777 0.000000 0.000000 0.000000
0.572298 1.154087 1.582340 0.000000 0.000000 0.000000
0.591533 1.152408 1.600631 0.000000 0.000000 0.000000
0.574009 1.155002 1.590788 0.000000 0.000000 0.000000
0.580690 1.151932 1.601645 0.000000 0.000000 0.000000
0.635041 1.158836 1.557168 0.000000 0.000000 0.000000
0.590671 1.136092 1.538855 0.000000 0.000000 0.000000
0.597932 1.142681 1.542205 0.000000 0.000000 0.000000
