ply
format ascii 1.0
comment VCGLIB generated
obj_info Generated by SPFormer!
element vertex 522
property float x
property float y
property float z
property float nx
property float ny
property float nz
end_header
-0.000394 0.948812 2.822753 0.000000 0.000000 0.000000
-0.029021 0.968728 2.846558 0.000000 0.000000 0.000000
-0.031729 0.950922 2.836556 0.000000 0.000000 0.000000
-0.069984 0.981379 2.832616 0.000000 0.000000 0.000000
-0.039395 0.972121 2.830505 0.000000 0.000000 0.000000
-0.076256 0.980123 2.834432 0.000000 0.000000 0.000000
-0.017586 0.951322 2.829018 0.000000 0.000000 0.000000
-0.001843 0.983480 2.828490 0.000000 0.000000 0.000000
-0.010978 0.965928 2.828835 0.000000 0.000000 0.000000
-0.004083 0.978476 2.815679 0.000000 0.000000 0.000000
-0.037118 0.958373 2.836208 0.000000 0.000000 0.000000
-0.025090 0.954102 2.831200 0.000000 0.000000 0.000000
-0.016111 0.952708 2.827501 0.000000 0.000000 0.000000
-0.025648 0.971140 2.823700 0.000000 0.000000 0.000000
-0.046804 0.971725 2.834207 0.000000 0.000000 0.000000
-0.003269 0.950635 2.826062 0.000000 0.000000 0.000000
-0.077973 0.954525 2.842901 0.000000 0.000000 0.000000
-0.013442 0.947913 2.838362 0.000000 0.000000 0.000000
-0.057977 0.974463 2.838797 0.000000 0.000000 0.000000
-0.043815 0.957343 2.847912 0.000000 0.000000 0.000000
-0.036113 0.983161 2.829593 0.000000 0.000000 0.000000
-0.032107 0.953645 2.837691 0.000000 0.000000 0.000000
-0.026198 0.961679 2.827627 0.000000 0.000000 0.000000
-0.021606 0.975064 2.837720 0.000000 0.000000 0.000000
-0.022438 0.975840 2.841868 0.000000 0.000000 0.000000
-0.028036 0.984287 2.824091 0.000000 0.000000 0.000000
-0.035263 0.948382 2.854171 0.000000 0.000000 0.000000
0.079297 0.962292 2.794748 0.000000 0.000000 0.000000
-0.079311 0.996650 2.837099 0.000000 0.000000 0.000000
-0.017529 0.947896 2.835022 0.000000 0.000000 0.000000
-0.035656 0.956060 2.835575 0.000000 0.000000 0.000000
0.067159 0.969622 2.797907 0.000000 0.000000 0.000000
-0.049377 0.960359 2.836256 0.000000 0.000000 0.000000
-0.045118 0.988206 2.830997 0.000000 0.000000 0.000000
0.078211 0.967212 2.794791 0.000000 0.000000 0.000000
-0.022711 0.987721 2.838556 0.000000 0.000000 0.000000
-0.066395 0.967284 2.836736 0.000000 0.000000 0.000000
-0.067768 0.980985 2.833202 0.000000 0.000000 0.000000
0.075733 0.964519 2.798736 0.000000 0.000000 0.000000
-0.015656 0.974646 2.848070 0.000000 0.000000 0.000000
-0.042602 0.950054 2.860485 0.000000 0.000000 0.000000
-0.066600 0.980306 2.833050 0.000000 0.000000 0.000000
-0.017799 0.940640 2.843328 0.000000 0.000000 0.000000
-0.023502 0.936183 2.853654 0.000000 0.000000 0.000000
-0.006968 0.982426 2.819028 0.000000 0.000000 0.000000
-0.039838 0.956013 2.846543 0.000000 0.000000 0.000000
-0.002295 0.941211 2.836864 0.000000 0.000000 0.000000
-0.019398 0.955825 2.818863 0.000000 0.000000 0.000000
-0.001175 0.970145 2.839306 0.000000 0.000000 0.000000
-0.010992 0.946923 2.832414 0.000000 0.000000 0.000000
-0.039984 0.979069 2.844331 0.000000 0.000000 0.000000
-0.035641 0.946728 2.849342 0.000000 0.000000 0.000000
-0.066572 0.957003 2.862850 0.000000 0.000000 0.000000
-0.036550 0.971390 2.851336 0.000000 0.000000 0.000000
-0.003499 0.946299 2.827451 0.000000 0.000000 0.000000
-0.047679 0.994217 2.831027 0.000000 0.000000 0.000000
-0.053633 0.995551 2.831263 0.000000 0.000000 0.000000
-0.065986 0.992817 2.836878 0.000000 0.000000 0.000000
-0.018998 0.985106 2.831656 0.000000 0.000000 0.000000
-0.022954 0.942142 2.849392 0.000000 0.000000 0.000000
-0.078608 0.966794 2.839285 0.000000 0.000000 0.000000
-0.079587 0.982093 2.821900 0.000000 0.000000 0.000000
-0.055854 0.967527 2.834994 0.000000 0.000000 0.000000
-0.073417 0.997609 2.832160 0.000000 0.000000 0.000000
-0.062148 0.999164 2.832866 0.000000 0.000000 0.000000
-0.010094 0.976615 2.830420 0.000000 0.000000 0.000000
-0.074804 0.967008 2.835577 0.000000 0.000000 0.000000
-0.063768 0.955712 2.866645 0.000000 0.000000 0.000000
-0.060011 0.958762 2.858288 0.000000 0.000000 0.000000
-0.021440 0.979975 2.829455 0.000000 0.000000 0.000000
-0.079989 0.956556 2.863633 0.000000 0.000000 0.000000
-0.075075 0.953467 2.859897 0.000000 0.000000 0.000000
-0.038604 0.949800 2.860307 0.000000 0.000000 0.000000
-0.057365 0.955851 2.862516 0.000000 0.000000 0.000000
-0.034986 0.951346 2.860594 0.000000 0.000000 0.000000
-0.054597 0.952340 2.849333 0.000000 0.000000 0.000000
-0.069462 0.952626 2.856422 0.000000 0.000000 0.000000
-0.056769 0.952733 2.852696 0.000000 0.000000 0.000000
-0.047779 0.947634 2.850518 0.000000 0.000000 0.000000
-0.018893 0.979469 2.821035 0.000000 0.000000 0.000000
-0.041160 0.960043 2.830474 0.000000 0.000000 0.000000
-0.048794 0.953446 2.845654 0.000000 0.000000 0.000000
-0.010666 0.946510 2.831087 0.000000 0.000000 0.000000
-0.062284 0.953322 2.849445 0.000000 0.000000 0.000000
-0.054722 0.961522 2.838359 0.000000 0.000000 0.000000
-0.028106 0.965445 2.833851 0.000000 0.000000 0.000000
-0.067174 0.969540 2.835835 0.000000 0.000000 0.000000
-0.035154 0.947108 2.848604 0.000000 0.000000 0.000000
-0.007772 0.947368 2.827853 0.000000 0.000000 0.000000
-0.074734 0.955557 2.851617 0.000000 0.000000 0.000000
-0.070663 0.954543 2.853227 0.000000 0.000000 0.000000
-0.029751 0.948903 2.857916 0.000000 0.000000 0.000000
-0.054000 0.952551 2.847824 0.000000 0.000000 0.000000
-0.017284 0.947806 2.835453 0.000000 0.000000 0.000000
-0.069494 0.955018 2.864094 0.000000 0.000000 0.000000
-0.060658 0.954905 2.863264 0.000000 0.000000 0.000000
-0.048012 0.952728 2.860690 0.000000 0.000000 0.000000
-0.042573 0.952444 2.860757 0.000000 0.000000 0.000000
-0.072778 0.956218 2.861631 0.000000 0.000000 0.000000
-0.037386 0.948353 2.857554 0.000000 0.000000 0.000000
-0.053308 0.977765 2.827765 0.000000 0.000000 0.000000
-0.020018 0.970103 2.822110 0.000000 0.000000 0.000000
-0.024438 0.979833 2.814021 0.000000 0.000000 0.000000
-0.035415 0.961727 2.828528 0.000000 0.000000 0.000000
-0.036410 0.965489 2.831630 0.000000 0.000000 0.000000
-0.057501 0.989661 2.827599 0.000000 0.000000 0.000000
-0.046409 0.988116 2.826582 0.000000 0.000000 0.000000
-0.004992 0.979821 2.814839 0.000000 0.000000 0.000000
-0.008188 0.975827 2.816476 0.000000 0.000000 0.000000
-0.015151 0.986161 2.835504 0.000000 0.000000 0.000000
-0.004292 0.980149 2.836706 0.000000 0.000000 0.000000
-0.004979 0.986474 2.831616 0.000000 0.000000 0.000000
-0.010094 0.985887 2.837000 0.000000 0.000000 0.000000
-0.001633 0.982000 2.824931 0.000000 0.000000 0.000000
-0.063210 0.998954 2.833184 0.000000 0.000000 0.000000
-0.006220 0.956972 2.826411 0.000000 0.000000 0.000000
-0.021342 0.978357 2.836180 0.000000 0.000000 0.000000
-0.000179 0.948521 2.814418 0.000000 0.000000 0.000000
-0.008214 0.966878 2.807895 0.000000 0.000000 0.000000
-0.026393 0.987203 2.825899 0.000000 0.000000 0.000000
-0.049738 0.955988 2.864998 0.000000 0.000000 0.000000
-0.044686 0.952563 2.862968 0.000000 0.000000 0.000000
-0.007109 0.962894 2.819342 0.000000 0.000000 0.000000
0.054361 0.968156 2.798496 0.000000 0.000000 0.000000
-0.020415 0.993959 2.835462 0.000000 0.000000 0.000000
-0.009876 0.972137 2.816433 0.000000 0.000000 0.000000
-0.000821 0.939391 2.845766 0.000000 0.000000 0.000000
-0.015246 0.940434 2.850619 0.000000 0.000000 0.000000
-0.066920 0.991847 2.815300 0.000000 0.000000 0.000000
-0.074493 0.956309 2.847867 0.000000 0.000000 0.000000
-0.045393 0.973226 2.831366 0.000000 0.000000 0.000000
-0.071685 0.971131 2.839405 0.000000 0.000000 0.000000
-0.004352 0.982604 2.824963 0.000000 0.000000 0.000000
-0.008653 0.948118 2.831489 0.000000 0.000000 0.000000
-0.047915 0.988061 2.833499 0.000000 0.000000 0.000000
-0.053291 0.984720 2.830165 0.000000 0.000000 0.000000
-0.021747 0.947751 2.839488 0.000000 0.000000 0.000000
-0.043333 0.946718 2.855425 0.000000 0.000000 0.000000
-0.047932 0.949298 2.852147 0.000000 0.000000 0.000000
-0.044803 0.952500 2.853719 0.000000 0.000000 0.000000
-0.035577 0.949613 2.845595 0.000000 0.000000 0.000000
-0.063128 0.951295 2.862428 0.000000 0.000000 0.000000
-0.029088 0.945442 2.848059 0.000000 0.000000 0.000000
-0.050943 0.952713 2.857744 0.000000 0.000000 0.000000
-0.015153 0.971945 2.845370 0.000000 0.000000 0.000000
-0.031616 0.990497 2.826312 0.000000 0.000000 0.000000
-0.036077 0.954975 2.853695 0.000000 0.000000 0.000000
-0.013045 0.954645 2.829630 0.000000 0.000000 0.000000
-0.052343 0.950753 2.860315 0.000000 0.000000 0.000000
-0.019125 0.942416 2.855427 0.000000 0.000000 0.000000
-0.042261 0.953052 2.862167 0.000000 0.000000 0.000000
-0.023322 0.950450 2.835426 0.000000 0.000000 0.000000
0.067741 0.963853 2.798928 0.000000 0.000000 0.000000
-0.036695 0.946029 2.857702 0.000000 0.000000 0.000000
-0.016048 0.947998 2.856049 0.000000 0.000000 0.000000
-0.005954 0.945917 2.860335 0.000000 0.000000 0.000000
-0.004827 0.940057 2.849601 0.000000 0.000000 0.000000
-0.034552 0.956927 2.855869 0.000000 0.000000 0.000000
-0.039306 0.949584 2.856845 0.000000 0.000000 0.000000
-0.030864 0.971542 2.825133 0.000000 0.000000 0.000000
-0.045704 0.984754 2.830622 0.000000 0.000000 0.000000
-0.029353 0.980528 2.822997 0.000000 0.000000 0.000000
-0.028570 0.983010 2.822739 0.000000 0.000000 0.000000
-0.020597 0.963513 2.820995 0.000000 0.000000 0.000000
-0.018285 0.976835 2.819092 0.000000 0.000000 0.000000
-0.028110 0.978850 2.818215 0.000000 0.000000 0.000000
-0.015228 0.979673 2.819304 0.000000 0.000000 0.000000
-0.000021 0.950918 2.850935 0.000000 0.000000 0.000000
-0.019098 0.950394 2.851612 0.000000 0.000000 0.000000
-0.009262 0.950974 2.853612 0.000000 0.000000 0.000000
-0.005574 0.949612 2.841957 0.000000 0.000000 0.000000
-0.025164 0.947246 2.849800 0.000000 0.000000 0.000000
-0.016346 0.954825 2.842804 0.000000 0.000000 0.000000
-0.019559 0.946674 2.852000 0.000000 0.000000 0.000000
-0.073387 0.980258 2.833831 0.000000 0.000000 0.000000
-0.052542 0.986415 2.827672 0.000000 0.000000 0.000000
-0.079230 0.998852 2.817101 0.000000 0.000000 0.000000
-0.010845 0.941372 2.853826 0.000000 0.000000 0.000000
-0.024907 0.947820 2.859214 0.000000 0.000000 0.000000
-0.070602 0.978393 2.831169 0.000000 0.000000 0.000000
-0.073167 0.997416 2.825822 0.000000 0.000000 0.000000
-0.019020 0.948790 2.851225 0.000000 0.000000 0.000000
-0.019386 0.948219 2.858283 0.000000 0.000000 0.000000
-0.059173 0.994690 2.826551 0.000000 0.000000 0.000000
-0.076036 0.997218 2.825196 0.000000 0.000000 0.000000
-0.064796 0.992426 2.829712 0.000000 0.000000 0.000000
-0.069266 0.990387 2.826250 0.000000 0.000000 0.000000
-0.007566 0.969582 2.848454 0.000000 0.000000 0.000000
-0.000418 0.984643 2.827406 0.000000 0.000000 0.000000
-0.010581 0.975582 2.835855 0.000000 0.000000 0.000000
-0.018199 0.957417 2.853220 0.000000 0.000000 0.000000
-0.014448 0.952774 2.856369 0.000000 0.000000 0.000000
0.242883 0.994915 2.497231 0.000000 0.000000 0.000000
0.201740 0.954520 2.477702 0.000000 0.000000 0.000000
0.190218 0.948764 2.468475 0.000000 0.000000 0.000000
0.221110 0.983713 2.496079 0.000000 0.000000 0.000000
0.222652 0.989274 2.501853 0.000000 0.000000 0.000000
0.192820 0.963028 2.496175 0.000000 0.000000 0.000000
0.227430 0.985088 2.488052 0.000000 0.000000 0.000000
0.207871 0.948460 2.468886 0.000000 0.000000 0.000000
0.240837 0.972452 2.472682 0.000000 0.000000 0.000000
0.220800 0.971538 2.492527 0.000000 0.000000 0.000000
0.222972 0.991274 2.499429 0.000000 0.000000 0.000000
0.261207 1.001656 2.497651 0.000000 0.000000 0.000000
0.227830 0.974636 2.480333 0.000000 0.000000 0.000000
0.232469 0.986728 2.499051 0.000000 0.000000 0.000000
0.222317 0.983277 2.491015 0.000000 0.000000 0.000000
0.185386 0.943157 2.466505 0.000000 0.000000 0.000000
0.220136 0.981000 2.490454 0.000000 0.000000 0.000000
0.226329 0.983199 2.497937 0.000000 0.000000 0.000000
0.205532 0.964610 2.472587 0.000000 0.000000 0.000000
0.199791 0.948839 2.476029 0.000000 0.000000 0.000000
0.227443 0.976797 2.492572 0.000000 0.000000 0.000000
0.244379 0.988870 2.485906 0.000000 0.000000 0.000000
0.234787 0.980835 2.492365 0.000000 0.000000 0.000000
0.196198 0.972459 2.490183 0.000000 0.000000 0.000000
0.220012 0.957307 2.474351 0.000000 0.000000 0.000000
0.243754 0.986445 2.490803 0.000000 0.000000 0.000000
0.263532 1.009296 2.506273 0.000000 0.000000 0.000000
0.205426 0.967100 2.488340 0.000000 0.000000 0.000000
0.217692 0.959428 2.478330 0.000000 0.000000 0.000000
0.229122 0.972532 2.486554 0.000000 0.000000 0.000000
0.218053 0.967560 2.489350 0.000000 0.000000 0.000000
0.211633 0.970428 2.483497 0.000000 0.000000 0.000000
0.213653 0.972919 2.476601 0.000000 0.000000 0.000000
0.214560 0.950962 2.468159 0.000000 0.000000 0.000000
0.199402 0.943696 2.463449 0.000000 0.000000 0.000000
0.192127 0.963385 2.481958 0.000000 0.000000 0.000000
0.229706 0.980925 2.489846 0.000000 0.000000 0.000000
0.203710 0.945471 2.467600 0.000000 0.000000 0.000000
0.204487 0.977733 2.497211 0.000000 0.000000 0.000000
0.193279 0.965664 2.487802 0.000000 0.000000 0.000000
0.191411 0.958801 2.478604 0.000000 0.000000 0.000000
0.206020 0.971265 2.494721 0.000000 0.000000 0.000000
0.222285 0.983121 2.499463 0.000000 0.000000 0.000000
0.220312 0.980455 2.489021 0.000000 0.000000 0.000000
0.213042 0.964120 2.486255 0.000000 0.000000 0.000000
0.239433 0.974464 2.474975 0.000000 0.000000 0.000000
0.263580 1.003958 2.499781 0.000000 0.000000 0.000000
0.198349 0.953115 2.465487 0.000000 0.000000 0.000000
0.212120 0.959657 2.468608 0.000000 0.000000 0.000000
0.197802 0.958553 2.472343 0.000000 0.000000 0.000000
0.221921 0.971686 2.481449 0.000000 0.000000 0.000000
0.206747 0.965712 2.482438 0.000000 0.000000 0.000000
0.218990 0.977787 2.496030 0.000000 0.000000 0.000000
0.183501 0.964017 2.487514 0.000000 0.000000 0.000000
0.228655 0.960587 2.475035 0.000000 0.000000 0.000000
0.252811 0.999100 2.496714 0.000000 0.000000 0.000000
0.199700 0.979865 2.498461 0.000000 0.000000 0.000000
0.199846 0.980966 2.502176 0.000000 0.000000 0.000000
0.212675 0.989089 2.504064 0.000000 0.000000 0.000000
0.219979 0.979878 2.489683 0.000000 0.000000 0.000000
0.221718 0.987371 2.500119 0.000000 0.000000 0.000000
0.223859 0.994272 2.509315 0.000000 0.000000 0.000000
0.201112 0.983658 2.501228 0.000000 0.000000 0.000000
0.190853 0.938719 2.455640 0.000000 0.000000 0.000000
0.228169 0.975430 2.481559 0.000000 0.000000 0.000000
0.205678 0.971496 2.489638 0.000000 0.000000 0.000000
0.211287 0.981897 2.501023 0.000000 0.000000 0.000000
0.232389 0.987116 2.488153 0.000000 0.000000 0.000000
0.190610 0.940998 2.464341 0.000000 0.000000 0.000000
0.224191 0.989723 2.497889 0.000000 0.000000 0.000000
0.268288 0.993376 2.493342 0.000000 0.000000 0.000000
0.231099 0.982594 2.494501 0.000000 0.000000 0.000000
0.266225 1.000399 2.489628 0.000000 0.000000 0.000000
0.213012 0.977076 2.497114 0.000000 0.000000 0.000000
0.200538 0.970128 2.486272 0.000000 0.000000 0.000000
0.197608 0.974577 2.495937 0.000000 0.000000 0.000000
0.201313 0.975692 2.496660 0.000000 0.000000 0.000000
0.228706 0.966809 2.473910 0.000000 0.000000 0.000000
0.272764 1.005827 2.495416 0.000000 0.000000 0.000000
0.238651 0.975212 2.485698 0.000000 0.000000 0.000000
0.263334 0.999662 2.490230 0.000000 0.000000 0.000000
0.278865 1.006116 2.490167 0.000000 0.000000 0.000000
0.192253 0.973559 2.478106 0.000000 0.000000 0.000000
0.220172 0.986295 2.496641 0.000000 0.000000 0.000000
0.196578 0.971422 2.487986 0.000000 0.000000 0.000000
0.207083 0.982414 2.497395 0.000000 0.000000 0.000000
0.230164 0.977977 2.481667 0.000000 0.000000 0.000000
0.197692 0.971144 2.494228 0.000000 0.000000 0.000000
0.198133 0.939935 2.459422 0.000000 0.000000 0.000000
0.224953 0.958479 2.473640 0.000000 0.000000 0.000000
0.262849 0.998371 2.495938 0.000000 0.000000 0.000000
0.225737 0.955596 2.469507 0.000000 0.000000 0.000000
0.200728 0.976469 2.494041 0.000000 0.000000 0.000000
0.234266 0.973473 2.479405 0.000000 0.000000 0.000000
0.234030 0.968823 2.476494 0.000000 0.000000 0.000000
0.183283 0.944898 2.470858 0.000000 0.000000 0.000000
0.218685 0.967640 2.480851 0.000000 0.000000 0.000000
0.235521 0.973590 2.481777 0.000000 0.000000 0.000000
0.251819 0.992005 2.486287 0.000000 0.000000 0.000000
0.181670 0.933222 2.457158 0.000000 0.000000 0.000000
0.276544 1.004905 2.492873 0.000000 0.000000 0.000000
0.247046 1.000262 2.495707 0.000000 0.000000 0.000000
0.229430 0.993284 2.497177 0.000000 0.000000 0.000000
0.257800 0.999447 2.492509 0.000000 0.000000 0.000000
0.242755 0.996630 2.492022 0.000000 0.000000 0.000000
0.249986 0.994739 2.495734 0.000000 0.000000 0.000000
0.200913 0.980560 2.503526 0.000000 0.000000 0.000000
0.250025 0.995348 2.488959 0.000000 0.000000 0.000000
0.248211 0.975228 2.489173 0.000000 0.000000 0.000000
0.256623 0.998348 2.493527 0.000000 0.000000 0.000000
0.263709 0.996619 2.489449 0.000000 0.000000 0.000000
0.240217 0.989068 2.487469 0.000000 0.000000 0.000000
0.184095 0.951798 2.479137 0.000000 0.000000 0.000000
0.233744 0.982031 2.482129 0.000000 0.000000 0.000000
0.245548 0.982114 2.480241 0.000000 0.000000 0.000000
0.249588 0.983770 2.482678 0.000000 0.000000 0.000000
0.190090 0.951426 2.470635 0.000000 0.000000 0.000000
0.192164 0.945835 2.474171 0.000000 0.000000 0.000000
0.204427 0.965541 2.479428 0.000000 0.000000 0.000000
0.188163 0.963852 2.487391 0.000000 0.000000 0.000000
0.181941 0.956680 2.482812 0.000000 0.000000 0.000000
0.193382 0.951768 2.479099 0.000000 0.000000 0.000000
0.199758 0.946154 2.470566 0.000000 0.000000 0.000000
0.195445 0.953345 2.467862 0.000000 0.000000 0.000000
0.187977 0.944327 2.465825 0.000000 0.000000 0.000000
0.192735 0.948636 2.475025 0.000000 0.000000 0.000000
0.275190 1.009420 2.493077 0.000000 0.000000 0.000000
0.216796 0.950045 2.465083 0.000000 0.000000 0.000000
0.207341 0.952664 2.473830 0.000000 0.000000 0.000000
0.202331 0.945203 2.457435 0.000000 0.000000 0.000000
0.254684 0.999754 2.496577 0.000000 0.000000 0.000000
0.240226 0.972682 2.479987 0.000000 0.000000 0.000000
0.205888 0.944549 2.459963 0.000000 0.000000 0.000000
0.214085 0.956327 2.458490 0.000000 0.000000 0.000000
0.191287 0.935773 2.458040 0.000000 0.000000 0.000000
0.183045 0.948934 2.474840 0.000000 0.000000 0.000000
0.212665 0.987206 2.503727 0.000000 0.000000 0.000000
0.183921 0.942926 2.470122 0.000000 0.000000 0.000000
0.208802 0.982185 2.495941 0.000000 0.000000 0.000000
0.183368 0.939494 2.465454 0.000000 0.000000 0.000000
0.203214 0.941678 2.461373 0.000000 0.000000 0.000000
0.197626 0.947863 2.462296 0.000000 0.000000 0.000000
0.229152 0.959474 2.466475 0.000000 0.000000 0.000000
0.189713 0.947169 2.464413 0.000000 0.000000 0.000000
0.210393 0.958635 2.479621 0.000000 0.000000 0.000000
0.222812 0.954174 2.464200 0.000000 0.000000 0.000000
0.195487 0.964481 2.470436 0.000000 0.000000 0.000000
0.216374 0.949989 2.466104 0.000000 0.000000 0.000000
0.190811 0.945071 2.469531 0.000000 0.000000 0.000000
0.220787 0.961782 2.461526 0.000000 0.000000 0.000000
0.223977 0.954217 2.466667 0.000000 0.000000 0.000000
0.225222 0.966895 2.481463 0.000000 0.000000 0.000000
0.197246 0.956334 2.483619 0.000000 0.000000 0.000000
0.208168 0.959382 2.460006 0.000000 0.000000 0.000000
0.239286 0.976521 2.477284 0.000000 0.000000 0.000000
0.186637 0.943582 2.471925 0.000000 0.000000 0.000000
0.231692 0.963498 2.465081 0.000000 0.000000 0.000000
0.207740 0.986467 2.502193 0.000000 0.000000 0.000000
0.208110 0.987083 2.510685 0.000000 0.000000 0.000000
0.204051 0.981241 2.500350 0.000000 0.000000 0.000000
0.222284 0.983957 2.496911 0.000000 0.000000 0.000000
0.189107 0.935782 2.456040 0.000000 0.000000 0.000000
0.205757 0.937105 2.452083 0.000000 0.000000 0.000000
0.192957 0.936860 2.458573 0.000000 0.000000 0.000000
0.208490 0.945392 2.463790 0.000000 0.000000 0.000000
0.190058 0.941511 2.461201 0.000000 0.000000 0.000000
0.204705 0.950694 2.469971 0.000000 0.000000 0.000000
0.184705 0.935446 2.457901 0.000000 0.000000 0.000000
0.185899 0.953306 2.472309 0.000000 0.000000 0.000000
0.195928 0.965351 2.484734 0.000000 0.000000 0.000000
0.192325 0.962303 2.484601 0.000000 0.000000 0.000000
0.193203 0.973229 2.492353 0.000000 0.000000 0.000000
0.236185 0.976232 2.481697 0.000000 0.000000 0.000000
0.244840 0.977097 2.479988 0.000000 0.000000 0.000000
0.186245 0.961021 2.480758 0.000000 0.000000 0.000000
0.181577 0.959169 2.484592 0.000000 0.000000 0.000000
0.242683 0.981116 2.483849 0.000000 0.000000 0.000000
0.237002 0.988979 2.489249 0.000000 0.000000 0.000000
0.182587 0.956980 2.477470 0.000000 0.000000 0.000000
0.185361 0.955977 2.480716 0.000000 0.000000 0.000000
0.245721 1.000514 2.499942 0.000000 0.000000 0.000000
0.232517 0.963853 2.467775 0.000000 0.000000 0.000000
0.221848 0.965836 2.457877 0.000000 0.000000 0.000000
0.206145 0.956858 2.475479 0.000000 0.000000 0.000000
0.233896 0.962161 2.462050 0.000000 0.000000 0.000000
0.264240 0.997402 2.487924 0.000000 0.000000 0.000000
0.266492 1.000209 2.488941 0.000000 0.000000 0.000000
0.185254 0.938189 2.462920 0.000000 0.000000 0.000000
0.185228 0.963349 2.484068 0.000000 0.000000 0.000000
0.258583 0.995244 2.489710 0.000000 0.000000 0.000000
0.182392 0.939499 2.467845 0.000000 0.000000 0.000000
0.205445 0.984917 2.503970 0.000000 0.000000 0.000000
0.190218 0.956181 2.480721 0.000000 0.000000 0.000000
0.247859 0.979118 2.477336 0.000000 0.000000 0.000000
0.181015 0.951683 2.475891 0.000000 0.000000 0.000000
0.253449 0.985212 2.481393 0.000000 0.000000 0.000000
0.258981 1.003769 2.491802 0.000000 0.000000 0.000000
0.258553 1.003114 2.498165 0.000000 0.000000 0.000000
0.187063 0.933052 2.453574 0.000000 0.000000 0.000000
0.249590 0.980285 2.480606 0.000000 0.000000 0.000000
0.243127 0.975091 2.478307 0.000000 0.000000 0.000000
0.196075 0.941173 2.465682 0.000000 0.000000 0.000000
0.213040 0.979555 2.496431 0.000000 0.000000 0.000000
0.218888 0.963607 2.467559 0.000000 0.000000 0.000000
0.186777 0.950038 2.476745 0.000000 0.000000 0.000000
0.224015 0.994138 2.506613 0.000000 0.000000 0.000000
0.186760 0.939830 2.466371 0.000000 0.000000 0.000000
0.223852 0.959188 2.470414 0.000000 0.000000 0.000000
0.185544 0.957198 2.481671 0.000000 0.000000 0.000000
0.177108 0.943282 2.468153 0.000000 0.000000 0.000000
0.224250 0.991680 2.501830 0.000000 0.000000 0.000000
0.189163 0.942508 2.469807 0.000000 0.000000 0.000000
0.183176 0.951153 2.473592 0.000000 0.000000 0.000000
0.191326 0.940775 2.465788 0.000000 0.000000 0.000000
0.218184 0.956317 2.459148 0.000000 0.000000 0.000000
0.188311 0.936547 2.461048 0.000000 0.000000 0.000000
0.207002 0.951712 2.460021 0.000000 0.000000 0.000000
0.200905 0.940075 2.456797 0.000000 0.000000 0.000000
0.195949 0.936870 2.455117 0.000000 0.000000 0.000000
0.217556 0.944329 2.455227 0.000000 0.000000 0.000000
0.190945 0.935945 2.460982 0.000000 0.000000 0.000000
0.194855 0.939077 2.462948 0.000000 0.000000 0.000000
0.200518 0.940437 2.452748 0.000000 0.000000 0.000000
0.204575 0.981259 2.497797 0.000000 0.000000 0.000000
0.212363 0.948531 2.459529 0.000000 0.000000 0.000000
0.273778 1.008995 2.497650 0.000000 0.000000 0.000000
0.227990 0.996276 2.503206 0.000000 0.000000 0.000000
0.253254 0.991141 2.482897 0.000000 0.000000 0.000000
0.250380 0.999646 2.484367 0.000000 0.000000 0.000000
0.258478 0.991224 2.486488 0.000000 0.000000 0.000000
0.193770 0.977017 2.497819 0.000000 0.000000 0.000000
0.272063 1.006496 2.496720 0.000000 0.000000 0.000000
0.222437 0.946212 2.462620 0.000000 0.000000 0.000000
0.244982 0.994488 2.491595 0.000000 0.000000 0.000000
0.230468 0.964894 2.468885 0.000000 0.000000 0.000000
0.259436 0.999552 2.492775 0.000000 0.000000 0.000000
0.274694 1.008348 2.488063 0.000000 0.000000 0.000000
0.275515 0.997754 2.486589 0.000000 0.000000 0.000000
0.233440 1.007652 2.504680 0.000000 0.000000 0.000000
0.210604 0.987760 2.501732 0.000000 0.000000 0.000000
0.277483 1.011506 2.494416 0.000000 0.000000 0.000000
0.239756 0.997574 2.502444 0.000000 0.000000 0.000000
0.255661 0.997985 2.488109 0.000000 0.000000 0.000000
0.248851 0.986438 2.479743 0.000000 0.000000 0.000000
0.249559 0.994064 2.477663 0.000000 0.000000 0.000000
0.264686 1.001117 2.492772 0.000000 0.000000 0.000000
0.207364 0.985615 2.502778 0.000000 0.000000 0.000000
0.252128 1.001266 2.500115 0.000000 0.000000 0.000000
0.233162 0.953719 2.460700 0.000000 0.000000 0.000000
0.253511 0.984632 2.475268 0.000000 0.000000 0.000000
0.274340 1.008615 2.495258 0.000000 0.000000 0.000000
0.238662 0.974123 2.471859 0.000000 0.000000 0.000000
0.279427 1.008599 2.498760 0.000000 0.000000 0.000000
0.251424 0.985441 2.482585 0.000000 0.000000 0.000000
0.250374 0.981643 2.478576 0.000000 0.000000 0.000000
0.229561 0.993688 2.502733 0.000000 0.000000 0.000000
0.231743 0.991783 2.499513 0.000000 0.000000 0.000000
0.211287 0.989523 2.504339 0.000000 0.000000 0.000000
0.277385 1.006183 2.489762 0.000000 0.000000 0.000000
0.196783 0.938758 2.457186 0.000000 0.000000 0.000000
0.268884 1.000822 2.486235 0.000000 0.000000 0.000000
0.192249 0.939974 2.460089 0.000000 0.000000 0.000000
0.225565 0.998868 2.501385 0.000000 0.000000 0.000000
0.224819 0.993010 2.501425 0.000000 0.000000 0.000000
0.229351 0.997861 2.503775 0.000000 0.000000 0.000000
0.207429 0.985697 2.505330 0.000000 0.000000 0.000000
0.217071 0.997579 2.498952 0.000000 0.000000 0.000000
0.204155 0.981815 2.499336 0.000000 0.000000 0.000000
0.258556 0.991146 2.484280 0.000000 0.000000 0.000000
0.258858 0.994231 2.485038 0.000000 0.000000 0.000000
0.263363 0.995827 2.485925 0.000000 0.000000 0.000000
0.263893 0.998309 2.486179 0.000000 0.000000 0.000000
0.244968 0.994227 2.486350 0.000000 0.000000 0.000000
0.266920 1.000350 2.480951 0.000000 0.000000 0.000000
0.263728 1.003144 2.487598 0.000000 0.000000 0.000000
0.255711 0.996817 2.487860 0.000000 0.000000 0.000000
0.269783 0.995405 2.482205 0.000000 0.000000 0.000000
0.182655 0.960576 2.483747 0.000000 0.000000 0.000000
0.178477 0.958603 2.482628 0.000000 0.000000 0.000000
0.233133 1.000907 2.507432 0.000000 0.000000 0.000000
0.244217 0.970878 2.469453 0.000000 0.000000 0.000000
0.236544 0.970218 2.474574 0.000000 0.000000 0.000000
0.228717 0.964370 2.466998 0.000000 0.000000 0.000000
0.236884 0.966942 2.467128 0.000000 0.000000 0.000000
0.232875 0.962008 2.470060 0.000000 0.000000 0.000000
0.213471 0.948192 2.461064 0.000000 0.000000 0.000000
0.278208 1.006857 2.483771 0.000000 0.000000 0.000000
0.269845 1.005153 2.494107 0.000000 0.000000 0.000000
0.266616 1.000037 2.494015 0.000000 0.000000 0.000000
0.270535 1.010533 2.496169 0.000000 0.000000 0.000000
0.270866 1.001270 2.488282 0.000000 0.000000 0.000000
0.180310 0.950460 2.482197 0.000000 0.000000 0.000000
0.231433 0.997019 2.504686 0.000000 0.000000 0.000000
0.219895 0.992963 2.503527 0.000000 0.000000 0.000000
0.219147 0.987932 2.499762 0.000000 0.000000 0.000000
0.237048 0.994638 2.498748 0.000000 0.000000 0.000000
0.231317 0.994586 2.501729 0.000000 0.000000 0.000000
0.243554 0.998834 2.502988 0.000000 0.000000 0.000000
0.245455 0.999198 2.501025 0.000000 0.000000 0.000000
0.258490 1.010344 2.503927 0.000000 0.000000 0.000000
0.193274 0.981347 2.501130 0.000000 0.000000 0.000000
0.192451 0.940160 2.456077 0.000000 0.000000 0.000000
0.222641 0.951922 2.460656 0.000000 0.000000 0.000000
0.222418 0.954749 2.461435 0.000000 0.000000 0.000000
0.225873 0.959972 2.461225 0.000000 0.000000 0.000000
0.224484 0.953711 2.462783 0.000000 0.000000 0.000000
0.223885 0.956163 2.460788 0.000000 0.000000 0.000000
0.221486 0.952816 2.457580 0.000000 0.000000 0.000000
0.213094 0.948533 2.455881 0.000000 0.000000 0.000000
0.189134 0.971377 2.490344 0.000000 0.000000 0.000000
0.198881 0.977589 2.499497 0.000000 0.000000 0.000000
0.183392 0.960118 2.485951 0.000000 0.000000 0.000000
0.217343 0.990766 2.504708 0.000000 0.000000 0.000000
0.224577 0.983776 2.489736 0.000000 0.000000 0.000000
0.238341 0.978426 2.499795 0.000000 0.000000 0.000000
0.240274 0.988590 2.496679 0.000000 0.000000 0.000000
0.240379 1.003836 2.511110 0.000000 0.000000 0.000000
0.241760 0.995471 2.499158 0.000000 0.000000 0.000000
0.237738 0.990339 2.488514 0.000000 0.000000 0.000000
0.249251 0.983714 2.504189 0.000000 0.000000 0.000000
0.248671 0.998499 2.497893 0.000000 0.000000 0.000000
0.248531 1.006311 2.502846 0.000000 0.000000 0.000000
0.245149 0.999705 2.506399 0.000000 0.000000 0.000000
0.249750 1.000480 2.500309 0.000000 0.000000 0.000000
0.250149 1.001026 2.500738 0.000000 0.000000 0.000000
0.195467 0.969809 2.492918 0.000000 0.000000 0.000000
0.186274 0.966165 2.487829 0.000000 0.000000 0.000000
0.189143 0.968579 2.491151 0.000000 0.000000 0.000000
0.189387 0.969129 2.487983 0.000000 0.000000 0.000000
0.192264 0.973825 2.496068 0.000000 0.000000 0.000000
