ply
format ascii 1.0
comment VCGLIB generated
obj_info Generated by SPFormer!
element vertex 821
property float x
property float y
property float z
property float nx
property float ny
property float nz
end_header
0.761777 1.152141 2.147238 0.000000 0.000000 0.000000
0.761850 1.155673 2.148674 0.000000 0.000000 0.000000
0.762704 1.148624 2.143957 0.000000 0.000000 0.000000
0.721096 1.163343 2.158666 0.000000 0.000000 0.000000
0.767759 1.195220 2.141245 0.000000 0.000000 0.000000
0.757474 1.171738 2.142587 0.000000 0.000000 0.000000
0.823445 1.374509 2.102636 0.000000 0.000000 0.000000
0.841776 1.365795 2.130784 0.000000 0.000000 0.000000
0.752544 1.305424 2.128653 0.000000 0.000000 0.000000
0.753278 1.342232 2.121184 0.000000 0.000000 0.000000
0.756009 1.168072 2.150532 0.000000 0.000000 0.000000
0.758837 1.288809 2.132820 0.000000 0.000000 0.000000
0.828041 1.353816 2.100272 0.000000 0.000000 0.000000
0.780819 1.338391 2.105484 0.000000 0.000000 0.000000
0.853066 1.364181 2.114127 0.000000 0.000000 0.000000
0.746943 1.287038 2.115037 0.000000 0.000000 0.000000
0.777205 1.180321 2.131971 0.000000 0.000000 0.000000
0.770721 1.345835 2.111912 0.000000 0.000000 0.000000
0.752899 1.312813 2.115814 0.000000 0.000000 0.000000
0.764514 1.336237 2.113100 0.000000 0.000000 0.000000
0.786248 1.371130 2.109680 0.000000 0.000000 0.000000
0.737486 1.295576 2.130979 0.000000 0.000000 0.000000
0.736572 1.303985 2.129464 0.000000 0.000000 0.000000
0.830306 1.304723 2.123925 0.000000 0.000000 0.000000
0.794367 1.189846 2.129413 0.000000 0.000000 0.000000
0.816636 1.382630 2.111319 0.000000 0.000000 0.000000
0.813749 1.249000 2.116006 0.000000 0.000000 0.000000
0.794927 1.365904 2.116590 0.000000 0.000000 0.000000
0.735843 1.300976 2.128873 0.000000 0.000000 0.000000
0.811092 1.374372 2.109378 0.000000 0.000000 0.000000
0.789602 1.360199 2.111197 0.000000 0.000000 0.000000
0.807843 1.354654 2.113619 0.000000 0.000000 0.000000
0.742695 1.281160 2.115075 0.000000 0.000000 0.000000
0.764216 1.354281 2.115462 0.000000 0.000000 0.000000
0.849365 1.379126 2.124475 0.000000 0.000000 0.000000
0.828731 1.216971 2.139552 0.000000 0.000000 0.000000
0.850001 1.210729 2.130106 0.000000 0.000000 0.000000
0.811154 1.361880 2.125641 0.000000 0.000000 0.000000
0.755087 1.320062 2.116208 0.000000 0.000000 0.000000
0.741358 1.311625 2.128050 0.000000 0.000000 0.000000
0.808319 1.267821 2.095366 0.000000 0.000000 0.000000
0.789479 1.337711 2.107429 0.000000 0.000000 0.000000
0.802375 1.372999 2.113790 0.000000 0.000000 0.000000
0.763843 1.199861 2.131347 0.000000 0.000000 0.000000
0.811847 1.168687 2.145259 0.000000 0.000000 0.000000
0.846155 1.234936 2.132772 0.000000 0.000000 0.000000
0.749033 1.316857 2.120319 0.000000 0.000000 0.000000
0.863883 1.376000 2.118181 0.000000 0.000000 0.000000
0.744574 1.301542 2.119090 0.000000 0.000000 0.000000
0.749356 1.297572 2.113996 0.000000 0.000000 0.000000
0.845567 1.305657 2.120817 0.000000 0.000000 0.000000
0.731538 1.279258 2.130976 0.000000 0.000000 0.000000
0.757216 1.337598 2.116946 0.000000 0.000000 0.000000
0.767888 1.349416 2.124178 0.000000 0.000000 0.000000
0.802748 1.386971 2.116274 0.000000 0.000000 0.000000
0.756259 1.308759 2.110783 0.000000 0.000000 0.000000
0.858366 1.245164 2.117453 0.000000 0.000000 0.000000
0.753258 1.268239 2.109929 0.000000 0.000000 0.000000
0.871002 1.268010 2.124806 0.000000 0.000000 0.000000
0.808451 1.241879 2.115215 0.000000 0.000000 0.000000
0.741306 1.316059 2.127619 0.000000 0.000000 0.000000
0.830164 1.191359 2.134469 0.000000 0.000000 0.000000
0.818877 1.337346 2.110672 0.000000 0.000000 0.000000
0.799491 1.251245 2.111613 0.000000 0.000000 0.000000
0.805448 1.284326 2.111673 0.000000 0.000000 0.000000
0.862620 1.259742 2.105326 0.000000 0.000000 0.000000
0.743663 1.329443 2.129905 0.000000 0.000000 0.000000
0.868225 1.249440 2.112374 0.000000 0.000000 0.000000
0.761986 1.307156 2.116617 0.000000 0.000000 0.000000
0.825729 1.205995 2.132071 0.000000 0.000000 0.000000
0.736570 1.243491 2.129309 0.000000 0.000000 0.000000
0.848726 1.255345 2.105654 0.000000 0.000000 0.000000
0.811500 1.226198 2.136705 0.000000 0.000000 0.000000
0.861205 1.401216 2.114933 0.000000 0.000000 0.000000
0.845757 1.275520 2.127081 0.000000 0.000000 0.000000
0.819750 1.406090 2.131638 0.000000 0.000000 0.000000
0.753550 1.352237 2.123993 0.000000 0.000000 0.000000
0.875119 1.243191 2.121063 0.000000 0.000000 0.000000
0.883621 1.318659 2.121912 0.000000 0.000000 0.000000
0.828149 1.212932 2.132181 0.000000 0.000000 0.000000
0.853028 1.244684 2.129544 0.000000 0.000000 0.000000
0.814942 1.378494 2.123590 0.000000 0.000000 0.000000
0.762237 1.341347 2.136101 0.000000 0.000000 0.000000
0.735657 1.277465 2.130032 0.000000 0.000000 0.000000
0.798600 1.174851 2.146618 0.000000 0.000000 0.000000
0.812086 1.393255 2.117939 0.000000 0.000000 0.000000
0.884413 1.268157 2.124365 0.000000 0.000000 0.000000
0.811536 1.381755 2.129773 0.000000 0.000000 0.000000
0.801521 1.378007 2.115213 0.000000 0.000000 0.000000
0.788942 1.162670 2.147557 0.000000 0.000000 0.000000
0.821387 1.206312 2.145160 0.000000 0.000000 0.000000
0.735653 1.290664 2.126304 0.000000 0.000000 0.000000
0.747522 1.298648 2.117085 0.000000 0.000000 0.000000
0.780750 1.336969 2.106673 0.000000 0.000000 0.000000
0.750541 1.292451 2.141794 0.000000 0.000000 0.000000
0.767806 1.186901 2.132123 0.000000 0.000000 0.000000
0.752201 1.242090 2.118324 0.000000 0.000000 0.000000
0.756176 1.215346 2.123867 0.000000 0.000000 0.000000
0.740304 1.285884 2.138418 0.000000 0.000000 0.000000
0.760967 1.196691 2.136804 0.000000 0.000000 0.000000
0.798252 1.391081 2.124446 0.000000 0.000000 0.000000
0.811158 1.359642 2.104326 0.000000 0.000000 0.000000
0.857101 1.305888 2.110573 0.000000 0.000000 0.000000
0.737302 1.238482 2.130766 0.000000 0.000000 0.000000
0.765795 1.272722 2.129829 0.000000 0.000000 0.000000
0.799609 1.256604 2.128498 0.000000 0.000000 0.000000
0.824346 1.327754 2.101979 0.000000 0.000000 0.000000
0.806472 1.211156 2.123852 0.000000 0.000000 0.000000
0.772897 1.199422 2.135368 0.000000 0.000000 0.000000
0.799295 1.353129 2.105121 0.000000 0.000000 0.000000
0.835947 1.250854 2.107289 0.000000 0.000000 0.000000
0.794996 1.191571 2.144294 0.000000 0.000000 0.000000
0.859468 1.415705 2.126446 0.000000 0.000000 0.000000
0.771899 1.212216 2.124726 0.000000 0.000000 0.000000
0.773384 1.161615 2.143961 0.000000 0.000000 0.000000
0.767701 1.162987 2.141208 0.000000 0.000000 0.000000
0.873007 1.270320 2.114458 0.000000 0.000000 0.000000
0.789551 1.269061 2.141772 0.000000 0.000000 0.000000
0.790854 1.300674 2.105461 0.000000 0.000000 0.000000
0.773944 1.364670 2.123454 0.000000 0.000000 0.000000
0.780573 1.291950 2.127531 0.000000 0.000000 0.000000
0.749776 1.276386 2.135609 0.000000 0.000000 0.000000
0.832270 1.279820 2.118011 0.000000 0.000000 0.000000
0.771080 1.183888 2.137066 0.000000 0.000000 0.000000
0.737276 1.214097 2.146240 0.000000 0.000000 0.000000
0.771468 1.314145 2.104620 0.000000 0.000000 0.000000
0.802306 1.298550 2.120715 0.000000 0.000000 0.000000
0.818243 1.276728 2.104487 0.000000 0.000000 0.000000
0.751733 1.233334 2.120951 0.000000 0.000000 0.000000
0.854903 1.315515 2.121659 0.000000 0.000000 0.000000
0.779000 1.369152 2.118256 0.000000 0.000000 0.000000
0.755054 1.247153 2.113962 0.000000 0.000000 0.000000
0.757743 1.187760 2.131415 0.000000 0.000000 0.000000
0.886865 1.403468 2.138033 0.000000 0.000000 0.000000
0.799581 1.202764 2.139900 0.000000 0.000000 0.000000
0.791722 1.226802 2.149418 0.000000 0.000000 0.000000
0.787175 1.163082 2.143735 0.000000 0.000000 0.000000
0.868489 1.253931 2.115191 0.000000 0.000000 0.000000
0.777218 1.320040 2.106516 0.000000 0.000000 0.000000
0.864577 1.217833 2.133251 0.000000 0.000000 0.000000
0.827869 1.185772 2.141825 0.000000 0.000000 0.000000
0.867869 1.237117 2.130873 0.000000 0.000000 0.000000
0.825557 1.333570 2.092663 0.000000 0.000000 0.000000
0.788526 1.304146 2.126751 0.000000 0.000000 0.000000
0.752419 1.328317 2.119709 0.000000 0.000000 0.000000
0.766185 1.230432 2.125133 0.000000 0.000000 0.000000
0.805836 1.182384 2.137940 0.000000 0.000000 0.000000
0.823608 1.188370 2.140056 0.000000 0.000000 0.000000
0.857152 1.269505 2.108744 0.000000 0.000000 0.000000
0.786253 1.256777 2.107849 0.000000 0.000000 0.000000
0.867842 1.228028 2.128109 0.000000 0.000000 0.000000
0.863836 1.224080 2.124782 0.000000 0.000000 0.000000
0.748262 1.252235 2.117102 0.000000 0.000000 0.000000
0.843153 1.285568 2.101069 0.000000 0.000000 0.000000
0.785597 1.195553 2.124932 0.000000 0.000000 0.000000
0.757141 1.295524 2.110314 0.000000 0.000000 0.000000
0.768306 1.328960 2.108444 0.000000 0.000000 0.000000
0.836013 1.203776 2.142143 0.000000 0.000000 0.000000
0.801274 1.168335 2.139893 0.000000 0.000000 0.000000
0.735314 1.309028 2.134150 0.000000 0.000000 0.000000
0.747979 1.329660 2.124612 0.000000 0.000000 0.000000
0.837355 1.362373 2.124440 0.000000 0.000000 0.000000
0.740942 1.315178 2.129350 0.000000 0.000000 0.000000
0.824315 1.180577 2.139327 0.000000 0.000000 0.000000
0.897030 1.354713 2.127008 0.000000 0.000000 0.000000
0.756893 1.325226 2.113727 0.000000 0.000000 0.000000
0.748318 1.261976 2.130404 0.000000 0.000000 0.000000
0.897581 1.348012 2.118090 0.000000 0.000000 0.000000
0.765522 1.353533 2.117822 0.000000 0.000000 0.000000
0.804876 1.335174 2.122181 0.000000 0.000000 0.000000
0.840018 1.321850 2.104184 0.000000 0.000000 0.000000
0.729791 1.224636 2.137258 0.000000 0.000000 0.000000
0.876981 1.327761 2.121749 0.000000 0.000000 0.000000
0.770430 1.157723 2.148844 0.000000 0.000000 0.000000
0.749051 1.276489 2.112297 0.000000 0.000000 0.000000
0.783486 1.214489 2.127814 0.000000 0.000000 0.000000
0.886709 1.309114 2.120285 0.000000 0.000000 0.000000
0.836396 1.333144 2.116077 0.000000 0.000000 0.000000
0.776434 1.246164 2.110094 0.000000 0.000000 0.000000
0.749963 1.196146 2.129417 0.000000 0.000000 0.000000
0.868529 1.287226 2.117866 0.000000 0.000000 0.000000
0.882219 1.290495 2.119311 0.000000 0.000000 0.000000
0.857248 1.238141 2.119902 0.000000 0.000000 0.000000
0.774796 1.156222 2.146720 0.000000 0.000000 0.000000
0.901838 1.360866 2.131649 0.000000 0.000000 0.000000
0.890262 1.357960 2.114685 0.000000 0.000000 0.000000
0.845961 1.309204 2.096644 0.000000 0.000000 0.000000
0.864377 1.303126 2.103585 0.000000 0.000000 0.000000
0.774377 1.163845 2.137613 0.000000 0.000000 0.000000
0.845265 1.312275 2.101299 0.000000 0.000000 0.000000
0.859223 1.317682 2.101646 0.000000 0.000000 0.000000
0.760911 1.164989 2.142070 0.000000 0.000000 0.000000
0.852566 1.359839 2.109522 0.000000 0.000000 0.000000
0.769300 1.183494 2.139268 0.000000 0.000000 0.000000
0.909813 1.349607 2.130308 0.000000 0.000000 0.000000
0.791698 1.191322 2.124396 0.000000 0.000000 0.000000
0.891847 1.332355 2.121367 0.000000 0.000000 0.000000
0.829591 1.398383 2.122805 0.000000 0.000000 0.000000
0.865569 1.341756 2.106343 0.000000 0.000000 0.000000
0.870850 1.350873 2.122126 0.000000 0.000000 0.000000
0.758158 1.162173 2.145397 0.000000 0.000000 0.000000
0.766058 1.184535 2.137722 0.000000 0.000000 0.000000
0.833937 1.191943 2.133142 0.000000 0.000000 0.000000
0.800833 1.161730 2.145828 0.000000 0.000000 0.000000
0.802645 1.156324 2.145118 0.000000 0.000000 0.000000
0.848576 1.406392 2.123660 0.000000 0.000000 0.000000
0.902066 1.322106 2.122938 0.000000 0.000000 0.000000
0.881178 1.280924 2.125752 0.000000 0.000000 0.000000
0.864452 1.405944 2.140345 0.000000 0.000000 0.000000
0.874886 1.236161 2.125543 0.000000 0.000000 0.000000
0.887616 1.362820 2.130246 0.000000 0.000000 0.000000
0.809224 1.175216 2.151153 0.000000 0.000000 0.000000
0.811714 1.176998 2.148207 0.000000 0.000000 0.000000
0.822515 1.175815 2.139915 0.000000 0.000000 0.000000
0.896078 1.319930 2.127984 0.000000 0.000000 0.000000
0.875763 1.300495 2.114408 0.000000 0.000000 0.000000
0.851593 1.414955 2.130803 0.000000 0.000000 0.000000
0.893934 1.326024 2.125477 0.000000 0.000000 0.000000
0.904170 1.306723 2.129903 0.000000 0.000000 0.000000
0.815999 1.161982 2.146750 0.000000 0.000000 0.000000
0.848006 1.269552 2.127955 0.000000 0.000000 0.000000
0.869947 1.250812 2.128793 0.000000 0.000000 0.000000
0.840548 1.372888 2.105899 0.000000 0.000000 0.000000
0.817359 1.168695 2.148427 0.000000 0.000000 0.000000
0.861334 1.330275 2.103361 0.000000 0.000000 0.000000
0.824000 1.396794 2.120827 0.000000 0.000000 0.000000
0.815853 1.185372 2.145942 0.000000 0.000000 0.000000
0.789445 1.372563 2.120096 0.000000 0.000000 0.000000
0.861111 1.387844 2.131991 0.000000 0.000000 0.000000
0.822637 1.391783 2.114027 0.000000 0.000000 0.000000
0.786822 1.362679 2.115973 0.000000 0.000000 0.000000
0.898748 1.311642 2.123303 0.000000 0.000000 0.000000
0.825045 1.195900 2.142315 0.000000 0.000000 0.000000
0.854104 1.411394 2.126224 0.000000 0.000000 0.000000
0.728865 1.253811 2.138851 0.000000 0.000000 0.000000
0.892146 1.357193 2.119556 0.000000 0.000000 0.000000
0.820034 1.168490 2.143993 0.000000 0.000000 0.000000
0.822051 1.223810 2.107546 0.000000 0.000000 0.000000
0.823260 1.238325 2.112361 0.000000 0.000000 0.000000
0.847160 1.208333 2.134979 0.000000 0.000000 0.000000
0.842019 1.215449 2.134704 0.000000 0.000000 0.000000
0.763684 1.289799 2.103780 0.000000 0.000000 0.000000
0.759638 1.272953 2.114298 0.000000 0.000000 0.000000
0.806061 1.153083 2.148577 0.000000 0.000000 0.000000
0.845964 1.196447 2.140912 0.000000 0.000000 0.000000
0.906360 1.341897 2.128955 0.000000 0.000000 0.000000
0.809979 1.162172 2.145369 0.000000 0.000000 0.000000
0.758434 1.307118 2.106319 0.000000 0.000000 0.000000
0.889365 1.344394 2.114779 0.000000 0.000000 0.000000
0.875323 1.245191 2.120644 0.000000 0.000000 0.000000
0.887766 1.368417 2.133162 0.000000 0.000000 0.000000
0.750351 1.301806 2.117922 0.000000 0.000000 0.000000
0.880499 1.344380 2.122603 0.000000 0.000000 0.000000
0.752713 1.283661 2.108367 0.000000 0.000000 0.000000
0.903293 1.345384 2.135002 0.000000 0.000000 0.000000
0.881821 1.257129 2.123586 0.000000 0.000000 0.000000
0.898399 1.343032 2.130975 0.000000 0.000000 0.000000
0.801590 1.179875 2.134366 0.000000 0.000000 0.000000
0.732743 1.252757 2.134671 0.000000 0.000000 0.000000
0.833854 1.218817 2.123765 0.000000 0.000000 0.000000
0.895548 1.374355 2.136217 0.000000 0.000000 0.000000
0.834202 1.197636 2.134225 0.000000 0.000000 0.000000
0.742460 1.192437 2.138746 0.000000 0.000000 0.000000
0.879356 1.391027 2.135375 0.000000 0.000000 0.000000
0.758820 1.356849 2.122422 0.000000 0.000000 0.000000
0.773623 1.360108 2.119312 0.000000 0.000000 0.000000
0.766097 1.362160 2.120027 0.000000 0.000000 0.000000
0.781081 1.370941 2.116299 0.000000 0.000000 0.000000
0.778887 1.336577 2.110950 0.000000 0.000000 0.000000
0.807612 1.389781 2.120672 0.000000 0.000000 0.000000
0.775496 1.360469 2.114713 0.000000 0.000000 0.000000
0.784799 1.353814 2.115098 0.000000 0.000000 0.000000
0.845567 1.404789 2.118509 0.000000 0.000000 0.000000
0.824000 1.278071 2.096531 0.000000 0.000000 0.000000
0.866949 1.246163 2.128364 0.000000 0.000000 0.000000
0.809249 1.249490 2.104054 0.000000 0.000000 0.000000
0.854151 1.233715 2.112628 0.000000 0.000000 0.000000
0.799407 1.283510 2.099401 0.000000 0.000000 0.000000
0.839369 1.237889 2.107892 0.000000 0.000000 0.000000
0.723736 1.283448 2.141957 0.000000 0.000000 0.000000
0.741231 1.317340 2.128981 0.000000 0.000000 0.000000
0.815350 1.196387 2.126557 0.000000 0.000000 0.000000
0.852995 1.243907 2.114258 0.000000 0.000000 0.000000
0.821532 1.293726 2.101004 0.000000 0.000000 0.000000
0.795764 1.236439 2.110797 0.000000 0.000000 0.000000
0.841131 1.244079 2.106587 0.000000 0.000000 0.000000
0.820666 1.247583 2.102512 0.000000 0.000000 0.000000
0.725614 1.262837 2.138618 0.000000 0.000000 0.000000
0.734025 1.262985 2.133312 0.000000 0.000000 0.000000
0.763107 1.161593 2.144241 0.000000 0.000000 0.000000
0.873636 1.232760 2.129945 0.000000 0.000000 0.000000
0.762937 1.156240 2.149055 0.000000 0.000000 0.000000
0.760028 1.159455 2.145186 0.000000 0.000000 0.000000
0.766546 1.171740 2.139303 0.000000 0.000000 0.000000
0.763018 1.158297 2.145341 0.000000 0.000000 0.000000
0.787111 1.160542 2.146923 0.000000 0.000000 0.000000
0.782109 1.154392 2.144694 0.000000 0.000000 0.000000
0.797065 1.155691 2.146530 0.000000 0.000000 0.000000
0.782636 1.156961 2.144119 0.000000 0.000000 0.000000
0.798950 1.170730 2.142166 0.000000 0.000000 0.000000
0.774089 1.169022 2.139296 0.000000 0.000000 0.000000
0.798684 1.177601 2.140105 0.000000 0.000000 0.000000
0.785222 1.178341 2.136590 0.000000 0.000000 0.000000
0.793733 1.164874 2.141828 0.000000 0.000000 0.000000
0.786934 1.164146 2.139361 0.000000 0.000000 0.000000
0.783693 1.166928 2.141373 0.000000 0.000000 0.000000
0.787550 1.177998 2.134227 0.000000 0.000000 0.000000
0.855833 1.271029 2.101717 0.000000 0.000000 0.000000
0.777394 1.290919 2.100307 0.000000 0.000000 0.000000
0.910685 1.330850 2.133881 0.000000 0.000000 0.000000
0.756812 1.234901 2.116882 0.000000 0.000000 0.000000
0.779593 1.234692 2.109540 0.000000 0.000000 0.000000
0.911281 1.336709 2.130217 0.000000 0.000000 0.000000
0.825990 1.408924 2.118515 0.000000 0.000000 0.000000
0.758518 1.252505 2.108508 0.000000 0.000000 0.000000
0.833240 1.216153 2.118511 0.000000 0.000000 0.000000
0.801738 1.219199 2.124279 0.000000 0.000000 0.000000
0.764251 1.176204 2.145638 0.000000 0.000000 0.000000
0.821689 1.213223 2.117904 0.000000 0.000000 0.000000
0.811901 1.394596 2.122533 0.000000 0.000000 0.000000
0.850147 1.201696 2.134118 0.000000 0.000000 0.000000
0.834441 1.200582 2.128765 0.000000 0.000000 0.000000
0.849502 1.210218 2.125408 0.000000 0.000000 0.000000
0.825167 1.200379 2.127762 0.000000 0.000000 0.000000
0.851046 1.206314 2.132318 0.000000 0.000000 0.000000
0.738712 1.306841 2.133841 0.000000 0.000000 0.000000
0.856283 1.221950 2.121820 0.000000 0.000000 0.000000
0.751162 1.169947 2.141974 0.000000 0.000000 0.000000
0.842946 1.209806 2.123434 0.000000 0.000000 0.000000
0.840126 1.410387 2.125607 0.000000 0.000000 0.000000
0.842677 1.222522 2.117342 0.000000 0.000000 0.000000
0.833282 1.197387 2.127051 0.000000 0.000000 0.000000
0.812160 1.189632 2.130248 0.000000 0.000000 0.000000
0.801684 1.162162 2.141005 0.000000 0.000000 0.000000
0.819852 1.172116 2.145124 0.000000 0.000000 0.000000
0.800582 1.313069 2.102418 0.000000 0.000000 0.000000
0.734640 1.317916 2.135519 0.000000 0.000000 0.000000
0.812330 1.175209 2.137081 0.000000 0.000000 0.000000
0.872523 1.400501 2.121165 0.000000 0.000000 0.000000
0.781041 1.154384 2.145079 0.000000 0.000000 0.000000
0.818794 1.340743 2.097033 0.000000 0.000000 0.000000
0.883338 1.396817 2.124921 0.000000 0.000000 0.000000
0.809529 1.172239 2.136562 0.000000 0.000000 0.000000
0.850960 1.387352 2.112995 0.000000 0.000000 0.000000
0.781650 1.155529 2.148529 0.000000 0.000000 0.000000
0.784077 1.157397 2.143376 0.000000 0.000000 0.000000
0.841967 1.331863 2.095102 0.000000 0.000000 0.000000
0.855377 1.210614 2.136457 0.000000 0.000000 0.000000
0.752650 1.192832 2.137784 0.000000 0.000000 0.000000
0.738020 1.211613 2.132707 0.000000 0.000000 0.000000
0.735984 1.265963 2.126267 0.000000 0.000000 0.000000
0.849261 1.214515 2.122439 0.000000 0.000000 0.000000
0.803059 1.252144 2.105133 0.000000 0.000000 0.000000
0.848104 1.220879 2.117676 0.000000 0.000000 0.000000
0.826958 1.224976 2.114081 0.000000 0.000000 0.000000
0.814310 1.207666 2.118053 0.000000 0.000000 0.000000
0.835269 1.342453 2.095361 0.000000 0.000000 0.000000
0.835777 1.184267 2.142791 0.000000 0.000000 0.000000
0.835047 1.185192 2.139336 0.000000 0.000000 0.000000
0.823125 1.172825 2.142676 0.000000 0.000000 0.000000
0.836450 1.201512 2.125018 0.000000 0.000000 0.000000
0.801905 1.223978 2.112341 0.000000 0.000000 0.000000
0.829685 1.201773 2.120785 0.000000 0.000000 0.000000
0.812309 1.166271 2.141967 0.000000 0.000000 0.000000
0.768118 1.293029 2.099062 0.000000 0.000000 0.000000
0.797583 1.178697 2.133748 0.000000 0.000000 0.000000
0.779360 1.147699 2.148343 0.000000 0.000000 0.000000
0.792436 1.271212 2.097217 0.000000 0.000000 0.000000
0.779415 1.267249 2.099612 0.000000 0.000000 0.000000
0.828274 1.183839 2.137436 0.000000 0.000000 0.000000
0.831578 1.183538 2.137872 0.000000 0.000000 0.000000
0.833068 1.187213 2.137411 0.000000 0.000000 0.000000
0.781552 1.291381 2.095551 0.000000 0.000000 0.000000
0.767999 1.269924 2.104664 0.000000 0.000000 0.000000
0.823612 1.177703 2.139940 0.000000 0.000000 0.000000
0.801292 1.262035 2.100926 0.000000 0.000000 0.000000
0.830454 1.192556 2.131914 0.000000 0.000000 0.000000
0.842519 1.194621 2.141291 0.000000 0.000000 0.000000
0.815443 1.171908 2.141713 0.000000 0.000000 0.000000
0.792503 1.287703 2.097810 0.000000 0.000000 0.000000
0.728923 1.222975 2.141478 0.000000 0.000000 0.000000
0.794355 1.341175 2.101546 0.000000 0.000000 0.000000
0.731807 1.259912 2.134038 0.000000 0.000000 0.000000
0.791466 1.383943 2.119442 0.000000 0.000000 0.000000
0.824464 1.346964 2.092018 0.000000 0.000000 0.000000
0.812941 1.306195 2.095665 0.000000 0.000000 0.000000
0.838124 1.315508 2.099140 0.000000 0.000000 0.000000
0.780241 1.320195 2.099760 0.000000 0.000000 0.000000
0.737918 1.204147 2.140985 0.000000 0.000000 0.000000
0.803252 1.326663 2.098883 0.000000 0.000000 0.000000
0.782587 1.307330 2.104125 0.000000 0.000000 0.000000
0.834213 1.301751 2.100589 0.000000 0.000000 0.000000
0.844904 1.315877 2.091789 0.000000 0.000000 0.000000
0.800790 1.334750 2.105396 0.000000 0.000000 0.000000
0.882197 1.248901 2.128644 0.000000 0.000000 0.000000
0.729300 1.265112 2.135371 0.000000 0.000000 0.000000
0.741042 1.319004 2.132263 0.000000 0.000000 0.000000
0.735209 1.263450 2.140581 0.000000 0.000000 0.000000
0.773238 1.156872 2.149291 0.000000 0.000000 0.000000
0.788856 1.212054 2.125182 0.000000 0.000000 0.000000
0.741840 1.271545 2.119517 0.000000 0.000000 0.000000
0.751195 1.332759 2.130355 0.000000 0.000000 0.000000
0.816001 1.324210 2.112070 0.000000 0.000000 0.000000
0.753017 1.316725 2.130570 0.000000 0.000000 0.000000
0.751166 1.318332 2.125490 0.000000 0.000000 0.000000
0.739062 1.301134 2.137250 0.000000 0.000000 0.000000
0.745274 1.197638 2.129446 0.000000 0.000000 0.000000
0.827352 1.360425 2.100796 0.000000 0.000000 0.000000
0.875515 1.415617 2.139956 0.000000 0.000000 0.000000
0.863713 1.398661 2.135851 0.000000 0.000000 0.000000
0.852037 1.205536 2.133534 0.000000 0.000000 0.000000
0.871409 1.256685 2.112311 0.000000 0.000000 0.000000
0.768092 1.211189 2.117731 0.000000 0.000000 0.000000
0.866225 1.413520 2.127624 0.000000 0.000000 0.000000
0.852881 1.390280 2.125905 0.000000 0.000000 0.000000
0.833049 1.395812 2.116700 0.000000 0.000000 0.000000
0.842463 1.397227 2.112966 0.000000 0.000000 0.000000
0.875986 1.390690 2.135685 0.000000 0.000000 0.000000
0.831923 1.310750 2.088676 0.000000 0.000000 0.000000
0.861903 1.292489 2.104429 0.000000 0.000000 0.000000
0.844506 1.299389 2.107549 0.000000 0.000000 0.000000
0.840392 1.338072 2.103699 0.000000 0.000000 0.000000
0.726049 1.263963 2.146513 0.000000 0.000000 0.000000
0.777566 1.194405 2.133945 0.000000 0.000000 0.000000
0.739496 1.281268 2.121829 0.000000 0.000000 0.000000
0.773983 1.333573 2.123255 0.000000 0.000000 0.000000
0.804142 1.293350 2.102377 0.000000 0.000000 0.000000
0.739725 1.320014 2.133592 0.000000 0.000000 0.000000
0.748427 1.317880 2.132231 0.000000 0.000000 0.000000
0.883470 1.266109 2.122603 0.000000 0.000000 0.000000
0.795764 1.346463 2.103524 0.000000 0.000000 0.000000
0.862893 1.414768 2.134092 0.000000 0.000000 0.000000
0.880817 1.397760 2.142617 0.000000 0.000000 0.000000
0.865804 1.222538 2.131731 0.000000 0.000000 0.000000
0.859205 1.204546 2.141556 0.000000 0.000000 0.000000
0.884038 1.258902 2.119254 0.000000 0.000000 0.000000
0.845526 1.412346 2.129702 0.000000 0.000000 0.000000
0.826311 1.404056 2.125048 0.000000 0.000000 0.000000
0.853001 1.301656 2.104693 0.000000 0.000000 0.000000
0.727461 1.276870 2.136801 0.000000 0.000000 0.000000
0.881786 1.410144 2.139710 0.000000 0.000000 0.000000
0.850405 1.280779 2.098143 0.000000 0.000000 0.000000
0.858590 1.266935 2.100757 0.000000 0.000000 0.000000
0.824211 1.282890 2.099976 0.000000 0.000000 0.000000
0.727722 1.265127 2.146296 0.000000 0.000000 0.000000
0.724728 1.265716 2.138023 0.000000 0.000000 0.000000
0.874868 1.409761 2.135043 0.000000 0.000000 0.000000
0.859940 1.217304 2.132452 0.000000 0.000000 0.000000
0.753543 1.206175 2.136856 0.000000 0.000000 0.000000
0.731991 1.249812 2.137907 0.000000 0.000000 0.000000
0.744682 1.198372 2.138169 0.000000 0.000000 0.000000
0.754155 1.195837 2.133343 0.000000 0.000000 0.000000
0.863174 1.415615 2.138038 0.000000 0.000000 0.000000
0.745005 1.231473 2.137408 0.000000 0.000000 0.000000
0.737876 1.195912 2.137284 0.000000 0.000000 0.000000
0.892182 1.395036 2.130378 0.000000 0.000000 0.000000
0.749164 1.165748 2.137563 0.000000 0.000000 0.000000
0.720541 1.283538 2.143643 0.000000 0.000000 0.000000
0.741243 1.185375 2.140002 0.000000 0.000000 0.000000
0.730470 1.285990 2.129873 0.000000 0.000000 0.000000
0.726430 1.284333 2.140394 0.000000 0.000000 0.000000
0.737615 1.318934 2.131003 0.000000 0.000000 0.000000
0.733404 1.308873 2.137803 0.000000 0.000000 0.000000
0.735496 1.203542 2.137356 0.000000 0.000000 0.000000
0.772454 1.201245 2.122373 0.000000 0.000000 0.000000
0.778314 1.230109 2.121521 0.000000 0.000000 0.000000
0.759195 1.188633 2.139518 0.000000 0.000000 0.000000
0.774257 1.172338 2.142380 0.000000 0.000000 0.000000
0.779052 1.182140 2.137915 0.000000 0.000000 0.000000
0.737811 1.252597 2.127557 0.000000 0.000000 0.000000
0.739288 1.253141 2.121667 0.000000 0.000000 0.000000
0.744947 1.217807 2.128253 0.000000 0.000000 0.000000
0.751966 1.218743 2.123913 0.000000 0.000000 0.000000
0.742109 1.238295 2.137163 0.000000 0.000000 0.000000
0.742255 1.211529 2.130501 0.000000 0.000000 0.000000
0.887253 1.386150 2.128566 0.000000 0.000000 0.000000
0.755586 1.184384 2.135705 0.000000 0.000000 0.000000
0.743514 1.229596 2.124659 0.000000 0.000000 0.000000
0.804093 1.194408 2.123716 0.000000 0.000000 0.000000
0.892304 1.401013 2.139643 0.000000 0.000000 0.000000
0.757068 1.212710 2.136482 0.000000 0.000000 0.000000
0.752314 1.209216 2.126426 0.000000 0.000000 0.000000
0.753818 1.178691 2.140070 0.000000 0.000000 0.000000
0.881530 1.406577 2.135484 0.000000 0.000000 0.000000
0.770111 1.202792 2.139916 0.000000 0.000000 0.000000
0.763842 1.183424 2.131185 0.000000 0.000000 0.000000
0.774105 1.212918 2.117563 0.000000 0.000000 0.000000
0.750077 1.220900 2.135715 0.000000 0.000000 0.000000
0.781211 1.229432 2.133758 0.000000 0.000000 0.000000
0.779337 1.210945 2.138370 0.000000 0.000000 0.000000
0.748474 1.248808 2.119057 0.000000 0.000000 0.000000
0.738138 1.225519 2.130244 0.000000 0.000000 0.000000
0.753681 1.230597 2.120346 0.000000 0.000000 0.000000
0.746209 1.210924 2.136258 0.000000 0.000000 0.000000
0.732310 1.241048 2.138448 0.000000 0.000000 0.000000
0.902968 1.375972 2.134121 0.000000 0.000000 0.000000
0.758309 1.240733 2.132714 0.000000 0.000000 0.000000
0.741975 1.233707 2.126016 0.000000 0.000000 0.000000
0.800250 1.198319 2.115200 0.000000 0.000000 0.000000
0.892057 1.398816 2.124406 0.000000 0.000000 0.000000
0.744466 1.209716 2.137585 0.000000 0.000000 0.000000
0.735878 1.221080 2.135890 0.000000 0.000000 0.000000
0.747948 1.205260 2.137669 0.000000 0.000000 0.000000
0.765984 1.174652 2.139622 0.000000 0.000000 0.000000
0.750727 1.192388 2.138951 0.000000 0.000000 0.000000
0.843241 1.191185 2.143761 0.000000 0.000000 0.000000
0.872633 1.345110 2.114728 0.000000 0.000000 0.000000
0.902278 1.357113 2.118829 0.000000 0.000000 0.000000
0.887923 1.286667 2.118006 0.000000 0.000000 0.000000
0.846947 1.237453 2.114167 0.000000 0.000000 0.000000
0.826295 1.239457 2.106079 0.000000 0.000000 0.000000
0.819667 1.186184 2.135845 0.000000 0.000000 0.000000
0.865921 1.374704 2.113909 0.000000 0.000000 0.000000
0.890312 1.351877 2.117299 0.000000 0.000000 0.000000
0.877207 1.361938 2.132259 0.000000 0.000000 0.000000
0.902531 1.337224 2.125840 0.000000 0.000000 0.000000
0.904302 1.348146 2.125343 0.000000 0.000000 0.000000
0.833514 1.235182 2.108866 0.000000 0.000000 0.000000
0.898142 1.344513 2.120825 0.000000 0.000000 0.000000
0.781621 1.379433 2.120898 0.000000 0.000000 0.000000
0.894926 1.310994 2.119159 0.000000 0.000000 0.000000
0.821992 1.180551 2.136103 0.000000 0.000000 0.000000
0.802044 1.160932 2.143066 0.000000 0.000000 0.000000
0.802392 1.160763 2.147066 0.000000 0.000000 0.000000
0.834561 1.209011 2.117479 0.000000 0.000000 0.000000
0.719998 1.258201 2.141378 0.000000 0.000000 0.000000
0.796563 1.165779 2.148678 0.000000 0.000000 0.000000
0.833515 1.212765 2.114722 0.000000 0.000000 0.000000
0.724304 1.238733 2.142258 0.000000 0.000000 0.000000
0.725384 1.268146 2.144224 0.000000 0.000000 0.000000
0.730409 1.269546 2.141994 0.000000 0.000000 0.000000
0.776759 1.188403 2.130293 0.000000 0.000000 0.000000
0.727109 1.272830 2.144023 0.000000 0.000000 0.000000
0.737067 1.288771 2.141568 0.000000 0.000000 0.000000
0.729463 1.288071 2.136817 0.000000 0.000000 0.000000
0.848690 1.341946 2.107751 0.000000 0.000000 0.000000
0.756340 1.270791 2.105331 0.000000 0.000000 0.000000
0.793679 1.154180 2.145627 0.000000 0.000000 0.000000
0.834228 1.179840 2.142048 0.000000 0.000000 0.000000
0.744994 1.192178 2.133687 0.000000 0.000000 0.000000
0.733721 1.214028 2.136988 0.000000 0.000000 0.000000
0.739894 1.195258 2.138476 0.000000 0.000000 0.000000
0.788740 1.159325 2.146460 0.000000 0.000000 0.000000
0.827420 1.175878 2.142143 0.000000 0.000000 0.000000
0.786117 1.146530 2.145089 0.000000 0.000000 0.000000
0.738904 1.198611 2.134261 0.000000 0.000000 0.000000
0.733386 1.218971 2.139194 0.000000 0.000000 0.000000
0.844759 1.195019 2.136655 0.000000 0.000000 0.000000
0.747943 1.324836 2.124568 0.000000 0.000000 0.000000
0.748247 1.343529 2.127296 0.000000 0.000000 0.000000
0.776335 1.375860 2.121766 0.000000 0.000000 0.000000
0.753280 1.351420 2.125721 0.000000 0.000000 0.000000
0.747162 1.340415 2.128594 0.000000 0.000000 0.000000
0.758947 1.197675 2.128760 0.000000 0.000000 0.000000
0.850538 1.421263 2.136138 0.000000 0.000000 0.000000
0.844156 1.408847 2.127633 0.000000 0.000000 0.000000
0.783942 1.382523 2.123382 0.000000 0.000000 0.000000
0.898560 1.318078 2.133707 0.000000 0.000000 0.000000
0.895328 1.295778 2.129380 0.000000 0.000000 0.000000
0.898705 1.327881 2.134100 0.000000 0.000000 0.000000
0.804804 1.157921 2.145904 0.000000 0.000000 0.000000
0.905706 1.327541 2.128273 0.000000 0.000000 0.000000
0.903564 1.309706 2.124875 0.000000 0.000000 0.000000
0.779271 1.156930 2.150069 0.000000 0.000000 0.000000
0.786632 1.150079 2.144585 0.000000 0.000000 0.000000
0.873198 1.327949 2.116042 0.000000 0.000000 0.000000
0.891663 1.317916 2.131676 0.000000 0.000000 0.000000
0.903884 1.310970 2.129904 0.000000 0.000000 0.000000
0.805955 1.158645 2.144339 0.000000 0.000000 0.000000
0.901895 1.304990 2.123614 0.000000 0.000000 0.000000
0.896439 1.289484 2.122381 0.000000 0.000000 0.000000
0.782994 1.158935 2.147602 0.000000 0.000000 0.000000
0.784670 1.153468 2.143156 0.000000 0.000000 0.000000
0.901621 1.329618 2.130405 0.000000 0.000000 0.000000
0.779673 1.149624 2.144623 0.000000 0.000000 0.000000
0.766758 1.155967 2.143145 0.000000 0.000000 0.000000
0.892033 1.277857 2.120408 0.000000 0.000000 0.000000
0.891135 1.327375 2.131245 0.000000 0.000000 0.000000
0.870618 1.304067 2.110153 0.000000 0.000000 0.000000
0.776315 1.154449 2.142986 0.000000 0.000000 0.000000
0.768814 1.157296 2.144664 0.000000 0.000000 0.000000
0.834393 1.201341 2.141717 0.000000 0.000000 0.000000
0.783456 1.158365 2.149678 0.000000 0.000000 0.000000
0.898809 1.302432 2.120965 0.000000 0.000000 0.000000
0.779351 1.375172 2.119362 0.000000 0.000000 0.000000
0.728791 1.229169 2.138548 0.000000 0.000000 0.000000
0.764551 1.365152 2.122951 0.000000 0.000000 0.000000
0.725702 1.237838 2.144723 0.000000 0.000000 0.000000
0.764594 1.167174 2.135878 0.000000 0.000000 0.000000
0.865886 1.232363 2.120382 0.000000 0.000000 0.000000
0.878070 1.233127 2.130054 0.000000 0.000000 0.000000
0.852261 1.229343 2.117547 0.000000 0.000000 0.000000
0.873907 1.360254 2.102944 0.000000 0.000000 0.000000
0.872424 1.225208 2.131956 0.000000 0.000000 0.000000
0.854113 1.308119 2.097946 0.000000 0.000000 0.000000
0.803391 1.162747 2.146319 0.000000 0.000000 0.000000
0.851443 1.387535 2.105677 0.000000 0.000000 0.000000
0.756976 1.161716 2.141589 0.000000 0.000000 0.000000
0.749707 1.173924 2.140719 0.000000 0.000000 0.000000
0.752909 1.161227 2.140454 0.000000 0.000000 0.000000
0.758925 1.167240 2.138062 0.000000 0.000000 0.000000
0.872007 1.233929 2.123603 0.000000 0.000000 0.000000
0.876189 1.242279 2.123697 0.000000 0.000000 0.000000
0.858961 1.239033 2.114069 0.000000 0.000000 0.000000
0.886378 1.357087 2.106347 0.000000 0.000000 0.000000
0.879218 1.252329 2.120666 0.000000 0.000000 0.000000
0.866173 1.309334 2.098999 0.000000 0.000000 0.000000
0.808473 1.159144 2.147765 0.000000 0.000000 0.000000
0.863545 1.298457 2.098332 0.000000 0.000000 0.000000
0.848016 1.396532 2.110414 0.000000 0.000000 0.000000
0.747331 1.174241 2.137422 0.000000 0.000000 0.000000
0.817329 1.169624 2.146105 0.000000 0.000000 0.000000
0.729838 1.234601 2.142634 0.000000 0.000000 0.000000
0.751865 1.168581 2.139007 0.000000 0.000000 0.000000
0.761829 1.248599 2.113760 0.000000 0.000000 0.000000
0.839160 1.350063 2.101229 0.000000 0.000000 0.000000
0.764952 1.194706 2.128047 0.000000 0.000000 0.000000
0.851355 1.260836 2.099868 0.000000 0.000000 0.000000
0.726730 1.242669 2.141132 0.000000 0.000000 0.000000
0.725325 1.246395 2.142669 0.000000 0.000000 0.000000
0.730028 1.237725 2.136226 0.000000 0.000000 0.000000
0.895608 1.391983 2.144039 0.000000 0.000000 0.000000
0.737480 1.208585 2.137576 0.000000 0.000000 0.000000
0.729622 1.231951 2.132540 0.000000 0.000000 0.000000
0.752644 1.176919 2.139459 0.000000 0.000000 0.000000
0.880138 1.322789 2.114936 0.000000 0.000000 0.000000
0.884470 1.336333 2.112281 0.000000 0.000000 0.000000
0.888224 1.315464 2.114289 0.000000 0.000000 0.000000
0.731884 1.216937 2.136508 0.000000 0.000000 0.000000
0.759144 1.180398 2.138617 0.000000 0.000000 0.000000
0.756038 1.173136 2.138253 0.000000 0.000000 0.000000
0.763690 1.225902 2.119241 0.000000 0.000000 0.000000
0.835689 1.322287 2.099460 0.000000 0.000000 0.000000
0.780635 1.175070 2.134347 0.000000 0.000000 0.000000
0.841166 1.260602 2.108721 0.000000 0.000000 0.000000
0.725080 1.260383 2.142173 0.000000 0.000000 0.000000
0.729004 1.230754 2.138443 0.000000 0.000000 0.000000
0.895382 1.396397 2.143584 0.000000 0.000000 0.000000
0.738624 1.240732 2.128402 0.000000 0.000000 0.000000
0.753644 1.177657 2.135812 0.000000 0.000000 0.000000
0.887992 1.321344 2.113834 0.000000 0.000000 0.000000
0.890503 1.313016 2.110687 0.000000 0.000000 0.000000
0.885546 1.341393 2.110313 0.000000 0.000000 0.000000
0.884281 1.302407 2.112951 0.000000 0.000000 0.000000
0.736937 1.203951 2.138408 0.000000 0.000000 0.000000
0.759691 1.204916 2.123263 0.000000 0.000000 0.000000
0.832118 1.228097 2.103074 0.000000 0.000000 0.000000
0.856995 1.418731 2.118776 0.000000 0.000000 0.000000
0.868552 1.373343 2.105973 0.000000 0.000000 0.000000
0.903984 1.368090 2.128853 0.000000 0.000000 0.000000
0.874551 1.364064 2.120202 0.000000 0.000000 0.000000
0.897041 1.381115 2.131260 0.000000 0.000000 0.000000
0.898817 1.371980 2.124404 0.000000 0.000000 0.000000
0.891559 1.391267 2.125805 0.000000 0.000000 0.000000
0.876052 1.386402 2.111919 0.000000 0.000000 0.000000
0.885604 1.379703 2.112521 0.000000 0.000000 0.000000
0.804738 1.319950 2.095798 0.000000 0.000000 0.000000
0.851535 1.407155 2.115859 0.000000 0.000000 0.000000
0.871429 1.409254 2.127805 0.000000 0.000000 0.000000
0.742800 1.186850 2.137896 0.000000 0.000000 0.000000
0.890994 1.397855 2.137853 0.000000 0.000000 0.000000
0.886680 1.396179 2.131068 0.000000 0.000000 0.000000
0.833595 1.231420 2.107316 0.000000 0.000000 0.000000
0.821309 1.210426 2.114543 0.000000 0.000000 0.000000
0.744053 1.188425 2.136591 0.000000 0.000000 0.000000
0.860443 1.407569 2.119051 0.000000 0.000000 0.000000
0.878355 1.377675 2.112564 0.000000 0.000000 0.000000
0.889893 1.380653 2.131340 0.000000 0.000000 0.000000
0.881614 1.364270 2.109118 0.000000 0.000000 0.000000
0.893854 1.385608 2.134804 0.000000 0.000000 0.000000
0.879563 1.372437 2.120105 0.000000 0.000000 0.000000
0.895707 1.390746 2.133738 0.000000 0.000000 0.000000
0.884147 1.390988 2.122154 0.000000 0.000000 0.000000
0.890093 1.383186 2.121516 0.000000 0.000000 0.000000
0.816386 1.317580 2.095157 0.000000 0.000000 0.000000
0.823365 1.323928 2.096824 0.000000 0.000000 0.000000
0.870740 1.402854 2.119890 0.000000 0.000000 0.000000
0.746198 1.183846 2.139471 0.000000 0.000000 0.000000
0.869160 1.401359 2.127318 0.000000 0.000000 0.000000
0.884372 1.400622 2.129705 0.000000 0.000000 0.000000
0.812241 1.238802 2.106233 0.000000 0.000000 0.000000
0.806484 1.221847 2.109382 0.000000 0.000000 0.000000
0.743200 1.189549 2.136339 0.000000 0.000000 0.000000
0.812807 1.222343 2.114734 0.000000 0.000000 0.000000
0.832158 1.269859 2.097569 0.000000 0.000000 0.000000
0.832729 1.398856 2.129478 0.000000 0.000000 0.000000
0.767295 1.229582 2.110578 0.000000 0.000000 0.000000
0.744923 1.222537 2.127189 0.000000 0.000000 0.000000
0.812848 1.216153 2.112590 0.000000 0.000000 0.000000
0.795857 1.209545 2.116952 0.000000 0.000000 0.000000
0.843874 1.413697 2.133634 0.000000 0.000000 0.000000
0.782300 1.156115 2.148123 0.000000 0.000000 0.000000
0.836755 1.224236 2.109538 0.000000 0.000000 0.000000
0.798373 1.224671 2.110843 0.000000 0.000000 0.000000
0.828127 1.262994 2.097130 0.000000 0.000000 0.000000
0.763182 1.248906 2.105016 0.000000 0.000000 0.000000
0.757674 1.239900 2.115507 0.000000 0.000000 0.000000
0.757210 1.229595 2.116812 0.000000 0.000000 0.000000
0.833673 1.224798 2.110355 0.000000 0.000000 0.000000
0.831711 1.417881 2.126901 0.000000 0.000000 0.000000
0.786188 1.155048 2.148657 0.000000 0.000000 0.000000
0.835746 1.229846 2.109585 0.000000 0.000000 0.000000
0.725359 1.278048 2.142160 0.000000 0.000000 0.000000
0.723862 1.271927 2.142004 0.000000 0.000000 0.000000
0.725993 1.234307 2.141859 0.000000 0.000000 0.000000
0.733078 1.214128 2.137619 0.000000 0.000000 0.000000
0.726110 1.226802 2.137838 0.000000 0.000000 0.000000
0.730884 1.217252 2.133399 0.000000 0.000000 0.000000
0.874291 1.409489 2.137627 0.000000 0.000000 0.000000
0.881698 1.410002 2.144629 0.000000 0.000000 0.000000
0.872093 1.415327 2.136348 0.000000 0.000000 0.000000
0.808994 1.213454 2.146209 0.000000 0.000000 0.000000
0.881197 1.416674 2.136685 0.000000 0.000000 0.000000
0.875118 1.413788 2.139891 0.000000 0.000000 0.000000
0.735724 1.297239 2.142419 0.000000 0.000000 0.000000
0.740515 1.269639 2.139266 0.000000 0.000000 0.000000
0.729736 1.302246 2.140394 0.000000 0.000000 0.000000
0.742641 1.300132 2.141773 0.000000 0.000000 0.000000
0.731043 1.279556 2.140410 0.000000 0.000000 0.000000
0.738546 1.318684 2.136040 0.000000 0.000000 0.000000
0.727295 1.286900 2.140486 0.000000 0.000000 0.000000
0.765882 1.356764 2.116926 0.000000 0.000000 0.000000
0.739140 1.328589 2.133199 0.000000 0.000000 0.000000
0.741331 1.331688 2.131414 0.000000 0.000000 0.000000
0.728606 1.309206 2.140819 0.000000 0.000000 0.000000
0.747401 1.337611 2.126524 0.000000 0.000000 0.000000
0.746955 1.334118 2.128479 0.000000 0.000000 0.000000
0.731150 1.311861 2.137668 0.000000 0.000000 0.000000
0.734359 1.310088 2.136185 0.000000 0.000000 0.000000
0.781383 1.182651 2.143843 0.000000 0.000000 0.000000
0.804617 1.396916 2.127476 0.000000 0.000000 0.000000
0.909799 1.352079 2.126909 0.000000 0.000000 0.000000
0.909106 1.359748 2.134172 0.000000 0.000000 0.000000
0.837859 1.192499 2.135423 0.000000 0.000000 0.000000
0.812120 1.170899 2.147675 0.000000 0.000000 0.000000
0.850095 1.202347 2.136983 0.000000 0.000000 0.000000
0.835879 1.191872 2.141382 0.000000 0.000000 0.000000
0.861733 1.211522 2.138117 0.000000 0.000000 0.000000
0.839597 1.192927 2.134751 0.000000 0.000000 0.000000
0.816998 1.181147 2.142408 0.000000 0.000000 0.000000
0.800117 1.394340 2.126487 0.000000 0.000000 0.000000
0.904947 1.358427 2.134263 0.000000 0.000000 0.000000
0.906537 1.365671 2.128424 0.000000 0.000000 0.000000
0.834526 1.184584 2.140047 0.000000 0.000000 0.000000
0.823120 1.176108 2.144814 0.000000 0.000000 0.000000
0.837081 1.192350 2.140777 0.000000 0.000000 0.000000
0.834153 1.177419 2.145028 0.000000 0.000000 0.000000
0.835705 1.192094 2.142168 0.000000 0.000000 0.000000
0.837916 1.186437 2.146180 0.000000 0.000000 0.000000
0.905780 1.308584 2.132131 0.000000 0.000000 0.000000
0.844886 1.192980 2.140340 0.000000 0.000000 0.000000
0.780771 1.250480 2.100793 0.000000 0.000000 0.000000
0.770505 1.262188 2.099797 0.000000 0.000000 0.000000
0.765981 1.269985 2.098376 0.000000 0.000000 0.000000
0.868991 1.413962 2.141258 0.000000 0.000000 0.000000
0.779641 1.240998 2.103277 0.000000 0.000000 0.000000
0.766059 1.262732 2.100446 0.000000 0.000000 0.000000
0.761865 1.262550 2.103588 0.000000 0.000000 0.000000
0.854976 1.404884 2.139539 0.000000 0.000000 0.000000
0.870445 1.226485 2.133078 0.000000 0.000000 0.000000
0.854352 1.266334 2.096580 0.000000 0.000000 0.000000
0.876468 1.241078 2.128670 0.000000 0.000000 0.000000
0.856161 1.269101 2.106882 0.000000 0.000000 0.000000
0.735996 1.202295 2.139574 0.000000 0.000000 0.000000
0.741392 1.186935 2.138271 0.000000 0.000000 0.000000
0.795172 1.156862 2.144069 0.000000 0.000000 0.000000
0.853530 1.406442 2.135829 0.000000 0.000000 0.000000
0.810958 1.396359 2.125608 0.000000 0.000000 0.000000
0.768989 1.230834 2.105611 0.000000 0.000000 0.000000
0.840127 1.410659 2.133768 0.000000 0.000000 0.000000
0.726913 1.291001 2.140609 0.000000 0.000000 0.000000
0.817773 1.404289 2.127683 0.000000 0.000000 0.000000
0.724366 1.260646 2.144859 0.000000 0.000000 0.000000
0.765361 1.240608 2.106638 0.000000 0.000000 0.000000
0.828352 1.403197 2.132209 0.000000 0.000000 0.000000
0.726989 1.289575 2.138869 0.000000 0.000000 0.000000
0.830744 1.406197 2.132790 0.000000 0.000000 0.000000
0.730494 1.295398 2.138097 0.000000 0.000000 0.000000
0.848441 1.372691 2.105986 0.000000 0.000000 0.000000
0.821153 1.362053 2.099997 0.000000 0.000000 0.000000
0.820442 1.308503 2.089926 0.000000 0.000000 0.000000
0.825499 1.314427 2.097386 0.000000 0.000000 0.000000
0.890603 1.338950 2.118403 0.000000 0.000000 0.000000
0.872281 1.350498 2.105021 0.000000 0.000000 0.000000
0.897930 1.317504 2.132069 0.000000 0.000000 0.000000
0.900243 1.374000 2.135963 0.000000 0.000000 0.000000
0.895315 1.332494 2.111740 0.000000 0.000000 0.000000
0.830065 1.309740 2.092827 0.000000 0.000000 0.000000
0.850283 1.366565 2.101138 0.000000 0.000000 0.000000
0.803302 1.337017 2.095898 0.000000 0.000000 0.000000
0.802871 1.306238 2.090452 0.000000 0.000000 0.000000
0.830032 1.304706 2.096192 0.000000 0.000000 0.000000
0.880769 1.337111 2.122366 0.000000 0.000000 0.000000
0.863128 1.326557 2.112763 0.000000 0.000000 0.000000
0.897061 1.322579 2.135490 0.000000 0.000000 0.000000
0.839391 1.292887 2.095765 0.000000 0.000000 0.000000
0.910914 1.370795 2.138579 0.000000 0.000000 0.000000
0.902894 1.342341 2.118964 0.000000 0.000000 0.000000
0.827073 1.313478 2.092236 0.000000 0.000000 0.000000
0.765185 1.161623 2.147801 0.000000 0.000000 0.000000
0.907494 1.307241 2.130672 0.000000 0.000000 0.000000
0.726729 1.233773 2.137109 0.000000 0.000000 0.000000
0.905809 1.317316 2.129256 0.000000 0.000000 0.000000
0.864008 1.270015 2.111738 0.000000 0.000000 0.000000
0.866946 1.244046 2.114383 0.000000 0.000000 0.000000
0.868465 1.278854 2.107546 0.000000 0.000000 0.000000
0.885487 1.270314 2.117255 0.000000 0.000000 0.000000
0.863326 1.285341 2.104370 0.000000 0.000000 0.000000
0.857183 1.227907 2.121358 0.000000 0.000000 0.000000
0.751021 1.174498 2.139316 0.000000 0.000000 0.000000
0.727545 1.235013 2.140356 0.000000 0.000000 0.000000
0.852763 1.288184 2.100458 0.000000 0.000000 0.000000
0.909904 1.321084 2.131478 0.000000 0.000000 0.000000
0.878652 1.278120 2.113329 0.000000 0.000000 0.000000
0.877069 1.259184 2.115301 0.000000 0.000000 0.000000
0.867442 1.271970 2.110877 0.000000 0.000000 0.000000
0.875093 1.254235 2.116286 0.000000 0.000000 0.000000
0.869713 1.287370 2.111216 0.000000 0.000000 0.000000
0.867440 1.295527 2.098342 0.000000 0.000000 0.000000
0.750255 1.184665 2.139297 0.000000 0.000000 0.000000
0.728579 1.246461 2.141596 0.000000 0.000000 0.000000
