ply
format ascii 1.0
comment VCGLIB generated
obj_info Generated by SPFormer!
element vertex 405
property float x
property float y
property float z
property float nx
property float ny
property float nz
end_header
0.603522 1.180586 1.646887 0.000000 0.000000 0.000000
0.620105 1.165271 1.653663 0.000000 0.000000 0.000000
0.607366 1.170521 1.643420 0.000000 0.000000 0.000000
0.649170 1.120217 1.610001 0.000000 0.000000 0.000000
0.715864 1.136036 1.608683 0.000000 0.000000 0.000000
0.669442 1.123980 1.606460 0.000000 0.000000 0.000000
0.641680 1.178162 1.628240 0.000000 0.000000 0.000000
0.593895 1.181320 1.664004 0.000000 0.000000 0.000000
0.684998 1.131553 1.447737 0.000000 0.000000 0.000000
0.624122 1.206493 1.765456 0.000000 0.000000 0.000000
0.685028 1.123665 1.646557 0.000000 0.000000 0.000000
0.634767 1.197740 1.726114 0.000000 0.000000 0.000000
0.617886 1.220924 1.784452 0.000000 0.000000 0.000000
0.620222 1.209324 1.736422 0.000000 0.000000 0.000000
0.659313 1.159246 1.638547 0.000000 0.000000 0.000000
0.644352 1.138952 1.617269 0.000000 0.000000 0.000000
0.597377 1.189742 1.672830 0.000000 0.000000 0.000000
0.594420 1.184312 1.655668 0.000000 0.000000 0.000000
0.646806 1.171443 1.663020 0.000000 0.000000 0.000000
0.626131 1.201411 1.710150 0.000000 0.000000 0.000000
0.700897 1.183990 1.565028 0.000000 0.000000 0.000000
0.611394 1.191829 1.658657 0.000000 0.000000 0.000000
0.700462 1.181841 1.568193 0.000000 0.000000 0.000000
0.620382 1.212775 1.790323 0.000000 0.000000 0.000000
0.634639 1.197751 1.720280 0.000000 0.000000 0.000000
0.641607 1.195851 1.694635 0.000000 0.000000 0.000000
0.654778 1.178367 1.665918 0.000000 0.000000 0.000000
0.692846 1.176991 1.626716 0.000000 0.000000 0.000000
0.680154 1.186453 1.625061 0.000000 0.000000 0.000000
0.614758 1.214498 1.788053 0.000000 0.000000 0.000000
0.601594 1.191951 1.688024 0.000000 0.000000 0.000000
0.637297 1.189465 1.702870 0.000000 0.000000 0.000000
0.632680 1.158520 1.654302 0.000000 0.000000 0.000000
0.661764 1.165346 1.623165 0.000000 0.000000 0.000000
0.625665 1.198032 1.741288 0.000000 0.000000 0.000000
0.629941 1.204317 1.760344 0.000000 0.000000 0.000000
0.601608 1.185487 1.661445 0.000000 0.000000 0.000000
0.623682 1.212270 1.765827 0.000000 0.000000 0.000000
0.700985 1.137750 1.607063 0.000000 0.000000 0.000000
0.595244 1.186443 1.675249 0.000000 0.000000 0.000000
0.602325 1.200240 1.700793 0.000000 0.000000 0.000000
0.748945 1.168975 1.556441 0.000000 0.000000 0.000000
0.637214 1.201388 1.727474 0.000000 0.000000 0.000000
0.624971 1.181807 1.642464 0.000000 0.000000 0.000000
0.648366 1.170045 1.612488 0.000000 0.000000 0.000000
0.607088 1.196975 1.738976 0.000000 0.000000 0.000000
0.607008 1.200232 1.735317 0.000000 0.000000 0.000000
0.631341 1.195038 1.722008 0.000000 0.000000 0.000000
0.605003 1.172368 1.645219 0.000000 0.000000 0.000000
0.635805 1.185621 1.647531 0.000000 0.000000 0.000000
0.615784 1.215425 1.793668 0.000000 0.000000 0.000000
0.594386 1.182525 1.676085 0.000000 0.000000 0.000000
0.623547 1.200533 1.748724 0.000000 0.000000 0.000000
0.609453 1.207191 1.763888 0.000000 0.000000 0.000000
0.625364 1.200709 1.724838 0.000000 0.000000 0.000000
0.603458 1.206991 1.761988 0.000000 0.000000 0.000000
0.600698 1.174554 1.648423 0.000000 0.000000 0.000000
0.604643 1.190740 1.685712 0.000000 0.000000 0.000000
0.643596 1.194622 1.682083 0.000000 0.000000 0.000000
0.633495 1.198523 1.734981 0.000000 0.000000 0.000000
0.667542 1.168043 1.662388 0.000000 0.000000 0.000000
0.603841 1.170964 1.666518 0.000000 0.000000 0.000000
0.663160 1.158435 1.653014 0.000000 0.000000 0.000000
0.610105 1.168747 1.653000 0.000000 0.000000 0.000000
0.612467 1.192042 1.677973 0.000000 0.000000 0.000000
0.660340 1.166230 1.644138 0.000000 0.000000 0.000000
0.616589 1.192740 1.740254 0.000000 0.000000 0.000000
0.669624 1.160374 1.648339 0.000000 0.000000 0.000000
0.640116 1.185659 1.715898 0.000000 0.000000 0.000000
0.620897 1.202956 1.751283 0.000000 0.000000 0.000000
0.632780 1.193221 1.737758 0.000000 0.000000 0.000000
0.599316 1.172901 1.658328 0.000000 0.000000 0.000000
0.635045 1.195448 1.740118 0.000000 0.000000 0.000000
0.627633 1.199461 1.707553 0.000000 0.000000 0.000000
0.600587 1.192177 1.679014 0.000000 0.000000 0.000000
0.634448 1.188500 1.723901 0.000000 0.000000 0.000000
0.643420 1.186394 1.720465 0.000000 0.000000 0.000000
0.632273 1.161414 1.660716 0.000000 0.000000 0.000000
0.612354 1.202093 1.728875 0.000000 0.000000 0.000000
0.623348 1.195508 1.735927 0.000000 0.000000 0.000000
0.600021 1.202822 1.754202 0.000000 0.000000 0.000000
0.605276 1.199748 1.749757 0.000000 0.000000 0.000000
0.604777 1.182791 1.670914 0.000000 0.000000 0.000000
0.633125 1.176888 1.687498 0.000000 0.000000 0.000000
0.615050 1.211921 1.776565 0.000000 0.000000 0.000000
0.636482 1.167768 1.663076 0.000000 0.000000 0.000000
0.624349 1.206928 1.759510 0.000000 0.000000 0.000000
0.610765 1.211467 1.777125 0.000000 0.000000 0.000000
0.602387 1.187538 1.698262 0.000000 0.000000 0.000000
0.608170 1.197026 1.709476 0.000000 0.000000 0.000000
0.606938 1.187995 1.709048 0.000000 0.000000 0.000000
0.599735 1.177522 1.669018 0.000000 0.000000 0.000000
0.620627 1.215775 1.779181 0.000000 0.000000 0.000000
0.733516 1.174494 1.557406 0.000000 0.000000 0.000000
0.629418 1.192393 1.729547 0.000000 0.000000 0.000000
0.627031 1.201850 1.751742 0.000000 0.000000 0.000000
0.632878 1.164955 1.649246 0.000000 0.000000 0.000000
0.630052 1.190025 1.685385 0.000000 0.000000 0.000000
0.613251 1.199271 1.744769 0.000000 0.000000 0.000000
0.639388 1.199213 1.720446 0.000000 0.000000 0.000000
0.644811 1.149137 1.648785 0.000000 0.000000 0.000000
0.682624 1.122967 1.455901 0.000000 0.000000 0.000000
0.624412 1.193453 1.720879 0.000000 0.000000 0.000000
0.645704 1.145043 1.632841 0.000000 0.000000 0.000000
0.623305 1.187779 1.702050 0.000000 0.000000 0.000000
0.652845 1.155968 1.640443 0.000000 0.000000 0.000000
0.636915 1.202580 1.737657 0.000000 0.000000 0.000000
0.636786 1.197679 1.742602 0.000000 0.000000 0.000000
0.613391 1.217859 1.797298 0.000000 0.000000 0.000000
0.647181 1.176284 1.700303 0.000000 0.000000 0.000000
0.623932 1.183401 1.683742 0.000000 0.000000 0.000000
0.612973 1.225980 1.799625 0.000000 0.000000 0.000000
0.616353 1.214152 1.776519 0.000000 0.000000 0.000000
0.648383 1.172547 1.621469 0.000000 0.000000 0.000000
0.689672 1.140111 1.457373 0.000000 0.000000 0.000000
0.626171 1.208589 1.764923 0.000000 0.000000 0.000000
0.682060 1.178748 1.594866 0.000000 0.000000 0.000000
0.618035 1.196567 1.704495 0.000000 0.000000 0.000000
0.681345 1.175926 1.586310 0.000000 0.000000 0.000000
0.626385 1.199223 1.731656 0.000000 0.000000 0.000000
0.747482 1.160896 1.551296 0.000000 0.000000 0.000000
0.618686 1.195272 1.721224 0.000000 0.000000 0.000000
0.744182 1.189576 1.558709 0.000000 0.000000 0.000000
0.612764 1.214611 1.752232 0.000000 0.000000 0.000000
0.609777 1.208193 1.754415 0.000000 0.000000 0.000000
0.617050 1.213745 1.759332 0.000000 0.000000 0.000000
0.619006 1.221795 1.780108 0.000000 0.000000 0.000000
0.614764 1.221801 1.793465 0.000000 0.000000 0.000000
0.600182 1.207180 1.753861 0.000000 0.000000 0.000000
0.620071 1.216768 1.782012 0.000000 0.000000 0.000000
0.616046 1.202728 1.742045 0.000000 0.000000 0.000000
0.608330 1.199276 1.720476 0.000000 0.000000 0.000000
0.628447 1.200713 1.732757 0.000000 0.000000 0.000000
0.603071 1.199391 1.719930 0.000000 0.000000 0.000000
0.604418 1.192244 1.678734 0.000000 0.000000 0.000000
0.621564 1.208321 1.746815 0.000000 0.000000 0.000000
0.610088 1.188721 1.658303 0.000000 0.000000 0.000000
0.630420 1.199462 1.745221 0.000000 0.000000 0.000000
0.612517 1.204199 1.740424 0.000000 0.000000 0.000000
0.696726 1.129953 1.619016 0.000000 0.000000 0.000000
0.683962 1.156338 1.633317 0.000000 0.000000 0.000000
0.687050 1.137081 1.638759 0.000000 0.000000 0.000000
0.641312 1.203587 1.729931 0.000000 0.000000 0.000000
0.611323 1.184207 1.688394 0.000000 0.000000 0.000000
0.608807 1.181892 1.709620 0.000000 0.000000 0.000000
0.688928 1.142922 1.644010 0.000000 0.000000 0.000000
0.626375 1.172199 1.686074 0.000000 0.000000 0.000000
0.650366 1.172977 1.691322 0.000000 0.000000 0.000000
0.652027 1.175048 1.660467 0.000000 0.000000 0.000000
0.611941 1.178871 1.694537 0.000000 0.000000 0.000000
0.632708 1.213555 1.755553 0.000000 0.000000 0.000000
0.609670 1.184851 1.649676 0.000000 0.000000 0.000000
0.660984 1.168320 1.679147 0.000000 0.000000 0.000000
0.639892 1.211272 1.755025 0.000000 0.000000 0.000000
0.600240 1.180165 1.652148 0.000000 0.000000 0.000000
0.634098 1.208136 1.763296 0.000000 0.000000 0.000000
0.615048 1.182443 1.648468 0.000000 0.000000 0.000000
0.675105 1.161652 1.664211 0.000000 0.000000 0.000000
0.736491 1.183208 1.566190 0.000000 0.000000 0.000000
0.619647 1.208800 1.755100 0.000000 0.000000 0.000000
0.627120 1.215571 1.757636 0.000000 0.000000 0.000000
0.616712 1.218372 1.777375 0.000000 0.000000 0.000000
0.618984 1.204495 1.757721 0.000000 0.000000 0.000000
0.618061 1.204710 1.750090 0.000000 0.000000 0.000000
0.619254 1.218876 1.785422 0.000000 0.000000 0.000000
0.612103 1.202902 1.752881 0.000000 0.000000 0.000000
0.740203 1.168864 1.555809 0.000000 0.000000 0.000000
0.620703 1.218334 1.785896 0.000000 0.000000 0.000000
0.624459 1.210832 1.758505 0.000000 0.000000 0.000000
0.621261 1.208514 1.754684 0.000000 0.000000 0.000000
0.606669 1.210040 1.759401 0.000000 0.000000 0.000000
0.628005 1.208607 1.754778 0.000000 0.000000 0.000000
0.719185 1.163619 1.566252 0.000000 0.000000 0.000000
0.601115 1.188966 1.680811 0.000000 0.000000 0.000000
0.649900 1.167445 1.671736 0.000000 0.000000 0.000000
0.633672 1.177500 1.666656 0.000000 0.000000 0.000000
0.623339 1.180706 1.668829 0.000000 0.000000 0.000000
0.685386 1.155797 1.654854 0.000000 0.000000 0.000000
0.602665 1.189549 1.676611 0.000000 0.000000 0.000000
0.614374 1.190690 1.684072 0.000000 0.000000 0.000000
0.608795 1.211669 1.748079 0.000000 0.000000 0.000000
0.619448 1.188692 1.693888 0.000000 0.000000 0.000000
0.677169 1.152270 1.656554 0.000000 0.000000 0.000000
0.642063 1.189454 1.679796 0.000000 0.000000 0.000000
0.629538 1.203916 1.716442 0.000000 0.000000 0.000000
0.619545 1.195160 1.711124 0.000000 0.000000 0.000000
0.607390 1.221827 1.798265 0.000000 0.000000 0.000000
0.636304 1.187406 1.692225 0.000000 0.000000 0.000000
0.620271 1.200933 1.716418 0.000000 0.000000 0.000000
0.612642 1.219317 1.788628 0.000000 0.000000 0.000000
0.710825 1.135578 1.606259 0.000000 0.000000 0.000000
0.619184 1.219620 1.799405 0.000000 0.000000 0.000000
0.618539 1.217836 1.796441 0.000000 0.000000 0.000000
0.721078 1.167405 1.550580 0.000000 0.000000 0.000000
0.727676 1.175661 1.548271 0.000000 0.000000 0.000000
0.622895 1.182636 1.707322 0.000000 0.000000 0.000000
0.731121 1.178683 1.565014 0.000000 0.000000 0.000000
0.720868 1.186336 1.564249 0.000000 0.000000 0.000000
0.614006 1.215748 1.782045 0.000000 0.000000 0.000000
0.736622 1.180894 1.568038 0.000000 0.000000 0.000000
0.738676 1.188612 1.554120 0.000000 0.000000 0.000000
0.632209 1.219259 1.759213 0.000000 0.000000 0.000000
0.683708 1.128345 1.462137 0.000000 0.000000 0.000000
0.693795 1.130560 1.447930 0.000000 0.000000 0.000000
0.734561 1.179591 1.551448 0.000000 0.000000 0.000000
0.684627 1.122385 1.628759 0.000000 0.000000 0.000000
0.727045 1.188666 1.554531 0.000000 0.000000 0.000000
0.642458 1.191801 1.732808 0.000000 0.000000 0.000000
0.725770 1.180760 1.564229 0.000000 0.000000 0.000000
0.615267 1.186845 1.716004 0.000000 0.000000 0.000000
0.670463 1.181599 1.624648 0.000000 0.000000 0.000000
0.725465 1.179665 1.569497 0.000000 0.000000 0.000000
0.732844 1.180617 1.566437 0.000000 0.000000 0.000000
0.738679 1.179068 1.560874 0.000000 0.000000 0.000000
0.726854 1.175263 1.563424 0.000000 0.000000 0.000000
0.741667 1.164879 1.549257 0.000000 0.000000 0.000000
0.743943 1.186745 1.560530 0.000000 0.000000 0.000000
0.733328 1.178716 1.559887 0.000000 0.000000 0.000000
0.680890 1.160246 1.571415 0.000000 0.000000 0.000000
0.617195 1.219428 1.781469 0.000000 0.000000 0.000000
0.616773 1.226223 1.788600 0.000000 0.000000 0.000000
0.622177 1.216955 1.794900 0.000000 0.000000 0.000000
0.623091 1.215050 1.789017 0.000000 0.000000 0.000000
0.613999 1.212790 1.777961 0.000000 0.000000 0.000000
0.621509 1.227061 1.779844 0.000000 0.000000 0.000000
0.620531 1.218218 1.768540 0.000000 0.000000 0.000000
0.620885 1.220167 1.797133 0.000000 0.000000 0.000000
0.634632 1.208838 1.752306 0.000000 0.000000 0.000000
0.602731 1.192274 1.736464 0.000000 0.000000 0.000000
0.650661 1.191055 1.714941 0.000000 0.000000 0.000000
0.640522 1.189796 1.725215 0.000000 0.000000 0.000000
0.646754 1.186159 1.706975 0.000000 0.000000 0.000000
0.649781 1.183890 1.712283 0.000000 0.000000 0.000000
0.652345 1.180081 1.700959 0.000000 0.000000 0.000000
0.635826 1.198937 1.746483 0.000000 0.000000 0.000000
0.607034 1.193999 1.682184 0.000000 0.000000 0.000000
0.623467 1.209642 1.772212 0.000000 0.000000 0.000000
0.624164 1.218168 1.786022 0.000000 0.000000 0.000000
0.697094 1.135205 1.623422 0.000000 0.000000 0.000000
0.629688 1.209286 1.768626 0.000000 0.000000 0.000000
0.630895 1.210550 1.777221 0.000000 0.000000 0.000000
0.623461 1.219123 1.792087 0.000000 0.000000 0.000000
0.624463 1.217022 1.788200 0.000000 0.000000 0.000000
0.621995 1.213150 1.765483 0.000000 0.000000 0.000000
0.598740 1.182835 1.674496 0.000000 0.000000 0.000000
0.611132 1.214142 1.789347 0.000000 0.000000 0.000000
0.607255 1.218245 1.792057 0.000000 0.000000 0.000000
0.616145 1.233226 1.797538 0.000000 0.000000 0.000000
0.606656 1.218305 1.794751 0.000000 0.000000 0.000000
0.614231 1.223414 1.793692 0.000000 0.000000 0.000000
0.610430 1.217038 1.795771 0.000000 0.000000 0.000000
0.616953 1.210033 1.767889 0.000000 0.000000 0.000000
0.604190 1.210523 1.750071 0.000000 0.000000 0.000000
0.684252 1.128661 1.455702 0.000000 0.000000 0.000000
0.616412 1.208346 1.762005 0.000000 0.000000 0.000000
0.698007 1.126377 1.478425 0.000000 0.000000 0.000000
0.612817 1.208592 1.759049 0.000000 0.000000 0.000000
0.605460 1.204285 1.745378 0.000000 0.000000 0.000000
0.615693 1.197543 1.719201 0.000000 0.000000 0.000000
0.617154 1.214336 1.767775 0.000000 0.000000 0.000000
0.641070 1.196655 1.742720 0.000000 0.000000 0.000000
0.721284 1.188130 1.540305 0.000000 0.000000 0.000000
0.645562 1.187768 1.696475 0.000000 0.000000 0.000000
0.632076 1.194426 1.693612 0.000000 0.000000 0.000000
0.633262 1.206860 1.747610 0.000000 0.000000 0.000000
0.642637 1.194176 1.732914 0.000000 0.000000 0.000000
0.690221 1.167185 1.627494 0.000000 0.000000 0.000000
0.639011 1.200608 1.752128 0.000000 0.000000 0.000000
0.629093 1.212186 1.764873 0.000000 0.000000 0.000000
0.626026 1.214618 1.764725 0.000000 0.000000 0.000000
0.601030 1.211456 1.756719 0.000000 0.000000 0.000000
0.641465 1.189869 1.705907 0.000000 0.000000 0.000000
0.633475 1.198661 1.741504 0.000000 0.000000 0.000000
0.641371 1.179826 1.664123 0.000000 0.000000 0.000000
0.635121 1.201567 1.751498 0.000000 0.000000 0.000000
0.637750 1.197899 1.739991 0.000000 0.000000 0.000000
0.690453 1.159928 1.636122 0.000000 0.000000 0.000000
0.630145 1.208661 1.747483 0.000000 0.000000 0.000000
0.643665 1.194849 1.727469 0.000000 0.000000 0.000000
0.629271 1.208258 1.740692 0.000000 0.000000 0.000000
0.636232 1.199285 1.709073 0.000000 0.000000 0.000000
0.654705 1.180170 1.677366 0.000000 0.000000 0.000000
0.652856 1.180990 1.679190 0.000000 0.000000 0.000000
0.625555 1.207281 1.729611 0.000000 0.000000 0.000000
0.659362 1.164341 1.664518 0.000000 0.000000 0.000000
0.646499 1.189612 1.688011 0.000000 0.000000 0.000000
0.662384 1.168878 1.671183 0.000000 0.000000 0.000000
0.610982 1.203653 1.730328 0.000000 0.000000 0.000000
0.693074 1.130929 1.443259 0.000000 0.000000 0.000000
0.695303 1.120289 1.453515 0.000000 0.000000 0.000000
0.662568 1.170491 1.681094 0.000000 0.000000 0.000000
0.633257 1.205359 1.721191 0.000000 0.000000 0.000000
0.689600 1.124538 1.467860 0.000000 0.000000 0.000000
0.606889 1.213308 1.789965 0.000000 0.000000 0.000000
0.607029 1.194306 1.684849 0.000000 0.000000 0.000000
0.738197 1.164052 1.565340 0.000000 0.000000 0.000000
0.616620 1.218080 1.790394 0.000000 0.000000 0.000000
0.646029 1.174945 1.688174 0.000000 0.000000 0.000000
0.643622 1.196169 1.734834 0.000000 0.000000 0.000000
0.621411 1.192266 1.729717 0.000000 0.000000 0.000000
0.627032 1.213620 1.778628 0.000000 0.000000 0.000000
0.635354 1.188065 1.720488 0.000000 0.000000 0.000000
0.646695 1.191387 1.727494 0.000000 0.000000 0.000000
0.628707 1.183898 1.710383 0.000000 0.000000 0.000000
0.627431 1.214585 1.776495 0.000000 0.000000 0.000000
0.654058 1.182590 1.703068 0.000000 0.000000 0.000000
0.651248 1.185944 1.699994 0.000000 0.000000 0.000000
0.649989 1.184400 1.709943 0.000000 0.000000 0.000000
0.649690 1.186564 1.712446 0.000000 0.000000 0.000000
0.655934 1.182596 1.704103 0.000000 0.000000 0.000000
0.645468 1.190833 1.718339 0.000000 0.000000 0.000000
0.651979 1.184908 1.710481 0.000000 0.000000 0.000000
0.647791 1.190378 1.719239 0.000000 0.000000 0.000000
0.681597 1.173731 1.562484 0.000000 0.000000 0.000000
0.728256 1.169119 1.540220 0.000000 0.000000 0.000000
0.726853 1.165561 1.542450 0.000000 0.000000 0.000000
0.638200 1.203919 1.747665 0.000000 0.000000 0.000000
0.640196 1.201333 1.733459 0.000000 0.000000 0.000000
0.647524 1.192003 1.727441 0.000000 0.000000 0.000000
0.644813 1.192507 1.720610 0.000000 0.000000 0.000000
0.621817 1.214693 1.769830 0.000000 0.000000 0.000000
0.627528 1.204205 1.746641 0.000000 0.000000 0.000000
0.633668 1.214819 1.751598 0.000000 0.000000 0.000000
0.635940 1.208545 1.754652 0.000000 0.000000 0.000000
0.624802 1.218608 1.775746 0.000000 0.000000 0.000000
0.639198 1.200216 1.744857 0.000000 0.000000 0.000000
0.639757 1.202216 1.737155 0.000000 0.000000 0.000000
0.645625 1.191521 1.730039 0.000000 0.000000 0.000000
0.650320 1.188642 1.723823 0.000000 0.000000 0.000000
0.603491 1.217412 1.799110 0.000000 0.000000 0.000000
0.646453 1.191447 1.723795 0.000000 0.000000 0.000000
0.632456 1.206996 1.740463 0.000000 0.000000 0.000000
0.636596 1.209671 1.747344 0.000000 0.000000 0.000000
0.637316 1.208099 1.741107 0.000000 0.000000 0.000000
0.635941 1.204910 1.756262 0.000000 0.000000 0.000000
0.633114 1.213882 1.759792 0.000000 0.000000 0.000000
0.650102 1.189809 1.708068 0.000000 0.000000 0.000000
0.640703 1.199397 1.730613 0.000000 0.000000 0.000000
0.622808 1.212355 1.781320 0.000000 0.000000 0.000000
0.615488 1.211940 1.783122 0.000000 0.000000 0.000000
0.607186 1.215469 1.791898 0.000000 0.000000 0.000000
0.615281 1.211372 1.775043 0.000000 0.000000 0.000000
0.610983 1.212171 1.782618 0.000000 0.000000 0.000000
0.605801 1.220941 1.797312 0.000000 0.000000 0.000000
0.620338 1.210814 1.779053 0.000000 0.000000 0.000000
0.609384 1.214273 1.783742 0.000000 0.000000 0.000000
0.676162 1.185822 1.619478 0.000000 0.000000 0.000000
0.669704 1.186501 1.617215 0.000000 0.000000 0.000000
0.667550 1.159346 1.600671 0.000000 0.000000 0.000000
0.660224 1.186178 1.611047 0.000000 0.000000 0.000000
0.652192 1.192165 1.611963 0.000000 0.000000 0.000000
0.605476 1.222993 1.774825 0.000000 0.000000 0.000000
0.653377 1.183421 1.701769 0.000000 0.000000 0.000000
0.654501 1.179001 1.702138 0.000000 0.000000 0.000000
0.649136 1.179915 1.702624 0.000000 0.000000 0.000000
0.668611 1.168703 1.657359 0.000000 0.000000 0.000000
0.660932 1.180416 1.693647 0.000000 0.000000 0.000000
0.654882 1.177146 1.699618 0.000000 0.000000 0.000000
0.642228 1.191252 1.717518 0.000000 0.000000 0.000000
0.656447 1.175430 1.686523 0.000000 0.000000 0.000000
0.652018 1.186461 1.695056 0.000000 0.000000 0.000000
0.722757 1.177407 1.567376 0.000000 0.000000 0.000000
0.736698 1.175932 1.561946 0.000000 0.000000 0.000000
0.723467 1.169582 1.552019 0.000000 0.000000 0.000000
0.722570 1.179988 1.555105 0.000000 0.000000 0.000000
0.723933 1.174719 1.544497 0.000000 0.000000 0.000000
0.739039 1.177251 1.566730 0.000000 0.000000 0.000000
0.632393 1.206555 1.767001 0.000000 0.000000 0.000000
0.721252 1.177019 1.562003 0.000000 0.000000 0.000000
0.727684 1.166634 1.559173 0.000000 0.000000 0.000000
0.742115 1.173247 1.569278 0.000000 0.000000 0.000000
0.631814 1.204432 1.757073 0.000000 0.000000 0.000000
0.705373 1.151627 1.440001 0.000000 0.000000 0.000000
0.685535 1.146934 1.444787 0.000000 0.000000 0.000000
0.751248 1.197487 1.523708 0.000000 0.000000 0.000000
0.705497 1.134014 1.446542 0.000000 0.000000 0.000000
0.737155 1.175188 1.539231 0.000000 0.000000 0.000000
0.726109 1.182657 1.531243 0.000000 0.000000 0.000000
0.706321 1.134294 1.460090 0.000000 0.000000 0.000000
0.752237 1.160898 1.534275 0.000000 0.000000 0.000000
0.744468 1.190099 1.540617 0.000000 0.000000 0.000000
0.710586 1.136364 1.468387 0.000000 0.000000 0.000000
0.748153 1.178148 1.541271 0.000000 0.000000 0.000000
0.701103 1.140628 1.467245 0.000000 0.000000 0.000000
0.753066 1.194182 1.551381 0.000000 0.000000 0.000000
0.755363 1.177417 1.555739 0.000000 0.000000 0.000000
0.702923 1.156831 1.467379 0.000000 0.000000 0.000000
0.708175 1.136249 1.452031 0.000000 0.000000 0.000000
0.708318 1.152529 1.470279 0.000000 0.000000 0.000000
0.753409 1.186010 1.538651 0.000000 0.000000 0.000000
0.742609 1.199788 1.555253 0.000000 0.000000 0.000000
0.744931 1.194757 1.554417 0.000000 0.000000 0.000000
0.738981 1.195087 1.550708 0.000000 0.000000 0.000000
0.754165 1.166991 1.527161 0.000000 0.000000 0.000000
0.755661 1.179316 1.521604 0.000000 0.000000 0.000000
0.749977 1.174477 1.532187 0.000000 0.000000 0.000000
0.693488 1.139132 1.452082 0.000000 0.000000 0.000000
0.754192 1.174004 1.550884 0.000000 0.000000 0.000000
0.751319 1.163897 1.543230 0.000000 0.000000 0.000000
0.727973 1.192138 1.537588 0.000000 0.000000 0.000000
0.736148 1.188170 1.543721 0.000000 0.000000 0.000000
0.756341 1.185880 1.549951 0.000000 0.000000 0.000000
0.758766 1.190959 1.555226 0.000000 0.000000 0.000000
0.739943 1.173970 1.545935 0.000000 0.000000 0.000000
0.703420 1.143137 1.450694 0.000000 0.000000 0.000000
