ply
format ascii 1.0
comment VCGLIB generated
obj_info Generated by SPFormer!
element vertex 830
property float x
property float y
property float z
property float nx
property float ny
property float nz
end_header
0.079709 0.958507 2.802779 0.000000 0.000000 0.000000
-0.063609 0.988580 2.852706 0.000000 0.000000 0.000000
-0.110587 0.976395 2.854586 0.000000 0.000000 0.000000
-0.000394 0.948812 2.822753 0.000000 0.000000 0.000000
-0.098937 0.976197 2.851793 0.000000 0.000000 0.000000
-0.029021 0.968728 2.846558 0.000000 0.000000 0.000000
-0.043028 0.969674 2.853060 0.000000 0.000000 0.000000
0.008852 0.958871 2.828033 0.000000 0.000000 0.000000
0.007751 0.960035 2.820380 0.000000 0.000000 0.000000
-0.103069 0.989210 2.840484 0.000000 0.000000 0.000000
0.026861 0.972072 2.813901 0.000000 0.000000 0.000000
0.000710 0.955523 2.821543 0.000000 0.000000 0.000000
-0.031729 0.950922 2.836556 0.000000 0.000000 0.000000
-0.086241 0.976427 2.836932 0.000000 0.000000 0.000000
-0.075197 0.979277 2.857860 0.000000 0.000000 0.000000
-0.069984 0.981379 2.832616 0.000000 0.000000 0.000000
-0.081110 0.979887 2.836828 0.000000 0.000000 0.000000
-0.039395 0.972121 2.830505 0.000000 0.000000 0.000000
0.024552 0.962021 2.839461 0.000000 0.000000 0.000000
0.050007 0.951605 2.813381 0.000000 0.000000 0.000000
-0.076256 0.980123 2.834432 0.000000 0.000000 0.000000
-0.053063 1.004306 2.834352 0.000000 0.000000 0.000000
-0.115740 0.998887 2.834176 0.000000 0.000000 0.000000
-0.017586 0.951322 2.829018 0.000000 0.000000 0.000000
-0.001843 0.983480 2.828490 0.000000 0.000000 0.000000
-0.117571 0.990659 2.840923 0.000000 0.000000 0.000000
-0.057814 1.005086 2.825067 0.000000 0.000000 0.000000
-0.072448 0.986364 2.850912 0.000000 0.000000 0.000000
-0.107102 0.996489 2.849188 0.000000 0.000000 0.000000
0.060378 0.954857 2.816484 0.000000 0.000000 0.000000
-0.090051 1.011060 2.843428 0.000000 0.000000 0.000000
-0.040901 0.986408 2.840804 0.000000 0.000000 0.000000
-0.109678 0.982390 2.843157 0.000000 0.000000 0.000000
-0.010978 0.965928 2.828835 0.000000 0.000000 0.000000
-0.004083 0.978476 2.815679 0.000000 0.000000 0.000000
-0.114165 0.998126 2.831976 0.000000 0.000000 0.000000
-0.037118 0.958373 2.836208 0.000000 0.000000 0.000000
-0.025090 0.954102 2.831200 0.000000 0.000000 0.000000
0.004593 0.974799 2.812769 0.000000 0.000000 0.000000
-0.087039 0.997143 2.831691 0.000000 0.000000 0.000000
0.052111 0.967125 2.803418 0.000000 0.000000 0.000000
-0.016111 0.952708 2.827501 0.000000 0.000000 0.000000
-0.103005 1.008957 2.831779 0.000000 0.000000 0.000000
0.026275 0.975181 2.808478 0.000000 0.000000 0.000000
-0.025648 0.971140 2.823700 0.000000 0.000000 0.000000
-0.046804 0.971725 2.834207 0.000000 0.000000 0.000000
-0.121253 0.985432 2.845318 0.000000 0.000000 0.000000
0.066724 0.958491 2.810838 0.000000 0.000000 0.000000
-0.003269 0.950635 2.826062 0.000000 0.000000 0.000000
-0.077973 0.954525 2.842901 0.000000 0.000000 0.000000
0.045983 0.960235 2.817883 0.000000 0.000000 0.000000
0.049677 0.964297 2.809418 0.000000 0.000000 0.000000
-0.081057 0.951722 2.852028 0.000000 0.000000 0.000000
-0.098380 0.988779 2.820988 0.000000 0.000000 0.000000
-0.121587 0.978498 2.853942 0.000000 0.000000 0.000000
0.010036 0.954765 2.822787 0.000000 0.000000 0.000000
-0.114007 1.002991 2.835569 0.000000 0.000000 0.000000
-0.119904 1.004961 2.834894 0.000000 0.000000 0.000000
-0.112411 0.967148 2.859297 0.000000 0.000000 0.000000
-0.074716 0.996661 2.859282 0.000000 0.000000 0.000000
-0.013442 0.947913 2.838362 0.000000 0.000000 0.000000
-0.078118 0.977485 2.846460 0.000000 0.000000 0.000000
-0.057977 0.974463 2.838797 0.000000 0.000000 0.000000
-0.061751 0.973036 2.845275 0.000000 0.000000 0.000000
-0.078698 1.001954 2.838789 0.000000 0.000000 0.000000
0.034883 0.949856 2.816465 0.000000 0.000000 0.000000
-0.105269 0.971846 2.847934 0.000000 0.000000 0.000000
-0.043815 0.957343 2.847912 0.000000 0.000000 0.000000
-0.036113 0.983161 2.829593 0.000000 0.000000 0.000000
-0.061974 0.991005 2.846709 0.000000 0.000000 0.000000
0.027546 0.976975 2.827541 0.000000 0.000000 0.000000
-0.032107 0.953645 2.837691 0.000000 0.000000 0.000000
-0.114369 0.988681 2.846511 0.000000 0.000000 0.000000
-0.113725 0.994121 2.848758 0.000000 0.000000 0.000000
-0.103385 0.966196 2.850554 0.000000 0.000000 0.000000
0.073417 0.973358 2.823135 0.000000 0.000000 0.000000
-0.026198 0.961679 2.827627 0.000000 0.000000 0.000000
-0.107441 0.974926 2.847381 0.000000 0.000000 0.000000
-0.110254 0.995754 2.830429 0.000000 0.000000 0.000000
-0.021606 0.975064 2.837720 0.000000 0.000000 0.000000
0.002421 0.941300 2.828597 0.000000 0.000000 0.000000
-0.022438 0.975840 2.841868 0.000000 0.000000 0.000000
-0.106621 0.991157 2.827827 0.000000 0.000000 0.000000
-0.028036 0.984287 2.824091 0.000000 0.000000 0.000000
-0.091372 0.980468 2.835276 0.000000 0.000000 0.000000
0.025696 0.965074 2.812265 0.000000 0.000000 0.000000
-0.077038 1.002114 2.858895 0.000000 0.000000 0.000000
-0.105342 0.995711 2.830677 0.000000 0.000000 0.000000
-0.117947 0.997126 2.831348 0.000000 0.000000 0.000000
-0.035263 0.948382 2.854171 0.000000 0.000000 0.000000
-0.118834 0.990640 2.855523 0.000000 0.000000 0.000000
-0.121627 1.003220 2.827415 0.000000 0.000000 0.000000
0.066262 0.975691 2.815946 0.000000 0.000000 0.000000
0.011326 0.944985 2.829590 0.000000 0.000000 0.000000
0.026182 0.949169 2.827502 0.000000 0.000000 0.000000
-0.079311 0.996650 2.837099 0.000000 0.000000 0.000000
0.023542 0.962179 2.819248 0.000000 0.000000 0.000000
-0.017529 0.947896 2.835022 0.000000 0.000000 0.000000
-0.083628 0.988550 2.856326 0.000000 0.000000 0.000000
0.016241 0.956942 2.813500 0.000000 0.000000 0.000000
-0.035656 0.956060 2.835575 0.000000 0.000000 0.000000
-0.113803 1.005026 2.832058 0.000000 0.000000 0.000000
-0.049377 0.960359 2.836256 0.000000 0.000000 0.000000
0.038478 0.976042 2.809985 0.000000 0.000000 0.000000
-0.045118 0.988206 2.830997 0.000000 0.000000 0.000000
-0.072292 0.974792 2.854664 0.000000 0.000000 0.000000
-0.022711 0.987721 2.838556 0.000000 0.000000 0.000000
0.002853 0.941421 2.847733 0.000000 0.000000 0.000000
-0.066395 0.967284 2.836736 0.000000 0.000000 0.000000
-0.080628 0.957142 2.856526 0.000000 0.000000 0.000000
-0.113369 0.968665 2.846747 0.000000 0.000000 0.000000
-0.093438 0.976097 2.851524 0.000000 0.000000 0.000000
-0.067768 0.980985 2.833202 0.000000 0.000000 0.000000
-0.117059 0.998559 2.836085 0.000000 0.000000 0.000000
-0.084131 0.966540 2.849844 0.000000 0.000000 0.000000
-0.111580 0.983861 2.852902 0.000000 0.000000 0.000000
-0.088001 0.989170 2.829830 0.000000 0.000000 0.000000
-0.093867 1.001028 2.822977 0.000000 0.000000 0.000000
-0.090489 0.973139 2.848882 0.000000 0.000000 0.000000
0.011942 0.982258 2.820623 0.000000 0.000000 0.000000
-0.060182 0.964864 2.840645 0.000000 0.000000 0.000000
-0.015656 0.974646 2.848070 0.000000 0.000000 0.000000
-0.042602 0.950054 2.860485 0.000000 0.000000 0.000000
-0.092263 0.974733 2.835808 0.000000 0.000000 0.000000
-0.066600 0.980306 2.833050 0.000000 0.000000 0.000000
-0.061022 0.966116 2.841540 0.000000 0.000000 0.000000
-0.109679 0.981809 2.838650 0.000000 0.000000 0.000000
-0.017799 0.940640 2.843328 0.000000 0.000000 0.000000
-0.114504 0.989161 2.848298 0.000000 0.000000 0.000000
0.003702 0.963347 2.816562 0.000000 0.000000 0.000000
-0.080709 1.001147 2.841754 0.000000 0.000000 0.000000
0.062053 0.972247 2.802670 0.000000 0.000000 0.000000
-0.023502 0.936183 2.853654 0.000000 0.000000 0.000000
-0.006968 0.982426 2.819028 0.000000 0.000000 0.000000
-0.039838 0.956013 2.846543 0.000000 0.000000 0.000000
0.053027 0.959367 2.804627 0.000000 0.000000 0.000000
-0.002295 0.941211 2.836864 0.000000 0.000000 0.000000
0.004122 0.965598 2.816383 0.000000 0.000000 0.000000
0.002578 0.934812 2.838229 0.000000 0.000000 0.000000
-0.019398 0.955825 2.818863 0.000000 0.000000 0.000000
-0.001175 0.970145 2.839306 0.000000 0.000000 0.000000
0.014630 0.935430 2.828638 0.000000 0.000000 0.000000
-0.010992 0.946923 2.832414 0.000000 0.000000 0.000000
0.005169 0.963517 2.817204 0.000000 0.000000 0.000000
0.052008 0.951183 2.826185 0.000000 0.000000 0.000000
-0.113172 0.980447 2.845400 0.000000 0.000000 0.000000
-0.053378 0.995241 2.840689 0.000000 0.000000 0.000000
0.028621 0.959881 2.820988 0.000000 0.000000 0.000000
0.069947 0.968234 2.811368 0.000000 0.000000 0.000000
0.072121 0.973500 2.806445 0.000000 0.000000 0.000000
0.061290 0.966560 2.802913 0.000000 0.000000 0.000000
-0.116594 0.976788 2.853659 0.000000 0.000000 0.000000
-0.104816 0.975642 2.843822 0.000000 0.000000 0.000000
-0.118466 0.995069 2.833364 0.000000 0.000000 0.000000
-0.074363 0.970231 2.844250 0.000000 0.000000 0.000000
-0.039984 0.979069 2.844331 0.000000 0.000000 0.000000
-0.048504 0.961801 2.840603 0.000000 0.000000 0.000000
-0.088785 0.989116 2.872308 0.000000 0.000000 0.000000
-0.035641 0.946728 2.849342 0.000000 0.000000 0.000000
-0.095321 0.972977 2.849567 0.000000 0.000000 0.000000
-0.053693 0.961365 2.849300 0.000000 0.000000 0.000000
-0.111748 0.983100 2.846779 0.000000 0.000000 0.000000
-0.109567 0.974731 2.852503 0.000000 0.000000 0.000000
-0.066572 0.957003 2.862850 0.000000 0.000000 0.000000
0.054049 0.955699 2.820698 0.000000 0.000000 0.000000
-0.106527 1.011396 2.830996 0.000000 0.000000 0.000000
-0.094311 0.971038 2.841520 0.000000 0.000000 0.000000
0.007159 0.954938 2.820640 0.000000 0.000000 0.000000
-0.036550 0.971390 2.851336 0.000000 0.000000 0.000000
-0.064470 1.004047 2.835438 0.000000 0.000000 0.000000
-0.101242 0.976246 2.861707 0.000000 0.000000 0.000000
-0.073424 0.976248 2.845488 0.000000 0.000000 0.000000
-0.003499 0.946299 2.827451 0.000000 0.000000 0.000000
-0.047679 0.994217 2.831027 0.000000 0.000000 0.000000
-0.121141 1.003009 2.832275 0.000000 0.000000 0.000000
0.017233 0.956541 2.816324 0.000000 0.000000 0.000000
-0.053633 0.995551 2.831263 0.000000 0.000000 0.000000
-0.065986 0.992817 2.836878 0.000000 0.000000 0.000000
0.052596 0.975106 2.808337 0.000000 0.000000 0.000000
-0.018998 0.985106 2.831656 0.000000 0.000000 0.000000
0.063783 0.965479 2.817052 0.000000 0.000000 0.000000
-0.101480 0.978707 2.849925 0.000000 0.000000 0.000000
0.054444 0.974441 2.805431 0.000000 0.000000 0.000000
-0.083666 0.972742 2.834112 0.000000 0.000000 0.000000
0.062684 0.957135 2.805433 0.000000 0.000000 0.000000
-0.022954 0.942142 2.849392 0.000000 0.000000 0.000000
-0.099425 0.974800 2.860255 0.000000 0.000000 0.000000
0.047930 0.972706 2.803402 0.000000 0.000000 0.000000
-0.083179 0.970061 2.866729 0.000000 0.000000 0.000000
0.054151 0.952030 2.820410 0.000000 0.000000 0.000000
-0.113475 1.001263 2.838813 0.000000 0.000000 0.000000
-0.124575 1.007526 2.837568 0.000000 0.000000 0.000000
-0.128528 1.001993 2.830973 0.000000 0.000000 0.000000
-0.086339 1.004253 2.843216 0.000000 0.000000 0.000000
0.009064 0.939555 2.842278 0.000000 0.000000 0.000000
-0.101547 0.966904 2.853677 0.000000 0.000000 0.000000
-0.078608 0.966794 2.839285 0.000000 0.000000 0.000000
-0.086178 0.957193 2.856684 0.000000 0.000000 0.000000
-0.098787 0.966901 2.848542 0.000000 0.000000 0.000000
-0.079587 0.982093 2.821900 0.000000 0.000000 0.000000
-0.055854 0.967527 2.834994 0.000000 0.000000 0.000000
-0.095268 0.973931 2.841956 0.000000 0.000000 0.000000
-0.101326 0.973068 2.837221 0.000000 0.000000 0.000000
0.020788 0.980633 2.815541 0.000000 0.000000 0.000000
-0.096871 0.988705 2.829855 0.000000 0.000000 0.000000
0.030510 0.947049 2.836483 0.000000 0.000000 0.000000
0.027143 0.942693 2.840255 0.000000 0.000000 0.000000
0.030161 0.977954 2.809552 0.000000 0.000000 0.000000
-0.087928 0.963785 2.834531 0.000000 0.000000 0.000000
-0.073417 0.997609 2.832160 0.000000 0.000000 0.000000
-0.100699 0.963627 2.843210 0.000000 0.000000 0.000000
0.043927 0.967287 2.811192 0.000000 0.000000 0.000000
-0.062148 0.999164 2.832866 0.000000 0.000000 0.000000
-0.010094 0.976615 2.830420 0.000000 0.000000 0.000000
-0.113085 0.981186 2.850039 0.000000 0.000000 0.000000
-0.074804 0.967008 2.835577 0.000000 0.000000 0.000000
-0.072239 0.963990 2.841896 0.000000 0.000000 0.000000
-0.101957 0.979280 2.837175 0.000000 0.000000 0.000000
-0.080069 0.990175 2.841749 0.000000 0.000000 0.000000
-0.091305 0.961412 2.860696 0.000000 0.000000 0.000000
0.028572 0.945145 2.848058 0.000000 0.000000 0.000000
-0.079830 1.004866 2.832545 0.000000 0.000000 0.000000
-0.074613 0.972625 2.854746 0.000000 0.000000 0.000000
0.022431 0.939089 2.837011 0.000000 0.000000 0.000000
0.063425 0.951279 2.813560 0.000000 0.000000 0.000000
-0.046455 0.960250 2.860499 0.000000 0.000000 0.000000
-0.063768 0.955712 2.866645 0.000000 0.000000 0.000000
-0.060011 0.958762 2.858288 0.000000 0.000000 0.000000
0.051090 0.948782 2.817711 0.000000 0.000000 0.000000
-0.021440 0.979975 2.829455 0.000000 0.000000 0.000000
-0.079989 0.956556 2.863633 0.000000 0.000000 0.000000
-0.093847 0.962758 2.862586 0.000000 0.000000 0.000000
-0.075075 0.953467 2.859897 0.000000 0.000000 0.000000
-0.038604 0.949800 2.860307 0.000000 0.000000 0.000000
-0.057365 0.955851 2.862516 0.000000 0.000000 0.000000
-0.089806 0.961186 2.864738 0.000000 0.000000 0.000000
-0.034986 0.951346 2.860594 0.000000 0.000000 0.000000
-0.101065 0.983961 2.832266 0.000000 0.000000 0.000000
-0.106351 0.972375 2.850158 0.000000 0.000000 0.000000
-0.104010 0.970526 2.859122 0.000000 0.000000 0.000000
-0.054597 0.952340 2.849333 0.000000 0.000000 0.000000
-0.069462 0.952626 2.856422 0.000000 0.000000 0.000000
-0.109637 0.972283 2.851010 0.000000 0.000000 0.000000
-0.115420 1.006448 2.839714 0.000000 0.000000 0.000000
-0.095716 1.003456 2.835447 0.000000 0.000000 0.000000
-0.083499 0.967239 2.838898 0.000000 0.000000 0.000000
-0.110650 0.983734 2.855239 0.000000 0.000000 0.000000
-0.056769 0.952733 2.852696 0.000000 0.000000 0.000000
-0.047779 0.947634 2.850518 0.000000 0.000000 0.000000
-0.116868 0.992094 2.841273 0.000000 0.000000 0.000000
-0.113926 1.008744 2.834597 0.000000 0.000000 0.000000
-0.097170 1.006666 2.839359 0.000000 0.000000 0.000000
0.038655 0.983992 2.809183 0.000000 0.000000 0.000000
0.005698 0.975793 2.814423 0.000000 0.000000 0.000000
-0.018893 0.979469 2.821035 0.000000 0.000000 0.000000
-0.105198 0.963796 2.863974 0.000000 0.000000 0.000000
-0.086353 0.957707 2.860731 0.000000 0.000000 0.000000
-0.100271 0.970649 2.862744 0.000000 0.000000 0.000000
-0.094761 0.956160 2.864277 0.000000 0.000000 0.000000
-0.105130 0.980905 2.847044 0.000000 0.000000 0.000000
-0.091532 0.959295 2.856607 0.000000 0.000000 0.000000
-0.103034 0.966689 2.858464 0.000000 0.000000 0.000000
-0.092785 0.970536 2.863204 0.000000 0.000000 0.000000
-0.112785 0.985058 2.843800 0.000000 0.000000 0.000000
-0.041160 0.960043 2.830474 0.000000 0.000000 0.000000
-0.048794 0.953446 2.845654 0.000000 0.000000 0.000000
-0.010666 0.946510 2.831087 0.000000 0.000000 0.000000
-0.062284 0.953322 2.849445 0.000000 0.000000 0.000000
-0.054722 0.961522 2.838359 0.000000 0.000000 0.000000
-0.028106 0.965445 2.833851 0.000000 0.000000 0.000000
-0.067174 0.969540 2.835835 0.000000 0.000000 0.000000
-0.035154 0.947108 2.848604 0.000000 0.000000 0.000000
-0.007772 0.947368 2.827853 0.000000 0.000000 0.000000
-0.102358 0.986599 2.830647 0.000000 0.000000 0.000000
-0.074734 0.955557 2.851617 0.000000 0.000000 0.000000
-0.117812 1.003171 2.829073 0.000000 0.000000 0.000000
0.078945 0.978267 2.834849 0.000000 0.000000 0.000000
-0.070663 0.954543 2.853227 0.000000 0.000000 0.000000
0.025508 0.944062 2.839814 0.000000 0.000000 0.000000
0.000031 0.960854 2.844058 0.000000 0.000000 0.000000
0.014702 0.958957 2.844988 0.000000 0.000000 0.000000
-0.029751 0.948903 2.857916 0.000000 0.000000 0.000000
0.016051 0.953412 2.846523 0.000000 0.000000 0.000000
-0.102291 1.005902 2.845312 0.000000 0.000000 0.000000
-0.085658 1.004435 2.843231 0.000000 0.000000 0.000000
-0.084015 0.982803 2.859889 0.000000 0.000000 0.000000
-0.098173 1.007932 2.840601 0.000000 0.000000 0.000000
-0.075810 1.009772 2.841471 0.000000 0.000000 0.000000
-0.072941 0.979583 2.858490 0.000000 0.000000 0.000000
0.074388 0.972210 2.800259 0.000000 0.000000 0.000000
0.071890 0.958658 2.815314 0.000000 0.000000 0.000000
0.009214 0.940748 2.846402 0.000000 0.000000 0.000000
0.036079 0.967559 2.826885 0.000000 0.000000 0.000000
0.037511 0.975075 2.817054 0.000000 0.000000 0.000000
-0.067334 0.964787 2.864587 0.000000 0.000000 0.000000
-0.054000 0.952551 2.847824 0.000000 0.000000 0.000000
-0.077140 0.966044 2.860937 0.000000 0.000000 0.000000
0.007573 0.980343 2.812686 0.000000 0.000000 0.000000
-0.017284 0.947806 2.835453 0.000000 0.000000 0.000000
-0.069840 0.962154 2.865266 0.000000 0.000000 0.000000
-0.110133 1.004384 2.845568 0.000000 0.000000 0.000000
-0.056180 0.964059 2.857780 0.000000 0.000000 0.000000
-0.112638 0.989165 2.851471 0.000000 0.000000 0.000000
-0.114377 1.001488 2.842846 0.000000 0.000000 0.000000
-0.113595 1.006137 2.835812 0.000000 0.000000 0.000000
-0.069494 0.955018 2.864094 0.000000 0.000000 0.000000
-0.060658 0.954905 2.863264 0.000000 0.000000 0.000000
0.049217 0.956432 2.814376 0.000000 0.000000 0.000000
-0.048012 0.952728 2.860690 0.000000 0.000000 0.000000
-0.113408 1.005617 2.833112 0.000000 0.000000 0.000000
-0.042573 0.952444 2.860757 0.000000 0.000000 0.000000
-0.072778 0.956218 2.861631 0.000000 0.000000 0.000000
-0.081102 0.959896 2.865929 0.000000 0.000000 0.000000
-0.085891 0.957811 2.871406 0.000000 0.000000 0.000000
-0.037386 0.948353 2.857554 0.000000 0.000000 0.000000
-0.053308 0.977765 2.827765 0.000000 0.000000 0.000000
0.045239 0.956458 2.811286 0.000000 0.000000 0.000000
-0.020018 0.970103 2.822110 0.000000 0.000000 0.000000
-0.024438 0.979833 2.814021 0.000000 0.000000 0.000000
-0.035415 0.961727 2.828528 0.000000 0.000000 0.000000
-0.036410 0.965489 2.831630 0.000000 0.000000 0.000000
-0.057501 0.989661 2.827599 0.000000 0.000000 0.000000
-0.046409 0.988116 2.826582 0.000000 0.000000 0.000000
0.062706 0.975468 2.806766 0.000000 0.000000 0.000000
0.079661 0.959831 2.832550 0.000000 0.000000 0.000000
0.011487 0.975602 2.818179 0.000000 0.000000 0.000000
0.015959 0.971651 2.837139 0.000000 0.000000 0.000000
-0.004992 0.979821 2.814839 0.000000 0.000000 0.000000
-0.008188 0.975827 2.816476 0.000000 0.000000 0.000000
0.009447 0.975585 2.828082 0.000000 0.000000 0.000000
-0.015151 0.986161 2.835504 0.000000 0.000000 0.000000
-0.004292 0.980149 2.836706 0.000000 0.000000 0.000000
-0.004979 0.986474 2.831616 0.000000 0.000000 0.000000
0.004967 0.969892 2.814134 0.000000 0.000000 0.000000
-0.010094 0.985887 2.837000 0.000000 0.000000 0.000000
-0.001633 0.982000 2.824931 0.000000 0.000000 0.000000
-0.109547 1.010988 2.841281 0.000000 0.000000 0.000000
-0.089523 0.969446 2.866058 0.000000 0.000000 0.000000
-0.109764 1.009362 2.839561 0.000000 0.000000 0.000000
-0.111023 0.976831 2.856419 0.000000 0.000000 0.000000
-0.100791 0.991430 2.828436 0.000000 0.000000 0.000000
-0.116446 0.988775 2.840432 0.000000 0.000000 0.000000
0.045966 0.964692 2.804589 0.000000 0.000000 0.000000
-0.112482 0.981612 2.841373 0.000000 0.000000 0.000000
-0.114214 0.983146 2.839250 0.000000 0.000000 0.000000
-0.114853 0.998558 2.829233 0.000000 0.000000 0.000000
-0.112211 1.003344 2.826393 0.000000 0.000000 0.000000
-0.114072 1.000906 2.829836 0.000000 0.000000 0.000000
0.037107 0.954407 2.811754 0.000000 0.000000 0.000000
-0.112969 0.998788 2.827961 0.000000 0.000000 0.000000
-0.112846 0.982443 2.841749 0.000000 0.000000 0.000000
-0.108709 0.994657 2.827918 0.000000 0.000000 0.000000
-0.108091 0.987144 2.832694 0.000000 0.000000 0.000000
-0.105979 0.998796 2.826439 0.000000 0.000000 0.000000
0.015968 0.945462 2.824127 0.000000 0.000000 0.000000
-0.072285 1.000731 2.833557 0.000000 0.000000 0.000000
0.028674 0.957996 2.806858 0.000000 0.000000 0.000000
0.010692 0.953286 2.820831 0.000000 0.000000 0.000000
-0.063210 0.998954 2.833184 0.000000 0.000000 0.000000
-0.105286 1.010175 2.828673 0.000000 0.000000 0.000000
-0.108029 1.004821 2.822806 0.000000 0.000000 0.000000
-0.115216 1.004410 2.827874 0.000000 0.000000 0.000000
-0.110231 1.003322 2.829155 0.000000 0.000000 0.000000
-0.096581 1.004585 2.831069 0.000000 0.000000 0.000000
-0.109240 0.997709 2.826783 0.000000 0.000000 0.000000
0.009576 0.942487 2.852352 0.000000 0.000000 0.000000
-0.100328 1.009243 2.835219 0.000000 0.000000 0.000000
-0.097499 0.999278 2.826139 0.000000 0.000000 0.000000
-0.006220 0.956972 2.826411 0.000000 0.000000 0.000000
0.014829 0.953799 2.809988 0.000000 0.000000 0.000000
-0.021342 0.978357 2.836180 0.000000 0.000000 0.000000
0.030556 0.962003 2.808637 0.000000 0.000000 0.000000
0.031166 0.956884 2.819865 0.000000 0.000000 0.000000
-0.000179 0.948521 2.814418 0.000000 0.000000 0.000000
0.023671 0.964168 2.811932 0.000000 0.000000 0.000000
-0.008214 0.966878 2.807895 0.000000 0.000000 0.000000
-0.026393 0.987203 2.825899 0.000000 0.000000 0.000000
0.027644 0.972264 2.805151 0.000000 0.000000 0.000000
-0.107089 1.010002 2.840581 0.000000 0.000000 0.000000
-0.085808 0.979851 2.864918 0.000000 0.000000 0.000000
-0.102067 0.981269 2.855902 0.000000 0.000000 0.000000
-0.049738 0.955988 2.864998 0.000000 0.000000 0.000000
-0.044686 0.952563 2.862968 0.000000 0.000000 0.000000
0.055373 0.949205 2.814481 0.000000 0.000000 0.000000
0.060440 0.961889 2.804205 0.000000 0.000000 0.000000
0.009756 0.992507 2.822775 0.000000 0.000000 0.000000
-0.007109 0.962894 2.819342 0.000000 0.000000 0.000000
0.009630 0.986815 2.806380 0.000000 0.000000 0.000000
-0.020415 0.993959 2.835462 0.000000 0.000000 0.000000
-0.009876 0.972137 2.816433 0.000000 0.000000 0.000000
0.011984 0.979288 2.835763 0.000000 0.000000 0.000000
0.077182 0.986430 2.836366 0.000000 0.000000 0.000000
0.024005 0.975760 2.826759 0.000000 0.000000 0.000000
0.076144 0.957431 2.809757 0.000000 0.000000 0.000000
0.066574 0.953024 2.808738 0.000000 0.000000 0.000000
0.067955 0.949733 2.809675 0.000000 0.000000 0.000000
0.063557 0.959607 2.801362 0.000000 0.000000 0.000000
0.074700 0.975462 2.830166 0.000000 0.000000 0.000000
0.002672 0.980408 2.808695 0.000000 0.000000 0.000000
0.055678 0.953253 2.822614 0.000000 0.000000 0.000000
0.063040 0.953311 2.805917 0.000000 0.000000 0.000000
0.070952 0.956130 2.806337 0.000000 0.000000 0.000000
0.071657 0.978437 2.828727 0.000000 0.000000 0.000000
0.007573 0.973131 2.809753 0.000000 0.000000 0.000000
-0.090390 1.005068 2.833623 0.000000 0.000000 0.000000
-0.000821 0.939391 2.845766 0.000000 0.000000 0.000000
-0.103221 1.004399 2.827649 0.000000 0.000000 0.000000
-0.088215 1.005623 2.829494 0.000000 0.000000 0.000000
0.048767 0.978287 2.812339 0.000000 0.000000 0.000000
-0.095708 1.010521 2.830175 0.000000 0.000000 0.000000
-0.015246 0.940434 2.850619 0.000000 0.000000 0.000000
-0.104683 1.005748 2.828429 0.000000 0.000000 0.000000
-0.066920 0.991847 2.815300 0.000000 0.000000 0.000000
0.044849 0.959909 2.802388 0.000000 0.000000 0.000000
0.042285 0.957392 2.805111 0.000000 0.000000 0.000000
-0.091013 0.963534 2.850049 0.000000 0.000000 0.000000
0.013940 0.980546 2.816677 0.000000 0.000000 0.000000
-0.074493 0.956309 2.847867 0.000000 0.000000 0.000000
-0.045393 0.973226 2.831366 0.000000 0.000000 0.000000
-0.093824 0.998867 2.852233 0.000000 0.000000 0.000000
0.009092 0.983641 2.822570 0.000000 0.000000 0.000000
-0.104259 0.986490 2.856723 0.000000 0.000000 0.000000
-0.071685 0.971131 2.839405 0.000000 0.000000 0.000000
-0.092791 1.004881 2.851320 0.000000 0.000000 0.000000
-0.004352 0.982604 2.824963 0.000000 0.000000 0.000000
-0.008653 0.948118 2.831489 0.000000 0.000000 0.000000
-0.110270 0.987041 2.852894 0.000000 0.000000 0.000000
0.031147 0.948466 2.839092 0.000000 0.000000 0.000000
0.052386 0.951339 2.824591 0.000000 0.000000 0.000000
0.017996 0.949981 2.839470 0.000000 0.000000 0.000000
-0.047915 0.988061 2.833499 0.000000 0.000000 0.000000
-0.076394 0.963459 2.867536 0.000000 0.000000 0.000000
-0.053291 0.984720 2.830165 0.000000 0.000000 0.000000
-0.085792 0.979571 2.837264 0.000000 0.000000 0.000000
-0.075443 0.960234 2.863548 0.000000 0.000000 0.000000
-0.021747 0.947751 2.839488 0.000000 0.000000 0.000000
-0.043333 0.946718 2.855425 0.000000 0.000000 0.000000
-0.070723 0.969523 2.841353 0.000000 0.000000 0.000000
-0.047932 0.949298 2.852147 0.000000 0.000000 0.000000
-0.044803 0.952500 2.853719 0.000000 0.000000 0.000000
-0.035577 0.949613 2.845595 0.000000 0.000000 0.000000
-0.063128 0.951295 2.862428 0.000000 0.000000 0.000000
-0.029088 0.945442 2.848059 0.000000 0.000000 0.000000
-0.050943 0.952713 2.857744 0.000000 0.000000 0.000000
-0.015153 0.971945 2.845370 0.000000 0.000000 0.000000
-0.031616 0.990497 2.826312 0.000000 0.000000 0.000000
-0.125152 1.004066 2.833442 0.000000 0.000000 0.000000
0.046494 0.961561 2.803473 0.000000 0.000000 0.000000
-0.036077 0.954975 2.853695 0.000000 0.000000 0.000000
-0.013045 0.954645 2.829630 0.000000 0.000000 0.000000
-0.052343 0.950753 2.860315 0.000000 0.000000 0.000000
-0.019125 0.942416 2.855427 0.000000 0.000000 0.000000
-0.042261 0.953052 2.862167 0.000000 0.000000 0.000000
0.002758 0.942815 2.859305 0.000000 0.000000 0.000000
-0.023322 0.950450 2.835426 0.000000 0.000000 0.000000
0.004098 0.938330 2.840724 0.000000 0.000000 0.000000
-0.036695 0.946029 2.857702 0.000000 0.000000 0.000000
-0.016048 0.947998 2.856049 0.000000 0.000000 0.000000
-0.005954 0.945917 2.860335 0.000000 0.000000 0.000000
-0.004827 0.940057 2.849601 0.000000 0.000000 0.000000
-0.034552 0.956927 2.855869 0.000000 0.000000 0.000000
-0.039306 0.949584 2.856845 0.000000 0.000000 0.000000
-0.030864 0.971542 2.825133 0.000000 0.000000 0.000000
-0.045704 0.984754 2.830622 0.000000 0.000000 0.000000
-0.029353 0.980528 2.822997 0.000000 0.000000 0.000000
-0.028570 0.983010 2.822739 0.000000 0.000000 0.000000
-0.020597 0.963513 2.820995 0.000000 0.000000 0.000000
-0.018285 0.976835 2.819092 0.000000 0.000000 0.000000
-0.028110 0.978850 2.818215 0.000000 0.000000 0.000000
-0.015228 0.979673 2.819304 0.000000 0.000000 0.000000
-0.054986 0.968174 2.860812 0.000000 0.000000 0.000000
-0.000021 0.950918 2.850935 0.000000 0.000000 0.000000
0.019441 0.943493 2.842678 0.000000 0.000000 0.000000
0.003108 0.964071 2.849319 0.000000 0.000000 0.000000
-0.019098 0.950394 2.851612 0.000000 0.000000 0.000000
-0.009262 0.950974 2.853612 0.000000 0.000000 0.000000
-0.005574 0.949612 2.841957 0.000000 0.000000 0.000000
-0.045211 0.972846 2.857646 0.000000 0.000000 0.000000
-0.025164 0.947246 2.849800 0.000000 0.000000 0.000000
-0.016346 0.954825 2.842804 0.000000 0.000000 0.000000
0.004653 0.959206 2.851540 0.000000 0.000000 0.000000
-0.019559 0.946674 2.852000 0.000000 0.000000 0.000000
0.005196 0.952292 2.848207 0.000000 0.000000 0.000000
0.004528 0.950023 2.843900 0.000000 0.000000 0.000000
0.001474 0.951536 2.844536 0.000000 0.000000 0.000000
-0.123030 1.005097 2.835240 0.000000 0.000000 0.000000
-0.123613 1.005482 2.834045 0.000000 0.000000 0.000000
-0.073387 0.980258 2.833831 0.000000 0.000000 0.000000
-0.077532 0.971750 2.840199 0.000000 0.000000 0.000000
0.040651 0.950262 2.818521 0.000000 0.000000 0.000000
-0.086659 0.978588 2.833898 0.000000 0.000000 0.000000
0.040138 0.974541 2.808857 0.000000 0.000000 0.000000
-0.052542 0.986415 2.827672 0.000000 0.000000 0.000000
0.010776 0.939834 2.841480 0.000000 0.000000 0.000000
-0.079230 0.998852 2.817101 0.000000 0.000000 0.000000
0.014259 0.940390 2.833849 0.000000 0.000000 0.000000
-0.010845 0.941372 2.853826 0.000000 0.000000 0.000000
-0.024907 0.947820 2.859214 0.000000 0.000000 0.000000
0.026258 0.946822 2.822015 0.000000 0.000000 0.000000
-0.095736 0.981213 2.834649 0.000000 0.000000 0.000000
-0.070602 0.978393 2.831169 0.000000 0.000000 0.000000
0.000055 0.952831 2.822021 0.000000 0.000000 0.000000
0.054683 0.968782 2.811155 0.000000 0.000000 0.000000
-0.073167 0.997416 2.825822 0.000000 0.000000 0.000000
0.016679 0.937833 2.837024 0.000000 0.000000 0.000000
-0.087382 0.996417 2.819386 0.000000 0.000000 0.000000
-0.019020 0.948790 2.851225 0.000000 0.000000 0.000000
-0.019386 0.948219 2.858283 0.000000 0.000000 0.000000
-0.059173 0.994690 2.826551 0.000000 0.000000 0.000000
0.079466 0.978872 2.830095 0.000000 0.000000 0.000000
-0.073295 1.003826 2.838403 0.000000 0.000000 0.000000
-0.076036 0.997218 2.825196 0.000000 0.000000 0.000000
-0.064796 0.992426 2.829712 0.000000 0.000000 0.000000
0.042212 0.976575 2.811006 0.000000 0.000000 0.000000
-0.071639 1.002395 2.827868 0.000000 0.000000 0.000000
-0.095095 1.003394 2.839771 0.000000 0.000000 0.000000
-0.069266 0.990387 2.826250 0.000000 0.000000 0.000000
-0.084323 1.001564 2.827041 0.000000 0.000000 0.000000
0.043236 0.976854 2.809573 0.000000 0.000000 0.000000
-0.116436 0.988804 2.835788 0.000000 0.000000 0.000000
-0.114878 0.992453 2.836004 0.000000 0.000000 0.000000
-0.099143 0.997073 2.852531 0.000000 0.000000 0.000000
-0.085244 0.994759 2.853315 0.000000 0.000000 0.000000
-0.007566 0.969582 2.848454 0.000000 0.000000 0.000000
0.066419 0.954398 2.812757 0.000000 0.000000 0.000000
-0.000418 0.984643 2.827406 0.000000 0.000000 0.000000
0.037676 0.946321 2.836730 0.000000 0.000000 0.000000
-0.010581 0.975582 2.835855 0.000000 0.000000 0.000000
0.033360 0.940313 2.835222 0.000000 0.000000 0.000000
0.057003 0.951517 2.820930 0.000000 0.000000 0.000000
0.002530 0.984294 2.819493 0.000000 0.000000 0.000000
0.027228 0.939312 2.838939 0.000000 0.000000 0.000000
-0.018199 0.957417 2.853220 0.000000 0.000000 0.000000
-0.014448 0.952774 2.856369 0.000000 0.000000 0.000000
0.040739 0.945866 2.821791 0.000000 0.000000 0.000000
0.023476 0.941732 2.829374 0.000000 0.000000 0.000000
0.036123 0.947544 2.833085 0.000000 0.000000 0.000000
0.038579 0.955381 2.826391 0.000000 0.000000 0.000000
0.026706 0.941220 2.829292 0.000000 0.000000 0.000000
0.037232 0.949294 2.831381 0.000000 0.000000 0.000000
0.031994 0.941226 2.830915 0.000000 0.000000 0.000000
0.002497 0.939048 2.837261 0.000000 0.000000 0.000000
0.044964 0.944223 2.825723 0.000000 0.000000 0.000000
0.047478 0.953172 2.820527 0.000000 0.000000 0.000000
0.024953 0.938895 2.836659 0.000000 0.000000 0.000000
0.040857 0.954155 2.831476 0.000000 0.000000 0.000000
0.019571 0.945938 2.840263 0.000000 0.000000 0.000000
0.055476 0.952377 2.814508 0.000000 0.000000 0.000000
0.044985 0.945447 2.827983 0.000000 0.000000 0.000000
0.028299 0.939385 2.833203 0.000000 0.000000 0.000000
0.034746 0.943027 2.826157 0.000000 0.000000 0.000000
0.034498 0.940570 2.833399 0.000000 0.000000 0.000000
0.007218 0.974638 2.809105 0.000000 0.000000 0.000000
0.027891 0.968358 2.805676 0.000000 0.000000 0.000000
0.028487 0.974366 2.806252 0.000000 0.000000 0.000000
0.036539 0.970604 2.807240 0.000000 0.000000 0.000000
-0.208984 1.203131 3.693789 0.000000 0.000000 0.000000
-0.157476 1.199874 3.705560 0.000000 0.000000 0.000000
-0.239822 1.216779 3.666780 0.000000 0.000000 0.000000
-0.214438 1.237951 3.684619 0.000000 0.000000 0.000000
-0.233239 1.237051 3.682821 0.000000 0.000000 0.000000
-0.214513 1.238448 3.688144 0.000000 0.000000 0.000000
-0.130434 1.193961 3.689431 0.000000 0.000000 0.000000
-0.178712 1.196070 3.672557 0.000000 0.000000 0.000000
-0.201381 1.199771 3.688868 0.000000 0.000000 0.000000
-0.231109 1.223025 3.692177 0.000000 0.000000 0.000000
-0.219479 1.216094 3.693306 0.000000 0.000000 0.000000
-0.187740 1.214704 3.676676 0.000000 0.000000 0.000000
-0.221073 1.200602 3.665722 0.000000 0.000000 0.000000
-0.189050 1.187047 3.676955 0.000000 0.000000 0.000000
-0.184747 1.205571 3.704897 0.000000 0.000000 0.000000
-0.198345 1.192338 3.695054 0.000000 0.000000 0.000000
-0.221545 1.211804 3.688799 0.000000 0.000000 0.000000
-0.201996 1.217721 3.703465 0.000000 0.000000 0.000000
-0.241685 1.222576 3.668674 0.000000 0.000000 0.000000
-0.141267 1.195141 3.685179 0.000000 0.000000 0.000000
-0.171167 1.209188 3.688665 0.000000 0.000000 0.000000
-0.208968 1.186855 3.689522 0.000000 0.000000 0.000000
-0.215786 1.228496 3.677620 0.000000 0.000000 0.000000
-0.195550 1.224281 3.702266 0.000000 0.000000 0.000000
-0.184000 1.202153 3.671399 0.000000 0.000000 0.000000
-0.184310 1.195611 3.692393 0.000000 0.000000 0.000000
-0.124101 1.162558 3.662917 0.000000 0.000000 0.000000
-0.217343 1.203728 3.670283 0.000000 0.000000 0.000000
-0.151144 1.183910 3.671639 0.000000 0.000000 0.000000
-0.216655 1.237478 3.675452 0.000000 0.000000 0.000000
-0.213370 1.217798 3.700748 0.000000 0.000000 0.000000
-0.215012 1.228246 3.679050 0.000000 0.000000 0.000000
-0.216385 1.189387 3.675693 0.000000 0.000000 0.000000
-0.224979 1.205679 3.673502 0.000000 0.000000 0.000000
-0.194975 1.188291 3.685347 0.000000 0.000000 0.000000
-0.146306 1.180339 3.667893 0.000000 0.000000 0.000000
-0.154844 1.188661 3.672516 0.000000 0.000000 0.000000
-0.221167 1.232412 3.688603 0.000000 0.000000 0.000000
-0.219811 1.216942 3.669202 0.000000 0.000000 0.000000
-0.200020 1.200523 3.700166 0.000000 0.000000 0.000000
-0.107453 1.163306 3.672517 0.000000 0.000000 0.000000
-0.164890 1.191014 3.702066 0.000000 0.000000 0.000000
-0.198359 1.200892 3.666296 0.000000 0.000000 0.000000
-0.157681 1.181838 3.667643 0.000000 0.000000 0.000000
-0.212910 1.197201 3.681005 0.000000 0.000000 0.000000
-0.194010 1.207392 3.669160 0.000000 0.000000 0.000000
-0.153043 1.176003 3.682042 0.000000 0.000000 0.000000
-0.229353 1.213481 3.681231 0.000000 0.000000 0.000000
-0.208930 1.194723 3.687064 0.000000 0.000000 0.000000
-0.219304 1.204132 3.684938 0.000000 0.000000 0.000000
-0.211769 1.203342 3.683238 0.000000 0.000000 0.000000
-0.137903 1.182216 3.672252 0.000000 0.000000 0.000000
-0.189323 1.189351 3.671186 0.000000 0.000000 0.000000
-0.245231 1.221710 3.671536 0.000000 0.000000 0.000000
-0.131340 1.185308 3.677457 0.000000 0.000000 0.000000
-0.207379 1.201267 3.669317 0.000000 0.000000 0.000000
-0.122486 1.177009 3.675593 0.000000 0.000000 0.000000
-0.248237 1.214648 3.671536 0.000000 0.000000 0.000000
-0.147478 1.168254 3.671680 0.000000 0.000000 0.000000
-0.165484 1.197384 3.679055 0.000000 0.000000 0.000000
-0.215454 1.202305 3.671194 0.000000 0.000000 0.000000
-0.144515 1.171783 3.667453 0.000000 0.000000 0.000000
-0.252233 1.219342 3.664227 0.000000 0.000000 0.000000
-0.175841 1.195382 3.688093 0.000000 0.000000 0.000000
-0.156138 1.182198 3.674797 0.000000 0.000000 0.000000
-0.201683 1.200366 3.681257 0.000000 0.000000 0.000000
-0.132941 1.155281 3.669983 0.000000 0.000000 0.000000
-0.157315 1.168366 3.685597 0.000000 0.000000 0.000000
-0.234410 1.218685 3.684101 0.000000 0.000000 0.000000
-0.155887 1.187871 3.673693 0.000000 0.000000 0.000000
-0.239108 1.213246 3.678441 0.000000 0.000000 0.000000
-0.221041 1.234421 3.682274 0.000000 0.000000 0.000000
-0.237606 1.218651 3.678916 0.000000 0.000000 0.000000
-0.243416 1.218165 3.671758 0.000000 0.000000 0.000000
-0.241674 1.226769 3.680421 0.000000 0.000000 0.000000
-0.130515 1.160556 3.692986 0.000000 0.000000 0.000000
-0.222391 1.208214 3.669078 0.000000 0.000000 0.000000
-0.233010 1.209405 3.676196 0.000000 0.000000 0.000000
-0.139069 1.164994 3.668094 0.000000 0.000000 0.000000
-0.163904 1.172119 3.686278 0.000000 0.000000 0.000000
-0.114952 1.170972 3.665989 0.000000 0.000000 0.000000
-0.245243 1.221574 3.667794 0.000000 0.000000 0.000000
-0.233402 1.213614 3.670544 0.000000 0.000000 0.000000
-0.241472 1.230820 3.681341 0.000000 0.000000 0.000000
-0.139390 1.186328 3.710706 0.000000 0.000000 0.000000
-0.209525 1.231341 3.698691 0.000000 0.000000 0.000000
-0.154101 1.179217 3.687842 0.000000 0.000000 0.000000
-0.246468 1.224443 3.678412 0.000000 0.000000 0.000000
-0.220718 1.234650 3.696752 0.000000 0.000000 0.000000
-0.154591 1.207507 3.700252 0.000000 0.000000 0.000000
-0.196098 1.234948 3.696920 0.000000 0.000000 0.000000
-0.183282 1.208062 3.703134 0.000000 0.000000 0.000000
-0.237960 1.232262 3.686050 0.000000 0.000000 0.000000
-0.139094 1.188202 3.703738 0.000000 0.000000 0.000000
-0.225612 1.214143 3.667668 0.000000 0.000000 0.000000
-0.233379 1.213434 3.665551 0.000000 0.000000 0.000000
-0.192252 1.198554 3.673476 0.000000 0.000000 0.000000
-0.123597 1.162620 3.683318 0.000000 0.000000 0.000000
-0.156811 1.176985 3.693810 0.000000 0.000000 0.000000
-0.148110 1.173822 3.694502 0.000000 0.000000 0.000000
-0.242945 1.229515 3.672807 0.000000 0.000000 0.000000
-0.240469 1.215576 3.668414 0.000000 0.000000 0.000000
-0.173051 1.216954 3.694947 0.000000 0.000000 0.000000
-0.224490 1.242247 3.688574 0.000000 0.000000 0.000000
-0.206647 1.193803 3.673850 0.000000 0.000000 0.000000
-0.247825 1.220963 3.668911 0.000000 0.000000 0.000000
-0.232447 1.230449 3.686196 0.000000 0.000000 0.000000
-0.245968 1.229298 3.676967 0.000000 0.000000 0.000000
-0.206111 1.208292 3.691092 0.000000 0.000000 0.000000
-0.180806 1.189235 3.696830 0.000000 0.000000 0.000000
-0.225344 1.207674 3.670129 0.000000 0.000000 0.000000
-0.234898 1.228202 3.683169 0.000000 0.000000 0.000000
-0.245117 1.225349 3.671531 0.000000 0.000000 0.000000
-0.169782 1.217520 3.701772 0.000000 0.000000 0.000000
-0.128064 1.159283 3.683611 0.000000 0.000000 0.000000
-0.242934 1.210842 3.663923 0.000000 0.000000 0.000000
-0.147055 1.182007 3.699970 0.000000 0.000000 0.000000
-0.130695 1.189889 3.697178 0.000000 0.000000 0.000000
-0.246057 1.218246 3.666065 0.000000 0.000000 0.000000
-0.127932 1.160586 3.687473 0.000000 0.000000 0.000000
-0.138620 1.175378 3.693826 0.000000 0.000000 0.000000
-0.122634 1.158138 3.685723 0.000000 0.000000 0.000000
-0.242369 1.221640 3.678407 0.000000 0.000000 0.000000
-0.178399 1.180047 3.677198 0.000000 0.000000 0.000000
-0.142414 1.165785 3.687010 0.000000 0.000000 0.000000
-0.251030 1.220313 3.673953 0.000000 0.000000 0.000000
-0.242899 1.214538 3.664658 0.000000 0.000000 0.000000
-0.128786 1.174132 3.702519 0.000000 0.000000 0.000000
-0.217218 1.202302 3.667197 0.000000 0.000000 0.000000
-0.245363 1.227654 3.677510 0.000000 0.000000 0.000000
-0.228588 1.210471 3.670176 0.000000 0.000000 0.000000
-0.199748 1.187610 3.675432 0.000000 0.000000 0.000000
-0.214380 1.223425 3.696762 0.000000 0.000000 0.000000
-0.216918 1.240106 3.692415 0.000000 0.000000 0.000000
-0.204628 1.200776 3.676473 0.000000 0.000000 0.000000
-0.210733 1.236382 3.695186 0.000000 0.000000 0.000000
-0.152027 1.194968 3.682258 0.000000 0.000000 0.000000
-0.151030 1.173351 3.670869 0.000000 0.000000 0.000000
-0.167859 1.181579 3.671367 0.000000 0.000000 0.000000
-0.241601 1.207467 3.672629 0.000000 0.000000 0.000000
-0.126536 1.179207 3.668055 0.000000 0.000000 0.000000
-0.144929 1.169382 3.666690 0.000000 0.000000 0.000000
-0.147176 1.170396 3.665016 0.000000 0.000000 0.000000
-0.238578 1.211597 3.669827 0.000000 0.000000 0.000000
-0.227334 1.197063 3.674777 0.000000 0.000000 0.000000
-0.124883 1.171165 3.698206 0.000000 0.000000 0.000000
-0.136316 1.169111 3.664899 0.000000 0.000000 0.000000
-0.134902 1.172628 3.666351 0.000000 0.000000 0.000000
-0.214489 1.200351 3.672196 0.000000 0.000000 0.000000
-0.215029 1.200521 3.666364 0.000000 0.000000 0.000000
-0.172322 1.184093 3.696721 0.000000 0.000000 0.000000
-0.133259 1.178771 3.664119 0.000000 0.000000 0.000000
-0.125409 1.152734 3.665653 0.000000 0.000000 0.000000
-0.227570 1.207445 3.666920 0.000000 0.000000 0.000000
-0.128882 1.153609 3.674466 0.000000 0.000000 0.000000
-0.143154 1.161515 3.677354 0.000000 0.000000 0.000000
-0.145261 1.162888 3.667161 0.000000 0.000000 0.000000
-0.231600 1.236997 3.688870 0.000000 0.000000 0.000000
-0.166405 1.178096 3.668200 0.000000 0.000000 0.000000
-0.144936 1.203954 3.698600 0.000000 0.000000 0.000000
-0.174947 1.177384 3.668638 0.000000 0.000000 0.000000
-0.166949 1.183824 3.667934 0.000000 0.000000 0.000000
-0.160567 1.182670 3.667369 0.000000 0.000000 0.000000
-0.136645 1.160335 3.663605 0.000000 0.000000 0.000000
-0.242213 1.215170 3.662992 0.000000 0.000000 0.000000
-0.242621 1.214990 3.667793 0.000000 0.000000 0.000000
-0.219894 1.204155 3.663652 0.000000 0.000000 0.000000
-0.189959 1.185383 3.670733 0.000000 0.000000 0.000000
-0.211669 1.202162 3.665887 0.000000 0.000000 0.000000
-0.204212 1.194279 3.668965 0.000000 0.000000 0.000000
-0.200309 1.190888 3.667398 0.000000 0.000000 0.000000
-0.167637 1.175544 3.681208 0.000000 0.000000 0.000000
-0.133378 1.185213 3.711667 0.000000 0.000000 0.000000
-0.158025 1.172996 3.672047 0.000000 0.000000 0.000000
-0.181407 1.179108 3.676881 0.000000 0.000000 0.000000
-0.131433 1.155909 3.665378 0.000000 0.000000 0.000000
-0.152274 1.173023 3.667506 0.000000 0.000000 0.000000
-0.137181 1.162726 3.668842 0.000000 0.000000 0.000000
-0.178018 1.190790 3.671240 0.000000 0.000000 0.000000
-0.150351 1.159990 3.664949 0.000000 0.000000 0.000000
-0.158770 1.161616 3.670935 0.000000 0.000000 0.000000
-0.158487 1.172551 3.668084 0.000000 0.000000 0.000000
-0.149954 1.171524 3.674444 0.000000 0.000000 0.000000
-0.128792 1.169282 3.675634 0.000000 0.000000 0.000000
-0.165383 1.171022 3.677464 0.000000 0.000000 0.000000
-0.119628 1.162305 3.669440 0.000000 0.000000 0.000000
-0.155634 1.173220 3.666704 0.000000 0.000000 0.000000
-0.126485 1.159088 3.675258 0.000000 0.000000 0.000000
-0.207348 1.232333 3.678169 0.000000 0.000000 0.000000
-0.179005 1.206364 3.679978 0.000000 0.000000 0.000000
-0.219294 1.222135 3.673881 0.000000 0.000000 0.000000
-0.244073 1.224545 3.675642 0.000000 0.000000 0.000000
-0.197044 1.223316 3.681031 0.000000 0.000000 0.000000
-0.151515 1.170181 3.680924 0.000000 0.000000 0.000000
-0.211219 1.225961 3.673613 0.000000 0.000000 0.000000
-0.182915 1.217226 3.686598 0.000000 0.000000 0.000000
-0.215873 1.221130 3.670588 0.000000 0.000000 0.000000
-0.219080 1.207647 3.665931 0.000000 0.000000 0.000000
-0.198140 1.231366 3.686382 0.000000 0.000000 0.000000
-0.158858 1.160612 3.678417 0.000000 0.000000 0.000000
-0.107662 1.174645 3.669888 0.000000 0.000000 0.000000
-0.122268 1.164715 3.696608 0.000000 0.000000 0.000000
-0.172215 1.182741 3.672758 0.000000 0.000000 0.000000
-0.166801 1.176053 3.670120 0.000000 0.000000 0.000000
-0.182504 1.226887 3.697847 0.000000 0.000000 0.000000
-0.220263 1.226830 3.672386 0.000000 0.000000 0.000000
-0.183528 1.229513 3.691491 0.000000 0.000000 0.000000
-0.184406 1.224257 3.689029 0.000000 0.000000 0.000000
-0.123324 1.201516 3.701050 0.000000 0.000000 0.000000
-0.129583 1.197179 3.702895 0.000000 0.000000 0.000000
-0.196285 1.196770 3.666032 0.000000 0.000000 0.000000
-0.141522 1.158756 3.662068 0.000000 0.000000 0.000000
-0.192897 1.198481 3.668434 0.000000 0.000000 0.000000
-0.160263 1.170817 3.667877 0.000000 0.000000 0.000000
-0.134153 1.150075 3.684939 0.000000 0.000000 0.000000
-0.151268 1.163524 3.695264 0.000000 0.000000 0.000000
-0.193551 1.226931 3.679488 0.000000 0.000000 0.000000
-0.223134 1.232675 3.681692 0.000000 0.000000 0.000000
-0.206874 1.238977 3.695419 0.000000 0.000000 0.000000
-0.197311 1.234688 3.691523 0.000000 0.000000 0.000000
-0.203149 1.201457 3.672378 0.000000 0.000000 0.000000
-0.181745 1.185350 3.667264 0.000000 0.000000 0.000000
-0.175182 1.183788 3.669925 0.000000 0.000000 0.000000
-0.206637 1.232961 3.684655 0.000000 0.000000 0.000000
-0.191252 1.188153 3.668347 0.000000 0.000000 0.000000
-0.120101 1.183444 3.677139 0.000000 0.000000 0.000000
-0.185759 1.187906 3.683323 0.000000 0.000000 0.000000
-0.194935 1.214350 3.673472 0.000000 0.000000 0.000000
-0.160149 1.205197 3.693469 0.000000 0.000000 0.000000
-0.236088 1.226068 3.672103 0.000000 0.000000 0.000000
-0.193540 1.197921 3.694845 0.000000 0.000000 0.000000
-0.222882 1.231122 3.677504 0.000000 0.000000 0.000000
-0.237175 1.232375 3.676286 0.000000 0.000000 0.000000
-0.234152 1.231974 3.676993 0.000000 0.000000 0.000000
-0.131617 1.198504 3.679648 0.000000 0.000000 0.000000
-0.180180 1.231730 3.699764 0.000000 0.000000 0.000000
-0.126461 1.194159 3.693099 0.000000 0.000000 0.000000
-0.211779 1.212296 3.668005 0.000000 0.000000 0.000000
-0.178233 1.214586 3.699935 0.000000 0.000000 0.000000
-0.229693 1.232109 3.675791 0.000000 0.000000 0.000000
-0.146785 1.199937 3.692277 0.000000 0.000000 0.000000
-0.222675 1.214405 3.672621 0.000000 0.000000 0.000000
-0.231068 1.223875 3.671649 0.000000 0.000000 0.000000
-0.134652 1.200460 3.701274 0.000000 0.000000 0.000000
-0.242450 1.231384 3.676992 0.000000 0.000000 0.000000
-0.234956 1.220020 3.671366 0.000000 0.000000 0.000000
-0.142812 1.194507 3.678892 0.000000 0.000000 0.000000
-0.173205 1.220980 3.702663 0.000000 0.000000 0.000000
-0.199234 1.201266 3.665974 0.000000 0.000000 0.000000
-0.150824 1.209002 3.703583 0.000000 0.000000 0.000000
-0.105405 1.171680 3.676465 0.000000 0.000000 0.000000
-0.139489 1.154167 3.662640 0.000000 0.000000 0.000000
-0.131897 1.152884 3.662135 0.000000 0.000000 0.000000
-0.124161 1.147640 3.659502 0.000000 0.000000 0.000000
-0.235156 1.219949 3.666565 0.000000 0.000000 0.000000
-0.218227 1.204204 3.667691 0.000000 0.000000 0.000000
-0.208071 1.203234 3.666391 0.000000 0.000000 0.000000
-0.223179 1.208394 3.660815 0.000000 0.000000 0.000000
-0.224767 1.211178 3.660812 0.000000 0.000000 0.000000
-0.218991 1.204757 3.666475 0.000000 0.000000 0.000000
-0.217249 1.221211 3.670920 0.000000 0.000000 0.000000
-0.213897 1.213589 3.698304 0.000000 0.000000 0.000000
-0.225266 1.231291 3.696855 0.000000 0.000000 0.000000
-0.222552 1.209949 3.694907 0.000000 0.000000 0.000000
-0.219774 1.223710 3.699608 0.000000 0.000000 0.000000
-0.149781 1.163549 3.667652 0.000000 0.000000 0.000000
-0.207745 1.187995 3.668715 0.000000 0.000000 0.000000
-0.233398 1.224238 3.676017 0.000000 0.000000 0.000000
-0.212814 1.198144 3.668649 0.000000 0.000000 0.000000
-0.239354 1.215761 3.665790 0.000000 0.000000 0.000000
-0.173095 1.179464 3.691087 0.000000 0.000000 0.000000
-0.181210 1.192805 3.701931 0.000000 0.000000 0.000000
-0.179865 1.181864 3.691192 0.000000 0.000000 0.000000
-0.190059 1.194782 3.698585 0.000000 0.000000 0.000000
