ply
format ascii 1.0
comment VCGLIB generated
obj_info Generated by SPFormer!
element vertex 588
property float x
property float y
property float z
property float nx
property float ny
property float nz
end_header
0.855380 1.421479 1.947908 0.000000 0.000000 0.000000
0.879601 1.420595 1.954023 0.000000 0.000000 0.000000
0.879918 1.408789 1.950455 0.000000 0.000000 0.000000
0.871175 1.401331 1.952624 0.000000 0.000000 0.000000
0.865355 1.438726 1.952379 0.000000 0.000000 0.000000
0.870308 1.419045 1.945651 0.000000 0.000000 0.000000
0.873108 1.400777 1.940208 0.000000 0.000000 0.000000
0.874583 1.406811 1.946119 0.000000 0.000000 0.000000
0.865274 1.412037 1.951864 0.000000 0.000000 0.000000
0.879497 1.414297 1.954671 0.000000 0.000000 0.000000
0.878032 1.419412 1.954653 0.000000 0.000000 0.000000
0.838975 1.363872 1.930951 0.000000 0.000000 0.000000
0.825922 1.435492 1.914818 0.000000 0.000000 0.000000
0.808190 1.487242 1.916269 0.000000 0.000000 0.000000
0.776330 1.486667 1.889910 0.000000 0.000000 0.000000
0.779340 1.505993 1.898068 0.000000 0.000000 0.000000
0.775336 1.427766 1.880531 0.000000 0.000000 0.000000
0.838165 1.451793 1.922949 0.000000 0.000000 0.000000
0.753372 1.452135 1.870572 0.000000 0.000000 0.000000
0.772484 1.496592 1.888224 0.000000 0.000000 0.000000
0.755033 1.485975 1.874750 0.000000 0.000000 0.000000
0.785421 1.385162 1.882225 0.000000 0.000000 0.000000
0.764781 1.501946 1.887033 0.000000 0.000000 0.000000
0.773547 1.468327 1.884232 0.000000 0.000000 0.000000
0.787581 1.495186 1.901264 0.000000 0.000000 0.000000
0.750777 1.473620 1.871288 0.000000 0.000000 0.000000
0.799843 1.510401 1.915083 0.000000 0.000000 0.000000
0.754213 1.461153 1.869448 0.000000 0.000000 0.000000
0.779996 1.468161 1.888988 0.000000 0.000000 0.000000
0.775557 1.517809 1.897420 0.000000 0.000000 0.000000
0.778213 1.498824 1.894396 0.000000 0.000000 0.000000
0.780222 1.520977 1.900908 0.000000 0.000000 0.000000
0.848222 1.478597 1.933898 0.000000 0.000000 0.000000
0.817915 1.501382 1.927713 0.000000 0.000000 0.000000
0.749507 1.422393 1.864463 0.000000 0.000000 0.000000
0.840969 1.418438 1.920509 0.000000 0.000000 0.000000
0.795895 1.525125 1.917420 0.000000 0.000000 0.000000
0.737953 1.397254 1.850256 0.000000 0.000000 0.000000
0.784973 1.526046 1.908673 0.000000 0.000000 0.000000
0.829385 1.491611 1.933597 0.000000 0.000000 0.000000
0.776541 1.496263 1.892788 0.000000 0.000000 0.000000
0.764287 1.501955 1.885036 0.000000 0.000000 0.000000
0.736121 1.393684 1.848072 0.000000 0.000000 0.000000
0.722333 1.439759 1.845364 0.000000 0.000000 0.000000
0.768577 1.423420 1.875421 0.000000 0.000000 0.000000
0.842504 1.475589 1.931918 0.000000 0.000000 0.000000
0.734346 1.423450 1.849792 0.000000 0.000000 0.000000
0.747145 1.486221 1.872320 0.000000 0.000000 0.000000
0.794344 1.537105 1.923091 0.000000 0.000000 0.000000
0.785221 1.534497 1.911363 0.000000 0.000000 0.000000
0.798567 1.533034 1.927546 0.000000 0.000000 0.000000
0.755876 1.510170 1.881199 0.000000 0.000000 0.000000
0.774607 1.340650 1.866977 0.000000 0.000000 0.000000
0.782226 1.550864 1.919410 0.000000 0.000000 0.000000
0.751139 1.496925 1.878857 0.000000 0.000000 0.000000
0.807534 1.538987 1.935444 0.000000 0.000000 0.000000
0.807009 1.514053 1.923886 0.000000 0.000000 0.000000
0.765626 1.515663 1.891862 0.000000 0.000000 0.000000
0.728653 1.425087 1.850695 0.000000 0.000000 0.000000
0.820307 1.486138 1.930488 0.000000 0.000000 0.000000
0.726272 1.495469 1.864210 0.000000 0.000000 0.000000
0.754805 1.511565 1.882638 0.000000 0.000000 0.000000
0.761577 1.512331 1.886912 0.000000 0.000000 0.000000
0.762355 1.532073 1.889078 0.000000 0.000000 0.000000
0.754309 1.532658 1.892503 0.000000 0.000000 0.000000
0.766588 1.556842 1.905375 0.000000 0.000000 0.000000
0.752764 1.385271 1.852795 0.000000 0.000000 0.000000
0.773388 1.541353 1.904573 0.000000 0.000000 0.000000
0.773592 1.549919 1.908191 0.000000 0.000000 0.000000
0.807279 1.359341 1.893255 0.000000 0.000000 0.000000
0.765890 1.513690 1.899482 0.000000 0.000000 0.000000
0.770686 1.341913 1.865859 0.000000 0.000000 0.000000
0.813565 1.515465 1.929465 0.000000 0.000000 0.000000
0.761040 1.483358 1.881354 0.000000 0.000000 0.000000
0.759528 1.367429 1.859219 0.000000 0.000000 0.000000
0.726173 1.414473 1.849054 0.000000 0.000000 0.000000
0.799734 1.509854 1.915865 0.000000 0.000000 0.000000
0.742221 1.416969 1.855617 0.000000 0.000000 0.000000
0.848649 1.445381 1.923962 0.000000 0.000000 0.000000
0.780388 1.514369 1.899948 0.000000 0.000000 0.000000
0.800702 1.438595 1.898293 0.000000 0.000000 0.000000
0.838221 1.471850 1.932600 0.000000 0.000000 0.000000
0.763335 1.528647 1.895411 0.000000 0.000000 0.000000
0.777088 1.528276 1.901320 0.000000 0.000000 0.000000
0.738763 1.391420 1.850410 0.000000 0.000000 0.000000
0.779769 1.540392 1.910597 0.000000 0.000000 0.000000
0.736761 1.390303 1.848982 0.000000 0.000000 0.000000
0.784139 1.527025 1.907311 0.000000 0.000000 0.000000
0.768067 1.556868 1.914330 0.000000 0.000000 0.000000
0.739982 1.385659 1.848177 0.000000 0.000000 0.000000
0.755745 1.550961 1.907022 0.000000 0.000000 0.000000
0.755485 1.379643 1.857673 0.000000 0.000000 0.000000
0.831467 1.470114 1.924427 0.000000 0.000000 0.000000
0.778015 1.364919 1.877377 0.000000 0.000000 0.000000
0.788685 1.534181 1.916917 0.000000 0.000000 0.000000
0.737811 1.426322 1.854971 0.000000 0.000000 0.000000
0.759174 1.409315 1.866867 0.000000 0.000000 0.000000
0.798717 1.497394 1.909237 0.000000 0.000000 0.000000
0.790794 1.459424 1.895252 0.000000 0.000000 0.000000
0.773728 1.543471 1.908785 0.000000 0.000000 0.000000
0.748988 1.435688 1.862625 0.000000 0.000000 0.000000
0.823874 1.533548 1.947570 0.000000 0.000000 0.000000
0.753673 1.366693 1.856863 0.000000 0.000000 0.000000
0.767608 1.557118 1.923435 0.000000 0.000000 0.000000
0.757131 1.398909 1.861812 0.000000 0.000000 0.000000
0.778954 1.553604 1.919147 0.000000 0.000000 0.000000
0.771954 1.533245 1.902149 0.000000 0.000000 0.000000
0.739452 1.446195 1.860238 0.000000 0.000000 0.000000
0.754448 1.495618 1.891580 0.000000 0.000000 0.000000
0.829941 1.505654 1.935441 0.000000 0.000000 0.000000
0.758330 1.543195 1.903534 0.000000 0.000000 0.000000
0.740265 1.485874 1.868458 0.000000 0.000000 0.000000
0.743414 1.521312 1.877465 0.000000 0.000000 0.000000
0.827030 1.525060 1.944548 0.000000 0.000000 0.000000
0.810669 1.328014 1.894795 0.000000 0.000000 0.000000
0.756937 1.543070 1.898378 0.000000 0.000000 0.000000
0.750850 1.533223 1.891524 0.000000 0.000000 0.000000
0.754662 1.525672 1.888369 0.000000 0.000000 0.000000
0.768840 1.548450 1.906395 0.000000 0.000000 0.000000
0.748548 1.485202 1.871049 0.000000 0.000000 0.000000
0.726341 1.386605 1.839904 0.000000 0.000000 0.000000
0.789574 1.547223 1.923919 0.000000 0.000000 0.000000
0.757520 1.552220 1.905540 0.000000 0.000000 0.000000
0.774130 1.537487 1.903418 0.000000 0.000000 0.000000
0.813643 1.513806 1.932551 0.000000 0.000000 0.000000
0.776388 1.513214 1.907983 0.000000 0.000000 0.000000
0.761866 1.552969 1.906971 0.000000 0.000000 0.000000
0.782870 1.546032 1.916394 0.000000 0.000000 0.000000
0.733493 1.456943 1.856375 0.000000 0.000000 0.000000
0.745513 1.509374 1.879519 0.000000 0.000000 0.000000
0.847318 1.452241 1.930503 0.000000 0.000000 0.000000
0.850362 1.472877 1.934415 0.000000 0.000000 0.000000
0.761967 1.353415 1.863974 0.000000 0.000000 0.000000
0.747875 1.522349 1.884982 0.000000 0.000000 0.000000
0.740419 1.452802 1.860858 0.000000 0.000000 0.000000
0.841993 1.379604 1.912696 0.000000 0.000000 0.000000
0.834757 1.510128 1.941945 0.000000 0.000000 0.000000
0.822695 1.520007 1.938229 0.000000 0.000000 0.000000
0.744719 1.388522 1.853041 0.000000 0.000000 0.000000
0.841809 1.512920 1.947010 0.000000 0.000000 0.000000
0.821086 1.513262 1.934788 0.000000 0.000000 0.000000
0.785089 1.340026 1.877619 0.000000 0.000000 0.000000
0.864250 1.466604 1.929480 0.000000 0.000000 0.000000
0.776779 1.339621 1.868164 0.000000 0.000000 0.000000
0.767129 1.337536 1.861194 0.000000 0.000000 0.000000
0.742218 1.475771 1.865530 0.000000 0.000000 0.000000
0.864167 1.456870 1.931050 0.000000 0.000000 0.000000
0.852555 1.477331 1.931585 0.000000 0.000000 0.000000
0.722363 1.430869 1.847491 0.000000 0.000000 0.000000
0.765933 1.540646 1.900295 0.000000 0.000000 0.000000
0.760966 1.539169 1.894229 0.000000 0.000000 0.000000
0.775752 1.555098 1.914964 0.000000 0.000000 0.000000
0.785847 1.340116 1.876752 0.000000 0.000000 0.000000
0.794514 1.513737 1.912213 0.000000 0.000000 0.000000
0.778842 1.546476 1.912465 0.000000 0.000000 0.000000
0.823526 1.324992 1.903188 0.000000 0.000000 0.000000
0.768665 1.559238 1.918640 0.000000 0.000000 0.000000
0.785818 1.538740 1.914916 0.000000 0.000000 0.000000
0.763276 1.548305 1.900544 0.000000 0.000000 0.000000
0.732090 1.519710 1.874323 0.000000 0.000000 0.000000
0.708142 1.427580 1.841656 0.000000 0.000000 0.000000
0.805882 1.451987 1.904991 0.000000 0.000000 0.000000
0.775608 1.557284 1.919639 0.000000 0.000000 0.000000
0.775498 1.543782 1.921670 0.000000 0.000000 0.000000
0.768705 1.558020 1.915875 0.000000 0.000000 0.000000
0.770310 1.523685 1.894615 0.000000 0.000000 0.000000
0.753636 1.507699 1.886006 0.000000 0.000000 0.000000
0.767715 1.544561 1.901549 0.000000 0.000000 0.000000
0.839254 1.494294 1.936047 0.000000 0.000000 0.000000
0.847361 1.497137 1.940048 0.000000 0.000000 0.000000
0.729688 1.410660 1.847995 0.000000 0.000000 0.000000
0.850153 1.483513 1.936805 0.000000 0.000000 0.000000
0.740861 1.526067 1.882649 0.000000 0.000000 0.000000
0.721421 1.402712 1.843288 0.000000 0.000000 0.000000
0.850356 1.465451 1.931793 0.000000 0.000000 0.000000
0.826348 1.388606 1.907770 0.000000 0.000000 0.000000
0.719564 1.411283 1.842833 0.000000 0.000000 0.000000
0.737879 1.468406 1.862359 0.000000 0.000000 0.000000
0.767924 1.335314 1.858071 0.000000 0.000000 0.000000
0.834648 1.408805 1.914635 0.000000 0.000000 0.000000
0.868323 1.403046 1.928854 0.000000 0.000000 0.000000
0.852400 1.377864 1.917893 0.000000 0.000000 0.000000
0.841124 1.362335 1.918427 0.000000 0.000000 0.000000
0.852453 1.388481 1.919430 0.000000 0.000000 0.000000
0.843500 1.409923 1.920326 0.000000 0.000000 0.000000
0.807819 1.409506 1.899286 0.000000 0.000000 0.000000
0.798552 1.536108 1.924951 0.000000 0.000000 0.000000
0.852284 1.498915 1.944685 0.000000 0.000000 0.000000
0.785960 1.543485 1.918128 0.000000 0.000000 0.000000
0.782103 1.553702 1.921981 0.000000 0.000000 0.000000
0.849861 1.489082 1.941897 0.000000 0.000000 0.000000
0.838783 1.500021 1.938717 0.000000 0.000000 0.000000
0.720822 1.414534 1.842880 0.000000 0.000000 0.000000
0.751820 1.388611 1.859240 0.000000 0.000000 0.000000
0.726885 1.407662 1.844546 0.000000 0.000000 0.000000
0.862908 1.476451 1.928288 0.000000 0.000000 0.000000
0.754976 1.523983 1.884937 0.000000 0.000000 0.000000
0.752858 1.535140 1.889488 0.000000 0.000000 0.000000
0.730950 1.455018 1.855888 0.000000 0.000000 0.000000
0.745851 1.502049 1.874709 0.000000 0.000000 0.000000
0.761472 1.548123 1.904406 0.000000 0.000000 0.000000
0.776014 1.542832 1.904362 0.000000 0.000000 0.000000
0.741311 1.526437 1.881433 0.000000 0.000000 0.000000
0.773435 1.476297 1.885213 0.000000 0.000000 0.000000
0.768138 1.450082 1.878128 0.000000 0.000000 0.000000
0.781799 1.437518 1.884925 0.000000 0.000000 0.000000
0.786377 1.370539 1.877986 0.000000 0.000000 0.000000
0.784151 1.366012 1.867284 0.000000 0.000000 0.000000
0.743875 1.490942 1.868382 0.000000 0.000000 0.000000
0.807689 1.520965 1.926035 0.000000 0.000000 0.000000
0.820761 1.334136 1.903294 0.000000 0.000000 0.000000
0.833749 1.409541 1.913455 0.000000 0.000000 0.000000
0.804542 1.541517 1.934789 0.000000 0.000000 0.000000
0.771080 1.356251 1.869773 0.000000 0.000000 0.000000
0.851609 1.463843 1.928061 0.000000 0.000000 0.000000
0.805959 1.474998 1.911816 0.000000 0.000000 0.000000
0.735688 1.409475 1.850291 0.000000 0.000000 0.000000
0.819753 1.478619 1.922345 0.000000 0.000000 0.000000
0.759640 1.471749 1.874814 0.000000 0.000000 0.000000
0.787440 1.421499 1.888078 0.000000 0.000000 0.000000
0.751296 1.384920 1.859860 0.000000 0.000000 0.000000
0.782815 1.406997 1.881023 0.000000 0.000000 0.000000
0.801028 1.333556 1.888631 0.000000 0.000000 0.000000
0.824062 1.451236 1.915445 0.000000 0.000000 0.000000
0.758188 1.375072 1.862303 0.000000 0.000000 0.000000
0.782944 1.349537 1.874936 0.000000 0.000000 0.000000
0.810346 1.424713 1.898459 0.000000 0.000000 0.000000
0.846645 1.432569 1.925725 0.000000 0.000000 0.000000
0.825731 1.504224 1.933875 0.000000 0.000000 0.000000
0.802491 1.460846 1.903690 0.000000 0.000000 0.000000
0.764501 1.406336 1.853890 0.000000 0.000000 0.000000
0.735047 1.414367 1.853227 0.000000 0.000000 0.000000
0.838731 1.385158 1.913156 0.000000 0.000000 0.000000
0.800560 1.409569 1.895344 0.000000 0.000000 0.000000
0.830737 1.412362 1.913976 0.000000 0.000000 0.000000
0.818679 1.364143 1.901044 0.000000 0.000000 0.000000
0.828864 1.365026 1.902919 0.000000 0.000000 0.000000
0.768225 1.341783 1.865394 0.000000 0.000000 0.000000
0.790832 1.336927 1.877612 0.000000 0.000000 0.000000
0.813897 1.450568 1.910827 0.000000 0.000000 0.000000
0.743470 1.380470 1.850570 0.000000 0.000000 0.000000
0.867049 1.457880 1.931384 0.000000 0.000000 0.000000
0.792230 1.357643 1.883989 0.000000 0.000000 0.000000
0.850427 1.410648 1.919622 0.000000 0.000000 0.000000
0.806047 1.341551 1.891666 0.000000 0.000000 0.000000
0.841750 1.504005 1.943047 0.000000 0.000000 0.000000
0.824027 1.340133 1.907104 0.000000 0.000000 0.000000
0.784060 1.445438 1.889099 0.000000 0.000000 0.000000
0.766794 1.409444 1.872019 0.000000 0.000000 0.000000
0.770317 1.337501 1.864866 0.000000 0.000000 0.000000
0.799981 1.366233 1.886740 0.000000 0.000000 0.000000
0.793874 1.392756 1.886472 0.000000 0.000000 0.000000
0.722278 1.397434 1.839345 0.000000 0.000000 0.000000
0.807476 1.361684 1.894369 0.000000 0.000000 0.000000
0.869360 1.441478 1.929647 0.000000 0.000000 0.000000
0.842282 1.482306 1.934539 0.000000 0.000000 0.000000
0.795886 1.348982 1.882616 0.000000 0.000000 0.000000
0.748432 1.539920 1.893419 0.000000 0.000000 0.000000
0.744808 1.535805 1.889355 0.000000 0.000000 0.000000
0.860875 1.406220 1.925299 0.000000 0.000000 0.000000
0.787861 1.553853 1.930726 0.000000 0.000000 0.000000
0.789406 1.514066 1.909237 0.000000 0.000000 0.000000
0.739728 1.508533 1.873515 0.000000 0.000000 0.000000
0.746326 1.536273 1.889329 0.000000 0.000000 0.000000
0.814081 1.323678 1.892921 0.000000 0.000000 0.000000
0.857629 1.434651 1.927827 0.000000 0.000000 0.000000
0.814689 1.473145 1.918879 0.000000 0.000000 0.000000
0.821376 1.443476 1.916355 0.000000 0.000000 0.000000
0.832740 1.323479 1.905490 0.000000 0.000000 0.000000
0.717589 1.440180 1.845475 0.000000 0.000000 0.000000
0.795220 1.302845 1.874051 0.000000 0.000000 0.000000
0.758493 1.353046 1.858708 0.000000 0.000000 0.000000
0.819449 1.405826 1.908117 0.000000 0.000000 0.000000
0.734006 1.486786 1.860355 0.000000 0.000000 0.000000
0.768835 1.390968 1.871698 0.000000 0.000000 0.000000
0.838493 1.329372 1.910164 0.000000 0.000000 0.000000
0.770009 1.358423 1.865549 0.000000 0.000000 0.000000
0.802510 1.550438 1.938104 0.000000 0.000000 0.000000
0.790115 1.550391 1.925893 0.000000 0.000000 0.000000
0.785497 1.557553 1.925874 0.000000 0.000000 0.000000
0.821903 1.527010 1.941623 0.000000 0.000000 0.000000
0.804971 1.543428 1.933619 0.000000 0.000000 0.000000
0.819921 1.332398 1.898660 0.000000 0.000000 0.000000
0.812858 1.534529 1.938968 0.000000 0.000000 0.000000
0.797504 1.543547 1.929011 0.000000 0.000000 0.000000
0.807694 1.531022 1.931157 0.000000 0.000000 0.000000
0.770876 1.536269 1.901640 0.000000 0.000000 0.000000
0.748205 1.537903 1.889899 0.000000 0.000000 0.000000
0.798064 1.307703 1.875934 0.000000 0.000000 0.000000
0.756989 1.539898 1.892687 0.000000 0.000000 0.000000
0.757121 1.547575 1.900214 0.000000 0.000000 0.000000
0.796609 1.312042 1.875336 0.000000 0.000000 0.000000
0.795668 1.313636 1.876994 0.000000 0.000000 0.000000
0.762981 1.378553 1.866698 0.000000 0.000000 0.000000
0.723001 1.447233 1.847553 0.000000 0.000000 0.000000
0.747997 1.361647 1.851701 0.000000 0.000000 0.000000
0.799116 1.326059 1.887584 0.000000 0.000000 0.000000
0.783875 1.335643 1.874944 0.000000 0.000000 0.000000
0.767529 1.359047 1.864886 0.000000 0.000000 0.000000
0.750652 1.345497 1.844803 0.000000 0.000000 0.000000
0.735975 1.506912 1.872725 0.000000 0.000000 0.000000
0.741089 1.362341 1.847007 0.000000 0.000000 0.000000
0.869356 1.479896 1.937789 0.000000 0.000000 0.000000
0.859413 1.473428 1.932495 0.000000 0.000000 0.000000
0.879681 1.418615 1.934555 0.000000 0.000000 0.000000
0.868835 1.490741 1.940742 0.000000 0.000000 0.000000
0.731556 1.463657 1.855692 0.000000 0.000000 0.000000
0.758168 1.521967 1.891952 0.000000 0.000000 0.000000
0.784612 1.317794 1.867611 0.000000 0.000000 0.000000
0.766957 1.556019 1.911438 0.000000 0.000000 0.000000
0.775942 1.551190 1.912754 0.000000 0.000000 0.000000
0.777505 1.560617 1.926263 0.000000 0.000000 0.000000
0.767193 1.548123 1.912342 0.000000 0.000000 0.000000
0.768789 1.552922 1.908863 0.000000 0.000000 0.000000
0.838615 1.360248 1.913008 0.000000 0.000000 0.000000
0.837139 1.346850 1.909130 0.000000 0.000000 0.000000
0.813772 1.375894 1.899100 0.000000 0.000000 0.000000
0.742911 1.533815 1.888203 0.000000 0.000000 0.000000
0.839585 1.367279 1.909722 0.000000 0.000000 0.000000
0.813307 1.343329 1.900968 0.000000 0.000000 0.000000
0.836010 1.349340 1.910022 0.000000 0.000000 0.000000
0.829766 1.340018 1.904641 0.000000 0.000000 0.000000
0.819145 1.320186 1.900066 0.000000 0.000000 0.000000
0.732083 1.373932 1.842621 0.000000 0.000000 0.000000
0.734779 1.381554 1.843315 0.000000 0.000000 0.000000
0.724557 1.387967 1.838505 0.000000 0.000000 0.000000
0.755994 1.340565 1.850637 0.000000 0.000000 0.000000
0.789298 1.317203 1.877511 0.000000 0.000000 0.000000
0.747956 1.542802 1.894620 0.000000 0.000000 0.000000
0.869548 1.450274 1.932725 0.000000 0.000000 0.000000
0.859245 1.451861 1.930208 0.000000 0.000000 0.000000
0.800033 1.320177 1.884656 0.000000 0.000000 0.000000
0.761263 1.549946 1.902782 0.000000 0.000000 0.000000
0.765225 1.551860 1.907568 0.000000 0.000000 0.000000
0.739535 1.510000 1.875305 0.000000 0.000000 0.000000
0.736190 1.493615 1.869266 0.000000 0.000000 0.000000
0.740353 1.489325 1.866652 0.000000 0.000000 0.000000
0.762797 1.540367 1.904008 0.000000 0.000000 0.000000
0.756106 1.542600 1.897868 0.000000 0.000000 0.000000
0.791932 1.556377 1.931642 0.000000 0.000000 0.000000
0.741746 1.356704 1.843106 0.000000 0.000000 0.000000
0.762490 1.332083 1.849038 0.000000 0.000000 0.000000
0.746936 1.535277 1.887658 0.000000 0.000000 0.000000
0.754299 1.542684 1.899904 0.000000 0.000000 0.000000
0.751275 1.542556 1.896253 0.000000 0.000000 0.000000
0.784718 1.560928 1.924487 0.000000 0.000000 0.000000
0.749110 1.348975 1.846901 0.000000 0.000000 0.000000
0.752254 1.348580 1.852068 0.000000 0.000000 0.000000
0.744485 1.539763 1.892481 0.000000 0.000000 0.000000
0.749948 1.543433 1.896248 0.000000 0.000000 0.000000
0.734469 1.495350 1.864223 0.000000 0.000000 0.000000
0.799358 1.309207 1.878235 0.000000 0.000000 0.000000
0.735980 1.496795 1.866627 0.000000 0.000000 0.000000
0.736419 1.474786 1.861784 0.000000 0.000000 0.000000
0.817559 1.537720 1.943467 0.000000 0.000000 0.000000
0.742941 1.508370 1.872038 0.000000 0.000000 0.000000
0.727010 1.446130 1.850180 0.000000 0.000000 0.000000
0.745482 1.463409 1.866048 0.000000 0.000000 0.000000
0.744644 1.512380 1.877161 0.000000 0.000000 0.000000
0.833727 1.519467 1.945719 0.000000 0.000000 0.000000
0.746113 1.524994 1.881948 0.000000 0.000000 0.000000
0.741614 1.502981 1.871026 0.000000 0.000000 0.000000
0.738720 1.514299 1.877424 0.000000 0.000000 0.000000
0.826392 1.528652 1.945947 0.000000 0.000000 0.000000
0.753145 1.517015 1.884066 0.000000 0.000000 0.000000
0.747129 1.502932 1.878668 0.000000 0.000000 0.000000
0.762575 1.507346 1.887172 0.000000 0.000000 0.000000
0.739786 1.507104 1.875783 0.000000 0.000000 0.000000
0.831760 1.514683 1.941662 0.000000 0.000000 0.000000
0.747855 1.526392 1.884539 0.000000 0.000000 0.000000
0.783511 1.316604 1.866447 0.000000 0.000000 0.000000
0.734113 1.500272 1.866963 0.000000 0.000000 0.000000
0.866388 1.472490 1.935195 0.000000 0.000000 0.000000
0.737171 1.524778 1.879361 0.000000 0.000000 0.000000
0.747464 1.353193 1.847639 0.000000 0.000000 0.000000
0.756418 1.530819 1.894124 0.000000 0.000000 0.000000
0.753013 1.544190 1.899490 0.000000 0.000000 0.000000
0.729035 1.371528 1.839474 0.000000 0.000000 0.000000
0.781457 1.316997 1.865741 0.000000 0.000000 0.000000
0.751064 1.535426 1.890085 0.000000 0.000000 0.000000
0.786303 1.313579 1.864863 0.000000 0.000000 0.000000
0.767161 1.535461 1.895803 0.000000 0.000000 0.000000
0.857898 1.426435 1.929972 0.000000 0.000000 0.000000
0.853978 1.368450 1.917683 0.000000 0.000000 0.000000
0.824686 1.445642 1.926501 0.000000 0.000000 0.000000
0.777151 1.553387 1.922762 0.000000 0.000000 0.000000
0.741985 1.427246 1.861186 0.000000 0.000000 0.000000
0.767427 1.378769 1.867313 0.000000 0.000000 0.000000
0.751777 1.348135 1.849800 0.000000 0.000000 0.000000
0.738632 1.371907 1.845491 0.000000 0.000000 0.000000
0.866580 1.434006 1.929815 0.000000 0.000000 0.000000
0.747326 1.353977 1.850102 0.000000 0.000000 0.000000
0.744392 1.369618 1.849734 0.000000 0.000000 0.000000
0.874893 1.448455 1.931920 0.000000 0.000000 0.000000
0.785467 1.558871 1.925145 0.000000 0.000000 0.000000
0.831053 1.533539 1.950912 0.000000 0.000000 0.000000
0.843619 1.511877 1.947044 0.000000 0.000000 0.000000
0.757807 1.426019 1.868759 0.000000 0.000000 0.000000
0.783439 1.354043 1.876826 0.000000 0.000000 0.000000
0.754219 1.351409 1.853541 0.000000 0.000000 0.000000
0.763807 1.339746 1.859373 0.000000 0.000000 0.000000
0.728779 1.390537 1.844381 0.000000 0.000000 0.000000
0.749442 1.353965 1.852585 0.000000 0.000000 0.000000
0.733097 1.369273 1.840298 0.000000 0.000000 0.000000
0.855621 1.446731 1.928436 0.000000 0.000000 0.000000
0.816615 1.539910 1.944206 0.000000 0.000000 0.000000
0.842349 1.513433 1.948826 0.000000 0.000000 0.000000
0.806973 1.546072 1.940092 0.000000 0.000000 0.000000
0.786365 1.317056 1.869299 0.000000 0.000000 0.000000
0.785333 1.318025 1.870667 0.000000 0.000000 0.000000
0.793012 1.551699 1.930709 0.000000 0.000000 0.000000
0.776798 1.322847 1.863918 0.000000 0.000000 0.000000
0.789680 1.311555 1.871690 0.000000 0.000000 0.000000
0.798969 1.307303 1.878825 0.000000 0.000000 0.000000
0.775310 1.326926 1.866748 0.000000 0.000000 0.000000
0.725831 1.404884 1.840641 0.000000 0.000000 0.000000
0.786496 1.323045 1.874695 0.000000 0.000000 0.000000
0.823371 1.357128 1.903014 0.000000 0.000000 0.000000
0.859715 1.475813 1.937514 0.000000 0.000000 0.000000
0.821913 1.354848 1.903486 0.000000 0.000000 0.000000
0.846913 1.502858 1.945638 0.000000 0.000000 0.000000
0.858425 1.487728 1.939160 0.000000 0.000000 0.000000
0.836421 1.518418 1.948496 0.000000 0.000000 0.000000
0.862268 1.484226 1.938133 0.000000 0.000000 0.000000
0.837768 1.520900 1.949431 0.000000 0.000000 0.000000
0.856500 1.487925 1.940238 0.000000 0.000000 0.000000
0.738604 1.497552 1.868242 0.000000 0.000000 0.000000
0.737015 1.502846 1.867644 0.000000 0.000000 0.000000
0.726567 1.379341 1.837312 0.000000 0.000000 0.000000
0.741974 1.520104 1.880730 0.000000 0.000000 0.000000
0.739266 1.517268 1.877216 0.000000 0.000000 0.000000
0.716943 1.448003 1.847991 0.000000 0.000000 0.000000
0.721183 1.396214 1.835690 0.000000 0.000000 0.000000
0.733031 1.489065 1.867042 0.000000 0.000000 0.000000
0.743242 1.526973 1.884270 0.000000 0.000000 0.000000
0.740859 1.500285 1.871479 0.000000 0.000000 0.000000
0.737029 1.492040 1.866453 0.000000 0.000000 0.000000
0.728076 1.388540 1.841082 0.000000 0.000000 0.000000
0.808504 1.425688 1.902133 0.000000 0.000000 0.000000
0.742036 1.530530 1.882813 0.000000 0.000000 0.000000
0.726575 1.383204 1.839459 0.000000 0.000000 0.000000
0.822316 1.360393 1.905266 0.000000 0.000000 0.000000
0.741634 1.525579 1.880410 0.000000 0.000000 0.000000
0.872616 1.451452 1.931365 0.000000 0.000000 0.000000
0.722374 1.447877 1.848699 0.000000 0.000000 0.000000
0.728849 1.491354 1.870399 0.000000 0.000000 0.000000
0.880622 1.440506 1.932704 0.000000 0.000000 0.000000
0.725714 1.480504 1.862722 0.000000 0.000000 0.000000
0.870969 1.421229 1.930477 0.000000 0.000000 0.000000
0.855494 1.415148 1.928245 0.000000 0.000000 0.000000
0.775092 1.323446 1.860863 0.000000 0.000000 0.000000
0.872491 1.429778 1.931326 0.000000 0.000000 0.000000
0.868994 1.402880 1.927712 0.000000 0.000000 0.000000
0.807375 1.436245 1.903680 0.000000 0.000000 0.000000
0.732853 1.481507 1.861492 0.000000 0.000000 0.000000
0.726891 1.450042 1.854103 0.000000 0.000000 0.000000
0.869096 1.446022 1.931317 0.000000 0.000000 0.000000
0.723939 1.447680 1.852768 0.000000 0.000000 0.000000
0.853683 1.419325 1.930174 0.000000 0.000000 0.000000
0.874330 1.432586 1.932359 0.000000 0.000000 0.000000
0.797241 1.488751 1.906089 0.000000 0.000000 0.000000
0.728398 1.466603 1.856206 0.000000 0.000000 0.000000
0.867975 1.413371 1.933595 0.000000 0.000000 0.000000
0.720143 1.459939 1.854240 0.000000 0.000000 0.000000
0.875589 1.440853 1.931309 0.000000 0.000000 0.000000
0.718909 1.401747 1.836750 0.000000 0.000000 0.000000
0.721516 1.411551 1.842401 0.000000 0.000000 0.000000
0.719972 1.396415 1.836976 0.000000 0.000000 0.000000
0.724736 1.396203 1.841093 0.000000 0.000000 0.000000
0.775999 1.387512 1.861742 0.000000 0.000000 0.000000
0.734076 1.496310 1.868512 0.000000 0.000000 0.000000
0.731477 1.489533 1.863042 0.000000 0.000000 0.000000
0.770561 1.375404 1.859545 0.000000 0.000000 0.000000
0.731688 1.492610 1.868792 0.000000 0.000000 0.000000
0.736873 1.501101 1.869568 0.000000 0.000000 0.000000
0.735664 1.500820 1.865934 0.000000 0.000000 0.000000
0.725734 1.373203 1.835770 0.000000 0.000000 0.000000
0.726508 1.472893 1.857290 0.000000 0.000000 0.000000
0.827862 1.321166 1.905887 0.000000 0.000000 0.000000
0.873579 1.461982 1.940104 0.000000 0.000000 0.000000
0.725746 1.464608 1.854189 0.000000 0.000000 0.000000
0.728537 1.373896 1.837917 0.000000 0.000000 0.000000
0.850980 1.509007 1.950821 0.000000 0.000000 0.000000
0.735262 1.511665 1.870820 0.000000 0.000000 0.000000
0.737460 1.359812 1.843595 0.000000 0.000000 0.000000
0.747881 1.348667 1.847982 0.000000 0.000000 0.000000
0.742651 1.353371 1.844872 0.000000 0.000000 0.000000
0.754085 1.343901 1.849845 0.000000 0.000000 0.000000
0.790685 1.328399 1.878220 0.000000 0.000000 0.000000
0.728760 1.376110 1.838783 0.000000 0.000000 0.000000
0.732412 1.366833 1.841639 0.000000 0.000000 0.000000
0.792787 1.321495 1.883529 0.000000 0.000000 0.000000
0.734754 1.365058 1.841416 0.000000 0.000000 0.000000
0.797454 1.324790 1.882586 0.000000 0.000000 0.000000
0.732882 1.383332 1.844349 0.000000 0.000000 0.000000
0.730014 1.366853 1.838609 0.000000 0.000000 0.000000
0.796385 1.326870 1.886096 0.000000 0.000000 0.000000
0.866667 1.443468 1.930646 0.000000 0.000000 0.000000
0.753029 1.545879 1.902382 0.000000 0.000000 0.000000
0.794301 1.561273 1.934131 0.000000 0.000000 0.000000
0.786513 1.559818 1.930527 0.000000 0.000000 0.000000
0.784224 1.560106 1.928002 0.000000 0.000000 0.000000
0.762570 1.556033 1.913305 0.000000 0.000000 0.000000
0.808449 1.551489 1.942739 0.000000 0.000000 0.000000
0.776715 1.557345 1.917551 0.000000 0.000000 0.000000
0.803665 1.545941 1.937193 0.000000 0.000000 0.000000
0.779290 1.557318 1.923974 0.000000 0.000000 0.000000
0.739238 1.357657 1.842499 0.000000 0.000000 0.000000
0.762497 1.337668 1.858173 0.000000 0.000000 0.000000
0.741328 1.362017 1.845896 0.000000 0.000000 0.000000
0.755684 1.341229 1.848563 0.000000 0.000000 0.000000
0.772540 1.556398 1.912757 0.000000 0.000000 0.000000
0.771397 1.561018 1.915871 0.000000 0.000000 0.000000
0.879115 1.432243 1.934929 0.000000 0.000000 0.000000
0.774840 1.559869 1.920834 0.000000 0.000000 0.000000
0.769445 1.558123 1.919151 0.000000 0.000000 0.000000
0.876659 1.405751 1.932620 0.000000 0.000000 0.000000
0.879080 1.429840 1.933232 0.000000 0.000000 0.000000
0.775195 1.560614 1.923655 0.000000 0.000000 0.000000
0.765308 1.554075 1.914313 0.000000 0.000000 0.000000
0.871194 1.406401 1.930343 0.000000 0.000000 0.000000
0.877015 1.421398 1.931193 0.000000 0.000000 0.000000
0.772244 1.559200 1.921364 0.000000 0.000000 0.000000
0.761154 1.334573 1.850349 0.000000 0.000000 0.000000
0.749021 1.536657 1.894541 0.000000 0.000000 0.000000
0.782627 1.327312 1.870296 0.000000 0.000000 0.000000
0.752748 1.356017 1.853934 0.000000 0.000000 0.000000
0.758884 1.341343 1.855132 0.000000 0.000000 0.000000
0.766279 1.331767 1.856009 0.000000 0.000000 0.000000
0.748168 1.542365 1.896590 0.000000 0.000000 0.000000
0.753547 1.343751 1.851606 0.000000 0.000000 0.000000
0.789738 1.312201 1.870409 0.000000 0.000000 0.000000
0.770794 1.329355 1.859698 0.000000 0.000000 0.000000
0.879973 1.402050 1.933783 0.000000 0.000000 0.000000
0.865729 1.408718 1.926741 0.000000 0.000000 0.000000
0.879579 1.421130 1.933655 0.000000 0.000000 0.000000
0.792621 1.319086 1.875262 0.000000 0.000000 0.000000
0.770025 1.328300 1.857913 0.000000 0.000000 0.000000
0.755903 1.546939 1.907012 0.000000 0.000000 0.000000
0.753516 1.341887 1.849768 0.000000 0.000000 0.000000
0.755533 1.342574 1.850356 0.000000 0.000000 0.000000
0.780802 1.318250 1.864081 0.000000 0.000000 0.000000
0.761213 1.342968 1.861738 0.000000 0.000000 0.000000
0.876860 1.408900 1.934151 0.000000 0.000000 0.000000
0.874514 1.415748 1.930654 0.000000 0.000000 0.000000
0.765990 1.555182 1.912267 0.000000 0.000000 0.000000
0.739218 1.513106 1.871815 0.000000 0.000000 0.000000
0.732189 1.507606 1.874258 0.000000 0.000000 0.000000
0.734583 1.507521 1.870107 0.000000 0.000000 0.000000
0.737873 1.509833 1.871579 0.000000 0.000000 0.000000
0.740869 1.518500 1.876116 0.000000 0.000000 0.000000
0.735913 1.504555 1.873663 0.000000 0.000000 0.000000
0.740035 1.513873 1.873317 0.000000 0.000000 0.000000
0.749911 1.509543 1.878428 0.000000 0.000000 0.000000
0.742790 1.534364 1.887001 0.000000 0.000000 0.000000
0.741327 1.534688 1.883579 0.000000 0.000000 0.000000
0.756976 1.531244 1.889886 0.000000 0.000000 0.000000
0.737146 1.519219 1.875003 0.000000 0.000000 0.000000
0.726134 1.416929 1.847660 0.000000 0.000000 0.000000
0.719706 1.423869 1.845024 0.000000 0.000000 0.000000
0.726313 1.462525 1.853349 0.000000 0.000000 0.000000
0.719614 1.440176 1.845373 0.000000 0.000000 0.000000
0.718391 1.417615 1.842353 0.000000 0.000000 0.000000
0.728014 1.437020 1.852298 0.000000 0.000000 0.000000
0.722183 1.423286 1.846172 0.000000 0.000000 0.000000
0.713772 1.428590 1.842162 0.000000 0.000000 0.000000
0.732559 1.441308 1.855372 0.000000 0.000000 0.000000
0.726025 1.451190 1.854129 0.000000 0.000000 0.000000
0.720578 1.431491 1.848286 0.000000 0.000000 0.000000
0.731020 1.361884 1.836258 0.000000 0.000000 0.000000
0.735077 1.358814 1.839549 0.000000 0.000000 0.000000
0.724651 1.381204 1.836463 0.000000 0.000000 0.000000
0.723708 1.384285 1.836924 0.000000 0.000000 0.000000
0.728137 1.376065 1.839205 0.000000 0.000000 0.000000
0.871104 1.474972 1.938823 0.000000 0.000000 0.000000
0.737691 1.362542 1.845423 0.000000 0.000000 0.000000
0.877710 1.465966 1.935099 0.000000 0.000000 0.000000
0.729124 1.462825 1.858670 0.000000 0.000000 0.000000
0.730136 1.481252 1.862554 0.000000 0.000000 0.000000
0.728661 1.480999 1.857872 0.000000 0.000000 0.000000
0.730750 1.477986 1.853460 0.000000 0.000000 0.000000
0.730193 1.490636 1.861537 0.000000 0.000000 0.000000
0.708818 1.412979 1.842724 0.000000 0.000000 0.000000
0.717861 1.410376 1.841934 0.000000 0.000000 0.000000
0.717353 1.406396 1.838619 0.000000 0.000000 0.000000
0.719810 1.434168 1.844597 0.000000 0.000000 0.000000
0.718407 1.408242 1.840858 0.000000 0.000000 0.000000
0.717534 1.417444 1.839398 0.000000 0.000000 0.000000
