ply
format ascii 1.0
comment VCGLIB generated
obj_info Generated by SPFormer!
element vertex 739
property float x
property float y
property float z
property float nx
property float ny
property float nz
end_header
0.630017 1.131906 1.616993 0.000000 0.000000 0.000000
0.635920 1.121887 1.589682 0.000000 0.000000 0.000000
0.615629 1.136366 1.568197 0.000000 0.000000 0.000000
0.636421 1.151641 1.548622 0.000000 0.000000 0.000000
0.569566 1.222201 1.796708 0.000000 0.000000 0.000000
0.554096 1.236750 1.858175 0.000000 0.000000 0.000000
0.557291 1.227480 1.823441 0.000000 0.000000 0.000000
0.564241 1.221495 1.798024 0.000000 0.000000 0.000000
0.554653 1.242059 1.853234 0.000000 0.000000 0.000000
0.592626 1.210075 1.765690 0.000000 0.000000 0.000000
0.574919 1.136818 1.559461 0.000000 0.000000 0.000000
0.563117 1.224259 1.809275 0.000000 0.000000 0.000000
0.600171 1.142791 1.546515 0.000000 0.000000 0.000000
0.598257 1.207459 1.763628 0.000000 0.000000 0.000000
0.543303 1.243843 1.877982 0.000000 0.000000 0.000000
0.561238 1.239976 1.837070 0.000000 0.000000 0.000000
0.574180 1.217263 1.795812 0.000000 0.000000 0.000000
0.536400 1.234035 1.860947 0.000000 0.000000 0.000000
0.571564 1.204125 1.770338 0.000000 0.000000 0.000000
0.551984 1.256296 1.857974 0.000000 0.000000 0.000000
0.589015 1.144214 1.562954 0.000000 0.000000 0.000000
0.584077 1.204346 1.763389 0.000000 0.000000 0.000000
0.572278 1.224767 1.796041 0.000000 0.000000 0.000000
0.567657 1.223020 1.789828 0.000000 0.000000 0.000000
0.624122 1.206493 1.765456 0.000000 0.000000 0.000000
0.565067 1.208041 1.781064 0.000000 0.000000 0.000000
0.617886 1.220924 1.784452 0.000000 0.000000 0.000000
0.610599 1.225441 1.800397 0.000000 0.000000 0.000000
0.580782 1.238206 1.828648 0.000000 0.000000 0.000000
0.596417 1.198836 1.752646 0.000000 0.000000 0.000000
0.570080 1.251605 1.839521 0.000000 0.000000 0.000000
0.598522 1.185819 1.577347 0.000000 0.000000 0.000000
0.606157 1.229977 1.818055 0.000000 0.000000 0.000000
0.620382 1.212775 1.790323 0.000000 0.000000 0.000000
0.602001 1.225306 1.808656 0.000000 0.000000 0.000000
0.603284 1.240206 1.814872 0.000000 0.000000 0.000000
0.598925 1.225582 1.825409 0.000000 0.000000 0.000000
0.593339 1.201012 1.750123 0.000000 0.000000 0.000000
0.555616 1.217241 1.810352 0.000000 0.000000 0.000000
0.555001 1.213205 1.802709 0.000000 0.000000 0.000000
0.572167 1.208333 1.776474 0.000000 0.000000 0.000000
0.541595 1.254070 1.873700 0.000000 0.000000 0.000000
0.614758 1.214498 1.788053 0.000000 0.000000 0.000000
0.579143 1.238449 1.866464 0.000000 0.000000 0.000000
0.562164 1.244204 1.842062 0.000000 0.000000 0.000000
0.576311 1.211127 1.788192 0.000000 0.000000 0.000000
0.564255 1.241631 1.840393 0.000000 0.000000 0.000000
0.562664 1.220008 1.815196 0.000000 0.000000 0.000000
0.635766 1.148503 1.536109 0.000000 0.000000 0.000000
0.624203 1.164397 1.537262 0.000000 0.000000 0.000000
0.568567 1.221706 1.788817 0.000000 0.000000 0.000000
0.620648 1.164292 1.552035 0.000000 0.000000 0.000000
0.624757 1.159625 1.529624 0.000000 0.000000 0.000000
0.549955 1.218149 1.819772 0.000000 0.000000 0.000000
0.584363 1.210060 1.777102 0.000000 0.000000 0.000000
0.550874 1.212777 1.804130 0.000000 0.000000 0.000000
0.553868 1.219105 1.822848 0.000000 0.000000 0.000000
0.572198 1.234298 1.875722 0.000000 0.000000 0.000000
0.629941 1.204317 1.760344 0.000000 0.000000 0.000000
0.559898 1.235753 1.809847 0.000000 0.000000 0.000000
0.568194 1.214870 1.804416 0.000000 0.000000 0.000000
0.564596 1.204108 1.772164 0.000000 0.000000 0.000000
0.580891 1.215443 1.786743 0.000000 0.000000 0.000000
0.623682 1.212270 1.765827 0.000000 0.000000 0.000000
0.563401 1.214578 1.801137 0.000000 0.000000 0.000000
0.594525 1.152841 1.561787 0.000000 0.000000 0.000000
0.604829 1.154906 1.526979 0.000000 0.000000 0.000000
0.608308 1.171915 1.540857 0.000000 0.000000 0.000000
0.588045 1.182596 1.575593 0.000000 0.000000 0.000000
0.585382 1.185657 1.587523 0.000000 0.000000 0.000000
0.608679 1.225406 1.802804 0.000000 0.000000 0.000000
0.623284 1.187978 1.549629 0.000000 0.000000 0.000000
0.607315 1.226187 1.815359 0.000000 0.000000 0.000000
0.541098 1.248285 1.879259 0.000000 0.000000 0.000000
0.555384 1.227802 1.828537 0.000000 0.000000 0.000000
0.547940 1.239218 1.860508 0.000000 0.000000 0.000000
0.615784 1.215425 1.793668 0.000000 0.000000 0.000000
0.596795 1.240266 1.840907 0.000000 0.000000 0.000000
0.595812 1.236575 1.854117 0.000000 0.000000 0.000000
0.536057 1.239345 1.877846 0.000000 0.000000 0.000000
0.544251 1.234183 1.873685 0.000000 0.000000 0.000000
0.572922 1.203453 1.762114 0.000000 0.000000 0.000000
0.562292 1.226681 1.816284 0.000000 0.000000 0.000000
0.555890 1.226410 1.826902 0.000000 0.000000 0.000000
0.594014 1.228696 1.836233 0.000000 0.000000 0.000000
0.555146 1.211592 1.795870 0.000000 0.000000 0.000000
0.609453 1.207191 1.763888 0.000000 0.000000 0.000000
0.573279 1.209134 1.748502 0.000000 0.000000 0.000000
0.603458 1.206991 1.761988 0.000000 0.000000 0.000000
0.594208 1.232661 1.839672 0.000000 0.000000 0.000000
0.584465 1.199166 1.743837 0.000000 0.000000 0.000000
0.561057 1.218278 1.809675 0.000000 0.000000 0.000000
0.550052 1.242301 1.851876 0.000000 0.000000 0.000000
0.546178 1.226980 1.857359 0.000000 0.000000 0.000000
0.594821 1.209412 1.745462 0.000000 0.000000 0.000000
0.546370 1.251676 1.863257 0.000000 0.000000 0.000000
0.567238 1.205756 1.762842 0.000000 0.000000 0.000000
0.547413 1.220770 1.827156 0.000000 0.000000 0.000000
0.548774 1.249963 1.854041 0.000000 0.000000 0.000000
0.560047 1.225421 1.815263 0.000000 0.000000 0.000000
0.549723 1.246738 1.863232 0.000000 0.000000 0.000000
0.540070 1.247943 1.879378 0.000000 0.000000 0.000000
0.594962 1.205999 1.753428 0.000000 0.000000 0.000000
0.560025 1.220897 1.807568 0.000000 0.000000 0.000000
0.572768 1.136070 1.548301 0.000000 0.000000 0.000000
0.559888 1.205224 1.775141 0.000000 0.000000 0.000000
0.558733 1.235296 1.847428 0.000000 0.000000 0.000000
0.565978 1.215860 1.764195 0.000000 0.000000 0.000000
0.543639 1.241266 1.868342 0.000000 0.000000 0.000000
0.592441 1.238501 1.853772 0.000000 0.000000 0.000000
0.616513 1.131709 1.559245 0.000000 0.000000 0.000000
0.553521 1.234230 1.841864 0.000000 0.000000 0.000000
0.583578 1.151131 1.587188 0.000000 0.000000 0.000000
0.566688 1.209084 1.776670 0.000000 0.000000 0.000000
0.561860 1.243627 1.841743 0.000000 0.000000 0.000000
0.570399 1.230228 1.825647 0.000000 0.000000 0.000000
0.556790 1.249629 1.854205 0.000000 0.000000 0.000000
0.571209 1.257803 1.877577 0.000000 0.000000 0.000000
0.541495 1.236469 1.869600 0.000000 0.000000 0.000000
0.545911 1.256097 1.860176 0.000000 0.000000 0.000000
0.558785 1.240783 1.843578 0.000000 0.000000 0.000000
0.544741 1.245507 1.868588 0.000000 0.000000 0.000000
0.544274 1.245283 1.865853 0.000000 0.000000 0.000000
0.559961 1.248128 1.844972 0.000000 0.000000 0.000000
0.537346 1.256687 1.877289 0.000000 0.000000 0.000000
0.546482 1.234079 1.860967 0.000000 0.000000 0.000000
0.560257 1.247813 1.843397 0.000000 0.000000 0.000000
0.599039 1.226432 1.830281 0.000000 0.000000 0.000000
0.549040 1.234348 1.856067 0.000000 0.000000 0.000000
0.562007 1.234372 1.831282 0.000000 0.000000 0.000000
0.552858 1.224205 1.839399 0.000000 0.000000 0.000000
0.573130 1.238496 1.825675 0.000000 0.000000 0.000000
0.542561 1.261417 1.867640 0.000000 0.000000 0.000000
0.559531 1.214648 1.791813 0.000000 0.000000 0.000000
0.601166 1.141367 1.591400 0.000000 0.000000 0.000000
0.592215 1.234088 1.841106 0.000000 0.000000 0.000000
0.615050 1.211921 1.776565 0.000000 0.000000 0.000000
0.577996 1.221019 1.786775 0.000000 0.000000 0.000000
0.569835 1.220753 1.789569 0.000000 0.000000 0.000000
0.610765 1.211467 1.777125 0.000000 0.000000 0.000000
0.571312 1.212828 1.793351 0.000000 0.000000 0.000000
0.555490 1.216611 1.838044 0.000000 0.000000 0.000000
0.620627 1.215775 1.779181 0.000000 0.000000 0.000000
0.595564 1.228059 1.823904 0.000000 0.000000 0.000000
0.586650 1.241349 1.868600 0.000000 0.000000 0.000000
0.581886 1.243138 1.876661 0.000000 0.000000 0.000000
0.555900 1.223517 1.820679 0.000000 0.000000 0.000000
0.572523 1.228027 1.836983 0.000000 0.000000 0.000000
0.545081 1.238716 1.860390 0.000000 0.000000 0.000000
0.550022 1.255824 1.859358 0.000000 0.000000 0.000000
0.556253 1.226578 1.822067 0.000000 0.000000 0.000000
0.569550 1.205987 1.756310 0.000000 0.000000 0.000000
0.543394 1.248186 1.852424 0.000000 0.000000 0.000000
0.587449 1.234083 1.854035 0.000000 0.000000 0.000000
0.602917 1.220544 1.826880 0.000000 0.000000 0.000000
0.584618 1.242554 1.868846 0.000000 0.000000 0.000000
0.547538 1.242120 1.859019 0.000000 0.000000 0.000000
0.555311 1.229327 1.846830 0.000000 0.000000 0.000000
0.549494 1.245284 1.846206 0.000000 0.000000 0.000000
0.570319 1.150766 1.599724 0.000000 0.000000 0.000000
0.559982 1.235057 1.833782 0.000000 0.000000 0.000000
0.546032 1.224596 1.840007 0.000000 0.000000 0.000000
0.592679 1.237697 1.859417 0.000000 0.000000 0.000000
0.538618 1.243562 1.872079 0.000000 0.000000 0.000000
0.634547 1.175755 1.554769 0.000000 0.000000 0.000000
0.629768 1.157729 1.538061 0.000000 0.000000 0.000000
0.549537 1.253554 1.865032 0.000000 0.000000 0.000000
0.594210 1.225775 1.822962 0.000000 0.000000 0.000000
0.614516 1.223786 1.804075 0.000000 0.000000 0.000000
0.618184 1.184889 1.532862 0.000000 0.000000 0.000000
0.613391 1.217859 1.797298 0.000000 0.000000 0.000000
0.556024 1.233816 1.834678 0.000000 0.000000 0.000000
0.571791 1.150260 1.595327 0.000000 0.000000 0.000000
0.564531 1.228277 1.832094 0.000000 0.000000 0.000000
0.567788 1.211319 1.780124 0.000000 0.000000 0.000000
0.611759 1.226481 1.806116 0.000000 0.000000 0.000000
0.583121 1.220587 1.780114 0.000000 0.000000 0.000000
0.564564 1.218155 1.817613 0.000000 0.000000 0.000000
0.544602 1.254696 1.859914 0.000000 0.000000 0.000000
0.585440 1.211823 1.742897 0.000000 0.000000 0.000000
0.526696 1.237299 1.877004 0.000000 0.000000 0.000000
0.544685 1.238312 1.863097 0.000000 0.000000 0.000000
0.546395 1.257049 1.862898 0.000000 0.000000 0.000000
0.635956 1.173412 1.551192 0.000000 0.000000 0.000000
0.544207 1.230410 1.854734 0.000000 0.000000 0.000000
0.593750 1.240242 1.826477 0.000000 0.000000 0.000000
0.553911 1.232733 1.838287 0.000000 0.000000 0.000000
0.612973 1.225980 1.799625 0.000000 0.000000 0.000000
0.616353 1.214152 1.776519 0.000000 0.000000 0.000000
0.596392 1.227889 1.832219 0.000000 0.000000 0.000000
0.590284 1.227716 1.828736 0.000000 0.000000 0.000000
0.596830 1.205663 1.727606 0.000000 0.000000 0.000000
0.534158 1.263835 1.875555 0.000000 0.000000 0.000000
0.560591 1.236553 1.808191 0.000000 0.000000 0.000000
0.594087 1.223160 1.818723 0.000000 0.000000 0.000000
0.572972 1.211506 1.775214 0.000000 0.000000 0.000000
0.592098 1.236418 1.833483 0.000000 0.000000 0.000000
0.546586 1.254499 1.877429 0.000000 0.000000 0.000000
0.626171 1.208589 1.764923 0.000000 0.000000 0.000000
0.591003 1.230374 1.829719 0.000000 0.000000 0.000000
0.576279 1.193499 1.735067 0.000000 0.000000 0.000000
0.584470 1.239768 1.852603 0.000000 0.000000 0.000000
0.599898 1.216119 1.799007 0.000000 0.000000 0.000000
0.584787 1.238928 1.868670 0.000000 0.000000 0.000000
0.601103 1.220507 1.807555 0.000000 0.000000 0.000000
0.555039 1.243614 1.835288 0.000000 0.000000 0.000000
0.583291 1.216106 1.769325 0.000000 0.000000 0.000000
0.562362 1.211267 1.790472 0.000000 0.000000 0.000000
0.579721 1.248692 1.875829 0.000000 0.000000 0.000000
0.563411 1.233337 1.827263 0.000000 0.000000 0.000000
0.551463 1.254086 1.853746 0.000000 0.000000 0.000000
0.561407 1.208864 1.778799 0.000000 0.000000 0.000000
0.550212 1.213287 1.806514 0.000000 0.000000 0.000000
0.564154 1.211070 1.772592 0.000000 0.000000 0.000000
0.560742 1.210305 1.782378 0.000000 0.000000 0.000000
0.548882 1.215260 1.814835 0.000000 0.000000 0.000000
0.529438 1.234091 1.862716 0.000000 0.000000 0.000000
0.595224 1.234791 1.822241 0.000000 0.000000 0.000000
0.596217 1.239585 1.836717 0.000000 0.000000 0.000000
0.580914 1.248944 1.876649 0.000000 0.000000 0.000000
0.558104 1.216366 1.805240 0.000000 0.000000 0.000000
0.597345 1.226967 1.833970 0.000000 0.000000 0.000000
0.578821 1.241967 1.864577 0.000000 0.000000 0.000000
0.596529 1.246095 1.840939 0.000000 0.000000 0.000000
0.581776 1.209720 1.781979 0.000000 0.000000 0.000000
0.585391 1.204666 1.748401 0.000000 0.000000 0.000000
0.595716 1.229838 1.834157 0.000000 0.000000 0.000000
0.583602 1.210354 1.782132 0.000000 0.000000 0.000000
0.585497 1.220564 1.786833 0.000000 0.000000 0.000000
0.555537 1.213587 1.798829 0.000000 0.000000 0.000000
0.611330 1.224405 1.818429 0.000000 0.000000 0.000000
0.592014 1.200140 1.752453 0.000000 0.000000 0.000000
0.595187 1.168391 1.587935 0.000000 0.000000 0.000000
0.619954 1.196070 1.534515 0.000000 0.000000 0.000000
0.604332 1.232388 1.831490 0.000000 0.000000 0.000000
0.590663 1.208662 1.764063 0.000000 0.000000 0.000000
0.610386 1.198508 1.546680 0.000000 0.000000 0.000000
0.578928 1.147627 1.593726 0.000000 0.000000 0.000000
0.553713 1.215197 1.809883 0.000000 0.000000 0.000000
0.564764 1.235588 1.839054 0.000000 0.000000 0.000000
0.548956 1.260825 1.869015 0.000000 0.000000 0.000000
0.559587 1.211688 1.792459 0.000000 0.000000 0.000000
0.555228 1.218071 1.812574 0.000000 0.000000 0.000000
0.567449 1.203329 1.762298 0.000000 0.000000 0.000000
0.542657 1.259721 1.876437 0.000000 0.000000 0.000000
0.603705 1.228829 1.820310 0.000000 0.000000 0.000000
0.562772 1.138151 1.567024 0.000000 0.000000 0.000000
0.598633 1.227683 1.817205 0.000000 0.000000 0.000000
0.559588 1.210507 1.791518 0.000000 0.000000 0.000000
0.556268 1.245360 1.854210 0.000000 0.000000 0.000000
0.556481 1.211164 1.790648 0.000000 0.000000 0.000000
0.562093 1.207745 1.782382 0.000000 0.000000 0.000000
0.550665 1.227827 1.845151 0.000000 0.000000 0.000000
0.566376 1.205929 1.764292 0.000000 0.000000 0.000000
0.589788 1.229174 1.835448 0.000000 0.000000 0.000000
0.604956 1.228527 1.809613 0.000000 0.000000 0.000000
0.594077 1.234969 1.845964 0.000000 0.000000 0.000000
0.597265 1.227477 1.813095 0.000000 0.000000 0.000000
0.563224 1.150130 1.588978 0.000000 0.000000 0.000000
0.583711 1.253235 1.871118 0.000000 0.000000 0.000000
0.620781 1.221238 1.811192 0.000000 0.000000 0.000000
0.536455 1.228046 1.843759 0.000000 0.000000 0.000000
0.548581 1.262256 1.868657 0.000000 0.000000 0.000000
0.578488 1.219368 1.776332 0.000000 0.000000 0.000000
0.619006 1.221795 1.780108 0.000000 0.000000 0.000000
0.614764 1.221801 1.793465 0.000000 0.000000 0.000000
0.584853 1.224816 1.788586 0.000000 0.000000 0.000000
0.553071 1.243495 1.857856 0.000000 0.000000 0.000000
0.620071 1.216768 1.782012 0.000000 0.000000 0.000000
0.564330 1.258164 1.851896 0.000000 0.000000 0.000000
0.616477 1.225344 1.809276 0.000000 0.000000 0.000000
0.591732 1.230362 1.840569 0.000000 0.000000 0.000000
0.595717 1.227418 1.817310 0.000000 0.000000 0.000000
0.555504 1.261566 1.868407 0.000000 0.000000 0.000000
0.559848 1.241363 1.861867 0.000000 0.000000 0.000000
0.549267 1.236766 1.845224 0.000000 0.000000 0.000000
0.588928 1.240150 1.873079 0.000000 0.000000 0.000000
0.574658 1.198497 1.748087 0.000000 0.000000 0.000000
0.554747 1.228911 1.832761 0.000000 0.000000 0.000000
0.582362 1.241084 1.865267 0.000000 0.000000 0.000000
0.608429 1.231405 1.829284 0.000000 0.000000 0.000000
0.553445 1.250708 1.855378 0.000000 0.000000 0.000000
0.569732 1.226762 1.821084 0.000000 0.000000 0.000000
0.548319 1.246598 1.841259 0.000000 0.000000 0.000000
0.560010 1.240214 1.842540 0.000000 0.000000 0.000000
0.565110 1.239879 1.832509 0.000000 0.000000 0.000000
0.567482 1.203629 1.746703 0.000000 0.000000 0.000000
0.596123 1.231820 1.829673 0.000000 0.000000 0.000000
0.591537 1.235640 1.862803 0.000000 0.000000 0.000000
0.575793 1.243057 1.873429 0.000000 0.000000 0.000000
0.605302 1.135929 1.538234 0.000000 0.000000 0.000000
0.589962 1.135089 1.547193 0.000000 0.000000 0.000000
0.594085 1.238570 1.845343 0.000000 0.000000 0.000000
0.609556 1.233454 1.824819 0.000000 0.000000 0.000000
0.597434 1.232994 1.846526 0.000000 0.000000 0.000000
0.585800 1.235690 1.845947 0.000000 0.000000 0.000000
0.560174 1.238121 1.836681 0.000000 0.000000 0.000000
0.544043 1.251532 1.860617 0.000000 0.000000 0.000000
0.539485 1.227698 1.849182 0.000000 0.000000 0.000000
0.541849 1.253769 1.856241 0.000000 0.000000 0.000000
0.634098 1.208136 1.763296 0.000000 0.000000 0.000000
0.566930 1.204584 1.770468 0.000000 0.000000 0.000000
0.601269 1.239991 1.819550 0.000000 0.000000 0.000000
0.552608 1.210506 1.796142 0.000000 0.000000 0.000000
0.534488 1.227940 1.849546 0.000000 0.000000 0.000000
0.594032 1.241574 1.829624 0.000000 0.000000 0.000000
0.547848 1.217722 1.820774 0.000000 0.000000 0.000000
0.603443 1.244152 1.825394 0.000000 0.000000 0.000000
0.597213 1.241088 1.823927 0.000000 0.000000 0.000000
0.592196 1.238868 1.824649 0.000000 0.000000 0.000000
0.574195 1.240295 1.878707 0.000000 0.000000 0.000000
0.577798 1.249740 1.879841 0.000000 0.000000 0.000000
0.577246 1.224017 1.802997 0.000000 0.000000 0.000000
0.616712 1.218372 1.777375 0.000000 0.000000 0.000000
0.586888 1.236420 1.855643 0.000000 0.000000 0.000000
0.619254 1.218876 1.785422 0.000000 0.000000 0.000000
0.551214 1.215697 1.812671 0.000000 0.000000 0.000000
0.620703 1.218334 1.785896 0.000000 0.000000 0.000000
0.532367 1.233317 1.864340 0.000000 0.000000 0.000000
0.573778 1.245408 1.874513 0.000000 0.000000 0.000000
0.541755 1.227704 1.843934 0.000000 0.000000 0.000000
0.553576 1.215489 1.804493 0.000000 0.000000 0.000000
0.554653 1.212130 1.794386 0.000000 0.000000 0.000000
0.572506 1.144019 1.573798 0.000000 0.000000 0.000000
0.556092 1.229108 1.827439 0.000000 0.000000 0.000000
0.562116 1.221967 1.807657 0.000000 0.000000 0.000000
0.554032 1.216907 1.810627 0.000000 0.000000 0.000000
0.561553 1.206484 1.775210 0.000000 0.000000 0.000000
0.607073 1.223128 1.814853 0.000000 0.000000 0.000000
0.565047 1.230754 1.828680 0.000000 0.000000 0.000000
0.585604 1.213089 1.759095 0.000000 0.000000 0.000000
0.546052 1.248835 1.850582 0.000000 0.000000 0.000000
0.588137 1.213279 1.756079 0.000000 0.000000 0.000000
0.562426 1.220203 1.805243 0.000000 0.000000 0.000000
0.576647 1.212685 1.756920 0.000000 0.000000 0.000000
0.565588 1.214746 1.798017 0.000000 0.000000 0.000000
0.558858 1.223417 1.814584 0.000000 0.000000 0.000000
0.544077 1.230713 1.855981 0.000000 0.000000 0.000000
0.603145 1.228599 1.809348 0.000000 0.000000 0.000000
0.579561 1.205493 1.753077 0.000000 0.000000 0.000000
0.559400 1.229291 1.837769 0.000000 0.000000 0.000000
0.555433 1.214992 1.800180 0.000000 0.000000 0.000000
0.581533 1.238726 1.867376 0.000000 0.000000 0.000000
0.554766 1.226243 1.832418 0.000000 0.000000 0.000000
0.580446 1.209120 1.771769 0.000000 0.000000 0.000000
0.546853 1.248941 1.846649 0.000000 0.000000 0.000000
0.574717 1.207505 1.765009 0.000000 0.000000 0.000000
0.577639 1.203485 1.744103 0.000000 0.000000 0.000000
0.611916 1.187785 1.546527 0.000000 0.000000 0.000000
0.574816 1.215261 1.789710 0.000000 0.000000 0.000000
0.576941 1.247523 1.874222 0.000000 0.000000 0.000000
0.606857 1.224690 1.800062 0.000000 0.000000 0.000000
0.572876 1.208833 1.766003 0.000000 0.000000 0.000000
0.560861 1.205701 1.772119 0.000000 0.000000 0.000000
0.566025 1.214886 1.786575 0.000000 0.000000 0.000000
0.565835 1.200673 1.747603 0.000000 0.000000 0.000000
0.618832 1.159465 1.527733 0.000000 0.000000 0.000000
0.587632 1.240092 1.854741 0.000000 0.000000 0.000000
0.586294 1.198907 1.725596 0.000000 0.000000 0.000000
0.545351 1.255405 1.865674 0.000000 0.000000 0.000000
0.612143 1.225497 1.815851 0.000000 0.000000 0.000000
0.544019 1.266492 1.878809 0.000000 0.000000 0.000000
0.548630 1.255644 1.864595 0.000000 0.000000 0.000000
0.599367 1.227812 1.810516 0.000000 0.000000 0.000000
0.607390 1.221827 1.798265 0.000000 0.000000 0.000000
0.542122 1.242925 1.874791 0.000000 0.000000 0.000000
0.605264 1.235219 1.815281 0.000000 0.000000 0.000000
0.622210 1.155140 1.530884 0.000000 0.000000 0.000000
0.600371 1.229641 1.839352 0.000000 0.000000 0.000000
0.569691 1.213611 1.789330 0.000000 0.000000 0.000000
0.544116 1.258448 1.873296 0.000000 0.000000 0.000000
0.606619 1.231115 1.826553 0.000000 0.000000 0.000000
0.543738 1.256130 1.873069 0.000000 0.000000 0.000000
0.558886 1.244617 1.848089 0.000000 0.000000 0.000000
0.610401 1.232494 1.805890 0.000000 0.000000 0.000000
0.612642 1.219317 1.788628 0.000000 0.000000 0.000000
0.619184 1.219620 1.799405 0.000000 0.000000 0.000000
0.533620 1.237191 1.877587 0.000000 0.000000 0.000000
0.618539 1.217836 1.796441 0.000000 0.000000 0.000000
0.620709 1.154049 1.591872 0.000000 0.000000 0.000000
0.570925 1.203929 1.762183 0.000000 0.000000 0.000000
0.614006 1.215748 1.782045 0.000000 0.000000 0.000000
0.546229 1.255617 1.858920 0.000000 0.000000 0.000000
0.593353 1.203681 1.720805 0.000000 0.000000 0.000000
0.566407 1.221792 1.819353 0.000000 0.000000 0.000000
0.579226 1.209851 1.780590 0.000000 0.000000 0.000000
0.568952 1.229677 1.808255 0.000000 0.000000 0.000000
0.603693 1.156827 1.572497 0.000000 0.000000 0.000000
0.589855 1.206577 1.734529 0.000000 0.000000 0.000000
0.578310 1.216572 1.795412 0.000000 0.000000 0.000000
0.539457 1.263318 1.879188 0.000000 0.000000 0.000000
0.578758 1.191073 1.722899 0.000000 0.000000 0.000000
0.604573 1.197136 1.539568 0.000000 0.000000 0.000000
0.555194 1.225370 1.840502 0.000000 0.000000 0.000000
0.575506 1.208897 1.773737 0.000000 0.000000 0.000000
0.530612 1.237913 1.877381 0.000000 0.000000 0.000000
0.612953 1.232392 1.801672 0.000000 0.000000 0.000000
0.617195 1.219428 1.781469 0.000000 0.000000 0.000000
0.616773 1.226223 1.788600 0.000000 0.000000 0.000000
0.622177 1.216955 1.794900 0.000000 0.000000 0.000000
0.623091 1.215050 1.789017 0.000000 0.000000 0.000000
0.573506 1.198680 1.749999 0.000000 0.000000 0.000000
0.587635 1.197759 1.730039 0.000000 0.000000 0.000000
0.613999 1.212790 1.777961 0.000000 0.000000 0.000000
0.591089 1.154781 1.591700 0.000000 0.000000 0.000000
0.621509 1.227061 1.779844 0.000000 0.000000 0.000000
0.561348 1.235290 1.811245 0.000000 0.000000 0.000000
0.617804 1.224568 1.802151 0.000000 0.000000 0.000000
0.578259 1.217344 1.798270 0.000000 0.000000 0.000000
0.563961 1.245119 1.827665 0.000000 0.000000 0.000000
0.572842 1.195826 1.741131 0.000000 0.000000 0.000000
0.582667 1.203793 1.746843 0.000000 0.000000 0.000000
0.607683 1.219919 1.802903 0.000000 0.000000 0.000000
0.603630 1.151847 1.587188 0.000000 0.000000 0.000000
0.620531 1.218218 1.768540 0.000000 0.000000 0.000000
0.589420 1.220111 1.783346 0.000000 0.000000 0.000000
0.620885 1.220167 1.797133 0.000000 0.000000 0.000000
0.587186 1.204273 1.722584 0.000000 0.000000 0.000000
0.638273 1.147994 1.560777 0.000000 0.000000 0.000000
0.579389 1.247646 1.875776 0.000000 0.000000 0.000000
0.576841 1.242360 1.874070 0.000000 0.000000 0.000000
0.584313 1.244555 1.871191 0.000000 0.000000 0.000000
0.573349 1.245884 1.877512 0.000000 0.000000 0.000000
0.584494 1.241434 1.874435 0.000000 0.000000 0.000000
0.550776 1.246024 1.832363 0.000000 0.000000 0.000000
0.595633 1.216975 1.769134 0.000000 0.000000 0.000000
0.576798 1.212600 1.756484 0.000000 0.000000 0.000000
0.580458 1.201372 1.744198 0.000000 0.000000 0.000000
0.583247 1.246801 1.865655 0.000000 0.000000 0.000000
0.556322 1.242755 1.824466 0.000000 0.000000 0.000000
0.546085 1.249955 1.845048 0.000000 0.000000 0.000000
0.587080 1.239170 1.867197 0.000000 0.000000 0.000000
0.593613 1.241014 1.832514 0.000000 0.000000 0.000000
0.580215 1.248044 1.871478 0.000000 0.000000 0.000000
0.581092 1.251057 1.872206 0.000000 0.000000 0.000000
0.581332 1.253206 1.868020 0.000000 0.000000 0.000000
0.623467 1.209642 1.772212 0.000000 0.000000 0.000000
0.624164 1.218168 1.786022 0.000000 0.000000 0.000000
0.588324 1.235610 1.839124 0.000000 0.000000 0.000000
0.576258 1.199150 1.741893 0.000000 0.000000 0.000000
0.599442 1.246442 1.835648 0.000000 0.000000 0.000000
0.616948 1.223233 1.803768 0.000000 0.000000 0.000000
0.560880 1.250364 1.843384 0.000000 0.000000 0.000000
0.586664 1.242737 1.856631 0.000000 0.000000 0.000000
0.577168 1.195067 1.727612 0.000000 0.000000 0.000000
0.598484 1.240904 1.829935 0.000000 0.000000 0.000000
0.593579 1.246601 1.841658 0.000000 0.000000 0.000000
0.572993 1.245020 1.876698 0.000000 0.000000 0.000000
0.629688 1.209286 1.768626 0.000000 0.000000 0.000000
0.566423 1.206669 1.764836 0.000000 0.000000 0.000000
0.616754 1.221002 1.800369 0.000000 0.000000 0.000000
0.630895 1.210550 1.777221 0.000000 0.000000 0.000000
0.582480 1.194578 1.733187 0.000000 0.000000 0.000000
0.541873 1.221978 1.819693 0.000000 0.000000 0.000000
0.623461 1.219123 1.792087 0.000000 0.000000 0.000000
0.624463 1.217022 1.788200 0.000000 0.000000 0.000000
0.621995 1.213150 1.765483 0.000000 0.000000 0.000000
0.542757 1.245484 1.869946 0.000000 0.000000 0.000000
0.545050 1.250491 1.873575 0.000000 0.000000 0.000000
0.537428 1.241046 1.879334 0.000000 0.000000 0.000000
0.594031 1.242973 1.838840 0.000000 0.000000 0.000000
0.591573 1.239515 1.837528 0.000000 0.000000 0.000000
0.553736 1.240016 1.844324 0.000000 0.000000 0.000000
0.543782 1.254368 1.862833 0.000000 0.000000 0.000000
0.600485 1.241282 1.826450 0.000000 0.000000 0.000000
0.598910 1.233983 1.837315 0.000000 0.000000 0.000000
0.575586 1.231270 1.868959 0.000000 0.000000 0.000000
0.611132 1.214142 1.789347 0.000000 0.000000 0.000000
0.614899 1.218442 1.802051 0.000000 0.000000 0.000000
0.607255 1.218245 1.792057 0.000000 0.000000 0.000000
0.574561 1.233239 1.815384 0.000000 0.000000 0.000000
0.588524 1.240009 1.846360 0.000000 0.000000 0.000000
0.616145 1.233226 1.797538 0.000000 0.000000 0.000000
0.606656 1.218305 1.794751 0.000000 0.000000 0.000000
0.614231 1.223414 1.793692 0.000000 0.000000 0.000000
0.585687 1.242560 1.868557 0.000000 0.000000 0.000000
0.610430 1.217038 1.795771 0.000000 0.000000 0.000000
0.591825 1.222197 1.772153 0.000000 0.000000 0.000000
0.545422 1.217302 1.821566 0.000000 0.000000 0.000000
0.591771 1.216848 1.781544 0.000000 0.000000 0.000000
0.616953 1.210033 1.767889 0.000000 0.000000 0.000000
0.604134 1.221062 1.804361 0.000000 0.000000 0.000000
0.587723 1.215321 1.787477 0.000000 0.000000 0.000000
0.566266 1.236087 1.827183 0.000000 0.000000 0.000000
0.616412 1.208346 1.762005 0.000000 0.000000 0.000000
0.565471 1.245294 1.834531 0.000000 0.000000 0.000000
0.566080 1.202342 1.755178 0.000000 0.000000 0.000000
0.574948 1.242091 1.872710 0.000000 0.000000 0.000000
0.588180 1.222418 1.783051 0.000000 0.000000 0.000000
0.553169 1.218055 1.820178 0.000000 0.000000 0.000000
0.561452 1.203159 1.769179 0.000000 0.000000 0.000000
0.576416 1.234314 1.794762 0.000000 0.000000 0.000000
0.570680 1.218623 1.809996 0.000000 0.000000 0.000000
0.617154 1.214336 1.767775 0.000000 0.000000 0.000000
0.573806 1.234745 1.812691 0.000000 0.000000 0.000000
0.567338 1.245828 1.832505 0.000000 0.000000 0.000000
0.548898 1.219015 1.824592 0.000000 0.000000 0.000000
0.550091 1.255638 1.860029 0.000000 0.000000 0.000000
0.554751 1.217571 1.816703 0.000000 0.000000 0.000000
0.552335 1.244208 1.863899 0.000000 0.000000 0.000000
0.629093 1.212186 1.764873 0.000000 0.000000 0.000000
0.586646 1.240662 1.859405 0.000000 0.000000 0.000000
0.626026 1.214618 1.764725 0.000000 0.000000 0.000000
0.553290 1.253037 1.853556 0.000000 0.000000 0.000000
0.592863 1.229081 1.824876 0.000000 0.000000 0.000000
0.558703 1.215250 1.804390 0.000000 0.000000 0.000000
0.585361 1.232537 1.859468 0.000000 0.000000 0.000000
0.582688 1.193129 1.726881 0.000000 0.000000 0.000000
0.595805 1.237543 1.850987 0.000000 0.000000 0.000000
0.581934 1.238900 1.856479 0.000000 0.000000 0.000000
0.541650 1.230456 1.852614 0.000000 0.000000 0.000000
0.533555 1.230182 1.857769 0.000000 0.000000 0.000000
0.583466 1.249016 1.867781 0.000000 0.000000 0.000000
0.577305 1.239304 1.873863 0.000000 0.000000 0.000000
0.588059 1.245303 1.857015 0.000000 0.000000 0.000000
0.545439 1.244724 1.877843 0.000000 0.000000 0.000000
0.529908 1.233527 1.868445 0.000000 0.000000 0.000000
0.586548 1.245787 1.869009 0.000000 0.000000 0.000000
0.538362 1.231681 1.857402 0.000000 0.000000 0.000000
0.580389 1.259204 1.857790 0.000000 0.000000 0.000000
0.575976 1.233505 1.812902 0.000000 0.000000 0.000000
0.570334 1.239354 1.818247 0.000000 0.000000 0.000000
0.571140 1.236147 1.825439 0.000000 0.000000 0.000000
0.570049 1.234695 1.816228 0.000000 0.000000 0.000000
0.558857 1.214498 1.781132 0.000000 0.000000 0.000000
0.596221 1.239748 1.848850 0.000000 0.000000 0.000000
0.553065 1.215180 1.806850 0.000000 0.000000 0.000000
0.575554 1.230325 1.801638 0.000000 0.000000 0.000000
0.567466 1.232310 1.822342 0.000000 0.000000 0.000000
0.574043 1.233023 1.816952 0.000000 0.000000 0.000000
0.570613 1.238394 1.825492 0.000000 0.000000 0.000000
0.566196 1.239247 1.834087 0.000000 0.000000 0.000000
0.569431 1.236973 1.815472 0.000000 0.000000 0.000000
0.564158 1.215336 1.772838 0.000000 0.000000 0.000000
0.571968 1.228054 1.810653 0.000000 0.000000 0.000000
0.606382 1.235323 1.827462 0.000000 0.000000 0.000000
0.554623 1.216552 1.797314 0.000000 0.000000 0.000000
0.577273 1.230035 1.792864 0.000000 0.000000 0.000000
0.560473 1.237905 1.846899 0.000000 0.000000 0.000000
0.575693 1.225887 1.814960 0.000000 0.000000 0.000000
0.573022 1.240266 1.824762 0.000000 0.000000 0.000000
0.591871 1.241074 1.859105 0.000000 0.000000 0.000000
0.568511 1.233509 1.801826 0.000000 0.000000 0.000000
0.606889 1.213308 1.789965 0.000000 0.000000 0.000000
0.547795 1.214072 1.812751 0.000000 0.000000 0.000000
0.572298 1.154087 1.582340 0.000000 0.000000 0.000000
0.548990 1.215100 1.813077 0.000000 0.000000 0.000000
0.545173 1.262843 1.875073 0.000000 0.000000 0.000000
0.591533 1.152408 1.600631 0.000000 0.000000 0.000000
0.545053 1.224168 1.836787 0.000000 0.000000 0.000000
0.574009 1.155002 1.590788 0.000000 0.000000 0.000000
0.580690 1.151932 1.601645 0.000000 0.000000 0.000000
0.537157 1.235045 1.873413 0.000000 0.000000 0.000000
0.567381 1.239457 1.821222 0.000000 0.000000 0.000000
0.547721 1.222219 1.830585 0.000000 0.000000 0.000000
0.580207 1.190880 1.721833 0.000000 0.000000 0.000000
0.591670 1.246096 1.851305 0.000000 0.000000 0.000000
0.548138 1.228764 1.849991 0.000000 0.000000 0.000000
0.600304 1.150393 1.603150 0.000000 0.000000 0.000000
0.548935 1.223897 1.836913 0.000000 0.000000 0.000000
0.563975 1.234449 1.820480 0.000000 0.000000 0.000000
0.569913 1.235618 1.814086 0.000000 0.000000 0.000000
0.577989 1.193259 1.732566 0.000000 0.000000 0.000000
0.590067 1.243456 1.849903 0.000000 0.000000 0.000000
0.616620 1.218080 1.790394 0.000000 0.000000 0.000000
0.627032 1.213620 1.778628 0.000000 0.000000 0.000000
0.627431 1.214585 1.776495 0.000000 0.000000 0.000000
0.607982 1.236958 1.817749 0.000000 0.000000 0.000000
0.586768 1.240353 1.849917 0.000000 0.000000 0.000000
0.571845 1.236606 1.816193 0.000000 0.000000 0.000000
0.602996 1.236405 1.813110 0.000000 0.000000 0.000000
0.607489 1.227551 1.829338 0.000000 0.000000 0.000000
0.555312 1.208076 1.783935 0.000000 0.000000 0.000000
0.536423 1.230800 1.855170 0.000000 0.000000 0.000000
0.598939 1.229481 1.835801 0.000000 0.000000 0.000000
0.594822 1.238914 1.853803 0.000000 0.000000 0.000000
0.593429 1.232527 1.850526 0.000000 0.000000 0.000000
0.589340 1.239488 1.865155 0.000000 0.000000 0.000000
0.614231 1.223184 1.807958 0.000000 0.000000 0.000000
0.605361 1.229690 1.801145 0.000000 0.000000 0.000000
0.555589 1.209273 1.789465 0.000000 0.000000 0.000000
0.588740 1.234363 1.858389 0.000000 0.000000 0.000000
0.592490 1.239504 1.859963 0.000000 0.000000 0.000000
0.600439 1.236168 1.840031 0.000000 0.000000 0.000000
0.583480 1.241112 1.875349 0.000000 0.000000 0.000000
0.578252 1.227358 1.802877 0.000000 0.000000 0.000000
0.564802 1.225126 1.816558 0.000000 0.000000 0.000000
0.554676 1.240180 1.824548 0.000000 0.000000 0.000000
0.545397 1.222607 1.836705 0.000000 0.000000 0.000000
0.568564 1.229954 1.809516 0.000000 0.000000 0.000000
0.549549 1.225952 1.841155 0.000000 0.000000 0.000000
0.559299 1.242989 1.826621 0.000000 0.000000 0.000000
0.535365 1.229688 1.858468 0.000000 0.000000 0.000000
0.573697 1.227170 1.799295 0.000000 0.000000 0.000000
0.547234 1.222809 1.833877 0.000000 0.000000 0.000000
0.549168 1.223822 1.837550 0.000000 0.000000 0.000000
0.548000 1.224880 1.837266 0.000000 0.000000 0.000000
0.548768 1.227077 1.844366 0.000000 0.000000 0.000000
0.547792 1.262197 1.866931 0.000000 0.000000 0.000000
0.564964 1.217488 1.794960 0.000000 0.000000 0.000000
0.567537 1.212262 1.777815 0.000000 0.000000 0.000000
0.533099 1.235157 1.870286 0.000000 0.000000 0.000000
0.580803 1.250568 1.876968 0.000000 0.000000 0.000000
0.541310 1.229280 1.846654 0.000000 0.000000 0.000000
0.538697 1.233052 1.862347 0.000000 0.000000 0.000000
0.601363 1.223159 1.812275 0.000000 0.000000 0.000000
0.560210 1.248174 1.849397 0.000000 0.000000 0.000000
0.621817 1.214693 1.769830 0.000000 0.000000 0.000000
0.624802 1.218608 1.775746 0.000000 0.000000 0.000000
0.551256 1.249057 1.872126 0.000000 0.000000 0.000000
0.548595 1.250724 1.878884 0.000000 0.000000 0.000000
0.549740 1.215266 1.813630 0.000000 0.000000 0.000000
0.553703 1.222777 1.822382 0.000000 0.000000 0.000000
0.541765 1.225225 1.837083 0.000000 0.000000 0.000000
0.540603 1.223906 1.834175 0.000000 0.000000 0.000000
0.547679 1.258134 1.863700 0.000000 0.000000 0.000000
0.558654 1.217598 1.814130 0.000000 0.000000 0.000000
0.569206 1.210300 1.776855 0.000000 0.000000 0.000000
0.579364 1.253211 1.879803 0.000000 0.000000 0.000000
0.603491 1.217412 1.799110 0.000000 0.000000 0.000000
0.553125 1.254931 1.860694 0.000000 0.000000 0.000000
0.537150 1.234407 1.870894 0.000000 0.000000 0.000000
0.549381 1.245245 1.869075 0.000000 0.000000 0.000000
0.549893 1.249163 1.873838 0.000000 0.000000 0.000000
0.553168 1.219506 1.826276 0.000000 0.000000 0.000000
0.561692 1.217577 1.798614 0.000000 0.000000 0.000000
0.546489 1.219680 1.821574 0.000000 0.000000 0.000000
0.542906 1.223570 1.831399 0.000000 0.000000 0.000000
0.584200 1.220949 1.779572 0.000000 0.000000 0.000000
0.594627 1.216260 1.770394 0.000000 0.000000 0.000000
0.570030 1.219620 1.781948 0.000000 0.000000 0.000000
0.587978 1.219678 1.775151 0.000000 0.000000 0.000000
0.576615 1.221820 1.782123 0.000000 0.000000 0.000000
0.561900 1.223861 1.824412 0.000000 0.000000 0.000000
0.579702 1.215693 1.765706 0.000000 0.000000 0.000000
0.587385 1.221193 1.786632 0.000000 0.000000 0.000000
0.569280 1.225976 1.808824 0.000000 0.000000 0.000000
0.573366 1.230093 1.817018 0.000000 0.000000 0.000000
0.581119 1.223724 1.798903 0.000000 0.000000 0.000000
0.591422 1.216178 1.763388 0.000000 0.000000 0.000000
0.588252 1.212450 1.764873 0.000000 0.000000 0.000000
0.570548 1.223903 1.789099 0.000000 0.000000 0.000000
0.564103 1.237558 1.815118 0.000000 0.000000 0.000000
0.575378 1.220545 1.782714 0.000000 0.000000 0.000000
0.560224 1.233292 1.823616 0.000000 0.000000 0.000000
0.567708 1.226359 1.798199 0.000000 0.000000 0.000000
0.573372 1.220182 1.776901 0.000000 0.000000 0.000000
0.586581 1.224650 1.791542 0.000000 0.000000 0.000000
0.581191 1.226267 1.788555 0.000000 0.000000 0.000000
0.583260 1.220747 1.796124 0.000000 0.000000 0.000000
0.575196 1.203505 1.739578 0.000000 0.000000 0.000000
0.576251 1.235577 1.810226 0.000000 0.000000 0.000000
0.577172 1.230387 1.806126 0.000000 0.000000 0.000000
0.582599 1.224845 1.798404 0.000000 0.000000 0.000000
0.622808 1.212355 1.781320 0.000000 0.000000 0.000000
0.615488 1.211940 1.783122 0.000000 0.000000 0.000000
0.545765 1.223244 1.834153 0.000000 0.000000 0.000000
0.581330 1.229953 1.798950 0.000000 0.000000 0.000000
0.605893 1.163270 1.541108 0.000000 0.000000 0.000000
0.607186 1.215469 1.791898 0.000000 0.000000 0.000000
0.615281 1.211372 1.775043 0.000000 0.000000 0.000000
0.610983 1.212171 1.782618 0.000000 0.000000 0.000000
0.621785 1.175256 1.536460 0.000000 0.000000 0.000000
0.605801 1.220941 1.797312 0.000000 0.000000 0.000000
0.620338 1.210814 1.779053 0.000000 0.000000 0.000000
0.609384 1.214273 1.783742 0.000000 0.000000 0.000000
0.546177 1.230286 1.841924 0.000000 0.000000 0.000000
0.555005 1.217579 1.808147 0.000000 0.000000 0.000000
0.578293 1.224821 1.806189 0.000000 0.000000 0.000000
0.586444 1.239060 1.851076 0.000000 0.000000 0.000000
0.547642 1.215219 1.812610 0.000000 0.000000 0.000000
0.608442 1.215590 1.807034 0.000000 0.000000 0.000000
0.594455 1.211760 1.773769 0.000000 0.000000 0.000000
0.581346 1.218661 1.801179 0.000000 0.000000 0.000000
0.594785 1.221576 1.784832 0.000000 0.000000 0.000000
0.584752 1.235306 1.851866 0.000000 0.000000 0.000000
0.551010 1.212325 1.802864 0.000000 0.000000 0.000000
0.604061 1.219948 1.816978 0.000000 0.000000 0.000000
0.597417 1.208808 1.761312 0.000000 0.000000 0.000000
0.580373 1.221980 1.795502 0.000000 0.000000 0.000000
0.605476 1.222993 1.774825 0.000000 0.000000 0.000000
0.635041 1.158836 1.557168 0.000000 0.000000 0.000000
0.587135 1.234156 1.845033 0.000000 0.000000 0.000000
0.549199 1.216036 1.812780 0.000000 0.000000 0.000000
0.582138 1.238227 1.858917 0.000000 0.000000 0.000000
0.580440 1.238933 1.860860 0.000000 0.000000 0.000000
0.581139 1.240142 1.862060 0.000000 0.000000 0.000000
0.585075 1.251619 1.861835 0.000000 0.000000 0.000000
0.540705 1.221817 1.832491 0.000000 0.000000 0.000000
0.549458 1.226917 1.841946 0.000000 0.000000 0.000000
0.550866 1.215408 1.812276 0.000000 0.000000 0.000000
0.581039 1.246989 1.860360 0.000000 0.000000 0.000000
0.579758 1.253110 1.862737 0.000000 0.000000 0.000000
0.575568 1.230283 1.808920 0.000000 0.000000 0.000000
0.555571 1.217065 1.807970 0.000000 0.000000 0.000000
0.551672 1.231583 1.835580 0.000000 0.000000 0.000000
0.547828 1.217786 1.821181 0.000000 0.000000 0.000000
0.581315 1.249951 1.858988 0.000000 0.000000 0.000000
0.583009 1.246613 1.859857 0.000000 0.000000 0.000000
0.574076 1.235774 1.817098 0.000000 0.000000 0.000000
0.545832 1.219248 1.824747 0.000000 0.000000 0.000000
0.542415 1.228653 1.849889 0.000000 0.000000 0.000000
0.561761 1.206339 1.770308 0.000000 0.000000 0.000000
0.561022 1.203023 1.760389 0.000000 0.000000 0.000000
0.562582 1.203663 1.763723 0.000000 0.000000 0.000000
0.553399 1.227928 1.844750 0.000000 0.000000 0.000000
0.550992 1.227178 1.848486 0.000000 0.000000 0.000000
0.548405 1.239158 1.855738 0.000000 0.000000 0.000000
0.534619 1.234755 1.867491 0.000000 0.000000 0.000000
0.570440 1.197123 1.738369 0.000000 0.000000 0.000000
0.578245 1.193790 1.734914 0.000000 0.000000 0.000000
0.576927 1.196089 1.731783 0.000000 0.000000 0.000000
0.632393 1.206555 1.767001 0.000000 0.000000 0.000000
0.588845 1.247324 1.850170 0.000000 0.000000 0.000000
0.530948 1.235996 1.877747 0.000000 0.000000 0.000000
0.543782 1.231263 1.852881 0.000000 0.000000 0.000000
0.546059 1.227180 1.844434 0.000000 0.000000 0.000000
0.572491 1.198702 1.727445 0.000000 0.000000 0.000000
0.539049 1.234220 1.861025 0.000000 0.000000 0.000000
0.549057 1.228863 1.848813 0.000000 0.000000 0.000000
0.569900 1.199345 1.740976 0.000000 0.000000 0.000000
0.570740 1.199831 1.744254 0.000000 0.000000 0.000000
0.577091 1.195624 1.740034 0.000000 0.000000 0.000000
0.590616 1.242893 1.842635 0.000000 0.000000 0.000000
0.532234 1.232178 1.867098 0.000000 0.000000 0.000000
0.539828 1.231331 1.852529 0.000000 0.000000 0.000000
0.579444 1.231827 1.806320 0.000000 0.000000 0.000000
0.542909 1.227306 1.844640 0.000000 0.000000 0.000000
0.571726 1.239591 1.824164 0.000000 0.000000 0.000000
0.590671 1.136092 1.538855 0.000000 0.000000 0.000000
0.575131 1.234793 1.804213 0.000000 0.000000 0.000000
0.614637 1.224586 1.816572 0.000000 0.000000 0.000000
0.601210 1.230529 1.842481 0.000000 0.000000 0.000000
0.587611 1.235612 1.855904 0.000000 0.000000 0.000000
0.597932 1.142681 1.542205 0.000000 0.000000 0.000000
0.570123 1.239387 1.817503 0.000000 0.000000 0.000000
0.607172 1.226479 1.821347 0.000000 0.000000 0.000000
0.599162 1.227850 1.837341 0.000000 0.000000 0.000000
0.604128 1.231649 1.831156 0.000000 0.000000 0.000000
