ply
format ascii 1.0
comment VCGLIB generated
obj_info Generated by SPFormer!
element vertex 210
property float x
property float y
property float z
property float nx
property float ny
property float nz
end_header
0.823275 1.096000 1.003390 0.000000 0.000000 0.000000
0.811446 1.115855 1.005544 0.000000 0.000000 0.000000
0.808846 1.093237 1.010118 0.000000 0.000000 0.000000
0.821222 1.097178 1.010987 0.000000 0.000000 0.000000
0.818682 1.098799 1.016407 0.000000 0.000000 0.000000
0.821970 1.105281 1.016437 0.000000 0.000000 0.000000
0.823095 1.089226 0.999713 0.000000 0.000000 0.000000
0.819609 1.092345 0.999277 0.000000 0.000000 0.000000
0.805803 1.093235 1.002965 0.000000 0.000000 0.000000
0.800418 1.098749 1.022871 0.000000 0.000000 0.000000
0.819843 1.096573 1.004683 0.000000 0.000000 0.000000
0.825596 1.094080 1.000986 0.000000 0.000000 0.000000
0.807849 1.096540 1.009744 0.000000 0.000000 0.000000
0.816830 1.094031 1.003608 0.000000 0.000000 0.000000
0.821532 1.094123 1.001232 0.000000 0.000000 0.000000
0.804393 1.093979 1.004591 0.000000 0.000000 0.000000
0.819053 1.092420 1.004092 0.000000 0.000000 0.000000
0.805924 1.095910 1.015745 0.000000 0.000000 0.000000
0.803074 1.098610 1.020763 0.000000 0.000000 0.000000
0.816903 1.098387 1.010376 0.000000 0.000000 0.000000
0.806579 1.096481 1.002333 0.000000 0.000000 0.000000
0.819124 1.097002 1.008602 0.000000 0.000000 0.000000
0.814732 1.111227 1.010049 0.000000 0.000000 0.000000
0.811949 1.098827 1.010464 0.000000 0.000000 0.000000
0.818751 1.117495 1.020379 0.000000 0.000000 0.000000
0.815321 1.096642 1.024483 0.000000 0.000000 0.000000
0.814288 1.096887 1.004575 0.000000 0.000000 0.000000
0.819744 1.091355 0.998371 0.000000 0.000000 0.000000
0.819163 1.096537 1.008214 0.000000 0.000000 0.000000
0.806918 1.110095 1.006269 0.000000 0.000000 0.000000
0.822151 1.096368 1.005467 0.000000 0.000000 0.000000
0.824309 1.105718 1.011150 0.000000 0.000000 0.000000
0.814842 1.095877 1.002020 0.000000 0.000000 0.000000
0.821549 1.104264 1.015486 0.000000 0.000000 0.000000
0.814006 1.098726 1.015081 0.000000 0.000000 0.000000
0.805879 1.095001 1.011488 0.000000 0.000000 0.000000
0.818586 1.098390 1.005694 0.000000 0.000000 0.000000
0.816080 1.090565 0.994176 0.000000 0.000000 0.000000
0.809593 1.091544 1.011811 0.000000 0.000000 0.000000
0.808633 1.092703 1.008266 0.000000 0.000000 0.000000
0.812161 1.098078 1.003060 0.000000 0.000000 0.000000
0.821236 1.092965 1.000166 0.000000 0.000000 0.000000
0.820067 1.096401 1.003471 0.000000 0.000000 0.000000
0.807795 1.099152 1.021968 0.000000 0.000000 0.000000
0.823343 1.093509 1.019635 0.000000 0.000000 0.000000
0.820777 1.102135 1.015066 0.000000 0.000000 0.000000
0.803923 1.104534 1.013564 0.000000 0.000000 0.000000
0.825079 1.117790 1.017732 0.000000 0.000000 0.000000
0.809664 1.107313 1.006946 0.000000 0.000000 0.000000
0.814459 1.119586 1.007021 0.000000 0.000000 0.000000
0.806809 1.098251 1.009439 0.000000 0.000000 0.000000
0.811503 1.096958 1.003664 0.000000 0.000000 0.000000
0.810703 1.093531 1.014109 0.000000 0.000000 0.000000
0.817740 1.111171 1.012867 0.000000 0.000000 0.000000
0.822800 1.095077 1.016415 0.000000 0.000000 0.000000
0.807038 1.100748 1.014712 0.000000 0.000000 0.000000
0.804717 1.095124 1.016848 0.000000 0.000000 0.000000
0.821609 1.091809 1.002719 0.000000 0.000000 0.000000
0.817766 1.101279 1.016869 0.000000 0.000000 0.000000
0.819898 1.100623 1.017769 0.000000 0.000000 0.000000
0.804226 1.094449 0.997234 0.000000 0.000000 0.000000
0.810658 1.097442 1.010918 0.000000 0.000000 0.000000
0.804137 1.105503 1.015914 0.000000 0.000000 0.000000
0.810437 1.099139 1.013310 0.000000 0.000000 0.000000
0.815817 1.097975 1.004790 0.000000 0.000000 0.000000
0.816357 1.111050 1.012543 0.000000 0.000000 0.000000
0.822384 1.112118 1.015420 0.000000 0.000000 0.000000
0.812854 1.093864 1.007277 0.000000 0.000000 0.000000
0.818780 1.110744 1.014658 0.000000 0.000000 0.000000
0.817567 1.105055 1.013732 0.000000 0.000000 0.000000
0.821648 1.112384 1.015321 0.000000 0.000000 0.000000
0.803300 1.103906 1.007253 0.000000 0.000000 0.000000
0.815145 1.098981 1.016891 0.000000 0.000000 0.000000
0.808504 1.108033 1.005427 0.000000 0.000000 0.000000
0.823028 1.095675 1.000072 0.000000 0.000000 0.000000
0.816919 1.110509 1.011842 0.000000 0.000000 0.000000
0.817719 1.092158 0.999450 0.000000 0.000000 0.000000
0.804294 1.093390 1.016033 0.000000 0.000000 0.000000
0.819503 1.108749 1.013579 0.000000 0.000000 0.000000
0.816489 1.111100 1.011257 0.000000 0.000000 0.000000
0.816745 1.114818 1.012941 0.000000 0.000000 0.000000
0.822444 1.110795 1.015659 0.000000 0.000000 0.000000
0.806622 1.096673 1.014010 0.000000 0.000000 0.000000
0.816880 1.111412 1.012622 0.000000 0.000000 0.000000
0.825917 1.108265 1.018759 0.000000 0.000000 0.000000
0.813376 1.099220 1.006003 0.000000 0.000000 0.000000
0.805308 1.095619 1.001193 0.000000 0.000000 0.000000
0.820090 1.094598 1.004529 0.000000 0.000000 0.000000
0.812182 1.090776 1.007281 0.000000 0.000000 0.000000
0.819844 1.091441 1.000974 0.000000 0.000000 0.000000
0.826262 1.109271 1.018253 0.000000 0.000000 0.000000
0.802648 1.095386 1.015947 0.000000 0.000000 0.000000
0.810681 1.106875 1.008806 0.000000 0.000000 0.000000
0.809702 1.094548 1.003244 0.000000 0.000000 0.000000
0.809676 1.094366 1.010136 0.000000 0.000000 0.000000
0.806670 1.091580 1.002948 0.000000 0.000000 0.000000
0.818625 1.094776 1.006358 0.000000 0.000000 0.000000
0.808656 1.103970 1.031751 0.000000 0.000000 0.000000
0.821620 1.091750 1.006075 0.000000 0.000000 0.000000
0.811484 1.098046 1.004382 0.000000 0.000000 0.000000
0.816417 1.112741 1.012262 0.000000 0.000000 0.000000
0.808449 1.106858 1.006815 0.000000 0.000000 0.000000
0.814354 1.087546 1.008952 0.000000 0.000000 0.000000
0.800577 1.097530 1.023250 0.000000 0.000000 0.000000
0.810731 1.105399 1.022806 0.000000 0.000000 0.000000
0.801955 1.102877 1.024821 0.000000 0.000000 0.000000
0.816206 1.111724 1.011918 0.000000 0.000000 0.000000
0.815103 1.107239 1.010764 0.000000 0.000000 0.000000
0.802629 1.107455 1.004615 0.000000 0.000000 0.000000
0.815512 1.100560 1.013890 0.000000 0.000000 0.000000
0.824836 1.095468 1.020578 0.000000 0.000000 0.000000
0.814410 1.113616 1.009024 0.000000 0.000000 0.000000
0.816724 1.110807 1.011538 0.000000 0.000000 0.000000
0.812857 1.109623 1.008034 0.000000 0.000000 0.000000
0.820330 1.092969 1.001576 0.000000 0.000000 0.000000
0.820789 1.096979 0.997106 0.000000 0.000000 0.000000
0.819880 1.097027 1.004850 0.000000 0.000000 0.000000
0.815256 1.093427 0.999236 0.000000 0.000000 0.000000
0.822610 1.091351 1.002843 0.000000 0.000000 0.000000
0.800232 1.097906 1.021324 0.000000 0.000000 0.000000
0.801145 1.095960 1.016768 0.000000 0.000000 0.000000
0.806814 1.095478 1.014680 0.000000 0.000000 0.000000
0.809650 1.105762 1.010130 0.000000 0.000000 0.000000
0.811828 1.094920 0.999513 0.000000 0.000000 0.000000
0.814333 1.096865 1.004302 0.000000 0.000000 0.000000
0.811640 1.097973 1.004410 0.000000 0.000000 0.000000
0.808644 1.103298 1.006689 0.000000 0.000000 0.000000
0.810902 1.096164 1.005830 0.000000 0.000000 0.000000
0.819688 1.090046 1.002789 0.000000 0.000000 0.000000
0.801925 1.095246 1.018300 0.000000 0.000000 0.000000
0.825999 1.097417 1.019475 0.000000 0.000000 0.000000
0.810948 1.116853 0.997242 0.000000 0.000000 0.000000
0.821603 1.107054 1.013233 0.000000 0.000000 0.000000
0.826992 1.105774 1.016634 0.000000 0.000000 0.000000
0.818654 1.097998 1.019117 0.000000 0.000000 0.000000
0.817461 1.107090 1.014876 0.000000 0.000000 0.000000
0.822941 1.107357 1.015148 0.000000 0.000000 0.000000
0.820318 1.100589 1.015493 0.000000 0.000000 0.000000
0.813986 1.113994 1.007545 0.000000 0.000000 0.000000
0.820714 1.111779 1.013664 0.000000 0.000000 0.000000
0.813757 1.112630 1.009164 0.000000 0.000000 0.000000
0.812446 1.104594 1.010683 0.000000 0.000000 0.000000
0.819732 1.101733 1.015062 0.000000 0.000000 0.000000
0.816813 1.092609 1.014250 0.000000 0.000000 0.000000
0.806242 1.093585 0.998265 0.000000 0.000000 0.000000
0.805342 1.093087 1.001507 0.000000 0.000000 0.000000
0.810127 1.090307 0.997954 0.000000 0.000000 0.000000
0.817249 1.089209 1.004516 0.000000 0.000000 0.000000
0.812327 1.095482 1.001708 0.000000 0.000000 0.000000
0.820221 1.097142 1.000337 0.000000 0.000000 0.000000
0.814639 1.098622 1.005005 0.000000 0.000000 0.000000
0.819175 1.096092 1.004962 0.000000 0.000000 0.000000
0.808071 1.102817 1.009171 0.000000 0.000000 0.000000
0.809685 1.094386 0.996672 0.000000 0.000000 0.000000
0.804707 1.094714 1.006280 0.000000 0.000000 0.000000
0.801931 1.098340 1.019403 0.000000 0.000000 0.000000
0.817660 1.086501 1.003128 0.000000 0.000000 0.000000
0.810293 1.091785 1.018842 0.000000 0.000000 0.000000
0.808802 1.093554 1.011682 0.000000 0.000000 0.000000
0.823971 1.106811 1.016116 0.000000 0.000000 0.000000
0.801756 1.094993 1.010745 0.000000 0.000000 0.000000
0.816292 1.114093 1.009337 0.000000 0.000000 0.000000
0.819285 1.109137 1.013443 0.000000 0.000000 0.000000
0.823806 1.106402 1.016758 0.000000 0.000000 0.000000
0.813045 1.110402 1.009053 0.000000 0.000000 0.000000
0.800077 1.101291 1.024855 0.000000 0.000000 0.000000
0.815685 1.094139 0.999056 0.000000 0.000000 0.000000
0.819207 1.091375 1.000883 0.000000 0.000000 0.000000
0.819647 1.095671 1.009612 0.000000 0.000000 0.000000
0.802364 1.108482 1.000309 0.000000 0.000000 0.000000
0.812519 1.092152 1.004773 0.000000 0.000000 0.000000
0.804519 1.100012 1.001567 0.000000 0.000000 0.000000
0.802914 1.097377 1.022575 0.000000 0.000000 0.000000
0.814624 1.092286 1.005846 0.000000 0.000000 0.000000
0.815272 1.091909 1.003856 0.000000 0.000000 0.000000
0.814816 1.101736 1.012680 0.000000 0.000000 0.000000
0.808613 1.111346 1.004829 0.000000 0.000000 0.000000
0.808821 1.098861 1.013916 0.000000 0.000000 0.000000
0.807552 1.104608 1.008336 0.000000 0.000000 0.000000
0.810845 1.093207 1.009392 0.000000 0.000000 0.000000
0.813911 1.110257 1.007989 0.000000 0.000000 0.000000
0.807836 1.108352 1.007294 0.000000 0.000000 0.000000
0.816729 1.104682 1.010109 0.000000 0.000000 0.000000
0.810055 1.094129 1.010179 0.000000 0.000000 0.000000
0.812567 1.109007 1.008143 0.000000 0.000000 0.000000
0.806581 1.093638 1.011494 0.000000 0.000000 0.000000
0.805602 1.111287 1.000819 0.000000 0.000000 0.000000
0.802657 1.099097 1.025912 0.000000 0.000000 0.000000
0.815620 1.099891 1.019012 0.000000 0.000000 0.000000
0.813935 1.098839 1.006913 0.000000 0.000000 0.000000
0.812985 1.099057 1.014927 0.000000 0.000000 0.000000
0.800524 1.096928 1.018605 0.000000 0.000000 0.000000
0.819988 1.099630 1.015266 0.000000 0.000000 0.000000
0.806822 1.097737 1.018907 0.000000 0.000000 0.000000
0.808882 1.091515 1.009896 0.000000 0.000000 0.000000
0.818453 1.092241 1.001572 0.000000 0.000000 0.000000
0.822911 1.106547 1.016601 0.000000 0.000000 0.000000
0.823261 1.108755 1.016595 0.000000 0.000000 0.000000
0.807887 1.094899 1.009280 0.000000 0.000000 0.000000
0.812245 1.113754 1.008633 0.000000 0.000000 0.000000
0.822065 1.101320 1.014710 0.000000 0.000000 0.000000
0.821006 1.101611 1.019075 0.000000 0.000000 0.000000
0.819605 1.097512 1.014127 0.000000 0.000000 0.000000
0.817874 1.098637 1.020928 0.000000 0.000000 0.000000
0.824805 1.098427 1.018280 0.000000 0.000000 0.000000
0.826400 1.106775 1.019837 0.000000 0.000000 0.000000
0.821301 1.099592 1.013360 0.000000 0.000000 0.000000
0.820760 1.109209 1.018461 0.000000 0.000000 0.000000
0.821777 1.107750 1.016048 0.000000 0.000000 0.000000
0.823898 1.108659 1.016942 0.000000 0.000000 0.000000
