ply
format ascii 1.0
comment VCGLIB generated
obj_info Generated by SPFormer!
element vertex 100
property float x
property float y
property float z
property float nx
property float ny
property float nz
end_header
0.387760 1.003217 2.448613 0.000000 0.000000 0.000000
0.390197 1.011364 2.452981 0.000000 0.000000 0.000000
0.395178 1.007038 2.456672 0.000000 0.000000 0.000000
0.361282 1.016368 2.478111 0.000000 0.000000 0.000000
0.388806 1.009771 2.460165 0.000000 0.000000 0.000000
0.395571 1.003140 2.447042 0.000000 0.000000 0.000000
0.396728 1.005318 2.459134 0.000000 0.000000 0.000000
0.392702 1.009142 2.459505 0.000000 0.000000 0.000000
0.382251 1.008652 2.457206 0.000000 0.000000 0.000000
0.395844 1.009036 2.462752 0.000000 0.000000 0.000000
0.361831 1.012568 2.479343 0.000000 0.000000 0.000000
0.400854 1.004326 2.452832 0.000000 0.000000 0.000000
0.376256 1.011787 2.478989 0.000000 0.000000 0.000000
0.385976 1.006380 2.454581 0.000000 0.000000 0.000000
0.390478 1.009919 2.453009 0.000000 0.000000 0.000000
0.399398 1.003571 2.454213 0.000000 0.000000 0.000000
0.395451 1.003290 2.437456 0.000000 0.000000 0.000000
0.383917 1.009551 2.460067 0.000000 0.000000 0.000000
0.398135 1.001669 2.448307 0.000000 0.000000 0.000000
0.397548 1.004201 2.457994 0.000000 0.000000 0.000000
0.370841 1.002401 2.473964 0.000000 0.000000 0.000000
0.368573 1.007725 2.469389 0.000000 0.000000 0.000000
0.363962 1.000716 2.473363 0.000000 0.000000 0.000000
0.368095 1.002917 2.476829 0.000000 0.000000 0.000000
0.365498 1.007353 2.478970 0.000000 0.000000 0.000000
0.399128 1.004356 2.451042 0.000000 0.000000 0.000000
0.390784 1.008774 2.453703 0.000000 0.000000 0.000000
0.396486 1.006661 2.450375 0.000000 0.000000 0.000000
0.390844 1.007873 2.451489 0.000000 0.000000 0.000000
0.391778 1.008934 2.453642 0.000000 0.000000 0.000000
0.396750 1.005163 2.447294 0.000000 0.000000 0.000000
0.391927 1.009959 2.459436 0.000000 0.000000 0.000000
0.394802 1.006786 2.453970 0.000000 0.000000 0.000000
0.397657 1.005753 2.442067 0.000000 0.000000 0.000000
0.371507 1.007814 2.475147 0.000000 0.000000 0.000000
0.385136 1.008262 2.458126 0.000000 0.000000 0.000000
0.360594 1.008560 2.456737 0.000000 0.000000 0.000000
0.389753 1.012467 2.468217 0.000000 0.000000 0.000000
0.386552 1.010166 2.459855 0.000000 0.000000 0.000000
0.367048 1.017938 2.472400 0.000000 0.000000 0.000000
0.365903 1.028854 2.473661 0.000000 0.000000 0.000000
0.365876 1.003806 2.467626 0.000000 0.000000 0.000000
0.398361 1.007014 2.449770 0.000000 0.000000 0.000000
0.397328 1.011000 2.460713 0.000000 0.000000 0.000000
0.401203 1.008145 2.457969 0.000000 0.000000 0.000000
0.389786 1.005388 2.453074 0.000000 0.000000 0.000000
0.383174 1.008791 2.459543 0.000000 0.000000 0.000000
0.365250 1.011483 2.468333 0.000000 0.000000 0.000000
0.398853 1.004973 2.457290 0.000000 0.000000 0.000000
0.379319 1.008775 2.458705 0.000000 0.000000 0.000000
0.390295 1.004688 2.459313 0.000000 0.000000 0.000000
0.396003 1.009958 2.463629 0.000000 0.000000 0.000000
0.400654 1.005015 2.454525 0.000000 0.000000 0.000000
0.398556 1.001566 2.437466 0.000000 0.000000 0.000000
0.399997 1.002797 2.440869 0.000000 0.000000 0.000000
0.407128 1.004683 2.457183 0.000000 0.000000 0.000000
0.403663 1.001796 2.444178 0.000000 0.000000 0.000000
0.401301 1.001786 2.445785 0.000000 0.000000 0.000000
0.397492 1.003436 2.441185 0.000000 0.000000 0.000000
0.377070 1.010916 2.462487 0.000000 0.000000 0.000000
0.395215 1.004761 2.445585 0.000000 0.000000 0.000000
0.402250 1.003045 2.449050 0.000000 0.000000 0.000000
0.386493 1.011239 2.461790 0.000000 0.000000 0.000000
0.403589 1.005133 2.442209 0.000000 0.000000 0.000000
0.394567 1.002479 2.441261 0.000000 0.000000 0.000000
0.363950 1.001907 2.460807 0.000000 0.000000 0.000000
0.404655 1.004014 2.441361 0.000000 0.000000 0.000000
0.388011 1.005953 2.449060 0.000000 0.000000 0.000000
0.399469 1.007750 2.444986 0.000000 0.000000 0.000000
0.390857 1.009529 2.456255 0.000000 0.000000 0.000000
0.399811 1.000043 2.445881 0.000000 0.000000 0.000000
0.386003 1.008268 2.449823 0.000000 0.000000 0.000000
0.372674 1.009028 2.463848 0.000000 0.000000 0.000000
0.399705 1.007597 2.454861 0.000000 0.000000 0.000000
0.397261 1.007663 2.458883 0.000000 0.000000 0.000000
0.395056 1.009162 2.461174 0.000000 0.000000 0.000000
0.396535 1.003930 2.456700 0.000000 0.000000 0.000000
0.388487 1.014284 2.466690 0.000000 0.000000 0.000000
0.402202 1.002998 2.445580 0.000000 0.000000 0.000000
0.395366 1.003461 2.440710 0.000000 0.000000 0.000000
0.395075 1.002163 2.438155 0.000000 0.000000 0.000000
0.394761 1.004938 2.445612 0.000000 0.000000 0.000000
0.399051 1.008493 2.462390 0.000000 0.000000 0.000000
0.390199 1.008486 2.462044 0.000000 0.000000 0.000000
0.372805 1.014275 2.472282 0.000000 0.000000 0.000000
0.363232 1.021863 2.471196 0.000000 0.000000 0.000000
0.384570 1.010421 2.457819 0.000000 0.000000 0.000000
0.389049 1.013971 2.467394 0.000000 0.000000 0.000000
0.360823 1.003489 2.463747 0.000000 0.000000 0.000000
0.362195 1.003459 2.478549 0.000000 0.000000 0.000000
0.402555 1.004334 2.438812 0.000000 0.000000 0.000000
0.397339 1.005664 2.441144 0.000000 0.000000 0.000000
0.393955 1.004799 2.442826 0.000000 0.000000 0.000000
0.397905 1.002563 2.441293 0.000000 0.000000 0.000000
0.365319 1.024260 2.474192 0.000000 0.000000 0.000000
0.383893 1.013672 2.463518 0.000000 0.000000 0.000000
0.383014 1.007448 2.454418 0.000000 0.000000 0.000000
0.380182 1.008886 2.461204 0.000000 0.000000 0.000000
0.375633 1.008644 2.462930 0.000000 0.000000 0.000000
0.387839 1.005027 2.456391 0.000000 0.000000 0.000000
