ply
format ascii 1.0
comment VCGLIB generated
obj_info Generated by SPFormer!
element vertex 541
property float x
property float y
property float z
property float nx
property float ny
property float nz
end_header
0.823275 1.096000 1.003390 0.000000 0.000000 0.000000
0.811446 1.115855 1.005544 0.000000 0.000000 0.000000
0.808846 1.093237 1.010118 0.000000 0.000000 0.000000
0.821222 1.097178 1.010987 0.000000 0.000000 0.000000
0.818682 1.098799 1.016407 0.000000 0.000000 0.000000
0.821970 1.105281 1.016437 0.000000 0.000000 0.000000
0.823095 1.089226 0.999713 0.000000 0.000000 0.000000
0.819609 1.092345 0.999277 0.000000 0.000000 0.000000
0.805803 1.093235 1.002965 0.000000 0.000000 0.000000
0.800418 1.098749 1.022871 0.000000 0.000000 0.000000
0.799543 1.086151 1.008894 0.000000 0.000000 0.000000
0.819843 1.096573 1.004683 0.000000 0.000000 0.000000
0.825596 1.094080 1.000986 0.000000 0.000000 0.000000
0.807849 1.096540 1.009744 0.000000 0.000000 0.000000
0.816830 1.094031 1.003608 0.000000 0.000000 0.000000
0.821532 1.094123 1.001232 0.000000 0.000000 0.000000
0.804393 1.093979 1.004591 0.000000 0.000000 0.000000
0.819053 1.092420 1.004092 0.000000 0.000000 0.000000
0.805924 1.095910 1.015745 0.000000 0.000000 0.000000
0.803074 1.098610 1.020763 0.000000 0.000000 0.000000
0.796059 1.096127 1.020981 0.000000 0.000000 0.000000
0.773785 1.116945 1.033321 0.000000 0.000000 0.000000
0.816903 1.098387 1.010376 0.000000 0.000000 0.000000
0.806579 1.096481 1.002333 0.000000 0.000000 0.000000
0.793240 1.076968 1.024137 0.000000 0.000000 0.000000
0.795301 1.097202 1.004907 0.000000 0.000000 0.000000
0.819124 1.097002 1.008602 0.000000 0.000000 0.000000
0.814732 1.111227 1.010049 0.000000 0.000000 0.000000
0.811949 1.098827 1.010464 0.000000 0.000000 0.000000
0.818751 1.117495 1.020379 0.000000 0.000000 0.000000
0.815321 1.096642 1.024483 0.000000 0.000000 0.000000
0.791887 1.111002 1.028194 0.000000 0.000000 0.000000
0.799173 1.102034 1.030415 0.000000 0.000000 0.000000
0.814288 1.096887 1.004575 0.000000 0.000000 0.000000
0.819744 1.091355 0.998371 0.000000 0.000000 0.000000
0.819163 1.096537 1.008214 0.000000 0.000000 0.000000
0.806918 1.110095 1.006269 0.000000 0.000000 0.000000
0.822151 1.096368 1.005467 0.000000 0.000000 0.000000
0.792339 1.056674 1.010231 0.000000 0.000000 0.000000
0.824309 1.105718 1.011150 0.000000 0.000000 0.000000
0.814842 1.095877 1.002020 0.000000 0.000000 0.000000
0.821549 1.104264 1.015486 0.000000 0.000000 0.000000
0.795371 1.102750 1.032311 0.000000 0.000000 0.000000
0.814006 1.098726 1.015081 0.000000 0.000000 0.000000
0.796455 1.098412 1.023802 0.000000 0.000000 0.000000
0.797514 1.058913 0.996957 0.000000 0.000000 0.000000
0.805879 1.095001 1.011488 0.000000 0.000000 0.000000
0.818586 1.098390 1.005694 0.000000 0.000000 0.000000
0.784987 1.100131 1.030720 0.000000 0.000000 0.000000
0.816080 1.090565 0.994176 0.000000 0.000000 0.000000
0.809593 1.091544 1.011811 0.000000 0.000000 0.000000
0.808633 1.092703 1.008266 0.000000 0.000000 0.000000
0.812161 1.098078 1.003060 0.000000 0.000000 0.000000
0.821236 1.092965 1.000166 0.000000 0.000000 0.000000
0.763535 1.119296 1.025740 0.000000 0.000000 0.000000
0.820067 1.096401 1.003471 0.000000 0.000000 0.000000
0.807795 1.099152 1.021968 0.000000 0.000000 0.000000
0.823343 1.093509 1.019635 0.000000 0.000000 0.000000
0.820777 1.102135 1.015066 0.000000 0.000000 0.000000
0.803923 1.104534 1.013564 0.000000 0.000000 0.000000
0.825079 1.117790 1.017732 0.000000 0.000000 0.000000
0.809664 1.107313 1.006946 0.000000 0.000000 0.000000
0.814459 1.119586 1.007021 0.000000 0.000000 0.000000
0.806809 1.098251 1.009439 0.000000 0.000000 0.000000
0.771033 1.116404 1.032553 0.000000 0.000000 0.000000
0.811503 1.096958 1.003664 0.000000 0.000000 0.000000
0.810703 1.093531 1.014109 0.000000 0.000000 0.000000
0.817740 1.111171 1.012867 0.000000 0.000000 0.000000
0.773404 1.111600 1.031717 0.000000 0.000000 0.000000
0.822800 1.095077 1.016415 0.000000 0.000000 0.000000
0.786869 1.092491 1.017534 0.000000 0.000000 0.000000
0.807038 1.100748 1.014712 0.000000 0.000000 0.000000
0.804717 1.095124 1.016848 0.000000 0.000000 0.000000
0.821609 1.091809 1.002719 0.000000 0.000000 0.000000
0.817766 1.101279 1.016869 0.000000 0.000000 0.000000
0.789422 1.104833 1.031287 0.000000 0.000000 0.000000
0.798767 1.098601 1.022123 0.000000 0.000000 0.000000
0.819898 1.100623 1.017769 0.000000 0.000000 0.000000
0.804226 1.094449 0.997234 0.000000 0.000000 0.000000
0.785131 1.104219 1.038247 0.000000 0.000000 0.000000
0.810658 1.097442 1.010918 0.000000 0.000000 0.000000
0.804137 1.105503 1.015914 0.000000 0.000000 0.000000
0.810437 1.099139 1.013310 0.000000 0.000000 0.000000
0.815817 1.097975 1.004790 0.000000 0.000000 0.000000
0.781108 1.106242 1.039889 0.000000 0.000000 0.000000
0.790256 1.100542 1.028031 0.000000 0.000000 0.000000
0.779917 1.112964 1.039279 0.000000 0.000000 0.000000
0.771444 1.119689 1.029776 0.000000 0.000000 0.000000
0.816357 1.111050 1.012543 0.000000 0.000000 0.000000
0.822384 1.112118 1.015420 0.000000 0.000000 0.000000
0.812854 1.093864 1.007277 0.000000 0.000000 0.000000
0.818780 1.110744 1.014658 0.000000 0.000000 0.000000
0.817567 1.105055 1.013732 0.000000 0.000000 0.000000
0.821648 1.112384 1.015321 0.000000 0.000000 0.000000
0.803300 1.103906 1.007253 0.000000 0.000000 0.000000
0.815145 1.098981 1.016891 0.000000 0.000000 0.000000
0.808504 1.108033 1.005427 0.000000 0.000000 0.000000
0.798775 1.094108 1.014278 0.000000 0.000000 0.000000
0.799134 1.101295 1.029501 0.000000 0.000000 0.000000
0.787855 1.106859 1.034735 0.000000 0.000000 0.000000
0.823028 1.095675 1.000072 0.000000 0.000000 0.000000
0.816919 1.110509 1.011842 0.000000 0.000000 0.000000
0.817719 1.092158 0.999450 0.000000 0.000000 0.000000
0.804294 1.093390 1.016033 0.000000 0.000000 0.000000
0.792028 1.111267 1.032304 0.000000 0.000000 0.000000
0.819503 1.108749 1.013579 0.000000 0.000000 0.000000
0.816489 1.111100 1.011257 0.000000 0.000000 0.000000
0.816745 1.114818 1.012941 0.000000 0.000000 0.000000
0.822444 1.110795 1.015659 0.000000 0.000000 0.000000
0.806622 1.096673 1.014010 0.000000 0.000000 0.000000
0.816880 1.111412 1.012622 0.000000 0.000000 0.000000
0.825917 1.108265 1.018759 0.000000 0.000000 0.000000
0.780176 1.118062 1.038397 0.000000 0.000000 0.000000
0.813376 1.099220 1.006003 0.000000 0.000000 0.000000
0.805308 1.095619 1.001193 0.000000 0.000000 0.000000
0.820090 1.094598 1.004529 0.000000 0.000000 0.000000
0.812182 1.090776 1.007281 0.000000 0.000000 0.000000
0.819844 1.091441 1.000974 0.000000 0.000000 0.000000
0.826262 1.109271 1.018253 0.000000 0.000000 0.000000
0.792142 1.102361 1.030956 0.000000 0.000000 0.000000
0.802648 1.095386 1.015947 0.000000 0.000000 0.000000
0.780095 1.102100 1.038916 0.000000 0.000000 0.000000
0.810681 1.106875 1.008806 0.000000 0.000000 0.000000
0.809702 1.094548 1.003244 0.000000 0.000000 0.000000
0.809676 1.094366 1.010136 0.000000 0.000000 0.000000
0.777135 1.102973 1.034412 0.000000 0.000000 0.000000
0.806670 1.091580 1.002948 0.000000 0.000000 0.000000
0.818625 1.094776 1.006358 0.000000 0.000000 0.000000
0.808656 1.103970 1.031751 0.000000 0.000000 0.000000
0.821620 1.091750 1.006075 0.000000 0.000000 0.000000
0.811484 1.098046 1.004382 0.000000 0.000000 0.000000
0.793942 1.105324 1.033822 0.000000 0.000000 0.000000
0.796471 1.059416 0.993458 0.000000 0.000000 0.000000
0.816417 1.112741 1.012262 0.000000 0.000000 0.000000
0.770656 1.116866 1.024682 0.000000 0.000000 0.000000
0.793945 1.097239 1.023293 0.000000 0.000000 0.000000
0.808449 1.106858 1.006815 0.000000 0.000000 0.000000
0.814354 1.087546 1.008952 0.000000 0.000000 0.000000
0.800577 1.097530 1.023250 0.000000 0.000000 0.000000
0.810731 1.105399 1.022806 0.000000 0.000000 0.000000
0.799922 1.098043 1.021410 0.000000 0.000000 0.000000
0.801955 1.102877 1.024821 0.000000 0.000000 0.000000
0.791641 1.102190 1.029778 0.000000 0.000000 0.000000
0.816206 1.111724 1.011918 0.000000 0.000000 0.000000
0.815103 1.107239 1.010764 0.000000 0.000000 0.000000
0.802629 1.107455 1.004615 0.000000 0.000000 0.000000
0.797181 1.095674 1.018852 0.000000 0.000000 0.000000
0.793412 1.057483 1.000633 0.000000 0.000000 0.000000
0.815512 1.100560 1.013890 0.000000 0.000000 0.000000
0.824836 1.095468 1.020578 0.000000 0.000000 0.000000
0.796543 1.096192 1.020502 0.000000 0.000000 0.000000
0.814410 1.113616 1.009024 0.000000 0.000000 0.000000
0.816724 1.110807 1.011538 0.000000 0.000000 0.000000
0.812857 1.109623 1.008034 0.000000 0.000000 0.000000
0.792074 1.053985 0.996135 0.000000 0.000000 0.000000
0.820330 1.092969 1.001576 0.000000 0.000000 0.000000
0.820789 1.096979 0.997106 0.000000 0.000000 0.000000
0.819880 1.097027 1.004850 0.000000 0.000000 0.000000
0.815256 1.093427 0.999236 0.000000 0.000000 0.000000
0.822610 1.091351 1.002843 0.000000 0.000000 0.000000
0.769922 1.109885 1.027128 0.000000 0.000000 0.000000
0.791171 1.108785 1.036993 0.000000 0.000000 0.000000
0.793934 1.096292 1.018481 0.000000 0.000000 0.000000
0.799770 1.055317 0.998552 0.000000 0.000000 0.000000
0.799498 1.056482 1.000249 0.000000 0.000000 0.000000
0.800232 1.097906 1.021324 0.000000 0.000000 0.000000
0.801145 1.095960 1.016768 0.000000 0.000000 0.000000
0.785715 1.105580 1.028808 0.000000 0.000000 0.000000
0.806814 1.095478 1.014680 0.000000 0.000000 0.000000
0.797090 1.098116 1.020740 0.000000 0.000000 0.000000
0.794676 1.092060 1.012452 0.000000 0.000000 0.000000
0.797232 1.095317 1.013572 0.000000 0.000000 0.000000
0.809650 1.105762 1.010130 0.000000 0.000000 0.000000
0.811828 1.094920 0.999513 0.000000 0.000000 0.000000
0.779399 1.106046 1.039659 0.000000 0.000000 0.000000
0.814333 1.096865 1.004302 0.000000 0.000000 0.000000
0.811640 1.097973 1.004410 0.000000 0.000000 0.000000
0.808644 1.103298 1.006689 0.000000 0.000000 0.000000
0.775689 1.119802 1.030713 0.000000 0.000000 0.000000
0.779166 1.116813 1.036811 0.000000 0.000000 0.000000
0.780192 1.114771 1.039467 0.000000 0.000000 0.000000
0.810902 1.096164 1.005830 0.000000 0.000000 0.000000
0.771641 1.107605 1.029570 0.000000 0.000000 0.000000
0.819688 1.090046 1.002789 0.000000 0.000000 0.000000
0.793682 1.104250 1.031405 0.000000 0.000000 0.000000
0.801925 1.095246 1.018300 0.000000 0.000000 0.000000
0.794390 1.100094 1.029917 0.000000 0.000000 0.000000
0.791140 1.101444 1.031503 0.000000 0.000000 0.000000
0.793487 1.102660 1.028241 0.000000 0.000000 0.000000
0.793626 1.046563 1.013011 0.000000 0.000000 0.000000
0.796384 1.041098 1.021747 0.000000 0.000000 0.000000
0.825999 1.097417 1.019475 0.000000 0.000000 0.000000
0.810948 1.116853 0.997242 0.000000 0.000000 0.000000
0.791969 1.104088 1.036339 0.000000 0.000000 0.000000
0.821603 1.107054 1.013233 0.000000 0.000000 0.000000
0.826992 1.105774 1.016634 0.000000 0.000000 0.000000
0.818654 1.097998 1.019117 0.000000 0.000000 0.000000
0.817461 1.107090 1.014876 0.000000 0.000000 0.000000
0.822941 1.107357 1.015148 0.000000 0.000000 0.000000
0.820318 1.100589 1.015493 0.000000 0.000000 0.000000
0.799009 1.099797 1.026817 0.000000 0.000000 0.000000
0.813986 1.113994 1.007545 0.000000 0.000000 0.000000
0.820714 1.111779 1.013664 0.000000 0.000000 0.000000
0.787877 1.103601 1.031711 0.000000 0.000000 0.000000
0.780674 1.113462 1.038868 0.000000 0.000000 0.000000
0.813757 1.112630 1.009164 0.000000 0.000000 0.000000
0.812446 1.104594 1.010683 0.000000 0.000000 0.000000
0.819732 1.101733 1.015062 0.000000 0.000000 0.000000
0.816813 1.092609 1.014250 0.000000 0.000000 0.000000
0.806242 1.093585 0.998265 0.000000 0.000000 0.000000
0.805342 1.093087 1.001507 0.000000 0.000000 0.000000
0.810127 1.090307 0.997954 0.000000 0.000000 0.000000
0.817249 1.089209 1.004516 0.000000 0.000000 0.000000
0.812327 1.095482 1.001708 0.000000 0.000000 0.000000
0.820221 1.097142 1.000337 0.000000 0.000000 0.000000
0.814639 1.098622 1.005005 0.000000 0.000000 0.000000
0.819175 1.096092 1.004962 0.000000 0.000000 0.000000
0.808071 1.102817 1.009171 0.000000 0.000000 0.000000
0.798467 1.102048 1.029775 0.000000 0.000000 0.000000
0.809685 1.094386 0.996672 0.000000 0.000000 0.000000
0.804707 1.094714 1.006280 0.000000 0.000000 0.000000
0.801931 1.098340 1.019403 0.000000 0.000000 0.000000
0.797703 1.040161 1.019468 0.000000 0.000000 0.000000
0.817660 1.086501 1.003128 0.000000 0.000000 0.000000
0.810293 1.091785 1.018842 0.000000 0.000000 0.000000
0.808802 1.093554 1.011682 0.000000 0.000000 0.000000
0.823971 1.106811 1.016116 0.000000 0.000000 0.000000
0.785499 1.102343 1.035039 0.000000 0.000000 0.000000
0.788207 1.103544 1.039126 0.000000 0.000000 0.000000
0.780540 1.103465 1.034495 0.000000 0.000000 0.000000
0.787528 1.102539 1.039001 0.000000 0.000000 0.000000
0.801756 1.094993 1.010745 0.000000 0.000000 0.000000
0.784093 1.107854 1.033115 0.000000 0.000000 0.000000
0.793087 1.094678 1.015663 0.000000 0.000000 0.000000
0.786933 1.103823 1.035806 0.000000 0.000000 0.000000
0.816292 1.114093 1.009337 0.000000 0.000000 0.000000
0.819285 1.109137 1.013443 0.000000 0.000000 0.000000
0.823806 1.106402 1.016758 0.000000 0.000000 0.000000
0.813045 1.110402 1.009053 0.000000 0.000000 0.000000
0.789822 1.103919 1.038089 0.000000 0.000000 0.000000
0.800077 1.101291 1.024855 0.000000 0.000000 0.000000
0.815685 1.094139 0.999056 0.000000 0.000000 0.000000
0.819207 1.091375 1.000883 0.000000 0.000000 0.000000
0.819647 1.095671 1.009612 0.000000 0.000000 0.000000
0.802364 1.108482 1.000309 0.000000 0.000000 0.000000
0.812519 1.092152 1.004773 0.000000 0.000000 0.000000
0.773014 1.116581 1.031229 0.000000 0.000000 0.000000
0.804519 1.100012 1.001567 0.000000 0.000000 0.000000
0.795447 1.097370 1.023594 0.000000 0.000000 0.000000
0.802914 1.097377 1.022575 0.000000 0.000000 0.000000
0.814624 1.092286 1.005846 0.000000 0.000000 0.000000
0.799708 1.089547 1.013408 0.000000 0.000000 0.000000
0.794463 1.097855 1.007008 0.000000 0.000000 0.000000
0.815272 1.091909 1.003856 0.000000 0.000000 0.000000
0.814816 1.101736 1.012680 0.000000 0.000000 0.000000
0.808613 1.111346 1.004829 0.000000 0.000000 0.000000
0.808821 1.098861 1.013916 0.000000 0.000000 0.000000
0.797253 1.096425 1.017553 0.000000 0.000000 0.000000
0.807552 1.104608 1.008336 0.000000 0.000000 0.000000
0.793936 1.096918 1.019158 0.000000 0.000000 0.000000
0.793649 1.042794 1.007565 0.000000 0.000000 0.000000
0.810845 1.093207 1.009392 0.000000 0.000000 0.000000
0.813911 1.110257 1.007989 0.000000 0.000000 0.000000
0.807836 1.108352 1.007294 0.000000 0.000000 0.000000
0.816729 1.104682 1.010109 0.000000 0.000000 0.000000
0.810055 1.094129 1.010179 0.000000 0.000000 0.000000
0.788963 1.100856 1.036218 0.000000 0.000000 0.000000
0.775357 1.116617 1.034747 0.000000 0.000000 0.000000
0.785395 1.103335 1.036994 0.000000 0.000000 0.000000
0.776602 1.115249 1.034399 0.000000 0.000000 0.000000
0.812567 1.109007 1.008143 0.000000 0.000000 0.000000
0.806581 1.093638 1.011494 0.000000 0.000000 0.000000
0.799118 1.092831 1.006192 0.000000 0.000000 0.000000
0.805602 1.111287 1.000819 0.000000 0.000000 0.000000
0.802657 1.099097 1.025912 0.000000 0.000000 0.000000
0.815620 1.099891 1.019012 0.000000 0.000000 0.000000
0.813935 1.098839 1.006913 0.000000 0.000000 0.000000
0.812985 1.099057 1.014927 0.000000 0.000000 0.000000
0.800524 1.096928 1.018605 0.000000 0.000000 0.000000
0.819988 1.099630 1.015266 0.000000 0.000000 0.000000
0.806822 1.097737 1.018907 0.000000 0.000000 0.000000
0.808882 1.091515 1.009896 0.000000 0.000000 0.000000
0.818453 1.092241 1.001572 0.000000 0.000000 0.000000
0.822911 1.106547 1.016601 0.000000 0.000000 0.000000
0.823261 1.108755 1.016595 0.000000 0.000000 0.000000
0.807887 1.094899 1.009280 0.000000 0.000000 0.000000
0.812245 1.113754 1.008633 0.000000 0.000000 0.000000
0.767318 1.118608 1.028895 0.000000 0.000000 0.000000
0.822065 1.101320 1.014710 0.000000 0.000000 0.000000
0.821006 1.101611 1.019075 0.000000 0.000000 0.000000
0.819605 1.097512 1.014127 0.000000 0.000000 0.000000
0.817874 1.098637 1.020928 0.000000 0.000000 0.000000
0.824805 1.098427 1.018280 0.000000 0.000000 0.000000
0.826400 1.106775 1.019837 0.000000 0.000000 0.000000
0.821301 1.099592 1.013360 0.000000 0.000000 0.000000
0.820760 1.109209 1.018461 0.000000 0.000000 0.000000
0.821777 1.107750 1.016048 0.000000 0.000000 0.000000
0.823898 1.108659 1.016942 0.000000 0.000000 0.000000
0.273379 0.955178 2.674466 0.000000 0.000000 0.000000
0.273151 0.957137 2.678400 0.000000 0.000000 0.000000
0.267427 0.950056 2.679391 0.000000 0.000000 0.000000
0.268269 0.956194 2.675354 0.000000 0.000000 0.000000
0.276033 0.953333 2.675723 0.000000 0.000000 0.000000
0.269417 0.958862 2.674340 0.000000 0.000000 0.000000
0.277897 0.954943 2.677920 0.000000 0.000000 0.000000
0.268908 0.952013 2.676542 0.000000 0.000000 0.000000
0.279577 0.959091 2.665515 0.000000 0.000000 0.000000
0.268322 0.953783 2.677509 0.000000 0.000000 0.000000
0.258714 0.946799 2.667420 0.000000 0.000000 0.000000
0.279626 0.957459 2.674140 0.000000 0.000000 0.000000
0.252501 0.947970 2.666224 0.000000 0.000000 0.000000
0.245896 0.952605 2.639915 0.000000 0.000000 0.000000
0.241428 0.945623 2.672764 0.000000 0.000000 0.000000
0.228425 0.935337 2.675678 0.000000 0.000000 0.000000
0.246158 0.959900 2.626278 0.000000 0.000000 0.000000
0.235006 0.948053 2.637281 0.000000 0.000000 0.000000
0.229475 0.937478 2.675329 0.000000 0.000000 0.000000
0.229314 0.940575 2.671998 0.000000 0.000000 0.000000
0.229458 0.940470 2.652900 0.000000 0.000000 0.000000
0.231241 0.939069 2.675100 0.000000 0.000000 0.000000
0.227494 0.932119 2.658351 0.000000 0.000000 0.000000
0.231524 0.942841 2.656128 0.000000 0.000000 0.000000
0.232898 0.940795 2.679882 0.000000 0.000000 0.000000
0.243083 0.945245 2.633192 0.000000 0.000000 0.000000
0.228384 0.936891 2.672647 0.000000 0.000000 0.000000
0.246269 0.954226 2.646334 0.000000 0.000000 0.000000
0.239854 0.950548 2.643006 0.000000 0.000000 0.000000
0.237155 0.947090 2.679782 0.000000 0.000000 0.000000
0.239476 0.958279 2.648549 0.000000 0.000000 0.000000
0.237808 0.940031 2.652431 0.000000 0.000000 0.000000
0.233726 0.934769 2.648844 0.000000 0.000000 0.000000
0.241571 0.954280 2.644911 0.000000 0.000000 0.000000
0.224621 0.933043 2.668754 0.000000 0.000000 0.000000
0.240312 0.946598 2.646791 0.000000 0.000000 0.000000
0.249123 0.956741 2.629563 0.000000 0.000000 0.000000
0.241001 0.951476 2.638156 0.000000 0.000000 0.000000
0.245150 0.957975 2.621551 0.000000 0.000000 0.000000
0.240165 0.958363 2.631679 0.000000 0.000000 0.000000
0.250699 0.958286 2.678025 0.000000 0.000000 0.000000
0.231586 0.935771 2.678273 0.000000 0.000000 0.000000
0.230864 0.933072 2.675536 0.000000 0.000000 0.000000
0.229599 0.942386 2.668801 0.000000 0.000000 0.000000
0.235125 0.942235 2.676472 0.000000 0.000000 0.000000
0.227766 0.934295 2.655759 0.000000 0.000000 0.000000
0.234641 0.943128 2.669374 0.000000 0.000000 0.000000
0.228227 0.937178 2.659453 0.000000 0.000000 0.000000
0.228993 0.945663 2.659146 0.000000 0.000000 0.000000
0.240701 0.948131 2.653945 0.000000 0.000000 0.000000
0.228169 0.933887 2.676831 0.000000 0.000000 0.000000
0.231726 0.943658 2.652414 0.000000 0.000000 0.000000
0.228405 0.937502 2.673018 0.000000 0.000000 0.000000
0.236762 0.937659 2.639568 0.000000 0.000000 0.000000
0.238391 0.948671 2.658207 0.000000 0.000000 0.000000
0.241872 0.959456 2.636872 0.000000 0.000000 0.000000
0.244740 0.952071 2.650121 0.000000 0.000000 0.000000
0.237054 0.946737 2.634714 0.000000 0.000000 0.000000
0.230276 0.938596 2.647354 0.000000 0.000000 0.000000
0.228799 0.933773 2.649859 0.000000 0.000000 0.000000
0.246251 0.957249 2.639897 0.000000 0.000000 0.000000
0.226174 0.943485 2.669005 0.000000 0.000000 0.000000
0.233763 0.933466 2.642626 0.000000 0.000000 0.000000
0.235061 0.943641 2.644325 0.000000 0.000000 0.000000
0.244671 0.951581 2.641975 0.000000 0.000000 0.000000
0.231516 0.944577 2.640079 0.000000 0.000000 0.000000
0.236956 0.946695 2.634727 0.000000 0.000000 0.000000
0.232271 0.940757 2.647143 0.000000 0.000000 0.000000
0.239468 0.942672 2.635892 0.000000 0.000000 0.000000
0.235705 0.951106 2.634953 0.000000 0.000000 0.000000
0.229762 0.936775 2.652161 0.000000 0.000000 0.000000
0.251158 0.954106 2.673349 0.000000 0.000000 0.000000
0.242547 0.952865 2.649699 0.000000 0.000000 0.000000
0.244677 0.953955 2.649966 0.000000 0.000000 0.000000
0.239731 0.947659 2.679235 0.000000 0.000000 0.000000
0.250662 0.958887 2.636761 0.000000 0.000000 0.000000
0.241403 0.956436 2.656992 0.000000 0.000000 0.000000
0.238409 0.953996 2.637356 0.000000 0.000000 0.000000
0.244153 0.949240 2.636594 0.000000 0.000000 0.000000
0.243778 0.957762 2.645084 0.000000 0.000000 0.000000
0.246604 0.954448 2.631197 0.000000 0.000000 0.000000
0.241023 0.956761 2.647238 0.000000 0.000000 0.000000
0.248884 0.957259 2.634650 0.000000 0.000000 0.000000
0.237134 0.950334 2.656819 0.000000 0.000000 0.000000
0.235699 0.946960 2.676197 0.000000 0.000000 0.000000
0.240079 0.944741 2.624493 0.000000 0.000000 0.000000
0.244882 0.950995 2.631416 0.000000 0.000000 0.000000
0.248866 0.959307 2.629033 0.000000 0.000000 0.000000
0.249887 0.954883 2.619926 0.000000 0.000000 0.000000
0.247629 0.959009 2.631048 0.000000 0.000000 0.000000
0.235938 0.948258 2.636486 0.000000 0.000000 0.000000
0.238428 0.946297 2.664181 0.000000 0.000000 0.000000
0.240296 0.950863 2.656961 0.000000 0.000000 0.000000
0.231317 0.945240 2.647081 0.000000 0.000000 0.000000
0.228170 0.945845 2.654609 0.000000 0.000000 0.000000
0.241817 0.947534 2.636215 0.000000 0.000000 0.000000
0.222600 0.931535 2.676431 0.000000 0.000000 0.000000
0.239647 0.948317 2.645291 0.000000 0.000000 0.000000
0.227066 0.937118 2.678775 0.000000 0.000000 0.000000
0.240140 0.949406 2.664373 0.000000 0.000000 0.000000
0.227538 0.947975 2.652925 0.000000 0.000000 0.000000
0.238080 0.945243 2.666833 0.000000 0.000000 0.000000
0.234171 0.955728 2.661639 0.000000 0.000000 0.000000
0.234981 0.940083 2.645363 0.000000 0.000000 0.000000
0.226501 0.934399 2.671190 0.000000 0.000000 0.000000
0.234659 0.938626 2.654710 0.000000 0.000000 0.000000
0.228951 0.937634 2.651017 0.000000 0.000000 0.000000
0.221810 0.928443 2.665080 0.000000 0.000000 0.000000
0.230338 0.932613 2.651852 0.000000 0.000000 0.000000
0.249718 0.948975 2.629349 0.000000 0.000000 0.000000
0.232478 0.932977 2.645066 0.000000 0.000000 0.000000
0.225365 0.930812 2.673295 0.000000 0.000000 0.000000
0.241371 0.948324 2.676538 0.000000 0.000000 0.000000
0.244987 0.959983 2.634319 0.000000 0.000000 0.000000
0.230090 0.937946 2.673674 0.000000 0.000000 0.000000
0.221764 0.937173 2.668016 0.000000 0.000000 0.000000
0.230051 0.938393 2.673859 0.000000 0.000000 0.000000
0.237332 0.941963 2.642545 0.000000 0.000000 0.000000
0.238042 0.950782 2.646102 0.000000 0.000000 0.000000
0.228051 0.936725 2.678798 0.000000 0.000000 0.000000
0.230743 0.945460 2.659679 0.000000 0.000000 0.000000
0.237529 0.946524 2.636535 0.000000 0.000000 0.000000
0.236439 0.946085 2.679327 0.000000 0.000000 0.000000
0.232944 0.945188 2.674504 0.000000 0.000000 0.000000
0.237904 0.942336 2.660359 0.000000 0.000000 0.000000
0.242311 0.958939 2.663836 0.000000 0.000000 0.000000
0.230160 0.936932 2.670282 0.000000 0.000000 0.000000
0.237109 0.945331 2.634416 0.000000 0.000000 0.000000
0.238706 0.945657 2.636168 0.000000 0.000000 0.000000
0.233969 0.936406 2.643929 0.000000 0.000000 0.000000
0.225338 0.940421 2.679117 0.000000 0.000000 0.000000
0.230557 0.941620 2.665230 0.000000 0.000000 0.000000
0.233565 0.939231 2.642107 0.000000 0.000000 0.000000
0.230797 0.947029 2.648719 0.000000 0.000000 0.000000
0.241245 0.943802 2.629185 0.000000 0.000000 0.000000
0.240454 0.947180 2.631833 0.000000 0.000000 0.000000
0.228225 0.941946 2.668468 0.000000 0.000000 0.000000
0.237104 0.946580 2.635488 0.000000 0.000000 0.000000
0.239651 0.945501 2.630052 0.000000 0.000000 0.000000
0.227812 0.944990 2.659276 0.000000 0.000000 0.000000
0.242841 0.954869 2.654050 0.000000 0.000000 0.000000
0.230538 0.944310 2.646497 0.000000 0.000000 0.000000
0.221681 0.930392 2.657504 0.000000 0.000000 0.000000
0.234680 0.936023 2.641080 0.000000 0.000000 0.000000
0.245848 0.953777 2.632520 0.000000 0.000000 0.000000
0.235859 0.945711 2.644883 0.000000 0.000000 0.000000
0.228116 0.938407 2.675904 0.000000 0.000000 0.000000
0.226760 0.931406 2.653777 0.000000 0.000000 0.000000
0.228756 0.938311 2.673031 0.000000 0.000000 0.000000
0.234399 0.949343 2.641139 0.000000 0.000000 0.000000
0.229671 0.939434 2.648876 0.000000 0.000000 0.000000
0.239334 0.949456 2.631006 0.000000 0.000000 0.000000
0.235688 0.946384 2.674380 0.000000 0.000000 0.000000
0.239756 0.948242 2.628371 0.000000 0.000000 0.000000
0.232178 0.948879 2.643367 0.000000 0.000000 0.000000
0.236667 0.947630 2.648424 0.000000 0.000000 0.000000
0.223661 0.932128 2.668511 0.000000 0.000000 0.000000
0.230381 0.933760 2.653114 0.000000 0.000000 0.000000
0.234280 0.943211 2.676389 0.000000 0.000000 0.000000
0.238792 0.948404 2.671313 0.000000 0.000000 0.000000
0.236061 0.946644 2.668728 0.000000 0.000000 0.000000
0.236072 0.946110 2.671922 0.000000 0.000000 0.000000
0.228724 0.943434 2.661613 0.000000 0.000000 0.000000
0.244004 0.952689 2.655842 0.000000 0.000000 0.000000
0.229352 0.940757 2.661811 0.000000 0.000000 0.000000
0.235398 0.946118 2.674562 0.000000 0.000000 0.000000
0.228444 0.942040 2.664707 0.000000 0.000000 0.000000
0.239382 0.949658 2.665601 0.000000 0.000000 0.000000
0.238389 0.951322 2.650769 0.000000 0.000000 0.000000
0.220380 0.939707 2.664898 0.000000 0.000000 0.000000
0.221604 0.940524 2.679123 0.000000 0.000000 0.000000
0.241953 0.955898 2.633368 0.000000 0.000000 0.000000
0.242284 0.955972 2.620835 0.000000 0.000000 0.000000
0.230374 0.935497 2.648961 0.000000 0.000000 0.000000
0.242753 0.957110 2.627455 0.000000 0.000000 0.000000
0.235728 0.953511 2.635105 0.000000 0.000000 0.000000
0.236192 0.942374 2.636894 0.000000 0.000000 0.000000
0.230185 0.943325 2.660266 0.000000 0.000000 0.000000
0.228229 0.931276 2.671131 0.000000 0.000000 0.000000
0.248652 0.957058 2.625029 0.000000 0.000000 0.000000
0.226401 0.929289 2.675549 0.000000 0.000000 0.000000
0.244523 0.948876 2.634082 0.000000 0.000000 0.000000
0.243744 0.945747 2.629011 0.000000 0.000000 0.000000
0.239796 0.943082 2.629749 0.000000 0.000000 0.000000
0.226072 0.935888 2.674783 0.000000 0.000000 0.000000
0.224670 0.933648 2.663383 0.000000 0.000000 0.000000
0.239143 0.946660 2.635302 0.000000 0.000000 0.000000
0.227718 0.934022 2.670575 0.000000 0.000000 0.000000
0.240018 0.940379 2.632310 0.000000 0.000000 0.000000
0.249643 0.957160 2.627930 0.000000 0.000000 0.000000
0.250814 0.955574 2.629097 0.000000 0.000000 0.000000
0.246884 0.957767 2.625510 0.000000 0.000000 0.000000
0.248724 0.956179 2.642574 0.000000 0.000000 0.000000
0.248350 0.954299 2.637162 0.000000 0.000000 0.000000
0.246944 0.948504 2.630433 0.000000 0.000000 0.000000
0.244543 0.950079 2.629479 0.000000 0.000000 0.000000
0.242984 0.954233 2.647055 0.000000 0.000000 0.000000
0.227945 0.941699 2.660988 0.000000 0.000000 0.000000
0.232089 0.939953 2.647556 0.000000 0.000000 0.000000
0.234058 0.946828 2.661795 0.000000 0.000000 0.000000
0.239989 0.950443 2.660186 0.000000 0.000000 0.000000
0.232912 0.945618 2.667900 0.000000 0.000000 0.000000
0.238979 0.949328 2.674299 0.000000 0.000000 0.000000
0.234344 0.939168 2.665651 0.000000 0.000000 0.000000
0.227571 0.930992 2.651898 0.000000 0.000000 0.000000
0.235352 0.942654 2.638995 0.000000 0.000000 0.000000
0.226796 0.942744 2.679187 0.000000 0.000000 0.000000
0.233259 0.940400 2.674069 0.000000 0.000000 0.000000
0.242485 0.949987 2.676619 0.000000 0.000000 0.000000
0.233166 0.934795 2.641367 0.000000 0.000000 0.000000
0.234595 0.945346 2.676735 0.000000 0.000000 0.000000
0.221358 0.928953 2.670457 0.000000 0.000000 0.000000
0.247885 0.958507 2.638606 0.000000 0.000000 0.000000
0.242847 0.951025 2.659539 0.000000 0.000000 0.000000
0.247360 0.957892 2.647781 0.000000 0.000000 0.000000
0.245197 0.954794 2.654874 0.000000 0.000000 0.000000
0.229417 0.939694 2.658679 0.000000 0.000000 0.000000
0.224565 0.931043 2.663115 0.000000 0.000000 0.000000
0.232902 0.933636 2.650982 0.000000 0.000000 0.000000
0.227206 0.929571 2.663122 0.000000 0.000000 0.000000
0.232326 0.940213 2.654340 0.000000 0.000000 0.000000
0.236170 0.935254 2.639701 0.000000 0.000000 0.000000
0.224448 0.931118 2.665746 0.000000 0.000000 0.000000
0.223138 0.933324 2.677660 0.000000 0.000000 0.000000
0.233996 0.934146 2.643257 0.000000 0.000000 0.000000
0.227434 0.930520 2.657233 0.000000 0.000000 0.000000
0.227864 0.935526 2.660301 0.000000 0.000000 0.000000
0.236330 0.942120 2.636300 0.000000 0.000000 0.000000
0.223951 0.928614 2.657333 0.000000 0.000000 0.000000
0.246334 0.955082 2.648879 0.000000 0.000000 0.000000
0.236672 0.938728 2.633492 0.000000 0.000000 0.000000
0.238415 0.948953 2.634226 0.000000 0.000000 0.000000
0.235855 0.938516 2.637144 0.000000 0.000000 0.000000
0.245945 0.950973 2.640590 0.000000 0.000000 0.000000
0.243418 0.954356 2.656199 0.000000 0.000000 0.000000
0.229783 0.932912 2.639173 0.000000 0.000000 0.000000
0.242210 0.950904 2.639821 0.000000 0.000000 0.000000
0.247720 0.957103 2.646358 0.000000 0.000000 0.000000
0.246021 0.954289 2.641826 0.000000 0.000000 0.000000
0.237353 0.939107 2.633646 0.000000 0.000000 0.000000
0.223839 0.928137 2.672556 0.000000 0.000000 0.000000
0.229910 0.931247 2.671903 0.000000 0.000000 0.000000
0.228140 0.928998 2.675477 0.000000 0.000000 0.000000
