ply
format ascii 1.0
comment VCGLIB generated
obj_info Generated by SPFormer!
element vertex 503
property float x
property float y
property float z
property float nx
property float ny
property float nz
end_header
0.250017 0.927293 2.689136 0.000000 0.000000 0.000000
0.243886 0.925836 2.687339 0.000000 0.000000 0.000000
0.295178 0.961091 2.672587 0.000000 0.000000 0.000000
0.287588 0.955396 2.675744 0.000000 0.000000 0.000000
0.262709 0.950322 2.683551 0.000000 0.000000 0.000000
0.276630 0.953363 2.686651 0.000000 0.000000 0.000000
0.344905 0.964890 2.641361 0.000000 0.000000 0.000000
0.333530 0.962891 2.649040 0.000000 0.000000 0.000000
0.305110 0.960685 2.651027 0.000000 0.000000 0.000000
0.346452 0.967156 2.631944 0.000000 0.000000 0.000000
0.274671 0.954987 2.685613 0.000000 0.000000 0.000000
0.287230 0.957842 2.666430 0.000000 0.000000 0.000000
0.347725 0.965086 2.634592 0.000000 0.000000 0.000000
0.279021 0.955191 2.686322 0.000000 0.000000 0.000000
0.281914 0.959746 2.663788 0.000000 0.000000 0.000000
0.287185 0.953328 2.675042 0.000000 0.000000 0.000000
0.335333 0.965098 2.636534 0.000000 0.000000 0.000000
0.269535 0.955719 2.690867 0.000000 0.000000 0.000000
0.301153 0.958136 2.667518 0.000000 0.000000 0.000000
0.275487 0.956704 2.686746 0.000000 0.000000 0.000000
0.321050 0.965123 2.647084 0.000000 0.000000 0.000000
0.347972 0.965980 2.629830 0.000000 0.000000 0.000000
0.324558 0.972107 2.647619 0.000000 0.000000 0.000000
0.316180 0.970369 2.656804 0.000000 0.000000 0.000000
0.281834 0.950594 2.669782 0.000000 0.000000 0.000000
0.297427 0.961152 2.657383 0.000000 0.000000 0.000000
0.350930 0.970918 2.626127 0.000000 0.000000 0.000000
0.312271 0.962127 2.663656 0.000000 0.000000 0.000000
0.309222 0.959169 2.671613 0.000000 0.000000 0.000000
0.287353 0.960367 2.668930 0.000000 0.000000 0.000000
0.307132 0.959489 2.656871 0.000000 0.000000 0.000000
0.331958 0.972769 2.632335 0.000000 0.000000 0.000000
0.268211 0.955383 2.690796 0.000000 0.000000 0.000000
0.326731 0.965690 2.646796 0.000000 0.000000 0.000000
0.293540 0.964009 2.662386 0.000000 0.000000 0.000000
0.344018 0.967225 2.639951 0.000000 0.000000 0.000000
0.334332 0.963554 2.631906 0.000000 0.000000 0.000000
0.328628 0.967038 2.652655 0.000000 0.000000 0.000000
0.334606 0.964641 2.635183 0.000000 0.000000 0.000000
0.354094 0.971822 2.624927 0.000000 0.000000 0.000000
0.286137 0.963729 2.676180 0.000000 0.000000 0.000000
0.320572 0.963792 2.650900 0.000000 0.000000 0.000000
0.261770 0.957486 2.688217 0.000000 0.000000 0.000000
0.334431 0.965481 2.655521 0.000000 0.000000 0.000000
0.351484 0.968474 2.627260 0.000000 0.000000 0.000000
0.313921 0.971523 2.642794 0.000000 0.000000 0.000000
0.314265 0.954639 2.667244 0.000000 0.000000 0.000000
0.325129 0.959637 2.643600 0.000000 0.000000 0.000000
0.304562 0.960323 2.662318 0.000000 0.000000 0.000000
0.327474 0.972263 2.630920 0.000000 0.000000 0.000000
0.353785 0.977455 2.634478 0.000000 0.000000 0.000000
0.335163 0.963952 2.633433 0.000000 0.000000 0.000000
0.285112 0.958566 2.670541 0.000000 0.000000 0.000000
0.337929 0.970857 2.628174 0.000000 0.000000 0.000000
0.325082 0.969142 2.639412 0.000000 0.000000 0.000000
0.284220 0.954484 2.677652 0.000000 0.000000 0.000000
0.315989 0.964285 2.643883 0.000000 0.000000 0.000000
0.284311 0.963964 2.670234 0.000000 0.000000 0.000000
0.323483 0.962806 2.646061 0.000000 0.000000 0.000000
0.287066 0.964338 2.676872 0.000000 0.000000 0.000000
0.308892 0.969500 2.646427 0.000000 0.000000 0.000000
0.335999 0.963575 2.641979 0.000000 0.000000 0.000000
0.336874 0.968160 2.642663 0.000000 0.000000 0.000000
0.339429 0.966390 2.635874 0.000000 0.000000 0.000000
0.329256 0.964717 2.638652 0.000000 0.000000 0.000000
0.334818 0.970225 2.646493 0.000000 0.000000 0.000000
0.292720 0.961312 2.661904 0.000000 0.000000 0.000000
0.338863 0.970296 2.635059 0.000000 0.000000 0.000000
0.330777 0.971299 2.632871 0.000000 0.000000 0.000000
0.269313 0.958728 2.681072 0.000000 0.000000 0.000000
0.341565 0.970766 2.636462 0.000000 0.000000 0.000000
0.268400 0.950438 2.684085 0.000000 0.000000 0.000000
0.342289 0.965254 2.639607 0.000000 0.000000 0.000000
0.265043 0.955927 2.687951 0.000000 0.000000 0.000000
0.269971 0.953305 2.681857 0.000000 0.000000 0.000000
0.338322 0.965600 2.645862 0.000000 0.000000 0.000000
0.289622 0.966950 2.663611 0.000000 0.000000 0.000000
0.330322 0.972631 2.639424 0.000000 0.000000 0.000000
0.348886 0.967091 2.637599 0.000000 0.000000 0.000000
0.328208 0.962921 2.654451 0.000000 0.000000 0.000000
0.339790 0.965280 2.648258 0.000000 0.000000 0.000000
0.345768 0.965120 2.630004 0.000000 0.000000 0.000000
0.266232 0.958693 2.689654 0.000000 0.000000 0.000000
0.298151 0.963683 2.650985 0.000000 0.000000 0.000000
0.302028 0.966535 2.647187 0.000000 0.000000 0.000000
0.351440 0.969306 2.629066 0.000000 0.000000 0.000000
0.289925 0.959031 2.667256 0.000000 0.000000 0.000000
0.317366 0.957244 2.654334 0.000000 0.000000 0.000000
0.318943 0.966971 2.638435 0.000000 0.000000 0.000000
0.291897 0.966018 2.675033 0.000000 0.000000 0.000000
0.316949 0.960230 2.655067 0.000000 0.000000 0.000000
0.297279 0.956404 2.677461 0.000000 0.000000 0.000000
0.296191 0.968975 2.666737 0.000000 0.000000 0.000000
0.277740 0.955222 2.690710 0.000000 0.000000 0.000000
0.300369 0.966613 2.662193 0.000000 0.000000 0.000000
0.304751 0.966074 2.655055 0.000000 0.000000 0.000000
0.306782 0.964700 2.650971 0.000000 0.000000 0.000000
0.315471 0.963304 2.653158 0.000000 0.000000 0.000000
0.301287 0.958578 2.661195 0.000000 0.000000 0.000000
0.301466 0.957508 2.665035 0.000000 0.000000 0.000000
0.289961 0.957083 2.667613 0.000000 0.000000 0.000000
0.282756 0.961138 2.667260 0.000000 0.000000 0.000000
0.335648 0.972275 2.631791 0.000000 0.000000 0.000000
0.306828 0.969156 2.661424 0.000000 0.000000 0.000000
0.349740 0.972952 2.624223 0.000000 0.000000 0.000000
0.299848 0.965732 2.652763 0.000000 0.000000 0.000000
0.286476 0.953006 2.678615 0.000000 0.000000 0.000000
0.327665 0.975245 2.630660 0.000000 0.000000 0.000000
0.347520 0.964950 2.641503 0.000000 0.000000 0.000000
0.302771 0.966521 2.663399 0.000000 0.000000 0.000000
0.351385 0.963978 2.634631 0.000000 0.000000 0.000000
0.345640 0.971503 2.633726 0.000000 0.000000 0.000000
0.334929 0.971861 2.635872 0.000000 0.000000 0.000000
0.346519 0.967325 2.635321 0.000000 0.000000 0.000000
0.320617 0.970137 2.628519 0.000000 0.000000 0.000000
0.325040 0.974305 2.637064 0.000000 0.000000 0.000000
0.342511 0.977596 2.635156 0.000000 0.000000 0.000000
0.326774 0.972819 2.627259 0.000000 0.000000 0.000000
0.353143 0.970879 2.620475 0.000000 0.000000 0.000000
0.350089 0.969530 2.632724 0.000000 0.000000 0.000000
0.350552 0.966223 2.634239 0.000000 0.000000 0.000000
0.351812 0.964759 2.636255 0.000000 0.000000 0.000000
0.261725 0.955972 2.683673 0.000000 0.000000 0.000000
0.261047 0.953922 2.685218 0.000000 0.000000 0.000000
0.318693 0.973678 2.642990 0.000000 0.000000 0.000000
0.294741 0.965715 2.656986 0.000000 0.000000 0.000000
0.283498 0.960849 2.660474 0.000000 0.000000 0.000000
0.285834 0.966547 2.665998 0.000000 0.000000 0.000000
0.314831 0.971128 2.642317 0.000000 0.000000 0.000000
0.329873 0.962507 2.642284 0.000000 0.000000 0.000000
0.309188 0.969215 2.655842 0.000000 0.000000 0.000000
0.310143 0.969737 2.645810 0.000000 0.000000 0.000000
0.295825 0.964396 2.667940 0.000000 0.000000 0.000000
0.284235 0.959751 2.666771 0.000000 0.000000 0.000000
0.290000 0.956480 2.679513 0.000000 0.000000 0.000000
0.297809 0.954836 2.674600 0.000000 0.000000 0.000000
0.303200 0.955341 2.671997 0.000000 0.000000 0.000000
0.291345 0.955738 2.678818 0.000000 0.000000 0.000000
0.302148 0.962563 2.667464 0.000000 0.000000 0.000000
0.301302 0.956613 2.669326 0.000000 0.000000 0.000000
0.298286 0.956318 2.676910 0.000000 0.000000 0.000000
0.339082 0.964913 2.635317 0.000000 0.000000 0.000000
0.349652 0.969985 2.633524 0.000000 0.000000 0.000000
0.354815 0.966573 2.622247 0.000000 0.000000 0.000000
0.327598 0.972222 2.640306 0.000000 0.000000 0.000000
0.323740 0.966046 2.634213 0.000000 0.000000 0.000000
0.354657 0.973431 2.630524 0.000000 0.000000 0.000000
0.327804 0.975223 2.628490 0.000000 0.000000 0.000000
0.358056 0.971002 2.630579 0.000000 0.000000 0.000000
0.307447 0.964348 2.647194 0.000000 0.000000 0.000000
0.351187 0.970524 2.625716 0.000000 0.000000 0.000000
0.329011 0.965277 2.635603 0.000000 0.000000 0.000000
0.339165 0.974190 2.631458 0.000000 0.000000 0.000000
0.342117 0.968925 2.627044 0.000000 0.000000 0.000000
0.322906 0.972694 2.634448 0.000000 0.000000 0.000000
0.304973 0.957327 2.672173 0.000000 0.000000 0.000000
0.304858 0.971693 2.648681 0.000000 0.000000 0.000000
0.344089 0.974312 2.627828 0.000000 0.000000 0.000000
0.337937 0.967852 2.628483 0.000000 0.000000 0.000000
0.333112 0.974919 2.627496 0.000000 0.000000 0.000000
0.346411 0.968412 2.626940 0.000000 0.000000 0.000000
0.294569 0.959228 2.658232 0.000000 0.000000 0.000000
0.305329 0.956419 2.673290 0.000000 0.000000 0.000000
0.278228 0.956106 2.688562 0.000000 0.000000 0.000000
0.310890 0.956354 2.670594 0.000000 0.000000 0.000000
0.343389 0.964241 2.632741 0.000000 0.000000 0.000000
0.300136 0.956705 2.678046 0.000000 0.000000 0.000000
0.325387 0.960168 2.660114 0.000000 0.000000 0.000000
0.276974 0.956997 2.688482 0.000000 0.000000 0.000000
0.302158 0.959533 2.677552 0.000000 0.000000 0.000000
0.293965 0.955145 2.669968 0.000000 0.000000 0.000000
0.325627 0.962220 2.659399 0.000000 0.000000 0.000000
0.294679 0.960291 2.678905 0.000000 0.000000 0.000000
0.313485 0.956951 2.664121 0.000000 0.000000 0.000000
0.283109 0.965490 2.659416 0.000000 0.000000 0.000000
0.339615 0.964061 2.645792 0.000000 0.000000 0.000000
0.292758 0.960219 2.656474 0.000000 0.000000 0.000000
0.281214 0.963276 2.662676 0.000000 0.000000 0.000000
0.322134 0.961762 2.661868 0.000000 0.000000 0.000000
0.269859 0.956566 2.682355 0.000000 0.000000 0.000000
0.291392 0.957950 2.663319 0.000000 0.000000 0.000000
0.286771 0.962536 2.661347 0.000000 0.000000 0.000000
0.319914 0.959936 2.659687 0.000000 0.000000 0.000000
0.264506 0.951264 2.694229 0.000000 0.000000 0.000000
0.330508 0.972282 2.635242 0.000000 0.000000 0.000000
0.305157 0.965511 2.647784 0.000000 0.000000 0.000000
0.336213 0.975217 2.631548 0.000000 0.000000 0.000000
0.341601 0.962819 2.650568 0.000000 0.000000 0.000000
0.314799 0.964422 2.645751 0.000000 0.000000 0.000000
0.314952 0.967743 2.639529 0.000000 0.000000 0.000000
0.343691 0.966758 2.643995 0.000000 0.000000 0.000000
0.315366 0.970440 2.647701 0.000000 0.000000 0.000000
0.308063 0.963864 2.649343 0.000000 0.000000 0.000000
0.320113 0.973533 2.646963 0.000000 0.000000 0.000000
0.336669 0.972171 2.644442 0.000000 0.000000 0.000000
0.314417 0.958668 2.662993 0.000000 0.000000 0.000000
0.324763 0.971095 2.652790 0.000000 0.000000 0.000000
0.302859 0.964526 2.650643 0.000000 0.000000 0.000000
0.334831 0.968149 2.645160 0.000000 0.000000 0.000000
0.338972 0.969575 2.635559 0.000000 0.000000 0.000000
0.331917 0.968764 2.652698 0.000000 0.000000 0.000000
0.296044 0.964737 2.653421 0.000000 0.000000 0.000000
0.327018 0.970401 2.645060 0.000000 0.000000 0.000000
0.338806 0.966738 2.649319 0.000000 0.000000 0.000000
0.265443 0.952179 2.684326 0.000000 0.000000 0.000000
0.321921 0.966086 2.636583 0.000000 0.000000 0.000000
0.318624 0.968306 2.634336 0.000000 0.000000 0.000000
0.324644 0.965761 2.630341 0.000000 0.000000 0.000000
0.321555 0.964284 2.639175 0.000000 0.000000 0.000000
0.308818 0.968004 2.642629 0.000000 0.000000 0.000000
0.336322 0.966145 2.638232 0.000000 0.000000 0.000000
0.313563 0.964899 2.637682 0.000000 0.000000 0.000000
0.316179 0.971482 2.641395 0.000000 0.000000 0.000000
0.325265 0.964324 2.639451 0.000000 0.000000 0.000000
0.322420 0.966613 2.628415 0.000000 0.000000 0.000000
0.332119 0.972762 2.626369 0.000000 0.000000 0.000000
0.305929 0.968903 2.642752 0.000000 0.000000 0.000000
0.309485 0.969353 2.640730 0.000000 0.000000 0.000000
0.301128 0.963879 2.644245 0.000000 0.000000 0.000000
0.292151 0.963604 2.655597 0.000000 0.000000 0.000000
0.339231 0.972421 2.628298 0.000000 0.000000 0.000000
0.306358 0.966755 2.645889 0.000000 0.000000 0.000000
0.320075 0.971499 2.634277 0.000000 0.000000 0.000000
0.360765 0.971169 2.624118 0.000000 0.000000 0.000000
0.272446 0.956613 2.688917 0.000000 0.000000 0.000000
0.303502 0.965910 2.645383 0.000000 0.000000 0.000000
0.300877 0.968023 2.648960 0.000000 0.000000 0.000000
0.268758 0.955383 2.688806 0.000000 0.000000 0.000000
0.264218 0.953467 2.689690 0.000000 0.000000 0.000000
0.273827 0.957192 2.688515 0.000000 0.000000 0.000000
0.245810 0.920470 2.710648 0.000000 0.000000 0.000000
0.274174 0.933978 2.721865 0.000000 0.000000 0.000000
0.327017 0.925414 2.743266 0.000000 0.000000 0.000000
0.253672 0.930201 2.718313 0.000000 0.000000 0.000000
0.286178 0.933851 2.722533 0.000000 0.000000 0.000000
0.300539 0.916422 2.738527 0.000000 0.000000 0.000000
0.325819 0.913764 2.744354 0.000000 0.000000 0.000000
0.331415 0.927234 2.739364 0.000000 0.000000 0.000000
0.323595 0.907032 2.744653 0.000000 0.000000 0.000000
0.277206 0.917370 2.727203 0.000000 0.000000 0.000000
0.324141 0.928410 2.735924 0.000000 0.000000 0.000000
0.287722 0.909142 2.741416 0.000000 0.000000 0.000000
0.244424 0.920068 2.720391 0.000000 0.000000 0.000000
0.241132 0.915381 2.709300 0.000000 0.000000 0.000000
0.285847 0.928413 2.728732 0.000000 0.000000 0.000000
0.251215 0.932509 2.720434 0.000000 0.000000 0.000000
0.295566 0.924629 2.726613 0.000000 0.000000 0.000000
0.285978 0.921176 2.724216 0.000000 0.000000 0.000000
0.313928 0.921254 2.734859 0.000000 0.000000 0.000000
0.310190 0.918765 2.725152 0.000000 0.000000 0.000000
0.307872 0.938266 2.747033 0.000000 0.000000 0.000000
0.305244 0.921953 2.745855 0.000000 0.000000 0.000000
0.298649 0.914368 2.741715 0.000000 0.000000 0.000000
0.253487 0.936358 2.716288 0.000000 0.000000 0.000000
0.247520 0.932761 2.723615 0.000000 0.000000 0.000000
0.244870 0.923161 2.721151 0.000000 0.000000 0.000000
0.318463 0.915501 2.740279 0.000000 0.000000 0.000000
0.335215 0.926597 2.743757 0.000000 0.000000 0.000000
0.281151 0.902025 2.732084 0.000000 0.000000 0.000000
0.254361 0.937527 2.722769 0.000000 0.000000 0.000000
0.328846 0.925983 2.740437 0.000000 0.000000 0.000000
0.328217 0.927050 2.740638 0.000000 0.000000 0.000000
0.265002 0.929322 2.721732 0.000000 0.000000 0.000000
0.304745 0.923811 2.738857 0.000000 0.000000 0.000000
0.317907 0.921269 2.742289 0.000000 0.000000 0.000000
0.273690 0.903645 2.726911 0.000000 0.000000 0.000000
0.268858 0.936702 2.720664 0.000000 0.000000 0.000000
0.319174 0.930708 2.740653 0.000000 0.000000 0.000000
0.301949 0.931329 2.732015 0.000000 0.000000 0.000000
0.256038 0.934423 2.719294 0.000000 0.000000 0.000000
0.268666 0.923305 2.724878 0.000000 0.000000 0.000000
0.275213 0.916436 2.733077 0.000000 0.000000 0.000000
0.306897 0.908491 2.739186 0.000000 0.000000 0.000000
0.282103 0.908210 2.728443 0.000000 0.000000 0.000000
0.276745 0.920799 2.725489 0.000000 0.000000 0.000000
0.278007 0.902890 2.728746 0.000000 0.000000 0.000000
0.294036 0.916256 2.732777 0.000000 0.000000 0.000000
0.277136 0.900610 2.726585 0.000000 0.000000 0.000000
0.283260 0.909247 2.737325 0.000000 0.000000 0.000000
0.246200 0.920755 2.722637 0.000000 0.000000 0.000000
0.257588 0.911489 2.723383 0.000000 0.000000 0.000000
0.244614 0.928830 2.702195 0.000000 0.000000 0.000000
0.268465 0.910421 2.722490 0.000000 0.000000 0.000000
0.273685 0.896194 2.734065 0.000000 0.000000 0.000000
0.257886 0.934476 2.724513 0.000000 0.000000 0.000000
0.271853 0.923478 2.732974 0.000000 0.000000 0.000000
0.322824 0.916348 2.741875 0.000000 0.000000 0.000000
0.269615 0.901340 2.723324 0.000000 0.000000 0.000000
0.275893 0.893178 2.723325 0.000000 0.000000 0.000000
0.298990 0.911879 2.736473 0.000000 0.000000 0.000000
0.263739 0.942291 2.721474 0.000000 0.000000 0.000000
0.318216 0.919551 2.734668 0.000000 0.000000 0.000000
0.322951 0.916903 2.740729 0.000000 0.000000 0.000000
0.279135 0.939466 2.724853 0.000000 0.000000 0.000000
0.256533 0.929086 2.725620 0.000000 0.000000 0.000000
0.258868 0.940149 2.716760 0.000000 0.000000 0.000000
0.333706 0.921483 2.744998 0.000000 0.000000 0.000000
0.314981 0.912858 2.742678 0.000000 0.000000 0.000000
0.312439 0.934196 2.739305 0.000000 0.000000 0.000000
0.289528 0.927303 2.735879 0.000000 0.000000 0.000000
0.301857 0.910041 2.731636 0.000000 0.000000 0.000000
0.277423 0.925121 2.731136 0.000000 0.000000 0.000000
0.286988 0.904210 2.736877 0.000000 0.000000 0.000000
0.319396 0.914424 2.744334 0.000000 0.000000 0.000000
0.308979 0.907952 2.740642 0.000000 0.000000 0.000000
0.285712 0.931153 2.730354 0.000000 0.000000 0.000000
0.297995 0.931871 2.727767 0.000000 0.000000 0.000000
0.253400 0.938776 2.721639 0.000000 0.000000 0.000000
0.248255 0.928966 2.720462 0.000000 0.000000 0.000000
0.255481 0.933885 2.722502 0.000000 0.000000 0.000000
0.277650 0.942866 2.729896 0.000000 0.000000 0.000000
0.297416 0.906533 2.739116 0.000000 0.000000 0.000000
0.296888 0.908970 2.741077 0.000000 0.000000 0.000000
0.288472 0.921900 2.726535 0.000000 0.000000 0.000000
0.331527 0.921694 2.737935 0.000000 0.000000 0.000000
0.289862 0.940277 2.725402 0.000000 0.000000 0.000000
0.302900 0.910121 2.741295 0.000000 0.000000 0.000000
0.306682 0.911078 2.735476 0.000000 0.000000 0.000000
0.319543 0.924913 2.735724 0.000000 0.000000 0.000000
0.260908 0.904220 2.722739 0.000000 0.000000 0.000000
0.271170 0.916007 2.736544 0.000000 0.000000 0.000000
0.275496 0.927858 2.729628 0.000000 0.000000 0.000000
0.284211 0.923905 2.734304 0.000000 0.000000 0.000000
0.303205 0.894352 2.735159 0.000000 0.000000 0.000000
0.279153 0.928317 2.722906 0.000000 0.000000 0.000000
0.297825 0.923403 2.732099 0.000000 0.000000 0.000000
0.330665 0.934035 2.742055 0.000000 0.000000 0.000000
0.315242 0.931549 2.738137 0.000000 0.000000 0.000000
0.304011 0.920488 2.734104 0.000000 0.000000 0.000000
0.258252 0.914146 2.727311 0.000000 0.000000 0.000000
0.293936 0.933792 2.726498 0.000000 0.000000 0.000000
0.304481 0.935497 2.730922 0.000000 0.000000 0.000000
0.314709 0.938827 2.731908 0.000000 0.000000 0.000000
0.268354 0.913297 2.725408 0.000000 0.000000 0.000000
0.292797 0.910520 2.727352 0.000000 0.000000 0.000000
0.296538 0.937185 2.730559 0.000000 0.000000 0.000000
0.270786 0.913031 2.726360 0.000000 0.000000 0.000000
0.262367 0.926637 2.718973 0.000000 0.000000 0.000000
0.304011 0.916601 2.733199 0.000000 0.000000 0.000000
0.292267 0.930871 2.726997 0.000000 0.000000 0.000000
0.265318 0.923722 2.730294 0.000000 0.000000 0.000000
0.313785 0.929909 2.733953 0.000000 0.000000 0.000000
0.312947 0.923338 2.735655 0.000000 0.000000 0.000000
0.323151 0.919681 2.740365 0.000000 0.000000 0.000000
0.306593 0.922816 2.733298 0.000000 0.000000 0.000000
0.294171 0.910830 2.737068 0.000000 0.000000 0.000000
0.318086 0.925960 2.733392 0.000000 0.000000 0.000000
0.243097 0.925451 2.718541 0.000000 0.000000 0.000000
0.301390 0.908447 2.737835 0.000000 0.000000 0.000000
0.308991 0.928061 2.732997 0.000000 0.000000 0.000000
0.271868 0.918638 2.722736 0.000000 0.000000 0.000000
0.272029 0.920274 2.719633 0.000000 0.000000 0.000000
0.246908 0.935123 2.720208 0.000000 0.000000 0.000000
0.329880 0.921054 2.744013 0.000000 0.000000 0.000000
0.297681 0.922062 2.737238 0.000000 0.000000 0.000000
0.284749 0.926781 2.727094 0.000000 0.000000 0.000000
0.300428 0.934318 2.730633 0.000000 0.000000 0.000000
0.297212 0.934625 2.729306 0.000000 0.000000 0.000000
0.324200 0.916726 2.743967 0.000000 0.000000 0.000000
0.286326 0.916553 2.727701 0.000000 0.000000 0.000000
0.290571 0.898732 2.731265 0.000000 0.000000 0.000000
0.327223 0.929797 2.738833 0.000000 0.000000 0.000000
0.311791 0.933770 2.733757 0.000000 0.000000 0.000000
0.290597 0.922663 2.737081 0.000000 0.000000 0.000000
0.293556 0.902397 2.732693 0.000000 0.000000 0.000000
0.310127 0.934585 2.738165 0.000000 0.000000 0.000000
0.299963 0.898404 2.734254 0.000000 0.000000 0.000000
0.283828 0.910952 2.732160 0.000000 0.000000 0.000000
0.275459 0.902728 2.729586 0.000000 0.000000 0.000000
0.287365 0.904080 2.734113 0.000000 0.000000 0.000000
0.270956 0.918408 2.733471 0.000000 0.000000 0.000000
0.254046 0.915609 2.720092 0.000000 0.000000 0.000000
0.264997 0.921965 2.727370 0.000000 0.000000 0.000000
0.286373 0.911348 2.727551 0.000000 0.000000 0.000000
0.328760 0.921688 2.741127 0.000000 0.000000 0.000000
0.311949 0.915995 2.730615 0.000000 0.000000 0.000000
0.295118 0.929496 2.732676 0.000000 0.000000 0.000000
0.273321 0.937201 2.722848 0.000000 0.000000 0.000000
0.272776 0.923864 2.721723 0.000000 0.000000 0.000000
0.302399 0.924125 2.730766 0.000000 0.000000 0.000000
0.306797 0.930244 2.735724 0.000000 0.000000 0.000000
0.280569 0.921912 2.732467 0.000000 0.000000 0.000000
0.272784 0.935109 2.725838 0.000000 0.000000 0.000000
0.295292 0.899929 2.734864 0.000000 0.000000 0.000000
0.273762 0.904288 2.730002 0.000000 0.000000 0.000000
0.276714 0.910453 2.733510 0.000000 0.000000 0.000000
0.279339 0.908488 2.732354 0.000000 0.000000 0.000000
0.305408 0.906165 2.736115 0.000000 0.000000 0.000000
0.281960 0.900729 2.727868 0.000000 0.000000 0.000000
0.290200 0.922744 2.729696 0.000000 0.000000 0.000000
0.313063 0.912691 2.743204 0.000000 0.000000 0.000000
0.281361 0.898529 2.735091 0.000000 0.000000 0.000000
0.311624 0.908013 2.738670 0.000000 0.000000 0.000000
0.293204 0.910521 2.734441 0.000000 0.000000 0.000000
0.275736 0.897557 2.725804 0.000000 0.000000 0.000000
0.287893 0.915737 2.727206 0.000000 0.000000 0.000000
0.292868 0.906367 2.732581 0.000000 0.000000 0.000000
0.285513 0.917142 2.732523 0.000000 0.000000 0.000000
0.324420 0.918714 2.737684 0.000000 0.000000 0.000000
0.310275 0.910140 2.736673 0.000000 0.000000 0.000000
0.257201 0.915189 2.727129 0.000000 0.000000 0.000000
0.241172 0.931026 2.717949 0.000000 0.000000 0.000000
0.253691 0.926054 2.725274 0.000000 0.000000 0.000000
0.267095 0.940565 2.721862 0.000000 0.000000 0.000000
0.278778 0.931783 2.724633 0.000000 0.000000 0.000000
0.249619 0.924731 2.726085 0.000000 0.000000 0.000000
0.267692 0.932994 2.726577 0.000000 0.000000 0.000000
0.252904 0.918961 2.719517 0.000000 0.000000 0.000000
0.247915 0.912819 2.716508 0.000000 0.000000 0.000000
0.276235 0.908460 2.723831 0.000000 0.000000 0.000000
0.242955 0.918828 2.717355 0.000000 0.000000 0.000000
0.322858 0.916389 2.742729 0.000000 0.000000 0.000000
0.336943 0.921787 2.748481 0.000000 0.000000 0.000000
0.314426 0.922392 2.743158 0.000000 0.000000 0.000000
0.322267 0.932986 2.734073 0.000000 0.000000 0.000000
0.263836 0.914358 2.723155 0.000000 0.000000 0.000000
0.322335 0.915318 2.738360 0.000000 0.000000 0.000000
0.270789 0.909422 2.728971 0.000000 0.000000 0.000000
0.256274 0.909692 2.725288 0.000000 0.000000 0.000000
0.316424 0.917846 2.743615 0.000000 0.000000 0.000000
0.276839 0.928180 2.730791 0.000000 0.000000 0.000000
0.266168 0.911041 2.719159 0.000000 0.000000 0.000000
0.307122 0.917395 2.738739 0.000000 0.000000 0.000000
0.257750 0.920390 2.719457 0.000000 0.000000 0.000000
0.258547 0.904384 2.725799 0.000000 0.000000 0.000000
0.323731 0.916218 2.740180 0.000000 0.000000 0.000000
0.302084 0.919086 2.740518 0.000000 0.000000 0.000000
0.271343 0.905582 2.724828 0.000000 0.000000 0.000000
0.242810 0.914949 2.720903 0.000000 0.000000 0.000000
0.317328 0.928233 2.740742 0.000000 0.000000 0.000000
0.254593 0.914746 2.725411 0.000000 0.000000 0.000000
0.272996 0.907517 2.730024 0.000000 0.000000 0.000000
0.281763 0.899426 2.730489 0.000000 0.000000 0.000000
0.275445 0.900170 2.726479 0.000000 0.000000 0.000000
0.261197 0.941452 2.718618 0.000000 0.000000 0.000000
0.251254 0.912274 2.723743 0.000000 0.000000 0.000000
0.276925 0.941420 2.721678 0.000000 0.000000 0.000000
0.289204 0.897841 2.732823 0.000000 0.000000 0.000000
0.278851 0.936082 2.729056 0.000000 0.000000 0.000000
0.252329 0.938423 2.721472 0.000000 0.000000 0.000000
0.273439 0.910453 2.726448 0.000000 0.000000 0.000000
0.254574 0.941978 2.719974 0.000000 0.000000 0.000000
0.280470 0.898323 2.732803 0.000000 0.000000 0.000000
0.264681 0.934568 2.724007 0.000000 0.000000 0.000000
0.272021 0.937355 2.729100 0.000000 0.000000 0.000000
0.275021 0.904552 2.733759 0.000000 0.000000 0.000000
0.261229 0.907855 2.727028 0.000000 0.000000 0.000000
0.300992 0.908623 2.734100 0.000000 0.000000 0.000000
0.280513 0.907856 2.723733 0.000000 0.000000 0.000000
0.258699 0.903180 2.727685 0.000000 0.000000 0.000000
0.266108 0.914647 2.730355 0.000000 0.000000 0.000000
0.283772 0.916298 2.723325 0.000000 0.000000 0.000000
0.271083 0.916752 2.720953 0.000000 0.000000 0.000000
0.268032 0.904910 2.727471 0.000000 0.000000 0.000000
0.326877 0.921405 2.745725 0.000000 0.000000 0.000000
0.330835 0.916057 2.747601 0.000000 0.000000 0.000000
0.244367 0.921802 2.719256 0.000000 0.000000 0.000000
0.245716 0.924421 2.717450 0.000000 0.000000 0.000000
0.287532 0.905382 2.735832 0.000000 0.000000 0.000000
0.278700 0.903099 2.733132 0.000000 0.000000 0.000000
0.254504 0.902493 2.722164 0.000000 0.000000 0.000000
0.243943 0.918485 2.718757 0.000000 0.000000 0.000000
0.310540 0.934216 2.740587 0.000000 0.000000 0.000000
0.284025 0.931095 2.726543 0.000000 0.000000 0.000000
0.317205 0.928948 2.738348 0.000000 0.000000 0.000000
0.286892 0.936432 2.727361 0.000000 0.000000 0.000000
0.293173 0.939534 2.729384 0.000000 0.000000 0.000000
0.306954 0.936162 2.733704 0.000000 0.000000 0.000000
0.328312 0.921877 2.740489 0.000000 0.000000 0.000000
0.266675 0.899715 2.719999 0.000000 0.000000 0.000000
0.313594 0.932318 2.738901 0.000000 0.000000 0.000000
0.267780 0.900460 2.727619 0.000000 0.000000 0.000000
0.244283 0.925439 2.717862 0.000000 0.000000 0.000000
0.245911 0.919252 2.719259 0.000000 0.000000 0.000000
0.244296 0.922054 2.718180 0.000000 0.000000 0.000000
0.308747 0.899203 2.737093 0.000000 0.000000 0.000000
0.296990 0.898853 2.735517 0.000000 0.000000 0.000000
0.307472 0.933469 2.736766 0.000000 0.000000 0.000000
0.313098 0.933134 2.738524 0.000000 0.000000 0.000000
0.284568 0.938954 2.725948 0.000000 0.000000 0.000000
0.297802 0.924531 2.734277 0.000000 0.000000 0.000000
0.302758 0.933265 2.736498 0.000000 0.000000 0.000000
0.293814 0.938116 2.727597 0.000000 0.000000 0.000000
0.241203 0.944651 2.705957 0.000000 0.000000 0.000000
0.245155 0.940498 2.708545 0.000000 0.000000 0.000000
0.250029 0.948075 2.691910 0.000000 0.000000 0.000000
0.240562 0.946850 2.702352 0.000000 0.000000 0.000000
0.252050 0.950036 2.693366 0.000000 0.000000 0.000000
0.254582 0.951560 2.689024 0.000000 0.000000 0.000000
0.241094 0.947110 2.698220 0.000000 0.000000 0.000000
0.241367 0.946789 2.702758 0.000000 0.000000 0.000000
0.240654 0.934510 2.693026 0.000000 0.000000 0.000000
0.255540 0.949409 2.688202 0.000000 0.000000 0.000000
0.290742 0.969579 2.649326 0.000000 0.000000 0.000000
0.244016 0.946783 2.700557 0.000000 0.000000 0.000000
0.247830 0.955661 2.701002 0.000000 0.000000 0.000000
0.248544 0.950954 2.698155 0.000000 0.000000 0.000000
0.247823 0.949435 2.693915 0.000000 0.000000 0.000000
0.244487 0.948953 2.698072 0.000000 0.000000 0.000000
0.255422 0.953262 2.695289 0.000000 0.000000 0.000000
0.248358 0.951320 2.696729 0.000000 0.000000 0.000000
0.243759 0.947328 2.696995 0.000000 0.000000 0.000000
0.253422 0.952363 2.692312 0.000000 0.000000 0.000000
