ply
format ascii 1.0
comment VCGLIB generated
obj_info Generated by SPFormer!
element vertex 158
property float x
property float y
property float z
property float nx
property float ny
property float nz
end_header
0.497278 1.225669 2.079283 0.000000 0.000000 0.000000
0.518108 1.221253 2.045124 0.000000 0.000000 0.000000
0.502455 1.205839 2.047042 0.000000 0.000000 0.000000
0.506713 1.215935 2.058750 0.000000 0.000000 0.000000
0.510433 1.208817 2.039105 0.000000 0.000000 0.000000
0.495499 1.213655 2.065818 0.000000 0.000000 0.000000
0.508178 1.204026 2.041276 0.000000 0.000000 0.000000
0.523313 1.205752 2.038919 0.000000 0.000000 0.000000
0.523373 1.217428 2.044607 0.000000 0.000000 0.000000
0.503924 1.206653 2.051494 0.000000 0.000000 0.000000
0.511253 1.221009 2.055206 0.000000 0.000000 0.000000
0.512760 1.208575 2.053809 0.000000 0.000000 0.000000
0.528461 1.213680 2.070242 0.000000 0.000000 0.000000
0.520210 1.204389 2.041189 0.000000 0.000000 0.000000
0.507985 1.206037 2.055225 0.000000 0.000000 0.000000
0.502757 1.213580 2.056457 0.000000 0.000000 0.000000
0.513058 1.213486 2.046117 0.000000 0.000000 0.000000
0.506147 1.206367 2.044799 0.000000 0.000000 0.000000
0.530348 1.204531 2.044270 0.000000 0.000000 0.000000
0.514758 1.200438 2.034889 0.000000 0.000000 0.000000
0.507163 1.204331 2.046866 0.000000 0.000000 0.000000
0.514894 1.215807 2.048647 0.000000 0.000000 0.000000
0.504816 1.207912 2.053405 0.000000 0.000000 0.000000
0.502987 1.207611 2.060643 0.000000 0.000000 0.000000
0.503168 1.205468 2.041636 0.000000 0.000000 0.000000
0.510077 1.208989 2.050536 0.000000 0.000000 0.000000
0.508768 1.199615 2.037837 0.000000 0.000000 0.000000
0.515859 1.214761 2.049827 0.000000 0.000000 0.000000
0.498319 1.211682 2.062900 0.000000 0.000000 0.000000
0.516536 1.203026 2.043797 0.000000 0.000000 0.000000
0.525328 1.194063 2.038645 0.000000 0.000000 0.000000
0.511575 1.205111 2.045290 0.000000 0.000000 0.000000
0.517959 1.201211 2.037520 0.000000 0.000000 0.000000
0.521510 1.204074 2.036152 0.000000 0.000000 0.000000
0.501455 1.205083 2.047584 0.000000 0.000000 0.000000
0.496857 1.213402 2.064136 0.000000 0.000000 0.000000
0.489004 1.209233 2.064954 0.000000 0.000000 0.000000
0.502728 1.211803 2.060470 0.000000 0.000000 0.000000
0.511837 1.205296 2.046275 0.000000 0.000000 0.000000
0.507947 1.202366 2.042062 0.000000 0.000000 0.000000
0.503295 1.207799 2.050725 0.000000 0.000000 0.000000
0.500898 1.208723 2.057758 0.000000 0.000000 0.000000
0.497549 1.215531 2.066607 0.000000 0.000000 0.000000
0.494958 1.213026 2.066910 0.000000 0.000000 0.000000
0.496326 1.210868 2.061899 0.000000 0.000000 0.000000
0.523036 1.212051 2.041868 0.000000 0.000000 0.000000
0.521945 1.202116 2.040876 0.000000 0.000000 0.000000
0.512648 1.210301 2.045128 0.000000 0.000000 0.000000
0.503722 1.210576 2.043255 0.000000 0.000000 0.000000
0.520110 1.201851 2.043890 0.000000 0.000000 0.000000
0.498417 1.211255 2.061500 0.000000 0.000000 0.000000
0.515981 1.209587 2.046525 0.000000 0.000000 0.000000
0.509183 1.212790 2.053249 0.000000 0.000000 0.000000
0.512666 1.210211 2.038575 0.000000 0.000000 0.000000
0.493145 1.211297 2.065732 0.000000 0.000000 0.000000
0.500587 1.209281 2.060317 0.000000 0.000000 0.000000
0.494835 1.213325 2.067653 0.000000 0.000000 0.000000
0.498932 1.210847 2.060086 0.000000 0.000000 0.000000
0.510384 1.205815 2.049275 0.000000 0.000000 0.000000
0.498613 1.206961 2.047643 0.000000 0.000000 0.000000
0.499987 1.211437 2.060959 0.000000 0.000000 0.000000
0.498737 1.210771 2.055965 0.000000 0.000000 0.000000
0.519689 1.212349 2.040967 0.000000 0.000000 0.000000
0.518410 1.216233 2.037386 0.000000 0.000000 0.000000
0.497127 1.216323 2.069417 0.000000 0.000000 0.000000
0.497894 1.208032 2.057273 0.000000 0.000000 0.000000
0.494764 1.213859 2.062609 0.000000 0.000000 0.000000
0.492950 1.212765 2.069722 0.000000 0.000000 0.000000
0.492213 1.209240 2.066646 0.000000 0.000000 0.000000
0.520867 1.202591 2.043728 0.000000 0.000000 0.000000
0.513036 1.210891 2.048372 0.000000 0.000000 0.000000
0.517338 1.209000 2.045909 0.000000 0.000000 0.000000
0.513349 1.206647 2.048620 0.000000 0.000000 0.000000
0.482178 1.217474 2.079569 0.000000 0.000000 0.000000
0.482390 1.233671 2.079834 0.000000 0.000000 0.000000
0.514783 1.210833 2.040802 0.000000 0.000000 0.000000
0.494089 1.212144 2.069489 0.000000 0.000000 0.000000
0.510502 1.202797 2.038663 0.000000 0.000000 0.000000
0.506955 1.211076 2.052444 0.000000 0.000000 0.000000
0.485585 1.206568 2.068603 0.000000 0.000000 0.000000
0.509191 1.207462 2.040798 0.000000 0.000000 0.000000
0.506395 1.205882 2.039719 0.000000 0.000000 0.000000
0.515782 1.203287 2.037588 0.000000 0.000000 0.000000
0.507494 1.207313 2.047387 0.000000 0.000000 0.000000
0.502927 1.203112 2.043142 0.000000 0.000000 0.000000
0.510330 1.203847 2.038095 0.000000 0.000000 0.000000
0.509275 1.213318 2.051945 0.000000 0.000000 0.000000
0.522370 1.196706 2.042425 0.000000 0.000000 0.000000
0.521418 1.198242 2.034813 0.000000 0.000000 0.000000
0.505505 1.216527 2.056896 0.000000 0.000000 0.000000
0.509946 1.215353 2.054433 0.000000 0.000000 0.000000
0.499738 1.207201 2.049987 0.000000 0.000000 0.000000
0.504513 1.213232 2.056184 0.000000 0.000000 0.000000
0.512365 1.216033 2.053151 0.000000 0.000000 0.000000
0.497673 1.209929 2.062613 0.000000 0.000000 0.000000
0.506932 1.215659 2.057785 0.000000 0.000000 0.000000
0.507133 1.208157 2.057986 0.000000 0.000000 0.000000
0.498635 1.209822 2.056310 0.000000 0.000000 0.000000
0.503921 1.212611 2.056584 0.000000 0.000000 0.000000
0.497288 1.210122 2.062682 0.000000 0.000000 0.000000
0.502021 1.214575 2.063049 0.000000 0.000000 0.000000
0.513498 1.216314 2.050052 0.000000 0.000000 0.000000
0.514079 1.200687 2.040038 0.000000 0.000000 0.000000
0.502458 1.209023 2.050807 0.000000 0.000000 0.000000
0.486946 1.237680 2.078718 0.000000 0.000000 0.000000
0.515997 1.220165 2.050032 0.000000 0.000000 0.000000
0.491310 1.238246 2.079347 0.000000 0.000000 0.000000
0.489841 1.238168 2.078999 0.000000 0.000000 0.000000
0.517486 1.206085 2.037368 0.000000 0.000000 0.000000
0.486685 1.231562 2.078948 0.000000 0.000000 0.000000
0.481392 1.216125 2.076561 0.000000 0.000000 0.000000
0.491937 1.217333 2.076607 0.000000 0.000000 0.000000
0.509230 1.203104 2.039922 0.000000 0.000000 0.000000
0.504458 1.206607 2.045861 0.000000 0.000000 0.000000
0.509744 1.201575 2.044510 0.000000 0.000000 0.000000
0.517095 1.204357 2.047357 0.000000 0.000000 0.000000
0.502005 1.202932 2.043473 0.000000 0.000000 0.000000
0.517289 1.211886 2.046959 0.000000 0.000000 0.000000
0.495369 1.212751 2.063480 0.000000 0.000000 0.000000
0.514616 1.213021 2.043498 0.000000 0.000000 0.000000
0.493618 1.209373 2.059563 0.000000 0.000000 0.000000
0.485809 1.217281 2.076601 0.000000 0.000000 0.000000
0.500467 1.207689 2.053806 0.000000 0.000000 0.000000
0.492063 1.214878 2.074993 0.000000 0.000000 0.000000
0.482067 1.205402 2.072582 0.000000 0.000000 0.000000
0.480804 1.201487 2.077857 0.000000 0.000000 0.000000
0.502724 1.211945 2.062193 0.000000 0.000000 0.000000
0.515884 1.202222 2.041796 0.000000 0.000000 0.000000
0.495506 1.210268 2.062558 0.000000 0.000000 0.000000
0.486612 1.212635 2.070445 0.000000 0.000000 0.000000
0.495335 1.203859 2.056124 0.000000 0.000000 0.000000
0.520576 1.206685 2.041245 0.000000 0.000000 0.000000
0.497942 1.210123 2.059386 0.000000 0.000000 0.000000
0.498265 1.210957 2.051264 0.000000 0.000000 0.000000
0.496545 1.213570 2.069805 0.000000 0.000000 0.000000
0.480378 1.218448 2.079961 0.000000 0.000000 0.000000
0.489095 1.214141 2.071452 0.000000 0.000000 0.000000
0.498728 1.211263 2.062686 0.000000 0.000000 0.000000
0.489350 1.217754 2.074816 0.000000 0.000000 0.000000
0.492288 1.214406 2.068530 0.000000 0.000000 0.000000
0.499440 1.203705 2.049900 0.000000 0.000000 0.000000
0.503065 1.215639 2.061254 0.000000 0.000000 0.000000
0.494571 1.214433 2.070418 0.000000 0.000000 0.000000
0.497049 1.207263 2.058751 0.000000 0.000000 0.000000
0.499618 1.214355 2.064537 0.000000 0.000000 0.000000
0.503298 1.205076 2.046664 0.000000 0.000000 0.000000
0.497509 1.212094 2.064843 0.000000 0.000000 0.000000
0.488905 1.215909 2.073520 0.000000 0.000000 0.000000
0.516278 1.204482 2.032528 0.000000 0.000000 0.000000
0.512425 1.214093 2.048537 0.000000 0.000000 0.000000
0.509028 1.202209 2.040002 0.000000 0.000000 0.000000
0.519106 1.202587 2.035436 0.000000 0.000000 0.000000
0.495470 1.214729 2.073107 0.000000 0.000000 0.000000
0.520919 1.212814 2.043285 0.000000 0.000000 0.000000
0.519185 1.203849 2.042308 0.000000 0.000000 0.000000
0.516909 1.214812 2.044263 0.000000 0.000000 0.000000
0.520613 1.211715 2.043415 0.000000 0.000000 0.000000
0.502520 1.201589 2.040982 0.000000 0.000000 0.000000
