ply
format ascii 1.0
comment VCGLIB generated
obj_info Generated by SPFormer!
element vertex 504
property float x
property float y
property float z
property float nx
property float ny
property float nz
end_header
0.022153 0.927916 2.952560 0.000000 0.000000 0.000000
0.037273 0.930082 2.935165 0.000000 0.000000 0.000000
0.383498 1.148736 2.347981 0.000000 0.000000 0.000000
0.376758 1.123934 2.380419 0.000000 0.000000 0.000000
0.030049 0.932277 2.957983 0.000000 0.000000 0.000000
0.022322 0.935784 2.954754 0.000000 0.000000 0.000000
0.386958 1.199288 2.266925 0.000000 0.000000 0.000000
0.374502 1.104137 2.407494 0.000000 0.000000 0.000000
0.391445 1.180257 2.291155 0.000000 0.000000 0.000000
0.381943 1.165890 2.311314 0.000000 0.000000 0.000000
0.382228 1.113242 2.412272 0.000000 0.000000 0.000000
0.378701 1.187102 2.279374 0.000000 0.000000 0.000000
0.377185 1.161115 2.314558 0.000000 0.000000 0.000000
0.388792 1.177685 2.285463 0.000000 0.000000 0.000000
0.385197 1.182538 2.287414 0.000000 0.000000 0.000000
0.383137 1.172237 2.291426 0.000000 0.000000 0.000000
0.374251 1.188719 2.277748 0.000000 0.000000 0.000000
0.038493 0.927308 2.951051 0.000000 0.000000 0.000000
0.034970 0.930294 2.935346 0.000000 0.000000 0.000000
0.387718 1.177580 2.295677 0.000000 0.000000 0.000000
0.377513 1.177349 2.282500 0.000000 0.000000 0.000000
0.394025 1.183978 2.244826 0.000000 0.000000 0.000000
0.381525 1.175135 2.282689 0.000000 0.000000 0.000000
0.386059 1.176401 2.292144 0.000000 0.000000 0.000000
0.388524 1.190501 2.266872 0.000000 0.000000 0.000000
0.374337 1.134521 2.368074 0.000000 0.000000 0.000000
0.030265 0.928954 2.940232 0.000000 0.000000 0.000000
0.388338 1.179154 2.293482 0.000000 0.000000 0.000000
0.383836 1.195318 2.270698 0.000000 0.000000 0.000000
0.379234 1.186868 2.271363 0.000000 0.000000 0.000000
0.383443 1.140133 2.354023 0.000000 0.000000 0.000000
0.383899 1.199957 2.265788 0.000000 0.000000 0.000000
0.380772 1.191388 2.261497 0.000000 0.000000 0.000000
0.388032 1.166288 2.318763 0.000000 0.000000 0.000000
0.386126 1.194573 2.277463 0.000000 0.000000 0.000000
0.386911 1.184667 2.289778 0.000000 0.000000 0.000000
0.379499 1.160367 2.320282 0.000000 0.000000 0.000000
0.389488 1.195234 2.269658 0.000000 0.000000 0.000000
0.388481 1.196916 2.261862 0.000000 0.000000 0.000000
0.031484 0.921730 2.937837 0.000000 0.000000 0.000000
0.382395 1.125668 2.362375 0.000000 0.000000 0.000000
0.377641 1.138685 2.330228 0.000000 0.000000 0.000000
0.386372 1.160884 2.314608 0.000000 0.000000 0.000000
0.033888 0.932592 2.941858 0.000000 0.000000 0.000000
0.374330 1.120750 2.396437 0.000000 0.000000 0.000000
0.375863 1.129180 2.365233 0.000000 0.000000 0.000000
0.381245 1.175127 2.300112 0.000000 0.000000 0.000000
0.377531 1.164799 2.313565 0.000000 0.000000 0.000000
0.371154 1.121958 2.393306 0.000000 0.000000 0.000000
0.376997 1.131991 2.351798 0.000000 0.000000 0.000000
0.361947 1.099765 2.421727 0.000000 0.000000 0.000000
0.384301 1.142277 2.344009 0.000000 0.000000 0.000000
0.374280 1.183497 2.275560 0.000000 0.000000 0.000000
0.370826 1.112265 2.396937 0.000000 0.000000 0.000000
0.378709 1.125585 2.351517 0.000000 0.000000 0.000000
0.380285 1.165378 2.300190 0.000000 0.000000 0.000000
0.389827 1.165326 2.313453 0.000000 0.000000 0.000000
0.384191 1.184480 2.268767 0.000000 0.000000 0.000000
0.378389 1.165617 2.325797 0.000000 0.000000 0.000000
0.383742 1.188962 2.266048 0.000000 0.000000 0.000000
0.389133 1.182808 2.289912 0.000000 0.000000 0.000000
0.025049 0.941468 2.946361 0.000000 0.000000 0.000000
0.389895 1.168207 2.307220 0.000000 0.000000 0.000000
0.377174 1.119305 2.403387 0.000000 0.000000 0.000000
0.383752 1.196867 2.268836 0.000000 0.000000 0.000000
0.384620 1.195835 2.267177 0.000000 0.000000 0.000000
0.382482 1.168137 2.310662 0.000000 0.000000 0.000000
0.370305 1.099394 2.416885 0.000000 0.000000 0.000000
0.377968 1.131271 2.365025 0.000000 0.000000 0.000000
0.368214 1.103984 2.411014 0.000000 0.000000 0.000000
0.032733 0.928339 2.936972 0.000000 0.000000 0.000000
0.375667 1.123511 2.381487 0.000000 0.000000 0.000000
0.393904 1.114169 2.393464 0.000000 0.000000 0.000000
0.038515 0.931240 2.947843 0.000000 0.000000 0.000000
0.370703 1.136224 2.354862 0.000000 0.000000 0.000000
0.368614 1.109211 2.421525 0.000000 0.000000 0.000000
0.386871 1.166822 2.315562 0.000000 0.000000 0.000000
0.386815 1.150067 2.327924 0.000000 0.000000 0.000000
0.384107 1.160401 2.321975 0.000000 0.000000 0.000000
0.385644 1.166083 2.300985 0.000000 0.000000 0.000000
0.370905 1.094066 2.431958 0.000000 0.000000 0.000000
0.377316 1.090226 2.435330 0.000000 0.000000 0.000000
0.383609 1.157135 2.312248 0.000000 0.000000 0.000000
0.039022 0.928759 2.927610 0.000000 0.000000 0.000000
0.362162 1.088815 2.438915 0.000000 0.000000 0.000000
0.372368 1.104230 2.427148 0.000000 0.000000 0.000000
0.378475 1.123601 2.377618 0.000000 0.000000 0.000000
0.387380 1.199518 2.249569 0.000000 0.000000 0.000000
0.394962 1.145291 2.339691 0.000000 0.000000 0.000000
0.383359 1.158418 2.317275 0.000000 0.000000 0.000000
0.037836 0.939159 2.938081 0.000000 0.000000 0.000000
0.386060 1.157769 2.315947 0.000000 0.000000 0.000000
0.035004 0.940075 2.957189 0.000000 0.000000 0.000000
0.381191 1.143908 2.338458 0.000000 0.000000 0.000000
0.387612 1.166621 2.306424 0.000000 0.000000 0.000000
0.383394 1.140798 2.353511 0.000000 0.000000 0.000000
0.387695 1.176390 2.299055 0.000000 0.000000 0.000000
0.387788 1.177189 2.295591 0.000000 0.000000 0.000000
0.386569 1.166857 2.315829 0.000000 0.000000 0.000000
0.368253 1.108085 2.392749 0.000000 0.000000 0.000000
0.381070 1.124527 2.375319 0.000000 0.000000 0.000000
0.367556 1.108760 2.390604 0.000000 0.000000 0.000000
0.378407 1.119670 2.376859 0.000000 0.000000 0.000000
0.371592 1.118136 2.389379 0.000000 0.000000 0.000000
0.037391 0.921541 2.921885 0.000000 0.000000 0.000000
0.375334 1.113056 2.390241 0.000000 0.000000 0.000000
0.379539 1.122064 2.385778 0.000000 0.000000 0.000000
0.387514 1.129563 2.358635 0.000000 0.000000 0.000000
0.385803 1.184871 2.286069 0.000000 0.000000 0.000000
0.391629 1.193481 2.265824 0.000000 0.000000 0.000000
0.383354 1.163328 2.309231 0.000000 0.000000 0.000000
0.389064 1.157079 2.321600 0.000000 0.000000 0.000000
0.362013 1.085587 2.439432 0.000000 0.000000 0.000000
0.366618 1.091200 2.436403 0.000000 0.000000 0.000000
0.373665 1.099373 2.429064 0.000000 0.000000 0.000000
0.367769 1.129815 2.366663 0.000000 0.000000 0.000000
0.373692 1.137237 2.373381 0.000000 0.000000 0.000000
0.388360 1.164879 2.317395 0.000000 0.000000 0.000000
0.379298 1.174073 2.280817 0.000000 0.000000 0.000000
0.377092 1.133586 2.349175 0.000000 0.000000 0.000000
0.378715 1.116909 2.384960 0.000000 0.000000 0.000000
0.388813 1.174834 2.292774 0.000000 0.000000 0.000000
0.366928 1.101350 2.414831 0.000000 0.000000 0.000000
0.391830 1.161312 2.321628 0.000000 0.000000 0.000000
0.388681 1.160614 2.307883 0.000000 0.000000 0.000000
0.388390 1.161058 2.328295 0.000000 0.000000 0.000000
0.389412 1.157101 2.324996 0.000000 0.000000 0.000000
0.391140 1.180734 2.279972 0.000000 0.000000 0.000000
0.390546 1.181111 2.288552 0.000000 0.000000 0.000000
0.389223 1.191991 2.268343 0.000000 0.000000 0.000000
0.386875 1.183674 2.275173 0.000000 0.000000 0.000000
0.378212 1.192006 2.286482 0.000000 0.000000 0.000000
0.032113 0.936635 2.938161 0.000000 0.000000 0.000000
0.026434 0.925980 2.953289 0.000000 0.000000 0.000000
0.389653 1.149514 2.340078 0.000000 0.000000 0.000000
0.389211 1.156252 2.332390 0.000000 0.000000 0.000000
0.387684 1.154954 2.318580 0.000000 0.000000 0.000000
0.388277 1.162105 2.321401 0.000000 0.000000 0.000000
0.381877 1.182775 2.290465 0.000000 0.000000 0.000000
0.383086 1.157643 2.317425 0.000000 0.000000 0.000000
0.373472 1.095835 2.434749 0.000000 0.000000 0.000000
0.377611 1.132749 2.353534 0.000000 0.000000 0.000000
0.372161 1.091351 2.437293 0.000000 0.000000 0.000000
0.374671 1.137406 2.364293 0.000000 0.000000 0.000000
0.374229 1.119318 2.372450 0.000000 0.000000 0.000000
0.383272 1.115635 2.382825 0.000000 0.000000 0.000000
0.374391 1.115123 2.387769 0.000000 0.000000 0.000000
0.373842 1.125472 2.379855 0.000000 0.000000 0.000000
0.383414 1.162668 2.316063 0.000000 0.000000 0.000000
0.384330 1.152631 2.339201 0.000000 0.000000 0.000000
0.379265 1.151301 2.327317 0.000000 0.000000 0.000000
0.376391 1.175495 2.297181 0.000000 0.000000 0.000000
0.379373 1.146004 2.334523 0.000000 0.000000 0.000000
0.384149 1.160940 2.309857 0.000000 0.000000 0.000000
0.382717 1.150570 2.328255 0.000000 0.000000 0.000000
0.383389 1.163227 2.320533 0.000000 0.000000 0.000000
0.374660 1.184010 2.291692 0.000000 0.000000 0.000000
0.376565 1.159268 2.304799 0.000000 0.000000 0.000000
0.389771 1.146627 2.340322 0.000000 0.000000 0.000000
0.389427 1.161815 2.316482 0.000000 0.000000 0.000000
0.384826 1.190990 2.261786 0.000000 0.000000 0.000000
0.378939 1.194276 2.272219 0.000000 0.000000 0.000000
0.383406 1.199313 2.258152 0.000000 0.000000 0.000000
0.381937 1.198754 2.264894 0.000000 0.000000 0.000000
0.392777 1.191936 2.271293 0.000000 0.000000 0.000000
0.037809 0.933386 2.927726 0.000000 0.000000 0.000000
0.032805 0.932783 2.940152 0.000000 0.000000 0.000000
0.030769 0.933352 2.938195 0.000000 0.000000 0.000000
0.376550 1.149794 2.352652 0.000000 0.000000 0.000000
0.019625 0.926829 2.958504 0.000000 0.000000 0.000000
0.372718 1.162602 2.331647 0.000000 0.000000 0.000000
0.018946 0.929644 2.954497 0.000000 0.000000 0.000000
0.035457 0.931766 2.928932 0.000000 0.000000 0.000000
0.377184 1.143817 2.350569 0.000000 0.000000 0.000000
0.371557 1.132493 2.344378 0.000000 0.000000 0.000000
0.378424 1.137942 2.337100 0.000000 0.000000 0.000000
0.017200 0.922877 2.958892 0.000000 0.000000 0.000000
0.365413 1.090898 2.437559 0.000000 0.000000 0.000000
0.376566 1.143391 2.348004 0.000000 0.000000 0.000000
0.383820 1.148396 2.331739 0.000000 0.000000 0.000000
0.028874 0.924890 2.943560 0.000000 0.000000 0.000000
0.385379 1.193660 2.258459 0.000000 0.000000 0.000000
0.380025 1.137464 2.347652 0.000000 0.000000 0.000000
0.377662 1.137882 2.366307 0.000000 0.000000 0.000000
0.379352 1.137421 2.342657 0.000000 0.000000 0.000000
0.366687 1.098656 2.429258 0.000000 0.000000 0.000000
0.381788 1.149942 2.326680 0.000000 0.000000 0.000000
0.036178 0.923528 2.935509 0.000000 0.000000 0.000000
0.382129 1.149116 2.328569 0.000000 0.000000 0.000000
0.377923 1.147877 2.329210 0.000000 0.000000 0.000000
0.028200 0.929334 2.943954 0.000000 0.000000 0.000000
0.385490 1.189546 2.267488 0.000000 0.000000 0.000000
0.376787 1.129843 2.352544 0.000000 0.000000 0.000000
0.375551 1.122434 2.374129 0.000000 0.000000 0.000000
0.023764 0.927859 2.949033 0.000000 0.000000 0.000000
0.039218 0.926304 2.943008 0.000000 0.000000 0.000000
0.389212 1.149630 2.328696 0.000000 0.000000 0.000000
0.379377 1.133637 2.355498 0.000000 0.000000 0.000000
0.379111 1.189266 2.268908 0.000000 0.000000 0.000000
0.035755 0.926290 2.930609 0.000000 0.000000 0.000000
0.379244 1.187410 2.265221 0.000000 0.000000 0.000000
0.378807 1.144989 2.333368 0.000000 0.000000 0.000000
0.024829 0.925732 2.953456 0.000000 0.000000 0.000000
0.379399 1.193858 2.249625 0.000000 0.000000 0.000000
0.387008 1.152034 2.330253 0.000000 0.000000 0.000000
0.377834 1.143340 2.340278 0.000000 0.000000 0.000000
0.381143 1.195092 2.261153 0.000000 0.000000 0.000000
0.029515 0.924658 2.949008 0.000000 0.000000 0.000000
0.377869 1.192864 2.261438 0.000000 0.000000 0.000000
0.025407 0.934314 2.948531 0.000000 0.000000 0.000000
0.380495 1.147733 2.327199 0.000000 0.000000 0.000000
0.035623 0.929148 2.941778 0.000000 0.000000 0.000000
0.383415 1.193848 2.251747 0.000000 0.000000 0.000000
0.373861 1.119385 2.383791 0.000000 0.000000 0.000000
0.373040 1.115698 2.384620 0.000000 0.000000 0.000000
0.367080 1.103741 2.404975 0.000000 0.000000 0.000000
0.036931 0.928151 2.931241 0.000000 0.000000 0.000000
0.382180 1.181440 2.273244 0.000000 0.000000 0.000000
0.370873 1.118616 2.389011 0.000000 0.000000 0.000000
0.387090 1.189966 2.261374 0.000000 0.000000 0.000000
0.369511 1.106301 2.410622 0.000000 0.000000 0.000000
0.374826 1.120860 2.372439 0.000000 0.000000 0.000000
0.365319 1.105254 2.402542 0.000000 0.000000 0.000000
0.368281 1.107957 2.404016 0.000000 0.000000 0.000000
0.373592 1.118687 2.388492 0.000000 0.000000 0.000000
0.031808 0.927740 2.942492 0.000000 0.000000 0.000000
0.391126 1.157051 2.332490 0.000000 0.000000 0.000000
0.397525 1.154994 2.318074 0.000000 0.000000 0.000000
0.384684 1.176293 2.296062 0.000000 0.000000 0.000000
0.390295 1.177539 2.298129 0.000000 0.000000 0.000000
0.393874 1.177667 2.293841 0.000000 0.000000 0.000000
0.033062 0.928442 2.937062 0.000000 0.000000 0.000000
0.377132 1.175501 2.312466 0.000000 0.000000 0.000000
0.378560 1.156690 2.326249 0.000000 0.000000 0.000000
0.031242 0.932198 2.951022 0.000000 0.000000 0.000000
0.385870 1.153446 2.330164 0.000000 0.000000 0.000000
0.377390 1.140398 2.345788 0.000000 0.000000 0.000000
0.385495 1.155768 2.332332 0.000000 0.000000 0.000000
0.377288 1.124068 2.379260 0.000000 0.000000 0.000000
0.389099 1.131287 2.368671 0.000000 0.000000 0.000000
0.377920 1.142828 2.352516 0.000000 0.000000 0.000000
0.377565 1.134717 2.370930 0.000000 0.000000 0.000000
0.384300 1.129389 2.369039 0.000000 0.000000 0.000000
0.379257 1.124687 2.387708 0.000000 0.000000 0.000000
0.364418 1.097595 2.435544 0.000000 0.000000 0.000000
0.377947 1.143808 2.328893 0.000000 0.000000 0.000000
0.376456 1.188250 2.257024 0.000000 0.000000 0.000000
0.382222 1.140826 2.347705 0.000000 0.000000 0.000000
0.384647 1.139847 2.355542 0.000000 0.000000 0.000000
0.387467 1.137493 2.360061 0.000000 0.000000 0.000000
0.386670 1.132318 2.369174 0.000000 0.000000 0.000000
0.386536 1.139170 2.353672 0.000000 0.000000 0.000000
0.379445 1.136832 2.363658 0.000000 0.000000 0.000000
0.390136 1.130833 2.358603 0.000000 0.000000 0.000000
0.384756 1.132330 2.364362 0.000000 0.000000 0.000000
0.375842 1.136772 2.341637 0.000000 0.000000 0.000000
0.381110 1.142874 2.357490 0.000000 0.000000 0.000000
0.387581 1.132707 2.368365 0.000000 0.000000 0.000000
0.380477 1.177761 2.283222 0.000000 0.000000 0.000000
0.382266 1.175086 2.280672 0.000000 0.000000 0.000000
0.380031 1.176516 2.283107 0.000000 0.000000 0.000000
0.384122 1.173133 2.285735 0.000000 0.000000 0.000000
0.389530 1.193681 2.269153 0.000000 0.000000 0.000000
0.378154 1.181467 2.284726 0.000000 0.000000 0.000000
0.381704 1.172968 2.289656 0.000000 0.000000 0.000000
0.376562 1.114896 2.407539 0.000000 0.000000 0.000000
0.387628 1.184680 2.278780 0.000000 0.000000 0.000000
0.379260 1.183601 2.272073 0.000000 0.000000 0.000000
0.378012 1.189103 2.278145 0.000000 0.000000 0.000000
0.377781 1.181369 2.287948 0.000000 0.000000 0.000000
0.383918 1.160357 2.321638 0.000000 0.000000 0.000000
0.379873 1.178152 2.277200 0.000000 0.000000 0.000000
0.384778 1.184973 2.271692 0.000000 0.000000 0.000000
0.374834 1.190551 2.277624 0.000000 0.000000 0.000000
0.375549 1.185359 2.284203 0.000000 0.000000 0.000000
0.380668 1.180195 2.276433 0.000000 0.000000 0.000000
0.384261 1.179221 2.277612 0.000000 0.000000 0.000000
0.379328 1.146197 2.344900 0.000000 0.000000 0.000000
0.381738 1.137707 2.342170 0.000000 0.000000 0.000000
0.379740 1.156569 2.326546 0.000000 0.000000 0.000000
0.380523 1.194884 2.252203 0.000000 0.000000 0.000000
0.378789 1.140547 2.336658 0.000000 0.000000 0.000000
0.378423 1.158232 2.328774 0.000000 0.000000 0.000000
0.376175 1.138553 2.340354 0.000000 0.000000 0.000000
0.378344 1.146592 2.344319 0.000000 0.000000 0.000000
0.369223 1.096307 2.434687 0.000000 0.000000 0.000000
0.381545 1.151140 2.338970 0.000000 0.000000 0.000000
0.376701 1.133529 2.354392 0.000000 0.000000 0.000000
0.378995 1.187634 2.252304 0.000000 0.000000 0.000000
0.021995 0.927377 2.944084 0.000000 0.000000 0.000000
0.386821 1.189196 2.280156 0.000000 0.000000 0.000000
0.370791 1.099451 2.425588 0.000000 0.000000 0.000000
0.372417 1.104912 2.428778 0.000000 0.000000 0.000000
0.373704 1.103356 2.415595 0.000000 0.000000 0.000000
0.366681 1.105768 2.418196 0.000000 0.000000 0.000000
0.378096 1.118199 2.393836 0.000000 0.000000 0.000000
0.384983 1.181610 2.280063 0.000000 0.000000 0.000000
0.389836 1.154503 2.338107 0.000000 0.000000 0.000000
0.369585 1.097215 2.421343 0.000000 0.000000 0.000000
0.367013 1.106152 2.423373 0.000000 0.000000 0.000000
0.367220 1.104196 2.422939 0.000000 0.000000 0.000000
0.369291 1.100958 2.428787 0.000000 0.000000 0.000000
0.360969 1.100903 2.432832 0.000000 0.000000 0.000000
0.380763 1.173573 2.303875 0.000000 0.000000 0.000000
0.363458 1.096906 2.435880 0.000000 0.000000 0.000000
0.365832 1.094692 2.422866 0.000000 0.000000 0.000000
0.377893 1.113174 2.407263 0.000000 0.000000 0.000000
0.368697 1.102987 2.433123 0.000000 0.000000 0.000000
0.364081 1.103575 2.438325 0.000000 0.000000 0.000000
0.378666 1.146612 2.327656 0.000000 0.000000 0.000000
0.379152 1.152167 2.319912 0.000000 0.000000 0.000000
0.376830 1.148256 2.322216 0.000000 0.000000 0.000000
0.380203 1.144081 2.321506 0.000000 0.000000 0.000000
0.386353 1.140296 2.338410 0.000000 0.000000 0.000000
0.383042 1.173867 2.308468 0.000000 0.000000 0.000000
0.384214 1.189242 2.259247 0.000000 0.000000 0.000000
0.378291 1.179542 2.280320 0.000000 0.000000 0.000000
0.386159 1.193945 2.261850 0.000000 0.000000 0.000000
0.378354 1.173545 2.301440 0.000000 0.000000 0.000000
0.383745 1.189540 2.263547 0.000000 0.000000 0.000000
0.377057 1.157751 2.319032 0.000000 0.000000 0.000000
0.378385 1.151025 2.326095 0.000000 0.000000 0.000000
0.389044 1.174203 2.295951 0.000000 0.000000 0.000000
0.382559 1.121056 2.393678 0.000000 0.000000 0.000000
0.381251 1.170048 2.294612 0.000000 0.000000 0.000000
0.377733 1.194746 2.277307 0.000000 0.000000 0.000000
0.375881 1.185054 2.270503 0.000000 0.000000 0.000000
0.385971 1.193408 2.270335 0.000000 0.000000 0.000000
0.386645 1.121511 2.384699 0.000000 0.000000 0.000000
0.389917 1.188570 2.274293 0.000000 0.000000 0.000000
0.379813 1.172667 2.316099 0.000000 0.000000 0.000000
0.386093 1.182359 2.274863 0.000000 0.000000 0.000000
0.377344 1.191576 2.264218 0.000000 0.000000 0.000000
0.368133 1.133764 2.380899 0.000000 0.000000 0.000000
0.374304 1.121926 2.382582 0.000000 0.000000 0.000000
0.375111 1.124830 2.385671 0.000000 0.000000 0.000000
0.368194 1.121084 2.398466 0.000000 0.000000 0.000000
0.378528 1.115020 2.384732 0.000000 0.000000 0.000000
0.369881 1.107601 2.400016 0.000000 0.000000 0.000000
0.374948 1.127442 2.372528 0.000000 0.000000 0.000000
0.394709 1.127591 2.369261 0.000000 0.000000 0.000000
0.374404 1.133428 2.373401 0.000000 0.000000 0.000000
0.388498 1.130628 2.373266 0.000000 0.000000 0.000000
0.374322 1.116035 2.397898 0.000000 0.000000 0.000000
0.376093 1.126433 2.387590 0.000000 0.000000 0.000000
0.375367 1.102104 2.419185 0.000000 0.000000 0.000000
0.382885 1.123964 2.379202 0.000000 0.000000 0.000000
0.373900 1.124205 2.386922 0.000000 0.000000 0.000000
0.370399 1.127956 2.386102 0.000000 0.000000 0.000000
0.377808 1.114599 2.386597 0.000000 0.000000 0.000000
0.371452 1.122144 2.380761 0.000000 0.000000 0.000000
0.389387 1.118639 2.380612 0.000000 0.000000 0.000000
0.373973 1.121879 2.377445 0.000000 0.000000 0.000000
0.385847 1.131353 2.369846 0.000000 0.000000 0.000000
0.374140 1.125397 2.370342 0.000000 0.000000 0.000000
0.379955 1.164138 2.298192 0.000000 0.000000 0.000000
0.383267 1.157347 2.315013 0.000000 0.000000 0.000000
0.376937 1.166714 2.305825 0.000000 0.000000 0.000000
0.383835 1.167311 2.303035 0.000000 0.000000 0.000000
0.038700 0.932339 2.938205 0.000000 0.000000 0.000000
0.377605 1.116634 2.400557 0.000000 0.000000 0.000000
0.374552 1.128636 2.395879 0.000000 0.000000 0.000000
0.367454 1.108745 2.423793 0.000000 0.000000 0.000000
0.376539 1.117758 2.396794 0.000000 0.000000 0.000000
0.375621 1.112536 2.404296 0.000000 0.000000 0.000000
0.385909 1.106167 2.410336 0.000000 0.000000 0.000000
0.368094 1.125463 2.401740 0.000000 0.000000 0.000000
0.369115 1.108805 2.417124 0.000000 0.000000 0.000000
0.373551 1.115021 2.402762 0.000000 0.000000 0.000000
0.390864 1.168755 2.309527 0.000000 0.000000 0.000000
0.368909 1.108849 2.403882 0.000000 0.000000 0.000000
0.368972 1.102353 2.435625 0.000000 0.000000 0.000000
0.373210 1.113333 2.402783 0.000000 0.000000 0.000000
0.368900 1.107213 2.413078 0.000000 0.000000 0.000000
0.389125 1.164741 2.308977 0.000000 0.000000 0.000000
0.379660 1.115205 2.405571 0.000000 0.000000 0.000000
0.370474 1.114046 2.402534 0.000000 0.000000 0.000000
0.368262 1.099867 2.432750 0.000000 0.000000 0.000000
0.372120 1.104873 2.423712 0.000000 0.000000 0.000000
0.372162 1.106138 2.414806 0.000000 0.000000 0.000000
0.370289 1.110088 2.420206 0.000000 0.000000 0.000000
0.373605 1.117602 2.394309 0.000000 0.000000 0.000000
0.374842 1.106520 2.422138 0.000000 0.000000 0.000000
0.391536 1.163941 2.315768 0.000000 0.000000 0.000000
0.371315 1.107932 2.399728 0.000000 0.000000 0.000000
0.369136 1.113672 2.412332 0.000000 0.000000 0.000000
0.388554 1.166289 2.318322 0.000000 0.000000 0.000000
0.376930 1.116754 2.401043 0.000000 0.000000 0.000000
0.366869 1.103710 2.422755 0.000000 0.000000 0.000000
0.373173 1.108005 2.420775 0.000000 0.000000 0.000000
0.368554 1.112617 2.411924 0.000000 0.000000 0.000000
0.374789 1.107877 2.408056 0.000000 0.000000 0.000000
0.373361 1.106704 2.427401 0.000000 0.000000 0.000000
0.374265 1.114824 2.380764 0.000000 0.000000 0.000000
0.375247 1.110656 2.384279 0.000000 0.000000 0.000000
0.376432 1.131514 2.371453 0.000000 0.000000 0.000000
0.375211 1.127702 2.358054 0.000000 0.000000 0.000000
0.373191 1.122578 2.386675 0.000000 0.000000 0.000000
0.375661 1.128151 2.370547 0.000000 0.000000 0.000000
0.377067 1.121799 2.369509 0.000000 0.000000 0.000000
0.376361 1.127889 2.363307 0.000000 0.000000 0.000000
0.380060 1.140974 2.352537 0.000000 0.000000 0.000000
0.375535 1.123605 2.365341 0.000000 0.000000 0.000000
0.374358 1.128394 2.375203 0.000000 0.000000 0.000000
0.374781 1.125626 2.361752 0.000000 0.000000 0.000000
0.375257 1.126494 2.375373 0.000000 0.000000 0.000000
0.369229 1.100717 2.410473 0.000000 0.000000 0.000000
0.375840 1.133344 2.366617 0.000000 0.000000 0.000000
0.376251 1.130020 2.369062 0.000000 0.000000 0.000000
0.372783 1.123469 2.388936 0.000000 0.000000 0.000000
0.374554 1.125866 2.361904 0.000000 0.000000 0.000000
0.378444 1.199819 2.252207 0.000000 0.000000 0.000000
0.030125 0.926869 2.948330 0.000000 0.000000 0.000000
0.378774 1.165776 2.289090 0.000000 0.000000 0.000000
0.039515 0.936255 2.928110 0.000000 0.000000 0.000000
0.388691 1.142847 2.352198 0.000000 0.000000 0.000000
0.378741 1.143566 2.351712 0.000000 0.000000 0.000000
0.369400 1.149188 2.358295 0.000000 0.000000 0.000000
0.384431 1.152552 2.344086 0.000000 0.000000 0.000000
0.377860 1.145350 2.357007 0.000000 0.000000 0.000000
0.383810 1.151104 2.332511 0.000000 0.000000 0.000000
0.382863 1.134892 2.356876 0.000000 0.000000 0.000000
0.383327 1.147421 2.348479 0.000000 0.000000 0.000000
0.032648 0.934065 2.959639 0.000000 0.000000 0.000000
0.372705 1.148533 2.355855 0.000000 0.000000 0.000000
0.380554 1.145400 2.357149 0.000000 0.000000 0.000000
0.376707 1.137973 2.354819 0.000000 0.000000 0.000000
0.377181 1.138790 2.365196 0.000000 0.000000 0.000000
0.377587 1.136162 2.365865 0.000000 0.000000 0.000000
0.387133 1.150982 2.342859 0.000000 0.000000 0.000000
0.388287 1.139455 2.360201 0.000000 0.000000 0.000000
0.372615 1.158370 2.312319 0.000000 0.000000 0.000000
0.367521 1.115135 2.413223 0.000000 0.000000 0.000000
0.384199 1.142634 2.353947 0.000000 0.000000 0.000000
0.362099 1.104805 2.414899 0.000000 0.000000 0.000000
0.368583 1.110854 2.407807 0.000000 0.000000 0.000000
0.357664 1.100421 2.423857 0.000000 0.000000 0.000000
0.369348 1.112133 2.412765 0.000000 0.000000 0.000000
0.391561 1.175991 2.300677 0.000000 0.000000 0.000000
0.393685 1.175100 2.302533 0.000000 0.000000 0.000000
0.377209 1.155459 2.303007 0.000000 0.000000 0.000000
0.391001 1.169195 2.310344 0.000000 0.000000 0.000000
0.391687 1.177152 2.297758 0.000000 0.000000 0.000000
0.389565 1.157848 2.319961 0.000000 0.000000 0.000000
0.389378 1.170571 2.306481 0.000000 0.000000 0.000000
0.392648 1.183435 2.284195 0.000000 0.000000 0.000000
0.368508 1.102577 2.425481 0.000000 0.000000 0.000000
0.391638 1.175874 2.302373 0.000000 0.000000 0.000000
0.382511 1.167083 2.300696 0.000000 0.000000 0.000000
0.387980 1.168917 2.297006 0.000000 0.000000 0.000000
0.362525 1.096411 2.414967 0.000000 0.000000 0.000000
0.390633 1.165711 2.303490 0.000000 0.000000 0.000000
0.377748 1.152048 2.326749 0.000000 0.000000 0.000000
0.386250 1.175028 2.289165 0.000000 0.000000 0.000000
0.393250 1.187140 2.285350 0.000000 0.000000 0.000000
0.390283 1.193589 2.275632 0.000000 0.000000 0.000000
0.391886 1.182311 2.275951 0.000000 0.000000 0.000000
0.392572 1.179822 2.288641 0.000000 0.000000 0.000000
0.382973 1.174044 2.299843 0.000000 0.000000 0.000000
0.390047 1.176026 2.295515 0.000000 0.000000 0.000000
0.366713 1.099813 2.417719 0.000000 0.000000 0.000000
0.387529 1.171739 2.291897 0.000000 0.000000 0.000000
0.399981 1.180613 2.287307 0.000000 0.000000 0.000000
0.380124 1.158474 2.339394 0.000000 0.000000 0.000000
0.389570 1.179232 2.285258 0.000000 0.000000 0.000000
0.393711 1.188528 2.281308 0.000000 0.000000 0.000000
0.390646 1.188175 2.283566 0.000000 0.000000 0.000000
0.377747 1.178716 2.294742 0.000000 0.000000 0.000000
0.389903 1.185618 2.286643 0.000000 0.000000 0.000000
0.366949 1.101333 2.421241 0.000000 0.000000 0.000000
0.370401 1.110502 2.401078 0.000000 0.000000 0.000000
0.365830 1.097721 2.427016 0.000000 0.000000 0.000000
0.376347 1.183096 2.263263 0.000000 0.000000 0.000000
0.368894 1.098549 2.414300 0.000000 0.000000 0.000000
0.372183 1.103467 2.401325 0.000000 0.000000 0.000000
0.018559 0.932720 2.958972 0.000000 0.000000 0.000000
0.017951 0.926859 2.957584 0.000000 0.000000 0.000000
0.369323 1.110984 2.408369 0.000000 0.000000 0.000000
0.362162 1.094133 2.429355 0.000000 0.000000 0.000000
0.374685 1.178718 2.269703 0.000000 0.000000 0.000000
0.368917 1.101104 2.410313 0.000000 0.000000 0.000000
0.372813 1.110821 2.395452 0.000000 0.000000 0.000000
0.013928 0.922865 2.959706 0.000000 0.000000 0.000000
0.392070 1.173431 2.302251 0.000000 0.000000 0.000000
0.385948 1.195924 2.271179 0.000000 0.000000 0.000000
0.386205 1.175161 2.297772 0.000000 0.000000 0.000000
0.028541 0.925935 2.938182 0.000000 0.000000 0.000000
0.381796 1.160158 2.305268 0.000000 0.000000 0.000000
0.363480 1.091052 2.431660 0.000000 0.000000 0.000000
0.362867 1.093609 2.427185 0.000000 0.000000 0.000000
0.363674 1.094804 2.428220 0.000000 0.000000 0.000000
0.037802 0.940340 2.937019 0.000000 0.000000 0.000000
0.039035 0.931966 2.940152 0.000000 0.000000 0.000000
0.384051 1.159053 2.309167 0.000000 0.000000 0.000000
0.359700 1.096532 2.439623 0.000000 0.000000 0.000000
0.037277 0.939923 2.953901 0.000000 0.000000 0.000000
0.033173 0.944519 2.949729 0.000000 0.000000 0.000000
0.036421 0.941076 2.959982 0.000000 0.000000 0.000000
0.380021 1.163012 2.303708 0.000000 0.000000 0.000000
0.034389 0.938991 2.950338 0.000000 0.000000 0.000000
0.384364 1.164788 2.299169 0.000000 0.000000 0.000000
0.039483 0.930643 2.954956 0.000000 0.000000 0.000000
0.358699 1.089804 2.430454 0.000000 0.000000 0.000000
0.378328 1.147353 2.320694 0.000000 0.000000 0.000000
