ply
format ascii 1.0
comment VCGLIB generated
obj_info Generated by SPFormer!
element vertex 837
property float x
property float y
property float z
property float nx
property float ny
property float nz
end_header
0.366084 1.266670 2.205354 0.000000 0.000000 0.000000
0.352815 1.289992 2.208729 0.000000 0.000000 0.000000
0.340913 1.273726 2.215024 0.000000 0.000000 0.000000
0.387092 1.262665 2.207349 0.000000 0.000000 0.000000
0.395443 1.242000 2.201572 0.000000 0.000000 0.000000
0.368257 1.241138 2.209275 0.000000 0.000000 0.000000
0.362872 1.262059 2.226222 0.000000 0.000000 0.000000
0.357579 1.288356 2.211341 0.000000 0.000000 0.000000
0.356695 1.288737 2.210388 0.000000 0.000000 0.000000
0.384804 1.245441 2.213366 0.000000 0.000000 0.000000
0.348412 1.258397 2.222546 0.000000 0.000000 0.000000
0.364080 1.268182 2.203529 0.000000 0.000000 0.000000
0.353335 1.289506 2.206637 0.000000 0.000000 0.000000
0.351162 1.291041 2.209499 0.000000 0.000000 0.000000
0.352008 1.291560 2.208470 0.000000 0.000000 0.000000
0.355127 1.281049 2.204003 0.000000 0.000000 0.000000
0.371950 1.245923 2.212605 0.000000 0.000000 0.000000
0.357477 1.288202 2.213782 0.000000 0.000000 0.000000
0.377870 1.257052 2.212404 0.000000 0.000000 0.000000
0.363097 1.261183 2.223646 0.000000 0.000000 0.000000
0.357051 1.261740 2.228754 0.000000 0.000000 0.000000
0.367939 1.255784 2.217042 0.000000 0.000000 0.000000
0.359369 1.288510 2.207434 0.000000 0.000000 0.000000
0.352616 1.288676 2.206727 0.000000 0.000000 0.000000
0.361392 1.284469 2.222872 0.000000 0.000000 0.000000
0.356436 1.265456 2.223667 0.000000 0.000000 0.000000
0.359881 1.288300 2.210500 0.000000 0.000000 0.000000
0.356945 1.288308 2.216050 0.000000 0.000000 0.000000
0.352115 1.256425 2.166027 0.000000 0.000000 0.000000
0.352854 1.266113 2.225277 0.000000 0.000000 0.000000
0.344693 1.283248 2.199003 0.000000 0.000000 0.000000
0.357937 1.275465 2.200182 0.000000 0.000000 0.000000
0.356722 1.263008 2.229232 0.000000 0.000000 0.000000
0.361926 1.278987 2.210587 0.000000 0.000000 0.000000
0.366940 1.248132 2.213035 0.000000 0.000000 0.000000
0.392718 1.261242 2.212903 0.000000 0.000000 0.000000
0.382194 1.254495 2.210016 0.000000 0.000000 0.000000
0.367940 1.264225 2.204665 0.000000 0.000000 0.000000
0.352469 1.267135 2.223391 0.000000 0.000000 0.000000
0.363826 1.273065 2.218803 0.000000 0.000000 0.000000
0.345844 1.265846 2.230752 0.000000 0.000000 0.000000
0.351132 1.289585 2.205079 0.000000 0.000000 0.000000
0.363481 1.263471 2.224727 0.000000 0.000000 0.000000
0.360983 1.277840 2.206983 0.000000 0.000000 0.000000
0.383951 1.262267 2.202879 0.000000 0.000000 0.000000
0.388823 1.248215 2.217810 0.000000 0.000000 0.000000
0.351256 1.264022 2.225373 0.000000 0.000000 0.000000
0.392436 1.240576 2.205958 0.000000 0.000000 0.000000
0.362682 1.262905 2.227401 0.000000 0.000000 0.000000
0.360059 1.261335 2.225244 0.000000 0.000000 0.000000
0.357631 1.288477 2.208788 0.000000 0.000000 0.000000
0.348866 1.291441 2.211799 0.000000 0.000000 0.000000
0.352877 1.264106 2.229849 0.000000 0.000000 0.000000
0.352861 1.293277 2.211633 0.000000 0.000000 0.000000
0.351256 1.298163 2.211546 0.000000 0.000000 0.000000
0.346293 1.282211 2.203653 0.000000 0.000000 0.000000
0.375293 1.253389 2.226678 0.000000 0.000000 0.000000
0.371484 1.258491 2.215987 0.000000 0.000000 0.000000
0.375466 1.241410 2.213431 0.000000 0.000000 0.000000
0.361620 1.261873 2.226441 0.000000 0.000000 0.000000
0.351381 1.265595 2.223343 0.000000 0.000000 0.000000
0.389255 1.253025 2.211528 0.000000 0.000000 0.000000
0.350309 1.272709 2.230428 0.000000 0.000000 0.000000
0.385400 1.256681 2.209407 0.000000 0.000000 0.000000
0.353097 1.293061 2.212187 0.000000 0.000000 0.000000
0.386576 1.258121 2.214109 0.000000 0.000000 0.000000
0.357372 1.287030 2.216272 0.000000 0.000000 0.000000
0.376416 1.248477 2.208910 0.000000 0.000000 0.000000
0.388677 1.266476 2.201059 0.000000 0.000000 0.000000
0.366314 1.270841 2.208272 0.000000 0.000000 0.000000
0.385378 1.261894 2.208646 0.000000 0.000000 0.000000
0.357400 1.266847 2.228838 0.000000 0.000000 0.000000
0.357506 1.267169 2.231801 0.000000 0.000000 0.000000
0.398320 1.259575 2.204266 0.000000 0.000000 0.000000
0.367175 1.261225 2.203284 0.000000 0.000000 0.000000
0.352686 1.265129 2.223024 0.000000 0.000000 0.000000
0.355733 1.291697 2.209130 0.000000 0.000000 0.000000
0.353876 1.267829 2.229519 0.000000 0.000000 0.000000
0.359241 1.264084 2.231191 0.000000 0.000000 0.000000
0.384121 1.256375 2.212265 0.000000 0.000000 0.000000
0.356621 1.279851 2.204098 0.000000 0.000000 0.000000
0.388053 1.271809 2.202664 0.000000 0.000000 0.000000
0.357861 1.289047 2.210872 0.000000 0.000000 0.000000
0.388517 1.255453 2.214109 0.000000 0.000000 0.000000
0.361668 1.282083 2.208270 0.000000 0.000000 0.000000
0.359755 1.283269 2.210265 0.000000 0.000000 0.000000
0.381986 1.248185 2.208149 0.000000 0.000000 0.000000
0.380140 1.245035 2.218648 0.000000 0.000000 0.000000
0.358492 1.270456 2.227553 0.000000 0.000000 0.000000
0.355407 1.265004 2.224555 0.000000 0.000000 0.000000
0.355420 1.279925 2.203926 0.000000 0.000000 0.000000
0.358439 1.271899 2.197111 0.000000 0.000000 0.000000
0.360324 1.262175 2.222488 0.000000 0.000000 0.000000
0.362812 1.263286 2.228673 0.000000 0.000000 0.000000
0.364460 1.262039 2.227185 0.000000 0.000000 0.000000
0.363301 1.258500 2.221166 0.000000 0.000000 0.000000
0.369597 1.247931 2.206302 0.000000 0.000000 0.000000
0.366383 1.256239 2.217609 0.000000 0.000000 0.000000
0.373829 1.252372 2.203966 0.000000 0.000000 0.000000
0.359692 1.280994 2.209961 0.000000 0.000000 0.000000
0.391883 1.272626 2.200967 0.000000 0.000000 0.000000
0.385442 1.264448 2.202074 0.000000 0.000000 0.000000
0.355092 1.284892 2.205362 0.000000 0.000000 0.000000
0.361807 1.261603 2.222104 0.000000 0.000000 0.000000
0.359724 1.286654 2.209961 0.000000 0.000000 0.000000
0.348712 1.295558 2.211599 0.000000 0.000000 0.000000
0.376244 1.254134 2.212933 0.000000 0.000000 0.000000
0.366357 1.275332 2.209680 0.000000 0.000000 0.000000
0.356948 1.277293 2.201441 0.000000 0.000000 0.000000
0.363326 1.279494 2.211129 0.000000 0.000000 0.000000
0.359003 1.268905 2.199014 0.000000 0.000000 0.000000
0.373108 1.240772 2.221129 0.000000 0.000000 0.000000
0.357139 1.258874 2.218232 0.000000 0.000000 0.000000
0.354914 1.268189 2.228032 0.000000 0.000000 0.000000
0.375193 1.258478 2.213447 0.000000 0.000000 0.000000
0.351870 1.268056 2.234466 0.000000 0.000000 0.000000
0.389150 1.245973 2.216553 0.000000 0.000000 0.000000
0.365823 1.253746 2.216722 0.000000 0.000000 0.000000
0.353756 1.264028 2.228311 0.000000 0.000000 0.000000
0.352514 1.264208 2.222763 0.000000 0.000000 0.000000
0.353552 1.285704 2.204786 0.000000 0.000000 0.000000
0.354878 1.261110 2.221783 0.000000 0.000000 0.000000
0.352675 1.276730 2.203513 0.000000 0.000000 0.000000
0.357098 1.280569 2.205778 0.000000 0.000000 0.000000
0.358654 1.279858 2.205259 0.000000 0.000000 0.000000
0.360201 1.278111 2.207058 0.000000 0.000000 0.000000
0.359152 1.285436 2.206964 0.000000 0.000000 0.000000
0.353980 1.294023 2.214472 0.000000 0.000000 0.000000
0.346491 1.291996 2.211454 0.000000 0.000000 0.000000
0.375146 1.249837 2.219014 0.000000 0.000000 0.000000
0.388472 1.258388 2.211270 0.000000 0.000000 0.000000
0.375906 1.251921 2.214038 0.000000 0.000000 0.000000
0.360773 1.257406 2.221742 0.000000 0.000000 0.000000
0.380287 1.246611 2.212148 0.000000 0.000000 0.000000
0.359651 1.258692 2.222634 0.000000 0.000000 0.000000
0.368357 1.251301 2.216310 0.000000 0.000000 0.000000
0.386045 1.252768 2.214385 0.000000 0.000000 0.000000
0.359285 1.258530 2.220377 0.000000 0.000000 0.000000
0.362991 1.255596 2.214729 0.000000 0.000000 0.000000
0.374269 1.250315 2.204427 0.000000 0.000000 0.000000
0.356569 1.250405 2.217022 0.000000 0.000000 0.000000
0.376752 1.268249 2.219569 0.000000 0.000000 0.000000
0.387200 1.244015 2.232685 0.000000 0.000000 0.000000
0.363290 1.255572 2.218230 0.000000 0.000000 0.000000
0.364656 1.268982 2.205108 0.000000 0.000000 0.000000
0.379412 1.254881 2.202725 0.000000 0.000000 0.000000
0.362585 1.273767 2.208064 0.000000 0.000000 0.000000
0.360106 1.269557 2.200592 0.000000 0.000000 0.000000
0.357847 1.275197 2.202329 0.000000 0.000000 0.000000
0.366447 1.256693 2.221116 0.000000 0.000000 0.000000
0.360535 1.267236 2.201957 0.000000 0.000000 0.000000
0.355286 1.274955 2.196087 0.000000 0.000000 0.000000
0.387935 1.254133 2.213810 0.000000 0.000000 0.000000
0.357475 1.281677 2.204916 0.000000 0.000000 0.000000
0.362773 1.271015 2.203677 0.000000 0.000000 0.000000
0.360932 1.272459 2.206230 0.000000 0.000000 0.000000
0.361853 1.265507 2.200605 0.000000 0.000000 0.000000
0.357571 1.251871 2.160139 0.000000 0.000000 0.000000
0.351914 1.292384 2.206385 0.000000 0.000000 0.000000
0.348361 1.293626 2.208324 0.000000 0.000000 0.000000
0.358363 1.278438 2.204578 0.000000 0.000000 0.000000
0.358242 1.262667 2.228573 0.000000 0.000000 0.000000
0.360248 1.275631 2.202389 0.000000 0.000000 0.000000
0.364051 1.268264 2.200638 0.000000 0.000000 0.000000
0.353479 1.283741 2.205361 0.000000 0.000000 0.000000
0.358500 1.272039 2.197903 0.000000 0.000000 0.000000
0.350380 1.277373 2.198735 0.000000 0.000000 0.000000
0.358815 1.271541 2.201688 0.000000 0.000000 0.000000
0.361450 1.271094 2.203285 0.000000 0.000000 0.000000
0.360303 1.261666 2.225560 0.000000 0.000000 0.000000
0.394930 1.245692 2.208249 0.000000 0.000000 0.000000
0.348642 1.297825 2.212896 0.000000 0.000000 0.000000
0.365016 1.265651 2.202469 0.000000 0.000000 0.000000
0.393196 1.243717 2.207178 0.000000 0.000000 0.000000
0.348502 1.295706 2.214594 0.000000 0.000000 0.000000
0.362871 1.269004 2.202518 0.000000 0.000000 0.000000
0.356280 1.286129 2.212815 0.000000 0.000000 0.000000
0.359228 1.284749 2.214732 0.000000 0.000000 0.000000
0.358838 1.280568 2.211566 0.000000 0.000000 0.000000
0.358118 1.282714 2.210369 0.000000 0.000000 0.000000
0.358355 1.281707 2.206236 0.000000 0.000000 0.000000
0.353477 1.289628 2.214128 0.000000 0.000000 0.000000
0.350644 1.287350 2.207270 0.000000 0.000000 0.000000
0.361978 1.280104 2.207371 0.000000 0.000000 0.000000
0.358691 1.294854 2.211682 0.000000 0.000000 0.000000
0.388258 1.246433 2.210815 0.000000 0.000000 0.000000
0.371622 1.255818 2.219296 0.000000 0.000000 0.000000
0.352364 1.286135 2.205761 0.000000 0.000000 0.000000
0.352002 1.288297 2.204552 0.000000 0.000000 0.000000
0.355762 1.274374 2.198173 0.000000 0.000000 0.000000
0.349554 1.295561 2.213233 0.000000 0.000000 0.000000
0.356811 1.286780 2.214171 0.000000 0.000000 0.000000
0.365935 1.272927 2.206399 0.000000 0.000000 0.000000
0.365899 1.276029 2.209254 0.000000 0.000000 0.000000
0.349604 1.267985 2.236090 0.000000 0.000000 0.000000
0.359608 1.273725 2.200435 0.000000 0.000000 0.000000
0.386895 1.250901 2.219312 0.000000 0.000000 0.000000
0.362704 1.273825 2.202873 0.000000 0.000000 0.000000
0.390740 1.249941 2.212800 0.000000 0.000000 0.000000
0.367497 1.261136 2.200202 0.000000 0.000000 0.000000
0.383704 1.260639 2.207568 0.000000 0.000000 0.000000
0.360455 1.274160 2.203507 0.000000 0.000000 0.000000
0.346481 1.272087 2.238077 0.000000 0.000000 0.000000
0.350883 1.294676 2.211440 0.000000 0.000000 0.000000
0.356431 1.288332 2.213046 0.000000 0.000000 0.000000
0.349466 1.270245 2.235722 0.000000 0.000000 0.000000
0.366927 1.274456 2.210638 0.000000 0.000000 0.000000
0.391122 1.265878 2.204045 0.000000 0.000000 0.000000
0.393137 1.255818 2.222996 0.000000 0.000000 0.000000
0.350818 1.291394 2.208064 0.000000 0.000000 0.000000
0.349549 1.290542 2.209845 0.000000 0.000000 0.000000
0.361688 1.276921 2.211298 0.000000 0.000000 0.000000
0.359181 1.287710 2.213895 0.000000 0.000000 0.000000
0.355998 1.282362 2.208675 0.000000 0.000000 0.000000
0.352726 1.292031 2.213197 0.000000 0.000000 0.000000
0.361518 1.279341 2.208570 0.000000 0.000000 0.000000
0.364273 1.270224 2.207658 0.000000 0.000000 0.000000
0.353066 1.297200 2.214036 0.000000 0.000000 0.000000
0.354593 1.286589 2.213101 0.000000 0.000000 0.000000
0.368180 1.268730 2.208752 0.000000 0.000000 0.000000
0.356739 1.283653 2.207362 0.000000 0.000000 0.000000
0.355958 1.289365 2.211479 0.000000 0.000000 0.000000
0.355647 1.280632 2.203768 0.000000 0.000000 0.000000
0.351730 1.295071 2.214591 0.000000 0.000000 0.000000
0.354790 1.285651 2.211116 0.000000 0.000000 0.000000
0.354247 1.293979 2.208290 0.000000 0.000000 0.000000
0.356470 1.287742 2.215167 0.000000 0.000000 0.000000
0.355601 1.290521 2.205317 0.000000 0.000000 0.000000
0.351530 1.294442 2.214752 0.000000 0.000000 0.000000
0.358188 1.267614 2.199843 0.000000 0.000000 0.000000
0.352680 1.298067 2.216321 0.000000 0.000000 0.000000
0.351347 1.294044 2.212529 0.000000 0.000000 0.000000
0.372350 1.258775 2.206128 0.000000 0.000000 0.000000
0.351486 1.294944 2.214659 0.000000 0.000000 0.000000
0.396545 1.266890 2.204980 0.000000 0.000000 0.000000
0.397988 1.266456 2.205362 0.000000 0.000000 0.000000
0.351320 1.294841 2.216185 0.000000 0.000000 0.000000
0.350188 1.262789 2.222224 0.000000 0.000000 0.000000
0.351237 1.267062 2.227471 0.000000 0.000000 0.000000
0.394922 1.259693 2.206247 0.000000 0.000000 0.000000
0.356466 1.265900 2.230370 0.000000 0.000000 0.000000
0.358514 1.261829 2.219388 0.000000 0.000000 0.000000
0.356777 1.266416 2.232587 0.000000 0.000000 0.000000
0.394758 1.263404 2.202143 0.000000 0.000000 0.000000
0.357844 1.260809 2.216340 0.000000 0.000000 0.000000
0.398433 1.243602 2.209019 0.000000 0.000000 0.000000
0.357221 1.255272 2.216302 0.000000 0.000000 0.000000
0.357205 1.265302 2.229212 0.000000 0.000000 0.000000
0.355757 1.261041 2.231283 0.000000 0.000000 0.000000
0.355651 1.275411 2.198499 0.000000 0.000000 0.000000
0.345656 1.263136 2.225471 0.000000 0.000000 0.000000
0.367685 1.259679 2.223576 0.000000 0.000000 0.000000
0.355824 1.279082 2.201631 0.000000 0.000000 0.000000
0.353971 1.275400 2.200682 0.000000 0.000000 0.000000
0.358959 1.274202 2.199750 0.000000 0.000000 0.000000
0.348900 1.292113 2.209850 0.000000 0.000000 0.000000
0.360462 1.281523 2.205495 0.000000 0.000000 0.000000
0.384908 1.243029 2.215953 0.000000 0.000000 0.000000
0.369337 1.257431 2.217023 0.000000 0.000000 0.000000
0.363002 1.260314 2.220400 0.000000 0.000000 0.000000
0.372818 1.269478 2.211645 0.000000 0.000000 0.000000
0.361171 1.265498 2.232248 0.000000 0.000000 0.000000
0.379821 1.242238 2.223062 0.000000 0.000000 0.000000
0.373189 1.255803 2.214457 0.000000 0.000000 0.000000
0.384182 1.264698 2.200650 0.000000 0.000000 0.000000
0.353118 1.293225 2.209947 0.000000 0.000000 0.000000
0.353844 1.269697 2.229047 0.000000 0.000000 0.000000
0.347334 1.289970 2.208861 0.000000 0.000000 0.000000
0.355246 1.270140 2.230976 0.000000 0.000000 0.000000
0.382005 1.253856 2.215659 0.000000 0.000000 0.000000
0.373615 1.248935 2.212845 0.000000 0.000000 0.000000
0.354293 1.256960 2.219971 0.000000 0.000000 0.000000
0.347496 1.267653 2.226742 0.000000 0.000000 0.000000
0.372614 1.254436 2.217318 0.000000 0.000000 0.000000
0.365775 1.253376 2.217046 0.000000 0.000000 0.000000
0.357365 1.257989 2.219741 0.000000 0.000000 0.000000
0.362031 1.269246 2.203228 0.000000 0.000000 0.000000
0.354263 1.274330 2.198431 0.000000 0.000000 0.000000
0.110415 1.008963 2.791255 0.000000 0.000000 0.000000
0.076600 1.053169 2.790832 0.000000 0.000000 0.000000
-0.032623 1.089667 2.779400 0.000000 0.000000 0.000000
-0.012354 1.092543 2.787609 0.000000 0.000000 0.000000
0.013183 1.074390 2.773157 0.000000 0.000000 0.000000
0.079416 1.034343 2.783404 0.000000 0.000000 0.000000
-0.020293 1.090892 2.782269 0.000000 0.000000 0.000000
-0.017550 1.092404 2.783125 0.000000 0.000000 0.000000
0.057876 1.068289 2.766167 0.000000 0.000000 0.000000
-0.006825 1.070056 2.787619 0.000000 0.000000 0.000000
-0.005481 1.101337 2.778507 0.000000 0.000000 0.000000
0.023950 1.047680 2.785626 0.000000 0.000000 0.000000
-0.055580 1.090649 2.794671 0.000000 0.000000 0.000000
-0.037336 1.094081 2.785512 0.000000 0.000000 0.000000
-0.060503 1.107210 2.791333 0.000000 0.000000 0.000000
-0.008319 1.076848 2.798502 0.000000 0.000000 0.000000
0.104448 1.025017 2.771201 0.000000 0.000000 0.000000
-0.061681 1.111648 2.797791 0.000000 0.000000 0.000000
-0.011878 1.101419 2.792407 0.000000 0.000000 0.000000
-0.045185 1.112886 2.799326 0.000000 0.000000 0.000000
-0.019594 1.109277 2.783054 0.000000 0.000000 0.000000
-0.032863 1.107974 2.791173 0.000000 0.000000 0.000000
-0.033735 1.108565 2.795264 0.000000 0.000000 0.000000
-0.027002 1.095227 2.784388 0.000000 0.000000 0.000000
0.100490 1.011276 2.766500 0.000000 0.000000 0.000000
0.047451 1.079975 2.776417 0.000000 0.000000 0.000000
-0.009611 1.089398 2.782959 0.000000 0.000000 0.000000
0.028732 1.064961 2.776193 0.000000 0.000000 0.000000
0.049474 1.040310 2.779340 0.000000 0.000000 0.000000
0.078054 1.029582 2.769471 0.000000 0.000000 0.000000
-0.055104 1.111735 2.796304 0.000000 0.000000 0.000000
-0.053570 1.108851 2.799995 0.000000 0.000000 0.000000
0.032778 1.063413 2.774681 0.000000 0.000000 0.000000
0.005979 1.083640 2.793024 0.000000 0.000000 0.000000
0.009610 1.070601 2.794529 0.000000 0.000000 0.000000
0.033982 1.060503 2.785110 0.000000 0.000000 0.000000
0.029886 1.096625 2.775090 0.000000 0.000000 0.000000
-0.029828 1.112474 2.782873 0.000000 0.000000 0.000000
0.001757 1.115291 2.785033 0.000000 0.000000 0.000000
-0.054729 1.097328 2.793334 0.000000 0.000000 0.000000
0.045074 1.081920 2.778282 0.000000 0.000000 0.000000
0.069974 1.080142 2.776068 0.000000 0.000000 0.000000
0.015996 1.089160 2.778228 0.000000 0.000000 0.000000
0.098401 1.007659 2.767021 0.000000 0.000000 0.000000
-0.014802 1.103539 2.776473 0.000000 0.000000 0.000000
0.001131 1.099205 2.781063 0.000000 0.000000 0.000000
-0.031425 1.080586 2.789638 0.000000 0.000000 0.000000
0.049802 1.037041 2.773751 0.000000 0.000000 0.000000
0.065162 1.030441 2.771469 0.000000 0.000000 0.000000
0.078300 1.064788 2.781392 0.000000 0.000000 0.000000
0.064052 1.066184 2.779974 0.000000 0.000000 0.000000
0.048138 1.045674 2.768494 0.000000 0.000000 0.000000
0.041426 1.046182 2.774350 0.000000 0.000000 0.000000
0.072960 1.032039 2.768968 0.000000 0.000000 0.000000
0.056304 1.033726 2.779899 0.000000 0.000000 0.000000
0.085348 1.040960 2.781577 0.000000 0.000000 0.000000
-0.056850 1.095358 2.799086 0.000000 0.000000 0.000000
0.062220 1.070668 2.767327 0.000000 0.000000 0.000000
0.103226 1.003782 2.771082 0.000000 0.000000 0.000000
0.063971 1.030729 2.780647 0.000000 0.000000 0.000000
0.012376 1.076568 2.784549 0.000000 0.000000 0.000000
0.093063 1.005070 2.773818 0.000000 0.000000 0.000000
0.091317 1.015380 2.780834 0.000000 0.000000 0.000000
0.008236 1.091024 2.779140 0.000000 0.000000 0.000000
0.062490 1.063096 2.770350 0.000000 0.000000 0.000000
0.058352 1.039174 2.786351 0.000000 0.000000 0.000000
0.090260 1.020930 2.789575 0.000000 0.000000 0.000000
0.065764 1.054334 2.785101 0.000000 0.000000 0.000000
0.049275 1.066387 2.787291 0.000000 0.000000 0.000000
-0.014454 1.081643 2.780961 0.000000 0.000000 0.000000
0.082254 1.049179 2.767816 0.000000 0.000000 0.000000
0.073831 1.034580 2.769909 0.000000 0.000000 0.000000
0.053162 1.083825 2.772878 0.000000 0.000000 0.000000
0.085146 1.030062 2.767750 0.000000 0.000000 0.000000
0.017615 1.074885 2.796043 0.000000 0.000000 0.000000
0.062394 1.060854 2.771253 0.000000 0.000000 0.000000
0.106408 1.004772 2.779158 0.000000 0.000000 0.000000
0.014663 1.065596 2.785464 0.000000 0.000000 0.000000
-0.018223 1.108483 2.782832 0.000000 0.000000 0.000000
0.021958 1.114667 2.783819 0.000000 0.000000 0.000000
0.069465 1.070511 2.769607 0.000000 0.000000 0.000000
-0.025908 1.120436 2.782630 0.000000 0.000000 0.000000
-0.012488 1.075523 2.787164 0.000000 0.000000 0.000000
-0.015494 1.116355 2.785952 0.000000 0.000000 0.000000
0.112795 1.003703 2.783742 0.000000 0.000000 0.000000
0.102922 1.011346 2.774683 0.000000 0.000000 0.000000
-0.038423 1.120580 2.789299 0.000000 0.000000 0.000000
-0.047444 1.114449 2.795312 0.000000 0.000000 0.000000
0.098894 1.022983 2.773803 0.000000 0.000000 0.000000
0.034611 1.075156 2.780220 0.000000 0.000000 0.000000
0.049978 1.057094 2.771143 0.000000 0.000000 0.000000
0.060015 1.078307 2.773059 0.000000 0.000000 0.000000
0.102164 1.007934 2.782186 0.000000 0.000000 0.000000
-0.038149 1.114927 2.785750 0.000000 0.000000 0.000000
0.082894 1.007330 2.776124 0.000000 0.000000 0.000000
-0.005790 1.076624 2.794449 0.000000 0.000000 0.000000
-0.043770 1.117754 2.798726 0.000000 0.000000 0.000000
-0.013182 1.080891 2.799192 0.000000 0.000000 0.000000
-0.017334 1.081972 2.787107 0.000000 0.000000 0.000000
0.033917 1.059637 2.775417 0.000000 0.000000 0.000000
0.095192 1.015652 2.766836 0.000000 0.000000 0.000000
-0.027823 1.118896 2.785403 0.000000 0.000000 0.000000
0.078247 1.045952 2.783676 0.000000 0.000000 0.000000
-0.042695 1.092677 2.791550 0.000000 0.000000 0.000000
-0.003934 1.087406 2.785831 0.000000 0.000000 0.000000
0.001991 1.103199 2.780015 0.000000 0.000000 0.000000
-0.022041 1.108149 2.778973 0.000000 0.000000 0.000000
-0.015358 1.102934 2.783458 0.000000 0.000000 0.000000
-0.004012 1.111204 2.781608 0.000000 0.000000 0.000000
0.028983 1.055085 2.788542 0.000000 0.000000 0.000000
0.010244 1.110078 2.778310 0.000000 0.000000 0.000000
-0.010523 1.105859 2.782667 0.000000 0.000000 0.000000
0.091426 1.022496 2.772014 0.000000 0.000000 0.000000
0.039478 1.054657 2.793564 0.000000 0.000000 0.000000
-0.013996 1.112990 2.778363 0.000000 0.000000 0.000000
0.053981 1.082644 2.773936 0.000000 0.000000 0.000000
0.044180 1.091108 2.776286 0.000000 0.000000 0.000000
-0.047532 1.115997 2.792979 0.000000 0.000000 0.000000
0.002706 1.086931 2.783046 0.000000 0.000000 0.000000
-0.041840 1.120989 2.793424 0.000000 0.000000 0.000000
-0.047489 1.112626 2.789200 0.000000 0.000000 0.000000
0.056623 1.036985 2.771123 0.000000 0.000000 0.000000
-0.026484 1.096622 2.785062 0.000000 0.000000 0.000000
0.055115 1.037779 2.777992 0.000000 0.000000 0.000000
0.022285 1.078204 2.779331 0.000000 0.000000 0.000000
-0.040438 1.077953 2.793589 0.000000 0.000000 0.000000
0.034597 1.071574 2.782856 0.000000 0.000000 0.000000
-0.026021 1.093312 2.783352 0.000000 0.000000 0.000000
0.019503 1.065153 2.775073 0.000000 0.000000 0.000000
0.003737 1.082733 2.778195 0.000000 0.000000 0.000000
-0.033841 1.117634 2.788563 0.000000 0.000000 0.000000
-0.047991 1.084075 2.795452 0.000000 0.000000 0.000000
0.049350 1.067814 2.767990 0.000000 0.000000 0.000000
-0.020021 1.120688 2.775419 0.000000 0.000000 0.000000
0.005492 1.073500 2.777262 0.000000 0.000000 0.000000
0.050990 1.074462 2.769205 0.000000 0.000000 0.000000
0.047317 1.070072 2.779008 0.000000 0.000000 0.000000
-0.017423 1.091014 2.781636 0.000000 0.000000 0.000000
0.010134 1.058539 2.783790 0.000000 0.000000 0.000000
0.008559 1.088656 2.781679 0.000000 0.000000 0.000000
-0.033756 1.096529 2.785861 0.000000 0.000000 0.000000
0.070296 1.066481 2.767743 0.000000 0.000000 0.000000
0.091915 1.022541 2.766424 0.000000 0.000000 0.000000
0.064611 1.065968 2.778908 0.000000 0.000000 0.000000
-0.025774 1.120558 2.787013 0.000000 0.000000 0.000000
0.042880 1.089463 2.774567 0.000000 0.000000 0.000000
0.070511 1.020610 2.776253 0.000000 0.000000 0.000000
-0.035218 1.107496 2.784761 0.000000 0.000000 0.000000
-0.008281 1.119176 2.785207 0.000000 0.000000 0.000000
0.078682 1.017396 2.776385 0.000000 0.000000 0.000000
-0.027958 1.123063 2.788525 0.000000 0.000000 0.000000
0.083253 1.029291 2.772002 0.000000 0.000000 0.000000
0.060047 1.065325 2.779403 0.000000 0.000000 0.000000
0.070607 1.024223 2.772421 0.000000 0.000000 0.000000
0.076849 1.059908 2.773074 0.000000 0.000000 0.000000
-0.004444 1.103712 2.778246 0.000000 0.000000 0.000000
0.061622 1.028657 2.773315 0.000000 0.000000 0.000000
-0.033116 1.122704 2.782393 0.000000 0.000000 0.000000
0.041088 1.044433 2.782311 0.000000 0.000000 0.000000
-0.029098 1.103791 2.782113 0.000000 0.000000 0.000000
0.097145 1.026974 2.774420 0.000000 0.000000 0.000000
-0.008758 1.073431 2.789479 0.000000 0.000000 0.000000
0.014981 1.100552 2.778256 0.000000 0.000000 0.000000
0.069848 1.074088 2.772674 0.000000 0.000000 0.000000
0.001724 1.119752 2.783168 0.000000 0.000000 0.000000
0.055138 1.080113 2.778321 0.000000 0.000000 0.000000
0.032200 1.092541 2.784764 0.000000 0.000000 0.000000
0.066241 1.077014 2.774354 0.000000 0.000000 0.000000
0.026180 1.081568 2.784598 0.000000 0.000000 0.000000
0.057099 1.062078 2.775659 0.000000 0.000000 0.000000
0.030585 1.098106 2.786941 0.000000 0.000000 0.000000
0.007179 1.065392 2.779951 0.000000 0.000000 0.000000
0.007764 1.109544 2.777992 0.000000 0.000000 0.000000
0.096200 1.004958 2.764659 0.000000 0.000000 0.000000
-0.018360 1.101882 2.779899 0.000000 0.000000 0.000000
0.028689 1.066652 2.774201 0.000000 0.000000 0.000000
0.033140 1.046285 2.778412 0.000000 0.000000 0.000000
0.006703 1.100406 2.778069 0.000000 0.000000 0.000000
-0.002779 1.097947 2.780755 0.000000 0.000000 0.000000
-0.002865 1.119055 2.786869 0.000000 0.000000 0.000000
-0.031923 1.123029 2.788220 0.000000 0.000000 0.000000
0.053029 1.030128 2.775095 0.000000 0.000000 0.000000
-0.045158 1.116467 2.794473 0.000000 0.000000 0.000000
0.078987 1.020878 2.770032 0.000000 0.000000 0.000000
0.041476 1.061952 2.777391 0.000000 0.000000 0.000000
-0.002229 1.120399 2.781157 0.000000 0.000000 0.000000
0.043569 1.048609 2.772349 0.000000 0.000000 0.000000
0.093331 1.010003 2.776187 0.000000 0.000000 0.000000
-0.064079 1.105933 2.794737 0.000000 0.000000 0.000000
0.036828 1.053519 2.769297 0.000000 0.000000 0.000000
0.033328 1.044975 2.780487 0.000000 0.000000 0.000000
0.095219 1.005483 2.774995 0.000000 0.000000 0.000000
-0.010987 1.064730 2.795208 0.000000 0.000000 0.000000
0.033466 1.040744 2.784006 0.000000 0.000000 0.000000
-0.055170 1.106838 2.790441 0.000000 0.000000 0.000000
0.002734 1.077358 2.801851 0.000000 0.000000 0.000000
0.110580 1.002225 2.768964 0.000000 0.000000 0.000000
0.086843 1.016372 2.767399 0.000000 0.000000 0.000000
0.027391 1.047349 2.791911 0.000000 0.000000 0.000000
-0.056209 1.109845 2.793763 0.000000 0.000000 0.000000
-0.025008 1.083869 2.791309 0.000000 0.000000 0.000000
0.018210 1.067062 2.777341 0.000000 0.000000 0.000000
0.094730 1.026637 2.767235 0.000000 0.000000 0.000000
0.001386 1.077018 2.780731 0.000000 0.000000 0.000000
0.060256 1.043568 2.770057 0.000000 0.000000 0.000000
0.065069 1.038515 2.791865 0.000000 0.000000 0.000000
-0.058722 1.111609 2.794060 0.000000 0.000000 0.000000
-0.046416 1.104374 2.788492 0.000000 0.000000 0.000000
0.044255 1.041409 2.775379 0.000000 0.000000 0.000000
0.030211 1.045753 2.778481 0.000000 0.000000 0.000000
-0.041377 1.116305 2.793589 0.000000 0.000000 0.000000
0.036611 1.043506 2.777157 0.000000 0.000000 0.000000
0.059672 1.035987 2.771859 0.000000 0.000000 0.000000
0.027962 1.049974 2.779535 0.000000 0.000000 0.000000
0.024182 1.051676 2.780843 0.000000 0.000000 0.000000
-0.011300 1.124521 2.785409 0.000000 0.000000 0.000000
-0.047233 1.095776 2.799646 0.000000 0.000000 0.000000
-0.001394 1.068778 2.789564 0.000000 0.000000 0.000000
-0.014205 1.124107 2.785809 0.000000 0.000000 0.000000
0.011077 1.105497 2.779534 0.000000 0.000000 0.000000
0.040205 1.094906 2.779052 0.000000 0.000000 0.000000
-0.037626 1.086189 2.794842 0.000000 0.000000 0.000000
0.003993 1.069725 2.773788 0.000000 0.000000 0.000000
-0.048028 1.117332 2.797024 0.000000 0.000000 0.000000
0.041021 1.077242 2.789455 0.000000 0.000000 0.000000
0.065985 1.060641 2.767820 0.000000 0.000000 0.000000
0.056192 1.082666 2.774638 0.000000 0.000000 0.000000
0.001737 1.074213 2.785966 0.000000 0.000000 0.000000
-0.013665 1.084717 2.777210 0.000000 0.000000 0.000000
0.081714 1.061614 2.770122 0.000000 0.000000 0.000000
0.011046 1.107994 2.776793 0.000000 0.000000 0.000000
0.003592 1.117736 2.781560 0.000000 0.000000 0.000000
0.096024 1.005688 2.772174 0.000000 0.000000 0.000000
0.018914 1.099704 2.773220 0.000000 0.000000 0.000000
0.103037 1.010834 2.771350 0.000000 0.000000 0.000000
-0.055250 1.108991 2.800758 0.000000 0.000000 0.000000
-0.048711 1.100634 2.788480 0.000000 0.000000 0.000000
-0.023255 1.077673 2.794727 0.000000 0.000000 0.000000
0.011046 1.075742 2.799196 0.000000 0.000000 0.000000
0.015864 1.059512 2.785846 0.000000 0.000000 0.000000
-0.022594 1.107196 2.782439 0.000000 0.000000 0.000000
0.014329 1.077316 2.805444 0.000000 0.000000 0.000000
0.016857 1.066586 2.776817 0.000000 0.000000 0.000000
0.049372 1.048566 2.801517 0.000000 0.000000 0.000000
-0.003973 1.113959 2.778183 0.000000 0.000000 0.000000
-0.001408 1.083692 2.802383 0.000000 0.000000 0.000000
-0.015755 1.106858 2.805297 0.000000 0.000000 0.000000
-0.035550 1.087406 2.792783 0.000000 0.000000 0.000000
0.004510 1.077828 2.793058 0.000000 0.000000 0.000000
-0.024764 1.087950 2.796083 0.000000 0.000000 0.000000
-0.007646 1.074336 2.796965 0.000000 0.000000 0.000000
0.004034 1.074261 2.801518 0.000000 0.000000 0.000000
-0.042034 1.090642 2.797256 0.000000 0.000000 0.000000
0.062155 1.039564 2.769739 0.000000 0.000000 0.000000
0.065535 1.067129 2.766499 0.000000 0.000000 0.000000
0.077917 1.058395 2.767941 0.000000 0.000000 0.000000
0.048315 1.082956 2.770117 0.000000 0.000000 0.000000
0.047333 1.031206 2.775274 0.000000 0.000000 0.000000
0.012452 1.107127 2.776750 0.000000 0.000000 0.000000
0.059886 1.049096 2.767883 0.000000 0.000000 0.000000
0.031685 1.088141 2.784853 0.000000 0.000000 0.000000
-0.002937 1.082025 2.784004 0.000000 0.000000 0.000000
0.077139 1.022083 2.762059 0.000000 0.000000 0.000000
0.084682 1.031235 2.767111 0.000000 0.000000 0.000000
-0.000713 1.113921 2.782536 0.000000 0.000000 0.000000
0.041184 1.034698 2.786588 0.000000 0.000000 0.000000
0.007470 1.110606 2.775853 0.000000 0.000000 0.000000
0.056489 1.043869 2.770102 0.000000 0.000000 0.000000
-0.034014 1.116818 2.783348 0.000000 0.000000 0.000000
0.072334 1.053628 2.766096 0.000000 0.000000 0.000000
0.039923 1.064886 2.764095 0.000000 0.000000 0.000000
0.073142 1.041592 2.767349 0.000000 0.000000 0.000000
0.062406 1.046380 2.778900 0.000000 0.000000 0.000000
0.003124 1.117802 2.784102 0.000000 0.000000 0.000000
-0.016469 1.080036 2.790398 0.000000 0.000000 0.000000
-0.036381 1.086526 2.790588 0.000000 0.000000 0.000000
0.076493 1.039957 2.786843 0.000000 0.000000 0.000000
0.059046 1.031021 2.782167 0.000000 0.000000 0.000000
-0.051985 1.098487 2.790488 0.000000 0.000000 0.000000
-0.056226 1.105948 2.797062 0.000000 0.000000 0.000000
-0.055077 1.101766 2.794063 0.000000 0.000000 0.000000
-0.010973 1.076723 2.798390 0.000000 0.000000 0.000000
0.001765 1.111754 2.771106 0.000000 0.000000 0.000000
-0.012937 1.123384 2.782684 0.000000 0.000000 0.000000
-0.013371 1.109342 2.781727 0.000000 0.000000 0.000000
-0.019208 1.104419 2.800102 0.000000 0.000000 0.000000
0.012400 1.100434 2.793981 0.000000 0.000000 0.000000
-0.025562 1.112652 2.799724 0.000000 0.000000 0.000000
0.048885 1.035787 2.778247 0.000000 0.000000 0.000000
0.078267 1.018965 2.780820 0.000000 0.000000 0.000000
-0.050830 1.112328 2.801877 0.000000 0.000000 0.000000
-0.001066 1.095473 2.798554 0.000000 0.000000 0.000000
0.067982 1.021853 2.780764 0.000000 0.000000 0.000000
0.083466 1.055646 2.769992 0.000000 0.000000 0.000000
0.076873 1.018396 2.777576 0.000000 0.000000 0.000000
0.087976 1.010312 2.770004 0.000000 0.000000 0.000000
0.093600 1.007058 2.772211 0.000000 0.000000 0.000000
-0.025293 1.078658 2.789485 0.000000 0.000000 0.000000
-0.009910 1.118761 2.785644 0.000000 0.000000 0.000000
0.000275 1.115000 2.786384 0.000000 0.000000 0.000000
0.010770 1.121294 2.784032 0.000000 0.000000 0.000000
0.013713 1.114972 2.784719 0.000000 0.000000 0.000000
-0.017718 1.121728 2.784030 0.000000 0.000000 0.000000
0.005811 1.117795 2.785509 0.000000 0.000000 0.000000
0.016556 1.114460 2.780996 0.000000 0.000000 0.000000
0.003248 1.119520 2.778508 0.000000 0.000000 0.000000
-0.030917 1.075709 2.795248 0.000000 0.000000 0.000000
-0.007704 1.122157 2.782497 0.000000 0.000000 0.000000
-0.033242 1.122716 2.789590 0.000000 0.000000 0.000000
0.005733 1.102816 2.776945 0.000000 0.000000 0.000000
-0.023514 1.122739 2.781649 0.000000 0.000000 0.000000
-0.023702 1.123461 2.786055 0.000000 0.000000 0.000000
-0.047656 1.103150 2.798152 0.000000 0.000000 0.000000
-0.052758 1.111401 2.799655 0.000000 0.000000 0.000000
-0.015104 1.078801 2.784217 0.000000 0.000000 0.000000
-0.013714 1.074200 2.790762 0.000000 0.000000 0.000000
0.029500 1.101613 2.779124 0.000000 0.000000 0.000000
0.019675 1.104213 2.783047 0.000000 0.000000 0.000000
0.011249 1.091430 2.796261 0.000000 0.000000 0.000000
0.000102 1.095902 2.795008 0.000000 0.000000 0.000000
0.013020 1.106385 2.778957 0.000000 0.000000 0.000000
0.010394 1.064948 2.783529 0.000000 0.000000 0.000000
-0.009771 1.072741 2.784599 0.000000 0.000000 0.000000
0.039010 1.087869 2.771793 0.000000 0.000000 0.000000
0.022290 1.107064 2.780624 0.000000 0.000000 0.000000
-0.000285 1.096559 2.796814 0.000000 0.000000 0.000000
-0.006244 1.090416 2.800777 0.000000 0.000000 0.000000
0.006704 1.068614 2.782027 0.000000 0.000000 0.000000
0.043781 1.085309 2.771504 0.000000 0.000000 0.000000
-0.023179 1.122690 2.786504 0.000000 0.000000 0.000000
0.054229 1.070104 2.768060 0.000000 0.000000 0.000000
0.032013 1.070673 2.771778 0.000000 0.000000 0.000000
0.085279 1.017843 2.779297 0.000000 0.000000 0.000000
0.012933 1.063002 2.781491 0.000000 0.000000 0.000000
0.082234 1.012042 2.770483 0.000000 0.000000 0.000000
-0.004832 1.082550 2.800714 0.000000 0.000000 0.000000
-0.053492 1.110744 2.793180 0.000000 0.000000 0.000000
0.066769 1.048154 2.795025 0.000000 0.000000 0.000000
0.042030 1.053853 2.782785 0.000000 0.000000 0.000000
0.048251 1.052637 2.786126 0.000000 0.000000 0.000000
-0.053128 1.103703 2.799688 0.000000 0.000000 0.000000
0.063937 1.087367 2.776442 0.000000 0.000000 0.000000
0.055557 1.044929 2.794130 0.000000 0.000000 0.000000
0.062615 1.043598 2.789592 0.000000 0.000000 0.000000
0.057693 1.088155 2.782200 0.000000 0.000000 0.000000
-0.015179 1.119303 2.784349 0.000000 0.000000 0.000000
-0.004730 1.114067 2.783286 0.000000 0.000000 0.000000
0.018220 1.100258 2.782335 0.000000 0.000000 0.000000
0.069524 1.068100 2.772953 0.000000 0.000000 0.000000
0.076167 1.055883 2.766382 0.000000 0.000000 0.000000
0.017378 1.107008 2.777421 0.000000 0.000000 0.000000
0.090629 1.033557 2.772736 0.000000 0.000000 0.000000
0.103571 1.010891 2.770098 0.000000 0.000000 0.000000
0.071967 1.063595 2.767351 0.000000 0.000000 0.000000
0.082116 1.049800 2.766978 0.000000 0.000000 0.000000
-0.009200 1.120924 2.778075 0.000000 0.000000 0.000000
-0.013492 1.075418 2.794770 0.000000 0.000000 0.000000
-0.054486 1.105647 2.794623 0.000000 0.000000 0.000000
-0.000839 1.121367 2.785311 0.000000 0.000000 0.000000
-0.049677 1.095506 2.796512 0.000000 0.000000 0.000000
0.099028 1.014479 2.767632 0.000000 0.000000 0.000000
-0.027883 1.095705 2.785469 0.000000 0.000000 0.000000
-0.048573 1.097335 2.792237 0.000000 0.000000 0.000000
0.105893 1.010009 2.773668 0.000000 0.000000 0.000000
-0.039020 1.105159 2.786773 0.000000 0.000000 0.000000
0.078465 1.020798 2.774039 0.000000 0.000000 0.000000
-0.052266 1.104723 2.789437 0.000000 0.000000 0.000000
0.097887 1.016585 2.774182 0.000000 0.000000 0.000000
-0.042967 1.087356 2.788217 0.000000 0.000000 0.000000
-0.045458 1.097679 2.786560 0.000000 0.000000 0.000000
0.107316 1.001294 2.765801 0.000000 0.000000 0.000000
0.003789 1.087656 2.783232 0.000000 0.000000 0.000000
-0.048630 1.101728 2.794352 0.000000 0.000000 0.000000
0.097613 1.025280 2.773420 0.000000 0.000000 0.000000
-0.039056 1.098266 2.788213 0.000000 0.000000 0.000000
-0.037723 1.098101 2.787462 0.000000 0.000000 0.000000
0.099440 1.002449 2.768098 0.000000 0.000000 0.000000
-0.045870 1.092320 2.795004 0.000000 0.000000 0.000000
-0.042882 1.112023 2.795368 0.000000 0.000000 0.000000
0.099302 1.022596 2.769495 0.000000 0.000000 0.000000
0.092201 1.008671 2.777193 0.000000 0.000000 0.000000
-0.041339 1.087767 2.793177 0.000000 0.000000 0.000000
-0.051787 1.095204 2.795286 0.000000 0.000000 0.000000
-0.018864 1.125471 2.791040 0.000000 0.000000 0.000000
-0.023278 1.126359 2.788225 0.000000 0.000000 0.000000
0.005214 1.075698 2.805668 0.000000 0.000000 0.000000
0.095389 1.011236 2.769250 0.000000 0.000000 0.000000
0.006483 1.105704 2.792490 0.000000 0.000000 0.000000
0.085031 1.007871 2.772453 0.000000 0.000000 0.000000
-0.020450 1.123249 2.784723 0.000000 0.000000 0.000000
0.017892 1.087479 2.792481 0.000000 0.000000 0.000000
0.006134 1.108622 2.791857 0.000000 0.000000 0.000000
-0.007406 1.123237 2.784106 0.000000 0.000000 0.000000
0.013579 1.072087 2.784661 0.000000 0.000000 0.000000
-0.025750 1.087086 2.800183 0.000000 0.000000 0.000000
0.045581 1.052505 2.789661 0.000000 0.000000 0.000000
-0.044971 1.105584 2.801722 0.000000 0.000000 0.000000
0.001949 1.076041 2.797118 0.000000 0.000000 0.000000
-0.023348 1.069411 2.793836 0.000000 0.000000 0.000000
-0.041297 1.095514 2.802020 0.000000 0.000000 0.000000
0.043562 1.047551 2.785964 0.000000 0.000000 0.000000
-0.032241 1.095295 2.802209 0.000000 0.000000 0.000000
-0.024477 1.083523 2.797043 0.000000 0.000000 0.000000
0.017474 1.058023 2.779109 0.000000 0.000000 0.000000
0.007982 1.078954 2.778364 0.000000 0.000000 0.000000
0.023034 1.077255 2.779601 0.000000 0.000000 0.000000
0.026030 1.104999 2.779780 0.000000 0.000000 0.000000
0.029574 1.052719 2.773916 0.000000 0.000000 0.000000
0.039087 1.066894 2.771896 0.000000 0.000000 0.000000
0.027670 1.066103 2.779858 0.000000 0.000000 0.000000
0.034949 1.100103 2.777666 0.000000 0.000000 0.000000
0.004703 1.121709 2.787222 0.000000 0.000000 0.000000
-0.008500 1.108054 2.798482 0.000000 0.000000 0.000000
-0.024360 1.113653 2.783007 0.000000 0.000000 0.000000
0.048671 1.062614 2.801848 0.000000 0.000000 0.000000
0.029781 1.059338 2.775037 0.000000 0.000000 0.000000
0.028795 1.059229 2.773346 0.000000 0.000000 0.000000
0.087291 1.043759 2.768190 0.000000 0.000000 0.000000
0.097706 1.017360 2.780002 0.000000 0.000000 0.000000
-0.038555 1.095949 2.797250 0.000000 0.000000 0.000000
0.036957 1.093995 2.775029 0.000000 0.000000 0.000000
0.077339 1.073566 2.772110 0.000000 0.000000 0.000000
0.105424 1.007319 2.769388 0.000000 0.000000 0.000000
0.073120 1.069011 2.771866 0.000000 0.000000 0.000000
0.096283 1.031894 2.767773 0.000000 0.000000 0.000000
-0.039732 1.097571 2.801926 0.000000 0.000000 0.000000
0.081076 1.060956 2.770254 0.000000 0.000000 0.000000
-0.045961 1.106519 2.796828 0.000000 0.000000 0.000000
0.107985 1.006065 2.767389 0.000000 0.000000 0.000000
0.060366 1.079163 2.771661 0.000000 0.000000 0.000000
0.083385 1.013588 2.777789 0.000000 0.000000 0.000000
0.021784 1.108794 2.780791 0.000000 0.000000 0.000000
0.016085 1.108675 2.783156 0.000000 0.000000 0.000000
0.019646 1.101506 2.787311 0.000000 0.000000 0.000000
0.023089 1.109727 2.780331 0.000000 0.000000 0.000000
0.039298 1.074320 2.793194 0.000000 0.000000 0.000000
0.112030 1.002435 2.772912 0.000000 0.000000 0.000000
-0.005919 1.122881 2.784942 0.000000 0.000000 0.000000
0.056250 1.083717 2.774241 0.000000 0.000000 0.000000
-0.002660 1.115370 2.778455 0.000000 0.000000 0.000000
0.012220 1.108610 2.778826 0.000000 0.000000 0.000000
0.011089 1.112563 2.782710 0.000000 0.000000 0.000000
0.052424 1.089099 2.773311 0.000000 0.000000 0.000000
0.005227 1.109320 2.776917 0.000000 0.000000 0.000000
-0.019986 1.122617 2.784334 0.000000 0.000000 0.000000
0.075108 1.021234 2.782668 0.000000 0.000000 0.000000
0.069833 1.021012 2.775575 0.000000 0.000000 0.000000
0.063523 1.022715 2.776112 0.000000 0.000000 0.000000
0.086237 1.018195 2.776787 0.000000 0.000000 0.000000
0.071794 1.020061 2.770127 0.000000 0.000000 0.000000
0.061967 1.025645 2.771534 0.000000 0.000000 0.000000
0.005663 1.078446 2.782628 0.000000 0.000000 0.000000
0.041021 1.067334 2.767211 0.000000 0.000000 0.000000
0.046051 1.080288 2.776967 0.000000 0.000000 0.000000
0.042702 1.077271 2.769889 0.000000 0.000000 0.000000
0.039304 1.088637 2.771260 0.000000 0.000000 0.000000
0.030458 1.067593 2.774657 0.000000 0.000000 0.000000
0.023542 1.085644 2.774199 0.000000 0.000000 0.000000
0.062015 1.028528 2.775154 0.000000 0.000000 0.000000
0.042821 1.091242 2.772603 0.000000 0.000000 0.000000
0.028356 1.068701 2.775186 0.000000 0.000000 0.000000
0.018508 1.106081 2.777215 0.000000 0.000000 0.000000
0.030718 1.084242 2.774750 0.000000 0.000000 0.000000
0.056600 1.060505 2.767961 0.000000 0.000000 0.000000
0.007548 1.107042 2.777624 0.000000 0.000000 0.000000
0.021751 1.079154 2.774510 0.000000 0.000000 0.000000
0.008775 1.099274 2.778468 0.000000 0.000000 0.000000
0.089047 1.007329 2.774096 0.000000 0.000000 0.000000
0.031102 1.095182 2.769053 0.000000 0.000000 0.000000
0.015772 1.117724 2.781982 0.000000 0.000000 0.000000
0.015757 1.109647 2.782239 0.000000 0.000000 0.000000
0.081369 1.036304 2.766086 0.000000 0.000000 0.000000
0.075130 1.048342 2.766024 0.000000 0.000000 0.000000
0.102910 1.004941 2.767575 0.000000 0.000000 0.000000
0.057898 1.032270 2.779466 0.000000 0.000000 0.000000
0.050810 1.096235 2.780710 0.000000 0.000000 0.000000
0.044858 1.042621 2.781557 0.000000 0.000000 0.000000
0.080820 1.039686 2.768489 0.000000 0.000000 0.000000
0.072581 1.031548 2.766315 0.000000 0.000000 0.000000
0.056911 1.069553 2.771280 0.000000 0.000000 0.000000
0.090525 1.017615 2.766000 0.000000 0.000000 0.000000
0.071892 1.020423 2.771880 0.000000 0.000000 0.000000
0.089076 1.032809 2.772225 0.000000 0.000000 0.000000
0.038712 1.057750 2.794164 0.000000 0.000000 0.000000
0.034558 1.069991 2.794112 0.000000 0.000000 0.000000
0.043256 1.058254 2.797414 0.000000 0.000000 0.000000
0.041032 1.069107 2.795914 0.000000 0.000000 0.000000
-0.016562 1.098377 2.804924 0.000000 0.000000 0.000000
-0.017237 1.117367 2.781034 0.000000 0.000000 0.000000
-0.016470 1.092447 2.801025 0.000000 0.000000 0.000000
0.002285 1.115205 2.777225 0.000000 0.000000 0.000000
-0.001158 1.074044 2.798247 0.000000 0.000000 0.000000
-0.060328 1.114230 2.794396 0.000000 0.000000 0.000000
0.010769 1.105302 2.775615 0.000000 0.000000 0.000000
-0.017889 1.127410 2.790529 0.000000 0.000000 0.000000
-0.018915 1.105952 2.782613 0.000000 0.000000 0.000000
0.042770 1.068460 2.770482 0.000000 0.000000 0.000000
0.000425 1.087167 2.775305 0.000000 0.000000 0.000000
0.012386 1.098562 2.777273 0.000000 0.000000 0.000000
0.064460 1.063506 2.783702 0.000000 0.000000 0.000000
-0.014698 1.123347 2.784555 0.000000 0.000000 0.000000
0.065908 1.049492 2.793980 0.000000 0.000000 0.000000
0.059939 1.056164 2.796085 0.000000 0.000000 0.000000
-0.003427 1.077503 2.790628 0.000000 0.000000 0.000000
0.080627 1.017287 2.777867 0.000000 0.000000 0.000000
-0.030544 1.079742 2.790792 0.000000 0.000000 0.000000
-0.026076 1.085734 2.785833 0.000000 0.000000 0.000000
0.069548 1.022694 2.778616 0.000000 0.000000 0.000000
0.060484 1.027557 2.779956 0.000000 0.000000 0.000000
-0.019552 1.073813 2.788825 0.000000 0.000000 0.000000
-0.026167 1.080532 2.786918 0.000000 0.000000 0.000000
0.071927 1.015938 2.774590 0.000000 0.000000 0.000000
0.063924 1.023408 2.776496 0.000000 0.000000 0.000000
0.008417 1.077810 2.803274 0.000000 0.000000 0.000000
0.007158 1.084634 2.800947 0.000000 0.000000 0.000000
-0.025405 1.093750 2.794279 0.000000 0.000000 0.000000
0.016077 1.086584 2.802061 0.000000 0.000000 0.000000
-0.003764 1.097676 2.798605 0.000000 0.000000 0.000000
-0.017119 1.116096 2.793629 0.000000 0.000000 0.000000
0.052570 1.039342 2.790999 0.000000 0.000000 0.000000
-0.039692 1.122825 2.791840 0.000000 0.000000 0.000000
-0.017230 1.122687 2.786551 0.000000 0.000000 0.000000
-0.035994 1.113485 2.800693 0.000000 0.000000 0.000000
0.069158 1.026246 2.785157 0.000000 0.000000 0.000000
-0.034410 1.123022 2.789638 0.000000 0.000000 0.000000
-0.047446 1.109653 2.800191 0.000000 0.000000 0.000000
-0.038476 1.120990 2.791280 0.000000 0.000000 0.000000
0.085818 1.046053 2.778159 0.000000 0.000000 0.000000
0.089640 1.045912 2.772954 0.000000 0.000000 0.000000
-0.033937 1.111158 2.799217 0.000000 0.000000 0.000000
-0.007870 1.105721 2.797027 0.000000 0.000000 0.000000
0.052817 1.083851 2.771013 0.000000 0.000000 0.000000
0.085657 1.055869 2.776014 0.000000 0.000000 0.000000
0.091470 1.037854 2.775464 0.000000 0.000000 0.000000
-0.027471 1.111005 2.800618 0.000000 0.000000 0.000000
-0.014907 1.106775 2.801195 0.000000 0.000000 0.000000
-0.006795 1.075382 2.802052 0.000000 0.000000 0.000000
0.027762 1.050014 2.783027 0.000000 0.000000 0.000000
0.015505 1.057250 2.782612 0.000000 0.000000 0.000000
-0.041987 1.091290 2.798714 0.000000 0.000000 0.000000
-0.032560 1.094514 2.799941 0.000000 0.000000 0.000000
0.034848 1.050827 2.785586 0.000000 0.000000 0.000000
0.005284 1.066036 2.786962 0.000000 0.000000 0.000000
-0.031793 1.085516 2.797348 0.000000 0.000000 0.000000
-0.040780 1.092307 2.797548 0.000000 0.000000 0.000000
0.001700 1.067574 2.783617 0.000000 0.000000 0.000000
0.011056 1.063639 2.779531 0.000000 0.000000 0.000000
-0.005003 1.068933 2.791238 0.000000 0.000000 0.000000
0.001425 1.065453 2.784298 0.000000 0.000000 0.000000
0.007466 1.065704 2.790589 0.000000 0.000000 0.000000
-0.015737 1.083880 2.784167 0.000000 0.000000 0.000000
0.042740 1.036280 2.778923 0.000000 0.000000 0.000000
-0.002830 1.057910 2.787651 0.000000 0.000000 0.000000
0.011332 1.073857 2.789263 0.000000 0.000000 0.000000
0.009048 1.069343 2.791481 0.000000 0.000000 0.000000
0.042597 1.042630 2.779428 0.000000 0.000000 0.000000
0.050337 1.029006 2.777417 0.000000 0.000000 0.000000
0.003206 1.057537 2.785388 0.000000 0.000000 0.000000
-0.001870 1.066475 2.787184 0.000000 0.000000 0.000000
