ply
format ascii 1.0
comment VCGLIB generated
obj_info Generated by SPFormer!
element vertex 438
property float x
property float y
property float z
property float nx
property float ny
property float nz
end_header
0.436761 0.970628 2.521264 0.000000 0.000000 0.000000
0.427948 0.984705 2.520864 0.000000 0.000000 0.000000
0.520241 0.887629 2.542017 0.000000 0.000000 0.000000
0.557334 0.996944 2.500896 0.000000 0.000000 0.000000
0.567361 0.977292 2.531550 0.000000 0.000000 0.000000
0.543392 0.924658 2.542354 0.000000 0.000000 0.000000
0.546894 0.933719 2.532678 0.000000 0.000000 0.000000
0.552592 0.943887 2.543431 0.000000 0.000000 0.000000
0.552069 0.948196 2.528054 0.000000 0.000000 0.000000
0.562730 0.956172 2.548979 0.000000 0.000000 0.000000
0.589062 1.008259 2.550834 0.000000 0.000000 0.000000
0.545583 0.959250 2.583380 0.000000 0.000000 0.000000
0.593283 1.037325 2.553890 0.000000 0.000000 0.000000
0.561377 0.990872 2.516987 0.000000 0.000000 0.000000
0.545450 0.960521 2.509356 0.000000 0.000000 0.000000
0.561795 0.997752 2.509775 0.000000 0.000000 0.000000
0.595250 1.017437 2.581817 0.000000 0.000000 0.000000
0.551324 0.929938 2.546021 0.000000 0.000000 0.000000
0.566163 0.990156 2.509062 0.000000 0.000000 0.000000
0.554336 0.935906 2.564453 0.000000 0.000000 0.000000
0.570282 0.964530 2.570362 0.000000 0.000000 0.000000
0.572069 0.969880 2.535073 0.000000 0.000000 0.000000
0.577246 1.032276 2.518491 0.000000 0.000000 0.000000
0.563290 0.981672 2.517662 0.000000 0.000000 0.000000
0.559047 0.962090 2.529861 0.000000 0.000000 0.000000
0.548595 0.983741 2.498428 0.000000 0.000000 0.000000
0.592050 1.047369 2.518986 0.000000 0.000000 0.000000
0.569442 0.962391 2.560660 0.000000 0.000000 0.000000
0.599711 1.029394 2.560162 0.000000 0.000000 0.000000
0.586977 1.010460 2.572239 0.000000 0.000000 0.000000
0.600311 1.020886 2.561865 0.000000 0.000000 0.000000
0.601598 1.021320 2.564053 0.000000 0.000000 0.000000
0.602309 1.043593 2.550117 0.000000 0.000000 0.000000
0.561199 1.021905 2.546006 0.000000 0.000000 0.000000
0.601873 1.040304 2.577304 0.000000 0.000000 0.000000
0.590432 1.004004 2.570304 0.000000 0.000000 0.000000
0.590677 1.006203 2.566714 0.000000 0.000000 0.000000
0.535104 0.913968 2.532895 0.000000 0.000000 0.000000
0.599875 1.014786 2.551765 0.000000 0.000000 0.000000
0.573936 1.030805 2.529932 0.000000 0.000000 0.000000
0.586410 1.030018 2.519243 0.000000 0.000000 0.000000
0.594764 0.999551 2.558568 0.000000 0.000000 0.000000
0.580699 0.991432 2.564151 0.000000 0.000000 0.000000
0.595931 1.013880 2.557429 0.000000 0.000000 0.000000
0.554373 0.939617 2.553389 0.000000 0.000000 0.000000
0.568070 1.002751 2.506035 0.000000 0.000000 0.000000
0.588650 1.007742 2.578156 0.000000 0.000000 0.000000
0.600135 1.054841 2.557320 0.000000 0.000000 0.000000
0.599812 1.031200 2.541717 0.000000 0.000000 0.000000
0.597830 1.031134 2.534776 0.000000 0.000000 0.000000
0.560773 0.950589 2.569537 0.000000 0.000000 0.000000
0.597497 1.027625 2.529831 0.000000 0.000000 0.000000
0.597340 1.019504 2.572644 0.000000 0.000000 0.000000
0.555925 0.947889 2.533651 0.000000 0.000000 0.000000
0.598113 1.023356 2.553042 0.000000 0.000000 0.000000
0.570656 0.993178 2.504143 0.000000 0.000000 0.000000
0.568185 0.963980 2.573425 0.000000 0.000000 0.000000
0.603642 1.039949 2.562285 0.000000 0.000000 0.000000
0.589485 0.998642 2.568505 0.000000 0.000000 0.000000
0.550699 0.925161 2.555204 0.000000 0.000000 0.000000
0.586358 1.024183 2.514900 0.000000 0.000000 0.000000
0.601667 1.020013 2.554909 0.000000 0.000000 0.000000
0.594139 1.013689 2.569665 0.000000 0.000000 0.000000
0.561154 0.950843 2.562137 0.000000 0.000000 0.000000
0.585986 1.008005 2.534908 0.000000 0.000000 0.000000
0.602423 1.050784 2.538139 0.000000 0.000000 0.000000
0.570343 0.979330 2.577922 0.000000 0.000000 0.000000
0.550809 0.936826 2.559500 0.000000 0.000000 0.000000
0.600051 1.028786 2.547826 0.000000 0.000000 0.000000
0.593972 1.023961 2.521515 0.000000 0.000000 0.000000
0.592708 1.013457 2.572282 0.000000 0.000000 0.000000
0.604425 1.036628 2.552716 0.000000 0.000000 0.000000
0.554868 1.014247 2.500667 0.000000 0.000000 0.000000
0.605704 1.039067 2.551963 0.000000 0.000000 0.000000
0.561123 0.944046 2.552137 0.000000 0.000000 0.000000
0.554482 0.962409 2.519437 0.000000 0.000000 0.000000
0.591742 1.008030 2.556778 0.000000 0.000000 0.000000
0.531999 0.939222 2.505367 0.000000 0.000000 0.000000
0.559342 0.970605 2.517616 0.000000 0.000000 0.000000
0.572476 0.993151 2.528542 0.000000 0.000000 0.000000
0.563923 1.009893 2.501844 0.000000 0.000000 0.000000
0.584704 0.940480 2.579460 0.000000 0.000000 0.000000
0.543909 0.938657 2.523493 0.000000 0.000000 0.000000
0.571502 0.971534 2.558205 0.000000 0.000000 0.000000
0.564445 0.966791 2.530308 0.000000 0.000000 0.000000
0.531046 0.948799 2.496147 0.000000 0.000000 0.000000
0.574670 0.986367 2.526116 0.000000 0.000000 0.000000
0.536446 0.989219 2.502031 0.000000 0.000000 0.000000
0.587794 1.036954 2.507490 0.000000 0.000000 0.000000
0.564265 1.030314 2.517749 0.000000 0.000000 0.000000
0.601370 1.041131 2.540317 0.000000 0.000000 0.000000
0.600108 1.027745 2.548788 0.000000 0.000000 0.000000
0.576140 0.984272 2.567211 0.000000 0.000000 0.000000
0.603641 1.045540 2.545966 0.000000 0.000000 0.000000
0.596202 1.021386 2.544978 0.000000 0.000000 0.000000
0.596382 1.012285 2.572653 0.000000 0.000000 0.000000
0.599322 1.028710 2.567397 0.000000 0.000000 0.000000
0.599000 1.037403 2.533864 0.000000 0.000000 0.000000
0.593968 1.026506 2.528244 0.000000 0.000000 0.000000
0.598878 1.052556 2.557379 0.000000 0.000000 0.000000
0.600308 1.036532 2.540610 0.000000 0.000000 0.000000
0.596648 1.022855 2.540699 0.000000 0.000000 0.000000
0.603538 1.041066 2.567408 0.000000 0.000000 0.000000
0.593019 1.037104 2.520903 0.000000 0.000000 0.000000
0.599777 1.045126 2.564313 0.000000 0.000000 0.000000
0.579382 1.025586 2.529395 0.000000 0.000000 0.000000
0.599050 1.032775 2.536793 0.000000 0.000000 0.000000
0.603958 1.042600 2.544975 0.000000 0.000000 0.000000
0.604486 1.046417 2.565928 0.000000 0.000000 0.000000
0.555290 1.000838 2.497169 0.000000 0.000000 0.000000
0.542096 0.912494 2.544229 0.000000 0.000000 0.000000
0.558794 1.005190 2.497081 0.000000 0.000000 0.000000
0.528894 0.920492 2.521338 0.000000 0.000000 0.000000
0.580080 0.972611 2.557967 0.000000 0.000000 0.000000
0.598986 1.023834 2.576900 0.000000 0.000000 0.000000
0.593568 1.042078 2.523297 0.000000 0.000000 0.000000
0.594636 1.042660 2.518858 0.000000 0.000000 0.000000
0.599712 1.043758 2.526935 0.000000 0.000000 0.000000
0.588532 1.021221 2.523122 0.000000 0.000000 0.000000
0.587205 1.004712 2.578191 0.000000 0.000000 0.000000
0.578314 1.016163 2.513124 0.000000 0.000000 0.000000
0.583850 0.961177 2.569835 0.000000 0.000000 0.000000
0.533591 0.963912 2.495121 0.000000 0.000000 0.000000
0.536818 0.947320 2.506825 0.000000 0.000000 0.000000
0.554721 0.985983 2.504029 0.000000 0.000000 0.000000
0.563145 0.968804 2.516624 0.000000 0.000000 0.000000
0.573054 1.006312 2.520456 0.000000 0.000000 0.000000
0.570456 0.987729 2.524556 0.000000 0.000000 0.000000
0.604243 1.045838 2.535939 0.000000 0.000000 0.000000
0.532579 0.895411 2.534861 0.000000 0.000000 0.000000
0.601624 0.980540 2.554763 0.000000 0.000000 0.000000
0.535536 0.913111 2.551664 0.000000 0.000000 0.000000
0.581622 0.993410 2.575585 0.000000 0.000000 0.000000
0.553169 0.905793 2.565618 0.000000 0.000000 0.000000
0.599996 1.025380 2.567070 0.000000 0.000000 0.000000
0.601005 1.053719 2.539068 0.000000 0.000000 0.000000
0.542362 0.976406 2.556295 0.000000 0.000000 0.000000
0.532045 0.915624 2.564313 0.000000 0.000000 0.000000
0.540645 0.981421 2.548417 0.000000 0.000000 0.000000
0.545226 0.920571 2.559655 0.000000 0.000000 0.000000
0.598571 1.031874 2.579475 0.000000 0.000000 0.000000
0.600151 1.038647 2.568775 0.000000 0.000000 0.000000
0.600534 1.039217 2.564271 0.000000 0.000000 0.000000
0.583520 1.029060 2.511556 0.000000 0.000000 0.000000
0.583422 1.029250 2.512596 0.000000 0.000000 0.000000
0.586223 1.015133 2.516578 0.000000 0.000000 0.000000
0.551950 0.910343 2.560571 0.000000 0.000000 0.000000
0.580855 0.987766 2.566733 0.000000 0.000000 0.000000
0.553605 0.930221 2.578529 0.000000 0.000000 0.000000
0.561454 0.950137 2.575961 0.000000 0.000000 0.000000
0.556189 0.944043 2.574637 0.000000 0.000000 0.000000
0.589748 1.002851 2.568622 0.000000 0.000000 0.000000
0.559095 0.942887 2.567777 0.000000 0.000000 0.000000
0.554744 0.937469 2.576704 0.000000 0.000000 0.000000
0.566299 0.956890 2.580273 0.000000 0.000000 0.000000
0.537981 0.972892 2.491735 0.000000 0.000000 0.000000
0.537851 0.972047 2.491019 0.000000 0.000000 0.000000
0.554086 0.930821 2.569610 0.000000 0.000000 0.000000
0.602711 1.050560 2.549281 0.000000 0.000000 0.000000
0.603628 1.045508 2.558971 0.000000 0.000000 0.000000
0.589930 1.018066 2.526713 0.000000 0.000000 0.000000
0.605577 1.055749 2.553183 0.000000 0.000000 0.000000
0.577911 1.017372 2.505401 0.000000 0.000000 0.000000
0.600951 1.039747 2.546131 0.000000 0.000000 0.000000
0.551267 0.891716 2.561482 0.000000 0.000000 0.000000
0.605293 1.044011 2.555850 0.000000 0.000000 0.000000
0.540099 0.899369 2.560216 0.000000 0.000000 0.000000
0.576179 0.980744 2.584674 0.000000 0.000000 0.000000
0.599825 1.039780 2.540555 0.000000 0.000000 0.000000
0.602414 1.040908 2.557878 0.000000 0.000000 0.000000
0.604538 1.042436 2.564490 0.000000 0.000000 0.000000
0.601529 1.048659 2.555985 0.000000 0.000000 0.000000
0.602587 1.045516 2.564799 0.000000 0.000000 0.000000
0.601869 1.050694 2.541598 0.000000 0.000000 0.000000
0.601030 1.035809 2.563432 0.000000 0.000000 0.000000
0.576516 0.982560 2.551794 0.000000 0.000000 0.000000
0.602143 1.055726 2.539719 0.000000 0.000000 0.000000
0.534281 0.951337 2.502800 0.000000 0.000000 0.000000
0.569794 1.028765 2.520868 0.000000 0.000000 0.000000
0.554935 1.004939 2.496062 0.000000 0.000000 0.000000
0.595882 1.026066 2.573115 0.000000 0.000000 0.000000
0.546050 0.929287 2.542357 0.000000 0.000000 0.000000
0.601431 1.045671 2.536350 0.000000 0.000000 0.000000
0.563838 1.000482 2.503570 0.000000 0.000000 0.000000
0.580155 0.999013 2.523255 0.000000 0.000000 0.000000
0.558917 0.948709 2.571716 0.000000 0.000000 0.000000
0.598384 1.041057 2.531108 0.000000 0.000000 0.000000
0.596111 1.047960 2.525762 0.000000 0.000000 0.000000
0.604028 1.054823 2.544011 0.000000 0.000000 0.000000
0.598326 1.053524 2.529485 0.000000 0.000000 0.000000
0.591216 1.016314 2.532140 0.000000 0.000000 0.000000
0.607560 1.033387 2.577264 0.000000 0.000000 0.000000
0.603899 1.030957 2.566933 0.000000 0.000000 0.000000
0.597349 1.052498 2.526018 0.000000 0.000000 0.000000
0.559360 0.956841 2.539028 0.000000 0.000000 0.000000
0.603773 1.050988 2.533023 0.000000 0.000000 0.000000
0.586196 1.012468 2.530534 0.000000 0.000000 0.000000
0.560525 1.004209 2.504461 0.000000 0.000000 0.000000
0.584744 0.996231 2.552254 0.000000 0.000000 0.000000
0.598780 1.045241 2.529744 0.000000 0.000000 0.000000
0.597460 1.048425 2.527471 0.000000 0.000000 0.000000
0.598721 1.046774 2.526793 0.000000 0.000000 0.000000
0.594277 1.045760 2.520921 0.000000 0.000000 0.000000
0.598488 1.030566 2.576019 0.000000 0.000000 0.000000
0.553176 0.944233 2.568318 0.000000 0.000000 0.000000
0.583622 0.995404 2.583352 0.000000 0.000000 0.000000
0.592372 1.041688 2.515882 0.000000 0.000000 0.000000
0.593556 1.009173 2.546588 0.000000 0.000000 0.000000
0.600188 1.047135 2.536334 0.000000 0.000000 0.000000
0.593517 1.044313 2.518206 0.000000 0.000000 0.000000
0.596185 1.042207 2.526920 0.000000 0.000000 0.000000
0.587694 0.995935 2.560388 0.000000 0.000000 0.000000
0.583274 0.996160 2.573849 0.000000 0.000000 0.000000
0.527895 0.934187 2.510817 0.000000 0.000000 0.000000
0.579653 0.983656 2.561385 0.000000 0.000000 0.000000
0.590350 1.013216 2.532295 0.000000 0.000000 0.000000
0.592331 1.031046 2.523446 0.000000 0.000000 0.000000
0.599490 0.996350 2.551984 0.000000 0.000000 0.000000
0.522829 0.931050 2.507911 0.000000 0.000000 0.000000
0.593282 1.017068 2.578897 0.000000 0.000000 0.000000
0.596959 1.035407 2.526867 0.000000 0.000000 0.000000
0.582868 1.034435 2.525276 0.000000 0.000000 0.000000
0.588710 1.030832 2.513982 0.000000 0.000000 0.000000
0.594820 1.014473 2.540743 0.000000 0.000000 0.000000
0.544046 0.944610 2.520963 0.000000 0.000000 0.000000
0.539206 0.946131 2.510696 0.000000 0.000000 0.000000
0.603640 1.045980 2.550379 0.000000 0.000000 0.000000
0.600130 1.056048 2.556570 0.000000 0.000000 0.000000
0.527999 0.898002 2.547200 0.000000 0.000000 0.000000
0.533053 0.949172 2.502814 0.000000 0.000000 0.000000
0.538640 0.917928 2.537207 0.000000 0.000000 0.000000
0.538297 0.939809 2.516485 0.000000 0.000000 0.000000
0.546179 0.929316 2.564607 0.000000 0.000000 0.000000
0.602834 1.051316 2.557657 0.000000 0.000000 0.000000
0.600062 1.053157 2.551669 0.000000 0.000000 0.000000
0.534687 0.895703 2.550432 0.000000 0.000000 0.000000
0.574479 0.972953 2.543279 0.000000 0.000000 0.000000
0.583054 0.998274 2.538102 0.000000 0.000000 0.000000
0.582699 1.002097 2.543484 0.000000 0.000000 0.000000
0.594968 1.020248 2.535985 0.000000 0.000000 0.000000
0.595351 1.012633 2.561790 0.000000 0.000000 0.000000
0.596110 1.009254 2.548879 0.000000 0.000000 0.000000
0.567926 0.993381 2.546676 0.000000 0.000000 0.000000
0.597095 1.027950 2.533570 0.000000 0.000000 0.000000
0.594570 1.013725 2.543684 0.000000 0.000000 0.000000
0.580336 0.988843 2.549006 0.000000 0.000000 0.000000
0.576056 0.963468 2.549962 0.000000 0.000000 0.000000
0.577742 0.997775 2.534425 0.000000 0.000000 0.000000
0.566779 1.001791 2.531628 0.000000 0.000000 0.000000
0.601369 1.033137 2.553644 0.000000 0.000000 0.000000
0.602421 1.018740 2.548894 0.000000 0.000000 0.000000
0.565266 0.964678 2.543084 0.000000 0.000000 0.000000
0.598871 1.029045 2.539901 0.000000 0.000000 0.000000
0.593217 1.016919 2.535405 0.000000 0.000000 0.000000
0.569138 0.971245 2.583027 0.000000 0.000000 0.000000
0.598851 1.006207 2.550975 0.000000 0.000000 0.000000
0.574611 0.976698 2.578337 0.000000 0.000000 0.000000
0.558898 0.942137 2.578411 0.000000 0.000000 0.000000
0.559602 0.953617 2.583194 0.000000 0.000000 0.000000
0.540465 0.920986 2.552809 0.000000 0.000000 0.000000
0.561904 0.954572 2.583890 0.000000 0.000000 0.000000
0.551223 0.914999 2.578600 0.000000 0.000000 0.000000
0.543506 0.908790 2.556557 0.000000 0.000000 0.000000
0.538201 0.910325 2.558795 0.000000 0.000000 0.000000
0.550236 0.923086 2.573544 0.000000 0.000000 0.000000
0.556449 0.947615 2.582604 0.000000 0.000000 0.000000
0.548484 0.923719 2.567472 0.000000 0.000000 0.000000
0.566177 0.963853 2.584493 0.000000 0.000000 0.000000
0.544508 0.911537 2.568245 0.000000 0.000000 0.000000
0.549318 0.916502 2.570055 0.000000 0.000000 0.000000
0.557681 0.936672 2.580556 0.000000 0.000000 0.000000
0.541698 0.896793 2.553157 0.000000 0.000000 0.000000
0.533135 0.900975 2.552427 0.000000 0.000000 0.000000
0.558376 0.947532 2.581149 0.000000 0.000000 0.000000
0.543437 0.975185 2.566429 0.000000 0.000000 0.000000
0.547523 0.967543 2.577064 0.000000 0.000000 0.000000
0.597803 0.991632 2.549004 0.000000 0.000000 0.000000
0.595454 0.999771 2.548918 0.000000 0.000000 0.000000
0.533958 0.895654 2.546039 0.000000 0.000000 0.000000
0.530814 0.907758 2.530991 0.000000 0.000000 0.000000
0.593935 1.043423 2.521394 0.000000 0.000000 0.000000
0.564042 1.014987 2.501153 0.000000 0.000000 0.000000
0.534897 0.925319 2.528876 0.000000 0.000000 0.000000
0.531854 0.900165 2.546655 0.000000 0.000000 0.000000
0.595250 1.039127 2.521512 0.000000 0.000000 0.000000
0.584530 1.022434 2.517842 0.000000 0.000000 0.000000
0.569894 1.016167 2.501863 0.000000 0.000000 0.000000
0.600930 1.035494 2.576103 0.000000 0.000000 0.000000
0.600390 1.046413 2.567453 0.000000 0.000000 0.000000
0.602801 1.041035 2.573225 0.000000 0.000000 0.000000
0.604803 1.055580 2.559473 0.000000 0.000000 0.000000
0.600317 1.037656 2.573792 0.000000 0.000000 0.000000
0.602011 1.046621 2.569273 0.000000 0.000000 0.000000
0.602142 1.035863 2.572012 0.000000 0.000000 0.000000
0.580676 1.012669 2.523876 0.000000 0.000000 0.000000
0.585922 1.026232 2.505026 0.000000 0.000000 0.000000
0.541201 0.899733 2.553237 0.000000 0.000000 0.000000
0.545494 0.925649 2.571865 0.000000 0.000000 0.000000
0.542891 0.911636 2.567469 0.000000 0.000000 0.000000
0.573311 1.021816 2.504591 0.000000 0.000000 0.000000
0.582940 1.027024 2.510183 0.000000 0.000000 0.000000
0.540685 0.910057 2.560454 0.000000 0.000000 0.000000
0.542787 0.915911 2.565382 0.000000 0.000000 0.000000
0.542238 0.914720 2.567511 0.000000 0.000000 0.000000
0.536963 0.899796 2.548102 0.000000 0.000000 0.000000
0.529863 0.920024 2.516801 0.000000 0.000000 0.000000
0.530180 0.913339 2.533011 0.000000 0.000000 0.000000
0.526189 0.917265 2.518737 0.000000 0.000000 0.000000
0.532472 0.926079 2.516978 0.000000 0.000000 0.000000
0.530347 0.929925 2.510946 0.000000 0.000000 0.000000
0.533758 0.928855 2.529947 0.000000 0.000000 0.000000
0.526829 0.916740 2.521900 0.000000 0.000000 0.000000
0.536296 0.932949 2.518301 0.000000 0.000000 0.000000
0.522517 0.921170 2.515613 0.000000 0.000000 0.000000
0.527509 0.899623 2.537078 0.000000 0.000000 0.000000
0.532684 0.918688 2.524509 0.000000 0.000000 0.000000
0.527316 0.910167 2.522015 0.000000 0.000000 0.000000
0.524479 0.897648 2.543205 0.000000 0.000000 0.000000
0.528129 0.905640 2.544331 0.000000 0.000000 0.000000
0.524069 0.892176 2.542380 0.000000 0.000000 0.000000
0.530290 0.906425 2.538731 0.000000 0.000000 0.000000
0.526101 0.909247 2.532931 0.000000 0.000000 0.000000
0.599155 1.056638 2.535834 0.000000 0.000000 0.000000
0.602758 1.048950 2.541175 0.000000 0.000000 0.000000
0.606025 1.047329 2.546795 0.000000 0.000000 0.000000
0.604580 1.050741 2.543506 0.000000 0.000000 0.000000
0.605223 1.053620 2.549251 0.000000 0.000000 0.000000
0.601296 1.055657 2.550652 0.000000 0.000000 0.000000
0.606150 1.055878 2.550090 0.000000 0.000000 0.000000
0.571075 0.977943 2.583795 0.000000 0.000000 0.000000
0.604197 1.049795 2.559723 0.000000 0.000000 0.000000
0.566251 0.972386 2.585021 0.000000 0.000000 0.000000
0.525575 0.921150 2.511244 0.000000 0.000000 0.000000
0.527980 0.906358 2.523728 0.000000 0.000000 0.000000
0.553511 0.997733 2.495515 0.000000 0.000000 0.000000
0.527280 0.941924 2.504567 0.000000 0.000000 0.000000
0.524622 0.903886 2.525172 0.000000 0.000000 0.000000
0.532610 0.917855 2.525009 0.000000 0.000000 0.000000
0.526730 0.928887 2.506212 0.000000 0.000000 0.000000
0.549276 0.988837 2.494519 0.000000 0.000000 0.000000
0.534291 0.944485 2.509124 0.000000 0.000000 0.000000
0.526185 0.896005 2.530621 0.000000 0.000000 0.000000
0.529316 0.922566 2.515543 0.000000 0.000000 0.000000
0.529321 0.935708 2.506848 0.000000 0.000000 0.000000
0.594870 1.014071 2.584773 0.000000 0.000000 0.000000
0.587965 1.015555 2.581299 0.000000 0.000000 0.000000
0.596273 1.024480 2.583469 0.000000 0.000000 0.000000
0.594271 1.017815 2.578835 0.000000 0.000000 0.000000
0.606116 1.028415 2.546198 0.000000 0.000000 0.000000
0.607269 1.031170 2.551471 0.000000 0.000000 0.000000
0.606080 1.051059 2.546690 0.000000 0.000000 0.000000
0.611679 1.033804 2.548687 0.000000 0.000000 0.000000
0.582228 1.022339 2.505053 0.000000 0.000000 0.000000
0.573307 1.013183 2.500412 0.000000 0.000000 0.000000
0.578878 1.018098 2.507920 0.000000 0.000000 0.000000
0.564776 1.012191 2.499682 0.000000 0.000000 0.000000
0.587931 1.033718 2.511120 0.000000 0.000000 0.000000
0.586427 1.012814 2.522203 0.000000 0.000000 0.000000
0.576646 1.022211 2.511689 0.000000 0.000000 0.000000
0.587295 1.014372 2.527432 0.000000 0.000000 0.000000
0.589943 1.034417 2.516495 0.000000 0.000000 0.000000
0.568218 1.015659 2.506507 0.000000 0.000000 0.000000
0.565320 1.017284 2.496046 0.000000 0.000000 0.000000
0.590963 1.025700 2.522770 0.000000 0.000000 0.000000
0.583724 1.025916 2.509920 0.000000 0.000000 0.000000
0.590721 1.040687 2.512815 0.000000 0.000000 0.000000
0.572494 1.021864 2.499437 0.000000 0.000000 0.000000
0.590949 1.024707 2.521789 0.000000 0.000000 0.000000
0.583603 1.021680 2.502380 0.000000 0.000000 0.000000
0.586591 1.028777 2.511673 0.000000 0.000000 0.000000
0.583884 1.028601 2.510307 0.000000 0.000000 0.000000
0.589832 1.038857 2.514725 0.000000 0.000000 0.000000
0.588772 1.033444 2.508384 0.000000 0.000000 0.000000
0.583877 1.025735 2.509171 0.000000 0.000000 0.000000
0.586908 1.032621 2.512748 0.000000 0.000000 0.000000
0.585406 1.033259 2.512767 0.000000 0.000000 0.000000
0.600936 1.053105 2.533947 0.000000 0.000000 0.000000
0.583139 1.014444 2.505372 0.000000 0.000000 0.000000
0.579735 1.002373 2.532102 0.000000 0.000000 0.000000
0.583878 0.998716 2.586040 0.000000 0.000000 0.000000
0.584202 0.993588 2.585269 0.000000 0.000000 0.000000
0.575438 0.988061 2.584743 0.000000 0.000000 0.000000
0.528066 0.893070 2.534906 0.000000 0.000000 0.000000
0.525704 0.906032 2.527922 0.000000 0.000000 0.000000
0.571650 0.973828 2.586047 0.000000 0.000000 0.000000
0.557358 0.943805 2.577334 0.000000 0.000000 0.000000
0.580259 1.004178 2.520875 0.000000 0.000000 0.000000
0.583124 0.992984 2.587409 0.000000 0.000000 0.000000
0.595536 1.055446 2.523553 0.000000 0.000000 0.000000
0.574824 0.988209 2.582276 0.000000 0.000000 0.000000
0.596945 1.022996 2.581098 0.000000 0.000000 0.000000
0.564804 0.961417 2.584419 0.000000 0.000000 0.000000
0.527120 0.901266 2.524226 0.000000 0.000000 0.000000
0.529541 0.900561 2.537482 0.000000 0.000000 0.000000
0.589458 0.999255 2.576547 0.000000 0.000000 0.000000
0.570816 0.974706 2.587164 0.000000 0.000000 0.000000
0.584472 1.023787 2.509196 0.000000 0.000000 0.000000
0.582350 1.024120 2.509402 0.000000 0.000000 0.000000
0.545643 0.973999 2.497442 0.000000 0.000000 0.000000
0.538528 0.977452 2.493699 0.000000 0.000000 0.000000
0.544241 0.963472 2.503985 0.000000 0.000000 0.000000
0.557355 0.990084 2.495690 0.000000 0.000000 0.000000
0.540683 0.969595 2.496893 0.000000 0.000000 0.000000
0.559184 0.981917 2.507423 0.000000 0.000000 0.000000
0.540919 0.965093 2.501269 0.000000 0.000000 0.000000
0.561438 0.993547 2.502986 0.000000 0.000000 0.000000
0.567596 1.005145 2.503656 0.000000 0.000000 0.000000
0.546456 0.988028 2.495133 0.000000 0.000000 0.000000
0.554215 0.969559 2.509467 0.000000 0.000000 0.000000
0.563572 0.999636 2.497235 0.000000 0.000000 0.000000
0.543007 0.976408 2.495447 0.000000 0.000000 0.000000
0.543519 0.983424 2.493250 0.000000 0.000000 0.000000
0.550206 0.977368 2.502553 0.000000 0.000000 0.000000
0.558119 0.996620 2.498458 0.000000 0.000000 0.000000
0.554048 0.989030 2.497168 0.000000 0.000000 0.000000
0.592431 1.029744 2.519808 0.000000 0.000000 0.000000
0.594400 1.040279 2.517012 0.000000 0.000000 0.000000
0.577072 1.024044 2.504446 0.000000 0.000000 0.000000
0.589780 1.032605 2.516376 0.000000 0.000000 0.000000
0.589147 1.032063 2.512891 0.000000 0.000000 0.000000
0.584505 1.028897 2.513014 0.000000 0.000000 0.000000
0.580979 1.023804 2.510095 0.000000 0.000000 0.000000
0.574611 1.024148 2.507270 0.000000 0.000000 0.000000
0.556408 0.954131 2.579435 0.000000 0.000000 0.000000
0.553192 0.933474 2.578877 0.000000 0.000000 0.000000
0.600003 1.056087 2.536312 0.000000 0.000000 0.000000
0.577699 1.017537 2.512205 0.000000 0.000000 0.000000
0.590941 1.000753 2.587994 0.000000 0.000000 0.000000
0.583681 1.003787 2.580835 0.000000 0.000000 0.000000
0.587305 1.006332 2.585995 0.000000 0.000000 0.000000
0.600273 1.059665 2.539296 0.000000 0.000000 0.000000
0.586094 1.010923 2.583919 0.000000 0.000000 0.000000
0.575995 0.989369 2.579656 0.000000 0.000000 0.000000
0.593775 1.015371 2.584838 0.000000 0.000000 0.000000
0.588258 1.008889 2.582653 0.000000 0.000000 0.000000
0.571302 1.020255 2.504715 0.000000 0.000000 0.000000
0.589127 1.010043 2.538601 0.000000 0.000000 0.000000
0.574575 0.999927 2.517814 0.000000 0.000000 0.000000
