ply
format ascii 1.0
comment VCGLIB generated
obj_info Generated by SPFormer!
element vertex 892
property float x
property float y
property float z
property float nx
property float ny
property float nz
end_header
0.079709 0.958507 2.802779 0.000000 0.000000 0.000000
-0.063609 0.988580 2.852706 0.000000 0.000000 0.000000
-0.110587 0.976395 2.854586 0.000000 0.000000 0.000000
-0.000394 0.948812 2.822753 0.000000 0.000000 0.000000
-0.098937 0.976197 2.851793 0.000000 0.000000 0.000000
-0.029021 0.968728 2.846558 0.000000 0.000000 0.000000
-0.043028 0.969674 2.853060 0.000000 0.000000 0.000000
0.008852 0.958871 2.828033 0.000000 0.000000 0.000000
0.007751 0.960035 2.820380 0.000000 0.000000 0.000000
-0.103069 0.989210 2.840484 0.000000 0.000000 0.000000
0.026861 0.972072 2.813901 0.000000 0.000000 0.000000
0.000710 0.955523 2.821543 0.000000 0.000000 0.000000
-0.031729 0.950922 2.836556 0.000000 0.000000 0.000000
-0.086241 0.976427 2.836932 0.000000 0.000000 0.000000
-0.075197 0.979277 2.857860 0.000000 0.000000 0.000000
-0.069984 0.981379 2.832616 0.000000 0.000000 0.000000
-0.081110 0.979887 2.836828 0.000000 0.000000 0.000000
-0.039395 0.972121 2.830505 0.000000 0.000000 0.000000
0.024552 0.962021 2.839461 0.000000 0.000000 0.000000
0.050007 0.951605 2.813381 0.000000 0.000000 0.000000
-0.076256 0.980123 2.834432 0.000000 0.000000 0.000000
-0.053063 1.004306 2.834352 0.000000 0.000000 0.000000
-0.115740 0.998887 2.834176 0.000000 0.000000 0.000000
-0.017586 0.951322 2.829018 0.000000 0.000000 0.000000
-0.001843 0.983480 2.828490 0.000000 0.000000 0.000000
-0.117571 0.990659 2.840923 0.000000 0.000000 0.000000
-0.057814 1.005086 2.825067 0.000000 0.000000 0.000000
-0.072448 0.986364 2.850912 0.000000 0.000000 0.000000
-0.107102 0.996489 2.849188 0.000000 0.000000 0.000000
0.060378 0.954857 2.816484 0.000000 0.000000 0.000000
-0.090051 1.011060 2.843428 0.000000 0.000000 0.000000
-0.040901 0.986408 2.840804 0.000000 0.000000 0.000000
-0.109678 0.982390 2.843157 0.000000 0.000000 0.000000
-0.010978 0.965928 2.828835 0.000000 0.000000 0.000000
-0.004083 0.978476 2.815679 0.000000 0.000000 0.000000
-0.114165 0.998126 2.831976 0.000000 0.000000 0.000000
-0.037118 0.958373 2.836208 0.000000 0.000000 0.000000
-0.025090 0.954102 2.831200 0.000000 0.000000 0.000000
0.004593 0.974799 2.812769 0.000000 0.000000 0.000000
-0.087039 0.997143 2.831691 0.000000 0.000000 0.000000
0.052111 0.967125 2.803418 0.000000 0.000000 0.000000
-0.016111 0.952708 2.827501 0.000000 0.000000 0.000000
-0.103005 1.008957 2.831779 0.000000 0.000000 0.000000
0.026275 0.975181 2.808478 0.000000 0.000000 0.000000
-0.025648 0.971140 2.823700 0.000000 0.000000 0.000000
-0.046804 0.971725 2.834207 0.000000 0.000000 0.000000
-0.121253 0.985432 2.845318 0.000000 0.000000 0.000000
0.066724 0.958491 2.810838 0.000000 0.000000 0.000000
-0.003269 0.950635 2.826062 0.000000 0.000000 0.000000
-0.077973 0.954525 2.842901 0.000000 0.000000 0.000000
0.045983 0.960235 2.817883 0.000000 0.000000 0.000000
0.049677 0.964297 2.809418 0.000000 0.000000 0.000000
-0.081057 0.951722 2.852028 0.000000 0.000000 0.000000
-0.098380 0.988779 2.820988 0.000000 0.000000 0.000000
-0.121587 0.978498 2.853942 0.000000 0.000000 0.000000
0.010036 0.954765 2.822787 0.000000 0.000000 0.000000
-0.114007 1.002991 2.835569 0.000000 0.000000 0.000000
-0.119904 1.004961 2.834894 0.000000 0.000000 0.000000
-0.112411 0.967148 2.859297 0.000000 0.000000 0.000000
-0.074716 0.996661 2.859282 0.000000 0.000000 0.000000
-0.013442 0.947913 2.838362 0.000000 0.000000 0.000000
-0.078118 0.977485 2.846460 0.000000 0.000000 0.000000
-0.057977 0.974463 2.838797 0.000000 0.000000 0.000000
-0.061751 0.973036 2.845275 0.000000 0.000000 0.000000
-0.078698 1.001954 2.838789 0.000000 0.000000 0.000000
0.034883 0.949856 2.816465 0.000000 0.000000 0.000000
-0.105269 0.971846 2.847934 0.000000 0.000000 0.000000
-0.043815 0.957343 2.847912 0.000000 0.000000 0.000000
-0.036113 0.983161 2.829593 0.000000 0.000000 0.000000
-0.061974 0.991005 2.846709 0.000000 0.000000 0.000000
0.027546 0.976975 2.827541 0.000000 0.000000 0.000000
-0.032107 0.953645 2.837691 0.000000 0.000000 0.000000
-0.114369 0.988681 2.846511 0.000000 0.000000 0.000000
-0.113725 0.994121 2.848758 0.000000 0.000000 0.000000
-0.103385 0.966196 2.850554 0.000000 0.000000 0.000000
0.073417 0.973358 2.823135 0.000000 0.000000 0.000000
-0.026198 0.961679 2.827627 0.000000 0.000000 0.000000
-0.107441 0.974926 2.847381 0.000000 0.000000 0.000000
-0.110254 0.995754 2.830429 0.000000 0.000000 0.000000
-0.021606 0.975064 2.837720 0.000000 0.000000 0.000000
0.002421 0.941300 2.828597 0.000000 0.000000 0.000000
-0.022438 0.975840 2.841868 0.000000 0.000000 0.000000
-0.106621 0.991157 2.827827 0.000000 0.000000 0.000000
-0.028036 0.984287 2.824091 0.000000 0.000000 0.000000
-0.091372 0.980468 2.835276 0.000000 0.000000 0.000000
0.025696 0.965074 2.812265 0.000000 0.000000 0.000000
-0.077038 1.002114 2.858895 0.000000 0.000000 0.000000
-0.105342 0.995711 2.830677 0.000000 0.000000 0.000000
-0.117947 0.997126 2.831348 0.000000 0.000000 0.000000
-0.035263 0.948382 2.854171 0.000000 0.000000 0.000000
-0.118834 0.990640 2.855523 0.000000 0.000000 0.000000
-0.121627 1.003220 2.827415 0.000000 0.000000 0.000000
0.066262 0.975691 2.815946 0.000000 0.000000 0.000000
0.079297 0.962292 2.794748 0.000000 0.000000 0.000000
0.011326 0.944985 2.829590 0.000000 0.000000 0.000000
0.026182 0.949169 2.827502 0.000000 0.000000 0.000000
-0.079311 0.996650 2.837099 0.000000 0.000000 0.000000
0.023542 0.962179 2.819248 0.000000 0.000000 0.000000
-0.017529 0.947896 2.835022 0.000000 0.000000 0.000000
-0.083628 0.988550 2.856326 0.000000 0.000000 0.000000
0.016241 0.956942 2.813500 0.000000 0.000000 0.000000
-0.035656 0.956060 2.835575 0.000000 0.000000 0.000000
0.067159 0.969622 2.797907 0.000000 0.000000 0.000000
-0.113803 1.005026 2.832058 0.000000 0.000000 0.000000
-0.049377 0.960359 2.836256 0.000000 0.000000 0.000000
0.038478 0.976042 2.809985 0.000000 0.000000 0.000000
-0.045118 0.988206 2.830997 0.000000 0.000000 0.000000
-0.072292 0.974792 2.854664 0.000000 0.000000 0.000000
0.078211 0.967212 2.794791 0.000000 0.000000 0.000000
-0.022711 0.987721 2.838556 0.000000 0.000000 0.000000
0.002853 0.941421 2.847733 0.000000 0.000000 0.000000
-0.066395 0.967284 2.836736 0.000000 0.000000 0.000000
-0.080628 0.957142 2.856526 0.000000 0.000000 0.000000
-0.113369 0.968665 2.846747 0.000000 0.000000 0.000000
-0.093438 0.976097 2.851524 0.000000 0.000000 0.000000
-0.067768 0.980985 2.833202 0.000000 0.000000 0.000000
-0.117059 0.998559 2.836085 0.000000 0.000000 0.000000
0.075733 0.964519 2.798736 0.000000 0.000000 0.000000
-0.084131 0.966540 2.849844 0.000000 0.000000 0.000000
-0.111580 0.983861 2.852902 0.000000 0.000000 0.000000
-0.088001 0.989170 2.829830 0.000000 0.000000 0.000000
-0.093867 1.001028 2.822977 0.000000 0.000000 0.000000
-0.090489 0.973139 2.848882 0.000000 0.000000 0.000000
0.011942 0.982258 2.820623 0.000000 0.000000 0.000000
-0.060182 0.964864 2.840645 0.000000 0.000000 0.000000
-0.015656 0.974646 2.848070 0.000000 0.000000 0.000000
-0.042602 0.950054 2.860485 0.000000 0.000000 0.000000
-0.092263 0.974733 2.835808 0.000000 0.000000 0.000000
-0.066600 0.980306 2.833050 0.000000 0.000000 0.000000
-0.061022 0.966116 2.841540 0.000000 0.000000 0.000000
-0.109679 0.981809 2.838650 0.000000 0.000000 0.000000
-0.017799 0.940640 2.843328 0.000000 0.000000 0.000000
-0.114504 0.989161 2.848298 0.000000 0.000000 0.000000
0.003702 0.963347 2.816562 0.000000 0.000000 0.000000
-0.080709 1.001147 2.841754 0.000000 0.000000 0.000000
0.062053 0.972247 2.802670 0.000000 0.000000 0.000000
-0.023502 0.936183 2.853654 0.000000 0.000000 0.000000
-0.006968 0.982426 2.819028 0.000000 0.000000 0.000000
-0.039838 0.956013 2.846543 0.000000 0.000000 0.000000
0.053027 0.959367 2.804627 0.000000 0.000000 0.000000
-0.002295 0.941211 2.836864 0.000000 0.000000 0.000000
0.004122 0.965598 2.816383 0.000000 0.000000 0.000000
0.002578 0.934812 2.838229 0.000000 0.000000 0.000000
-0.019398 0.955825 2.818863 0.000000 0.000000 0.000000
-0.001175 0.970145 2.839306 0.000000 0.000000 0.000000
0.014630 0.935430 2.828638 0.000000 0.000000 0.000000
-0.010992 0.946923 2.832414 0.000000 0.000000 0.000000
0.005169 0.963517 2.817204 0.000000 0.000000 0.000000
0.052008 0.951183 2.826185 0.000000 0.000000 0.000000
-0.113172 0.980447 2.845400 0.000000 0.000000 0.000000
-0.053378 0.995241 2.840689 0.000000 0.000000 0.000000
0.028621 0.959881 2.820988 0.000000 0.000000 0.000000
0.069947 0.968234 2.811368 0.000000 0.000000 0.000000
0.072121 0.973500 2.806445 0.000000 0.000000 0.000000
0.061290 0.966560 2.802913 0.000000 0.000000 0.000000
-0.116594 0.976788 2.853659 0.000000 0.000000 0.000000
-0.104816 0.975642 2.843822 0.000000 0.000000 0.000000
-0.118466 0.995069 2.833364 0.000000 0.000000 0.000000
-0.074363 0.970231 2.844250 0.000000 0.000000 0.000000
-0.039984 0.979069 2.844331 0.000000 0.000000 0.000000
-0.048504 0.961801 2.840603 0.000000 0.000000 0.000000
-0.088785 0.989116 2.872308 0.000000 0.000000 0.000000
-0.035641 0.946728 2.849342 0.000000 0.000000 0.000000
-0.095321 0.972977 2.849567 0.000000 0.000000 0.000000
-0.053693 0.961365 2.849300 0.000000 0.000000 0.000000
-0.111748 0.983100 2.846779 0.000000 0.000000 0.000000
-0.109567 0.974731 2.852503 0.000000 0.000000 0.000000
-0.066572 0.957003 2.862850 0.000000 0.000000 0.000000
0.054049 0.955699 2.820698 0.000000 0.000000 0.000000
-0.106527 1.011396 2.830996 0.000000 0.000000 0.000000
-0.094311 0.971038 2.841520 0.000000 0.000000 0.000000
0.007159 0.954938 2.820640 0.000000 0.000000 0.000000
-0.036550 0.971390 2.851336 0.000000 0.000000 0.000000
-0.064470 1.004047 2.835438 0.000000 0.000000 0.000000
-0.101242 0.976246 2.861707 0.000000 0.000000 0.000000
-0.073424 0.976248 2.845488 0.000000 0.000000 0.000000
-0.003499 0.946299 2.827451 0.000000 0.000000 0.000000
-0.047679 0.994217 2.831027 0.000000 0.000000 0.000000
-0.121141 1.003009 2.832275 0.000000 0.000000 0.000000
0.017233 0.956541 2.816324 0.000000 0.000000 0.000000
-0.053633 0.995551 2.831263 0.000000 0.000000 0.000000
-0.065986 0.992817 2.836878 0.000000 0.000000 0.000000
0.052596 0.975106 2.808337 0.000000 0.000000 0.000000
-0.018998 0.985106 2.831656 0.000000 0.000000 0.000000
0.063783 0.965479 2.817052 0.000000 0.000000 0.000000
-0.101480 0.978707 2.849925 0.000000 0.000000 0.000000
0.054444 0.974441 2.805431 0.000000 0.000000 0.000000
-0.083666 0.972742 2.834112 0.000000 0.000000 0.000000
0.062684 0.957135 2.805433 0.000000 0.000000 0.000000
-0.022954 0.942142 2.849392 0.000000 0.000000 0.000000
-0.099425 0.974800 2.860255 0.000000 0.000000 0.000000
0.047930 0.972706 2.803402 0.000000 0.000000 0.000000
-0.083179 0.970061 2.866729 0.000000 0.000000 0.000000
0.054151 0.952030 2.820410 0.000000 0.000000 0.000000
-0.113475 1.001263 2.838813 0.000000 0.000000 0.000000
-0.124575 1.007526 2.837568 0.000000 0.000000 0.000000
-0.128528 1.001993 2.830973 0.000000 0.000000 0.000000
-0.086339 1.004253 2.843216 0.000000 0.000000 0.000000
0.009064 0.939555 2.842278 0.000000 0.000000 0.000000
-0.101547 0.966904 2.853677 0.000000 0.000000 0.000000
-0.078608 0.966794 2.839285 0.000000 0.000000 0.000000
-0.086178 0.957193 2.856684 0.000000 0.000000 0.000000
-0.098787 0.966901 2.848542 0.000000 0.000000 0.000000
-0.079587 0.982093 2.821900 0.000000 0.000000 0.000000
-0.055854 0.967527 2.834994 0.000000 0.000000 0.000000
-0.095268 0.973931 2.841956 0.000000 0.000000 0.000000
-0.101326 0.973068 2.837221 0.000000 0.000000 0.000000
0.020788 0.980633 2.815541 0.000000 0.000000 0.000000
-0.096871 0.988705 2.829855 0.000000 0.000000 0.000000
0.030510 0.947049 2.836483 0.000000 0.000000 0.000000
0.027143 0.942693 2.840255 0.000000 0.000000 0.000000
0.030161 0.977954 2.809552 0.000000 0.000000 0.000000
-0.087928 0.963785 2.834531 0.000000 0.000000 0.000000
-0.073417 0.997609 2.832160 0.000000 0.000000 0.000000
-0.100699 0.963627 2.843210 0.000000 0.000000 0.000000
0.043927 0.967287 2.811192 0.000000 0.000000 0.000000
-0.062148 0.999164 2.832866 0.000000 0.000000 0.000000
-0.010094 0.976615 2.830420 0.000000 0.000000 0.000000
-0.113085 0.981186 2.850039 0.000000 0.000000 0.000000
-0.074804 0.967008 2.835577 0.000000 0.000000 0.000000
-0.072239 0.963990 2.841896 0.000000 0.000000 0.000000
-0.101957 0.979280 2.837175 0.000000 0.000000 0.000000
-0.080069 0.990175 2.841749 0.000000 0.000000 0.000000
-0.091305 0.961412 2.860696 0.000000 0.000000 0.000000
0.028572 0.945145 2.848058 0.000000 0.000000 0.000000
-0.079830 1.004866 2.832545 0.000000 0.000000 0.000000
-0.074613 0.972625 2.854746 0.000000 0.000000 0.000000
0.022431 0.939089 2.837011 0.000000 0.000000 0.000000
0.063425 0.951279 2.813560 0.000000 0.000000 0.000000
-0.046455 0.960250 2.860499 0.000000 0.000000 0.000000
-0.063768 0.955712 2.866645 0.000000 0.000000 0.000000
-0.060011 0.958762 2.858288 0.000000 0.000000 0.000000
0.051090 0.948782 2.817711 0.000000 0.000000 0.000000
-0.021440 0.979975 2.829455 0.000000 0.000000 0.000000
-0.079989 0.956556 2.863633 0.000000 0.000000 0.000000
-0.093847 0.962758 2.862586 0.000000 0.000000 0.000000
-0.075075 0.953467 2.859897 0.000000 0.000000 0.000000
-0.038604 0.949800 2.860307 0.000000 0.000000 0.000000
-0.057365 0.955851 2.862516 0.000000 0.000000 0.000000
-0.089806 0.961186 2.864738 0.000000 0.000000 0.000000
-0.034986 0.951346 2.860594 0.000000 0.000000 0.000000
-0.101065 0.983961 2.832266 0.000000 0.000000 0.000000
-0.106351 0.972375 2.850158 0.000000 0.000000 0.000000
-0.104010 0.970526 2.859122 0.000000 0.000000 0.000000
-0.054597 0.952340 2.849333 0.000000 0.000000 0.000000
-0.069462 0.952626 2.856422 0.000000 0.000000 0.000000
-0.109637 0.972283 2.851010 0.000000 0.000000 0.000000
-0.115420 1.006448 2.839714 0.000000 0.000000 0.000000
-0.095716 1.003456 2.835447 0.000000 0.000000 0.000000
-0.083499 0.967239 2.838898 0.000000 0.000000 0.000000
-0.110650 0.983734 2.855239 0.000000 0.000000 0.000000
-0.056769 0.952733 2.852696 0.000000 0.000000 0.000000
-0.047779 0.947634 2.850518 0.000000 0.000000 0.000000
-0.116868 0.992094 2.841273 0.000000 0.000000 0.000000
-0.113926 1.008744 2.834597 0.000000 0.000000 0.000000
-0.097170 1.006666 2.839359 0.000000 0.000000 0.000000
0.038655 0.983992 2.809183 0.000000 0.000000 0.000000
0.005698 0.975793 2.814423 0.000000 0.000000 0.000000
-0.018893 0.979469 2.821035 0.000000 0.000000 0.000000
-0.105198 0.963796 2.863974 0.000000 0.000000 0.000000
-0.086353 0.957707 2.860731 0.000000 0.000000 0.000000
-0.100271 0.970649 2.862744 0.000000 0.000000 0.000000
-0.094761 0.956160 2.864277 0.000000 0.000000 0.000000
-0.105130 0.980905 2.847044 0.000000 0.000000 0.000000
-0.091532 0.959295 2.856607 0.000000 0.000000 0.000000
-0.103034 0.966689 2.858464 0.000000 0.000000 0.000000
-0.092785 0.970536 2.863204 0.000000 0.000000 0.000000
-0.112785 0.985058 2.843800 0.000000 0.000000 0.000000
-0.041160 0.960043 2.830474 0.000000 0.000000 0.000000
-0.048794 0.953446 2.845654 0.000000 0.000000 0.000000
-0.010666 0.946510 2.831087 0.000000 0.000000 0.000000
-0.062284 0.953322 2.849445 0.000000 0.000000 0.000000
-0.054722 0.961522 2.838359 0.000000 0.000000 0.000000
-0.028106 0.965445 2.833851 0.000000 0.000000 0.000000
-0.067174 0.969540 2.835835 0.000000 0.000000 0.000000
-0.035154 0.947108 2.848604 0.000000 0.000000 0.000000
-0.007772 0.947368 2.827853 0.000000 0.000000 0.000000
-0.102358 0.986599 2.830647 0.000000 0.000000 0.000000
-0.074734 0.955557 2.851617 0.000000 0.000000 0.000000
-0.117812 1.003171 2.829073 0.000000 0.000000 0.000000
0.078945 0.978267 2.834849 0.000000 0.000000 0.000000
-0.070663 0.954543 2.853227 0.000000 0.000000 0.000000
0.025508 0.944062 2.839814 0.000000 0.000000 0.000000
0.000031 0.960854 2.844058 0.000000 0.000000 0.000000
0.014702 0.958957 2.844988 0.000000 0.000000 0.000000
-0.029751 0.948903 2.857916 0.000000 0.000000 0.000000
0.016051 0.953412 2.846523 0.000000 0.000000 0.000000
-0.102291 1.005902 2.845312 0.000000 0.000000 0.000000
-0.085658 1.004435 2.843231 0.000000 0.000000 0.000000
-0.084015 0.982803 2.859889 0.000000 0.000000 0.000000
-0.098173 1.007932 2.840601 0.000000 0.000000 0.000000
-0.075810 1.009772 2.841471 0.000000 0.000000 0.000000
-0.072941 0.979583 2.858490 0.000000 0.000000 0.000000
0.074388 0.972210 2.800259 0.000000 0.000000 0.000000
0.071890 0.958658 2.815314 0.000000 0.000000 0.000000
0.009214 0.940748 2.846402 0.000000 0.000000 0.000000
0.036079 0.967559 2.826885 0.000000 0.000000 0.000000
0.037511 0.975075 2.817054 0.000000 0.000000 0.000000
-0.067334 0.964787 2.864587 0.000000 0.000000 0.000000
-0.054000 0.952551 2.847824 0.000000 0.000000 0.000000
-0.077140 0.966044 2.860937 0.000000 0.000000 0.000000
0.007573 0.980343 2.812686 0.000000 0.000000 0.000000
-0.017284 0.947806 2.835453 0.000000 0.000000 0.000000
-0.069840 0.962154 2.865266 0.000000 0.000000 0.000000
-0.110133 1.004384 2.845568 0.000000 0.000000 0.000000
-0.056180 0.964059 2.857780 0.000000 0.000000 0.000000
-0.112638 0.989165 2.851471 0.000000 0.000000 0.000000
-0.114377 1.001488 2.842846 0.000000 0.000000 0.000000
-0.113595 1.006137 2.835812 0.000000 0.000000 0.000000
-0.069494 0.955018 2.864094 0.000000 0.000000 0.000000
-0.060658 0.954905 2.863264 0.000000 0.000000 0.000000
0.049217 0.956432 2.814376 0.000000 0.000000 0.000000
-0.048012 0.952728 2.860690 0.000000 0.000000 0.000000
-0.113408 1.005617 2.833112 0.000000 0.000000 0.000000
-0.042573 0.952444 2.860757 0.000000 0.000000 0.000000
-0.072778 0.956218 2.861631 0.000000 0.000000 0.000000
-0.081102 0.959896 2.865929 0.000000 0.000000 0.000000
-0.085891 0.957811 2.871406 0.000000 0.000000 0.000000
-0.037386 0.948353 2.857554 0.000000 0.000000 0.000000
-0.053308 0.977765 2.827765 0.000000 0.000000 0.000000
0.045239 0.956458 2.811286 0.000000 0.000000 0.000000
-0.020018 0.970103 2.822110 0.000000 0.000000 0.000000
-0.024438 0.979833 2.814021 0.000000 0.000000 0.000000
-0.035415 0.961727 2.828528 0.000000 0.000000 0.000000
-0.036410 0.965489 2.831630 0.000000 0.000000 0.000000
-0.057501 0.989661 2.827599 0.000000 0.000000 0.000000
-0.046409 0.988116 2.826582 0.000000 0.000000 0.000000
0.062706 0.975468 2.806766 0.000000 0.000000 0.000000
0.079661 0.959831 2.832550 0.000000 0.000000 0.000000
0.011487 0.975602 2.818179 0.000000 0.000000 0.000000
0.015959 0.971651 2.837139 0.000000 0.000000 0.000000
-0.004992 0.979821 2.814839 0.000000 0.000000 0.000000
-0.008188 0.975827 2.816476 0.000000 0.000000 0.000000
0.009447 0.975585 2.828082 0.000000 0.000000 0.000000
-0.015151 0.986161 2.835504 0.000000 0.000000 0.000000
-0.004292 0.980149 2.836706 0.000000 0.000000 0.000000
-0.004979 0.986474 2.831616 0.000000 0.000000 0.000000
0.004967 0.969892 2.814134 0.000000 0.000000 0.000000
-0.010094 0.985887 2.837000 0.000000 0.000000 0.000000
-0.001633 0.982000 2.824931 0.000000 0.000000 0.000000
-0.109547 1.010988 2.841281 0.000000 0.000000 0.000000
-0.089523 0.969446 2.866058 0.000000 0.000000 0.000000
-0.109764 1.009362 2.839561 0.000000 0.000000 0.000000
-0.111023 0.976831 2.856419 0.000000 0.000000 0.000000
-0.100791 0.991430 2.828436 0.000000 0.000000 0.000000
-0.116446 0.988775 2.840432 0.000000 0.000000 0.000000
0.045966 0.964692 2.804589 0.000000 0.000000 0.000000
-0.112482 0.981612 2.841373 0.000000 0.000000 0.000000
-0.114214 0.983146 2.839250 0.000000 0.000000 0.000000
-0.114853 0.998558 2.829233 0.000000 0.000000 0.000000
-0.112211 1.003344 2.826393 0.000000 0.000000 0.000000
-0.114072 1.000906 2.829836 0.000000 0.000000 0.000000
0.037107 0.954407 2.811754 0.000000 0.000000 0.000000
-0.112969 0.998788 2.827961 0.000000 0.000000 0.000000
-0.112846 0.982443 2.841749 0.000000 0.000000 0.000000
-0.108709 0.994657 2.827918 0.000000 0.000000 0.000000
-0.108091 0.987144 2.832694 0.000000 0.000000 0.000000
-0.105979 0.998796 2.826439 0.000000 0.000000 0.000000
0.015968 0.945462 2.824127 0.000000 0.000000 0.000000
-0.072285 1.000731 2.833557 0.000000 0.000000 0.000000
0.028674 0.957996 2.806858 0.000000 0.000000 0.000000
0.010692 0.953286 2.820831 0.000000 0.000000 0.000000
-0.063210 0.998954 2.833184 0.000000 0.000000 0.000000
-0.105286 1.010175 2.828673 0.000000 0.000000 0.000000
-0.108029 1.004821 2.822806 0.000000 0.000000 0.000000
-0.115216 1.004410 2.827874 0.000000 0.000000 0.000000
-0.110231 1.003322 2.829155 0.000000 0.000000 0.000000
-0.096581 1.004585 2.831069 0.000000 0.000000 0.000000
-0.109240 0.997709 2.826783 0.000000 0.000000 0.000000
0.009576 0.942487 2.852352 0.000000 0.000000 0.000000
-0.100328 1.009243 2.835219 0.000000 0.000000 0.000000
-0.097499 0.999278 2.826139 0.000000 0.000000 0.000000
-0.006220 0.956972 2.826411 0.000000 0.000000 0.000000
0.014829 0.953799 2.809988 0.000000 0.000000 0.000000
-0.021342 0.978357 2.836180 0.000000 0.000000 0.000000
0.030556 0.962003 2.808637 0.000000 0.000000 0.000000
0.031166 0.956884 2.819865 0.000000 0.000000 0.000000
-0.000179 0.948521 2.814418 0.000000 0.000000 0.000000
0.023671 0.964168 2.811932 0.000000 0.000000 0.000000
-0.008214 0.966878 2.807895 0.000000 0.000000 0.000000
-0.026393 0.987203 2.825899 0.000000 0.000000 0.000000
0.027644 0.972264 2.805151 0.000000 0.000000 0.000000
-0.107089 1.010002 2.840581 0.000000 0.000000 0.000000
-0.085808 0.979851 2.864918 0.000000 0.000000 0.000000
-0.102067 0.981269 2.855902 0.000000 0.000000 0.000000
-0.049738 0.955988 2.864998 0.000000 0.000000 0.000000
-0.044686 0.952563 2.862968 0.000000 0.000000 0.000000
0.055373 0.949205 2.814481 0.000000 0.000000 0.000000
0.060440 0.961889 2.804205 0.000000 0.000000 0.000000
0.009756 0.992507 2.822775 0.000000 0.000000 0.000000
-0.007109 0.962894 2.819342 0.000000 0.000000 0.000000
0.009630 0.986815 2.806380 0.000000 0.000000 0.000000
0.054361 0.968156 2.798496 0.000000 0.000000 0.000000
-0.020415 0.993959 2.835462 0.000000 0.000000 0.000000
-0.009876 0.972137 2.816433 0.000000 0.000000 0.000000
0.011984 0.979288 2.835763 0.000000 0.000000 0.000000
0.077182 0.986430 2.836366 0.000000 0.000000 0.000000
0.024005 0.975760 2.826759 0.000000 0.000000 0.000000
0.076144 0.957431 2.809757 0.000000 0.000000 0.000000
0.066574 0.953024 2.808738 0.000000 0.000000 0.000000
0.067955 0.949733 2.809675 0.000000 0.000000 0.000000
0.063557 0.959607 2.801362 0.000000 0.000000 0.000000
0.074700 0.975462 2.830166 0.000000 0.000000 0.000000
0.002672 0.980408 2.808695 0.000000 0.000000 0.000000
0.055678 0.953253 2.822614 0.000000 0.000000 0.000000
0.063040 0.953311 2.805917 0.000000 0.000000 0.000000
0.070952 0.956130 2.806337 0.000000 0.000000 0.000000
0.071657 0.978437 2.828727 0.000000 0.000000 0.000000
0.007573 0.973131 2.809753 0.000000 0.000000 0.000000
-0.090390 1.005068 2.833623 0.000000 0.000000 0.000000
-0.000821 0.939391 2.845766 0.000000 0.000000 0.000000
-0.103221 1.004399 2.827649 0.000000 0.000000 0.000000
-0.088215 1.005623 2.829494 0.000000 0.000000 0.000000
0.048767 0.978287 2.812339 0.000000 0.000000 0.000000
-0.095708 1.010521 2.830175 0.000000 0.000000 0.000000
-0.015246 0.940434 2.850619 0.000000 0.000000 0.000000
-0.104683 1.005748 2.828429 0.000000 0.000000 0.000000
-0.066920 0.991847 2.815300 0.000000 0.000000 0.000000
0.044849 0.959909 2.802388 0.000000 0.000000 0.000000
0.042285 0.957392 2.805111 0.000000 0.000000 0.000000
-0.091013 0.963534 2.850049 0.000000 0.000000 0.000000
0.013940 0.980546 2.816677 0.000000 0.000000 0.000000
-0.074493 0.956309 2.847867 0.000000 0.000000 0.000000
-0.045393 0.973226 2.831366 0.000000 0.000000 0.000000
-0.093824 0.998867 2.852233 0.000000 0.000000 0.000000
0.009092 0.983641 2.822570 0.000000 0.000000 0.000000
-0.104259 0.986490 2.856723 0.000000 0.000000 0.000000
-0.071685 0.971131 2.839405 0.000000 0.000000 0.000000
-0.092791 1.004881 2.851320 0.000000 0.000000 0.000000
-0.004352 0.982604 2.824963 0.000000 0.000000 0.000000
-0.008653 0.948118 2.831489 0.000000 0.000000 0.000000
-0.110270 0.987041 2.852894 0.000000 0.000000 0.000000
0.031147 0.948466 2.839092 0.000000 0.000000 0.000000
0.052386 0.951339 2.824591 0.000000 0.000000 0.000000
0.017996 0.949981 2.839470 0.000000 0.000000 0.000000
-0.047915 0.988061 2.833499 0.000000 0.000000 0.000000
-0.076394 0.963459 2.867536 0.000000 0.000000 0.000000
-0.053291 0.984720 2.830165 0.000000 0.000000 0.000000
-0.085792 0.979571 2.837264 0.000000 0.000000 0.000000
-0.075443 0.960234 2.863548 0.000000 0.000000 0.000000
-0.021747 0.947751 2.839488 0.000000 0.000000 0.000000
-0.043333 0.946718 2.855425 0.000000 0.000000 0.000000
-0.070723 0.969523 2.841353 0.000000 0.000000 0.000000
-0.047932 0.949298 2.852147 0.000000 0.000000 0.000000
-0.044803 0.952500 2.853719 0.000000 0.000000 0.000000
-0.035577 0.949613 2.845595 0.000000 0.000000 0.000000
-0.063128 0.951295 2.862428 0.000000 0.000000 0.000000
-0.029088 0.945442 2.848059 0.000000 0.000000 0.000000
-0.050943 0.952713 2.857744 0.000000 0.000000 0.000000
-0.015153 0.971945 2.845370 0.000000 0.000000 0.000000
-0.031616 0.990497 2.826312 0.000000 0.000000 0.000000
-0.125152 1.004066 2.833442 0.000000 0.000000 0.000000
0.046494 0.961561 2.803473 0.000000 0.000000 0.000000
-0.036077 0.954975 2.853695 0.000000 0.000000 0.000000
-0.013045 0.954645 2.829630 0.000000 0.000000 0.000000
-0.052343 0.950753 2.860315 0.000000 0.000000 0.000000
-0.019125 0.942416 2.855427 0.000000 0.000000 0.000000
-0.042261 0.953052 2.862167 0.000000 0.000000 0.000000
0.002758 0.942815 2.859305 0.000000 0.000000 0.000000
-0.023322 0.950450 2.835426 0.000000 0.000000 0.000000
0.067741 0.963853 2.798928 0.000000 0.000000 0.000000
0.004098 0.938330 2.840724 0.000000 0.000000 0.000000
-0.036695 0.946029 2.857702 0.000000 0.000000 0.000000
-0.016048 0.947998 2.856049 0.000000 0.000000 0.000000
-0.005954 0.945917 2.860335 0.000000 0.000000 0.000000
-0.004827 0.940057 2.849601 0.000000 0.000000 0.000000
-0.034552 0.956927 2.855869 0.000000 0.000000 0.000000
-0.039306 0.949584 2.856845 0.000000 0.000000 0.000000
-0.030864 0.971542 2.825133 0.000000 0.000000 0.000000
-0.045704 0.984754 2.830622 0.000000 0.000000 0.000000
-0.029353 0.980528 2.822997 0.000000 0.000000 0.000000
-0.028570 0.983010 2.822739 0.000000 0.000000 0.000000
-0.020597 0.963513 2.820995 0.000000 0.000000 0.000000
-0.018285 0.976835 2.819092 0.000000 0.000000 0.000000
-0.028110 0.978850 2.818215 0.000000 0.000000 0.000000
-0.015228 0.979673 2.819304 0.000000 0.000000 0.000000
-0.054986 0.968174 2.860812 0.000000 0.000000 0.000000
-0.000021 0.950918 2.850935 0.000000 0.000000 0.000000
0.019441 0.943493 2.842678 0.000000 0.000000 0.000000
0.003108 0.964071 2.849319 0.000000 0.000000 0.000000
-0.019098 0.950394 2.851612 0.000000 0.000000 0.000000
-0.009262 0.950974 2.853612 0.000000 0.000000 0.000000
-0.005574 0.949612 2.841957 0.000000 0.000000 0.000000
-0.045211 0.972846 2.857646 0.000000 0.000000 0.000000
-0.025164 0.947246 2.849800 0.000000 0.000000 0.000000
-0.016346 0.954825 2.842804 0.000000 0.000000 0.000000
0.004653 0.959206 2.851540 0.000000 0.000000 0.000000
-0.019559 0.946674 2.852000 0.000000 0.000000 0.000000
0.005196 0.952292 2.848207 0.000000 0.000000 0.000000
0.004528 0.950023 2.843900 0.000000 0.000000 0.000000
0.001474 0.951536 2.844536 0.000000 0.000000 0.000000
-0.123030 1.005097 2.835240 0.000000 0.000000 0.000000
-0.123613 1.005482 2.834045 0.000000 0.000000 0.000000
-0.073387 0.980258 2.833831 0.000000 0.000000 0.000000
-0.077532 0.971750 2.840199 0.000000 0.000000 0.000000
0.040651 0.950262 2.818521 0.000000 0.000000 0.000000
-0.086659 0.978588 2.833898 0.000000 0.000000 0.000000
0.040138 0.974541 2.808857 0.000000 0.000000 0.000000
-0.052542 0.986415 2.827672 0.000000 0.000000 0.000000
0.010776 0.939834 2.841480 0.000000 0.000000 0.000000
-0.079230 0.998852 2.817101 0.000000 0.000000 0.000000
0.014259 0.940390 2.833849 0.000000 0.000000 0.000000
-0.010845 0.941372 2.853826 0.000000 0.000000 0.000000
-0.024907 0.947820 2.859214 0.000000 0.000000 0.000000
0.026258 0.946822 2.822015 0.000000 0.000000 0.000000
-0.095736 0.981213 2.834649 0.000000 0.000000 0.000000
-0.070602 0.978393 2.831169 0.000000 0.000000 0.000000
0.000055 0.952831 2.822021 0.000000 0.000000 0.000000
0.054683 0.968782 2.811155 0.000000 0.000000 0.000000
-0.073167 0.997416 2.825822 0.000000 0.000000 0.000000
0.016679 0.937833 2.837024 0.000000 0.000000 0.000000
-0.087382 0.996417 2.819386 0.000000 0.000000 0.000000
-0.019020 0.948790 2.851225 0.000000 0.000000 0.000000
-0.019386 0.948219 2.858283 0.000000 0.000000 0.000000
-0.059173 0.994690 2.826551 0.000000 0.000000 0.000000
0.079466 0.978872 2.830095 0.000000 0.000000 0.000000
-0.073295 1.003826 2.838403 0.000000 0.000000 0.000000
-0.076036 0.997218 2.825196 0.000000 0.000000 0.000000
-0.064796 0.992426 2.829712 0.000000 0.000000 0.000000
0.042212 0.976575 2.811006 0.000000 0.000000 0.000000
-0.071639 1.002395 2.827868 0.000000 0.000000 0.000000
-0.095095 1.003394 2.839771 0.000000 0.000000 0.000000
-0.069266 0.990387 2.826250 0.000000 0.000000 0.000000
-0.084323 1.001564 2.827041 0.000000 0.000000 0.000000
0.043236 0.976854 2.809573 0.000000 0.000000 0.000000
-0.116436 0.988804 2.835788 0.000000 0.000000 0.000000
-0.114878 0.992453 2.836004 0.000000 0.000000 0.000000
-0.099143 0.997073 2.852531 0.000000 0.000000 0.000000
-0.085244 0.994759 2.853315 0.000000 0.000000 0.000000
-0.007566 0.969582 2.848454 0.000000 0.000000 0.000000
0.066419 0.954398 2.812757 0.000000 0.000000 0.000000
-0.000418 0.984643 2.827406 0.000000 0.000000 0.000000
0.037676 0.946321 2.836730 0.000000 0.000000 0.000000
-0.010581 0.975582 2.835855 0.000000 0.000000 0.000000
0.033360 0.940313 2.835222 0.000000 0.000000 0.000000
0.057003 0.951517 2.820930 0.000000 0.000000 0.000000
0.002530 0.984294 2.819493 0.000000 0.000000 0.000000
0.027228 0.939312 2.838939 0.000000 0.000000 0.000000
-0.018199 0.957417 2.853220 0.000000 0.000000 0.000000
-0.014448 0.952774 2.856369 0.000000 0.000000 0.000000
0.040739 0.945866 2.821791 0.000000 0.000000 0.000000
0.023476 0.941732 2.829374 0.000000 0.000000 0.000000
0.036123 0.947544 2.833085 0.000000 0.000000 0.000000
0.038579 0.955381 2.826391 0.000000 0.000000 0.000000
0.026706 0.941220 2.829292 0.000000 0.000000 0.000000
0.037232 0.949294 2.831381 0.000000 0.000000 0.000000
0.031994 0.941226 2.830915 0.000000 0.000000 0.000000
0.002497 0.939048 2.837261 0.000000 0.000000 0.000000
0.044964 0.944223 2.825723 0.000000 0.000000 0.000000
0.047478 0.953172 2.820527 0.000000 0.000000 0.000000
0.024953 0.938895 2.836659 0.000000 0.000000 0.000000
0.040857 0.954155 2.831476 0.000000 0.000000 0.000000
0.019571 0.945938 2.840263 0.000000 0.000000 0.000000
0.055476 0.952377 2.814508 0.000000 0.000000 0.000000
0.044985 0.945447 2.827983 0.000000 0.000000 0.000000
0.028299 0.939385 2.833203 0.000000 0.000000 0.000000
0.034746 0.943027 2.826157 0.000000 0.000000 0.000000
0.034498 0.940570 2.833399 0.000000 0.000000 0.000000
0.007218 0.974638 2.809105 0.000000 0.000000 0.000000
0.027891 0.968358 2.805676 0.000000 0.000000 0.000000
0.028487 0.974366 2.806252 0.000000 0.000000 0.000000
0.036539 0.970604 2.807240 0.000000 0.000000 0.000000
0.242883 0.994915 2.497231 0.000000 0.000000 0.000000
0.201740 0.954520 2.477702 0.000000 0.000000 0.000000
0.190218 0.948764 2.468475 0.000000 0.000000 0.000000
0.221110 0.983713 2.496079 0.000000 0.000000 0.000000
0.222652 0.989274 2.501853 0.000000 0.000000 0.000000
0.192820 0.963028 2.496175 0.000000 0.000000 0.000000
0.227430 0.985088 2.488052 0.000000 0.000000 0.000000
0.207871 0.948460 2.468886 0.000000 0.000000 0.000000
0.240837 0.972452 2.472682 0.000000 0.000000 0.000000
0.220800 0.971538 2.492527 0.000000 0.000000 0.000000
0.222972 0.991274 2.499429 0.000000 0.000000 0.000000
0.261207 1.001656 2.497651 0.000000 0.000000 0.000000
0.227830 0.974636 2.480333 0.000000 0.000000 0.000000
0.232469 0.986728 2.499051 0.000000 0.000000 0.000000
0.222317 0.983277 2.491015 0.000000 0.000000 0.000000
0.185386 0.943157 2.466505 0.000000 0.000000 0.000000
0.220136 0.981000 2.490454 0.000000 0.000000 0.000000
0.226329 0.983199 2.497937 0.000000 0.000000 0.000000
0.205532 0.964610 2.472587 0.000000 0.000000 0.000000
0.199791 0.948839 2.476029 0.000000 0.000000 0.000000
0.227443 0.976797 2.492572 0.000000 0.000000 0.000000
0.244379 0.988870 2.485906 0.000000 0.000000 0.000000
0.234787 0.980835 2.492365 0.000000 0.000000 0.000000
0.196198 0.972459 2.490183 0.000000 0.000000 0.000000
0.220012 0.957307 2.474351 0.000000 0.000000 0.000000
0.243754 0.986445 2.490803 0.000000 0.000000 0.000000
0.263532 1.009296 2.506273 0.000000 0.000000 0.000000
0.205426 0.967100 2.488340 0.000000 0.000000 0.000000
0.217692 0.959428 2.478330 0.000000 0.000000 0.000000
0.229122 0.972532 2.486554 0.000000 0.000000 0.000000
0.218053 0.967560 2.489350 0.000000 0.000000 0.000000
0.211633 0.970428 2.483497 0.000000 0.000000 0.000000
0.213653 0.972919 2.476601 0.000000 0.000000 0.000000
0.214560 0.950962 2.468159 0.000000 0.000000 0.000000
0.199402 0.943696 2.463449 0.000000 0.000000 0.000000
0.192127 0.963385 2.481958 0.000000 0.000000 0.000000
0.229706 0.980925 2.489846 0.000000 0.000000 0.000000
0.203710 0.945471 2.467600 0.000000 0.000000 0.000000
0.204487 0.977733 2.497211 0.000000 0.000000 0.000000
0.193279 0.965664 2.487802 0.000000 0.000000 0.000000
0.191411 0.958801 2.478604 0.000000 0.000000 0.000000
0.206020 0.971265 2.494721 0.000000 0.000000 0.000000
0.222285 0.983121 2.499463 0.000000 0.000000 0.000000
0.220312 0.980455 2.489021 0.000000 0.000000 0.000000
0.213042 0.964120 2.486255 0.000000 0.000000 0.000000
0.239433 0.974464 2.474975 0.000000 0.000000 0.000000
0.263580 1.003958 2.499781 0.000000 0.000000 0.000000
0.198349 0.953115 2.465487 0.000000 0.000000 0.000000
0.212120 0.959657 2.468608 0.000000 0.000000 0.000000
0.197802 0.958553 2.472343 0.000000 0.000000 0.000000
0.221921 0.971686 2.481449 0.000000 0.000000 0.000000
0.206747 0.965712 2.482438 0.000000 0.000000 0.000000
0.218990 0.977787 2.496030 0.000000 0.000000 0.000000
0.183501 0.964017 2.487514 0.000000 0.000000 0.000000
0.228655 0.960587 2.475035 0.000000 0.000000 0.000000
0.252811 0.999100 2.496714 0.000000 0.000000 0.000000
0.199700 0.979865 2.498461 0.000000 0.000000 0.000000
0.199846 0.980966 2.502176 0.000000 0.000000 0.000000
0.212675 0.989089 2.504064 0.000000 0.000000 0.000000
0.219979 0.979878 2.489683 0.000000 0.000000 0.000000
0.221718 0.987371 2.500119 0.000000 0.000000 0.000000
0.223859 0.994272 2.509315 0.000000 0.000000 0.000000
0.201112 0.983658 2.501228 0.000000 0.000000 0.000000
0.190853 0.938719 2.455640 0.000000 0.000000 0.000000
0.228169 0.975430 2.481559 0.000000 0.000000 0.000000
0.205678 0.971496 2.489638 0.000000 0.000000 0.000000
0.211287 0.981897 2.501023 0.000000 0.000000 0.000000
0.232389 0.987116 2.488153 0.000000 0.000000 0.000000
0.190610 0.940998 2.464341 0.000000 0.000000 0.000000
0.224191 0.989723 2.497889 0.000000 0.000000 0.000000
0.268288 0.993376 2.493342 0.000000 0.000000 0.000000
0.231099 0.982594 2.494501 0.000000 0.000000 0.000000
0.266225 1.000399 2.489628 0.000000 0.000000 0.000000
0.213012 0.977076 2.497114 0.000000 0.000000 0.000000
0.200538 0.970128 2.486272 0.000000 0.000000 0.000000
0.197608 0.974577 2.495937 0.000000 0.000000 0.000000
0.201313 0.975692 2.496660 0.000000 0.000000 0.000000
0.228706 0.966809 2.473910 0.000000 0.000000 0.000000
0.272764 1.005827 2.495416 0.000000 0.000000 0.000000
0.238651 0.975212 2.485698 0.000000 0.000000 0.000000
0.263334 0.999662 2.490230 0.000000 0.000000 0.000000
0.278865 1.006116 2.490167 0.000000 0.000000 0.000000
0.192253 0.973559 2.478106 0.000000 0.000000 0.000000
0.220172 0.986295 2.496641 0.000000 0.000000 0.000000
0.196578 0.971422 2.487986 0.000000 0.000000 0.000000
0.207083 0.982414 2.497395 0.000000 0.000000 0.000000
0.230164 0.977977 2.481667 0.000000 0.000000 0.000000
0.197692 0.971144 2.494228 0.000000 0.000000 0.000000
0.198133 0.939935 2.459422 0.000000 0.000000 0.000000
0.224953 0.958479 2.473640 0.000000 0.000000 0.000000
0.262849 0.998371 2.495938 0.000000 0.000000 0.000000
0.225737 0.955596 2.469507 0.000000 0.000000 0.000000
0.200728 0.976469 2.494041 0.000000 0.000000 0.000000
0.234266 0.973473 2.479405 0.000000 0.000000 0.000000
0.234030 0.968823 2.476494 0.000000 0.000000 0.000000
0.183283 0.944898 2.470858 0.000000 0.000000 0.000000
0.218685 0.967640 2.480851 0.000000 0.000000 0.000000
0.235521 0.973590 2.481777 0.000000 0.000000 0.000000
0.251819 0.992005 2.486287 0.000000 0.000000 0.000000
0.181670 0.933222 2.457158 0.000000 0.000000 0.000000
0.276544 1.004905 2.492873 0.000000 0.000000 0.000000
0.247046 1.000262 2.495707 0.000000 0.000000 0.000000
0.229430 0.993284 2.497177 0.000000 0.000000 0.000000
0.257800 0.999447 2.492509 0.000000 0.000000 0.000000
0.242755 0.996630 2.492022 0.000000 0.000000 0.000000
0.249986 0.994739 2.495734 0.000000 0.000000 0.000000
0.200913 0.980560 2.503526 0.000000 0.000000 0.000000
0.250025 0.995348 2.488959 0.000000 0.000000 0.000000
0.248211 0.975228 2.489173 0.000000 0.000000 0.000000
0.256623 0.998348 2.493527 0.000000 0.000000 0.000000
0.263709 0.996619 2.489449 0.000000 0.000000 0.000000
0.240217 0.989068 2.487469 0.000000 0.000000 0.000000
0.184095 0.951798 2.479137 0.000000 0.000000 0.000000
0.233744 0.982031 2.482129 0.000000 0.000000 0.000000
0.245548 0.982114 2.480241 0.000000 0.000000 0.000000
0.249588 0.983770 2.482678 0.000000 0.000000 0.000000
0.190090 0.951426 2.470635 0.000000 0.000000 0.000000
0.192164 0.945835 2.474171 0.000000 0.000000 0.000000
0.204427 0.965541 2.479428 0.000000 0.000000 0.000000
0.188163 0.963852 2.487391 0.000000 0.000000 0.000000
0.181941 0.956680 2.482812 0.000000 0.000000 0.000000
0.193382 0.951768 2.479099 0.000000 0.000000 0.000000
0.199758 0.946154 2.470566 0.000000 0.000000 0.000000
0.195445 0.953345 2.467862 0.000000 0.000000 0.000000
0.187977 0.944327 2.465825 0.000000 0.000000 0.000000
0.192735 0.948636 2.475025 0.000000 0.000000 0.000000
0.275190 1.009420 2.493077 0.000000 0.000000 0.000000
0.216796 0.950045 2.465083 0.000000 0.000000 0.000000
0.207341 0.952664 2.473830 0.000000 0.000000 0.000000
0.202331 0.945203 2.457435 0.000000 0.000000 0.000000
0.254684 0.999754 2.496577 0.000000 0.000000 0.000000
0.240226 0.972682 2.479987 0.000000 0.000000 0.000000
0.205888 0.944549 2.459963 0.000000 0.000000 0.000000
0.214085 0.956327 2.458490 0.000000 0.000000 0.000000
0.191287 0.935773 2.458040 0.000000 0.000000 0.000000
0.183045 0.948934 2.474840 0.000000 0.000000 0.000000
0.212665 0.987206 2.503727 0.000000 0.000000 0.000000
0.183921 0.942926 2.470122 0.000000 0.000000 0.000000
0.208802 0.982185 2.495941 0.000000 0.000000 0.000000
0.183368 0.939494 2.465454 0.000000 0.000000 0.000000
0.203214 0.941678 2.461373 0.000000 0.000000 0.000000
0.197626 0.947863 2.462296 0.000000 0.000000 0.000000
0.229152 0.959474 2.466475 0.000000 0.000000 0.000000
0.189713 0.947169 2.464413 0.000000 0.000000 0.000000
0.210393 0.958635 2.479621 0.000000 0.000000 0.000000
0.222812 0.954174 2.464200 0.000000 0.000000 0.000000
0.195487 0.964481 2.470436 0.000000 0.000000 0.000000
0.216374 0.949989 2.466104 0.000000 0.000000 0.000000
0.190811 0.945071 2.469531 0.000000 0.000000 0.000000
0.220787 0.961782 2.461526 0.000000 0.000000 0.000000
0.223977 0.954217 2.466667 0.000000 0.000000 0.000000
0.225222 0.966895 2.481463 0.000000 0.000000 0.000000
0.197246 0.956334 2.483619 0.000000 0.000000 0.000000
0.208168 0.959382 2.460006 0.000000 0.000000 0.000000
0.239286 0.976521 2.477284 0.000000 0.000000 0.000000
0.186637 0.943582 2.471925 0.000000 0.000000 0.000000
0.231692 0.963498 2.465081 0.000000 0.000000 0.000000
0.207740 0.986467 2.502193 0.000000 0.000000 0.000000
0.208110 0.987083 2.510685 0.000000 0.000000 0.000000
0.204051 0.981241 2.500350 0.000000 0.000000 0.000000
0.222284 0.983957 2.496911 0.000000 0.000000 0.000000
0.189107 0.935782 2.456040 0.000000 0.000000 0.000000
0.205757 0.937105 2.452083 0.000000 0.000000 0.000000
0.192957 0.936860 2.458573 0.000000 0.000000 0.000000
0.208490 0.945392 2.463790 0.000000 0.000000 0.000000
0.190058 0.941511 2.461201 0.000000 0.000000 0.000000
0.204705 0.950694 2.469971 0.000000 0.000000 0.000000
0.184705 0.935446 2.457901 0.000000 0.000000 0.000000
0.185899 0.953306 2.472309 0.000000 0.000000 0.000000
0.195928 0.965351 2.484734 0.000000 0.000000 0.000000
0.192325 0.962303 2.484601 0.000000 0.000000 0.000000
0.193203 0.973229 2.492353 0.000000 0.000000 0.000000
0.236185 0.976232 2.481697 0.000000 0.000000 0.000000
0.244840 0.977097 2.479988 0.000000 0.000000 0.000000
0.186245 0.961021 2.480758 0.000000 0.000000 0.000000
0.181577 0.959169 2.484592 0.000000 0.000000 0.000000
0.242683 0.981116 2.483849 0.000000 0.000000 0.000000
0.237002 0.988979 2.489249 0.000000 0.000000 0.000000
0.182587 0.956980 2.477470 0.000000 0.000000 0.000000
0.185361 0.955977 2.480716 0.000000 0.000000 0.000000
0.245721 1.000514 2.499942 0.000000 0.000000 0.000000
0.232517 0.963853 2.467775 0.000000 0.000000 0.000000
0.221848 0.965836 2.457877 0.000000 0.000000 0.000000
0.206145 0.956858 2.475479 0.000000 0.000000 0.000000
0.233896 0.962161 2.462050 0.000000 0.000000 0.000000
0.264240 0.997402 2.487924 0.000000 0.000000 0.000000
0.266492 1.000209 2.488941 0.000000 0.000000 0.000000
0.185254 0.938189 2.462920 0.000000 0.000000 0.000000
0.185228 0.963349 2.484068 0.000000 0.000000 0.000000
0.258583 0.995244 2.489710 0.000000 0.000000 0.000000
0.182392 0.939499 2.467845 0.000000 0.000000 0.000000
0.205445 0.984917 2.503970 0.000000 0.000000 0.000000
0.190218 0.956181 2.480721 0.000000 0.000000 0.000000
0.247859 0.979118 2.477336 0.000000 0.000000 0.000000
0.181015 0.951683 2.475891 0.000000 0.000000 0.000000
0.253449 0.985212 2.481393 0.000000 0.000000 0.000000
0.258981 1.003769 2.491802 0.000000 0.000000 0.000000
0.258553 1.003114 2.498165 0.000000 0.000000 0.000000
0.187063 0.933052 2.453574 0.000000 0.000000 0.000000
0.249590 0.980285 2.480606 0.000000 0.000000 0.000000
0.243127 0.975091 2.478307 0.000000 0.000000 0.000000
0.196075 0.941173 2.465682 0.000000 0.000000 0.000000
0.213040 0.979555 2.496431 0.000000 0.000000 0.000000
0.218888 0.963607 2.467559 0.000000 0.000000 0.000000
0.186777 0.950038 2.476745 0.000000 0.000000 0.000000
0.224015 0.994138 2.506613 0.000000 0.000000 0.000000
0.186760 0.939830 2.466371 0.000000 0.000000 0.000000
0.223852 0.959188 2.470414 0.000000 0.000000 0.000000
0.185544 0.957198 2.481671 0.000000 0.000000 0.000000
0.177108 0.943282 2.468153 0.000000 0.000000 0.000000
0.224250 0.991680 2.501830 0.000000 0.000000 0.000000
0.189163 0.942508 2.469807 0.000000 0.000000 0.000000
0.183176 0.951153 2.473592 0.000000 0.000000 0.000000
0.191326 0.940775 2.465788 0.000000 0.000000 0.000000
0.218184 0.956317 2.459148 0.000000 0.000000 0.000000
0.188311 0.936547 2.461048 0.000000 0.000000 0.000000
0.207002 0.951712 2.460021 0.000000 0.000000 0.000000
0.200905 0.940075 2.456797 0.000000 0.000000 0.000000
0.195949 0.936870 2.455117 0.000000 0.000000 0.000000
0.217556 0.944329 2.455227 0.000000 0.000000 0.000000
0.190945 0.935945 2.460982 0.000000 0.000000 0.000000
0.194855 0.939077 2.462948 0.000000 0.000000 0.000000
0.200518 0.940437 2.452748 0.000000 0.000000 0.000000
0.204575 0.981259 2.497797 0.000000 0.000000 0.000000
0.212363 0.948531 2.459529 0.000000 0.000000 0.000000
0.273778 1.008995 2.497650 0.000000 0.000000 0.000000
0.227990 0.996276 2.503206 0.000000 0.000000 0.000000
0.253254 0.991141 2.482897 0.000000 0.000000 0.000000
0.250380 0.999646 2.484367 0.000000 0.000000 0.000000
0.258478 0.991224 2.486488 0.000000 0.000000 0.000000
0.193770 0.977017 2.497819 0.000000 0.000000 0.000000
0.272063 1.006496 2.496720 0.000000 0.000000 0.000000
0.222437 0.946212 2.462620 0.000000 0.000000 0.000000
0.244982 0.994488 2.491595 0.000000 0.000000 0.000000
0.230468 0.964894 2.468885 0.000000 0.000000 0.000000
0.259436 0.999552 2.492775 0.000000 0.000000 0.000000
0.274694 1.008348 2.488063 0.000000 0.000000 0.000000
0.275515 0.997754 2.486589 0.000000 0.000000 0.000000
0.233440 1.007652 2.504680 0.000000 0.000000 0.000000
0.210604 0.987760 2.501732 0.000000 0.000000 0.000000
0.277483 1.011506 2.494416 0.000000 0.000000 0.000000
0.239756 0.997574 2.502444 0.000000 0.000000 0.000000
0.255661 0.997985 2.488109 0.000000 0.000000 0.000000
0.248851 0.986438 2.479743 0.000000 0.000000 0.000000
0.249559 0.994064 2.477663 0.000000 0.000000 0.000000
0.264686 1.001117 2.492772 0.000000 0.000000 0.000000
0.207364 0.985615 2.502778 0.000000 0.000000 0.000000
0.252128 1.001266 2.500115 0.000000 0.000000 0.000000
0.233162 0.953719 2.460700 0.000000 0.000000 0.000000
0.253511 0.984632 2.475268 0.000000 0.000000 0.000000
0.274340 1.008615 2.495258 0.000000 0.000000 0.000000
0.238662 0.974123 2.471859 0.000000 0.000000 0.000000
0.279427 1.008599 2.498760 0.000000 0.000000 0.000000
0.251424 0.985441 2.482585 0.000000 0.000000 0.000000
0.250374 0.981643 2.478576 0.000000 0.000000 0.000000
0.229561 0.993688 2.502733 0.000000 0.000000 0.000000
0.231743 0.991783 2.499513 0.000000 0.000000 0.000000
0.211287 0.989523 2.504339 0.000000 0.000000 0.000000
0.277385 1.006183 2.489762 0.000000 0.000000 0.000000
0.196783 0.938758 2.457186 0.000000 0.000000 0.000000
0.268884 1.000822 2.486235 0.000000 0.000000 0.000000
0.192249 0.939974 2.460089 0.000000 0.000000 0.000000
0.225565 0.998868 2.501385 0.000000 0.000000 0.000000
0.224819 0.993010 2.501425 0.000000 0.000000 0.000000
0.229351 0.997861 2.503775 0.000000 0.000000 0.000000
0.207429 0.985697 2.505330 0.000000 0.000000 0.000000
0.217071 0.997579 2.498952 0.000000 0.000000 0.000000
0.204155 0.981815 2.499336 0.000000 0.000000 0.000000
0.258556 0.991146 2.484280 0.000000 0.000000 0.000000
0.258858 0.994231 2.485038 0.000000 0.000000 0.000000
0.263363 0.995827 2.485925 0.000000 0.000000 0.000000
0.263893 0.998309 2.486179 0.000000 0.000000 0.000000
0.244968 0.994227 2.486350 0.000000 0.000000 0.000000
0.266920 1.000350 2.480951 0.000000 0.000000 0.000000
0.263728 1.003144 2.487598 0.000000 0.000000 0.000000
0.255711 0.996817 2.487860 0.000000 0.000000 0.000000
0.269783 0.995405 2.482205 0.000000 0.000000 0.000000
0.182655 0.960576 2.483747 0.000000 0.000000 0.000000
0.178477 0.958603 2.482628 0.000000 0.000000 0.000000
0.233133 1.000907 2.507432 0.000000 0.000000 0.000000
0.244217 0.970878 2.469453 0.000000 0.000000 0.000000
0.236544 0.970218 2.474574 0.000000 0.000000 0.000000
0.228717 0.964370 2.466998 0.000000 0.000000 0.000000
0.236884 0.966942 2.467128 0.000000 0.000000 0.000000
0.232875 0.962008 2.470060 0.000000 0.000000 0.000000
0.213471 0.948192 2.461064 0.000000 0.000000 0.000000
0.278208 1.006857 2.483771 0.000000 0.000000 0.000000
0.269845 1.005153 2.494107 0.000000 0.000000 0.000000
0.266616 1.000037 2.494015 0.000000 0.000000 0.000000
0.270535 1.010533 2.496169 0.000000 0.000000 0.000000
0.270866 1.001270 2.488282 0.000000 0.000000 0.000000
0.180310 0.950460 2.482197 0.000000 0.000000 0.000000
0.231433 0.997019 2.504686 0.000000 0.000000 0.000000
0.219895 0.992963 2.503527 0.000000 0.000000 0.000000
0.219147 0.987932 2.499762 0.000000 0.000000 0.000000
0.237048 0.994638 2.498748 0.000000 0.000000 0.000000
0.231317 0.994586 2.501729 0.000000 0.000000 0.000000
0.243554 0.998834 2.502988 0.000000 0.000000 0.000000
0.245455 0.999198 2.501025 0.000000 0.000000 0.000000
0.258490 1.010344 2.503927 0.000000 0.000000 0.000000
0.193274 0.981347 2.501130 0.000000 0.000000 0.000000
0.192451 0.940160 2.456077 0.000000 0.000000 0.000000
0.222641 0.951922 2.460656 0.000000 0.000000 0.000000
0.222418 0.954749 2.461435 0.000000 0.000000 0.000000
0.225873 0.959972 2.461225 0.000000 0.000000 0.000000
0.224484 0.953711 2.462783 0.000000 0.000000 0.000000
0.223885 0.956163 2.460788 0.000000 0.000000 0.000000
0.221486 0.952816 2.457580 0.000000 0.000000 0.000000
0.213094 0.948533 2.455881 0.000000 0.000000 0.000000
0.189134 0.971377 2.490344 0.000000 0.000000 0.000000
0.198881 0.977589 2.499497 0.000000 0.000000 0.000000
0.183392 0.960118 2.485951 0.000000 0.000000 0.000000
0.217343 0.990766 2.504708 0.000000 0.000000 0.000000
0.224577 0.983776 2.489736 0.000000 0.000000 0.000000
0.238341 0.978426 2.499795 0.000000 0.000000 0.000000
0.240274 0.988590 2.496679 0.000000 0.000000 0.000000
0.240379 1.003836 2.511110 0.000000 0.000000 0.000000
0.241760 0.995471 2.499158 0.000000 0.000000 0.000000
0.237738 0.990339 2.488514 0.000000 0.000000 0.000000
0.249251 0.983714 2.504189 0.000000 0.000000 0.000000
0.248671 0.998499 2.497893 0.000000 0.000000 0.000000
0.248531 1.006311 2.502846 0.000000 0.000000 0.000000
0.245149 0.999705 2.506399 0.000000 0.000000 0.000000
0.249750 1.000480 2.500309 0.000000 0.000000 0.000000
0.250149 1.001026 2.500738 0.000000 0.000000 0.000000
0.195467 0.969809 2.492918 0.000000 0.000000 0.000000
0.186274 0.966165 2.487829 0.000000 0.000000 0.000000
0.189143 0.968579 2.491151 0.000000 0.000000 0.000000
0.189387 0.969129 2.487983 0.000000 0.000000 0.000000
0.192264 0.973825 2.496068 0.000000 0.000000 0.000000
