ply
format ascii 1.0
comment VCGLIB generated
obj_info Generated by SPFormer!
element vertex 578
property float x
property float y
property float z
property float nx
property float ny
property float nz
end_header
0.664359 1.087068 2.079986 0.000000 0.000000 0.000000
0.661975 1.100053 2.066108 0.000000 0.000000 0.000000
0.657124 1.085900 2.074485 0.000000 0.000000 0.000000
0.661651 1.086486 2.074289 0.000000 0.000000 0.000000
0.655018 1.089729 2.071233 0.000000 0.000000 0.000000
0.666944 1.090486 2.078054 0.000000 0.000000 0.000000
0.652493 1.083588 2.077049 0.000000 0.000000 0.000000
0.664398 1.083280 2.070847 0.000000 0.000000 0.000000
0.665971 1.081668 2.077516 0.000000 0.000000 0.000000
0.657156 1.084114 2.079695 0.000000 0.000000 0.000000
0.655105 1.087156 2.077053 0.000000 0.000000 0.000000
0.652796 1.083652 2.078651 0.000000 0.000000 0.000000
0.656522 1.080802 2.077262 0.000000 0.000000 0.000000
0.659931 1.097667 2.070618 0.000000 0.000000 0.000000
0.663763 1.081046 2.074354 0.000000 0.000000 0.000000
0.667886 1.084672 2.071941 0.000000 0.000000 0.000000
0.666163 1.082835 2.071829 0.000000 0.000000 0.000000
0.657570 1.084829 2.062099 0.000000 0.000000 0.000000
0.655159 1.087363 2.078583 0.000000 0.000000 0.000000
0.661268 1.085416 2.076741 0.000000 0.000000 0.000000
0.663584 1.086104 2.079093 0.000000 0.000000 0.000000
0.657939 1.089177 2.077993 0.000000 0.000000 0.000000
0.653546 1.084647 2.075595 0.000000 0.000000 0.000000
0.661464 1.083303 2.074914 0.000000 0.000000 0.000000
0.661761 1.092284 2.070454 0.000000 0.000000 0.000000
0.645106 1.081300 2.063884 0.000000 0.000000 0.000000
0.665400 1.085457 2.075926 0.000000 0.000000 0.000000
0.658999 1.082579 2.072560 0.000000 0.000000 0.000000
0.661292 1.085573 2.067038 0.000000 0.000000 0.000000
0.649873 1.080492 2.077790 0.000000 0.000000 0.000000
0.646976 1.080407 2.077402 0.000000 0.000000 0.000000
0.661246 1.085005 2.070829 0.000000 0.000000 0.000000
0.657339 1.085533 2.070357 0.000000 0.000000 0.000000
0.661235 1.082062 2.071625 0.000000 0.000000 0.000000
0.664257 1.087755 2.070236 0.000000 0.000000 0.000000
0.659833 1.090153 2.070249 0.000000 0.000000 0.000000
0.661216 1.089021 2.076354 0.000000 0.000000 0.000000
0.650508 1.080461 2.079209 0.000000 0.000000 0.000000
0.652849 1.085100 2.079690 0.000000 0.000000 0.000000
0.660636 1.080103 2.074103 0.000000 0.000000 0.000000
0.651155 1.080106 2.078051 0.000000 0.000000 0.000000
0.656599 1.088921 2.075595 0.000000 0.000000 0.000000
0.669867 1.086408 2.079418 0.000000 0.000000 0.000000
0.655043 1.081733 2.071792 0.000000 0.000000 0.000000
0.661805 1.084484 2.079728 0.000000 0.000000 0.000000
0.695215 1.095678 2.067978 0.000000 0.000000 0.000000
0.686930 1.096206 2.066465 0.000000 0.000000 0.000000
0.697622 1.098310 2.061059 0.000000 0.000000 0.000000
0.737278 1.119673 2.062230 0.000000 0.000000 0.000000
0.689001 1.087558 2.078407 0.000000 0.000000 0.000000
0.696248 1.110972 2.054225 0.000000 0.000000 0.000000
0.713547 1.143223 2.049802 0.000000 0.000000 0.000000
0.709365 1.111054 2.059850 0.000000 0.000000 0.000000
0.722599 1.117890 2.055777 0.000000 0.000000 0.000000
0.702210 1.125802 2.050175 0.000000 0.000000 0.000000
0.729384 1.120613 2.055724 0.000000 0.000000 0.000000
0.704931 1.127560 2.049579 0.000000 0.000000 0.000000
0.724283 1.123524 2.055234 0.000000 0.000000 0.000000
0.746230 1.126708 2.060170 0.000000 0.000000 0.000000
0.708640 1.127999 2.052683 0.000000 0.000000 0.000000
0.733877 1.153354 2.055678 0.000000 0.000000 0.000000
0.701483 1.089605 2.068755 0.000000 0.000000 0.000000
0.700689 1.107819 2.059110 0.000000 0.000000 0.000000
0.707406 1.149463 2.052308 0.000000 0.000000 0.000000
0.727891 1.143229 2.051642 0.000000 0.000000 0.000000
0.705312 1.142982 2.049276 0.000000 0.000000 0.000000
0.724975 1.107325 2.061534 0.000000 0.000000 0.000000
0.728376 1.114044 2.063361 0.000000 0.000000 0.000000
0.724701 1.120905 2.055530 0.000000 0.000000 0.000000
0.697253 1.103368 2.061074 0.000000 0.000000 0.000000
0.690813 1.097711 2.057657 0.000000 0.000000 0.000000
0.717665 1.125676 2.055039 0.000000 0.000000 0.000000
0.706179 1.101528 2.065542 0.000000 0.000000 0.000000
0.731069 1.139124 2.057963 0.000000 0.000000 0.000000
0.701179 1.107585 2.055879 0.000000 0.000000 0.000000
0.705303 1.119623 2.043745 0.000000 0.000000 0.000000
0.718392 1.125076 2.053465 0.000000 0.000000 0.000000
0.712214 1.135021 2.046281 0.000000 0.000000 0.000000
0.724913 1.125786 2.053236 0.000000 0.000000 0.000000
0.729997 1.148732 2.058002 0.000000 0.000000 0.000000
0.695985 1.102772 2.055233 0.000000 0.000000 0.000000
0.707434 1.140613 2.048985 0.000000 0.000000 0.000000
0.700666 1.087377 2.076687 0.000000 0.000000 0.000000
0.694140 1.101100 2.058342 0.000000 0.000000 0.000000
0.698465 1.140504 2.047167 0.000000 0.000000 0.000000
0.710000 1.125994 2.052359 0.000000 0.000000 0.000000
0.723923 1.110172 2.066358 0.000000 0.000000 0.000000
0.739862 1.135266 2.058429 0.000000 0.000000 0.000000
0.681044 1.100167 2.060248 0.000000 0.000000 0.000000
0.699003 1.130414 2.046717 0.000000 0.000000 0.000000
0.721429 1.144615 2.052552 0.000000 0.000000 0.000000
0.730291 1.103634 2.060946 0.000000 0.000000 0.000000
0.672537 1.102034 2.059140 0.000000 0.000000 0.000000
0.713666 1.148493 2.046801 0.000000 0.000000 0.000000
0.717191 1.158131 2.055016 0.000000 0.000000 0.000000
0.709919 1.143824 2.048916 0.000000 0.000000 0.000000
0.732222 1.150470 2.054369 0.000000 0.000000 0.000000
0.709732 1.152952 2.050772 0.000000 0.000000 0.000000
0.721866 1.155024 2.054303 0.000000 0.000000 0.000000
0.684395 1.108941 2.055557 0.000000 0.000000 0.000000
0.671378 1.088098 2.077278 0.000000 0.000000 0.000000
0.726358 1.120621 2.055273 0.000000 0.000000 0.000000
0.729791 1.129108 2.055749 0.000000 0.000000 0.000000
0.682288 1.128018 2.043591 0.000000 0.000000 0.000000
0.673488 1.091034 2.077631 0.000000 0.000000 0.000000
0.686805 1.101474 2.057845 0.000000 0.000000 0.000000
0.740376 1.118711 2.062738 0.000000 0.000000 0.000000
0.717542 1.093987 2.059348 0.000000 0.000000 0.000000
0.702881 1.138131 2.047565 0.000000 0.000000 0.000000
0.734904 1.140517 2.052949 0.000000 0.000000 0.000000
0.721767 1.107596 2.063993 0.000000 0.000000 0.000000
0.717478 1.094728 2.067142 0.000000 0.000000 0.000000
0.704512 1.153655 2.047393 0.000000 0.000000 0.000000
0.668842 1.090507 2.072666 0.000000 0.000000 0.000000
0.675287 1.080012 2.075787 0.000000 0.000000 0.000000
0.722268 1.094345 2.070235 0.000000 0.000000 0.000000
0.687594 1.100369 2.055733 0.000000 0.000000 0.000000
0.688100 1.088375 2.061329 0.000000 0.000000 0.000000
0.686399 1.128382 2.045082 0.000000 0.000000 0.000000
0.698317 1.077916 2.077441 0.000000 0.000000 0.000000
0.722770 1.107376 2.058429 0.000000 0.000000 0.000000
0.718689 1.135865 2.052960 0.000000 0.000000 0.000000
0.673451 1.101770 2.052594 0.000000 0.000000 0.000000
0.711340 1.149217 2.050215 0.000000 0.000000 0.000000
0.723317 1.094000 2.066754 0.000000 0.000000 0.000000
0.728020 1.156271 2.055160 0.000000 0.000000 0.000000
0.718006 1.127336 2.053318 0.000000 0.000000 0.000000
0.682280 1.127290 2.043865 0.000000 0.000000 0.000000
0.734128 1.153240 2.059203 0.000000 0.000000 0.000000
0.688794 1.107999 2.054374 0.000000 0.000000 0.000000
0.676737 1.081884 2.075010 0.000000 0.000000 0.000000
0.680871 1.105880 2.054628 0.000000 0.000000 0.000000
0.691293 1.074833 2.077739 0.000000 0.000000 0.000000
0.674202 1.090758 2.067747 0.000000 0.000000 0.000000
0.675873 1.092604 2.074408 0.000000 0.000000 0.000000
0.670271 1.089402 2.075860 0.000000 0.000000 0.000000
0.667882 1.098087 2.067672 0.000000 0.000000 0.000000
0.697251 1.091236 2.065671 0.000000 0.000000 0.000000
0.685519 1.120633 2.045148 0.000000 0.000000 0.000000
0.685165 1.091619 2.064692 0.000000 0.000000 0.000000
0.711255 1.120285 2.054429 0.000000 0.000000 0.000000
0.710212 1.098011 2.059859 0.000000 0.000000 0.000000
0.735279 1.112054 2.059073 0.000000 0.000000 0.000000
0.686110 1.095116 2.060861 0.000000 0.000000 0.000000
0.675929 1.126038 2.042651 0.000000 0.000000 0.000000
0.704334 1.099423 2.062832 0.000000 0.000000 0.000000
0.677684 1.092487 2.063276 0.000000 0.000000 0.000000
0.713168 1.094445 2.069427 0.000000 0.000000 0.000000
0.669988 1.104249 2.061898 0.000000 0.000000 0.000000
0.677143 1.099068 2.064311 0.000000 0.000000 0.000000
0.726537 1.156450 2.052616 0.000000 0.000000 0.000000
0.721120 1.140835 2.048034 0.000000 0.000000 0.000000
0.684883 1.112970 2.053721 0.000000 0.000000 0.000000
0.673966 1.103874 2.053907 0.000000 0.000000 0.000000
0.709689 1.089594 2.069072 0.000000 0.000000 0.000000
0.679586 1.117848 2.045950 0.000000 0.000000 0.000000
0.692450 1.095304 2.067336 0.000000 0.000000 0.000000
0.692153 1.131037 2.044479 0.000000 0.000000 0.000000
0.715870 1.161007 2.053071 0.000000 0.000000 0.000000
0.682550 1.102438 2.054050 0.000000 0.000000 0.000000
0.683736 1.119564 2.048565 0.000000 0.000000 0.000000
0.722115 1.160675 2.053289 0.000000 0.000000 0.000000
0.673465 1.109034 2.048670 0.000000 0.000000 0.000000
0.722535 1.153955 2.047188 0.000000 0.000000 0.000000
0.701561 1.149648 2.047361 0.000000 0.000000 0.000000
0.718686 1.141637 2.058887 0.000000 0.000000 0.000000
0.698597 1.155655 2.044307 0.000000 0.000000 0.000000
0.713923 1.159250 2.053666 0.000000 0.000000 0.000000
0.671407 1.093368 2.073202 0.000000 0.000000 0.000000
0.688540 1.133892 2.045918 0.000000 0.000000 0.000000
0.712134 1.099293 2.060859 0.000000 0.000000 0.000000
0.685315 1.107026 2.053794 0.000000 0.000000 0.000000
0.692086 1.130413 2.044460 0.000000 0.000000 0.000000
0.695308 1.133171 2.046949 0.000000 0.000000 0.000000
0.672234 1.099710 2.056436 0.000000 0.000000 0.000000
0.683371 1.111544 2.052221 0.000000 0.000000 0.000000
0.688677 1.080327 2.076632 0.000000 0.000000 0.000000
0.705103 1.149993 2.045215 0.000000 0.000000 0.000000
0.740912 1.122374 2.060693 0.000000 0.000000 0.000000
0.671433 1.090521 2.077031 0.000000 0.000000 0.000000
0.717665 1.118824 2.047854 0.000000 0.000000 0.000000
0.707209 1.095159 2.064698 0.000000 0.000000 0.000000
0.734338 1.126433 2.055619 0.000000 0.000000 0.000000
0.725624 1.152047 2.056624 0.000000 0.000000 0.000000
0.693413 1.141199 2.046010 0.000000 0.000000 0.000000
0.686678 1.138782 2.042772 0.000000 0.000000 0.000000
0.728537 1.120701 2.055820 0.000000 0.000000 0.000000
0.726613 1.093527 2.069216 0.000000 0.000000 0.000000
0.688220 1.077318 2.076301 0.000000 0.000000 0.000000
0.733786 1.097890 2.067228 0.000000 0.000000 0.000000
0.739808 1.109504 2.065277 0.000000 0.000000 0.000000
0.677551 1.123131 2.044757 0.000000 0.000000 0.000000
0.735742 1.118308 2.055645 0.000000 0.000000 0.000000
0.692718 1.126362 2.047609 0.000000 0.000000 0.000000
0.743178 1.124509 2.057065 0.000000 0.000000 0.000000
0.680880 1.109251 2.049367 0.000000 0.000000 0.000000
0.669870 1.090776 2.078105 0.000000 0.000000 0.000000
0.684629 1.103031 2.054347 0.000000 0.000000 0.000000
0.697615 1.082191 2.078392 0.000000 0.000000 0.000000
0.671752 1.094501 2.069273 0.000000 0.000000 0.000000
0.673502 1.092489 2.065983 0.000000 0.000000 0.000000
0.699965 1.088858 2.072451 0.000000 0.000000 0.000000
0.695329 1.114655 2.048642 0.000000 0.000000 0.000000
0.692813 1.129439 2.047593 0.000000 0.000000 0.000000
0.738364 1.105004 2.062963 0.000000 0.000000 0.000000
0.711573 1.074253 2.077633 0.000000 0.000000 0.000000
0.673270 1.080106 2.077979 0.000000 0.000000 0.000000
0.682667 1.076194 2.079150 0.000000 0.000000 0.000000
0.691990 1.106256 2.051444 0.000000 0.000000 0.000000
0.702238 1.152447 2.051218 0.000000 0.000000 0.000000
0.720810 1.163391 2.053529 0.000000 0.000000 0.000000
0.715306 1.104581 2.066844 0.000000 0.000000 0.000000
0.667417 1.089666 2.068377 0.000000 0.000000 0.000000
0.719760 1.158188 2.054252 0.000000 0.000000 0.000000
0.713234 1.156294 2.052308 0.000000 0.000000 0.000000
0.700512 1.149899 2.047883 0.000000 0.000000 0.000000
0.677274 1.097441 2.058496 0.000000 0.000000 0.000000
0.747191 1.123850 2.062497 0.000000 0.000000 0.000000
0.700280 1.141957 2.047455 0.000000 0.000000 0.000000
0.713012 1.158801 2.050752 0.000000 0.000000 0.000000
0.695150 1.127643 2.045472 0.000000 0.000000 0.000000
0.679949 1.113887 2.048462 0.000000 0.000000 0.000000
0.745568 1.112866 2.062570 0.000000 0.000000 0.000000
0.741841 1.111460 2.063184 0.000000 0.000000 0.000000
0.666963 1.091784 2.070527 0.000000 0.000000 0.000000
0.696742 1.151978 2.045476 0.000000 0.000000 0.000000
0.699922 1.120917 2.053473 0.000000 0.000000 0.000000
0.671294 1.103157 2.060813 0.000000 0.000000 0.000000
0.707189 1.130450 2.051027 0.000000 0.000000 0.000000
0.672947 1.103945 2.057604 0.000000 0.000000 0.000000
0.674963 1.088321 2.078938 0.000000 0.000000 0.000000
0.665824 1.094451 2.069754 0.000000 0.000000 0.000000
0.706446 1.086645 2.067534 0.000000 0.000000 0.000000
0.705328 1.081883 2.073449 0.000000 0.000000 0.000000
0.673950 1.098197 2.051810 0.000000 0.000000 0.000000
0.681502 1.099563 2.052559 0.000000 0.000000 0.000000
0.724093 1.112109 2.059247 0.000000 0.000000 0.000000
0.696644 1.143946 2.046231 0.000000 0.000000 0.000000
0.702216 1.139364 2.045436 0.000000 0.000000 0.000000
0.709164 1.155714 2.051587 0.000000 0.000000 0.000000
0.708278 1.153029 2.047494 0.000000 0.000000 0.000000
0.672316 1.099434 2.064173 0.000000 0.000000 0.000000
0.687864 1.083464 2.078390 0.000000 0.000000 0.000000
0.724994 1.111209 2.061414 0.000000 0.000000 0.000000
0.678827 1.123532 2.045271 0.000000 0.000000 0.000000
0.721336 1.116310 2.060405 0.000000 0.000000 0.000000
0.677348 1.080273 2.075250 0.000000 0.000000 0.000000
0.688650 1.090170 2.072811 0.000000 0.000000 0.000000
0.676048 1.124207 2.044671 0.000000 0.000000 0.000000
0.697622 1.077907 2.078660 0.000000 0.000000 0.000000
0.677911 1.094463 2.065073 0.000000 0.000000 0.000000
0.686069 1.147037 2.044045 0.000000 0.000000 0.000000
0.683744 1.128863 2.044824 0.000000 0.000000 0.000000
0.699048 1.079739 2.077700 0.000000 0.000000 0.000000
0.695906 1.111626 2.058754 0.000000 0.000000 0.000000
0.695987 1.140934 2.047608 0.000000 0.000000 0.000000
0.732592 1.149329 2.053094 0.000000 0.000000 0.000000
0.686516 1.128008 2.044174 0.000000 0.000000 0.000000
0.696629 1.132879 2.045357 0.000000 0.000000 0.000000
0.742846 1.141365 2.059568 0.000000 0.000000 0.000000
0.740885 1.150259 2.058132 0.000000 0.000000 0.000000
0.694852 1.140320 2.043756 0.000000 0.000000 0.000000
0.735454 1.148516 2.054124 0.000000 0.000000 0.000000
0.732050 1.160550 2.060423 0.000000 0.000000 0.000000
0.717863 1.127665 2.059599 0.000000 0.000000 0.000000
0.723000 1.094135 2.073225 0.000000 0.000000 0.000000
0.734013 1.142580 2.055511 0.000000 0.000000 0.000000
0.739658 1.146316 2.059031 0.000000 0.000000 0.000000
0.741239 1.150012 2.057193 0.000000 0.000000 0.000000
0.712132 1.111705 2.065411 0.000000 0.000000 0.000000
0.742462 1.147911 2.061056 0.000000 0.000000 0.000000
0.728593 1.104135 2.067538 0.000000 0.000000 0.000000
0.717075 1.140454 2.052257 0.000000 0.000000 0.000000
0.709228 1.136722 2.050060 0.000000 0.000000 0.000000
0.716158 1.163485 2.054639 0.000000 0.000000 0.000000
0.683233 1.080660 2.076372 0.000000 0.000000 0.000000
0.720799 1.148951 2.053291 0.000000 0.000000 0.000000
0.706312 1.157363 2.049780 0.000000 0.000000 0.000000
0.670039 1.097487 2.062095 0.000000 0.000000 0.000000
0.680894 1.090087 2.056685 0.000000 0.000000 0.000000
0.670906 1.095828 2.060780 0.000000 0.000000 0.000000
0.671869 1.103658 2.052698 0.000000 0.000000 0.000000
0.690426 1.091223 2.050778 0.000000 0.000000 0.000000
0.686408 1.073686 2.078160 0.000000 0.000000 0.000000
0.677985 1.107967 2.051945 0.000000 0.000000 0.000000
0.668880 1.099828 2.065698 0.000000 0.000000 0.000000
0.719332 1.163814 2.053798 0.000000 0.000000 0.000000
0.678308 1.119598 2.046626 0.000000 0.000000 0.000000
0.727753 1.164775 2.056155 0.000000 0.000000 0.000000
0.714951 1.088459 2.071151 0.000000 0.000000 0.000000
0.715318 1.145298 2.047988 0.000000 0.000000 0.000000
0.711447 1.138708 2.042970 0.000000 0.000000 0.000000
0.705645 1.073783 2.080481 0.000000 0.000000 0.000000
0.718063 1.100744 2.061908 0.000000 0.000000 0.000000
0.714244 1.082462 2.074843 0.000000 0.000000 0.000000
0.740075 1.147700 2.057339 0.000000 0.000000 0.000000
0.680216 1.076728 2.077939 0.000000 0.000000 0.000000
0.674752 1.103349 2.055851 0.000000 0.000000 0.000000
0.694543 1.138868 2.048036 0.000000 0.000000 0.000000
0.688522 1.136579 2.046513 0.000000 0.000000 0.000000
0.720349 1.149833 2.053025 0.000000 0.000000 0.000000
0.693825 1.127624 2.050236 0.000000 0.000000 0.000000
0.703227 1.156779 2.048625 0.000000 0.000000 0.000000
0.678629 1.133561 2.044548 0.000000 0.000000 0.000000
0.689358 1.142974 2.038822 0.000000 0.000000 0.000000
0.715235 1.079990 2.075268 0.000000 0.000000 0.000000
0.690585 1.142308 2.044226 0.000000 0.000000 0.000000
0.689826 1.136192 2.043653 0.000000 0.000000 0.000000
0.732864 1.155715 2.054533 0.000000 0.000000 0.000000
0.742637 1.139164 2.059085 0.000000 0.000000 0.000000
0.688095 1.139004 2.044926 0.000000 0.000000 0.000000
0.708043 1.145175 2.043880 0.000000 0.000000 0.000000
0.671782 1.115831 2.045425 0.000000 0.000000 0.000000
0.698243 1.077613 2.077132 0.000000 0.000000 0.000000
0.690802 1.144690 2.044240 0.000000 0.000000 0.000000
0.687070 1.134779 2.043968 0.000000 0.000000 0.000000
0.685509 1.135467 2.044050 0.000000 0.000000 0.000000
0.699860 1.123203 2.048632 0.000000 0.000000 0.000000
0.736696 1.098742 2.065718 0.000000 0.000000 0.000000
0.695687 1.144242 2.047739 0.000000 0.000000 0.000000
0.742637 1.109165 2.065299 0.000000 0.000000 0.000000
0.732413 1.102699 2.068317 0.000000 0.000000 0.000000
0.736154 1.100416 2.069857 0.000000 0.000000 0.000000
0.736226 1.148127 2.055636 0.000000 0.000000 0.000000
0.674829 1.111122 2.049713 0.000000 0.000000 0.000000
0.752674 1.136427 2.062017 0.000000 0.000000 0.000000
0.743393 1.128679 2.058005 0.000000 0.000000 0.000000
0.731859 1.119278 2.060265 0.000000 0.000000 0.000000
0.740965 1.114378 2.065469 0.000000 0.000000 0.000000
0.737810 1.129322 2.058284 0.000000 0.000000 0.000000
0.739209 1.118056 2.063383 0.000000 0.000000 0.000000
0.738908 1.140090 2.055276 0.000000 0.000000 0.000000
0.687786 1.139035 2.043451 0.000000 0.000000 0.000000
0.670632 1.092546 2.079502 0.000000 0.000000 0.000000
0.665693 1.092036 2.069425 0.000000 0.000000 0.000000
0.705138 1.121436 2.042170 0.000000 0.000000 0.000000
0.666340 1.094262 2.063380 0.000000 0.000000 0.000000
0.699048 1.113978 2.046742 0.000000 0.000000 0.000000
0.676289 1.105925 2.050183 0.000000 0.000000 0.000000
0.683465 1.076236 2.079292 0.000000 0.000000 0.000000
0.705698 1.080903 2.078241 0.000000 0.000000 0.000000
0.682469 1.090509 2.073761 0.000000 0.000000 0.000000
0.691754 1.092446 2.063197 0.000000 0.000000 0.000000
0.681245 1.093125 2.061329 0.000000 0.000000 0.000000
0.737567 1.106273 2.066935 0.000000 0.000000 0.000000
0.666739 1.089827 2.066767 0.000000 0.000000 0.000000
0.704192 1.102055 2.062751 0.000000 0.000000 0.000000
0.670533 1.100969 2.060348 0.000000 0.000000 0.000000
0.680482 1.088929 2.074264 0.000000 0.000000 0.000000
0.747171 1.122102 2.060555 0.000000 0.000000 0.000000
0.739287 1.098899 2.065199 0.000000 0.000000 0.000000
0.733878 1.103166 2.062908 0.000000 0.000000 0.000000
0.741772 1.114461 2.062792 0.000000 0.000000 0.000000
0.731582 1.101776 2.068045 0.000000 0.000000 0.000000
0.735650 1.097705 2.068912 0.000000 0.000000 0.000000
0.719748 1.098974 2.072341 0.000000 0.000000 0.000000
0.671931 1.098331 2.055676 0.000000 0.000000 0.000000
0.672178 1.102373 2.054502 0.000000 0.000000 0.000000
0.667175 1.093618 2.068589 0.000000 0.000000 0.000000
0.674026 1.098803 2.055439 0.000000 0.000000 0.000000
0.743831 1.124859 2.060128 0.000000 0.000000 0.000000
0.686846 1.097939 2.056072 0.000000 0.000000 0.000000
0.701420 1.129692 2.044096 0.000000 0.000000 0.000000
0.732612 1.159086 2.057968 0.000000 0.000000 0.000000
0.672777 1.099691 2.051913 0.000000 0.000000 0.000000
0.714107 1.161367 2.058047 0.000000 0.000000 0.000000
0.683635 1.101904 2.059122 0.000000 0.000000 0.000000
0.692019 1.100656 2.058369 0.000000 0.000000 0.000000
0.672569 1.103613 2.049792 0.000000 0.000000 0.000000
0.676605 1.092044 2.060254 0.000000 0.000000 0.000000
0.729586 1.164164 2.056955 0.000000 0.000000 0.000000
0.674554 1.100513 2.053461 0.000000 0.000000 0.000000
0.684511 1.098181 2.061338 0.000000 0.000000 0.000000
0.685863 1.086633 2.078298 0.000000 0.000000 0.000000
0.729193 1.165957 2.057347 0.000000 0.000000 0.000000
0.677802 1.080683 2.078044 0.000000 0.000000 0.000000
0.678787 1.091595 2.070085 0.000000 0.000000 0.000000
0.696571 1.090880 2.067323 0.000000 0.000000 0.000000
0.667547 1.090810 2.072828 0.000000 0.000000 0.000000
0.675861 1.082880 2.077857 0.000000 0.000000 0.000000
0.694056 1.092155 2.069000 0.000000 0.000000 0.000000
0.698908 1.092328 2.071102 0.000000 0.000000 0.000000
0.683335 1.123655 2.044617 0.000000 0.000000 0.000000
0.686276 1.132600 2.044625 0.000000 0.000000 0.000000
0.680398 1.114742 2.046530 0.000000 0.000000 0.000000
0.683929 1.098965 2.054480 0.000000 0.000000 0.000000
0.744772 1.119613 2.062988 0.000000 0.000000 0.000000
0.678310 1.117222 2.045191 0.000000 0.000000 0.000000
0.747138 1.123981 2.060183 0.000000 0.000000 0.000000
0.727040 1.119602 2.054148 0.000000 0.000000 0.000000
0.751721 1.128950 2.062687 0.000000 0.000000 0.000000
0.717789 1.164283 2.059539 0.000000 0.000000 0.000000
0.739545 1.125524 2.056507 0.000000 0.000000 0.000000
0.737236 1.109434 2.064177 0.000000 0.000000 0.000000
0.730477 1.090218 2.069954 0.000000 0.000000 0.000000
0.744721 1.118553 2.064023 0.000000 0.000000 0.000000
0.744218 1.124433 2.059280 0.000000 0.000000 0.000000
0.743711 1.121961 2.061331 0.000000 0.000000 0.000000
0.716306 1.078397 2.073241 0.000000 0.000000 0.000000
0.745130 1.122829 2.060804 0.000000 0.000000 0.000000
0.740135 1.140913 2.056453 0.000000 0.000000 0.000000
0.691686 1.140140 2.045310 0.000000 0.000000 0.000000
0.736152 1.117181 2.060131 0.000000 0.000000 0.000000
0.721067 1.129567 2.047522 0.000000 0.000000 0.000000
0.684759 1.122605 2.045714 0.000000 0.000000 0.000000
0.717116 1.128521 2.043761 0.000000 0.000000 0.000000
0.683877 1.137054 2.042657 0.000000 0.000000 0.000000
0.727772 1.135122 2.048711 0.000000 0.000000 0.000000
0.697373 1.139165 2.045159 0.000000 0.000000 0.000000
0.747423 1.131308 2.060887 0.000000 0.000000 0.000000
0.672224 1.098427 2.053121 0.000000 0.000000 0.000000
0.705862 1.078613 2.075628 0.000000 0.000000 0.000000
0.690028 1.084961 2.079671 0.000000 0.000000 0.000000
0.748027 1.117220 2.066751 0.000000 0.000000 0.000000
0.674542 1.100364 2.051877 0.000000 0.000000 0.000000
0.697820 1.072788 2.082098 0.000000 0.000000 0.000000
0.695846 1.081304 2.074008 0.000000 0.000000 0.000000
0.738439 1.122528 2.058712 0.000000 0.000000 0.000000
0.724524 1.101642 2.064836 0.000000 0.000000 0.000000
0.718817 1.094536 2.067969 0.000000 0.000000 0.000000
0.709563 1.087833 2.074008 0.000000 0.000000 0.000000
0.741940 1.115429 2.060298 0.000000 0.000000 0.000000
0.708465 1.082234 2.075123 0.000000 0.000000 0.000000
0.706730 1.081460 2.074928 0.000000 0.000000 0.000000
0.724974 1.091258 2.072354 0.000000 0.000000 0.000000
0.717489 1.082552 2.077044 0.000000 0.000000 0.000000
0.690871 1.079524 2.082333 0.000000 0.000000 0.000000
0.720633 1.091269 2.070163 0.000000 0.000000 0.000000
0.687237 1.076434 2.076858 0.000000 0.000000 0.000000
0.710102 1.086062 2.074599 0.000000 0.000000 0.000000
0.722411 1.088248 2.070704 0.000000 0.000000 0.000000
0.704722 1.089417 2.071211 0.000000 0.000000 0.000000
0.725273 1.092223 2.072450 0.000000 0.000000 0.000000
0.708958 1.083740 2.073835 0.000000 0.000000 0.000000
0.720997 1.086552 2.073350 0.000000 0.000000 0.000000
0.712947 1.094676 2.072877 0.000000 0.000000 0.000000
0.683472 1.084348 2.078691 0.000000 0.000000 0.000000
0.740505 1.120624 2.063534 0.000000 0.000000 0.000000
0.746103 1.134785 2.060754 0.000000 0.000000 0.000000
0.736182 1.132728 2.054780 0.000000 0.000000 0.000000
0.745906 1.134556 2.059584 0.000000 0.000000 0.000000
0.737414 1.131850 2.056778 0.000000 0.000000 0.000000
0.727122 1.152285 2.053042 0.000000 0.000000 0.000000
0.746016 1.141485 2.060404 0.000000 0.000000 0.000000
0.681918 1.131830 2.043977 0.000000 0.000000 0.000000
0.732778 1.147107 2.059448 0.000000 0.000000 0.000000
0.743619 1.133758 2.058689 0.000000 0.000000 0.000000
0.746037 1.145897 2.058032 0.000000 0.000000 0.000000
0.749781 1.150368 2.059837 0.000000 0.000000 0.000000
0.748234 1.137977 2.062318 0.000000 0.000000 0.000000
0.696081 1.142262 2.043905 0.000000 0.000000 0.000000
0.736454 1.158561 2.060394 0.000000 0.000000 0.000000
0.743274 1.134059 2.058192 0.000000 0.000000 0.000000
0.670595 1.095198 2.056885 0.000000 0.000000 0.000000
0.674081 1.100919 2.053537 0.000000 0.000000 0.000000
0.670657 1.100844 2.054748 0.000000 0.000000 0.000000
0.675262 1.092590 2.065365 0.000000 0.000000 0.000000
0.671204 1.087034 2.076728 0.000000 0.000000 0.000000
0.744640 1.113327 2.065501 0.000000 0.000000 0.000000
0.675076 1.098985 2.057113 0.000000 0.000000 0.000000
0.743194 1.126361 2.059392 0.000000 0.000000 0.000000
0.745391 1.130170 2.055424 0.000000 0.000000 0.000000
0.744549 1.132081 2.058264 0.000000 0.000000 0.000000
0.706448 1.097229 2.056231 0.000000 0.000000 0.000000
0.740475 1.150624 2.057718 0.000000 0.000000 0.000000
0.693535 1.099903 2.058981 0.000000 0.000000 0.000000
0.742990 1.130221 2.057457 0.000000 0.000000 0.000000
0.735121 1.157540 2.054972 0.000000 0.000000 0.000000
0.684977 1.094427 2.063739 0.000000 0.000000 0.000000
0.736104 1.117136 2.055993 0.000000 0.000000 0.000000
0.724128 1.162510 2.057776 0.000000 0.000000 0.000000
0.746579 1.138671 2.059521 0.000000 0.000000 0.000000
0.738554 1.103921 2.066152 0.000000 0.000000 0.000000
0.733201 1.163611 2.059231 0.000000 0.000000 0.000000
0.710852 1.159336 2.053442 0.000000 0.000000 0.000000
0.743185 1.150049 2.060039 0.000000 0.000000 0.000000
0.670109 1.096610 2.068617 0.000000 0.000000 0.000000
0.674027 1.092518 2.062362 0.000000 0.000000 0.000000
0.673237 1.098559 2.051148 0.000000 0.000000 0.000000
0.676917 1.125131 2.039963 0.000000 0.000000 0.000000
0.732694 1.103626 2.069097 0.000000 0.000000 0.000000
0.729119 1.092621 2.071157 0.000000 0.000000 0.000000
0.728647 1.085082 2.070169 0.000000 0.000000 0.000000
0.680029 1.127314 2.044606 0.000000 0.000000 0.000000
0.735425 1.100678 2.067209 0.000000 0.000000 0.000000
0.729769 1.097438 2.067560 0.000000 0.000000 0.000000
0.718673 1.087915 2.072358 0.000000 0.000000 0.000000
0.728155 1.092008 2.069218 0.000000 0.000000 0.000000
0.722549 1.093778 2.065150 0.000000 0.000000 0.000000
0.733281 1.094223 2.068368 0.000000 0.000000 0.000000
0.732158 1.090796 2.068260 0.000000 0.000000 0.000000
0.707043 1.083559 2.074230 0.000000 0.000000 0.000000
0.729146 1.094941 2.065422 0.000000 0.000000 0.000000
0.681641 1.076025 2.077787 0.000000 0.000000 0.000000
0.688283 1.075252 2.077580 0.000000 0.000000 0.000000
0.688060 1.075434 2.077605 0.000000 0.000000 0.000000
0.680790 1.079339 2.075250 0.000000 0.000000 0.000000
0.697256 1.081081 2.073795 0.000000 0.000000 0.000000
0.692539 1.089699 2.067867 0.000000 0.000000 0.000000
0.700269 1.081831 2.073931 0.000000 0.000000 0.000000
0.711569 1.102368 2.064510 0.000000 0.000000 0.000000
0.674372 1.118996 2.048085 0.000000 0.000000 0.000000
0.694294 1.076740 2.076498 0.000000 0.000000 0.000000
0.682724 1.092593 2.065345 0.000000 0.000000 0.000000
0.679009 1.090154 2.071450 0.000000 0.000000 0.000000
0.682447 1.071687 2.079502 0.000000 0.000000 0.000000
0.701157 1.082257 2.072092 0.000000 0.000000 0.000000
0.691289 1.090685 2.078171 0.000000 0.000000 0.000000
0.702019 1.079636 2.077370 0.000000 0.000000 0.000000
0.706141 1.095924 2.064010 0.000000 0.000000 0.000000
0.705770 1.084280 2.072606 0.000000 0.000000 0.000000
0.688045 1.078882 2.075201 0.000000 0.000000 0.000000
0.712250 1.111862 2.060042 0.000000 0.000000 0.000000
0.672874 1.116028 2.047302 0.000000 0.000000 0.000000
0.678703 1.083355 2.073459 0.000000 0.000000 0.000000
0.688018 1.088826 2.073791 0.000000 0.000000 0.000000
0.690060 1.080527 2.075684 0.000000 0.000000 0.000000
0.688032 1.072004 2.080386 0.000000 0.000000 0.000000
0.699280 1.074285 2.076155 0.000000 0.000000 0.000000
0.710649 1.087619 2.076031 0.000000 0.000000 0.000000
0.696466 1.077177 2.077742 0.000000 0.000000 0.000000
0.737499 1.098178 2.064357 0.000000 0.000000 0.000000
0.694159 1.073889 2.078442 0.000000 0.000000 0.000000
0.691599 1.072276 2.077816 0.000000 0.000000 0.000000
0.700149 1.078898 2.077304 0.000000 0.000000 0.000000
0.705251 1.073943 2.075148 0.000000 0.000000 0.000000
0.725530 1.159694 2.059683 0.000000 0.000000 0.000000
0.722965 1.163885 2.056205 0.000000 0.000000 0.000000
0.724049 1.163460 2.055659 0.000000 0.000000 0.000000
0.723954 1.164484 2.056296 0.000000 0.000000 0.000000
0.736497 1.160424 2.058336 0.000000 0.000000 0.000000
0.671135 1.109705 2.045732 0.000000 0.000000 0.000000
0.718769 1.162549 2.054056 0.000000 0.000000 0.000000
0.732871 1.157923 2.058502 0.000000 0.000000 0.000000
0.675882 1.120157 2.044826 0.000000 0.000000 0.000000
0.727565 1.161105 2.056178 0.000000 0.000000 0.000000
0.739629 1.153388 2.060204 0.000000 0.000000 0.000000
0.736773 1.102659 2.065111 0.000000 0.000000 0.000000
0.740489 1.104020 2.061644 0.000000 0.000000 0.000000
0.715331 1.084431 2.076251 0.000000 0.000000 0.000000
0.722896 1.092974 2.071233 0.000000 0.000000 0.000000
0.732348 1.095385 2.069790 0.000000 0.000000 0.000000
0.739987 1.100967 2.067873 0.000000 0.000000 0.000000
0.705405 1.081748 2.075956 0.000000 0.000000 0.000000
0.731594 1.100664 2.063552 0.000000 0.000000 0.000000
0.736571 1.108821 2.067879 0.000000 0.000000 0.000000
0.728471 1.093392 2.067693 0.000000 0.000000 0.000000
0.732653 1.104294 2.063387 0.000000 0.000000 0.000000
0.733183 1.102322 2.068839 0.000000 0.000000 0.000000
0.672059 1.081032 2.075181 0.000000 0.000000 0.000000
0.680273 1.121043 2.046899 0.000000 0.000000 0.000000
0.697115 1.122401 2.046769 0.000000 0.000000 0.000000
0.738388 1.127417 2.054180 0.000000 0.000000 0.000000
0.704056 1.097862 2.061269 0.000000 0.000000 0.000000
0.682484 1.110869 2.049733 0.000000 0.000000 0.000000
0.714936 1.158028 2.045448 0.000000 0.000000 0.000000
0.705552 1.114165 2.051540 0.000000 0.000000 0.000000
0.689438 1.140162 2.044487 0.000000 0.000000 0.000000
0.700409 1.137157 2.040718 0.000000 0.000000 0.000000
0.704862 1.163546 2.051143 0.000000 0.000000 0.000000
0.702238 1.123993 2.049913 0.000000 0.000000 0.000000
0.713721 1.131390 2.045379 0.000000 0.000000 0.000000
0.690263 1.125598 2.045617 0.000000 0.000000 0.000000
0.686086 1.112701 2.048038 0.000000 0.000000 0.000000
0.696104 1.091607 2.057592 0.000000 0.000000 0.000000
0.705995 1.106815 2.055000 0.000000 0.000000 0.000000
0.700610 1.114556 2.052025 0.000000 0.000000 0.000000
0.702479 1.136928 2.046225 0.000000 0.000000 0.000000
0.707973 1.110188 2.046296 0.000000 0.000000 0.000000
0.680979 1.127839 2.043791 0.000000 0.000000 0.000000
0.694760 1.121971 2.047286 0.000000 0.000000 0.000000
0.704568 1.161757 2.052123 0.000000 0.000000 0.000000
0.703398 1.127212 2.048726 0.000000 0.000000 0.000000
0.683195 1.074112 2.076827 0.000000 0.000000 0.000000
0.698181 1.119879 2.045770 0.000000 0.000000 0.000000
0.691908 1.124599 2.044612 0.000000 0.000000 0.000000
0.697871 1.119971 2.045393 0.000000 0.000000 0.000000
0.692399 1.096528 2.058686 0.000000 0.000000 0.000000
