ply
format ascii 1.0
comment VCGLIB generated
obj_info Generated by SPFormer!
element vertex 295
property float x
property float y
property float z
property float nx
property float ny
property float nz
end_header
0.568030 0.673734 1.066221 0.000000 0.000000 0.000000
0.592775 0.671690 1.037845 0.000000 0.000000 0.000000
0.598577 0.678458 1.073133 0.000000 0.000000 0.000000
0.603127 0.654044 1.010152 0.000000 0.000000 0.000000
0.590774 0.673096 1.051963 0.000000 0.000000 0.000000
0.601301 0.671726 1.058194 0.000000 0.000000 0.000000
0.591363 0.679839 1.014145 0.000000 0.000000 0.000000
0.592625 0.667868 1.032624 0.000000 0.000000 0.000000
0.596317 0.659050 1.029947 0.000000 0.000000 0.000000
0.598513 0.654116 1.030699 0.000000 0.000000 0.000000
0.603737 0.655282 1.054237 0.000000 0.000000 0.000000
0.589000 0.679645 1.062424 0.000000 0.000000 0.000000
0.607735 0.664203 1.045209 0.000000 0.000000 0.000000
0.605827 0.652603 1.007395 0.000000 0.000000 0.000000
0.602594 0.650315 1.028680 0.000000 0.000000 0.000000
0.606543 0.652932 1.045152 0.000000 0.000000 0.000000
0.600910 0.650640 1.019533 0.000000 0.000000 0.000000
0.589318 0.677781 1.037071 0.000000 0.000000 0.000000
0.602906 0.653494 1.007928 0.000000 0.000000 0.000000
0.601704 0.656904 1.058562 0.000000 0.000000 0.000000
0.604120 0.649077 1.014914 0.000000 0.000000 0.000000
0.610020 0.657042 1.019805 0.000000 0.000000 0.000000
0.587351 0.669043 1.058828 0.000000 0.000000 0.000000
0.604166 0.657472 1.036302 0.000000 0.000000 0.000000
0.606288 0.679872 1.054173 0.000000 0.000000 0.000000
0.589978 0.655647 1.025263 0.000000 0.000000 0.000000
0.604585 0.656656 1.042825 0.000000 0.000000 0.000000
0.604160 0.678086 1.090745 0.000000 0.000000 0.000000
0.592318 0.665867 1.049927 0.000000 0.000000 0.000000
0.599840 0.649414 1.012601 0.000000 0.000000 0.000000
0.606287 0.649745 1.024851 0.000000 0.000000 0.000000
0.595320 0.675706 1.010229 0.000000 0.000000 0.000000
0.603287 0.679113 1.070899 0.000000 0.000000 0.000000
0.591262 0.651280 1.034415 0.000000 0.000000 0.000000
0.590800 0.672201 1.044959 0.000000 0.000000 0.000000
0.609173 0.658232 1.016302 0.000000 0.000000 0.000000
0.607786 0.643642 1.035567 0.000000 0.000000 0.000000
0.601804 0.672099 1.074856 0.000000 0.000000 0.000000
0.606160 0.677388 1.073569 0.000000 0.000000 0.000000
0.591639 0.667833 1.032112 0.000000 0.000000 0.000000
0.608300 0.668401 1.065695 0.000000 0.000000 0.000000
0.603080 0.652110 1.042606 0.000000 0.000000 0.000000
0.595864 0.664653 1.029943 0.000000 0.000000 0.000000
0.594644 0.678242 1.015527 0.000000 0.000000 0.000000
0.599117 0.676781 1.047418 0.000000 0.000000 0.000000
0.605292 0.679680 1.066790 0.000000 0.000000 0.000000
0.589691 0.678899 1.068912 0.000000 0.000000 0.000000
0.603706 0.654107 1.043832 0.000000 0.000000 0.000000
0.596076 0.678659 1.061627 0.000000 0.000000 0.000000
0.587337 0.678414 1.047199 0.000000 0.000000 0.000000
0.592159 0.677473 1.074453 0.000000 0.000000 0.000000
0.604464 0.679854 1.084758 0.000000 0.000000 0.000000
0.599931 0.652534 1.020188 0.000000 0.000000 0.000000
0.605879 0.663240 1.024419 0.000000 0.000000 0.000000
0.593045 0.654113 1.014467 0.000000 0.000000 0.000000
0.606495 0.666917 1.056562 0.000000 0.000000 0.000000
0.602041 0.659706 1.021545 0.000000 0.000000 0.000000
0.600521 0.651544 1.037713 0.000000 0.000000 0.000000
0.593703 0.654723 1.060050 0.000000 0.000000 0.000000
0.602755 0.663983 1.031515 0.000000 0.000000 0.000000
0.603855 0.647272 1.008645 0.000000 0.000000 0.000000
0.606199 0.658740 1.040545 0.000000 0.000000 0.000000
0.601926 0.648670 1.018328 0.000000 0.000000 0.000000
0.600531 0.661831 1.032168 0.000000 0.000000 0.000000
0.591428 0.653717 1.068580 0.000000 0.000000 0.000000
0.600525 0.651595 1.035629 0.000000 0.000000 0.000000
0.591214 0.658479 1.044822 0.000000 0.000000 0.000000
0.586384 0.649630 1.060776 0.000000 0.000000 0.000000
0.602804 0.651217 1.010693 0.000000 0.000000 0.000000
0.609502 0.657613 1.023261 0.000000 0.000000 0.000000
0.611312 0.651946 1.028180 0.000000 0.000000 0.000000
0.606367 0.653342 1.026371 0.000000 0.000000 0.000000
0.606914 0.661183 1.024850 0.000000 0.000000 0.000000
0.603555 0.654390 1.011296 0.000000 0.000000 0.000000
0.592570 0.645152 1.044714 0.000000 0.000000 0.000000
0.593720 0.656801 1.012779 0.000000 0.000000 0.000000
0.608369 0.659746 1.032754 0.000000 0.000000 0.000000
0.603225 0.649770 1.018557 0.000000 0.000000 0.000000
0.601752 0.650755 1.031626 0.000000 0.000000 0.000000
0.603624 0.660526 1.069144 0.000000 0.000000 0.000000
0.593383 0.646673 1.070534 0.000000 0.000000 0.000000
0.589459 0.665453 1.042712 0.000000 0.000000 0.000000
0.600678 0.668212 1.084576 0.000000 0.000000 0.000000
0.588197 0.661594 1.057320 0.000000 0.000000 0.000000
0.604252 0.653284 1.042611 0.000000 0.000000 0.000000
0.600748 0.664301 1.070636 0.000000 0.000000 0.000000
0.598910 0.652465 1.020662 0.000000 0.000000 0.000000
0.602335 0.645719 1.031956 0.000000 0.000000 0.000000
0.596624 0.647519 1.042360 0.000000 0.000000 0.000000
0.599722 0.645927 1.026865 0.000000 0.000000 0.000000
0.592482 0.646353 1.049806 0.000000 0.000000 0.000000
0.609681 0.653304 1.001293 0.000000 0.000000 0.000000
0.599457 0.648174 1.046488 0.000000 0.000000 0.000000
0.602658 0.670294 1.082739 0.000000 0.000000 0.000000
0.596198 0.654739 1.039092 0.000000 0.000000 0.000000
0.590967 0.648780 1.044983 0.000000 0.000000 0.000000
0.600636 0.658666 1.053887 0.000000 0.000000 0.000000
0.599280 0.660004 1.063909 0.000000 0.000000 0.000000
0.608811 0.653262 1.039242 0.000000 0.000000 0.000000
0.596876 0.661985 1.025649 0.000000 0.000000 0.000000
0.602705 0.648138 1.021602 0.000000 0.000000 0.000000
0.591622 0.645200 1.049188 0.000000 0.000000 0.000000
0.604223 0.672604 1.080267 0.000000 0.000000 0.000000
0.612848 0.667982 1.043510 0.000000 0.000000 0.000000
0.589365 0.651540 1.045594 0.000000 0.000000 0.000000
0.596201 0.647072 1.035294 0.000000 0.000000 0.000000
0.604898 0.647261 1.018946 0.000000 0.000000 0.000000
0.597644 0.679430 0.993130 0.000000 0.000000 0.000000
0.588217 0.652639 1.063493 0.000000 0.000000 0.000000
0.601755 0.677772 1.075521 0.000000 0.000000 0.000000
0.605583 0.672119 1.074937 0.000000 0.000000 0.000000
0.596725 0.678339 0.998007 0.000000 0.000000 0.000000
0.601751 0.657744 1.027805 0.000000 0.000000 0.000000
0.610004 0.665808 1.047529 0.000000 0.000000 0.000000
0.604907 0.669262 1.053874 0.000000 0.000000 0.000000
0.602377 0.657139 1.062782 0.000000 0.000000 0.000000
0.597302 0.665392 1.079010 0.000000 0.000000 0.000000
0.586324 0.648492 1.051929 0.000000 0.000000 0.000000
0.597308 0.647732 1.038807 0.000000 0.000000 0.000000
0.609640 0.661805 1.028587 0.000000 0.000000 0.000000
0.600862 0.653789 1.056899 0.000000 0.000000 0.000000
0.586141 0.651319 1.057901 0.000000 0.000000 0.000000
0.589437 0.658340 1.066303 0.000000 0.000000 0.000000
0.602972 0.665869 1.088386 0.000000 0.000000 0.000000
0.590697 0.668138 1.065963 0.000000 0.000000 0.000000
0.609048 0.660506 1.028816 0.000000 0.000000 0.000000
0.599220 0.661585 1.074078 0.000000 0.000000 0.000000
0.587962 0.656221 1.057523 0.000000 0.000000 0.000000
0.604289 0.674082 1.069169 0.000000 0.000000 0.000000
0.603245 0.672237 1.097158 0.000000 0.000000 0.000000
0.590018 0.660139 1.032299 0.000000 0.000000 0.000000
0.595465 0.647293 1.050458 0.000000 0.000000 0.000000
0.601915 0.662338 1.023968 0.000000 0.000000 0.000000
0.596251 0.648805 1.052727 0.000000 0.000000 0.000000
0.594366 0.646571 1.035129 0.000000 0.000000 0.000000
0.598830 0.656197 1.018841 0.000000 0.000000 0.000000
0.615146 0.661066 1.032187 0.000000 0.000000 0.000000
0.606690 0.658151 1.014859 0.000000 0.000000 0.000000
0.594883 0.648498 1.034351 0.000000 0.000000 0.000000
0.607806 0.652306 1.006715 0.000000 0.000000 0.000000
0.603797 0.658136 1.014287 0.000000 0.000000 0.000000
0.607979 0.653472 1.012244 0.000000 0.000000 0.000000
0.591920 0.657396 1.040354 0.000000 0.000000 0.000000
0.588612 0.656931 1.059834 0.000000 0.000000 0.000000
0.594476 0.645045 1.043074 0.000000 0.000000 0.000000
0.615336 0.664040 1.018088 0.000000 0.000000 0.000000
0.598968 0.645723 1.053902 0.000000 0.000000 0.000000
0.596332 0.664946 1.031834 0.000000 0.000000 0.000000
0.619286 0.679096 1.064081 0.000000 0.000000 0.000000
0.596506 0.641009 1.030553 0.000000 0.000000 0.000000
0.603997 0.653490 1.042996 0.000000 0.000000 0.000000
0.604125 0.653391 1.008688 0.000000 0.000000 0.000000
0.605481 0.652385 1.009756 0.000000 0.000000 0.000000
0.609717 0.640613 1.012152 0.000000 0.000000 0.000000
0.606540 0.670010 1.041477 0.000000 0.000000 0.000000
0.606682 0.651394 1.022035 0.000000 0.000000 0.000000
0.600432 0.654967 1.011243 0.000000 0.000000 0.000000
0.608436 0.655349 1.013199 0.000000 0.000000 0.000000
0.598720 0.657897 1.016333 0.000000 0.000000 0.000000
0.606138 0.655395 1.014247 0.000000 0.000000 0.000000
0.589460 0.661384 1.063432 0.000000 0.000000 0.000000
0.587409 0.647057 1.058071 0.000000 0.000000 0.000000
0.596865 0.667985 1.037307 0.000000 0.000000 0.000000
0.606506 0.651912 1.062903 0.000000 0.000000 0.000000
0.612609 0.672647 1.059119 0.000000 0.000000 0.000000
0.606603 0.673824 1.049137 0.000000 0.000000 0.000000
0.591310 0.660561 1.042192 0.000000 0.000000 0.000000
0.615544 0.662521 1.056835 0.000000 0.000000 0.000000
0.611166 0.664713 1.041789 0.000000 0.000000 0.000000
0.595116 0.660698 1.022932 0.000000 0.000000 0.000000
0.596116 0.650073 1.026921 0.000000 0.000000 0.000000
0.620694 0.669030 1.041036 0.000000 0.000000 0.000000
0.604725 0.672330 1.062725 0.000000 0.000000 0.000000
0.613073 0.669362 1.047987 0.000000 0.000000 0.000000
0.600616 0.641699 1.020049 0.000000 0.000000 0.000000
0.601067 0.677150 1.080988 0.000000 0.000000 0.000000
0.610710 0.663943 1.046700 0.000000 0.000000 0.000000
0.606593 0.662614 1.043474 0.000000 0.000000 0.000000
0.618478 0.666400 1.060183 0.000000 0.000000 0.000000
0.585566 0.654205 1.067896 0.000000 0.000000 0.000000
0.591910 0.665200 1.075204 0.000000 0.000000 0.000000
0.592662 0.662757 1.078573 0.000000 0.000000 0.000000
0.595049 0.653069 1.065651 0.000000 0.000000 0.000000
0.587248 0.662587 1.078046 0.000000 0.000000 0.000000
0.594478 0.643836 1.047815 0.000000 0.000000 0.000000
0.607175 0.661604 1.044787 0.000000 0.000000 0.000000
0.602784 0.644243 1.043438 0.000000 0.000000 0.000000
0.601256 0.679453 1.087857 0.000000 0.000000 0.000000
0.607352 0.663556 1.034288 0.000000 0.000000 0.000000
0.604293 0.650675 1.011023 0.000000 0.000000 0.000000
0.602610 0.650001 1.013752 0.000000 0.000000 0.000000
0.606390 0.652485 1.004023 0.000000 0.000000 0.000000
0.595038 0.679387 1.002695 0.000000 0.000000 0.000000
0.590360 0.650285 1.051622 0.000000 0.000000 0.000000
0.598252 0.647495 1.027253 0.000000 0.000000 0.000000
0.594064 0.643813 1.037122 0.000000 0.000000 0.000000
0.616793 0.676459 1.085661 0.000000 0.000000 0.000000
0.591640 0.649665 1.060299 0.000000 0.000000 0.000000
0.595068 0.646887 1.035194 0.000000 0.000000 0.000000
0.608811 0.659575 1.018875 0.000000 0.000000 0.000000
0.607769 0.655850 1.028166 0.000000 0.000000 0.000000
0.604179 0.658171 1.017858 0.000000 0.000000 0.000000
0.602097 0.662558 1.022666 0.000000 0.000000 0.000000
0.597117 0.649017 1.018123 0.000000 0.000000 0.000000
0.604855 0.653404 1.027844 0.000000 0.000000 0.000000
0.611026 0.661643 1.026698 0.000000 0.000000 0.000000
0.602739 0.656826 1.015863 0.000000 0.000000 0.000000
0.604886 0.643635 1.013986 0.000000 0.000000 0.000000
0.610800 0.656270 1.042641 0.000000 0.000000 0.000000
0.611724 0.659387 1.021898 0.000000 0.000000 0.000000
0.607675 0.662034 1.037697 0.000000 0.000000 0.000000
0.593514 0.641634 1.034053 0.000000 0.000000 0.000000
0.593599 0.644037 1.039629 0.000000 0.000000 0.000000
0.589982 0.643847 1.039109 0.000000 0.000000 0.000000
0.592515 0.646380 1.063796 0.000000 0.000000 0.000000
0.611045 0.666645 1.044807 0.000000 0.000000 0.000000
0.611085 0.669772 1.052447 0.000000 0.000000 0.000000
0.617530 0.665158 1.035830 0.000000 0.000000 0.000000
0.595573 0.648836 1.055263 0.000000 0.000000 0.000000
0.606597 0.660503 1.057785 0.000000 0.000000 0.000000
0.611420 0.667358 1.035713 0.000000 0.000000 0.000000
0.599523 0.654996 1.067064 0.000000 0.000000 0.000000
0.611156 0.667414 1.048681 0.000000 0.000000 0.000000
0.589212 0.678317 1.025861 0.000000 0.000000 0.000000
0.594502 0.679709 1.009460 0.000000 0.000000 0.000000
0.592932 0.673691 1.016235 0.000000 0.000000 0.000000
0.591966 0.678086 1.038029 0.000000 0.000000 0.000000
0.591679 0.673333 1.036807 0.000000 0.000000 0.000000
0.600157 0.661286 1.014248 0.000000 0.000000 0.000000
0.592535 0.679097 1.012810 0.000000 0.000000 0.000000
0.593290 0.677319 1.030527 0.000000 0.000000 0.000000
0.599753 0.669199 1.020247 0.000000 0.000000 0.000000
0.604703 0.650269 1.037105 0.000000 0.000000 0.000000
0.600212 0.648208 1.033981 0.000000 0.000000 0.000000
0.595189 0.644758 1.034982 0.000000 0.000000 0.000000
0.594258 0.645207 1.036128 0.000000 0.000000 0.000000
0.609887 0.675109 1.073719 0.000000 0.000000 0.000000
0.602881 0.658482 1.080127 0.000000 0.000000 0.000000
0.594526 0.658728 1.072969 0.000000 0.000000 0.000000
0.594674 0.640613 1.031820 0.000000 0.000000 0.000000
0.605088 0.669244 1.073852 0.000000 0.000000 0.000000
0.585349 0.651928 1.073738 0.000000 0.000000 0.000000
0.605014 0.672557 1.084954 0.000000 0.000000 0.000000
0.615037 0.676175 1.070656 0.000000 0.000000 0.000000
0.616715 0.670920 1.049184 0.000000 0.000000 0.000000
0.617953 0.677592 1.072911 0.000000 0.000000 0.000000
0.589538 0.641078 1.044691 0.000000 0.000000 0.000000
0.593583 0.646844 1.038469 0.000000 0.000000 0.000000
0.596676 0.672965 1.015527 0.000000 0.000000 0.000000
0.594139 0.642541 1.037879 0.000000 0.000000 0.000000
0.602516 0.650244 1.018670 0.000000 0.000000 0.000000
0.594747 0.640844 1.034689 0.000000 0.000000 0.000000
0.603875 0.651982 1.026085 0.000000 0.000000 0.000000
0.607665 0.644682 1.027270 0.000000 0.000000 0.000000
0.599397 0.646266 1.022605 0.000000 0.000000 0.000000
0.604599 0.643409 1.022738 0.000000 0.000000 0.000000
0.601233 0.645676 1.027568 0.000000 0.000000 0.000000
0.599787 0.646373 1.037660 0.000000 0.000000 0.000000
0.592119 0.645558 1.048992 0.000000 0.000000 0.000000
0.597274 0.645677 1.041499 0.000000 0.000000 0.000000
0.602649 0.639394 1.023261 0.000000 0.000000 0.000000
0.595228 0.643117 1.034561 0.000000 0.000000 0.000000
0.604113 0.649003 1.021345 0.000000 0.000000 0.000000
0.615585 0.673950 1.072352 0.000000 0.000000 0.000000
0.606845 0.667135 1.068803 0.000000 0.000000 0.000000
0.601840 0.646190 1.024126 0.000000 0.000000 0.000000
0.593087 0.646923 1.047251 0.000000 0.000000 0.000000
0.596030 0.646190 1.032222 0.000000 0.000000 0.000000
0.591725 0.645702 1.049920 0.000000 0.000000 0.000000
0.603036 0.645502 1.031504 0.000000 0.000000 0.000000
0.595832 0.644684 1.037950 0.000000 0.000000 0.000000
0.587874 0.645991 1.056864 0.000000 0.000000 0.000000
0.605783 0.640477 1.026627 0.000000 0.000000 0.000000
0.611404 0.670908 1.070043 0.000000 0.000000 0.000000
0.604256 0.665002 1.072475 0.000000 0.000000 0.000000
0.600370 0.644744 1.029308 0.000000 0.000000 0.000000
0.602608 0.647775 1.041012 0.000000 0.000000 0.000000
0.589556 0.648266 1.056636 0.000000 0.000000 0.000000
0.600741 0.645123 1.025217 0.000000 0.000000 0.000000
0.601820 0.646260 1.018541 0.000000 0.000000 0.000000
0.613297 0.679341 1.082082 0.000000 0.000000 0.000000
0.614470 0.677325 1.056846 0.000000 0.000000 0.000000
0.598245 0.665720 1.025473 0.000000 0.000000 0.000000
0.605867 0.662747 1.071862 0.000000 0.000000 0.000000
0.601430 0.664626 1.078761 0.000000 0.000000 0.000000
0.599722 0.639801 1.026185 0.000000 0.000000 0.000000
0.600156 0.642532 1.014031 0.000000 0.000000 0.000000
0.592739 0.658616 1.074840 0.000000 0.000000 0.000000
0.607575 0.674332 1.064095 0.000000 0.000000 0.000000
0.595264 0.671828 1.061603 0.000000 0.000000 0.000000
0.612618 0.667695 1.055553 0.000000 0.000000 0.000000
0.606807 0.645679 1.005567 0.000000 0.000000 0.000000
0.602430 0.640692 1.019413 0.000000 0.000000 0.000000
0.612243 0.657620 1.010733 0.000000 0.000000 0.000000
0.606265 0.649559 1.007218 0.000000 0.000000 0.000000
