ply
format ascii 1.0
comment VCGLIB generated
obj_info Generated by SPFormer!
element vertex 6
property float x
property float y
property float z
property float nx
property float ny
property float nz
end_header
0.360474 0.981434 1.709425 0.000000 0.000000 0.000000
0.362856 0.999338 1.692804 0.000000 0.000000 0.000000
0.362270 0.991565 1.699330 0.000000 0.000000 0.000000
0.399578 0.974040 1.709831 0.000000 0.000000 0.000000
0.399116 0.964466 1.717885 0.000000 0.000000 0.000000
0.399788 0.971251 1.710432 0.000000 0.000000 0.000000
