ply
format ascii 1.0
comment VCGLIB generated
obj_info Generated by SPFormer!
element vertex 397
property float x
property float y
property float z
property float nx
property float ny
property float nz
end_header
0.561348 1.234818 2.420482 0.000000 0.000000 0.000000
0.568139 1.239229 2.417352 0.000000 0.000000 0.000000
0.562682 1.237366 2.416712 0.000000 0.000000 0.000000
0.560051 1.235226 2.413635 0.000000 0.000000 0.000000
0.570711 1.235964 2.414602 0.000000 0.000000 0.000000
0.560943 1.224523 2.411999 0.000000 0.000000 0.000000
0.614524 1.163271 2.432799 0.000000 0.000000 0.000000
0.568812 1.230925 2.413288 0.000000 0.000000 0.000000
0.571622 1.208136 2.411708 0.000000 0.000000 0.000000
0.577264 1.214746 2.409016 0.000000 0.000000 0.000000
0.572223 1.194464 2.419104 0.000000 0.000000 0.000000
0.601212 1.211309 2.400566 0.000000 0.000000 0.000000
0.594436 1.201826 2.401726 0.000000 0.000000 0.000000
0.603964 1.193337 2.409696 0.000000 0.000000 0.000000
0.582082 1.167699 2.443400 0.000000 0.000000 0.000000
0.578344 1.158547 2.454429 0.000000 0.000000 0.000000
0.610753 1.162685 2.474444 0.000000 0.000000 0.000000
0.566004 1.172173 2.446282 0.000000 0.000000 0.000000
0.585720 1.157173 2.449547 0.000000 0.000000 0.000000
0.592835 1.162861 2.476141 0.000000 0.000000 0.000000
0.565051 1.200770 2.416082 0.000000 0.000000 0.000000
0.622510 1.163205 2.445495 0.000000 0.000000 0.000000
0.568726 1.167880 2.439815 0.000000 0.000000 0.000000
0.607829 1.162999 2.435185 0.000000 0.000000 0.000000
0.597310 1.159651 2.460080 0.000000 0.000000 0.000000
0.567921 1.176910 2.431345 0.000000 0.000000 0.000000
0.608697 1.176469 2.425794 0.000000 0.000000 0.000000
0.607542 1.164180 2.450763 0.000000 0.000000 0.000000
0.601657 1.157043 2.462130 0.000000 0.000000 0.000000
0.612684 1.163253 2.470613 0.000000 0.000000 0.000000
0.589259 1.156195 2.442108 0.000000 0.000000 0.000000
0.601094 1.157080 2.467828 0.000000 0.000000 0.000000
0.568866 1.165670 2.455493 0.000000 0.000000 0.000000
0.601828 1.168743 2.476927 0.000000 0.000000 0.000000
0.595585 1.172310 2.477990 0.000000 0.000000 0.000000
0.591369 1.163106 2.464020 0.000000 0.000000 0.000000
0.581693 1.210761 2.405762 0.000000 0.000000 0.000000
0.576335 1.218505 2.410594 0.000000 0.000000 0.000000
0.600274 1.167511 2.471679 0.000000 0.000000 0.000000
0.567445 1.212737 2.412281 0.000000 0.000000 0.000000
0.601303 1.197137 2.411853 0.000000 0.000000 0.000000
0.587914 1.159216 2.469308 0.000000 0.000000 0.000000
0.590147 1.170699 2.452918 0.000000 0.000000 0.000000
0.585296 1.221181 2.402472 0.000000 0.000000 0.000000
0.607196 1.181024 2.416752 0.000000 0.000000 0.000000
0.566387 1.172672 2.445477 0.000000 0.000000 0.000000
0.609442 1.161161 2.470859 0.000000 0.000000 0.000000
0.603256 1.161851 2.476025 0.000000 0.000000 0.000000
0.563782 1.210231 2.412484 0.000000 0.000000 0.000000
0.622752 1.157381 2.448120 0.000000 0.000000 0.000000
0.615401 1.167388 2.443143 0.000000 0.000000 0.000000
0.597444 1.198284 2.404100 0.000000 0.000000 0.000000
0.616692 1.185893 2.413368 0.000000 0.000000 0.000000
0.576740 1.186034 2.417812 0.000000 0.000000 0.000000
0.604830 1.161397 2.474099 0.000000 0.000000 0.000000
0.572338 1.229803 2.411337 0.000000 0.000000 0.000000
0.611088 1.163718 2.438908 0.000000 0.000000 0.000000
0.624626 1.165746 2.434131 0.000000 0.000000 0.000000
0.602500 1.194830 2.409630 0.000000 0.000000 0.000000
0.560728 1.179492 2.440968 0.000000 0.000000 0.000000
0.598308 1.165776 2.477191 0.000000 0.000000 0.000000
0.602133 1.165604 2.480814 0.000000 0.000000 0.000000
0.599131 1.174474 2.475412 0.000000 0.000000 0.000000
0.601517 1.167119 2.484350 0.000000 0.000000 0.000000
0.585737 1.172365 2.430694 0.000000 0.000000 0.000000
0.596896 1.192232 2.410625 0.000000 0.000000 0.000000
0.604111 1.213432 2.396896 0.000000 0.000000 0.000000
0.618628 1.183522 2.412550 0.000000 0.000000 0.000000
0.615663 1.195420 2.408944 0.000000 0.000000 0.000000
0.603708 1.191097 2.401619 0.000000 0.000000 0.000000
0.599578 1.176648 2.427095 0.000000 0.000000 0.000000
0.609617 1.164319 2.463463 0.000000 0.000000 0.000000
0.598002 1.186200 2.412280 0.000000 0.000000 0.000000
0.578345 1.158008 2.454048 0.000000 0.000000 0.000000
0.594571 1.182445 2.418048 0.000000 0.000000 0.000000
0.595536 1.166272 2.469588 0.000000 0.000000 0.000000
0.589157 1.164435 2.458313 0.000000 0.000000 0.000000
0.602334 1.167553 2.457891 0.000000 0.000000 0.000000
0.584606 1.162080 2.468703 0.000000 0.000000 0.000000
0.578396 1.161842 2.470029 0.000000 0.000000 0.000000
0.608585 1.157991 2.442504 0.000000 0.000000 0.000000
0.621127 1.183064 2.417053 0.000000 0.000000 0.000000
0.594253 1.155481 2.462647 0.000000 0.000000 0.000000
0.605391 1.161380 2.472546 0.000000 0.000000 0.000000
0.618468 1.166649 2.428067 0.000000 0.000000 0.000000
0.589502 1.182267 2.411099 0.000000 0.000000 0.000000
0.585302 1.161394 2.464124 0.000000 0.000000 0.000000
0.569949 1.176707 2.426088 0.000000 0.000000 0.000000
0.569602 1.160149 2.452970 0.000000 0.000000 0.000000
0.593169 1.165262 2.473647 0.000000 0.000000 0.000000
0.580411 1.163424 2.467561 0.000000 0.000000 0.000000
0.606653 1.202849 2.402246 0.000000 0.000000 0.000000
0.596029 1.169777 2.480581 0.000000 0.000000 0.000000
0.565013 1.158263 2.458742 0.000000 0.000000 0.000000
0.586949 1.215478 2.415560 0.000000 0.000000 0.000000
0.591145 1.207285 2.400837 0.000000 0.000000 0.000000
0.607212 1.210583 2.398909 0.000000 0.000000 0.000000
0.598530 1.209191 2.400106 0.000000 0.000000 0.000000
0.569444 1.185589 2.419942 0.000000 0.000000 0.000000
0.620103 1.168642 2.430517 0.000000 0.000000 0.000000
0.596412 1.164701 2.458606 0.000000 0.000000 0.000000
0.592430 1.159560 2.435845 0.000000 0.000000 0.000000
0.570719 1.228037 2.404056 0.000000 0.000000 0.000000
0.608764 1.165042 2.428615 0.000000 0.000000 0.000000
0.561155 1.177648 2.444801 0.000000 0.000000 0.000000
0.598024 1.163373 2.470723 0.000000 0.000000 0.000000
0.575328 1.173608 2.435415 0.000000 0.000000 0.000000
0.599720 1.170760 2.424160 0.000000 0.000000 0.000000
0.616501 1.161303 2.458315 0.000000 0.000000 0.000000
0.564046 1.189957 2.424282 0.000000 0.000000 0.000000
0.575675 1.179047 2.426758 0.000000 0.000000 0.000000
0.585024 1.162078 2.453218 0.000000 0.000000 0.000000
0.588111 1.179057 2.421891 0.000000 0.000000 0.000000
0.565820 1.176908 2.438978 0.000000 0.000000 0.000000
0.569497 1.170167 2.440542 0.000000 0.000000 0.000000
0.599538 1.157187 2.458647 0.000000 0.000000 0.000000
0.567497 1.181756 2.424829 0.000000 0.000000 0.000000
0.595077 1.170261 2.421209 0.000000 0.000000 0.000000
0.583451 1.168075 2.445578 0.000000 0.000000 0.000000
0.623683 1.157853 2.453926 0.000000 0.000000 0.000000
0.618758 1.192332 2.406925 0.000000 0.000000 0.000000
0.606397 1.207546 2.397691 0.000000 0.000000 0.000000
0.607147 1.203263 2.401045 0.000000 0.000000 0.000000
0.604272 1.209431 2.396009 0.000000 0.000000 0.000000
0.601499 1.158200 2.448961 0.000000 0.000000 0.000000
0.581819 1.163022 2.470033 0.000000 0.000000 0.000000
0.602639 1.169206 2.478500 0.000000 0.000000 0.000000
0.602453 1.171398 2.481183 0.000000 0.000000 0.000000
0.560053 1.217527 2.413233 0.000000 0.000000 0.000000
0.607049 1.164211 2.471920 0.000000 0.000000 0.000000
0.577453 1.210946 2.422145 0.000000 0.000000 0.000000
0.579740 1.168998 2.472560 0.000000 0.000000 0.000000
0.571418 1.234428 2.413195 0.000000 0.000000 0.000000
0.609360 1.163695 2.473948 0.000000 0.000000 0.000000
0.586353 1.214323 2.406330 0.000000 0.000000 0.000000
0.578904 1.165663 2.469680 0.000000 0.000000 0.000000
0.569269 1.225321 2.413762 0.000000 0.000000 0.000000
0.582259 1.161859 2.468656 0.000000 0.000000 0.000000
0.604749 1.164516 2.479070 0.000000 0.000000 0.000000
0.601057 1.156969 2.456980 0.000000 0.000000 0.000000
0.614344 1.173176 2.422981 0.000000 0.000000 0.000000
0.622115 1.162987 2.440458 0.000000 0.000000 0.000000
0.619257 1.158993 2.445603 0.000000 0.000000 0.000000
0.575268 1.169660 2.436482 0.000000 0.000000 0.000000
0.580212 1.230919 2.406366 0.000000 0.000000 0.000000
0.604121 1.157920 2.452448 0.000000 0.000000 0.000000
0.569091 1.158907 2.456474 0.000000 0.000000 0.000000
0.600679 1.186275 2.413826 0.000000 0.000000 0.000000
0.571031 1.158578 2.445682 0.000000 0.000000 0.000000
0.619849 1.172334 2.425758 0.000000 0.000000 0.000000
0.622263 1.174760 2.426745 0.000000 0.000000 0.000000
0.595982 1.167272 2.451109 0.000000 0.000000 0.000000
0.619362 1.188443 2.414839 0.000000 0.000000 0.000000
0.591756 1.190708 2.422781 0.000000 0.000000 0.000000
0.617293 1.169423 2.417733 0.000000 0.000000 0.000000
0.602079 1.167142 2.443379 0.000000 0.000000 0.000000
0.605544 1.158056 2.452754 0.000000 0.000000 0.000000
0.585882 1.184573 2.414381 0.000000 0.000000 0.000000
0.570635 1.188308 2.422689 0.000000 0.000000 0.000000
0.563717 1.204933 2.426129 0.000000 0.000000 0.000000
0.570727 1.172445 2.444407 0.000000 0.000000 0.000000
0.592046 1.177197 2.417514 0.000000 0.000000 0.000000
0.576569 1.196270 2.411959 0.000000 0.000000 0.000000
0.572125 1.171997 2.436919 0.000000 0.000000 0.000000
0.582612 1.188374 2.414672 0.000000 0.000000 0.000000
0.606293 1.159087 2.447065 0.000000 0.000000 0.000000
0.573974 1.193794 2.414938 0.000000 0.000000 0.000000
0.572422 1.185830 2.417676 0.000000 0.000000 0.000000
0.586191 1.197339 2.408481 0.000000 0.000000 0.000000
0.562067 1.207973 2.418684 0.000000 0.000000 0.000000
0.597200 1.176525 2.407178 0.000000 0.000000 0.000000
0.583439 1.160098 2.446347 0.000000 0.000000 0.000000
0.576132 1.178883 2.432915 0.000000 0.000000 0.000000
0.578199 1.177010 2.434394 0.000000 0.000000 0.000000
0.567665 1.232904 2.404674 0.000000 0.000000 0.000000
0.571429 1.171494 2.438323 0.000000 0.000000 0.000000
0.560077 1.195071 2.420850 0.000000 0.000000 0.000000
0.576375 1.158818 2.468651 0.000000 0.000000 0.000000
0.579688 1.161277 2.467920 0.000000 0.000000 0.000000
0.576210 1.159835 2.462962 0.000000 0.000000 0.000000
0.581520 1.159429 2.463244 0.000000 0.000000 0.000000
0.574873 1.161102 2.460116 0.000000 0.000000 0.000000
0.566956 1.163550 2.454052 0.000000 0.000000 0.000000
0.578815 1.164104 2.459485 0.000000 0.000000 0.000000
0.597901 1.164037 2.474739 0.000000 0.000000 0.000000
0.570267 1.157770 2.465866 0.000000 0.000000 0.000000
0.584150 1.160011 2.465302 0.000000 0.000000 0.000000
0.558532 1.191989 2.428183 0.000000 0.000000 0.000000
0.577783 1.231138 2.409267 0.000000 0.000000 0.000000
0.577864 1.235483 2.403387 0.000000 0.000000 0.000000
0.561014 1.218465 2.413472 0.000000 0.000000 0.000000
0.562594 1.219940 2.411040 0.000000 0.000000 0.000000
0.565747 1.178086 2.435699 0.000000 0.000000 0.000000
0.557592 1.186493 2.426707 0.000000 0.000000 0.000000
0.564182 1.189095 2.426911 0.000000 0.000000 0.000000
0.566203 1.207594 2.415048 0.000000 0.000000 0.000000
0.559080 1.189801 2.428834 0.000000 0.000000 0.000000
0.603237 1.170504 2.427820 0.000000 0.000000 0.000000
0.615408 1.154996 2.445407 0.000000 0.000000 0.000000
0.628303 1.162074 2.439157 0.000000 0.000000 0.000000
0.619371 1.161529 2.436848 0.000000 0.000000 0.000000
0.624337 1.162605 2.437506 0.000000 0.000000 0.000000
0.625057 1.167163 2.437452 0.000000 0.000000 0.000000
0.619925 1.176239 2.418078 0.000000 0.000000 0.000000
0.625023 1.170553 2.428401 0.000000 0.000000 0.000000
0.622101 1.175562 2.421347 0.000000 0.000000 0.000000
0.619864 1.185241 2.411910 0.000000 0.000000 0.000000
0.609791 1.199159 2.399569 0.000000 0.000000 0.000000
0.607050 1.162814 2.474124 0.000000 0.000000 0.000000
0.574370 1.175102 2.422982 0.000000 0.000000 0.000000
0.601864 1.163334 2.471724 0.000000 0.000000 0.000000
0.617316 1.163322 2.434844 0.000000 0.000000 0.000000
0.607342 1.162261 2.430694 0.000000 0.000000 0.000000
0.576253 1.167199 2.464360 0.000000 0.000000 0.000000
0.615137 1.165191 2.470798 0.000000 0.000000 0.000000
0.619218 1.160967 2.470925 0.000000 0.000000 0.000000
0.625537 1.159966 2.449018 0.000000 0.000000 0.000000
0.575820 1.229315 2.400320 0.000000 0.000000 0.000000
0.617298 1.152932 2.462354 0.000000 0.000000 0.000000
0.621516 1.156385 2.457213 0.000000 0.000000 0.000000
0.605520 1.157923 2.458689 0.000000 0.000000 0.000000
0.626613 1.161066 2.455438 0.000000 0.000000 0.000000
0.610477 1.157154 2.464085 0.000000 0.000000 0.000000
0.623506 1.162146 2.455545 0.000000 0.000000 0.000000
0.564128 1.190580 2.433740 0.000000 0.000000 0.000000
0.595284 1.153926 2.441105 0.000000 0.000000 0.000000
0.573824 1.184801 2.437238 0.000000 0.000000 0.000000
0.559803 1.188079 2.438405 0.000000 0.000000 0.000000
0.571612 1.180850 2.443708 0.000000 0.000000 0.000000
0.558519 1.190959 2.434518 0.000000 0.000000 0.000000
0.555591 1.190374 2.432924 0.000000 0.000000 0.000000
0.558497 1.180731 2.443932 0.000000 0.000000 0.000000
0.569154 1.178636 2.443933 0.000000 0.000000 0.000000
0.563088 1.169654 2.452165 0.000000 0.000000 0.000000
0.592805 1.173323 2.477553 0.000000 0.000000 0.000000
0.600486 1.215806 2.397541 0.000000 0.000000 0.000000
0.607764 1.209124 2.397006 0.000000 0.000000 0.000000
0.593239 1.211846 2.402676 0.000000 0.000000 0.000000
0.572368 1.196257 2.413375 0.000000 0.000000 0.000000
0.566135 1.219217 2.416245 0.000000 0.000000 0.000000
0.594531 1.170491 2.480104 0.000000 0.000000 0.000000
0.607378 1.166651 2.480940 0.000000 0.000000 0.000000
0.613803 1.166787 2.474800 0.000000 0.000000 0.000000
0.600328 1.170439 2.481340 0.000000 0.000000 0.000000
0.575170 1.236174 2.401794 0.000000 0.000000 0.000000
0.571879 1.233326 2.410414 0.000000 0.000000 0.000000
0.605844 1.206564 2.398523 0.000000 0.000000 0.000000
0.589816 1.208027 2.402347 0.000000 0.000000 0.000000
0.613323 1.171889 2.434845 0.000000 0.000000 0.000000
0.610536 1.188424 2.405833 0.000000 0.000000 0.000000
0.612683 1.200041 2.399282 0.000000 0.000000 0.000000
0.596866 1.178857 2.409402 0.000000 0.000000 0.000000
0.594257 1.158300 2.443618 0.000000 0.000000 0.000000
0.593542 1.177819 2.435497 0.000000 0.000000 0.000000
0.620706 1.170060 2.430076 0.000000 0.000000 0.000000
0.582175 1.211648 2.405360 0.000000 0.000000 0.000000
0.613631 1.182830 2.414751 0.000000 0.000000 0.000000
0.601378 1.202665 2.400663 0.000000 0.000000 0.000000
0.614081 1.159624 2.444035 0.000000 0.000000 0.000000
0.583745 1.209006 2.405856 0.000000 0.000000 0.000000
0.612325 1.199152 2.402112 0.000000 0.000000 0.000000
0.615227 1.191115 2.408064 0.000000 0.000000 0.000000
0.576352 1.217187 2.407798 0.000000 0.000000 0.000000
0.606716 1.192833 2.405220 0.000000 0.000000 0.000000
0.579331 1.169825 2.450835 0.000000 0.000000 0.000000
0.620098 1.179225 2.419395 0.000000 0.000000 0.000000
0.615882 1.163038 2.435364 0.000000 0.000000 0.000000
0.620094 1.193430 2.407850 0.000000 0.000000 0.000000
0.605010 1.186415 2.418280 0.000000 0.000000 0.000000
0.594424 1.186264 2.415004 0.000000 0.000000 0.000000
0.600709 1.151932 2.448520 0.000000 0.000000 0.000000
0.596802 1.157909 2.453721 0.000000 0.000000 0.000000
0.569803 1.226107 2.407991 0.000000 0.000000 0.000000
0.599179 1.161971 2.426502 0.000000 0.000000 0.000000
0.598570 1.161441 2.432954 0.000000 0.000000 0.000000
0.591406 1.164621 2.424685 0.000000 0.000000 0.000000
0.605944 1.159783 2.439606 0.000000 0.000000 0.000000
0.586291 1.181544 2.434919 0.000000 0.000000 0.000000
0.607825 1.179123 2.411804 0.000000 0.000000 0.000000
0.603827 1.193558 2.411167 0.000000 0.000000 0.000000
0.597938 1.156651 2.447944 0.000000 0.000000 0.000000
0.587478 1.206028 2.411064 0.000000 0.000000 0.000000
0.616613 1.197421 2.403462 0.000000 0.000000 0.000000
0.617819 1.182075 2.416045 0.000000 0.000000 0.000000
0.589611 1.164642 2.430805 0.000000 0.000000 0.000000
0.573348 1.168850 2.432530 0.000000 0.000000 0.000000
0.589039 1.209399 2.408059 0.000000 0.000000 0.000000
0.598566 1.197961 2.402438 0.000000 0.000000 0.000000
0.582451 1.168406 2.429145 0.000000 0.000000 0.000000
0.627553 1.175552 2.423335 0.000000 0.000000 0.000000
0.611747 1.182111 2.416017 0.000000 0.000000 0.000000
0.621281 1.186558 2.410732 0.000000 0.000000 0.000000
0.608159 1.165565 2.431143 0.000000 0.000000 0.000000
0.572561 1.203436 2.409050 0.000000 0.000000 0.000000
0.589886 1.186965 2.412335 0.000000 0.000000 0.000000
0.597426 1.167656 2.429844 0.000000 0.000000 0.000000
0.589320 1.157794 2.459846 0.000000 0.000000 0.000000
0.594594 1.173770 2.429019 0.000000 0.000000 0.000000
0.584377 1.160701 2.439239 0.000000 0.000000 0.000000
0.595595 1.166692 2.482480 0.000000 0.000000 0.000000
0.603171 1.171279 2.483155 0.000000 0.000000 0.000000
0.606018 1.168836 2.478840 0.000000 0.000000 0.000000
0.582342 1.201751 2.402842 0.000000 0.000000 0.000000
0.586461 1.188752 2.406848 0.000000 0.000000 0.000000
0.581012 1.161075 2.446001 0.000000 0.000000 0.000000
0.603230 1.184427 2.412620 0.000000 0.000000 0.000000
0.579106 1.164557 2.439039 0.000000 0.000000 0.000000
0.562889 1.194785 2.417038 0.000000 0.000000 0.000000
0.586672 1.194659 2.404262 0.000000 0.000000 0.000000
0.600236 1.166296 2.481325 0.000000 0.000000 0.000000
0.613639 1.162852 2.474199 0.000000 0.000000 0.000000
0.623592 1.161595 2.455849 0.000000 0.000000 0.000000
0.624123 1.160700 2.464560 0.000000 0.000000 0.000000
0.612409 1.152991 2.455499 0.000000 0.000000 0.000000
0.625815 1.161568 2.449380 0.000000 0.000000 0.000000
0.628848 1.163954 2.448463 0.000000 0.000000 0.000000
0.623693 1.162243 2.456542 0.000000 0.000000 0.000000
0.579515 1.166020 2.474895 0.000000 0.000000 0.000000
0.583822 1.163526 2.473642 0.000000 0.000000 0.000000
0.585556 1.159206 2.474144 0.000000 0.000000 0.000000
0.593846 1.175178 2.482122 0.000000 0.000000 0.000000
0.610606 1.159752 2.458426 0.000000 0.000000 0.000000
0.595288 1.170696 2.473097 0.000000 0.000000 0.000000
0.561499 1.212603 2.415325 0.000000 0.000000 0.000000
0.560916 1.219317 2.417332 0.000000 0.000000 0.000000
0.577417 1.161718 2.469548 0.000000 0.000000 0.000000
0.575271 1.161657 2.466785 0.000000 0.000000 0.000000
0.575604 1.164507 2.470879 0.000000 0.000000 0.000000
0.586766 1.166939 2.475092 0.000000 0.000000 0.000000
0.625518 1.163691 2.441650 0.000000 0.000000 0.000000
0.581519 1.181661 2.418607 0.000000 0.000000 0.000000
0.565007 1.221825 2.415891 0.000000 0.000000 0.000000
0.595141 1.176950 2.415252 0.000000 0.000000 0.000000
0.617924 1.168599 2.474980 0.000000 0.000000 0.000000
0.616340 1.164115 2.472072 0.000000 0.000000 0.000000
0.588866 1.165591 2.476545 0.000000 0.000000 0.000000
0.622569 1.165452 2.444637 0.000000 0.000000 0.000000
0.568056 1.196810 2.415788 0.000000 0.000000 0.000000
0.620149 1.164517 2.471344 0.000000 0.000000 0.000000
0.617689 1.167700 2.474538 0.000000 0.000000 0.000000
0.574480 1.199670 2.422508 0.000000 0.000000 0.000000
0.554151 1.199791 2.428047 0.000000 0.000000 0.000000
0.565567 1.190181 2.432439 0.000000 0.000000 0.000000
0.567938 1.205148 2.418539 0.000000 0.000000 0.000000
0.588896 1.193475 2.422295 0.000000 0.000000 0.000000
0.557834 1.195540 2.430279 0.000000 0.000000 0.000000
0.565173 1.196769 2.420147 0.000000 0.000000 0.000000
0.555080 1.199803 2.424525 0.000000 0.000000 0.000000
0.605028 1.169500 2.473608 0.000000 0.000000 0.000000
0.624694 1.163991 2.466093 0.000000 0.000000 0.000000
0.590256 1.168043 2.467762 0.000000 0.000000 0.000000
0.604134 1.166766 2.463137 0.000000 0.000000 0.000000
0.623775 1.162660 2.463675 0.000000 0.000000 0.000000
0.616857 1.166621 2.460479 0.000000 0.000000 0.000000
0.617365 1.160827 2.463763 0.000000 0.000000 0.000000
0.580174 1.166513 2.432592 0.000000 0.000000 0.000000
0.596103 1.180739 2.416717 0.000000 0.000000 0.000000
0.590427 1.167959 2.426774 0.000000 0.000000 0.000000
0.565493 1.217990 2.417102 0.000000 0.000000 0.000000
0.607264 1.169660 2.419281 0.000000 0.000000 0.000000
0.585366 1.168511 2.432759 0.000000 0.000000 0.000000
0.578368 1.170071 2.430161 0.000000 0.000000 0.000000
0.599490 1.173563 2.418320 0.000000 0.000000 0.000000
0.585888 1.174275 2.419000 0.000000 0.000000 0.000000
0.594488 1.186789 2.417135 0.000000 0.000000 0.000000
0.596801 1.180803 2.417728 0.000000 0.000000 0.000000
0.566723 1.209688 2.421116 0.000000 0.000000 0.000000
0.609072 1.170280 2.425127 0.000000 0.000000 0.000000
0.578555 1.173937 2.427216 0.000000 0.000000 0.000000
0.585147 1.168751 2.443599 0.000000 0.000000 0.000000
0.596897 1.166660 2.425917 0.000000 0.000000 0.000000
0.592721 1.178444 2.418222 0.000000 0.000000 0.000000
0.562119 1.207774 2.423907 0.000000 0.000000 0.000000
0.585885 1.201713 2.414152 0.000000 0.000000 0.000000
0.570735 1.211123 2.419942 0.000000 0.000000 0.000000
0.563353 1.219276 2.423195 0.000000 0.000000 0.000000
0.580864 1.211393 2.412248 0.000000 0.000000 0.000000
0.560770 1.206269 2.424255 0.000000 0.000000 0.000000
0.562729 1.219363 2.416458 0.000000 0.000000 0.000000
0.629094 1.161516 2.446935 0.000000 0.000000 0.000000
0.624277 1.160745 2.450949 0.000000 0.000000 0.000000
0.625189 1.162785 2.451847 0.000000 0.000000 0.000000
0.624948 1.163306 2.458817 0.000000 0.000000 0.000000
0.621979 1.161833 2.462517 0.000000 0.000000 0.000000
0.616858 1.165052 2.448708 0.000000 0.000000 0.000000
0.619000 1.165524 2.469124 0.000000 0.000000 0.000000
0.626322 1.162512 2.447480 0.000000 0.000000 0.000000
0.620904 1.158414 2.463392 0.000000 0.000000 0.000000
0.619841 1.162899 2.459781 0.000000 0.000000 0.000000
0.624494 1.163053 2.464820 0.000000 0.000000 0.000000
0.589353 1.209738 2.400999 0.000000 0.000000 0.000000
0.571142 1.221915 2.402970 0.000000 0.000000 0.000000
0.573942 1.210889 2.401553 0.000000 0.000000 0.000000
0.593854 1.207873 2.400960 0.000000 0.000000 0.000000
0.567835 1.217945 2.407819 0.000000 0.000000 0.000000
0.579690 1.223383 2.400519 0.000000 0.000000 0.000000
0.593103 1.208930 2.400295 0.000000 0.000000 0.000000
