ply
format ascii 1.0
comment VCGLIB generated
obj_info Generated by SPFormer!
element vertex 275
property float x
property float y
property float z
property float nx
property float ny
property float nz
end_header
0.654776 -0.048727 2.053737 0.000000 0.000000 0.000000
0.495008 -0.572268 1.058604 0.000000 0.000000 0.000000
0.358952 -0.574343 1.090087 0.000000 0.000000 0.000000
0.666177 -0.057524 2.045338 0.000000 0.000000 0.000000
0.492486 -0.567189 1.052605 0.000000 0.000000 0.000000
0.666291 -0.053650 2.049993 0.000000 0.000000 0.000000
0.480611 -0.567186 1.060946 0.000000 0.000000 0.000000
0.489843 -0.574093 1.057549 0.000000 0.000000 0.000000
0.489299 -0.568676 1.056410 0.000000 0.000000 0.000000
0.490366 -0.569847 1.054957 0.000000 0.000000 0.000000
0.485310 -0.565059 1.061692 0.000000 0.000000 0.000000
0.490692 -0.562336 1.051259 0.000000 0.000000 0.000000
0.672786 -0.056953 2.051769 0.000000 0.000000 0.000000
0.649354 -0.041081 2.057292 0.000000 0.000000 0.000000
0.668876 -0.060190 2.051434 0.000000 0.000000 0.000000
0.677179 -0.060103 2.049485 0.000000 0.000000 0.000000
0.481683 -0.567075 1.071031 0.000000 0.000000 0.000000
0.675907 -0.054153 2.045846 0.000000 0.000000 0.000000
0.664213 -0.046132 2.055156 0.000000 0.000000 0.000000
0.664881 -0.040480 2.058743 0.000000 0.000000 0.000000
0.660482 -0.049210 2.054904 0.000000 0.000000 0.000000
0.683006 -0.077268 2.057324 0.000000 0.000000 0.000000
0.490389 -0.570676 1.061166 0.000000 0.000000 0.000000
0.491153 -0.566646 1.064209 0.000000 0.000000 0.000000
0.483404 -0.568073 1.055855 0.000000 0.000000 0.000000
0.672697 -0.066327 2.051442 0.000000 0.000000 0.000000
0.648272 -0.044234 2.054130 0.000000 0.000000 0.000000
0.485472 -0.566874 1.060844 0.000000 0.000000 0.000000
0.490079 -0.564079 1.059406 0.000000 0.000000 0.000000
0.679730 -0.073852 2.048921 0.000000 0.000000 0.000000
0.678586 -0.052575 2.047297 0.000000 0.000000 0.000000
0.673930 -0.058217 2.047567 0.000000 0.000000 0.000000
0.677699 -0.056782 2.047653 0.000000 0.000000 0.000000
0.675628 -0.048874 2.043985 0.000000 0.000000 0.000000
0.493794 -0.571345 1.052546 0.000000 0.000000 0.000000
0.699540 -0.080462 2.040947 0.000000 0.000000 0.000000
0.660515 -0.040088 2.058832 0.000000 0.000000 0.000000
0.485310 -0.565361 1.056314 0.000000 0.000000 0.000000
0.482844 -0.569483 1.056528 0.000000 0.000000 0.000000
0.487188 -0.575269 1.056664 0.000000 0.000000 0.000000
0.690174 -0.063241 2.040340 0.000000 0.000000 0.000000
0.657753 -0.048502 2.046796 0.000000 0.000000 0.000000
0.490173 -0.570468 1.052889 0.000000 0.000000 0.000000
0.669024 -0.050180 2.048264 0.000000 0.000000 0.000000
0.685735 -0.075576 2.040029 0.000000 0.000000 0.000000
0.677488 -0.061360 2.040300 0.000000 0.000000 0.000000
0.656752 -0.045287 2.054897 0.000000 0.000000 0.000000
0.482632 -0.576060 1.058310 0.000000 0.000000 0.000000
0.493729 -0.566169 1.059542 0.000000 0.000000 0.000000
0.498229 -0.566664 1.060071 0.000000 0.000000 0.000000
0.487130 -0.571556 1.062560 0.000000 0.000000 0.000000
0.485366 -0.568071 1.059419 0.000000 0.000000 0.000000
0.491505 -0.573802 1.053917 0.000000 0.000000 0.000000
0.487498 -0.567684 1.054704 0.000000 0.000000 0.000000
0.488225 -0.569787 1.053400 0.000000 0.000000 0.000000
0.488814 -0.572692 1.055633 0.000000 0.000000 0.000000
0.685686 -0.065122 2.045996 0.000000 0.000000 0.000000
0.684079 -0.062150 2.042128 0.000000 0.000000 0.000000
0.495643 -0.568903 1.054981 0.000000 0.000000 0.000000
0.488660 -0.573105 1.051373 0.000000 0.000000 0.000000
0.686947 -0.068440 2.044735 0.000000 0.000000 0.000000
0.679859 -0.055340 2.038859 0.000000 0.000000 0.000000
0.487616 -0.570869 1.054014 0.000000 0.000000 0.000000
0.671934 -0.053490 2.041490 0.000000 0.000000 0.000000
0.666240 -0.053800 2.057755 0.000000 0.000000 0.000000
0.671151 -0.048502 2.047719 0.000000 0.000000 0.000000
0.694624 -0.071459 2.045449 0.000000 0.000000 0.000000
0.681206 -0.052909 2.043718 0.000000 0.000000 0.000000
0.676308 -0.051508 2.060533 0.000000 0.000000 0.000000
0.671806 -0.048761 2.051456 0.000000 0.000000 0.000000
0.674059 -0.046323 2.046911 0.000000 0.000000 0.000000
0.660176 -0.040932 2.061873 0.000000 0.000000 0.000000
0.662737 -0.045558 2.045508 0.000000 0.000000 0.000000
0.659770 -0.043043 2.053876 0.000000 0.000000 0.000000
0.671259 -0.047652 2.047400 0.000000 0.000000 0.000000
0.702851 -0.068068 2.040473 0.000000 0.000000 0.000000
0.486443 -0.568017 1.057564 0.000000 0.000000 0.000000
0.486804 -0.567154 1.060213 0.000000 0.000000 0.000000
0.487656 -0.565220 1.062428 0.000000 0.000000 0.000000
0.494972 -0.564894 1.054765 0.000000 0.000000 0.000000
0.485719 -0.572735 1.061570 0.000000 0.000000 0.000000
0.687313 -0.041811 2.048791 0.000000 0.000000 0.000000
0.690471 -0.072207 2.046477 0.000000 0.000000 0.000000
0.671868 -0.063211 2.056734 0.000000 0.000000 0.000000
0.681806 -0.069095 2.042582 0.000000 0.000000 0.000000
0.689400 -0.075894 2.042347 0.000000 0.000000 0.000000
0.683698 -0.059323 2.049559 0.000000 0.000000 0.000000
0.678288 -0.077191 2.059661 0.000000 0.000000 0.000000
0.694262 -0.074954 2.041849 0.000000 0.000000 0.000000
0.484251 -0.571164 1.063056 0.000000 0.000000 0.000000
0.483371 -0.565967 1.061296 0.000000 0.000000 0.000000
0.710149 -0.073096 2.043819 0.000000 0.000000 0.000000
0.706298 -0.073181 2.040480 0.000000 0.000000 0.000000
0.480411 -0.565085 1.056659 0.000000 0.000000 0.000000
0.485510 -0.565036 1.063952 0.000000 0.000000 0.000000
0.698239 -0.061449 2.040731 0.000000 0.000000 0.000000
0.516841 -0.564369 1.054271 0.000000 0.000000 0.000000
0.507703 -0.578176 1.044537 0.000000 0.000000 0.000000
0.509675 -0.560850 1.040874 0.000000 0.000000 0.000000
0.499697 -0.574872 1.049199 0.000000 0.000000 0.000000
0.519382 -0.573341 1.052921 0.000000 0.000000 0.000000
0.519899 -0.568924 1.048955 0.000000 0.000000 0.000000
0.511442 -0.571365 1.055356 0.000000 0.000000 0.000000
0.515987 -0.582959 1.053815 0.000000 0.000000 0.000000
0.502728 -0.584638 1.051305 0.000000 0.000000 0.000000
0.519896 -0.574341 1.050516 0.000000 0.000000 0.000000
0.498006 -0.567347 1.044290 0.000000 0.000000 0.000000
0.515009 -0.582113 1.056278 0.000000 0.000000 0.000000
0.517256 -0.574443 1.052223 0.000000 0.000000 0.000000
0.515334 -0.566760 1.047699 0.000000 0.000000 0.000000
0.519128 -0.560008 1.042656 0.000000 0.000000 0.000000
0.507549 -0.565450 1.052920 0.000000 0.000000 0.000000
0.505113 -0.571664 1.056887 0.000000 0.000000 0.000000
0.509713 -0.565679 1.059193 0.000000 0.000000 0.000000
0.495228 -0.571393 1.043965 0.000000 0.000000 0.000000
0.511031 -0.568601 1.052280 0.000000 0.000000 0.000000
0.511428 -0.562267 1.041874 0.000000 0.000000 0.000000
0.510020 -0.576852 1.055119 0.000000 0.000000 0.000000
0.500521 -0.565784 1.058610 0.000000 0.000000 0.000000
0.497026 -0.576612 1.050355 0.000000 0.000000 0.000000
0.501792 -0.567097 1.058142 0.000000 0.000000 0.000000
0.502359 -0.560223 1.051205 0.000000 0.000000 0.000000
0.507729 -0.568781 1.051727 0.000000 0.000000 0.000000
0.509275 -0.566593 1.050774 0.000000 0.000000 0.000000
0.504829 -0.564004 1.053871 0.000000 0.000000 0.000000
0.501163 -0.561465 1.050390 0.000000 0.000000 0.000000
0.503901 -0.562557 1.045395 0.000000 0.000000 0.000000
0.501559 -0.564335 1.051719 0.000000 0.000000 0.000000
0.498126 -0.568188 1.050647 0.000000 0.000000 0.000000
0.497021 -0.571165 1.051193 0.000000 0.000000 0.000000
0.506960 -0.592159 1.060384 0.000000 0.000000 0.000000
0.498456 -0.569060 1.048643 0.000000 0.000000 0.000000
0.498597 -0.573454 1.054209 0.000000 0.000000 0.000000
0.494364 -0.569511 1.050590 0.000000 0.000000 0.000000
0.516195 -0.593012 1.059761 0.000000 0.000000 0.000000
0.504606 -0.562369 1.048461 0.000000 0.000000 0.000000
0.502086 -0.562356 1.040296 0.000000 0.000000 0.000000
0.511366 -0.597704 1.061492 0.000000 0.000000 0.000000
0.495704 -0.567245 1.050019 0.000000 0.000000 0.000000
0.500868 -0.572659 1.059013 0.000000 0.000000 0.000000
0.499583 -0.580963 1.049083 0.000000 0.000000 0.000000
0.502580 -0.581763 1.058216 0.000000 0.000000 0.000000
0.496633 -0.563116 1.054108 0.000000 0.000000 0.000000
0.498313 -0.563452 1.051936 0.000000 0.000000 0.000000
0.501710 -0.564578 1.052958 0.000000 0.000000 0.000000
0.506173 -0.575151 1.059572 0.000000 0.000000 0.000000
0.514311 -0.587885 1.059417 0.000000 0.000000 0.000000
0.517438 -0.584997 1.055609 0.000000 0.000000 0.000000
0.504368 -0.579654 1.056142 0.000000 0.000000 0.000000
0.504962 -0.583551 1.054529 0.000000 0.000000 0.000000
0.513781 -0.584650 1.055912 0.000000 0.000000 0.000000
0.511040 -0.571614 1.059472 0.000000 0.000000 0.000000
0.518777 -0.599932 1.062320 0.000000 0.000000 0.000000
0.510494 -0.582016 1.058470 0.000000 0.000000 0.000000
0.510907 -0.598311 1.054461 0.000000 0.000000 0.000000
0.499115 -0.564019 1.053511 0.000000 0.000000 0.000000
0.504578 -0.565391 1.051487 0.000000 0.000000 0.000000
0.707924 -0.130479 2.042251 0.000000 0.000000 0.000000
0.719218 -0.143021 2.045579 0.000000 0.000000 0.000000
0.717352 -0.145467 2.041994 0.000000 0.000000 0.000000
0.713930 -0.138313 2.047495 0.000000 0.000000 0.000000
0.716619 -0.130727 2.045183 0.000000 0.000000 0.000000
0.719924 -0.170170 2.055547 0.000000 0.000000 0.000000
0.717159 -0.161913 2.046764 0.000000 0.000000 0.000000
0.716341 -0.183901 2.053094 0.000000 0.000000 0.000000
0.712302 -0.154909 2.048311 0.000000 0.000000 0.000000
0.715532 -0.173587 2.048794 0.000000 0.000000 0.000000
0.715993 -0.169430 2.051337 0.000000 0.000000 0.000000
0.717923 -0.178022 2.053087 0.000000 0.000000 0.000000
0.681636 -0.151744 2.053509 0.000000 0.000000 0.000000
0.683372 -0.117235 2.057189 0.000000 0.000000 0.000000
0.647642 -0.050748 2.052359 0.000000 0.000000 0.000000
0.682381 -0.178351 2.050027 0.000000 0.000000 0.000000
0.680412 -0.142216 2.055560 0.000000 0.000000 0.000000
0.689880 -0.121758 2.054712 0.000000 0.000000 0.000000
0.692443 -0.180661 2.053302 0.000000 0.000000 0.000000
0.644063 -0.046761 2.059275 0.000000 0.000000 0.000000
0.661247 -0.076878 2.056737 0.000000 0.000000 0.000000
0.649090 -0.071933 2.056237 0.000000 0.000000 0.000000
0.647030 -0.061543 2.052934 0.000000 0.000000 0.000000
0.681614 -0.109440 2.059572 0.000000 0.000000 0.000000
0.643355 -0.044886 2.055693 0.000000 0.000000 0.000000
0.688473 -0.167761 2.054167 0.000000 0.000000 0.000000
0.680346 -0.133662 2.053789 0.000000 0.000000 0.000000
0.686100 -0.167148 2.052665 0.000000 0.000000 0.000000
0.651927 -0.075343 2.056632 0.000000 0.000000 0.000000
0.681044 -0.186436 2.050401 0.000000 0.000000 0.000000
0.689804 -0.195379 2.048375 0.000000 0.000000 0.000000
0.689113 -0.154556 2.052985 0.000000 0.000000 0.000000
0.686812 -0.198659 2.049663 0.000000 0.000000 0.000000
0.706437 -0.173874 2.057452 0.000000 0.000000 0.000000
0.690558 -0.193342 2.052925 0.000000 0.000000 0.000000
0.696665 -0.143884 2.053575 0.000000 0.000000 0.000000
0.702231 -0.194590 2.054860 0.000000 0.000000 0.000000
0.686678 -0.189781 2.050967 0.000000 0.000000 0.000000
0.686618 -0.193256 2.050285 0.000000 0.000000 0.000000
0.697422 -0.137305 2.058390 0.000000 0.000000 0.000000
0.704567 -0.156516 2.058357 0.000000 0.000000 0.000000
0.706176 -0.159113 2.058817 0.000000 0.000000 0.000000
0.702255 -0.130431 2.057887 0.000000 0.000000 0.000000
0.711331 -0.163595 2.057031 0.000000 0.000000 0.000000
0.698149 -0.130472 2.053358 0.000000 0.000000 0.000000
0.703566 -0.145980 2.058523 0.000000 0.000000 0.000000
0.701769 -0.168488 2.057012 0.000000 0.000000 0.000000
0.695310 -0.156271 2.055534 0.000000 0.000000 0.000000
0.706602 -0.150468 2.050271 0.000000 0.000000 0.000000
0.645679 -0.070617 2.059778 0.000000 0.000000 0.000000
0.692217 -0.187467 2.052894 0.000000 0.000000 0.000000
0.696548 -0.175260 2.054029 0.000000 0.000000 0.000000
0.686635 -0.126205 2.054265 0.000000 0.000000 0.000000
0.651364 -0.057508 2.055315 0.000000 0.000000 0.000000
0.684333 -0.183542 2.051876 0.000000 0.000000 0.000000
0.715229 -0.188008 2.055917 0.000000 0.000000 0.000000
0.660595 -0.058767 2.048838 0.000000 0.000000 0.000000
0.666082 -0.067793 2.042802 0.000000 0.000000 0.000000
0.669175 -0.074836 2.057573 0.000000 0.000000 0.000000
0.670916 -0.068442 2.048457 0.000000 0.000000 0.000000
0.660621 -0.064722 2.052133 0.000000 0.000000 0.000000
0.713765 -0.186470 2.054228 0.000000 0.000000 0.000000
0.715308 -0.184468 2.055942 0.000000 0.000000 0.000000
0.698653 -0.122926 2.059564 0.000000 0.000000 0.000000
0.672237 -0.074124 2.055547 0.000000 0.000000 0.000000
0.665353 -0.076003 2.059833 0.000000 0.000000 0.000000
0.704867 -0.172467 2.052984 0.000000 0.000000 0.000000
0.711035 -0.150151 2.055017 0.000000 0.000000 0.000000
0.694125 -0.114859 2.065408 0.000000 0.000000 0.000000
0.692388 -0.097772 2.057833 0.000000 0.000000 0.000000
0.702687 -0.131375 2.049641 0.000000 0.000000 0.000000
0.683833 -0.137820 2.057652 0.000000 0.000000 0.000000
0.690847 -0.101652 2.052203 0.000000 0.000000 0.000000
0.691696 -0.120341 2.051830 0.000000 0.000000 0.000000
0.710547 -0.188128 2.052677 0.000000 0.000000 0.000000
0.708073 -0.182142 2.051835 0.000000 0.000000 0.000000
0.654786 -0.069813 2.058362 0.000000 0.000000 0.000000
0.688958 -0.146044 2.056734 0.000000 0.000000 0.000000
0.694086 -0.156482 2.051258 0.000000 0.000000 0.000000
0.716171 -0.178553 2.061483 0.000000 0.000000 0.000000
0.703426 -0.166504 2.048186 0.000000 0.000000 0.000000
0.707634 -0.166843 2.055783 0.000000 0.000000 0.000000
0.703345 -0.192056 2.054935 0.000000 0.000000 0.000000
0.693105 -0.198873 2.052216 0.000000 0.000000 0.000000
0.680200 -0.127782 2.055598 0.000000 0.000000 0.000000
0.700457 -0.176426 2.051078 0.000000 0.000000 0.000000
0.693674 -0.162881 2.057222 0.000000 0.000000 0.000000
0.693431 -0.183310 2.052714 0.000000 0.000000 0.000000
0.700073 -0.162514 2.058342 0.000000 0.000000 0.000000
0.701576 -0.187485 2.052608 0.000000 0.000000 0.000000
0.701404 -0.178851 2.054873 0.000000 0.000000 0.000000
0.694407 -0.192767 2.059465 0.000000 0.000000 0.000000
0.684153 -0.076860 2.040874 0.000000 0.000000 0.000000
0.679784 -0.072528 2.039421 0.000000 0.000000 0.000000
0.703212 -0.190018 2.049833 0.000000 0.000000 0.000000
0.696374 -0.196635 2.049475 0.000000 0.000000 0.000000
0.695737 -0.113497 2.051282 0.000000 0.000000 0.000000
0.708752 -0.165497 2.048199 0.000000 0.000000 0.000000
0.716302 -0.185456 2.056676 0.000000 0.000000 0.000000
0.701494 -0.143153 2.044092 0.000000 0.000000 0.000000
0.695582 -0.112199 2.060794 0.000000 0.000000 0.000000
0.691815 -0.129935 2.058086 0.000000 0.000000 0.000000
0.646908 -0.053456 2.059036 0.000000 0.000000 0.000000
0.692218 -0.114204 2.060001 0.000000 0.000000 0.000000
0.640186 -0.069954 2.056881 0.000000 0.000000 0.000000
0.703346 -0.126363 2.054670 0.000000 0.000000 0.000000
0.697456 -0.103488 2.051120 0.000000 0.000000 0.000000
0.709666 -0.175710 2.056583 0.000000 0.000000 0.000000
0.694740 -0.192410 2.050583 0.000000 0.000000 0.000000
0.705477 -0.174387 2.049875 0.000000 0.000000 0.000000
0.695544 -0.169434 2.052526 0.000000 0.000000 0.000000
0.708653 -0.186644 2.053689 0.000000 0.000000 0.000000
0.683313 -0.091259 2.059248 0.000000 0.000000 0.000000
0.687177 -0.087666 2.057980 0.000000 0.000000 0.000000
0.683675 -0.101362 2.055258 0.000000 0.000000 0.000000
0.689719 -0.090911 2.059852 0.000000 0.000000 0.000000
0.681500 -0.078586 2.042986 0.000000 0.000000 0.000000
0.662786 -0.067141 2.058892 0.000000 0.000000 0.000000
