ply
format ascii 1.0
comment VCGLIB generated
obj_info Generated by SPFormer!
element vertex 574
property float x
property float y
property float z
property float nx
property float ny
property float nz
end_header
0.400486 1.560862 1.069992 0.000000 0.000000 0.000000
0.420717 1.556812 1.073835 0.000000 0.000000 0.000000
0.404679 1.521358 1.053094 0.000000 0.000000 0.000000
0.419622 1.561829 1.069215 0.000000 0.000000 0.000000
0.434130 1.565749 1.065815 0.000000 0.000000 0.000000
0.439311 1.559146 1.071182 0.000000 0.000000 0.000000
0.406015 1.528208 1.064674 0.000000 0.000000 0.000000
0.420109 1.562603 1.078636 0.000000 0.000000 0.000000
0.405372 1.523425 1.067067 0.000000 0.000000 0.000000
0.407330 1.555603 1.079730 0.000000 0.000000 0.000000
0.418177 1.560351 1.076807 0.000000 0.000000 0.000000
0.398385 1.563994 1.065480 0.000000 0.000000 0.000000
0.400553 1.578722 1.095358 0.000000 0.000000 0.000000
0.439985 1.563862 1.064312 0.000000 0.000000 0.000000
0.404631 1.579511 1.091210 0.000000 0.000000 0.000000
0.398719 1.575660 1.107154 0.000000 0.000000 0.000000
0.400074 1.550607 1.062010 0.000000 0.000000 0.000000
0.419310 1.532979 1.066214 0.000000 0.000000 0.000000
0.403787 1.577575 1.091017 0.000000 0.000000 0.000000
0.414643 1.574167 1.075964 0.000000 0.000000 0.000000
0.407815 1.537719 1.079622 0.000000 0.000000 0.000000
0.401548 1.575374 1.097861 0.000000 0.000000 0.000000
0.417154 1.568569 1.085886 0.000000 0.000000 0.000000
0.415297 1.566808 1.068531 0.000000 0.000000 0.000000
0.399380 1.559587 1.063292 0.000000 0.000000 0.000000
0.402680 1.572887 1.080559 0.000000 0.000000 0.000000
0.421391 1.570845 1.073593 0.000000 0.000000 0.000000
0.431034 1.557210 1.067037 0.000000 0.000000 0.000000
0.410067 1.559298 1.063107 0.000000 0.000000 0.000000
0.403121 1.569730 1.088713 0.000000 0.000000 0.000000
0.422043 1.571022 1.076804 0.000000 0.000000 0.000000
0.432408 1.564718 1.064156 0.000000 0.000000 0.000000
0.395844 1.534767 1.063589 0.000000 0.000000 0.000000
0.410367 1.575067 1.082265 0.000000 0.000000 0.000000
0.414062 1.536732 1.066691 0.000000 0.000000 0.000000
0.400009 1.554347 1.058756 0.000000 0.000000 0.000000
0.407651 1.531425 1.052066 0.000000 0.000000 0.000000
0.421273 1.564513 1.077806 0.000000 0.000000 0.000000
0.408142 1.526394 1.058618 0.000000 0.000000 0.000000
0.393743 1.574399 1.117107 0.000000 0.000000 0.000000
0.390329 1.571610 1.114636 0.000000 0.000000 0.000000
0.400523 1.526655 1.052785 0.000000 0.000000 0.000000
0.401818 1.526107 1.051680 0.000000 0.000000 0.000000
0.399172 1.589295 1.115394 0.000000 0.000000 0.000000
0.403018 1.535238 1.057103 0.000000 0.000000 0.000000
0.405283 1.524645 1.046498 0.000000 0.000000 0.000000
0.419833 1.525405 1.055419 0.000000 0.000000 0.000000
0.438920 1.556003 1.056381 0.000000 0.000000 0.000000
0.399969 1.552926 1.055980 0.000000 0.000000 0.000000
0.403299 1.527808 1.070413 0.000000 0.000000 0.000000
0.405880 1.539302 1.058993 0.000000 0.000000 0.000000
0.409759 1.526668 1.074986 0.000000 0.000000 0.000000
0.405876 1.552630 1.057600 0.000000 0.000000 0.000000
0.405356 1.579291 1.096666 0.000000 0.000000 0.000000
0.411754 1.557060 1.068656 0.000000 0.000000 0.000000
0.406123 1.548416 1.067357 0.000000 0.000000 0.000000
0.417072 1.557297 1.062567 0.000000 0.000000 0.000000
0.393380 1.580465 1.113904 0.000000 0.000000 0.000000
0.409628 1.553637 1.054812 0.000000 0.000000 0.000000
0.408479 1.526590 1.051837 0.000000 0.000000 0.000000
0.407914 1.548179 1.074543 0.000000 0.000000 0.000000
0.411554 1.534309 1.065287 0.000000 0.000000 0.000000
0.430461 1.574335 1.068177 0.000000 0.000000 0.000000
0.402492 1.563140 1.078061 0.000000 0.000000 0.000000
0.403739 1.562213 1.072852 0.000000 0.000000 0.000000
0.397997 1.589094 1.106717 0.000000 0.000000 0.000000
0.405188 1.574984 1.065936 0.000000 0.000000 0.000000
0.405191 1.536770 1.051709 0.000000 0.000000 0.000000
0.403490 1.571454 1.071449 0.000000 0.000000 0.000000
0.433210 1.554495 1.058754 0.000000 0.000000 0.000000
0.401139 1.572455 1.067500 0.000000 0.000000 0.000000
0.410970 1.568444 1.076652 0.000000 0.000000 0.000000
0.408752 1.544933 1.079247 0.000000 0.000000 0.000000
0.425153 1.566205 1.069152 0.000000 0.000000 0.000000
0.439506 1.560007 1.054892 0.000000 0.000000 0.000000
0.403967 1.584038 1.079884 0.000000 0.000000 0.000000
0.422854 1.560088 1.068736 0.000000 0.000000 0.000000
0.399280 1.566716 1.092287 0.000000 0.000000 0.000000
0.397009 1.584099 1.111047 0.000000 0.000000 0.000000
0.403992 1.574975 1.086371 0.000000 0.000000 0.000000
0.428805 1.562633 1.067074 0.000000 0.000000 0.000000
0.434252 1.565041 1.065448 0.000000 0.000000 0.000000
0.398622 1.574322 1.110292 0.000000 0.000000 0.000000
0.433889 1.572077 1.069769 0.000000 0.000000 0.000000
0.393261 1.578299 1.111316 0.000000 0.000000 0.000000
0.400637 1.573695 1.105183 0.000000 0.000000 0.000000
0.432657 1.568044 1.066006 0.000000 0.000000 0.000000
0.429107 1.558411 1.064861 0.000000 0.000000 0.000000
0.403499 1.577524 1.103078 0.000000 0.000000 0.000000
0.413870 1.549852 1.065624 0.000000 0.000000 0.000000
0.424429 1.526955 1.062622 0.000000 0.000000 0.000000
0.403642 1.576515 1.071198 0.000000 0.000000 0.000000
0.416105 1.524988 1.053169 0.000000 0.000000 0.000000
0.403627 1.579619 1.096569 0.000000 0.000000 0.000000
0.398475 1.576871 1.108704 0.000000 0.000000 0.000000
0.405486 1.530312 1.049406 0.000000 0.000000 0.000000
0.397849 1.577152 1.112014 0.000000 0.000000 0.000000
0.404438 1.581180 1.080773 0.000000 0.000000 0.000000
0.435200 1.554472 1.063179 0.000000 0.000000 0.000000
0.413805 1.523827 1.056316 0.000000 0.000000 0.000000
0.395806 1.568262 1.101279 0.000000 0.000000 0.000000
0.402108 1.571991 1.093403 0.000000 0.000000 0.000000
0.404279 1.535765 1.056490 0.000000 0.000000 0.000000
0.399389 1.584581 1.096703 0.000000 0.000000 0.000000
0.416212 1.520949 1.062480 0.000000 0.000000 0.000000
0.399866 1.578547 1.112455 0.000000 0.000000 0.000000
0.399644 1.565618 1.095672 0.000000 0.000000 0.000000
0.401843 1.553777 1.048280 0.000000 0.000000 0.000000
0.401123 1.583513 1.087850 0.000000 0.000000 0.000000
0.430080 1.566270 1.071225 0.000000 0.000000 0.000000
0.404712 1.576902 1.095948 0.000000 0.000000 0.000000
0.425447 1.557248 1.066958 0.000000 0.000000 0.000000
0.401413 1.563077 1.095130 0.000000 0.000000 0.000000
0.406979 1.579413 1.093924 0.000000 0.000000 0.000000
0.405031 1.569085 1.093961 0.000000 0.000000 0.000000
0.403198 1.582991 1.084324 0.000000 0.000000 0.000000
0.403637 1.570933 1.101103 0.000000 0.000000 0.000000
0.412248 1.578630 1.088449 0.000000 0.000000 0.000000
0.401501 1.578251 1.104397 0.000000 0.000000 0.000000
0.410200 1.581749 1.067333 0.000000 0.000000 0.000000
0.403839 1.544806 1.074553 0.000000 0.000000 0.000000
0.407902 1.569812 1.066139 0.000000 0.000000 0.000000
0.401172 1.578031 1.075027 0.000000 0.000000 0.000000
0.424857 1.527147 1.051531 0.000000 0.000000 0.000000
0.421247 1.569425 1.083311 0.000000 0.000000 0.000000
0.417965 1.521738 1.071179 0.000000 0.000000 0.000000
0.408452 1.535416 1.059097 0.000000 0.000000 0.000000
0.399726 1.574777 1.107551 0.000000 0.000000 0.000000
0.398803 1.586719 1.115690 0.000000 0.000000 0.000000
0.397751 1.575275 1.095264 0.000000 0.000000 0.000000
0.416499 1.570403 1.087778 0.000000 0.000000 0.000000
0.404664 1.529724 1.053078 0.000000 0.000000 0.000000
0.396953 1.588518 1.117482 0.000000 0.000000 0.000000
0.399719 1.566943 1.078923 0.000000 0.000000 0.000000
0.404672 1.580684 1.078924 0.000000 0.000000 0.000000
0.399445 1.585653 1.100270 0.000000 0.000000 0.000000
0.403891 1.578989 1.086668 0.000000 0.000000 0.000000
0.408992 1.528322 1.072793 0.000000 0.000000 0.000000
0.399032 1.583760 1.101254 0.000000 0.000000 0.000000
0.412013 1.547245 1.071350 0.000000 0.000000 0.000000
0.403665 1.533731 1.050141 0.000000 0.000000 0.000000
0.397860 1.582445 1.117324 0.000000 0.000000 0.000000
0.398586 1.585298 1.109435 0.000000 0.000000 0.000000
0.394900 1.576454 1.112859 0.000000 0.000000 0.000000
0.425999 1.564988 1.079342 0.000000 0.000000 0.000000
0.407837 1.531959 1.049397 0.000000 0.000000 0.000000
0.435340 1.556923 1.056898 0.000000 0.000000 0.000000
0.409048 1.573272 1.077067 0.000000 0.000000 0.000000
0.402550 1.577948 1.073705 0.000000 0.000000 0.000000
0.405230 1.582894 1.083117 0.000000 0.000000 0.000000
0.398080 1.560739 1.086714 0.000000 0.000000 0.000000
0.403762 1.571877 1.066848 0.000000 0.000000 0.000000
0.406619 1.568778 1.084287 0.000000 0.000000 0.000000
0.432629 1.554213 1.061041 0.000000 0.000000 0.000000
0.399279 1.582461 1.107842 0.000000 0.000000 0.000000
0.398127 1.554495 1.058044 0.000000 0.000000 0.000000
0.399972 1.580430 1.117860 0.000000 0.000000 0.000000
0.395533 1.578151 1.112522 0.000000 0.000000 0.000000
0.409356 1.536989 1.058732 0.000000 0.000000 0.000000
0.406905 1.537678 1.057780 0.000000 0.000000 0.000000
0.397560 1.572530 1.101390 0.000000 0.000000 0.000000
0.425259 1.566984 1.059590 0.000000 0.000000 0.000000
0.401231 1.578404 1.084232 0.000000 0.000000 0.000000
0.425530 1.570122 1.069994 0.000000 0.000000 0.000000
0.400432 1.571969 1.098331 0.000000 0.000000 0.000000
0.425426 1.565419 1.068521 0.000000 0.000000 0.000000
0.393947 1.588212 1.118529 0.000000 0.000000 0.000000
0.408597 1.561150 1.097334 0.000000 0.000000 0.000000
0.399974 1.584599 1.108879 0.000000 0.000000 0.000000
0.439808 1.565632 1.069994 0.000000 0.000000 0.000000
0.400223 1.535122 1.077567 0.000000 0.000000 0.000000
0.400770 1.531602 1.075486 0.000000 0.000000 0.000000
0.425672 1.565468 1.068731 0.000000 0.000000 0.000000
0.435456 1.572700 1.071510 0.000000 0.000000 0.000000
0.400711 1.579728 1.114348 0.000000 0.000000 0.000000
0.408450 1.570900 1.067574 0.000000 0.000000 0.000000
0.395671 1.590181 1.119938 0.000000 0.000000 0.000000
0.397987 1.573392 1.101059 0.000000 0.000000 0.000000
0.397268 1.524458 1.076382 0.000000 0.000000 0.000000
0.406888 1.566088 1.065792 0.000000 0.000000 0.000000
0.436434 1.572958 1.066848 0.000000 0.000000 0.000000
0.398773 1.591217 1.106688 0.000000 0.000000 0.000000
0.399307 1.582339 1.096207 0.000000 0.000000 0.000000
0.402928 1.555172 1.075202 0.000000 0.000000 0.000000
0.431313 1.572293 1.073456 0.000000 0.000000 0.000000
0.403807 1.569510 1.066217 0.000000 0.000000 0.000000
0.434181 1.570054 1.067404 0.000000 0.000000 0.000000
0.407345 1.546511 1.078739 0.000000 0.000000 0.000000
0.422633 1.523039 1.065137 0.000000 0.000000 0.000000
0.431165 1.574843 1.068195 0.000000 0.000000 0.000000
0.396193 1.571809 1.065789 0.000000 0.000000 0.000000
0.399980 1.589602 1.105692 0.000000 0.000000 0.000000
0.396822 1.575046 1.082292 0.000000 0.000000 0.000000
0.429115 1.568121 1.075684 0.000000 0.000000 0.000000
0.433412 1.562807 1.056612 0.000000 0.000000 0.000000
0.433190 1.563959 1.065171 0.000000 0.000000 0.000000
0.394362 1.555784 1.066089 0.000000 0.000000 0.000000
0.395967 1.581557 1.117093 0.000000 0.000000 0.000000
0.430138 1.566605 1.075073 0.000000 0.000000 0.000000
0.421239 1.567697 1.080806 0.000000 0.000000 0.000000
0.396951 1.584039 1.091191 0.000000 0.000000 0.000000
0.423650 1.566952 1.076010 0.000000 0.000000 0.000000
0.396789 1.523965 1.052563 0.000000 0.000000 0.000000
0.409538 1.559962 1.066933 0.000000 0.000000 0.000000
0.402187 1.585930 1.105367 0.000000 0.000000 0.000000
0.402371 1.583345 1.103033 0.000000 0.000000 0.000000
0.397675 1.585241 1.102231 0.000000 0.000000 0.000000
0.434700 1.564300 1.080355 0.000000 0.000000 0.000000
0.417857 1.564115 1.071154 0.000000 0.000000 0.000000
0.404408 1.525463 1.045883 0.000000 0.000000 0.000000
0.438995 1.555327 1.070517 0.000000 0.000000 0.000000
0.414416 1.566631 1.079273 0.000000 0.000000 0.000000
0.438678 1.558254 1.067060 0.000000 0.000000 0.000000
0.428289 1.572776 1.071101 0.000000 0.000000 0.000000
0.406421 1.577941 1.065954 0.000000 0.000000 0.000000
0.412772 1.530250 1.070097 0.000000 0.000000 0.000000
0.401273 1.524007 1.052869 0.000000 0.000000 0.000000
0.407908 1.532870 1.041481 0.000000 0.000000 0.000000
0.437399 1.553496 1.057482 0.000000 0.000000 0.000000
0.406215 1.525660 1.043015 0.000000 0.000000 0.000000
0.395458 1.567836 1.089766 0.000000 0.000000 0.000000
0.399444 1.545103 1.077650 0.000000 0.000000 0.000000
0.415997 1.566298 1.089231 0.000000 0.000000 0.000000
0.439384 1.556031 1.064428 0.000000 0.000000 0.000000
0.403454 1.570087 1.084138 0.000000 0.000000 0.000000
0.398917 1.548585 1.069811 0.000000 0.000000 0.000000
0.403143 1.536567 1.061227 0.000000 0.000000 0.000000
0.406483 1.526653 1.047343 0.000000 0.000000 0.000000
0.410188 1.561329 1.068241 0.000000 0.000000 0.000000
0.398666 1.581209 1.113254 0.000000 0.000000 0.000000
0.406842 1.522904 1.062384 0.000000 0.000000 0.000000
0.408446 1.529022 1.078404 0.000000 0.000000 0.000000
0.398503 1.584043 1.104217 0.000000 0.000000 0.000000
0.423643 1.524938 1.063897 0.000000 0.000000 0.000000
0.399541 1.536623 1.069803 0.000000 0.000000 0.000000
0.400605 1.557598 1.061796 0.000000 0.000000 0.000000
0.404235 1.557876 1.061755 0.000000 0.000000 0.000000
0.401615 1.568961 1.066479 0.000000 0.000000 0.000000
0.433685 1.557117 1.073126 0.000000 0.000000 0.000000
0.405164 1.552612 1.054033 0.000000 0.000000 0.000000
0.410232 1.538570 1.073666 0.000000 0.000000 0.000000
0.407142 1.538059 1.068131 0.000000 0.000000 0.000000
0.408193 1.547886 1.054376 0.000000 0.000000 0.000000
0.406496 1.522799 1.034410 0.000000 0.000000 0.000000
0.405122 1.527366 1.042261 0.000000 0.000000 0.000000
0.400363 1.534622 1.055093 0.000000 0.000000 0.000000
0.401163 1.548838 1.051431 0.000000 0.000000 0.000000
0.393244 1.576578 1.114270 0.000000 0.000000 0.000000
0.404083 1.542267 1.061752 0.000000 0.000000 0.000000
0.407648 1.555629 1.055387 0.000000 0.000000 0.000000
0.407231 1.570229 1.088531 0.000000 0.000000 0.000000
0.395979 1.591280 1.118415 0.000000 0.000000 0.000000
0.397152 1.590366 1.115116 0.000000 0.000000 0.000000
0.404096 1.557637 1.058835 0.000000 0.000000 0.000000
0.395329 1.550804 1.052385 0.000000 0.000000 0.000000
0.432971 1.568657 1.059433 0.000000 0.000000 0.000000
0.406924 1.543205 1.063537 0.000000 0.000000 0.000000
0.402160 1.557165 1.074187 0.000000 0.000000 0.000000
0.402805 1.546791 1.059335 0.000000 0.000000 0.000000
0.404793 1.549096 1.064322 0.000000 0.000000 0.000000
0.398362 1.573978 1.108603 0.000000 0.000000 0.000000
0.399344 1.574940 1.104071 0.000000 0.000000 0.000000
0.396589 1.581129 1.080620 0.000000 0.000000 0.000000
0.399723 1.575471 1.103388 0.000000 0.000000 0.000000
0.403639 1.546322 1.053846 0.000000 0.000000 0.000000
0.397009 1.589889 1.119289 0.000000 0.000000 0.000000
0.403669 1.569857 1.086069 0.000000 0.000000 0.000000
0.400046 1.546770 1.060043 0.000000 0.000000 0.000000
0.407012 1.562811 1.077760 0.000000 0.000000 0.000000
0.400693 1.581232 1.118611 0.000000 0.000000 0.000000
0.401408 1.532216 1.054522 0.000000 0.000000 0.000000
0.405243 1.530611 1.046162 0.000000 0.000000 0.000000
0.405298 1.526900 1.043380 0.000000 0.000000 0.000000
0.400929 1.546958 1.053759 0.000000 0.000000 0.000000
0.397499 1.568832 1.099545 0.000000 0.000000 0.000000
0.417347 1.565502 1.083743 0.000000 0.000000 0.000000
0.399373 1.534262 1.059574 0.000000 0.000000 0.000000
0.398245 1.561902 1.092175 0.000000 0.000000 0.000000
0.405463 1.554576 1.064772 0.000000 0.000000 0.000000
0.400636 1.572555 1.107162 0.000000 0.000000 0.000000
0.405479 1.579387 1.083649 0.000000 0.000000 0.000000
0.400382 1.562660 1.090668 0.000000 0.000000 0.000000
0.407963 1.574774 1.093033 0.000000 0.000000 0.000000
0.400144 1.585407 1.101325 0.000000 0.000000 0.000000
0.394014 1.579347 1.114926 0.000000 0.000000 0.000000
0.399939 1.583757 1.117770 0.000000 0.000000 0.000000
0.394757 1.588078 1.112662 0.000000 0.000000 0.000000
0.430834 1.555490 1.061793 0.000000 0.000000 0.000000
0.395240 1.568964 1.105407 0.000000 0.000000 0.000000
0.405120 1.538422 1.060651 0.000000 0.000000 0.000000
0.418457 1.568321 1.087450 0.000000 0.000000 0.000000
0.400660 1.573440 1.106849 0.000000 0.000000 0.000000
0.395884 1.571431 1.106894 0.000000 0.000000 0.000000
0.399205 1.587400 1.103067 0.000000 0.000000 0.000000
0.398992 1.554137 1.077269 0.000000 0.000000 0.000000
0.399718 1.588458 1.104193 0.000000 0.000000 0.000000
0.439047 1.562789 1.062122 0.000000 0.000000 0.000000
0.404611 1.577650 1.080069 0.000000 0.000000 0.000000
0.400192 1.543767 1.051103 0.000000 0.000000 0.000000
0.402637 1.551656 1.055201 0.000000 0.000000 0.000000
0.395899 1.547075 1.047830 0.000000 0.000000 0.000000
0.398887 1.549881 1.054570 0.000000 0.000000 0.000000
0.398648 1.563639 1.062333 0.000000 0.000000 0.000000
0.401523 1.537498 1.054182 0.000000 0.000000 0.000000
0.395514 1.521323 1.068905 0.000000 0.000000 0.000000
0.402403 1.522376 1.060427 0.000000 0.000000 0.000000
0.403315 1.526871 1.056960 0.000000 0.000000 0.000000
0.405646 1.532844 1.056643 0.000000 0.000000 0.000000
0.401512 1.526524 1.058543 0.000000 0.000000 0.000000
0.398528 1.566532 1.097819 0.000000 0.000000 0.000000
0.402883 1.536260 1.052082 0.000000 0.000000 0.000000
0.401377 1.581435 1.074187 0.000000 0.000000 0.000000
0.403958 1.569810 1.067634 0.000000 0.000000 0.000000
0.402083 1.586093 1.100155 0.000000 0.000000 0.000000
0.404137 1.572183 1.058174 0.000000 0.000000 0.000000
0.400254 1.562208 1.065265 0.000000 0.000000 0.000000
0.401135 1.562014 1.065484 0.000000 0.000000 0.000000
0.398900 1.568545 1.066333 0.000000 0.000000 0.000000
0.398813 1.568302 1.071884 0.000000 0.000000 0.000000
0.400502 1.572922 1.062970 0.000000 0.000000 0.000000
0.400181 1.567125 1.074453 0.000000 0.000000 0.000000
0.404315 1.585998 1.086498 0.000000 0.000000 0.000000
0.405434 1.561903 1.098635 0.000000 0.000000 0.000000
0.401345 1.580118 1.079694 0.000000 0.000000 0.000000
0.401055 1.585019 1.086055 0.000000 0.000000 0.000000
0.400560 1.586254 1.090271 0.000000 0.000000 0.000000
0.405239 1.572585 1.107698 0.000000 0.000000 0.000000
0.400499 1.527866 1.070351 0.000000 0.000000 0.000000
0.399351 1.581135 1.118645 0.000000 0.000000 0.000000
0.397457 1.591594 1.118225 0.000000 0.000000 0.000000
0.402368 1.535866 1.079793 0.000000 0.000000 0.000000
0.402712 1.550202 1.060578 0.000000 0.000000 0.000000
0.398991 1.535083 1.078953 0.000000 0.000000 0.000000
0.402481 1.540712 1.054096 0.000000 0.000000 0.000000
0.398054 1.585806 1.112433 0.000000 0.000000 0.000000
0.401112 1.585599 1.093786 0.000000 0.000000 0.000000
0.406588 1.526472 1.051236 0.000000 0.000000 0.000000
0.434378 1.553941 1.057409 0.000000 0.000000 0.000000
0.403198 1.520178 1.042677 0.000000 0.000000 0.000000
0.433467 1.558093 1.060436 0.000000 0.000000 0.000000
0.405857 1.521187 1.038786 0.000000 0.000000 0.000000
0.401527 1.581373 1.106037 0.000000 0.000000 0.000000
0.427342 1.556175 1.064139 0.000000 0.000000 0.000000
0.396668 1.573808 1.104571 0.000000 0.000000 0.000000
0.393817 1.582362 1.117883 0.000000 0.000000 0.000000
0.401700 1.582963 1.084734 0.000000 0.000000 0.000000
0.396352 1.588467 1.111523 0.000000 0.000000 0.000000
0.434448 1.555484 1.057272 0.000000 0.000000 0.000000
0.406219 1.525306 1.051078 0.000000 0.000000 0.000000
0.397166 1.595559 1.113803 0.000000 0.000000 0.000000
0.395996 1.549317 1.063561 0.000000 0.000000 0.000000
0.399442 1.562499 1.064813 0.000000 0.000000 0.000000
0.391010 1.586784 1.117090 0.000000 0.000000 0.000000
0.404085 1.540634 1.054567 0.000000 0.000000 0.000000
0.398650 1.554945 1.071078 0.000000 0.000000 0.000000
0.397972 1.570027 1.082410 0.000000 0.000000 0.000000
0.406569 1.531379 1.052201 0.000000 0.000000 0.000000
0.395945 1.569969 1.075876 0.000000 0.000000 0.000000
0.395473 1.569793 1.080644 0.000000 0.000000 0.000000
0.402849 1.546246 1.078771 0.000000 0.000000 0.000000
0.400548 1.575017 1.075768 0.000000 0.000000 0.000000
0.408029 1.574446 1.077676 0.000000 0.000000 0.000000
0.405793 1.572069 1.064972 0.000000 0.000000 0.000000
0.403593 1.564549 1.063164 0.000000 0.000000 0.000000
0.403171 1.562323 1.063191 0.000000 0.000000 0.000000
0.402120 1.556584 1.058542 0.000000 0.000000 0.000000
0.393378 1.527820 1.073856 0.000000 0.000000 0.000000
0.398400 1.566630 1.064640 0.000000 0.000000 0.000000
0.438957 1.559092 1.055940 0.000000 0.000000 0.000000
0.401772 1.550110 1.063798 0.000000 0.000000 0.000000
0.400059 1.568600 1.062900 0.000000 0.000000 0.000000
0.428889 1.562830 1.074819 0.000000 0.000000 0.000000
0.401163 1.562867 1.093972 0.000000 0.000000 0.000000
0.439283 1.559918 1.056985 0.000000 0.000000 0.000000
0.397236 1.550758 1.065439 0.000000 0.000000 0.000000
0.425912 1.523854 1.060298 0.000000 0.000000 0.000000
0.397753 1.550201 1.057076 0.000000 0.000000 0.000000
0.406696 1.552123 1.048233 0.000000 0.000000 0.000000
0.393288 1.562254 1.081959 0.000000 0.000000 0.000000
0.400423 1.584776 1.079776 0.000000 0.000000 0.000000
0.403966 1.580164 1.093791 0.000000 0.000000 0.000000
0.397517 1.563101 1.077618 0.000000 0.000000 0.000000
0.397924 1.558073 1.095292 0.000000 0.000000 0.000000
0.405831 1.569795 1.087829 0.000000 0.000000 0.000000
0.426701 1.527699 1.061794 0.000000 0.000000 0.000000
0.411310 1.523412 1.074111 0.000000 0.000000 0.000000
0.404010 1.586131 1.083831 0.000000 0.000000 0.000000
0.392473 1.559001 1.071144 0.000000 0.000000 0.000000
0.398787 1.554070 1.091143 0.000000 0.000000 0.000000
0.409005 1.572192 1.083333 0.000000 0.000000 0.000000
0.406678 1.567648 1.096020 0.000000 0.000000 0.000000
0.408740 1.524538 1.040971 0.000000 0.000000 0.000000
0.402971 1.582549 1.082332 0.000000 0.000000 0.000000
0.412302 1.561843 1.066456 0.000000 0.000000 0.000000
0.398592 1.575759 1.115051 0.000000 0.000000 0.000000
0.406775 1.528186 1.043660 0.000000 0.000000 0.000000
0.410061 1.532653 1.050252 0.000000 0.000000 0.000000
0.409033 1.558923 1.063338 0.000000 0.000000 0.000000
0.402968 1.532006 1.076379 0.000000 0.000000 0.000000
0.407573 1.525645 1.044747 0.000000 0.000000 0.000000
0.399084 1.565283 1.084964 0.000000 0.000000 0.000000
0.399948 1.546908 1.049826 0.000000 0.000000 0.000000
0.404328 1.543483 1.079362 0.000000 0.000000 0.000000
0.397163 1.575720 1.111329 0.000000 0.000000 0.000000
0.422776 1.561960 1.088828 0.000000 0.000000 0.000000
0.399520 1.559776 1.084379 0.000000 0.000000 0.000000
0.433125 1.568216 1.070220 0.000000 0.000000 0.000000
0.438781 1.572721 1.066145 0.000000 0.000000 0.000000
0.397505 1.557894 1.081723 0.000000 0.000000 0.000000
0.437658 1.569080 1.069921 0.000000 0.000000 0.000000
0.401939 1.572928 1.106293 0.000000 0.000000 0.000000
0.393966 1.541951 1.055617 0.000000 0.000000 0.000000
0.394057 1.543644 1.067059 0.000000 0.000000 0.000000
0.401876 1.565268 1.091489 0.000000 0.000000 0.000000
0.394050 1.584694 1.117557 0.000000 0.000000 0.000000
0.433323 1.520063 1.054503 0.000000 0.000000 0.000000
0.398893 1.586962 1.119951 0.000000 0.000000 0.000000
0.399517 1.580178 1.118863 0.000000 0.000000 0.000000
0.417389 1.561485 1.095303 0.000000 0.000000 0.000000
0.398220 1.590802 1.103922 0.000000 0.000000 0.000000
0.399569 1.572346 1.106657 0.000000 0.000000 0.000000
0.405926 1.581869 1.072116 0.000000 0.000000 0.000000
0.410219 1.556531 1.076071 0.000000 0.000000 0.000000
0.398909 1.587315 1.105521 0.000000 0.000000 0.000000
0.410966 1.552377 1.075665 0.000000 0.000000 0.000000
0.397788 1.586803 1.102829 0.000000 0.000000 0.000000
0.396337 1.584336 1.111215 0.000000 0.000000 0.000000
0.398239 1.571775 1.103431 0.000000 0.000000 0.000000
0.394827 1.574523 1.110121 0.000000 0.000000 0.000000
0.400971 1.576191 1.110016 0.000000 0.000000 0.000000
0.398769 1.583229 1.118117 0.000000 0.000000 0.000000
0.402972 1.575699 1.068123 0.000000 0.000000 0.000000
0.402105 1.540769 1.051826 0.000000 0.000000 0.000000
0.413766 1.525264 1.077384 0.000000 0.000000 0.000000
0.402348 1.579186 1.100060 0.000000 0.000000 0.000000
0.393504 1.548460 1.054295 0.000000 0.000000 0.000000
0.399346 1.531205 1.077405 0.000000 0.000000 0.000000
0.396630 1.579780 1.111268 0.000000 0.000000 0.000000
0.404487 1.569159 1.099412 0.000000 0.000000 0.000000
0.435214 1.571641 1.067893 0.000000 0.000000 0.000000
0.429023 1.567009 1.076250 0.000000 0.000000 0.000000
0.396511 1.583041 1.110458 0.000000 0.000000 0.000000
0.400129 1.585140 1.091934 0.000000 0.000000 0.000000
0.403193 1.583141 1.081721 0.000000 0.000000 0.000000
0.406734 1.580109 1.092301 0.000000 0.000000 0.000000
0.409405 1.520669 1.069076 0.000000 0.000000 0.000000
0.397990 1.531593 1.075023 0.000000 0.000000 0.000000
0.428426 1.529149 1.063416 0.000000 0.000000 0.000000
0.397634 1.589271 1.118837 0.000000 0.000000 0.000000
0.406375 1.583161 1.094280 0.000000 0.000000 0.000000
0.403382 1.527947 1.075441 0.000000 0.000000 0.000000
0.398674 1.589148 1.118328 0.000000 0.000000 0.000000
0.403762 1.540935 1.060862 0.000000 0.000000 0.000000
0.429062 1.522708 1.058488 0.000000 0.000000 0.000000
0.406025 1.530106 1.046575 0.000000 0.000000 0.000000
0.406761 1.524354 1.040162 0.000000 0.000000 0.000000
0.407593 1.529409 1.039856 0.000000 0.000000 0.000000
0.397820 1.586645 1.106807 0.000000 0.000000 0.000000
0.400116 1.523652 1.049888 0.000000 0.000000 0.000000
0.407096 1.520870 1.039174 0.000000 0.000000 0.000000
0.406568 1.552633 1.062068 0.000000 0.000000 0.000000
0.403196 1.546112 1.048920 0.000000 0.000000 0.000000
0.398857 1.586053 1.103816 0.000000 0.000000 0.000000
0.405022 1.550480 1.051188 0.000000 0.000000 0.000000
0.396900 1.542852 1.050840 0.000000 0.000000 0.000000
0.397424 1.589163 1.119341 0.000000 0.000000 0.000000
0.403912 1.548724 1.044503 0.000000 0.000000 0.000000
0.407468 1.527300 1.074968 0.000000 0.000000 0.000000
0.404744 1.584801 1.090238 0.000000 0.000000 0.000000
0.402485 1.548064 1.049205 0.000000 0.000000 0.000000
0.396252 1.540516 1.051311 0.000000 0.000000 0.000000
0.397833 1.573316 1.103195 0.000000 0.000000 0.000000
0.416945 1.524151 1.077515 0.000000 0.000000 0.000000
0.426114 1.561849 1.079027 0.000000 0.000000 0.000000
0.432472 1.561614 1.084406 0.000000 0.000000 0.000000
0.411213 1.577361 1.086372 0.000000 0.000000 0.000000
0.432880 1.558236 1.067784 0.000000 0.000000 0.000000
0.408163 1.535791 1.078690 0.000000 0.000000 0.000000
0.424424 1.557171 1.071614 0.000000 0.000000 0.000000
0.426745 1.560252 1.072868 0.000000 0.000000 0.000000
0.429684 1.558557 1.076491 0.000000 0.000000 0.000000
0.422311 1.564480 1.083666 0.000000 0.000000 0.000000
0.432230 1.560188 1.077754 0.000000 0.000000 0.000000
0.395286 1.579646 1.115169 0.000000 0.000000 0.000000
0.405643 1.533798 1.051558 0.000000 0.000000 0.000000
0.405486 1.535174 1.047719 0.000000 0.000000 0.000000
0.398549 1.551207 1.070099 0.000000 0.000000 0.000000
0.403980 1.573876 1.116162 0.000000 0.000000 0.000000
0.391864 1.553202 1.073628 0.000000 0.000000 0.000000
0.390195 1.592088 1.118577 0.000000 0.000000 0.000000
0.400972 1.576640 1.116623 0.000000 0.000000 0.000000
0.400828 1.585279 1.081667 0.000000 0.000000 0.000000
0.405168 1.566280 1.102715 0.000000 0.000000 0.000000
0.402288 1.574931 1.111351 0.000000 0.000000 0.000000
0.393109 1.549758 1.060511 0.000000 0.000000 0.000000
0.404907 1.537463 1.049616 0.000000 0.000000 0.000000
0.406636 1.588259 1.081275 0.000000 0.000000 0.000000
0.400938 1.546738 1.057860 0.000000 0.000000 0.000000
0.399317 1.588644 1.103556 0.000000 0.000000 0.000000
0.401972 1.570592 1.111887 0.000000 0.000000 0.000000
0.406485 1.522439 1.040544 0.000000 0.000000 0.000000
0.405609 1.529259 1.043043 0.000000 0.000000 0.000000
0.402196 1.543339 1.046413 0.000000 0.000000 0.000000
0.400967 1.540733 1.050209 0.000000 0.000000 0.000000
0.404071 1.546075 1.054329 0.000000 0.000000 0.000000
0.415022 1.540262 1.059717 0.000000 0.000000 0.000000
0.405548 1.544913 1.053288 0.000000 0.000000 0.000000
0.418467 1.527125 1.067448 0.000000 0.000000 0.000000
0.410004 1.541625 1.057131 0.000000 0.000000 0.000000
0.405176 1.534850 1.048585 0.000000 0.000000 0.000000
0.397862 1.566761 1.097416 0.000000 0.000000 0.000000
0.396696 1.576409 1.106365 0.000000 0.000000 0.000000
0.395488 1.583242 1.117334 0.000000 0.000000 0.000000
0.398707 1.590970 1.091091 0.000000 0.000000 0.000000
0.401193 1.573821 1.108135 0.000000 0.000000 0.000000
0.391776 1.576676 1.104330 0.000000 0.000000 0.000000
0.401213 1.572731 1.113097 0.000000 0.000000 0.000000
0.401684 1.521600 1.060076 0.000000 0.000000 0.000000
0.393487 1.568380 1.111282 0.000000 0.000000 0.000000
0.400826 1.583164 1.098064 0.000000 0.000000 0.000000
0.398487 1.570992 1.087090 0.000000 0.000000 0.000000
0.399720 1.588183 1.102107 0.000000 0.000000 0.000000
0.394448 1.589143 1.109365 0.000000 0.000000 0.000000
0.401664 1.584217 1.096170 0.000000 0.000000 0.000000
0.433457 1.560709 1.078899 0.000000 0.000000 0.000000
0.396284 1.591838 1.116168 0.000000 0.000000 0.000000
0.398480 1.588987 1.108894 0.000000 0.000000 0.000000
0.429659 1.520699 1.057357 0.000000 0.000000 0.000000
0.400213 1.582327 1.098908 0.000000 0.000000 0.000000
0.399582 1.585404 1.105767 0.000000 0.000000 0.000000
0.399895 1.589421 1.111758 0.000000 0.000000 0.000000
0.395198 1.586943 1.109269 0.000000 0.000000 0.000000
0.403290 1.582726 1.095203 0.000000 0.000000 0.000000
0.400235 1.589117 1.097438 0.000000 0.000000 0.000000
0.413556 1.535854 1.074256 0.000000 0.000000 0.000000
0.397507 1.539655 1.069991 0.000000 0.000000 0.000000
0.417446 1.565719 1.078430 0.000000 0.000000 0.000000
0.399473 1.587008 1.096533 0.000000 0.000000 0.000000
0.417877 1.563179 1.081905 0.000000 0.000000 0.000000
0.397669 1.588447 1.117199 0.000000 0.000000 0.000000
0.414196 1.560609 1.086967 0.000000 0.000000 0.000000
0.425731 1.564583 1.080624 0.000000 0.000000 0.000000
0.420948 1.562550 1.082107 0.000000 0.000000 0.000000
0.416437 1.562946 1.080428 0.000000 0.000000 0.000000
0.404235 1.587912 1.086497 0.000000 0.000000 0.000000
0.400661 1.583604 1.104677 0.000000 0.000000 0.000000
0.401578 1.583136 1.078734 0.000000 0.000000 0.000000
0.401049 1.577236 1.102170 0.000000 0.000000 0.000000
0.394277 1.592108 1.113858 0.000000 0.000000 0.000000
0.398418 1.575097 1.113526 0.000000 0.000000 0.000000
0.398682 1.574511 1.107937 0.000000 0.000000 0.000000
0.399149 1.576733 1.102870 0.000000 0.000000 0.000000
0.400730 1.579287 1.111213 0.000000 0.000000 0.000000
0.398550 1.590979 1.097932 0.000000 0.000000 0.000000
0.398664 1.578139 1.110664 0.000000 0.000000 0.000000
0.401360 1.579705 1.101896 0.000000 0.000000 0.000000
0.400267 1.569256 1.109491 0.000000 0.000000 0.000000
0.399376 1.575549 1.114134 0.000000 0.000000 0.000000
0.402430 1.572277 1.113600 0.000000 0.000000 0.000000
0.401300 1.577179 1.114599 0.000000 0.000000 0.000000
0.402601 1.568178 1.112835 0.000000 0.000000 0.000000
0.395377 1.577412 1.111605 0.000000 0.000000 0.000000
0.394553 1.577552 1.114021 0.000000 0.000000 0.000000
0.399147 1.582566 1.116380 0.000000 0.000000 0.000000
0.397171 1.574898 1.111451 0.000000 0.000000 0.000000
0.402372 1.566034 1.107002 0.000000 0.000000 0.000000
0.402078 1.580729 1.099113 0.000000 0.000000 0.000000
0.401454 1.569356 1.106660 0.000000 0.000000 0.000000
0.400681 1.573384 1.110637 0.000000 0.000000 0.000000
0.427708 1.520757 1.057519 0.000000 0.000000 0.000000
0.398235 1.576640 1.112964 0.000000 0.000000 0.000000
0.398323 1.575928 1.110888 0.000000 0.000000 0.000000
0.403122 1.569287 1.100878 0.000000 0.000000 0.000000
0.403309 1.570233 1.110052 0.000000 0.000000 0.000000
