ply
format ascii 1.0
comment VCGLIB generated
obj_info Generated by SPFormer!
element vertex 572
property float x
property float y
property float z
property float nx
property float ny
property float nz
end_header
0.420717 1.556812 1.073835 0.000000 0.000000 0.000000
0.404679 1.521358 1.053094 0.000000 0.000000 0.000000
0.408794 1.519050 1.059533 0.000000 0.000000 0.000000
0.404771 1.501144 1.043185 0.000000 0.000000 0.000000
0.408937 1.516761 1.060580 0.000000 0.000000 0.000000
0.401629 1.484600 1.044054 0.000000 0.000000 0.000000
0.439311 1.559146 1.071182 0.000000 0.000000 0.000000
0.406015 1.528208 1.064674 0.000000 0.000000 0.000000
0.403028 1.499128 1.052788 0.000000 0.000000 0.000000
0.411792 1.485630 1.052299 0.000000 0.000000 0.000000
0.405372 1.523425 1.067067 0.000000 0.000000 0.000000
0.410592 1.501205 1.061251 0.000000 0.000000 0.000000
0.398663 1.517657 1.064777 0.000000 0.000000 0.000000
0.407330 1.555603 1.079730 0.000000 0.000000 0.000000
0.406862 1.502308 1.060391 0.000000 0.000000 0.000000
0.415889 1.489145 1.054606 0.000000 0.000000 0.000000
0.412152 1.491067 1.054160 0.000000 0.000000 0.000000
0.415736 1.480363 1.052522 0.000000 0.000000 0.000000
0.405876 1.481974 1.053893 0.000000 0.000000 0.000000
0.400074 1.550607 1.062010 0.000000 0.000000 0.000000
0.402540 1.516312 1.067114 0.000000 0.000000 0.000000
0.419310 1.532979 1.066214 0.000000 0.000000 0.000000
0.414616 1.491660 1.057141 0.000000 0.000000 0.000000
0.407815 1.537719 1.079622 0.000000 0.000000 0.000000
0.401105 1.491110 1.045623 0.000000 0.000000 0.000000
0.399380 1.559587 1.063292 0.000000 0.000000 0.000000
0.399983 1.489805 1.043904 0.000000 0.000000 0.000000
0.417654 1.491440 1.057620 0.000000 0.000000 0.000000
0.399909 1.489199 1.052613 0.000000 0.000000 0.000000
0.416238 1.488631 1.051317 0.000000 0.000000 0.000000
0.433054 1.497056 1.063248 0.000000 0.000000 0.000000
0.399567 1.481101 1.052216 0.000000 0.000000 0.000000
0.431034 1.557210 1.067037 0.000000 0.000000 0.000000
0.408511 1.489821 1.056320 0.000000 0.000000 0.000000
0.410067 1.559298 1.063107 0.000000 0.000000 0.000000
0.417820 1.501988 1.063329 0.000000 0.000000 0.000000
0.395844 1.534767 1.063589 0.000000 0.000000 0.000000
0.411586 1.504979 1.065612 0.000000 0.000000 0.000000
0.414062 1.536732 1.066691 0.000000 0.000000 0.000000
0.400009 1.554347 1.058756 0.000000 0.000000 0.000000
0.407651 1.531425 1.052066 0.000000 0.000000 0.000000
0.408142 1.526394 1.058618 0.000000 0.000000 0.000000
0.402653 1.509561 1.037903 0.000000 0.000000 0.000000
0.400201 1.498909 1.046430 0.000000 0.000000 0.000000
0.416188 1.493623 1.052523 0.000000 0.000000 0.000000
0.406883 1.495921 1.048277 0.000000 0.000000 0.000000
0.408364 1.487993 1.044829 0.000000 0.000000 0.000000
0.400523 1.526655 1.052785 0.000000 0.000000 0.000000
0.401818 1.526107 1.051680 0.000000 0.000000 0.000000
0.423027 1.491471 1.077577 0.000000 0.000000 0.000000
0.403018 1.535238 1.057103 0.000000 0.000000 0.000000
0.405283 1.524645 1.046498 0.000000 0.000000 0.000000
0.426770 1.482766 1.077890 0.000000 0.000000 0.000000
0.419833 1.525405 1.055419 0.000000 0.000000 0.000000
0.399677 1.498030 1.052011 0.000000 0.000000 0.000000
0.438920 1.556003 1.056381 0.000000 0.000000 0.000000
0.405181 1.488684 1.055349 0.000000 0.000000 0.000000
0.402269 1.509962 1.051520 0.000000 0.000000 0.000000
0.398308 1.487140 1.041579 0.000000 0.000000 0.000000
0.399969 1.552926 1.055980 0.000000 0.000000 0.000000
0.403299 1.527808 1.070413 0.000000 0.000000 0.000000
0.421011 1.503647 1.058872 0.000000 0.000000 0.000000
0.405880 1.539302 1.058993 0.000000 0.000000 0.000000
0.404341 1.482378 1.053320 0.000000 0.000000 0.000000
0.409759 1.526668 1.074986 0.000000 0.000000 0.000000
0.421999 1.485635 1.077305 0.000000 0.000000 0.000000
0.400026 1.502324 1.050016 0.000000 0.000000 0.000000
0.405876 1.552630 1.057600 0.000000 0.000000 0.000000
0.407033 1.514225 1.066766 0.000000 0.000000 0.000000
0.411754 1.557060 1.068656 0.000000 0.000000 0.000000
0.406123 1.548416 1.067357 0.000000 0.000000 0.000000
0.417072 1.557297 1.062567 0.000000 0.000000 0.000000
0.415269 1.507522 1.069197 0.000000 0.000000 0.000000
0.397813 1.483311 1.053747 0.000000 0.000000 0.000000
0.409628 1.553637 1.054812 0.000000 0.000000 0.000000
0.408479 1.526590 1.051837 0.000000 0.000000 0.000000
0.407914 1.548179 1.074543 0.000000 0.000000 0.000000
0.411554 1.534309 1.065287 0.000000 0.000000 0.000000
0.408668 1.490797 1.051366 0.000000 0.000000 0.000000
0.407822 1.518091 1.064445 0.000000 0.000000 0.000000
0.411818 1.508154 1.056305 0.000000 0.000000 0.000000
0.413484 1.510198 1.062677 0.000000 0.000000 0.000000
0.424188 1.493068 1.063537 0.000000 0.000000 0.000000
0.426832 1.506218 1.054266 0.000000 0.000000 0.000000
0.415674 1.482027 1.052497 0.000000 0.000000 0.000000
0.405191 1.536770 1.051709 0.000000 0.000000 0.000000
0.402796 1.499154 1.036868 0.000000 0.000000 0.000000
0.433210 1.554495 1.058754 0.000000 0.000000 0.000000
0.408752 1.544933 1.079247 0.000000 0.000000 0.000000
0.414778 1.494600 1.059867 0.000000 0.000000 0.000000
0.404062 1.511097 1.068165 0.000000 0.000000 0.000000
0.420847 1.488136 1.057192 0.000000 0.000000 0.000000
0.400102 1.485474 1.051146 0.000000 0.000000 0.000000
0.404092 1.509112 1.047618 0.000000 0.000000 0.000000
0.429107 1.558411 1.064861 0.000000 0.000000 0.000000
0.413870 1.549852 1.065624 0.000000 0.000000 0.000000
0.424429 1.526955 1.062622 0.000000 0.000000 0.000000
0.416105 1.524988 1.053169 0.000000 0.000000 0.000000
0.428232 1.482880 1.078356 0.000000 0.000000 0.000000
0.403772 1.504923 1.039961 0.000000 0.000000 0.000000
0.427060 1.483466 1.071263 0.000000 0.000000 0.000000
0.405486 1.530312 1.049406 0.000000 0.000000 0.000000
0.435200 1.554472 1.063179 0.000000 0.000000 0.000000
0.414014 1.486497 1.051162 0.000000 0.000000 0.000000
0.413805 1.523827 1.056316 0.000000 0.000000 0.000000
0.404279 1.535765 1.056490 0.000000 0.000000 0.000000
0.409975 1.516412 1.062467 0.000000 0.000000 0.000000
0.416212 1.520949 1.062480 0.000000 0.000000 0.000000
0.408029 1.516938 1.052231 0.000000 0.000000 0.000000
0.425623 1.495346 1.057099 0.000000 0.000000 0.000000
0.416272 1.488172 1.057355 0.000000 0.000000 0.000000
0.424015 1.483523 1.078036 0.000000 0.000000 0.000000
0.397624 1.509806 1.058186 0.000000 0.000000 0.000000
0.401843 1.553777 1.048280 0.000000 0.000000 0.000000
0.402072 1.496629 1.038978 0.000000 0.000000 0.000000
0.398586 1.477421 1.050924 0.000000 0.000000 0.000000
0.424348 1.494050 1.053828 0.000000 0.000000 0.000000
0.425447 1.557248 1.066958 0.000000 0.000000 0.000000
0.431722 1.490560 1.076869 0.000000 0.000000 0.000000
0.417707 1.506061 1.048931 0.000000 0.000000 0.000000
0.425052 1.503096 1.055733 0.000000 0.000000 0.000000
0.404761 1.508664 1.047231 0.000000 0.000000 0.000000
0.419767 1.493265 1.051925 0.000000 0.000000 0.000000
0.403839 1.544806 1.074553 0.000000 0.000000 0.000000
0.423798 1.497746 1.057185 0.000000 0.000000 0.000000
0.418788 1.517852 1.068893 0.000000 0.000000 0.000000
0.420328 1.491510 1.052823 0.000000 0.000000 0.000000
0.424857 1.527147 1.051531 0.000000 0.000000 0.000000
0.417965 1.521738 1.071179 0.000000 0.000000 0.000000
0.408452 1.535416 1.059097 0.000000 0.000000 0.000000
0.417588 1.494038 1.061720 0.000000 0.000000 0.000000
0.424163 1.484443 1.078532 0.000000 0.000000 0.000000
0.405387 1.496728 1.056979 0.000000 0.000000 0.000000
0.424443 1.488001 1.072107 0.000000 0.000000 0.000000
0.424995 1.490033 1.077581 0.000000 0.000000 0.000000
0.404664 1.529724 1.053078 0.000000 0.000000 0.000000
0.405363 1.509610 1.053021 0.000000 0.000000 0.000000
0.420547 1.509145 1.077621 0.000000 0.000000 0.000000
0.421397 1.485895 1.051697 0.000000 0.000000 0.000000
0.408992 1.528322 1.072793 0.000000 0.000000 0.000000
0.417214 1.507936 1.066167 0.000000 0.000000 0.000000
0.412013 1.547245 1.071350 0.000000 0.000000 0.000000
0.403665 1.533731 1.050141 0.000000 0.000000 0.000000
0.402458 1.517632 1.061007 0.000000 0.000000 0.000000
0.420252 1.483997 1.062607 0.000000 0.000000 0.000000
0.411785 1.519045 1.074070 0.000000 0.000000 0.000000
0.402983 1.495079 1.058468 0.000000 0.000000 0.000000
0.430088 1.514560 1.058484 0.000000 0.000000 0.000000
0.425041 1.488389 1.073976 0.000000 0.000000 0.000000
0.409141 1.502429 1.050659 0.000000 0.000000 0.000000
0.407837 1.531959 1.049397 0.000000 0.000000 0.000000
0.404988 1.504290 1.043122 0.000000 0.000000 0.000000
0.435340 1.556923 1.056898 0.000000 0.000000 0.000000
0.406680 1.492832 1.036252 0.000000 0.000000 0.000000
0.427667 1.485824 1.074301 0.000000 0.000000 0.000000
0.419503 1.485530 1.071600 0.000000 0.000000 0.000000
0.403534 1.509306 1.058102 0.000000 0.000000 0.000000
0.432629 1.554213 1.061041 0.000000 0.000000 0.000000
0.422834 1.483761 1.049826 0.000000 0.000000 0.000000
0.425968 1.511879 1.059310 0.000000 0.000000 0.000000
0.418561 1.484654 1.078036 0.000000 0.000000 0.000000
0.411756 1.486297 1.050252 0.000000 0.000000 0.000000
0.408141 1.486353 1.054404 0.000000 0.000000 0.000000
0.401814 1.484870 1.051009 0.000000 0.000000 0.000000
0.398127 1.554495 1.058044 0.000000 0.000000 0.000000
0.424496 1.492499 1.075297 0.000000 0.000000 0.000000
0.409163 1.480348 1.051817 0.000000 0.000000 0.000000
0.409356 1.536989 1.058732 0.000000 0.000000 0.000000
0.406905 1.537678 1.057780 0.000000 0.000000 0.000000
0.415293 1.483178 1.052190 0.000000 0.000000 0.000000
0.402148 1.506187 1.040124 0.000000 0.000000 0.000000
0.403354 1.500001 1.046186 0.000000 0.000000 0.000000
0.402138 1.495875 1.044418 0.000000 0.000000 0.000000
0.428752 1.489475 1.068322 0.000000 0.000000 0.000000
0.400049 1.481418 1.055342 0.000000 0.000000 0.000000
0.423459 1.484320 1.077197 0.000000 0.000000 0.000000
0.406168 1.490209 1.050957 0.000000 0.000000 0.000000
0.405522 1.485022 1.053545 0.000000 0.000000 0.000000
0.415987 1.488112 1.053589 0.000000 0.000000 0.000000
0.400223 1.535122 1.077567 0.000000 0.000000 0.000000
0.400770 1.531602 1.075486 0.000000 0.000000 0.000000
0.422152 1.480613 1.048135 0.000000 0.000000 0.000000
0.425329 1.488711 1.053737 0.000000 0.000000 0.000000
0.410464 1.492421 1.057642 0.000000 0.000000 0.000000
0.402998 1.481300 1.056365 0.000000 0.000000 0.000000
0.403004 1.508963 1.051929 0.000000 0.000000 0.000000
0.414457 1.504460 1.065468 0.000000 0.000000 0.000000
0.397268 1.524458 1.076382 0.000000 0.000000 0.000000
0.426657 1.515162 1.060053 0.000000 0.000000 0.000000
0.402928 1.555172 1.075202 0.000000 0.000000 0.000000
0.416398 1.486386 1.050112 0.000000 0.000000 0.000000
0.407345 1.546511 1.078739 0.000000 0.000000 0.000000
0.405002 1.488135 1.049465 0.000000 0.000000 0.000000
0.422633 1.523039 1.065137 0.000000 0.000000 0.000000
0.428873 1.498581 1.051707 0.000000 0.000000 0.000000
0.431451 1.503040 1.075804 0.000000 0.000000 0.000000
0.425602 1.482692 1.073506 0.000000 0.000000 0.000000
0.429996 1.481815 1.073001 0.000000 0.000000 0.000000
0.394362 1.555784 1.066089 0.000000 0.000000 0.000000
0.426074 1.485155 1.050540 0.000000 0.000000 0.000000
0.418247 1.517074 1.070925 0.000000 0.000000 0.000000
0.402158 1.495269 1.042869 0.000000 0.000000 0.000000
0.396789 1.523965 1.052563 0.000000 0.000000 0.000000
0.409538 1.559962 1.066933 0.000000 0.000000 0.000000
0.420200 1.514970 1.070825 0.000000 0.000000 0.000000
0.413691 1.510986 1.069333 0.000000 0.000000 0.000000
0.430283 1.480613 1.075640 0.000000 0.000000 0.000000
0.404408 1.525463 1.045883 0.000000 0.000000 0.000000
0.438995 1.555327 1.070517 0.000000 0.000000 0.000000
0.438678 1.558254 1.067060 0.000000 0.000000 0.000000
0.405923 1.508764 1.042020 0.000000 0.000000 0.000000
0.400891 1.494515 1.047994 0.000000 0.000000 0.000000
0.422719 1.516231 1.065138 0.000000 0.000000 0.000000
0.425759 1.509606 1.057088 0.000000 0.000000 0.000000
0.425931 1.483357 1.049171 0.000000 0.000000 0.000000
0.402681 1.508849 1.043462 0.000000 0.000000 0.000000
0.412772 1.530250 1.070097 0.000000 0.000000 0.000000
0.401273 1.524007 1.052869 0.000000 0.000000 0.000000
0.431685 1.505925 1.053663 0.000000 0.000000 0.000000
0.407908 1.532870 1.041481 0.000000 0.000000 0.000000
0.416721 1.497257 1.067074 0.000000 0.000000 0.000000
0.437399 1.553496 1.057482 0.000000 0.000000 0.000000
0.422101 1.504439 1.073459 0.000000 0.000000 0.000000
0.426543 1.491658 1.053921 0.000000 0.000000 0.000000
0.406215 1.525660 1.043015 0.000000 0.000000 0.000000
0.428648 1.493078 1.077712 0.000000 0.000000 0.000000
0.402657 1.506808 1.047676 0.000000 0.000000 0.000000
0.421906 1.495846 1.072099 0.000000 0.000000 0.000000
0.403660 1.490410 1.044293 0.000000 0.000000 0.000000
0.400714 1.518756 1.057919 0.000000 0.000000 0.000000
0.417686 1.516017 1.066126 0.000000 0.000000 0.000000
0.427808 1.515355 1.059171 0.000000 0.000000 0.000000
0.399444 1.545103 1.077650 0.000000 0.000000 0.000000
0.404285 1.515323 1.038004 0.000000 0.000000 0.000000
0.439384 1.556031 1.064428 0.000000 0.000000 0.000000
0.419632 1.488543 1.068068 0.000000 0.000000 0.000000
0.398917 1.548585 1.069811 0.000000 0.000000 0.000000
0.421226 1.504760 1.078198 0.000000 0.000000 0.000000
0.403143 1.536567 1.061227 0.000000 0.000000 0.000000
0.406483 1.526653 1.047343 0.000000 0.000000 0.000000
0.421970 1.513711 1.058012 0.000000 0.000000 0.000000
0.432686 1.502373 1.052188 0.000000 0.000000 0.000000
0.401076 1.500952 1.062287 0.000000 0.000000 0.000000
0.406842 1.522904 1.062384 0.000000 0.000000 0.000000
0.432126 1.511616 1.055653 0.000000 0.000000 0.000000
0.408446 1.529022 1.078404 0.000000 0.000000 0.000000
0.423643 1.524938 1.063897 0.000000 0.000000 0.000000
0.423845 1.482572 1.077524 0.000000 0.000000 0.000000
0.399541 1.536623 1.069803 0.000000 0.000000 0.000000
0.402640 1.516615 1.044484 0.000000 0.000000 0.000000
0.401205 1.491085 1.042014 0.000000 0.000000 0.000000
0.400605 1.557598 1.061796 0.000000 0.000000 0.000000
0.404235 1.557876 1.061755 0.000000 0.000000 0.000000
0.433685 1.557117 1.073126 0.000000 0.000000 0.000000
0.418305 1.493927 1.069651 0.000000 0.000000 0.000000
0.405164 1.552612 1.054033 0.000000 0.000000 0.000000
0.410232 1.538570 1.073666 0.000000 0.000000 0.000000
0.419070 1.507303 1.066585 0.000000 0.000000 0.000000
0.407142 1.538059 1.068131 0.000000 0.000000 0.000000
0.419111 1.493227 1.065712 0.000000 0.000000 0.000000
0.409432 1.480314 1.053423 0.000000 0.000000 0.000000
0.408193 1.547886 1.054376 0.000000 0.000000 0.000000
0.406496 1.522799 1.034410 0.000000 0.000000 0.000000
0.405122 1.527366 1.042261 0.000000 0.000000 0.000000
0.400363 1.534622 1.055093 0.000000 0.000000 0.000000
0.401163 1.548838 1.051431 0.000000 0.000000 0.000000
0.428483 1.504312 1.055449 0.000000 0.000000 0.000000
0.420166 1.505664 1.068185 0.000000 0.000000 0.000000
0.423558 1.482832 1.067177 0.000000 0.000000 0.000000
0.410783 1.495816 1.055065 0.000000 0.000000 0.000000
0.422635 1.494659 1.077812 0.000000 0.000000 0.000000
0.427475 1.485417 1.079251 0.000000 0.000000 0.000000
0.404083 1.542267 1.061752 0.000000 0.000000 0.000000
0.407648 1.555629 1.055387 0.000000 0.000000 0.000000
0.404096 1.557637 1.058835 0.000000 0.000000 0.000000
0.401853 1.512483 1.046035 0.000000 0.000000 0.000000
0.395329 1.550804 1.052385 0.000000 0.000000 0.000000
0.401944 1.512529 1.047441 0.000000 0.000000 0.000000
0.406924 1.543205 1.063537 0.000000 0.000000 0.000000
0.402160 1.557165 1.074187 0.000000 0.000000 0.000000
0.402805 1.546791 1.059335 0.000000 0.000000 0.000000
0.404793 1.549096 1.064322 0.000000 0.000000 0.000000
0.401132 1.499586 1.040434 0.000000 0.000000 0.000000
0.403639 1.546322 1.053846 0.000000 0.000000 0.000000
0.400046 1.546770 1.060043 0.000000 0.000000 0.000000
0.401408 1.532216 1.054522 0.000000 0.000000 0.000000
0.405243 1.530611 1.046162 0.000000 0.000000 0.000000
0.405298 1.526900 1.043380 0.000000 0.000000 0.000000
0.400929 1.546958 1.053759 0.000000 0.000000 0.000000
0.422847 1.498426 1.060398 0.000000 0.000000 0.000000
0.399373 1.534262 1.059574 0.000000 0.000000 0.000000
0.405463 1.554576 1.064772 0.000000 0.000000 0.000000
0.402265 1.499100 1.037868 0.000000 0.000000 0.000000
0.403438 1.509141 1.036930 0.000000 0.000000 0.000000
0.423111 1.483640 1.062806 0.000000 0.000000 0.000000
0.426551 1.485684 1.077232 0.000000 0.000000 0.000000
0.404024 1.513585 1.077456 0.000000 0.000000 0.000000
0.426328 1.494134 1.053659 0.000000 0.000000 0.000000
0.430834 1.555490 1.061793 0.000000 0.000000 0.000000
0.405120 1.538422 1.060651 0.000000 0.000000 0.000000
0.428574 1.519830 1.057850 0.000000 0.000000 0.000000
0.430685 1.480024 1.067096 0.000000 0.000000 0.000000
0.398992 1.554137 1.077269 0.000000 0.000000 0.000000
0.430440 1.482908 1.075585 0.000000 0.000000 0.000000
0.426442 1.482362 1.078197 0.000000 0.000000 0.000000
0.400192 1.543767 1.051103 0.000000 0.000000 0.000000
0.402637 1.551656 1.055201 0.000000 0.000000 0.000000
0.395899 1.547075 1.047830 0.000000 0.000000 0.000000
0.403525 1.512114 1.047233 0.000000 0.000000 0.000000
0.396565 1.504715 1.059941 0.000000 0.000000 0.000000
0.422068 1.486471 1.046855 0.000000 0.000000 0.000000
0.398887 1.549881 1.054570 0.000000 0.000000 0.000000
0.401523 1.537498 1.054182 0.000000 0.000000 0.000000
0.395514 1.521323 1.068905 0.000000 0.000000 0.000000
0.399498 1.518791 1.056399 0.000000 0.000000 0.000000
0.398340 1.500110 1.046817 0.000000 0.000000 0.000000
0.429462 1.496706 1.049207 0.000000 0.000000 0.000000
0.402403 1.522376 1.060427 0.000000 0.000000 0.000000
0.403315 1.526871 1.056960 0.000000 0.000000 0.000000
0.405646 1.532844 1.056643 0.000000 0.000000 0.000000
0.398616 1.492059 1.054360 0.000000 0.000000 0.000000
0.401512 1.526524 1.058543 0.000000 0.000000 0.000000
0.397665 1.491998 1.056694 0.000000 0.000000 0.000000
0.424011 1.482879 1.052999 0.000000 0.000000 0.000000
0.402883 1.536260 1.052082 0.000000 0.000000 0.000000
0.425980 1.489708 1.053681 0.000000 0.000000 0.000000
0.424466 1.488447 1.050463 0.000000 0.000000 0.000000
0.405986 1.502122 1.032228 0.000000 0.000000 0.000000
0.422573 1.480666 1.073552 0.000000 0.000000 0.000000
0.426499 1.485067 1.057368 0.000000 0.000000 0.000000
0.430789 1.487397 1.076037 0.000000 0.000000 0.000000
0.400499 1.527866 1.070351 0.000000 0.000000 0.000000
0.430345 1.488052 1.077298 0.000000 0.000000 0.000000
0.402368 1.535866 1.079793 0.000000 0.000000 0.000000
0.402712 1.550202 1.060578 0.000000 0.000000 0.000000
0.398991 1.535083 1.078953 0.000000 0.000000 0.000000
0.402481 1.540712 1.054096 0.000000 0.000000 0.000000
0.399694 1.486279 1.052139 0.000000 0.000000 0.000000
0.403906 1.513404 1.035621 0.000000 0.000000 0.000000
0.406588 1.526472 1.051236 0.000000 0.000000 0.000000
0.434378 1.553941 1.057409 0.000000 0.000000 0.000000
0.403373 1.512617 1.039697 0.000000 0.000000 0.000000
0.403361 1.513052 1.042711 0.000000 0.000000 0.000000
0.405057 1.504157 1.037512 0.000000 0.000000 0.000000
0.406042 1.509511 1.032276 0.000000 0.000000 0.000000
0.403198 1.520178 1.042677 0.000000 0.000000 0.000000
0.433467 1.558093 1.060436 0.000000 0.000000 0.000000
0.402116 1.508163 1.042961 0.000000 0.000000 0.000000
0.406773 1.517564 1.041479 0.000000 0.000000 0.000000
0.403098 1.518036 1.037151 0.000000 0.000000 0.000000
0.405857 1.521187 1.038786 0.000000 0.000000 0.000000
0.403711 1.513409 1.041692 0.000000 0.000000 0.000000
0.427342 1.556175 1.064139 0.000000 0.000000 0.000000
0.403897 1.505665 1.035751 0.000000 0.000000 0.000000
0.402177 1.490168 1.044152 0.000000 0.000000 0.000000
0.405386 1.508705 1.036345 0.000000 0.000000 0.000000
0.402854 1.492849 1.040278 0.000000 0.000000 0.000000
0.434448 1.555484 1.057272 0.000000 0.000000 0.000000
0.404013 1.494881 1.042406 0.000000 0.000000 0.000000
0.406219 1.525306 1.051078 0.000000 0.000000 0.000000
0.395996 1.549317 1.063561 0.000000 0.000000 0.000000
0.397388 1.497056 1.057656 0.000000 0.000000 0.000000
0.407012 1.512672 1.038442 0.000000 0.000000 0.000000
0.404085 1.540634 1.054567 0.000000 0.000000 0.000000
0.399981 1.511619 1.036841 0.000000 0.000000 0.000000
0.405475 1.503516 1.049175 0.000000 0.000000 0.000000
0.398650 1.554945 1.071078 0.000000 0.000000 0.000000
0.411144 1.511839 1.052434 0.000000 0.000000 0.000000
0.406569 1.531379 1.052201 0.000000 0.000000 0.000000
0.402849 1.546246 1.078771 0.000000 0.000000 0.000000
0.426886 1.481606 1.074140 0.000000 0.000000 0.000000
0.399644 1.477696 1.051625 0.000000 0.000000 0.000000
0.398805 1.475009 1.053673 0.000000 0.000000 0.000000
0.416889 1.500295 1.072416 0.000000 0.000000 0.000000
0.402120 1.556584 1.058542 0.000000 0.000000 0.000000
0.393378 1.527820 1.073856 0.000000 0.000000 0.000000
0.438957 1.559092 1.055940 0.000000 0.000000 0.000000
0.423471 1.506056 1.065183 0.000000 0.000000 0.000000
0.401772 1.550110 1.063798 0.000000 0.000000 0.000000
0.404612 1.502509 1.050843 0.000000 0.000000 0.000000
0.439283 1.559918 1.056985 0.000000 0.000000 0.000000
0.401626 1.491410 1.043818 0.000000 0.000000 0.000000
0.403208 1.493253 1.047126 0.000000 0.000000 0.000000
0.424948 1.505544 1.059947 0.000000 0.000000 0.000000
0.397236 1.550758 1.065439 0.000000 0.000000 0.000000
0.431597 1.491832 1.051055 0.000000 0.000000 0.000000
0.401393 1.493713 1.041258 0.000000 0.000000 0.000000
0.399315 1.483608 1.049039 0.000000 0.000000 0.000000
0.400417 1.493138 1.041298 0.000000 0.000000 0.000000
0.432243 1.514687 1.055159 0.000000 0.000000 0.000000
0.425912 1.523854 1.060298 0.000000 0.000000 0.000000
0.430618 1.515741 1.056043 0.000000 0.000000 0.000000
0.403636 1.501842 1.038550 0.000000 0.000000 0.000000
0.397753 1.550201 1.057076 0.000000 0.000000 0.000000
0.432081 1.504399 1.052851 0.000000 0.000000 0.000000
0.406696 1.552123 1.048233 0.000000 0.000000 0.000000
0.418233 1.497873 1.064906 0.000000 0.000000 0.000000
0.426701 1.527699 1.061794 0.000000 0.000000 0.000000
0.411310 1.523412 1.074111 0.000000 0.000000 0.000000
0.392473 1.559001 1.071144 0.000000 0.000000 0.000000
0.403040 1.508775 1.037783 0.000000 0.000000 0.000000
0.408740 1.524538 1.040971 0.000000 0.000000 0.000000
0.405187 1.516508 1.047709 0.000000 0.000000 0.000000
0.403930 1.505768 1.035944 0.000000 0.000000 0.000000
0.429883 1.494238 1.070816 0.000000 0.000000 0.000000
0.422029 1.501224 1.070131 0.000000 0.000000 0.000000
0.406775 1.528186 1.043660 0.000000 0.000000 0.000000
0.410061 1.532653 1.050252 0.000000 0.000000 0.000000
0.409033 1.558923 1.063338 0.000000 0.000000 0.000000
0.414799 1.497516 1.066805 0.000000 0.000000 0.000000
0.420466 1.508368 1.079056 0.000000 0.000000 0.000000
0.402968 1.532006 1.076379 0.000000 0.000000 0.000000
0.407573 1.525645 1.044747 0.000000 0.000000 0.000000
0.403808 1.514180 1.039848 0.000000 0.000000 0.000000
0.399948 1.546908 1.049826 0.000000 0.000000 0.000000
0.404328 1.543483 1.079362 0.000000 0.000000 0.000000
0.404086 1.513811 1.038318 0.000000 0.000000 0.000000
0.434637 1.508199 1.052806 0.000000 0.000000 0.000000
0.398487 1.500240 1.061163 0.000000 0.000000 0.000000
0.401487 1.507929 1.063830 0.000000 0.000000 0.000000
0.401285 1.509296 1.065543 0.000000 0.000000 0.000000
0.417673 1.501332 1.078471 0.000000 0.000000 0.000000
0.409247 1.481230 1.057058 0.000000 0.000000 0.000000
0.425371 1.484655 1.068302 0.000000 0.000000 0.000000
0.430238 1.499449 1.077843 0.000000 0.000000 0.000000
0.430192 1.504455 1.052285 0.000000 0.000000 0.000000
0.429728 1.507936 1.055128 0.000000 0.000000 0.000000
0.405254 1.513793 1.035887 0.000000 0.000000 0.000000
0.392496 1.482457 1.047682 0.000000 0.000000 0.000000
0.397139 1.496397 1.058084 0.000000 0.000000 0.000000
0.427641 1.508590 1.056885 0.000000 0.000000 0.000000
0.424097 1.489835 1.052179 0.000000 0.000000 0.000000
0.424483 1.504225 1.077550 0.000000 0.000000 0.000000
0.426086 1.503739 1.048955 0.000000 0.000000 0.000000
0.393966 1.541951 1.055617 0.000000 0.000000 0.000000
0.431375 1.507187 1.052067 0.000000 0.000000 0.000000
0.433081 1.490368 1.071254 0.000000 0.000000 0.000000
0.427290 1.498137 1.045420 0.000000 0.000000 0.000000
0.427144 1.500543 1.052578 0.000000 0.000000 0.000000
0.394057 1.543644 1.067059 0.000000 0.000000 0.000000
0.433266 1.481192 1.065547 0.000000 0.000000 0.000000
0.403386 1.510238 1.040792 0.000000 0.000000 0.000000
0.433323 1.520063 1.054503 0.000000 0.000000 0.000000
0.419602 1.507303 1.073022 0.000000 0.000000 0.000000
0.410219 1.556531 1.076071 0.000000 0.000000 0.000000
0.410966 1.552377 1.075665 0.000000 0.000000 0.000000
0.421301 1.510664 1.072674 0.000000 0.000000 0.000000
0.402105 1.540769 1.051826 0.000000 0.000000 0.000000
0.402936 1.509543 1.037358 0.000000 0.000000 0.000000
0.413766 1.525264 1.077384 0.000000 0.000000 0.000000
0.393504 1.548460 1.054295 0.000000 0.000000 0.000000
0.402942 1.500721 1.043229 0.000000 0.000000 0.000000
0.399346 1.531205 1.077405 0.000000 0.000000 0.000000
0.432506 1.500524 1.050603 0.000000 0.000000 0.000000
0.434320 1.513955 1.052066 0.000000 0.000000 0.000000
0.432723 1.507554 1.051792 0.000000 0.000000 0.000000
0.409405 1.520669 1.069076 0.000000 0.000000 0.000000
0.397990 1.531593 1.075023 0.000000 0.000000 0.000000
0.406688 1.495646 1.060077 0.000000 0.000000 0.000000
0.428426 1.529149 1.063416 0.000000 0.000000 0.000000
0.403382 1.527947 1.075441 0.000000 0.000000 0.000000
0.403762 1.540935 1.060862 0.000000 0.000000 0.000000
0.403285 1.502292 1.064108 0.000000 0.000000 0.000000
0.429062 1.522708 1.058488 0.000000 0.000000 0.000000
0.406025 1.530106 1.046575 0.000000 0.000000 0.000000
0.406761 1.524354 1.040162 0.000000 0.000000 0.000000
0.407593 1.529409 1.039856 0.000000 0.000000 0.000000
0.400116 1.523652 1.049888 0.000000 0.000000 0.000000
0.406249 1.510775 1.035191 0.000000 0.000000 0.000000
0.407096 1.520870 1.039174 0.000000 0.000000 0.000000
0.406568 1.552633 1.062068 0.000000 0.000000 0.000000
0.403196 1.546112 1.048920 0.000000 0.000000 0.000000
0.398533 1.501380 1.059827 0.000000 0.000000 0.000000
0.405022 1.550480 1.051188 0.000000 0.000000 0.000000
0.396900 1.542852 1.050840 0.000000 0.000000 0.000000
0.403912 1.548724 1.044503 0.000000 0.000000 0.000000
0.407468 1.527300 1.074968 0.000000 0.000000 0.000000
0.402485 1.548064 1.049205 0.000000 0.000000 0.000000
0.396252 1.540516 1.051311 0.000000 0.000000 0.000000
0.407989 1.516798 1.072610 0.000000 0.000000 0.000000
0.411201 1.500967 1.061877 0.000000 0.000000 0.000000
0.418973 1.516568 1.075724 0.000000 0.000000 0.000000
0.416945 1.524151 1.077515 0.000000 0.000000 0.000000
0.413324 1.506208 1.066797 0.000000 0.000000 0.000000
0.432880 1.558236 1.067784 0.000000 0.000000 0.000000
0.408163 1.535791 1.078690 0.000000 0.000000 0.000000
0.424424 1.557171 1.071614 0.000000 0.000000 0.000000
0.429684 1.558557 1.076491 0.000000 0.000000 0.000000
0.405643 1.533798 1.051558 0.000000 0.000000 0.000000
0.430447 1.512398 1.055678 0.000000 0.000000 0.000000
0.419393 1.485241 1.069859 0.000000 0.000000 0.000000
0.405486 1.535174 1.047719 0.000000 0.000000 0.000000
0.417887 1.489164 1.074867 0.000000 0.000000 0.000000
0.402010 1.485638 1.042352 0.000000 0.000000 0.000000
0.400983 1.484714 1.047087 0.000000 0.000000 0.000000
0.424808 1.480077 1.073807 0.000000 0.000000 0.000000
0.402684 1.496012 1.037722 0.000000 0.000000 0.000000
0.430582 1.500314 1.049806 0.000000 0.000000 0.000000
0.430431 1.514037 1.054833 0.000000 0.000000 0.000000
0.434234 1.505505 1.050015 0.000000 0.000000 0.000000
0.398549 1.551207 1.070099 0.000000 0.000000 0.000000
0.391864 1.553202 1.073628 0.000000 0.000000 0.000000
0.433608 1.513448 1.054163 0.000000 0.000000 0.000000
0.401842 1.514688 1.061676 0.000000 0.000000 0.000000
0.400629 1.499007 1.054685 0.000000 0.000000 0.000000
0.400513 1.497263 1.057251 0.000000 0.000000 0.000000
0.399287 1.487689 1.057125 0.000000 0.000000 0.000000
0.431604 1.499755 1.052766 0.000000 0.000000 0.000000
0.397005 1.496097 1.056698 0.000000 0.000000 0.000000
0.397385 1.480461 1.052086 0.000000 0.000000 0.000000
0.400123 1.495023 1.046875 0.000000 0.000000 0.000000
0.397869 1.492289 1.054667 0.000000 0.000000 0.000000
0.396097 1.490522 1.059304 0.000000 0.000000 0.000000
0.394992 1.492721 1.051675 0.000000 0.000000 0.000000
0.423611 1.483636 1.077845 0.000000 0.000000 0.000000
0.423459 1.485243 1.071201 0.000000 0.000000 0.000000
0.403089 1.499213 1.039807 0.000000 0.000000 0.000000
0.402663 1.492688 1.040674 0.000000 0.000000 0.000000
0.393109 1.549758 1.060511 0.000000 0.000000 0.000000
0.424264 1.488472 1.072619 0.000000 0.000000 0.000000
0.429005 1.491464 1.073041 0.000000 0.000000 0.000000
0.426112 1.480791 1.076924 0.000000 0.000000 0.000000
0.423450 1.486772 1.069775 0.000000 0.000000 0.000000
0.430373 1.488667 1.078362 0.000000 0.000000 0.000000
0.404907 1.537463 1.049616 0.000000 0.000000 0.000000
0.400938 1.546738 1.057860 0.000000 0.000000 0.000000
0.406485 1.522439 1.040544 0.000000 0.000000 0.000000
0.405609 1.529259 1.043043 0.000000 0.000000 0.000000
0.402196 1.543339 1.046413 0.000000 0.000000 0.000000
0.400967 1.540733 1.050209 0.000000 0.000000 0.000000
0.404071 1.546075 1.054329 0.000000 0.000000 0.000000
0.425107 1.496188 1.072294 0.000000 0.000000 0.000000
0.415022 1.540262 1.059717 0.000000 0.000000 0.000000
0.430494 1.484740 1.073234 0.000000 0.000000 0.000000
0.405548 1.544913 1.053288 0.000000 0.000000 0.000000
0.418467 1.527125 1.067448 0.000000 0.000000 0.000000
0.425131 1.494152 1.070501 0.000000 0.000000 0.000000
0.410004 1.541625 1.057131 0.000000 0.000000 0.000000
0.428091 1.480252 1.056590 0.000000 0.000000 0.000000
0.405176 1.534850 1.048585 0.000000 0.000000 0.000000
0.432012 1.480566 1.059837 0.000000 0.000000 0.000000
0.399265 1.479879 1.051723 0.000000 0.000000 0.000000
0.431242 1.494173 1.050529 0.000000 0.000000 0.000000
0.407137 1.483332 1.050306 0.000000 0.000000 0.000000
0.407130 1.517088 1.032656 0.000000 0.000000 0.000000
0.419400 1.510459 1.076381 0.000000 0.000000 0.000000
0.432435 1.493769 1.049387 0.000000 0.000000 0.000000
0.402381 1.491610 1.040471 0.000000 0.000000 0.000000
0.401213 1.488308 1.044845 0.000000 0.000000 0.000000
0.404247 1.499393 1.038843 0.000000 0.000000 0.000000
0.425497 1.483127 1.067116 0.000000 0.000000 0.000000
0.404410 1.484930 1.048160 0.000000 0.000000 0.000000
0.401684 1.521600 1.060076 0.000000 0.000000 0.000000
0.395760 1.512811 1.057075 0.000000 0.000000 0.000000
0.403041 1.489219 1.036950 0.000000 0.000000 0.000000
0.396715 1.519675 1.052608 0.000000 0.000000 0.000000
0.394139 1.473909 1.051139 0.000000 0.000000 0.000000
0.395075 1.477654 1.051125 0.000000 0.000000 0.000000
0.415691 1.480634 1.051291 0.000000 0.000000 0.000000
0.433015 1.501611 1.052311 0.000000 0.000000 0.000000
0.430812 1.517478 1.053524 0.000000 0.000000 0.000000
0.429659 1.520699 1.057357 0.000000 0.000000 0.000000
0.421798 1.481306 1.052592 0.000000 0.000000 0.000000
0.396267 1.477052 1.051112 0.000000 0.000000 0.000000
0.413556 1.535854 1.074256 0.000000 0.000000 0.000000
0.397507 1.539655 1.069991 0.000000 0.000000 0.000000
0.426378 1.480509 1.074425 0.000000 0.000000 0.000000
0.425301 1.495466 1.051862 0.000000 0.000000 0.000000
0.404860 1.495511 1.031624 0.000000 0.000000 0.000000
0.432587 1.517953 1.053399 0.000000 0.000000 0.000000
0.406082 1.503410 1.029938 0.000000 0.000000 0.000000
0.427708 1.520757 1.057519 0.000000 0.000000 0.000000
