ply
format ascii 1.0
comment VCGLIB generated
obj_info Generated by SPFormer!
element vertex 192
property float x
property float y
property float z
property float nx
property float ny
property float nz
end_header
0.400486 1.560862 1.069992 0.000000 0.000000 0.000000
0.419622 1.561829 1.069215 0.000000 0.000000 0.000000
0.451742 1.558789 1.068915 0.000000 0.000000 0.000000
0.434130 1.565749 1.065815 0.000000 0.000000 0.000000
0.443299 1.552769 1.060085 0.000000 0.000000 0.000000
0.453688 1.562778 1.059247 0.000000 0.000000 0.000000
0.420109 1.562603 1.078636 0.000000 0.000000 0.000000
0.456322 1.559593 1.056387 0.000000 0.000000 0.000000
0.418177 1.560351 1.076807 0.000000 0.000000 0.000000
0.457937 1.555240 1.055790 0.000000 0.000000 0.000000
0.439985 1.563862 1.064312 0.000000 0.000000 0.000000
0.414643 1.574167 1.075964 0.000000 0.000000 0.000000
0.440566 1.564532 1.062465 0.000000 0.000000 0.000000
0.415297 1.566808 1.068531 0.000000 0.000000 0.000000
0.421391 1.570845 1.073593 0.000000 0.000000 0.000000
0.422043 1.571022 1.076804 0.000000 0.000000 0.000000
0.451487 1.563493 1.060917 0.000000 0.000000 0.000000
0.432408 1.564718 1.064156 0.000000 0.000000 0.000000
0.421273 1.564513 1.077806 0.000000 0.000000 0.000000
0.442612 1.563370 1.059636 0.000000 0.000000 0.000000
0.453364 1.564545 1.058478 0.000000 0.000000 0.000000
0.430461 1.574335 1.068177 0.000000 0.000000 0.000000
0.402492 1.563140 1.078061 0.000000 0.000000 0.000000
0.403739 1.562213 1.072852 0.000000 0.000000 0.000000
0.405188 1.574984 1.065936 0.000000 0.000000 0.000000
0.465029 1.556949 1.051310 0.000000 0.000000 0.000000
0.403490 1.571454 1.071449 0.000000 0.000000 0.000000
0.401139 1.572455 1.067500 0.000000 0.000000 0.000000
0.410970 1.568444 1.076652 0.000000 0.000000 0.000000
0.425153 1.566205 1.069152 0.000000 0.000000 0.000000
0.439506 1.560007 1.054892 0.000000 0.000000 0.000000
0.403967 1.584038 1.079884 0.000000 0.000000 0.000000
0.422854 1.560088 1.068736 0.000000 0.000000 0.000000
0.440341 1.559100 1.067006 0.000000 0.000000 0.000000
0.428805 1.562633 1.067074 0.000000 0.000000 0.000000
0.434252 1.565041 1.065448 0.000000 0.000000 0.000000
0.433889 1.572077 1.069769 0.000000 0.000000 0.000000
0.432657 1.568044 1.066006 0.000000 0.000000 0.000000
0.459499 1.555984 1.064489 0.000000 0.000000 0.000000
0.403642 1.576515 1.071198 0.000000 0.000000 0.000000
0.448024 1.555695 1.059610 0.000000 0.000000 0.000000
0.444038 1.566442 1.063782 0.000000 0.000000 0.000000
0.469415 1.557776 1.049863 0.000000 0.000000 0.000000
0.430080 1.566270 1.071225 0.000000 0.000000 0.000000
0.459179 1.558436 1.053043 0.000000 0.000000 0.000000
0.442003 1.552401 1.050561 0.000000 0.000000 0.000000
0.461876 1.561351 1.056134 0.000000 0.000000 0.000000
0.454280 1.561465 1.056952 0.000000 0.000000 0.000000
0.410200 1.581749 1.067333 0.000000 0.000000 0.000000
0.407902 1.569812 1.066139 0.000000 0.000000 0.000000
0.401172 1.578031 1.075027 0.000000 0.000000 0.000000
0.454369 1.567715 1.055473 0.000000 0.000000 0.000000
0.453003 1.556715 1.053659 0.000000 0.000000 0.000000
0.454891 1.551193 1.049708 0.000000 0.000000 0.000000
0.404672 1.580684 1.078924 0.000000 0.000000 0.000000
0.425999 1.564988 1.079342 0.000000 0.000000 0.000000
0.409048 1.573272 1.077067 0.000000 0.000000 0.000000
0.402550 1.577948 1.073705 0.000000 0.000000 0.000000
0.403762 1.571877 1.066848 0.000000 0.000000 0.000000
0.458428 1.560072 1.057113 0.000000 0.000000 0.000000
0.425259 1.566984 1.059590 0.000000 0.000000 0.000000
0.425530 1.570122 1.069994 0.000000 0.000000 0.000000
0.425426 1.565419 1.068521 0.000000 0.000000 0.000000
0.439808 1.565632 1.069994 0.000000 0.000000 0.000000
0.425672 1.565468 1.068731 0.000000 0.000000 0.000000
0.435456 1.572700 1.071510 0.000000 0.000000 0.000000
0.408450 1.570900 1.067574 0.000000 0.000000 0.000000
0.441183 1.564079 1.068306 0.000000 0.000000 0.000000
0.406888 1.566088 1.065792 0.000000 0.000000 0.000000
0.436434 1.572958 1.066848 0.000000 0.000000 0.000000
0.431313 1.572293 1.073456 0.000000 0.000000 0.000000
0.403807 1.569510 1.066217 0.000000 0.000000 0.000000
0.434181 1.570054 1.067404 0.000000 0.000000 0.000000
0.431165 1.574843 1.068195 0.000000 0.000000 0.000000
0.460394 1.560994 1.056977 0.000000 0.000000 0.000000
0.429115 1.568121 1.075684 0.000000 0.000000 0.000000
0.433412 1.562807 1.056612 0.000000 0.000000 0.000000
0.433190 1.563959 1.065171 0.000000 0.000000 0.000000
0.430138 1.566605 1.075073 0.000000 0.000000 0.000000
0.469263 1.554450 1.052760 0.000000 0.000000 0.000000
0.423650 1.566952 1.076010 0.000000 0.000000 0.000000
0.459044 1.554585 1.046891 0.000000 0.000000 0.000000
0.417857 1.564115 1.071154 0.000000 0.000000 0.000000
0.414416 1.566631 1.079273 0.000000 0.000000 0.000000
0.428289 1.572776 1.071101 0.000000 0.000000 0.000000
0.406421 1.577941 1.065954 0.000000 0.000000 0.000000
0.449484 1.553304 1.065220 0.000000 0.000000 0.000000
0.448417 1.563950 1.059799 0.000000 0.000000 0.000000
0.462476 1.558236 1.052781 0.000000 0.000000 0.000000
0.460359 1.555847 1.051614 0.000000 0.000000 0.000000
0.461491 1.556646 1.051416 0.000000 0.000000 0.000000
0.410188 1.561329 1.068241 0.000000 0.000000 0.000000
0.454691 1.552511 1.046406 0.000000 0.000000 0.000000
0.446044 1.569217 1.060314 0.000000 0.000000 0.000000
0.461683 1.553883 1.049766 0.000000 0.000000 0.000000
0.448280 1.556866 1.059749 0.000000 0.000000 0.000000
0.401615 1.568961 1.066479 0.000000 0.000000 0.000000
0.463274 1.561709 1.061127 0.000000 0.000000 0.000000
0.465720 1.560585 1.055144 0.000000 0.000000 0.000000
0.432971 1.568657 1.059433 0.000000 0.000000 0.000000
0.407012 1.562811 1.077760 0.000000 0.000000 0.000000
0.456038 1.554678 1.051230 0.000000 0.000000 0.000000
0.453378 1.566205 1.059049 0.000000 0.000000 0.000000
0.440386 1.565120 1.059498 0.000000 0.000000 0.000000
0.439047 1.562789 1.062122 0.000000 0.000000 0.000000
0.446192 1.571375 1.062497 0.000000 0.000000 0.000000
0.401377 1.581435 1.074187 0.000000 0.000000 0.000000
0.403958 1.569810 1.067634 0.000000 0.000000 0.000000
0.404137 1.572183 1.058174 0.000000 0.000000 0.000000
0.400254 1.562208 1.065265 0.000000 0.000000 0.000000
0.401135 1.562014 1.065484 0.000000 0.000000 0.000000
0.400502 1.572922 1.062970 0.000000 0.000000 0.000000
0.400181 1.567125 1.074453 0.000000 0.000000 0.000000
0.401345 1.580118 1.079694 0.000000 0.000000 0.000000
0.450931 1.567256 1.058899 0.000000 0.000000 0.000000
0.459657 1.554261 1.050659 0.000000 0.000000 0.000000
0.442413 1.553814 1.052537 0.000000 0.000000 0.000000
0.400548 1.575017 1.075768 0.000000 0.000000 0.000000
0.408029 1.574446 1.077676 0.000000 0.000000 0.000000
0.405793 1.572069 1.064972 0.000000 0.000000 0.000000
0.403593 1.564549 1.063164 0.000000 0.000000 0.000000
0.403171 1.562323 1.063191 0.000000 0.000000 0.000000
0.452818 1.558464 1.053635 0.000000 0.000000 0.000000
0.453224 1.556440 1.054566 0.000000 0.000000 0.000000
0.448255 1.554894 1.059622 0.000000 0.000000 0.000000
0.443280 1.560901 1.057225 0.000000 0.000000 0.000000
0.445740 1.553642 1.053086 0.000000 0.000000 0.000000
0.445555 1.554633 1.054195 0.000000 0.000000 0.000000
0.453882 1.556831 1.054801 0.000000 0.000000 0.000000
0.451032 1.554681 1.050773 0.000000 0.000000 0.000000
0.445182 1.557070 1.050956 0.000000 0.000000 0.000000
0.400059 1.568600 1.062900 0.000000 0.000000 0.000000
0.444008 1.556526 1.061359 0.000000 0.000000 0.000000
0.428889 1.562830 1.074819 0.000000 0.000000 0.000000
0.442658 1.552646 1.050682 0.000000 0.000000 0.000000
0.445483 1.555175 1.051672 0.000000 0.000000 0.000000
0.440264 1.557227 1.069368 0.000000 0.000000 0.000000
0.453002 1.559656 1.056815 0.000000 0.000000 0.000000
0.448345 1.551327 1.050919 0.000000 0.000000 0.000000
0.450520 1.554389 1.050758 0.000000 0.000000 0.000000
0.400423 1.584776 1.079776 0.000000 0.000000 0.000000
0.444351 1.552854 1.051823 0.000000 0.000000 0.000000
0.412302 1.561843 1.066456 0.000000 0.000000 0.000000
0.443639 1.554877 1.051632 0.000000 0.000000 0.000000
0.456607 1.559003 1.055950 0.000000 0.000000 0.000000
0.456941 1.558429 1.054855 0.000000 0.000000 0.000000
0.433125 1.568216 1.070220 0.000000 0.000000 0.000000
0.438781 1.572721 1.066145 0.000000 0.000000 0.000000
0.451574 1.556645 1.055859 0.000000 0.000000 0.000000
0.437658 1.569080 1.069921 0.000000 0.000000 0.000000
0.450793 1.559131 1.063241 0.000000 0.000000 0.000000
0.441763 1.563171 1.070144 0.000000 0.000000 0.000000
0.455282 1.559940 1.057361 0.000000 0.000000 0.000000
0.450693 1.554053 1.054658 0.000000 0.000000 0.000000
0.405926 1.581869 1.072116 0.000000 0.000000 0.000000
0.440501 1.558025 1.077225 0.000000 0.000000 0.000000
0.402972 1.575699 1.068123 0.000000 0.000000 0.000000
0.435214 1.571641 1.067893 0.000000 0.000000 0.000000
0.441095 1.570033 1.064836 0.000000 0.000000 0.000000
0.429023 1.567009 1.076250 0.000000 0.000000 0.000000
0.441240 1.569068 1.065001 0.000000 0.000000 0.000000
0.440568 1.573963 1.065307 0.000000 0.000000 0.000000
0.446285 1.562676 1.059984 0.000000 0.000000 0.000000
0.459712 1.561877 1.055770 0.000000 0.000000 0.000000
0.426114 1.561849 1.079027 0.000000 0.000000 0.000000
0.440293 1.550375 1.052566 0.000000 0.000000 0.000000
0.426745 1.560252 1.072868 0.000000 0.000000 0.000000
0.440775 1.560507 1.071542 0.000000 0.000000 0.000000
0.432230 1.560188 1.077754 0.000000 0.000000 0.000000
0.461440 1.554784 1.049692 0.000000 0.000000 0.000000
0.460055 1.554832 1.052297 0.000000 0.000000 0.000000
0.457435 1.555533 1.051542 0.000000 0.000000 0.000000
0.452762 1.553019 1.049419 0.000000 0.000000 0.000000
0.446545 1.569592 1.061727 0.000000 0.000000 0.000000
0.442333 1.560923 1.056465 0.000000 0.000000 0.000000
0.467275 1.555490 1.049362 0.000000 0.000000 0.000000
0.460953 1.557166 1.054339 0.000000 0.000000 0.000000
0.463303 1.555745 1.052676 0.000000 0.000000 0.000000
0.448601 1.553572 1.051097 0.000000 0.000000 0.000000
0.455834 1.554392 1.050379 0.000000 0.000000 0.000000
0.446397 1.560446 1.074224 0.000000 0.000000 0.000000
0.446898 1.566617 1.061533 0.000000 0.000000 0.000000
0.458040 1.556726 1.050518 0.000000 0.000000 0.000000
0.443553 1.556054 1.054148 0.000000 0.000000 0.000000
0.457631 1.554947 1.051840 0.000000 0.000000 0.000000
0.463024 1.553600 1.047548 0.000000 0.000000 0.000000
0.433457 1.560709 1.078899 0.000000 0.000000 0.000000
0.440878 1.560141 1.072715 0.000000 0.000000 0.000000
0.440735 1.560159 1.067878 0.000000 0.000000 0.000000
0.461794 1.554515 1.048061 0.000000 0.000000 0.000000
0.417446 1.565719 1.078430 0.000000 0.000000 0.000000
0.401578 1.583136 1.078734 0.000000 0.000000 0.000000
