ply
format ascii 1.0
comment VCGLIB generated
obj_info Generated by SPFormer!
element vertex 422
property float x
property float y
property float z
property float nx
property float ny
property float nz
end_header
0.352111 1.993125 1.407153 0.000000 0.000000 0.000000
0.340612 1.994745 1.405170 0.000000 0.000000 0.000000
0.329189 2.000469 1.392775 0.000000 0.000000 0.000000
0.333941 2.020577 1.379769 0.000000 0.000000 0.000000
0.316485 2.027904 1.376246 0.000000 0.000000 0.000000
0.324533 2.006873 1.388591 0.000000 0.000000 0.000000
0.291118 1.991056 1.405036 0.000000 0.000000 0.000000
0.283801 2.016056 1.389484 0.000000 0.000000 0.000000
0.291436 2.021981 1.381624 0.000000 0.000000 0.000000
0.301232 1.999207 1.400530 0.000000 0.000000 0.000000
0.302694 2.019811 1.376901 0.000000 0.000000 0.000000
0.309146 2.023442 1.384275 0.000000 0.000000 0.000000
0.329929 2.013905 1.388032 0.000000 0.000000 0.000000
0.311079 2.027946 1.374797 0.000000 0.000000 0.000000
0.281948 2.017797 1.387710 0.000000 0.000000 0.000000
0.290899 2.020991 1.381886 0.000000 0.000000 0.000000
0.310465 2.012111 1.384449 0.000000 0.000000 0.000000
0.289019 2.004175 1.395218 0.000000 0.000000 0.000000
0.359466 1.978001 1.436680 0.000000 0.000000 0.000000
0.324509 2.014379 1.381831 0.000000 0.000000 0.000000
0.345190 1.984758 1.417071 0.000000 0.000000 0.000000
0.364821 1.982319 1.435262 0.000000 0.000000 0.000000
0.339080 2.017783 1.382890 0.000000 0.000000 0.000000
0.300097 2.026344 1.376300 0.000000 0.000000 0.000000
0.302287 2.021669 1.379573 0.000000 0.000000 0.000000
0.310801 1.997431 1.394494 0.000000 0.000000 0.000000
0.347014 1.975585 1.428071 0.000000 0.000000 0.000000
0.339582 1.978734 1.432877 0.000000 0.000000 0.000000
0.300548 2.019422 1.381330 0.000000 0.000000 0.000000
0.298168 2.028333 1.373984 0.000000 0.000000 0.000000
0.295499 2.030919 1.375481 0.000000 0.000000 0.000000
0.324199 1.965245 1.436063 0.000000 0.000000 0.000000
0.310402 2.022994 1.379344 0.000000 0.000000 0.000000
0.316366 2.023490 1.374023 0.000000 0.000000 0.000000
0.326548 2.007408 1.387230 0.000000 0.000000 0.000000
0.311253 2.015635 1.379869 0.000000 0.000000 0.000000
0.344550 1.992019 1.413830 0.000000 0.000000 0.000000
0.325910 2.000021 1.399794 0.000000 0.000000 0.000000
0.343897 2.012370 1.390775 0.000000 0.000000 0.000000
0.333623 2.019865 1.379829 0.000000 0.000000 0.000000
0.306745 2.018166 1.384984 0.000000 0.000000 0.000000
0.342452 2.010451 1.395098 0.000000 0.000000 0.000000
0.286627 2.017729 1.387553 0.000000 0.000000 0.000000
0.307460 1.978008 1.414295 0.000000 0.000000 0.000000
0.328211 1.989620 1.406085 0.000000 0.000000 0.000000
0.346530 1.991715 1.420472 0.000000 0.000000 0.000000
0.342153 2.014905 1.386137 0.000000 0.000000 0.000000
0.329477 1.998730 1.393646 0.000000 0.000000 0.000000
0.320048 1.971976 1.418394 0.000000 0.000000 0.000000
0.327724 2.007752 1.396597 0.000000 0.000000 0.000000
0.289916 2.008375 1.392009 0.000000 0.000000 0.000000
0.322383 2.012470 1.390915 0.000000 0.000000 0.000000
0.336585 2.008373 1.390515 0.000000 0.000000 0.000000
0.350834 2.006655 1.399438 0.000000 0.000000 0.000000
0.344746 1.991727 1.412324 0.000000 0.000000 0.000000
0.327715 2.001768 1.395782 0.000000 0.000000 0.000000
0.338748 1.983388 1.413445 0.000000 0.000000 0.000000
0.355257 1.980373 1.435208 0.000000 0.000000 0.000000
0.354344 1.988402 1.420733 0.000000 0.000000 0.000000
0.305733 2.024352 1.378549 0.000000 0.000000 0.000000
0.320794 2.026239 1.375472 0.000000 0.000000 0.000000
0.318557 1.991734 1.396394 0.000000 0.000000 0.000000
0.350275 1.987586 1.418811 0.000000 0.000000 0.000000
0.319411 2.006340 1.392083 0.000000 0.000000 0.000000
0.334606 2.021960 1.380511 0.000000 0.000000 0.000000
0.286382 2.013428 1.390120 0.000000 0.000000 0.000000
0.342748 1.992926 1.401524 0.000000 0.000000 0.000000
0.343121 1.990925 1.418895 0.000000 0.000000 0.000000
0.333226 1.999477 1.399407 0.000000 0.000000 0.000000
0.344591 2.007157 1.399107 0.000000 0.000000 0.000000
0.341313 2.023180 1.379558 0.000000 0.000000 0.000000
0.367208 1.986278 1.428900 0.000000 0.000000 0.000000
0.327476 2.011723 1.383118 0.000000 0.000000 0.000000
0.316958 1.963241 1.433402 0.000000 0.000000 0.000000
0.350508 2.001377 1.397941 0.000000 0.000000 0.000000
0.311450 2.002926 1.390495 0.000000 0.000000 0.000000
0.350359 1.993488 1.411420 0.000000 0.000000 0.000000
0.355703 1.997912 1.414205 0.000000 0.000000 0.000000
0.350586 2.008485 1.393179 0.000000 0.000000 0.000000
0.281519 2.008073 1.396781 0.000000 0.000000 0.000000
0.311443 1.980995 1.412792 0.000000 0.000000 0.000000
0.306638 2.008992 1.385337 0.000000 0.000000 0.000000
0.318676 1.993974 1.400560 0.000000 0.000000 0.000000
0.288379 2.011134 1.386555 0.000000 0.000000 0.000000
0.284128 1.993273 1.403803 0.000000 0.000000 0.000000
0.351526 2.010610 1.395097 0.000000 0.000000 0.000000
0.293678 1.985472 1.406132 0.000000 0.000000 0.000000
0.302509 2.010326 1.386624 0.000000 0.000000 0.000000
0.325576 2.020606 1.376931 0.000000 0.000000 0.000000
0.315492 1.973719 1.424324 0.000000 0.000000 0.000000
0.347953 1.991517 1.413398 0.000000 0.000000 0.000000
0.289508 2.027010 1.377798 0.000000 0.000000 0.000000
0.283047 2.019861 1.387471 0.000000 0.000000 0.000000
0.293666 2.020274 1.385296 0.000000 0.000000 0.000000
0.343601 1.978689 1.433266 0.000000 0.000000 0.000000
0.350600 1.982949 1.433897 0.000000 0.000000 0.000000
0.344125 1.986480 1.426281 0.000000 0.000000 0.000000
0.294027 2.016191 1.384877 0.000000 0.000000 0.000000
0.327374 2.005123 1.392871 0.000000 0.000000 0.000000
0.351509 1.988190 1.417113 0.000000 0.000000 0.000000
0.306973 2.014073 1.383148 0.000000 0.000000 0.000000
0.306267 1.988808 1.404160 0.000000 0.000000 0.000000
0.298102 1.982325 1.411860 0.000000 0.000000 0.000000
0.318090 2.008677 1.387173 0.000000 0.000000 0.000000
0.307053 1.985524 1.402947 0.000000 0.000000 0.000000
0.337458 2.007522 1.393727 0.000000 0.000000 0.000000
0.345298 1.994006 1.413615 0.000000 0.000000 0.000000
0.287478 2.018700 1.384998 0.000000 0.000000 0.000000
0.297777 1.974588 1.419443 0.000000 0.000000 0.000000
0.348165 1.972118 1.439610 0.000000 0.000000 0.000000
0.350041 1.988438 1.415436 0.000000 0.000000 0.000000
0.354357 1.994835 1.422899 0.000000 0.000000 0.000000
0.351004 1.976664 1.436110 0.000000 0.000000 0.000000
0.304843 1.986381 1.406282 0.000000 0.000000 0.000000
0.324011 2.001848 1.392643 0.000000 0.000000 0.000000
0.343668 1.987786 1.419996 0.000000 0.000000 0.000000
0.351556 1.983867 1.421074 0.000000 0.000000 0.000000
0.284129 1.989726 1.408284 0.000000 0.000000 0.000000
0.305806 2.025345 1.373246 0.000000 0.000000 0.000000
0.323429 2.020518 1.380020 0.000000 0.000000 0.000000
0.366873 1.988162 1.432352 0.000000 0.000000 0.000000
0.317240 2.020785 1.378417 0.000000 0.000000 0.000000
0.289411 1.989926 1.405694 0.000000 0.000000 0.000000
0.362952 1.993312 1.417845 0.000000 0.000000 0.000000
0.346446 1.980176 1.431764 0.000000 0.000000 0.000000
0.300147 2.029489 1.375649 0.000000 0.000000 0.000000
0.302045 1.982609 1.408350 0.000000 0.000000 0.000000
0.334763 1.979368 1.431557 0.000000 0.000000 0.000000
0.294150 1.985445 1.406357 0.000000 0.000000 0.000000
0.304513 1.991232 1.402039 0.000000 0.000000 0.000000
0.298729 1.977828 1.416695 0.000000 0.000000 0.000000
0.290983 1.980056 1.413659 0.000000 0.000000 0.000000
0.296187 1.976615 1.417206 0.000000 0.000000 0.000000
0.293745 2.016529 1.386910 0.000000 0.000000 0.000000
0.303944 1.996384 1.392295 0.000000 0.000000 0.000000
0.278885 2.009436 1.397196 0.000000 0.000000 0.000000
0.301583 1.972447 1.421143 0.000000 0.000000 0.000000
0.297707 1.981734 1.416027 0.000000 0.000000 0.000000
0.294120 1.980672 1.414594 0.000000 0.000000 0.000000
0.348446 2.013995 1.390217 0.000000 0.000000 0.000000
0.359369 1.991397 1.426067 0.000000 0.000000 0.000000
0.295140 1.973214 1.421137 0.000000 0.000000 0.000000
0.288007 2.004922 1.394073 0.000000 0.000000 0.000000
0.354705 2.004022 1.401923 0.000000 0.000000 0.000000
0.352380 2.007920 1.399847 0.000000 0.000000 0.000000
0.289804 2.008126 1.391216 0.000000 0.000000 0.000000
0.283614 1.990533 1.405622 0.000000 0.000000 0.000000
0.332218 1.984207 1.420866 0.000000 0.000000 0.000000
0.350628 1.973576 1.436745 0.000000 0.000000 0.000000
0.361761 1.985371 1.424306 0.000000 0.000000 0.000000
0.350504 1.981014 1.432778 0.000000 0.000000 0.000000
0.338334 1.986213 1.403086 0.000000 0.000000 0.000000
0.291733 2.003929 1.392660 0.000000 0.000000 0.000000
0.311018 1.971862 1.420056 0.000000 0.000000 0.000000
0.338617 1.981085 1.415079 0.000000 0.000000 0.000000
0.336444 1.975138 1.427443 0.000000 0.000000 0.000000
0.340884 2.010612 1.388586 0.000000 0.000000 0.000000
0.342008 1.981343 1.413021 0.000000 0.000000 0.000000
0.364439 1.993843 1.419304 0.000000 0.000000 0.000000
0.353948 1.994129 1.412192 0.000000 0.000000 0.000000
0.338885 1.979844 1.418769 0.000000 0.000000 0.000000
0.299669 2.005764 1.390315 0.000000 0.000000 0.000000
0.346902 1.986547 1.413402 0.000000 0.000000 0.000000
0.354006 1.976279 1.436652 0.000000 0.000000 0.000000
0.319195 1.973755 1.425864 0.000000 0.000000 0.000000
0.344115 2.013363 1.388683 0.000000 0.000000 0.000000
0.360265 1.991148 1.420596 0.000000 0.000000 0.000000
0.347009 1.990243 1.407027 0.000000 0.000000 0.000000
0.361857 1.980012 1.438152 0.000000 0.000000 0.000000
0.294663 1.979972 1.413470 0.000000 0.000000 0.000000
0.355390 1.980810 1.436183 0.000000 0.000000 0.000000
0.328376 1.967988 1.439593 0.000000 0.000000 0.000000
0.277887 2.002357 1.398391 0.000000 0.000000 0.000000
0.358034 1.986508 1.426975 0.000000 0.000000 0.000000
0.361177 1.990258 1.429606 0.000000 0.000000 0.000000
0.360223 1.992478 1.422848 0.000000 0.000000 0.000000
0.357372 1.982842 1.425427 0.000000 0.000000 0.000000
0.352470 2.004386 1.399203 0.000000 0.000000 0.000000
0.306403 1.978269 1.419483 0.000000 0.000000 0.000000
0.294446 1.976707 1.420128 0.000000 0.000000 0.000000
0.297094 1.998754 1.402478 0.000000 0.000000 0.000000
0.341028 2.000835 1.398159 0.000000 0.000000 0.000000
0.308623 2.005262 1.380725 0.000000 0.000000 0.000000
0.320483 2.003124 1.387812 0.000000 0.000000 0.000000
0.306813 1.988226 1.401275 0.000000 0.000000 0.000000
0.322471 2.008216 1.381920 0.000000 0.000000 0.000000
0.317628 1.999507 1.384734 0.000000 0.000000 0.000000
0.329606 2.005333 1.387957 0.000000 0.000000 0.000000
0.291003 1.990931 1.402349 0.000000 0.000000 0.000000
0.313601 2.007847 1.377014 0.000000 0.000000 0.000000
0.295369 2.028464 1.376077 0.000000 0.000000 0.000000
0.320252 1.997570 1.393618 0.000000 0.000000 0.000000
0.331765 2.021386 1.379405 0.000000 0.000000 0.000000
0.310548 2.019171 1.377466 0.000000 0.000000 0.000000
0.323865 1.993182 1.397733 0.000000 0.000000 0.000000
0.308158 2.029037 1.373446 0.000000 0.000000 0.000000
0.317270 1.989139 1.400448 0.000000 0.000000 0.000000
0.282009 2.017694 1.387076 0.000000 0.000000 0.000000
0.287817 1.994926 1.401696 0.000000 0.000000 0.000000
0.322865 2.025390 1.374026 0.000000 0.000000 0.000000
0.342957 2.004265 1.391568 0.000000 0.000000 0.000000
0.287681 1.997895 1.404333 0.000000 0.000000 0.000000
0.363095 1.994122 1.407695 0.000000 0.000000 0.000000
0.358889 1.997322 1.411290 0.000000 0.000000 0.000000
0.343048 1.975720 1.423712 0.000000 0.000000 0.000000
0.294785 2.030846 1.378406 0.000000 0.000000 0.000000
0.311245 1.976166 1.412116 0.000000 0.000000 0.000000
0.308946 2.027070 1.376732 0.000000 0.000000 0.000000
0.296077 2.017834 1.376884 0.000000 0.000000 0.000000
0.331756 2.018193 1.380712 0.000000 0.000000 0.000000
0.301650 1.984262 1.406039 0.000000 0.000000 0.000000
0.351128 2.009939 1.392677 0.000000 0.000000 0.000000
0.342259 2.015028 1.386673 0.000000 0.000000 0.000000
0.346056 2.015748 1.386641 0.000000 0.000000 0.000000
0.334191 2.014468 1.385692 0.000000 0.000000 0.000000
0.350776 2.005608 1.395877 0.000000 0.000000 0.000000
0.328948 2.006459 1.391889 0.000000 0.000000 0.000000
0.350561 2.000535 1.400970 0.000000 0.000000 0.000000
0.281732 1.994368 1.402973 0.000000 0.000000 0.000000
0.302492 2.015513 1.382673 0.000000 0.000000 0.000000
0.289811 1.991046 1.404112 0.000000 0.000000 0.000000
0.298624 2.015965 1.386799 0.000000 0.000000 0.000000
0.315774 1.983035 1.415475 0.000000 0.000000 0.000000
0.333031 1.973338 1.420660 0.000000 0.000000 0.000000
0.302960 1.970210 1.422962 0.000000 0.000000 0.000000
0.326214 1.967711 1.425481 0.000000 0.000000 0.000000
0.322562 1.977461 1.412323 0.000000 0.000000 0.000000
0.329833 1.971980 1.422849 0.000000 0.000000 0.000000
0.334867 1.970949 1.429296 0.000000 0.000000 0.000000
0.342929 1.983716 1.414359 0.000000 0.000000 0.000000
0.356480 2.001938 1.405729 0.000000 0.000000 0.000000
0.322388 1.963045 1.436100 0.000000 0.000000 0.000000
0.310086 1.968345 1.424777 0.000000 0.000000 0.000000
0.357300 2.003014 1.404575 0.000000 0.000000 0.000000
0.304906 2.021409 1.376824 0.000000 0.000000 0.000000
0.295313 2.021906 1.379559 0.000000 0.000000 0.000000
0.306064 1.964971 1.428096 0.000000 0.000000 0.000000
0.306839 2.026593 1.375163 0.000000 0.000000 0.000000
0.315169 2.013739 1.392329 0.000000 0.000000 0.000000
0.319541 2.026871 1.378880 0.000000 0.000000 0.000000
0.311618 2.028674 1.375039 0.000000 0.000000 0.000000
0.361186 1.977257 1.446607 0.000000 0.000000 0.000000
0.362507 1.979650 1.431418 0.000000 0.000000 0.000000
0.297132 2.029750 1.373597 0.000000 0.000000 0.000000
0.303848 2.025332 1.378620 0.000000 0.000000 0.000000
0.317061 1.969536 1.420842 0.000000 0.000000 0.000000
0.342605 1.971761 1.433968 0.000000 0.000000 0.000000
0.308420 1.969102 1.423938 0.000000 0.000000 0.000000
0.310724 1.967294 1.427371 0.000000 0.000000 0.000000
0.288359 2.026185 1.379082 0.000000 0.000000 0.000000
0.325099 1.964778 1.432653 0.000000 0.000000 0.000000
0.320212 1.969487 1.433507 0.000000 0.000000 0.000000
0.307196 2.022354 1.378839 0.000000 0.000000 0.000000
0.310871 1.965158 1.428604 0.000000 0.000000 0.000000
0.313977 2.023808 1.373501 0.000000 0.000000 0.000000
0.313137 2.018013 1.375766 0.000000 0.000000 0.000000
0.361147 1.977603 1.442350 0.000000 0.000000 0.000000
0.357224 1.988426 1.431661 0.000000 0.000000 0.000000
0.343311 1.999430 1.403068 0.000000 0.000000 0.000000
0.296500 2.026682 1.378622 0.000000 0.000000 0.000000
0.281804 2.006400 1.395325 0.000000 0.000000 0.000000
0.286670 1.985875 1.409628 0.000000 0.000000 0.000000
0.300214 2.030562 1.370849 0.000000 0.000000 0.000000
0.352918 1.988110 1.433092 0.000000 0.000000 0.000000
0.286921 1.989698 1.406434 0.000000 0.000000 0.000000
0.301050 1.973791 1.419669 0.000000 0.000000 0.000000
0.308113 1.972184 1.418629 0.000000 0.000000 0.000000
0.329645 1.999407 1.393748 0.000000 0.000000 0.000000
0.334692 1.993366 1.404893 0.000000 0.000000 0.000000
0.275296 2.000496 1.398719 0.000000 0.000000 0.000000
0.314575 1.989923 1.411298 0.000000 0.000000 0.000000
0.322770 1.988244 1.415295 0.000000 0.000000 0.000000
0.280444 2.004113 1.395699 0.000000 0.000000 0.000000
0.359179 2.001015 1.407981 0.000000 0.000000 0.000000
0.358114 2.000200 1.408679 0.000000 0.000000 0.000000
0.315513 1.967311 1.431568 0.000000 0.000000 0.000000
0.288921 1.979866 1.416177 0.000000 0.000000 0.000000
0.348678 1.991225 1.421310 0.000000 0.000000 0.000000
0.350895 2.000995 1.405707 0.000000 0.000000 0.000000
0.357545 1.993225 1.417739 0.000000 0.000000 0.000000
0.332222 1.997133 1.412104 0.000000 0.000000 0.000000
0.285111 1.997501 1.404610 0.000000 0.000000 0.000000
0.357392 1.999602 1.408273 0.000000 0.000000 0.000000
0.358769 2.001164 1.409160 0.000000 0.000000 0.000000
0.326650 1.964527 1.438602 0.000000 0.000000 0.000000
0.284526 2.021951 1.383265 0.000000 0.000000 0.000000
0.319355 2.027691 1.371939 0.000000 0.000000 0.000000
0.283384 2.022837 1.383575 0.000000 0.000000 0.000000
0.309417 2.030593 1.370875 0.000000 0.000000 0.000000
0.348386 1.975507 1.439302 0.000000 0.000000 0.000000
0.283712 1.991030 1.405327 0.000000 0.000000 0.000000
0.327704 1.970208 1.437221 0.000000 0.000000 0.000000
0.338223 2.019161 1.382851 0.000000 0.000000 0.000000
0.357866 1.978184 1.435193 0.000000 0.000000 0.000000
0.348945 2.012300 1.388853 0.000000 0.000000 0.000000
0.334759 2.020151 1.380265 0.000000 0.000000 0.000000
0.344575 2.015200 1.387980 0.000000 0.000000 0.000000
0.329406 2.018053 1.384594 0.000000 0.000000 0.000000
0.356863 1.982883 1.429612 0.000000 0.000000 0.000000
0.350891 2.008237 1.397256 0.000000 0.000000 0.000000
0.340594 2.018150 1.383842 0.000000 0.000000 0.000000
0.354906 2.015260 1.389410 0.000000 0.000000 0.000000
0.358865 1.995928 1.414758 0.000000 0.000000 0.000000
0.339053 1.969626 1.439693 0.000000 0.000000 0.000000
0.329173 1.973023 1.436124 0.000000 0.000000 0.000000
0.330215 1.975208 1.433454 0.000000 0.000000 0.000000
0.323177 1.964788 1.437452 0.000000 0.000000 0.000000
0.312252 1.968315 1.427097 0.000000 0.000000 0.000000
0.319107 1.964107 1.436712 0.000000 0.000000 0.000000
0.356809 1.992445 1.419750 0.000000 0.000000 0.000000
0.358116 2.000782 1.413032 0.000000 0.000000 0.000000
0.324751 1.966584 1.439391 0.000000 0.000000 0.000000
0.324713 1.964915 1.436465 0.000000 0.000000 0.000000
0.365368 1.994157 1.421319 0.000000 0.000000 0.000000
0.322332 1.978625 1.421981 0.000000 0.000000 0.000000
0.320051 1.964802 1.435477 0.000000 0.000000 0.000000
0.366378 1.998001 1.414885 0.000000 0.000000 0.000000
0.362043 1.994599 1.418774 0.000000 0.000000 0.000000
0.357118 1.995499 1.428446 0.000000 0.000000 0.000000
0.358510 2.003650 1.402210 0.000000 0.000000 0.000000
0.357629 1.986126 1.429434 0.000000 0.000000 0.000000
0.362271 1.981276 1.440454 0.000000 0.000000 0.000000
0.301984 1.974061 1.419706 0.000000 0.000000 0.000000
0.305149 1.980086 1.417244 0.000000 0.000000 0.000000
0.303148 1.975738 1.421634 0.000000 0.000000 0.000000
0.304770 2.012983 1.376453 0.000000 0.000000 0.000000
0.286916 1.983725 1.412374 0.000000 0.000000 0.000000
0.330662 1.989403 1.398870 0.000000 0.000000 0.000000
0.312193 2.007743 1.389293 0.000000 0.000000 0.000000
0.294428 1.976213 1.417398 0.000000 0.000000 0.000000
0.318186 2.014024 1.378286 0.000000 0.000000 0.000000
0.358914 1.987284 1.435628 0.000000 0.000000 0.000000
0.307906 1.970183 1.423556 0.000000 0.000000 0.000000
0.355139 1.975611 1.439986 0.000000 0.000000 0.000000
0.318834 1.999830 1.390155 0.000000 0.000000 0.000000
0.318316 1.981471 1.405675 0.000000 0.000000 0.000000
0.303669 1.972449 1.420881 0.000000 0.000000 0.000000
0.338433 1.998860 1.396115 0.000000 0.000000 0.000000
0.300736 2.012498 1.385514 0.000000 0.000000 0.000000
0.310634 1.966654 1.426088 0.000000 0.000000 0.000000
0.350884 1.986282 1.434250 0.000000 0.000000 0.000000
0.305331 1.968938 1.425013 0.000000 0.000000 0.000000
0.313163 1.993290 1.394230 0.000000 0.000000 0.000000
0.325010 1.995309 1.391621 0.000000 0.000000 0.000000
0.283869 1.991756 1.408292 0.000000 0.000000 0.000000
0.290130 1.981033 1.411918 0.000000 0.000000 0.000000
0.280727 2.003314 1.395821 0.000000 0.000000 0.000000
0.282033 1.990674 1.404287 0.000000 0.000000 0.000000
0.274921 2.010473 1.392890 0.000000 0.000000 0.000000
0.286202 1.989197 1.405838 0.000000 0.000000 0.000000
0.281134 1.992520 1.404505 0.000000 0.000000 0.000000
0.367431 1.984209 1.434284 0.000000 0.000000 0.000000
0.282578 1.992715 1.404166 0.000000 0.000000 0.000000
0.365246 2.004545 1.406264 0.000000 0.000000 0.000000
0.366288 1.978769 1.439945 0.000000 0.000000 0.000000
0.284239 2.024177 1.381885 0.000000 0.000000 0.000000
0.355850 2.001951 1.405895 0.000000 0.000000 0.000000
0.357540 1.975071 1.435644 0.000000 0.000000 0.000000
0.294821 1.979451 1.414031 0.000000 0.000000 0.000000
0.360549 1.980824 1.440650 0.000000 0.000000 0.000000
0.345113 2.012167 1.394283 0.000000 0.000000 0.000000
0.309951 1.971349 1.421156 0.000000 0.000000 0.000000
0.326972 1.964903 1.432517 0.000000 0.000000 0.000000
0.282215 2.001968 1.400944 0.000000 0.000000 0.000000
0.361627 1.993153 1.415683 0.000000 0.000000 0.000000
0.318315 1.973141 1.428308 0.000000 0.000000 0.000000
0.347259 2.007406 1.394951 0.000000 0.000000 0.000000
0.321326 1.965970 1.427930 0.000000 0.000000 0.000000
0.361057 1.997492 1.409203 0.000000 0.000000 0.000000
0.304240 1.972806 1.423547 0.000000 0.000000 0.000000
0.319126 2.018199 1.382334 0.000000 0.000000 0.000000
0.286125 1.994692 1.398973 0.000000 0.000000 0.000000
0.322102 2.007879 1.385816 0.000000 0.000000 0.000000
0.301830 2.016139 1.381053 0.000000 0.000000 0.000000
0.293303 1.992237 1.403219 0.000000 0.000000 0.000000
0.305620 1.992008 1.400520 0.000000 0.000000 0.000000
0.336528 2.000298 1.397148 0.000000 0.000000 0.000000
0.314217 2.011319 1.384833 0.000000 0.000000 0.000000
0.301007 1.994823 1.398277 0.000000 0.000000 0.000000
0.316821 1.973093 1.419258 0.000000 0.000000 0.000000
0.362101 2.009419 1.398711 0.000000 0.000000 0.000000
0.297011 2.026448 1.375550 0.000000 0.000000 0.000000
0.284145 1.984486 1.411679 0.000000 0.000000 0.000000
0.287634 1.985384 1.413582 0.000000 0.000000 0.000000
0.284521 2.029108 1.379254 0.000000 0.000000 0.000000
0.288060 1.988259 1.407911 0.000000 0.000000 0.000000
0.295228 1.983971 1.414714 0.000000 0.000000 0.000000
0.279750 1.995757 1.402391 0.000000 0.000000 0.000000
0.366363 1.994791 1.418648 0.000000 0.000000 0.000000
0.359658 1.989547 1.434396 0.000000 0.000000 0.000000
0.367046 1.993704 1.422009 0.000000 0.000000 0.000000
0.365555 1.989120 1.425662 0.000000 0.000000 0.000000
0.354752 2.001651 1.402153 0.000000 0.000000 0.000000
0.360549 1.988068 1.424692 0.000000 0.000000 0.000000
0.364160 1.987988 1.435065 0.000000 0.000000 0.000000
0.365491 1.990132 1.424160 0.000000 0.000000 0.000000
0.353091 2.001650 1.400351 0.000000 0.000000 0.000000
0.325541 2.025347 1.376450 0.000000 0.000000 0.000000
0.308641 2.028264 1.371904 0.000000 0.000000 0.000000
0.367809 1.982694 1.437639 0.000000 0.000000 0.000000
0.330316 2.021667 1.384586 0.000000 0.000000 0.000000
0.321916 2.025190 1.381852 0.000000 0.000000 0.000000
0.336191 2.018791 1.388794 0.000000 0.000000 0.000000
0.315138 2.027847 1.379992 0.000000 0.000000 0.000000
0.284491 2.002436 1.397537 0.000000 0.000000 0.000000
0.292903 1.979773 1.415126 0.000000 0.000000 0.000000
0.279847 1.998831 1.402784 0.000000 0.000000 0.000000
0.283579 1.987247 1.408021 0.000000 0.000000 0.000000
0.362427 1.977595 1.440834 0.000000 0.000000 0.000000
0.287004 1.983829 1.411160 0.000000 0.000000 0.000000
0.291202 1.979309 1.415027 0.000000 0.000000 0.000000
0.279652 2.014546 1.394016 0.000000 0.000000 0.000000
0.280251 2.018194 1.389016 0.000000 0.000000 0.000000
0.280417 2.012799 1.395873 0.000000 0.000000 0.000000
0.280213 2.013101 1.393558 0.000000 0.000000 0.000000
0.367784 1.989226 1.427524 0.000000 0.000000 0.000000
0.361465 1.974637 1.445266 0.000000 0.000000 0.000000
0.357305 1.977692 1.438880 0.000000 0.000000 0.000000
0.310746 1.967214 1.427405 0.000000 0.000000 0.000000
0.359892 1.998830 1.410373 0.000000 0.000000 0.000000
0.311113 1.968476 1.426880 0.000000 0.000000 0.000000
0.304238 1.969585 1.425831 0.000000 0.000000 0.000000
