ply
format ascii 1.0
comment VCGLIB generated
obj_info Generated by SPFormer!
element vertex 194
property float x
property float y
property float z
property float nx
property float ny
property float nz
end_header
0.697518 -0.447021 0.271191 0.000000 0.000000 0.000000
0.695873 -0.470756 0.271711 0.000000 0.000000 0.000000
0.390353 -0.262512 0.355919 0.000000 0.000000 0.000000
0.366783 -0.265036 0.343147 0.000000 0.000000 0.000000
0.703664 -0.449191 0.258200 0.000000 0.000000 0.000000
0.685716 -0.447968 0.256353 0.000000 0.000000 0.000000
0.704696 -0.447696 0.271714 0.000000 0.000000 0.000000
0.696067 -0.444903 0.263513 0.000000 0.000000 0.000000
0.703501 -0.442199 0.269484 0.000000 0.000000 0.000000
0.692552 -0.444374 0.265105 0.000000 0.000000 0.000000
0.686031 -0.460876 0.259458 0.000000 0.000000 0.000000
0.688621 -0.465933 0.257987 0.000000 0.000000 0.000000
0.684273 -0.466831 0.248666 0.000000 0.000000 0.000000
0.700512 -0.455307 0.269992 0.000000 0.000000 0.000000
0.692271 -0.450712 0.264045 0.000000 0.000000 0.000000
0.714329 -0.440078 0.264671 0.000000 0.000000 0.000000
0.717240 -0.448876 0.264430 0.000000 0.000000 0.000000
0.696761 -0.479118 0.267462 0.000000 0.000000 0.000000
0.710658 -0.440502 0.268406 0.000000 0.000000 0.000000
0.719034 -0.444704 0.265328 0.000000 0.000000 0.000000
0.715328 -0.449921 0.276978 0.000000 0.000000 0.000000
0.698479 -0.443044 0.267093 0.000000 0.000000 0.000000
0.713885 -0.443510 0.270868 0.000000 0.000000 0.000000
0.719743 -0.443109 0.260864 0.000000 0.000000 0.000000
0.716188 -0.446083 0.263833 0.000000 0.000000 0.000000
0.701051 -0.453624 0.266871 0.000000 0.000000 0.000000
0.686994 -0.442200 0.262058 0.000000 0.000000 0.000000
0.692377 -0.453356 0.266909 0.000000 0.000000 0.000000
0.692638 -0.460756 0.262680 0.000000 0.000000 0.000000
0.696396 -0.454936 0.266119 0.000000 0.000000 0.000000
0.696287 -0.460629 0.265347 0.000000 0.000000 0.000000
0.715768 -0.443048 0.268922 0.000000 0.000000 0.000000
0.716618 -0.442513 0.265267 0.000000 0.000000 0.000000
0.713538 -0.451349 0.275074 0.000000 0.000000 0.000000
0.699599 -0.447763 0.261750 0.000000 0.000000 0.000000
0.708903 -0.448665 0.273103 0.000000 0.000000 0.000000
0.716716 -0.449289 0.263728 0.000000 0.000000 0.000000
0.699749 -0.449101 0.266090 0.000000 0.000000 0.000000
0.722832 -0.496196 0.314175 0.000000 0.000000 0.000000
0.712202 -0.472386 0.273818 0.000000 0.000000 0.000000
0.708957 -0.475330 0.272652 0.000000 0.000000 0.000000
0.806261 0.161461 1.273236 0.000000 0.000000 0.000000
0.691304 -0.467112 0.268220 0.000000 0.000000 0.000000
0.802147 0.181292 1.269781 0.000000 0.000000 0.000000
0.803659 0.169668 1.269639 0.000000 0.000000 0.000000
0.801231 0.169485 1.270517 0.000000 0.000000 0.000000
0.721260 -0.496511 0.298732 0.000000 0.000000 0.000000
0.705559 -0.447078 0.271413 0.000000 0.000000 0.000000
0.707975 -0.464098 0.279180 0.000000 0.000000 0.000000
0.720867 -0.488924 0.296139 0.000000 0.000000 0.000000
0.720183 -0.494851 0.299788 0.000000 0.000000 0.000000
0.703755 -0.459671 0.279071 0.000000 0.000000 0.000000
0.804326 0.169813 1.269446 0.000000 0.000000 0.000000
0.803986 0.178835 1.263754 0.000000 0.000000 0.000000
0.398437 -0.256727 0.355934 0.000000 0.000000 0.000000
0.804554 0.167692 1.271688 0.000000 0.000000 0.000000
0.801874 0.182201 1.272754 0.000000 0.000000 0.000000
0.802267 0.175053 1.265626 0.000000 0.000000 0.000000
0.361403 -0.274748 0.350970 0.000000 0.000000 0.000000
0.806123 0.171430 1.269894 0.000000 0.000000 0.000000
0.802752 0.164803 1.273448 0.000000 0.000000 0.000000
0.805379 0.161051 1.271899 0.000000 0.000000 0.000000
0.802003 0.169434 1.267995 0.000000 0.000000 0.000000
0.804282 0.170584 1.268687 0.000000 0.000000 0.000000
0.802783 0.178896 1.272500 0.000000 0.000000 0.000000
0.804703 0.167069 1.271366 0.000000 0.000000 0.000000
0.805338 0.166974 1.270603 0.000000 0.000000 0.000000
0.710325 -0.450741 0.272623 0.000000 0.000000 0.000000
0.722139 -0.493142 0.297836 0.000000 0.000000 0.000000
0.807774 0.168654 1.270874 0.000000 0.000000 0.000000
0.390794 -0.202779 0.397043 0.000000 0.000000 0.000000
0.391031 -0.214599 0.393894 0.000000 0.000000 0.000000
0.692779 -0.454988 0.277623 0.000000 0.000000 0.000000
0.705158 -0.446957 0.272371 0.000000 0.000000 0.000000
0.706256 -0.454453 0.273693 0.000000 0.000000 0.000000
0.709949 -0.449324 0.260821 0.000000 0.000000 0.000000
0.690623 -0.469252 0.259335 0.000000 0.000000 0.000000
0.721277 -0.499725 0.313005 0.000000 0.000000 0.000000
0.702864 -0.473389 0.270715 0.000000 0.000000 0.000000
0.704836 -0.473622 0.270639 0.000000 0.000000 0.000000
0.365921 -0.270677 0.352873 0.000000 0.000000 0.000000
0.715394 -0.446742 0.263369 0.000000 0.000000 0.000000
0.723729 -0.498484 0.304342 0.000000 0.000000 0.000000
0.700658 -0.459903 0.279299 0.000000 0.000000 0.000000
0.805636 0.165373 1.272027 0.000000 0.000000 0.000000
0.805967 0.173415 1.268909 0.000000 0.000000 0.000000
0.805025 0.171293 1.269746 0.000000 0.000000 0.000000
0.800484 0.183934 1.268385 0.000000 0.000000 0.000000
0.396980 -0.260430 0.357270 0.000000 0.000000 0.000000
0.681278 -0.461789 0.250380 0.000000 0.000000 0.000000
0.388260 -0.209622 0.399290 0.000000 0.000000 0.000000
0.370416 -0.266501 0.359859 0.000000 0.000000 0.000000
0.398761 -0.246798 0.359464 0.000000 0.000000 0.000000
0.389174 -0.218130 0.397053 0.000000 0.000000 0.000000
0.802246 0.178523 1.269443 0.000000 0.000000 0.000000
0.804362 0.171344 1.268092 0.000000 0.000000 0.000000
0.708440 -0.460879 0.276333 0.000000 0.000000 0.000000
0.708914 -0.454771 0.272740 0.000000 0.000000 0.000000
0.695344 -0.451516 0.273212 0.000000 0.000000 0.000000
0.695753 -0.458450 0.278283 0.000000 0.000000 0.000000
0.713446 -0.459473 0.277372 0.000000 0.000000 0.000000
0.702270 -0.456347 0.277989 0.000000 0.000000 0.000000
0.711700 -0.455806 0.278047 0.000000 0.000000 0.000000
0.727530 -0.489597 0.300619 0.000000 0.000000 0.000000
0.724461 -0.483604 0.297928 0.000000 0.000000 0.000000
0.809192 0.164055 1.267888 0.000000 0.000000 0.000000
0.805888 0.168150 1.265258 0.000000 0.000000 0.000000
0.809556 0.160506 1.277162 0.000000 0.000000 0.000000
0.807807 0.163982 1.272461 0.000000 0.000000 0.000000
0.399973 -0.252134 0.356454 0.000000 0.000000 0.000000
0.804242 0.175993 1.272674 0.000000 0.000000 0.000000
0.802765 0.175612 1.269859 0.000000 0.000000 0.000000
0.807657 0.167832 1.270828 0.000000 0.000000 0.000000
0.736101 -0.516825 0.316847 0.000000 0.000000 0.000000
0.725924 -0.502431 0.315434 0.000000 0.000000 0.000000
0.728945 -0.505976 0.318660 0.000000 0.000000 0.000000
0.727028 -0.515542 0.310789 0.000000 0.000000 0.000000
0.725714 -0.517456 0.316280 0.000000 0.000000 0.000000
0.729239 -0.516543 0.306704 0.000000 0.000000 0.000000
0.729643 -0.502080 0.319110 0.000000 0.000000 0.000000
0.723837 -0.517538 0.312014 0.000000 0.000000 0.000000
0.723238 -0.504289 0.308138 0.000000 0.000000 0.000000
0.731870 -0.519092 0.314929 0.000000 0.000000 0.000000
0.732962 -0.512801 0.317436 0.000000 0.000000 0.000000
0.728221 -0.510187 0.315088 0.000000 0.000000 0.000000
0.722883 -0.503752 0.311771 0.000000 0.000000 0.000000
0.734439 -0.517967 0.315171 0.000000 0.000000 0.000000
0.726256 -0.511939 0.316689 0.000000 0.000000 0.000000
0.721781 -0.510841 0.310580 0.000000 0.000000 0.000000
0.724847 -0.508262 0.312358 0.000000 0.000000 0.000000
0.722000 -0.509304 0.315365 0.000000 0.000000 0.000000
0.757814 -0.488275 0.290431 0.000000 0.000000 0.000000
0.752327 -0.484513 0.283200 0.000000 0.000000 0.000000
0.742963 -0.483187 0.281780 0.000000 0.000000 0.000000
0.753322 -0.487247 0.285706 0.000000 0.000000 0.000000
0.750998 -0.489914 0.288495 0.000000 0.000000 0.000000
0.759258 -0.485166 0.283534 0.000000 0.000000 0.000000
0.749434 -0.487049 0.292286 0.000000 0.000000 0.000000
0.751094 -0.485212 0.287924 0.000000 0.000000 0.000000
0.718185 -0.448690 0.252564 0.000000 0.000000 0.000000
0.747588 -0.483668 0.282444 0.000000 0.000000 0.000000
0.682361 -0.476355 0.265217 0.000000 0.000000 0.000000
0.680618 -0.475395 0.256207 0.000000 0.000000 0.000000
0.681314 -0.471761 0.271611 0.000000 0.000000 0.000000
0.694518 -0.479365 0.279525 0.000000 0.000000 0.000000
0.687962 -0.479140 0.266399 0.000000 0.000000 0.000000
0.683189 -0.467264 0.270581 0.000000 0.000000 0.000000
0.689541 -0.474209 0.273942 0.000000 0.000000 0.000000
0.683954 -0.467320 0.256096 0.000000 0.000000 0.000000
0.689035 -0.474555 0.256844 0.000000 0.000000 0.000000
0.682757 -0.467744 0.265865 0.000000 0.000000 0.000000
0.834391 0.199550 1.277802 0.000000 0.000000 0.000000
0.818841 0.197363 1.268501 0.000000 0.000000 0.000000
0.833261 0.195251 1.279762 0.000000 0.000000 0.000000
0.827075 0.198544 1.274492 0.000000 0.000000 0.000000
0.827547 0.188267 1.277802 0.000000 0.000000 0.000000
0.816995 0.190335 1.263899 0.000000 0.000000 0.000000
0.827324 0.183061 1.272731 0.000000 0.000000 0.000000
0.824292 0.196323 1.267446 0.000000 0.000000 0.000000
0.828335 0.192431 1.276495 0.000000 0.000000 0.000000
0.826596 0.194451 1.274494 0.000000 0.000000 0.000000
0.824031 0.186094 1.274120 0.000000 0.000000 0.000000
0.821993 0.197839 1.262186 0.000000 0.000000 0.000000
0.822329 0.191375 1.263987 0.000000 0.000000 0.000000
0.825417 0.183612 1.277524 0.000000 0.000000 0.000000
0.820537 0.194442 1.266933 0.000000 0.000000 0.000000
0.827291 0.198828 1.273576 0.000000 0.000000 0.000000
0.828825 0.179877 1.277544 0.000000 0.000000 0.000000
0.821020 0.190629 1.273263 0.000000 0.000000 0.000000
0.824602 0.191555 1.271371 0.000000 0.000000 0.000000
0.828351 0.189426 1.278684 0.000000 0.000000 0.000000
0.821661 0.190451 1.270320 0.000000 0.000000 0.000000
0.827079 0.185289 1.278810 0.000000 0.000000 0.000000
0.827661 0.186808 1.277335 0.000000 0.000000 0.000000
0.826922 0.184949 1.279438 0.000000 0.000000 0.000000
0.834403 0.183027 1.279339 0.000000 0.000000 0.000000
0.818479 0.199863 1.265549 0.000000 0.000000 0.000000
0.827154 0.185896 1.277132 0.000000 0.000000 0.000000
0.825690 0.182862 1.277642 0.000000 0.000000 0.000000
0.828152 0.185842 1.277340 0.000000 0.000000 0.000000
0.827750 0.186133 1.278300 0.000000 0.000000 0.000000
0.821356 0.187308 1.273620 0.000000 0.000000 0.000000
0.827873 0.189067 1.277418 0.000000 0.000000 0.000000
0.830847 0.189624 1.276676 0.000000 0.000000 0.000000
0.820406 0.194700 1.271526 0.000000 0.000000 0.000000
0.820995 0.192991 1.270946 0.000000 0.000000 0.000000
0.822748 0.197975 1.265442 0.000000 0.000000 0.000000
0.826869 0.189907 1.273147 0.000000 0.000000 0.000000
0.369943 -0.248380 0.346957 0.000000 0.000000 0.000000
0.388612 -0.209071 0.363657 0.000000 0.000000 0.000000
0.374066 -0.241661 0.333442 0.000000 0.000000 0.000000
0.367451 -0.240253 0.342247 0.000000 0.000000 0.000000
0.361165 -0.241577 0.340867 0.000000 0.000000 0.000000
0.367335 -0.240491 0.338232 0.000000 0.000000 0.000000
