ply
format ascii 1.0
comment VCGLIB generated
obj_info Generated by SPFormer!
element vertex 735
property float x
property float y
property float z
property float nx
property float ny
property float nz
end_header
0.111836 1.571234 2.698481 0.000000 0.000000 0.000000
0.089570 1.562571 2.681272 0.000000 0.000000 0.000000
0.131770 1.599214 2.713655 0.000000 0.000000 0.000000
0.112935 1.569709 2.700826 0.000000 0.000000 0.000000
0.116711 1.560202 2.689280 0.000000 0.000000 0.000000
0.099617 1.586739 2.743620 0.000000 0.000000 0.000000
0.106275 1.561935 2.691227 0.000000 0.000000 0.000000
0.107904 1.566152 2.691056 0.000000 0.000000 0.000000
0.080194 1.560147 2.690497 0.000000 0.000000 0.000000
0.097874 1.581643 2.723403 0.000000 0.000000 0.000000
0.104407 1.583727 2.720458 0.000000 0.000000 0.000000
0.104246 1.586702 2.714108 0.000000 0.000000 0.000000
0.092786 1.599143 2.736348 0.000000 0.000000 0.000000
0.103913 1.582952 2.715499 0.000000 0.000000 0.000000
0.096262 1.563121 2.681686 0.000000 0.000000 0.000000
0.096507 1.565999 2.687072 0.000000 0.000000 0.000000
0.110891 1.570295 2.706338 0.000000 0.000000 0.000000
0.090233 1.565215 2.689209 0.000000 0.000000 0.000000
0.103039 1.567965 2.695297 0.000000 0.000000 0.000000
0.106750 1.581883 2.712564 0.000000 0.000000 0.000000
0.081449 1.562521 2.703896 0.000000 0.000000 0.000000
0.101175 1.588527 2.719273 0.000000 0.000000 0.000000
0.113490 1.563990 2.707726 0.000000 0.000000 0.000000
0.099651 1.593869 2.731560 0.000000 0.000000 0.000000
0.102988 1.584220 2.714675 0.000000 0.000000 0.000000
0.136855 1.644778 2.820714 0.000000 0.000000 0.000000
0.131957 1.616453 2.765802 0.000000 0.000000 0.000000
0.181499 1.670585 2.857655 0.000000 0.000000 0.000000
0.190697 1.660699 2.861635 0.000000 0.000000 0.000000
0.147254 1.651096 2.823507 0.000000 0.000000 0.000000
0.127805 1.560861 2.699377 0.000000 0.000000 0.000000
0.104704 1.611775 2.749669 0.000000 0.000000 0.000000
0.117666 1.617095 2.770629 0.000000 0.000000 0.000000
0.142372 1.646547 2.811764 0.000000 0.000000 0.000000
0.123307 1.620453 2.764950 0.000000 0.000000 0.000000
0.168813 1.662600 2.835503 0.000000 0.000000 0.000000
0.169858 1.666859 2.859332 0.000000 0.000000 0.000000
0.123605 1.631031 2.803615 0.000000 0.000000 0.000000
0.135066 1.600728 2.747243 0.000000 0.000000 0.000000
0.114460 1.600233 2.758700 0.000000 0.000000 0.000000
0.106359 1.609536 2.773396 0.000000 0.000000 0.000000
0.118507 1.561237 2.693373 0.000000 0.000000 0.000000
0.152330 1.672965 2.853139 0.000000 0.000000 0.000000
0.121558 1.571675 2.697008 0.000000 0.000000 0.000000
0.121215 1.636336 2.791048 0.000000 0.000000 0.000000
0.112186 1.586149 2.713325 0.000000 0.000000 0.000000
0.119825 1.598323 2.730045 0.000000 0.000000 0.000000
0.134443 1.594438 2.742073 0.000000 0.000000 0.000000
0.134313 1.570395 2.717195 0.000000 0.000000 0.000000
0.158418 1.641936 2.820417 0.000000 0.000000 0.000000
0.173171 1.670338 2.852900 0.000000 0.000000 0.000000
0.132181 1.570752 2.707489 0.000000 0.000000 0.000000
0.109715 1.599659 2.730719 0.000000 0.000000 0.000000
0.156366 1.661101 2.848956 0.000000 0.000000 0.000000
0.147314 1.637446 2.817213 0.000000 0.000000 0.000000
0.179011 1.649847 2.838408 0.000000 0.000000 0.000000
0.165126 1.672498 2.855293 0.000000 0.000000 0.000000
0.153050 1.667542 2.844617 0.000000 0.000000 0.000000
0.164170 1.634412 2.822241 0.000000 0.000000 0.000000
0.145051 1.621944 2.802540 0.000000 0.000000 0.000000
0.121937 1.591429 2.738673 0.000000 0.000000 0.000000
0.146379 1.661072 2.819918 0.000000 0.000000 0.000000
0.108048 1.591354 2.729393 0.000000 0.000000 0.000000
0.115707 1.591278 2.726055 0.000000 0.000000 0.000000
0.122973 1.582693 2.699822 0.000000 0.000000 0.000000
0.168463 1.672989 2.854357 0.000000 0.000000 0.000000
0.163882 1.670145 2.854315 0.000000 0.000000 0.000000
0.116687 1.589680 2.718334 0.000000 0.000000 0.000000
0.133916 1.613719 2.801165 0.000000 0.000000 0.000000
0.110599 1.593926 2.737355 0.000000 0.000000 0.000000
0.113617 1.584515 2.725179 0.000000 0.000000 0.000000
0.117740 1.591534 2.723336 0.000000 0.000000 0.000000
0.148010 1.638737 2.826948 0.000000 0.000000 0.000000
0.163933 1.673057 2.866346 0.000000 0.000000 0.000000
0.169521 1.644520 2.840580 0.000000 0.000000 0.000000
0.155797 1.617692 2.795996 0.000000 0.000000 0.000000
0.133732 1.629732 2.806585 0.000000 0.000000 0.000000
0.148065 1.629066 2.808633 0.000000 0.000000 0.000000
0.137835 1.643803 2.810970 0.000000 0.000000 0.000000
0.141139 1.619640 2.785828 0.000000 0.000000 0.000000
0.132495 1.650839 2.809719 0.000000 0.000000 0.000000
0.116242 1.608114 2.752499 0.000000 0.000000 0.000000
0.131780 1.615366 2.790535 0.000000 0.000000 0.000000
0.137902 1.617133 2.769241 0.000000 0.000000 0.000000
0.114569 1.576030 2.703162 0.000000 0.000000 0.000000
0.148153 1.647345 2.814774 0.000000 0.000000 0.000000
0.106353 1.603172 2.736476 0.000000 0.000000 0.000000
0.162042 1.623847 2.807454 0.000000 0.000000 0.000000
0.161114 1.629691 2.806909 0.000000 0.000000 0.000000
0.150013 1.621417 2.800285 0.000000 0.000000 0.000000
0.136353 1.611010 2.754356 0.000000 0.000000 0.000000
0.139472 1.624274 2.781890 0.000000 0.000000 0.000000
0.148515 1.633046 2.801143 0.000000 0.000000 0.000000
0.134635 1.648912 2.810638 0.000000 0.000000 0.000000
0.110326 1.621274 2.786824 0.000000 0.000000 0.000000
0.115902 1.601928 2.733894 0.000000 0.000000 0.000000
0.105481 1.626366 2.775832 0.000000 0.000000 0.000000
0.113167 1.587226 2.739226 0.000000 0.000000 0.000000
0.100933 1.618861 2.754489 0.000000 0.000000 0.000000
0.178141 1.658010 2.847651 0.000000 0.000000 0.000000
0.149227 1.649754 2.851907 0.000000 0.000000 0.000000
0.143711 1.659285 2.858635 0.000000 0.000000 0.000000
0.175688 1.663796 2.843408 0.000000 0.000000 0.000000
0.117861 1.580612 2.715224 0.000000 0.000000 0.000000
0.124040 1.583670 2.733187 0.000000 0.000000 0.000000
0.150502 1.671305 2.848429 0.000000 0.000000 0.000000
0.114826 1.629425 2.750883 0.000000 0.000000 0.000000
0.155460 1.670434 2.848883 0.000000 0.000000 0.000000
0.185918 1.668748 2.859015 0.000000 0.000000 0.000000
0.155423 1.632192 2.820887 0.000000 0.000000 0.000000
0.138049 1.657250 2.808247 0.000000 0.000000 0.000000
0.181698 1.666538 2.858207 0.000000 0.000000 0.000000
0.134008 1.572933 2.739536 0.000000 0.000000 0.000000
0.125631 1.665142 2.839223 0.000000 0.000000 0.000000
0.146929 1.599935 2.764602 0.000000 0.000000 0.000000
0.183160 1.648642 2.852314 0.000000 0.000000 0.000000
0.143057 1.603729 2.757210 0.000000 0.000000 0.000000
0.162505 1.643975 2.838095 0.000000 0.000000 0.000000
0.118054 1.628515 2.774464 0.000000 0.000000 0.000000
0.116013 1.629689 2.776899 0.000000 0.000000 0.000000
0.168308 1.638819 2.815898 0.000000 0.000000 0.000000
0.165233 1.637968 2.827467 0.000000 0.000000 0.000000
0.122936 1.572739 2.702818 0.000000 0.000000 0.000000
0.129941 1.581296 2.712036 0.000000 0.000000 0.000000
0.159629 1.643486 2.816391 0.000000 0.000000 0.000000
0.131956 1.626493 2.794488 0.000000 0.000000 0.000000
0.125682 1.595796 2.751330 0.000000 0.000000 0.000000
0.124677 1.580284 2.731756 0.000000 0.000000 0.000000
0.134445 1.633201 2.805696 0.000000 0.000000 0.000000
0.148374 1.627092 2.795890 0.000000 0.000000 0.000000
0.128786 1.572577 2.714504 0.000000 0.000000 0.000000
0.158303 1.629242 2.817821 0.000000 0.000000 0.000000
0.124736 1.577302 2.710806 0.000000 0.000000 0.000000
0.148174 1.605397 2.781573 0.000000 0.000000 0.000000
0.157332 1.639095 2.804202 0.000000 0.000000 0.000000
0.126236 1.652885 2.834696 0.000000 0.000000 0.000000
0.136075 1.615046 2.753775 0.000000 0.000000 0.000000
0.158965 1.674931 2.856636 0.000000 0.000000 0.000000
0.149425 1.591617 2.773800 0.000000 0.000000 0.000000
0.129004 1.659837 2.833537 0.000000 0.000000 0.000000
0.119267 1.648963 2.811996 0.000000 0.000000 0.000000
0.109473 1.602729 2.768091 0.000000 0.000000 0.000000
0.104875 1.624770 2.769541 0.000000 0.000000 0.000000
0.170872 1.627025 2.810863 0.000000 0.000000 0.000000
0.127521 1.657047 2.822168 0.000000 0.000000 0.000000
0.129735 1.666713 2.838657 0.000000 0.000000 0.000000
0.109114 1.629512 2.790119 0.000000 0.000000 0.000000
0.119402 1.644320 2.803070 0.000000 0.000000 0.000000
0.105718 1.626278 2.772986 0.000000 0.000000 0.000000
0.146535 1.652333 2.820110 0.000000 0.000000 0.000000
0.102035 1.614803 2.750846 0.000000 0.000000 0.000000
0.096207 1.616974 2.761035 0.000000 0.000000 0.000000
0.112965 1.621716 2.783960 0.000000 0.000000 0.000000
0.117891 1.630862 2.781814 0.000000 0.000000 0.000000
0.161176 1.664614 2.839951 0.000000 0.000000 0.000000
0.143015 1.601183 2.764564 0.000000 0.000000 0.000000
0.099712 1.616774 2.755200 0.000000 0.000000 0.000000
0.158686 1.662820 2.828560 0.000000 0.000000 0.000000
0.101567 1.629221 2.779559 0.000000 0.000000 0.000000
0.141397 1.657350 2.851468 0.000000 0.000000 0.000000
0.115782 1.630025 2.778760 0.000000 0.000000 0.000000
0.179311 1.644115 2.830708 0.000000 0.000000 0.000000
0.102371 1.596714 2.729170 0.000000 0.000000 0.000000
0.166493 1.649459 2.842205 0.000000 0.000000 0.000000
0.135897 1.662269 2.848832 0.000000 0.000000 0.000000
0.146548 1.603716 2.779545 0.000000 0.000000 0.000000
0.147667 1.600626 2.762765 0.000000 0.000000 0.000000
0.123288 1.628802 2.780055 0.000000 0.000000 0.000000
0.098334 1.601007 2.740204 0.000000 0.000000 0.000000
0.174837 1.661821 2.853042 0.000000 0.000000 0.000000
0.134220 1.573330 2.715322 0.000000 0.000000 0.000000
0.115260 1.568030 2.702692 0.000000 0.000000 0.000000
0.135715 1.582839 2.736232 0.000000 0.000000 0.000000
0.130235 1.586855 2.731907 0.000000 0.000000 0.000000
0.176035 1.672481 2.858654 0.000000 0.000000 0.000000
0.124156 1.619184 2.765913 0.000000 0.000000 0.000000
0.127856 1.614200 2.751102 0.000000 0.000000 0.000000
0.138366 1.579281 2.728810 0.000000 0.000000 0.000000
0.147119 1.637168 2.827644 0.000000 0.000000 0.000000
0.110646 1.618338 2.766907 0.000000 0.000000 0.000000
0.122105 1.623896 2.771966 0.000000 0.000000 0.000000
0.136450 1.585379 2.711181 0.000000 0.000000 0.000000
0.145083 1.665619 2.843076 0.000000 0.000000 0.000000
0.127837 1.580412 2.723295 0.000000 0.000000 0.000000
0.119502 1.614013 2.749602 0.000000 0.000000 0.000000
0.153624 1.673413 2.853398 0.000000 0.000000 0.000000
0.121188 1.605827 2.739751 0.000000 0.000000 0.000000
0.139016 1.584447 2.732566 0.000000 0.000000 0.000000
0.154611 1.677135 2.850201 0.000000 0.000000 0.000000
0.152171 1.629853 2.821810 0.000000 0.000000 0.000000
0.139864 1.621402 2.783928 0.000000 0.000000 0.000000
0.114457 1.584096 2.708966 0.000000 0.000000 0.000000
0.120891 1.651054 2.817124 0.000000 0.000000 0.000000
0.159360 1.638108 2.833979 0.000000 0.000000 0.000000
0.188294 1.666431 2.849236 0.000000 0.000000 0.000000
0.150554 1.633554 2.799642 0.000000 0.000000 0.000000
0.136981 1.585160 2.734115 0.000000 0.000000 0.000000
0.164718 1.650601 2.841158 0.000000 0.000000 0.000000
0.179593 1.668684 2.852275 0.000000 0.000000 0.000000
0.164303 1.632368 2.840719 0.000000 0.000000 0.000000
0.181699 1.666841 2.858829 0.000000 0.000000 0.000000
0.139846 1.645935 2.831527 0.000000 0.000000 0.000000
0.133233 1.584649 2.732902 0.000000 0.000000 0.000000
0.126172 1.573282 2.701470 0.000000 0.000000 0.000000
0.122359 1.574875 2.719779 0.000000 0.000000 0.000000
0.129158 1.569936 2.704382 0.000000 0.000000 0.000000
0.146591 1.610473 2.774781 0.000000 0.000000 0.000000
0.141797 1.606055 2.779678 0.000000 0.000000 0.000000
0.129271 1.607878 2.741566 0.000000 0.000000 0.000000
0.110700 1.607796 2.742929 0.000000 0.000000 0.000000
0.108726 1.631931 2.804960 0.000000 0.000000 0.000000
0.132970 1.576043 2.725971 0.000000 0.000000 0.000000
0.153210 1.616679 2.786891 0.000000 0.000000 0.000000
0.121857 1.566832 2.703713 0.000000 0.000000 0.000000
0.125528 1.564727 2.695117 0.000000 0.000000 0.000000
0.122323 1.582346 2.708632 0.000000 0.000000 0.000000
0.145719 1.618470 2.773028 0.000000 0.000000 0.000000
0.114554 1.578894 2.721202 0.000000 0.000000 0.000000
0.135914 1.624894 2.783199 0.000000 0.000000 0.000000
0.100187 1.609668 2.738462 0.000000 0.000000 0.000000
0.152942 1.619874 2.794172 0.000000 0.000000 0.000000
0.116575 1.604520 2.732251 0.000000 0.000000 0.000000
0.124374 1.616449 2.740092 0.000000 0.000000 0.000000
0.117606 1.607999 2.742792 0.000000 0.000000 0.000000
0.119668 1.619523 2.763572 0.000000 0.000000 0.000000
0.103677 1.615914 2.754164 0.000000 0.000000 0.000000
0.116564 1.577632 2.703073 0.000000 0.000000 0.000000
0.132586 1.568105 2.706430 0.000000 0.000000 0.000000
0.137438 1.579814 2.725295 0.000000 0.000000 0.000000
0.115621 1.583650 2.712371 0.000000 0.000000 0.000000
0.150984 1.611857 2.770868 0.000000 0.000000 0.000000
0.116845 1.588533 2.716893 0.000000 0.000000 0.000000
0.127989 1.586704 2.747188 0.000000 0.000000 0.000000
0.173936 1.671928 2.858450 0.000000 0.000000 0.000000
0.183174 1.663291 2.847140 0.000000 0.000000 0.000000
0.173736 1.666675 2.856760 0.000000 0.000000 0.000000
0.170033 1.654785 2.830650 0.000000 0.000000 0.000000
0.169152 1.643794 2.825537 0.000000 0.000000 0.000000
0.113740 1.647279 2.808877 0.000000 0.000000 0.000000
0.108028 1.623669 2.763136 0.000000 0.000000 0.000000
0.108801 1.638620 2.805417 0.000000 0.000000 0.000000
0.126421 1.645370 2.805078 0.000000 0.000000 0.000000
0.100356 1.621054 2.764975 0.000000 0.000000 0.000000
0.131286 1.652657 2.815511 0.000000 0.000000 0.000000
0.114599 1.643457 2.807734 0.000000 0.000000 0.000000
0.124654 1.635254 2.789860 0.000000 0.000000 0.000000
0.113486 1.595091 2.761654 0.000000 0.000000 0.000000
0.185241 1.671363 2.856122 0.000000 0.000000 0.000000
0.187630 1.670031 2.858049 0.000000 0.000000 0.000000
0.129829 1.585661 2.723203 0.000000 0.000000 0.000000
0.159469 1.674215 2.855999 0.000000 0.000000 0.000000
0.120398 1.625703 2.767725 0.000000 0.000000 0.000000
0.102251 1.599277 2.739217 0.000000 0.000000 0.000000
0.177195 1.670954 2.845341 0.000000 0.000000 0.000000
0.121079 1.618910 2.773589 0.000000 0.000000 0.000000
0.108686 1.581629 2.716923 0.000000 0.000000 0.000000
0.110278 1.641890 2.796654 0.000000 0.000000 0.000000
0.189623 1.671367 2.864192 0.000000 0.000000 0.000000
0.175354 1.669918 2.864009 0.000000 0.000000 0.000000
0.101794 1.596708 2.730422 0.000000 0.000000 0.000000
0.192192 1.667924 2.857260 0.000000 0.000000 0.000000
0.132907 1.580719 2.721692 0.000000 0.000000 0.000000
0.107320 1.607902 2.765521 0.000000 0.000000 0.000000
0.103213 1.591425 2.721509 0.000000 0.000000 0.000000
0.183474 1.670275 2.863962 0.000000 0.000000 0.000000
0.100805 1.618444 2.770430 0.000000 0.000000 0.000000
0.161110 1.667725 2.856453 0.000000 0.000000 0.000000
0.183623 1.667348 2.854810 0.000000 0.000000 0.000000
0.117102 1.658232 2.826240 0.000000 0.000000 0.000000
0.185928 1.667195 2.856186 0.000000 0.000000 0.000000
0.139804 1.581378 2.735294 0.000000 0.000000 0.000000
0.125765 1.670522 2.846566 0.000000 0.000000 0.000000
0.146213 1.651965 2.830747 0.000000 0.000000 0.000000
0.135473 1.665988 2.840979 0.000000 0.000000 0.000000
0.188343 1.671534 2.861968 0.000000 0.000000 0.000000
0.184084 1.651232 2.842776 0.000000 0.000000 0.000000
0.186590 1.670621 2.858898 0.000000 0.000000 0.000000
0.106180 1.642915 2.794148 0.000000 0.000000 0.000000
0.099523 1.620306 2.767084 0.000000 0.000000 0.000000
0.135675 1.568007 2.709539 0.000000 0.000000 0.000000
0.102609 1.598249 2.743089 0.000000 0.000000 0.000000
0.094716 1.601746 2.761003 0.000000 0.000000 0.000000
0.162636 1.648114 2.830555 0.000000 0.000000 0.000000
0.107319 1.601925 2.766498 0.000000 0.000000 0.000000
0.163029 1.632842 2.808760 0.000000 0.000000 0.000000
0.102133 1.600956 2.751763 0.000000 0.000000 0.000000
0.097882 1.610997 2.747161 0.000000 0.000000 0.000000
0.104604 1.612586 2.768649 0.000000 0.000000 0.000000
0.102503 1.606986 2.761719 0.000000 0.000000 0.000000
0.152983 1.614035 2.779046 0.000000 0.000000 0.000000
0.155124 1.609406 2.775702 0.000000 0.000000 0.000000
0.172476 1.649793 2.838067 0.000000 0.000000 0.000000
0.130736 1.563044 2.696444 0.000000 0.000000 0.000000
0.113018 1.611617 2.745646 0.000000 0.000000 0.000000
0.163682 1.648869 2.844412 0.000000 0.000000 0.000000
0.132429 1.568606 2.713101 0.000000 0.000000 0.000000
0.099028 1.607489 2.755094 0.000000 0.000000 0.000000
0.122075 1.619255 2.758532 0.000000 0.000000 0.000000
0.141911 1.589217 2.744783 0.000000 0.000000 0.000000
0.150954 1.607860 2.768247 0.000000 0.000000 0.000000
0.108651 1.598803 2.758594 0.000000 0.000000 0.000000
0.108536 1.615743 2.750362 0.000000 0.000000 0.000000
0.113852 1.643255 2.812901 0.000000 0.000000 0.000000
0.095115 1.618369 2.779463 0.000000 0.000000 0.000000
0.166775 1.672046 2.854607 0.000000 0.000000 0.000000
0.096985 1.614981 2.764828 0.000000 0.000000 0.000000
0.181542 1.670691 2.860091 0.000000 0.000000 0.000000
0.129531 1.626280 2.792295 0.000000 0.000000 0.000000
0.118898 1.639302 2.814203 0.000000 0.000000 0.000000
0.115942 1.632028 2.808353 0.000000 0.000000 0.000000
0.109693 1.631220 2.796986 0.000000 0.000000 0.000000
0.116140 1.623513 2.797297 0.000000 0.000000 0.000000
0.111964 1.641452 2.811113 0.000000 0.000000 0.000000
0.113341 1.637382 2.802190 0.000000 0.000000 0.000000
0.120467 1.638123 2.798776 0.000000 0.000000 0.000000
0.166099 1.675879 2.857161 0.000000 0.000000 0.000000
0.150628 1.616812 2.781232 0.000000 0.000000 0.000000
0.134824 1.622508 2.780121 0.000000 0.000000 0.000000
0.147107 1.608259 2.759995 0.000000 0.000000 0.000000
0.173961 1.674838 2.857324 0.000000 0.000000 0.000000
0.119335 1.576536 2.724798 0.000000 0.000000 0.000000
0.122901 1.585132 2.745448 0.000000 0.000000 0.000000
0.119253 1.579201 2.735493 0.000000 0.000000 0.000000
0.179598 1.674321 2.858612 0.000000 0.000000 0.000000
0.107359 1.631170 2.777184 0.000000 0.000000 0.000000
0.145481 1.597428 2.765114 0.000000 0.000000 0.000000
0.123353 1.607465 2.769439 0.000000 0.000000 0.000000
0.137309 1.571207 2.775628 0.000000 0.000000 0.000000
0.144473 1.607568 2.754600 0.000000 0.000000 0.000000
0.104905 1.626834 2.755863 0.000000 0.000000 0.000000
0.134081 1.572406 2.719683 0.000000 0.000000 0.000000
0.128028 1.583964 2.719883 0.000000 0.000000 0.000000
0.124350 1.651547 2.820754 0.000000 0.000000 0.000000
0.139484 1.581697 2.731707 0.000000 0.000000 0.000000
0.151351 1.620284 2.812364 0.000000 0.000000 0.000000
0.153176 1.642191 2.807570 0.000000 0.000000 0.000000
0.135758 1.629649 2.794418 0.000000 0.000000 0.000000
0.119918 1.647233 2.816311 0.000000 0.000000 0.000000
0.144863 1.634145 2.806386 0.000000 0.000000 0.000000
0.135748 1.630143 2.770189 0.000000 0.000000 0.000000
0.143995 1.585142 2.792435 0.000000 0.000000 0.000000
0.140842 1.585827 2.736438 0.000000 0.000000 0.000000
0.146637 1.637269 2.804228 0.000000 0.000000 0.000000
0.179067 1.678368 2.858674 0.000000 0.000000 0.000000
0.137825 1.578833 2.732249 0.000000 0.000000 0.000000
0.139904 1.589582 2.723643 0.000000 0.000000 0.000000
0.160721 1.630475 2.810627 0.000000 0.000000 0.000000
0.117072 1.646863 2.806814 0.000000 0.000000 0.000000
0.116895 1.620485 2.784315 0.000000 0.000000 0.000000
0.136426 1.612835 2.751754 0.000000 0.000000 0.000000
0.139552 1.579421 2.740370 0.000000 0.000000 0.000000
0.133500 1.626218 2.800578 0.000000 0.000000 0.000000
0.145591 1.592384 2.752323 0.000000 0.000000 0.000000
0.110945 1.620075 2.788132 0.000000 0.000000 0.000000
0.158619 1.665134 2.850149 0.000000 0.000000 0.000000
0.154467 1.664513 2.840239 0.000000 0.000000 0.000000
0.166236 1.662563 2.849808 0.000000 0.000000 0.000000
0.149805 1.649556 2.815474 0.000000 0.000000 0.000000
0.133051 1.649128 2.843637 0.000000 0.000000 0.000000
0.161653 1.661812 2.826357 0.000000 0.000000 0.000000
0.168184 1.667613 2.846584 0.000000 0.000000 0.000000
0.172017 1.667157 2.849251 0.000000 0.000000 0.000000
0.129600 1.660203 2.826712 0.000000 0.000000 0.000000
0.127134 1.663429 2.834511 0.000000 0.000000 0.000000
0.142114 1.660278 2.826350 0.000000 0.000000 0.000000
0.140343 1.582232 2.733888 0.000000 0.000000 0.000000
0.189056 1.667634 2.852035 0.000000 0.000000 0.000000
0.141590 1.591516 2.747696 0.000000 0.000000 0.000000
0.135163 1.573526 2.718977 0.000000 0.000000 0.000000
0.123393 1.578827 2.716505 0.000000 0.000000 0.000000
0.139996 1.582336 2.728474 0.000000 0.000000 0.000000
0.127415 1.634371 2.810967 0.000000 0.000000 0.000000
0.140569 1.597039 2.743262 0.000000 0.000000 0.000000
0.129299 1.664165 2.844389 0.000000 0.000000 0.000000
0.141037 1.590277 2.742054 0.000000 0.000000 0.000000
0.135711 1.574708 2.724324 0.000000 0.000000 0.000000
0.127309 1.587531 2.737987 0.000000 0.000000 0.000000
0.136154 1.581482 2.727112 0.000000 0.000000 0.000000
0.135830 1.667665 2.846793 0.000000 0.000000 0.000000
0.133350 1.635904 2.796959 0.000000 0.000000 0.000000
0.128193 1.655143 2.819770 0.000000 0.000000 0.000000
0.153075 1.607115 2.776383 0.000000 0.000000 0.000000
0.104060 1.641454 2.802826 0.000000 0.000000 0.000000
0.150952 1.626420 2.780981 0.000000 0.000000 0.000000
0.161399 1.629999 2.814719 0.000000 0.000000 0.000000
0.120345 1.661754 2.833002 0.000000 0.000000 0.000000
0.147892 1.611553 2.783763 0.000000 0.000000 0.000000
0.154413 1.608400 2.783170 0.000000 0.000000 0.000000
0.137180 1.616801 2.791781 0.000000 0.000000 0.000000
0.154214 1.667374 2.839291 0.000000 0.000000 0.000000
0.114894 1.580678 2.716765 0.000000 0.000000 0.000000
0.171348 1.666483 2.850009 0.000000 0.000000 0.000000
0.160741 1.625009 2.809943 0.000000 0.000000 0.000000
0.143696 1.615667 2.765975 0.000000 0.000000 0.000000
0.129231 1.630318 2.786309 0.000000 0.000000 0.000000
0.158071 1.632485 2.801462 0.000000 0.000000 0.000000
0.160455 1.624728 2.794838 0.000000 0.000000 0.000000
0.142008 1.588090 2.744487 0.000000 0.000000 0.000000
0.140394 1.579240 2.735691 0.000000 0.000000 0.000000
0.126227 1.636957 2.797531 0.000000 0.000000 0.000000
0.162278 1.631895 2.810131 0.000000 0.000000 0.000000
0.121692 1.623640 2.790464 0.000000 0.000000 0.000000
0.160170 1.629397 2.804711 0.000000 0.000000 0.000000
0.125533 1.658724 2.833135 0.000000 0.000000 0.000000
0.101324 1.617497 2.772067 0.000000 0.000000 0.000000
0.171358 1.642102 2.821588 0.000000 0.000000 0.000000
0.169557 1.647073 2.815485 0.000000 0.000000 0.000000
0.137232 1.634546 2.806863 0.000000 0.000000 0.000000
0.128865 1.661126 2.843951 0.000000 0.000000 0.000000
0.115898 1.619560 2.757484 0.000000 0.000000 0.000000
0.170003 1.650476 2.823056 0.000000 0.000000 0.000000
0.133443 1.649145 2.839299 0.000000 0.000000 0.000000
0.116732 1.654474 2.823127 0.000000 0.000000 0.000000
0.173810 1.637374 2.822767 0.000000 0.000000 0.000000
0.133998 1.654153 2.841530 0.000000 0.000000 0.000000
0.114033 1.649685 2.816524 0.000000 0.000000 0.000000
0.137753 1.596969 2.759361 0.000000 0.000000 0.000000
0.140754 1.587134 2.740876 0.000000 0.000000 0.000000
0.132123 1.579029 2.731765 0.000000 0.000000 0.000000
0.128432 1.592976 2.752710 0.000000 0.000000 0.000000
0.119048 1.582224 2.739809 0.000000 0.000000 0.000000
0.140270 1.589936 2.746849 0.000000 0.000000 0.000000
0.143114 1.595542 2.747758 0.000000 0.000000 0.000000
0.143141 1.605241 2.774742 0.000000 0.000000 0.000000
0.124749 1.566702 2.709692 0.000000 0.000000 0.000000
0.132355 1.591908 2.728825 0.000000 0.000000 0.000000
0.165336 1.631909 2.815694 0.000000 0.000000 0.000000
0.191022 1.655927 2.838098 0.000000 0.000000 0.000000
0.169315 1.635005 2.816665 0.000000 0.000000 0.000000
0.165974 1.629572 2.814592 0.000000 0.000000 0.000000
0.160619 1.624301 2.804086 0.000000 0.000000 0.000000
0.157199 1.620816 2.803523 0.000000 0.000000 0.000000
0.166490 1.630185 2.820040 0.000000 0.000000 0.000000
0.168218 1.632447 2.819345 0.000000 0.000000 0.000000
0.188617 1.667680 2.855025 0.000000 0.000000 0.000000
0.166336 1.673488 2.855183 0.000000 0.000000 0.000000
0.111301 1.625751 2.799854 0.000000 0.000000 0.000000
0.175204 1.666939 2.857090 0.000000 0.000000 0.000000
0.185583 1.664893 2.857766 0.000000 0.000000 0.000000
0.101437 1.626928 2.773676 0.000000 0.000000 0.000000
0.116107 1.640026 2.807916 0.000000 0.000000 0.000000
0.159724 1.678660 2.853741 0.000000 0.000000 0.000000
0.109741 1.639036 2.797599 0.000000 0.000000 0.000000
0.170724 1.666957 2.857897 0.000000 0.000000 0.000000
0.107341 1.637886 2.793257 0.000000 0.000000 0.000000
0.114263 1.642969 2.800862 0.000000 0.000000 0.000000
0.114599 1.647416 2.812981 0.000000 0.000000 0.000000
0.186734 1.656120 2.844391 0.000000 0.000000 0.000000
0.183591 1.659207 2.852418 0.000000 0.000000 0.000000
0.104810 1.635164 2.788666 0.000000 0.000000 0.000000
0.105669 1.634329 2.785209 0.000000 0.000000 0.000000
0.167097 1.679311 2.855156 0.000000 0.000000 0.000000
0.115651 1.635063 2.790073 0.000000 0.000000 0.000000
0.164005 1.671133 2.856325 0.000000 0.000000 0.000000
0.122703 1.646542 2.807221 0.000000 0.000000 0.000000
0.138030 1.576509 2.725116 0.000000 0.000000 0.000000
0.124545 1.606136 2.742689 0.000000 0.000000 0.000000
0.131927 1.610599 2.745486 0.000000 0.000000 0.000000
0.139320 1.594215 2.754041 0.000000 0.000000 0.000000
0.145318 1.596641 2.754788 0.000000 0.000000 0.000000
0.129132 1.598881 2.739302 0.000000 0.000000 0.000000
0.140710 1.595264 2.752567 0.000000 0.000000 0.000000
0.135610 1.596622 2.738168 0.000000 0.000000 0.000000
0.128902 1.597263 2.731895 0.000000 0.000000 0.000000
0.135842 1.592539 2.756340 0.000000 0.000000 0.000000
0.136131 1.599640 2.730782 0.000000 0.000000 0.000000
0.134915 1.585356 2.733550 0.000000 0.000000 0.000000
0.129473 1.599847 2.733612 0.000000 0.000000 0.000000
0.155215 1.624488 2.795271 0.000000 0.000000 0.000000
0.159457 1.624871 2.798753 0.000000 0.000000 0.000000
0.143801 1.619251 2.784867 0.000000 0.000000 0.000000
0.156698 1.616348 2.791168 0.000000 0.000000 0.000000
0.174833 1.672557 2.861432 0.000000 0.000000 0.000000
0.164615 1.673109 2.856042 0.000000 0.000000 0.000000
0.140299 1.645028 2.835622 0.000000 0.000000 0.000000
0.116120 1.562969 2.706291 0.000000 0.000000 0.000000
0.142075 1.656621 2.842655 0.000000 0.000000 0.000000
0.128371 1.660833 2.834911 0.000000 0.000000 0.000000
0.121650 1.661051 2.832425 0.000000 0.000000 0.000000
0.141253 1.653393 2.837044 0.000000 0.000000 0.000000
0.112736 1.571715 2.707192 0.000000 0.000000 0.000000
0.106015 1.587793 2.713984 0.000000 0.000000 0.000000
0.135746 1.663038 2.843683 0.000000 0.000000 0.000000
0.115329 1.657924 2.821263 0.000000 0.000000 0.000000
0.135407 1.662401 2.846387 0.000000 0.000000 0.000000
0.115935 1.622938 2.791744 0.000000 0.000000 0.000000
0.110512 1.640764 2.793071 0.000000 0.000000 0.000000
0.099421 1.596428 2.733957 0.000000 0.000000 0.000000
0.174124 1.649823 2.831009 0.000000 0.000000 0.000000
0.176927 1.670885 2.862455 0.000000 0.000000 0.000000
0.105162 1.626128 2.785440 0.000000 0.000000 0.000000
0.175777 1.664834 2.859428 0.000000 0.000000 0.000000
0.183422 1.671959 2.859105 0.000000 0.000000 0.000000
0.183234 1.661027 2.856574 0.000000 0.000000 0.000000
0.106618 1.580333 2.733220 0.000000 0.000000 0.000000
0.187330 1.661824 2.843354 0.000000 0.000000 0.000000
0.101985 1.629487 2.781147 0.000000 0.000000 0.000000
0.102882 1.588715 2.733712 0.000000 0.000000 0.000000
0.100688 1.596347 2.738934 0.000000 0.000000 0.000000
0.180013 1.650491 2.838929 0.000000 0.000000 0.000000
0.188517 1.667294 2.856271 0.000000 0.000000 0.000000
0.181714 1.654170 2.837605 0.000000 0.000000 0.000000
0.175419 1.647984 2.834046 0.000000 0.000000 0.000000
0.106860 1.587745 2.743354 0.000000 0.000000 0.000000
0.122844 1.583684 2.713921 0.000000 0.000000 0.000000
0.129388 1.574517 2.723561 0.000000 0.000000 0.000000
0.106067 1.600539 2.730152 0.000000 0.000000 0.000000
0.117835 1.570011 2.705922 0.000000 0.000000 0.000000
0.105494 1.592437 2.721574 0.000000 0.000000 0.000000
0.187397 1.665640 2.852566 0.000000 0.000000 0.000000
0.156018 1.624008 2.803206 0.000000 0.000000 0.000000
0.110202 1.581199 2.710068 0.000000 0.000000 0.000000
0.123619 1.589311 2.721898 0.000000 0.000000 0.000000
0.111449 1.587759 2.716164 0.000000 0.000000 0.000000
0.097118 1.604170 2.736641 0.000000 0.000000 0.000000
0.184258 1.655275 2.850656 0.000000 0.000000 0.000000
0.132276 1.564837 2.699478 0.000000 0.000000 0.000000
0.111429 1.586939 2.751078 0.000000 0.000000 0.000000
0.108944 1.591700 2.716152 0.000000 0.000000 0.000000
0.131613 1.568006 2.702322 0.000000 0.000000 0.000000
0.190163 1.657416 2.838735 0.000000 0.000000 0.000000
0.168016 1.630219 2.814641 0.000000 0.000000 0.000000
0.160605 1.638163 2.813636 0.000000 0.000000 0.000000
0.177931 1.649674 2.831814 0.000000 0.000000 0.000000
0.174019 1.639621 2.831336 0.000000 0.000000 0.000000
0.167607 1.641747 2.808671 0.000000 0.000000 0.000000
0.171288 1.639995 2.824195 0.000000 0.000000 0.000000
0.167287 1.631916 2.810193 0.000000 0.000000 0.000000
0.172173 1.636751 2.830062 0.000000 0.000000 0.000000
0.153563 1.650869 2.815608 0.000000 0.000000 0.000000
0.152083 1.641379 2.812839 0.000000 0.000000 0.000000
0.114706 1.598875 2.764450 0.000000 0.000000 0.000000
0.121530 1.583804 2.757793 0.000000 0.000000 0.000000
0.124939 1.609025 2.775261 0.000000 0.000000 0.000000
0.144344 1.597745 2.771465 0.000000 0.000000 0.000000
0.152033 1.605462 2.784033 0.000000 0.000000 0.000000
0.113260 1.591514 2.767566 0.000000 0.000000 0.000000
0.128944 1.595604 2.768235 0.000000 0.000000 0.000000
0.147133 1.598521 2.770191 0.000000 0.000000 0.000000
0.113593 1.632402 2.799987 0.000000 0.000000 0.000000
0.143545 1.592568 2.764482 0.000000 0.000000 0.000000
0.168872 1.627091 2.806682 0.000000 0.000000 0.000000
0.164951 1.626094 2.814895 0.000000 0.000000 0.000000
0.178102 1.647430 2.839096 0.000000 0.000000 0.000000
0.143048 1.619130 2.749541 0.000000 0.000000 0.000000
0.167442 1.636939 2.813622 0.000000 0.000000 0.000000
0.182508 1.642684 2.821288 0.000000 0.000000 0.000000
0.103793 1.633492 2.781065 0.000000 0.000000 0.000000
0.132517 1.623316 2.760285 0.000000 0.000000 0.000000
0.173080 1.636325 2.816114 0.000000 0.000000 0.000000
0.172796 1.645375 2.823364 0.000000 0.000000 0.000000
0.109649 1.626960 2.771508 0.000000 0.000000 0.000000
0.187099 1.663667 2.833742 0.000000 0.000000 0.000000
0.148314 1.610783 2.785863 0.000000 0.000000 0.000000
0.131936 1.606660 2.768623 0.000000 0.000000 0.000000
0.159892 1.662441 2.845978 0.000000 0.000000 0.000000
0.162084 1.675135 2.843638 0.000000 0.000000 0.000000
0.149466 1.605724 2.777842 0.000000 0.000000 0.000000
0.136778 1.603881 2.771220 0.000000 0.000000 0.000000
0.117647 1.624055 2.782169 0.000000 0.000000 0.000000
0.124194 1.654773 2.819241 0.000000 0.000000 0.000000
0.151417 1.611863 2.792758 0.000000 0.000000 0.000000
0.153598 1.597504 2.782854 0.000000 0.000000 0.000000
0.186070 1.663345 2.847082 0.000000 0.000000 0.000000
0.157553 1.661860 2.830354 0.000000 0.000000 0.000000
0.153234 1.664365 2.826899 0.000000 0.000000 0.000000
0.145077 1.593927 2.757045 0.000000 0.000000 0.000000
0.122236 1.613011 2.787089 0.000000 0.000000 0.000000
0.114327 1.611755 2.789383 0.000000 0.000000 0.000000
0.137293 1.609386 2.784422 0.000000 0.000000 0.000000
0.118141 1.599972 2.777015 0.000000 0.000000 0.000000
0.116734 1.606038 2.775917 0.000000 0.000000 0.000000
0.155532 1.614807 2.794739 0.000000 0.000000 0.000000
0.152862 1.610687 2.787930 0.000000 0.000000 0.000000
0.149465 1.609530 2.773665 0.000000 0.000000 0.000000
0.108366 1.636765 2.792115 0.000000 0.000000 0.000000
0.109666 1.648735 2.804791 0.000000 0.000000 0.000000
0.167102 1.671097 2.853740 0.000000 0.000000 0.000000
0.164910 1.673817 2.858923 0.000000 0.000000 0.000000
0.181482 1.668337 2.859832 0.000000 0.000000 0.000000
0.115473 1.650816 2.817444 0.000000 0.000000 0.000000
0.118414 1.656018 2.828836 0.000000 0.000000 0.000000
0.120577 1.650241 2.826662 0.000000 0.000000 0.000000
0.121406 1.656072 2.827182 0.000000 0.000000 0.000000
0.190976 1.672139 2.854568 0.000000 0.000000 0.000000
0.114196 1.598548 2.767592 0.000000 0.000000 0.000000
0.130625 1.639910 2.819171 0.000000 0.000000 0.000000
0.121953 1.656220 2.830600 0.000000 0.000000 0.000000
0.122276 1.645523 2.826681 0.000000 0.000000 0.000000
0.114413 1.651624 2.822378 0.000000 0.000000 0.000000
0.126678 1.654588 2.826852 0.000000 0.000000 0.000000
0.195294 1.672523 2.856845 0.000000 0.000000 0.000000
0.112725 1.607809 2.782038 0.000000 0.000000 0.000000
0.145874 1.589873 2.746250 0.000000 0.000000 0.000000
0.143946 1.598141 2.749645 0.000000 0.000000 0.000000
0.149090 1.593254 2.752069 0.000000 0.000000 0.000000
0.142715 1.587134 2.741414 0.000000 0.000000 0.000000
0.141361 1.586049 2.741490 0.000000 0.000000 0.000000
0.147390 1.604342 2.759970 0.000000 0.000000 0.000000
0.145521 1.593957 2.745612 0.000000 0.000000 0.000000
0.102174 1.622797 2.765025 0.000000 0.000000 0.000000
0.111362 1.602000 2.743083 0.000000 0.000000 0.000000
0.142072 1.596744 2.767455 0.000000 0.000000 0.000000
0.148139 1.594223 2.751742 0.000000 0.000000 0.000000
0.150264 1.603418 2.765816 0.000000 0.000000 0.000000
0.138650 1.594428 2.749729 0.000000 0.000000 0.000000
0.099922 1.617895 2.756614 0.000000 0.000000 0.000000
0.126320 1.645795 2.825126 0.000000 0.000000 0.000000
0.101964 1.590650 2.726883 0.000000 0.000000 0.000000
0.135337 1.645571 2.835498 0.000000 0.000000 0.000000
0.111969 1.580256 2.723770 0.000000 0.000000 0.000000
0.098802 1.602504 2.746320 0.000000 0.000000 0.000000
0.135960 1.626662 2.822396 0.000000 0.000000 0.000000
0.107572 1.582861 2.730504 0.000000 0.000000 0.000000
0.114989 1.573118 2.718953 0.000000 0.000000 0.000000
0.109610 1.576580 2.709231 0.000000 0.000000 0.000000
0.142357 1.669843 2.843360 0.000000 0.000000 0.000000
0.133577 1.664564 2.845356 0.000000 0.000000 0.000000
0.135614 1.571685 2.716676 0.000000 0.000000 0.000000
0.157282 1.673393 2.853907 0.000000 0.000000 0.000000
0.143123 1.673470 2.850056 0.000000 0.000000 0.000000
0.142255 1.673550 2.855031 0.000000 0.000000 0.000000
0.130875 1.666967 2.842241 0.000000 0.000000 0.000000
0.153977 1.660081 2.849251 0.000000 0.000000 0.000000
0.127508 1.659120 2.838816 0.000000 0.000000 0.000000
0.151937 1.663328 2.852506 0.000000 0.000000 0.000000
0.102615 1.600728 2.734517 0.000000 0.000000 0.000000
0.146388 1.671630 2.851563 0.000000 0.000000 0.000000
0.096850 1.607372 2.746259 0.000000 0.000000 0.000000
0.144639 1.600510 2.758415 0.000000 0.000000 0.000000
0.150930 1.663764 2.831440 0.000000 0.000000 0.000000
0.163410 1.656758 2.818223 0.000000 0.000000 0.000000
0.165589 1.650879 2.839782 0.000000 0.000000 0.000000
0.161843 1.665475 2.833437 0.000000 0.000000 0.000000
0.140741 1.664814 2.833771 0.000000 0.000000 0.000000
0.134444 1.669335 2.841862 0.000000 0.000000 0.000000
0.150200 1.671203 2.851048 0.000000 0.000000 0.000000
0.143148 1.679451 2.852839 0.000000 0.000000 0.000000
0.138694 1.670336 2.843573 0.000000 0.000000 0.000000
0.157632 1.674397 2.855998 0.000000 0.000000 0.000000
0.134776 1.669198 2.848666 0.000000 0.000000 0.000000
0.147127 1.667575 2.850231 0.000000 0.000000 0.000000
0.152776 1.652674 2.843201 0.000000 0.000000 0.000000
0.143436 1.666225 2.848477 0.000000 0.000000 0.000000
0.138518 1.667416 2.845340 0.000000 0.000000 0.000000
0.101462 1.599735 2.738754 0.000000 0.000000 0.000000
0.146868 1.672309 2.843609 0.000000 0.000000 0.000000
0.103756 1.588405 2.724817 0.000000 0.000000 0.000000
0.144402 1.599868 2.750703 0.000000 0.000000 0.000000
0.148063 1.666970 2.837448 0.000000 0.000000 0.000000
0.160362 1.660537 2.820842 0.000000 0.000000 0.000000
0.159229 1.662524 2.830608 0.000000 0.000000 0.000000
0.166116 1.665503 2.833874 0.000000 0.000000 0.000000
0.172521 1.666781 2.843976 0.000000 0.000000 0.000000
0.174149 1.660252 2.824520 0.000000 0.000000 0.000000
0.133243 1.664449 2.832762 0.000000 0.000000 0.000000
0.139586 1.673553 2.836639 0.000000 0.000000 0.000000
0.182317 1.666569 2.860943 0.000000 0.000000 0.000000
0.190154 1.667970 2.861269 0.000000 0.000000 0.000000
0.186560 1.669850 2.859873 0.000000 0.000000 0.000000
0.123406 1.575219 2.727582 0.000000 0.000000 0.000000
0.188707 1.677447 2.862468 0.000000 0.000000 0.000000
0.186109 1.661200 2.853018 0.000000 0.000000 0.000000
0.183983 1.666425 2.858593 0.000000 0.000000 0.000000
0.109130 1.592875 2.722120 0.000000 0.000000 0.000000
0.183355 1.650247 2.841167 0.000000 0.000000 0.000000
0.102805 1.605926 2.746655 0.000000 0.000000 0.000000
0.138033 1.575046 2.726242 0.000000 0.000000 0.000000
0.179127 1.663758 2.855577 0.000000 0.000000 0.000000
0.187886 1.662350 2.846663 0.000000 0.000000 0.000000
0.130179 1.605186 2.735828 0.000000 0.000000 0.000000
0.188865 1.667124 2.850259 0.000000 0.000000 0.000000
0.122132 1.642440 2.819453 0.000000 0.000000 0.000000
0.102542 1.599079 2.730688 0.000000 0.000000 0.000000
0.100322 1.594938 2.729763 0.000000 0.000000 0.000000
0.186347 1.655028 2.843559 0.000000 0.000000 0.000000
0.105448 1.601867 2.736155 0.000000 0.000000 0.000000
0.133175 1.573256 2.722979 0.000000 0.000000 0.000000
0.180767 1.669386 2.861722 0.000000 0.000000 0.000000
0.186554 1.664332 2.849947 0.000000 0.000000 0.000000
0.133508 1.601668 2.733879 0.000000 0.000000 0.000000
0.188635 1.664307 2.847890 0.000000 0.000000 0.000000
0.129413 1.650220 2.818701 0.000000 0.000000 0.000000
0.188666 1.666785 2.855033 0.000000 0.000000 0.000000
0.181094 1.670082 2.860472 0.000000 0.000000 0.000000
0.186913 1.667110 2.853627 0.000000 0.000000 0.000000
0.188550 1.667648 2.857849 0.000000 0.000000 0.000000
0.187022 1.660459 2.849226 0.000000 0.000000 0.000000
0.185061 1.668819 2.853651 0.000000 0.000000 0.000000
0.102155 1.609103 2.738679 0.000000 0.000000 0.000000
0.145387 1.600414 2.753579 0.000000 0.000000 0.000000
0.098946 1.639380 2.788243 0.000000 0.000000 0.000000
0.101685 1.621107 2.770617 0.000000 0.000000 0.000000
0.147954 1.595872 2.752392 0.000000 0.000000 0.000000
0.147284 1.592935 2.749874 0.000000 0.000000 0.000000
0.104391 1.609375 2.755759 0.000000 0.000000 0.000000
0.140483 1.599829 2.748621 0.000000 0.000000 0.000000
0.101126 1.631507 2.771787 0.000000 0.000000 0.000000
0.097266 1.617918 2.767498 0.000000 0.000000 0.000000
0.147318 1.605378 2.749317 0.000000 0.000000 0.000000
0.100018 1.608937 2.759930 0.000000 0.000000 0.000000
0.112067 1.597423 2.756158 0.000000 0.000000 0.000000
0.103512 1.599602 2.750994 0.000000 0.000000 0.000000
0.114808 1.606658 2.769980 0.000000 0.000000 0.000000
0.096653 1.611317 2.756511 0.000000 0.000000 0.000000
0.104692 1.591442 2.746383 0.000000 0.000000 0.000000
0.107780 1.634831 2.788882 0.000000 0.000000 0.000000
0.169963 1.654347 2.831881 0.000000 0.000000 0.000000
0.180712 1.650926 2.837102 0.000000 0.000000 0.000000
0.133484 1.563140 2.701936 0.000000 0.000000 0.000000
0.117082 1.584568 2.744333 0.000000 0.000000 0.000000
0.112286 1.600124 2.770814 0.000000 0.000000 0.000000
0.184193 1.660953 2.841204 0.000000 0.000000 0.000000
0.150940 1.601059 2.768854 0.000000 0.000000 0.000000
0.104760 1.594006 2.748415 0.000000 0.000000 0.000000
0.109550 1.611165 2.782960 0.000000 0.000000 0.000000
0.096689 1.620134 2.773750 0.000000 0.000000 0.000000
0.110440 1.591560 2.756543 0.000000 0.000000 0.000000
0.099409 1.624307 2.775553 0.000000 0.000000 0.000000
0.176288 1.659882 2.834873 0.000000 0.000000 0.000000
0.184735 1.657505 2.842173 0.000000 0.000000 0.000000
0.133086 1.566627 2.712886 0.000000 0.000000 0.000000
0.178424 1.658594 2.835160 0.000000 0.000000 0.000000
0.119091 1.575829 2.728975 0.000000 0.000000 0.000000
0.114272 1.592067 2.763543 0.000000 0.000000 0.000000
0.180498 1.646064 2.829769 0.000000 0.000000 0.000000
0.150400 1.602119 2.775298 0.000000 0.000000 0.000000
0.130163 1.594340 2.725814 0.000000 0.000000 0.000000
0.126599 1.577781 2.750377 0.000000 0.000000 0.000000
0.153699 1.611708 2.770275 0.000000 0.000000 0.000000
0.141381 1.592927 2.742244 0.000000 0.000000 0.000000
0.132405 1.597868 2.739452 0.000000 0.000000 0.000000
0.126222 1.590134 2.789400 0.000000 0.000000 0.000000
0.151191 1.621195 2.781012 0.000000 0.000000 0.000000
0.145990 1.591100 2.744564 0.000000 0.000000 0.000000
