ply
format ascii 1.0
comment VCGLIB generated
obj_info Generated by SPFormer!
element vertex 326
property float x
property float y
property float z
property float nx
property float ny
property float nz
end_header
0.342926 1.480867 2.284101 0.000000 0.000000 0.000000
0.322150 1.474594 2.319651 0.000000 0.000000 0.000000
0.335810 1.480994 2.297559 0.000000 0.000000 0.000000
0.327334 1.477031 2.311586 0.000000 0.000000 0.000000
0.341087 1.478398 2.290562 0.000000 0.000000 0.000000
0.327226 1.477392 2.316065 0.000000 0.000000 0.000000
0.335012 1.480012 2.292067 0.000000 0.000000 0.000000
0.347063 1.481539 2.281960 0.000000 0.000000 0.000000
0.332235 1.479668 2.304531 0.000000 0.000000 0.000000
0.336791 1.479122 2.292823 0.000000 0.000000 0.000000
0.338459 1.478334 2.286521 0.000000 0.000000 0.000000
0.338619 1.480986 2.292397 0.000000 0.000000 0.000000
0.339060 1.479802 2.288220 0.000000 0.000000 0.000000
0.338023 1.480735 2.296692 0.000000 0.000000 0.000000
0.338843 1.480970 2.292723 0.000000 0.000000 0.000000
0.339009 1.482315 2.293659 0.000000 0.000000 0.000000
0.337846 1.482766 2.297814 0.000000 0.000000 0.000000
0.336076 1.480373 2.295892 0.000000 0.000000 0.000000
0.325189 1.472805 2.314605 0.000000 0.000000 0.000000
0.341880 1.480416 2.283843 0.000000 0.000000 0.000000
0.343982 1.479061 2.282796 0.000000 0.000000 0.000000
0.340434 1.481943 2.285705 0.000000 0.000000 0.000000
0.326288 1.474274 2.315474 0.000000 0.000000 0.000000
0.337302 1.480468 2.288189 0.000000 0.000000 0.000000
0.332446 1.477186 2.297429 0.000000 0.000000 0.000000
0.343951 1.482538 2.286754 0.000000 0.000000 0.000000
0.321801 1.472795 2.318421 0.000000 0.000000 0.000000
0.325609 1.481934 2.319719 0.000000 0.000000 0.000000
0.321490 1.473513 2.310405 0.000000 0.000000 0.000000
0.317710 1.474008 2.312843 0.000000 0.000000 0.000000
0.323572 1.475612 2.317512 0.000000 0.000000 0.000000
0.338025 1.482481 2.293435 0.000000 0.000000 0.000000
0.341021 1.480880 2.286462 0.000000 0.000000 0.000000
0.341752 1.481660 2.284508 0.000000 0.000000 0.000000
0.344669 1.482315 2.280751 0.000000 0.000000 0.000000
0.332660 1.482115 2.307312 0.000000 0.000000 0.000000
0.332411 1.477732 2.293428 0.000000 0.000000 0.000000
0.336118 1.481836 2.294103 0.000000 0.000000 0.000000
0.323281 1.474429 2.314145 0.000000 0.000000 0.000000
0.334935 1.482194 2.301621 0.000000 0.000000 0.000000
0.337498 1.483360 2.298368 0.000000 0.000000 0.000000
0.322941 1.474813 2.319617 0.000000 0.000000 0.000000
0.338711 1.479793 2.297840 0.000000 0.000000 0.000000
0.333259 1.478504 2.302688 0.000000 0.000000 0.000000
0.336837 1.481842 2.296989 0.000000 0.000000 0.000000
0.337736 1.481079 2.292054 0.000000 0.000000 0.000000
0.339272 1.483681 2.293747 0.000000 0.000000 0.000000
0.334009 1.478638 2.294707 0.000000 0.000000 0.000000
0.322720 1.476447 2.309354 0.000000 0.000000 0.000000
0.320292 1.475826 2.303624 0.000000 0.000000 0.000000
0.319275 1.475459 2.315338 0.000000 0.000000 0.000000
0.325864 1.481112 2.338766 0.000000 0.000000 0.000000
0.327168 1.478960 2.318088 0.000000 0.000000 0.000000
0.340999 1.481670 2.286261 0.000000 0.000000 0.000000
0.348341 1.482774 2.278437 0.000000 0.000000 0.000000
0.335898 1.483070 2.302256 0.000000 0.000000 0.000000
0.341621 1.484198 2.293498 0.000000 0.000000 0.000000
0.325032 1.476052 2.313977 0.000000 0.000000 0.000000
0.317784 1.474588 2.302065 0.000000 0.000000 0.000000
0.319051 1.475426 2.311958 0.000000 0.000000 0.000000
0.345216 1.482486 2.281953 0.000000 0.000000 0.000000
0.301506 1.516028 2.258204 0.000000 0.000000 0.000000
0.311525 1.488767 2.275771 0.000000 0.000000 0.000000
0.313380 1.516965 2.257174 0.000000 0.000000 0.000000
0.320738 1.493443 2.271189 0.000000 0.000000 0.000000
0.301863 1.516047 2.253474 0.000000 0.000000 0.000000
0.312443 1.477804 2.283390 0.000000 0.000000 0.000000
0.322357 1.487502 2.279823 0.000000 0.000000 0.000000
0.303552 1.517473 2.253531 0.000000 0.000000 0.000000
0.315097 1.489126 2.265968 0.000000 0.000000 0.000000
0.300925 1.518256 2.260337 0.000000 0.000000 0.000000
0.298825 1.514766 2.260718 0.000000 0.000000 0.000000
0.319528 1.493528 2.288332 0.000000 0.000000 0.000000
0.316798 1.489568 2.275552 0.000000 0.000000 0.000000
0.310880 1.480883 2.278498 0.000000 0.000000 0.000000
0.309602 1.482431 2.293586 0.000000 0.000000 0.000000
0.306038 1.511729 2.245372 0.000000 0.000000 0.000000
0.310682 1.493353 2.277063 0.000000 0.000000 0.000000
0.303871 1.481311 2.287907 0.000000 0.000000 0.000000
0.311185 1.486911 2.290066 0.000000 0.000000 0.000000
0.298558 1.521818 2.261957 0.000000 0.000000 0.000000
0.308521 1.504822 2.254013 0.000000 0.000000 0.000000
0.319979 1.491722 2.282545 0.000000 0.000000 0.000000
0.313711 1.489307 2.288588 0.000000 0.000000 0.000000
0.309208 1.483535 2.295329 0.000000 0.000000 0.000000
0.315099 1.476966 2.302159 0.000000 0.000000 0.000000
0.310150 1.515951 2.260501 0.000000 0.000000 0.000000
0.312834 1.514736 2.250343 0.000000 0.000000 0.000000
0.300568 1.515665 2.254444 0.000000 0.000000 0.000000
0.308747 1.504979 2.252246 0.000000 0.000000 0.000000
0.313756 1.486948 2.285788 0.000000 0.000000 0.000000
0.307806 1.513935 2.258592 0.000000 0.000000 0.000000
0.304745 1.485869 2.284420 0.000000 0.000000 0.000000
0.310812 1.487384 2.284678 0.000000 0.000000 0.000000
0.305276 1.493003 2.283266 0.000000 0.000000 0.000000
0.319820 1.500492 2.254114 0.000000 0.000000 0.000000
0.310157 1.504363 2.265847 0.000000 0.000000 0.000000
0.305266 1.501797 2.258393 0.000000 0.000000 0.000000
0.314789 1.475996 2.304228 0.000000 0.000000 0.000000
0.313989 1.508193 2.264881 0.000000 0.000000 0.000000
0.295604 1.521414 2.263096 0.000000 0.000000 0.000000
0.310528 1.500939 2.252943 0.000000 0.000000 0.000000
0.308623 1.518086 2.259583 0.000000 0.000000 0.000000
0.301821 1.509825 2.264144 0.000000 0.000000 0.000000
0.310674 1.514596 2.255525 0.000000 0.000000 0.000000
0.321142 1.484767 2.284921 0.000000 0.000000 0.000000
0.325170 1.487879 2.303420 0.000000 0.000000 0.000000
0.305763 1.515692 2.266415 0.000000 0.000000 0.000000
0.303021 1.510620 2.257537 0.000000 0.000000 0.000000
0.313488 1.486988 2.289433 0.000000 0.000000 0.000000
0.308934 1.515253 2.266470 0.000000 0.000000 0.000000
0.297888 1.519573 2.267394 0.000000 0.000000 0.000000
0.308593 1.478557 2.290369 0.000000 0.000000 0.000000
0.317147 1.475652 2.310557 0.000000 0.000000 0.000000
0.321621 1.505396 2.254740 0.000000 0.000000 0.000000
0.317801 1.474532 2.318010 0.000000 0.000000 0.000000
0.307095 1.504609 2.262432 0.000000 0.000000 0.000000
0.293260 1.523314 2.265765 0.000000 0.000000 0.000000
0.313474 1.503014 2.250933 0.000000 0.000000 0.000000
0.322375 1.486780 2.282578 0.000000 0.000000 0.000000
0.303583 1.487621 2.283869 0.000000 0.000000 0.000000
0.305149 1.515686 2.258897 0.000000 0.000000 0.000000
0.317536 1.513839 2.249805 0.000000 0.000000 0.000000
0.306074 1.484291 2.278687 0.000000 0.000000 0.000000
0.305873 1.511387 2.269512 0.000000 0.000000 0.000000
0.315462 1.504051 2.272564 0.000000 0.000000 0.000000
0.304413 1.505647 2.248687 0.000000 0.000000 0.000000
0.309639 1.492239 2.260672 0.000000 0.000000 0.000000
0.312132 1.499624 2.269846 0.000000 0.000000 0.000000
0.320668 1.485366 2.280850 0.000000 0.000000 0.000000
0.309232 1.508773 2.269907 0.000000 0.000000 0.000000
0.309042 1.480724 2.291633 0.000000 0.000000 0.000000
0.313777 1.506544 2.261796 0.000000 0.000000 0.000000
0.310067 1.502201 2.258813 0.000000 0.000000 0.000000
0.319818 1.483538 2.295236 0.000000 0.000000 0.000000
0.305620 1.515941 2.249993 0.000000 0.000000 0.000000
0.320610 1.487038 2.298116 0.000000 0.000000 0.000000
0.305733 1.516194 2.267441 0.000000 0.000000 0.000000
0.315381 1.496995 2.250349 0.000000 0.000000 0.000000
0.304831 1.488472 2.286860 0.000000 0.000000 0.000000
0.310990 1.490799 2.268649 0.000000 0.000000 0.000000
0.308958 1.515368 2.271370 0.000000 0.000000 0.000000
0.313840 1.495598 2.285776 0.000000 0.000000 0.000000
0.305708 1.508544 2.266782 0.000000 0.000000 0.000000
0.316577 1.496723 2.281021 0.000000 0.000000 0.000000
0.305215 1.505246 2.271355 0.000000 0.000000 0.000000
0.310455 1.515577 2.265892 0.000000 0.000000 0.000000
0.315247 1.482395 2.300458 0.000000 0.000000 0.000000
0.311510 1.500087 2.277430 0.000000 0.000000 0.000000
0.315001 1.479009 2.289213 0.000000 0.000000 0.000000
0.318238 1.477777 2.295143 0.000000 0.000000 0.000000
0.321411 1.479395 2.290786 0.000000 0.000000 0.000000
0.313322 1.512628 2.259882 0.000000 0.000000 0.000000
0.311439 1.513442 2.264580 0.000000 0.000000 0.000000
0.320693 1.497452 2.263421 0.000000 0.000000 0.000000
0.307565 1.498991 2.273278 0.000000 0.000000 0.000000
0.310480 1.497614 2.253943 0.000000 0.000000 0.000000
0.311189 1.512275 2.248168 0.000000 0.000000 0.000000
0.305811 1.514597 2.246434 0.000000 0.000000 0.000000
0.310038 1.501309 2.281884 0.000000 0.000000 0.000000
0.314111 1.496766 2.287129 0.000000 0.000000 0.000000
0.305031 1.517528 2.255679 0.000000 0.000000 0.000000
0.314827 1.485515 2.294700 0.000000 0.000000 0.000000
0.321656 1.483914 2.283349 0.000000 0.000000 0.000000
0.316127 1.484640 2.282065 0.000000 0.000000 0.000000
0.309623 1.493339 2.286952 0.000000 0.000000 0.000000
0.321111 1.485034 2.282776 0.000000 0.000000 0.000000
0.313110 1.494543 2.275902 0.000000 0.000000 0.000000
0.312764 1.478599 2.290263 0.000000 0.000000 0.000000
0.315554 1.495259 2.272708 0.000000 0.000000 0.000000
0.315772 1.491785 2.292754 0.000000 0.000000 0.000000
0.321483 1.487138 2.295813 0.000000 0.000000 0.000000
0.304413 1.521105 2.253058 0.000000 0.000000 0.000000
0.300507 1.522957 2.258389 0.000000 0.000000 0.000000
0.314133 1.476941 2.300556 0.000000 0.000000 0.000000
0.301006 1.513614 2.255355 0.000000 0.000000 0.000000
0.307400 1.491497 2.277640 0.000000 0.000000 0.000000
0.302620 1.515208 2.246729 0.000000 0.000000 0.000000
0.315091 1.486346 2.285977 0.000000 0.000000 0.000000
0.310980 1.501618 2.255110 0.000000 0.000000 0.000000
0.306806 1.489921 2.276173 0.000000 0.000000 0.000000
0.317076 1.499482 2.261604 0.000000 0.000000 0.000000
0.310604 1.502336 2.261862 0.000000 0.000000 0.000000
0.318556 1.490829 2.274373 0.000000 0.000000 0.000000
0.313738 1.496301 2.269331 0.000000 0.000000 0.000000
0.318594 1.484750 2.298423 0.000000 0.000000 0.000000
0.304429 1.501506 2.264451 0.000000 0.000000 0.000000
0.306276 1.515041 2.248498 0.000000 0.000000 0.000000
0.303267 1.519380 2.251880 0.000000 0.000000 0.000000
0.312515 1.512979 2.254255 0.000000 0.000000 0.000000
0.315083 1.505588 2.260880 0.000000 0.000000 0.000000
0.311912 1.503694 2.276163 0.000000 0.000000 0.000000
0.314813 1.500805 2.281421 0.000000 0.000000 0.000000
0.308821 1.479297 2.297786 0.000000 0.000000 0.000000
0.310481 1.477945 2.294570 0.000000 0.000000 0.000000
0.304655 1.516573 2.252496 0.000000 0.000000 0.000000
0.310926 1.476272 2.301035 0.000000 0.000000 0.000000
0.317935 1.474491 2.310322 0.000000 0.000000 0.000000
0.312658 1.477998 2.301178 0.000000 0.000000 0.000000
0.316490 1.474938 2.314146 0.000000 0.000000 0.000000
0.303336 1.517902 2.244886 0.000000 0.000000 0.000000
0.318911 1.477778 2.296680 0.000000 0.000000 0.000000
0.302360 1.514555 2.247839 0.000000 0.000000 0.000000
0.304744 1.484538 2.290827 0.000000 0.000000 0.000000
0.305054 1.516574 2.247331 0.000000 0.000000 0.000000
0.308399 1.500490 2.279478 0.000000 0.000000 0.000000
0.310153 1.500919 2.274490 0.000000 0.000000 0.000000
0.314775 1.499909 2.276496 0.000000 0.000000 0.000000
0.315619 1.478067 2.307564 0.000000 0.000000 0.000000
0.309420 1.507899 2.265290 0.000000 0.000000 0.000000
0.312283 1.493977 2.287641 0.000000 0.000000 0.000000
0.312571 1.488392 2.293562 0.000000 0.000000 0.000000
0.323609 1.481618 2.295002 0.000000 0.000000 0.000000
0.314032 1.482654 2.301503 0.000000 0.000000 0.000000
0.318413 1.498915 2.281605 0.000000 0.000000 0.000000
0.314471 1.490944 2.289523 0.000000 0.000000 0.000000
0.312835 1.488935 2.288991 0.000000 0.000000 0.000000
0.308759 1.497446 2.274410 0.000000 0.000000 0.000000
0.316330 1.496912 2.266655 0.000000 0.000000 0.000000
0.312330 1.506305 2.258776 0.000000 0.000000 0.000000
0.312841 1.511446 2.266241 0.000000 0.000000 0.000000
0.322496 1.483064 2.297516 0.000000 0.000000 0.000000
0.301392 1.512486 2.249388 0.000000 0.000000 0.000000
0.317578 1.477620 2.307418 0.000000 0.000000 0.000000
0.297165 1.513365 2.254581 0.000000 0.000000 0.000000
0.293371 1.518286 2.263417 0.000000 0.000000 0.000000
0.300434 1.516863 2.259633 0.000000 0.000000 0.000000
0.311083 1.507155 2.250363 0.000000 0.000000 0.000000
0.298459 1.519619 2.264243 0.000000 0.000000 0.000000
0.310244 1.511540 2.249028 0.000000 0.000000 0.000000
0.312135 1.509627 2.251373 0.000000 0.000000 0.000000
0.308437 1.514004 2.245762 0.000000 0.000000 0.000000
0.314661 1.473401 2.310683 0.000000 0.000000 0.000000
0.321020 1.490799 2.285461 0.000000 0.000000 0.000000
0.315360 1.506307 2.265487 0.000000 0.000000 0.000000
0.314851 1.495161 2.278718 0.000000 0.000000 0.000000
0.300091 1.524951 2.264811 0.000000 0.000000 0.000000
0.306681 1.506645 2.254635 0.000000 0.000000 0.000000
0.302393 1.522171 2.273550 0.000000 0.000000 0.000000
0.307658 1.514840 2.246941 0.000000 0.000000 0.000000
0.322404 1.485074 2.296195 0.000000 0.000000 0.000000
0.327126 1.487298 2.285903 0.000000 0.000000 0.000000
0.322901 1.494436 2.292807 0.000000 0.000000 0.000000
0.318431 1.497046 2.284594 0.000000 0.000000 0.000000
0.309786 1.482555 2.288627 0.000000 0.000000 0.000000
0.314758 1.501000 2.282664 0.000000 0.000000 0.000000
0.318054 1.491748 2.293058 0.000000 0.000000 0.000000
0.309453 1.514032 2.250968 0.000000 0.000000 0.000000
0.309467 1.509351 2.241340 0.000000 0.000000 0.000000
0.309192 1.511048 2.248190 0.000000 0.000000 0.000000
0.306653 1.504939 2.263597 0.000000 0.000000 0.000000
0.307451 1.503446 2.274325 0.000000 0.000000 0.000000
0.317983 1.497106 2.272900 0.000000 0.000000 0.000000
0.313164 1.503101 2.250551 0.000000 0.000000 0.000000
0.307648 1.506154 2.248691 0.000000 0.000000 0.000000
0.306707 1.518440 2.248561 0.000000 0.000000 0.000000
0.310721 1.498572 2.275834 0.000000 0.000000 0.000000
0.320133 1.493282 2.289093 0.000000 0.000000 0.000000
0.318377 1.499534 2.276410 0.000000 0.000000 0.000000
0.319571 1.496065 2.281174 0.000000 0.000000 0.000000
0.313123 1.504891 2.264491 0.000000 0.000000 0.000000
0.309225 1.491107 2.286803 0.000000 0.000000 0.000000
0.310348 1.509177 2.273542 0.000000 0.000000 0.000000
0.308513 1.509080 2.275108 0.000000 0.000000 0.000000
0.307217 1.494465 2.279657 0.000000 0.000000 0.000000
0.318497 1.481863 2.299611 0.000000 0.000000 0.000000
0.309563 1.489044 2.281200 0.000000 0.000000 0.000000
0.316926 1.497453 2.280329 0.000000 0.000000 0.000000
0.319863 1.477657 2.301677 0.000000 0.000000 0.000000
0.316468 1.491836 2.277020 0.000000 0.000000 0.000000
0.314618 1.501294 2.271040 0.000000 0.000000 0.000000
0.315315 1.494295 2.265226 0.000000 0.000000 0.000000
0.315425 1.501246 2.261639 0.000000 0.000000 0.000000
0.319648 1.480677 2.298512 0.000000 0.000000 0.000000
0.319811 1.497333 2.270831 0.000000 0.000000 0.000000
0.311077 1.494042 2.269446 0.000000 0.000000 0.000000
0.315586 1.499907 2.254693 0.000000 0.000000 0.000000
0.314048 1.495701 2.263476 0.000000 0.000000 0.000000
0.314980 1.502398 2.267731 0.000000 0.000000 0.000000
0.320680 1.484425 2.290076 0.000000 0.000000 0.000000
0.317648 1.475077 2.315151 0.000000 0.000000 0.000000
0.317488 1.489961 2.269582 0.000000 0.000000 0.000000
0.312500 1.501358 2.250508 0.000000 0.000000 0.000000
0.309051 1.514061 2.248259 0.000000 0.000000 0.000000
0.310314 1.500912 2.275074 0.000000 0.000000 0.000000
0.311377 1.510015 2.251412 0.000000 0.000000 0.000000
0.311241 1.495398 2.273413 0.000000 0.000000 0.000000
0.314666 1.497561 2.252347 0.000000 0.000000 0.000000
0.307082 1.492345 2.280077 0.000000 0.000000 0.000000
0.315461 1.477035 2.308890 0.000000 0.000000 0.000000
0.306621 1.481380 2.291546 0.000000 0.000000 0.000000
0.314416 1.479016 2.303301 0.000000 0.000000 0.000000
0.306260 1.488283 2.283334 0.000000 0.000000 0.000000
0.311062 1.495734 2.271319 0.000000 0.000000 0.000000
0.308209 1.515522 2.242931 0.000000 0.000000 0.000000
0.320802 1.487393 2.289327 0.000000 0.000000 0.000000
0.319818 1.491339 2.275843 0.000000 0.000000 0.000000
0.314757 1.498222 2.256083 0.000000 0.000000 0.000000
0.312400 1.496125 2.261094 0.000000 0.000000 0.000000
0.314621 1.500807 2.283039 0.000000 0.000000 0.000000
0.311259 1.502208 2.251956 0.000000 0.000000 0.000000
0.321311 1.496640 2.287393 0.000000 0.000000 0.000000
0.314085 1.491430 2.262537 0.000000 0.000000 0.000000
0.308112 1.510103 2.271146 0.000000 0.000000 0.000000
0.314984 1.497410 2.285338 0.000000 0.000000 0.000000
0.309062 1.511608 2.268194 0.000000 0.000000 0.000000
0.315297 1.496958 2.284790 0.000000 0.000000 0.000000
0.298508 1.520050 2.245427 0.000000 0.000000 0.000000
0.314887 1.506525 2.277422 0.000000 0.000000 0.000000
0.317644 1.513261 2.267512 0.000000 0.000000 0.000000
0.312432 1.497659 2.257715 0.000000 0.000000 0.000000
0.316762 1.478499 2.296051 0.000000 0.000000 0.000000
0.312869 1.477428 2.298265 0.000000 0.000000 0.000000
0.319399 1.491725 2.271706 0.000000 0.000000 0.000000
0.310759 1.476302 2.287723 0.000000 0.000000 0.000000
0.314253 1.496374 2.267827 0.000000 0.000000 0.000000
0.313948 1.476878 2.301864 0.000000 0.000000 0.000000
0.316093 1.474032 2.310617 0.000000 0.000000 0.000000
0.313925 1.475197 2.309068 0.000000 0.000000 0.000000
0.316091 1.475415 2.309825 0.000000 0.000000 0.000000
0.314271 1.488474 2.285984 0.000000 0.000000 0.000000
0.318023 1.476819 2.300665 0.000000 0.000000 0.000000
0.311645 1.475304 2.306163 0.000000 0.000000 0.000000
0.314841 1.474838 2.312078 0.000000 0.000000 0.000000
0.314884 1.500889 2.280871 0.000000 0.000000 0.000000
0.318740 1.477929 2.307416 0.000000 0.000000 0.000000
