ply
format ascii 1.0
comment VCGLIB generated
obj_info Generated by SPFormer!
element vertex 207
property float x
property float y
property float z
property float nx
property float ny
property float nz
end_header
0.144481 1.564795 2.613082 0.000000 0.000000 0.000000
0.716118 1.368071 2.100795 0.000000 0.000000 0.000000
0.152266 1.560050 2.603284 0.000000 0.000000 0.000000
0.168453 1.556373 2.604137 0.000000 0.000000 0.000000
0.141839 1.568842 2.602045 0.000000 0.000000 0.000000
0.695929 1.384900 2.081481 0.000000 0.000000 0.000000
0.684148 1.386973 2.083059 0.000000 0.000000 0.000000
0.693465 1.371178 2.085135 0.000000 0.000000 0.000000
0.136674 1.571539 2.606861 0.000000 0.000000 0.000000
0.137889 1.569226 2.604685 0.000000 0.000000 0.000000
0.143610 1.566812 2.615384 0.000000 0.000000 0.000000
0.144350 1.563400 2.609871 0.000000 0.000000 0.000000
1.400601 1.325701 0.939266 0.000000 0.000000 0.000000
0.165519 1.553950 2.611150 0.000000 0.000000 0.000000
1.415699 1.327947 0.952693 0.000000 0.000000 0.000000
0.156252 1.560189 2.616688 0.000000 0.000000 0.000000
0.145805 1.560616 2.623700 0.000000 0.000000 0.000000
0.160573 1.561720 2.611955 0.000000 0.000000 0.000000
1.403218 1.327058 0.952169 0.000000 0.000000 0.000000
1.403222 1.320075 0.946332 0.000000 0.000000 0.000000
1.409405 1.322548 0.950791 0.000000 0.000000 0.000000
0.163413 1.558760 2.610525 0.000000 0.000000 0.000000
0.138276 1.570570 2.602984 0.000000 0.000000 0.000000
1.401207 1.323892 0.945797 0.000000 0.000000 0.000000
0.696764 1.363472 2.085280 0.000000 0.000000 0.000000
0.138022 1.569287 2.604413 0.000000 0.000000 0.000000
1.402270 1.331320 0.934025 0.000000 0.000000 0.000000
0.138915 1.566794 2.612514 0.000000 0.000000 0.000000
0.717554 1.366617 2.108313 0.000000 0.000000 0.000000
0.140908 1.566985 2.614961 0.000000 0.000000 0.000000
0.692720 1.383469 2.087554 0.000000 0.000000 0.000000
0.684558 1.381770 2.092569 0.000000 0.000000 0.000000
0.140522 1.563622 2.624836 0.000000 0.000000 0.000000
0.139561 1.564509 2.604053 0.000000 0.000000 0.000000
0.142760 1.566474 2.599839 0.000000 0.000000 0.000000
0.138985 1.570114 2.604771 0.000000 0.000000 0.000000
0.165285 1.556618 2.602369 0.000000 0.000000 0.000000
0.694476 1.370055 2.085672 0.000000 0.000000 0.000000
0.164987 1.558248 2.605442 0.000000 0.000000 0.000000
0.166416 1.557570 2.607052 0.000000 0.000000 0.000000
0.680716 1.371058 2.095032 0.000000 0.000000 0.000000
0.148843 1.562544 2.607900 0.000000 0.000000 0.000000
0.126205 1.566235 2.636270 0.000000 0.000000 0.000000
0.161085 1.558314 2.609526 0.000000 0.000000 0.000000
0.165745 1.561062 2.616458 0.000000 0.000000 0.000000
0.134370 1.568225 2.599972 0.000000 0.000000 0.000000
1.413019 1.334011 0.956733 0.000000 0.000000 0.000000
0.141467 1.560713 2.618270 0.000000 0.000000 0.000000
0.147439 1.565399 2.617265 0.000000 0.000000 0.000000
0.136440 1.567379 2.608183 0.000000 0.000000 0.000000
1.403600 1.327684 0.963126 0.000000 0.000000 0.000000
0.142104 1.568020 2.608746 0.000000 0.000000 0.000000
0.174897 1.557731 2.606788 0.000000 0.000000 0.000000
0.140979 1.568106 2.616382 0.000000 0.000000 0.000000
0.141598 1.569268 2.599203 0.000000 0.000000 0.000000
0.140105 1.567698 2.603951 0.000000 0.000000 0.000000
0.141434 1.567714 2.605275 0.000000 0.000000 0.000000
0.142724 1.564467 2.617712 0.000000 0.000000 0.000000
0.145124 1.564505 2.599249 0.000000 0.000000 0.000000
0.717372 1.361680 2.109822 0.000000 0.000000 0.000000
0.149835 1.562762 2.604542 0.000000 0.000000 0.000000
1.404347 1.329145 0.960430 0.000000 0.000000 0.000000
0.142109 1.565845 2.616422 0.000000 0.000000 0.000000
0.170487 1.558493 2.608306 0.000000 0.000000 0.000000
0.713880 1.369269 2.103016 0.000000 0.000000 0.000000
1.403424 1.321883 0.942148 0.000000 0.000000 0.000000
0.719355 1.367011 2.101547 0.000000 0.000000 0.000000
1.409726 1.329328 0.957833 0.000000 0.000000 0.000000
0.716179 1.360052 2.104260 0.000000 0.000000 0.000000
1.405100 1.333779 0.957208 0.000000 0.000000 0.000000
0.718040 1.368449 2.104696 0.000000 0.000000 0.000000
0.158359 1.564304 2.610661 0.000000 0.000000 0.000000
0.140215 1.563263 2.624872 0.000000 0.000000 0.000000
0.134834 1.560528 2.628711 0.000000 0.000000 0.000000
0.717711 1.361198 2.099275 0.000000 0.000000 0.000000
0.162423 1.554730 2.599890 0.000000 0.000000 0.000000
0.143474 1.568892 2.599088 0.000000 0.000000 0.000000
0.166705 1.558592 2.609510 0.000000 0.000000 0.000000
0.141913 1.565707 2.605308 0.000000 0.000000 0.000000
0.143224 1.562835 2.622986 0.000000 0.000000 0.000000
0.140215 1.567832 2.607028 0.000000 0.000000 0.000000
0.138898 1.568759 2.609771 0.000000 0.000000 0.000000
1.403600 1.320207 0.944177 0.000000 0.000000 0.000000
0.151135 1.563659 2.597528 0.000000 0.000000 0.000000
0.693966 1.378881 2.082556 0.000000 0.000000 0.000000
1.404757 1.331412 0.954434 0.000000 0.000000 0.000000
0.686361 1.371633 2.086626 0.000000 0.000000 0.000000
0.682426 1.371928 2.108846 0.000000 0.000000 0.000000
0.719945 1.363988 2.114399 0.000000 0.000000 0.000000
0.140561 1.562920 2.622100 0.000000 0.000000 0.000000
1.408932 1.322503 0.949435 0.000000 0.000000 0.000000
0.131981 1.560286 2.636506 0.000000 0.000000 0.000000
0.139039 1.567009 2.607357 0.000000 0.000000 0.000000
0.172484 1.559894 2.611079 0.000000 0.000000 0.000000
0.138107 1.563549 2.617705 0.000000 0.000000 0.000000
0.163187 1.556713 2.606992 0.000000 0.000000 0.000000
0.166308 1.556684 2.606214 0.000000 0.000000 0.000000
0.165318 1.556866 2.607244 0.000000 0.000000 0.000000
0.140551 1.561479 2.615399 0.000000 0.000000 0.000000
0.142784 1.562688 2.612804 0.000000 0.000000 0.000000
0.713347 1.370390 2.109133 0.000000 0.000000 0.000000
0.165801 1.558407 2.607392 0.000000 0.000000 0.000000
0.713534 1.374528 2.099218 0.000000 0.000000 0.000000
0.712379 1.364283 2.099161 0.000000 0.000000 0.000000
0.692220 1.368159 2.081923 0.000000 0.000000 0.000000
0.683262 1.367240 2.096235 0.000000 0.000000 0.000000
0.703733 1.368793 2.089442 0.000000 0.000000 0.000000
0.153196 1.561116 2.604666 0.000000 0.000000 0.000000
0.142188 1.563765 2.613712 0.000000 0.000000 0.000000
0.141491 1.569203 2.607501 0.000000 0.000000 0.000000
0.167720 1.558828 2.611884 0.000000 0.000000 0.000000
0.680660 1.389122 2.092396 0.000000 0.000000 0.000000
0.685999 1.389012 2.099703 0.000000 0.000000 0.000000
0.692059 1.387917 2.082960 0.000000 0.000000 0.000000
0.146148 1.562789 2.610548 0.000000 0.000000 0.000000
1.408948 1.324416 0.942814 0.000000 0.000000 0.000000
0.151151 1.561439 2.614299 0.000000 0.000000 0.000000
0.143643 1.564747 2.614171 0.000000 0.000000 0.000000
0.144990 1.564347 2.600313 0.000000 0.000000 0.000000
0.147069 1.563206 2.596668 0.000000 0.000000 0.000000
0.151293 1.559538 2.595828 0.000000 0.000000 0.000000
0.146142 1.561297 2.613132 0.000000 0.000000 0.000000
1.402473 1.327864 0.947983 0.000000 0.000000 0.000000
0.144004 1.569844 2.602364 0.000000 0.000000 0.000000
1.413887 1.330687 0.959358 0.000000 0.000000 0.000000
0.144215 1.562913 2.625536 0.000000 0.000000 0.000000
0.150726 1.561648 2.608023 0.000000 0.000000 0.000000
0.690966 1.379146 2.091602 0.000000 0.000000 0.000000
0.151571 1.561681 2.602395 0.000000 0.000000 0.000000
0.143114 1.568426 2.598036 0.000000 0.000000 0.000000
0.145947 1.564411 2.599189 0.000000 0.000000 0.000000
0.141043 1.571571 2.600198 0.000000 0.000000 0.000000
0.692318 1.371557 2.091621 0.000000 0.000000 0.000000
0.683891 1.363285 2.102108 0.000000 0.000000 0.000000
0.697626 1.369350 2.089403 0.000000 0.000000 0.000000
0.140460 1.571907 2.603107 0.000000 0.000000 0.000000
0.147350 1.563227 2.603181 0.000000 0.000000 0.000000
0.139636 1.569393 2.595031 0.000000 0.000000 0.000000
0.144542 1.572355 2.591581 0.000000 0.000000 0.000000
0.135832 1.571810 2.596664 0.000000 0.000000 0.000000
0.715868 1.366561 2.093124 0.000000 0.000000 0.000000
0.716545 1.369608 2.101261 0.000000 0.000000 0.000000
1.403114 1.331626 0.956349 0.000000 0.000000 0.000000
1.405580 1.328926 0.956187 0.000000 0.000000 0.000000
0.686448 1.382354 2.082161 0.000000 0.000000 0.000000
0.681042 1.361467 2.107871 0.000000 0.000000 0.000000
0.142421 1.561250 2.617319 0.000000 0.000000 0.000000
0.715847 1.364589 2.105343 0.000000 0.000000 0.000000
0.149150 1.560312 2.611892 0.000000 0.000000 0.000000
1.405834 1.322283 0.945448 0.000000 0.000000 0.000000
1.412700 1.322940 0.939753 0.000000 0.000000 0.000000
0.143367 1.573683 2.596638 0.000000 0.000000 0.000000
0.146917 1.563358 2.599013 0.000000 0.000000 0.000000
0.148041 1.562781 2.601490 0.000000 0.000000 0.000000
1.402432 1.331972 0.958984 0.000000 0.000000 0.000000
1.400583 1.330882 0.961273 0.000000 0.000000 0.000000
1.410372 1.334064 0.951618 0.000000 0.000000 0.000000
0.702470 1.362146 2.099047 0.000000 0.000000 0.000000
0.717474 1.361862 2.097357 0.000000 0.000000 0.000000
1.404677 1.331851 0.957647 0.000000 0.000000 0.000000
0.713488 1.376207 2.100005 0.000000 0.000000 0.000000
1.401388 1.333053 0.957469 0.000000 0.000000 0.000000
1.402128 1.329375 0.958678 0.000000 0.000000 0.000000
0.701437 1.375593 2.083440 0.000000 0.000000 0.000000
0.165462 1.558007 2.609590 0.000000 0.000000 0.000000
0.684943 1.383744 2.083389 0.000000 0.000000 0.000000
0.684511 1.370041 2.105720 0.000000 0.000000 0.000000
0.681081 1.388977 2.095720 0.000000 0.000000 0.000000
1.407145 1.331994 0.956670 0.000000 0.000000 0.000000
1.401564 1.329957 0.961104 0.000000 0.000000 0.000000
1.403539 1.332430 0.958951 0.000000 0.000000 0.000000
0.697240 1.365333 2.081351 0.000000 0.000000 0.000000
1.400193 1.330948 0.954521 0.000000 0.000000 0.000000
1.406114 1.332355 0.955343 0.000000 0.000000 0.000000
1.402492 1.329607 0.953444 0.000000 0.000000 0.000000
0.169898 1.553950 2.604731 0.000000 0.000000 0.000000
1.404090 1.329517 0.952160 0.000000 0.000000 0.000000
0.139532 1.567725 2.604888 0.000000 0.000000 0.000000
0.135492 1.561793 2.632024 0.000000 0.000000 0.000000
0.138293 1.570093 2.595519 0.000000 0.000000 0.000000
0.139388 1.565915 2.606929 0.000000 0.000000 0.000000
0.141321 1.566492 2.601693 0.000000 0.000000 0.000000
0.142209 1.568167 2.600257 0.000000 0.000000 0.000000
0.145279 1.560618 2.627947 0.000000 0.000000 0.000000
0.142137 1.569260 2.600206 0.000000 0.000000 0.000000
0.143275 1.565391 2.599764 0.000000 0.000000 0.000000
0.138342 1.571087 2.600179 0.000000 0.000000 0.000000
0.142174 1.569624 2.595530 0.000000 0.000000 0.000000
0.680841 1.363051 2.106919 0.000000 0.000000 0.000000
0.682627 1.373626 2.107030 0.000000 0.000000 0.000000
0.167379 1.557835 2.610322 0.000000 0.000000 0.000000
0.147678 1.560324 2.622432 0.000000 0.000000 0.000000
0.683268 1.385889 2.089617 0.000000 0.000000 0.000000
0.696565 1.362958 2.081137 0.000000 0.000000 0.000000
0.688477 1.365904 2.092013 0.000000 0.000000 0.000000
0.682034 1.364096 2.091888 0.000000 0.000000 0.000000
0.166180 1.559707 2.610474 0.000000 0.000000 0.000000
0.702234 1.374365 2.094467 0.000000 0.000000 0.000000
0.719101 1.366582 2.097862 0.000000 0.000000 0.000000
0.710512 1.369840 2.088940 0.000000 0.000000 0.000000
0.705602 1.365726 2.092399 0.000000 0.000000 0.000000
0.708381 1.366605 2.090377 0.000000 0.000000 0.000000
0.708004 1.374264 2.095035 0.000000 0.000000 0.000000
0.712143 1.373572 2.087008 0.000000 0.000000 0.000000
0.708002 1.370064 2.092027 0.000000 0.000000 0.000000
0.706892 1.365386 2.091062 0.000000 0.000000 0.000000
0.710569 1.367722 2.098332 0.000000 0.000000 0.000000
