ply
format ascii 1.0
comment VCGLIB generated
obj_info Generated by SPFormer!
element vertex 66
property float x
property float y
property float z
property float nx
property float ny
property float nz
end_header
0.598236 1.398465 2.159095 0.000000 0.000000 0.000000
0.580215 1.397180 2.143820 0.000000 0.000000 0.000000
0.593203 1.401519 2.154844 0.000000 0.000000 0.000000
0.639553 1.350774 2.036266 0.000000 0.000000 0.000000
0.590302 1.408550 2.148079 0.000000 0.000000 0.000000
0.640161 1.369706 2.037892 0.000000 0.000000 0.000000
0.640769 1.379427 2.034920 0.000000 0.000000 0.000000
0.673795 1.381454 2.029837 0.000000 0.000000 0.000000
0.645729 1.366835 2.036179 0.000000 0.000000 0.000000
0.632808 1.363213 2.032951 0.000000 0.000000 0.000000
0.639125 1.365682 2.026887 0.000000 0.000000 0.000000
0.633390 1.363401 2.037857 0.000000 0.000000 0.000000
0.640966 1.373425 2.033211 0.000000 0.000000 0.000000
0.584762 1.398508 2.145321 0.000000 0.000000 0.000000
0.582191 1.397783 2.143282 0.000000 0.000000 0.000000
0.584140 1.396372 2.143858 0.000000 0.000000 0.000000
0.588939 1.406204 2.142775 0.000000 0.000000 0.000000
0.640270 1.363056 2.035511 0.000000 0.000000 0.000000
0.644484 1.358873 2.035804 0.000000 0.000000 0.000000
0.575450 1.410575 2.139893 0.000000 0.000000 0.000000
0.633932 1.361122 2.039709 0.000000 0.000000 0.000000
0.595009 1.390626 2.145690 0.000000 0.000000 0.000000
0.641241 1.375183 2.029839 0.000000 0.000000 0.000000
0.633952 1.358472 2.033955 0.000000 0.000000 0.000000
0.638752 1.371805 2.028209 0.000000 0.000000 0.000000
0.592499 1.439455 2.153849 0.000000 0.000000 0.000000
0.638237 1.363247 2.034034 0.000000 0.000000 0.000000
0.648522 1.378711 2.028970 0.000000 0.000000 0.000000
0.635544 1.358235 2.042129 0.000000 0.000000 0.000000
0.632251 1.357117 2.037800 0.000000 0.000000 0.000000
0.639302 1.359658 2.039532 0.000000 0.000000 0.000000
0.593310 1.400986 2.145554 0.000000 0.000000 0.000000
0.632144 1.356418 2.040247 0.000000 0.000000 0.000000
0.588202 1.398198 2.145087 0.000000 0.000000 0.000000
0.585149 1.394500 2.145387 0.000000 0.000000 0.000000
0.637870 1.357878 2.033498 0.000000 0.000000 0.000000
0.635671 1.356696 2.040998 0.000000 0.000000 0.000000
0.586546 1.396352 2.142073 0.000000 0.000000 0.000000
0.582465 1.395179 2.142429 0.000000 0.000000 0.000000
0.591744 1.437605 2.153180 0.000000 0.000000 0.000000
0.595740 1.399022 2.143125 0.000000 0.000000 0.000000
0.634691 1.359366 2.041997 0.000000 0.000000 0.000000
0.581601 1.404102 2.144777 0.000000 0.000000 0.000000
0.632406 1.358806 2.029908 0.000000 0.000000 0.000000
0.637876 1.367566 2.033683 0.000000 0.000000 0.000000
0.637294 1.355340 2.031442 0.000000 0.000000 0.000000
0.595224 1.405150 2.140901 0.000000 0.000000 0.000000
0.592796 1.406291 2.146665 0.000000 0.000000 0.000000
0.594906 1.402725 2.142731 0.000000 0.000000 0.000000
0.598115 1.434375 2.155679 0.000000 0.000000 0.000000
0.599802 1.432655 2.153102 0.000000 0.000000 0.000000
0.589204 1.435426 2.148283 0.000000 0.000000 0.000000
0.593477 1.395351 2.147446 0.000000 0.000000 0.000000
0.593595 1.437789 2.156761 0.000000 0.000000 0.000000
0.599998 1.402779 2.145616 0.000000 0.000000 0.000000
0.584744 1.392448 2.143077 0.000000 0.000000 0.000000
0.585228 1.402007 2.144764 0.000000 0.000000 0.000000
0.587168 1.399399 2.142079 0.000000 0.000000 0.000000
0.577445 1.395903 2.139811 0.000000 0.000000 0.000000
0.584014 1.398477 2.150836 0.000000 0.000000 0.000000
0.599002 1.409523 2.145854 0.000000 0.000000 0.000000
0.675173 1.385951 2.036746 0.000000 0.000000 0.000000
0.594308 1.404675 2.151240 0.000000 0.000000 0.000000
0.599505 1.405668 2.149545 0.000000 0.000000 0.000000
0.595538 1.433807 2.153188 0.000000 0.000000 0.000000
0.575963 1.394402 2.143280 0.000000 0.000000 0.000000
