ply
format ascii 1.0
comment VCGLIB generated
obj_info Generated by SPFormer!
element vertex 111
property float x
property float y
property float z
property float nx
property float ny
property float nz
end_header
-0.512933 1.523482 3.427965 0.000000 0.000000 0.000000
-0.521018 1.525131 3.415400 0.000000 0.000000 0.000000
-0.493542 1.516285 3.422746 0.000000 0.000000 0.000000
-0.532604 1.521007 3.407472 0.000000 0.000000 0.000000
-0.480987 1.545877 3.439565 0.000000 0.000000 0.000000
-0.524792 1.526513 3.407945 0.000000 0.000000 0.000000
-0.508696 1.524552 3.429237 0.000000 0.000000 0.000000
-0.487557 1.549750 3.437449 0.000000 0.000000 0.000000
-0.530694 1.529056 3.419375 0.000000 0.000000 0.000000
-0.520360 1.527220 3.422450 0.000000 0.000000 0.000000
-0.532444 1.521332 3.412057 0.000000 0.000000 0.000000
-0.519051 1.525136 3.417487 0.000000 0.000000 0.000000
-0.524809 1.524807 3.412307 0.000000 0.000000 0.000000
-0.524945 1.524358 3.411939 0.000000 0.000000 0.000000
-0.520512 1.526709 3.418070 0.000000 0.000000 0.000000
-0.522686 1.525336 3.416833 0.000000 0.000000 0.000000
-0.526105 1.529151 3.413220 0.000000 0.000000 0.000000
-0.525670 1.525455 3.409295 0.000000 0.000000 0.000000
-0.502175 1.523137 3.425781 0.000000 0.000000 0.000000
-0.505778 1.519202 3.420632 0.000000 0.000000 0.000000
-0.501531 1.523983 3.428656 0.000000 0.000000 0.000000
-0.527721 1.525482 3.416359 0.000000 0.000000 0.000000
-0.525993 1.526971 3.418296 0.000000 0.000000 0.000000
-0.512581 1.520655 3.419771 0.000000 0.000000 0.000000
-0.523702 1.527601 3.412295 0.000000 0.000000 0.000000
-0.523960 1.523218 3.408868 0.000000 0.000000 0.000000
-0.513118 1.523120 3.419676 0.000000 0.000000 0.000000
-0.482157 1.534771 3.430985 0.000000 0.000000 0.000000
-0.482553 1.524800 3.433112 0.000000 0.000000 0.000000
-0.519054 1.522366 3.416632 0.000000 0.000000 0.000000
-0.517103 1.519665 3.417229 0.000000 0.000000 0.000000
-0.525448 1.525011 3.412787 0.000000 0.000000 0.000000
-0.527476 1.526096 3.417114 0.000000 0.000000 0.000000
-0.481456 1.516517 3.434966 0.000000 0.000000 0.000000
-0.523472 1.528399 3.418138 0.000000 0.000000 0.000000
-0.489664 1.524914 3.437733 0.000000 0.000000 0.000000
-0.518109 1.525495 3.420298 0.000000 0.000000 0.000000
-0.525461 1.529369 3.422125 0.000000 0.000000 0.000000
-0.521422 1.526007 3.418242 0.000000 0.000000 0.000000
-0.515497 1.527980 3.422400 0.000000 0.000000 0.000000
-0.528283 1.528755 3.418550 0.000000 0.000000 0.000000
-0.527188 1.524737 3.411397 0.000000 0.000000 0.000000
-0.517756 1.526459 3.422037 0.000000 0.000000 0.000000
-0.511307 1.519979 3.419865 0.000000 0.000000 0.000000
-0.525094 1.523875 3.409787 0.000000 0.000000 0.000000
-0.510046 1.520249 3.414984 0.000000 0.000000 0.000000
-0.527333 1.526891 3.417222 0.000000 0.000000 0.000000
-0.529831 1.524319 3.419199 0.000000 0.000000 0.000000
-0.488557 1.525811 3.434669 0.000000 0.000000 0.000000
-0.528530 1.530744 3.416182 0.000000 0.000000 0.000000
-0.534669 1.526415 3.416347 0.000000 0.000000 0.000000
-0.531263 1.525284 3.412758 0.000000 0.000000 0.000000
-0.480121 1.514517 3.430066 0.000000 0.000000 0.000000
-0.494458 1.519999 3.427200 0.000000 0.000000 0.000000
-0.522748 1.523869 3.412944 0.000000 0.000000 0.000000
-0.484225 1.529374 3.433190 0.000000 0.000000 0.000000
-0.482219 1.517264 3.427631 0.000000 0.000000 0.000000
-0.487268 1.519848 3.438900 0.000000 0.000000 0.000000
-0.521644 1.524739 3.414819 0.000000 0.000000 0.000000
-0.515659 1.523915 3.419241 0.000000 0.000000 0.000000
-0.497873 1.514025 3.425722 0.000000 0.000000 0.000000
-0.510215 1.523089 3.425351 0.000000 0.000000 0.000000
-0.489253 1.521788 3.431672 0.000000 0.000000 0.000000
-0.525839 1.526685 3.415411 0.000000 0.000000 0.000000
-0.520345 1.525484 3.417440 0.000000 0.000000 0.000000
-0.528414 1.528540 3.421237 0.000000 0.000000 0.000000
-0.529490 1.525826 3.413502 0.000000 0.000000 0.000000
-0.520310 1.530148 3.420141 0.000000 0.000000 0.000000
-0.530765 1.526302 3.413514 0.000000 0.000000 0.000000
-0.528180 1.527890 3.418638 0.000000 0.000000 0.000000
-0.517712 1.523663 3.426884 0.000000 0.000000 0.000000
-0.527562 1.528399 3.421060 0.000000 0.000000 0.000000
-0.522833 1.526046 3.415784 0.000000 0.000000 0.000000
-0.521375 1.526664 3.419784 0.000000 0.000000 0.000000
-0.484001 1.520797 3.431577 0.000000 0.000000 0.000000
-0.513399 1.522274 3.419679 0.000000 0.000000 0.000000
-0.520804 1.529163 3.412718 0.000000 0.000000 0.000000
-0.527410 1.520987 3.415237 0.000000 0.000000 0.000000
-0.526959 1.525398 3.412698 0.000000 0.000000 0.000000
-0.530781 1.527483 3.415867 0.000000 0.000000 0.000000
-0.522532 1.525762 3.417445 0.000000 0.000000 0.000000
-0.506293 1.521559 3.422360 0.000000 0.000000 0.000000
-0.520089 1.529184 3.423601 0.000000 0.000000 0.000000
-0.515011 1.524443 3.420850 0.000000 0.000000 0.000000
-0.509043 1.523591 3.424302 0.000000 0.000000 0.000000
-0.517595 1.526173 3.418962 0.000000 0.000000 0.000000
-0.518227 1.526790 3.423814 0.000000 0.000000 0.000000
-0.514367 1.523670 3.420814 0.000000 0.000000 0.000000
-0.511013 1.523431 3.422844 0.000000 0.000000 0.000000
-0.492888 1.516228 3.427935 0.000000 0.000000 0.000000
-0.524656 1.528669 3.409986 0.000000 0.000000 0.000000
-0.522453 1.530932 3.416804 0.000000 0.000000 0.000000
-0.530706 1.524515 3.416993 0.000000 0.000000 0.000000
-0.521194 1.527678 3.421743 0.000000 0.000000 0.000000
-0.482103 1.512173 3.428323 0.000000 0.000000 0.000000
-0.482178 1.545279 3.436512 0.000000 0.000000 0.000000
-0.489923 1.519149 3.424126 0.000000 0.000000 0.000000
-0.530244 1.524108 3.409971 0.000000 0.000000 0.000000
-0.491510 1.527165 3.427949 0.000000 0.000000 0.000000
-0.489868 1.510476 3.428330 0.000000 0.000000 0.000000
-0.513064 1.522547 3.417082 0.000000 0.000000 0.000000
-0.527168 1.523461 3.409274 0.000000 0.000000 0.000000
-0.525389 1.523442 3.409488 0.000000 0.000000 0.000000
-0.524501 1.520289 3.410770 0.000000 0.000000 0.000000
-0.522716 1.523125 3.408803 0.000000 0.000000 0.000000
-0.528950 1.523970 3.409564 0.000000 0.000000 0.000000
-0.522417 1.526143 3.422902 0.000000 0.000000 0.000000
-0.528413 1.532758 3.420116 0.000000 0.000000 0.000000
-0.526704 1.523346 3.408530 0.000000 0.000000 0.000000
-0.531521 1.522622 3.411241 0.000000 0.000000 0.000000
-0.524113 1.527022 3.414307 0.000000 0.000000 0.000000
