ply
format ascii 1.0
comment VCGLIB generated
obj_info Generated by SPFormer!
element vertex 588
property float x
property float y
property float z
property float nx
property float ny
property float nz
end_header
0.797245 1.241259 1.919125 0.000000 0.000000 0.000000
0.790636 1.251408 1.904722 0.000000 0.000000 0.000000
0.791967 1.242717 1.914484 0.000000 0.000000 0.000000
0.789527 1.248863 1.903240 0.000000 0.000000 0.000000
0.789786 1.240949 1.906689 0.000000 0.000000 0.000000
0.789075 1.251150 1.904529 0.000000 0.000000 0.000000
0.793447 1.247035 1.914256 0.000000 0.000000 0.000000
0.793444 1.250154 1.908207 0.000000 0.000000 0.000000
0.792382 1.249224 1.907358 0.000000 0.000000 0.000000
0.792177 1.240504 1.916842 0.000000 0.000000 0.000000
0.792029 1.240805 1.912903 0.000000 0.000000 0.000000
0.787866 1.244299 1.904332 0.000000 0.000000 0.000000
0.789576 1.248802 1.907393 0.000000 0.000000 0.000000
0.791314 1.240135 1.910065 0.000000 0.000000 0.000000
0.738957 1.355198 1.801772 0.000000 0.000000 0.000000
0.718629 1.356187 1.792233 0.000000 0.000000 0.000000
0.737705 1.334745 1.814863 0.000000 0.000000 0.000000
0.752428 1.313751 1.842750 0.000000 0.000000 0.000000
0.753670 1.331521 1.828563 0.000000 0.000000 0.000000
0.737367 1.364760 1.798171 0.000000 0.000000 0.000000
0.718540 1.378308 1.772150 0.000000 0.000000 0.000000
0.759339 1.341996 1.818887 0.000000 0.000000 0.000000
0.734442 1.346262 1.808280 0.000000 0.000000 0.000000
0.732973 1.363046 1.790611 0.000000 0.000000 0.000000
0.734806 1.367365 1.793668 0.000000 0.000000 0.000000
0.748058 1.340207 1.825153 0.000000 0.000000 0.000000
0.740396 1.341710 1.807263 0.000000 0.000000 0.000000
0.757817 1.336559 1.825226 0.000000 0.000000 0.000000
0.747191 1.297171 1.853070 0.000000 0.000000 0.000000
0.749944 1.324762 1.826466 0.000000 0.000000 0.000000
0.741198 1.312021 1.833544 0.000000 0.000000 0.000000
0.739609 1.343672 1.814340 0.000000 0.000000 0.000000
0.755495 1.336834 1.826388 0.000000 0.000000 0.000000
0.748788 1.308605 1.843521 0.000000 0.000000 0.000000
0.742809 1.299962 1.851352 0.000000 0.000000 0.000000
0.734808 1.349175 1.813429 0.000000 0.000000 0.000000
0.751120 1.318748 1.839325 0.000000 0.000000 0.000000
0.772095 1.307630 1.858994 0.000000 0.000000 0.000000
0.742313 1.316783 1.838843 0.000000 0.000000 0.000000
0.752823 1.302293 1.852132 0.000000 0.000000 0.000000
0.748036 1.343477 1.816218 0.000000 0.000000 0.000000
0.773670 1.296156 1.860954 0.000000 0.000000 0.000000
0.759998 1.343672 1.817076 0.000000 0.000000 0.000000
0.772579 1.278544 1.868175 0.000000 0.000000 0.000000
0.749726 1.337503 1.822582 0.000000 0.000000 0.000000
0.770856 1.303804 1.841299 0.000000 0.000000 0.000000
0.735107 1.305001 1.838441 0.000000 0.000000 0.000000
0.758276 1.336808 1.823463 0.000000 0.000000 0.000000
0.743684 1.342309 1.816570 0.000000 0.000000 0.000000
0.715831 1.339467 1.804983 0.000000 0.000000 0.000000
0.719680 1.335589 1.809658 0.000000 0.000000 0.000000
0.754142 1.355713 1.809932 0.000000 0.000000 0.000000
0.740013 1.322622 1.829836 0.000000 0.000000 0.000000
0.739200 1.343956 1.812346 0.000000 0.000000 0.000000
0.729377 1.350579 1.802322 0.000000 0.000000 0.000000
0.721656 1.367215 1.784927 0.000000 0.000000 0.000000
0.776848 1.266797 1.873125 0.000000 0.000000 0.000000
0.761215 1.334852 1.825550 0.000000 0.000000 0.000000
0.725449 1.335939 1.810829 0.000000 0.000000 0.000000
0.725211 1.354239 1.799356 0.000000 0.000000 0.000000
0.725750 1.360758 1.796098 0.000000 0.000000 0.000000
0.741933 1.353201 1.799055 0.000000 0.000000 0.000000
0.755643 1.349096 1.809889 0.000000 0.000000 0.000000
0.727397 1.322839 1.822770 0.000000 0.000000 0.000000
0.725498 1.370962 1.787027 0.000000 0.000000 0.000000
0.731082 1.281514 1.849743 0.000000 0.000000 0.000000
0.723672 1.323061 1.820907 0.000000 0.000000 0.000000
0.737793 1.327282 1.824086 0.000000 0.000000 0.000000
0.753417 1.281782 1.850102 0.000000 0.000000 0.000000
0.747720 1.310889 1.841447 0.000000 0.000000 0.000000
0.740986 1.319397 1.830791 0.000000 0.000000 0.000000
0.747637 1.295253 1.854224 0.000000 0.000000 0.000000
0.761776 1.303600 1.853476 0.000000 0.000000 0.000000
0.726452 1.348505 1.796943 0.000000 0.000000 0.000000
0.763057 1.280855 1.863946 0.000000 0.000000 0.000000
0.786922 1.290035 1.873643 0.000000 0.000000 0.000000
0.764352 1.330460 1.827505 0.000000 0.000000 0.000000
0.769917 1.285031 1.873021 0.000000 0.000000 0.000000
0.747551 1.289479 1.858219 0.000000 0.000000 0.000000
0.759982 1.329733 1.831835 0.000000 0.000000 0.000000
0.736789 1.361104 1.797524 0.000000 0.000000 0.000000
0.723633 1.365513 1.786252 0.000000 0.000000 0.000000
0.744766 1.337994 1.817667 0.000000 0.000000 0.000000
0.755196 1.310511 1.843587 0.000000 0.000000 0.000000
0.750117 1.330922 1.831751 0.000000 0.000000 0.000000
0.750581 1.343514 1.815805 0.000000 0.000000 0.000000
0.720199 1.362423 1.789976 0.000000 0.000000 0.000000
0.747579 1.294102 1.854534 0.000000 0.000000 0.000000
0.751084 1.340262 1.812854 0.000000 0.000000 0.000000
0.757010 1.330225 1.830365 0.000000 0.000000 0.000000
0.748714 1.347478 1.815277 0.000000 0.000000 0.000000
0.747814 1.329741 1.827606 0.000000 0.000000 0.000000
0.762635 1.344358 1.820917 0.000000 0.000000 0.000000
0.739171 1.363643 1.792751 0.000000 0.000000 0.000000
0.759195 1.309757 1.849674 0.000000 0.000000 0.000000
0.747321 1.357372 1.801346 0.000000 0.000000 0.000000
0.759734 1.280149 1.859420 0.000000 0.000000 0.000000
0.727084 1.374278 1.784966 0.000000 0.000000 0.000000
0.785220 1.304067 1.860106 0.000000 0.000000 0.000000
0.775072 1.277589 1.874355 0.000000 0.000000 0.000000
0.741124 1.291606 1.854307 0.000000 0.000000 0.000000
0.770090 1.302505 1.854603 0.000000 0.000000 0.000000
0.721783 1.360044 1.793416 0.000000 0.000000 0.000000
0.768015 1.279830 1.871235 0.000000 0.000000 0.000000
0.783253 1.301300 1.862495 0.000000 0.000000 0.000000
0.761516 1.273399 1.870854 0.000000 0.000000 0.000000
0.771260 1.308116 1.849948 0.000000 0.000000 0.000000
0.756580 1.281731 1.868255 0.000000 0.000000 0.000000
0.757595 1.296090 1.862724 0.000000 0.000000 0.000000
0.766591 1.308994 1.852400 0.000000 0.000000 0.000000
0.730443 1.326558 1.823006 0.000000 0.000000 0.000000
0.770541 1.274208 1.871967 0.000000 0.000000 0.000000
0.723625 1.335862 1.810975 0.000000 0.000000 0.000000
0.713422 1.362093 1.785553 0.000000 0.000000 0.000000
0.712571 1.361525 1.787210 0.000000 0.000000 0.000000
0.744621 1.364710 1.795783 0.000000 0.000000 0.000000
0.747260 1.334042 1.822000 0.000000 0.000000 0.000000
0.722241 1.367144 1.787907 0.000000 0.000000 0.000000
0.776900 1.264294 1.881849 0.000000 0.000000 0.000000
0.708302 1.349232 1.792007 0.000000 0.000000 0.000000
0.784228 1.274807 1.879137 0.000000 0.000000 0.000000
0.736529 1.301538 1.842556 0.000000 0.000000 0.000000
0.765616 1.332564 1.829073 0.000000 0.000000 0.000000
0.724766 1.356959 1.795838 0.000000 0.000000 0.000000
0.725377 1.369511 1.785032 0.000000 0.000000 0.000000
0.759621 1.296025 1.867020 0.000000 0.000000 0.000000
0.723220 1.346023 1.803918 0.000000 0.000000 0.000000
0.727149 1.363145 1.789589 0.000000 0.000000 0.000000
0.720913 1.364565 1.790568 0.000000 0.000000 0.000000
0.724791 1.368148 1.787587 0.000000 0.000000 0.000000
0.733895 1.352554 1.805816 0.000000 0.000000 0.000000
0.717105 1.363421 1.787347 0.000000 0.000000 0.000000
0.727475 1.353679 1.804429 0.000000 0.000000 0.000000
0.733022 1.327597 1.822878 0.000000 0.000000 0.000000
0.734280 1.345747 1.810913 0.000000 0.000000 0.000000
0.760904 1.301342 1.842651 0.000000 0.000000 0.000000
0.744505 1.337863 1.822023 0.000000 0.000000 0.000000
0.756385 1.349655 1.813694 0.000000 0.000000 0.000000
0.716949 1.345794 1.792479 0.000000 0.000000 0.000000
0.733259 1.340080 1.814156 0.000000 0.000000 0.000000
0.764028 1.305282 1.861155 0.000000 0.000000 0.000000
0.744362 1.324040 1.832194 0.000000 0.000000 0.000000
0.732080 1.349174 1.809281 0.000000 0.000000 0.000000
0.738668 1.332646 1.824021 0.000000 0.000000 0.000000
0.729252 1.354858 1.801445 0.000000 0.000000 0.000000
0.746018 1.328947 1.828883 0.000000 0.000000 0.000000
0.765604 1.346897 1.816757 0.000000 0.000000 0.000000
0.721049 1.360066 1.787238 0.000000 0.000000 0.000000
0.757826 1.308437 1.849959 0.000000 0.000000 0.000000
0.709338 1.370137 1.780660 0.000000 0.000000 0.000000
0.720024 1.322370 1.819658 0.000000 0.000000 0.000000
0.750625 1.320689 1.835186 0.000000 0.000000 0.000000
0.740433 1.315879 1.833897 0.000000 0.000000 0.000000
0.750945 1.326786 1.825694 0.000000 0.000000 0.000000
0.737987 1.323006 1.827585 0.000000 0.000000 0.000000
0.752014 1.330375 1.829512 0.000000 0.000000 0.000000
0.733856 1.320349 1.827513 0.000000 0.000000 0.000000
0.714818 1.331783 1.811869 0.000000 0.000000 0.000000
0.766329 1.348248 1.816573 0.000000 0.000000 0.000000
0.753545 1.353028 1.810491 0.000000 0.000000 0.000000
0.766520 1.314934 1.842510 0.000000 0.000000 0.000000
0.790161 1.256028 1.901163 0.000000 0.000000 0.000000
0.758294 1.326268 1.834528 0.000000 0.000000 0.000000
0.761108 1.347619 1.814923 0.000000 0.000000 0.000000
0.776723 1.311766 1.851282 0.000000 0.000000 0.000000
0.757115 1.338376 1.820108 0.000000 0.000000 0.000000
0.753871 1.342033 1.819176 0.000000 0.000000 0.000000
0.734335 1.320014 1.826365 0.000000 0.000000 0.000000
0.757234 1.313008 1.842474 0.000000 0.000000 0.000000
0.741326 1.300328 1.838509 0.000000 0.000000 0.000000
0.746664 1.303581 1.842351 0.000000 0.000000 0.000000
0.751800 1.315882 1.844317 0.000000 0.000000 0.000000
0.723012 1.313005 1.827029 0.000000 0.000000 0.000000
0.778127 1.309131 1.854820 0.000000 0.000000 0.000000
0.758652 1.312677 1.834323 0.000000 0.000000 0.000000
0.781252 1.315680 1.848387 0.000000 0.000000 0.000000
0.780807 1.316240 1.849165 0.000000 0.000000 0.000000
0.773173 1.310309 1.849764 0.000000 0.000000 0.000000
0.741970 1.346519 1.817258 0.000000 0.000000 0.000000
0.791025 1.256149 1.902461 0.000000 0.000000 0.000000
0.752183 1.352057 1.813578 0.000000 0.000000 0.000000
0.747196 1.285789 1.859016 0.000000 0.000000 0.000000
0.774015 1.327209 1.840684 0.000000 0.000000 0.000000
0.731030 1.367033 1.787630 0.000000 0.000000 0.000000
0.790467 1.271902 1.885900 0.000000 0.000000 0.000000
0.724720 1.379904 1.778647 0.000000 0.000000 0.000000
0.712205 1.372369 1.778843 0.000000 0.000000 0.000000
0.782413 1.305757 1.851922 0.000000 0.000000 0.000000
0.781292 1.321250 1.845834 0.000000 0.000000 0.000000
0.788344 1.278711 1.882181 0.000000 0.000000 0.000000
0.782532 1.268910 1.885680 0.000000 0.000000 0.000000
0.740273 1.290479 1.853001 0.000000 0.000000 0.000000
0.759437 1.321457 1.842251 0.000000 0.000000 0.000000
0.746804 1.309802 1.831850 0.000000 0.000000 0.000000
0.776420 1.268715 1.884270 0.000000 0.000000 0.000000
0.746877 1.289506 1.862340 0.000000 0.000000 0.000000
0.750812 1.286619 1.861581 0.000000 0.000000 0.000000
0.757445 1.278583 1.866626 0.000000 0.000000 0.000000
0.741079 1.305606 1.842355 0.000000 0.000000 0.000000
0.727696 1.339765 1.810142 0.000000 0.000000 0.000000
0.730325 1.357048 1.797564 0.000000 0.000000 0.000000
0.746999 1.284299 1.860658 0.000000 0.000000 0.000000
0.790868 1.265249 1.889780 0.000000 0.000000 0.000000
0.769641 1.271501 1.878939 0.000000 0.000000 0.000000
0.736714 1.359314 1.796776 0.000000 0.000000 0.000000
0.740799 1.354615 1.804301 0.000000 0.000000 0.000000
0.722404 1.368046 1.784571 0.000000 0.000000 0.000000
0.705104 1.381824 1.778202 0.000000 0.000000 0.000000
0.730588 1.366720 1.787820 0.000000 0.000000 0.000000
0.772157 1.313450 1.853025 0.000000 0.000000 0.000000
0.725160 1.371398 1.784032 0.000000 0.000000 0.000000
0.742226 1.359073 1.797434 0.000000 0.000000 0.000000
0.737805 1.358088 1.805830 0.000000 0.000000 0.000000
0.745159 1.371866 1.791516 0.000000 0.000000 0.000000
0.717054 1.362843 1.788955 0.000000 0.000000 0.000000
0.731431 1.361481 1.793826 0.000000 0.000000 0.000000
0.771999 1.311154 1.849573 0.000000 0.000000 0.000000
0.720417 1.372921 1.779787 0.000000 0.000000 0.000000
0.746436 1.352049 1.808329 0.000000 0.000000 0.000000
0.720776 1.370762 1.781219 0.000000 0.000000 0.000000
0.735132 1.377537 1.782101 0.000000 0.000000 0.000000
0.754459 1.348895 1.811855 0.000000 0.000000 0.000000
0.721639 1.373533 1.781953 0.000000 0.000000 0.000000
0.740810 1.363567 1.796765 0.000000 0.000000 0.000000
0.733124 1.366978 1.788074 0.000000 0.000000 0.000000
0.731473 1.318856 1.827871 0.000000 0.000000 0.000000
0.722054 1.375780 1.781077 0.000000 0.000000 0.000000
0.766436 1.320530 1.838753 0.000000 0.000000 0.000000
0.774348 1.334486 1.827148 0.000000 0.000000 0.000000
0.701895 1.376606 1.777425 0.000000 0.000000 0.000000
0.758815 1.338619 1.822619 0.000000 0.000000 0.000000
0.775464 1.318373 1.840255 0.000000 0.000000 0.000000
0.739387 1.351017 1.807937 0.000000 0.000000 0.000000
0.765151 1.314118 1.835724 0.000000 0.000000 0.000000
0.773853 1.326588 1.833347 0.000000 0.000000 0.000000
0.766522 1.313132 1.846918 0.000000 0.000000 0.000000
0.712187 1.374656 1.777410 0.000000 0.000000 0.000000
0.754468 1.324449 1.824274 0.000000 0.000000 0.000000
0.762149 1.320286 1.842329 0.000000 0.000000 0.000000
0.765229 1.334110 1.830546 0.000000 0.000000 0.000000
0.781393 1.282043 1.871113 0.000000 0.000000 0.000000
0.763108 1.315828 1.845412 0.000000 0.000000 0.000000
0.788117 1.282321 1.877363 0.000000 0.000000 0.000000
0.704463 1.356902 1.783348 0.000000 0.000000 0.000000
0.712851 1.372562 1.780146 0.000000 0.000000 0.000000
0.727360 1.363200 1.792504 0.000000 0.000000 0.000000
0.708433 1.366989 1.781067 0.000000 0.000000 0.000000
0.735054 1.375286 1.784591 0.000000 0.000000 0.000000
0.770355 1.316604 1.842201 0.000000 0.000000 0.000000
0.777354 1.324226 1.840319 0.000000 0.000000 0.000000
0.792741 1.261399 1.905013 0.000000 0.000000 0.000000
0.763914 1.304405 1.858714 0.000000 0.000000 0.000000
0.722224 1.370859 1.782715 0.000000 0.000000 0.000000
0.764629 1.348357 1.817398 0.000000 0.000000 0.000000
0.790524 1.257943 1.899843 0.000000 0.000000 0.000000
0.754865 1.345874 1.831360 0.000000 0.000000 0.000000
0.781353 1.325236 1.841474 0.000000 0.000000 0.000000
0.766955 1.331709 1.833236 0.000000 0.000000 0.000000
0.719222 1.345165 1.802296 0.000000 0.000000 0.000000
0.738354 1.317331 1.828553 0.000000 0.000000 0.000000
0.760168 1.354283 1.813833 0.000000 0.000000 0.000000
0.783400 1.318711 1.842119 0.000000 0.000000 0.000000
0.725854 1.366067 1.790208 0.000000 0.000000 0.000000
0.724584 1.370257 1.790092 0.000000 0.000000 0.000000
0.765938 1.277329 1.869292 0.000000 0.000000 0.000000
0.735743 1.360558 1.802119 0.000000 0.000000 0.000000
0.745349 1.362587 1.803107 0.000000 0.000000 0.000000
0.731228 1.320190 1.826543 0.000000 0.000000 0.000000
0.727373 1.314620 1.825629 0.000000 0.000000 0.000000
0.738540 1.305515 1.839901 0.000000 0.000000 0.000000
0.727030 1.311689 1.829292 0.000000 0.000000 0.000000
0.731111 1.308839 1.834187 0.000000 0.000000 0.000000
0.763963 1.284333 1.864802 0.000000 0.000000 0.000000
0.763236 1.341292 1.814540 0.000000 0.000000 0.000000
0.732465 1.303333 1.839609 0.000000 0.000000 0.000000
0.726252 1.311454 1.830456 0.000000 0.000000 0.000000
0.746947 1.298829 1.846267 0.000000 0.000000 0.000000
0.742480 1.307504 1.841143 0.000000 0.000000 0.000000
0.738696 1.297470 1.847966 0.000000 0.000000 0.000000
0.743439 1.285812 1.851687 0.000000 0.000000 0.000000
0.756158 1.282738 1.869541 0.000000 0.000000 0.000000
0.705947 1.346458 1.796465 0.000000 0.000000 0.000000
0.786675 1.269248 1.886050 0.000000 0.000000 0.000000
0.784066 1.307109 1.849749 0.000000 0.000000 0.000000
0.737282 1.293889 1.848369 0.000000 0.000000 0.000000
0.756418 1.352475 1.804896 0.000000 0.000000 0.000000
0.719183 1.372009 1.784132 0.000000 0.000000 0.000000
0.753794 1.357434 1.804724 0.000000 0.000000 0.000000
0.745077 1.360941 1.796244 0.000000 0.000000 0.000000
0.755262 1.356308 1.810870 0.000000 0.000000 0.000000
0.757158 1.351837 1.810450 0.000000 0.000000 0.000000
0.751640 1.360042 1.801944 0.000000 0.000000 0.000000
0.750855 1.356699 1.804556 0.000000 0.000000 0.000000
0.769873 1.344986 1.819412 0.000000 0.000000 0.000000
0.729163 1.311619 1.831493 0.000000 0.000000 0.000000
0.740637 1.291623 1.855049 0.000000 0.000000 0.000000
0.745334 1.290819 1.852335 0.000000 0.000000 0.000000
0.744530 1.358377 1.799125 0.000000 0.000000 0.000000
0.740259 1.356092 1.804529 0.000000 0.000000 0.000000
0.787660 1.311983 1.859726 0.000000 0.000000 0.000000
0.712986 1.332257 1.807053 0.000000 0.000000 0.000000
0.776909 1.263332 1.883671 0.000000 0.000000 0.000000
0.785930 1.317293 1.851369 0.000000 0.000000 0.000000
0.720017 1.371160 1.781405 0.000000 0.000000 0.000000
0.713109 1.366949 1.784476 0.000000 0.000000 0.000000
0.708896 1.372472 1.778481 0.000000 0.000000 0.000000
0.708609 1.374690 1.781864 0.000000 0.000000 0.000000
0.703284 1.369002 1.779435 0.000000 0.000000 0.000000
0.788641 1.256086 1.897570 0.000000 0.000000 0.000000
0.727306 1.370038 1.796351 0.000000 0.000000 0.000000
0.764986 1.351678 1.819353 0.000000 0.000000 0.000000
0.741126 1.360334 1.796288 0.000000 0.000000 0.000000
0.747160 1.354992 1.807108 0.000000 0.000000 0.000000
0.746356 1.372553 1.793956 0.000000 0.000000 0.000000
0.728076 1.373580 1.784157 0.000000 0.000000 0.000000
0.748598 1.349947 1.808116 0.000000 0.000000 0.000000
0.793164 1.294651 1.872318 0.000000 0.000000 0.000000
0.790902 1.280609 1.879470 0.000000 0.000000 0.000000
0.724862 1.322365 1.810201 0.000000 0.000000 0.000000
0.781988 1.296367 1.863630 0.000000 0.000000 0.000000
0.786013 1.289323 1.869432 0.000000 0.000000 0.000000
0.783307 1.282797 1.874391 0.000000 0.000000 0.000000
0.787530 1.299932 1.861051 0.000000 0.000000 0.000000
0.776930 1.290717 1.867832 0.000000 0.000000 0.000000
0.791329 1.289249 1.873642 0.000000 0.000000 0.000000
0.770820 1.292012 1.865529 0.000000 0.000000 0.000000
0.788082 1.285127 1.873182 0.000000 0.000000 0.000000
0.789489 1.299245 1.865535 0.000000 0.000000 0.000000
0.780166 1.286821 1.870785 0.000000 0.000000 0.000000
0.780824 1.291166 1.868587 0.000000 0.000000 0.000000
0.790607 1.307227 1.856943 0.000000 0.000000 0.000000
0.751691 1.353472 1.805366 0.000000 0.000000 0.000000
0.715775 1.342035 1.802536 0.000000 0.000000 0.000000
0.726514 1.359123 1.794640 0.000000 0.000000 0.000000
0.713992 1.375412 1.790936 0.000000 0.000000 0.000000
0.743775 1.350014 1.808079 0.000000 0.000000 0.000000
0.760357 1.340348 1.824622 0.000000 0.000000 0.000000
0.748700 1.364863 1.798633 0.000000 0.000000 0.000000
0.756061 1.346912 1.812379 0.000000 0.000000 0.000000
0.787154 1.298019 1.864831 0.000000 0.000000 0.000000
0.782697 1.319853 1.851336 0.000000 0.000000 0.000000
0.776484 1.334753 1.838697 0.000000 0.000000 0.000000
0.785914 1.299329 1.863227 0.000000 0.000000 0.000000
0.778195 1.322720 1.852618 0.000000 0.000000 0.000000
0.775344 1.338836 1.833062 0.000000 0.000000 0.000000
0.753662 1.358217 1.798852 0.000000 0.000000 0.000000
0.714696 1.347452 1.794661 0.000000 0.000000 0.000000
0.730522 1.375409 1.784042 0.000000 0.000000 0.000000
0.722256 1.355581 1.796087 0.000000 0.000000 0.000000
0.714950 1.349523 1.797344 0.000000 0.000000 0.000000
0.713166 1.357109 1.790417 0.000000 0.000000 0.000000
0.705584 1.362204 1.788235 0.000000 0.000000 0.000000
0.727844 1.307178 1.830003 0.000000 0.000000 0.000000
0.722805 1.319636 1.822845 0.000000 0.000000 0.000000
0.730109 1.306305 1.836434 0.000000 0.000000 0.000000
0.706579 1.371010 1.777602 0.000000 0.000000 0.000000
0.745726 1.290104 1.851038 0.000000 0.000000 0.000000
0.763150 1.348521 1.820742 0.000000 0.000000 0.000000
0.782960 1.318483 1.848285 0.000000 0.000000 0.000000
0.735091 1.292282 1.850727 0.000000 0.000000 0.000000
0.774307 1.327819 1.837034 0.000000 0.000000 0.000000
0.774189 1.323411 1.849520 0.000000 0.000000 0.000000
0.770302 1.334343 1.832462 0.000000 0.000000 0.000000
0.718505 1.331207 1.812454 0.000000 0.000000 0.000000
0.773078 1.324829 1.837696 0.000000 0.000000 0.000000
0.783339 1.322146 1.843992 0.000000 0.000000 0.000000
0.793316 1.290819 1.872767 0.000000 0.000000 0.000000
0.723415 1.329048 1.815248 0.000000 0.000000 0.000000
0.739007 1.366498 1.792054 0.000000 0.000000 0.000000
0.725391 1.369998 1.784834 0.000000 0.000000 0.000000
0.717774 1.381000 1.778271 0.000000 0.000000 0.000000
0.708515 1.376677 1.775750 0.000000 0.000000 0.000000
0.716497 1.365538 1.781206 0.000000 0.000000 0.000000
0.724086 1.371417 1.783149 0.000000 0.000000 0.000000
0.731820 1.370169 1.786100 0.000000 0.000000 0.000000
0.753368 1.275421 1.869370 0.000000 0.000000 0.000000
0.769687 1.270163 1.878695 0.000000 0.000000 0.000000
0.717475 1.338895 1.803992 0.000000 0.000000 0.000000
0.707026 1.356612 1.788016 0.000000 0.000000 0.000000
0.779966 1.331219 1.839173 0.000000 0.000000 0.000000
0.770957 1.327818 1.840786 0.000000 0.000000 0.000000
0.721029 1.327332 1.816736 0.000000 0.000000 0.000000
0.759603 1.330082 1.844252 0.000000 0.000000 0.000000
0.748872 1.358636 1.803102 0.000000 0.000000 0.000000
0.755614 1.295186 1.857314 0.000000 0.000000 0.000000
0.759075 1.295536 1.857317 0.000000 0.000000 0.000000
0.763428 1.273991 1.872972 0.000000 0.000000 0.000000
0.761827 1.350726 1.815956 0.000000 0.000000 0.000000
0.774276 1.265478 1.883550 0.000000 0.000000 0.000000
0.752816 1.301398 1.852488 0.000000 0.000000 0.000000
0.770092 1.284373 1.870494 0.000000 0.000000 0.000000
0.774150 1.269498 1.878780 0.000000 0.000000 0.000000
0.761669 1.276906 1.872849 0.000000 0.000000 0.000000
0.716557 1.336457 1.806274 0.000000 0.000000 0.000000
0.718798 1.372795 1.780113 0.000000 0.000000 0.000000
0.742367 1.372502 1.792165 0.000000 0.000000 0.000000
0.715345 1.372454 1.780168 0.000000 0.000000 0.000000
0.715836 1.371637 1.780647 0.000000 0.000000 0.000000
0.706957 1.365750 1.780905 0.000000 0.000000 0.000000
0.717808 1.324191 1.818269 0.000000 0.000000 0.000000
0.711711 1.345515 1.798363 0.000000 0.000000 0.000000
0.736955 1.374882 1.789185 0.000000 0.000000 0.000000
0.755203 1.358176 1.805185 0.000000 0.000000 0.000000
0.716945 1.351961 1.792346 0.000000 0.000000 0.000000
0.743601 1.368093 1.791687 0.000000 0.000000 0.000000
0.744581 1.366488 1.792200 0.000000 0.000000 0.000000
0.732421 1.364450 1.793800 0.000000 0.000000 0.000000
0.736268 1.369980 1.787122 0.000000 0.000000 0.000000
0.744862 1.366924 1.786683 0.000000 0.000000 0.000000
0.767626 1.346383 1.821671 0.000000 0.000000 0.000000
0.717346 1.373315 1.779296 0.000000 0.000000 0.000000
0.763338 1.349463 1.822056 0.000000 0.000000 0.000000
0.769006 1.347709 1.822690 0.000000 0.000000 0.000000
0.717429 1.372571 1.780241 0.000000 0.000000 0.000000
0.759302 1.351520 1.815675 0.000000 0.000000 0.000000
0.721544 1.375504 1.777001 0.000000 0.000000 0.000000
0.755314 1.353042 1.809534 0.000000 0.000000 0.000000
0.732422 1.312735 1.832369 0.000000 0.000000 0.000000
0.745306 1.316234 1.837194 0.000000 0.000000 0.000000
0.768784 1.334382 1.828808 0.000000 0.000000 0.000000
0.760676 1.341438 1.821154 0.000000 0.000000 0.000000
0.741508 1.305667 1.840624 0.000000 0.000000 0.000000
0.739801 1.308294 1.837551 0.000000 0.000000 0.000000
0.766216 1.337375 1.824711 0.000000 0.000000 0.000000
0.745525 1.347322 1.814393 0.000000 0.000000 0.000000
0.771435 1.345757 1.820943 0.000000 0.000000 0.000000
0.718478 1.323485 1.814248 0.000000 0.000000 0.000000
0.728510 1.303039 1.837003 0.000000 0.000000 0.000000
0.752690 1.364889 1.802939 0.000000 0.000000 0.000000
0.733635 1.308526 1.834324 0.000000 0.000000 0.000000
0.722764 1.313671 1.821392 0.000000 0.000000 0.000000
0.786950 1.311798 1.854441 0.000000 0.000000 0.000000
0.785336 1.316360 1.858826 0.000000 0.000000 0.000000
0.726571 1.307951 1.834276 0.000000 0.000000 0.000000
0.730294 1.303085 1.834881 0.000000 0.000000 0.000000
0.780047 1.315328 1.852329 0.000000 0.000000 0.000000
0.786336 1.308444 1.860230 0.000000 0.000000 0.000000
0.726306 1.303470 1.836716 0.000000 0.000000 0.000000
0.758574 1.343688 1.816864 0.000000 0.000000 0.000000
0.769522 1.341902 1.822836 0.000000 0.000000 0.000000
0.704982 1.346676 1.796210 0.000000 0.000000 0.000000
0.771929 1.339342 1.827689 0.000000 0.000000 0.000000
0.769964 1.331925 1.825299 0.000000 0.000000 0.000000
0.780312 1.309457 1.850111 0.000000 0.000000 0.000000
0.769394 1.339388 1.826707 0.000000 0.000000 0.000000
0.775626 1.339876 1.827766 0.000000 0.000000 0.000000
0.771192 1.323299 1.837278 0.000000 0.000000 0.000000
0.705814 1.339697 1.802630 0.000000 0.000000 0.000000
0.767252 1.339647 1.820658 0.000000 0.000000 0.000000
0.785615 1.315081 1.850252 0.000000 0.000000 0.000000
0.766717 1.341578 1.824601 0.000000 0.000000 0.000000
0.764481 1.340407 1.821169 0.000000 0.000000 0.000000
0.712443 1.367944 1.781128 0.000000 0.000000 0.000000
0.761217 1.349751 1.810394 0.000000 0.000000 0.000000
0.767197 1.267817 1.878615 0.000000 0.000000 0.000000
0.770234 1.273882 1.881070 0.000000 0.000000 0.000000
0.776328 1.281116 1.882994 0.000000 0.000000 0.000000
0.764181 1.333124 1.830464 0.000000 0.000000 0.000000
0.765738 1.327408 1.834565 0.000000 0.000000 0.000000
0.768435 1.274246 1.877494 0.000000 0.000000 0.000000
0.787866 1.259796 1.892701 0.000000 0.000000 0.000000
0.793501 1.282035 1.881284 0.000000 0.000000 0.000000
0.784450 1.260767 1.894069 0.000000 0.000000 0.000000
0.787321 1.263041 1.892644 0.000000 0.000000 0.000000
0.788305 1.271188 1.886128 0.000000 0.000000 0.000000
0.784897 1.315418 1.853254 0.000000 0.000000 0.000000
0.717121 1.322919 1.817577 0.000000 0.000000 0.000000
0.717267 1.355012 1.793127 0.000000 0.000000 0.000000
0.774655 1.267678 1.881908 0.000000 0.000000 0.000000
0.785524 1.265490 1.888334 0.000000 0.000000 0.000000
0.769452 1.274284 1.874226 0.000000 0.000000 0.000000
0.762333 1.271520 1.874256 0.000000 0.000000 0.000000
0.785076 1.273082 1.883447 0.000000 0.000000 0.000000
0.779647 1.271465 1.889877 0.000000 0.000000 0.000000
0.768431 1.275817 1.877696 0.000000 0.000000 0.000000
0.774531 1.276120 1.885160 0.000000 0.000000 0.000000
0.760036 1.273236 1.874181 0.000000 0.000000 0.000000
0.769255 1.294359 1.875822 0.000000 0.000000 0.000000
0.779064 1.270285 1.884483 0.000000 0.000000 0.000000
0.778286 1.282171 1.888138 0.000000 0.000000 0.000000
0.749187 1.287606 1.856962 0.000000 0.000000 0.000000
0.746079 1.285408 1.858309 0.000000 0.000000 0.000000
0.742378 1.284045 1.862277 0.000000 0.000000 0.000000
0.753142 1.280033 1.868104 0.000000 0.000000 0.000000
0.748307 1.281433 1.864116 0.000000 0.000000 0.000000
0.748459 1.279565 1.864000 0.000000 0.000000 0.000000
0.758355 1.346148 1.814456 0.000000 0.000000 0.000000
0.713775 1.324117 1.817476 0.000000 0.000000 0.000000
0.714064 1.374726 1.776934 0.000000 0.000000 0.000000
0.709680 1.379687 1.775106 0.000000 0.000000 0.000000
0.712540 1.374066 1.779000 0.000000 0.000000 0.000000
0.712518 1.373163 1.780001 0.000000 0.000000 0.000000
0.711088 1.372890 1.777971 0.000000 0.000000 0.000000
0.709842 1.374837 1.773974 0.000000 0.000000 0.000000
0.756796 1.325427 1.842148 0.000000 0.000000 0.000000
0.788899 1.312477 1.856151 0.000000 0.000000 0.000000
0.723028 1.312890 1.828007 0.000000 0.000000 0.000000
0.788686 1.294937 1.866860 0.000000 0.000000 0.000000
0.774557 1.320514 1.842094 0.000000 0.000000 0.000000
0.789228 1.301723 1.863930 0.000000 0.000000 0.000000
0.732356 1.297813 1.844741 0.000000 0.000000 0.000000
0.793594 1.303620 1.866467 0.000000 0.000000 0.000000
0.729017 1.372348 1.782650 0.000000 0.000000 0.000000
0.725576 1.373576 1.783951 0.000000 0.000000 0.000000
0.722972 1.308764 1.830171 0.000000 0.000000 0.000000
0.720074 1.371586 1.784082 0.000000 0.000000 0.000000
0.721504 1.306406 1.833208 0.000000 0.000000 0.000000
0.736504 1.366056 1.797235 0.000000 0.000000 0.000000
0.712196 1.353305 1.792396 0.000000 0.000000 0.000000
0.702733 1.368576 1.780571 0.000000 0.000000 0.000000
0.793103 1.259492 1.899790 0.000000 0.000000 0.000000
0.738972 1.288963 1.855316 0.000000 0.000000 0.000000
0.743241 1.290070 1.850346 0.000000 0.000000 0.000000
0.738660 1.289485 1.856042 0.000000 0.000000 0.000000
0.739917 1.294068 1.848951 0.000000 0.000000 0.000000
0.742179 1.290327 1.852422 0.000000 0.000000 0.000000
0.739528 1.295588 1.845986 0.000000 0.000000 0.000000
0.733388 1.281859 1.852238 0.000000 0.000000 0.000000
0.752810 1.287260 1.862345 0.000000 0.000000 0.000000
0.725773 1.298118 1.842867 0.000000 0.000000 0.000000
0.725813 1.302379 1.841885 0.000000 0.000000 0.000000
0.724738 1.333562 1.814213 0.000000 0.000000 0.000000
0.714273 1.330008 1.811631 0.000000 0.000000 0.000000
0.709988 1.337716 1.802427 0.000000 0.000000 0.000000
0.709808 1.332553 1.808911 0.000000 0.000000 0.000000
0.727226 1.333303 1.814607 0.000000 0.000000 0.000000
0.717207 1.345621 1.799196 0.000000 0.000000 0.000000
0.727568 1.324858 1.820774 0.000000 0.000000 0.000000
0.727603 1.306294 1.835096 0.000000 0.000000 0.000000
0.723304 1.325817 1.819021 0.000000 0.000000 0.000000
0.716030 1.337222 1.807011 0.000000 0.000000 0.000000
0.719745 1.327542 1.816074 0.000000 0.000000 0.000000
0.722457 1.310669 1.828713 0.000000 0.000000 0.000000
0.748176 1.283134 1.857546 0.000000 0.000000 0.000000
0.748315 1.289267 1.851498 0.000000 0.000000 0.000000
0.702332 1.367714 1.781081 0.000000 0.000000 0.000000
0.756583 1.281354 1.853855 0.000000 0.000000 0.000000
0.744870 1.296661 1.850479 0.000000 0.000000 0.000000
0.795193 1.276818 1.884202 0.000000 0.000000 0.000000
0.755314 1.281604 1.860499 0.000000 0.000000 0.000000
0.791912 1.266524 1.892992 0.000000 0.000000 0.000000
0.712251 1.327663 1.813851 0.000000 0.000000 0.000000
0.759949 1.360283 1.810498 0.000000 0.000000 0.000000
0.716638 1.316403 1.824112 0.000000 0.000000 0.000000
0.713107 1.340384 1.802521 0.000000 0.000000 0.000000
0.703074 1.352525 1.789618 0.000000 0.000000 0.000000
0.709343 1.344292 1.797997 0.000000 0.000000 0.000000
0.705544 1.338897 1.799553 0.000000 0.000000 0.000000
0.719227 1.321128 1.818460 0.000000 0.000000 0.000000
0.703113 1.360829 1.787639 0.000000 0.000000 0.000000
0.718030 1.314985 1.822752 0.000000 0.000000 0.000000
0.702318 1.361574 1.784802 0.000000 0.000000 0.000000
0.716778 1.367932 1.783045 0.000000 0.000000 0.000000
0.724314 1.372477 1.782250 0.000000 0.000000 0.000000
0.718244 1.380779 1.782371 0.000000 0.000000 0.000000
0.723058 1.370016 1.785113 0.000000 0.000000 0.000000
0.749534 1.353720 1.816556 0.000000 0.000000 0.000000
0.719711 1.368282 1.783921 0.000000 0.000000 0.000000
0.727822 1.372078 1.778814 0.000000 0.000000 0.000000
0.734950 1.301135 1.842403 0.000000 0.000000 0.000000
0.755696 1.359065 1.804966 0.000000 0.000000 0.000000
0.761530 1.349389 1.816171 0.000000 0.000000 0.000000
0.737660 1.287311 1.858287 0.000000 0.000000 0.000000
0.734602 1.294914 1.849962 0.000000 0.000000 0.000000
0.754482 1.356956 1.809607 0.000000 0.000000 0.000000
0.753751 1.358116 1.805669 0.000000 0.000000 0.000000
0.760774 1.351529 1.813057 0.000000 0.000000 0.000000
0.736459 1.291668 1.855170 0.000000 0.000000 0.000000
0.739356 1.291820 1.850968 0.000000 0.000000 0.000000
0.750829 1.357903 1.811293 0.000000 0.000000 0.000000
0.720848 1.384394 1.772182 0.000000 0.000000 0.000000
0.726492 1.373771 1.786163 0.000000 0.000000 0.000000
0.727225 1.377509 1.783379 0.000000 0.000000 0.000000
0.727586 1.368963 1.789564 0.000000 0.000000 0.000000
0.718373 1.312121 1.828302 0.000000 0.000000 0.000000
0.728085 1.372839 1.781606 0.000000 0.000000 0.000000
0.735248 1.372729 1.782373 0.000000 0.000000 0.000000
0.776837 1.333100 1.834509 0.000000 0.000000 0.000000
0.712437 1.327046 1.814710 0.000000 0.000000 0.000000
0.772308 1.340154 1.826166 0.000000 0.000000 0.000000
0.754543 1.273196 1.867340 0.000000 0.000000 0.000000
0.768236 1.267753 1.878363 0.000000 0.000000 0.000000
0.767185 1.343746 1.820974 0.000000 0.000000 0.000000
0.761833 1.272117 1.875098 0.000000 0.000000 0.000000
0.764892 1.269854 1.877243 0.000000 0.000000 0.000000
0.727064 1.313205 1.828708 0.000000 0.000000 0.000000
0.713221 1.340029 1.801302 0.000000 0.000000 0.000000
0.787295 1.243954 1.902494 0.000000 0.000000 0.000000
