ply
format ascii 1.0
comment VCGLIB generated
obj_info Generated by SPFormer!
element vertex 770
property float x
property float y
property float z
property float nx
property float ny
property float nz
end_header
0.840013 0.871953 1.746168 0.000000 0.000000 0.000000
0.841347 0.879491 1.736458 0.000000 0.000000 0.000000
0.846737 0.876347 1.750091 0.000000 0.000000 0.000000
0.840770 0.876514 1.731586 0.000000 0.000000 0.000000
0.845146 0.879321 1.745051 0.000000 0.000000 0.000000
0.841875 0.876145 1.751265 0.000000 0.000000 0.000000
0.951268 0.806578 1.793596 0.000000 0.000000 0.000000
0.939251 0.805784 1.790877 0.000000 0.000000 0.000000
0.934762 0.791486 1.792881 0.000000 0.000000 0.000000
0.936286 0.784754 1.789280 0.000000 0.000000 0.000000
0.920310 0.845706 1.775850 0.000000 0.000000 0.000000
0.962882 0.806997 1.798076 0.000000 0.000000 0.000000
0.896248 0.868135 1.760677 0.000000 0.000000 0.000000
0.948377 0.836259 1.785973 0.000000 0.000000 0.000000
0.940422 0.853202 1.776764 0.000000 0.000000 0.000000
0.960435 0.811114 1.794753 0.000000 0.000000 0.000000
0.976342 0.819538 1.799588 0.000000 0.000000 0.000000
0.970667 0.819587 1.792985 0.000000 0.000000 0.000000
0.909429 0.901565 1.756366 0.000000 0.000000 0.000000
0.956616 0.818654 1.799039 0.000000 0.000000 0.000000
0.953622 0.832561 1.795269 0.000000 0.000000 0.000000
0.980862 0.772192 1.808997 0.000000 0.000000 0.000000
0.981723 0.837951 1.794441 0.000000 0.000000 0.000000
0.967642 0.775069 1.805375 0.000000 0.000000 0.000000
0.871754 0.870200 1.763011 0.000000 0.000000 0.000000
0.995499 0.760323 1.818586 0.000000 0.000000 0.000000
0.939144 0.835499 1.786229 0.000000 0.000000 0.000000
0.994225 0.764374 1.814983 0.000000 0.000000 0.000000
0.982105 0.813233 1.801197 0.000000 0.000000 0.000000
0.964466 0.761974 1.803794 0.000000 0.000000 0.000000
0.993230 0.772278 1.819437 0.000000 0.000000 0.000000
0.982266 0.866703 1.786754 0.000000 0.000000 0.000000
0.932264 0.844077 1.778340 0.000000 0.000000 0.000000
0.921079 0.859042 1.770200 0.000000 0.000000 0.000000
0.914549 0.862602 1.763103 0.000000 0.000000 0.000000
0.939719 0.858228 1.775964 0.000000 0.000000 0.000000
0.975724 0.789859 1.804551 0.000000 0.000000 0.000000
0.972041 0.856256 1.787076 0.000000 0.000000 0.000000
0.981739 0.810005 1.800751 0.000000 0.000000 0.000000
0.986355 0.829105 1.796407 0.000000 0.000000 0.000000
0.978590 0.825233 1.794639 0.000000 0.000000 0.000000
0.953956 0.818979 1.791007 0.000000 0.000000 0.000000
0.968961 0.812035 1.798769 0.000000 0.000000 0.000000
0.972513 0.762638 1.807892 0.000000 0.000000 0.000000
0.902005 0.894769 1.760659 0.000000 0.000000 0.000000
0.886677 0.830782 1.764879 0.000000 0.000000 0.000000
0.952833 0.775383 1.804745 0.000000 0.000000 0.000000
0.992078 0.789279 1.808022 0.000000 0.000000 0.000000
0.972187 0.805577 1.801428 0.000000 0.000000 0.000000
0.942907 0.809405 1.788479 0.000000 0.000000 0.000000
0.886074 0.890886 1.756164 0.000000 0.000000 0.000000
0.986805 0.854246 1.792484 0.000000 0.000000 0.000000
0.918440 0.867110 1.769521 0.000000 0.000000 0.000000
0.916770 0.822461 1.779662 0.000000 0.000000 0.000000
0.906379 0.848930 1.769474 0.000000 0.000000 0.000000
0.971045 0.786925 1.801853 0.000000 0.000000 0.000000
0.950544 0.812487 1.797856 0.000000 0.000000 0.000000
0.888740 0.820678 1.769915 0.000000 0.000000 0.000000
0.920324 0.846130 1.775961 0.000000 0.000000 0.000000
0.895870 0.877627 1.754026 0.000000 0.000000 0.000000
0.921766 0.836606 1.777743 0.000000 0.000000 0.000000
0.882984 0.873538 1.758428 0.000000 0.000000 0.000000
0.898001 0.811492 1.778174 0.000000 0.000000 0.000000
0.882974 0.843536 1.756255 0.000000 0.000000 0.000000
0.952281 0.799420 1.795599 0.000000 0.000000 0.000000
0.941878 0.778879 1.804404 0.000000 0.000000 0.000000
0.971615 0.770087 1.805622 0.000000 0.000000 0.000000
0.963444 0.840783 1.789682 0.000000 0.000000 0.000000
0.911159 0.894359 1.760473 0.000000 0.000000 0.000000
0.894495 0.874638 1.761587 0.000000 0.000000 0.000000
0.890657 0.863249 1.761989 0.000000 0.000000 0.000000
0.905561 0.803481 1.782303 0.000000 0.000000 0.000000
0.978734 0.768085 1.813895 0.000000 0.000000 0.000000
1.003330 0.839235 1.804134 0.000000 0.000000 0.000000
0.966485 0.855994 1.782048 0.000000 0.000000 0.000000
0.913372 0.875871 1.766078 0.000000 0.000000 0.000000
0.872922 0.879928 1.757151 0.000000 0.000000 0.000000
0.886588 0.888534 1.757677 0.000000 0.000000 0.000000
0.926557 0.862624 1.772892 0.000000 0.000000 0.000000
0.960374 0.808166 1.800428 0.000000 0.000000 0.000000
0.892534 0.871470 1.761859 0.000000 0.000000 0.000000
0.954397 0.851695 1.778097 0.000000 0.000000 0.000000
0.981245 0.886094 1.785652 0.000000 0.000000 0.000000
0.869748 0.868685 1.755187 0.000000 0.000000 0.000000
0.945653 0.881365 1.782733 0.000000 0.000000 0.000000
1.000355 0.845854 1.797618 0.000000 0.000000 0.000000
0.866851 0.864817 1.759767 0.000000 0.000000 0.000000
0.963093 0.763921 1.809447 0.000000 0.000000 0.000000
0.985144 0.826037 1.800055 0.000000 0.000000 0.000000
0.967196 0.829852 1.792622 0.000000 0.000000 0.000000
0.975683 0.828504 1.794408 0.000000 0.000000 0.000000
0.979815 0.846076 1.790568 0.000000 0.000000 0.000000
0.927534 0.874397 1.767979 0.000000 0.000000 0.000000
0.970638 0.808783 1.798466 0.000000 0.000000 0.000000
0.983880 0.770233 1.809253 0.000000 0.000000 0.000000
0.991070 0.802821 1.806637 0.000000 0.000000 0.000000
0.880630 0.899897 1.750442 0.000000 0.000000 0.000000
0.928943 0.845676 1.778168 0.000000 0.000000 0.000000
0.969009 0.895146 1.780067 0.000000 0.000000 0.000000
1.001848 0.771836 1.816323 0.000000 0.000000 0.000000
0.940194 0.895040 1.769384 0.000000 0.000000 0.000000
0.971503 0.841029 1.789219 0.000000 0.000000 0.000000
0.952709 0.900620 1.768792 0.000000 0.000000 0.000000
0.935685 0.902752 1.764672 0.000000 0.000000 0.000000
0.947830 0.872225 1.776199 0.000000 0.000000 0.000000
0.958580 0.764330 1.808601 0.000000 0.000000 0.000000
0.938749 0.860959 1.780531 0.000000 0.000000 0.000000
0.943469 0.857554 1.785285 0.000000 0.000000 0.000000
0.966939 0.882566 1.774904 0.000000 0.000000 0.000000
0.874821 0.876205 1.755243 0.000000 0.000000 0.000000
0.880031 0.899932 1.747763 0.000000 0.000000 0.000000
0.868619 0.864928 1.755802 0.000000 0.000000 0.000000
0.873668 0.874338 1.755827 0.000000 0.000000 0.000000
0.882754 0.883590 1.761836 0.000000 0.000000 0.000000
0.886473 0.886572 1.750488 0.000000 0.000000 0.000000
0.978381 0.763055 1.814066 0.000000 0.000000 0.000000
0.890246 0.902702 1.750743 0.000000 0.000000 0.000000
0.929996 0.883494 1.767168 0.000000 0.000000 0.000000
0.985357 0.883712 1.781746 0.000000 0.000000 0.000000
0.987506 0.865170 1.787378 0.000000 0.000000 0.000000
0.976191 0.889082 1.775199 0.000000 0.000000 0.000000
0.877954 0.868265 1.757375 0.000000 0.000000 0.000000
0.888249 0.859744 1.762911 0.000000 0.000000 0.000000
0.868842 0.879755 1.765074 0.000000 0.000000 0.000000
0.945476 0.877306 1.772245 0.000000 0.000000 0.000000
0.975083 0.871319 1.783135 0.000000 0.000000 0.000000
0.896715 0.845081 1.764014 0.000000 0.000000 0.000000
0.881158 0.814009 1.769937 0.000000 0.000000 0.000000
0.901323 0.891282 1.759224 0.000000 0.000000 0.000000
0.893090 0.804320 1.775613 0.000000 0.000000 0.000000
0.980697 0.818482 1.797553 0.000000 0.000000 0.000000
0.901518 0.806166 1.779445 0.000000 0.000000 0.000000
0.923165 0.867431 1.769615 0.000000 0.000000 0.000000
0.987153 0.842482 1.792741 0.000000 0.000000 0.000000
0.902950 0.854987 1.766033 0.000000 0.000000 0.000000
0.941535 0.867909 1.774091 0.000000 0.000000 0.000000
0.995011 0.817868 1.801438 0.000000 0.000000 0.000000
0.966394 0.877098 1.779939 0.000000 0.000000 0.000000
0.862283 0.864385 1.754321 0.000000 0.000000 0.000000
0.944036 0.869990 1.784932 0.000000 0.000000 0.000000
0.881435 0.892351 1.765002 0.000000 0.000000 0.000000
0.945457 0.844834 1.781627 0.000000 0.000000 0.000000
0.982567 0.833782 1.799619 0.000000 0.000000 0.000000
0.991840 0.842121 1.794481 0.000000 0.000000 0.000000
0.946365 0.779360 1.796776 0.000000 0.000000 0.000000
0.960995 0.866275 1.777158 0.000000 0.000000 0.000000
0.885149 0.851657 1.762248 0.000000 0.000000 0.000000
0.916843 0.824727 1.779838 0.000000 0.000000 0.000000
0.921758 0.869125 1.769144 0.000000 0.000000 0.000000
0.938830 0.826544 1.785932 0.000000 0.000000 0.000000
0.971853 0.855348 1.786143 0.000000 0.000000 0.000000
0.988770 0.773540 1.807304 0.000000 0.000000 0.000000
0.963979 0.794550 1.800958 0.000000 0.000000 0.000000
0.927303 0.806869 1.787843 0.000000 0.000000 0.000000
0.945622 0.864704 1.777326 0.000000 0.000000 0.000000
0.960335 0.848335 1.784246 0.000000 0.000000 0.000000
0.954064 0.885673 1.771902 0.000000 0.000000 0.000000
0.971621 0.863102 1.780564 0.000000 0.000000 0.000000
0.967038 0.868920 1.782118 0.000000 0.000000 0.000000
0.958666 0.835631 1.786521 0.000000 0.000000 0.000000
0.957877 0.778675 1.799330 0.000000 0.000000 0.000000
0.898856 0.825076 1.774669 0.000000 0.000000 0.000000
0.903318 0.819819 1.774920 0.000000 0.000000 0.000000
0.946800 0.807618 1.792112 0.000000 0.000000 0.000000
0.948348 0.830256 1.787836 0.000000 0.000000 0.000000
0.895799 0.841276 1.769081 0.000000 0.000000 0.000000
0.874056 0.852588 1.759949 0.000000 0.000000 0.000000
0.956756 0.799188 1.798074 0.000000 0.000000 0.000000
0.953960 0.865155 1.779856 0.000000 0.000000 0.000000
0.933648 0.819110 1.784248 0.000000 0.000000 0.000000
0.960151 0.784133 1.802121 0.000000 0.000000 0.000000
0.986928 0.803258 1.804471 0.000000 0.000000 0.000000
0.950334 0.862025 1.778408 0.000000 0.000000 0.000000
0.981068 0.856641 1.790784 0.000000 0.000000 0.000000
0.952432 0.829152 1.786423 0.000000 0.000000 0.000000
0.897955 0.900537 1.751798 0.000000 0.000000 0.000000
0.993786 0.764566 1.817272 0.000000 0.000000 0.000000
0.916608 0.909245 1.756064 0.000000 0.000000 0.000000
0.977580 0.783683 1.805747 0.000000 0.000000 0.000000
0.942433 0.782531 1.795613 0.000000 0.000000 0.000000
0.999002 0.834099 1.800520 0.000000 0.000000 0.000000
0.975546 0.896966 1.783074 0.000000 0.000000 0.000000
0.969570 0.891944 1.777662 0.000000 0.000000 0.000000
0.960484 0.758338 1.807315 0.000000 0.000000 0.000000
0.957806 0.871712 1.779211 0.000000 0.000000 0.000000
1.005979 0.793359 1.818280 0.000000 0.000000 0.000000
0.985030 0.889763 1.783696 0.000000 0.000000 0.000000
0.950510 0.767494 1.812205 0.000000 0.000000 0.000000
0.945641 0.848019 1.781878 0.000000 0.000000 0.000000
0.881245 0.898229 1.752667 0.000000 0.000000 0.000000
0.880399 0.884422 1.757530 0.000000 0.000000 0.000000
0.926287 0.860300 1.770500 0.000000 0.000000 0.000000
0.980657 0.884339 1.785488 0.000000 0.000000 0.000000
0.890214 0.888907 1.746168 0.000000 0.000000 0.000000
1.003103 0.852531 1.798527 0.000000 0.000000 0.000000
0.920155 0.903486 1.755198 0.000000 0.000000 0.000000
0.919363 0.820776 1.786343 0.000000 0.000000 0.000000
0.996154 0.790107 1.810377 0.000000 0.000000 0.000000
0.881570 0.898528 1.752111 0.000000 0.000000 0.000000
0.887882 0.903751 1.748408 0.000000 0.000000 0.000000
0.976427 0.889067 1.784555 0.000000 0.000000 0.000000
0.862570 0.866823 1.747262 0.000000 0.000000 0.000000
0.925855 0.768409 1.797476 0.000000 0.000000 0.000000
0.894500 0.899304 1.757699 0.000000 0.000000 0.000000
0.996120 0.771494 1.815829 0.000000 0.000000 0.000000
0.999380 0.855703 1.795754 0.000000 0.000000 0.000000
0.951082 0.778243 1.805754 0.000000 0.000000 0.000000
0.962535 0.766687 1.813077 0.000000 0.000000 0.000000
0.977525 0.901736 1.770832 0.000000 0.000000 0.000000
0.941278 0.764214 1.802657 0.000000 0.000000 0.000000
0.905780 0.876901 1.762611 0.000000 0.000000 0.000000
0.997618 0.793080 1.807893 0.000000 0.000000 0.000000
0.937036 0.883547 1.771136 0.000000 0.000000 0.000000
0.995752 0.881825 1.788761 0.000000 0.000000 0.000000
0.954884 0.776729 1.810033 0.000000 0.000000 0.000000
0.989720 0.781880 1.804555 0.000000 0.000000 0.000000
0.880560 0.856767 1.754672 0.000000 0.000000 0.000000
0.974678 0.763827 1.811614 0.000000 0.000000 0.000000
0.996791 0.794993 1.809108 0.000000 0.000000 0.000000
0.982161 0.762592 1.815657 0.000000 0.000000 0.000000
0.913125 0.897081 1.761182 0.000000 0.000000 0.000000
0.909541 0.891963 1.758929 0.000000 0.000000 0.000000
0.963761 0.763679 1.806557 0.000000 0.000000 0.000000
0.870018 0.874067 1.751347 0.000000 0.000000 0.000000
0.966999 0.768195 1.806181 0.000000 0.000000 0.000000
0.949400 0.766490 1.804742 0.000000 0.000000 0.000000
0.979845 0.869120 1.783304 0.000000 0.000000 0.000000
0.965606 0.852699 1.791293 0.000000 0.000000 0.000000
0.988251 0.836442 1.797112 0.000000 0.000000 0.000000
0.972938 0.878867 1.780841 0.000000 0.000000 0.000000
0.945941 0.887836 1.783249 0.000000 0.000000 0.000000
0.938361 0.889529 1.771031 0.000000 0.000000 0.000000
0.963066 0.785208 1.798323 0.000000 0.000000 0.000000
0.982121 0.802345 1.803831 0.000000 0.000000 0.000000
0.869005 0.829709 1.761044 0.000000 0.000000 0.000000
0.978810 0.860794 1.788239 0.000000 0.000000 0.000000
0.996103 0.776910 1.812649 0.000000 0.000000 0.000000
0.976464 0.779703 1.806148 0.000000 0.000000 0.000000
0.965037 0.893338 1.777011 0.000000 0.000000 0.000000
0.920543 0.892816 1.761483 0.000000 0.000000 0.000000
0.954353 0.875942 1.775945 0.000000 0.000000 0.000000
0.985419 0.782594 1.807590 0.000000 0.000000 0.000000
0.976974 0.851648 1.793661 0.000000 0.000000 0.000000
0.971943 0.773265 1.806147 0.000000 0.000000 0.000000
0.962094 0.886965 1.777340 0.000000 0.000000 0.000000
0.966559 0.883104 1.784762 0.000000 0.000000 0.000000
0.989252 0.796293 1.806215 0.000000 0.000000 0.000000
0.937565 0.775185 1.803515 0.000000 0.000000 0.000000
0.972057 0.890446 1.784145 0.000000 0.000000 0.000000
0.968896 0.901805 1.776757 0.000000 0.000000 0.000000
0.912596 0.902011 1.758884 0.000000 0.000000 0.000000
0.978634 0.795329 1.803879 0.000000 0.000000 0.000000
1.004520 0.789253 1.814299 0.000000 0.000000 0.000000
0.950269 0.903257 1.768981 0.000000 0.000000 0.000000
0.896349 0.883711 1.760000 0.000000 0.000000 0.000000
0.962775 0.880177 1.778604 0.000000 0.000000 0.000000
0.926001 0.879763 1.767826 0.000000 0.000000 0.000000
0.896445 0.867110 1.763781 0.000000 0.000000 0.000000
0.940556 0.892326 1.769186 0.000000 0.000000 0.000000
0.922203 0.868680 1.778671 0.000000 0.000000 0.000000
0.889032 0.862515 1.760704 0.000000 0.000000 0.000000
0.878140 0.803176 1.768129 0.000000 0.000000 0.000000
0.876291 0.823049 1.766941 0.000000 0.000000 0.000000
0.997343 0.791878 1.807508 0.000000 0.000000 0.000000
0.922848 0.835379 1.777092 0.000000 0.000000 0.000000
0.894798 0.845294 1.776584 0.000000 0.000000 0.000000
0.887964 0.804816 1.781656 0.000000 0.000000 0.000000
0.891593 0.834923 1.767042 0.000000 0.000000 0.000000
0.879314 0.814369 1.772384 0.000000 0.000000 0.000000
1.005056 0.788989 1.817048 0.000000 0.000000 0.000000
0.992053 0.800876 1.810399 0.000000 0.000000 0.000000
0.957277 0.895590 1.775186 0.000000 0.000000 0.000000
0.959637 0.888514 1.777024 0.000000 0.000000 0.000000
0.973088 0.902292 1.777136 0.000000 0.000000 0.000000
0.903570 0.800555 1.782751 0.000000 0.000000 0.000000
0.960111 0.878970 1.777955 0.000000 0.000000 0.000000
0.959445 0.895867 1.776441 0.000000 0.000000 0.000000
1.000199 0.832532 1.798911 0.000000 0.000000 0.000000
0.971399 0.890234 1.778398 0.000000 0.000000 0.000000
0.895837 0.897124 1.751074 0.000000 0.000000 0.000000
0.984388 0.831603 1.796837 0.000000 0.000000 0.000000
0.879065 0.849552 1.763619 0.000000 0.000000 0.000000
0.963185 0.825268 1.793624 0.000000 0.000000 0.000000
1.000533 0.805501 1.806482 0.000000 0.000000 0.000000
0.966739 0.754528 1.807501 0.000000 0.000000 0.000000
0.954671 0.776372 1.801639 0.000000 0.000000 0.000000
0.896280 0.820621 1.775029 0.000000 0.000000 0.000000
0.916503 0.811458 1.782995 0.000000 0.000000 0.000000
0.870386 0.873905 1.760518 0.000000 0.000000 0.000000
0.995016 0.830779 1.799437 0.000000 0.000000 0.000000
0.929038 0.811614 1.787445 0.000000 0.000000 0.000000
0.881479 0.834103 1.766931 0.000000 0.000000 0.000000
0.963191 0.900473 1.775931 0.000000 0.000000 0.000000
0.969364 0.797060 1.801989 0.000000 0.000000 0.000000
0.996042 0.765284 1.813250 0.000000 0.000000 0.000000
0.969516 0.774405 1.803809 0.000000 0.000000 0.000000
0.959757 0.775476 1.804822 0.000000 0.000000 0.000000
0.977483 0.787629 1.805299 0.000000 0.000000 0.000000
0.993813 0.775591 1.809054 0.000000 0.000000 0.000000
0.981702 0.779862 1.799991 0.000000 0.000000 0.000000
0.942180 0.764201 1.802002 0.000000 0.000000 0.000000
0.985703 0.781799 1.807597 0.000000 0.000000 0.000000
0.996557 0.778889 1.814181 0.000000 0.000000 0.000000
0.935364 0.893817 1.768692 0.000000 0.000000 0.000000
0.935178 0.856806 1.774985 0.000000 0.000000 0.000000
0.935652 0.891115 1.769386 0.000000 0.000000 0.000000
0.946113 0.890004 1.771794 0.000000 0.000000 0.000000
0.933696 0.909992 1.762439 0.000000 0.000000 0.000000
0.913816 0.860595 1.765463 0.000000 0.000000 0.000000
0.922855 0.900042 1.765394 0.000000 0.000000 0.000000
0.870504 0.858152 1.759306 0.000000 0.000000 0.000000
0.909828 0.844261 1.769524 0.000000 0.000000 0.000000
0.925519 0.863557 1.765647 0.000000 0.000000 0.000000
1.004640 0.819084 1.807870 0.000000 0.000000 0.000000
0.921943 0.878839 1.765643 0.000000 0.000000 0.000000
0.969473 0.898809 1.774556 0.000000 0.000000 0.000000
0.993704 0.835843 1.796056 0.000000 0.000000 0.000000
0.963501 0.897834 1.772694 0.000000 0.000000 0.000000
0.896011 0.897364 1.752920 0.000000 0.000000 0.000000
0.915929 0.909941 1.753754 0.000000 0.000000 0.000000
0.892953 0.892002 1.758363 0.000000 0.000000 0.000000
0.864139 0.860317 1.752238 0.000000 0.000000 0.000000
1.009184 0.803001 1.809061 0.000000 0.000000 0.000000
1.003942 0.793265 1.811196 0.000000 0.000000 0.000000
0.940461 0.760512 1.801384 0.000000 0.000000 0.000000
0.985239 0.800433 1.804640 0.000000 0.000000 0.000000
0.967570 0.816261 1.798263 0.000000 0.000000 0.000000
0.989630 0.790664 1.805320 0.000000 0.000000 0.000000
1.004624 0.790835 1.813711 0.000000 0.000000 0.000000
0.975581 0.812515 1.800399 0.000000 0.000000 0.000000
0.996434 0.807064 1.812530 0.000000 0.000000 0.000000
0.994827 0.808900 1.805582 0.000000 0.000000 0.000000
0.969919 0.784499 1.804575 0.000000 0.000000 0.000000
0.873406 0.878232 1.764555 0.000000 0.000000 0.000000
0.873930 0.818222 1.766996 0.000000 0.000000 0.000000
0.873254 0.856339 1.769287 0.000000 0.000000 0.000000
0.998866 0.844617 1.796216 0.000000 0.000000 0.000000
0.974024 0.844481 1.785954 0.000000 0.000000 0.000000
0.996207 0.873353 1.791722 0.000000 0.000000 0.000000
0.893752 0.812595 1.775342 0.000000 0.000000 0.000000
0.993173 0.839176 1.793214 0.000000 0.000000 0.000000
0.992341 0.835976 1.797795 0.000000 0.000000 0.000000
0.982900 0.863862 1.787458 0.000000 0.000000 0.000000
0.950373 0.898903 1.772415 0.000000 0.000000 0.000000
1.001473 0.780464 1.815445 0.000000 0.000000 0.000000
1.001503 0.772938 1.820194 0.000000 0.000000 0.000000
0.992566 0.767071 1.817446 0.000000 0.000000 0.000000
1.000010 0.778408 1.814685 0.000000 0.000000 0.000000
0.996791 0.776293 1.813821 0.000000 0.000000 0.000000
0.987913 0.758318 1.813275 0.000000 0.000000 0.000000
1.003733 0.779884 1.815710 0.000000 0.000000 0.000000
1.001726 0.777501 1.820211 0.000000 0.000000 0.000000
0.996807 0.767630 1.816236 0.000000 0.000000 0.000000
1.001490 0.785134 1.813210 0.000000 0.000000 0.000000
0.987507 0.771392 1.813437 0.000000 0.000000 0.000000
0.994324 0.783580 1.809468 0.000000 0.000000 0.000000
0.999501 0.770000 1.818363 0.000000 0.000000 0.000000
0.870699 0.855129 1.765328 0.000000 0.000000 0.000000
0.958958 0.902482 1.766846 0.000000 0.000000 0.000000
0.969187 0.891791 1.781544 0.000000 0.000000 0.000000
0.959494 0.769025 1.803610 0.000000 0.000000 0.000000
0.926113 0.769040 1.793790 0.000000 0.000000 0.000000
0.918756 0.785068 1.790531 0.000000 0.000000 0.000000
0.999905 0.788669 1.807797 0.000000 0.000000 0.000000
0.864005 0.849978 1.751682 0.000000 0.000000 0.000000
0.969154 0.762469 1.809272 0.000000 0.000000 0.000000
0.871074 0.847797 1.756191 0.000000 0.000000 0.000000
0.954319 0.763276 1.803689 0.000000 0.000000 0.000000
0.883927 0.854171 1.756181 0.000000 0.000000 0.000000
0.964606 0.764272 1.806698 0.000000 0.000000 0.000000
0.957590 0.757032 1.807602 0.000000 0.000000 0.000000
0.953431 0.763223 1.808308 0.000000 0.000000 0.000000
0.869743 0.868101 1.758662 0.000000 0.000000 0.000000
0.998738 0.853978 1.796034 0.000000 0.000000 0.000000
0.900392 0.797990 1.782262 0.000000 0.000000 0.000000
0.913362 0.771673 1.790559 0.000000 0.000000 0.000000
0.880078 0.899723 1.747677 0.000000 0.000000 0.000000
0.998158 0.765265 1.816217 0.000000 0.000000 0.000000
0.978871 0.879808 1.782900 0.000000 0.000000 0.000000
0.976457 0.883226 1.783127 0.000000 0.000000 0.000000
0.953127 0.884618 1.789334 0.000000 0.000000 0.000000
0.899187 0.908714 1.749187 0.000000 0.000000 0.000000
1.004658 0.783145 1.815798 0.000000 0.000000 0.000000
0.982121 0.764807 1.815940 0.000000 0.000000 0.000000
0.947797 0.900398 1.770347 0.000000 0.000000 0.000000
0.900811 0.894172 1.758344 0.000000 0.000000 0.000000
0.980838 0.761825 1.813328 0.000000 0.000000 0.000000
0.955567 0.900409 1.772497 0.000000 0.000000 0.000000
0.961981 0.901750 1.775832 0.000000 0.000000 0.000000
0.904271 0.889285 1.756968 0.000000 0.000000 0.000000
0.973769 0.762008 1.812500 0.000000 0.000000 0.000000
0.889103 0.901454 1.750567 0.000000 0.000000 0.000000
0.970878 0.755927 1.810107 0.000000 0.000000 0.000000
0.921033 0.901754 1.750407 0.000000 0.000000 0.000000
0.874641 0.862073 1.754957 0.000000 0.000000 0.000000
0.868520 0.874347 1.746141 0.000000 0.000000 0.000000
0.889167 0.894796 1.752374 0.000000 0.000000 0.000000
0.908856 0.904741 1.758472 0.000000 0.000000 0.000000
0.930505 0.891692 1.766303 0.000000 0.000000 0.000000
0.928902 0.882949 1.767648 0.000000 0.000000 0.000000
0.931797 0.897099 1.761724 0.000000 0.000000 0.000000
0.918827 0.886811 1.763135 0.000000 0.000000 0.000000
0.942796 0.896449 1.770600 0.000000 0.000000 0.000000
0.902488 0.913597 1.753110 0.000000 0.000000 0.000000
0.949943 0.884982 1.775841 0.000000 0.000000 0.000000
0.919909 0.906023 1.754352 0.000000 0.000000 0.000000
0.945317 0.896166 1.770633 0.000000 0.000000 0.000000
0.912613 0.889551 1.761580 0.000000 0.000000 0.000000
0.925805 0.909211 1.759284 0.000000 0.000000 0.000000
0.920013 0.905613 1.756207 0.000000 0.000000 0.000000
0.978758 0.759441 1.812208 0.000000 0.000000 0.000000
0.963321 0.885864 1.782126 0.000000 0.000000 0.000000
1.001263 0.781788 1.815819 0.000000 0.000000 0.000000
0.997597 0.848749 1.795748 0.000000 0.000000 0.000000
0.886866 0.807871 1.770457 0.000000 0.000000 0.000000
0.968320 0.905557 1.774824 0.000000 0.000000 0.000000
0.898416 0.792089 1.782924 0.000000 0.000000 0.000000
0.910735 0.833618 1.776260 0.000000 0.000000 0.000000
0.898700 0.839015 1.770585 0.000000 0.000000 0.000000
0.907087 0.779147 1.785874 0.000000 0.000000 0.000000
0.941642 0.908202 1.767643 0.000000 0.000000 0.000000
0.913066 0.777356 1.794169 0.000000 0.000000 0.000000
0.916546 0.779101 1.790516 0.000000 0.000000 0.000000
0.920671 0.834193 1.778659 0.000000 0.000000 0.000000
0.911430 0.777562 1.790372 0.000000 0.000000 0.000000
0.904735 0.846635 1.770344 0.000000 0.000000 0.000000
0.887168 0.798296 1.776838 0.000000 0.000000 0.000000
0.905770 0.788217 1.781992 0.000000 0.000000 0.000000
0.902089 0.789289 1.784783 0.000000 0.000000 0.000000
0.882434 0.812033 1.772472 0.000000 0.000000 0.000000
1.004973 0.794446 1.814887 0.000000 0.000000 0.000000
0.909548 0.786047 1.788430 0.000000 0.000000 0.000000
0.992279 0.879323 1.790153 0.000000 0.000000 0.000000
0.878421 0.809791 1.770319 0.000000 0.000000 0.000000
0.859175 0.861701 1.750941 0.000000 0.000000 0.000000
0.987438 0.874796 1.788340 0.000000 0.000000 0.000000
0.979802 0.866338 1.788554 0.000000 0.000000 0.000000
0.990332 0.866989 1.791102 0.000000 0.000000 0.000000
0.988023 0.864286 1.789176 0.000000 0.000000 0.000000
0.975535 0.751139 1.808438 0.000000 0.000000 0.000000
0.997018 0.853153 1.793825 0.000000 0.000000 0.000000
0.990860 0.864065 1.790084 0.000000 0.000000 0.000000
0.967685 0.885736 1.779052 0.000000 0.000000 0.000000
0.986338 0.876051 1.787602 0.000000 0.000000 0.000000
0.985869 0.864416 1.789382 0.000000 0.000000 0.000000
0.992266 0.869652 1.791483 0.000000 0.000000 0.000000
0.993349 0.846468 1.794727 0.000000 0.000000 0.000000
0.961545 0.874861 1.781309 0.000000 0.000000 0.000000
0.981623 0.884877 1.787455 0.000000 0.000000 0.000000
0.980027 0.896250 1.786041 0.000000 0.000000 0.000000
0.978047 0.876670 1.784181 0.000000 0.000000 0.000000
0.979252 0.850646 1.789410 0.000000 0.000000 0.000000
0.983599 0.868807 1.787352 0.000000 0.000000 0.000000
0.998646 0.875491 1.795182 0.000000 0.000000 0.000000
0.901243 0.786488 1.784359 0.000000 0.000000 0.000000
0.994349 0.852048 1.795403 0.000000 0.000000 0.000000
0.990392 0.859508 1.788767 0.000000 0.000000 0.000000
0.956657 0.896946 1.773939 0.000000 0.000000 0.000000
0.982866 0.880316 1.785512 0.000000 0.000000 0.000000
0.979494 0.888583 1.782893 0.000000 0.000000 0.000000
0.984072 0.876242 1.786944 0.000000 0.000000 0.000000
0.989917 0.857396 1.793194 0.000000 0.000000 0.000000
0.922519 0.893371 1.765820 0.000000 0.000000 0.000000
0.975741 0.875689 1.786815 0.000000 0.000000 0.000000
0.989212 0.882624 1.790144 0.000000 0.000000 0.000000
0.979762 0.894016 1.782686 0.000000 0.000000 0.000000
0.984791 0.860584 1.791422 0.000000 0.000000 0.000000
1.000483 0.848324 1.797178 0.000000 0.000000 0.000000
1.004991 0.794921 1.806588 0.000000 0.000000 0.000000
0.907928 0.785526 1.787074 0.000000 0.000000 0.000000
0.999332 0.854573 1.793272 0.000000 0.000000 0.000000
0.999750 0.798438 1.810892 0.000000 0.000000 0.000000
0.994542 0.867760 1.793178 0.000000 0.000000 0.000000
0.981865 0.854723 1.786126 0.000000 0.000000 0.000000
1.004272 0.841137 1.801147 0.000000 0.000000 0.000000
0.992091 0.864408 1.792185 0.000000 0.000000 0.000000
0.938817 0.786740 1.803089 0.000000 0.000000 0.000000
0.874539 0.818353 1.767849 0.000000 0.000000 0.000000
0.951425 0.786379 1.804114 0.000000 0.000000 0.000000
0.888345 0.826438 1.770970 0.000000 0.000000 0.000000
0.884765 0.805875 1.774360 0.000000 0.000000 0.000000
0.918397 0.905526 1.758970 0.000000 0.000000 0.000000
0.972565 0.752040 1.809758 0.000000 0.000000 0.000000
0.929260 0.761863 1.797467 0.000000 0.000000 0.000000
0.892393 0.797889 1.778612 0.000000 0.000000 0.000000
0.882322 0.816089 1.771183 0.000000 0.000000 0.000000
0.881762 0.808467 1.772698 0.000000 0.000000 0.000000
0.932566 0.762956 1.800432 0.000000 0.000000 0.000000
0.920371 0.765366 1.792108 0.000000 0.000000 0.000000
0.884032 0.804375 1.775758 0.000000 0.000000 0.000000
0.884791 0.820331 1.770535 0.000000 0.000000 0.000000
0.991828 0.786472 1.807525 0.000000 0.000000 0.000000
1.003202 0.840759 1.798458 0.000000 0.000000 0.000000
1.004703 0.784186 1.811805 0.000000 0.000000 0.000000
0.958556 0.756470 1.805721 0.000000 0.000000 0.000000
1.000295 0.776104 1.817718 0.000000 0.000000 0.000000
0.860334 0.867725 1.751445 0.000000 0.000000 0.000000
0.974619 0.760095 1.811632 0.000000 0.000000 0.000000
1.001338 0.786282 1.810581 0.000000 0.000000 0.000000
1.007089 0.797188 1.810207 0.000000 0.000000 0.000000
1.003837 0.788227 1.814183 0.000000 0.000000 0.000000
0.863872 0.864320 1.749876 0.000000 0.000000 0.000000
0.911218 0.897817 1.748967 0.000000 0.000000 0.000000
0.863590 0.859920 1.753589 0.000000 0.000000 0.000000
0.996148 0.880394 1.790975 0.000000 0.000000 0.000000
0.905612 0.907483 1.750924 0.000000 0.000000 0.000000
0.859636 0.852303 1.754044 0.000000 0.000000 0.000000
0.999795 0.876884 1.792007 0.000000 0.000000 0.000000
0.884709 0.897774 1.742759 0.000000 0.000000 0.000000
0.989340 0.866258 1.792599 0.000000 0.000000 0.000000
0.982635 0.879159 1.786488 0.000000 0.000000 0.000000
0.865604 0.868971 1.753643 0.000000 0.000000 0.000000
0.923229 0.912730 1.760070 0.000000 0.000000 0.000000
0.984760 0.880179 1.789557 0.000000 0.000000 0.000000
0.976202 0.877100 1.781174 0.000000 0.000000 0.000000
0.984879 0.880073 1.785732 0.000000 0.000000 0.000000
0.994476 0.862201 1.793199 0.000000 0.000000 0.000000
0.874779 0.870715 1.756319 0.000000 0.000000 0.000000
0.926716 0.903574 1.762270 0.000000 0.000000 0.000000
0.912905 0.915695 1.757747 0.000000 0.000000 0.000000
0.995854 0.862327 1.793971 0.000000 0.000000 0.000000
0.991459 0.875524 1.789593 0.000000 0.000000 0.000000
0.994318 0.865762 1.795176 0.000000 0.000000 0.000000
0.990859 0.768047 1.810780 0.000000 0.000000 0.000000
0.991533 0.857459 1.791017 0.000000 0.000000 0.000000
1.002014 0.815214 1.804675 0.000000 0.000000 0.000000
0.984972 0.758883 1.811435 0.000000 0.000000 0.000000
0.901622 0.891575 1.742620 0.000000 0.000000 0.000000
0.935960 0.850759 1.772439 0.000000 0.000000 0.000000
0.999272 0.821489 1.802226 0.000000 0.000000 0.000000
0.912145 0.899572 1.760591 0.000000 0.000000 0.000000
0.992415 0.875594 1.792195 0.000000 0.000000 0.000000
1.001349 0.858293 1.795894 0.000000 0.000000 0.000000
0.993440 0.843134 1.796400 0.000000 0.000000 0.000000
0.910823 0.906055 1.751306 0.000000 0.000000 0.000000
0.893225 0.907532 1.747743 0.000000 0.000000 0.000000
0.979612 0.768166 1.815018 0.000000 0.000000 0.000000
0.901017 0.883748 1.745457 0.000000 0.000000 0.000000
0.945668 0.859929 1.772688 0.000000 0.000000 0.000000
0.998531 0.827249 1.801299 0.000000 0.000000 0.000000
0.965968 0.751788 1.808563 0.000000 0.000000 0.000000
0.999272 0.860968 1.794633 0.000000 0.000000 0.000000
0.992565 0.866424 1.791586 0.000000 0.000000 0.000000
0.884412 0.901404 1.748172 0.000000 0.000000 0.000000
0.889546 0.904915 1.742627 0.000000 0.000000 0.000000
0.894796 0.910605 1.745089 0.000000 0.000000 0.000000
0.887112 0.905742 1.746848 0.000000 0.000000 0.000000
0.991122 0.755828 1.812441 0.000000 0.000000 0.000000
0.899731 0.909247 1.748622 0.000000 0.000000 0.000000
0.899999 0.905258 1.752988 0.000000 0.000000 0.000000
0.870867 0.875337 1.753867 0.000000 0.000000 0.000000
0.935514 0.765761 1.802154 0.000000 0.000000 0.000000
0.955560 0.762869 1.807147 0.000000 0.000000 0.000000
0.878994 0.862840 1.761286 0.000000 0.000000 0.000000
0.970022 0.755924 1.809586 0.000000 0.000000 0.000000
0.948992 0.758090 1.803903 0.000000 0.000000 0.000000
0.955219 0.757573 1.806521 0.000000 0.000000 0.000000
0.915281 0.888991 1.769568 0.000000 0.000000 0.000000
0.874662 0.874550 1.758107 0.000000 0.000000 0.000000
0.945622 0.755476 1.804365 0.000000 0.000000 0.000000
0.869082 0.879050 1.761275 0.000000 0.000000 0.000000
0.956726 0.758103 1.806127 0.000000 0.000000 0.000000
0.952850 0.759853 1.807632 0.000000 0.000000 0.000000
1.000575 0.777024 1.818002 0.000000 0.000000 0.000000
0.956952 0.751734 1.805529 0.000000 0.000000 0.000000
0.956324 0.757169 1.807162 0.000000 0.000000 0.000000
0.878942 0.826462 1.764820 0.000000 0.000000 0.000000
0.937347 0.759656 1.800621 0.000000 0.000000 0.000000
0.869646 0.824768 1.759034 0.000000 0.000000 0.000000
0.868753 0.826357 1.755232 0.000000 0.000000 0.000000
0.941379 0.753525 1.800813 0.000000 0.000000 0.000000
0.874099 0.827399 1.761907 0.000000 0.000000 0.000000
0.868841 0.832702 1.762135 0.000000 0.000000 0.000000
0.872994 0.832633 1.757877 0.000000 0.000000 0.000000
0.981017 0.759214 1.812796 0.000000 0.000000 0.000000
1.004563 0.782566 1.816116 0.000000 0.000000 0.000000
0.876898 0.836748 1.763080 0.000000 0.000000 0.000000
0.866094 0.844679 1.759750 0.000000 0.000000 0.000000
0.864152 0.850838 1.757025 0.000000 0.000000 0.000000
0.862865 0.860131 1.760456 0.000000 0.000000 0.000000
0.871049 0.854280 1.760816 0.000000 0.000000 0.000000
0.880790 0.834898 1.767600 0.000000 0.000000 0.000000
0.871876 0.834868 1.763390 0.000000 0.000000 0.000000
0.865329 0.856173 1.762085 0.000000 0.000000 0.000000
0.887718 0.841123 1.768135 0.000000 0.000000 0.000000
0.979935 0.900940 1.775581 0.000000 0.000000 0.000000
0.961003 0.755320 1.805009 0.000000 0.000000 0.000000
0.956554 0.893181 1.779142 0.000000 0.000000 0.000000
0.936234 0.896195 1.771724 0.000000 0.000000 0.000000
0.865086 0.859031 1.764575 0.000000 0.000000 0.000000
0.990745 0.762113 1.812040 0.000000 0.000000 0.000000
0.945656 0.891186 1.774907 0.000000 0.000000 0.000000
0.936562 0.897385 1.775519 0.000000 0.000000 0.000000
0.864892 0.862864 1.764706 0.000000 0.000000 0.000000
0.914567 0.899163 1.760834 0.000000 0.000000 0.000000
0.974971 0.756043 1.808432 0.000000 0.000000 0.000000
0.988545 0.881647 1.788152 0.000000 0.000000 0.000000
0.894259 0.901984 1.747471 0.000000 0.000000 0.000000
0.977060 0.889041 1.787673 0.000000 0.000000 0.000000
0.986192 0.885779 1.786075 0.000000 0.000000 0.000000
0.971651 0.900988 1.781241 0.000000 0.000000 0.000000
0.982978 0.882979 1.790222 0.000000 0.000000 0.000000
0.903117 0.898449 1.747614 0.000000 0.000000 0.000000
0.970721 0.897479 1.777797 0.000000 0.000000 0.000000
0.976024 0.878262 1.783589 0.000000 0.000000 0.000000
0.983798 0.890472 1.784382 0.000000 0.000000 0.000000
0.975931 0.898236 1.780002 0.000000 0.000000 0.000000
0.988190 0.876173 1.788165 0.000000 0.000000 0.000000
0.914358 0.817016 1.788746 0.000000 0.000000 0.000000
0.970585 0.906749 1.775465 0.000000 0.000000 0.000000
0.954259 0.904035 1.776463 0.000000 0.000000 0.000000
0.887086 0.890463 1.760877 0.000000 0.000000 0.000000
0.962177 0.910680 1.768188 0.000000 0.000000 0.000000
0.955663 0.903196 1.774229 0.000000 0.000000 0.000000
0.966185 0.898558 1.774845 0.000000 0.000000 0.000000
0.956762 0.877662 1.785026 0.000000 0.000000 0.000000
0.942666 0.757130 1.801999 0.000000 0.000000 0.000000
0.920082 0.809642 1.780164 0.000000 0.000000 0.000000
0.923317 0.763258 1.797176 0.000000 0.000000 0.000000
0.949025 0.760764 1.802792 0.000000 0.000000 0.000000
0.895222 0.786423 1.779336 0.000000 0.000000 0.000000
0.885675 0.794907 1.773093 0.000000 0.000000 0.000000
0.974778 0.893275 1.785183 0.000000 0.000000 0.000000
0.941558 0.756260 1.802224 0.000000 0.000000 0.000000
1.001032 0.777635 1.814666 0.000000 0.000000 0.000000
0.995867 0.772200 1.810775 0.000000 0.000000 0.000000
0.999159 0.781463 1.811742 0.000000 0.000000 0.000000
0.995968 0.780484 1.811113 0.000000 0.000000 0.000000
0.933117 0.763578 1.797164 0.000000 0.000000 0.000000
0.911919 0.778152 1.793054 0.000000 0.000000 0.000000
1.005528 0.775890 1.815814 0.000000 0.000000 0.000000
0.924030 0.809588 1.783563 0.000000 0.000000 0.000000
0.921162 0.775677 1.794078 0.000000 0.000000 0.000000
0.954488 0.782588 1.799797 0.000000 0.000000 0.000000
0.915913 0.799117 1.789418 0.000000 0.000000 0.000000
0.983193 0.853448 1.785058 0.000000 0.000000 0.000000
0.924176 0.782225 1.794749 0.000000 0.000000 0.000000
0.934192 0.772955 1.794323 0.000000 0.000000 0.000000
0.919749 0.772944 1.792313 0.000000 0.000000 0.000000
0.984551 0.765620 1.809528 0.000000 0.000000 0.000000
0.897881 0.790744 1.783134 0.000000 0.000000 0.000000
0.994134 0.782298 1.807496 0.000000 0.000000 0.000000
0.936740 0.769802 1.798898 0.000000 0.000000 0.000000
0.909137 0.799394 1.783849 0.000000 0.000000 0.000000
0.910463 0.780682 1.789295 0.000000 0.000000 0.000000
0.916223 0.777655 1.793567 0.000000 0.000000 0.000000
0.937589 0.788853 1.794564 0.000000 0.000000 0.000000
0.999636 0.785029 1.808637 0.000000 0.000000 0.000000
0.953342 0.899916 1.768388 0.000000 0.000000 0.000000
0.921039 0.816187 1.778352 0.000000 0.000000 0.000000
0.928134 0.804025 1.785926 0.000000 0.000000 0.000000
0.926304 0.778801 1.795083 0.000000 0.000000 0.000000
0.935290 0.789775 1.794128 0.000000 0.000000 0.000000
0.950290 0.789782 1.797421 0.000000 0.000000 0.000000
0.923957 0.790332 1.792965 0.000000 0.000000 0.000000
0.980667 0.858216 1.787160 0.000000 0.000000 0.000000
0.928508 0.801427 1.791507 0.000000 0.000000 0.000000
0.944850 0.767229 1.800136 0.000000 0.000000 0.000000
0.916042 0.774976 1.791085 0.000000 0.000000 0.000000
0.998496 0.771770 1.813028 0.000000 0.000000 0.000000
0.935911 0.785672 1.794706 0.000000 0.000000 0.000000
0.989164 0.780289 1.806422 0.000000 0.000000 0.000000
0.924796 0.773154 1.795779 0.000000 0.000000 0.000000
0.910605 0.776907 1.788750 0.000000 0.000000 0.000000
0.924504 0.777542 1.793354 0.000000 0.000000 0.000000
0.909443 0.781480 1.788046 0.000000 0.000000 0.000000
0.921881 0.783593 1.792958 0.000000 0.000000 0.000000
0.906648 0.785441 1.789119 0.000000 0.000000 0.000000
0.918086 0.791550 1.790215 0.000000 0.000000 0.000000
1.000419 0.784982 1.810611 0.000000 0.000000 0.000000
0.955274 0.902869 1.773918 0.000000 0.000000 0.000000
0.915305 0.830163 1.771872 0.000000 0.000000 0.000000
0.990588 0.869211 1.789213 0.000000 0.000000 0.000000
0.925007 0.768350 1.796762 0.000000 0.000000 0.000000
0.923117 0.909347 1.755936 0.000000 0.000000 0.000000
0.927136 0.766500 1.797103 0.000000 0.000000 0.000000
0.934621 0.765515 1.801851 0.000000 0.000000 0.000000
0.984860 0.885024 1.785520 0.000000 0.000000 0.000000
1.001399 0.865305 1.793905 0.000000 0.000000 0.000000
0.996740 0.870833 1.792726 0.000000 0.000000 0.000000
0.993635 0.867303 1.791687 0.000000 0.000000 0.000000
0.943704 0.759020 1.803111 0.000000 0.000000 0.000000
0.940069 0.756750 1.796791 0.000000 0.000000 0.000000
0.950428 0.896901 1.772236 0.000000 0.000000 0.000000
1.003409 0.859208 1.797513 0.000000 0.000000 0.000000
0.952320 0.754363 1.805719 0.000000 0.000000 0.000000
0.948669 0.771830 1.800575 0.000000 0.000000 0.000000
0.930094 0.769283 1.798334 0.000000 0.000000 0.000000
0.912260 0.776912 1.792047 0.000000 0.000000 0.000000
0.999092 0.869763 1.794540 0.000000 0.000000 0.000000
0.931527 0.762879 1.797448 0.000000 0.000000 0.000000
0.937059 0.773492 1.798177 0.000000 0.000000 0.000000
0.943901 0.764001 1.803193 0.000000 0.000000 0.000000
0.918447 0.775427 1.794484 0.000000 0.000000 0.000000
0.995953 0.813711 1.803536 0.000000 0.000000 0.000000
1.001378 0.794478 1.808037 0.000000 0.000000 0.000000
0.944787 0.754406 1.801277 0.000000 0.000000 0.000000
0.994086 0.799337 1.806116 0.000000 0.000000 0.000000
1.002234 0.805881 1.805135 0.000000 0.000000 0.000000
0.998027 0.796544 1.804687 0.000000 0.000000 0.000000
0.984289 0.802137 1.800469 0.000000 0.000000 0.000000
0.986919 0.811027 1.805982 0.000000 0.000000 0.000000
1.003351 0.805231 1.807310 0.000000 0.000000 0.000000
0.981923 0.788838 1.807697 0.000000 0.000000 0.000000
1.008203 0.792347 1.813668 0.000000 0.000000 0.000000
1.004250 0.792507 1.813506 0.000000 0.000000 0.000000
1.004279 0.803114 1.807158 0.000000 0.000000 0.000000
0.979344 0.800415 1.803717 0.000000 0.000000 0.000000
0.992714 0.802196 1.801721 0.000000 0.000000 0.000000
1.003539 0.799929 1.810275 0.000000 0.000000 0.000000
0.984094 0.799312 1.803167 0.000000 0.000000 0.000000
1.001637 0.806964 1.815644 0.000000 0.000000 0.000000
0.992003 0.793495 1.806698 0.000000 0.000000 0.000000
0.992684 0.808118 1.805788 0.000000 0.000000 0.000000
0.990666 0.807881 1.807405 0.000000 0.000000 0.000000
1.008244 0.813219 1.804956 0.000000 0.000000 0.000000
0.942198 0.907018 1.766096 0.000000 0.000000 0.000000
0.873738 0.877427 1.755649 0.000000 0.000000 0.000000
0.875303 0.836921 1.766090 0.000000 0.000000 0.000000
0.877805 0.818427 1.766588 0.000000 0.000000 0.000000
0.882333 0.871537 1.747660 0.000000 0.000000 0.000000
1.001506 0.831998 1.800924 0.000000 0.000000 0.000000
0.871095 0.845635 1.761718 0.000000 0.000000 0.000000
1.004250 0.822360 1.803487 0.000000 0.000000 0.000000
0.866124 0.866995 1.755936 0.000000 0.000000 0.000000
0.895985 0.906054 1.750286 0.000000 0.000000 0.000000
0.932094 0.766020 1.798169 0.000000 0.000000 0.000000
0.886453 0.907895 1.747816 0.000000 0.000000 0.000000
0.939451 0.764225 1.799338 0.000000 0.000000 0.000000
0.943608 0.759269 1.801497 0.000000 0.000000 0.000000
0.934155 0.908096 1.766530 0.000000 0.000000 0.000000
0.931944 0.911413 1.758329 0.000000 0.000000 0.000000
0.951916 0.905802 1.761261 0.000000 0.000000 0.000000
0.945925 0.907876 1.765473 0.000000 0.000000 0.000000
0.933818 0.913058 1.765153 0.000000 0.000000 0.000000
0.930543 0.917931 1.758133 0.000000 0.000000 0.000000
0.929612 0.909300 1.765117 0.000000 0.000000 0.000000
0.934484 0.900043 1.765254 0.000000 0.000000 0.000000
0.937476 0.907559 1.772144 0.000000 0.000000 0.000000
0.948302 0.898745 1.767178 0.000000 0.000000 0.000000
0.938968 0.903271 1.766338 0.000000 0.000000 0.000000
0.960831 0.898466 1.772240 0.000000 0.000000 0.000000
0.933301 0.909606 1.762536 0.000000 0.000000 0.000000
0.884438 0.812278 1.772925 0.000000 0.000000 0.000000
0.988114 0.760816 1.815657 0.000000 0.000000 0.000000
1.003682 0.800051 1.812374 0.000000 0.000000 0.000000
0.875073 0.812976 1.764119 0.000000 0.000000 0.000000
0.980551 0.759690 1.811250 0.000000 0.000000 0.000000
0.998123 0.765303 1.817686 0.000000 0.000000 0.000000
0.871658 0.821592 1.762562 0.000000 0.000000 0.000000
0.925283 0.908982 1.753188 0.000000 0.000000 0.000000
1.009026 0.798640 1.812597 0.000000 0.000000 0.000000
0.973181 0.758467 1.808615 0.000000 0.000000 0.000000
0.982580 0.761683 1.809239 0.000000 0.000000 0.000000
0.967562 0.768542 1.801120 0.000000 0.000000 0.000000
0.874788 0.824432 1.762727 0.000000 0.000000 0.000000
0.986674 0.775400 1.804941 0.000000 0.000000 0.000000
0.919003 0.904991 1.747074 0.000000 0.000000 0.000000
0.978536 0.754429 1.812205 0.000000 0.000000 0.000000
0.981240 0.896456 1.782147 0.000000 0.000000 0.000000
0.981684 0.893309 1.784955 0.000000 0.000000 0.000000
0.978176 0.759339 1.810640 0.000000 0.000000 0.000000
0.991099 0.765576 1.810121 0.000000 0.000000 0.000000
0.972204 0.763603 1.803888 0.000000 0.000000 0.000000
0.872603 0.829122 1.761859 0.000000 0.000000 0.000000
0.980400 0.774035 1.804645 0.000000 0.000000 0.000000
0.914474 0.907650 1.750150 0.000000 0.000000 0.000000
0.968639 0.756982 1.811299 0.000000 0.000000 0.000000
0.985307 0.893444 1.784304 0.000000 0.000000 0.000000
0.990671 0.885343 1.788260 0.000000 0.000000 0.000000
