ply
format ascii 1.0
comment VCGLIB generated
obj_info Generated by SPFormer!
element vertex 479
property float x
property float y
property float z
property float nx
property float ny
property float nz
end_header
0.086229 1.631934 2.960019 0.000000 0.000000 0.000000
0.071569 1.632722 2.970884 0.000000 0.000000 0.000000
0.063077 1.602042 2.992844 0.000000 0.000000 0.000000
0.084037 1.638727 2.962990 0.000000 0.000000 0.000000
0.072525 1.611665 2.987355 0.000000 0.000000 0.000000
0.109241 1.633932 2.903340 0.000000 0.000000 0.000000
0.078960 1.622654 2.966335 0.000000 0.000000 0.000000
0.072392 1.589354 2.994779 0.000000 0.000000 0.000000
0.069479 1.587602 3.000343 0.000000 0.000000 0.000000
0.085947 1.621015 2.955868 0.000000 0.000000 0.000000
0.064634 1.606339 2.996461 0.000000 0.000000 0.000000
0.085928 1.642977 2.952065 0.000000 0.000000 0.000000
0.063604 1.610061 2.975026 0.000000 0.000000 0.000000
0.071886 1.608327 2.986057 0.000000 0.000000 0.000000
0.061695 1.602332 2.996120 0.000000 0.000000 0.000000
0.075906 1.642041 2.986574 0.000000 0.000000 0.000000
0.084246 1.620836 2.947349 0.000000 0.000000 0.000000
0.073587 1.614804 2.972641 0.000000 0.000000 0.000000
0.075540 1.612924 2.963675 0.000000 0.000000 0.000000
0.079457 1.638576 2.957695 0.000000 0.000000 0.000000
0.065146 1.589157 3.006337 0.000000 0.000000 0.000000
0.071793 1.593084 2.995997 0.000000 0.000000 0.000000
0.074954 1.592183 2.970088 0.000000 0.000000 0.000000
0.111630 1.634046 2.886678 0.000000 0.000000 0.000000
0.062361 1.603774 2.990904 0.000000 0.000000 0.000000
0.072872 1.620442 3.001172 0.000000 0.000000 0.000000
0.076125 1.636103 2.988630 0.000000 0.000000 0.000000
0.082103 1.647427 2.985492 0.000000 0.000000 0.000000
0.098710 1.641810 2.920434 0.000000 0.000000 0.000000
0.094048 1.635214 2.951335 0.000000 0.000000 0.000000
0.081919 1.623081 2.960402 0.000000 0.000000 0.000000
0.099917 1.636727 2.914847 0.000000 0.000000 0.000000
0.081627 1.645890 2.967490 0.000000 0.000000 0.000000
0.076736 1.630016 2.985889 0.000000 0.000000 0.000000
0.061702 1.637741 2.995125 0.000000 0.000000 0.000000
0.085649 1.649538 2.957973 0.000000 0.000000 0.000000
0.071950 1.623994 2.982863 0.000000 0.000000 0.000000
0.061458 1.623678 3.001204 0.000000 0.000000 0.000000
0.078468 1.615972 2.964786 0.000000 0.000000 0.000000
0.095380 1.629313 2.927398 0.000000 0.000000 0.000000
0.061944 1.606312 2.999105 0.000000 0.000000 0.000000
0.094649 1.629808 2.927200 0.000000 0.000000 0.000000
0.091937 1.642408 2.936279 0.000000 0.000000 0.000000
0.086926 1.641657 2.953012 0.000000 0.000000 0.000000
0.068117 1.614601 3.002229 0.000000 0.000000 0.000000
0.082764 1.629937 2.961678 0.000000 0.000000 0.000000
0.076518 1.618508 2.968439 0.000000 0.000000 0.000000
0.078200 1.631022 2.980443 0.000000 0.000000 0.000000
0.078193 1.639526 2.984858 0.000000 0.000000 0.000000
0.090909 1.652614 2.958822 0.000000 0.000000 0.000000
0.101032 1.634932 2.915113 0.000000 0.000000 0.000000
0.068945 1.618830 3.000189 0.000000 0.000000 0.000000
0.099375 1.625981 2.915840 0.000000 0.000000 0.000000
0.088808 1.647293 2.942683 0.000000 0.000000 0.000000
0.094625 1.640501 2.927681 0.000000 0.000000 0.000000
0.076339 1.635090 2.989844 0.000000 0.000000 0.000000
0.067212 1.640596 2.977716 0.000000 0.000000 0.000000
0.116997 1.627397 2.898355 0.000000 0.000000 0.000000
0.090947 1.628817 2.938208 0.000000 0.000000 0.000000
0.067899 1.611173 3.000793 0.000000 0.000000 0.000000
0.072171 1.641107 2.996069 0.000000 0.000000 0.000000
0.093629 1.635381 2.931765 0.000000 0.000000 0.000000
0.093271 1.638310 2.923466 0.000000 0.000000 0.000000
0.077832 1.647993 2.980084 0.000000 0.000000 0.000000
0.088028 1.627454 2.939042 0.000000 0.000000 0.000000
0.083468 1.639800 2.956747 0.000000 0.000000 0.000000
0.090640 1.629571 2.947439 0.000000 0.000000 0.000000
0.072819 1.603926 2.985592 0.000000 0.000000 0.000000
0.066369 1.614592 3.009839 0.000000 0.000000 0.000000
0.089444 1.635831 2.935349 0.000000 0.000000 0.000000
0.060861 1.602108 3.020675 0.000000 0.000000 0.000000
0.062035 1.599911 3.014222 0.000000 0.000000 0.000000
0.065139 1.611485 3.006137 0.000000 0.000000 0.000000
0.080189 1.641740 2.991385 0.000000 0.000000 0.000000
0.062411 1.607129 3.001326 0.000000 0.000000 0.000000
0.085336 1.649018 2.963628 0.000000 0.000000 0.000000
0.068114 1.603621 3.002137 0.000000 0.000000 0.000000
0.060658 1.615588 2.992099 0.000000 0.000000 0.000000
0.078135 1.641033 2.976900 0.000000 0.000000 0.000000
0.098550 1.625872 2.922498 0.000000 0.000000 0.000000
0.115968 1.635890 2.888312 0.000000 0.000000 0.000000
0.107624 1.638000 2.907381 0.000000 0.000000 0.000000
0.075064 1.630129 2.994639 0.000000 0.000000 0.000000
0.063614 1.615603 3.007339 0.000000 0.000000 0.000000
0.064906 1.619310 2.971694 0.000000 0.000000 0.000000
0.070207 1.625615 3.002883 0.000000 0.000000 0.000000
0.083230 1.648140 2.978269 0.000000 0.000000 0.000000
0.063749 1.597109 2.992726 0.000000 0.000000 0.000000
0.060079 1.606972 3.005081 0.000000 0.000000 0.000000
0.085758 1.643032 2.980666 0.000000 0.000000 0.000000
0.060011 1.609166 3.002172 0.000000 0.000000 0.000000
0.085007 1.603727 2.966182 0.000000 0.000000 0.000000
0.070285 1.628324 3.003816 0.000000 0.000000 0.000000
0.087144 1.627392 2.940157 0.000000 0.000000 0.000000
0.077458 1.628671 2.985555 0.000000 0.000000 0.000000
0.066754 1.615129 3.010129 0.000000 0.000000 0.000000
0.080239 1.625803 2.959341 0.000000 0.000000 0.000000
0.054399 1.606243 3.017888 0.000000 0.000000 0.000000
0.094763 1.635683 2.929767 0.000000 0.000000 0.000000
0.075592 1.619378 2.975903 0.000000 0.000000 0.000000
0.083707 1.644836 2.967827 0.000000 0.000000 0.000000
0.081223 1.641821 2.966977 0.000000 0.000000 0.000000
0.081316 1.632329 2.971569 0.000000 0.000000 0.000000
0.087210 1.634403 2.952007 0.000000 0.000000 0.000000
0.084165 1.646539 2.964765 0.000000 0.000000 0.000000
0.077055 1.608644 2.972557 0.000000 0.000000 0.000000
0.100697 1.635636 2.915183 0.000000 0.000000 0.000000
0.070920 1.605502 2.990766 0.000000 0.000000 0.000000
0.087344 1.648472 2.945603 0.000000 0.000000 0.000000
0.095158 1.632014 2.923858 0.000000 0.000000 0.000000
0.081834 1.620056 2.971042 0.000000 0.000000 0.000000
0.072710 1.620252 2.996029 0.000000 0.000000 0.000000
0.082399 1.618712 2.949347 0.000000 0.000000 0.000000
0.078036 1.636052 2.982914 0.000000 0.000000 0.000000
0.092225 1.658319 2.939183 0.000000 0.000000 0.000000
0.094014 1.653996 2.938163 0.000000 0.000000 0.000000
0.063877 1.605531 3.012011 0.000000 0.000000 0.000000
0.091938 1.634631 2.928120 0.000000 0.000000 0.000000
0.056937 1.605138 3.002134 0.000000 0.000000 0.000000
0.097843 1.637221 2.913894 0.000000 0.000000 0.000000
0.073197 1.606998 2.963935 0.000000 0.000000 0.000000
0.075456 1.617139 2.986499 0.000000 0.000000 0.000000
0.073983 1.637800 2.994935 0.000000 0.000000 0.000000
0.086920 1.652808 2.959985 0.000000 0.000000 0.000000
0.075653 1.591695 2.977387 0.000000 0.000000 0.000000
0.068031 1.595765 2.986207 0.000000 0.000000 0.000000
0.082832 1.614562 2.959943 0.000000 0.000000 0.000000
0.070536 1.601759 2.969998 0.000000 0.000000 0.000000
0.071135 1.611978 2.994118 0.000000 0.000000 0.000000
0.060865 1.602826 2.999298 0.000000 0.000000 0.000000
0.073693 1.603615 2.976659 0.000000 0.000000 0.000000
0.060833 1.604789 2.995865 0.000000 0.000000 0.000000
0.092692 1.633507 2.921797 0.000000 0.000000 0.000000
0.075753 1.598954 2.969189 0.000000 0.000000 0.000000
0.061953 1.610041 3.008406 0.000000 0.000000 0.000000
0.092293 1.644073 2.944416 0.000000 0.000000 0.000000
0.101077 1.639272 2.892196 0.000000 0.000000 0.000000
0.063308 1.598029 3.001058 0.000000 0.000000 0.000000
0.067333 1.601895 2.998211 0.000000 0.000000 0.000000
0.064570 1.602078 3.005840 0.000000 0.000000 0.000000
0.085684 1.616791 2.934562 0.000000 0.000000 0.000000
0.078106 1.645218 2.982325 0.000000 0.000000 0.000000
0.076197 1.644688 2.988850 0.000000 0.000000 0.000000
0.087634 1.631938 2.929655 0.000000 0.000000 0.000000
0.070065 1.636861 2.988871 0.000000 0.000000 0.000000
0.077579 1.624831 2.983808 0.000000 0.000000 0.000000
0.096815 1.636862 2.918540 0.000000 0.000000 0.000000
0.098990 1.646297 2.922766 0.000000 0.000000 0.000000
0.083220 1.645519 2.964175 0.000000 0.000000 0.000000
0.080969 1.656023 2.970417 0.000000 0.000000 0.000000
0.103586 1.636225 2.903508 0.000000 0.000000 0.000000
0.086309 1.640991 2.959518 0.000000 0.000000 0.000000
0.093681 1.644553 2.928867 0.000000 0.000000 0.000000
0.096841 1.636258 2.914355 0.000000 0.000000 0.000000
0.096601 1.638293 2.924665 0.000000 0.000000 0.000000
0.075109 1.613381 2.987747 0.000000 0.000000 0.000000
0.081756 1.633366 2.965546 0.000000 0.000000 0.000000
0.084808 1.655883 2.964878 0.000000 0.000000 0.000000
0.087929 1.636829 2.953414 0.000000 0.000000 0.000000
0.104180 1.637447 2.899721 0.000000 0.000000 0.000000
0.077583 1.648590 2.990421 0.000000 0.000000 0.000000
0.069842 1.626679 3.001939 0.000000 0.000000 0.000000
0.119595 1.631485 2.894053 0.000000 0.000000 0.000000
0.086850 1.635884 2.939606 0.000000 0.000000 0.000000
0.065671 1.601271 2.980411 0.000000 0.000000 0.000000
0.100047 1.645818 2.921740 0.000000 0.000000 0.000000
0.103475 1.631665 2.910204 0.000000 0.000000 0.000000
0.068877 1.649168 2.985984 0.000000 0.000000 0.000000
0.067498 1.604601 2.981921 0.000000 0.000000 0.000000
0.066526 1.597039 2.998274 0.000000 0.000000 0.000000
0.068261 1.606759 2.975517 0.000000 0.000000 0.000000
0.073249 1.608936 2.978872 0.000000 0.000000 0.000000
0.101393 1.634685 2.912814 0.000000 0.000000 0.000000
0.062693 1.596589 3.004154 0.000000 0.000000 0.000000
0.082731 1.633023 2.966731 0.000000 0.000000 0.000000
0.075578 1.595281 2.973079 0.000000 0.000000 0.000000
0.101290 1.639878 2.914379 0.000000 0.000000 0.000000
0.083214 1.639603 2.976881 0.000000 0.000000 0.000000
0.077173 1.638468 2.981536 0.000000 0.000000 0.000000
0.086975 1.626948 2.949591 0.000000 0.000000 0.000000
0.079165 1.624881 2.981907 0.000000 0.000000 0.000000
0.087767 1.623312 2.939641 0.000000 0.000000 0.000000
0.091176 1.633939 2.928542 0.000000 0.000000 0.000000
0.072278 1.600224 2.977649 0.000000 0.000000 0.000000
0.105200 1.638362 2.898604 0.000000 0.000000 0.000000
0.073606 1.643119 2.993940 0.000000 0.000000 0.000000
0.071957 1.618715 2.999278 0.000000 0.000000 0.000000
0.064221 1.615068 2.983521 0.000000 0.000000 0.000000
0.060888 1.609798 3.000246 0.000000 0.000000 0.000000
0.062607 1.604107 3.008993 0.000000 0.000000 0.000000
0.071359 1.599028 2.987692 0.000000 0.000000 0.000000
0.086461 1.625873 2.943766 0.000000 0.000000 0.000000
0.068320 1.627134 3.009948 0.000000 0.000000 0.000000
0.073926 1.624310 2.988915 0.000000 0.000000 0.000000
0.070041 1.615868 3.003735 0.000000 0.000000 0.000000
0.067533 1.597281 2.989944 0.000000 0.000000 0.000000
0.073915 1.601171 2.970856 0.000000 0.000000 0.000000
0.096570 1.622891 2.920686 0.000000 0.000000 0.000000
0.073611 1.592139 2.985965 0.000000 0.000000 0.000000
0.090012 1.672449 2.920400 0.000000 0.000000 0.000000
0.064954 1.597537 2.989904 0.000000 0.000000 0.000000
0.086480 1.644056 2.943892 0.000000 0.000000 0.000000
0.102366 1.636088 2.917377 0.000000 0.000000 0.000000
0.100790 1.638286 2.907183 0.000000 0.000000 0.000000
0.084057 1.647134 2.945851 0.000000 0.000000 0.000000
0.065423 1.598350 2.993643 0.000000 0.000000 0.000000
0.090144 1.648243 2.938895 0.000000 0.000000 0.000000
0.080493 1.626031 2.961541 0.000000 0.000000 0.000000
0.089837 1.629596 2.928589 0.000000 0.000000 0.000000
0.070979 1.596197 2.986777 0.000000 0.000000 0.000000
0.068959 1.600229 2.982149 0.000000 0.000000 0.000000
0.069787 1.600337 2.973778 0.000000 0.000000 0.000000
0.074717 1.602100 2.972768 0.000000 0.000000 0.000000
0.082180 1.640517 2.978446 0.000000 0.000000 0.000000
0.088175 1.654074 2.944834 0.000000 0.000000 0.000000
0.103949 1.636014 2.910703 0.000000 0.000000 0.000000
0.095705 1.630490 2.925872 0.000000 0.000000 0.000000
0.079276 1.618311 2.938617 0.000000 0.000000 0.000000
0.054509 1.609786 3.011389 0.000000 0.000000 0.000000
0.087573 1.623707 2.946919 0.000000 0.000000 0.000000
0.077094 1.615895 2.948514 0.000000 0.000000 0.000000
0.075209 1.603850 2.963738 0.000000 0.000000 0.000000
0.072570 1.607436 2.975220 0.000000 0.000000 0.000000
0.073184 1.606836 2.973905 0.000000 0.000000 0.000000
0.073448 1.627426 2.993779 0.000000 0.000000 0.000000
0.076433 1.610953 2.953331 0.000000 0.000000 0.000000
0.102028 1.636701 2.904251 0.000000 0.000000 0.000000
0.075177 1.605844 2.973687 0.000000 0.000000 0.000000
0.070590 1.610285 2.966023 0.000000 0.000000 0.000000
0.086527 1.629520 2.944342 0.000000 0.000000 0.000000
0.085067 1.620918 2.940893 0.000000 0.000000 0.000000
0.074892 1.594094 2.981897 0.000000 0.000000 0.000000
0.076005 1.631290 2.994505 0.000000 0.000000 0.000000
0.078905 1.637875 2.991655 0.000000 0.000000 0.000000
0.081381 1.649432 2.972162 0.000000 0.000000 0.000000
0.096541 1.638735 2.914679 0.000000 0.000000 0.000000
0.063216 1.601737 3.004230 0.000000 0.000000 0.000000
0.081184 1.649562 2.981460 0.000000 0.000000 0.000000
0.077515 1.616239 2.978669 0.000000 0.000000 0.000000
0.075617 1.624457 2.975138 0.000000 0.000000 0.000000
0.074203 1.623607 2.987049 0.000000 0.000000 0.000000
0.077342 1.615938 2.984299 0.000000 0.000000 0.000000
0.076007 1.619943 2.989244 0.000000 0.000000 0.000000
0.077411 1.610520 2.977039 0.000000 0.000000 0.000000
0.090945 1.649849 2.954092 0.000000 0.000000 0.000000
0.075219 1.619788 2.986948 0.000000 0.000000 0.000000
0.061712 1.601521 2.996590 0.000000 0.000000 0.000000
0.073488 1.615061 2.993321 0.000000 0.000000 0.000000
0.079224 1.633810 2.992983 0.000000 0.000000 0.000000
0.094913 1.650992 2.927963 0.000000 0.000000 0.000000
0.065363 1.591368 3.001181 0.000000 0.000000 0.000000
0.064949 1.615055 3.009699 0.000000 0.000000 0.000000
0.082985 1.614183 2.948765 0.000000 0.000000 0.000000
0.066410 1.616515 3.010889 0.000000 0.000000 0.000000
0.074135 1.649676 2.979062 0.000000 0.000000 0.000000
0.080188 1.619833 2.949672 0.000000 0.000000 0.000000
0.093341 1.632599 2.920775 0.000000 0.000000 0.000000
0.097407 1.635080 2.915920 0.000000 0.000000 0.000000
0.103456 1.637274 2.900265 0.000000 0.000000 0.000000
0.084605 1.647079 2.956367 0.000000 0.000000 0.000000
0.084577 1.628935 2.948929 0.000000 0.000000 0.000000
0.105154 1.632051 2.903574 0.000000 0.000000 0.000000
0.080774 1.648427 2.954942 0.000000 0.000000 0.000000
0.094235 1.631864 2.923759 0.000000 0.000000 0.000000
0.096126 1.621462 2.926131 0.000000 0.000000 0.000000
0.076419 1.623403 2.951163 0.000000 0.000000 0.000000
0.085480 1.625981 2.936679 0.000000 0.000000 0.000000
0.080735 1.645183 2.971324 0.000000 0.000000 0.000000
0.066573 1.621954 3.005639 0.000000 0.000000 0.000000
0.076213 1.644241 2.988555 0.000000 0.000000 0.000000
0.078731 1.639319 2.941329 0.000000 0.000000 0.000000
0.067686 1.649165 2.980380 0.000000 0.000000 0.000000
0.073039 1.641604 2.995084 0.000000 0.000000 0.000000
0.113222 1.632860 2.892349 0.000000 0.000000 0.000000
0.104262 1.636432 2.903840 0.000000 0.000000 0.000000
0.081767 1.649343 2.934157 0.000000 0.000000 0.000000
0.107454 1.628199 2.902689 0.000000 0.000000 0.000000
0.104854 1.626727 2.907855 0.000000 0.000000 0.000000
0.079567 1.627744 2.955568 0.000000 0.000000 0.000000
0.091490 1.657905 2.937683 0.000000 0.000000 0.000000
0.087967 1.645628 2.937692 0.000000 0.000000 0.000000
0.086827 1.660238 2.954420 0.000000 0.000000 0.000000
0.092200 1.655861 2.955200 0.000000 0.000000 0.000000
0.084647 1.657724 2.959273 0.000000 0.000000 0.000000
0.077348 1.637063 2.986892 0.000000 0.000000 0.000000
0.083122 1.620340 2.950378 0.000000 0.000000 0.000000
0.076667 1.633430 2.996968 0.000000 0.000000 0.000000
0.075522 1.623776 2.997019 0.000000 0.000000 0.000000
0.067355 1.628750 3.007131 0.000000 0.000000 0.000000
0.067301 1.619164 3.010017 0.000000 0.000000 0.000000
0.072207 1.595298 3.003082 0.000000 0.000000 0.000000
0.111104 1.631759 2.898316 0.000000 0.000000 0.000000
0.087189 1.629659 2.933553 0.000000 0.000000 0.000000
0.062459 1.609138 3.013970 0.000000 0.000000 0.000000
0.084736 1.623694 2.936038 0.000000 0.000000 0.000000
0.096216 1.647872 2.928622 0.000000 0.000000 0.000000
0.068229 1.620711 3.008110 0.000000 0.000000 0.000000
0.093110 1.652821 2.936758 0.000000 0.000000 0.000000
0.107230 1.637768 2.896581 0.000000 0.000000 0.000000
0.066486 1.613393 3.008811 0.000000 0.000000 0.000000
0.065220 1.614986 3.009820 0.000000 0.000000 0.000000
0.062249 1.605722 3.017719 0.000000 0.000000 0.000000
0.066900 1.610922 3.006186 0.000000 0.000000 0.000000
0.061951 1.600305 3.009939 0.000000 0.000000 0.000000
0.093154 1.622317 2.930837 0.000000 0.000000 0.000000
0.069303 1.619426 3.004638 0.000000 0.000000 0.000000
0.073291 1.607498 2.968656 0.000000 0.000000 0.000000
0.079338 1.610489 2.957252 0.000000 0.000000 0.000000
0.089520 1.624377 2.930773 0.000000 0.000000 0.000000
0.078434 1.608679 2.960566 0.000000 0.000000 0.000000
0.080006 1.615996 2.951319 0.000000 0.000000 0.000000
0.088527 1.630777 2.928523 0.000000 0.000000 0.000000
0.066692 1.599971 2.982253 0.000000 0.000000 0.000000
0.083581 1.622152 2.938669 0.000000 0.000000 0.000000
0.078743 1.612433 2.949120 0.000000 0.000000 0.000000
0.081333 1.626508 2.947612 0.000000 0.000000 0.000000
0.069704 1.610150 2.997446 0.000000 0.000000 0.000000
0.083615 1.629883 2.938736 0.000000 0.000000 0.000000
0.074252 1.612221 2.964365 0.000000 0.000000 0.000000
0.074298 1.613443 2.955590 0.000000 0.000000 0.000000
0.079383 1.620434 2.951843 0.000000 0.000000 0.000000
0.082676 1.623286 2.948342 0.000000 0.000000 0.000000
0.073447 1.605481 2.984861 0.000000 0.000000 0.000000
0.079085 1.623561 2.942625 0.000000 0.000000 0.000000
0.060915 1.601542 2.983352 0.000000 0.000000 0.000000
0.073628 1.611424 2.969821 0.000000 0.000000 0.000000
0.086357 1.610349 2.953383 0.000000 0.000000 0.000000
0.074287 1.601630 2.977420 0.000000 0.000000 0.000000
0.078754 1.612963 2.949628 0.000000 0.000000 0.000000
0.076506 1.618275 2.961278 0.000000 0.000000 0.000000
0.074884 1.609608 2.961412 0.000000 0.000000 0.000000
0.069162 1.601807 2.977265 0.000000 0.000000 0.000000
0.077698 1.637156 2.997542 0.000000 0.000000 0.000000
0.112582 1.637861 2.895807 0.000000 0.000000 0.000000
0.070480 1.638137 2.999068 0.000000 0.000000 0.000000
0.076040 1.610603 2.985771 0.000000 0.000000 0.000000
0.080464 1.637629 2.943769 0.000000 0.000000 0.000000
0.091689 1.634881 2.938921 0.000000 0.000000 0.000000
0.095477 1.638880 2.911365 0.000000 0.000000 0.000000
0.097369 1.640597 2.928164 0.000000 0.000000 0.000000
0.064957 1.606446 2.988313 0.000000 0.000000 0.000000
0.093610 1.638685 2.935809 0.000000 0.000000 0.000000
0.066227 1.595078 2.988383 0.000000 0.000000 0.000000
0.099923 1.637177 2.904332 0.000000 0.000000 0.000000
0.064153 1.600158 3.011004 0.000000 0.000000 0.000000
0.058547 1.618924 3.014243 0.000000 0.000000 0.000000
0.070945 1.655782 2.990326 0.000000 0.000000 0.000000
0.083093 1.623805 2.962185 0.000000 0.000000 0.000000
0.078347 1.643798 2.978888 0.000000 0.000000 0.000000
0.085356 1.655008 2.972655 0.000000 0.000000 0.000000
0.083304 1.653919 2.967158 0.000000 0.000000 0.000000
0.071819 1.646366 2.992728 0.000000 0.000000 0.000000
0.072624 1.643059 2.997074 0.000000 0.000000 0.000000
0.087848 1.654707 2.965898 0.000000 0.000000 0.000000
0.081942 1.655082 2.980222 0.000000 0.000000 0.000000
0.079027 1.652686 2.979096 0.000000 0.000000 0.000000
0.086584 1.649858 2.968319 0.000000 0.000000 0.000000
0.080656 1.644783 2.989889 0.000000 0.000000 0.000000
0.076794 1.646150 2.992093 0.000000 0.000000 0.000000
0.079841 1.650722 2.974047 0.000000 0.000000 0.000000
0.073944 1.659028 2.975515 0.000000 0.000000 0.000000
0.073200 1.635107 2.998985 0.000000 0.000000 0.000000
0.081160 1.652064 2.966405 0.000000 0.000000 0.000000
0.085756 1.661166 2.967318 0.000000 0.000000 0.000000
0.087592 1.624304 2.938355 0.000000 0.000000 0.000000
0.065486 1.614430 3.011050 0.000000 0.000000 0.000000
0.081454 1.605806 2.954778 0.000000 0.000000 0.000000
0.078355 1.600796 2.962347 0.000000 0.000000 0.000000
0.110101 1.630107 2.895560 0.000000 0.000000 0.000000
0.089413 1.659545 2.957439 0.000000 0.000000 0.000000
0.075963 1.607831 2.958236 0.000000 0.000000 0.000000
0.079705 1.611302 2.956904 0.000000 0.000000 0.000000
0.080282 1.619695 2.948147 0.000000 0.000000 0.000000
0.080385 1.653680 2.973478 0.000000 0.000000 0.000000
0.078809 1.609405 2.952135 0.000000 0.000000 0.000000
0.075833 1.642124 2.985059 0.000000 0.000000 0.000000
0.075980 1.609666 2.954072 0.000000 0.000000 0.000000
0.084741 1.652547 2.971017 0.000000 0.000000 0.000000
0.080854 1.607512 2.955360 0.000000 0.000000 0.000000
0.073751 1.602357 2.969383 0.000000 0.000000 0.000000
0.080032 1.612560 2.950253 0.000000 0.000000 0.000000
0.060938 1.635187 3.003443 0.000000 0.000000 0.000000
0.079636 1.652424 2.971088 0.000000 0.000000 0.000000
0.081133 1.618710 2.942634 0.000000 0.000000 0.000000
0.084030 1.654897 2.971286 0.000000 0.000000 0.000000
0.081554 1.650717 2.984394 0.000000 0.000000 0.000000
0.082288 1.655919 2.974807 0.000000 0.000000 0.000000
0.077630 1.648477 2.978427 0.000000 0.000000 0.000000
0.065219 1.608589 3.004519 0.000000 0.000000 0.000000
0.075432 1.650255 2.988747 0.000000 0.000000 0.000000
0.087756 1.652506 2.954653 0.000000 0.000000 0.000000
0.094753 1.634258 2.916720 0.000000 0.000000 0.000000
0.090873 1.628744 2.922472 0.000000 0.000000 0.000000
0.091044 1.634495 2.927293 0.000000 0.000000 0.000000
0.086027 1.639284 2.966368 0.000000 0.000000 0.000000
0.086329 1.649789 2.927541 0.000000 0.000000 0.000000
0.093692 1.635170 2.926154 0.000000 0.000000 0.000000
0.096456 1.639957 2.918204 0.000000 0.000000 0.000000
0.081256 1.629733 2.982338 0.000000 0.000000 0.000000
0.098532 1.636465 2.906753 0.000000 0.000000 0.000000
0.096018 1.633713 2.924653 0.000000 0.000000 0.000000
0.098382 1.654268 2.944670 0.000000 0.000000 0.000000
0.095765 1.652576 2.946468 0.000000 0.000000 0.000000
0.069724 1.632401 3.000613 0.000000 0.000000 0.000000
0.069595 1.635668 3.002585 0.000000 0.000000 0.000000
0.072778 1.588319 2.989565 0.000000 0.000000 0.000000
0.074224 1.596134 2.989313 0.000000 0.000000 0.000000
0.067032 1.594427 2.991555 0.000000 0.000000 0.000000
0.062836 1.596289 3.001611 0.000000 0.000000 0.000000
0.062724 1.595596 3.001008 0.000000 0.000000 0.000000
0.066110 1.597756 2.986071 0.000000 0.000000 0.000000
0.089733 1.665364 2.949688 0.000000 0.000000 0.000000
0.064975 1.595483 2.993730 0.000000 0.000000 0.000000
0.067021 1.599995 2.982560 0.000000 0.000000 0.000000
0.056367 1.596930 2.997683 0.000000 0.000000 0.000000
0.070312 1.623631 3.014787 0.000000 0.000000 0.000000
0.070687 1.619619 2.991197 0.000000 0.000000 0.000000
0.089893 1.655099 2.952827 0.000000 0.000000 0.000000
0.070611 1.626153 3.007612 0.000000 0.000000 0.000000
0.065834 1.624273 3.006178 0.000000 0.000000 0.000000
0.099132 1.656494 2.931492 0.000000 0.000000 0.000000
0.064791 1.614921 3.012855 0.000000 0.000000 0.000000
0.068113 1.622088 3.008546 0.000000 0.000000 0.000000
0.090125 1.656900 2.961315 0.000000 0.000000 0.000000
0.092280 1.648734 2.939587 0.000000 0.000000 0.000000
0.073578 1.630179 2.996244 0.000000 0.000000 0.000000
0.065862 1.617236 3.014751 0.000000 0.000000 0.000000
0.071738 1.633755 3.003505 0.000000 0.000000 0.000000
0.082771 1.659539 2.975757 0.000000 0.000000 0.000000
0.058905 1.628930 3.009887 0.000000 0.000000 0.000000
0.086836 1.658383 2.966599 0.000000 0.000000 0.000000
0.095456 1.660132 2.946047 0.000000 0.000000 0.000000
0.082819 1.633700 2.963796 0.000000 0.000000 0.000000
0.066039 1.618718 3.008863 0.000000 0.000000 0.000000
0.067036 1.610687 3.009411 0.000000 0.000000 0.000000
0.073587 1.631520 3.001219 0.000000 0.000000 0.000000
0.063865 1.626820 3.008887 0.000000 0.000000 0.000000
0.083427 1.655796 2.961671 0.000000 0.000000 0.000000
0.095124 1.660707 2.940422 0.000000 0.000000 0.000000
0.061973 1.601368 3.009238 0.000000 0.000000 0.000000
0.102486 1.659499 2.935847 0.000000 0.000000 0.000000
0.098986 1.661045 2.937232 0.000000 0.000000 0.000000
0.080469 1.657595 2.975104 0.000000 0.000000 0.000000
0.091610 1.659768 2.944657 0.000000 0.000000 0.000000
0.094335 1.658760 2.942276 0.000000 0.000000 0.000000
0.094784 1.658094 2.936700 0.000000 0.000000 0.000000
0.074714 1.648701 2.978004 0.000000 0.000000 0.000000
0.080683 1.652550 2.977259 0.000000 0.000000 0.000000
0.100251 1.656760 2.927787 0.000000 0.000000 0.000000
0.090887 1.656659 2.940419 0.000000 0.000000 0.000000
0.098447 1.655291 2.926956 0.000000 0.000000 0.000000
0.062369 1.594534 3.013585 0.000000 0.000000 0.000000
0.061898 1.597140 3.009789 0.000000 0.000000 0.000000
0.062559 1.598882 3.006072 0.000000 0.000000 0.000000
0.064289 1.599825 2.996908 0.000000 0.000000 0.000000
0.102868 1.653922 2.920527 0.000000 0.000000 0.000000
0.062088 1.606296 3.012968 0.000000 0.000000 0.000000
0.059314 1.599830 3.005374 0.000000 0.000000 0.000000
0.103050 1.655451 2.920756 0.000000 0.000000 0.000000
0.056646 1.599868 3.010758 0.000000 0.000000 0.000000
0.101599 1.627720 2.912324 0.000000 0.000000 0.000000
0.114646 1.639384 2.885812 0.000000 0.000000 0.000000
0.082669 1.618299 2.939465 0.000000 0.000000 0.000000
0.075401 1.600556 2.978341 0.000000 0.000000 0.000000
0.095734 1.621013 2.937783 0.000000 0.000000 0.000000
0.094365 1.636144 2.918882 0.000000 0.000000 0.000000
0.065750 1.596799 3.003153 0.000000 0.000000 0.000000
0.090978 1.617723 2.945704 0.000000 0.000000 0.000000
0.087550 1.645527 2.934084 0.000000 0.000000 0.000000
0.088914 1.634251 2.935280 0.000000 0.000000 0.000000
0.114062 1.637674 2.894392 0.000000 0.000000 0.000000
0.082515 1.666927 2.963166 0.000000 0.000000 0.000000
0.109311 1.634127 2.886542 0.000000 0.000000 0.000000
0.101439 1.632998 2.892504 0.000000 0.000000 0.000000
0.095724 1.659042 2.939507 0.000000 0.000000 0.000000
0.098104 1.652312 2.924461 0.000000 0.000000 0.000000
0.088394 1.630915 2.914605 0.000000 0.000000 0.000000
0.095526 1.629626 2.927548 0.000000 0.000000 0.000000
0.099490 1.633382 2.916873 0.000000 0.000000 0.000000
