ply
format ascii 1.0
comment VCGLIB generated
obj_info Generated by SPFormer!
element vertex 638
property float x
property float y
property float z
property float nx
property float ny
property float nz
end_header
0.800019 1.235033 1.916210 0.000000 0.000000 0.000000
0.866858 1.228033 1.879766 0.000000 0.000000 0.000000
0.854954 1.236074 1.887996 0.000000 0.000000 0.000000
0.873673 1.236138 1.880826 0.000000 0.000000 0.000000
0.894242 1.269812 1.867621 0.000000 0.000000 0.000000
0.814268 1.235667 1.915515 0.000000 0.000000 0.000000
0.875188 1.248265 1.875827 0.000000 0.000000 0.000000
0.829820 1.212194 1.908629 0.000000 0.000000 0.000000
0.872283 1.255939 1.882185 0.000000 0.000000 0.000000
0.891531 1.273560 1.862835 0.000000 0.000000 0.000000
0.835002 1.218123 1.905814 0.000000 0.000000 0.000000
0.861327 1.230284 1.887271 0.000000 0.000000 0.000000
0.899555 1.256208 1.863065 0.000000 0.000000 0.000000
0.857263 1.245242 1.890644 0.000000 0.000000 0.000000
0.886036 1.254078 1.858616 0.000000 0.000000 0.000000
0.898134 1.246056 1.859677 0.000000 0.000000 0.000000
0.900649 1.269596 1.860560 0.000000 0.000000 0.000000
0.899335 1.266430 1.862117 0.000000 0.000000 0.000000
0.880523 1.244583 1.870720 0.000000 0.000000 0.000000
0.888661 1.232420 1.874871 0.000000 0.000000 0.000000
0.813840 1.231410 1.918005 0.000000 0.000000 0.000000
0.889788 1.236554 1.868812 0.000000 0.000000 0.000000
0.902144 1.252352 1.859160 0.000000 0.000000 0.000000
0.867377 1.213849 1.885807 0.000000 0.000000 0.000000
0.904578 1.249548 1.855509 0.000000 0.000000 0.000000
0.848116 1.238519 1.897012 0.000000 0.000000 0.000000
0.859631 1.226730 1.888264 0.000000 0.000000 0.000000
0.882217 1.262792 1.875151 0.000000 0.000000 0.000000
0.891164 1.236053 1.860976 0.000000 0.000000 0.000000
0.891604 1.256793 1.868908 0.000000 0.000000 0.000000
0.866138 1.261411 1.885838 0.000000 0.000000 0.000000
0.903045 1.245877 1.856631 0.000000 0.000000 0.000000
0.892924 1.242003 1.866698 0.000000 0.000000 0.000000
0.878583 1.228062 1.884660 0.000000 0.000000 0.000000
0.872957 1.228469 1.885780 0.000000 0.000000 0.000000
0.855622 1.256249 1.891652 0.000000 0.000000 0.000000
0.901869 1.265633 1.859730 0.000000 0.000000 0.000000
0.898571 1.236073 1.863833 0.000000 0.000000 0.000000
0.851508 1.230897 1.898942 0.000000 0.000000 0.000000
0.826677 1.230310 1.916257 0.000000 0.000000 0.000000
0.829439 1.244085 1.908554 0.000000 0.000000 0.000000
0.842992 1.256202 1.906890 0.000000 0.000000 0.000000
0.868104 1.239097 1.881209 0.000000 0.000000 0.000000
0.824910 1.248916 1.909661 0.000000 0.000000 0.000000
0.900944 1.248749 1.860032 0.000000 0.000000 0.000000
0.885785 1.271233 1.874299 0.000000 0.000000 0.000000
0.881073 1.247836 1.875064 0.000000 0.000000 0.000000
0.897010 1.266169 1.863358 0.000000 0.000000 0.000000
0.887252 1.253593 1.870241 0.000000 0.000000 0.000000
0.832789 1.237928 1.905136 0.000000 0.000000 0.000000
0.897256 1.245464 1.864252 0.000000 0.000000 0.000000
0.835308 1.225172 1.905361 0.000000 0.000000 0.000000
0.903760 1.283368 1.857624 0.000000 0.000000 0.000000
0.907204 1.256763 1.853161 0.000000 0.000000 0.000000
0.842196 1.234556 1.898148 0.000000 0.000000 0.000000
0.812522 1.235617 1.918387 0.000000 0.000000 0.000000
0.821624 1.227426 1.913203 0.000000 0.000000 0.000000
0.887412 1.244863 1.870646 0.000000 0.000000 0.000000
0.857272 1.238168 1.885448 0.000000 0.000000 0.000000
0.910841 1.263725 1.851295 0.000000 0.000000 0.000000
0.907111 1.264393 1.856203 0.000000 0.000000 0.000000
0.910428 1.263904 1.853547 0.000000 0.000000 0.000000
0.824621 1.224164 1.911370 0.000000 0.000000 0.000000
0.873858 1.253742 1.877944 0.000000 0.000000 0.000000
0.846344 1.223551 1.902090 0.000000 0.000000 0.000000
0.887919 1.260849 1.870245 0.000000 0.000000 0.000000
0.878863 1.238533 1.877881 0.000000 0.000000 0.000000
0.899084 1.261998 1.871343 0.000000 0.000000 0.000000
0.888289 1.244510 1.872725 0.000000 0.000000 0.000000
0.880342 1.264235 1.874557 0.000000 0.000000 0.000000
0.881392 1.269419 1.877796 0.000000 0.000000 0.000000
0.909857 1.270101 1.854787 0.000000 0.000000 0.000000
0.893848 1.254772 1.858895 0.000000 0.000000 0.000000
0.826104 1.237369 1.910748 0.000000 0.000000 0.000000
0.868018 1.244207 1.888394 0.000000 0.000000 0.000000
0.872991 1.253831 1.878809 0.000000 0.000000 0.000000
0.856465 1.263784 1.893103 0.000000 0.000000 0.000000
0.854977 1.246903 1.890744 0.000000 0.000000 0.000000
0.860452 1.245115 1.885186 0.000000 0.000000 0.000000
0.883018 1.264648 1.876075 0.000000 0.000000 0.000000
0.863754 1.249118 1.888700 0.000000 0.000000 0.000000
0.859727 1.270712 1.895932 0.000000 0.000000 0.000000
0.877060 1.254877 1.876636 0.000000 0.000000 0.000000
0.898030 1.264543 1.863098 0.000000 0.000000 0.000000
0.900586 1.268552 1.861380 0.000000 0.000000 0.000000
0.907743 1.275908 1.857967 0.000000 0.000000 0.000000
0.908495 1.271481 1.857106 0.000000 0.000000 0.000000
0.884696 1.247779 1.871938 0.000000 0.000000 0.000000
0.900136 1.266978 1.862516 0.000000 0.000000 0.000000
0.857152 1.213742 1.903829 0.000000 0.000000 0.000000
0.903513 1.273200 1.859298 0.000000 0.000000 0.000000
0.846961 1.251969 1.894878 0.000000 0.000000 0.000000
0.894152 1.258174 1.866080 0.000000 0.000000 0.000000
0.877927 1.264169 1.877227 0.000000 0.000000 0.000000
0.864052 1.218550 1.888738 0.000000 0.000000 0.000000
0.867947 1.239142 1.890902 0.000000 0.000000 0.000000
0.885353 1.263158 1.873507 0.000000 0.000000 0.000000
0.893805 1.260049 1.865322 0.000000 0.000000 0.000000
0.848215 1.256270 1.895707 0.000000 0.000000 0.000000
0.902714 1.258724 1.858993 0.000000 0.000000 0.000000
0.898571 1.266485 1.862163 0.000000 0.000000 0.000000
0.907636 1.261762 1.857689 0.000000 0.000000 0.000000
0.875112 1.252087 1.879093 0.000000 0.000000 0.000000
0.902077 1.268637 1.860632 0.000000 0.000000 0.000000
0.890755 1.252967 1.870638 0.000000 0.000000 0.000000
0.884263 1.279967 1.880762 0.000000 0.000000 0.000000
0.899116 1.268983 1.864490 0.000000 0.000000 0.000000
0.886641 1.270443 1.877055 0.000000 0.000000 0.000000
0.898373 1.265882 1.861270 0.000000 0.000000 0.000000
0.903236 1.243193 1.857524 0.000000 0.000000 0.000000
0.817937 1.238261 1.913472 0.000000 0.000000 0.000000
0.859707 1.228043 1.891663 0.000000 0.000000 0.000000
0.858813 1.254818 1.887980 0.000000 0.000000 0.000000
0.912187 1.257638 1.852954 0.000000 0.000000 0.000000
0.899022 1.251176 1.861650 0.000000 0.000000 0.000000
0.893679 1.276330 1.871502 0.000000 0.000000 0.000000
0.911120 1.267377 1.854371 0.000000 0.000000 0.000000
0.899985 1.244768 1.857478 0.000000 0.000000 0.000000
0.814489 1.230383 1.914238 0.000000 0.000000 0.000000
0.835227 1.237690 1.902778 0.000000 0.000000 0.000000
0.833658 1.225985 1.910528 0.000000 0.000000 0.000000
0.810743 1.226582 1.919036 0.000000 0.000000 0.000000
0.895341 1.254245 1.864283 0.000000 0.000000 0.000000
0.885469 1.257727 1.871632 0.000000 0.000000 0.000000
0.849090 1.237483 1.902399 0.000000 0.000000 0.000000
0.844974 1.252718 1.897189 0.000000 0.000000 0.000000
0.835410 1.246877 1.904664 0.000000 0.000000 0.000000
0.816259 1.227954 1.915954 0.000000 0.000000 0.000000
0.837315 1.253217 1.909222 0.000000 0.000000 0.000000
0.822257 1.228869 1.915426 0.000000 0.000000 0.000000
0.894715 1.263980 1.864526 0.000000 0.000000 0.000000
0.901468 1.276799 1.862641 0.000000 0.000000 0.000000
0.905926 1.267975 1.857053 0.000000 0.000000 0.000000
0.864552 1.256147 1.891318 0.000000 0.000000 0.000000
0.852575 1.240810 1.892199 0.000000 0.000000 0.000000
0.906077 1.277604 1.862979 0.000000 0.000000 0.000000
0.908896 1.264044 1.855570 0.000000 0.000000 0.000000
0.840953 1.247909 1.901977 0.000000 0.000000 0.000000
0.826309 1.230750 1.917983 0.000000 0.000000 0.000000
0.848169 1.251117 1.895955 0.000000 0.000000 0.000000
0.843507 1.250221 1.898072 0.000000 0.000000 0.000000
0.829294 1.240557 1.907588 0.000000 0.000000 0.000000
0.829541 1.229873 1.909996 0.000000 0.000000 0.000000
0.885813 1.240815 1.874191 0.000000 0.000000 0.000000
0.875313 1.258950 1.881558 0.000000 0.000000 0.000000
0.863642 1.271249 1.893689 0.000000 0.000000 0.000000
0.886130 1.250227 1.868731 0.000000 0.000000 0.000000
0.894820 1.248264 1.865826 0.000000 0.000000 0.000000
0.815160 1.228858 1.915578 0.000000 0.000000 0.000000
0.870038 1.222874 1.885709 0.000000 0.000000 0.000000
0.892427 1.275175 1.872082 0.000000 0.000000 0.000000
0.904225 1.258146 1.855205 0.000000 0.000000 0.000000
0.896380 1.233995 1.868006 0.000000 0.000000 0.000000
0.862473 1.259397 1.888880 0.000000 0.000000 0.000000
0.876248 1.270180 1.880673 0.000000 0.000000 0.000000
0.912187 1.269847 1.853276 0.000000 0.000000 0.000000
0.887475 1.248848 1.873908 0.000000 0.000000 0.000000
0.861871 1.212286 1.900340 0.000000 0.000000 0.000000
0.851198 1.236812 1.896702 0.000000 0.000000 0.000000
0.870841 1.260120 1.882429 0.000000 0.000000 0.000000
0.900292 1.256938 1.861316 0.000000 0.000000 0.000000
0.895577 1.252732 1.865806 0.000000 0.000000 0.000000
0.839330 1.236924 1.909251 0.000000 0.000000 0.000000
0.808514 1.235749 1.912292 0.000000 0.000000 0.000000
0.848113 1.265616 1.905306 0.000000 0.000000 0.000000
0.829960 1.226187 1.904832 0.000000 0.000000 0.000000
0.833608 1.236731 1.905534 0.000000 0.000000 0.000000
0.824669 1.217582 1.910701 0.000000 0.000000 0.000000
0.822646 1.242696 1.912245 0.000000 0.000000 0.000000
0.851115 1.258419 1.904618 0.000000 0.000000 0.000000
0.868470 1.210497 1.893227 0.000000 0.000000 0.000000
0.851840 1.218611 1.894346 0.000000 0.000000 0.000000
0.906237 1.266408 1.854531 0.000000 0.000000 0.000000
0.892810 1.266473 1.870477 0.000000 0.000000 0.000000
0.902990 1.266162 1.859594 0.000000 0.000000 0.000000
0.888986 1.246223 1.868995 0.000000 0.000000 0.000000
0.852855 1.243680 1.892072 0.000000 0.000000 0.000000
0.897562 1.267437 1.863706 0.000000 0.000000 0.000000
0.888802 1.248165 1.869578 0.000000 0.000000 0.000000
0.897581 1.235859 1.863918 0.000000 0.000000 0.000000
0.868581 1.230509 1.889327 0.000000 0.000000 0.000000
0.891793 1.266072 1.868353 0.000000 0.000000 0.000000
0.829169 1.213870 1.909784 0.000000 0.000000 0.000000
0.898848 1.245531 1.861383 0.000000 0.000000 0.000000
0.911932 1.263652 1.852594 0.000000 0.000000 0.000000
0.888363 1.239437 1.868163 0.000000 0.000000 0.000000
0.892104 1.239174 1.868177 0.000000 0.000000 0.000000
0.880288 1.214229 1.890073 0.000000 0.000000 0.000000
0.891055 1.242409 1.867796 0.000000 0.000000 0.000000
0.857282 1.220840 1.893025 0.000000 0.000000 0.000000
0.901628 1.255279 1.861905 0.000000 0.000000 0.000000
0.907302 1.255881 1.853827 0.000000 0.000000 0.000000
0.913995 1.264438 1.852884 0.000000 0.000000 0.000000
0.886452 1.274273 1.874955 0.000000 0.000000 0.000000
0.872812 1.271417 1.883754 0.000000 0.000000 0.000000
0.874259 1.270285 1.877789 0.000000 0.000000 0.000000
0.854637 1.216750 1.903672 0.000000 0.000000 0.000000
0.880588 1.270124 1.878790 0.000000 0.000000 0.000000
0.867468 1.261782 1.884449 0.000000 0.000000 0.000000
0.874031 1.221252 1.884767 0.000000 0.000000 0.000000
0.867880 1.265115 1.883060 0.000000 0.000000 0.000000
0.844221 1.232205 1.904389 0.000000 0.000000 0.000000
0.912446 1.264916 1.848113 0.000000 0.000000 0.000000
0.916788 1.275262 1.855893 0.000000 0.000000 0.000000
0.906396 1.272094 1.858188 0.000000 0.000000 0.000000
0.850011 1.251078 1.893630 0.000000 0.000000 0.000000
0.846755 1.256968 1.901834 0.000000 0.000000 0.000000
0.859785 1.250759 1.890224 0.000000 0.000000 0.000000
0.885260 1.275298 1.877081 0.000000 0.000000 0.000000
0.824759 1.248095 1.913193 0.000000 0.000000 0.000000
0.833595 1.249043 1.910075 0.000000 0.000000 0.000000
0.874088 1.260486 1.880882 0.000000 0.000000 0.000000
0.866417 1.249039 1.884125 0.000000 0.000000 0.000000
0.869625 1.262308 1.884807 0.000000 0.000000 0.000000
0.874870 1.231955 1.873219 0.000000 0.000000 0.000000
0.828450 1.239075 1.907974 0.000000 0.000000 0.000000
0.894455 1.225258 1.870137 0.000000 0.000000 0.000000
0.848104 1.260220 1.899222 0.000000 0.000000 0.000000
0.868076 1.258375 1.883500 0.000000 0.000000 0.000000
0.880989 1.252488 1.873486 0.000000 0.000000 0.000000
0.848625 1.223059 1.899248 0.000000 0.000000 0.000000
0.867449 1.230743 1.886930 0.000000 0.000000 0.000000
0.874238 1.253240 1.878467 0.000000 0.000000 0.000000
0.900341 1.233019 1.861725 0.000000 0.000000 0.000000
0.846379 1.216331 1.901894 0.000000 0.000000 0.000000
0.849856 1.211791 1.900228 0.000000 0.000000 0.000000
0.847774 1.212267 1.896199 0.000000 0.000000 0.000000
0.915328 1.273149 1.849105 0.000000 0.000000 0.000000
0.848732 1.218197 1.899657 0.000000 0.000000 0.000000
0.896223 1.229012 1.866941 0.000000 0.000000 0.000000
0.910030 1.269288 1.854778 0.000000 0.000000 0.000000
0.889561 1.240165 1.872809 0.000000 0.000000 0.000000
0.841261 1.227516 1.901518 0.000000 0.000000 0.000000
0.908883 1.277071 1.854539 0.000000 0.000000 0.000000
0.887324 1.269097 1.873020 0.000000 0.000000 0.000000
0.901369 1.275433 1.862985 0.000000 0.000000 0.000000
0.904680 1.269743 1.859302 0.000000 0.000000 0.000000
0.897945 1.269869 1.864976 0.000000 0.000000 0.000000
0.903770 1.259485 1.862049 0.000000 0.000000 0.000000
0.874749 1.220143 1.886950 0.000000 0.000000 0.000000
0.883101 1.266383 1.874906 0.000000 0.000000 0.000000
0.873168 1.271175 1.879675 0.000000 0.000000 0.000000
0.865940 1.262547 1.887390 0.000000 0.000000 0.000000
0.858834 1.258854 1.890918 0.000000 0.000000 0.000000
0.896927 1.222489 1.874784 0.000000 0.000000 0.000000
0.846433 1.234590 1.896755 0.000000 0.000000 0.000000
0.839520 1.253608 1.905479 0.000000 0.000000 0.000000
0.894052 1.261338 1.864636 0.000000 0.000000 0.000000
0.850925 1.256892 1.893776 0.000000 0.000000 0.000000
0.884650 1.268476 1.875990 0.000000 0.000000 0.000000
0.856412 1.249564 1.891753 0.000000 0.000000 0.000000
0.843105 1.211850 1.900988 0.000000 0.000000 0.000000
0.850868 1.241263 1.901563 0.000000 0.000000 0.000000
0.876615 1.213889 1.885093 0.000000 0.000000 0.000000
0.909044 1.280261 1.860949 0.000000 0.000000 0.000000
0.873230 1.218638 1.887645 0.000000 0.000000 0.000000
0.823872 1.231843 1.919408 0.000000 0.000000 0.000000
0.822284 1.238994 1.913253 0.000000 0.000000 0.000000
0.804902 1.227029 1.913172 0.000000 0.000000 0.000000
0.905546 1.270551 1.856387 0.000000 0.000000 0.000000
0.863603 1.262210 1.890620 0.000000 0.000000 0.000000
0.877915 1.226237 1.895898 0.000000 0.000000 0.000000
0.818882 1.215751 1.912378 0.000000 0.000000 0.000000
0.903783 1.248392 1.855643 0.000000 0.000000 0.000000
0.902336 1.233804 1.873610 0.000000 0.000000 0.000000
0.837735 1.210423 1.904012 0.000000 0.000000 0.000000
0.837379 1.211287 1.898364 0.000000 0.000000 0.000000
0.898231 1.238152 1.863065 0.000000 0.000000 0.000000
0.877827 1.229771 1.879653 0.000000 0.000000 0.000000
0.848556 1.224382 1.898340 0.000000 0.000000 0.000000
0.851310 1.218897 1.895473 0.000000 0.000000 0.000000
0.832280 1.212766 1.904259 0.000000 0.000000 0.000000
0.861698 1.270474 1.894399 0.000000 0.000000 0.000000
0.898452 1.229046 1.866450 0.000000 0.000000 0.000000
0.891941 1.252793 1.867242 0.000000 0.000000 0.000000
0.886152 1.228649 1.877091 0.000000 0.000000 0.000000
0.890412 1.240632 1.869440 0.000000 0.000000 0.000000
0.904452 1.248647 1.857329 0.000000 0.000000 0.000000
0.871391 1.240622 1.886015 0.000000 0.000000 0.000000
0.894906 1.223741 1.868370 0.000000 0.000000 0.000000
0.899411 1.236350 1.862647 0.000000 0.000000 0.000000
0.890267 1.223175 1.873754 0.000000 0.000000 0.000000
0.900136 1.237798 1.859825 0.000000 0.000000 0.000000
0.897376 1.229072 1.870115 0.000000 0.000000 0.000000
0.901872 1.237444 1.859726 0.000000 0.000000 0.000000
0.840581 1.261212 1.898764 0.000000 0.000000 0.000000
0.854309 1.260466 1.893636 0.000000 0.000000 0.000000
0.846273 1.262856 1.902291 0.000000 0.000000 0.000000
0.837022 1.257608 1.900356 0.000000 0.000000 0.000000
0.845335 1.261739 1.905543 0.000000 0.000000 0.000000
0.812874 1.219623 1.918970 0.000000 0.000000 0.000000
0.848573 1.211520 1.901384 0.000000 0.000000 0.000000
0.863538 1.218601 1.897619 0.000000 0.000000 0.000000
0.861548 1.211259 1.896052 0.000000 0.000000 0.000000
0.915064 1.268275 1.853169 0.000000 0.000000 0.000000
0.852646 1.260674 1.896087 0.000000 0.000000 0.000000
0.908874 1.262407 1.853129 0.000000 0.000000 0.000000
0.893497 1.281532 1.869889 0.000000 0.000000 0.000000
0.902603 1.279563 1.862693 0.000000 0.000000 0.000000
0.852889 1.214586 1.901106 0.000000 0.000000 0.000000
0.841828 1.209940 1.898641 0.000000 0.000000 0.000000
0.845855 1.221307 1.900255 0.000000 0.000000 0.000000
0.848617 1.211914 1.897754 0.000000 0.000000 0.000000
0.817330 1.218949 1.912973 0.000000 0.000000 0.000000
0.864507 1.210234 1.897330 0.000000 0.000000 0.000000
0.838972 1.212340 1.905248 0.000000 0.000000 0.000000
0.841221 1.211692 1.901304 0.000000 0.000000 0.000000
0.873057 1.267337 1.883449 0.000000 0.000000 0.000000
0.883057 1.263794 1.874633 0.000000 0.000000 0.000000
0.857026 1.272118 1.897512 0.000000 0.000000 0.000000
0.859541 1.266176 1.890248 0.000000 0.000000 0.000000
0.874284 1.271183 1.883254 0.000000 0.000000 0.000000
0.870159 1.275599 1.891888 0.000000 0.000000 0.000000
0.876399 1.255668 1.878532 0.000000 0.000000 0.000000
0.874016 1.273684 1.887407 0.000000 0.000000 0.000000
0.867297 1.270071 1.886880 0.000000 0.000000 0.000000
0.850132 1.259188 1.896808 0.000000 0.000000 0.000000
0.909446 1.273052 1.856359 0.000000 0.000000 0.000000
0.915552 1.271830 1.854887 0.000000 0.000000 0.000000
0.870019 1.272089 1.893575 0.000000 0.000000 0.000000
0.870674 1.275716 1.892305 0.000000 0.000000 0.000000
0.861346 1.271016 1.892936 0.000000 0.000000 0.000000
0.865966 1.272218 1.884860 0.000000 0.000000 0.000000
0.854957 1.272422 1.893734 0.000000 0.000000 0.000000
0.904008 1.269212 1.859059 0.000000 0.000000 0.000000
0.859660 1.270588 1.895000 0.000000 0.000000 0.000000
0.866615 1.268091 1.886469 0.000000 0.000000 0.000000
0.870949 1.268018 1.883627 0.000000 0.000000 0.000000
0.877143 1.265594 1.879938 0.000000 0.000000 0.000000
0.856049 1.266596 1.895420 0.000000 0.000000 0.000000
0.867388 1.269970 1.888291 0.000000 0.000000 0.000000
0.898569 1.232340 1.861369 0.000000 0.000000 0.000000
0.899288 1.229295 1.863129 0.000000 0.000000 0.000000
0.849725 1.249452 1.893854 0.000000 0.000000 0.000000
0.843616 1.240541 1.899471 0.000000 0.000000 0.000000
0.834858 1.239131 1.903200 0.000000 0.000000 0.000000
0.825581 1.235641 1.911171 0.000000 0.000000 0.000000
0.853804 1.211520 1.900665 0.000000 0.000000 0.000000
0.854199 1.231329 1.890680 0.000000 0.000000 0.000000
0.840055 1.253475 1.898218 0.000000 0.000000 0.000000
0.855012 1.258730 1.893785 0.000000 0.000000 0.000000
0.845026 1.258522 1.901556 0.000000 0.000000 0.000000
0.905605 1.259793 1.856182 0.000000 0.000000 0.000000
0.903920 1.245145 1.855465 0.000000 0.000000 0.000000
0.903471 1.241035 1.856557 0.000000 0.000000 0.000000
0.901514 1.255733 1.857349 0.000000 0.000000 0.000000
0.815694 1.221702 1.915001 0.000000 0.000000 0.000000
0.821572 1.243368 1.913760 0.000000 0.000000 0.000000
0.840990 1.252026 1.903315 0.000000 0.000000 0.000000
0.837310 1.250216 1.907843 0.000000 0.000000 0.000000
0.839519 1.257150 1.908044 0.000000 0.000000 0.000000
0.838625 1.258350 1.905914 0.000000 0.000000 0.000000
0.834961 1.259022 1.908419 0.000000 0.000000 0.000000
0.849227 1.221805 1.907609 0.000000 0.000000 0.000000
0.868326 1.231773 1.884749 0.000000 0.000000 0.000000
0.865242 1.241085 1.884648 0.000000 0.000000 0.000000
0.888205 1.231327 1.873685 0.000000 0.000000 0.000000
0.860460 1.235952 1.886870 0.000000 0.000000 0.000000
0.899638 1.277311 1.865140 0.000000 0.000000 0.000000
0.915684 1.275114 1.856834 0.000000 0.000000 0.000000
0.862526 1.207300 1.897877 0.000000 0.000000 0.000000
0.913832 1.276290 1.854072 0.000000 0.000000 0.000000
0.877676 1.220185 1.881456 0.000000 0.000000 0.000000
0.876466 1.217394 1.884484 0.000000 0.000000 0.000000
0.858654 1.221671 1.896548 0.000000 0.000000 0.000000
0.862760 1.214038 1.897952 0.000000 0.000000 0.000000
0.860387 1.237009 1.890093 0.000000 0.000000 0.000000
0.850860 1.211875 1.902320 0.000000 0.000000 0.000000
0.858893 1.211436 1.892775 0.000000 0.000000 0.000000
0.879847 1.276272 1.882413 0.000000 0.000000 0.000000
0.870075 1.213962 1.891900 0.000000 0.000000 0.000000
0.895554 1.275456 1.869233 0.000000 0.000000 0.000000
0.896876 1.228239 1.864544 0.000000 0.000000 0.000000
0.870651 1.216931 1.881608 0.000000 0.000000 0.000000
0.879540 1.211699 1.881712 0.000000 0.000000 0.000000
0.886720 1.270547 1.876436 0.000000 0.000000 0.000000
0.889740 1.222259 1.870016 0.000000 0.000000 0.000000
0.897659 1.228700 1.864423 0.000000 0.000000 0.000000
0.884232 1.221356 1.881384 0.000000 0.000000 0.000000
0.830443 1.233294 1.911223 0.000000 0.000000 0.000000
0.886509 1.279945 1.874117 0.000000 0.000000 0.000000
0.837512 1.240205 1.911226 0.000000 0.000000 0.000000
0.819900 1.240661 1.911069 0.000000 0.000000 0.000000
0.864505 1.266539 1.886993 0.000000 0.000000 0.000000
0.881725 1.275696 1.877723 0.000000 0.000000 0.000000
0.868902 1.276066 1.892856 0.000000 0.000000 0.000000
0.858452 1.267789 1.899116 0.000000 0.000000 0.000000
0.823684 1.252539 1.913553 0.000000 0.000000 0.000000
0.836227 1.237953 1.914619 0.000000 0.000000 0.000000
0.886391 1.264693 1.874177 0.000000 0.000000 0.000000
0.895196 1.282019 1.871143 0.000000 0.000000 0.000000
0.898197 1.258617 1.869009 0.000000 0.000000 0.000000
0.858835 1.269999 1.896226 0.000000 0.000000 0.000000
0.870398 1.266325 1.884476 0.000000 0.000000 0.000000
0.894063 1.272723 1.872260 0.000000 0.000000 0.000000
0.870851 1.275445 1.891772 0.000000 0.000000 0.000000
0.870734 1.265065 1.881572 0.000000 0.000000 0.000000
0.865029 1.275034 1.888791 0.000000 0.000000 0.000000
0.868714 1.276998 1.884460 0.000000 0.000000 0.000000
0.873509 1.276846 1.887762 0.000000 0.000000 0.000000
0.857942 1.265568 1.892090 0.000000 0.000000 0.000000
0.872281 1.217832 1.893003 0.000000 0.000000 0.000000
0.863312 1.262537 1.888505 0.000000 0.000000 0.000000
0.869060 1.212505 1.893274 0.000000 0.000000 0.000000
0.857231 1.208759 1.898615 0.000000 0.000000 0.000000
0.860224 1.233993 1.889012 0.000000 0.000000 0.000000
0.852477 1.228809 1.893043 0.000000 0.000000 0.000000
0.847932 1.220528 1.895050 0.000000 0.000000 0.000000
0.853343 1.210545 1.897175 0.000000 0.000000 0.000000
0.878558 1.222384 1.877514 0.000000 0.000000 0.000000
0.834765 1.227707 1.904187 0.000000 0.000000 0.000000
0.855212 1.218448 1.897520 0.000000 0.000000 0.000000
0.905027 1.252462 1.855935 0.000000 0.000000 0.000000
0.873808 1.273170 1.884209 0.000000 0.000000 0.000000
0.876341 1.277252 1.885587 0.000000 0.000000 0.000000
0.901670 1.240639 1.856843 0.000000 0.000000 0.000000
0.875723 1.279456 1.888638 0.000000 0.000000 0.000000
0.865791 1.276804 1.890587 0.000000 0.000000 0.000000
0.892868 1.245404 1.864525 0.000000 0.000000 0.000000
0.883347 1.229136 1.876984 0.000000 0.000000 0.000000
0.893056 1.242648 1.863635 0.000000 0.000000 0.000000
0.873001 1.242781 1.867319 0.000000 0.000000 0.000000
0.869492 1.261489 1.880848 0.000000 0.000000 0.000000
0.890215 1.266502 1.870789 0.000000 0.000000 0.000000
0.858366 1.263799 1.893061 0.000000 0.000000 0.000000
0.900970 1.237766 1.851436 0.000000 0.000000 0.000000
0.902936 1.234975 1.858612 0.000000 0.000000 0.000000
0.858212 1.215075 1.892586 0.000000 0.000000 0.000000
0.843686 1.214901 1.902283 0.000000 0.000000 0.000000
0.893242 1.245677 1.865924 0.000000 0.000000 0.000000
0.883276 1.234930 1.876192 0.000000 0.000000 0.000000
0.873067 1.227808 1.882204 0.000000 0.000000 0.000000
0.887205 1.234161 1.860165 0.000000 0.000000 0.000000
0.881573 1.241686 1.862800 0.000000 0.000000 0.000000
0.860071 1.258862 1.888106 0.000000 0.000000 0.000000
0.877840 1.275377 1.883153 0.000000 0.000000 0.000000
0.889025 1.270886 1.873477 0.000000 0.000000 0.000000
0.899843 1.241157 1.854909 0.000000 0.000000 0.000000
0.902984 1.250380 1.855473 0.000000 0.000000 0.000000
0.864756 1.211782 1.891742 0.000000 0.000000 0.000000
0.877566 1.273985 1.887450 0.000000 0.000000 0.000000
0.908176 1.244130 1.854538 0.000000 0.000000 0.000000
0.844921 1.257103 1.902621 0.000000 0.000000 0.000000
0.864468 1.268838 1.900755 0.000000 0.000000 0.000000
0.865529 1.274845 1.894454 0.000000 0.000000 0.000000
0.855941 1.209026 1.890434 0.000000 0.000000 0.000000
0.910169 1.259870 1.853548 0.000000 0.000000 0.000000
0.823201 1.228459 1.915051 0.000000 0.000000 0.000000
0.874557 1.274622 1.890192 0.000000 0.000000 0.000000
0.871640 1.276436 1.893008 0.000000 0.000000 0.000000
0.861876 1.270930 1.896502 0.000000 0.000000 0.000000
0.872485 1.269412 1.890973 0.000000 0.000000 0.000000
0.870849 1.276874 1.894017 0.000000 0.000000 0.000000
0.857945 1.243106 1.889553 0.000000 0.000000 0.000000
0.867760 1.235299 1.883892 0.000000 0.000000 0.000000
0.885002 1.223190 1.879423 0.000000 0.000000 0.000000
0.845335 1.227598 1.894910 0.000000 0.000000 0.000000
0.833036 1.253528 1.909707 0.000000 0.000000 0.000000
0.838542 1.243716 1.900158 0.000000 0.000000 0.000000
0.862133 1.256798 1.887357 0.000000 0.000000 0.000000
0.851389 1.246812 1.889279 0.000000 0.000000 0.000000
0.856306 1.254779 1.891110 0.000000 0.000000 0.000000
0.836447 1.240211 1.903564 0.000000 0.000000 0.000000
0.872695 1.210894 1.889557 0.000000 0.000000 0.000000
0.839666 1.253622 1.904277 0.000000 0.000000 0.000000
0.838555 1.254563 1.906128 0.000000 0.000000 0.000000
0.858854 1.267808 1.893112 0.000000 0.000000 0.000000
0.848715 1.251380 1.894600 0.000000 0.000000 0.000000
0.827783 1.231433 1.904648 0.000000 0.000000 0.000000
0.847601 1.220732 1.898996 0.000000 0.000000 0.000000
0.885414 1.218687 1.886886 0.000000 0.000000 0.000000
0.847279 1.218055 1.894522 0.000000 0.000000 0.000000
0.840721 1.226249 1.901743 0.000000 0.000000 0.000000
0.837524 1.242409 1.906139 0.000000 0.000000 0.000000
0.837969 1.246804 1.902323 0.000000 0.000000 0.000000
0.850677 1.254042 1.896021 0.000000 0.000000 0.000000
0.834375 1.235485 1.899703 0.000000 0.000000 0.000000
0.855894 1.248606 1.889992 0.000000 0.000000 0.000000
0.841702 1.231230 1.902364 0.000000 0.000000 0.000000
0.872168 1.209615 1.889704 0.000000 0.000000 0.000000
0.832372 1.248665 1.908856 0.000000 0.000000 0.000000
0.849013 1.260778 1.892884 0.000000 0.000000 0.000000
0.848956 1.257421 1.895061 0.000000 0.000000 0.000000
0.863342 1.255756 1.885680 0.000000 0.000000 0.000000
0.880710 1.212453 1.884753 0.000000 0.000000 0.000000
0.878198 1.230489 1.878297 0.000000 0.000000 0.000000
0.845903 1.255660 1.898296 0.000000 0.000000 0.000000
0.859067 1.269500 1.894800 0.000000 0.000000 0.000000
0.819260 1.229978 1.911883 0.000000 0.000000 0.000000
0.831927 1.226720 1.910900 0.000000 0.000000 0.000000
0.821439 1.214291 1.911979 0.000000 0.000000 0.000000
0.873537 1.273546 1.888927 0.000000 0.000000 0.000000
0.862011 1.270501 1.893858 0.000000 0.000000 0.000000
0.864930 1.272905 1.893543 0.000000 0.000000 0.000000
0.821136 1.229515 1.918232 0.000000 0.000000 0.000000
0.843420 1.213602 1.906315 0.000000 0.000000 0.000000
0.854186 1.216380 1.902680 0.000000 0.000000 0.000000
0.815380 1.223856 1.917001 0.000000 0.000000 0.000000
0.822954 1.220479 1.916036 0.000000 0.000000 0.000000
0.830714 1.217857 1.913394 0.000000 0.000000 0.000000
0.874565 1.274638 1.891234 0.000000 0.000000 0.000000
0.820671 1.221673 1.913967 0.000000 0.000000 0.000000
0.823934 1.217749 1.915974 0.000000 0.000000 0.000000
0.829045 1.222773 1.914117 0.000000 0.000000 0.000000
0.825190 1.223471 1.917192 0.000000 0.000000 0.000000
0.815501 1.223526 1.919734 0.000000 0.000000 0.000000
0.833851 1.212512 1.912072 0.000000 0.000000 0.000000
0.822404 1.216994 1.913915 0.000000 0.000000 0.000000
0.888032 1.277294 1.876850 0.000000 0.000000 0.000000
0.837613 1.214251 1.904497 0.000000 0.000000 0.000000
0.847926 1.210959 1.891523 0.000000 0.000000 0.000000
0.846747 1.210567 1.906474 0.000000 0.000000 0.000000
0.847288 1.211534 1.900281 0.000000 0.000000 0.000000
0.830704 1.218301 1.909791 0.000000 0.000000 0.000000
0.830867 1.213761 1.908001 0.000000 0.000000 0.000000
0.865069 1.209772 1.894315 0.000000 0.000000 0.000000
0.829125 1.226043 1.916386 0.000000 0.000000 0.000000
0.917334 1.278498 1.849900 0.000000 0.000000 0.000000
0.908542 1.260154 1.850733 0.000000 0.000000 0.000000
0.904650 1.251477 1.849287 0.000000 0.000000 0.000000
0.860871 1.275618 1.891053 0.000000 0.000000 0.000000
0.885235 1.215684 1.876827 0.000000 0.000000 0.000000
0.882078 1.216539 1.879806 0.000000 0.000000 0.000000
0.895044 1.228152 1.866399 0.000000 0.000000 0.000000
0.839246 1.216466 1.909759 0.000000 0.000000 0.000000
0.872990 1.209791 1.884970 0.000000 0.000000 0.000000
0.887235 1.217439 1.873850 0.000000 0.000000 0.000000
0.883727 1.216476 1.886044 0.000000 0.000000 0.000000
0.841299 1.213804 1.908091 0.000000 0.000000 0.000000
0.855104 1.211090 1.896603 0.000000 0.000000 0.000000
0.851996 1.211124 1.900266 0.000000 0.000000 0.000000
0.857328 1.211408 1.886106 0.000000 0.000000 0.000000
0.855661 1.209287 1.902616 0.000000 0.000000 0.000000
0.852976 1.211622 1.895355 0.000000 0.000000 0.000000
0.843480 1.209584 1.896053 0.000000 0.000000 0.000000
0.887521 1.216895 1.869688 0.000000 0.000000 0.000000
0.910460 1.278038 1.859529 0.000000 0.000000 0.000000
0.908338 1.268656 1.856373 0.000000 0.000000 0.000000
0.878825 1.273356 1.881704 0.000000 0.000000 0.000000
0.866380 1.273746 1.891777 0.000000 0.000000 0.000000
0.882875 1.272762 1.881418 0.000000 0.000000 0.000000
0.907496 1.275401 1.856117 0.000000 0.000000 0.000000
0.894418 1.228252 1.857172 0.000000 0.000000 0.000000
0.911937 1.270030 1.854497 0.000000 0.000000 0.000000
0.875199 1.272668 1.885595 0.000000 0.000000 0.000000
0.867327 1.272680 1.890314 0.000000 0.000000 0.000000
0.877453 1.273302 1.886556 0.000000 0.000000 0.000000
0.822706 1.216722 1.915075 0.000000 0.000000 0.000000
0.822110 1.214259 1.916471 0.000000 0.000000 0.000000
0.913600 1.271386 1.852960 0.000000 0.000000 0.000000
0.911925 1.270732 1.853098 0.000000 0.000000 0.000000
0.904794 1.252006 1.853051 0.000000 0.000000 0.000000
0.910458 1.266972 1.854437 0.000000 0.000000 0.000000
0.887471 1.231047 1.873697 0.000000 0.000000 0.000000
0.883357 1.214727 1.880953 0.000000 0.000000 0.000000
0.887170 1.220630 1.875113 0.000000 0.000000 0.000000
0.884586 1.216707 1.877738 0.000000 0.000000 0.000000
0.876474 1.244618 1.879375 0.000000 0.000000 0.000000
0.883179 1.235001 1.873452 0.000000 0.000000 0.000000
0.866810 1.220750 1.886494 0.000000 0.000000 0.000000
0.877681 1.216555 1.882766 0.000000 0.000000 0.000000
0.893021 1.235960 1.866841 0.000000 0.000000 0.000000
0.887128 1.220336 1.875887 0.000000 0.000000 0.000000
0.885460 1.228796 1.875507 0.000000 0.000000 0.000000
0.887601 1.220211 1.873829 0.000000 0.000000 0.000000
0.875911 1.213549 1.888224 0.000000 0.000000 0.000000
0.879522 1.232929 1.867697 0.000000 0.000000 0.000000
0.871195 1.221928 1.883148 0.000000 0.000000 0.000000
0.908676 1.260802 1.854458 0.000000 0.000000 0.000000
0.880393 1.218652 1.878998 0.000000 0.000000 0.000000
0.844617 1.231830 1.894187 0.000000 0.000000 0.000000
0.890034 1.219848 1.874325 0.000000 0.000000 0.000000
0.878137 1.214785 1.877657 0.000000 0.000000 0.000000
0.880654 1.214291 1.880114 0.000000 0.000000 0.000000
0.879986 1.217768 1.878228 0.000000 0.000000 0.000000
0.894267 1.236866 1.867595 0.000000 0.000000 0.000000
0.881143 1.243564 1.874584 0.000000 0.000000 0.000000
0.873326 1.246172 1.879148 0.000000 0.000000 0.000000
0.882729 1.223150 1.877599 0.000000 0.000000 0.000000
0.871874 1.214519 1.891112 0.000000 0.000000 0.000000
0.887244 1.243414 1.870763 0.000000 0.000000 0.000000
0.861318 1.218249 1.889689 0.000000 0.000000 0.000000
0.893388 1.227421 1.870477 0.000000 0.000000 0.000000
0.888405 1.224966 1.872156 0.000000 0.000000 0.000000
0.882628 1.217416 1.883132 0.000000 0.000000 0.000000
0.858517 1.221168 1.895165 0.000000 0.000000 0.000000
0.909195 1.253773 1.853583 0.000000 0.000000 0.000000
0.879497 1.219115 1.878358 0.000000 0.000000 0.000000
0.882933 1.217304 1.887317 0.000000 0.000000 0.000000
0.883304 1.219845 1.876098 0.000000 0.000000 0.000000
0.884400 1.218827 1.879538 0.000000 0.000000 0.000000
0.899099 1.279888 1.870100 0.000000 0.000000 0.000000
0.890961 1.281557 1.864133 0.000000 0.000000 0.000000
0.905256 1.286946 1.863297 0.000000 0.000000 0.000000
0.889509 1.276478 1.873958 0.000000 0.000000 0.000000
0.892548 1.279997 1.871223 0.000000 0.000000 0.000000
0.896688 1.274408 1.868358 0.000000 0.000000 0.000000
0.848765 1.265216 1.896595 0.000000 0.000000 0.000000
0.897664 1.278564 1.867535 0.000000 0.000000 0.000000
0.890791 1.279222 1.873391 0.000000 0.000000 0.000000
0.888721 1.218484 1.873549 0.000000 0.000000 0.000000
0.891307 1.273662 1.873718 0.000000 0.000000 0.000000
0.831669 1.216031 1.909716 0.000000 0.000000 0.000000
0.818774 1.216483 1.914133 0.000000 0.000000 0.000000
0.831531 1.215095 1.905153 0.000000 0.000000 0.000000
0.839727 1.208740 1.906185 0.000000 0.000000 0.000000
0.855320 1.213071 1.898706 0.000000 0.000000 0.000000
0.812031 1.221738 1.917921 0.000000 0.000000 0.000000
0.826019 1.213453 1.906263 0.000000 0.000000 0.000000
0.847245 1.211201 1.898409 0.000000 0.000000 0.000000
0.887813 1.218725 1.875672 0.000000 0.000000 0.000000
0.844568 1.217044 1.905657 0.000000 0.000000 0.000000
0.832898 1.250726 1.907349 0.000000 0.000000 0.000000
0.872198 1.210130 1.893577 0.000000 0.000000 0.000000
0.833206 1.253757 1.906810 0.000000 0.000000 0.000000
0.848939 1.209059 1.894282 0.000000 0.000000 0.000000
0.904398 1.282255 1.864137 0.000000 0.000000 0.000000
0.905599 1.276447 1.860696 0.000000 0.000000 0.000000
0.899072 1.282033 1.865474 0.000000 0.000000 0.000000
0.818440 1.218527 1.915315 0.000000 0.000000 0.000000
0.821424 1.217193 1.917779 0.000000 0.000000 0.000000
0.863969 1.281173 1.890928 0.000000 0.000000 0.000000
0.840000 1.218455 1.902992 0.000000 0.000000 0.000000
0.865547 1.276522 1.891069 0.000000 0.000000 0.000000
0.831402 1.211133 1.910889 0.000000 0.000000 0.000000
0.907722 1.269608 1.855134 0.000000 0.000000 0.000000
0.912053 1.278099 1.856943 0.000000 0.000000 0.000000
0.908176 1.273863 1.857872 0.000000 0.000000 0.000000
0.904776 1.276151 1.862269 0.000000 0.000000 0.000000
0.908474 1.271432 1.860544 0.000000 0.000000 0.000000
0.882652 1.229752 1.866554 0.000000 0.000000 0.000000
0.907130 1.280607 1.860192 0.000000 0.000000 0.000000
0.907021 1.284558 1.857687 0.000000 0.000000 0.000000
0.895895 1.284530 1.867729 0.000000 0.000000 0.000000
0.894973 1.234403 1.866876 0.000000 0.000000 0.000000
0.902029 1.281572 1.866485 0.000000 0.000000 0.000000
0.890373 1.229541 1.862931 0.000000 0.000000 0.000000
0.903582 1.278099 1.863085 0.000000 0.000000 0.000000
