ply
format ascii 1.0
comment VCGLIB generated
obj_info Generated by SPFormer!
element vertex 624
property float x
property float y
property float z
property float nx
property float ny
property float nz
end_header
0.711366 1.203813 2.174928 0.000000 0.000000 0.000000
0.699188 1.218142 2.185521 0.000000 0.000000 0.000000
0.125047 1.625119 2.871502 0.000000 0.000000 0.000000
0.125017 1.671230 2.859710 0.000000 0.000000 0.000000
0.127717 1.657262 2.855372 0.000000 0.000000 0.000000
0.132486 1.650653 2.845884 0.000000 0.000000 0.000000
0.130282 1.628134 2.845168 0.000000 0.000000 0.000000
0.632750 1.264168 2.210631 0.000000 0.000000 0.000000
0.131397 1.647240 2.867841 0.000000 0.000000 0.000000
0.138759 1.657438 2.842202 0.000000 0.000000 0.000000
-0.325883 1.782265 3.279137 0.000000 0.000000 0.000000
-0.324050 1.770799 3.267587 0.000000 0.000000 0.000000
-0.324619 1.759962 3.257076 0.000000 0.000000 0.000000
0.129365 1.632476 2.860522 0.000000 0.000000 0.000000
-0.339316 1.767179 3.266947 0.000000 0.000000 0.000000
-0.340844 1.776504 3.273292 0.000000 0.000000 0.000000
-0.325227 1.757450 3.269325 0.000000 0.000000 0.000000
-0.355589 1.776087 3.260636 0.000000 0.000000 0.000000
-0.324936 1.773574 3.259926 0.000000 0.000000 0.000000
-0.327501 1.752176 3.260809 0.000000 0.000000 0.000000
-0.323736 1.742602 3.264863 0.000000 0.000000 0.000000
-0.359867 1.777267 3.258503 0.000000 0.000000 0.000000
-0.331707 1.758148 3.274081 0.000000 0.000000 0.000000
-0.330202 1.759164 3.273416 0.000000 0.000000 0.000000
-0.326060 1.768489 3.262945 0.000000 0.000000 0.000000
-0.323645 1.775634 3.270249 0.000000 0.000000 0.000000
-0.328782 1.759857 3.266567 0.000000 0.000000 0.000000
-0.330811 1.768702 3.267721 0.000000 0.000000 0.000000
-0.333543 1.776893 3.276618 0.000000 0.000000 0.000000
-0.329607 1.778347 3.275838 0.000000 0.000000 0.000000
-0.321959 1.785371 3.279004 0.000000 0.000000 0.000000
-0.338268 1.766412 3.268928 0.000000 0.000000 0.000000
-0.333077 1.774973 3.276435 0.000000 0.000000 0.000000
-0.320837 1.761414 3.272373 0.000000 0.000000 0.000000
-0.328261 1.764680 3.262716 0.000000 0.000000 0.000000
-0.332486 1.772237 3.272431 0.000000 0.000000 0.000000
0.132762 1.640590 2.846430 0.000000 0.000000 0.000000
0.121781 1.654835 2.871278 0.000000 0.000000 0.000000
-0.321994 1.774325 3.263926 0.000000 0.000000 0.000000
-0.345350 1.770765 3.264333 0.000000 0.000000 0.000000
-0.331285 1.762573 3.269994 0.000000 0.000000 0.000000
-0.334242 1.769115 3.273265 0.000000 0.000000 0.000000
-0.347321 1.771625 3.263124 0.000000 0.000000 0.000000
-0.359166 1.772361 3.257650 0.000000 0.000000 0.000000
-0.354651 1.774186 3.259253 0.000000 0.000000 0.000000
0.136144 1.620741 2.848919 0.000000 0.000000 0.000000
-0.328591 1.757020 3.263606 0.000000 0.000000 0.000000
-0.332353 1.765260 3.275769 0.000000 0.000000 0.000000
-0.322495 1.774048 3.274793 0.000000 0.000000 0.000000
-0.322104 1.760226 3.265831 0.000000 0.000000 0.000000
-0.326914 1.761456 3.264112 0.000000 0.000000 0.000000
-0.348318 1.768291 3.261135 0.000000 0.000000 0.000000
-0.329463 1.752306 3.272680 0.000000 0.000000 0.000000
0.137626 1.644552 2.844697 0.000000 0.000000 0.000000
-0.332065 1.752114 3.266422 0.000000 0.000000 0.000000
-0.342099 1.768159 3.266354 0.000000 0.000000 0.000000
-0.340932 1.780752 3.271838 0.000000 0.000000 0.000000
-0.334451 1.773357 3.266170 0.000000 0.000000 0.000000
-0.339788 1.767347 3.263591 0.000000 0.000000 0.000000
-0.353356 1.770028 3.257523 0.000000 0.000000 0.000000
0.132844 1.628481 2.850182 0.000000 0.000000 0.000000
-0.340330 1.763061 3.264405 0.000000 0.000000 0.000000
0.132687 1.641888 2.878649 0.000000 0.000000 0.000000
-0.323798 1.746489 3.271336 0.000000 0.000000 0.000000
0.636983 1.253738 2.205757 0.000000 0.000000 0.000000
0.641296 1.252762 2.202385 0.000000 0.000000 0.000000
0.657041 1.241770 2.201236 0.000000 0.000000 0.000000
0.711918 1.211971 2.178941 0.000000 0.000000 0.000000
0.138391 1.656002 2.840503 0.000000 0.000000 0.000000
-0.329456 1.772325 3.272356 0.000000 0.000000 0.000000
0.124964 1.657166 2.842035 0.000000 0.000000 0.000000
0.665515 1.254311 2.199527 0.000000 0.000000 0.000000
0.652109 1.250406 2.198119 0.000000 0.000000 0.000000
0.680111 1.241452 2.199537 0.000000 0.000000 0.000000
0.123622 1.642077 2.877291 0.000000 0.000000 0.000000
0.125920 1.660037 2.873765 0.000000 0.000000 0.000000
0.135356 1.657169 2.842628 0.000000 0.000000 0.000000
0.663114 1.240337 2.192326 0.000000 0.000000 0.000000
-0.325836 1.768406 3.267940 0.000000 0.000000 0.000000
-0.320437 1.751238 3.255515 0.000000 0.000000 0.000000
0.644034 1.256014 2.202699 0.000000 0.000000 0.000000
0.665446 1.231088 2.190779 0.000000 0.000000 0.000000
0.707669 1.214799 2.188227 0.000000 0.000000 0.000000
0.690977 1.232790 2.194702 0.000000 0.000000 0.000000
0.128497 1.669454 2.851160 0.000000 0.000000 0.000000
0.704411 1.216201 2.181812 0.000000 0.000000 0.000000
0.625185 1.256162 2.203144 0.000000 0.000000 0.000000
0.657078 1.233700 2.201015 0.000000 0.000000 0.000000
0.121164 1.654852 2.859750 0.000000 0.000000 0.000000
0.613858 1.267446 2.206281 0.000000 0.000000 0.000000
0.608309 1.274855 2.230348 0.000000 0.000000 0.000000
0.718858 1.201499 2.170846 0.000000 0.000000 0.000000
0.131350 1.633083 2.859491 0.000000 0.000000 0.000000
0.641301 1.251949 2.210644 0.000000 0.000000 0.000000
0.638423 1.251590 2.197735 0.000000 0.000000 0.000000
0.642384 1.248038 2.189946 0.000000 0.000000 0.000000
0.619674 1.261929 2.207885 0.000000 0.000000 0.000000
0.718552 1.211133 2.178728 0.000000 0.000000 0.000000
0.621520 1.259511 2.209231 0.000000 0.000000 0.000000
0.705615 1.203536 2.173901 0.000000 0.000000 0.000000
0.708579 1.219918 2.187446 0.000000 0.000000 0.000000
0.640430 1.256956 2.200358 0.000000 0.000000 0.000000
0.634723 1.247801 2.203161 0.000000 0.000000 0.000000
0.639631 1.251558 2.206003 0.000000 0.000000 0.000000
-0.348880 1.766215 3.257788 0.000000 0.000000 0.000000
0.625726 1.261925 2.215629 0.000000 0.000000 0.000000
0.619438 1.269051 2.218811 0.000000 0.000000 0.000000
0.630526 1.262137 2.209264 0.000000 0.000000 0.000000
0.133166 1.645584 2.879765 0.000000 0.000000 0.000000
0.122245 1.662834 2.848387 0.000000 0.000000 0.000000
0.627863 1.267374 2.220407 0.000000 0.000000 0.000000
0.702749 1.224400 2.191583 0.000000 0.000000 0.000000
0.678481 1.226081 2.186970 0.000000 0.000000 0.000000
0.715124 1.214894 2.184727 0.000000 0.000000 0.000000
0.684206 1.233171 2.183517 0.000000 0.000000 0.000000
0.651328 1.252410 2.204745 0.000000 0.000000 0.000000
0.123289 1.637465 2.868359 0.000000 0.000000 0.000000
0.715937 1.211925 2.180297 0.000000 0.000000 0.000000
0.637869 1.251300 2.204307 0.000000 0.000000 0.000000
0.700715 1.209529 2.178725 0.000000 0.000000 0.000000
0.710452 1.207942 2.176100 0.000000 0.000000 0.000000
-0.353661 1.768149 3.255448 0.000000 0.000000 0.000000
-0.345762 1.774803 3.267140 0.000000 0.000000 0.000000
0.642920 1.251943 2.203812 0.000000 0.000000 0.000000
0.647143 1.252342 2.208525 0.000000 0.000000 0.000000
0.643805 1.247408 2.193271 0.000000 0.000000 0.000000
0.670448 1.232116 2.190123 0.000000 0.000000 0.000000
0.138569 1.645642 2.852158 0.000000 0.000000 0.000000
0.126890 1.651893 2.857195 0.000000 0.000000 0.000000
-0.347004 1.776525 3.267850 0.000000 0.000000 0.000000
-0.349122 1.770254 3.260215 0.000000 0.000000 0.000000
0.126023 1.636412 2.865406 0.000000 0.000000 0.000000
0.122482 1.668247 2.852625 0.000000 0.000000 0.000000
0.139041 1.631302 2.854689 0.000000 0.000000 0.000000
0.684525 1.233944 2.184073 0.000000 0.000000 0.000000
0.122368 1.657551 2.849015 0.000000 0.000000 0.000000
0.121297 1.667624 2.845321 0.000000 0.000000 0.000000
0.677207 1.238750 2.202103 0.000000 0.000000 0.000000
0.125274 1.669304 2.853305 0.000000 0.000000 0.000000
-0.356758 1.768018 3.255743 0.000000 0.000000 0.000000
-0.343197 1.772266 3.266679 0.000000 0.000000 0.000000
-0.324719 1.744001 3.272295 0.000000 0.000000 0.000000
0.135939 1.642779 2.843238 0.000000 0.000000 0.000000
0.123794 1.674750 2.858407 0.000000 0.000000 0.000000
0.626220 1.268027 2.215670 0.000000 0.000000 0.000000
0.139785 1.659687 2.848436 0.000000 0.000000 0.000000
0.124364 1.657874 2.876017 0.000000 0.000000 0.000000
0.615664 1.261765 2.210152 0.000000 0.000000 0.000000
-0.346883 1.769185 3.264777 0.000000 0.000000 0.000000
0.611144 1.265056 2.210286 0.000000 0.000000 0.000000
-0.322439 1.762204 3.262471 0.000000 0.000000 0.000000
-0.321159 1.771642 3.265990 0.000000 0.000000 0.000000
0.130576 1.641019 2.870108 0.000000 0.000000 0.000000
-0.351859 1.776548 3.264160 0.000000 0.000000 0.000000
0.677132 1.234590 2.192893 0.000000 0.000000 0.000000
0.680561 1.236691 2.197361 0.000000 0.000000 0.000000
0.640779 1.255556 2.201672 0.000000 0.000000 0.000000
0.702684 1.215708 2.183516 0.000000 0.000000 0.000000
0.123413 1.661160 2.860762 0.000000 0.000000 0.000000
0.685210 1.226193 2.186645 0.000000 0.000000 0.000000
-0.353283 1.769941 3.257953 0.000000 0.000000 0.000000
0.129825 1.657694 2.859642 0.000000 0.000000 0.000000
-0.349353 1.781608 3.268764 0.000000 0.000000 0.000000
0.135585 1.659522 2.848045 0.000000 0.000000 0.000000
0.710310 1.214860 2.182283 0.000000 0.000000 0.000000
0.710863 1.216615 2.189012 0.000000 0.000000 0.000000
0.120994 1.665329 2.848739 0.000000 0.000000 0.000000
0.120967 1.641803 2.871155 0.000000 0.000000 0.000000
0.708888 1.214531 2.181544 0.000000 0.000000 0.000000
0.657619 1.246697 2.198124 0.000000 0.000000 0.000000
0.629563 1.261660 2.205429 0.000000 0.000000 0.000000
0.677620 1.233190 2.195192 0.000000 0.000000 0.000000
0.138422 1.628697 2.850327 0.000000 0.000000 0.000000
-0.352768 1.777488 3.264328 0.000000 0.000000 0.000000
0.679566 1.231476 2.191362 0.000000 0.000000 0.000000
0.634945 1.255723 2.202137 0.000000 0.000000 0.000000
0.694814 1.214408 2.180584 0.000000 0.000000 0.000000
0.135395 1.630174 2.843544 0.000000 0.000000 0.000000
0.625322 1.260568 2.210458 0.000000 0.000000 0.000000
0.128872 1.636301 2.863469 0.000000 0.000000 0.000000
0.715609 1.202408 2.171356 0.000000 0.000000 0.000000
0.124817 1.648704 2.867498 0.000000 0.000000 0.000000
0.631493 1.251148 2.201365 0.000000 0.000000 0.000000
0.668747 1.237601 2.195067 0.000000 0.000000 0.000000
0.657301 1.243470 2.205261 0.000000 0.000000 0.000000
0.647598 1.242361 2.196562 0.000000 0.000000 0.000000
0.673257 1.241327 2.198974 0.000000 0.000000 0.000000
0.706228 1.223868 2.190228 0.000000 0.000000 0.000000
0.626982 1.263040 2.207939 0.000000 0.000000 0.000000
0.666782 1.236808 2.192866 0.000000 0.000000 0.000000
0.706635 1.219682 2.187304 0.000000 0.000000 0.000000
0.672966 1.233860 2.196028 0.000000 0.000000 0.000000
0.681438 1.227158 2.189576 0.000000 0.000000 0.000000
0.687575 1.223060 2.184072 0.000000 0.000000 0.000000
0.649754 1.244378 2.194432 0.000000 0.000000 0.000000
0.126039 1.661143 2.840064 0.000000 0.000000 0.000000
0.682293 1.235448 2.192980 0.000000 0.000000 0.000000
0.654042 1.244139 2.198614 0.000000 0.000000 0.000000
0.710542 1.213718 2.183782 0.000000 0.000000 0.000000
0.660766 1.247952 2.202341 0.000000 0.000000 0.000000
0.629241 1.264083 2.213650 0.000000 0.000000 0.000000
0.665074 1.244682 2.205025 0.000000 0.000000 0.000000
0.635152 1.254672 2.198305 0.000000 0.000000 0.000000
0.660468 1.244660 2.202348 0.000000 0.000000 0.000000
0.139239 1.668182 2.853870 0.000000 0.000000 0.000000
0.134967 1.659236 2.860973 0.000000 0.000000 0.000000
0.137165 1.658904 2.849464 0.000000 0.000000 0.000000
0.690502 1.232805 2.196956 0.000000 0.000000 0.000000
-0.351123 1.775795 3.263996 0.000000 0.000000 0.000000
0.664439 1.235202 2.190973 0.000000 0.000000 0.000000
0.128890 1.661537 2.850586 0.000000 0.000000 0.000000
0.128945 1.658934 2.844230 0.000000 0.000000 0.000000
0.647972 1.241809 2.197826 0.000000 0.000000 0.000000
0.692494 1.224040 2.187978 0.000000 0.000000 0.000000
0.677665 1.238914 2.196941 0.000000 0.000000 0.000000
0.637382 1.251248 2.195922 0.000000 0.000000 0.000000
0.121806 1.669979 2.851090 0.000000 0.000000 0.000000
-0.328913 1.754874 3.268158 0.000000 0.000000 0.000000
0.120977 1.642986 2.876634 0.000000 0.000000 0.000000
0.643547 1.244776 2.201155 0.000000 0.000000 0.000000
0.135707 1.662486 2.865355 0.000000 0.000000 0.000000
0.669667 1.232179 2.189697 0.000000 0.000000 0.000000
0.701475 1.211865 2.190928 0.000000 0.000000 0.000000
-0.353296 1.776905 3.263779 0.000000 0.000000 0.000000
-0.323300 1.763975 3.266127 0.000000 0.000000 0.000000
0.707889 1.218201 2.185056 0.000000 0.000000 0.000000
0.675710 1.239597 2.203245 0.000000 0.000000 0.000000
0.634242 1.253006 2.204332 0.000000 0.000000 0.000000
0.649039 1.253477 2.200768 0.000000 0.000000 0.000000
0.631068 1.252749 2.203161 0.000000 0.000000 0.000000
0.650159 1.240305 2.195720 0.000000 0.000000 0.000000
0.713731 1.212292 2.180885 0.000000 0.000000 0.000000
0.691941 1.232699 2.194133 0.000000 0.000000 0.000000
0.642592 1.252784 2.206260 0.000000 0.000000 0.000000
0.700624 1.211947 2.179922 0.000000 0.000000 0.000000
0.135714 1.629363 2.847469 0.000000 0.000000 0.000000
0.128517 1.636178 2.854120 0.000000 0.000000 0.000000
0.717282 1.207402 2.166003 0.000000 0.000000 0.000000
0.633569 1.264163 2.216445 0.000000 0.000000 0.000000
0.705416 1.212483 2.169281 0.000000 0.000000 0.000000
0.679549 1.235693 2.195705 0.000000 0.000000 0.000000
0.127760 1.636178 2.864958 0.000000 0.000000 0.000000
0.707288 1.212108 2.178739 0.000000 0.000000 0.000000
0.687546 1.218370 2.183736 0.000000 0.000000 0.000000
0.127074 1.658129 2.846145 0.000000 0.000000 0.000000
0.637387 1.252396 2.197450 0.000000 0.000000 0.000000
0.670439 1.235147 2.191434 0.000000 0.000000 0.000000
0.675455 1.223042 2.194663 0.000000 0.000000 0.000000
0.126111 1.658875 2.843655 0.000000 0.000000 0.000000
0.666533 1.238948 2.196632 0.000000 0.000000 0.000000
0.669033 1.234705 2.196175 0.000000 0.000000 0.000000
0.143391 1.659741 2.845575 0.000000 0.000000 0.000000
0.121928 1.652501 2.856749 0.000000 0.000000 0.000000
0.627772 1.256427 2.199169 0.000000 0.000000 0.000000
0.706254 1.215862 2.183244 0.000000 0.000000 0.000000
0.133101 1.663459 2.866352 0.000000 0.000000 0.000000
0.702580 1.215065 2.181020 0.000000 0.000000 0.000000
0.649446 1.245546 2.191975 0.000000 0.000000 0.000000
0.129786 1.667247 2.877233 0.000000 0.000000 0.000000
-0.326092 1.749232 3.266023 0.000000 0.000000 0.000000
-0.350308 1.776889 3.263875 0.000000 0.000000 0.000000
-0.329176 1.759902 3.278670 0.000000 0.000000 0.000000
-0.326976 1.760270 3.273521 0.000000 0.000000 0.000000
0.652682 1.249826 2.194910 0.000000 0.000000 0.000000
0.141284 1.659196 2.863705 0.000000 0.000000 0.000000
0.718660 1.205070 2.184670 0.000000 0.000000 0.000000
0.640302 1.264184 2.200036 0.000000 0.000000 0.000000
0.616856 1.263295 2.209083 0.000000 0.000000 0.000000
0.135960 1.661259 2.861801 0.000000 0.000000 0.000000
0.139113 1.665408 2.853454 0.000000 0.000000 0.000000
0.134256 1.650535 2.862930 0.000000 0.000000 0.000000
0.137793 1.657284 2.848116 0.000000 0.000000 0.000000
0.711674 1.214592 2.175838 0.000000 0.000000 0.000000
0.136537 1.660851 2.855632 0.000000 0.000000 0.000000
0.643199 1.247488 2.201243 0.000000 0.000000 0.000000
-0.346132 1.772963 3.267322 0.000000 0.000000 0.000000
0.704854 1.205989 2.175732 0.000000 0.000000 0.000000
-0.355892 1.777458 3.263952 0.000000 0.000000 0.000000
0.668862 1.241136 2.198245 0.000000 0.000000 0.000000
0.705670 1.219914 2.180011 0.000000 0.000000 0.000000
0.137421 1.668222 2.851943 0.000000 0.000000 0.000000
0.653424 1.251043 2.208629 0.000000 0.000000 0.000000
0.696815 1.217621 2.184353 0.000000 0.000000 0.000000
0.689071 1.221907 2.184502 0.000000 0.000000 0.000000
0.696061 1.224166 2.188151 0.000000 0.000000 0.000000
0.668646 1.228228 2.188947 0.000000 0.000000 0.000000
0.691619 1.229102 2.183521 0.000000 0.000000 0.000000
0.690190 1.226017 2.187859 0.000000 0.000000 0.000000
0.651826 1.242262 2.190866 0.000000 0.000000 0.000000
0.673798 1.229177 2.186054 0.000000 0.000000 0.000000
0.133344 1.630310 2.851083 0.000000 0.000000 0.000000
0.664092 1.242068 2.195685 0.000000 0.000000 0.000000
0.646454 1.253899 2.202081 0.000000 0.000000 0.000000
0.661473 1.245930 2.195558 0.000000 0.000000 0.000000
0.632242 1.253544 2.198973 0.000000 0.000000 0.000000
0.641861 1.247517 2.196538 0.000000 0.000000 0.000000
0.622376 1.269588 2.218363 0.000000 0.000000 0.000000
0.666328 1.240917 2.192620 0.000000 0.000000 0.000000
0.697992 1.224247 2.193469 0.000000 0.000000 0.000000
0.655153 1.242017 2.197641 0.000000 0.000000 0.000000
0.636384 1.251918 2.195876 0.000000 0.000000 0.000000
0.648175 1.251374 2.203367 0.000000 0.000000 0.000000
0.672639 1.238622 2.190259 0.000000 0.000000 0.000000
0.637978 1.254403 2.200628 0.000000 0.000000 0.000000
0.637480 1.251096 2.196354 0.000000 0.000000 0.000000
0.657578 1.251476 2.201553 0.000000 0.000000 0.000000
0.667589 1.239179 2.189360 0.000000 0.000000 0.000000
0.653116 1.242972 2.202207 0.000000 0.000000 0.000000
0.648960 1.250904 2.193404 0.000000 0.000000 0.000000
0.636846 1.255223 2.204838 0.000000 0.000000 0.000000
0.664014 1.235092 2.194077 0.000000 0.000000 0.000000
0.693643 1.216481 2.182764 0.000000 0.000000 0.000000
-0.352719 1.776510 3.263353 0.000000 0.000000 0.000000
0.648150 1.257859 2.209365 0.000000 0.000000 0.000000
0.123718 1.644457 2.875363 0.000000 0.000000 0.000000
0.657608 1.245339 2.193297 0.000000 0.000000 0.000000
0.704525 1.203922 2.173880 0.000000 0.000000 0.000000
0.706395 1.214548 2.180219 0.000000 0.000000 0.000000
-0.336634 1.768319 3.270265 0.000000 0.000000 0.000000
0.681844 1.224109 2.191237 0.000000 0.000000 0.000000
-0.337959 1.770632 3.272359 0.000000 0.000000 0.000000
0.706853 1.217456 2.186091 0.000000 0.000000 0.000000
0.701548 1.221989 2.181190 0.000000 0.000000 0.000000
-0.353045 1.777337 3.264554 0.000000 0.000000 0.000000
0.713376 1.213931 2.193941 0.000000 0.000000 0.000000
0.129775 1.629489 2.861008 0.000000 0.000000 0.000000
0.679688 1.231859 2.191762 0.000000 0.000000 0.000000
0.653614 1.252811 2.202098 0.000000 0.000000 0.000000
0.650250 1.252556 2.204705 0.000000 0.000000 0.000000
0.632743 1.251241 2.202373 0.000000 0.000000 0.000000
0.697041 1.222175 2.188175 0.000000 0.000000 0.000000
0.633844 1.262181 2.216129 0.000000 0.000000 0.000000
0.650339 1.251633 2.206366 0.000000 0.000000 0.000000
0.686616 1.225394 2.192347 0.000000 0.000000 0.000000
0.658107 1.238065 2.192689 0.000000 0.000000 0.000000
0.690805 1.223933 2.187089 0.000000 0.000000 0.000000
0.646823 1.253881 2.211527 0.000000 0.000000 0.000000
0.654293 1.251231 2.215986 0.000000 0.000000 0.000000
0.121158 1.648899 2.877322 0.000000 0.000000 0.000000
0.701311 1.208577 2.177710 0.000000 0.000000 0.000000
0.688257 1.230639 2.186277 0.000000 0.000000 0.000000
0.661993 1.243297 2.191137 0.000000 0.000000 0.000000
0.680134 1.236938 2.194954 0.000000 0.000000 0.000000
0.706217 1.209220 2.177380 0.000000 0.000000 0.000000
0.624277 1.252369 2.205261 0.000000 0.000000 0.000000
0.615359 1.259463 2.211988 0.000000 0.000000 0.000000
0.608001 1.258765 2.215306 0.000000 0.000000 0.000000
0.611906 1.261093 2.214924 0.000000 0.000000 0.000000
0.130532 1.633234 2.847101 0.000000 0.000000 0.000000
0.132351 1.628611 2.847003 0.000000 0.000000 0.000000
0.132409 1.625432 2.847143 0.000000 0.000000 0.000000
0.133062 1.630147 2.848926 0.000000 0.000000 0.000000
0.683710 1.236669 2.200953 0.000000 0.000000 0.000000
-0.334340 1.766631 3.270466 0.000000 0.000000 0.000000
0.681065 1.232472 2.194649 0.000000 0.000000 0.000000
0.126213 1.664274 2.840760 0.000000 0.000000 0.000000
0.663925 1.244467 2.207613 0.000000 0.000000 0.000000
0.123732 1.669143 2.863124 0.000000 0.000000 0.000000
0.640786 1.254180 2.201647 0.000000 0.000000 0.000000
0.678501 1.239186 2.197635 0.000000 0.000000 0.000000
0.132865 1.659282 2.851916 0.000000 0.000000 0.000000
0.641073 1.248931 2.194076 0.000000 0.000000 0.000000
0.691225 1.225561 2.188986 0.000000 0.000000 0.000000
0.126343 1.668121 2.850854 0.000000 0.000000 0.000000
0.137004 1.668488 2.862300 0.000000 0.000000 0.000000
0.677029 1.234776 2.199505 0.000000 0.000000 0.000000
0.658331 1.246200 2.200231 0.000000 0.000000 0.000000
0.625897 1.251690 2.205276 0.000000 0.000000 0.000000
0.667305 1.242790 2.188914 0.000000 0.000000 0.000000
0.693728 1.220682 2.184145 0.000000 0.000000 0.000000
0.617113 1.267585 2.210339 0.000000 0.000000 0.000000
0.619739 1.266716 2.207301 0.000000 0.000000 0.000000
0.649704 1.251192 2.198554 0.000000 0.000000 0.000000
0.122405 1.674690 2.874432 0.000000 0.000000 0.000000
0.621243 1.268217 2.211923 0.000000 0.000000 0.000000
0.623969 1.256691 2.208326 0.000000 0.000000 0.000000
0.692031 1.220992 2.180915 0.000000 0.000000 0.000000
0.688250 1.225435 2.184183 0.000000 0.000000 0.000000
0.674600 1.238927 2.188977 0.000000 0.000000 0.000000
0.640830 1.259951 2.209733 0.000000 0.000000 0.000000
0.614126 1.267873 2.215349 0.000000 0.000000 0.000000
0.632044 1.252772 2.205668 0.000000 0.000000 0.000000
0.691878 1.224638 2.183504 0.000000 0.000000 0.000000
0.697222 1.215550 2.180124 0.000000 0.000000 0.000000
0.619963 1.260740 2.205653 0.000000 0.000000 0.000000
0.678057 1.238898 2.186296 0.000000 0.000000 0.000000
0.679239 1.234806 2.195107 0.000000 0.000000 0.000000
0.140998 1.659168 2.840384 0.000000 0.000000 0.000000
0.686824 1.228077 2.190156 0.000000 0.000000 0.000000
0.699356 1.224772 2.187103 0.000000 0.000000 0.000000
0.661909 1.239899 2.193263 0.000000 0.000000 0.000000
0.675974 1.241709 2.189241 0.000000 0.000000 0.000000
0.688798 1.227748 2.192098 0.000000 0.000000 0.000000
0.703836 1.218350 2.182384 0.000000 0.000000 0.000000
0.688268 1.236808 2.200970 0.000000 0.000000 0.000000
0.670501 1.235084 2.209638 0.000000 0.000000 0.000000
-0.328388 1.766772 3.270340 0.000000 0.000000 0.000000
0.135168 1.661861 2.851950 0.000000 0.000000 0.000000
0.653179 1.247201 2.196427 0.000000 0.000000 0.000000
0.685988 1.228117 2.185312 0.000000 0.000000 0.000000
0.135072 1.666080 2.846073 0.000000 0.000000 0.000000
0.662659 1.247670 2.202940 0.000000 0.000000 0.000000
0.675831 1.236885 2.192482 0.000000 0.000000 0.000000
0.692818 1.226065 2.184413 0.000000 0.000000 0.000000
0.655714 1.245777 2.213664 0.000000 0.000000 0.000000
-0.325188 1.754594 3.262963 0.000000 0.000000 0.000000
-0.325176 1.752278 3.256517 0.000000 0.000000 0.000000
-0.324174 1.755139 3.257909 0.000000 0.000000 0.000000
-0.330528 1.761319 3.266840 0.000000 0.000000 0.000000
-0.321096 1.755444 3.255471 0.000000 0.000000 0.000000
0.677959 1.224307 2.187004 0.000000 0.000000 0.000000
0.683511 1.233431 2.191721 0.000000 0.000000 0.000000
0.660467 1.247243 2.204582 0.000000 0.000000 0.000000
0.669768 1.244139 2.203209 0.000000 0.000000 0.000000
0.122828 1.679947 2.857516 0.000000 0.000000 0.000000
0.628746 1.255481 2.198210 0.000000 0.000000 0.000000
0.626589 1.257071 2.200926 0.000000 0.000000 0.000000
0.671195 1.238463 2.190748 0.000000 0.000000 0.000000
0.621671 1.256776 2.202285 0.000000 0.000000 0.000000
0.121814 1.644518 2.872603 0.000000 0.000000 0.000000
0.126294 1.634080 2.865061 0.000000 0.000000 0.000000
0.716695 1.197294 2.172894 0.000000 0.000000 0.000000
0.631417 1.249633 2.194679 0.000000 0.000000 0.000000
0.701280 1.207517 2.176530 0.000000 0.000000 0.000000
0.624026 1.255206 2.198642 0.000000 0.000000 0.000000
0.703447 1.205643 2.175538 0.000000 0.000000 0.000000
0.633388 1.252735 2.204030 0.000000 0.000000 0.000000
0.659843 1.234158 2.194341 0.000000 0.000000 0.000000
-0.350303 1.777142 3.263304 0.000000 0.000000 0.000000
0.616665 1.258904 2.213059 0.000000 0.000000 0.000000
0.699578 1.224785 2.180615 0.000000 0.000000 0.000000
0.625190 1.255104 2.209182 0.000000 0.000000 0.000000
0.705714 1.221986 2.178726 0.000000 0.000000 0.000000
0.624987 1.257168 2.202018 0.000000 0.000000 0.000000
0.125325 1.627005 2.858354 0.000000 0.000000 0.000000
0.135348 1.624816 2.849127 0.000000 0.000000 0.000000
0.654245 1.250814 2.193700 0.000000 0.000000 0.000000
0.120803 1.636615 2.869807 0.000000 0.000000 0.000000
0.132072 1.644419 2.877348 0.000000 0.000000 0.000000
0.125426 1.658895 2.842970 0.000000 0.000000 0.000000
0.121373 1.676149 2.863569 0.000000 0.000000 0.000000
0.696725 1.221111 2.200311 0.000000 0.000000 0.000000
-0.321392 1.781884 3.276369 0.000000 0.000000 0.000000
-0.349428 1.772106 3.260859 0.000000 0.000000 0.000000
-0.346366 1.767993 3.262234 0.000000 0.000000 0.000000
0.127210 1.625909 2.850709 0.000000 0.000000 0.000000
0.141516 1.625543 2.850841 0.000000 0.000000 0.000000
0.132351 1.629558 2.851019 0.000000 0.000000 0.000000
0.132217 1.629845 2.848069 0.000000 0.000000 0.000000
0.126359 1.638690 2.860482 0.000000 0.000000 0.000000
0.130831 1.631067 2.852302 0.000000 0.000000 0.000000
0.629153 1.259327 2.201972 0.000000 0.000000 0.000000
0.127001 1.632555 2.858410 0.000000 0.000000 0.000000
0.126917 1.638619 2.852282 0.000000 0.000000 0.000000
0.625521 1.264203 2.201529 0.000000 0.000000 0.000000
0.625881 1.261079 2.199722 0.000000 0.000000 0.000000
0.716054 1.215792 2.186316 0.000000 0.000000 0.000000
0.132463 1.627697 2.848952 0.000000 0.000000 0.000000
0.129771 1.637563 2.877647 0.000000 0.000000 0.000000
0.623419 1.260595 2.204494 0.000000 0.000000 0.000000
0.127748 1.656693 2.853564 0.000000 0.000000 0.000000
0.715643 1.196920 2.172315 0.000000 0.000000 0.000000
0.693065 1.216896 2.181190 0.000000 0.000000 0.000000
0.719248 1.199798 2.170950 0.000000 0.000000 0.000000
0.120264 1.668077 2.853436 0.000000 0.000000 0.000000
0.694658 1.212543 2.180105 0.000000 0.000000 0.000000
0.704901 1.221979 2.191196 0.000000 0.000000 0.000000
0.680770 1.235659 2.188680 0.000000 0.000000 0.000000
0.684980 1.218793 2.183933 0.000000 0.000000 0.000000
0.705526 1.203910 2.174806 0.000000 0.000000 0.000000
0.688555 1.223680 2.175843 0.000000 0.000000 0.000000
0.710731 1.202773 2.173497 0.000000 0.000000 0.000000
0.121468 1.669273 2.844979 0.000000 0.000000 0.000000
0.120162 1.665354 2.853818 0.000000 0.000000 0.000000
0.695491 1.211586 2.180854 0.000000 0.000000 0.000000
0.707986 1.221943 2.196438 0.000000 0.000000 0.000000
0.700490 1.209580 2.178953 0.000000 0.000000 0.000000
0.631095 1.264096 2.217755 0.000000 0.000000 0.000000
0.629396 1.257562 2.223522 0.000000 0.000000 0.000000
0.646744 1.246822 2.217093 0.000000 0.000000 0.000000
0.627859 1.264693 2.217681 0.000000 0.000000 0.000000
0.124634 1.633957 2.871925 0.000000 0.000000 0.000000
0.719497 1.211189 2.178201 0.000000 0.000000 0.000000
0.124982 1.679450 2.849314 0.000000 0.000000 0.000000
0.707965 1.221379 2.174369 0.000000 0.000000 0.000000
0.136817 1.668968 2.849062 0.000000 0.000000 0.000000
0.124933 1.646777 2.867331 0.000000 0.000000 0.000000
0.713802 1.216352 2.170641 0.000000 0.000000 0.000000
0.142460 1.666823 2.840217 0.000000 0.000000 0.000000
0.137866 1.672847 2.851858 0.000000 0.000000 0.000000
0.700653 1.220280 2.188163 0.000000 0.000000 0.000000
0.708158 1.203757 2.174402 0.000000 0.000000 0.000000
0.700049 1.210241 2.184030 0.000000 0.000000 0.000000
0.698256 1.213716 2.186535 0.000000 0.000000 0.000000
0.630226 1.261793 2.201929 0.000000 0.000000 0.000000
0.649137 1.254960 2.210743 0.000000 0.000000 0.000000
0.659494 1.243967 2.210857 0.000000 0.000000 0.000000
0.634363 1.247954 2.203877 0.000000 0.000000 0.000000
0.636325 1.262909 2.211472 0.000000 0.000000 0.000000
0.638614 1.259003 2.212186 0.000000 0.000000 0.000000
0.624120 1.269095 2.219910 0.000000 0.000000 0.000000
0.125992 1.658538 2.865282 0.000000 0.000000 0.000000
0.646996 1.242941 2.196438 0.000000 0.000000 0.000000
0.654636 1.254050 2.207622 0.000000 0.000000 0.000000
0.634836 1.261420 2.209557 0.000000 0.000000 0.000000
0.713697 1.202450 2.170812 0.000000 0.000000 0.000000
0.628003 1.262887 2.208205 0.000000 0.000000 0.000000
0.688799 1.229202 2.207620 0.000000 0.000000 0.000000
0.678039 1.226980 2.201076 0.000000 0.000000 0.000000
0.125963 1.630844 2.855441 0.000000 0.000000 0.000000
0.613659 1.271471 2.222493 0.000000 0.000000 0.000000
0.629431 1.253203 2.204581 0.000000 0.000000 0.000000
0.643499 1.255580 2.208486 0.000000 0.000000 0.000000
0.621048 1.267297 2.214675 0.000000 0.000000 0.000000
0.644956 1.252719 2.195049 0.000000 0.000000 0.000000
0.652150 1.253282 2.206055 0.000000 0.000000 0.000000
0.658060 1.241814 2.184514 0.000000 0.000000 0.000000
0.692301 1.221995 2.183106 0.000000 0.000000 0.000000
0.633790 1.261837 2.206860 0.000000 0.000000 0.000000
0.680864 1.228092 2.197577 0.000000 0.000000 0.000000
0.124580 1.633202 2.860056 0.000000 0.000000 0.000000
0.629331 1.265748 2.219065 0.000000 0.000000 0.000000
0.714380 1.215143 2.188952 0.000000 0.000000 0.000000
0.691290 1.232996 2.197242 0.000000 0.000000 0.000000
0.132251 1.631071 2.856215 0.000000 0.000000 0.000000
0.697550 1.225118 2.188698 0.000000 0.000000 0.000000
0.705438 1.222292 2.190106 0.000000 0.000000 0.000000
0.705188 1.224991 2.191975 0.000000 0.000000 0.000000
0.707773 1.217286 2.182879 0.000000 0.000000 0.000000
0.690759 1.231776 2.196051 0.000000 0.000000 0.000000
0.693894 1.227788 2.193259 0.000000 0.000000 0.000000
0.710506 1.221804 2.189935 0.000000 0.000000 0.000000
0.681445 1.230311 2.188506 0.000000 0.000000 0.000000
0.717776 1.214293 2.186489 0.000000 0.000000 0.000000
-0.323790 1.749353 3.261221 0.000000 0.000000 0.000000
-0.324356 1.740525 3.261377 0.000000 0.000000 0.000000
-0.330431 1.751109 3.263022 0.000000 0.000000 0.000000
-0.355823 1.772209 3.255983 0.000000 0.000000 0.000000
-0.321396 1.751665 3.259019 0.000000 0.000000 0.000000
-0.323557 1.746076 3.260021 0.000000 0.000000 0.000000
0.122937 1.656892 2.848837 0.000000 0.000000 0.000000
0.121661 1.659069 2.853937 0.000000 0.000000 0.000000
-0.353178 1.774157 3.260954 0.000000 0.000000 0.000000
0.137763 1.629349 2.851481 0.000000 0.000000 0.000000
0.127879 1.632428 2.858285 0.000000 0.000000 0.000000
0.142390 1.655031 2.842731 0.000000 0.000000 0.000000
0.120959 1.641072 2.848394 0.000000 0.000000 0.000000
0.133065 1.645388 2.843854 0.000000 0.000000 0.000000
0.135853 1.651382 2.856984 0.000000 0.000000 0.000000
0.131903 1.646392 2.840387 0.000000 0.000000 0.000000
0.715735 1.213576 2.198987 0.000000 0.000000 0.000000
0.140343 1.647911 2.843466 0.000000 0.000000 0.000000
0.689658 1.227564 2.182178 0.000000 0.000000 0.000000
0.134178 1.630301 2.851138 0.000000 0.000000 0.000000
0.128257 1.633225 2.858366 0.000000 0.000000 0.000000
0.135133 1.646202 2.856365 0.000000 0.000000 0.000000
0.688298 1.232765 2.183578 0.000000 0.000000 0.000000
0.127226 1.671896 2.872302 0.000000 0.000000 0.000000
0.121104 1.676183 2.867138 0.000000 0.000000 0.000000
0.693573 1.226546 2.188514 0.000000 0.000000 0.000000
0.138154 1.644578 2.849268 0.000000 0.000000 0.000000
0.125051 1.672808 2.866064 0.000000 0.000000 0.000000
0.695159 1.227926 2.182244 0.000000 0.000000 0.000000
-0.354033 1.773186 3.260758 0.000000 0.000000 0.000000
0.626065 1.258609 2.203355 0.000000 0.000000 0.000000
0.628192 1.255030 2.199544 0.000000 0.000000 0.000000
0.619281 1.260961 2.207753 0.000000 0.000000 0.000000
0.624364 1.265772 2.211239 0.000000 0.000000 0.000000
0.124695 1.671409 2.855801 0.000000 0.000000 0.000000
0.620766 1.266715 2.206322 0.000000 0.000000 0.000000
0.124364 1.672687 2.859577 0.000000 0.000000 0.000000
-0.356951 1.774351 3.259375 0.000000 0.000000 0.000000
0.624242 1.260538 2.204533 0.000000 0.000000 0.000000
0.145605 1.671973 2.842528 0.000000 0.000000 0.000000
0.715505 1.202034 2.238931 0.000000 0.000000 0.000000
0.637168 1.243101 2.202218 0.000000 0.000000 0.000000
0.642628 1.242447 2.200308 0.000000 0.000000 0.000000
-0.352152 1.773062 3.261991 0.000000 0.000000 0.000000
0.141436 1.666518 2.840974 0.000000 0.000000 0.000000
0.141781 1.674930 2.840171 0.000000 0.000000 0.000000
0.662538 1.231577 2.192847 0.000000 0.000000 0.000000
0.144472 1.672431 2.842884 0.000000 0.000000 0.000000
0.668926 1.227829 2.189584 0.000000 0.000000 0.000000
-0.354229 1.774744 3.261706 0.000000 0.000000 0.000000
0.613087 1.265858 2.217477 0.000000 0.000000 0.000000
0.711174 1.216976 2.175028 0.000000 0.000000 0.000000
0.622423 1.258919 2.212998 0.000000 0.000000 0.000000
0.669879 1.223794 2.190416 0.000000 0.000000 0.000000
0.620845 1.255418 2.220886 0.000000 0.000000 0.000000
0.657432 1.236614 2.196874 0.000000 0.000000 0.000000
0.624174 1.253587 2.214263 0.000000 0.000000 0.000000
-0.358381 1.778346 3.260310 0.000000 0.000000 0.000000
0.129295 1.653540 2.879200 0.000000 0.000000 0.000000
0.643002 1.248969 2.203585 0.000000 0.000000 0.000000
0.715031 1.212346 2.179936 0.000000 0.000000 0.000000
0.638803 1.245331 2.207591 0.000000 0.000000 0.000000
0.133436 1.648600 2.878487 0.000000 0.000000 0.000000
-0.350218 1.775033 3.263412 0.000000 0.000000 0.000000
0.621221 1.263147 2.204074 0.000000 0.000000 0.000000
0.622385 1.262307 2.202408 0.000000 0.000000 0.000000
0.627087 1.266058 2.205700 0.000000 0.000000 0.000000
0.132588 1.673972 2.857738 0.000000 0.000000 0.000000
0.609159 1.267123 2.203062 0.000000 0.000000 0.000000
0.601699 1.274827 2.206482 0.000000 0.000000 0.000000
0.605414 1.273105 2.204307 0.000000 0.000000 0.000000
0.601675 1.275450 2.204917 0.000000 0.000000 0.000000
0.600753 1.270357 2.208136 0.000000 0.000000 0.000000
0.605843 1.279193 2.202866 0.000000 0.000000 0.000000
0.603314 1.274832 2.203728 0.000000 0.000000 0.000000
0.610373 1.277136 2.199956 0.000000 0.000000 0.000000
0.601686 1.269170 2.210372 0.000000 0.000000 0.000000
0.609253 1.278097 2.201244 0.000000 0.000000 0.000000
0.607833 1.279030 2.204267 0.000000 0.000000 0.000000
0.602796 1.273539 2.211346 0.000000 0.000000 0.000000
0.610091 1.273814 2.211175 0.000000 0.000000 0.000000
0.606307 1.266583 2.216766 0.000000 0.000000 0.000000
0.601642 1.276536 2.225462 0.000000 0.000000 0.000000
0.608326 1.274525 2.213601 0.000000 0.000000 0.000000
0.606121 1.270465 2.219682 0.000000 0.000000 0.000000
0.608120 1.266481 2.208817 0.000000 0.000000 0.000000
0.602216 1.265017 2.215893 0.000000 0.000000 0.000000
0.609234 1.270964 2.222041 0.000000 0.000000 0.000000
0.609734 1.275052 2.217851 0.000000 0.000000 0.000000
0.609285 1.269246 2.204622 0.000000 0.000000 0.000000
