ply
format ascii 1.0
comment VCGLIB generated
obj_info Generated by SPFormer!
element vertex 791
property float x
property float y
property float z
property float nx
property float ny
property float nz
end_header
0.371572 1.454239 2.599115 0.000000 0.000000 0.000000
0.366757 1.470542 2.602010 0.000000 0.000000 0.000000
0.123461 1.661571 2.896161 0.000000 0.000000 0.000000
0.134423 1.655347 2.880141 0.000000 0.000000 0.000000
0.129524 1.650394 2.884947 0.000000 0.000000 0.000000
0.137039 1.646280 2.885415 0.000000 0.000000 0.000000
0.134972 1.649117 2.885493 0.000000 0.000000 0.000000
0.147843 1.649723 2.890141 0.000000 0.000000 0.000000
0.377164 1.456826 2.610331 0.000000 0.000000 0.000000
0.400058 1.435279 2.634234 0.000000 0.000000 0.000000
0.131624 1.654849 2.895167 0.000000 0.000000 0.000000
0.140304 1.650821 2.890429 0.000000 0.000000 0.000000
0.128144 1.651952 2.892043 0.000000 0.000000 0.000000
-0.288522 1.787263 3.336730 0.000000 0.000000 0.000000
0.145196 1.650029 2.887727 0.000000 0.000000 0.000000
-0.289221 1.786788 3.323890 0.000000 0.000000 0.000000
-0.277147 1.805738 3.358570 0.000000 0.000000 0.000000
-0.284371 1.776954 3.332911 0.000000 0.000000 0.000000
-0.261624 1.807364 3.372272 0.000000 0.000000 0.000000
-0.246897 1.812459 3.374062 0.000000 0.000000 0.000000
-0.291942 1.799878 3.343913 0.000000 0.000000 0.000000
-0.261575 1.819001 3.380251 0.000000 0.000000 0.000000
-0.228484 1.812721 3.398391 0.000000 0.000000 0.000000
-0.306899 1.806706 3.326015 0.000000 0.000000 0.000000
-0.304875 1.795995 3.323357 0.000000 0.000000 0.000000
-0.210456 1.829778 3.393583 0.000000 0.000000 0.000000
-0.211499 1.831427 3.405016 0.000000 0.000000 0.000000
-0.273881 1.802184 3.347430 0.000000 0.000000 0.000000
-0.229016 1.834314 3.403150 0.000000 0.000000 0.000000
-0.241386 1.827601 3.398430 0.000000 0.000000 0.000000
-0.216726 1.824122 3.398747 0.000000 0.000000 0.000000
-0.296954 1.801072 3.355616 0.000000 0.000000 0.000000
-0.245525 1.812332 3.377742 0.000000 0.000000 0.000000
-0.203293 1.837745 3.402696 0.000000 0.000000 0.000000
-0.239515 1.811613 3.378801 0.000000 0.000000 0.000000
0.146052 1.654355 2.893035 0.000000 0.000000 0.000000
-0.240527 1.812849 3.371940 0.000000 0.000000 0.000000
-0.200836 1.825992 3.412997 0.000000 0.000000 0.000000
-0.217197 1.839700 3.404574 0.000000 0.000000 0.000000
-0.195113 1.832507 3.410175 0.000000 0.000000 0.000000
-0.203906 1.827053 3.419800 0.000000 0.000000 0.000000
-0.229023 1.816573 3.379389 0.000000 0.000000 0.000000
-0.245089 1.809190 3.381003 0.000000 0.000000 0.000000
-0.298541 1.800317 3.325725 0.000000 0.000000 0.000000
-0.232758 1.814673 3.399940 0.000000 0.000000 0.000000
-0.308766 1.792654 3.331573 0.000000 0.000000 0.000000
-0.206787 1.832320 3.397050 0.000000 0.000000 0.000000
-0.207806 1.831400 3.402980 0.000000 0.000000 0.000000
-0.215811 1.812235 3.391193 0.000000 0.000000 0.000000
-0.218697 1.813003 3.405807 0.000000 0.000000 0.000000
-0.204507 1.828124 3.407507 0.000000 0.000000 0.000000
-0.249802 1.822461 3.406012 0.000000 0.000000 0.000000
-0.240189 1.811850 3.389981 0.000000 0.000000 0.000000
-0.218273 1.830511 3.415802 0.000000 0.000000 0.000000
-0.233644 1.822786 3.413296 0.000000 0.000000 0.000000
-0.209387 1.826557 3.404530 0.000000 0.000000 0.000000
-0.240618 1.832644 3.380413 0.000000 0.000000 0.000000
-0.280876 1.819425 3.359084 0.000000 0.000000 0.000000
-0.257238 1.807586 3.374730 0.000000 0.000000 0.000000
-0.211294 1.814080 3.407691 0.000000 0.000000 0.000000
-0.261119 1.822978 3.389627 0.000000 0.000000 0.000000
0.123671 1.655824 2.893941 0.000000 0.000000 0.000000
0.142104 1.646711 2.884940 0.000000 0.000000 0.000000
-0.280881 1.793126 3.338292 0.000000 0.000000 0.000000
-0.223523 1.831019 3.392176 0.000000 0.000000 0.000000
-0.191091 1.837107 3.413574 0.000000 0.000000 0.000000
-0.259613 1.811656 3.367706 0.000000 0.000000 0.000000
0.402015 1.425270 2.630972 0.000000 0.000000 0.000000
-0.294665 1.802664 3.326256 0.000000 0.000000 0.000000
-0.288198 1.788595 3.348764 0.000000 0.000000 0.000000
-0.263116 1.803533 3.379989 0.000000 0.000000 0.000000
-0.276249 1.802453 3.355231 0.000000 0.000000 0.000000
-0.275910 1.812048 3.344630 0.000000 0.000000 0.000000
-0.191144 1.836056 3.409333 0.000000 0.000000 0.000000
-0.223379 1.832833 3.397393 0.000000 0.000000 0.000000
-0.286033 1.786698 3.330206 0.000000 0.000000 0.000000
0.387079 1.446279 2.616162 0.000000 0.000000 0.000000
0.394912 1.437100 2.629719 0.000000 0.000000 0.000000
-0.296339 1.801019 3.322566 0.000000 0.000000 0.000000
-0.294120 1.787996 3.325185 0.000000 0.000000 0.000000
-0.262707 1.815035 3.361307 0.000000 0.000000 0.000000
-0.234387 1.820323 3.401915 0.000000 0.000000 0.000000
-0.270429 1.807574 3.387021 0.000000 0.000000 0.000000
-0.252575 1.807362 3.372473 0.000000 0.000000 0.000000
-0.248233 1.821159 3.383741 0.000000 0.000000 0.000000
-0.263699 1.810950 3.373308 0.000000 0.000000 0.000000
-0.230509 1.812293 3.418127 0.000000 0.000000 0.000000
-0.279264 1.824949 3.365993 0.000000 0.000000 0.000000
0.366161 1.489705 2.603463 0.000000 0.000000 0.000000
-0.277206 1.800465 3.325764 0.000000 0.000000 0.000000
0.124905 1.653032 2.886168 0.000000 0.000000 0.000000
-0.247277 1.808931 3.408680 0.000000 0.000000 0.000000
-0.257439 1.822304 3.396915 0.000000 0.000000 0.000000
0.404417 1.438626 2.639298 0.000000 0.000000 0.000000
0.398484 1.438603 2.629434 0.000000 0.000000 0.000000
-0.285180 1.785521 3.322668 0.000000 0.000000 0.000000
-0.281991 1.788969 3.341725 0.000000 0.000000 0.000000
0.405616 1.428363 2.639333 0.000000 0.000000 0.000000
-0.278791 1.790452 3.332143 0.000000 0.000000 0.000000
-0.225572 1.820682 3.423939 0.000000 0.000000 0.000000
0.380724 1.461623 2.616061 0.000000 0.000000 0.000000
0.366699 1.445370 2.613711 0.000000 0.000000 0.000000
0.380408 1.463663 2.621766 0.000000 0.000000 0.000000
-0.273822 1.786820 3.329245 0.000000 0.000000 0.000000
0.383560 1.442242 2.607691 0.000000 0.000000 0.000000
0.129552 1.664802 2.883834 0.000000 0.000000 0.000000
-0.266853 1.801259 3.355413 0.000000 0.000000 0.000000
-0.281479 1.812838 3.349801 0.000000 0.000000 0.000000
-0.192712 1.825572 3.405209 0.000000 0.000000 0.000000
-0.228724 1.810559 3.407640 0.000000 0.000000 0.000000
-0.244074 1.812946 3.376689 0.000000 0.000000 0.000000
0.376777 1.456937 2.606830 0.000000 0.000000 0.000000
0.349733 1.479043 2.580342 0.000000 0.000000 0.000000
0.123027 1.668827 2.884547 0.000000 0.000000 0.000000
-0.230008 1.811822 3.407474 0.000000 0.000000 0.000000
-0.284615 1.810290 3.329473 0.000000 0.000000 0.000000
0.374116 1.460596 2.608154 0.000000 0.000000 0.000000
0.129473 1.644161 2.882445 0.000000 0.000000 0.000000
0.125177 1.675922 2.900252 0.000000 0.000000 0.000000
-0.209925 1.814075 3.403436 0.000000 0.000000 0.000000
0.403037 1.439283 2.636441 0.000000 0.000000 0.000000
0.385300 1.443109 2.611819 0.000000 0.000000 0.000000
0.373888 1.463199 2.608647 0.000000 0.000000 0.000000
-0.275074 1.789508 3.344522 0.000000 0.000000 0.000000
-0.216313 1.826672 3.422895 0.000000 0.000000 0.000000
-0.218717 1.827359 3.408465 0.000000 0.000000 0.000000
0.124794 1.653940 2.899347 0.000000 0.000000 0.000000
0.129233 1.640609 2.893991 0.000000 0.000000 0.000000
0.147820 1.648369 2.889250 0.000000 0.000000 0.000000
-0.243566 1.800213 3.396685 0.000000 0.000000 0.000000
-0.230713 1.813035 3.419096 0.000000 0.000000 0.000000
-0.199936 1.828796 3.415256 0.000000 0.000000 0.000000
0.386503 1.460290 2.610869 0.000000 0.000000 0.000000
-0.205517 1.830165 3.399873 0.000000 0.000000 0.000000
0.378528 1.468999 2.623585 0.000000 0.000000 0.000000
0.375998 1.458627 2.611290 0.000000 0.000000 0.000000
0.396237 1.456178 2.640626 0.000000 0.000000 0.000000
0.396165 1.434459 2.622617 0.000000 0.000000 0.000000
-0.244317 1.806708 3.374080 0.000000 0.000000 0.000000
-0.227488 1.812481 3.416256 0.000000 0.000000 0.000000
0.376133 1.456139 2.606647 0.000000 0.000000 0.000000
0.390162 1.435201 2.622686 0.000000 0.000000 0.000000
-0.230302 1.813058 3.398592 0.000000 0.000000 0.000000
-0.272333 1.811694 3.334266 0.000000 0.000000 0.000000
0.128350 1.654634 2.896807 0.000000 0.000000 0.000000
0.360347 1.470035 2.592150 0.000000 0.000000 0.000000
0.127125 1.645742 2.882912 0.000000 0.000000 0.000000
0.366448 1.471216 2.607290 0.000000 0.000000 0.000000
-0.203072 1.827447 3.414970 0.000000 0.000000 0.000000
0.360671 1.476066 2.602160 0.000000 0.000000 0.000000
0.127970 1.660691 2.904936 0.000000 0.000000 0.000000
0.403099 1.422326 2.633877 0.000000 0.000000 0.000000
0.369536 1.476695 2.610109 0.000000 0.000000 0.000000
-0.230547 1.809422 3.375979 0.000000 0.000000 0.000000
0.364754 1.481922 2.609989 0.000000 0.000000 0.000000
0.359905 1.488668 2.601642 0.000000 0.000000 0.000000
-0.220618 1.815530 3.408651 0.000000 0.000000 0.000000
-0.231934 1.813885 3.398004 0.000000 0.000000 0.000000
0.363741 1.463224 2.596564 0.000000 0.000000 0.000000
0.377040 1.465365 2.623633 0.000000 0.000000 0.000000
0.371537 1.457101 2.599095 0.000000 0.000000 0.000000
0.359983 1.474549 2.597531 0.000000 0.000000 0.000000
-0.260382 1.808888 3.333485 0.000000 0.000000 0.000000
0.153619 1.649796 2.895097 0.000000 0.000000 0.000000
-0.257112 1.815188 3.345754 0.000000 0.000000 0.000000
-0.207764 1.824675 3.413469 0.000000 0.000000 0.000000
0.388787 1.467700 2.635845 0.000000 0.000000 0.000000
0.386492 1.463281 2.628637 0.000000 0.000000 0.000000
-0.234469 1.810225 3.387951 0.000000 0.000000 0.000000
0.377347 1.472674 2.617867 0.000000 0.000000 0.000000
0.381330 1.472743 2.624156 0.000000 0.000000 0.000000
-0.215826 1.833481 3.405180 0.000000 0.000000 0.000000
-0.212886 1.827429 3.393160 0.000000 0.000000 0.000000
-0.289288 1.804524 3.341527 0.000000 0.000000 0.000000
-0.247089 1.809953 3.378808 0.000000 0.000000 0.000000
-0.260634 1.820299 3.333957 0.000000 0.000000 0.000000
0.143057 1.651369 2.892271 0.000000 0.000000 0.000000
0.122756 1.670717 2.911786 0.000000 0.000000 0.000000
0.132521 1.657929 2.902045 0.000000 0.000000 0.000000
0.125552 1.667591 2.916845 0.000000 0.000000 0.000000
0.122344 1.645296 2.890479 0.000000 0.000000 0.000000
0.132016 1.658305 2.889277 0.000000 0.000000 0.000000
0.383208 1.467252 2.623037 0.000000 0.000000 0.000000
0.126932 1.667733 2.918717 0.000000 0.000000 0.000000
0.380277 1.469370 2.630265 0.000000 0.000000 0.000000
0.401671 1.439346 2.628189 0.000000 0.000000 0.000000
0.381505 1.471813 2.626645 0.000000 0.000000 0.000000
0.126478 1.661246 2.907550 0.000000 0.000000 0.000000
0.151251 1.649024 2.892200 0.000000 0.000000 0.000000
0.140637 1.650218 2.886967 0.000000 0.000000 0.000000
-0.284380 1.803736 3.371170 0.000000 0.000000 0.000000
0.360195 1.485729 2.597868 0.000000 0.000000 0.000000
0.363923 1.477029 2.601430 0.000000 0.000000 0.000000
0.362890 1.480474 2.604248 0.000000 0.000000 0.000000
0.361447 1.489133 2.598474 0.000000 0.000000 0.000000
0.377387 1.453064 2.603918 0.000000 0.000000 0.000000
-0.268327 1.803563 3.361931 0.000000 0.000000 0.000000
0.366848 1.482749 2.616008 0.000000 0.000000 0.000000
-0.237226 1.818418 3.367849 0.000000 0.000000 0.000000
0.364031 1.470619 2.595829 0.000000 0.000000 0.000000
0.359812 1.474697 2.590290 0.000000 0.000000 0.000000
0.406142 1.429237 2.634469 0.000000 0.000000 0.000000
-0.281033 1.782346 3.320361 0.000000 0.000000 0.000000
0.381531 1.452105 2.615964 0.000000 0.000000 0.000000
0.393455 1.460974 2.637605 0.000000 0.000000 0.000000
0.402914 1.432598 2.633837 0.000000 0.000000 0.000000
0.132399 1.655035 2.899756 0.000000 0.000000 0.000000
0.402325 1.424579 2.621316 0.000000 0.000000 0.000000
0.378745 1.438929 2.611781 0.000000 0.000000 0.000000
-0.225990 1.834704 3.403691 0.000000 0.000000 0.000000
-0.197543 1.832111 3.402239 0.000000 0.000000 0.000000
0.129939 1.661897 2.907573 0.000000 0.000000 0.000000
-0.277175 1.806059 3.368248 0.000000 0.000000 0.000000
0.362928 1.478561 2.610548 0.000000 0.000000 0.000000
0.377034 1.462282 2.622155 0.000000 0.000000 0.000000
-0.226638 1.815305 3.365798 0.000000 0.000000 0.000000
0.383812 1.441158 2.614887 0.000000 0.000000 0.000000
0.395718 1.444976 2.635531 0.000000 0.000000 0.000000
0.389187 1.446164 2.623536 0.000000 0.000000 0.000000
-0.274369 1.813380 3.366847 0.000000 0.000000 0.000000
0.368920 1.466221 2.604918 0.000000 0.000000 0.000000
-0.262169 1.816271 3.350027 0.000000 0.000000 0.000000
-0.270418 1.807699 3.369096 0.000000 0.000000 0.000000
0.372907 1.468427 2.613908 0.000000 0.000000 0.000000
0.373446 1.464972 2.611503 0.000000 0.000000 0.000000
0.359811 1.473805 2.599254 0.000000 0.000000 0.000000
-0.239773 1.810277 3.370745 0.000000 0.000000 0.000000
0.391379 1.449985 2.626895 0.000000 0.000000 0.000000
0.385572 1.443134 2.619242 0.000000 0.000000 0.000000
0.398304 1.423627 2.627163 0.000000 0.000000 0.000000
0.361393 1.487834 2.599211 0.000000 0.000000 0.000000
-0.283869 1.805532 3.366674 0.000000 0.000000 0.000000
0.354813 1.493789 2.603242 0.000000 0.000000 0.000000
0.363266 1.467816 2.591847 0.000000 0.000000 0.000000
0.128478 1.656348 2.904157 0.000000 0.000000 0.000000
-0.237123 1.813944 3.413745 0.000000 0.000000 0.000000
0.401979 1.449728 2.642256 0.000000 0.000000 0.000000
-0.287596 1.802033 3.325695 0.000000 0.000000 0.000000
0.130395 1.665996 2.908884 0.000000 0.000000 0.000000
-0.267492 1.816868 3.353531 0.000000 0.000000 0.000000
0.147942 1.648000 2.891362 0.000000 0.000000 0.000000
0.134825 1.663440 2.902472 0.000000 0.000000 0.000000
0.385214 1.470008 2.629195 0.000000 0.000000 0.000000
0.370372 1.451555 2.593526 0.000000 0.000000 0.000000
0.130697 1.669067 2.920757 0.000000 0.000000 0.000000
0.371334 1.454471 2.598549 0.000000 0.000000 0.000000
0.405831 1.423511 2.630797 0.000000 0.000000 0.000000
0.394208 1.451571 2.636981 0.000000 0.000000 0.000000
-0.270282 1.799882 3.350576 0.000000 0.000000 0.000000
0.406511 1.429625 2.637374 0.000000 0.000000 0.000000
0.396946 1.459826 2.639711 0.000000 0.000000 0.000000
0.375055 1.455326 2.604506 0.000000 0.000000 0.000000
0.135822 1.656533 2.886863 0.000000 0.000000 0.000000
-0.371433 1.809901 3.560009 0.000000 0.000000 0.000000
0.128531 1.668109 2.918619 0.000000 0.000000 0.000000
0.126236 1.657153 2.898857 0.000000 0.000000 0.000000
-0.222947 1.800002 3.400245 0.000000 0.000000 0.000000
-0.215446 1.818787 3.415368 0.000000 0.000000 0.000000
0.390643 1.443892 2.619537 0.000000 0.000000 0.000000
-0.209653 1.820144 3.415104 0.000000 0.000000 0.000000
-0.229213 1.808196 3.406917 0.000000 0.000000 0.000000
-0.211521 1.810052 3.418385 0.000000 0.000000 0.000000
0.360665 1.470145 2.595462 0.000000 0.000000 0.000000
-0.206947 1.831176 3.390172 0.000000 0.000000 0.000000
0.121331 1.673674 2.908319 0.000000 0.000000 0.000000
-0.299002 1.794676 3.337991 0.000000 0.000000 0.000000
0.361886 1.486059 2.611447 0.000000 0.000000 0.000000
-0.297664 1.797704 3.341874 0.000000 0.000000 0.000000
0.375820 1.462716 2.603259 0.000000 0.000000 0.000000
-0.289032 1.797732 3.356600 0.000000 0.000000 0.000000
-0.286322 1.802226 3.375713 0.000000 0.000000 0.000000
-0.229694 1.820294 3.374958 0.000000 0.000000 0.000000
-0.258887 1.804011 3.363218 0.000000 0.000000 0.000000
-0.204149 1.828725 3.413270 0.000000 0.000000 0.000000
-0.261420 1.805342 3.364138 0.000000 0.000000 0.000000
0.365566 1.473473 2.610306 0.000000 0.000000 0.000000
-0.282870 1.819550 3.376561 0.000000 0.000000 0.000000
0.125488 1.671703 2.917630 0.000000 0.000000 0.000000
0.121168 1.647599 2.895358 0.000000 0.000000 0.000000
-0.307360 1.800450 3.330991 0.000000 0.000000 0.000000
-0.216995 1.821219 3.421228 0.000000 0.000000 0.000000
-0.290448 1.815018 3.350400 0.000000 0.000000 0.000000
0.365659 1.483667 2.606358 0.000000 0.000000 0.000000
0.143256 1.651724 2.891941 0.000000 0.000000 0.000000
-0.204041 1.817411 3.399135 0.000000 0.000000 0.000000
-0.224916 1.818307 3.422139 0.000000 0.000000 0.000000
-0.250859 1.807870 3.397270 0.000000 0.000000 0.000000
-0.206296 1.835004 3.418613 0.000000 0.000000 0.000000
0.371272 1.478848 2.609049 0.000000 0.000000 0.000000
0.354069 1.494243 2.600845 0.000000 0.000000 0.000000
-0.288155 1.810033 3.373497 0.000000 0.000000 0.000000
0.417592 1.440918 2.665641 0.000000 0.000000 0.000000
-0.286414 1.816356 3.381415 0.000000 0.000000 0.000000
-0.261637 1.818667 3.404734 0.000000 0.000000 0.000000
0.146649 1.657658 2.896895 0.000000 0.000000 0.000000
-0.234622 1.834794 3.403545 0.000000 0.000000 0.000000
-0.268318 1.786566 3.342599 0.000000 0.000000 0.000000
0.140979 1.645733 2.890579 0.000000 0.000000 0.000000
-0.234774 1.831339 3.385952 0.000000 0.000000 0.000000
-0.232668 1.826925 3.368531 0.000000 0.000000 0.000000
-0.277530 1.780307 3.346147 0.000000 0.000000 0.000000
-0.230938 1.837087 3.387461 0.000000 0.000000 0.000000
0.126080 1.653023 2.902339 0.000000 0.000000 0.000000
0.370403 1.454987 2.598842 0.000000 0.000000 0.000000
0.133381 1.664645 2.893581 0.000000 0.000000 0.000000
-0.270189 1.819187 3.342590 0.000000 0.000000 0.000000
0.365748 1.452605 2.600807 0.000000 0.000000 0.000000
0.127982 1.662973 2.901155 0.000000 0.000000 0.000000
-0.259597 1.812383 3.380033 0.000000 0.000000 0.000000
0.360118 1.474166 2.593123 0.000000 0.000000 0.000000
0.361708 1.464924 2.591664 0.000000 0.000000 0.000000
0.128077 1.662587 2.895177 0.000000 0.000000 0.000000
0.370627 1.454076 2.598356 0.000000 0.000000 0.000000
0.136596 1.642644 2.887889 0.000000 0.000000 0.000000
0.128576 1.658375 2.896386 0.000000 0.000000 0.000000
0.387854 1.439944 2.616008 0.000000 0.000000 0.000000
0.123507 1.639075 2.892303 0.000000 0.000000 0.000000
-0.236532 1.837343 3.386209 0.000000 0.000000 0.000000
-0.261752 1.827563 3.368530 0.000000 0.000000 0.000000
-0.237818 1.822401 3.365729 0.000000 0.000000 0.000000
0.364066 1.469988 2.597346 0.000000 0.000000 0.000000
-0.243272 1.830415 3.368200 0.000000 0.000000 0.000000
0.367490 1.457332 2.599820 0.000000 0.000000 0.000000
-0.240301 1.834639 3.398916 0.000000 0.000000 0.000000
-0.267217 1.815261 3.396940 0.000000 0.000000 0.000000
-0.255084 1.827081 3.396558 0.000000 0.000000 0.000000
-0.307150 1.791666 3.322112 0.000000 0.000000 0.000000
0.386929 1.463807 2.633317 0.000000 0.000000 0.000000
-0.253693 1.810488 3.401254 0.000000 0.000000 0.000000
-0.265589 1.815350 3.338392 0.000000 0.000000 0.000000
-0.269550 1.803802 3.335661 0.000000 0.000000 0.000000
0.407994 1.414161 2.637952 0.000000 0.000000 0.000000
-0.251075 1.817308 3.352074 0.000000 0.000000 0.000000
0.409448 1.423282 2.634925 0.000000 0.000000 0.000000
-0.262830 1.806963 3.337163 0.000000 0.000000 0.000000
-0.261108 1.813609 3.336822 0.000000 0.000000 0.000000
0.142386 1.649865 2.890023 0.000000 0.000000 0.000000
0.123013 1.672565 2.880430 0.000000 0.000000 0.000000
-0.252867 1.818245 3.371132 0.000000 0.000000 0.000000
-0.205676 1.834890 3.412981 0.000000 0.000000 0.000000
-0.241052 1.810311 3.386536 0.000000 0.000000 0.000000
-0.251293 1.812578 3.385902 0.000000 0.000000 0.000000
-0.245537 1.812183 3.377969 0.000000 0.000000 0.000000
-0.248619 1.813542 3.390161 0.000000 0.000000 0.000000
-0.241372 1.813496 3.382967 0.000000 0.000000 0.000000
-0.218230 1.823388 3.388333 0.000000 0.000000 0.000000
-0.245172 1.807204 3.372520 0.000000 0.000000 0.000000
0.425871 1.441899 2.669232 0.000000 0.000000 0.000000
-0.252201 1.806145 3.403865 0.000000 0.000000 0.000000
0.134882 1.652262 2.896422 0.000000 0.000000 0.000000
-0.206200 1.830372 3.408433 0.000000 0.000000 0.000000
0.137591 1.649882 2.889860 0.000000 0.000000 0.000000
0.408529 1.415270 2.637927 0.000000 0.000000 0.000000
0.401373 1.416775 2.631901 0.000000 0.000000 0.000000
0.372693 1.471340 2.633244 0.000000 0.000000 0.000000
0.396927 1.423118 2.631156 0.000000 0.000000 0.000000
-0.296432 1.805286 3.360121 0.000000 0.000000 0.000000
-0.229764 1.809094 3.385714 0.000000 0.000000 0.000000
-0.226545 1.809704 3.415316 0.000000 0.000000 0.000000
0.382421 1.469134 2.629613 0.000000 0.000000 0.000000
0.385215 1.436180 2.618777 0.000000 0.000000 0.000000
-0.216216 1.833607 3.383606 0.000000 0.000000 0.000000
-0.232233 1.822590 3.388633 0.000000 0.000000 0.000000
-0.212076 1.817624 3.382009 0.000000 0.000000 0.000000
-0.223304 1.806130 3.395950 0.000000 0.000000 0.000000
-0.233749 1.810420 3.387965 0.000000 0.000000 0.000000
0.371098 1.481734 2.626580 0.000000 0.000000 0.000000
0.382278 1.467655 2.639711 0.000000 0.000000 0.000000
-0.225016 1.833673 3.377936 0.000000 0.000000 0.000000
-0.250387 1.822815 3.377945 0.000000 0.000000 0.000000
-0.292914 1.798869 3.358822 0.000000 0.000000 0.000000
-0.295488 1.800639 3.356374 0.000000 0.000000 0.000000
0.360658 1.513757 2.578202 0.000000 0.000000 0.000000
0.123780 1.670981 2.895554 0.000000 0.000000 0.000000
0.123542 1.647384 2.880322 0.000000 0.000000 0.000000
-0.236059 1.818406 3.413249 0.000000 0.000000 0.000000
0.120327 1.642406 2.883460 0.000000 0.000000 0.000000
0.422885 1.441681 2.670001 0.000000 0.000000 0.000000
-0.212214 1.818698 3.422446 0.000000 0.000000 0.000000
0.359638 1.475656 2.591072 0.000000 0.000000 0.000000
0.360452 1.489669 2.606984 0.000000 0.000000 0.000000
-0.285553 1.795352 3.330565 0.000000 0.000000 0.000000
0.366169 1.484667 2.618814 0.000000 0.000000 0.000000
-0.271927 1.803626 3.324543 0.000000 0.000000 0.000000
-0.215079 1.820819 3.415226 0.000000 0.000000 0.000000
0.357772 1.466621 2.593767 0.000000 0.000000 0.000000
-0.276638 1.807475 3.322198 0.000000 0.000000 0.000000
-0.253814 1.803145 3.331757 0.000000 0.000000 0.000000
0.409428 1.413824 2.635820 0.000000 0.000000 0.000000
-0.214812 1.828591 3.383236 0.000000 0.000000 0.000000
0.361301 1.464431 2.590288 0.000000 0.000000 0.000000
-0.238062 1.827364 3.386497 0.000000 0.000000 0.000000
0.400812 1.413670 2.633323 0.000000 0.000000 0.000000
0.413374 1.412179 2.631720 0.000000 0.000000 0.000000
-0.225913 1.826711 3.375213 0.000000 0.000000 0.000000
-0.279844 1.804353 3.318537 0.000000 0.000000 0.000000
-0.282825 1.796008 3.322659 0.000000 0.000000 0.000000
-0.279954 1.791949 3.316594 0.000000 0.000000 0.000000
0.378075 1.474113 2.632656 0.000000 0.000000 0.000000
0.374692 1.478317 2.619086 0.000000 0.000000 0.000000
0.365559 1.503904 2.590070 0.000000 0.000000 0.000000
0.379928 1.467801 2.629590 0.000000 0.000000 0.000000
-0.214168 1.834324 3.395098 0.000000 0.000000 0.000000
0.380477 1.475711 2.629185 0.000000 0.000000 0.000000
0.368951 1.507427 2.584642 0.000000 0.000000 0.000000
0.123945 1.653592 2.895932 0.000000 0.000000 0.000000
-0.228642 1.822707 3.370320 0.000000 0.000000 0.000000
0.373554 1.477786 2.627266 0.000000 0.000000 0.000000
0.394394 1.424718 2.623358 0.000000 0.000000 0.000000
0.379571 1.478937 2.631402 0.000000 0.000000 0.000000
-0.233696 1.831145 3.370526 0.000000 0.000000 0.000000
-0.243209 1.819926 3.358240 0.000000 0.000000 0.000000
-0.247501 1.817463 3.354213 0.000000 0.000000 0.000000
-0.243955 1.821610 3.371104 0.000000 0.000000 0.000000
-0.255485 1.817222 3.345664 0.000000 0.000000 0.000000
-0.259266 1.797995 3.334719 0.000000 0.000000 0.000000
-0.264671 1.808742 3.331518 0.000000 0.000000 0.000000
-0.255668 1.813210 3.344169 0.000000 0.000000 0.000000
-0.245087 1.818496 3.360520 0.000000 0.000000 0.000000
-0.251496 1.823940 3.367010 0.000000 0.000000 0.000000
-0.250801 1.822097 3.353929 0.000000 0.000000 0.000000
-0.216144 1.830807 3.385992 0.000000 0.000000 0.000000
-0.235810 1.825081 3.368292 0.000000 0.000000 0.000000
0.123187 1.675860 2.887059 0.000000 0.000000 0.000000
0.393961 1.424990 2.624983 0.000000 0.000000 0.000000
-0.258807 1.819704 3.348605 0.000000 0.000000 0.000000
-0.266430 1.812051 3.390033 0.000000 0.000000 0.000000
0.128056 1.674373 2.891817 0.000000 0.000000 0.000000
-0.272005 1.806781 3.381750 0.000000 0.000000 0.000000
-0.275043 1.811714 3.386206 0.000000 0.000000 0.000000
0.147629 1.652185 2.895120 0.000000 0.000000 0.000000
0.123656 1.669929 2.915444 0.000000 0.000000 0.000000
0.122914 1.667278 2.919189 0.000000 0.000000 0.000000
0.144175 1.650571 2.901217 0.000000 0.000000 0.000000
0.395180 1.452945 2.630658 0.000000 0.000000 0.000000
0.369581 1.481627 2.621154 0.000000 0.000000 0.000000
0.401810 1.454689 2.647290 0.000000 0.000000 0.000000
0.130286 1.647614 2.898525 0.000000 0.000000 0.000000
0.391945 1.459364 2.633051 0.000000 0.000000 0.000000
0.409736 1.447466 2.658169 0.000000 0.000000 0.000000
-0.310285 1.801332 3.349362 0.000000 0.000000 0.000000
0.401443 1.446821 2.638427 0.000000 0.000000 0.000000
0.136740 1.660119 2.894230 0.000000 0.000000 0.000000
0.372395 1.482332 2.627411 0.000000 0.000000 0.000000
0.389294 1.463513 2.638325 0.000000 0.000000 0.000000
-0.243551 1.804415 3.399557 0.000000 0.000000 0.000000
-0.278708 1.807078 3.314977 0.000000 0.000000 0.000000
-0.275821 1.795289 3.313261 0.000000 0.000000 0.000000
-0.278774 1.794783 3.309337 0.000000 0.000000 0.000000
-0.197888 1.832025 3.416192 0.000000 0.000000 0.000000
-0.263598 1.801327 3.326041 0.000000 0.000000 0.000000
-0.264145 1.812262 3.331261 0.000000 0.000000 0.000000
-0.248411 1.816171 3.411267 0.000000 0.000000 0.000000
-0.269324 1.802700 3.316896 0.000000 0.000000 0.000000
-0.277844 1.810853 3.329355 0.000000 0.000000 0.000000
0.151287 1.647404 2.887812 0.000000 0.000000 0.000000
-0.206418 1.828137 3.401941 0.000000 0.000000 0.000000
0.151328 1.646269 2.888062 0.000000 0.000000 0.000000
0.366729 1.481465 2.612360 0.000000 0.000000 0.000000
0.369483 1.483747 2.609751 0.000000 0.000000 0.000000
0.364309 1.486511 2.608203 0.000000 0.000000 0.000000
0.364032 1.484387 2.619793 0.000000 0.000000 0.000000
0.146629 1.651762 2.891512 0.000000 0.000000 0.000000
0.363382 1.476215 2.625002 0.000000 0.000000 0.000000
0.371554 1.447019 2.604743 0.000000 0.000000 0.000000
0.361537 1.487658 2.603484 0.000000 0.000000 0.000000
0.395830 1.464713 2.652693 0.000000 0.000000 0.000000
0.401937 1.453536 2.645340 0.000000 0.000000 0.000000
-0.202159 1.836491 3.406570 0.000000 0.000000 0.000000
0.363075 1.456483 2.586250 0.000000 0.000000 0.000000
-0.209454 1.829870 3.392808 0.000000 0.000000 0.000000
0.372226 1.458918 2.598910 0.000000 0.000000 0.000000
-0.264911 1.804082 3.396315 0.000000 0.000000 0.000000
0.358119 1.464481 2.584606 0.000000 0.000000 0.000000
-0.224868 1.850606 3.392311 0.000000 0.000000 0.000000
0.414398 1.410909 2.636106 0.000000 0.000000 0.000000
0.358670 1.450913 2.608349 0.000000 0.000000 0.000000
-0.199916 1.834453 3.399530 0.000000 0.000000 0.000000
-0.235185 1.845267 3.408211 0.000000 0.000000 0.000000
-0.234694 1.825941 3.423453 0.000000 0.000000 0.000000
-0.239538 1.827416 3.409630 0.000000 0.000000 0.000000
0.398414 1.415115 2.642267 0.000000 0.000000 0.000000
-0.267957 1.801112 3.387441 0.000000 0.000000 0.000000
0.356230 1.471365 2.581981 0.000000 0.000000 0.000000
-0.233157 1.842253 3.400485 0.000000 0.000000 0.000000
0.396907 1.421113 2.628014 0.000000 0.000000 0.000000
-0.281502 1.798035 3.323350 0.000000 0.000000 0.000000
0.380893 1.474744 2.634485 0.000000 0.000000 0.000000
0.126799 1.669830 2.915592 0.000000 0.000000 0.000000
0.120796 1.675145 2.925608 0.000000 0.000000 0.000000
0.127632 1.677662 2.914029 0.000000 0.000000 0.000000
0.414285 1.403371 2.639332 0.000000 0.000000 0.000000
0.123955 1.668748 2.913181 0.000000 0.000000 0.000000
0.388486 1.471012 2.638645 0.000000 0.000000 0.000000
-0.258144 1.803148 3.389059 0.000000 0.000000 0.000000
0.127550 1.682459 2.904444 0.000000 0.000000 0.000000
-0.275701 1.788472 3.306833 0.000000 0.000000 0.000000
-0.264600 1.826473 3.403374 0.000000 0.000000 0.000000
-0.267752 1.819367 3.397894 0.000000 0.000000 0.000000
-0.274772 1.793982 3.310772 0.000000 0.000000 0.000000
-0.269276 1.801629 3.382326 0.000000 0.000000 0.000000
-0.267233 1.825379 3.398203 0.000000 0.000000 0.000000
-0.260097 1.810158 3.398257 0.000000 0.000000 0.000000
0.363975 1.487277 2.604744 0.000000 0.000000 0.000000
0.365063 1.487958 2.607653 0.000000 0.000000 0.000000
0.425013 1.440902 2.671343 0.000000 0.000000 0.000000
0.367104 1.481288 2.611118 0.000000 0.000000 0.000000
0.360490 1.486037 2.600397 0.000000 0.000000 0.000000
0.363560 1.487388 2.610586 0.000000 0.000000 0.000000
0.404980 1.459230 2.651783 0.000000 0.000000 0.000000
-0.224292 1.830553 3.373677 0.000000 0.000000 0.000000
0.367715 1.483687 2.612494 0.000000 0.000000 0.000000
-0.269818 1.801341 3.320878 0.000000 0.000000 0.000000
0.399134 1.458141 2.653728 0.000000 0.000000 0.000000
0.407958 1.440143 2.650589 0.000000 0.000000 0.000000
-0.266269 1.801095 3.356083 0.000000 0.000000 0.000000
0.408668 1.445236 2.653001 0.000000 0.000000 0.000000
-0.226035 1.831632 3.384169 0.000000 0.000000 0.000000
-0.259985 1.813213 3.343615 0.000000 0.000000 0.000000
0.359495 1.464819 2.588097 0.000000 0.000000 0.000000
0.414579 1.450519 2.663116 0.000000 0.000000 0.000000
0.400829 1.455992 2.654469 0.000000 0.000000 0.000000
-0.257293 1.802320 3.393288 0.000000 0.000000 0.000000
-0.226558 1.826070 3.386251 0.000000 0.000000 0.000000
-0.232581 1.803284 3.382039 0.000000 0.000000 0.000000
-0.250401 1.810869 3.386883 0.000000 0.000000 0.000000
-0.227077 1.830556 3.375216 0.000000 0.000000 0.000000
-0.234632 1.799002 3.386494 0.000000 0.000000 0.000000
0.150927 1.646907 2.891981 0.000000 0.000000 0.000000
-0.217438 1.830678 3.410518 0.000000 0.000000 0.000000
-0.201091 1.824641 3.414531 0.000000 0.000000 0.000000
0.130850 1.658997 2.900454 0.000000 0.000000 0.000000
0.124488 1.661629 2.903694 0.000000 0.000000 0.000000
-0.208893 1.827284 3.418461 0.000000 0.000000 0.000000
-0.199910 1.836316 3.403062 0.000000 0.000000 0.000000
-0.309434 1.786609 3.323652 0.000000 0.000000 0.000000
-0.205068 1.826322 3.414331 0.000000 0.000000 0.000000
-0.207807 1.837264 3.413471 0.000000 0.000000 0.000000
-0.215364 1.830902 3.419790 0.000000 0.000000 0.000000
-0.300752 1.797730 3.337356 0.000000 0.000000 0.000000
-0.201514 1.828418 3.408524 0.000000 0.000000 0.000000
-0.207496 1.825257 3.418823 0.000000 0.000000 0.000000
-0.307121 1.802955 3.341584 0.000000 0.000000 0.000000
-0.205709 1.823909 3.420452 0.000000 0.000000 0.000000
0.136465 1.649206 2.887361 0.000000 0.000000 0.000000
0.139331 1.652884 2.893653 0.000000 0.000000 0.000000
-0.295101 1.813474 3.373308 0.000000 0.000000 0.000000
0.137248 1.652979 2.896484 0.000000 0.000000 0.000000
-0.290308 1.808982 3.374550 0.000000 0.000000 0.000000
-0.294482 1.810001 3.368627 0.000000 0.000000 0.000000
0.120872 1.664066 2.903236 0.000000 0.000000 0.000000
-0.193530 1.833562 3.405653 0.000000 0.000000 0.000000
-0.188367 1.832076 3.408924 0.000000 0.000000 0.000000
-0.295194 1.810151 3.352676 0.000000 0.000000 0.000000
-0.197026 1.837988 3.402501 0.000000 0.000000 0.000000
-0.267509 1.806875 3.346092 0.000000 0.000000 0.000000
-0.254884 1.808172 3.339924 0.000000 0.000000 0.000000
-0.280834 1.818745 3.340089 0.000000 0.000000 0.000000
-0.298545 1.805877 3.357361 0.000000 0.000000 0.000000
-0.304457 1.805817 3.361480 0.000000 0.000000 0.000000
-0.290386 1.801081 3.364493 0.000000 0.000000 0.000000
0.133569 1.649036 2.880880 0.000000 0.000000 0.000000
-0.283653 1.818589 3.336454 0.000000 0.000000 0.000000
-0.194391 1.826565 3.411937 0.000000 0.000000 0.000000
-0.276026 1.816832 3.336339 0.000000 0.000000 0.000000
-0.279552 1.791833 3.322151 0.000000 0.000000 0.000000
-0.266644 1.809994 3.335994 0.000000 0.000000 0.000000
-0.288226 1.810879 3.346024 0.000000 0.000000 0.000000
-0.238628 1.848063 3.388971 0.000000 0.000000 0.000000
-0.297913 1.811320 3.357170 0.000000 0.000000 0.000000
-0.293034 1.814090 3.365354 0.000000 0.000000 0.000000
-0.264670 1.811902 3.338728 0.000000 0.000000 0.000000
-0.262026 1.797392 3.342885 0.000000 0.000000 0.000000
0.156686 1.641873 2.884525 0.000000 0.000000 0.000000
0.386508 1.425619 2.629913 0.000000 0.000000 0.000000
0.140816 1.655377 2.893368 0.000000 0.000000 0.000000
0.147344 1.648312 2.887586 0.000000 0.000000 0.000000
0.394340 1.421560 2.628159 0.000000 0.000000 0.000000
0.421046 1.440993 2.670411 0.000000 0.000000 0.000000
0.367811 1.457673 2.592278 0.000000 0.000000 0.000000
-0.189696 1.835666 3.417079 0.000000 0.000000 0.000000
0.125338 1.668849 2.888855 0.000000 0.000000 0.000000
-0.201547 1.827813 3.407735 0.000000 0.000000 0.000000
-0.216988 1.827851 3.419397 0.000000 0.000000 0.000000
0.397290 1.458614 2.650183 0.000000 0.000000 0.000000
0.395801 1.462535 2.645132 0.000000 0.000000 0.000000
-0.202279 1.827938 3.404934 0.000000 0.000000 0.000000
-0.211922 1.823730 3.424277 0.000000 0.000000 0.000000
0.403823 1.452717 2.650335 0.000000 0.000000 0.000000
0.411969 1.444279 2.653886 0.000000 0.000000 0.000000
0.400916 1.461867 2.646123 0.000000 0.000000 0.000000
-0.193867 1.833989 3.415857 0.000000 0.000000 0.000000
0.360264 1.476717 2.591195 0.000000 0.000000 0.000000
0.389317 1.436607 2.619883 0.000000 0.000000 0.000000
0.417127 1.448089 2.664141 0.000000 0.000000 0.000000
-0.236427 1.828363 3.381736 0.000000 0.000000 0.000000
0.369213 1.465510 2.599138 0.000000 0.000000 0.000000
0.375804 1.443428 2.605330 0.000000 0.000000 0.000000
-0.245167 1.823173 3.362947 0.000000 0.000000 0.000000
-0.241568 1.823672 3.359536 0.000000 0.000000 0.000000
-0.265042 1.824845 3.379094 0.000000 0.000000 0.000000
0.385146 1.475791 2.632768 0.000000 0.000000 0.000000
-0.222315 1.828573 3.392611 0.000000 0.000000 0.000000
-0.242422 1.811243 3.358678 0.000000 0.000000 0.000000
0.141020 1.664331 2.896833 0.000000 0.000000 0.000000
0.395549 1.460085 2.645303 0.000000 0.000000 0.000000
0.375509 1.474022 2.627107 0.000000 0.000000 0.000000
-0.263903 1.804103 3.342512 0.000000 0.000000 0.000000
-0.241296 1.831812 3.378109 0.000000 0.000000 0.000000
-0.268153 1.825421 3.386334 0.000000 0.000000 0.000000
0.394209 1.464603 2.642199 0.000000 0.000000 0.000000
-0.235471 1.824635 3.366887 0.000000 0.000000 0.000000
0.142075 1.659343 2.894829 0.000000 0.000000 0.000000
0.388699 1.466316 2.641388 0.000000 0.000000 0.000000
0.381902 1.472808 2.628639 0.000000 0.000000 0.000000
-0.266991 1.801971 3.341732 0.000000 0.000000 0.000000
0.357043 1.473973 2.584010 0.000000 0.000000 0.000000
0.370492 1.444821 2.598343 0.000000 0.000000 0.000000
0.373771 1.481223 2.618233 0.000000 0.000000 0.000000
0.371555 1.479058 2.619373 0.000000 0.000000 0.000000
0.363129 1.487605 2.614693 0.000000 0.000000 0.000000
-0.278468 1.799153 3.313694 0.000000 0.000000 0.000000
0.122240 1.673168 2.922238 0.000000 0.000000 0.000000
0.122705 1.673178 2.891020 0.000000 0.000000 0.000000
0.124851 1.667259 2.911190 0.000000 0.000000 0.000000
0.126732 1.667184 2.915892 0.000000 0.000000 0.000000
0.373588 1.442613 2.601179 0.000000 0.000000 0.000000
0.371032 1.449871 2.599146 0.000000 0.000000 0.000000
0.367635 1.451466 2.596334 0.000000 0.000000 0.000000
0.384468 1.438308 2.610925 0.000000 0.000000 0.000000
0.375792 1.439796 2.603677 0.000000 0.000000 0.000000
0.384364 1.437812 2.609092 0.000000 0.000000 0.000000
0.368141 1.449996 2.595913 0.000000 0.000000 0.000000
0.373474 1.447273 2.600556 0.000000 0.000000 0.000000
0.393929 1.431332 2.621656 0.000000 0.000000 0.000000
0.384539 1.434357 2.611765 0.000000 0.000000 0.000000
-0.294033 1.788753 3.347151 0.000000 0.000000 0.000000
-0.306219 1.798031 3.334534 0.000000 0.000000 0.000000
-0.298452 1.786559 3.331890 0.000000 0.000000 0.000000
-0.311625 1.792029 3.320907 0.000000 0.000000 0.000000
0.127808 1.664838 2.911210 0.000000 0.000000 0.000000
-0.299447 1.797488 3.346292 0.000000 0.000000 0.000000
-0.299110 1.812240 3.348552 0.000000 0.000000 0.000000
0.357878 1.472145 2.588187 0.000000 0.000000 0.000000
0.353746 1.478107 2.580422 0.000000 0.000000 0.000000
-0.243189 1.805540 3.405520 0.000000 0.000000 0.000000
-0.254706 1.809585 3.351606 0.000000 0.000000 0.000000
-0.315409 1.798329 3.326936 0.000000 0.000000 0.000000
-0.305562 1.807015 3.347012 0.000000 0.000000 0.000000
-0.303563 1.798722 3.340793 0.000000 0.000000 0.000000
0.356524 1.473675 2.582513 0.000000 0.000000 0.000000
-0.238846 1.806247 3.409902 0.000000 0.000000 0.000000
0.377472 1.500466 2.594532 0.000000 0.000000 0.000000
-0.256432 1.815351 3.353837 0.000000 0.000000 0.000000
-0.311839 1.804229 3.335491 0.000000 0.000000 0.000000
0.376671 1.439217 2.607977 0.000000 0.000000 0.000000
0.400351 1.418115 2.629185 0.000000 0.000000 0.000000
0.125631 1.665872 2.909067 0.000000 0.000000 0.000000
0.127251 1.673014 2.912246 0.000000 0.000000 0.000000
0.399329 1.461200 2.646162 0.000000 0.000000 0.000000
0.380669 1.432477 2.613058 0.000000 0.000000 0.000000
0.383053 1.439248 2.602808 0.000000 0.000000 0.000000
0.388787 1.430727 2.617589 0.000000 0.000000 0.000000
0.378394 1.447379 2.608232 0.000000 0.000000 0.000000
0.389364 1.466474 2.637484 0.000000 0.000000 0.000000
0.406986 1.415596 2.631491 0.000000 0.000000 0.000000
0.389124 1.464752 2.639987 0.000000 0.000000 0.000000
0.393506 1.429566 2.618931 0.000000 0.000000 0.000000
0.387660 1.436477 2.612555 0.000000 0.000000 0.000000
0.384801 1.435568 2.613282 0.000000 0.000000 0.000000
0.395256 1.429170 2.622602 0.000000 0.000000 0.000000
0.399397 1.458890 2.649074 0.000000 0.000000 0.000000
0.388112 1.431961 2.613743 0.000000 0.000000 0.000000
0.406490 1.453882 2.655112 0.000000 0.000000 0.000000
0.390787 1.431074 2.619935 0.000000 0.000000 0.000000
-0.194443 1.832759 3.412396 0.000000 0.000000 0.000000
0.131932 1.667393 2.917114 0.000000 0.000000 0.000000
-0.200422 1.831522 3.397185 0.000000 0.000000 0.000000
0.130313 1.668363 2.916795 0.000000 0.000000 0.000000
0.129512 1.671212 2.913615 0.000000 0.000000 0.000000
-0.193468 1.830625 3.420496 0.000000 0.000000 0.000000
0.131151 1.662198 2.902088 0.000000 0.000000 0.000000
-0.228322 1.819975 3.426649 0.000000 0.000000 0.000000
-0.278595 1.806405 3.378573 0.000000 0.000000 0.000000
-0.236068 1.813816 3.420419 0.000000 0.000000 0.000000
0.144556 1.652035 2.895118 0.000000 0.000000 0.000000
-0.230597 1.824667 3.420613 0.000000 0.000000 0.000000
-0.267120 1.810555 3.383089 0.000000 0.000000 0.000000
-0.221258 1.819219 3.425404 0.000000 0.000000 0.000000
0.127898 1.670123 2.917298 0.000000 0.000000 0.000000
0.122962 1.674167 2.917405 0.000000 0.000000 0.000000
-0.276106 1.820740 3.391934 0.000000 0.000000 0.000000
-0.280054 1.815086 3.383193 0.000000 0.000000 0.000000
-0.270726 1.821455 3.391730 0.000000 0.000000 0.000000
-0.283054 1.815747 3.383885 0.000000 0.000000 0.000000
-0.232317 1.839459 3.380417 0.000000 0.000000 0.000000
-0.228672 1.852881 3.384344 0.000000 0.000000 0.000000
0.120687 1.657304 2.902039 0.000000 0.000000 0.000000
0.372140 1.451836 2.601022 0.000000 0.000000 0.000000
-0.228112 1.844539 3.385515 0.000000 0.000000 0.000000
0.126776 1.664729 2.908418 0.000000 0.000000 0.000000
0.371930 1.442836 2.602973 0.000000 0.000000 0.000000
0.124796 1.675881 2.919310 0.000000 0.000000 0.000000
0.127661 1.663599 2.922408 0.000000 0.000000 0.000000
0.373190 1.491511 2.618989 0.000000 0.000000 0.000000
-0.233642 1.837619 3.369401 0.000000 0.000000 0.000000
-0.239433 1.831199 3.361102 0.000000 0.000000 0.000000
-0.199295 1.831198 3.404618 0.000000 0.000000 0.000000
0.364056 1.455773 2.591563 0.000000 0.000000 0.000000
0.366431 1.455256 2.594485 0.000000 0.000000 0.000000
0.363740 1.457505 2.596007 0.000000 0.000000 0.000000
0.358685 1.465444 2.590110 0.000000 0.000000 0.000000
0.366109 1.447559 2.599190 0.000000 0.000000 0.000000
0.380341 1.428604 2.618729 0.000000 0.000000 0.000000
0.360955 1.453287 2.598348 0.000000 0.000000 0.000000
0.358365 1.475467 2.588646 0.000000 0.000000 0.000000
0.359286 1.449328 2.596122 0.000000 0.000000 0.000000
0.373045 1.435898 2.610173 0.000000 0.000000 0.000000
0.123014 1.647055 2.880488 0.000000 0.000000 0.000000
0.366014 1.454727 2.596104 0.000000 0.000000 0.000000
-0.271703 1.797223 3.327810 0.000000 0.000000 0.000000
-0.277050 1.795987 3.312634 0.000000 0.000000 0.000000
-0.230706 1.824690 3.426246 0.000000 0.000000 0.000000
0.132329 1.649891 2.885870 0.000000 0.000000 0.000000
0.132832 1.651991 2.880225 0.000000 0.000000 0.000000
0.383814 1.437994 2.610671 0.000000 0.000000 0.000000
0.387875 1.435156 2.617616 0.000000 0.000000 0.000000
0.391101 1.465125 2.642259 0.000000 0.000000 0.000000
-0.254924 1.821874 3.409280 0.000000 0.000000 0.000000
-0.228311 1.808273 3.411073 0.000000 0.000000 0.000000
-0.250421 1.820989 3.416494 0.000000 0.000000 0.000000
-0.252135 1.820222 3.412115 0.000000 0.000000 0.000000
-0.220597 1.814013 3.421075 0.000000 0.000000 0.000000
-0.271665 1.790568 3.313794 0.000000 0.000000 0.000000
-0.275807 1.808380 3.322546 0.000000 0.000000 0.000000
0.125813 1.644108 2.883040 0.000000 0.000000 0.000000
0.132024 1.644568 2.883959 0.000000 0.000000 0.000000
-0.239349 1.838425 3.407773 0.000000 0.000000 0.000000
-0.239966 1.822697 3.419347 0.000000 0.000000 0.000000
-0.251088 1.828011 3.415552 0.000000 0.000000 0.000000
-0.270835 1.801589 3.330107 0.000000 0.000000 0.000000
0.375823 1.450369 2.604213 0.000000 0.000000 0.000000
-0.239885 1.846393 3.372225 0.000000 0.000000 0.000000
-0.253852 1.824968 3.409636 0.000000 0.000000 0.000000
-0.216504 1.807583 3.412309 0.000000 0.000000 0.000000
-0.240378 1.814267 3.420236 0.000000 0.000000 0.000000
-0.242169 1.818795 3.418848 0.000000 0.000000 0.000000
-0.243968 1.822902 3.419252 0.000000 0.000000 0.000000
-0.220473 1.810049 3.415918 0.000000 0.000000 0.000000
-0.268197 1.793523 3.319524 0.000000 0.000000 0.000000
-0.273023 1.813702 3.329401 0.000000 0.000000 0.000000
-0.244670 1.835318 3.413616 0.000000 0.000000 0.000000
-0.241177 1.825584 3.421213 0.000000 0.000000 0.000000
-0.252940 1.825961 3.411546 0.000000 0.000000 0.000000
0.358831 1.491585 2.606322 0.000000 0.000000 0.000000
-0.264517 1.802922 3.337574 0.000000 0.000000 0.000000
0.386261 1.484127 2.630713 0.000000 0.000000 0.000000
0.377479 1.443207 2.605699 0.000000 0.000000 0.000000
-0.230253 1.843753 3.362817 0.000000 0.000000 0.000000
0.135500 1.649995 2.888390 0.000000 0.000000 0.000000
0.151182 1.643201 2.887967 0.000000 0.000000 0.000000
0.148436 1.649729 2.891104 0.000000 0.000000 0.000000
0.124472 1.668606 2.915008 0.000000 0.000000 0.000000
-0.279991 1.804264 3.325081 0.000000 0.000000 0.000000
-0.276001 1.798247 3.314876 0.000000 0.000000 0.000000
0.375638 1.478825 2.627153 0.000000 0.000000 0.000000
-0.199400 1.832110 3.404893 0.000000 0.000000 0.000000
0.155740 1.643700 2.890927 0.000000 0.000000 0.000000
0.131405 1.668567 2.913814 0.000000 0.000000 0.000000
0.129863 1.665814 2.912255 0.000000 0.000000 0.000000
-0.201394 1.838378 3.401331 0.000000 0.000000 0.000000
0.414575 1.446135 2.663185 0.000000 0.000000 0.000000
0.411300 1.452673 2.658653 0.000000 0.000000 0.000000
0.405243 1.453462 2.654605 0.000000 0.000000 0.000000
0.419351 1.444836 2.666193 0.000000 0.000000 0.000000
0.375530 1.481841 2.626122 0.000000 0.000000 0.000000
-0.198915 1.834191 3.396272 0.000000 0.000000 0.000000
-0.211072 1.836677 3.386862 0.000000 0.000000 0.000000
0.132283 1.663440 2.908792 0.000000 0.000000 0.000000
0.366277 1.484931 2.617049 0.000000 0.000000 0.000000
-0.198439 1.838385 3.406638 0.000000 0.000000 0.000000
0.409351 1.449528 2.661394 0.000000 0.000000 0.000000
0.411987 1.446593 2.660075 0.000000 0.000000 0.000000
0.419928 1.444152 2.664558 0.000000 0.000000 0.000000
0.403791 1.454781 2.651110 0.000000 0.000000 0.000000
0.368861 1.483402 2.622171 0.000000 0.000000 0.000000
-0.195905 1.830485 3.395072 0.000000 0.000000 0.000000
-0.207871 1.836224 3.393119 0.000000 0.000000 0.000000
-0.279862 1.795078 3.307992 0.000000 0.000000 0.000000
0.132396 1.665123 2.909545 0.000000 0.000000 0.000000
0.363975 1.487369 2.615934 0.000000 0.000000 0.000000
