ply
format ascii 1.0
comment VCGLIB generated
obj_info Generated by SPFormer!
element vertex 316
property float x
property float y
property float z
property float nx
property float ny
property float nz
end_header
1.844744 0.539501 0.430033 0.000000 0.000000 0.000000
1.893074 0.536902 0.415728 0.000000 0.000000 0.000000
1.895092 0.532198 0.402055 0.000000 0.000000 0.000000
1.883200 0.549237 0.409476 0.000000 0.000000 0.000000
1.886485 0.541253 0.405020 0.000000 0.000000 0.000000
1.859860 0.550612 0.434163 0.000000 0.000000 0.000000
1.908961 0.540681 0.403139 0.000000 0.000000 0.000000
1.892969 0.556870 0.410920 0.000000 0.000000 0.000000
1.894001 0.550110 0.408078 0.000000 0.000000 0.000000
1.889168 0.564138 0.432425 0.000000 0.000000 0.000000
1.866671 0.556298 0.427873 0.000000 0.000000 0.000000
1.883437 0.534610 0.409353 0.000000 0.000000 0.000000
1.853145 0.536912 0.416304 0.000000 0.000000 0.000000
1.881889 0.548476 0.416648 0.000000 0.000000 0.000000
1.878222 0.542932 0.419077 0.000000 0.000000 0.000000
1.848255 0.556823 0.425031 0.000000 0.000000 0.000000
1.897028 0.550202 0.414517 0.000000 0.000000 0.000000
1.897724 0.546401 0.403117 0.000000 0.000000 0.000000
1.885290 0.531008 0.407137 0.000000 0.000000 0.000000
1.900946 0.538376 0.406793 0.000000 0.000000 0.000000
1.871003 0.540105 0.439857 0.000000 0.000000 0.000000
1.868557 0.530600 0.411127 0.000000 0.000000 0.000000
1.888704 0.549468 0.414648 0.000000 0.000000 0.000000
1.868309 0.550901 0.422162 0.000000 0.000000 0.000000
1.880473 0.556384 0.435240 0.000000 0.000000 0.000000
1.884349 0.552759 0.418500 0.000000 0.000000 0.000000
1.883783 0.547407 0.413509 0.000000 0.000000 0.000000
1.873924 0.548107 0.421893 0.000000 0.000000 0.000000
1.896863 0.553732 0.422327 0.000000 0.000000 0.000000
1.860854 0.544490 0.429138 0.000000 0.000000 0.000000
1.899991 0.540664 0.401445 0.000000 0.000000 0.000000
1.877227 0.544466 0.422634 0.000000 0.000000 0.000000
1.882933 0.541573 0.415896 0.000000 0.000000 0.000000
1.871790 0.560233 0.428807 0.000000 0.000000 0.000000
1.885302 0.555236 0.429429 0.000000 0.000000 0.000000
1.895791 0.541549 0.427816 0.000000 0.000000 0.000000
1.871121 0.539706 0.430333 0.000000 0.000000 0.000000
1.904486 0.537717 0.401011 0.000000 0.000000 0.000000
1.874857 0.537624 0.407208 0.000000 0.000000 0.000000
1.897811 0.542089 0.402253 0.000000 0.000000 0.000000
1.900032 0.536998 0.416485 0.000000 0.000000 0.000000
1.883580 0.539059 0.414410 0.000000 0.000000 0.000000
1.876604 0.559413 0.405625 0.000000 0.000000 0.000000
1.895547 0.546912 0.406967 0.000000 0.000000 0.000000
1.890975 0.535771 0.404943 0.000000 0.000000 0.000000
1.896820 0.551918 0.419715 0.000000 0.000000 0.000000
1.868883 0.567043 0.432796 0.000000 0.000000 0.000000
1.885438 0.562168 0.410148 0.000000 0.000000 0.000000
1.871914 0.563825 0.422878 0.000000 0.000000 0.000000
1.899179 0.555452 0.415306 0.000000 0.000000 0.000000
1.886734 0.534300 0.400130 0.000000 0.000000 0.000000
1.883865 0.554205 0.411803 0.000000 0.000000 0.000000
1.851239 0.540116 0.420742 0.000000 0.000000 0.000000
1.891495 0.552367 0.419286 0.000000 0.000000 0.000000
1.876036 0.566411 0.430922 0.000000 0.000000 0.000000
1.884483 0.558768 0.406965 0.000000 0.000000 0.000000
1.870047 0.559073 0.409093 0.000000 0.000000 0.000000
1.874294 0.550560 0.435549 0.000000 0.000000 0.000000
1.891971 0.540658 0.422978 0.000000 0.000000 0.000000
1.895398 0.561876 0.423545 0.000000 0.000000 0.000000
1.852726 0.558796 0.438120 0.000000 0.000000 0.000000
1.883946 0.552559 0.418701 0.000000 0.000000 0.000000
1.890305 0.562264 0.420377 0.000000 0.000000 0.000000
1.858584 0.552939 0.435272 0.000000 0.000000 0.000000
1.876819 0.536042 0.433036 0.000000 0.000000 0.000000
1.879675 0.544865 0.437306 0.000000 0.000000 0.000000
1.896278 0.559207 0.410883 0.000000 0.000000 0.000000
1.871206 0.569378 0.436367 0.000000 0.000000 0.000000
1.881023 0.568086 0.433614 0.000000 0.000000 0.000000
1.890844 0.553295 0.422907 0.000000 0.000000 0.000000
1.888186 0.546101 0.418261 0.000000 0.000000 0.000000
1.894478 0.552385 0.423494 0.000000 0.000000 0.000000
1.880385 0.542325 0.414510 0.000000 0.000000 0.000000
1.848698 0.551265 0.433329 0.000000 0.000000 0.000000
1.893509 0.538882 0.408079 0.000000 0.000000 0.000000
1.883446 0.533639 0.406530 0.000000 0.000000 0.000000
1.888409 0.537459 0.412847 0.000000 0.000000 0.000000
1.886838 0.541539 0.401664 0.000000 0.000000 0.000000
1.899357 0.529787 0.400853 0.000000 0.000000 0.000000
1.855594 0.551967 0.439154 0.000000 0.000000 0.000000
1.861530 0.549783 0.430907 0.000000 0.000000 0.000000
1.863949 0.547875 0.415431 0.000000 0.000000 0.000000
1.869338 0.550711 0.424858 0.000000 0.000000 0.000000
1.856540 0.559024 0.437952 0.000000 0.000000 0.000000
1.877721 0.532792 0.402343 0.000000 0.000000 0.000000
1.883433 0.548350 0.426231 0.000000 0.000000 0.000000
1.880446 0.542410 0.421895 0.000000 0.000000 0.000000
1.875733 0.534060 0.400932 0.000000 0.000000 0.000000
1.901215 0.543419 0.408061 0.000000 0.000000 0.000000
1.874168 0.539999 0.409100 0.000000 0.000000 0.000000
1.877878 0.540456 0.406856 0.000000 0.000000 0.000000
1.884023 0.545869 0.414971 0.000000 0.000000 0.000000
1.876081 0.541572 0.429666 0.000000 0.000000 0.000000
1.893393 0.536364 0.420020 0.000000 0.000000 0.000000
1.878298 0.548922 0.439545 0.000000 0.000000 0.000000
1.878540 0.549652 0.414683 0.000000 0.000000 0.000000
1.875152 0.556570 0.425191 0.000000 0.000000 0.000000
1.861194 0.548652 0.422389 0.000000 0.000000 0.000000
1.889211 0.548580 0.409035 0.000000 0.000000 0.000000
1.885880 0.553763 0.425770 0.000000 0.000000 0.000000
1.875720 0.556907 0.431666 0.000000 0.000000 0.000000
1.893700 0.546638 0.414691 0.000000 0.000000 0.000000
1.874714 0.549026 0.428573 0.000000 0.000000 0.000000
1.861506 0.567255 0.426964 0.000000 0.000000 0.000000
1.887864 0.553959 0.417271 0.000000 0.000000 0.000000
1.876388 0.548570 0.415470 0.000000 0.000000 0.000000
1.889205 0.533440 0.413728 0.000000 0.000000 0.000000
1.890481 0.534319 0.408879 0.000000 0.000000 0.000000
1.899633 0.536705 0.412223 0.000000 0.000000 0.000000
1.894963 0.538624 0.404231 0.000000 0.000000 0.000000
1.851397 0.547972 0.427890 0.000000 0.000000 0.000000
1.899045 0.531157 0.405569 0.000000 0.000000 0.000000
1.900340 0.546762 0.435401 0.000000 0.000000 0.000000
1.893174 0.551791 0.419969 0.000000 0.000000 0.000000
1.866989 0.555244 0.428093 0.000000 0.000000 0.000000
1.868691 0.556382 0.431979 0.000000 0.000000 0.000000
1.861250 0.554302 0.423609 0.000000 0.000000 0.000000
1.887671 0.544417 0.403376 0.000000 0.000000 0.000000
1.881948 0.537776 0.431337 0.000000 0.000000 0.000000
1.875715 0.540379 0.436678 0.000000 0.000000 0.000000
1.877291 0.563004 0.415134 0.000000 0.000000 0.000000
1.878765 0.553123 0.431663 0.000000 0.000000 0.000000
1.892961 0.547560 0.410541 0.000000 0.000000 0.000000
1.878237 0.541175 0.432253 0.000000 0.000000 0.000000
1.889960 0.538794 0.428998 0.000000 0.000000 0.000000
1.884571 0.540189 0.425168 0.000000 0.000000 0.000000
1.891658 0.540919 0.415412 0.000000 0.000000 0.000000
1.901901 0.545169 0.408463 0.000000 0.000000 0.000000
1.900486 0.537531 0.411761 0.000000 0.000000 0.000000
1.873922 0.542943 0.432587 0.000000 0.000000 0.000000
1.887252 0.537859 0.421695 0.000000 0.000000 0.000000
1.861723 0.543527 0.433230 0.000000 0.000000 0.000000
1.868958 0.542629 0.409882 0.000000 0.000000 0.000000
1.859374 0.549621 0.427710 0.000000 0.000000 0.000000
1.892298 0.542446 0.400628 0.000000 0.000000 0.000000
1.872644 0.544255 0.413074 0.000000 0.000000 0.000000
1.857165 0.557845 0.437480 0.000000 0.000000 0.000000
1.883889 0.547140 0.420744 0.000000 0.000000 0.000000
1.879114 0.554822 0.426597 0.000000 0.000000 0.000000
1.880964 0.552443 0.428080 0.000000 0.000000 0.000000
1.892434 0.546881 0.417646 0.000000 0.000000 0.000000
2.073319 0.768399 0.487334 0.000000 0.000000 0.000000
2.078113 0.763238 0.476533 0.000000 0.000000 0.000000
2.133454 0.808029 0.519951 0.000000 0.000000 0.000000
2.132095 0.787342 0.517944 0.000000 0.000000 0.000000
2.136001 0.788679 0.517398 0.000000 0.000000 0.000000
2.143778 0.805611 0.545933 0.000000 0.000000 0.000000
2.074060 0.785487 0.512472 0.000000 0.000000 0.000000
2.151875 0.802368 0.543724 0.000000 0.000000 0.000000
2.070521 0.757602 0.472477 0.000000 0.000000 0.000000
2.139286 0.796410 0.532386 0.000000 0.000000 0.000000
2.138021 0.784839 0.524141 0.000000 0.000000 0.000000
2.073495 0.774229 0.499372 0.000000 0.000000 0.000000
2.131523 0.805759 0.502513 0.000000 0.000000 0.000000
2.094221 0.771429 0.506995 0.000000 0.000000 0.000000
2.075208 0.773703 0.489712 0.000000 0.000000 0.000000
2.129843 0.813375 0.527330 0.000000 0.000000 0.000000
2.076418 0.766770 0.498459 0.000000 0.000000 0.000000
2.133222 0.816477 0.532247 0.000000 0.000000 0.000000
2.068316 0.765771 0.492264 0.000000 0.000000 0.000000
2.139475 0.781180 0.519499 0.000000 0.000000 0.000000
2.137778 0.823634 0.539007 0.000000 0.000000 0.000000
2.128283 0.808513 0.520707 0.000000 0.000000 0.000000
2.087888 0.755516 0.474892 0.000000 0.000000 0.000000
2.115480 0.808609 0.518777 0.000000 0.000000 0.000000
2.130975 0.810355 0.518603 0.000000 0.000000 0.000000
2.140566 0.821529 0.536878 0.000000 0.000000 0.000000
2.082791 0.774224 0.494072 0.000000 0.000000 0.000000
2.088159 0.768318 0.506681 0.000000 0.000000 0.000000
2.075878 0.767842 0.496164 0.000000 0.000000 0.000000
2.153352 0.811395 0.536253 0.000000 0.000000 0.000000
2.133952 0.822229 0.537094 0.000000 0.000000 0.000000
2.134651 0.806952 0.537723 0.000000 0.000000 0.000000
2.136324 0.767963 0.505247 0.000000 0.000000 0.000000
2.133253 0.791636 0.524115 0.000000 0.000000 0.000000
2.136147 0.770911 0.515116 0.000000 0.000000 0.000000
2.132401 0.779159 0.506616 0.000000 0.000000 0.000000
2.130514 0.770379 0.486864 0.000000 0.000000 0.000000
2.140452 0.781776 0.520049 0.000000 0.000000 0.000000
2.140696 0.764471 0.488900 0.000000 0.000000 0.000000
2.141037 0.784871 0.518336 0.000000 0.000000 0.000000
2.080306 0.788166 0.518706 0.000000 0.000000 0.000000
2.133493 0.813812 0.534071 0.000000 0.000000 0.000000
2.139955 0.806494 0.535867 0.000000 0.000000 0.000000
2.142262 0.789711 0.525861 0.000000 0.000000 0.000000
2.124219 0.809316 0.527335 0.000000 0.000000 0.000000
2.071927 0.752962 0.470609 0.000000 0.000000 0.000000
2.085438 0.781860 0.492787 0.000000 0.000000 0.000000
2.134187 0.815297 0.535527 0.000000 0.000000 0.000000
2.117474 0.818716 0.528699 0.000000 0.000000 0.000000
2.134408 0.813984 0.525470 0.000000 0.000000 0.000000
2.172753 0.791417 0.526029 0.000000 0.000000 0.000000
2.155519 0.783898 0.531195 0.000000 0.000000 0.000000
2.165871 0.787292 0.525983 0.000000 0.000000 0.000000
2.157072 0.790676 0.523602 0.000000 0.000000 0.000000
2.074031 0.762089 0.485063 0.000000 0.000000 0.000000
2.141262 0.824128 0.538553 0.000000 0.000000 0.000000
2.134441 0.767530 0.493610 0.000000 0.000000 0.000000
2.134624 0.814415 0.532530 0.000000 0.000000 0.000000
2.089716 0.775623 0.511971 0.000000 0.000000 0.000000
2.082391 0.776800 0.511292 0.000000 0.000000 0.000000
2.086973 0.771281 0.507578 0.000000 0.000000 0.000000
2.083101 0.777468 0.497029 0.000000 0.000000 0.000000
2.153925 0.812717 0.539147 0.000000 0.000000 0.000000
2.091968 0.765264 0.497760 0.000000 0.000000 0.000000
2.136283 0.765188 0.499749 0.000000 0.000000 0.000000
2.066539 0.762768 0.478991 0.000000 0.000000 0.000000
2.134237 0.783838 0.507581 0.000000 0.000000 0.000000
2.086693 0.771774 0.495610 0.000000 0.000000 0.000000
2.069120 0.765152 0.484492 0.000000 0.000000 0.000000
2.081479 0.766549 0.482926 0.000000 0.000000 0.000000
2.133309 0.772779 0.502883 0.000000 0.000000 0.000000
2.074527 0.770435 0.487575 0.000000 0.000000 0.000000
2.134124 0.769854 0.486016 0.000000 0.000000 0.000000
2.143151 0.786704 0.529286 0.000000 0.000000 0.000000
2.137747 0.791008 0.522830 0.000000 0.000000 0.000000
2.142232 0.787867 0.520827 0.000000 0.000000 0.000000
2.148818 0.790766 0.529210 0.000000 0.000000 0.000000
2.127534 0.788566 0.523297 0.000000 0.000000 0.000000
2.141955 0.783521 0.511744 0.000000 0.000000 0.000000
2.077403 0.757478 0.471085 0.000000 0.000000 0.000000
2.144432 0.775375 0.501477 0.000000 0.000000 0.000000
2.131638 0.771021 0.490604 0.000000 0.000000 0.000000
2.146478 0.777549 0.512113 0.000000 0.000000 0.000000
2.132577 0.779440 0.503256 0.000000 0.000000 0.000000
2.129342 0.776350 0.500405 0.000000 0.000000 0.000000
2.084107 0.765709 0.501022 0.000000 0.000000 0.000000
2.146563 0.808946 0.535296 0.000000 0.000000 0.000000
2.142450 0.791990 0.534598 0.000000 0.000000 0.000000
2.128208 0.792306 0.501414 0.000000 0.000000 0.000000
2.138926 0.773514 0.511319 0.000000 0.000000 0.000000
2.133260 0.801373 0.505290 0.000000 0.000000 0.000000
2.142211 0.793690 0.531321 0.000000 0.000000 0.000000
2.133916 0.769231 0.495430 0.000000 0.000000 0.000000
2.128972 0.822642 0.535947 0.000000 0.000000 0.000000
2.074466 0.754524 0.465146 0.000000 0.000000 0.000000
2.132575 0.824458 0.531235 0.000000 0.000000 0.000000
2.133608 0.766612 0.486274 0.000000 0.000000 0.000000
2.138767 0.809437 0.538178 0.000000 0.000000 0.000000
2.084182 0.762350 0.492810 0.000000 0.000000 0.000000
2.079497 0.754213 0.485049 0.000000 0.000000 0.000000
2.078004 0.775072 0.510650 0.000000 0.000000 0.000000
2.088793 0.769505 0.508835 0.000000 0.000000 0.000000
2.132203 0.761099 0.483344 0.000000 0.000000 0.000000
2.084283 0.773573 0.502776 0.000000 0.000000 0.000000
2.081356 0.776276 0.500648 0.000000 0.000000 0.000000
2.086197 0.778169 0.507908 0.000000 0.000000 0.000000
2.135017 0.800891 0.517519 0.000000 0.000000 0.000000
2.126469 0.792168 0.510684 0.000000 0.000000 0.000000
2.126184 0.797616 0.511920 0.000000 0.000000 0.000000
2.127699 0.787690 0.504327 0.000000 0.000000 0.000000
2.141913 0.773649 0.519652 0.000000 0.000000 0.000000
2.133007 0.822625 0.537721 0.000000 0.000000 0.000000
2.135069 0.773040 0.492299 0.000000 0.000000 0.000000
2.135472 0.763416 0.489151 0.000000 0.000000 0.000000
2.131043 0.773554 0.495805 0.000000 0.000000 0.000000
2.135387 0.813255 0.541664 0.000000 0.000000 0.000000
2.096572 0.777650 0.503038 0.000000 0.000000 0.000000
2.095404 0.777208 0.519554 0.000000 0.000000 0.000000
2.129325 0.770858 0.487883 0.000000 0.000000 0.000000
2.130614 0.771727 0.488785 0.000000 0.000000 0.000000
2.131798 0.765072 0.486546 0.000000 0.000000 0.000000
2.135529 0.818224 0.536201 0.000000 0.000000 0.000000
2.135749 0.791899 0.523459 0.000000 0.000000 0.000000
2.126933 0.806653 0.522407 0.000000 0.000000 0.000000
2.138145 0.784539 0.517646 0.000000 0.000000 0.000000
2.130277 0.791534 0.519067 0.000000 0.000000 0.000000
2.119346 0.799432 0.507877 0.000000 0.000000 0.000000
2.132371 0.775955 0.523684 0.000000 0.000000 0.000000
2.128090 0.799591 0.522016 0.000000 0.000000 0.000000
2.131238 0.800401 0.518471 0.000000 0.000000 0.000000
2.086814 0.763118 0.506116 0.000000 0.000000 0.000000
2.117947 0.811803 0.526213 0.000000 0.000000 0.000000
2.082670 0.766712 0.500229 0.000000 0.000000 0.000000
2.088644 0.772870 0.504238 0.000000 0.000000 0.000000
2.131073 0.764236 0.480196 0.000000 0.000000 0.000000
2.153284 0.809780 0.542201 0.000000 0.000000 0.000000
2.131084 0.808807 0.536166 0.000000 0.000000 0.000000
2.146392 0.796153 0.542332 0.000000 0.000000 0.000000
2.126351 0.810653 0.525021 0.000000 0.000000 0.000000
2.132048 0.815562 0.531076 0.000000 0.000000 0.000000
2.134621 0.814052 0.532690 0.000000 0.000000 0.000000
2.130490 0.814937 0.535108 0.000000 0.000000 0.000000
2.167184 0.796595 0.526031 0.000000 0.000000 0.000000
2.128147 0.806452 0.521827 0.000000 0.000000 0.000000
2.151178 0.785109 0.537892 0.000000 0.000000 0.000000
2.153934 0.794632 0.527750 0.000000 0.000000 0.000000
2.151815 0.791405 0.538710 0.000000 0.000000 0.000000
2.152009 0.798439 0.524017 0.000000 0.000000 0.000000
2.133117 0.809423 0.534636 0.000000 0.000000 0.000000
2.131415 0.767470 0.503445 0.000000 0.000000 0.000000
2.145371 0.797972 0.512170 0.000000 0.000000 0.000000
2.129485 0.784419 0.499297 0.000000 0.000000 0.000000
2.133768 0.777152 0.508730 0.000000 0.000000 0.000000
2.134413 0.780964 0.514778 0.000000 0.000000 0.000000
2.128990 0.788290 0.516841 0.000000 0.000000 0.000000
2.132650 0.775033 0.515902 0.000000 0.000000 0.000000
2.135987 0.772925 0.526051 0.000000 0.000000 0.000000
2.139129 0.803081 0.536981 0.000000 0.000000 0.000000
2.137036 0.810535 0.540737 0.000000 0.000000 0.000000
2.137173 0.809383 0.538370 0.000000 0.000000 0.000000
2.152117 0.784536 0.528381 0.000000 0.000000 0.000000
2.127655 0.812397 0.531096 0.000000 0.000000 0.000000
2.133783 0.793221 0.523383 0.000000 0.000000 0.000000
2.148671 0.793301 0.524553 0.000000 0.000000 0.000000
2.121005 0.812674 0.522652 0.000000 0.000000 0.000000
2.123821 0.809997 0.528295 0.000000 0.000000 0.000000
2.133221 0.819625 0.537212 0.000000 0.000000 0.000000
2.125032 0.792497 0.528277 0.000000 0.000000 0.000000
2.135364 0.798938 0.520419 0.000000 0.000000 0.000000
2.138404 0.785771 0.503072 0.000000 0.000000 0.000000
2.151408 0.787796 0.532000 0.000000 0.000000 0.000000
2.128524 0.806964 0.525440 0.000000 0.000000 0.000000
2.127928 0.802742 0.517457 0.000000 0.000000 0.000000
2.135100 0.790575 0.512292 0.000000 0.000000 0.000000
2.146302 0.792098 0.528853 0.000000 0.000000 0.000000
